<?xml version="1.0" encoding="UTF-8" standalone="no"?>
<svg
   xmlns:ns2="http://www.iki.fi/pav/software/textext/"
   xmlns:dc="http://purl.org/dc/elements/1.1/"
   xmlns:cc="http://creativecommons.org/ns#"
   xmlns:rdf="http://www.w3.org/1999/02/22-rdf-syntax-ns#"
   xmlns:svg="http://www.w3.org/2000/svg"
   xmlns="http://www.w3.org/2000/svg"
   xmlns:sodipodi="http://sodipodi.sourceforge.net/DTD/sodipodi-0.dtd"
   xmlns:inkscape="http://www.inkscape.org/namespaces/inkscape"
   width="46.099216mm"
   height="48.75082mm"
   viewBox="0 0 46.099216 48.75082"
   version="1.1"
   id="svg8"
   inkscape:version="1.0.1 (3bc2e813f5, 2020-09-07)"
   sodipodi:docname="fig_5_21.svg">
  <defs
     id="defs2">
    <marker
       style="overflow:visible"
       id="marker11529"
       refX="0"
       refY="0"
       orient="auto"
       inkscape:stockid="Arrow1Send"
       inkscape:isstock="true">
      <path
         transform="matrix(-0.2,0,0,-0.2,-1.2,0)"
         style="fill:#000000;fill-opacity:1;fill-rule:evenodd;stroke:#000000;stroke-width:1pt;stroke-opacity:1"
         d="M 0,0 5,-5 -12.5,0 5,5 Z"
         id="path11527" />
    </marker>
    <pattern
       id="EMFhbasepattern"
       patternUnits="userSpaceOnUse"
       width="6"
       height="6"
       x="0"
       y="0" />
    <g
       id="g45954"
       style="fill:#000000;fill-opacity:1;stroke-width:0">
      <symbol
         overflow="visible"
         id="symbol45940"
         style="fill:#000000;fill-opacity:1;stroke-width:0">
        <path
           style="fill:#000000;fill-opacity:1;stroke:none;stroke-width:0"
           d=""
           id="path45938" />
      </symbol>
      <symbol
         overflow="visible"
         id="symbol45944"
         style="fill:#000000;fill-opacity:1;stroke-width:0">
        <path
           style="fill:#000000;fill-opacity:1;stroke:none;stroke-width:0"
           d="m 1.578125,-0.484375 c 0,-0.15625 0.0625,-0.5 0.09375,-0.609375 l 0.375,-2 C 2.078125,-3.1875 2.5,-3.1875 2.75,-3.1875 c 0.34375,0 0.890625,0 0.984375,0.078125 0.0625,0.0625 0.109375,0.125 0.140625,0.703125 0,0.046875 0.046875,0.078125 0.125,0.078125 0.0625,0 0.140625,-0.015625 0.15625,-0.03125 l 0.375,-1.90625 C 4.5,-4.296875 4.453125,-4.3125 4.375,-4.3125 c -0.0625,0 -0.140625,0.015625 -0.15625,0.0625 -0.296875,0.671875 -0.265625,0.734375 -1.171875,0.734375 h -0.5 c -0.1875,0 -0.390625,-0.015625 -0.390625,-0.0625 l 0.375,-1.9375 c 0.046875,-0.28125 0.125,-0.5625 0.203125,-0.71875 0.046875,-0.09375 0.5625,-0.125 0.671875,-0.125 h 0.796875 c 0.5,0 0.84375,0.203125 0.890625,1.015625 0,0.046875 0.046875,0.0625 0.109375,0.0625 0.078125,0 0.15625,-0.015625 0.1875,-0.046875 C 5.390625,-5.625 5.375,-5.90625 5.375,-6.21875 c 0,-0.15625 0,-0.3125 0.015625,-0.484375 -1.03125,0 -2.15625,0.078125 -3.03125,0.078125 C 2,-6.625 1.625,-6.65625 1.25,-6.671875 c -0.046875,0.03125 -0.078125,0.140625 -0.078125,0.21875 0,0.03125 0,0.046875 0.015625,0.0625 0.109375,0 0.609375,0.0625 0.609375,0.171875 v 0.078125 c 0,0.15625 -0.03125,0.40625 -0.078125,0.65625 L 0.875,-1.171875 C 0.8125,-0.875 0.765625,-0.59375 0.6875,-0.421875 0.640625,-0.3125 0.109375,-0.265625 0,-0.265625 c -0.046875,0.046875 -0.0625,0.140625 -0.0625,0.21875 0,0.03125 0,0.0625 0.015625,0.078125 C 0.3125,0.03125 0.625,0 1.0625,0 2.3125,0 3.234375,0.046875 4.25,0.046875 4.40625,-0.40625 4.8125,-1.09375 5.09375,-1.640625 5.078125,-1.671875 4.96875,-1.6875 4.875,-1.6875 c -0.0625,0 -0.125,0.015625 -0.15625,0.046875 -0.25,0.546875 -0.515625,0.84375 -0.78125,1.015625 -0.3125,0.21875 -0.734375,0.328125 -1.25,0.328125 H 2.25 c -0.390625,0 -0.671875,0.03125 -0.671875,-0.1875 z m 0,0"
           id="path45942" />
      </symbol>
      <symbol
         overflow="visible"
         id="symbol45948"
         style="fill:#000000;fill-opacity:1;stroke-width:0">
        <path
           style="fill:#000000;fill-opacity:1;stroke:none;stroke-width:0"
           d="m 0.359375,0 h 2.90625 V -3.515625 H 0.359375 Z M 0.71875,-0.359375 v -2.78125 h 2.1875 v 2.78125 z m 0,0"
           id="path45946" />
      </symbol>
      <symbol
         overflow="visible"
         id="symbol45952"
         style="fill:#000000;fill-opacity:1;stroke-width:0">
        <path
           style="fill:#000000;fill-opacity:1;stroke:none;stroke-width:0"
           d="m 2.765625,-2.796875 c 0,-0.09375 -0.046875,-0.1875 -0.078125,-0.21875 C 2.515625,-3.125 2.28125,-3.1875 2.03125,-3.1875 c -0.75,0 -1.75,0.71875 -1.75,1.78125 0,0.765625 0.578125,1.46875 1.46875,1.46875 0.546875,0 0.921875,-0.40625 1.046875,-0.609375 C 2.8125,-0.59375 2.84375,-0.640625 2.84375,-0.6875 c 0,-0.046875 -0.046875,-0.09375 -0.0625,-0.09375 -0.09375,0.109375 -0.375,0.359375 -0.765625,0.359375 -0.65625,0 -1.1875,-0.375 -1.1875,-1.234375 0,-0.765625 0.4375,-1.21875 0.828125,-1.21875 0.1875,0 0.25,0.046875 0.40625,0.15625 0.125,0.078125 0.265625,0.265625 0.421875,0.265625 0.125,0 0.28125,-0.09375 0.28125,-0.34375 z m 0,0"
           id="path45950" />
      </symbol>
    </g>
    <g
       id="g45981"
       style="fill:#000000;fill-opacity:1;stroke-width:0">
      <symbol
         overflow="visible"
         id="symbol45967"
         style="fill:#000000;fill-opacity:1;stroke-width:0">
        <path
           style="fill:#000000;fill-opacity:1;stroke:none;stroke-width:0"
           d=""
           id="path45965" />
      </symbol>
      <symbol
         overflow="visible"
         id="symbol45971"
         style="fill:#000000;fill-opacity:1;stroke-width:0">
        <path
           style="fill:#000000;fill-opacity:1;stroke:none;stroke-width:0"
           d="m 1.578125,-0.484375 c 0,-0.15625 0.0625,-0.5 0.09375,-0.609375 l 0.375,-2 C 2.078125,-3.1875 2.5,-3.1875 2.75,-3.1875 c 0.34375,0 0.890625,0 0.984375,0.078125 0.0625,0.0625 0.109375,0.125 0.140625,0.703125 0,0.046875 0.046875,0.078125 0.125,0.078125 0.0625,0 0.140625,-0.015625 0.15625,-0.03125 l 0.375,-1.90625 C 4.5,-4.296875 4.453125,-4.3125 4.375,-4.3125 c -0.0625,0 -0.140625,0.015625 -0.15625,0.0625 -0.296875,0.671875 -0.265625,0.734375 -1.171875,0.734375 h -0.5 c -0.1875,0 -0.390625,-0.015625 -0.390625,-0.0625 l 0.375,-1.9375 c 0.046875,-0.28125 0.125,-0.5625 0.203125,-0.71875 0.046875,-0.09375 0.5625,-0.125 0.671875,-0.125 h 0.796875 c 0.5,0 0.84375,0.203125 0.890625,1.015625 0,0.046875 0.046875,0.0625 0.109375,0.0625 0.078125,0 0.15625,-0.015625 0.1875,-0.046875 C 5.390625,-5.625 5.375,-5.90625 5.375,-6.21875 c 0,-0.15625 0,-0.3125 0.015625,-0.484375 -1.03125,0 -2.15625,0.078125 -3.03125,0.078125 C 2,-6.625 1.625,-6.65625 1.25,-6.671875 c -0.046875,0.03125 -0.078125,0.140625 -0.078125,0.21875 0,0.03125 0,0.046875 0.015625,0.0625 0.109375,0 0.609375,0.0625 0.609375,0.171875 v 0.078125 c 0,0.15625 -0.03125,0.40625 -0.078125,0.65625 L 0.875,-1.171875 C 0.8125,-0.875 0.765625,-0.59375 0.6875,-0.421875 0.640625,-0.3125 0.109375,-0.265625 0,-0.265625 c -0.046875,0.046875 -0.0625,0.140625 -0.0625,0.21875 0,0.03125 0,0.0625 0.015625,0.078125 C 0.3125,0.03125 0.625,0 1.0625,0 2.3125,0 3.234375,0.046875 4.25,0.046875 4.40625,-0.40625 4.8125,-1.09375 5.09375,-1.640625 5.078125,-1.671875 4.96875,-1.6875 4.875,-1.6875 c -0.0625,0 -0.125,0.015625 -0.15625,0.046875 -0.25,0.546875 -0.515625,0.84375 -0.78125,1.015625 -0.3125,0.21875 -0.734375,0.328125 -1.25,0.328125 H 2.25 c -0.390625,0 -0.671875,0.03125 -0.671875,-0.1875 z m 0,0"
           id="path45969" />
      </symbol>
      <symbol
         overflow="visible"
         id="symbol45975"
         style="fill:#000000;fill-opacity:1;stroke-width:0">
        <path
           style="fill:#000000;fill-opacity:1;stroke:none;stroke-width:0"
           d="m 0.359375,0 h 2.90625 V -3.515625 H 0.359375 Z M 0.71875,-0.359375 v -2.78125 h 2.1875 v 2.78125 z m 0,0"
           id="path45973" />
      </symbol>
      <symbol
         overflow="visible"
         id="symbol45979"
         style="fill:#000000;fill-opacity:1;stroke-width:0">
        <path
           style="fill:#000000;fill-opacity:1;stroke:none;stroke-width:0"
           d="M 0.734375,-3.09375 C 0.4375,-3.09375 0.3125,-3.109375 0.015625,-3.125 v 0.203125 c 0.09375,0 0.328125,0 0.40625,0.140625 0.40625,0.828125 0.71875,1.71875 1.171875,2.828125 0.015625,0.015625 0.046875,0.03125 0.0625,0.03125 0.0625,0 0.171875,-0.0625 0.203125,-0.125 0.421875,-1.03125 0.65625,-1.59375 1.09375,-2.625 0.078125,-0.203125 0.390625,-0.25 0.453125,-0.25 0.015625,0 0.046875,-0.15625 0.015625,-0.203125 C 3.125,-3.109375 3.015625,-3.09375 2.75,-3.09375 c -0.296875,0 -0.359375,-0.015625 -0.59375,-0.03125 v 0.203125 c 0.25,0 0.421875,0.09375 0.421875,0.234375 0,0.0625 0,0.140625 -0.046875,0.234375 -0.265625,0.6875 -0.640625,1.65625 -0.640625,1.65625 L 1.09375,-2.765625 v -0.03125 c 0,-0.109375 0.28125,-0.125 0.34375,-0.125 0.03125,0 0.046875,-0.15625 0.03125,-0.203125 -0.296875,0.015625 -0.453125,0.03125 -0.734375,0.03125 z m 0,0"
           id="path45977" />
      </symbol>
    </g>
    <marker
       style="overflow:visible"
       id="marker107630"
       refX="0"
       refY="0"
       orient="auto"
       inkscape:stockid="Arrow1Send"
       inkscape:isstock="true"
       inkscape:collect="always">
      <path
         transform="matrix(-0.2,0,0,-0.2,-1.2,0)"
         style="fill:#000000;fill-opacity:1;fill-rule:evenodd;stroke:#000000;stroke-width:1pt;stroke-opacity:1"
         d="M 0,0 5,-5 -12.5,0 5,5 Z"
         id="path107628" />
    </marker>
    <marker
       style="overflow:visible"
       id="marker54806"
       refX="0"
       refY="0"
       orient="auto"
       inkscape:stockid="Arrow1Send"
       inkscape:isstock="true"
       inkscape:collect="always">
      <path
         transform="matrix(-0.2,0,0,-0.2,-1.2,0)"
         style="fill:#000000;fill-opacity:1;fill-rule:evenodd;stroke:#000000;stroke-width:1pt;stroke-opacity:1"
         d="M 0,0 5,-5 -12.5,0 5,5 Z"
         id="path54804" />
    </marker>
    <marker
       style="overflow:visible"
       id="marker54796"
       refX="0"
       refY="0"
       orient="auto"
       inkscape:stockid="Arrow1Send"
       inkscape:isstock="true"
       inkscape:collect="always">
      <path
         transform="matrix(-0.2,0,0,-0.2,-1.2,0)"
         style="fill:#000000;fill-opacity:1;fill-rule:evenodd;stroke:#000000;stroke-width:1pt;stroke-opacity:1"
         d="M 0,0 5,-5 -12.5,0 5,5 Z"
         id="path54794" />
    </marker>
    <pattern
       id="EMFhbasepattern-6"
       patternUnits="userSpaceOnUse"
       width="6"
       height="6"
       x="0"
       y="0" />
    <g
       id="g30333"
       style="fill:#000000;fill-opacity:1;stroke-width:0">
      <symbol
         overflow="visible"
         id="symbol30319"
         style="fill:#000000;fill-opacity:1;stroke-width:0">
        <path
           style="fill:#000000;fill-opacity:1;stroke:none;stroke-width:0"
           d=""
           id="path30317" />
      </symbol>
      <symbol
         overflow="visible"
         id="symbol30323"
         style="fill:#000000;fill-opacity:1;stroke-width:0">
        <path
           style="fill:#000000;fill-opacity:1;stroke:none;stroke-width:0"
           d="m 1.578125,-0.484375 c 0,-0.15625 0.0625,-0.5 0.09375,-0.609375 l 0.375,-2 C 2.078125,-3.1875 2.5,-3.1875 2.75,-3.1875 c 0.34375,0 0.890625,0 0.984375,0.078125 0.0625,0.0625 0.109375,0.125 0.140625,0.703125 0,0.046875 0.046875,0.078125 0.125,0.078125 0.0625,0 0.140625,-0.015625 0.15625,-0.03125 l 0.375,-1.90625 C 4.5,-4.296875 4.453125,-4.3125 4.375,-4.3125 c -0.0625,0 -0.140625,0.015625 -0.15625,0.0625 -0.296875,0.671875 -0.265625,0.734375 -1.171875,0.734375 h -0.5 c -0.1875,0 -0.390625,-0.015625 -0.390625,-0.0625 l 0.375,-1.9375 c 0.046875,-0.28125 0.125,-0.5625 0.203125,-0.71875 0.046875,-0.09375 0.5625,-0.125 0.671875,-0.125 h 0.796875 c 0.5,0 0.84375,0.203125 0.890625,1.015625 0,0.046875 0.046875,0.0625 0.109375,0.0625 0.078125,0 0.15625,-0.015625 0.1875,-0.046875 C 5.390625,-5.625 5.375,-5.90625 5.375,-6.21875 c 0,-0.15625 0,-0.3125 0.015625,-0.484375 -1.03125,0 -2.15625,0.078125 -3.03125,0.078125 C 2,-6.625 1.625,-6.65625 1.25,-6.671875 c -0.046875,0.03125 -0.078125,0.140625 -0.078125,0.21875 0,0.03125 0,0.046875 0.015625,0.0625 0.109375,0 0.609375,0.0625 0.609375,0.171875 v 0.078125 c 0,0.15625 -0.03125,0.40625 -0.078125,0.65625 L 0.875,-1.171875 C 0.8125,-0.875 0.765625,-0.59375 0.6875,-0.421875 0.640625,-0.3125 0.109375,-0.265625 0,-0.265625 c -0.046875,0.046875 -0.0625,0.140625 -0.0625,0.21875 0,0.03125 0,0.0625 0.015625,0.078125 C 0.3125,0.03125 0.625,0 1.0625,0 2.3125,0 3.234375,0.046875 4.25,0.046875 4.40625,-0.40625 4.8125,-1.09375 5.09375,-1.640625 5.078125,-1.671875 4.96875,-1.6875 4.875,-1.6875 c -0.0625,0 -0.125,0.015625 -0.15625,0.046875 -0.25,0.546875 -0.515625,0.84375 -0.78125,1.015625 -0.3125,0.21875 -0.734375,0.328125 -1.25,0.328125 H 2.25 c -0.390625,0 -0.671875,0.03125 -0.671875,-0.1875 z m 0,0"
           id="path30321" />
      </symbol>
      <symbol
         overflow="visible"
         id="symbol30327"
         style="fill:#000000;fill-opacity:1;stroke-width:0">
        <path
           style="fill:#000000;fill-opacity:1;stroke:none;stroke-width:0"
           d="m 0.359375,0 h 2.90625 V -3.515625 H 0.359375 Z M 0.71875,-0.359375 v -2.78125 h 2.1875 v 2.78125 z m 0,0"
           id="path30325" />
      </symbol>
      <symbol
         overflow="visible"
         id="symbol30331"
         style="fill:#000000;fill-opacity:1;stroke-width:0">
        <path
           style="fill:#000000;fill-opacity:1;stroke:none;stroke-width:0"
           d="M 0.734375,-3.09375 C 0.4375,-3.09375 0.3125,-3.109375 0.015625,-3.125 v 0.203125 c 0.09375,0 0.328125,0 0.40625,0.140625 0.40625,0.828125 0.71875,1.71875 1.171875,2.828125 0.015625,0.015625 0.046875,0.03125 0.0625,0.03125 0.0625,0 0.171875,-0.0625 0.203125,-0.125 0.421875,-1.03125 0.65625,-1.59375 1.09375,-2.625 0.078125,-0.203125 0.390625,-0.25 0.453125,-0.25 0.015625,0 0.046875,-0.15625 0.015625,-0.203125 C 3.125,-3.109375 3.015625,-3.09375 2.75,-3.09375 c -0.296875,0 -0.359375,-0.015625 -0.59375,-0.03125 v 0.203125 c 0.25,0 0.421875,0.09375 0.421875,0.234375 0,0.0625 0,0.140625 -0.046875,0.234375 -0.265625,0.6875 -0.640625,1.65625 -0.640625,1.65625 L 1.09375,-2.765625 v -0.03125 c 0,-0.109375 0.28125,-0.125 0.34375,-0.125 0.03125,0 0.046875,-0.15625 0.03125,-0.203125 -0.296875,0.015625 -0.453125,0.03125 -0.734375,0.03125 z m 0,0"
           id="path30329" />
      </symbol>
    </g>
    <marker
       style="overflow:visible"
       id="marker62555"
       refX="0"
       refY="0"
       orient="auto"
       inkscape:stockid="Arrow1Send"
       inkscape:isstock="true">
      <path
         transform="matrix(-0.2,0,0,-0.2,-1.2,0)"
         style="fill:#000000;fill-opacity:1;fill-rule:evenodd;stroke:#000000;stroke-width:1pt;stroke-opacity:1"
         d="M 0,0 5,-5 -12.5,0 5,5 Z"
         id="path62553" />
    </marker>
    <marker
       style="overflow:visible"
       id="marker62545"
       refX="0"
       refY="0"
       orient="auto"
       inkscape:stockid="Arrow1Send"
       inkscape:isstock="true">
      <path
         transform="matrix(-0.2,0,0,-0.2,-1.2,0)"
         style="fill:#000000;fill-opacity:1;fill-rule:evenodd;stroke:#000000;stroke-width:1pt;stroke-opacity:1"
         d="M 0,0 5,-5 -12.5,0 5,5 Z"
         id="path62543" />
    </marker>
    <marker
       style="overflow:visible"
       id="marker62535"
       refX="0"
       refY="0"
       orient="auto"
       inkscape:stockid="Arrow1Send"
       inkscape:isstock="true">
      <path
         transform="matrix(-0.2,0,0,-0.2,-1.2,0)"
         style="fill:#000000;fill-opacity:1;fill-rule:evenodd;stroke:#000000;stroke-width:1pt;stroke-opacity:1"
         d="M 0,0 5,-5 -12.5,0 5,5 Z"
         id="path62533" />
    </marker>
    <marker
       style="overflow:visible"
       id="marker62525"
       refX="0"
       refY="0"
       orient="auto"
       inkscape:stockid="Arrow1Send"
       inkscape:isstock="true">
      <path
         transform="matrix(-0.2,0,0,-0.2,-1.2,0)"
         style="fill:#000000;fill-opacity:1;fill-rule:evenodd;stroke:#000000;stroke-width:1pt;stroke-opacity:1"
         d="M 0,0 5,-5 -12.5,0 5,5 Z"
         id="path62523" />
    </marker>
    <marker
       style="overflow:visible"
       id="marker62515"
       refX="0"
       refY="0"
       orient="auto"
       inkscape:stockid="Arrow1Send"
       inkscape:isstock="true">
      <path
         transform="matrix(-0.2,0,0,-0.2,-1.2,0)"
         style="fill:#000000;fill-opacity:1;fill-rule:evenodd;stroke:#000000;stroke-width:1pt;stroke-opacity:1"
         d="M 0,0 5,-5 -12.5,0 5,5 Z"
         id="path62513" />
    </marker>
    <marker
       style="overflow:visible"
       id="marker62505"
       refX="0"
       refY="0"
       orient="auto"
       inkscape:stockid="Arrow1Send"
       inkscape:isstock="true">
      <path
         transform="matrix(-0.2,0,0,-0.2,-1.2,0)"
         style="fill:#000000;fill-opacity:1;fill-rule:evenodd;stroke:#000000;stroke-width:1pt;stroke-opacity:1"
         d="M 0,0 5,-5 -12.5,0 5,5 Z"
         id="path62503" />
    </marker>
    <g
       id="g61995"
       style="fill:#000000;fill-opacity:1;stroke-width:0">
      <symbol
         overflow="visible"
         id="symbol61981"
         style="fill:#000000;fill-opacity:1;stroke-width:0">
        <path
           style="fill:#000000;fill-opacity:1;stroke:none;stroke-width:0"
           d=""
           id="path61979" />
      </symbol>
      <symbol
         overflow="visible"
         id="symbol61985"
         style="fill:#000000;fill-opacity:1;stroke-width:0">
        <path
           style="fill:#000000;fill-opacity:1;stroke:none;stroke-width:0"
           d="m 1.578125,-0.484375 c 0,-0.15625 0.0625,-0.5 0.09375,-0.609375 l 0.375,-2 C 2.078125,-3.1875 2.5,-3.1875 2.75,-3.1875 c 0.34375,0 0.890625,0 0.984375,0.078125 0.0625,0.0625 0.109375,0.125 0.140625,0.703125 0,0.046875 0.046875,0.078125 0.125,0.078125 0.0625,0 0.140625,-0.015625 0.15625,-0.03125 l 0.375,-1.90625 C 4.5,-4.296875 4.453125,-4.3125 4.375,-4.3125 c -0.0625,0 -0.140625,0.015625 -0.15625,0.0625 -0.296875,0.671875 -0.265625,0.734375 -1.171875,0.734375 h -0.5 c -0.1875,0 -0.390625,-0.015625 -0.390625,-0.0625 l 0.375,-1.9375 c 0.046875,-0.28125 0.125,-0.5625 0.203125,-0.71875 0.046875,-0.09375 0.5625,-0.125 0.671875,-0.125 h 0.796875 c 0.5,0 0.84375,0.203125 0.890625,1.015625 0,0.046875 0.046875,0.0625 0.109375,0.0625 0.078125,0 0.15625,-0.015625 0.1875,-0.046875 C 5.390625,-5.625 5.375,-5.90625 5.375,-6.21875 c 0,-0.15625 0,-0.3125 0.015625,-0.484375 -1.03125,0 -2.15625,0.078125 -3.03125,0.078125 C 2,-6.625 1.625,-6.65625 1.25,-6.671875 c -0.046875,0.03125 -0.078125,0.140625 -0.078125,0.21875 0,0.03125 0,0.046875 0.015625,0.0625 0.109375,0 0.609375,0.0625 0.609375,0.171875 v 0.078125 c 0,0.15625 -0.03125,0.40625 -0.078125,0.65625 L 0.875,-1.171875 C 0.8125,-0.875 0.765625,-0.59375 0.6875,-0.421875 0.640625,-0.3125 0.109375,-0.265625 0,-0.265625 c -0.046875,0.046875 -0.0625,0.140625 -0.0625,0.21875 0,0.03125 0,0.0625 0.015625,0.078125 C 0.3125,0.03125 0.625,0 1.0625,0 2.3125,0 3.234375,0.046875 4.25,0.046875 4.40625,-0.40625 4.8125,-1.09375 5.09375,-1.640625 5.078125,-1.671875 4.96875,-1.6875 4.875,-1.6875 c -0.0625,0 -0.125,0.015625 -0.15625,0.046875 -0.25,0.546875 -0.515625,0.84375 -0.78125,1.015625 -0.3125,0.21875 -0.734375,0.328125 -1.25,0.328125 H 2.25 c -0.390625,0 -0.671875,0.03125 -0.671875,-0.1875 z m 0,0"
           id="path61983" />
      </symbol>
      <symbol
         overflow="visible"
         id="symbol61989"
         style="fill:#000000;fill-opacity:1;stroke-width:0">
        <path
           style="fill:#000000;fill-opacity:1;stroke:none;stroke-width:0"
           d="m 0.359375,0 h 2.90625 V -3.515625 H 0.359375 Z M 0.71875,-0.359375 v -2.78125 h 2.1875 v 2.78125 z m 0,0"
           id="path61987" />
      </symbol>
      <symbol
         overflow="visible"
         id="symbol61993"
         style="fill:#000000;fill-opacity:1;stroke-width:0">
        <path
           style="fill:#000000;fill-opacity:1;stroke:none;stroke-width:0"
           d="M 0.734375,-3.09375 C 0.4375,-3.09375 0.3125,-3.109375 0.015625,-3.125 v 0.203125 c 0.09375,0 0.328125,0 0.40625,0.140625 0.40625,0.828125 0.71875,1.71875 1.171875,2.828125 0.015625,0.015625 0.046875,0.03125 0.0625,0.03125 0.0625,0 0.171875,-0.0625 0.203125,-0.125 0.421875,-1.03125 0.65625,-1.59375 1.09375,-2.625 0.078125,-0.203125 0.390625,-0.25 0.453125,-0.25 0.015625,0 0.046875,-0.15625 0.015625,-0.203125 C 3.125,-3.109375 3.015625,-3.09375 2.75,-3.09375 c -0.296875,0 -0.359375,-0.015625 -0.59375,-0.03125 v 0.203125 c 0.25,0 0.421875,0.09375 0.421875,0.234375 0,0.0625 0,0.140625 -0.046875,0.234375 -0.265625,0.6875 -0.640625,1.65625 -0.640625,1.65625 L 1.09375,-2.765625 v -0.03125 c 0,-0.109375 0.28125,-0.125 0.34375,-0.125 0.03125,0 0.046875,-0.15625 0.03125,-0.203125 -0.296875,0.015625 -0.453125,0.03125 -0.734375,0.03125 z m 0,0"
           id="path61991" />
      </symbol>
    </g>
    <g
       id="id-ed81690c-9ef8-4641-8025-1f85d60d1262"
       style="fill:#6a4239;fill-opacity:1;stroke-width:0">
      <symbol
         overflow="visible"
         id="id-d3a3c6ce-ea2a-4d37-8e1f-b8b4b6973de7"
         style="fill:#6a4239;fill-opacity:1;stroke-width:0">
        <path
           style="fill:#6a4239;fill-opacity:1;stroke:none;stroke-width:0"
           d=""
           id="id-d01b0c3e-8d5d-4492-a929-8ee96c7f1a2a" />
      </symbol>
      <symbol
         overflow="visible"
         id="id-af8f9585-4ac2-46ad-ad1d-18a89d38c6af"
         style="fill:#6a4239;fill-opacity:1;stroke-width:0">
        <path
           style="fill:#6a4239;fill-opacity:1;stroke:none;stroke-width:0"
           d="m 1.578125,-0.484375 c 0,-0.15625 0.0625,-0.5 0.09375,-0.609375 l 0.375,-2 C 2.078125,-3.1875 2.5,-3.1875 2.75,-3.1875 c 0.34375,0 0.890625,0 0.984375,0.078125 0.0625,0.0625 0.109375,0.125 0.140625,0.703125 0,0.046875 0.046875,0.078125 0.125,0.078125 0.0625,0 0.140625,-0.015625 0.15625,-0.03125 l 0.375,-1.90625 C 4.5,-4.296875 4.453125,-4.3125 4.375,-4.3125 c -0.0625,0 -0.140625,0.015625 -0.15625,0.0625 -0.296875,0.671875 -0.265625,0.734375 -1.171875,0.734375 h -0.5 c -0.1875,0 -0.390625,-0.015625 -0.390625,-0.0625 l 0.375,-1.9375 c 0.046875,-0.28125 0.125,-0.5625 0.203125,-0.71875 0.046875,-0.09375 0.5625,-0.125 0.671875,-0.125 h 0.796875 c 0.5,0 0.84375,0.203125 0.890625,1.015625 0,0.046875 0.046875,0.0625 0.109375,0.0625 0.078125,0 0.15625,-0.015625 0.1875,-0.046875 C 5.390625,-5.625 5.375,-5.90625 5.375,-6.21875 c 0,-0.15625 0,-0.3125 0.015625,-0.484375 -1.03125,0 -2.15625,0.078125 -3.03125,0.078125 C 2,-6.625 1.625,-6.65625 1.25,-6.671875 c -0.046875,0.03125 -0.078125,0.140625 -0.078125,0.21875 0,0.03125 0,0.046875 0.015625,0.0625 0.109375,0 0.609375,0.0625 0.609375,0.171875 v 0.078125 c 0,0.15625 -0.03125,0.40625 -0.078125,0.65625 L 0.875,-1.171875 C 0.8125,-0.875 0.765625,-0.59375 0.6875,-0.421875 0.640625,-0.3125 0.109375,-0.265625 0,-0.265625 c -0.046875,0.046875 -0.0625,0.140625 -0.0625,0.21875 0,0.03125 0,0.0625 0.015625,0.078125 C 0.3125,0.03125 0.625,0 1.0625,0 2.3125,0 3.234375,0.046875 4.25,0.046875 4.40625,-0.40625 4.8125,-1.09375 5.09375,-1.640625 5.078125,-1.671875 4.96875,-1.6875 4.875,-1.6875 c -0.0625,0 -0.125,0.015625 -0.15625,0.046875 -0.25,0.546875 -0.515625,0.84375 -0.78125,1.015625 -0.3125,0.21875 -0.734375,0.328125 -1.25,0.328125 H 2.25 c -0.390625,0 -0.671875,0.03125 -0.671875,-0.1875 z m 0,0"
           id="id-cf12905f-b10e-4632-8150-087cb02fd1f8" />
      </symbol>
      <symbol
         overflow="visible"
         id="id-ee0bb5f7-d1c3-4dfd-b89f-a7ca7318c376"
         style="fill:#6a4239;fill-opacity:1;stroke-width:0">
        <path
           style="fill:#6a4239;fill-opacity:1;stroke:none;stroke-width:0"
           d="m 0.359375,0 h 2.90625 V -3.515625 H 0.359375 Z M 0.71875,-0.359375 v -2.78125 h 2.1875 v 2.78125 z m 0,0"
           id="id-9d15f203-ae32-46b0-bbdd-a806cf10dc8c" />
      </symbol>
      <symbol
         overflow="visible"
         id="id-613e44ce-9ad1-41ef-83c3-4c7e8c3c6ecc"
         style="fill:#6a4239;fill-opacity:1;stroke-width:0">
        <path
           style="fill:#6a4239;fill-opacity:1;stroke:none;stroke-width:0"
           d="m 1.34375,-0.328125 c -0.265625,0 -0.484375,-0.234375 -0.484375,-0.5 0,-0.28125 0.171875,-0.46875 0.4375,-0.578125 C 1.4375,-1.453125 1.78125,-1.5625 1.96875,-1.625 v 1 c 0,0.078125 -0.375,0.296875 -0.625,0.296875 z m 0.390625,-2.84375 c -0.53125,0 -1.09375,0.390625 -1.3125,0.59375 -0.015625,0.03125 -0.046875,0.15625 -0.046875,0.1875 0,0.140625 0.09375,0.296875 0.25,0.296875 0.171875,0 0.28125,-0.09375 0.328125,-0.34375 C 1,-2.71875 1.09375,-2.90625 1.34375,-2.90625 c 0.359375,0 0.625,0.375 0.625,0.703125 V -2 c 0,0.125 0,0.15625 -0.078125,0.1875 C 1.6875,-1.71875 1.03125,-1.515625 0.625,-1.359375 0.46875,-1.3125 0.265625,-1.078125 0.265625,-0.78125 c 0,0.46875 0.375,0.84375 0.84375,0.84375 0.25,0 0.796875,-0.390625 0.890625,-0.484375 0.046875,0.21875 0.234375,0.46875 0.4375,0.46875 0.15625,0 0.453125,-0.1875 0.53125,-0.265625 C 3,-0.265625 3.015625,-0.3125 3.015625,-0.359375 c 0,-0.03125 -0.015625,-0.0625 -0.03125,-0.0625 -0.03125,0.015625 -0.109375,0.09375 -0.25,0.09375 -0.15625,0 -0.21875,-0.15625 -0.21875,-0.34375 v -1.5 c 0,-0.546875 -0.375,-1 -0.78125,-1 z m 0,0"
           id="id-3778ffb5-9cce-443a-937a-7417c7fe934d" />
      </symbol>
    </g>
    <g
       id="g11982"
       style="fill:#6a4239;fill-opacity:1;stroke-width:0">
      <symbol
         overflow="visible"
         id="symbol11968"
         style="fill:#6a4239;fill-opacity:1;stroke-width:0">
        <path
           style="fill:#6a4239;fill-opacity:1;stroke:none;stroke-width:0"
           d=""
           id="path11966" />
      </symbol>
      <symbol
         overflow="visible"
         id="symbol11972"
         style="fill:#6a4239;fill-opacity:1;stroke-width:0">
        <path
           style="fill:#6a4239;fill-opacity:1;stroke:none;stroke-width:0"
           d="m 1.578125,-0.484375 c 0,-0.15625 0.0625,-0.5 0.09375,-0.609375 l 0.375,-2 C 2.078125,-3.1875 2.5,-3.1875 2.75,-3.1875 c 0.34375,0 0.890625,0 0.984375,0.078125 0.0625,0.0625 0.109375,0.125 0.140625,0.703125 0,0.046875 0.046875,0.078125 0.125,0.078125 0.0625,0 0.140625,-0.015625 0.15625,-0.03125 l 0.375,-1.90625 C 4.5,-4.296875 4.453125,-4.3125 4.375,-4.3125 c -0.0625,0 -0.140625,0.015625 -0.15625,0.0625 -0.296875,0.671875 -0.265625,0.734375 -1.171875,0.734375 h -0.5 c -0.1875,0 -0.390625,-0.015625 -0.390625,-0.0625 l 0.375,-1.9375 c 0.046875,-0.28125 0.125,-0.5625 0.203125,-0.71875 0.046875,-0.09375 0.5625,-0.125 0.671875,-0.125 h 0.796875 c 0.5,0 0.84375,0.203125 0.890625,1.015625 0,0.046875 0.046875,0.0625 0.109375,0.0625 0.078125,0 0.15625,-0.015625 0.1875,-0.046875 C 5.390625,-5.625 5.375,-5.90625 5.375,-6.21875 c 0,-0.15625 0,-0.3125 0.015625,-0.484375 -1.03125,0 -2.15625,0.078125 -3.03125,0.078125 C 2,-6.625 1.625,-6.65625 1.25,-6.671875 c -0.046875,0.03125 -0.078125,0.140625 -0.078125,0.21875 0,0.03125 0,0.046875 0.015625,0.0625 0.109375,0 0.609375,0.0625 0.609375,0.171875 v 0.078125 c 0,0.15625 -0.03125,0.40625 -0.078125,0.65625 L 0.875,-1.171875 C 0.8125,-0.875 0.765625,-0.59375 0.6875,-0.421875 0.640625,-0.3125 0.109375,-0.265625 0,-0.265625 c -0.046875,0.046875 -0.0625,0.140625 -0.0625,0.21875 0,0.03125 0,0.0625 0.015625,0.078125 C 0.3125,0.03125 0.625,0 1.0625,0 2.3125,0 3.234375,0.046875 4.25,0.046875 4.40625,-0.40625 4.8125,-1.09375 5.09375,-1.640625 5.078125,-1.671875 4.96875,-1.6875 4.875,-1.6875 c -0.0625,0 -0.125,0.015625 -0.15625,0.046875 -0.25,0.546875 -0.515625,0.84375 -0.78125,1.015625 -0.3125,0.21875 -0.734375,0.328125 -1.25,0.328125 H 2.25 c -0.390625,0 -0.671875,0.03125 -0.671875,-0.1875 z m 0,0"
           id="path11970" />
      </symbol>
      <symbol
         overflow="visible"
         id="symbol11976"
         style="fill:#6a4239;fill-opacity:1;stroke-width:0">
        <path
           style="fill:#6a4239;fill-opacity:1;stroke:none;stroke-width:0"
           d="m 0.359375,0 h 2.90625 V -3.515625 H 0.359375 Z M 0.71875,-0.359375 v -2.78125 h 2.1875 v 2.78125 z m 0,0"
           id="path11974" />
      </symbol>
      <symbol
         overflow="visible"
         id="symbol11980"
         style="fill:#6a4239;fill-opacity:1;stroke-width:0">
        <path
           style="fill:#6a4239;fill-opacity:1;stroke:none;stroke-width:0"
           d="m 1.34375,-0.328125 c -0.265625,0 -0.484375,-0.234375 -0.484375,-0.5 0,-0.28125 0.171875,-0.46875 0.4375,-0.578125 C 1.4375,-1.453125 1.78125,-1.5625 1.96875,-1.625 v 1 c 0,0.078125 -0.375,0.296875 -0.625,0.296875 z m 0.390625,-2.84375 c -0.53125,0 -1.09375,0.390625 -1.3125,0.59375 -0.015625,0.03125 -0.046875,0.15625 -0.046875,0.1875 0,0.140625 0.09375,0.296875 0.25,0.296875 0.171875,0 0.28125,-0.09375 0.328125,-0.34375 C 1,-2.71875 1.09375,-2.90625 1.34375,-2.90625 c 0.359375,0 0.625,0.375 0.625,0.703125 V -2 c 0,0.125 0,0.15625 -0.078125,0.1875 C 1.6875,-1.71875 1.03125,-1.515625 0.625,-1.359375 0.46875,-1.3125 0.265625,-1.078125 0.265625,-0.78125 c 0,0.46875 0.375,0.84375 0.84375,0.84375 0.25,0 0.796875,-0.390625 0.890625,-0.484375 0.046875,0.21875 0.234375,0.46875 0.4375,0.46875 0.15625,0 0.453125,-0.1875 0.53125,-0.265625 C 3,-0.265625 3.015625,-0.3125 3.015625,-0.359375 c 0,-0.03125 -0.015625,-0.0625 -0.03125,-0.0625 -0.03125,0.015625 -0.109375,0.09375 -0.25,0.09375 -0.15625,0 -0.21875,-0.15625 -0.21875,-0.34375 v -1.5 c 0,-0.546875 -0.375,-1 -0.78125,-1 z m 0,0"
           id="path11978" />
      </symbol>
    </g>
  </defs>
  <sodipodi:namedview
     id="base"
     pagecolor="#ffffff"
     bordercolor="#666666"
     borderopacity="1.0"
     inkscape:pageopacity="0.0"
     inkscape:pageshadow="2"
     inkscape:zoom="0.7"
     inkscape:cx="147.32652"
     inkscape:cy="295.48965"
     inkscape:document-units="mm"
     inkscape:current-layer="layer1"
     inkscape:document-rotation="0"
     showgrid="false"
     inkscape:window-width="1600"
     inkscape:window-height="837"
     inkscape:window-x="-8"
     inkscape:window-y="-8"
     inkscape:window-maximized="1" />
  <metadata
     id="metadata5">
    <rdf:RDF>
      <cc:Work
         rdf:about="">
        <dc:format>image/svg+xml</dc:format>
        <dc:type
           rdf:resource="http://purl.org/dc/dcmitype/StillImage" />
        <dc:title></dc:title>
      </cc:Work>
    </rdf:RDF>
  </metadata>
  <g
     inkscape:label="Layer 1"
     inkscape:groupmode="layer"
     id="layer1"
     transform="translate(-91.009153,-12.592834)">
    <path
       style="fill:none;stroke:#9e7867;stroke-width:0.529167;stroke-linecap:round;stroke-linejoin:miter;stroke-miterlimit:4;stroke-dasharray:none;stroke-opacity:1"
       d="M 91.273736,61.079071 V 45.393059 h 40.757414 v 15.333239"
       id="path7879" />
    <path
       style="fill:none;stroke:#6a4239;stroke-width:0.529167;stroke-linecap:round;stroke-linejoin:miter;stroke-miterlimit:4;stroke-dasharray:none;stroke-opacity:1"
       d="M 91.273736,34.809719 H 132.03115"
       id="path7881" />
    <path
       style="fill:none;stroke:#000000;stroke-width:0.529167;stroke-linecap:round;stroke-linejoin:miter;stroke-miterlimit:4;stroke-dasharray:none;stroke-dashoffset:0;stroke-opacity:1"
       d="m 91.27374,14.172206 h 40.75741"
       id="path8083" />
    <g
       transform="matrix(0.423334,0,0,0.423334,133.40848,12.592887)"
       ns2:version="1.1.0"
       ns2:texconverter="pdflatex"
       ns2:pdfconverter="inkscape"
       ns2:text="$\\ab{E}{i}$\n\n\n\n\n\n"
       ns2:preamble="C:\\Users\\flvisa\\Desktop\\lna\\latexify_books\\textext_preamble.tex"
       ns2:scale="1.1999999149607656"
       ns2:alignment="middle center"
       ns2:inkscapeversion="1.0.1"
       ns2:jacobian_sqrt="0.423334"
       style="fill:#000000;fill-opacity:1;stroke-width:0"
       id="g8202">
      <defs
         id="id-4d4f4e99-6b32-4e38-b8ad-9c44436d39a5">
        <g
           id="id-e4d37403-15a6-41f3-a611-985bf001b6f7"
           style="fill:#000000;fill-opacity:1;stroke-width:0">
          <symbol
             overflow="visible"
             id="id-5b2e6197-7753-4981-abde-a942e02c0358"
             style="fill:#000000;fill-opacity:1;stroke-width:0">
            <path
               style="fill:#000000;fill-opacity:1;stroke:none;stroke-width:0"
               d=""
               id="id-bce8babf-be78-43e4-8987-dd0a37ab6436" />
          </symbol>
          <symbol
             overflow="visible"
             id="id-e1bcc9f0-9722-4824-8361-549831e313a2"
             style="fill:#000000;fill-opacity:1;stroke-width:0">
            <path
               style="fill:#000000;fill-opacity:1;stroke:none;stroke-width:0"
               d="m 1.578125,-0.484375 c 0,-0.15625 0.0625,-0.5 0.09375,-0.609375 l 0.375,-2 C 2.078125,-3.1875 2.5,-3.1875 2.75,-3.1875 c 0.34375,0 0.890625,0 0.984375,0.078125 0.0625,0.0625 0.109375,0.125 0.140625,0.703125 0,0.046875 0.046875,0.078125 0.125,0.078125 0.0625,0 0.140625,-0.015625 0.15625,-0.03125 l 0.375,-1.90625 C 4.5,-4.296875 4.453125,-4.3125 4.375,-4.3125 c -0.0625,0 -0.140625,0.015625 -0.15625,0.0625 -0.296875,0.671875 -0.265625,0.734375 -1.171875,0.734375 h -0.5 c -0.1875,0 -0.390625,-0.015625 -0.390625,-0.0625 l 0.375,-1.9375 c 0.046875,-0.28125 0.125,-0.5625 0.203125,-0.71875 0.046875,-0.09375 0.5625,-0.125 0.671875,-0.125 h 0.796875 c 0.5,0 0.84375,0.203125 0.890625,1.015625 0,0.046875 0.046875,0.0625 0.109375,0.0625 0.078125,0 0.15625,-0.015625 0.1875,-0.046875 C 5.390625,-5.625 5.375,-5.90625 5.375,-6.21875 c 0,-0.15625 0,-0.3125 0.015625,-0.484375 -1.03125,0 -2.15625,0.078125 -3.03125,0.078125 C 2,-6.625 1.625,-6.65625 1.25,-6.671875 c -0.046875,0.03125 -0.078125,0.140625 -0.078125,0.21875 0,0.03125 0,0.046875 0.015625,0.0625 0.109375,0 0.609375,0.0625 0.609375,0.171875 v 0.078125 c 0,0.15625 -0.03125,0.40625 -0.078125,0.65625 L 0.875,-1.171875 C 0.8125,-0.875 0.765625,-0.59375 0.6875,-0.421875 0.640625,-0.3125 0.109375,-0.265625 0,-0.265625 c -0.046875,0.046875 -0.0625,0.140625 -0.0625,0.21875 0,0.03125 0,0.0625 0.015625,0.078125 C 0.3125,0.03125 0.625,0 1.0625,0 2.3125,0 3.234375,0.046875 4.25,0.046875 4.40625,-0.40625 4.8125,-1.09375 5.09375,-1.640625 5.078125,-1.671875 4.96875,-1.6875 4.875,-1.6875 c -0.0625,0 -0.125,0.015625 -0.15625,0.046875 -0.25,0.546875 -0.515625,0.84375 -0.78125,1.015625 -0.3125,0.21875 -0.734375,0.328125 -1.25,0.328125 H 2.25 c -0.390625,0 -0.671875,0.03125 -0.671875,-0.1875 z m 0,0"
               id="id-579f0ad3-a478-47be-a638-85924d43af3c" />
          </symbol>
          <symbol
             overflow="visible"
             id="id-95271ef6-1509-49c9-a26a-22c02fbf187d"
             style="fill:#000000;fill-opacity:1;stroke-width:0">
            <path
               style="fill:#000000;fill-opacity:1;stroke:none;stroke-width:0"
               d="m 0.359375,0 h 2.90625 V -3.515625 H 0.359375 Z M 0.71875,-0.359375 v -2.78125 h 2.1875 v 2.78125 z m 0,0"
               id="id-cac1d302-072f-495e-81a6-6b2ee272c29d" />
          </symbol>
          <symbol
             overflow="visible"
             id="id-6fb54b7a-1f15-4fcf-a392-c1ffcce4f247"
             style="fill:#000000;fill-opacity:1;stroke-width:0">
            <path
               style="fill:#000000;fill-opacity:1;stroke:none;stroke-width:0"
               d="m 0.625,-4.203125 c 0,0.1875 0.15625,0.359375 0.34375,0.359375 0.203125,0 0.359375,-0.171875 0.359375,-0.359375 0,-0.203125 -0.15625,-0.359375 -0.359375,-0.359375 -0.1875,0 -0.34375,0.15625 -0.34375,0.359375 z m 0.671875,1.90625 v -0.25 c 0,-0.0625 0.046875,-0.40625 0.046875,-0.46875 C 1.34375,-3.046875 1.3125,-3.125 1.265625,-3.125 0.984375,-2.96875 0.609375,-2.875 0.25,-2.828125 v 0.1875 c 0.046875,0 0.421875,0 0.46875,0.125 0.03125,0.09375 0.03125,0.28125 0.03125,0.375 v 1.3125 c 0,0.21875 0,0.40625 -0.03125,0.53125 C 0.703125,-0.21875 0.34375,-0.1875 0.265625,-0.1875 V 0.015625 C 0.546875,0 0.75,-0.015625 1.03125,-0.015625 1.3125,-0.015625 1.5,0 1.78125,0.015625 V -0.1875 c -0.078125,0 -0.421875,-0.03125 -0.4375,-0.109375 -0.046875,-0.125 -0.046875,-0.3125 -0.046875,-0.53125 z m 0,0"
               id="id-1ec24647-28d2-4595-8c6d-ba383fac6008" />
          </symbol>
        </g>
      </defs>
      <g
         id="id-eaacc460-c117-4848-b42f-23e32dfd8033"
         transform="translate(-149.048,-128.062)"
         style="fill:#000000;fill-opacity:1;stroke-width:0">
        <g
           style="fill:#000000;fill-opacity:1;stroke-width:0"
           id="id-9936a348-32b2-4bea-a51f-53ce53387a80">
          <g
             transform="translate(149.111,134.765)"
             style="fill:#000000;fill-opacity:1;stroke-width:0"
             id="g8194">
            <path
               style="fill:#000000;fill-opacity:1;stroke:none;stroke-width:0"
               d="m 1.578125,-0.484375 c 0,-0.15625 0.0625,-0.5 0.09375,-0.609375 l 0.375,-2 C 2.078125,-3.1875 2.5,-3.1875 2.75,-3.1875 c 0.34375,0 0.890625,0 0.984375,0.078125 0.0625,0.0625 0.109375,0.125 0.140625,0.703125 0,0.046875 0.046875,0.078125 0.125,0.078125 0.0625,0 0.140625,-0.015625 0.15625,-0.03125 l 0.375,-1.90625 C 4.5,-4.296875 4.453125,-4.3125 4.375,-4.3125 c -0.0625,0 -0.140625,0.015625 -0.15625,0.0625 -0.296875,0.671875 -0.265625,0.734375 -1.171875,0.734375 h -0.5 c -0.1875,0 -0.390625,-0.015625 -0.390625,-0.0625 l 0.375,-1.9375 c 0.046875,-0.28125 0.125,-0.5625 0.203125,-0.71875 0.046875,-0.09375 0.5625,-0.125 0.671875,-0.125 h 0.796875 c 0.5,0 0.84375,0.203125 0.890625,1.015625 0,0.046875 0.046875,0.0625 0.109375,0.0625 0.078125,0 0.15625,-0.015625 0.1875,-0.046875 C 5.390625,-5.625 5.375,-5.90625 5.375,-6.21875 c 0,-0.15625 0,-0.3125 0.015625,-0.484375 -1.03125,0 -2.15625,0.078125 -3.03125,0.078125 C 2,-6.625 1.625,-6.65625 1.25,-6.671875 c -0.046875,0.03125 -0.078125,0.140625 -0.078125,0.21875 0,0.03125 0,0.046875 0.015625,0.0625 0.109375,0 0.609375,0.0625 0.609375,0.171875 v 0.078125 c 0,0.15625 -0.03125,0.40625 -0.078125,0.65625 L 0.875,-1.171875 C 0.8125,-0.875 0.765625,-0.59375 0.6875,-0.421875 0.640625,-0.3125 0.109375,-0.265625 0,-0.265625 c -0.046875,0.046875 -0.0625,0.140625 -0.0625,0.21875 0,0.03125 0,0.0625 0.015625,0.078125 C 0.3125,0.03125 0.625,0 1.0625,0 2.3125,0 3.234375,0.046875 4.25,0.046875 4.40625,-0.40625 4.8125,-1.09375 5.09375,-1.640625 5.078125,-1.671875 4.96875,-1.6875 4.875,-1.6875 c -0.0625,0 -0.125,0.015625 -0.15625,0.046875 -0.25,0.546875 -0.515625,0.84375 -0.78125,1.015625 -0.3125,0.21875 -0.734375,0.328125 -1.25,0.328125 H 2.25 c -0.390625,0 -0.671875,0.03125 -0.671875,-0.1875 z m 0,0"
               id="id-92f2315e-dff3-403c-bc01-5b2327c074d5" />
          </g>
        </g>
        <g
           style="fill:#000000;fill-opacity:1;stroke-width:0"
           id="id-a675538a-e562-4c1f-a8d4-98f2c6047242">
          <g
             transform="translate(154.879,136.259)"
             style="fill:#000000;fill-opacity:1;stroke-width:0"
             id="g8198">
            <path
               style="fill:#000000;fill-opacity:1;stroke:none;stroke-width:0"
               d="m 0.625,-4.203125 c 0,0.1875 0.15625,0.359375 0.34375,0.359375 0.203125,0 0.359375,-0.171875 0.359375,-0.359375 0,-0.203125 -0.15625,-0.359375 -0.359375,-0.359375 -0.1875,0 -0.34375,0.15625 -0.34375,0.359375 z m 0.671875,1.90625 v -0.25 c 0,-0.0625 0.046875,-0.40625 0.046875,-0.46875 C 1.34375,-3.046875 1.3125,-3.125 1.265625,-3.125 0.984375,-2.96875 0.609375,-2.875 0.25,-2.828125 v 0.1875 c 0.046875,0 0.421875,0 0.46875,0.125 0.03125,0.09375 0.03125,0.28125 0.03125,0.375 v 1.3125 c 0,0.21875 0,0.40625 -0.03125,0.53125 C 0.703125,-0.21875 0.34375,-0.1875 0.265625,-0.1875 V 0.015625 C 0.546875,0 0.75,-0.015625 1.03125,-0.015625 1.3125,-0.015625 1.5,0 1.78125,0.015625 V -0.1875 c -0.078125,0 -0.421875,-0.03125 -0.4375,-0.109375 -0.046875,-0.125 -0.046875,-0.3125 -0.046875,-0.53125 z m 0,0"
               id="id-6b1067fe-6716-4306-b671-29c1cbbc0df3" />
          </g>
        </g>
      </g>
    </g>
    <circle
       r="0.82887936"
       cy="-46.650734"
       cx="101.49545"
       id="circle44979"
       style="opacity:1;fill:#ffffff;stroke:#000000;stroke-width:0.328218;stroke-linejoin:round;stroke-miterlimit:4;stroke-dasharray:none"
       transform="scale(1,-1)" />
    <circle
       r="0.82887936"
       cy="-46.650734"
       cx="111.45545"
       id="circle44981"
       style="opacity:1;fill:#ffffff;stroke:#000000;stroke-width:0.328218;stroke-linejoin:round;stroke-miterlimit:4;stroke-dasharray:none"
       transform="scale(1,-1)" />
    <circle
       r="0.82887936"
       cy="-46.650734"
       cx="116.68839"
       id="circle44983"
       style="opacity:1;fill:#ffffff;stroke:#000000;stroke-width:0.328218;stroke-linejoin:round;stroke-miterlimit:4;stroke-dasharray:none"
       transform="scale(1,-1)" />
    <circle
       r="0.82887936"
       cy="-46.650734"
       cx="126.76045"
       id="circle44989"
       style="opacity:1;fill:#ffffff;stroke:#000000;stroke-width:0.328218;stroke-linejoin:round;stroke-miterlimit:4;stroke-dasharray:none"
       transform="scale(1,-1)" />
    <circle
       r="1.1051725"
       cy="-34.838974"
       cx="96.417816"
       id="circle44991"
       style="opacity:1;fill:#ffffff;stroke:#000000;stroke-width:0.437625;stroke-linejoin:round;stroke-miterlimit:4;stroke-dasharray:none"
       transform="scale(1,-1)" />
    <path
       style="fill:none;stroke:#000000;stroke-width:0.264583px;stroke-linecap:butt;stroke-linejoin:miter;stroke-opacity:1;marker-end:url(#marker107630)"
       d="M 101.473,45.723213 V 36.471655"
       id="path54014"
       sodipodi:nodetypes="cc" />
    <circle
       r="1.1051725"
       cy="-34.786846"
       cx="106.54975"
       id="circle53962"
       style="opacity:1;fill:#ffffff;stroke:#000000;stroke-width:0.437625;stroke-linejoin:round;stroke-miterlimit:4;stroke-dasharray:none"
       transform="scale(1,-1)" />
    <path
       style="fill:none;stroke:#000000;stroke-width:0.264583px;stroke-linecap:butt;stroke-linejoin:miter;stroke-opacity:1;marker-end:url(#marker54806)"
       d="M 111.50911,45.79003 V 36.515726"
       id="path54790"
       sodipodi:nodetypes="cc" />
    <path
       style="fill:none;stroke:#000000;stroke-width:0.264583px;stroke-linecap:butt;stroke-linejoin:miter;stroke-opacity:1;marker-end:url(#marker54796)"
       d="M 116.69975,45.777032 V 36.516616"
       id="path54792"
       sodipodi:nodetypes="cc" />
    <path
       style="fill:none;stroke:#000000;stroke-width:0.264583px;stroke-linecap:butt;stroke-linejoin:miter;stroke-opacity:1;marker-end:url(#marker11529)"
       d="M 126.74018,45.71007 V 36.449654"
       id="path11525"
       sodipodi:nodetypes="cc" />
    <circle
       r="1.1051725"
       cy="-34.786846"
       cx="121.59544"
       id="circle11469"
       style="opacity:1;fill:#ffffff;stroke:#000000;stroke-width:0.437625;stroke-linejoin:round;stroke-miterlimit:4;stroke-dasharray:none"
       transform="scale(1,-1)" />
    <g
       transform="matrix(0.39932025,0,0,0.39932025,133.40817,43.734224)"
       ns2:version="1.1.0"
       ns2:texconverter="pdflatex"
       ns2:pdfconverter="inkscape"
       ns2:text="$\\ab{E}{v}$\n\n\n\n\n"
       ns2:preamble="C:\\Users\\flvisa\\Desktop\\lna\\latexify_books\\textext_preamble.tex"
       ns2:scale="1.1999999433071764"
       ns2:alignment="middle center"
       ns2:inkscapeversion="1.0.1"
       ns2:jacobian_sqrt="0.423334"
       style="fill:#9e7867;fill-opacity:1;stroke-width:0"
       id="g30351">
      <defs
         id="defs30335">
        <g
           id="g11667"
           style="fill:#000000;fill-opacity:1;stroke-width:0">
          <symbol
             overflow="visible"
             id="symbol11653"
             style="fill:#000000;fill-opacity:1;stroke-width:0">
            <path
               style="fill:#000000;fill-opacity:1;stroke:none;stroke-width:0"
               d=""
               id="path11651" />
          </symbol>
          <symbol
             overflow="visible"
             id="symbol11657"
             style="fill:#000000;fill-opacity:1;stroke-width:0">
            <path
               style="fill:#000000;fill-opacity:1;stroke:none;stroke-width:0"
               d="m 1.578125,-0.484375 c 0,-0.15625 0.0625,-0.5 0.09375,-0.609375 l 0.375,-2 C 2.078125,-3.1875 2.5,-3.1875 2.75,-3.1875 c 0.34375,0 0.890625,0 0.984375,0.078125 0.0625,0.0625 0.109375,0.125 0.140625,0.703125 0,0.046875 0.046875,0.078125 0.125,0.078125 0.0625,0 0.140625,-0.015625 0.15625,-0.03125 l 0.375,-1.90625 C 4.5,-4.296875 4.453125,-4.3125 4.375,-4.3125 c -0.0625,0 -0.140625,0.015625 -0.15625,0.0625 -0.296875,0.671875 -0.265625,0.734375 -1.171875,0.734375 h -0.5 c -0.1875,0 -0.390625,-0.015625 -0.390625,-0.0625 l 0.375,-1.9375 c 0.046875,-0.28125 0.125,-0.5625 0.203125,-0.71875 0.046875,-0.09375 0.5625,-0.125 0.671875,-0.125 h 0.796875 c 0.5,0 0.84375,0.203125 0.890625,1.015625 0,0.046875 0.046875,0.0625 0.109375,0.0625 0.078125,0 0.15625,-0.015625 0.1875,-0.046875 C 5.390625,-5.625 5.375,-5.90625 5.375,-6.21875 c 0,-0.15625 0,-0.3125 0.015625,-0.484375 -1.03125,0 -2.15625,0.078125 -3.03125,0.078125 C 2,-6.625 1.625,-6.65625 1.25,-6.671875 c -0.046875,0.03125 -0.078125,0.140625 -0.078125,0.21875 0,0.03125 0,0.046875 0.015625,0.0625 0.109375,0 0.609375,0.0625 0.609375,0.171875 v 0.078125 c 0,0.15625 -0.03125,0.40625 -0.078125,0.65625 L 0.875,-1.171875 C 0.8125,-0.875 0.765625,-0.59375 0.6875,-0.421875 0.640625,-0.3125 0.109375,-0.265625 0,-0.265625 c -0.046875,0.046875 -0.0625,0.140625 -0.0625,0.21875 0,0.03125 0,0.0625 0.015625,0.078125 C 0.3125,0.03125 0.625,0 1.0625,0 2.3125,0 3.234375,0.046875 4.25,0.046875 4.40625,-0.40625 4.8125,-1.09375 5.09375,-1.640625 5.078125,-1.671875 4.96875,-1.6875 4.875,-1.6875 c -0.0625,0 -0.125,0.015625 -0.15625,0.046875 -0.25,0.546875 -0.515625,0.84375 -0.78125,1.015625 -0.3125,0.21875 -0.734375,0.328125 -1.25,0.328125 H 2.25 c -0.390625,0 -0.671875,0.03125 -0.671875,-0.1875 z m 0,0"
               id="path11655" />
          </symbol>
          <symbol
             overflow="visible"
             id="symbol11661"
             style="fill:#000000;fill-opacity:1;stroke-width:0">
            <path
               style="fill:#000000;fill-opacity:1;stroke:none;stroke-width:0"
               d="m 0.359375,0 h 2.90625 V -3.515625 H 0.359375 Z M 0.71875,-0.359375 v -2.78125 h 2.1875 v 2.78125 z m 0,0"
               id="path11659" />
          </symbol>
          <symbol
             overflow="visible"
             id="symbol11665"
             style="fill:#000000;fill-opacity:1;stroke-width:0">
            <path
               style="fill:#000000;fill-opacity:1;stroke:none;stroke-width:0"
               d="M 0.734375,-3.09375 C 0.4375,-3.09375 0.3125,-3.109375 0.015625,-3.125 v 0.203125 c 0.09375,0 0.328125,0 0.40625,0.140625 0.40625,0.828125 0.71875,1.71875 1.171875,2.828125 0.015625,0.015625 0.046875,0.03125 0.0625,0.03125 0.0625,0 0.171875,-0.0625 0.203125,-0.125 0.421875,-1.03125 0.65625,-1.59375 1.09375,-2.625 0.078125,-0.203125 0.390625,-0.25 0.453125,-0.25 0.015625,0 0.046875,-0.15625 0.015625,-0.203125 C 3.125,-3.109375 3.015625,-3.09375 2.75,-3.09375 c -0.296875,0 -0.359375,-0.015625 -0.59375,-0.03125 v 0.203125 c 0.25,0 0.421875,0.09375 0.421875,0.234375 0,0.0625 0,0.140625 -0.046875,0.234375 -0.265625,0.6875 -0.640625,1.65625 -0.640625,1.65625 L 1.09375,-2.765625 v -0.03125 c 0,-0.109375 0.28125,-0.125 0.34375,-0.125 0.03125,0 0.046875,-0.15625 0.03125,-0.203125 -0.296875,0.015625 -0.453125,0.03125 -0.734375,0.03125 z m 0,0"
               id="path11663" />
          </symbol>
        </g>
      </defs>
      <g
         id="g30349"
         transform="translate(-149.048,-128.062)"
         style="fill:#9e7867;fill-opacity:1;stroke-width:0">
        <g
           style="fill:#9e7867;fill-opacity:1;stroke-width:0"
           id="g30341">
          <g
             transform="translate(149.111,134.765)"
             style="fill:#9e7867;fill-opacity:1;stroke-width:0"
             id="g30339">
            <path
               style="fill:#9e7867;fill-opacity:1;stroke:none;stroke-width:0"
               d="m 1.578125,-0.484375 c 0,-0.15625 0.0625,-0.5 0.09375,-0.609375 l 0.375,-2 C 2.078125,-3.1875 2.5,-3.1875 2.75,-3.1875 c 0.34375,0 0.890625,0 0.984375,0.078125 0.0625,0.0625 0.109375,0.125 0.140625,0.703125 0,0.046875 0.046875,0.078125 0.125,0.078125 0.0625,0 0.140625,-0.015625 0.15625,-0.03125 l 0.375,-1.90625 C 4.5,-4.296875 4.453125,-4.3125 4.375,-4.3125 c -0.0625,0 -0.140625,0.015625 -0.15625,0.0625 -0.296875,0.671875 -0.265625,0.734375 -1.171875,0.734375 h -0.5 c -0.1875,0 -0.390625,-0.015625 -0.390625,-0.0625 l 0.375,-1.9375 c 0.046875,-0.28125 0.125,-0.5625 0.203125,-0.71875 0.046875,-0.09375 0.5625,-0.125 0.671875,-0.125 h 0.796875 c 0.5,0 0.84375,0.203125 0.890625,1.015625 0,0.046875 0.046875,0.0625 0.109375,0.0625 0.078125,0 0.15625,-0.015625 0.1875,-0.046875 C 5.390625,-5.625 5.375,-5.90625 5.375,-6.21875 c 0,-0.15625 0,-0.3125 0.015625,-0.484375 -1.03125,0 -2.15625,0.078125 -3.03125,0.078125 C 2,-6.625 1.625,-6.65625 1.25,-6.671875 c -0.046875,0.03125 -0.078125,0.140625 -0.078125,0.21875 0,0.03125 0,0.046875 0.015625,0.0625 0.109375,0 0.609375,0.0625 0.609375,0.171875 v 0.078125 c 0,0.15625 -0.03125,0.40625 -0.078125,0.65625 L 0.875,-1.171875 C 0.8125,-0.875 0.765625,-0.59375 0.6875,-0.421875 0.640625,-0.3125 0.109375,-0.265625 0,-0.265625 c -0.046875,0.046875 -0.0625,0.140625 -0.0625,0.21875 0,0.03125 0,0.0625 0.015625,0.078125 C 0.3125,0.03125 0.625,0 1.0625,0 2.3125,0 3.234375,0.046875 4.25,0.046875 4.40625,-0.40625 4.8125,-1.09375 5.09375,-1.640625 5.078125,-1.671875 4.96875,-1.6875 4.875,-1.6875 c -0.0625,0 -0.125,0.015625 -0.15625,0.046875 -0.25,0.546875 -0.515625,0.84375 -0.78125,1.015625 -0.3125,0.21875 -0.734375,0.328125 -1.25,0.328125 H 2.25 c -0.390625,0 -0.671875,0.03125 -0.671875,-0.1875 z m 0,0"
               id="path30337" />
          </g>
        </g>
        <g
           style="fill:#9e7867;fill-opacity:1;stroke-width:0"
           id="g30347">
          <g
             transform="translate(154.879,136.259)"
             style="fill:#9e7867;fill-opacity:1;stroke-width:0"
             id="g30345">
            <path
               style="fill:#9e7867;fill-opacity:1;stroke:none;stroke-width:0"
               d="M 0.734375,-3.09375 C 0.4375,-3.09375 0.3125,-3.109375 0.015625,-3.125 v 0.203125 c 0.09375,0 0.328125,0 0.40625,0.140625 0.40625,0.828125 0.71875,1.71875 1.171875,2.828125 0.015625,0.015625 0.046875,0.03125 0.0625,0.03125 0.0625,0 0.171875,-0.0625 0.203125,-0.125 0.421875,-1.03125 0.65625,-1.59375 1.09375,-2.625 0.078125,-0.203125 0.390625,-0.25 0.453125,-0.25 0.015625,0 0.046875,-0.15625 0.015625,-0.203125 C 3.125,-3.109375 3.015625,-3.09375 2.75,-3.09375 c -0.296875,0 -0.359375,-0.015625 -0.59375,-0.03125 v 0.203125 c 0.25,0 0.421875,0.09375 0.421875,0.234375 0,0.0625 0,0.140625 -0.046875,0.234375 -0.265625,0.6875 -0.640625,1.65625 -0.640625,1.65625 L 1.09375,-2.765625 v -0.03125 c 0,-0.109375 0.28125,-0.125 0.34375,-0.125 0.03125,0 0.046875,-0.15625 0.03125,-0.203125 -0.296875,0.015625 -0.453125,0.03125 -0.734375,0.03125 z m 0,0"
               id="path30343" />
          </g>
        </g>
      </g>
    </g>
    <g
       transform="matrix(0.403493,0,0,0.403493,133.40849,33.362644)"
       ns2:version="1.1.0"
       ns2:texconverter="pdflatex"
       ns2:pdfconverter="inkscape"
       ns2:text="$\\ab{E}{a}$\n\n\n\n\n\n"
       ns2:preamble="C:\\Users\\flvisa\\Desktop\\lna\\latexify_books\\textext_preamble.tex"
       ns2:scale="1.1437581132742394"
       ns2:alignment="middle center"
       ns2:inkscapeversion="1.0.1"
       ns2:jacobian_sqrt="0.403493"
       style="fill:#6a4239;fill-opacity:1;stroke-width:0"
       id="g64983">
      <defs
         id="id-6530ee29-553c-45ae-a4be-54218f7f331c">
        <g
           id="g12362"
           style="fill:#6a4239;fill-opacity:1;stroke-width:0">
          <symbol
             overflow="visible"
             id="symbol12348"
             style="fill:#6a4239;fill-opacity:1;stroke-width:0">
            <path
               style="fill:#6a4239;fill-opacity:1;stroke:none;stroke-width:0"
               d=""
               id="path12346" />
          </symbol>
          <symbol
             overflow="visible"
             id="symbol12352"
             style="fill:#6a4239;fill-opacity:1;stroke-width:0">
            <path
               style="fill:#6a4239;fill-opacity:1;stroke:none;stroke-width:0"
               d="m 1.578125,-0.484375 c 0,-0.15625 0.0625,-0.5 0.09375,-0.609375 l 0.375,-2 C 2.078125,-3.1875 2.5,-3.1875 2.75,-3.1875 c 0.34375,0 0.890625,0 0.984375,0.078125 0.0625,0.0625 0.109375,0.125 0.140625,0.703125 0,0.046875 0.046875,0.078125 0.125,0.078125 0.0625,0 0.140625,-0.015625 0.15625,-0.03125 l 0.375,-1.90625 C 4.5,-4.296875 4.453125,-4.3125 4.375,-4.3125 c -0.0625,0 -0.140625,0.015625 -0.15625,0.0625 -0.296875,0.671875 -0.265625,0.734375 -1.171875,0.734375 h -0.5 c -0.1875,0 -0.390625,-0.015625 -0.390625,-0.0625 l 0.375,-1.9375 c 0.046875,-0.28125 0.125,-0.5625 0.203125,-0.71875 0.046875,-0.09375 0.5625,-0.125 0.671875,-0.125 h 0.796875 c 0.5,0 0.84375,0.203125 0.890625,1.015625 0,0.046875 0.046875,0.0625 0.109375,0.0625 0.078125,0 0.15625,-0.015625 0.1875,-0.046875 C 5.390625,-5.625 5.375,-5.90625 5.375,-6.21875 c 0,-0.15625 0,-0.3125 0.015625,-0.484375 -1.03125,0 -2.15625,0.078125 -3.03125,0.078125 C 2,-6.625 1.625,-6.65625 1.25,-6.671875 c -0.046875,0.03125 -0.078125,0.140625 -0.078125,0.21875 0,0.03125 0,0.046875 0.015625,0.0625 0.109375,0 0.609375,0.0625 0.609375,0.171875 v 0.078125 c 0,0.15625 -0.03125,0.40625 -0.078125,0.65625 L 0.875,-1.171875 C 0.8125,-0.875 0.765625,-0.59375 0.6875,-0.421875 0.640625,-0.3125 0.109375,-0.265625 0,-0.265625 c -0.046875,0.046875 -0.0625,0.140625 -0.0625,0.21875 0,0.03125 0,0.0625 0.015625,0.078125 C 0.3125,0.03125 0.625,0 1.0625,0 2.3125,0 3.234375,0.046875 4.25,0.046875 4.40625,-0.40625 4.8125,-1.09375 5.09375,-1.640625 5.078125,-1.671875 4.96875,-1.6875 4.875,-1.6875 c -0.0625,0 -0.125,0.015625 -0.15625,0.046875 -0.25,0.546875 -0.515625,0.84375 -0.78125,1.015625 -0.3125,0.21875 -0.734375,0.328125 -1.25,0.328125 H 2.25 c -0.390625,0 -0.671875,0.03125 -0.671875,-0.1875 z m 0,0"
               id="path12350" />
          </symbol>
          <symbol
             overflow="visible"
             id="symbol12356"
             style="fill:#6a4239;fill-opacity:1;stroke-width:0">
            <path
               style="fill:#6a4239;fill-opacity:1;stroke:none;stroke-width:0"
               d="m 0.359375,0 h 2.90625 V -3.515625 H 0.359375 Z M 0.71875,-0.359375 v -2.78125 h 2.1875 v 2.78125 z m 0,0"
               id="path12354" />
          </symbol>
          <symbol
             overflow="visible"
             id="symbol12360"
             style="fill:#6a4239;fill-opacity:1;stroke-width:0">
            <path
               style="fill:#6a4239;fill-opacity:1;stroke:none;stroke-width:0"
               d="m 1.34375,-0.328125 c -0.265625,0 -0.484375,-0.234375 -0.484375,-0.5 0,-0.28125 0.171875,-0.46875 0.4375,-0.578125 C 1.4375,-1.453125 1.78125,-1.5625 1.96875,-1.625 v 1 c 0,0.078125 -0.375,0.296875 -0.625,0.296875 z m 0.390625,-2.84375 c -0.53125,0 -1.09375,0.390625 -1.3125,0.59375 -0.015625,0.03125 -0.046875,0.15625 -0.046875,0.1875 0,0.140625 0.09375,0.296875 0.25,0.296875 0.171875,0 0.28125,-0.09375 0.328125,-0.34375 C 1,-2.71875 1.09375,-2.90625 1.34375,-2.90625 c 0.359375,0 0.625,0.375 0.625,0.703125 V -2 c 0,0.125 0,0.15625 -0.078125,0.1875 C 1.6875,-1.71875 1.03125,-1.515625 0.625,-1.359375 0.46875,-1.3125 0.265625,-1.078125 0.265625,-0.78125 c 0,0.46875 0.375,0.84375 0.84375,0.84375 0.25,0 0.796875,-0.390625 0.890625,-0.484375 0.046875,0.21875 0.234375,0.46875 0.4375,0.46875 0.15625,0 0.453125,-0.1875 0.53125,-0.265625 C 3,-0.265625 3.015625,-0.3125 3.015625,-0.359375 c 0,-0.03125 -0.015625,-0.0625 -0.03125,-0.0625 -0.03125,0.015625 -0.109375,0.09375 -0.25,0.09375 -0.15625,0 -0.21875,-0.15625 -0.21875,-0.34375 v -1.5 c 0,-0.546875 -0.375,-1 -0.78125,-1 z m 0,0"
               id="path12358" />
          </symbol>
        </g>
      </defs>
      <g
         id="id-5eed20d5-f247-4658-bc3f-da3c3f7f6da6"
         transform="translate(-149.048,-128.062)"
         style="fill:#6a4239;fill-opacity:1;stroke-width:0">
        <g
           style="fill:#6a4239;fill-opacity:1;stroke-width:0"
           id="id-bf2e87d8-50bc-43ae-b61a-432093ea9f17">
          <g
             transform="translate(149.111,134.765)"
             style="fill:#6a4239;fill-opacity:1;stroke-width:0"
             id="g64975">
            <path
               style="fill:#6a4239;fill-opacity:1;stroke:none;stroke-width:0"
               d="m 1.578125,-0.484375 c 0,-0.15625 0.0625,-0.5 0.09375,-0.609375 l 0.375,-2 C 2.078125,-3.1875 2.5,-3.1875 2.75,-3.1875 c 0.34375,0 0.890625,0 0.984375,0.078125 0.0625,0.0625 0.109375,0.125 0.140625,0.703125 0,0.046875 0.046875,0.078125 0.125,0.078125 0.0625,0 0.140625,-0.015625 0.15625,-0.03125 l 0.375,-1.90625 C 4.5,-4.296875 4.453125,-4.3125 4.375,-4.3125 c -0.0625,0 -0.140625,0.015625 -0.15625,0.0625 -0.296875,0.671875 -0.265625,0.734375 -1.171875,0.734375 h -0.5 c -0.1875,0 -0.390625,-0.015625 -0.390625,-0.0625 l 0.375,-1.9375 c 0.046875,-0.28125 0.125,-0.5625 0.203125,-0.71875 0.046875,-0.09375 0.5625,-0.125 0.671875,-0.125 h 0.796875 c 0.5,0 0.84375,0.203125 0.890625,1.015625 0,0.046875 0.046875,0.0625 0.109375,0.0625 0.078125,0 0.15625,-0.015625 0.1875,-0.046875 C 5.390625,-5.625 5.375,-5.90625 5.375,-6.21875 c 0,-0.15625 0,-0.3125 0.015625,-0.484375 -1.03125,0 -2.15625,0.078125 -3.03125,0.078125 C 2,-6.625 1.625,-6.65625 1.25,-6.671875 c -0.046875,0.03125 -0.078125,0.140625 -0.078125,0.21875 0,0.03125 0,0.046875 0.015625,0.0625 0.109375,0 0.609375,0.0625 0.609375,0.171875 v 0.078125 c 0,0.15625 -0.03125,0.40625 -0.078125,0.65625 L 0.875,-1.171875 C 0.8125,-0.875 0.765625,-0.59375 0.6875,-0.421875 0.640625,-0.3125 0.109375,-0.265625 0,-0.265625 c -0.046875,0.046875 -0.0625,0.140625 -0.0625,0.21875 0,0.03125 0,0.0625 0.015625,0.078125 C 0.3125,0.03125 0.625,0 1.0625,0 2.3125,0 3.234375,0.046875 4.25,0.046875 4.40625,-0.40625 4.8125,-1.09375 5.09375,-1.640625 5.078125,-1.671875 4.96875,-1.6875 4.875,-1.6875 c -0.0625,0 -0.125,0.015625 -0.15625,0.046875 -0.25,0.546875 -0.515625,0.84375 -0.78125,1.015625 -0.3125,0.21875 -0.734375,0.328125 -1.25,0.328125 H 2.25 c -0.390625,0 -0.671875,0.03125 -0.671875,-0.1875 z m 0,0"
               id="id-1dc69260-926d-43c4-9ab5-ba4f9329d680" />
          </g>
        </g>
        <g
           style="fill:#6a4239;fill-opacity:1;stroke-width:0"
           id="id-ac7fd5ce-014c-4a9c-93d9-dc79bfce7a5a">
          <g
             transform="translate(154.879,136.259)"
             style="fill:#6a4239;fill-opacity:1;stroke-width:0"
             id="g64979">
            <path
               style="fill:#6a4239;fill-opacity:1;stroke:none;stroke-width:0"
               d="m 1.34375,-0.328125 c -0.265625,0 -0.484375,-0.234375 -0.484375,-0.5 0,-0.28125 0.171875,-0.46875 0.4375,-0.578125 C 1.4375,-1.453125 1.78125,-1.5625 1.96875,-1.625 v 1 c 0,0.078125 -0.375,0.296875 -0.625,0.296875 z m 0.390625,-2.84375 c -0.53125,0 -1.09375,0.390625 -1.3125,0.59375 -0.015625,0.03125 -0.046875,0.15625 -0.046875,0.1875 0,0.140625 0.09375,0.296875 0.25,0.296875 0.171875,0 0.28125,-0.09375 0.328125,-0.34375 C 1,-2.71875 1.09375,-2.90625 1.34375,-2.90625 c 0.359375,0 0.625,0.375 0.625,0.703125 V -2 c 0,0.125 0,0.15625 -0.078125,0.1875 C 1.6875,-1.71875 1.03125,-1.515625 0.625,-1.359375 0.46875,-1.3125 0.265625,-1.078125 0.265625,-0.78125 c 0,0.46875 0.375,0.84375 0.84375,0.84375 0.25,0 0.796875,-0.390625 0.890625,-0.484375 0.046875,0.21875 0.234375,0.46875 0.4375,0.46875 0.15625,0 0.453125,-0.1875 0.53125,-0.265625 C 3,-0.265625 3.015625,-0.3125 3.015625,-0.359375 c 0,-0.03125 -0.015625,-0.0625 -0.03125,-0.0625 -0.03125,0.015625 -0.109375,0.09375 -0.25,0.09375 -0.15625,0 -0.21875,-0.15625 -0.21875,-0.34375 v -1.5 c 0,-0.546875 -0.375,-1 -0.78125,-1 z m 0,0"
               id="id-e990c7c1-778d-476d-a2c5-fbecfede66c3" />
          </g>
        </g>
      </g>
    </g>
    <circle
       r="1.1051725"
       cy="-34.838974"
       cx="92.713646"
       id="circle12373"
       style="opacity:1;fill:#ffffff;stroke:#000000;stroke-width:0.437625;stroke-linejoin:round;stroke-miterlimit:4;stroke-dasharray:none"
       transform="scale(1,-1)" />
    <g
       id="g12377"
       transform="translate(62.595254,-39.181284)">
      <circle
         r="1.1051852"
         cy="-73.931839"
         cx="38.902885"
         id="circle62145"
         style="fill:#ffffff;stroke:#6a4239;stroke-width:0.43763;stroke-linejoin:round;stroke-miterlimit:4;stroke-dasharray:none"
         transform="scale(1,-1)" />
      <path
         id="path62147"
         d="M 38.298639,73.979037 H 39.46985"
         style="fill:none;stroke:#6a4239;stroke-width:0.152881;stroke-linecap:round;stroke-linejoin:miter;stroke-miterlimit:4;stroke-dasharray:none;stroke-opacity:1" />
    </g>
    <g
       id="g12404"
       transform="translate(72.631359,-39.248101)">
      <circle
         r="1.1051852"
         cy="-73.931839"
         cx="38.902885"
         id="circle12400"
         style="fill:#ffffff;stroke:#6a4239;stroke-width:0.43763;stroke-linejoin:round;stroke-miterlimit:4;stroke-dasharray:none"
         transform="scale(1,-1)" />
      <path
         id="path12402"
         d="M 38.298639,73.979037 H 39.46985"
         style="fill:none;stroke:#6a4239;stroke-width:0.152881;stroke-linecap:round;stroke-linejoin:miter;stroke-miterlimit:4;stroke-dasharray:none;stroke-opacity:1" />
    </g>
    <g
       id="g12410"
       transform="translate(87.862354,-39.168141)">
      <circle
         r="1.1051852"
         cy="-73.931839"
         cx="38.902885"
         id="circle12406"
         style="fill:#ffffff;stroke:#6a4239;stroke-width:0.43763;stroke-linejoin:round;stroke-miterlimit:4;stroke-dasharray:none"
         transform="scale(1,-1)" />
      <path
         id="path12408"
         d="M 38.298639,73.979037 H 39.46985"
         style="fill:none;stroke:#6a4239;stroke-width:0.152881;stroke-linecap:round;stroke-linejoin:miter;stroke-miterlimit:4;stroke-dasharray:none;stroke-opacity:1" />
    </g>
    <g
       id="g12416"
       transform="translate(77.821654,-39.235102)">
      <circle
         r="1.1051852"
         cy="-73.931839"
         cx="38.902885"
         id="circle12412"
         style="fill:#ffffff;stroke:#6a4239;stroke-width:0.43763;stroke-linejoin:round;stroke-miterlimit:4;stroke-dasharray:none"
         transform="scale(1,-1)" />
      <path
         id="path12414"
         d="M 38.298639,73.979037 H 39.46985"
         style="fill:none;stroke:#6a4239;stroke-width:0.152881;stroke-linecap:round;stroke-linejoin:miter;stroke-miterlimit:4;stroke-dasharray:none;stroke-opacity:1" />
    </g>
  </g>
</svg>
