<?xml version="1.0" encoding="UTF-8" standalone="no"?>
<svg
   xmlns:ns2="http://www.iki.fi/pav/software/textext/"
   xmlns:dc="http://purl.org/dc/elements/1.1/"
   xmlns:cc="http://creativecommons.org/ns#"
   xmlns:rdf="http://www.w3.org/1999/02/22-rdf-syntax-ns#"
   xmlns:svg="http://www.w3.org/2000/svg"
   xmlns="http://www.w3.org/2000/svg"
   xmlns:sodipodi="http://sodipodi.sourceforge.net/DTD/sodipodi-0.dtd"
   xmlns:inkscape="http://www.inkscape.org/namespaces/inkscape"
   width="55.910011mm"
   height="53.891594mm"
   viewBox="0 0 55.91001 53.891594"
   version="1.1"
   id="svg8"
   inkscape:version="1.0.1 (3bc2e813f5, 2020-09-07)"
   sodipodi:docname="fig_5_22.svg">
  <defs
     id="defs2">
    <marker
       style="overflow:visible"
       id="marker12809"
       refX="0"
       refY="0"
       orient="auto"
       inkscape:stockid="Arrow1Mend"
       inkscape:isstock="true">
      <path
         transform="matrix(-0.4,0,0,-0.4,-4,0)"
         style="fill:#000000;fill-opacity:1;fill-rule:evenodd;stroke:#000000;stroke-width:1pt;stroke-opacity:1"
         d="M 0,0 5,-5 -12.5,0 5,5 Z"
         id="path12807" />
    </marker>
    <marker
       style="overflow:visible"
       id="Arrow1Mend"
       refX="0"
       refY="0"
       orient="auto"
       inkscape:stockid="Arrow1Mend"
       inkscape:isstock="true"
       inkscape:collect="always">
      <path
         transform="matrix(-0.4,0,0,-0.4,-4,0)"
         style="fill:#000000;fill-opacity:1;fill-rule:evenodd;stroke:#000000;stroke-width:1pt;stroke-opacity:1"
         d="M 0,0 5,-5 -12.5,0 5,5 Z"
         id="path12478" />
    </marker>
    <marker
       style="overflow:visible"
       id="marker11529"
       refX="0"
       refY="0"
       orient="auto"
       inkscape:stockid="Arrow1Send"
       inkscape:isstock="true">
      <path
         transform="matrix(-0.2,0,0,-0.2,-1.2,0)"
         style="fill:#000000;fill-opacity:1;fill-rule:evenodd;stroke:#000000;stroke-width:1pt;stroke-opacity:1"
         d="M 0,0 5,-5 -12.5,0 5,5 Z"
         id="path11527" />
    </marker>
    <pattern
       id="EMFhbasepattern"
       patternUnits="userSpaceOnUse"
       width="6"
       height="6"
       x="0"
       y="0" />
    <g
       id="g45954"
       style="fill:#000000;fill-opacity:1;stroke-width:0">
      <symbol
         overflow="visible"
         id="symbol45940"
         style="fill:#000000;fill-opacity:1;stroke-width:0">
        <path
           style="fill:#000000;fill-opacity:1;stroke:none;stroke-width:0"
           d=""
           id="path45938" />
      </symbol>
      <symbol
         overflow="visible"
         id="symbol45944"
         style="fill:#000000;fill-opacity:1;stroke-width:0">
        <path
           style="fill:#000000;fill-opacity:1;stroke:none;stroke-width:0"
           d="m 1.578125,-0.484375 c 0,-0.15625 0.0625,-0.5 0.09375,-0.609375 l 0.375,-2 C 2.078125,-3.1875 2.5,-3.1875 2.75,-3.1875 c 0.34375,0 0.890625,0 0.984375,0.078125 0.0625,0.0625 0.109375,0.125 0.140625,0.703125 0,0.046875 0.046875,0.078125 0.125,0.078125 0.0625,0 0.140625,-0.015625 0.15625,-0.03125 l 0.375,-1.90625 C 4.5,-4.296875 4.453125,-4.3125 4.375,-4.3125 c -0.0625,0 -0.140625,0.015625 -0.15625,0.0625 -0.296875,0.671875 -0.265625,0.734375 -1.171875,0.734375 h -0.5 c -0.1875,0 -0.390625,-0.015625 -0.390625,-0.0625 l 0.375,-1.9375 c 0.046875,-0.28125 0.125,-0.5625 0.203125,-0.71875 0.046875,-0.09375 0.5625,-0.125 0.671875,-0.125 h 0.796875 c 0.5,0 0.84375,0.203125 0.890625,1.015625 0,0.046875 0.046875,0.0625 0.109375,0.0625 0.078125,0 0.15625,-0.015625 0.1875,-0.046875 C 5.390625,-5.625 5.375,-5.90625 5.375,-6.21875 c 0,-0.15625 0,-0.3125 0.015625,-0.484375 -1.03125,0 -2.15625,0.078125 -3.03125,0.078125 C 2,-6.625 1.625,-6.65625 1.25,-6.671875 c -0.046875,0.03125 -0.078125,0.140625 -0.078125,0.21875 0,0.03125 0,0.046875 0.015625,0.0625 0.109375,0 0.609375,0.0625 0.609375,0.171875 v 0.078125 c 0,0.15625 -0.03125,0.40625 -0.078125,0.65625 L 0.875,-1.171875 C 0.8125,-0.875 0.765625,-0.59375 0.6875,-0.421875 0.640625,-0.3125 0.109375,-0.265625 0,-0.265625 c -0.046875,0.046875 -0.0625,0.140625 -0.0625,0.21875 0,0.03125 0,0.0625 0.015625,0.078125 C 0.3125,0.03125 0.625,0 1.0625,0 2.3125,0 3.234375,0.046875 4.25,0.046875 4.40625,-0.40625 4.8125,-1.09375 5.09375,-1.640625 5.078125,-1.671875 4.96875,-1.6875 4.875,-1.6875 c -0.0625,0 -0.125,0.015625 -0.15625,0.046875 -0.25,0.546875 -0.515625,0.84375 -0.78125,1.015625 -0.3125,0.21875 -0.734375,0.328125 -1.25,0.328125 H 2.25 c -0.390625,0 -0.671875,0.03125 -0.671875,-0.1875 z m 0,0"
           id="path45942" />
      </symbol>
      <symbol
         overflow="visible"
         id="symbol45948"
         style="fill:#000000;fill-opacity:1;stroke-width:0">
        <path
           style="fill:#000000;fill-opacity:1;stroke:none;stroke-width:0"
           d="m 0.359375,0 h 2.90625 V -3.515625 H 0.359375 Z M 0.71875,-0.359375 v -2.78125 h 2.1875 v 2.78125 z m 0,0"
           id="path45946" />
      </symbol>
      <symbol
         overflow="visible"
         id="symbol45952"
         style="fill:#000000;fill-opacity:1;stroke-width:0">
        <path
           style="fill:#000000;fill-opacity:1;stroke:none;stroke-width:0"
           d="m 2.765625,-2.796875 c 0,-0.09375 -0.046875,-0.1875 -0.078125,-0.21875 C 2.515625,-3.125 2.28125,-3.1875 2.03125,-3.1875 c -0.75,0 -1.75,0.71875 -1.75,1.78125 0,0.765625 0.578125,1.46875 1.46875,1.46875 0.546875,0 0.921875,-0.40625 1.046875,-0.609375 C 2.8125,-0.59375 2.84375,-0.640625 2.84375,-0.6875 c 0,-0.046875 -0.046875,-0.09375 -0.0625,-0.09375 -0.09375,0.109375 -0.375,0.359375 -0.765625,0.359375 -0.65625,0 -1.1875,-0.375 -1.1875,-1.234375 0,-0.765625 0.4375,-1.21875 0.828125,-1.21875 0.1875,0 0.25,0.046875 0.40625,0.15625 0.125,0.078125 0.265625,0.265625 0.421875,0.265625 0.125,0 0.28125,-0.09375 0.28125,-0.34375 z m 0,0"
           id="path45950" />
      </symbol>
    </g>
    <g
       id="g45981"
       style="fill:#000000;fill-opacity:1;stroke-width:0">
      <symbol
         overflow="visible"
         id="symbol45967"
         style="fill:#000000;fill-opacity:1;stroke-width:0">
        <path
           style="fill:#000000;fill-opacity:1;stroke:none;stroke-width:0"
           d=""
           id="path45965" />
      </symbol>
      <symbol
         overflow="visible"
         id="symbol45971"
         style="fill:#000000;fill-opacity:1;stroke-width:0">
        <path
           style="fill:#000000;fill-opacity:1;stroke:none;stroke-width:0"
           d="m 1.578125,-0.484375 c 0,-0.15625 0.0625,-0.5 0.09375,-0.609375 l 0.375,-2 C 2.078125,-3.1875 2.5,-3.1875 2.75,-3.1875 c 0.34375,0 0.890625,0 0.984375,0.078125 0.0625,0.0625 0.109375,0.125 0.140625,0.703125 0,0.046875 0.046875,0.078125 0.125,0.078125 0.0625,0 0.140625,-0.015625 0.15625,-0.03125 l 0.375,-1.90625 C 4.5,-4.296875 4.453125,-4.3125 4.375,-4.3125 c -0.0625,0 -0.140625,0.015625 -0.15625,0.0625 -0.296875,0.671875 -0.265625,0.734375 -1.171875,0.734375 h -0.5 c -0.1875,0 -0.390625,-0.015625 -0.390625,-0.0625 l 0.375,-1.9375 c 0.046875,-0.28125 0.125,-0.5625 0.203125,-0.71875 0.046875,-0.09375 0.5625,-0.125 0.671875,-0.125 h 0.796875 c 0.5,0 0.84375,0.203125 0.890625,1.015625 0,0.046875 0.046875,0.0625 0.109375,0.0625 0.078125,0 0.15625,-0.015625 0.1875,-0.046875 C 5.390625,-5.625 5.375,-5.90625 5.375,-6.21875 c 0,-0.15625 0,-0.3125 0.015625,-0.484375 -1.03125,0 -2.15625,0.078125 -3.03125,0.078125 C 2,-6.625 1.625,-6.65625 1.25,-6.671875 c -0.046875,0.03125 -0.078125,0.140625 -0.078125,0.21875 0,0.03125 0,0.046875 0.015625,0.0625 0.109375,0 0.609375,0.0625 0.609375,0.171875 v 0.078125 c 0,0.15625 -0.03125,0.40625 -0.078125,0.65625 L 0.875,-1.171875 C 0.8125,-0.875 0.765625,-0.59375 0.6875,-0.421875 0.640625,-0.3125 0.109375,-0.265625 0,-0.265625 c -0.046875,0.046875 -0.0625,0.140625 -0.0625,0.21875 0,0.03125 0,0.0625 0.015625,0.078125 C 0.3125,0.03125 0.625,0 1.0625,0 2.3125,0 3.234375,0.046875 4.25,0.046875 4.40625,-0.40625 4.8125,-1.09375 5.09375,-1.640625 5.078125,-1.671875 4.96875,-1.6875 4.875,-1.6875 c -0.0625,0 -0.125,0.015625 -0.15625,0.046875 -0.25,0.546875 -0.515625,0.84375 -0.78125,1.015625 -0.3125,0.21875 -0.734375,0.328125 -1.25,0.328125 H 2.25 c -0.390625,0 -0.671875,0.03125 -0.671875,-0.1875 z m 0,0"
           id="path45969" />
      </symbol>
      <symbol
         overflow="visible"
         id="symbol45975"
         style="fill:#000000;fill-opacity:1;stroke-width:0">
        <path
           style="fill:#000000;fill-opacity:1;stroke:none;stroke-width:0"
           d="m 0.359375,0 h 2.90625 V -3.515625 H 0.359375 Z M 0.71875,-0.359375 v -2.78125 h 2.1875 v 2.78125 z m 0,0"
           id="path45973" />
      </symbol>
      <symbol
         overflow="visible"
         id="symbol45979"
         style="fill:#000000;fill-opacity:1;stroke-width:0">
        <path
           style="fill:#000000;fill-opacity:1;stroke:none;stroke-width:0"
           d="M 0.734375,-3.09375 C 0.4375,-3.09375 0.3125,-3.109375 0.015625,-3.125 v 0.203125 c 0.09375,0 0.328125,0 0.40625,0.140625 0.40625,0.828125 0.71875,1.71875 1.171875,2.828125 0.015625,0.015625 0.046875,0.03125 0.0625,0.03125 0.0625,0 0.171875,-0.0625 0.203125,-0.125 0.421875,-1.03125 0.65625,-1.59375 1.09375,-2.625 0.078125,-0.203125 0.390625,-0.25 0.453125,-0.25 0.015625,0 0.046875,-0.15625 0.015625,-0.203125 C 3.125,-3.109375 3.015625,-3.09375 2.75,-3.09375 c -0.296875,0 -0.359375,-0.015625 -0.59375,-0.03125 v 0.203125 c 0.25,0 0.421875,0.09375 0.421875,0.234375 0,0.0625 0,0.140625 -0.046875,0.234375 -0.265625,0.6875 -0.640625,1.65625 -0.640625,1.65625 L 1.09375,-2.765625 v -0.03125 c 0,-0.109375 0.28125,-0.125 0.34375,-0.125 0.03125,0 0.046875,-0.15625 0.03125,-0.203125 -0.296875,0.015625 -0.453125,0.03125 -0.734375,0.03125 z m 0,0"
           id="path45977" />
      </symbol>
    </g>
    <pattern
       id="EMFhbasepattern-6"
       patternUnits="userSpaceOnUse"
       width="6"
       height="6"
       x="0"
       y="0" />
    <g
       id="g30333"
       style="fill:#000000;fill-opacity:1;stroke-width:0">
      <symbol
         overflow="visible"
         id="symbol30319"
         style="fill:#000000;fill-opacity:1;stroke-width:0">
        <path
           style="fill:#000000;fill-opacity:1;stroke:none;stroke-width:0"
           d=""
           id="path30317" />
      </symbol>
      <symbol
         overflow="visible"
         id="symbol30323"
         style="fill:#000000;fill-opacity:1;stroke-width:0">
        <path
           style="fill:#000000;fill-opacity:1;stroke:none;stroke-width:0"
           d="m 1.578125,-0.484375 c 0,-0.15625 0.0625,-0.5 0.09375,-0.609375 l 0.375,-2 C 2.078125,-3.1875 2.5,-3.1875 2.75,-3.1875 c 0.34375,0 0.890625,0 0.984375,0.078125 0.0625,0.0625 0.109375,0.125 0.140625,0.703125 0,0.046875 0.046875,0.078125 0.125,0.078125 0.0625,0 0.140625,-0.015625 0.15625,-0.03125 l 0.375,-1.90625 C 4.5,-4.296875 4.453125,-4.3125 4.375,-4.3125 c -0.0625,0 -0.140625,0.015625 -0.15625,0.0625 -0.296875,0.671875 -0.265625,0.734375 -1.171875,0.734375 h -0.5 c -0.1875,0 -0.390625,-0.015625 -0.390625,-0.0625 l 0.375,-1.9375 c 0.046875,-0.28125 0.125,-0.5625 0.203125,-0.71875 0.046875,-0.09375 0.5625,-0.125 0.671875,-0.125 h 0.796875 c 0.5,0 0.84375,0.203125 0.890625,1.015625 0,0.046875 0.046875,0.0625 0.109375,0.0625 0.078125,0 0.15625,-0.015625 0.1875,-0.046875 C 5.390625,-5.625 5.375,-5.90625 5.375,-6.21875 c 0,-0.15625 0,-0.3125 0.015625,-0.484375 -1.03125,0 -2.15625,0.078125 -3.03125,0.078125 C 2,-6.625 1.625,-6.65625 1.25,-6.671875 c -0.046875,0.03125 -0.078125,0.140625 -0.078125,0.21875 0,0.03125 0,0.046875 0.015625,0.0625 0.109375,0 0.609375,0.0625 0.609375,0.171875 v 0.078125 c 0,0.15625 -0.03125,0.40625 -0.078125,0.65625 L 0.875,-1.171875 C 0.8125,-0.875 0.765625,-0.59375 0.6875,-0.421875 0.640625,-0.3125 0.109375,-0.265625 0,-0.265625 c -0.046875,0.046875 -0.0625,0.140625 -0.0625,0.21875 0,0.03125 0,0.0625 0.015625,0.078125 C 0.3125,0.03125 0.625,0 1.0625,0 2.3125,0 3.234375,0.046875 4.25,0.046875 4.40625,-0.40625 4.8125,-1.09375 5.09375,-1.640625 5.078125,-1.671875 4.96875,-1.6875 4.875,-1.6875 c -0.0625,0 -0.125,0.015625 -0.15625,0.046875 -0.25,0.546875 -0.515625,0.84375 -0.78125,1.015625 -0.3125,0.21875 -0.734375,0.328125 -1.25,0.328125 H 2.25 c -0.390625,0 -0.671875,0.03125 -0.671875,-0.1875 z m 0,0"
           id="path30321" />
      </symbol>
      <symbol
         overflow="visible"
         id="symbol30327"
         style="fill:#000000;fill-opacity:1;stroke-width:0">
        <path
           style="fill:#000000;fill-opacity:1;stroke:none;stroke-width:0"
           d="m 0.359375,0 h 2.90625 V -3.515625 H 0.359375 Z M 0.71875,-0.359375 v -2.78125 h 2.1875 v 2.78125 z m 0,0"
           id="path30325" />
      </symbol>
      <symbol
         overflow="visible"
         id="symbol30331"
         style="fill:#000000;fill-opacity:1;stroke-width:0">
        <path
           style="fill:#000000;fill-opacity:1;stroke:none;stroke-width:0"
           d="M 0.734375,-3.09375 C 0.4375,-3.09375 0.3125,-3.109375 0.015625,-3.125 v 0.203125 c 0.09375,0 0.328125,0 0.40625,0.140625 0.40625,0.828125 0.71875,1.71875 1.171875,2.828125 0.015625,0.015625 0.046875,0.03125 0.0625,0.03125 0.0625,0 0.171875,-0.0625 0.203125,-0.125 0.421875,-1.03125 0.65625,-1.59375 1.09375,-2.625 0.078125,-0.203125 0.390625,-0.25 0.453125,-0.25 0.015625,0 0.046875,-0.15625 0.015625,-0.203125 C 3.125,-3.109375 3.015625,-3.09375 2.75,-3.09375 c -0.296875,0 -0.359375,-0.015625 -0.59375,-0.03125 v 0.203125 c 0.25,0 0.421875,0.09375 0.421875,0.234375 0,0.0625 0,0.140625 -0.046875,0.234375 -0.265625,0.6875 -0.640625,1.65625 -0.640625,1.65625 L 1.09375,-2.765625 v -0.03125 c 0,-0.109375 0.28125,-0.125 0.34375,-0.125 0.03125,0 0.046875,-0.15625 0.03125,-0.203125 -0.296875,0.015625 -0.453125,0.03125 -0.734375,0.03125 z m 0,0"
           id="path30329" />
      </symbol>
    </g>
    <marker
       style="overflow:visible"
       id="marker62555"
       refX="0"
       refY="0"
       orient="auto"
       inkscape:stockid="Arrow1Send"
       inkscape:isstock="true">
      <path
         transform="matrix(-0.2,0,0,-0.2,-1.2,0)"
         style="fill:#000000;fill-opacity:1;fill-rule:evenodd;stroke:#000000;stroke-width:1pt;stroke-opacity:1"
         d="M 0,0 5,-5 -12.5,0 5,5 Z"
         id="path62553" />
    </marker>
    <marker
       style="overflow:visible"
       id="marker62545"
       refX="0"
       refY="0"
       orient="auto"
       inkscape:stockid="Arrow1Send"
       inkscape:isstock="true">
      <path
         transform="matrix(-0.2,0,0,-0.2,-1.2,0)"
         style="fill:#000000;fill-opacity:1;fill-rule:evenodd;stroke:#000000;stroke-width:1pt;stroke-opacity:1"
         d="M 0,0 5,-5 -12.5,0 5,5 Z"
         id="path62543" />
    </marker>
    <marker
       style="overflow:visible"
       id="marker62535"
       refX="0"
       refY="0"
       orient="auto"
       inkscape:stockid="Arrow1Send"
       inkscape:isstock="true">
      <path
         transform="matrix(-0.2,0,0,-0.2,-1.2,0)"
         style="fill:#000000;fill-opacity:1;fill-rule:evenodd;stroke:#000000;stroke-width:1pt;stroke-opacity:1"
         d="M 0,0 5,-5 -12.5,0 5,5 Z"
         id="path62533" />
    </marker>
    <marker
       style="overflow:visible"
       id="marker62525"
       refX="0"
       refY="0"
       orient="auto"
       inkscape:stockid="Arrow1Send"
       inkscape:isstock="true">
      <path
         transform="matrix(-0.2,0,0,-0.2,-1.2,0)"
         style="fill:#000000;fill-opacity:1;fill-rule:evenodd;stroke:#000000;stroke-width:1pt;stroke-opacity:1"
         d="M 0,0 5,-5 -12.5,0 5,5 Z"
         id="path62523" />
    </marker>
    <marker
       style="overflow:visible"
       id="marker62515"
       refX="0"
       refY="0"
       orient="auto"
       inkscape:stockid="Arrow1Send"
       inkscape:isstock="true">
      <path
         transform="matrix(-0.2,0,0,-0.2,-1.2,0)"
         style="fill:#000000;fill-opacity:1;fill-rule:evenodd;stroke:#000000;stroke-width:1pt;stroke-opacity:1"
         d="M 0,0 5,-5 -12.5,0 5,5 Z"
         id="path62513" />
    </marker>
    <marker
       style="overflow:visible"
       id="marker62505"
       refX="0"
       refY="0"
       orient="auto"
       inkscape:stockid="Arrow1Send"
       inkscape:isstock="true">
      <path
         transform="matrix(-0.2,0,0,-0.2,-1.2,0)"
         style="fill:#000000;fill-opacity:1;fill-rule:evenodd;stroke:#000000;stroke-width:1pt;stroke-opacity:1"
         d="M 0,0 5,-5 -12.5,0 5,5 Z"
         id="path62503" />
    </marker>
    <g
       id="g61995"
       style="fill:#000000;fill-opacity:1;stroke-width:0">
      <symbol
         overflow="visible"
         id="symbol61981"
         style="fill:#000000;fill-opacity:1;stroke-width:0">
        <path
           style="fill:#000000;fill-opacity:1;stroke:none;stroke-width:0"
           d=""
           id="path61979" />
      </symbol>
      <symbol
         overflow="visible"
         id="symbol61985"
         style="fill:#000000;fill-opacity:1;stroke-width:0">
        <path
           style="fill:#000000;fill-opacity:1;stroke:none;stroke-width:0"
           d="m 1.578125,-0.484375 c 0,-0.15625 0.0625,-0.5 0.09375,-0.609375 l 0.375,-2 C 2.078125,-3.1875 2.5,-3.1875 2.75,-3.1875 c 0.34375,0 0.890625,0 0.984375,0.078125 0.0625,0.0625 0.109375,0.125 0.140625,0.703125 0,0.046875 0.046875,0.078125 0.125,0.078125 0.0625,0 0.140625,-0.015625 0.15625,-0.03125 l 0.375,-1.90625 C 4.5,-4.296875 4.453125,-4.3125 4.375,-4.3125 c -0.0625,0 -0.140625,0.015625 -0.15625,0.0625 -0.296875,0.671875 -0.265625,0.734375 -1.171875,0.734375 h -0.5 c -0.1875,0 -0.390625,-0.015625 -0.390625,-0.0625 l 0.375,-1.9375 c 0.046875,-0.28125 0.125,-0.5625 0.203125,-0.71875 0.046875,-0.09375 0.5625,-0.125 0.671875,-0.125 h 0.796875 c 0.5,0 0.84375,0.203125 0.890625,1.015625 0,0.046875 0.046875,0.0625 0.109375,0.0625 0.078125,0 0.15625,-0.015625 0.1875,-0.046875 C 5.390625,-5.625 5.375,-5.90625 5.375,-6.21875 c 0,-0.15625 0,-0.3125 0.015625,-0.484375 -1.03125,0 -2.15625,0.078125 -3.03125,0.078125 C 2,-6.625 1.625,-6.65625 1.25,-6.671875 c -0.046875,0.03125 -0.078125,0.140625 -0.078125,0.21875 0,0.03125 0,0.046875 0.015625,0.0625 0.109375,0 0.609375,0.0625 0.609375,0.171875 v 0.078125 c 0,0.15625 -0.03125,0.40625 -0.078125,0.65625 L 0.875,-1.171875 C 0.8125,-0.875 0.765625,-0.59375 0.6875,-0.421875 0.640625,-0.3125 0.109375,-0.265625 0,-0.265625 c -0.046875,0.046875 -0.0625,0.140625 -0.0625,0.21875 0,0.03125 0,0.0625 0.015625,0.078125 C 0.3125,0.03125 0.625,0 1.0625,0 2.3125,0 3.234375,0.046875 4.25,0.046875 4.40625,-0.40625 4.8125,-1.09375 5.09375,-1.640625 5.078125,-1.671875 4.96875,-1.6875 4.875,-1.6875 c -0.0625,0 -0.125,0.015625 -0.15625,0.046875 -0.25,0.546875 -0.515625,0.84375 -0.78125,1.015625 -0.3125,0.21875 -0.734375,0.328125 -1.25,0.328125 H 2.25 c -0.390625,0 -0.671875,0.03125 -0.671875,-0.1875 z m 0,0"
           id="path61983" />
      </symbol>
      <symbol
         overflow="visible"
         id="symbol61989"
         style="fill:#000000;fill-opacity:1;stroke-width:0">
        <path
           style="fill:#000000;fill-opacity:1;stroke:none;stroke-width:0"
           d="m 0.359375,0 h 2.90625 V -3.515625 H 0.359375 Z M 0.71875,-0.359375 v -2.78125 h 2.1875 v 2.78125 z m 0,0"
           id="path61987" />
      </symbol>
      <symbol
         overflow="visible"
         id="symbol61993"
         style="fill:#000000;fill-opacity:1;stroke-width:0">
        <path
           style="fill:#000000;fill-opacity:1;stroke:none;stroke-width:0"
           d="M 0.734375,-3.09375 C 0.4375,-3.09375 0.3125,-3.109375 0.015625,-3.125 v 0.203125 c 0.09375,0 0.328125,0 0.40625,0.140625 0.40625,0.828125 0.71875,1.71875 1.171875,2.828125 0.015625,0.015625 0.046875,0.03125 0.0625,0.03125 0.0625,0 0.171875,-0.0625 0.203125,-0.125 0.421875,-1.03125 0.65625,-1.59375 1.09375,-2.625 0.078125,-0.203125 0.390625,-0.25 0.453125,-0.25 0.015625,0 0.046875,-0.15625 0.015625,-0.203125 C 3.125,-3.109375 3.015625,-3.09375 2.75,-3.09375 c -0.296875,0 -0.359375,-0.015625 -0.59375,-0.03125 v 0.203125 c 0.25,0 0.421875,0.09375 0.421875,0.234375 0,0.0625 0,0.140625 -0.046875,0.234375 -0.265625,0.6875 -0.640625,1.65625 -0.640625,1.65625 L 1.09375,-2.765625 v -0.03125 c 0,-0.109375 0.28125,-0.125 0.34375,-0.125 0.03125,0 0.046875,-0.15625 0.03125,-0.203125 -0.296875,0.015625 -0.453125,0.03125 -0.734375,0.03125 z m 0,0"
           id="path61991" />
      </symbol>
    </g>
    <g
       id="id-ed81690c-9ef8-4641-8025-1f85d60d1262"
       style="fill:#6a4239;fill-opacity:1;stroke-width:0">
      <symbol
         overflow="visible"
         id="id-d3a3c6ce-ea2a-4d37-8e1f-b8b4b6973de7"
         style="fill:#6a4239;fill-opacity:1;stroke-width:0">
        <path
           style="fill:#6a4239;fill-opacity:1;stroke:none;stroke-width:0"
           d=""
           id="id-d01b0c3e-8d5d-4492-a929-8ee96c7f1a2a" />
      </symbol>
      <symbol
         overflow="visible"
         id="id-af8f9585-4ac2-46ad-ad1d-18a89d38c6af"
         style="fill:#6a4239;fill-opacity:1;stroke-width:0">
        <path
           style="fill:#6a4239;fill-opacity:1;stroke:none;stroke-width:0"
           d="m 1.578125,-0.484375 c 0,-0.15625 0.0625,-0.5 0.09375,-0.609375 l 0.375,-2 C 2.078125,-3.1875 2.5,-3.1875 2.75,-3.1875 c 0.34375,0 0.890625,0 0.984375,0.078125 0.0625,0.0625 0.109375,0.125 0.140625,0.703125 0,0.046875 0.046875,0.078125 0.125,0.078125 0.0625,0 0.140625,-0.015625 0.15625,-0.03125 l 0.375,-1.90625 C 4.5,-4.296875 4.453125,-4.3125 4.375,-4.3125 c -0.0625,0 -0.140625,0.015625 -0.15625,0.0625 -0.296875,0.671875 -0.265625,0.734375 -1.171875,0.734375 h -0.5 c -0.1875,0 -0.390625,-0.015625 -0.390625,-0.0625 l 0.375,-1.9375 c 0.046875,-0.28125 0.125,-0.5625 0.203125,-0.71875 0.046875,-0.09375 0.5625,-0.125 0.671875,-0.125 h 0.796875 c 0.5,0 0.84375,0.203125 0.890625,1.015625 0,0.046875 0.046875,0.0625 0.109375,0.0625 0.078125,0 0.15625,-0.015625 0.1875,-0.046875 C 5.390625,-5.625 5.375,-5.90625 5.375,-6.21875 c 0,-0.15625 0,-0.3125 0.015625,-0.484375 -1.03125,0 -2.15625,0.078125 -3.03125,0.078125 C 2,-6.625 1.625,-6.65625 1.25,-6.671875 c -0.046875,0.03125 -0.078125,0.140625 -0.078125,0.21875 0,0.03125 0,0.046875 0.015625,0.0625 0.109375,0 0.609375,0.0625 0.609375,0.171875 v 0.078125 c 0,0.15625 -0.03125,0.40625 -0.078125,0.65625 L 0.875,-1.171875 C 0.8125,-0.875 0.765625,-0.59375 0.6875,-0.421875 0.640625,-0.3125 0.109375,-0.265625 0,-0.265625 c -0.046875,0.046875 -0.0625,0.140625 -0.0625,0.21875 0,0.03125 0,0.0625 0.015625,0.078125 C 0.3125,0.03125 0.625,0 1.0625,0 2.3125,0 3.234375,0.046875 4.25,0.046875 4.40625,-0.40625 4.8125,-1.09375 5.09375,-1.640625 5.078125,-1.671875 4.96875,-1.6875 4.875,-1.6875 c -0.0625,0 -0.125,0.015625 -0.15625,0.046875 -0.25,0.546875 -0.515625,0.84375 -0.78125,1.015625 -0.3125,0.21875 -0.734375,0.328125 -1.25,0.328125 H 2.25 c -0.390625,0 -0.671875,0.03125 -0.671875,-0.1875 z m 0,0"
           id="id-cf12905f-b10e-4632-8150-087cb02fd1f8" />
      </symbol>
      <symbol
         overflow="visible"
         id="id-ee0bb5f7-d1c3-4dfd-b89f-a7ca7318c376"
         style="fill:#6a4239;fill-opacity:1;stroke-width:0">
        <path
           style="fill:#6a4239;fill-opacity:1;stroke:none;stroke-width:0"
           d="m 0.359375,0 h 2.90625 V -3.515625 H 0.359375 Z M 0.71875,-0.359375 v -2.78125 h 2.1875 v 2.78125 z m 0,0"
           id="id-9d15f203-ae32-46b0-bbdd-a806cf10dc8c" />
      </symbol>
      <symbol
         overflow="visible"
         id="id-613e44ce-9ad1-41ef-83c3-4c7e8c3c6ecc"
         style="fill:#6a4239;fill-opacity:1;stroke-width:0">
        <path
           style="fill:#6a4239;fill-opacity:1;stroke:none;stroke-width:0"
           d="m 1.34375,-0.328125 c -0.265625,0 -0.484375,-0.234375 -0.484375,-0.5 0,-0.28125 0.171875,-0.46875 0.4375,-0.578125 C 1.4375,-1.453125 1.78125,-1.5625 1.96875,-1.625 v 1 c 0,0.078125 -0.375,0.296875 -0.625,0.296875 z m 0.390625,-2.84375 c -0.53125,0 -1.09375,0.390625 -1.3125,0.59375 -0.015625,0.03125 -0.046875,0.15625 -0.046875,0.1875 0,0.140625 0.09375,0.296875 0.25,0.296875 0.171875,0 0.28125,-0.09375 0.328125,-0.34375 C 1,-2.71875 1.09375,-2.90625 1.34375,-2.90625 c 0.359375,0 0.625,0.375 0.625,0.703125 V -2 c 0,0.125 0,0.15625 -0.078125,0.1875 C 1.6875,-1.71875 1.03125,-1.515625 0.625,-1.359375 0.46875,-1.3125 0.265625,-1.078125 0.265625,-0.78125 c 0,0.46875 0.375,0.84375 0.84375,0.84375 0.25,0 0.796875,-0.390625 0.890625,-0.484375 0.046875,0.21875 0.234375,0.46875 0.4375,0.46875 0.15625,0 0.453125,-0.1875 0.53125,-0.265625 C 3,-0.265625 3.015625,-0.3125 3.015625,-0.359375 c 0,-0.03125 -0.015625,-0.0625 -0.03125,-0.0625 -0.03125,0.015625 -0.109375,0.09375 -0.25,0.09375 -0.15625,0 -0.21875,-0.15625 -0.21875,-0.34375 v -1.5 c 0,-0.546875 -0.375,-1 -0.78125,-1 z m 0,0"
           id="id-3778ffb5-9cce-443a-937a-7417c7fe934d" />
      </symbol>
    </g>
    <g
       id="g11982"
       style="fill:#6a4239;fill-opacity:1;stroke-width:0">
      <symbol
         overflow="visible"
         id="symbol11968"
         style="fill:#6a4239;fill-opacity:1;stroke-width:0">
        <path
           style="fill:#6a4239;fill-opacity:1;stroke:none;stroke-width:0"
           d=""
           id="path11966" />
      </symbol>
      <symbol
         overflow="visible"
         id="symbol11972"
         style="fill:#6a4239;fill-opacity:1;stroke-width:0">
        <path
           style="fill:#6a4239;fill-opacity:1;stroke:none;stroke-width:0"
           d="m 1.578125,-0.484375 c 0,-0.15625 0.0625,-0.5 0.09375,-0.609375 l 0.375,-2 C 2.078125,-3.1875 2.5,-3.1875 2.75,-3.1875 c 0.34375,0 0.890625,0 0.984375,0.078125 0.0625,0.0625 0.109375,0.125 0.140625,0.703125 0,0.046875 0.046875,0.078125 0.125,0.078125 0.0625,0 0.140625,-0.015625 0.15625,-0.03125 l 0.375,-1.90625 C 4.5,-4.296875 4.453125,-4.3125 4.375,-4.3125 c -0.0625,0 -0.140625,0.015625 -0.15625,0.0625 -0.296875,0.671875 -0.265625,0.734375 -1.171875,0.734375 h -0.5 c -0.1875,0 -0.390625,-0.015625 -0.390625,-0.0625 l 0.375,-1.9375 c 0.046875,-0.28125 0.125,-0.5625 0.203125,-0.71875 0.046875,-0.09375 0.5625,-0.125 0.671875,-0.125 h 0.796875 c 0.5,0 0.84375,0.203125 0.890625,1.015625 0,0.046875 0.046875,0.0625 0.109375,0.0625 0.078125,0 0.15625,-0.015625 0.1875,-0.046875 C 5.390625,-5.625 5.375,-5.90625 5.375,-6.21875 c 0,-0.15625 0,-0.3125 0.015625,-0.484375 -1.03125,0 -2.15625,0.078125 -3.03125,0.078125 C 2,-6.625 1.625,-6.65625 1.25,-6.671875 c -0.046875,0.03125 -0.078125,0.140625 -0.078125,0.21875 0,0.03125 0,0.046875 0.015625,0.0625 0.109375,0 0.609375,0.0625 0.609375,0.171875 v 0.078125 c 0,0.15625 -0.03125,0.40625 -0.078125,0.65625 L 0.875,-1.171875 C 0.8125,-0.875 0.765625,-0.59375 0.6875,-0.421875 0.640625,-0.3125 0.109375,-0.265625 0,-0.265625 c -0.046875,0.046875 -0.0625,0.140625 -0.0625,0.21875 0,0.03125 0,0.0625 0.015625,0.078125 C 0.3125,0.03125 0.625,0 1.0625,0 2.3125,0 3.234375,0.046875 4.25,0.046875 4.40625,-0.40625 4.8125,-1.09375 5.09375,-1.640625 5.078125,-1.671875 4.96875,-1.6875 4.875,-1.6875 c -0.0625,0 -0.125,0.015625 -0.15625,0.046875 -0.25,0.546875 -0.515625,0.84375 -0.78125,1.015625 -0.3125,0.21875 -0.734375,0.328125 -1.25,0.328125 H 2.25 c -0.390625,0 -0.671875,0.03125 -0.671875,-0.1875 z m 0,0"
           id="path11970" />
      </symbol>
      <symbol
         overflow="visible"
         id="symbol11976"
         style="fill:#6a4239;fill-opacity:1;stroke-width:0">
        <path
           style="fill:#6a4239;fill-opacity:1;stroke:none;stroke-width:0"
           d="m 0.359375,0 h 2.90625 V -3.515625 H 0.359375 Z M 0.71875,-0.359375 v -2.78125 h 2.1875 v 2.78125 z m 0,0"
           id="path11974" />
      </symbol>
      <symbol
         overflow="visible"
         id="symbol11980"
         style="fill:#6a4239;fill-opacity:1;stroke-width:0">
        <path
           style="fill:#6a4239;fill-opacity:1;stroke:none;stroke-width:0"
           d="m 1.34375,-0.328125 c -0.265625,0 -0.484375,-0.234375 -0.484375,-0.5 0,-0.28125 0.171875,-0.46875 0.4375,-0.578125 C 1.4375,-1.453125 1.78125,-1.5625 1.96875,-1.625 v 1 c 0,0.078125 -0.375,0.296875 -0.625,0.296875 z m 0.390625,-2.84375 c -0.53125,0 -1.09375,0.390625 -1.3125,0.59375 -0.015625,0.03125 -0.046875,0.15625 -0.046875,0.1875 0,0.140625 0.09375,0.296875 0.25,0.296875 0.171875,0 0.28125,-0.09375 0.328125,-0.34375 C 1,-2.71875 1.09375,-2.90625 1.34375,-2.90625 c 0.359375,0 0.625,0.375 0.625,0.703125 V -2 c 0,0.125 0,0.15625 -0.078125,0.1875 C 1.6875,-1.71875 1.03125,-1.515625 0.625,-1.359375 0.46875,-1.3125 0.265625,-1.078125 0.265625,-0.78125 c 0,0.46875 0.375,0.84375 0.84375,0.84375 0.25,0 0.796875,-0.390625 0.890625,-0.484375 0.046875,0.21875 0.234375,0.46875 0.4375,0.46875 0.15625,0 0.453125,-0.1875 0.53125,-0.265625 C 3,-0.265625 3.015625,-0.3125 3.015625,-0.359375 c 0,-0.03125 -0.015625,-0.0625 -0.03125,-0.0625 -0.03125,0.015625 -0.109375,0.09375 -0.25,0.09375 -0.15625,0 -0.21875,-0.15625 -0.21875,-0.34375 v -1.5 c 0,-0.546875 -0.375,-1 -0.78125,-1 z m 0,0"
           id="path11978" />
      </symbol>
    </g>
    <pattern
       id="EMFhbasepattern-9"
       patternUnits="userSpaceOnUse"
       width="6"
       height="6"
       x="0"
       y="0" />
    <g
       id="g52330">
      <symbol
         id="symbol52324"
         overflow="visible">
        <path
           id="path52322"
           d="M 0.5,0 H 4.484375 V -4.8125 H 0.5 Z M 1,-0.5 V -4.3125 H 3.984375 V -0.5 Z m 0,0"
           style="stroke:none" />
      </symbol>
      <symbol
         id="symbol52328"
         overflow="visible">
        <path
           id="path52326"
           d="m 2.171875,-1.125 c 0,0.28125 -0.015625,0.5625 -0.0625,0.71875 C 2.078125,-0.296875 1.609375,-0.25 1.5,-0.25 c -0.046875,0.046875 -0.046875,0.234375 0,0.28125 0.390625,-0.015625 0.65625,-0.046875 1.03125,-0.046875 0.375,0 0.6875,0.03125 1.09375,0.046875 0.046875,-0.046875 0.03125,-0.234375 0,-0.28125 C 3.5,-0.25 3.015625,-0.296875 2.984375,-0.40625 2.9375,-0.5625 2.9375,-0.84375 2.9375,-1.125 v -4.03125 c 0,-0.59375 0.078125,-0.9375 0.078125,-0.9375 0,-0.046875 -0.03125,-0.15625 -0.09375,-0.15625 H 2.90625 C 2.875,-6.25 2,-5.828125 1.203125,-5.46875 c -0.03125,0.015625 0,0.046875 0,0.0625 0,0.078125 0.03125,0.125 0.078125,0.171875 0.171875,-0.0625 0.546875,-0.203125 0.6875,-0.203125 0.140625,0 0.203125,0.09375 0.203125,0.375 z m 0,0"
           style="stroke:none" />
      </symbol>
    </g>
    <g
       id="g52346">
      <symbol
         id="symbol52340"
         overflow="visible">
        <path
           id="path52338"
           d="M 0.5,0 H 4.484375 V -4.8125 H 0.5 Z M 1,-0.5 V -4.3125 H 3.984375 V -0.5 Z m 0,0"
           style="stroke:none" />
      </symbol>
      <symbol
         id="symbol52344"
         overflow="visible">
        <path
           id="path52342"
           d="M 4.421875,-1.453125 C 4.375,-1.484375 4.25,-1.515625 4.21875,-1.515625 c -0.0625,0 -0.09375,0.015625 -0.109375,0.0625 -0.21875,0.5 -0.4375,0.75 -0.8125,0.75 h -1.9375 c 0.4375,-0.5 1.4375,-1.59375 2.125,-2.453125 C 3.8125,-3.5625 4.03125,-4.0625 4.03125,-4.625 c 0,-0.828125 -0.734375,-1.625 -1.671875,-1.625 -1.03125,0 -1.734375,1.078125 -1.796875,1.3125 0,0.046875 0.109375,0.15625 0.1875,0.15625 0.125,-0.1875 0.609375,-0.828125 1.390625,-0.828125 0.609375,0 1.0625,0.5 1.0625,1.171875 0,0.484375 -0.0625,0.875 -0.46875,1.453125 -0.5625,0.828125 -1.5,1.9375 -2.3125,2.84375 0,0.046875 0.0625,0.125 0.09375,0.140625 h 3.375 c 0.0625,-0.171875 0.328125,-0.984375 0.53125,-1.453125 z m 0,0"
           style="stroke:none" />
      </symbol>
    </g>
    <g
       style="fill:#9e7867;fill-opacity:1;stroke-width:0"
       id="g52362">
      <symbol
         style="fill:#9e7867;fill-opacity:1;stroke-width:0"
         overflow="visible"
         id="symbol52356">
        <path
           style="fill:#9e7867;fill-opacity:1;stroke:none;stroke-width:0"
           d="M 0.5,0 H 4.484375 V -4.8125 H 0.5 Z M 1,-0.5 V -4.3125 H 3.984375 V -0.5 Z m 0,0"
           id="path52354" />
      </symbol>
      <symbol
         style="fill:#9e7867;fill-opacity:1;stroke-width:0"
         overflow="visible"
         id="symbol52360">
        <path
           style="fill:#9e7867;fill-opacity:1;stroke:none;stroke-width:0"
           d="m 2.515625,-6.25 c -0.765625,0 -1.3125,0.5 -1.625,0.953125 0,0.078125 0.0625,0.203125 0.125,0.203125 0.09375,-0.0625 0.46875,-0.640625 1.09375,-0.640625 0.546875,0 0.953125,0.390625 0.953125,0.90625 0,0.84375 -0.734375,1.265625 -1.515625,1.4375 -0.015625,0.03125 -0.015625,0.0625 -0.015625,0.09375 0,0.09375 0.015625,0.140625 0.046875,0.203125 0.125,-0.03125 0.375,-0.125 0.578125,-0.125 0.640625,0 1.25,0.578125 1.25,1.359375 0,1.125 -0.625,1.515625 -1.140625,1.515625 -0.265625,0 -0.53125,-0.0625 -0.71875,-0.25 C 1.390625,-0.75 1.265625,-1.015625 1,-1.015625 c -0.21875,0 -0.40625,0.1875 -0.40625,0.46875 0,0.15625 0.140625,0.328125 0.1875,0.375 0.3125,0.15625 0.734375,0.21875 1,0.21875 C 2.984375,0.046875 4.25,-0.78125 4.25,-2.125 4.25,-3.078125 3.453125,-3.609375 2.890625,-3.6875 3.234375,-3.890625 3.78125,-4.375 3.78125,-5 c 0,-0.796875 -0.765625,-1.25 -1.265625,-1.25 z m 0,0"
           id="path52358" />
      </symbol>
    </g>
    <g
       id="g52417">
      <symbol
         id="symbol52411"
         overflow="visible">
        <path
           id="path52409"
           d=""
           style="stroke:none" />
      </symbol>
      <symbol
         id="symbol52415"
         overflow="visible">
        <path
           id="path52413"
           d="m 5.546875,-6.609375 h -3.65625 c -0.15625,0 -0.40625,-0.078125 -0.5,-0.140625 -0.0625,-0.03125 -0.15625,-0.0625 -0.21875,-0.03125 C 1,-6.15625 0.8125,-5.578125 0.59375,-5.046875 0.625,-5.015625 0.671875,-4.96875 0.765625,-4.96875 0.8125,-4.96875 0.890625,-5 0.90625,-5.03125 1.171875,-5.734375 1.578125,-6.25 2.046875,-6.25 h 1.21875 l -1,5.078125 c -0.0625,0.296875 -0.125,0.578125 -0.203125,0.75 -0.046875,0.109375 -0.5625,0.15625 -0.671875,0.15625 -0.046875,0.0625 -0.09375,0.25 -0.0625,0.296875 0.390625,-0.015625 0.765625,-0.046875 1.125,-0.046875 0.359375,0 0.703125,0.03125 1.078125,0.046875 0.0625,-0.046875 0.09375,-0.234375 0.0625,-0.296875 -0.109375,0 -0.609375,-0.046875 -0.609375,-0.15625 V -0.5 c 0,-0.15625 0.046875,-0.40625 0.09375,-0.671875 l 1,-5.078125 h 1.1875 c 0.453125,0 0.640625,0.5 0.640625,1.171875 v 0.046875 c 0.015625,0.03125 0.078125,0.0625 0.125,0.0625 0.078125,0 0.171875,-0.046875 0.203125,-0.078125 0,-0.53125 0.046875,-1.109375 0.09375,-1.734375 -0.046875,-0.03125 -0.09375,-0.03125 -0.1875,0.015625 -0.125,0.0625 -0.4375,0.15625 -0.59375,0.15625 z m 0,0"
           style="stroke:none" />
      </symbol>
    </g>
    <g
       style="fill:#3a493f;stroke-width:0"
       id="g59163">
      <symbol
         style="fill:#3a493f;stroke-width:0"
         overflow="visible"
         id="symbol59157">
        <path
           style="fill:#3a493f;stroke:none;stroke-width:0"
           d="M 0.5,0 H 4.484375 V -4.8125 H 0.5 Z M 1,-0.5 V -4.3125 H 3.984375 V -0.5 Z m 0,0"
           id="path59155" />
      </symbol>
      <symbol
         style="fill:#3a493f;stroke-width:0"
         overflow="visible"
         id="symbol59161">
        <path
           style="fill:#3a493f;stroke:none;stroke-width:0"
           d="m 2.484375,-5.875 c 0.71875,0 1.203125,1.1875 1.203125,2.71875 0,1.515625 -0.4375,2.828125 -1.3125,2.828125 -0.703125,0 -1.21875,-1.25 -1.21875,-2.78125 0,-1.53125 0.515625,-2.765625 1.328125,-2.765625 z m -0.0625,-0.359375 c -1.34375,0 -2.125,1.421875 -2.125,3.125 0,1.6875 0.796875,3.140625 2.125,3.140625 1.34375,0 2.125,-1.453125 2.125,-3.140625 0,-1.703125 -0.765625,-3.125 -2.125,-3.125 z m 0,0"
           id="path59159" />
      </symbol>
    </g>
    <g
       style="fill:#3a493f;stroke-width:0"
       id="g14338">
      <symbol
         style="fill:#3a493f;stroke-width:0"
         overflow="visible"
         id="symbol14332">
        <path
           style="fill:#3a493f;stroke:none;stroke-width:0"
           d="M 0.5,0 H 4.484375 V -4.8125 H 0.5 Z M 1,-0.5 V -4.3125 H 3.984375 V -0.5 Z m 0,0"
           id="path14330" />
      </symbol>
      <symbol
         style="fill:#3a493f;stroke-width:0"
         overflow="visible"
         id="symbol14336">
        <path
           style="fill:#3a493f;stroke:none;stroke-width:0"
           d="m 2.484375,-5.875 c 0.71875,0 1.203125,1.1875 1.203125,2.71875 0,1.515625 -0.4375,2.828125 -1.3125,2.828125 -0.703125,0 -1.21875,-1.25 -1.21875,-2.78125 0,-1.53125 0.515625,-2.765625 1.328125,-2.765625 z m -0.0625,-0.359375 c -1.34375,0 -2.125,1.421875 -2.125,3.125 0,1.6875 0.796875,3.140625 2.125,3.140625 1.34375,0 2.125,-1.453125 2.125,-3.140625 0,-1.703125 -0.765625,-3.125 -2.125,-3.125 z m 0,0"
           id="path14334" />
      </symbol>
    </g>
  </defs>
  <sodipodi:namedview
     id="base"
     pagecolor="#ffffff"
     bordercolor="#666666"
     borderopacity="1.0"
     inkscape:pageopacity="0.0"
     inkscape:pageshadow="2"
     inkscape:zoom="1.979899"
     inkscape:cx="125.57592"
     inkscape:cy="93.499235"
     inkscape:document-units="mm"
     inkscape:current-layer="layer1"
     inkscape:document-rotation="0"
     showgrid="false"
     inkscape:window-width="1600"
     inkscape:window-height="837"
     inkscape:window-x="-8"
     inkscape:window-y="-8"
     inkscape:window-maximized="1" />
  <metadata
     id="metadata5">
    <rdf:RDF>
      <cc:Work
         rdf:about="">
        <dc:format>image/svg+xml</dc:format>
        <dc:type
           rdf:resource="http://purl.org/dc/dcmitype/StillImage" />
        <dc:title />
      </cc:Work>
    </rdf:RDF>
  </metadata>
  <g
     inkscape:label="Layer 1"
     inkscape:groupmode="layer"
     id="layer1"
     transform="translate(-166.24684,-11.336434)">
    <path
       style="fill:none;stroke:#000000;stroke-width:0.264583px;stroke-linecap:round;stroke-linejoin:round;stroke-opacity:1;marker-end:url(#Arrow1Mend)"
       d="M 174.53088,59.765904 V 11.857843"
       id="path12467" />
    <path
       style="fill:none;stroke:#000000;stroke-width:0.264583px;stroke-linecap:round;stroke-linejoin:round;stroke-opacity:1;marker-end:url(#marker12809)"
       d="m 174.53088,59.765904 h 45.63627"
       id="path12805"
       sodipodi:nodetypes="cc" />
    <g
       transform="matrix(0.42333399,0,0,0.42333399,204.97887,51.927849)"
       ns2:version="1.1.0"
       ns2:texconverter="pdflatex"
       ns2:pdfconverter="inkscape"
       ns2:text="$1$"
       ns2:preamble="C:\\Users\\flvisa\\Desktop\\lna\\latexify_books\\textext_preamble.tex"
       ns2:scale="1.199999773228722"
       ns2:alignment="middle center"
       ns2:inkscapeversion="1.0"
       ns2:jacobian_sqrt="0.423334"
       id="g6582">
      <defs
         id="id-99136f65-f779-4cb7-b19c-c10459896000">
        <g
           id="g13105">
          <symbol
             id="symbol13099"
             overflow="visible">
            <path
               id="path13097"
               d="M 0.5,0 H 4.484375 V -4.8125 H 0.5 Z M 1,-0.5 V -4.3125 H 3.984375 V -0.5 Z m 0,0"
               style="stroke:none" />
          </symbol>
          <symbol
             id="symbol13103"
             overflow="visible">
            <path
               id="path13101"
               d="m 2.171875,-1.125 c 0,0.28125 -0.015625,0.5625 -0.0625,0.71875 C 2.078125,-0.296875 1.609375,-0.25 1.5,-0.25 c -0.046875,0.046875 -0.046875,0.234375 0,0.28125 0.390625,-0.015625 0.65625,-0.046875 1.03125,-0.046875 0.375,0 0.6875,0.03125 1.09375,0.046875 0.046875,-0.046875 0.03125,-0.234375 0,-0.28125 C 3.5,-0.25 3.015625,-0.296875 2.984375,-0.40625 2.9375,-0.5625 2.9375,-0.84375 2.9375,-1.125 v -4.03125 c 0,-0.59375 0.078125,-0.9375 0.078125,-0.9375 0,-0.046875 -0.03125,-0.15625 -0.09375,-0.15625 H 2.90625 C 2.875,-6.25 2,-5.828125 1.203125,-5.46875 c -0.03125,0.015625 0,0.046875 0,0.0625 0,0.078125 0.03125,0.125 0.078125,0.171875 0.171875,-0.0625 0.546875,-0.203125 0.6875,-0.203125 0.140625,0 0.203125,0.09375 0.203125,0.375 z m 0,0"
               style="stroke:none" />
          </symbol>
        </g>
      </defs>
      <g
         transform="translate(-149.901,-128.515)"
         id="id-bd3de61b-ee2e-47ef-96ff-2b0b05c6120a">
        <g
           id="id-094dc464-c691-462e-9002-f9b026782012"
           style="fill:#000000;fill-opacity:1">
          <g
             transform="translate(148.712,134.765)"
             id="g6578">
            <path
               id="id-74bf3bd2-a8b6-49d6-a543-6822b0530089"
               d="m 2.171875,-1.125 c 0,0.28125 -0.015625,0.5625 -0.0625,0.71875 C 2.078125,-0.296875 1.609375,-0.25 1.5,-0.25 c -0.046875,0.046875 -0.046875,0.234375 0,0.28125 0.390625,-0.015625 0.65625,-0.046875 1.03125,-0.046875 0.375,0 0.6875,0.03125 1.09375,0.046875 0.046875,-0.046875 0.03125,-0.234375 0,-0.28125 C 3.5,-0.25 3.015625,-0.296875 2.984375,-0.40625 2.9375,-0.5625 2.9375,-0.84375 2.9375,-1.125 v -4.03125 c 0,-0.59375 0.078125,-0.9375 0.078125,-0.9375 0,-0.046875 -0.03125,-0.15625 -0.09375,-0.15625 H 2.90625 C 2.875,-6.25 2,-5.828125 1.203125,-5.46875 c -0.03125,0.015625 0,0.046875 0,0.0625 0,0.078125 0.03125,0.125 0.078125,0.171875 0.171875,-0.0625 0.546875,-0.203125 0.6875,-0.203125 0.140625,0 0.203125,0.09375 0.203125,0.375 z m 0,0"
               style="stroke:none" />
          </g>
        </g>
      </g>
    </g>
    <g
       transform="matrix(0.42333399,0,0,0.42333399,190.11497,51.927834)"
       ns2:version="1.1.0"
       ns2:texconverter="pdflatex"
       ns2:pdfconverter="inkscape"
       ns2:text="$2$"
       ns2:preamble="C:\\Users\\flvisa\\Desktop\\lna\\latexify_books\\textext_preamble.tex"
       ns2:scale="1.1999997448823154"
       ns2:alignment="middle center"
       ns2:inkscapeversion="1.0"
       ns2:jacobian_sqrt="0.423334"
       id="g6925">
      <defs
         id="id-10d01f89-49fc-436f-a187-d029386b3763">
        <g
           id="g13121">
          <symbol
             id="symbol13115"
             overflow="visible">
            <path
               id="path13113"
               d="M 0.5,0 H 4.484375 V -4.8125 H 0.5 Z M 1,-0.5 V -4.3125 H 3.984375 V -0.5 Z m 0,0"
               style="stroke:none" />
          </symbol>
          <symbol
             id="symbol13119"
             overflow="visible">
            <path
               id="path13117"
               d="M 4.421875,-1.453125 C 4.375,-1.484375 4.25,-1.515625 4.21875,-1.515625 c -0.0625,0 -0.09375,0.015625 -0.109375,0.0625 -0.21875,0.5 -0.4375,0.75 -0.8125,0.75 h -1.9375 c 0.4375,-0.5 1.4375,-1.59375 2.125,-2.453125 C 3.8125,-3.5625 4.03125,-4.0625 4.03125,-4.625 c 0,-0.828125 -0.734375,-1.625 -1.671875,-1.625 -1.03125,0 -1.734375,1.078125 -1.796875,1.3125 0,0.046875 0.109375,0.15625 0.1875,0.15625 0.125,-0.1875 0.609375,-0.828125 1.390625,-0.828125 0.609375,0 1.0625,0.5 1.0625,1.171875 0,0.484375 -0.0625,0.875 -0.46875,1.453125 -0.5625,0.828125 -1.5,1.9375 -2.3125,2.84375 0,0.046875 0.0625,0.125 0.09375,0.140625 h 3.375 c 0.0625,-0.171875 0.328125,-0.984375 0.53125,-1.453125 z m 0,0"
               style="stroke:none" />
          </symbol>
        </g>
      </defs>
      <g
         transform="translate(-149.134,-128.515)"
         id="id-2b50523c-e81a-4f87-ba36-3d7fa8f68420">
        <g
           id="id-9b635aa6-b372-4423-8fa0-6e45d443fb17"
           style="fill:#000000;fill-opacity:1">
          <g
             transform="translate(148.712,134.765)"
             id="g6921">
            <path
               id="id-392eb9f9-4e03-4d03-ba62-75c1d1e34a13"
               d="M 4.421875,-1.453125 C 4.375,-1.484375 4.25,-1.515625 4.21875,-1.515625 c -0.0625,0 -0.09375,0.015625 -0.109375,0.0625 -0.21875,0.5 -0.4375,0.75 -0.8125,0.75 h -1.9375 c 0.4375,-0.5 1.4375,-1.59375 2.125,-2.453125 C 3.8125,-3.5625 4.03125,-4.0625 4.03125,-4.625 c 0,-0.828125 -0.734375,-1.625 -1.671875,-1.625 -1.03125,0 -1.734375,1.078125 -1.796875,1.3125 0,0.046875 0.109375,0.15625 0.1875,0.15625 0.125,-0.1875 0.609375,-0.828125 1.390625,-0.828125 0.609375,0 1.0625,0.5 1.0625,1.171875 0,0.484375 -0.0625,0.875 -0.46875,1.453125 -0.5625,0.828125 -1.5,1.9375 -2.3125,2.84375 0,0.046875 0.0625,0.125 0.09375,0.140625 h 3.375 c 0.0625,-0.171875 0.328125,-0.984375 0.53125,-1.453125 z m 0,0"
               style="stroke:none" />
          </g>
        </g>
      </g>
    </g>
    <g
       id="g6434"
       style="fill:#000000;fill-opacity:1;stroke-width:0"
       ns2:jacobian_sqrt="0.423334"
       ns2:inkscapeversion="1.0"
       ns2:alignment="middle center"
       ns2:scale="1.1999998866143555"
       ns2:preamble="C:\\Users\\flvisa\\Desktop\\lna\\latexify_books\\textext_preamble.tex"
       ns2:text="$3$"
       ns2:pdfconverter="inkscape"
       ns2:texconverter="pdflatex"
       ns2:version="1.1.0"
       transform="matrix(0.42333399,0,0,0.42333399,178.59614,51.927834)">
      <defs
         id="id-b9751adc-d4af-488e-8068-c57a471d098c">
        <g
           style="fill:#9e7867;fill-opacity:1;stroke-width:0"
           id="g13137">
          <symbol
             style="fill:#9e7867;fill-opacity:1;stroke-width:0"
             overflow="visible"
             id="symbol13131">
            <path
               style="fill:#9e7867;fill-opacity:1;stroke:none;stroke-width:0"
               d="M 0.5,0 H 4.484375 V -4.8125 H 0.5 Z M 1,-0.5 V -4.3125 H 3.984375 V -0.5 Z m 0,0"
               id="path13129" />
          </symbol>
          <symbol
             style="fill:#9e7867;fill-opacity:1;stroke-width:0"
             overflow="visible"
             id="symbol13135">
            <path
               style="fill:#9e7867;fill-opacity:1;stroke:none;stroke-width:0"
               d="m 2.515625,-6.25 c -0.765625,0 -1.3125,0.5 -1.625,0.953125 0,0.078125 0.0625,0.203125 0.125,0.203125 0.09375,-0.0625 0.46875,-0.640625 1.09375,-0.640625 0.546875,0 0.953125,0.390625 0.953125,0.90625 0,0.84375 -0.734375,1.265625 -1.515625,1.4375 -0.015625,0.03125 -0.015625,0.0625 -0.015625,0.09375 0,0.09375 0.015625,0.140625 0.046875,0.203125 0.125,-0.03125 0.375,-0.125 0.578125,-0.125 0.640625,0 1.25,0.578125 1.25,1.359375 0,1.125 -0.625,1.515625 -1.140625,1.515625 -0.265625,0 -0.53125,-0.0625 -0.71875,-0.25 C 1.390625,-0.75 1.265625,-1.015625 1,-1.015625 c -0.21875,0 -0.40625,0.1875 -0.40625,0.46875 0,0.15625 0.140625,0.328125 0.1875,0.375 0.3125,0.15625 0.734375,0.21875 1,0.21875 C 2.984375,0.046875 4.25,-0.78125 4.25,-2.125 4.25,-3.078125 3.453125,-3.609375 2.890625,-3.6875 3.234375,-3.890625 3.78125,-4.375 3.78125,-5 c 0,-0.796875 -0.765625,-1.25 -1.265625,-1.25 z m 0,0"
               id="path13133" />
          </symbol>
        </g>
      </defs>
      <g
         style="fill:#000000;fill-opacity:1;stroke-width:0"
         id="id-fa85de6a-5775-428e-ad32-adcc5d1d87e8"
         transform="translate(-149.306,-128.515)">
        <g
           style="fill:#000000;fill-opacity:1;stroke-width:0"
           id="id-165f79ec-7bba-4134-b058-87f93dcba377">
          <g
             id="g6430"
             style="fill:#000000;fill-opacity:1;stroke-width:0"
             transform="translate(148.712,134.765)">
            <path
               style="fill:#000000;fill-opacity:1;stroke:none;stroke-width:0"
               d="m 2.515625,-6.25 c -0.765625,0 -1.3125,0.5 -1.625,0.953125 0,0.078125 0.0625,0.203125 0.125,0.203125 0.09375,-0.0625 0.46875,-0.640625 1.09375,-0.640625 0.546875,0 0.953125,0.390625 0.953125,0.90625 0,0.84375 -0.734375,1.265625 -1.515625,1.4375 -0.015625,0.03125 -0.015625,0.0625 -0.015625,0.09375 0,0.09375 0.015625,0.140625 0.046875,0.203125 0.125,-0.03125 0.375,-0.125 0.578125,-0.125 0.640625,0 1.25,0.578125 1.25,1.359375 0,1.125 -0.625,1.515625 -1.140625,1.515625 -0.265625,0 -0.53125,-0.0625 -0.71875,-0.25 C 1.390625,-0.75 1.265625,-1.015625 1,-1.015625 c -0.21875,0 -0.40625,0.1875 -0.40625,0.46875 0,0.15625 0.140625,0.328125 0.1875,0.375 0.3125,0.15625 0.734375,0.21875 1,0.21875 C 2.984375,0.046875 4.25,-0.78125 4.25,-2.125 4.25,-3.078125 3.453125,-3.609375 2.890625,-3.6875 3.234375,-3.890625 3.78125,-4.375 3.78125,-5 c 0,-0.796875 -0.765625,-1.25 -1.265625,-1.25 z m 0,0"
               id="id-44dde96e-5338-4cbe-a7bb-14cfbf3a4581" />
          </g>
        </g>
      </g>
    </g>
    <g
       id="g3286"
       style="fill:#000000;stroke-width:0"
       ns2:jacobian_sqrt="0.423334"
       ns2:inkscapeversion="1.0"
       ns2:alignment="middle center"
       ns2:scale="1.1999998866143555"
       ns2:preamble="C:\\Users\\flvisa\\Desktop\\lna\\latexify_books\\textext_preamble.tex"
       ns2:text="$0$"
       ns2:pdfconverter="inkscape"
       ns2:texconverter="pdflatex"
       ns2:version="1.1.0"
       transform="matrix(0.42333399,0,0,0.42333399,173.63135,61.882731)">
      <defs
         id="id-c9b5e3a1-af6b-45d7-8f9c-7fa4577b7189">
        <g
           style="fill:#3a493f;stroke-width:0"
           id="g13169">
          <symbol
             style="fill:#3a493f;stroke-width:0"
             overflow="visible"
             id="symbol13163">
            <path
               style="fill:#3a493f;stroke:none;stroke-width:0"
               d="M 0.5,0 H 4.484375 V -4.8125 H 0.5 Z M 1,-0.5 V -4.3125 H 3.984375 V -0.5 Z m 0,0"
               id="path13161" />
          </symbol>
          <symbol
             style="fill:#3a493f;stroke-width:0"
             overflow="visible"
             id="symbol13167">
            <path
               style="fill:#3a493f;stroke:none;stroke-width:0"
               d="m 2.484375,-5.875 c 0.71875,0 1.203125,1.1875 1.203125,2.71875 0,1.515625 -0.4375,2.828125 -1.3125,2.828125 -0.703125,0 -1.21875,-1.25 -1.21875,-2.78125 0,-1.53125 0.515625,-2.765625 1.328125,-2.765625 z m -0.0625,-0.359375 c -1.34375,0 -2.125,1.421875 -2.125,3.125 0,1.6875 0.796875,3.140625 2.125,3.140625 1.34375,0 2.125,-1.453125 2.125,-3.140625 0,-1.703125 -0.765625,-3.125 -2.125,-3.125 z m 0,0"
               id="path13165" />
          </symbol>
        </g>
      </defs>
      <g
         style="fill:#000000;stroke-width:0"
         id="id-75a4d36a-b09c-4574-85f5-edd07e979b84"
         transform="translate(-149.009,-128.531)">
        <g
           style="fill:#000000;fill-opacity:1;stroke-width:0"
           id="id-e73582e4-c014-49ba-9e2b-505396076844">
          <g
             id="g3282"
             style="fill:#000000;stroke-width:0"
             transform="translate(148.712,134.765)">
            <path
               style="fill:#000000;stroke:none;stroke-width:0"
               d="m 2.484375,-5.875 c 0.71875,0 1.203125,1.1875 1.203125,2.71875 0,1.515625 -0.4375,2.828125 -1.3125,2.828125 -0.703125,0 -1.21875,-1.25 -1.21875,-2.78125 0,-1.53125 0.515625,-2.765625 1.328125,-2.765625 z m -0.0625,-0.359375 c -1.34375,0 -2.125,1.421875 -2.125,3.125 0,1.6875 0.796875,3.140625 2.125,3.140625 1.34375,0 2.125,-1.453125 2.125,-3.140625 0,-1.703125 -0.765625,-3.125 -2.125,-3.125 z m 0,0"
               id="id-9ce7ca54-69fd-4d5e-ab37-f20ad0949d24" />
          </g>
        </g>
      </g>
    </g>
    <g
       transform="matrix(0.423334,0,0,0.423334,216.12217,61.431)"
       ns2:version="1.1.0"
       ns2:texconverter="pdflatex"
       ns2:pdfconverter="inkscape"
       ns2:text="$1/T$\n"
       ns2:preamble="C:\\Users\\flvisa\\Desktop\\lna\\latexify_books\\textext_preamble.tex"
       ns2:scale="1.199999773228722"
       ns2:alignment="middle center"
       ns2:inkscapeversion="1.0.1"
       ns2:jacobian_sqrt="0.423334"
       id="g13483">
      <defs
         id="id-1e5134b5-ed71-454b-b1ee-abe1c398211c">
        <g
           id="id-61ff3a7f-792b-417f-b5fa-1c45cb480912">
          <symbol
             overflow="visible"
             id="id-88176a56-757a-4c5b-aa88-e66815217728">
            <path
               style="stroke:none"
               d="M 0.5,0 H 4.484375 V -4.8125 H 0.5 Z M 1,-0.5 V -4.3125 H 3.984375 V -0.5 Z m 0,0"
               id="id-77141552-ccb1-475c-bd2b-47e609e60033" />
          </symbol>
          <symbol
             overflow="visible"
             id="id-fa785986-f287-4aed-b8b5-9eaef46aa0e4">
            <path
               style="stroke:none"
               d="m 2.171875,-1.125 c 0,0.28125 -0.015625,0.5625 -0.0625,0.71875 C 2.078125,-0.296875 1.609375,-0.25 1.5,-0.25 c -0.046875,0.046875 -0.046875,0.234375 0,0.28125 0.390625,-0.015625 0.65625,-0.046875 1.03125,-0.046875 0.375,0 0.6875,0.03125 1.09375,0.046875 0.046875,-0.046875 0.03125,-0.234375 0,-0.28125 C 3.5,-0.25 3.015625,-0.296875 2.984375,-0.40625 2.9375,-0.5625 2.9375,-0.84375 2.9375,-1.125 v -4.03125 c 0,-0.59375 0.078125,-0.9375 0.078125,-0.9375 0,-0.046875 -0.03125,-0.15625 -0.09375,-0.15625 H 2.90625 C 2.875,-6.25 2,-5.828125 1.203125,-5.46875 c -0.03125,0.015625 0,0.046875 0,0.0625 0,0.078125 0.03125,0.125 0.078125,0.171875 0.171875,-0.0625 0.546875,-0.203125 0.6875,-0.203125 0.140625,0 0.203125,0.09375 0.203125,0.375 z m 0,0"
               id="id-7f810102-4687-4867-b50c-4add214c3842" />
          </symbol>
          <symbol
             overflow="visible"
             id="id-8b64442d-7053-42d6-8cc2-29007a4907cc">
            <path
               style="stroke:none"
               d=""
               id="id-3a247210-6a70-437e-9440-8fb7be7480f5" />
          </symbol>
          <symbol
             overflow="visible"
             id="id-08f05539-15ab-4fc0-a0c9-9a64ac484689">
            <path
               style="stroke:none"
               d="M 0.625,1.921875 H 1.140625 L 3.96875,-7.046875 H 3.453125 Z m 0,0"
               id="id-c68cae91-6fac-4bcf-9a73-d3834b836864" />
          </symbol>
          <symbol
             overflow="visible"
             id="id-3b3ff443-2213-4b80-9152-b607031d4979">
            <path
               style="stroke:none"
               d=""
               id="id-2e014479-7c69-4da6-9b8e-b26e6810398c" />
          </symbol>
          <symbol
             overflow="visible"
             id="id-cdee4997-42da-4ac4-af66-76e77bdfb211">
            <path
               style="stroke:none"
               d="m 5.546875,-6.609375 h -3.65625 c -0.15625,0 -0.40625,-0.078125 -0.5,-0.140625 -0.0625,-0.03125 -0.15625,-0.0625 -0.21875,-0.03125 C 1,-6.15625 0.8125,-5.578125 0.59375,-5.046875 0.625,-5.015625 0.671875,-4.96875 0.765625,-4.96875 0.8125,-4.96875 0.890625,-5 0.90625,-5.03125 1.171875,-5.734375 1.578125,-6.25 2.046875,-6.25 h 1.21875 l -1,5.078125 c -0.0625,0.296875 -0.125,0.578125 -0.203125,0.75 -0.046875,0.109375 -0.5625,0.15625 -0.671875,0.15625 -0.046875,0.0625 -0.09375,0.25 -0.0625,0.296875 0.390625,-0.015625 0.765625,-0.046875 1.125,-0.046875 0.359375,0 0.703125,0.03125 1.078125,0.046875 0.0625,-0.046875 0.09375,-0.234375 0.0625,-0.296875 -0.109375,0 -0.609375,-0.046875 -0.609375,-0.15625 V -0.5 c 0,-0.15625 0.046875,-0.40625 0.09375,-0.671875 l 1,-5.078125 h 1.1875 c 0.453125,0 0.640625,0.5 0.640625,1.171875 v 0.046875 c 0.015625,0.03125 0.078125,0.0625 0.125,0.0625 0.078125,0 0.171875,-0.046875 0.203125,-0.078125 0,-0.53125 0.046875,-1.109375 0.09375,-1.734375 -0.046875,-0.03125 -0.09375,-0.03125 -0.1875,0.015625 -0.125,0.0625 -0.4375,0.15625 -0.59375,0.15625 z m 0,0"
               id="id-162f688f-3651-4ea3-b635-c34d7aa0c5ba" />
          </symbol>
        </g>
      </defs>
      <g
         id="id-1b267557-1e69-4275-bd7f-ee3970762d33"
         transform="translate(-149.901,-127.718)">
        <g
           style="fill:#000000;fill-opacity:1"
           id="id-244fd9af-8cd3-4512-9625-13c85b85aeb8">
          <g
             transform="translate(148.712,134.765)"
             id="g13471">
            <path
               style="stroke:none"
               d="m 2.171875,-1.125 c 0,0.28125 -0.015625,0.5625 -0.0625,0.71875 C 2.078125,-0.296875 1.609375,-0.25 1.5,-0.25 c -0.046875,0.046875 -0.046875,0.234375 0,0.28125 0.390625,-0.015625 0.65625,-0.046875 1.03125,-0.046875 0.375,0 0.6875,0.03125 1.09375,0.046875 0.046875,-0.046875 0.03125,-0.234375 0,-0.28125 C 3.5,-0.25 3.015625,-0.296875 2.984375,-0.40625 2.9375,-0.5625 2.9375,-0.84375 2.9375,-1.125 v -4.03125 c 0,-0.59375 0.078125,-0.9375 0.078125,-0.9375 0,-0.046875 -0.03125,-0.15625 -0.09375,-0.15625 H 2.90625 C 2.875,-6.25 2,-5.828125 1.203125,-5.46875 c -0.03125,0.015625 0,0.046875 0,0.0625 0,0.078125 0.03125,0.125 0.078125,0.171875 0.171875,-0.0625 0.546875,-0.203125 0.6875,-0.203125 0.140625,0 0.203125,0.09375 0.203125,0.375 z m 0,0"
               id="id-cbe84276-58b7-4e42-8b0f-30baa9ee43dc" />
          </g>
        </g>
        <g
           style="fill:#000000;fill-opacity:1"
           id="id-cf65f1e5-26bd-4470-b8c8-e2eb56c9a5fd">
          <g
             transform="translate(153.544,134.765)"
             id="g13475">
            <path
               style="stroke:none"
               d="M 0.625,1.921875 H 1.140625 L 3.96875,-7.046875 H 3.453125 Z m 0,0"
               id="id-006ed162-0e83-4a65-8e72-9bb46864fe0b" />
          </g>
        </g>
        <g
           style="fill:#000000;fill-opacity:1"
           id="id-0970abf6-8a01-4630-b34e-789ce10775ad">
          <g
             transform="translate(157.828,134.765)"
             id="g13479">
            <path
               style="stroke:none"
               d="m 5.546875,-6.609375 h -3.65625 c -0.15625,0 -0.40625,-0.078125 -0.5,-0.140625 -0.0625,-0.03125 -0.15625,-0.0625 -0.21875,-0.03125 C 1,-6.15625 0.8125,-5.578125 0.59375,-5.046875 0.625,-5.015625 0.671875,-4.96875 0.765625,-4.96875 0.8125,-4.96875 0.890625,-5 0.90625,-5.03125 1.171875,-5.734375 1.578125,-6.25 2.046875,-6.25 h 1.21875 l -1,5.078125 c -0.0625,0.296875 -0.125,0.578125 -0.203125,0.75 -0.046875,0.109375 -0.5625,0.15625 -0.671875,0.15625 -0.046875,0.0625 -0.09375,0.25 -0.0625,0.296875 0.390625,-0.015625 0.765625,-0.046875 1.125,-0.046875 0.359375,0 0.703125,0.03125 1.078125,0.046875 0.0625,-0.046875 0.09375,-0.234375 0.0625,-0.296875 -0.109375,0 -0.609375,-0.046875 -0.609375,-0.15625 V -0.5 c 0,-0.15625 0.046875,-0.40625 0.09375,-0.671875 l 1,-5.078125 h 1.1875 c 0.453125,0 0.640625,0.5 0.640625,1.171875 v 0.046875 c 0.015625,0.03125 0.078125,0.0625 0.125,0.0625 0.078125,0 0.171875,-0.046875 0.203125,-0.078125 0,-0.53125 0.046875,-1.109375 0.09375,-1.734375 -0.046875,-0.03125 -0.09375,-0.03125 -0.1875,0.015625 -0.125,0.0625 -0.4375,0.15625 -0.59375,0.15625 z m 0,0"
               id="id-794ef562-2748-4805-86be-ce40072a1af7" />
          </g>
        </g>
      </g>
    </g>
    <g
       transform="matrix(0.423334,0,0,0.423334,195.688,61.4311)"
       ns2:version="1.1.0"
       ns2:texconverter="pdflatex"
       ns2:pdfconverter="inkscape"
       ns2:text="$1/\\ab{T}{s}$\n\n"
       ns2:preamble="C:\\Users\\flvisa\\Desktop\\lna\\latexify_books\\textext_preamble.tex"
       ns2:scale="1.199999773228722"
       ns2:alignment="middle center"
       ns2:inkscapeversion="1.0.1"
       ns2:jacobian_sqrt="0.423334"
       id="g13859">
      <defs
         id="id-c451d8b5-4851-4d40-8b24-3f637d15868d">
        <g
           id="id-16076fe8-3a4e-4d3c-9bad-716b56264170">
          <symbol
             overflow="visible"
             id="id-242ac6e8-9cd1-43ef-bdc6-bd408b4c96aa">
            <path
               style="stroke:none"
               d="M 0.5,0 H 4.484375 V -4.8125 H 0.5 Z M 1,-0.5 V -4.3125 H 3.984375 V -0.5 Z m 0,0"
               id="id-07b58437-5a06-4178-9e42-547efa34e083" />
          </symbol>
          <symbol
             overflow="visible"
             id="id-7b44373f-64b7-411d-b73b-ae1d515f5e20">
            <path
               style="stroke:none"
               d="m 2.171875,-1.125 c 0,0.28125 -0.015625,0.5625 -0.0625,0.71875 C 2.078125,-0.296875 1.609375,-0.25 1.5,-0.25 c -0.046875,0.046875 -0.046875,0.234375 0,0.28125 0.390625,-0.015625 0.65625,-0.046875 1.03125,-0.046875 0.375,0 0.6875,0.03125 1.09375,0.046875 0.046875,-0.046875 0.03125,-0.234375 0,-0.28125 C 3.5,-0.25 3.015625,-0.296875 2.984375,-0.40625 2.9375,-0.5625 2.9375,-0.84375 2.9375,-1.125 v -4.03125 c 0,-0.59375 0.078125,-0.9375 0.078125,-0.9375 0,-0.046875 -0.03125,-0.15625 -0.09375,-0.15625 H 2.90625 C 2.875,-6.25 2,-5.828125 1.203125,-5.46875 c -0.03125,0.015625 0,0.046875 0,0.0625 0,0.078125 0.03125,0.125 0.078125,0.171875 0.171875,-0.0625 0.546875,-0.203125 0.6875,-0.203125 0.140625,0 0.203125,0.09375 0.203125,0.375 z m 0,0"
               id="id-73320bbc-447e-4c1a-88b6-c303b11731f0" />
          </symbol>
          <symbol
             overflow="visible"
             id="id-decd5fbc-982b-4a27-a2d1-91f26f32f4ab">
            <path
               style="stroke:none"
               d=""
               id="id-49172468-3995-4a90-ade4-0de82ab42974" />
          </symbol>
          <symbol
             overflow="visible"
             id="id-9bb955d0-2376-406a-a32d-024324a6cf2e">
            <path
               style="stroke:none"
               d="M 0.625,1.921875 H 1.140625 L 3.96875,-7.046875 H 3.453125 Z m 0,0"
               id="id-b1bd12c8-210f-450c-86ba-2b0dcd62496d" />
          </symbol>
          <symbol
             overflow="visible"
             id="id-5ddd45e3-3bd0-47d9-923d-16fc59801322">
            <path
               style="stroke:none"
               d=""
               id="id-dfa70600-ac22-4be5-9122-61132542804a" />
          </symbol>
          <symbol
             overflow="visible"
             id="id-de2c0ba1-e62a-4388-b9b9-2586c883d9ab">
            <path
               style="stroke:none"
               d="m 5.546875,-6.609375 h -3.65625 c -0.15625,0 -0.40625,-0.078125 -0.5,-0.140625 -0.0625,-0.03125 -0.15625,-0.0625 -0.21875,-0.03125 C 1,-6.15625 0.8125,-5.578125 0.59375,-5.046875 0.625,-5.015625 0.671875,-4.96875 0.765625,-4.96875 0.8125,-4.96875 0.890625,-5 0.90625,-5.03125 1.171875,-5.734375 1.578125,-6.25 2.046875,-6.25 h 1.21875 l -1,5.078125 c -0.0625,0.296875 -0.125,0.578125 -0.203125,0.75 -0.046875,0.109375 -0.5625,0.15625 -0.671875,0.15625 -0.046875,0.0625 -0.09375,0.25 -0.0625,0.296875 0.390625,-0.015625 0.765625,-0.046875 1.125,-0.046875 0.359375,0 0.703125,0.03125 1.078125,0.046875 0.0625,-0.046875 0.09375,-0.234375 0.0625,-0.296875 -0.109375,0 -0.609375,-0.046875 -0.609375,-0.15625 V -0.5 c 0,-0.15625 0.046875,-0.40625 0.09375,-0.671875 l 1,-5.078125 h 1.1875 c 0.453125,0 0.640625,0.5 0.640625,1.171875 v 0.046875 c 0.015625,0.03125 0.078125,0.0625 0.125,0.0625 0.078125,0 0.171875,-0.046875 0.203125,-0.078125 0,-0.53125 0.046875,-1.109375 0.09375,-1.734375 -0.046875,-0.03125 -0.09375,-0.03125 -0.1875,0.015625 -0.125,0.0625 -0.4375,0.15625 -0.59375,0.15625 z m 0,0"
               id="id-62442d3d-b0b0-4868-9e18-5a02862506ee" />
          </symbol>
          <symbol
             overflow="visible"
             id="id-f3e851b3-da99-450c-8b86-0014c0994c94">
            <path
               style="stroke:none"
               d="m 0.359375,0 h 2.90625 V -3.515625 H 0.359375 Z M 0.71875,-0.359375 v -2.78125 h 2.1875 v 2.78125 z m 0,0"
               id="id-9e4f082b-1ce9-4908-a973-e96584617da2" />
          </symbol>
          <symbol
             overflow="visible"
             id="id-0684b877-8ed3-4adc-b2c5-3d32c4b0508e">
            <path
               style="stroke:none"
               d="m 1.40625,-3.171875 c -0.53125,0 -1.046875,0.34375 -1.046875,0.890625 0,0.375 0.265625,0.609375 0.546875,0.78125 0.421875,0.234375 0.875,0.375 0.875,0.828125 0,0.328125 -0.21875,0.515625 -0.515625,0.515625 -0.375,0 -0.6875,-0.375 -0.78125,-0.671875 -0.015625,-0.03125 -0.03125,-0.03125 -0.0625,-0.03125 -0.03125,0 -0.09375,0.03125 -0.125,0.046875 0,0.1875 0.0625,0.609375 0.125,0.75 C 0.734375,0 0.9375,0.078125 1.25,0.078125 c 0.59375,0 1.109375,-0.40625 1.109375,-1 0,-0.46875 -0.5,-0.703125 -0.828125,-0.890625 C 1.21875,-2 0.90625,-2.109375 0.90625,-2.5 c 0,-0.25 0.15625,-0.453125 0.515625,-0.453125 0.3125,0 0.53125,0.390625 0.609375,0.671875 0.03125,0.015625 0.078125,0.03125 0.125,0.03125 0.03125,0 0.0625,-0.015625 0.0625,-0.03125 0,-0.265625 -0.03125,-0.578125 -0.078125,-0.796875 -0.328125,-0.03125 -0.46875,-0.09375 -0.734375,-0.09375 z m 0,0"
               id="id-a1d4a7cc-9fd3-4abe-bfb6-e52d179bca3b" />
          </symbol>
        </g>
      </defs>
      <g
         id="id-39bb9e0b-8d4a-455e-ba34-1def667c4426"
         transform="translate(-149.901,-127.718)">
        <g
           style="fill:#000000;fill-opacity:1"
           id="id-49fd707d-684b-4462-bd99-1c12cc78694a">
          <g
             transform="translate(148.712,134.765)"
             id="g13843">
            <path
               style="stroke:none"
               d="m 2.171875,-1.125 c 0,0.28125 -0.015625,0.5625 -0.0625,0.71875 C 2.078125,-0.296875 1.609375,-0.25 1.5,-0.25 c -0.046875,0.046875 -0.046875,0.234375 0,0.28125 0.390625,-0.015625 0.65625,-0.046875 1.03125,-0.046875 0.375,0 0.6875,0.03125 1.09375,0.046875 0.046875,-0.046875 0.03125,-0.234375 0,-0.28125 C 3.5,-0.25 3.015625,-0.296875 2.984375,-0.40625 2.9375,-0.5625 2.9375,-0.84375 2.9375,-1.125 v -4.03125 c 0,-0.59375 0.078125,-0.9375 0.078125,-0.9375 0,-0.046875 -0.03125,-0.15625 -0.09375,-0.15625 H 2.90625 C 2.875,-6.25 2,-5.828125 1.203125,-5.46875 c -0.03125,0.015625 0,0.046875 0,0.0625 0,0.078125 0.03125,0.125 0.078125,0.171875 0.171875,-0.0625 0.546875,-0.203125 0.6875,-0.203125 0.140625,0 0.203125,0.09375 0.203125,0.375 z m 0,0"
               id="id-7e219a28-3543-45f6-9d7b-11fde3bb422f" />
          </g>
        </g>
        <g
           style="fill:#000000;fill-opacity:1"
           id="id-1af1cdf0-273c-497d-8bb2-49cc0492e074">
          <g
             transform="translate(153.544,134.765)"
             id="g13847">
            <path
               style="stroke:none"
               d="M 0.625,1.921875 H 1.140625 L 3.96875,-7.046875 H 3.453125 Z m 0,0"
               id="id-ae50abae-7824-4aef-a68f-e2139bdbe4b4" />
          </g>
        </g>
        <g
           style="fill:#000000;fill-opacity:1"
           id="id-03a794f4-95d7-456a-ba46-f3565b9aac4c">
          <g
             transform="translate(157.828,134.765)"
             id="g13851">
            <path
               style="stroke:none"
               d="m 5.546875,-6.609375 h -3.65625 c -0.15625,0 -0.40625,-0.078125 -0.5,-0.140625 -0.0625,-0.03125 -0.15625,-0.0625 -0.21875,-0.03125 C 1,-6.15625 0.8125,-5.578125 0.59375,-5.046875 0.625,-5.015625 0.671875,-4.96875 0.765625,-4.96875 0.8125,-4.96875 0.890625,-5 0.90625,-5.03125 1.171875,-5.734375 1.578125,-6.25 2.046875,-6.25 h 1.21875 l -1,5.078125 c -0.0625,0.296875 -0.125,0.578125 -0.203125,0.75 -0.046875,0.109375 -0.5625,0.15625 -0.671875,0.15625 -0.046875,0.0625 -0.09375,0.25 -0.0625,0.296875 0.390625,-0.015625 0.765625,-0.046875 1.125,-0.046875 0.359375,0 0.703125,0.03125 1.078125,0.046875 0.0625,-0.046875 0.09375,-0.234375 0.0625,-0.296875 -0.109375,0 -0.609375,-0.046875 -0.609375,-0.15625 V -0.5 c 0,-0.15625 0.046875,-0.40625 0.09375,-0.671875 l 1,-5.078125 h 1.1875 c 0.453125,0 0.640625,0.5 0.640625,1.171875 v 0.046875 c 0.015625,0.03125 0.078125,0.0625 0.125,0.0625 0.078125,0 0.171875,-0.046875 0.203125,-0.078125 0,-0.53125 0.046875,-1.109375 0.09375,-1.734375 -0.046875,-0.03125 -0.09375,-0.03125 -0.1875,0.015625 -0.125,0.0625 -0.4375,0.15625 -0.59375,0.15625 z m 0,0"
               id="id-81ebb49e-2f22-4cd5-a6da-ae8b28cc18ba" />
          </g>
        </g>
        <g
           style="fill:#000000;fill-opacity:1"
           id="id-c3dcac70-66b0-4223-92d4-d4924960fd84">
          <g
             transform="translate(163.337,136.259)"
             id="g13855">
            <path
               style="stroke:none"
               d="m 1.40625,-3.171875 c -0.53125,0 -1.046875,0.34375 -1.046875,0.890625 0,0.375 0.265625,0.609375 0.546875,0.78125 0.421875,0.234375 0.875,0.375 0.875,0.828125 0,0.328125 -0.21875,0.515625 -0.515625,0.515625 -0.375,0 -0.6875,-0.375 -0.78125,-0.671875 -0.015625,-0.03125 -0.03125,-0.03125 -0.0625,-0.03125 -0.03125,0 -0.09375,0.03125 -0.125,0.046875 0,0.1875 0.0625,0.609375 0.125,0.75 C 0.734375,0 0.9375,0.078125 1.25,0.078125 c 0.59375,0 1.109375,-0.40625 1.109375,-1 0,-0.46875 -0.5,-0.703125 -0.828125,-0.890625 C 1.21875,-2 0.90625,-2.109375 0.90625,-2.5 c 0,-0.25 0.15625,-0.453125 0.515625,-0.453125 0.3125,0 0.53125,0.390625 0.609375,0.671875 0.03125,0.015625 0.078125,0.03125 0.125,0.03125 0.03125,0 0.0625,-0.015625 0.0625,-0.03125 0,-0.265625 -0.03125,-0.578125 -0.078125,-0.796875 -0.328125,-0.03125 -0.46875,-0.09375 -0.734375,-0.09375 z m 0,0"
               id="id-1fb0297e-7e8c-4674-8e28-5e30a64e16ab" />
          </g>
        </g>
      </g>
    </g>
    <g
       transform="matrix(0.423334,0,0,0.423334,179.935,61.4312)"
       ns2:version="1.1.0"
       ns2:texconverter="pdflatex"
       ns2:pdfconverter="inkscape"
       ns2:text="$1/\\ab{T}{i}$\n\n\n"
       ns2:preamble="C:\\Users\\flvisa\\Desktop\\lna\\latexify_books\\textext_preamble.tex"
       ns2:scale="1.199999773228722"
       ns2:alignment="middle center"
       ns2:inkscapeversion="1.0.1"
       ns2:jacobian_sqrt="0.423334"
       id="g14288">
      <defs
         id="id-af3c4a91-b550-451f-987e-c09880aa51c6">
        <g
           id="id-9a341fa6-8a55-4596-9b4e-b63d930f6c0a">
          <symbol
             overflow="visible"
             id="id-9518ad75-674b-4d5f-97dd-bc20a6cdac58">
            <path
               style="stroke:none"
               d="M 0.5,0 H 4.484375 V -4.8125 H 0.5 Z M 1,-0.5 V -4.3125 H 3.984375 V -0.5 Z m 0,0"
               id="id-925c3b48-25b0-43e3-9de7-82d716330191" />
          </symbol>
          <symbol
             overflow="visible"
             id="id-737ca6c8-ae1e-4591-9be0-860b60c5dd7d">
            <path
               style="stroke:none"
               d="m 2.171875,-1.125 c 0,0.28125 -0.015625,0.5625 -0.0625,0.71875 C 2.078125,-0.296875 1.609375,-0.25 1.5,-0.25 c -0.046875,0.046875 -0.046875,0.234375 0,0.28125 0.390625,-0.015625 0.65625,-0.046875 1.03125,-0.046875 0.375,0 0.6875,0.03125 1.09375,0.046875 0.046875,-0.046875 0.03125,-0.234375 0,-0.28125 C 3.5,-0.25 3.015625,-0.296875 2.984375,-0.40625 2.9375,-0.5625 2.9375,-0.84375 2.9375,-1.125 v -4.03125 c 0,-0.59375 0.078125,-0.9375 0.078125,-0.9375 0,-0.046875 -0.03125,-0.15625 -0.09375,-0.15625 H 2.90625 C 2.875,-6.25 2,-5.828125 1.203125,-5.46875 c -0.03125,0.015625 0,0.046875 0,0.0625 0,0.078125 0.03125,0.125 0.078125,0.171875 0.171875,-0.0625 0.546875,-0.203125 0.6875,-0.203125 0.140625,0 0.203125,0.09375 0.203125,0.375 z m 0,0"
               id="id-301ac283-c3b3-45fa-b1cf-01767c8837b1" />
          </symbol>
          <symbol
             overflow="visible"
             id="id-5f5a056c-a688-4c33-8ba1-69990621dbc8">
            <path
               style="stroke:none"
               d=""
               id="id-a44b831f-bfd1-4a88-baf1-ae122783a75d" />
          </symbol>
          <symbol
             overflow="visible"
             id="id-fdbbaaca-8770-43cb-aea0-8501032437cc">
            <path
               style="stroke:none"
               d="M 0.625,1.921875 H 1.140625 L 3.96875,-7.046875 H 3.453125 Z m 0,0"
               id="id-a706396a-be0d-4b30-b221-455408c3c550" />
          </symbol>
          <symbol
             overflow="visible"
             id="id-edd28860-0f9c-4ee5-9cd1-0c067d6f5297">
            <path
               style="stroke:none"
               d=""
               id="id-20d409ea-2987-4192-886d-27933bb9f890" />
          </symbol>
          <symbol
             overflow="visible"
             id="id-8de6879a-e420-4e09-b4b3-15bbfcdab1f1">
            <path
               style="stroke:none"
               d="m 5.546875,-6.609375 h -3.65625 c -0.15625,0 -0.40625,-0.078125 -0.5,-0.140625 -0.0625,-0.03125 -0.15625,-0.0625 -0.21875,-0.03125 C 1,-6.15625 0.8125,-5.578125 0.59375,-5.046875 0.625,-5.015625 0.671875,-4.96875 0.765625,-4.96875 0.8125,-4.96875 0.890625,-5 0.90625,-5.03125 1.171875,-5.734375 1.578125,-6.25 2.046875,-6.25 h 1.21875 l -1,5.078125 c -0.0625,0.296875 -0.125,0.578125 -0.203125,0.75 -0.046875,0.109375 -0.5625,0.15625 -0.671875,0.15625 -0.046875,0.0625 -0.09375,0.25 -0.0625,0.296875 0.390625,-0.015625 0.765625,-0.046875 1.125,-0.046875 0.359375,0 0.703125,0.03125 1.078125,0.046875 0.0625,-0.046875 0.09375,-0.234375 0.0625,-0.296875 -0.109375,0 -0.609375,-0.046875 -0.609375,-0.15625 V -0.5 c 0,-0.15625 0.046875,-0.40625 0.09375,-0.671875 l 1,-5.078125 h 1.1875 c 0.453125,0 0.640625,0.5 0.640625,1.171875 v 0.046875 c 0.015625,0.03125 0.078125,0.0625 0.125,0.0625 0.078125,0 0.171875,-0.046875 0.203125,-0.078125 0,-0.53125 0.046875,-1.109375 0.09375,-1.734375 -0.046875,-0.03125 -0.09375,-0.03125 -0.1875,0.015625 -0.125,0.0625 -0.4375,0.15625 -0.59375,0.15625 z m 0,0"
               id="id-fc25af34-a284-4ee9-a81f-b4a8027cbc64" />
          </symbol>
          <symbol
             overflow="visible"
             id="id-df985607-86fe-44b0-acbe-76f4f128cd05">
            <path
               style="stroke:none"
               d="m 0.359375,0 h 2.90625 V -3.515625 H 0.359375 Z M 0.71875,-0.359375 v -2.78125 h 2.1875 v 2.78125 z m 0,0"
               id="id-55c0a045-bba0-4370-8909-5248554c449d" />
          </symbol>
          <symbol
             overflow="visible"
             id="id-ac0eb93b-ab13-4e0a-a830-386d628d111b">
            <path
               style="stroke:none"
               d="m 0.625,-4.203125 c 0,0.1875 0.15625,0.359375 0.34375,0.359375 0.203125,0 0.359375,-0.171875 0.359375,-0.359375 0,-0.203125 -0.15625,-0.359375 -0.359375,-0.359375 -0.1875,0 -0.34375,0.15625 -0.34375,0.359375 z m 0.671875,1.90625 v -0.25 c 0,-0.0625 0.046875,-0.40625 0.046875,-0.46875 C 1.34375,-3.046875 1.3125,-3.125 1.265625,-3.125 0.984375,-2.96875 0.609375,-2.875 0.25,-2.828125 v 0.1875 c 0.046875,0 0.421875,0 0.46875,0.125 0.03125,0.09375 0.03125,0.28125 0.03125,0.375 v 1.3125 c 0,0.21875 0,0.40625 -0.03125,0.53125 C 0.703125,-0.21875 0.34375,-0.1875 0.265625,-0.1875 V 0.015625 C 0.546875,0 0.75,-0.015625 1.03125,-0.015625 1.3125,-0.015625 1.5,0 1.78125,0.015625 V -0.1875 c -0.078125,0 -0.421875,-0.03125 -0.4375,-0.109375 -0.046875,-0.125 -0.046875,-0.3125 -0.046875,-0.53125 z m 0,0"
               id="id-11dddb9c-f6b0-4d43-9425-daf5729b3be1" />
          </symbol>
        </g>
      </defs>
      <g
         id="id-a2196c08-be0e-49fe-94a2-0c3d32688865"
         transform="translate(-149.901,-127.718)">
        <g
           style="fill:#000000;fill-opacity:1"
           id="id-0db22adf-b10d-4731-bd13-8b494ee3407c">
          <g
             transform="translate(148.712,134.765)"
             id="g14272">
            <path
               style="stroke:none"
               d="m 2.171875,-1.125 c 0,0.28125 -0.015625,0.5625 -0.0625,0.71875 C 2.078125,-0.296875 1.609375,-0.25 1.5,-0.25 c -0.046875,0.046875 -0.046875,0.234375 0,0.28125 0.390625,-0.015625 0.65625,-0.046875 1.03125,-0.046875 0.375,0 0.6875,0.03125 1.09375,0.046875 0.046875,-0.046875 0.03125,-0.234375 0,-0.28125 C 3.5,-0.25 3.015625,-0.296875 2.984375,-0.40625 2.9375,-0.5625 2.9375,-0.84375 2.9375,-1.125 v -4.03125 c 0,-0.59375 0.078125,-0.9375 0.078125,-0.9375 0,-0.046875 -0.03125,-0.15625 -0.09375,-0.15625 H 2.90625 C 2.875,-6.25 2,-5.828125 1.203125,-5.46875 c -0.03125,0.015625 0,0.046875 0,0.0625 0,0.078125 0.03125,0.125 0.078125,0.171875 0.171875,-0.0625 0.546875,-0.203125 0.6875,-0.203125 0.140625,0 0.203125,0.09375 0.203125,0.375 z m 0,0"
               id="id-f858081b-a920-4871-a5cf-52bf8cce6b4f" />
          </g>
        </g>
        <g
           style="fill:#000000;fill-opacity:1"
           id="id-6fc6931e-63dc-4e1e-9331-33ef4bc82c77">
          <g
             transform="translate(153.544,134.765)"
             id="g14276">
            <path
               style="stroke:none"
               d="M 0.625,1.921875 H 1.140625 L 3.96875,-7.046875 H 3.453125 Z m 0,0"
               id="id-ea84d48a-92dc-4b0d-b557-1e926d97425a" />
          </g>
        </g>
        <g
           style="fill:#000000;fill-opacity:1"
           id="id-5f331922-2cda-410e-9e54-addf0c0711da">
          <g
             transform="translate(157.828,134.765)"
             id="g14280">
            <path
               style="stroke:none"
               d="m 5.546875,-6.609375 h -3.65625 c -0.15625,0 -0.40625,-0.078125 -0.5,-0.140625 -0.0625,-0.03125 -0.15625,-0.0625 -0.21875,-0.03125 C 1,-6.15625 0.8125,-5.578125 0.59375,-5.046875 0.625,-5.015625 0.671875,-4.96875 0.765625,-4.96875 0.8125,-4.96875 0.890625,-5 0.90625,-5.03125 1.171875,-5.734375 1.578125,-6.25 2.046875,-6.25 h 1.21875 l -1,5.078125 c -0.0625,0.296875 -0.125,0.578125 -0.203125,0.75 -0.046875,0.109375 -0.5625,0.15625 -0.671875,0.15625 -0.046875,0.0625 -0.09375,0.25 -0.0625,0.296875 0.390625,-0.015625 0.765625,-0.046875 1.125,-0.046875 0.359375,0 0.703125,0.03125 1.078125,0.046875 0.0625,-0.046875 0.09375,-0.234375 0.0625,-0.296875 -0.109375,0 -0.609375,-0.046875 -0.609375,-0.15625 V -0.5 c 0,-0.15625 0.046875,-0.40625 0.09375,-0.671875 l 1,-5.078125 h 1.1875 c 0.453125,0 0.640625,0.5 0.640625,1.171875 v 0.046875 c 0.015625,0.03125 0.078125,0.0625 0.125,0.0625 0.078125,0 0.171875,-0.046875 0.203125,-0.078125 0,-0.53125 0.046875,-1.109375 0.09375,-1.734375 -0.046875,-0.03125 -0.09375,-0.03125 -0.1875,0.015625 -0.125,0.0625 -0.4375,0.15625 -0.59375,0.15625 z m 0,0"
               id="id-c7e0e955-2f0e-441e-a401-19e6de76ad6a" />
          </g>
        </g>
        <g
           style="fill:#000000;fill-opacity:1"
           id="id-7383c38e-425e-4591-a52b-8f7634d26d72">
          <g
             transform="translate(163.337,136.259)"
             id="g14284">
            <path
               style="stroke:none"
               d="m 0.625,-4.203125 c 0,0.1875 0.15625,0.359375 0.34375,0.359375 0.203125,0 0.359375,-0.171875 0.359375,-0.359375 0,-0.203125 -0.15625,-0.359375 -0.359375,-0.359375 -0.1875,0 -0.34375,0.15625 -0.34375,0.359375 z m 0.671875,1.90625 v -0.25 c 0,-0.0625 0.046875,-0.40625 0.046875,-0.46875 C 1.34375,-3.046875 1.3125,-3.125 1.265625,-3.125 0.984375,-2.96875 0.609375,-2.875 0.25,-2.828125 v 0.1875 c 0.046875,0 0.421875,0 0.46875,0.125 0.03125,0.09375 0.03125,0.28125 0.03125,0.375 v 1.3125 c 0,0.21875 0,0.40625 -0.03125,0.53125 C 0.703125,-0.21875 0.34375,-0.1875 0.265625,-0.1875 V 0.015625 C 0.546875,0 0.75,-0.015625 1.03125,-0.015625 1.3125,-0.015625 1.5,0 1.78125,0.015625 V -0.1875 c -0.078125,0 -0.421875,-0.03125 -0.4375,-0.109375 -0.046875,-0.125 -0.046875,-0.3125 -0.046875,-0.53125 z m 0,0"
               id="id-bc46ae8e-6fe2-439d-847c-26029fdb7595" />
          </g>
        </g>
      </g>
    </g>
    <path
       style="fill:none;stroke:#000000;stroke-width:0.264583;stroke-linecap:round;stroke-linejoin:miter;stroke-miterlimit:4;stroke-dasharray:1.05833, 0.529166;stroke-dashoffset:0;stroke-opacity:1"
       d="M 182.81623,43.662915 V 59.822138"
       id="path14326" />
    <path
       style="fill:none;stroke:#000000;stroke-width:0.264583;stroke-linecap:round;stroke-linejoin:miter;stroke-miterlimit:4;stroke-dasharray:1.05833, 0.529166;stroke-dashoffset:0;stroke-opacity:1"
       d="M 198.75599,43.662915 V 59.822138"
       id="path14328" />
    <path
       style="fill:none;stroke:#506a68;stroke-width:0.529167;stroke-linecap:round;stroke-linejoin:miter;stroke-miterlimit:4;stroke-dasharray:none;stroke-opacity:1"
       d="m 177.77152,18.673216 5.04471,24.989699 h 15.93976 l 16.21611,7.14946"
       id="path14324" />
    <g
       transform="matrix(0.423334,0,0,0.423334,166.247,11.5867)"
       ns2:version="1.1.0"
       ns2:texconverter="pdflatex"
       ns2:pdfconverter="inkscape"
       ns2:text="$\\ln{n}$\n"
       ns2:preamble="C:\\Users\\flvisa\\Desktop\\lna\\latexify_books\\textext_preamble.tex"
       ns2:scale="1.199999858267946"
       ns2:alignment="middle center"
       ns2:inkscapeversion="1.0.1"
       ns2:jacobian_sqrt="0.423334"
       style="fill:#000000;stroke-width:0"
       id="g14765">
      <defs
         id="id-b8d40b71-ba36-42c2-b9e9-e2cf9c285964">
        <g
           id="id-27503333-3023-4db4-a6bb-b65d9de29849"
           style="fill:#000000;stroke-width:0">
          <symbol
             overflow="visible"
             id="id-b556d4b0-a45e-44ab-b372-95330d195d08"
             style="fill:#000000;stroke-width:0">
            <path
               style="fill:#000000;stroke:none;stroke-width:0"
               d="M 0.5,0 H 4.484375 V -4.8125 H 0.5 Z M 1,-0.5 V -4.3125 H 3.984375 V -0.5 Z m 0,0"
               id="id-75a19277-9fd0-4cef-868a-6129a6be5fb6" />
          </symbol>
          <symbol
             overflow="visible"
             id="id-53e9615a-7db4-4f4a-b9b3-9eeffa798db7"
             style="fill:#000000;stroke-width:0">
            <path
               style="fill:#000000;stroke:none;stroke-width:0"
               d="m 0.890625,-5.4375 v 4.3125 c 0,0.28125 0,0.5625 -0.046875,0.71875 -0.03125,0.109375 -0.5,0.15625 -0.625,0.15625 V 0.03125 C 0.625,0.015625 0.875,-0.015625 1.25,-0.015625 c 0.390625,0 0.65625,0.03125 1.078125,0.046875 V -0.25 C 2.1875,-0.25 1.71875,-0.296875 1.6875,-0.40625 1.640625,-0.5625 1.640625,-0.84375 1.640625,-1.125 V -5.75 C 1.640625,-6.296875 1.75,-6.59375 1.75,-6.59375 1.75,-6.671875 1.6875,-6.765625 1.640625,-6.765625 1.21875,-6.5625 0.734375,-6.421875 0.234375,-6.375 c -0.046875,0.015625 -0.015625,0.265625 0,0.265625 0.265625,0 0.546875,0.03125 0.609375,0.171875 0.046875,0.109375 0.046875,0.359375 0.046875,0.5 z m 0,0"
               id="id-5ad7229c-c4b9-4553-bdfa-198880e3844c" />
          </symbol>
          <symbol
             overflow="visible"
             id="id-bea6d3b2-4f5d-4290-9695-82e51397fc37"
             style="fill:#000000;stroke-width:0">
            <path
               style="fill:#000000;stroke:none;stroke-width:0"
               d="m 3.1875,-4.359375 c -0.484375,0 -1.140625,0.5 -1.328125,0.703125 -0.015625,0.015625 -0.03125,0.03125 -0.03125,0.03125 -0.03125,0 -0.03125,-0.03125 -0.03125,-0.046875 0,-0.078125 0.0625,-0.484375 0.0625,-0.5625 0,-0.015625 -0.0625,-0.046875 -0.109375,-0.046875 -0.390625,0.15625 -0.90625,0.25 -1.40625,0.296875 v 0.265625 c 0.0625,0 0.578125,0 0.640625,0.1875 0.046875,0.109375 0.046875,0.421875 0.046875,0.546875 v 1.828125 c 0,0.296875 0,0.578125 -0.046875,0.75 -0.03125,0.109375 -0.5,0.15625 -0.625,0.15625 V 0.03125 C 0.75,0.015625 1.03125,-0.015625 1.40625,-0.015625 c 0.390625,0 0.640625,0.03125 1.0625,0.046875 V -0.25 c -0.125,0 -0.59375,-0.046875 -0.625,-0.15625 -0.0625,-0.171875 -0.0625,-0.453125 -0.0625,-0.75 v -2.078125 c 0,-0.109375 0.59375,-0.5625 0.953125,-0.5625 0.78125,0 0.96875,0.390625 0.96875,1.640625 v 1 c 0,0.296875 0,0.578125 -0.046875,0.75 C 3.625,-0.296875 3.15625,-0.25 3.03125,-0.25 V 0.03125 C 3.4375,0.015625 3.6875,-0.015625 4.078125,-0.015625 c 0.390625,0 0.65625,0.03125 1.0625,0.046875 V -0.25 C 5.015625,-0.25 4.53125,-0.296875 4.5,-0.40625 4.453125,-0.578125 4.453125,-0.84375 4.453125,-1.140625 V -2.25 C 4.453125,-3.703125 4.25,-4.359375 3.1875,-4.359375 Z m 0,0"
               id="id-da789175-ee61-432c-8917-8b57a52d772a" />
          </symbol>
          <symbol
             overflow="visible"
             id="id-2f4f0f2c-0b78-48a8-a288-c115820bc7ee"
             style="fill:#000000;stroke-width:0">
            <path
               style="fill:#000000;stroke:none;stroke-width:0"
               d=""
               id="id-afd9a66a-d0ba-4b29-9f91-8a42b3a5437f" />
          </symbol>
          <symbol
             overflow="visible"
             id="id-42d8adfb-9a71-43e2-a224-818122e86884"
             style="fill:#000000;stroke-width:0">
            <path
               style="fill:#000000;stroke:none;stroke-width:0"
               d="m 1.796875,-3.328125 c 0.0625,-0.21875 0.09375,-0.453125 0.09375,-0.546875 0,-0.296875 -0.171875,-0.515625 -0.390625,-0.515625 -0.484375,0 -1.171875,0.765625 -1.28125,0.953125 0,0.0625 0.078125,0.1875 0.09375,0.1875 0.03125,-0.03125 0.5,-0.59375 0.71875,-0.59375 0.09375,0 0.09375,0.171875 0.09375,0.265625 0,0.046875 -0.03125,0.265625 -0.03125,0.3125 L 0.421875,0 c 0.125,0.03125 0.21875,0.046875 0.359375,0.046875 0.140625,0 0.234375,-0.015625 0.359375,-0.046875 0.09375,-0.484375 0.171875,-0.734375 0.25,-1.21875 0.25,-1.265625 1.5,-2.421875 1.875,-2.421875 0.171875,0 0.1875,0.171875 0.1875,0.4375 C 3.453125,-3.09375 3.40625,-2.75 3.375,-2.65625 L 3.03125,-1 c -0.046875,0.21875 -0.078125,0.453125 -0.078125,0.53125 0,0.296875 0.125,0.53125 0.34375,0.53125 0.484375,0 1.203125,-0.765625 1.3125,-0.953125 C 4.609375,-0.953125 4.5625,-1.0625 4.53125,-1.0625 4.5,-1.03125 4.03125,-0.5 3.8125,-0.5 c -0.09375,0 -0.109375,-0.15625 -0.109375,-0.25 0,-0.046875 0.03125,-0.21875 0.046875,-0.3125 L 4.09375,-2.625 c 0.078125,-0.328125 0.140625,-0.78125 0.140625,-1.09375 0,-0.40625 -0.171875,-0.671875 -0.640625,-0.671875 -0.671875,0 -1.84375,1.65625 -1.96875,1.90625 z m 0,0"
               id="id-13a02a00-04da-431f-84eb-8a12f42da3f9" />
          </symbol>
        </g>
      </defs>
      <g
         id="id-cf9efefa-c9f8-4c50-a8b5-0f4ede9167b5"
         transform="translate(-148.922,-127.999)"
         style="fill:#000000;stroke-width:0">
        <g
           style="fill:#000000;fill-opacity:1;stroke-width:0"
           id="id-03bb8cd3-b322-429f-b3f6-8e19eb520a2c">
          <g
             transform="translate(148.712,134.765)"
             style="fill:#000000;stroke-width:0"
             id="g14754">
            <path
               style="fill:#000000;stroke:none;stroke-width:0"
               d="m 0.890625,-5.4375 v 4.3125 c 0,0.28125 0,0.5625 -0.046875,0.71875 -0.03125,0.109375 -0.5,0.15625 -0.625,0.15625 V 0.03125 C 0.625,0.015625 0.875,-0.015625 1.25,-0.015625 c 0.390625,0 0.65625,0.03125 1.078125,0.046875 V -0.25 C 2.1875,-0.25 1.71875,-0.296875 1.6875,-0.40625 1.640625,-0.5625 1.640625,-0.84375 1.640625,-1.125 V -5.75 C 1.640625,-6.296875 1.75,-6.59375 1.75,-6.59375 1.75,-6.671875 1.6875,-6.765625 1.640625,-6.765625 1.21875,-6.5625 0.734375,-6.421875 0.234375,-6.375 c -0.046875,0.015625 -0.015625,0.265625 0,0.265625 0.265625,0 0.546875,0.03125 0.609375,0.171875 0.046875,0.109375 0.046875,0.359375 0.046875,0.5 z m 0,0"
               id="id-a643ebff-c432-4f80-8bff-dfd149958eb3" />
          </g>
          <g
             transform="translate(151.223,134.765)"
             style="fill:#000000;stroke-width:0"
             id="g14757">
            <path
               style="fill:#000000;stroke:none;stroke-width:0"
               d="m 3.1875,-4.359375 c -0.484375,0 -1.140625,0.5 -1.328125,0.703125 -0.015625,0.015625 -0.03125,0.03125 -0.03125,0.03125 -0.03125,0 -0.03125,-0.03125 -0.03125,-0.046875 0,-0.078125 0.0625,-0.484375 0.0625,-0.5625 0,-0.015625 -0.0625,-0.046875 -0.109375,-0.046875 -0.390625,0.15625 -0.90625,0.25 -1.40625,0.296875 v 0.265625 c 0.0625,0 0.578125,0 0.640625,0.1875 0.046875,0.109375 0.046875,0.421875 0.046875,0.546875 v 1.828125 c 0,0.296875 0,0.578125 -0.046875,0.75 -0.03125,0.109375 -0.5,0.15625 -0.625,0.15625 V 0.03125 C 0.75,0.015625 1.03125,-0.015625 1.40625,-0.015625 c 0.390625,0 0.640625,0.03125 1.0625,0.046875 V -0.25 c -0.125,0 -0.59375,-0.046875 -0.625,-0.15625 -0.0625,-0.171875 -0.0625,-0.453125 -0.0625,-0.75 v -2.078125 c 0,-0.109375 0.59375,-0.5625 0.953125,-0.5625 0.78125,0 0.96875,0.390625 0.96875,1.640625 v 1 c 0,0.296875 0,0.578125 -0.046875,0.75 C 3.625,-0.296875 3.15625,-0.25 3.03125,-0.25 V 0.03125 C 3.4375,0.015625 3.6875,-0.015625 4.078125,-0.015625 c 0.390625,0 0.65625,0.03125 1.0625,0.046875 V -0.25 C 5.015625,-0.25 4.53125,-0.296875 4.5,-0.40625 4.453125,-0.578125 4.453125,-0.84375 4.453125,-1.140625 V -2.25 C 4.453125,-3.703125 4.25,-4.359375 3.1875,-4.359375 Z m 0,0"
               id="id-5edd6e1e-c52c-4749-9ab2-489b77589f11" />
          </g>
        </g>
        <g
           style="fill:#000000;fill-opacity:1;stroke-width:0"
           id="id-0de11741-c3f3-4e30-be7f-5413b66916b0">
          <g
             transform="translate(158.323,134.765)"
             style="fill:#000000;stroke-width:0"
             id="g14761">
            <path
               style="fill:#000000;stroke:none;stroke-width:0"
               d="m 1.796875,-3.328125 c 0.0625,-0.21875 0.09375,-0.453125 0.09375,-0.546875 0,-0.296875 -0.171875,-0.515625 -0.390625,-0.515625 -0.484375,0 -1.171875,0.765625 -1.28125,0.953125 0,0.0625 0.078125,0.1875 0.09375,0.1875 0.03125,-0.03125 0.5,-0.59375 0.71875,-0.59375 0.09375,0 0.09375,0.171875 0.09375,0.265625 0,0.046875 -0.03125,0.265625 -0.03125,0.3125 L 0.421875,0 c 0.125,0.03125 0.21875,0.046875 0.359375,0.046875 0.140625,0 0.234375,-0.015625 0.359375,-0.046875 0.09375,-0.484375 0.171875,-0.734375 0.25,-1.21875 0.25,-1.265625 1.5,-2.421875 1.875,-2.421875 0.171875,0 0.1875,0.171875 0.1875,0.4375 C 3.453125,-3.09375 3.40625,-2.75 3.375,-2.65625 L 3.03125,-1 c -0.046875,0.21875 -0.078125,0.453125 -0.078125,0.53125 0,0.296875 0.125,0.53125 0.34375,0.53125 0.484375,0 1.203125,-0.765625 1.3125,-0.953125 C 4.609375,-0.953125 4.5625,-1.0625 4.53125,-1.0625 4.5,-1.03125 4.03125,-0.5 3.8125,-0.5 c -0.09375,0 -0.109375,-0.15625 -0.109375,-0.25 0,-0.046875 0.03125,-0.21875 0.046875,-0.3125 L 4.09375,-2.625 c 0.078125,-0.328125 0.140625,-0.78125 0.140625,-1.09375 0,-0.40625 -0.171875,-0.671875 -0.640625,-0.671875 -0.671875,0 -1.84375,1.65625 -1.96875,1.90625 z m 0,0"
               id="id-16e4e498-d0c7-4d31-9872-9901e995da95" />
          </g>
        </g>
      </g>
    </g>
  </g>
</svg>
