<?xml version="1.0" encoding="UTF-8" standalone="no"?>
<svg
   xmlns:ns2="http://www.iki.fi/pav/software/textext/"
   xmlns:dc="http://purl.org/dc/elements/1.1/"
   xmlns:cc="http://creativecommons.org/ns#"
   xmlns:rdf="http://www.w3.org/1999/02/22-rdf-syntax-ns#"
   xmlns:svg="http://www.w3.org/2000/svg"
   xmlns="http://www.w3.org/2000/svg"
   xmlns:sodipodi="http://sodipodi.sourceforge.net/DTD/sodipodi-0.dtd"
   xmlns:inkscape="http://www.inkscape.org/namespaces/inkscape"
   width="53.511143mm"
   height="29.110992mm"
   viewBox="0 0 53.511143 29.110992"
   version="1.1"
   id="svg6728"
   inkscape:version="1.0.1 (3bc2e813f5, 2020-09-07)"
   sodipodi:docname="fig_5_4.svg">
  <defs
     id="defs6722">
    <marker
       inkscape:stockid="Arrow1Mend"
       orient="auto"
       refY="0"
       refX="0"
       id="marker7429"
       style="overflow:visible"
       inkscape:isstock="true">
      <path
         id="path7427"
         d="M 0,0 5,-5 -12.5,0 5,5 Z"
         style="fill:#000000;fill-opacity:1;fill-rule:evenodd;stroke:#000000;stroke-width:1pt;stroke-opacity:1"
         transform="matrix(-0.4,0,0,-0.4,-4,0)" />
    </marker>
    <marker
       inkscape:stockid="Arrow1Mend"
       orient="auto"
       refY="0"
       refX="0"
       id="marker7373"
       style="overflow:visible"
       inkscape:isstock="true">
      <path
         id="path7371"
         d="M 0,0 5,-5 -12.5,0 5,5 Z"
         style="fill:#000000;fill-opacity:1;fill-rule:evenodd;stroke:#000000;stroke-width:1pt;stroke-opacity:1"
         transform="matrix(-0.4,0,0,-0.4,-4,0)" />
    </marker>
    <pattern
       id="EMFhbasepattern"
       patternUnits="userSpaceOnUse"
       width="6"
       height="6"
       x="0"
       y="0" />
    <marker
       inkscape:stockid="Arrow1Mend"
       orient="auto"
       refY="0"
       refX="0"
       id="Arrow1Mend-1-1"
       style="overflow:visible"
       inkscape:isstock="true"
       inkscape:collect="always">
      <path
         id="path5846-4-5"
         d="M 0,0 5,-5 -12.5,0 5,5 Z"
         style="fill:#000000;fill-opacity:1;fill-rule:evenodd;stroke:#000000;stroke-width:1pt;stroke-opacity:1"
         transform="matrix(-0.4,0,0,-0.4,-4,0)" />
    </marker>
    <marker
       inkscape:isstock="true"
       style="overflow:visible"
       id="Arrow1Mstart-8-0"
       refX="0"
       refY="0"
       orient="auto"
       inkscape:stockid="Arrow1Mstart">
      <path
         transform="matrix(0.4,0,0,0.4,4,0)"
         style="fill:#000000;fill-opacity:1;fill-rule:evenodd;stroke:#000000;stroke-width:1pt;stroke-opacity:1"
         d="M 0,0 5,-5 -12.5,0 5,5 Z"
         id="path5843-9-1" />
    </marker>
    <marker
       inkscape:collect="always"
       inkscape:stockid="Arrow1Mend"
       orient="auto"
       refY="0"
       refX="0"
       id="marker7034"
       style="overflow:visible"
       inkscape:isstock="true">
      <path
         id="path7032"
         d="M 0,0 5,-5 -12.5,0 5,5 Z"
         style="fill:#000000;fill-opacity:1;fill-rule:evenodd;stroke:#000000;stroke-width:1pt;stroke-opacity:1"
         transform="matrix(-0.4,0,0,-0.4,-4,0)" />
    </marker>
    <g
       id="g1441">
      <symbol
         id="symbol1427"
         overflow="visible">
        <path
           id="path1425"
           d=""
           style="stroke:none" />
      </symbol>
      <symbol
         id="symbol1431"
         overflow="visible">
        <path
           id="path1429"
           d="m 2.84375,0.046875 c 1.46875,0 2.4375,-0.8125 2.828125,-2.828125 l 0.53125,-2.734375 C 6.265625,-5.890625 6.3125,-6.046875 6.4375,-6.1875 6.515625,-6.3125 7.09375,-6.40625 7.203125,-6.40625 7.28125,-6.515625 7.28125,-6.640625 7.25,-6.6875 c -0.4375,0.015625 -0.59375,0.046875 -1.03125,0.046875 -0.40625,0 -0.640625,-0.03125 -1,-0.046875 -0.03125,0.0625 -0.078125,0.21875 -0.046875,0.28125 0.15625,0 0.59375,0.109375 0.625,0.21875 0.03125,0.0625 0.046875,0.125 0.046875,0.203125 0,0.125 -0.03125,0.265625 -0.078125,0.484375 l -0.53125,2.734375 c -0.359375,1.734375 -1.09375,2.21875 -2.0625,2.21875 -0.921875,0 -1.375,-0.515625 -1.375,-1.484375 0,-0.28125 0.03125,-0.59375 0.09375,-0.953125 l 0.484375,-2.5 C 2.4375,-5.78125 2.5,-6.0625 2.578125,-6.21875 2.625,-6.328125 3.140625,-6.390625 3.25,-6.390625 3.296875,-6.4375 3.34375,-6.625 3.3125,-6.671875 2.921875,-6.65625 2.5625,-6.625 2.203125,-6.625 c -0.359375,0 -0.71875,-0.03125 -1.09375,-0.046875 -0.0625,0.046875 -0.09375,0.234375 -0.0625,0.28125 0.109375,0 0.609375,0.0625 0.625,0.171875 v 0.0625 c 0,0.171875 -0.0625,0.421875 -0.109375,0.671875 L 0.984375,-2.53125 c -0.03125,0.234375 -0.0625,0.453125 -0.0625,0.65625 0,1.203125 0.765625,1.921875 1.921875,1.921875 z m 0,0"
           style="stroke:none" />
      </symbol>
      <symbol
         id="symbol1435"
         overflow="visible">
        <path
           id="path1433"
           d="m 0.359375,0 h 2.90625 V -3.515625 H 0.359375 Z M 0.71875,-0.359375 v -2.78125 h 2.1875 v 2.78125 z m 0,0"
           style="stroke:none" />
      </symbol>
      <symbol
         id="symbol1439"
         overflow="visible">
        <path
           id="path1437"
           d="m 1.53125,0.046875 c 1.015625,0 1.765625,-0.765625 1.765625,-1.703125 0,-0.640625 -0.453125,-1.453125 -1.3125,-1.453125 -0.28125,0 -0.765625,0.3125 -0.875,0.390625 C 1.0625,-2.6875 1.0625,-2.765625 1.0625,-2.796875 V -4.1875 c 0,-0.390625 0.078125,-0.625 0.078125,-0.625 0,-0.046875 -0.03125,-0.109375 -0.078125,-0.109375 -0.296875,0.140625 -0.65625,0.25 -1.015625,0.28125 -0.03125,0 -0.015625,0.1875 -0.015625,0.1875 0.203125,0 0.390625,0.015625 0.453125,0.125 0.03125,0.078125 0.03125,0.28125 0.03125,0.375 v 3.171875 c 0,0.15625 -0.015625,0.375 -0.09375,0.53125 0,0.03125 0.0625,0.140625 0.09375,0.140625 0.171875,-0.046875 0.3125,0 0.484375,0.046875 0.140625,0.046875 0.40625,0.109375 0.53125,0.109375 z M 1.640625,-2.6875 c 0.640625,0 1.0625,0.5 1.0625,1.3125 0,0.578125 -0.4375,1.1875 -0.96875,1.1875 -0.3125,0 -0.671875,-0.203125 -0.671875,-0.515625 v -1.71875 c 0,-0.03125 0.015625,-0.0625 0.03125,-0.078125 0.0625,-0.0625 0.359375,-0.1875 0.546875,-0.1875 z m 0,0"
           style="stroke:none" />
      </symbol>
    </g>
    <g
       id="g14792">
      <symbol
         id="symbol14786"
         overflow="visible">
        <path
           id="path14784"
           d=""
           style="stroke:none" />
      </symbol>
      <symbol
         id="symbol14790"
         overflow="visible">
        <path
           id="path14788"
           d="M 2.984375,-0.890625 2.65625,-2.46875 c 0.1875,-0.375 0.375,-0.671875 0.609375,-1.0625 0.0625,-0.125 0.140625,-0.234375 0.265625,-0.234375 H 3.5625 c 0.21875,0.015625 0.265625,0.28125 0.46875,0.28125 0.21875,0 0.359375,-0.203125 0.359375,-0.4375 0,-0.15625 -0.046875,-0.265625 -0.109375,-0.34375 -0.15625,-0.09375 -0.328125,-0.125 -0.46875,-0.125 -0.515625,0 -0.78125,0.671875 -1.234375,1.5625 L 2.4375,-3.515625 c -0.109375,-0.546875 -0.390625,-0.875 -0.6875,-0.875 -0.453125,0 -1.15625,0.796875 -1.234375,0.9375 0,0.046875 0.078125,0.1875 0.109375,0.1875 0.109375,-0.140625 0.5625,-0.578125 0.765625,-0.578125 0.171875,0 0.28125,0.171875 0.3125,0.390625 l 0.28125,1.40625 c -0.25,0.484375 -0.421875,0.78125 -0.6875,1.25 C 1.21875,-0.671875 1.140625,-0.5625 1,-0.5625 H 0.984375 c -0.21875,-0.03125 -0.25,-0.296875 -0.453125,-0.296875 -0.234375,0 -0.375,0.21875 -0.375,0.453125 0,0.140625 0.046875,0.25 0.109375,0.34375 0.15625,0.09375 0.328125,0.109375 0.46875,0.109375 0.5625,0 0.828125,-0.765625 1.328125,-1.734375 L 2.25,-0.828125 c 0.109375,0.53125 0.375,0.875 0.6875,0.875 0.4375,0 1.15625,-0.796875 1.234375,-0.9375 C 4.171875,-0.9375 4.09375,-1.0625 4.0625,-1.0625 3.953125,-0.921875 3.5,-0.53125 3.328125,-0.53125 c -0.21875,0 -0.3125,-0.140625 -0.34375,-0.359375 z m 0,0"
           style="stroke:none" />
      </symbol>
    </g>
  </defs>
  <sodipodi:namedview
     id="base"
     pagecolor="#ffffff"
     bordercolor="#666666"
     borderopacity="1.0"
     inkscape:pageopacity="0.0"
     inkscape:pageshadow="2"
     inkscape:zoom="1.979899"
     inkscape:cx="176.03271"
     inkscape:cy="80.614781"
     inkscape:document-units="mm"
     inkscape:current-layer="layer1"
     inkscape:document-rotation="0"
     showgrid="false"
     inkscape:window-width="1600"
     inkscape:window-height="837"
     inkscape:window-x="-8"
     inkscape:window-y="-8"
     inkscape:window-maximized="1" />
  <metadata
     id="metadata6725">
    <rdf:RDF>
      <cc:Work
         rdf:about="">
        <dc:format>image/svg+xml</dc:format>
        <dc:type
           rdf:resource="http://purl.org/dc/dcmitype/StillImage" />
        <dc:title />
      </cc:Work>
    </rdf:RDF>
  </metadata>
  <g
     inkscape:label="Layer 1"
     inkscape:groupmode="layer"
     id="layer1"
     transform="translate(-71.723556,-13.131994)">
    <path
       style="fill:none;stroke:#000000;stroke-width:0.264583;stroke-linecap:round;stroke-linejoin:miter;stroke-miterlimit:4;stroke-dasharray:none;stroke-opacity:1;marker-end:url(#Arrow1Mend-1-1)"
       d="M 77.910808,13.858042 V 40.33966"
       id="path6717-8"
       sodipodi:nodetypes="cc" />
    <path
       style="fill:none;stroke:#000000;stroke-width:0.265;stroke-linecap:round;stroke-linejoin:miter;stroke-miterlimit:4;stroke-dasharray:none;stroke-opacity:1"
       d="M 91.139983,13.858042 V 40.33966"
       id="path7369"
       sodipodi:nodetypes="cc" />
    <path
       style="fill:none;stroke:#000000;stroke-width:0.265;stroke-linecap:round;stroke-linejoin:miter;stroke-miterlimit:4;stroke-dasharray:none;stroke-opacity:1"
       d="m 104.41939,19.403884 v 20.95248"
       id="path7415"
       sodipodi:nodetypes="cc" />
    <path
       style="fill:none;stroke:#000000;stroke-width:0.265;stroke-linecap:round;stroke-linejoin:miter;stroke-miterlimit:4;stroke-dasharray:none;stroke-opacity:1"
       d="m 117.4485,19.403884 v 20.95248"
       id="path7417"
       sodipodi:nodetypes="cc" />
    <path
       style="fill:none;stroke:#000000;stroke-width:0.264583;stroke-linecap:round;stroke-linejoin:miter;stroke-miterlimit:4;stroke-dasharray:none;stroke-opacity:1;marker-end:url(#marker7429)"
       d="M 73.576063,19.338527 H 124.71329"
       id="path7425"
       sodipodi:nodetypes="cc" />
    <path
       style="fill:none;stroke:#000000;stroke-width:0.198437;stroke-linecap:round;stroke-linejoin:miter;stroke-miterlimit:4;stroke-dasharray:none;stroke-opacity:1;marker-start:url(#Arrow1Mstart-8-0);marker-end:url(#marker7034)"
       d="M 90.597613,16.029441 H 78.330229"
       id="path7015-2"
       sodipodi:nodetypes="cc" />
    <circle
       style="opacity:1;fill:#ffffff;stroke:#aa9e95;stroke-width:0.41317;stroke-linejoin:round;stroke-miterlimit:4;stroke-dasharray:none"
       id="path3435-3"
       cx="77.922829"
       cy="19.431026"
       r="1.043415" />
    <circle
       style="opacity:1;fill:#ffffff;stroke:#aa9e95;stroke-width:0.41317;stroke-linejoin:round;stroke-miterlimit:4;stroke-dasharray:none"
       id="circle7697"
       cx="91.152008"
       cy="19.431026"
       r="1.043415" />
    <circle
       style="opacity:1;fill:#ffffff;stroke:#aa9e95;stroke-width:0.41317;stroke-linejoin:round;stroke-miterlimit:4;stroke-dasharray:none"
       id="circle7699"
       cx="104.38118"
       cy="19.431026"
       r="1.043415" />
    <circle
       style="opacity:1;fill:#ffffff;stroke:#aa9e95;stroke-width:0.41317;stroke-linejoin:round;stroke-miterlimit:4;stroke-dasharray:none"
       id="circle7701"
       cx="117.41"
       cy="19.431026"
       r="1.043415" />
    <g
       transform="matrix(0.42333399,0,0,0.42333399,122.02537,16.165819)"
       ns2:version="1.1.0"
       ns2:texconverter="pdflatex"
       ns2:pdfconverter="inkscape"
       ns2:text="$x$"
       ns2:preamble="C:\\Users\\flvisa\\Desktop\\lna\\latexify_books\\textext_preamble.tex"
       ns2:scale="1.1999998299215373"
       ns2:alignment="middle center"
       ns2:inkscapeversion="1.0"
       ns2:jacobian_sqrt="0.423334"
       id="g14458">
      <defs
         id="id-ea2f0224-c95a-42e1-afb2-5a9b8dba5e7c">
        <g
           id="g7750">
          <symbol
             id="symbol7744"
             overflow="visible">
            <path
               id="path7742"
               d=""
               style="stroke:none" />
          </symbol>
          <symbol
             id="symbol7748"
             overflow="visible">
            <path
               id="path7746"
               d="M 2.984375,-0.890625 2.65625,-2.46875 c 0.1875,-0.375 0.375,-0.671875 0.609375,-1.0625 0.0625,-0.125 0.140625,-0.234375 0.265625,-0.234375 H 3.5625 c 0.21875,0.015625 0.265625,0.28125 0.46875,0.28125 0.21875,0 0.359375,-0.203125 0.359375,-0.4375 0,-0.15625 -0.046875,-0.265625 -0.109375,-0.34375 -0.15625,-0.09375 -0.328125,-0.125 -0.46875,-0.125 -0.515625,0 -0.78125,0.671875 -1.234375,1.5625 L 2.4375,-3.515625 c -0.109375,-0.546875 -0.390625,-0.875 -0.6875,-0.875 -0.453125,0 -1.15625,0.796875 -1.234375,0.9375 0,0.046875 0.078125,0.1875 0.109375,0.1875 0.109375,-0.140625 0.5625,-0.578125 0.765625,-0.578125 0.171875,0 0.28125,0.171875 0.3125,0.390625 l 0.28125,1.40625 c -0.25,0.484375 -0.421875,0.78125 -0.6875,1.25 C 1.21875,-0.671875 1.140625,-0.5625 1,-0.5625 H 0.984375 c -0.21875,-0.03125 -0.25,-0.296875 -0.453125,-0.296875 -0.234375,0 -0.375,0.21875 -0.375,0.453125 0,0.140625 0.046875,0.25 0.109375,0.34375 0.15625,0.09375 0.328125,0.109375 0.46875,0.109375 0.5625,0 0.828125,-0.765625 1.328125,-1.734375 L 2.25,-0.828125 c 0.109375,0.53125 0.375,0.875 0.6875,0.875 0.4375,0 1.15625,-0.796875 1.234375,-0.9375 C 4.171875,-0.9375 4.09375,-1.0625 4.0625,-1.0625 3.953125,-0.921875 3.5,-0.53125 3.328125,-0.53125 c -0.21875,0 -0.3125,-0.140625 -0.34375,-0.359375 z m 0,0"
               style="stroke:none" />
          </symbol>
        </g>
      </defs>
      <g
         transform="translate(-149.167,-130.374)"
         id="id-a4fbe292-06ce-495d-afcd-094d48e7ac10">
        <g
           id="id-25f633be-94aa-4c09-b246-8cee4e4b7856"
           style="fill:#000000;fill-opacity:1">
          <g
             transform="translate(149.011,134.765)"
             id="g14454">
            <path
               id="id-2549147a-ab36-4c01-86d8-99d99ede860c"
               d="M 2.984375,-0.890625 2.65625,-2.46875 c 0.1875,-0.375 0.375,-0.671875 0.609375,-1.0625 0.0625,-0.125 0.140625,-0.234375 0.265625,-0.234375 H 3.5625 c 0.21875,0.015625 0.265625,0.28125 0.46875,0.28125 0.21875,0 0.359375,-0.203125 0.359375,-0.4375 0,-0.15625 -0.046875,-0.265625 -0.109375,-0.34375 -0.15625,-0.09375 -0.328125,-0.125 -0.46875,-0.125 -0.515625,0 -0.78125,0.671875 -1.234375,1.5625 L 2.4375,-3.515625 c -0.109375,-0.546875 -0.390625,-0.875 -0.6875,-0.875 -0.453125,0 -1.15625,0.796875 -1.234375,0.9375 0,0.046875 0.078125,0.1875 0.109375,0.1875 0.109375,-0.140625 0.5625,-0.578125 0.765625,-0.578125 0.171875,0 0.28125,0.171875 0.3125,0.390625 l 0.28125,1.40625 c -0.25,0.484375 -0.421875,0.78125 -0.6875,1.25 C 1.21875,-0.671875 1.140625,-0.5625 1,-0.5625 H 0.984375 c -0.21875,-0.03125 -0.25,-0.296875 -0.453125,-0.296875 -0.234375,0 -0.375,0.21875 -0.375,0.453125 0,0.140625 0.046875,0.25 0.109375,0.34375 0.15625,0.09375 0.328125,0.109375 0.46875,0.109375 0.5625,0 0.828125,-0.765625 1.328125,-1.734375 L 2.25,-0.828125 c 0.109375,0.53125 0.375,0.875 0.6875,0.875 0.4375,0 1.15625,-0.796875 1.234375,-0.9375 C 4.171875,-0.9375 4.09375,-1.0625 4.0625,-1.0625 3.953125,-0.921875 3.5,-0.53125 3.328125,-0.53125 c -0.21875,0 -0.3125,-0.140625 -0.34375,-0.359375 z m 0,0"
               style="stroke:none" />
          </g>
        </g>
      </g>
    </g>
    <g
       transform="matrix(0.423334,0,0,0.423334,71.723609,38.752809)"
       ns2:version="1.1.0"
       ns2:texconverter="pdflatex"
       ns2:pdfconverter="inkscape"
       ns2:text="$\\ab{U}{a}$\n"
       ns2:preamble="C:\\Users\\flvisa\\Desktop\\lna\\latexify_books\\textext_preamble.tex"
       ns2:scale="1.1999999716535878"
       ns2:alignment="middle center"
       ns2:inkscapeversion="1.0.1"
       ns2:jacobian_sqrt="0.423334"
       id="g7827">
      <defs
         id="id-f528d313-d446-473b-963f-bfee1bde365c">
        <g
           id="id-6c907d1f-9f00-46eb-ab2b-8582ef799079">
          <symbol
             overflow="visible"
             id="id-63ab81c0-9ae2-49c4-ae40-3b67814e131c">
            <path
               style="stroke:none"
               d=""
               id="id-cd49ed6a-50a0-4acd-8b24-18f9fb772053" />
          </symbol>
          <symbol
             overflow="visible"
             id="id-47af0934-82b4-460b-ba33-9c161f928ef5">
            <path
               style="stroke:none"
               d="m 2.84375,0.046875 c 1.46875,0 2.4375,-0.8125 2.828125,-2.828125 l 0.53125,-2.734375 C 6.265625,-5.890625 6.3125,-6.046875 6.4375,-6.1875 6.515625,-6.3125 7.09375,-6.40625 7.203125,-6.40625 7.28125,-6.515625 7.28125,-6.640625 7.25,-6.6875 c -0.4375,0.015625 -0.59375,0.046875 -1.03125,0.046875 -0.40625,0 -0.640625,-0.03125 -1,-0.046875 -0.03125,0.0625 -0.078125,0.21875 -0.046875,0.28125 0.15625,0 0.59375,0.109375 0.625,0.21875 0.03125,0.0625 0.046875,0.125 0.046875,0.203125 0,0.125 -0.03125,0.265625 -0.078125,0.484375 l -0.53125,2.734375 c -0.359375,1.734375 -1.09375,2.21875 -2.0625,2.21875 -0.921875,0 -1.375,-0.515625 -1.375,-1.484375 0,-0.28125 0.03125,-0.59375 0.09375,-0.953125 l 0.484375,-2.5 C 2.4375,-5.78125 2.5,-6.0625 2.578125,-6.21875 2.625,-6.328125 3.140625,-6.390625 3.25,-6.390625 3.296875,-6.4375 3.34375,-6.625 3.3125,-6.671875 2.921875,-6.65625 2.5625,-6.625 2.203125,-6.625 c -0.359375,0 -0.71875,-0.03125 -1.09375,-0.046875 -0.0625,0.046875 -0.09375,0.234375 -0.0625,0.28125 0.109375,0 0.609375,0.0625 0.625,0.171875 v 0.0625 c 0,0.171875 -0.0625,0.421875 -0.109375,0.671875 L 0.984375,-2.53125 c -0.03125,0.234375 -0.0625,0.453125 -0.0625,0.65625 0,1.203125 0.765625,1.921875 1.921875,1.921875 z m 0,0"
               id="id-47e9e8f6-0eae-4da6-a748-308ef87d6a51" />
          </symbol>
          <symbol
             overflow="visible"
             id="id-046578b9-35d7-470a-9864-07e38ac2688d">
            <path
               style="stroke:none"
               d="m 0.359375,0 h 2.90625 V -3.515625 H 0.359375 Z M 0.71875,-0.359375 v -2.78125 h 2.1875 v 2.78125 z m 0,0"
               id="id-c208c014-bb11-4daf-9e83-abae65500196" />
          </symbol>
          <symbol
             overflow="visible"
             id="id-7aee519a-0316-42ff-918f-ead85d8a22fe">
            <path
               style="stroke:none"
               d="m 1.34375,-0.328125 c -0.265625,0 -0.484375,-0.234375 -0.484375,-0.5 0,-0.28125 0.171875,-0.46875 0.4375,-0.578125 C 1.4375,-1.453125 1.78125,-1.5625 1.96875,-1.625 v 1 c 0,0.078125 -0.375,0.296875 -0.625,0.296875 z m 0.390625,-2.84375 c -0.53125,0 -1.09375,0.390625 -1.3125,0.59375 -0.015625,0.03125 -0.046875,0.15625 -0.046875,0.1875 0,0.140625 0.09375,0.296875 0.25,0.296875 0.171875,0 0.28125,-0.09375 0.328125,-0.34375 C 1,-2.71875 1.09375,-2.90625 1.34375,-2.90625 c 0.359375,0 0.625,0.375 0.625,0.703125 V -2 c 0,0.125 0,0.15625 -0.078125,0.1875 C 1.6875,-1.71875 1.03125,-1.515625 0.625,-1.359375 0.46875,-1.3125 0.265625,-1.078125 0.265625,-0.78125 c 0,0.46875 0.375,0.84375 0.84375,0.84375 0.25,0 0.796875,-0.390625 0.890625,-0.484375 0.046875,0.21875 0.234375,0.46875 0.4375,0.46875 0.15625,0 0.453125,-0.1875 0.53125,-0.265625 C 3,-0.265625 3.015625,-0.3125 3.015625,-0.359375 c 0,-0.03125 -0.015625,-0.0625 -0.03125,-0.0625 -0.03125,0.015625 -0.109375,0.09375 -0.25,0.09375 -0.15625,0 -0.21875,-0.15625 -0.21875,-0.34375 v -1.5 c 0,-0.546875 -0.375,-1 -0.78125,-1 z m 0,0"
               id="id-a423f63f-96f2-482d-8e49-6573f34029a2" />
          </symbol>
        </g>
      </defs>
      <g
         id="id-5a2d85dd-a20e-4bf8-817e-97024e7a4dc2"
         transform="translate(-149.335,-128.077)">
        <g
           style="fill:#000000;fill-opacity:1"
           id="id-a5c4eb16-c090-4220-9bd0-2286b23422c9">
          <g
             transform="translate(148.413,134.765)"
             id="g7819">
            <path
               style="stroke:none"
               d="m 2.84375,0.046875 c 1.46875,0 2.4375,-0.8125 2.828125,-2.828125 l 0.53125,-2.734375 C 6.265625,-5.890625 6.3125,-6.046875 6.4375,-6.1875 6.515625,-6.3125 7.09375,-6.40625 7.203125,-6.40625 7.28125,-6.515625 7.28125,-6.640625 7.25,-6.6875 c -0.4375,0.015625 -0.59375,0.046875 -1.03125,0.046875 -0.40625,0 -0.640625,-0.03125 -1,-0.046875 -0.03125,0.0625 -0.078125,0.21875 -0.046875,0.28125 0.15625,0 0.59375,0.109375 0.625,0.21875 0.03125,0.0625 0.046875,0.125 0.046875,0.203125 0,0.125 -0.03125,0.265625 -0.078125,0.484375 l -0.53125,2.734375 c -0.359375,1.734375 -1.09375,2.21875 -2.0625,2.21875 -0.921875,0 -1.375,-0.515625 -1.375,-1.484375 0,-0.28125 0.03125,-0.59375 0.09375,-0.953125 l 0.484375,-2.5 C 2.4375,-5.78125 2.5,-6.0625 2.578125,-6.21875 2.625,-6.328125 3.140625,-6.390625 3.25,-6.390625 3.296875,-6.4375 3.34375,-6.625 3.3125,-6.671875 2.921875,-6.65625 2.5625,-6.625 2.203125,-6.625 c -0.359375,0 -0.71875,-0.03125 -1.09375,-0.046875 -0.0625,0.046875 -0.09375,0.234375 -0.0625,0.28125 0.109375,0 0.609375,0.0625 0.625,0.171875 v 0.0625 c 0,0.171875 -0.0625,0.421875 -0.109375,0.671875 L 0.984375,-2.53125 c -0.03125,0.234375 -0.0625,0.453125 -0.0625,0.65625 0,1.203125 0.765625,1.921875 1.921875,1.921875 z m 0,0"
               id="id-dffcc67a-521f-4e83-bf02-b970ecc2ff9a" />
          </g>
        </g>
        <g
           style="fill:#000000;fill-opacity:1"
           id="id-9e56f0e7-75c3-45ae-bdc9-e91ed10f7065">
          <g
             transform="translate(155.158,136.259)"
             id="g7823">
            <path
               style="stroke:none"
               d="m 1.34375,-0.328125 c -0.265625,0 -0.484375,-0.234375 -0.484375,-0.5 0,-0.28125 0.171875,-0.46875 0.4375,-0.578125 C 1.4375,-1.453125 1.78125,-1.5625 1.96875,-1.625 v 1 c 0,0.078125 -0.375,0.296875 -0.625,0.296875 z m 0.390625,-2.84375 c -0.53125,0 -1.09375,0.390625 -1.3125,0.59375 -0.015625,0.03125 -0.046875,0.15625 -0.046875,0.1875 0,0.140625 0.09375,0.296875 0.25,0.296875 0.171875,0 0.28125,-0.09375 0.328125,-0.34375 C 1,-2.71875 1.09375,-2.90625 1.34375,-2.90625 c 0.359375,0 0.625,0.375 0.625,0.703125 V -2 c 0,0.125 0,0.15625 -0.078125,0.1875 C 1.6875,-1.71875 1.03125,-1.515625 0.625,-1.359375 0.46875,-1.3125 0.265625,-1.078125 0.265625,-0.78125 c 0,0.46875 0.375,0.84375 0.84375,0.84375 0.25,0 0.796875,-0.390625 0.890625,-0.484375 0.046875,0.21875 0.234375,0.46875 0.4375,0.46875 0.15625,0 0.453125,-0.1875 0.53125,-0.265625 C 3,-0.265625 3.015625,-0.3125 3.015625,-0.359375 c 0,-0.03125 -0.015625,-0.0625 -0.03125,-0.0625 -0.03125,0.015625 -0.109375,0.09375 -0.25,0.09375 -0.15625,0 -0.21875,-0.15625 -0.21875,-0.34375 v -1.5 c 0,-0.546875 -0.375,-1 -0.78125,-1 z m 0,0"
               id="id-60999089-1d3f-4412-8866-313fe9453aec" />
          </g>
        </g>
      </g>
    </g>
    <g
       transform="matrix(0.423334,0,0,0.423334,83.941653,13.131835)"
       ns2:version="1.1.0"
       ns2:texconverter="pdflatex"
       ns2:pdfconverter="inkscape"
       ns2:text="$a$\n\n"
       ns2:preamble="C:\\Users\\flvisa\\Desktop\\lna\\latexify_books\\textext_preamble.tex"
       ns2:scale="1.1999999716535878"
       ns2:alignment="middle center"
       ns2:inkscapeversion="1.0.1"
       ns2:jacobian_sqrt="0.423334"
       id="g7964">
      <defs
         id="id-c97ff252-9c87-4ead-b4b2-75f2fa56821f">
        <g
           id="id-1d167567-2072-411b-9afc-647e3c8675e6">
          <symbol
             overflow="visible"
             id="id-eb733c29-e959-400b-bc1c-ac5244b7d48f">
            <path
               style="stroke:none"
               d=""
               id="id-c966061e-0cb0-4c22-a00b-8e75f2d86dad" />
          </symbol>
          <symbol
             overflow="visible"
             id="id-02b49dd6-9b55-4ef8-a4c0-85999d77b630">
            <path
               style="stroke:none"
               d="m 3.078125,-4.390625 c -1.21875,0 -2.890625,1.5 -2.890625,3.25 0,0.71875 0.34375,1.1875 0.90625,1.1875 0.578125,0 1.28125,-1 1.484375,-1.359375 -0.03125,0.140625 -0.125,0.75 -0.125,0.84375 0,0.296875 0.125,0.53125 0.34375,0.53125 0.484375,0 1.203125,-0.765625 1.3125,-0.953125 0,-0.0625 -0.0625,-0.171875 -0.09375,-0.171875 C 3.984375,-1.03125 3.53125,-0.5 3.3125,-0.5 3.234375,-0.5 3.203125,-0.59375 3.203125,-0.71875 3.203125,-0.84375 3.234375,-1 3.25,-1.0625 L 3.875,-4.25 C 3.671875,-4.328125 3.421875,-4.390625 3.078125,-4.390625 Z m -0.46875,0.40625 c 0.125,0 0.375,0.046875 0.46875,0.140625 l -0.21875,1.078125 c -0.1875,0.96875 -0.890625,2.234375 -1.40625,2.234375 -0.34375,0 -0.515625,-0.359375 -0.515625,-1 0,-1.15625 0.890625,-2.453125 1.671875,-2.453125 z m 0,0"
               id="id-7a02b6b3-7345-48f4-8113-1c7a1f998ed0" />
          </symbol>
        </g>
      </defs>
      <g
         id="id-6969eda4-378e-4bda-852f-bfada1548f90"
         transform="translate(-149.1,-130.374)">
        <g
           style="fill:#000000;fill-opacity:1"
           id="id-dd7fd4ed-a549-4b94-b1b4-969032e8d696">
          <g
             transform="translate(148.912,134.765)"
             id="g7960">
            <path
               style="stroke:none"
               d="m 3.078125,-4.390625 c -1.21875,0 -2.890625,1.5 -2.890625,3.25 0,0.71875 0.34375,1.1875 0.90625,1.1875 0.578125,0 1.28125,-1 1.484375,-1.359375 -0.03125,0.140625 -0.125,0.75 -0.125,0.84375 0,0.296875 0.125,0.53125 0.34375,0.53125 0.484375,0 1.203125,-0.765625 1.3125,-0.953125 0,-0.0625 -0.0625,-0.171875 -0.09375,-0.171875 C 3.984375,-1.03125 3.53125,-0.5 3.3125,-0.5 3.234375,-0.5 3.203125,-0.59375 3.203125,-0.71875 3.203125,-0.84375 3.234375,-1 3.25,-1.0625 L 3.875,-4.25 C 3.671875,-4.328125 3.421875,-4.390625 3.078125,-4.390625 Z m -0.46875,0.40625 c 0.125,0 0.375,0.046875 0.46875,0.140625 l -0.21875,1.078125 c -0.1875,0.96875 -0.890625,2.234375 -1.40625,2.234375 -0.34375,0 -0.515625,-0.359375 -0.515625,-1 0,-1.15625 0.890625,-2.453125 1.671875,-2.453125 z m 0,0"
               id="id-460632c8-fbfa-41b6-97fa-e3cf736fb808" />
          </g>
        </g>
      </g>
    </g>
    <path
       style="fill:none;stroke:#506a68;stroke-width:0.396875;stroke-linecap:round;stroke-linejoin:miter;stroke-miterlimit:4;stroke-dasharray:none;stroke-opacity:1"
       d="m 79.38681,36.161691 c 0,0 0.03337,-13.387601 5.137176,-13.443781"
       id="path7979"
       sodipodi:nodetypes="cc" />
    <path
       style="fill:none;stroke:#506a68;stroke-width:0.396875;stroke-linecap:round;stroke-linejoin:miter;stroke-miterlimit:4;stroke-dasharray:none;stroke-opacity:1"
       d="m 89.661162,36.161691 c 0,0 -0.03337,-13.387601 -5.137176,-13.443781"
       id="path7981"
       sodipodi:nodetypes="cc" />
    <path
       style="fill:none;stroke:#506a68;stroke-width:0.396875;stroke-linecap:round;stroke-linejoin:miter;stroke-miterlimit:4;stroke-dasharray:none;stroke-opacity:1"
       d="m 92.745437,36.161691 c 0,0 0.03337,-13.387601 5.137176,-13.443781"
       id="path7983"
       sodipodi:nodetypes="cc" />
    <path
       style="fill:none;stroke:#506a68;stroke-width:0.396875;stroke-linecap:round;stroke-linejoin:miter;stroke-miterlimit:4;stroke-dasharray:none;stroke-opacity:1"
       d="m 101.07792,26.038858 c 0,0 -0.80822,-3.27658 -3.195307,-3.320948"
       id="path7985"
       sodipodi:nodetypes="cc" />
    <path
       style="fill:none;stroke:#506a68;stroke-width:0.396875;stroke-linecap:round;stroke-linejoin:miter;stroke-miterlimit:4;stroke-dasharray:none;stroke-opacity:1"
       d="m 105.84519,36.161691 c 0,0 0.0334,-13.387601 5.13721,-13.443781"
       id="path7987"
       sodipodi:nodetypes="cc" />
    <path
       style="fill:none;stroke:#506a68;stroke-width:0.396875;stroke-linecap:round;stroke-linejoin:miter;stroke-miterlimit:4;stroke-dasharray:none;stroke-opacity:1"
       d="m 116.1196,36.161691 c 0,0 -0.0334,-13.387601 -5.1372,-13.443781"
       id="path7989"
       sodipodi:nodetypes="cc" />
  </g>
</svg>
