<?xml version="1.0" encoding="UTF-8" standalone="no"?>
<svg
   xmlns:ns2="http://www.iki.fi/pav/software/textext/"
   xmlns:dc="http://purl.org/dc/elements/1.1/"
   xmlns:cc="http://creativecommons.org/ns#"
   xmlns:rdf="http://www.w3.org/1999/02/22-rdf-syntax-ns#"
   xmlns:svg="http://www.w3.org/2000/svg"
   xmlns="http://www.w3.org/2000/svg"
   xmlns:sodipodi="http://sodipodi.sourceforge.net/DTD/sodipodi-0.dtd"
   xmlns:inkscape="http://www.inkscape.org/namespaces/inkscape"
   width="20.93829mm"
   height="2.7424934mm"
   viewBox="0 0 20.93829 2.7424933"
   version="1.1"
   id="svg8"
   inkscape:version="1.0.1 (3bc2e813f5, 2020-09-07)"
   sodipodi:docname="tab_5_1-3.svg">
  <defs
     id="defs2">
    <pattern
       id="EMFhbasepattern"
       patternUnits="userSpaceOnUse"
       width="6"
       height="6"
       x="0"
       y="0" />
    <pattern
       id="EMFhbasepattern-6"
       patternUnits="userSpaceOnUse"
       width="6"
       height="6"
       x="0"
       y="0" />
  </defs>
  <sodipodi:namedview
     id="base"
     pagecolor="#ffffff"
     bordercolor="#666666"
     borderopacity="1.0"
     inkscape:pageopacity="0.0"
     inkscape:pageshadow="2"
     inkscape:zoom="2.8"
     inkscape:cx="101.47803"
     inkscape:cy="39.492976"
     inkscape:document-units="mm"
     inkscape:current-layer="layer1"
     inkscape:document-rotation="0"
     showgrid="false"
     inkscape:window-width="1600"
     inkscape:window-height="837"
     inkscape:window-x="-8"
     inkscape:window-y="-8"
     inkscape:window-maximized="1" />
  <metadata
     id="metadata5">
    <rdf:RDF>
      <cc:Work
         rdf:about="">
        <dc:format>image/svg+xml</dc:format>
        <dc:type
           rdf:resource="http://purl.org/dc/dcmitype/StillImage" />
        <dc:title></dc:title>
      </cc:Work>
    </rdf:RDF>
  </metadata>
  <g
     inkscape:label="Layer 1"
     inkscape:groupmode="layer"
     id="layer1"
     transform="translate(-29.738794,-40.5456)">
    <path
       style="fill:none;stroke:#000000;stroke-width:0.265;stroke-linecap:round;stroke-linejoin:miter;stroke-miterlimit:4;stroke-dasharray:none;stroke-opacity:1"
       d="M 34.088728,42.1095 H 47.955729"
       id="path850" />
    <g
       transform="matrix(0.423334,0,0,0.423334,48.877967,40.6358)"
       ns2:version="1.1.0"
       ns2:texconverter="pdflatex"
       ns2:pdfconverter="inkscape"
       ns2:text="$0$\n\n\n\n"
       ns2:preamble="C:\\Users\\flvisa\\Desktop\\lna\\latexify_books\\textext_preamble.tex"
       ns2:scale="1.199999773228722"
       ns2:alignment="middle center"
       ns2:inkscapeversion="1.0.1"
       ns2:jacobian_sqrt="0.423334"
       id="g1181">
      <defs
         id="id-aa5e4b72-8b75-4737-8df6-b557d964d694">
        <g
           id="id-51b0dd91-dd69-4357-8651-c24344d7d0b6">
          <symbol
             overflow="visible"
             id="id-5ee87afc-cd5e-4305-99f1-35b1287e2e28">
            <path
               style="stroke:none"
               d="M 0.5,0 H 4.484375 V -4.8125 H 0.5 Z M 1,-0.5 V -4.3125 H 3.984375 V -0.5 Z m 0,0"
               id="id-705462a2-d5dc-4a37-9c3d-b5e48016e5e2" />
          </symbol>
          <symbol
             overflow="visible"
             id="id-3ac00cfa-2417-4d8e-ba95-eb10447d5a48">
            <path
               style="stroke:none"
               d="m 2.484375,-5.875 c 0.71875,0 1.203125,1.1875 1.203125,2.71875 0,1.515625 -0.4375,2.828125 -1.3125,2.828125 -0.703125,0 -1.21875,-1.25 -1.21875,-2.78125 0,-1.53125 0.515625,-2.765625 1.328125,-2.765625 z m -0.0625,-0.359375 c -1.34375,0 -2.125,1.421875 -2.125,3.125 0,1.6875 0.796875,3.140625 2.125,3.140625 1.34375,0 2.125,-1.453125 2.125,-3.140625 0,-1.703125 -0.765625,-3.125 -2.125,-3.125 z m 0,0"
               id="id-878afd14-d953-4520-aabc-3a64cb9d5799" />
          </symbol>
        </g>
      </defs>
      <g
         id="id-e757b37d-ca72-431b-aabc-9f205f3c068b"
         transform="translate(-149.009,-128.531)">
        <g
           style="fill:#000000;fill-opacity:1"
           id="id-b4e9c6db-2b55-42b5-b319-5dc0cfc651c9">
          <g
             transform="translate(148.712,134.765)"
             id="g1177">
            <path
               style="stroke:none"
               d="m 2.484375,-5.875 c 0.71875,0 1.203125,1.1875 1.203125,2.71875 0,1.515625 -0.4375,2.828125 -1.3125,2.828125 -0.703125,0 -1.21875,-1.25 -1.21875,-2.78125 0,-1.53125 0.515625,-2.765625 1.328125,-2.765625 z m -0.0625,-0.359375 c -1.34375,0 -2.125,1.421875 -2.125,3.125 0,1.6875 0.796875,3.140625 2.125,3.140625 1.34375,0 2.125,-1.453125 2.125,-3.140625 0,-1.703125 -0.765625,-3.125 -2.125,-3.125 z m 0,0"
               id="id-7a5d8a55-1a33-4191-8d5b-8c4f8cd26120" />
          </g>
        </g>
      </g>
    </g>
    <g
       transform="matrix(0.423334,0,0,0.423334,29.7389,40.5456)"
       ns2:version="1.1.0"
       ns2:texconverter="pdflatex"
       ns2:pdfconverter="inkscape"
       ns2:text="$3$s\n\n\n"
       ns2:preamble="C:\\Users\\flvisa\\Desktop\\lna\\latexify_books\\textext_preamble.tex"
       ns2:scale="1.199999773228722"
       ns2:alignment="middle center"
       ns2:inkscapeversion="1.0.1"
       ns2:jacobian_sqrt="0.423334"
       id="g1373">
      <defs
         id="id-45221668-d24b-4660-9d7f-d8022280a8be">
        <g
           id="id-303431c0-114d-4ab8-9fc3-201f3df6161d">
          <symbol
             overflow="visible"
             id="id-a894b5d8-575f-46e8-963d-2b5b8aa6e3ac">
            <path
               style="stroke:none"
               d="M 0.5,0 H 4.484375 V -4.8125 H 0.5 Z M 1,-0.5 V -4.3125 H 3.984375 V -0.5 Z m 0,0"
               id="id-6168baff-a566-47f3-8047-41bfce10a76c" />
          </symbol>
          <symbol
             overflow="visible"
             id="id-5ac16eda-c346-4d99-9e27-c351398d496d">
            <path
               style="stroke:none"
               d="m 2.515625,-6.25 c -0.765625,0 -1.3125,0.5 -1.625,0.953125 0,0.078125 0.0625,0.203125 0.125,0.203125 0.09375,-0.0625 0.46875,-0.640625 1.09375,-0.640625 0.546875,0 0.953125,0.390625 0.953125,0.90625 0,0.84375 -0.734375,1.265625 -1.515625,1.4375 -0.015625,0.03125 -0.015625,0.0625 -0.015625,0.09375 0,0.09375 0.015625,0.140625 0.046875,0.203125 0.125,-0.03125 0.375,-0.125 0.578125,-0.125 0.640625,0 1.25,0.578125 1.25,1.359375 0,1.125 -0.625,1.515625 -1.140625,1.515625 -0.265625,0 -0.53125,-0.0625 -0.71875,-0.25 C 1.390625,-0.75 1.265625,-1.015625 1,-1.015625 c -0.21875,0 -0.40625,0.1875 -0.40625,0.46875 0,0.15625 0.140625,0.328125 0.1875,0.375 0.3125,0.15625 0.734375,0.21875 1,0.21875 C 2.984375,0.046875 4.25,-0.78125 4.25,-2.125 4.25,-3.078125 3.453125,-3.609375 2.890625,-3.6875 3.234375,-3.890625 3.78125,-4.375 3.78125,-5 c 0,-0.796875 -0.765625,-1.25 -1.265625,-1.25 z m 0,0"
               id="id-c3059499-a113-4092-86f0-9c5ba2d998ae" />
          </symbol>
          <symbol
             overflow="visible"
             id="id-d91230fc-77d7-4673-93ad-7c7f158073e0">
            <path
               style="stroke:none"
               d="M 0.5,0 H 4.484375 V -4.8125 H 0.5 Z M 1,-0.5 V -4.3125 H 3.984375 V -0.5 Z m 0,0"
               id="id-067cab9b-83a6-4f10-b48f-5d4ab5e5cc96" />
          </symbol>
          <symbol
             overflow="visible"
             id="id-8456f714-b948-49bf-a9df-81cb34d4a22e">
            <path
               style="stroke:none"
               d="M 1.921875,-4.359375 C 1.203125,-4.359375 0.5,-3.875 0.5,-3.140625 c 0,0.53125 0.34375,0.84375 0.75,1.078125 0.578125,0.328125 1.203125,0.53125 1.203125,1.140625 0,0.453125 -0.3125,0.71875 -0.703125,0.71875 -0.53125,0 -0.96875,-0.53125 -1.078125,-0.9375 -0.03125,-0.03125 -0.046875,-0.03125 -0.078125,-0.03125 -0.0625,0 -0.140625,0.03125 -0.1875,0.0625 0,0.25 0.09375,0.8125 0.171875,1.03125 C 1,0 1.28125,0.109375 1.71875,0.109375 c 0.796875,0 1.515625,-0.5625 1.515625,-1.375 0,-0.640625 -0.6875,-0.953125 -1.125,-1.21875 C 1.671875,-2.75 1.25,-2.90625 1.25,-3.421875 c 0,-0.359375 0.21875,-0.625 0.6875,-0.625 0.4375,0 0.75,0.53125 0.84375,0.90625 0.046875,0.046875 0.125,0.0625 0.171875,0.0625 0.046875,0 0.09375,-0.015625 0.09375,-0.0625 0,-0.34375 -0.046875,-0.78125 -0.109375,-1.09375 -0.4375,-0.046875 -0.640625,-0.125 -1.015625,-0.125 z m 0,0"
               id="id-d0e2d6a7-83d5-456a-bfb0-dcd26f4d0eed" />
          </symbol>
        </g>
      </defs>
      <g
         id="id-c21dd799-1a59-47c8-8079-2bdafa7b9b44"
         transform="translate(-149.306,-128.515)">
        <g
           style="fill:#000000;fill-opacity:1"
           id="id-5edacb8b-c56c-48ec-84d2-c5dea67e506e">
          <g
             transform="translate(148.712,134.765)"
             id="g1365">
            <path
               style="stroke:none"
               d="m 2.515625,-6.25 c -0.765625,0 -1.3125,0.5 -1.625,0.953125 0,0.078125 0.0625,0.203125 0.125,0.203125 0.09375,-0.0625 0.46875,-0.640625 1.09375,-0.640625 0.546875,0 0.953125,0.390625 0.953125,0.90625 0,0.84375 -0.734375,1.265625 -1.515625,1.4375 -0.015625,0.03125 -0.015625,0.0625 -0.015625,0.09375 0,0.09375 0.015625,0.140625 0.046875,0.203125 0.125,-0.03125 0.375,-0.125 0.578125,-0.125 0.640625,0 1.25,0.578125 1.25,1.359375 0,1.125 -0.625,1.515625 -1.140625,1.515625 -0.265625,0 -0.53125,-0.0625 -0.71875,-0.25 C 1.390625,-0.75 1.265625,-1.015625 1,-1.015625 c -0.21875,0 -0.40625,0.1875 -0.40625,0.46875 0,0.15625 0.140625,0.328125 0.1875,0.375 0.3125,0.15625 0.734375,0.21875 1,0.21875 C 2.984375,0.046875 4.25,-0.78125 4.25,-2.125 4.25,-3.078125 3.453125,-3.609375 2.890625,-3.6875 3.234375,-3.890625 3.78125,-4.375 3.78125,-5 c 0,-0.796875 -0.765625,-1.25 -1.265625,-1.25 z m 0,0"
               id="id-96f9b13b-b031-490a-afd8-63dd4b42fb3b" />
          </g>
        </g>
        <g
           style="fill:#000000;fill-opacity:1"
           id="id-9f4b3f98-9c2a-45a3-a88f-9564cddd47e3">
          <g
             transform="translate(153.544,134.765)"
             id="g1369">
            <path
               style="stroke:none"
               d="M 1.921875,-4.359375 C 1.203125,-4.359375 0.5,-3.875 0.5,-3.140625 c 0,0.53125 0.34375,0.84375 0.75,1.078125 0.578125,0.328125 1.203125,0.53125 1.203125,1.140625 0,0.453125 -0.3125,0.71875 -0.703125,0.71875 -0.53125,0 -0.96875,-0.53125 -1.078125,-0.9375 -0.03125,-0.03125 -0.046875,-0.03125 -0.078125,-0.03125 -0.0625,0 -0.140625,0.03125 -0.1875,0.0625 0,0.25 0.09375,0.8125 0.171875,1.03125 C 1,0 1.28125,0.109375 1.71875,0.109375 c 0.796875,0 1.515625,-0.5625 1.515625,-1.375 0,-0.640625 -0.6875,-0.953125 -1.125,-1.21875 C 1.671875,-2.75 1.25,-2.90625 1.25,-3.421875 c 0,-0.359375 0.21875,-0.625 0.6875,-0.625 0.4375,0 0.75,0.53125 0.84375,0.90625 0.046875,0.046875 0.125,0.0625 0.171875,0.0625 0.046875,0 0.09375,-0.015625 0.09375,-0.0625 0,-0.34375 -0.046875,-0.78125 -0.109375,-1.09375 -0.4375,-0.046875 -0.640625,-0.125 -1.015625,-0.125 z m 0,0"
               id="id-a8312381-0434-4755-ba67-4efe690fc93b" />
          </g>
        </g>
      </g>
    </g>
  </g>
</svg>
