<?xml version="1.0" encoding="UTF-8" standalone="no"?>
<svg
   xmlns:ns2="http://www.iki.fi/pav/software/textext/"
   xmlns:dc="http://purl.org/dc/elements/1.1/"
   xmlns:cc="http://creativecommons.org/ns#"
   xmlns:rdf="http://www.w3.org/1999/02/22-rdf-syntax-ns#"
   xmlns:svg="http://www.w3.org/2000/svg"
   xmlns="http://www.w3.org/2000/svg"
   xmlns:sodipodi="http://sodipodi.sourceforge.net/DTD/sodipodi-0.dtd"
   xmlns:inkscape="http://www.inkscape.org/namespaces/inkscape"
   width="24.03644mm"
   height="10.296766mm"
   viewBox="0 0 24.03644 10.296766"
   version="1.1"
   id="svg8"
   inkscape:version="1.0.1 (3bc2e813f5, 2020-09-07)"
   sodipodi:docname="tab_5_1-2.svg">
  <defs
     id="defs2">
    <pattern
       id="EMFhbasepattern"
       patternUnits="userSpaceOnUse"
       width="6"
       height="6"
       x="0"
       y="0" />
    <pattern
       id="EMFhbasepattern-6"
       patternUnits="userSpaceOnUse"
       width="6"
       height="6"
       x="0"
       y="0" />
  </defs>
  <sodipodi:namedview
     id="base"
     pagecolor="#ffffff"
     bordercolor="#666666"
     borderopacity="1.0"
     inkscape:pageopacity="0.0"
     inkscape:pageshadow="2"
     inkscape:zoom="2.8"
     inkscape:cx="102.61529"
     inkscape:cy="53.164661"
     inkscape:document-units="mm"
     inkscape:current-layer="layer1"
     inkscape:document-rotation="0"
     showgrid="false"
     inkscape:window-width="1600"
     inkscape:window-height="837"
     inkscape:window-x="-8"
     inkscape:window-y="-8"
     inkscape:window-maximized="1" />
  <metadata
     id="metadata5">
    <rdf:RDF>
      <cc:Work
         rdf:about="">
        <dc:format>image/svg+xml</dc:format>
        <dc:type
           rdf:resource="http://purl.org/dc/dcmitype/StillImage" />
        <dc:title />
      </cc:Work>
    </rdf:RDF>
  </metadata>
  <g
     inkscape:label="Layer 1"
     inkscape:groupmode="layer"
     id="layer1"
     transform="translate(-29.437894,-36.9283)">
    <path
       style="fill:none;stroke:#000000;stroke-width:0.265;stroke-linecap:round;stroke-linejoin:miter;stroke-miterlimit:4;stroke-dasharray:none;stroke-opacity:1"
       d="M 34.088728,38.2765 H 47.955729"
       id="path848" />
    <path
       style="fill:none;stroke:#000000;stroke-width:0.265;stroke-linecap:round;stroke-linejoin:miter;stroke-miterlimit:4;stroke-dasharray:none;stroke-opacity:1"
       d="M 34.088728,42.1095 H 47.955729"
       id="path850" />
    <path
       style="fill:none;stroke:#000000;stroke-width:0.265;stroke-linecap:round;stroke-linejoin:miter;stroke-miterlimit:4;stroke-dasharray:none;stroke-opacity:1"
       d="M 34.088728,46.013792 H 47.955729"
       id="path852" />
    <path
       style="fill:none;stroke:#000000;stroke-width:0.265;stroke-linecap:round;stroke-linejoin:miter;stroke-miterlimit:4;stroke-dasharray:none;stroke-opacity:1"
       d="m 48.905404,46.013792 h 2.504092"
       id="path856"
       sodipodi:nodetypes="cc" />
    <g
       transform="matrix(0.423334,0,0,0.423334,49.255567,36.9283)"
       ns2:version="1.1.0"
       ns2:texconverter="pdflatex"
       ns2:pdfconverter="inkscape"
       ns2:text="$1$\n\n\n"
       ns2:preamble="C:\\Users\\flvisa\\Desktop\\lna\\latexify_books\\textext_preamble.tex"
       ns2:scale="1.199999773228722"
       ns2:alignment="middle center"
       ns2:inkscapeversion="1.0.1"
       ns2:jacobian_sqrt="0.423334"
       id="g1081">
      <defs
         id="id-49fb1e40-01be-4e90-a51e-67876c0630e7">
        <g
           id="id-f0a54b92-5067-4a3e-81b9-2e660b1c50a9">
          <symbol
             overflow="visible"
             id="id-0be2b5ff-e829-4ab3-b6d0-df46a6d20b56">
            <path
               style="stroke:none"
               d="M 0.5,0 H 4.484375 V -4.8125 H 0.5 Z M 1,-0.5 V -4.3125 H 3.984375 V -0.5 Z m 0,0"
               id="id-aefa20a0-ecd3-4821-8a82-cd0b63105a13" />
          </symbol>
          <symbol
             overflow="visible"
             id="id-f72fed7b-f7f4-4e64-bff0-22731504369a">
            <path
               style="stroke:none"
               d="m 2.171875,-1.125 c 0,0.28125 -0.015625,0.5625 -0.0625,0.71875 C 2.078125,-0.296875 1.609375,-0.25 1.5,-0.25 c -0.046875,0.046875 -0.046875,0.234375 0,0.28125 0.390625,-0.015625 0.65625,-0.046875 1.03125,-0.046875 0.375,0 0.6875,0.03125 1.09375,0.046875 0.046875,-0.046875 0.03125,-0.234375 0,-0.28125 C 3.5,-0.25 3.015625,-0.296875 2.984375,-0.40625 2.9375,-0.5625 2.9375,-0.84375 2.9375,-1.125 v -4.03125 c 0,-0.59375 0.078125,-0.9375 0.078125,-0.9375 0,-0.046875 -0.03125,-0.15625 -0.09375,-0.15625 H 2.90625 C 2.875,-6.25 2,-5.828125 1.203125,-5.46875 c -0.03125,0.015625 0,0.046875 0,0.0625 0,0.078125 0.03125,0.125 0.078125,0.171875 0.171875,-0.0625 0.546875,-0.203125 0.6875,-0.203125 0.140625,0 0.203125,0.09375 0.203125,0.375 z m 0,0"
               id="id-3e7ef44f-1e7b-4c44-97e7-69662c351c0d" />
          </symbol>
        </g>
      </defs>
      <g
         id="id-b51a7788-e425-4327-a03c-6d2d6c3bc1f0"
         transform="translate(-149.901,-128.515)">
        <g
           style="fill:#000000;fill-opacity:1"
           id="id-b220e7f7-e7b6-444b-bdf9-4559e0188738">
          <g
             transform="translate(148.712,134.765)"
             id="g1077">
            <path
               style="stroke:none"
               d="m 2.171875,-1.125 c 0,0.28125 -0.015625,0.5625 -0.0625,0.71875 C 2.078125,-0.296875 1.609375,-0.25 1.5,-0.25 c -0.046875,0.046875 -0.046875,0.234375 0,0.28125 0.390625,-0.015625 0.65625,-0.046875 1.03125,-0.046875 0.375,0 0.6875,0.03125 1.09375,0.046875 0.046875,-0.046875 0.03125,-0.234375 0,-0.28125 C 3.5,-0.25 3.015625,-0.296875 2.984375,-0.40625 2.9375,-0.5625 2.9375,-0.84375 2.9375,-1.125 v -4.03125 c 0,-0.59375 0.078125,-0.9375 0.078125,-0.9375 0,-0.046875 -0.03125,-0.15625 -0.09375,-0.15625 H 2.90625 C 2.875,-6.25 2,-5.828125 1.203125,-5.46875 c -0.03125,0.015625 0,0.046875 0,0.0625 0,0.078125 0.03125,0.125 0.078125,0.171875 0.171875,-0.0625 0.546875,-0.203125 0.6875,-0.203125 0.140625,0 0.203125,0.09375 0.203125,0.375 z m 0,0"
               id="id-16277fae-28d1-42f6-8549-50fe10112361" />
          </g>
        </g>
      </g>
    </g>
    <g
       transform="matrix(0.423334,0,0,0.423334,48.877967,40.6358)"
       ns2:version="1.1.0"
       ns2:texconverter="pdflatex"
       ns2:pdfconverter="inkscape"
       ns2:text="$0$\n\n\n\n"
       ns2:preamble="C:\\Users\\flvisa\\Desktop\\lna\\latexify_books\\textext_preamble.tex"
       ns2:scale="1.199999773228722"
       ns2:alignment="middle center"
       ns2:inkscapeversion="1.0.1"
       ns2:jacobian_sqrt="0.423334"
       id="g1181">
      <defs
         id="id-aa5e4b72-8b75-4737-8df6-b557d964d694">
        <g
           id="id-51b0dd91-dd69-4357-8651-c24344d7d0b6">
          <symbol
             overflow="visible"
             id="id-5ee87afc-cd5e-4305-99f1-35b1287e2e28">
            <path
               style="stroke:none"
               d="M 0.5,0 H 4.484375 V -4.8125 H 0.5 Z M 1,-0.5 V -4.3125 H 3.984375 V -0.5 Z m 0,0"
               id="id-705462a2-d5dc-4a37-9c3d-b5e48016e5e2" />
          </symbol>
          <symbol
             overflow="visible"
             id="id-3ac00cfa-2417-4d8e-ba95-eb10447d5a48">
            <path
               style="stroke:none"
               d="m 2.484375,-5.875 c 0.71875,0 1.203125,1.1875 1.203125,2.71875 0,1.515625 -0.4375,2.828125 -1.3125,2.828125 -0.703125,0 -1.21875,-1.25 -1.21875,-2.78125 0,-1.53125 0.515625,-2.765625 1.328125,-2.765625 z m -0.0625,-0.359375 c -1.34375,0 -2.125,1.421875 -2.125,3.125 0,1.6875 0.796875,3.140625 2.125,3.140625 1.34375,0 2.125,-1.453125 2.125,-3.140625 0,-1.703125 -0.765625,-3.125 -2.125,-3.125 z m 0,0"
               id="id-878afd14-d953-4520-aabc-3a64cb9d5799" />
          </symbol>
        </g>
      </defs>
      <g
         id="id-e757b37d-ca72-431b-aabc-9f205f3c068b"
         transform="translate(-149.009,-128.531)">
        <g
           style="fill:#000000;fill-opacity:1"
           id="id-b4e9c6db-2b55-42b5-b319-5dc0cfc651c9">
          <g
             transform="translate(148.712,134.765)"
             id="g1177">
            <path
               style="stroke:none"
               d="m 2.484375,-5.875 c 0.71875,0 1.203125,1.1875 1.203125,2.71875 0,1.515625 -0.4375,2.828125 -1.3125,2.828125 -0.703125,0 -1.21875,-1.25 -1.21875,-2.78125 0,-1.53125 0.515625,-2.765625 1.328125,-2.765625 z m -0.0625,-0.359375 c -1.34375,0 -2.125,1.421875 -2.125,3.125 0,1.6875 0.796875,3.140625 2.125,3.140625 1.34375,0 2.125,-1.453125 2.125,-3.140625 0,-1.703125 -0.765625,-3.125 -2.125,-3.125 z m 0,0"
               id="id-7a5d8a55-1a33-4191-8d5b-8c4f8cd26120" />
          </g>
        </g>
      </g>
    </g>
    <g
       transform="matrix(0.423334,0,0,0.423334,52.430569,44.566)"
       ns2:version="1.1.0"
       ns2:texconverter="pdflatex"
       ns2:pdfconverter="inkscape"
       ns2:text="$1$\n\n\n"
       ns2:preamble="C:\\Users\\flvisa\\Desktop\\lna\\latexify_books\\textext_preamble.tex"
       ns2:scale="1.199999773228722"
       ns2:alignment="middle center"
       ns2:inkscapeversion="1.0.1"
       ns2:jacobian_sqrt="0.423334"
       id="g1238">
      <defs
         id="defs1228">
        <g
           id="g1226">
          <symbol
             overflow="visible"
             id="symbol1220">
            <path
               style="stroke:none"
               d="M 0.5,0 H 4.484375 V -4.8125 H 0.5 Z M 1,-0.5 V -4.3125 H 3.984375 V -0.5 Z m 0,0"
               id="path1218" />
          </symbol>
          <symbol
             overflow="visible"
             id="symbol1224">
            <path
               style="stroke:none"
               d="m 2.171875,-1.125 c 0,0.28125 -0.015625,0.5625 -0.0625,0.71875 C 2.078125,-0.296875 1.609375,-0.25 1.5,-0.25 c -0.046875,0.046875 -0.046875,0.234375 0,0.28125 0.390625,-0.015625 0.65625,-0.046875 1.03125,-0.046875 0.375,0 0.6875,0.03125 1.09375,0.046875 0.046875,-0.046875 0.03125,-0.234375 0,-0.28125 C 3.5,-0.25 3.015625,-0.296875 2.984375,-0.40625 2.9375,-0.5625 2.9375,-0.84375 2.9375,-1.125 v -4.03125 c 0,-0.59375 0.078125,-0.9375 0.078125,-0.9375 0,-0.046875 -0.03125,-0.15625 -0.09375,-0.15625 H 2.90625 C 2.875,-6.25 2,-5.828125 1.203125,-5.46875 c -0.03125,0.015625 0,0.046875 0,0.0625 0,0.078125 0.03125,0.125 0.078125,0.171875 0.171875,-0.0625 0.546875,-0.203125 0.6875,-0.203125 0.140625,0 0.203125,0.09375 0.203125,0.375 z m 0,0"
               id="path1222" />
          </symbol>
        </g>
      </defs>
      <g
         id="g1236"
         transform="translate(-149.901,-128.515)">
        <g
           style="fill:#000000;fill-opacity:1"
           id="g1234">
          <g
             transform="translate(148.712,134.765)"
             id="g1232">
            <path
               style="stroke:none"
               d="m 2.171875,-1.125 c 0,0.28125 -0.015625,0.5625 -0.0625,0.71875 C 2.078125,-0.296875 1.609375,-0.25 1.5,-0.25 c -0.046875,0.046875 -0.046875,0.234375 0,0.28125 0.390625,-0.015625 0.65625,-0.046875 1.03125,-0.046875 0.375,0 0.6875,0.03125 1.09375,0.046875 0.046875,-0.046875 0.03125,-0.234375 0,-0.28125 C 3.5,-0.25 3.015625,-0.296875 2.984375,-0.40625 2.9375,-0.5625 2.9375,-0.84375 2.9375,-1.125 v -4.03125 c 0,-0.59375 0.078125,-0.9375 0.078125,-0.9375 0,-0.046875 -0.03125,-0.15625 -0.09375,-0.15625 H 2.90625 C 2.875,-6.25 2,-5.828125 1.203125,-5.46875 c -0.03125,0.015625 0,0.046875 0,0.0625 0,0.078125 0.03125,0.125 0.078125,0.171875 0.171875,-0.0625 0.546875,-0.203125 0.6875,-0.203125 0.140625,0 0.203125,0.09375 0.203125,0.375 z m 0,0"
               id="path1230" />
          </g>
        </g>
      </g>
    </g>
    <g
       transform="matrix(0.423334,0,0,0.423334,29.438,40.1024)"
       ns2:version="1.1.0"
       ns2:texconverter="pdflatex"
       ns2:pdfconverter="inkscape"
       ns2:text="$3$p\n\n"
       ns2:preamble="C:\\Users\\flvisa\\Desktop\\lna\\latexify_books\\textext_preamble.tex"
       ns2:scale="1.199999773228722"
       ns2:alignment="middle center"
       ns2:inkscapeversion="1.0.1"
       ns2:jacobian_sqrt="0.423334"
       id="g1315">
      <defs
         id="id-9a0a3c80-23c2-4625-a9df-b856e5af5938">
        <g
           id="id-809cc95e-52b3-4ae7-ac5a-c9bf25850e6c">
          <symbol
             overflow="visible"
             id="id-a0bd0a10-acb9-432b-87a9-c45624ee2c4d">
            <path
               style="stroke:none"
               d="M 0.5,0 H 4.484375 V -4.8125 H 0.5 Z M 1,-0.5 V -4.3125 H 3.984375 V -0.5 Z m 0,0"
               id="id-b2bcaf6f-b6dc-4ba3-87a9-f27c843b3df0" />
          </symbol>
          <symbol
             overflow="visible"
             id="id-6921867b-66b8-433c-863b-601bac2158f9">
            <path
               style="stroke:none"
               d="m 2.515625,-6.25 c -0.765625,0 -1.3125,0.5 -1.625,0.953125 0,0.078125 0.0625,0.203125 0.125,0.203125 0.09375,-0.0625 0.46875,-0.640625 1.09375,-0.640625 0.546875,0 0.953125,0.390625 0.953125,0.90625 0,0.84375 -0.734375,1.265625 -1.515625,1.4375 -0.015625,0.03125 -0.015625,0.0625 -0.015625,0.09375 0,0.09375 0.015625,0.140625 0.046875,0.203125 0.125,-0.03125 0.375,-0.125 0.578125,-0.125 0.640625,0 1.25,0.578125 1.25,1.359375 0,1.125 -0.625,1.515625 -1.140625,1.515625 -0.265625,0 -0.53125,-0.0625 -0.71875,-0.25 C 1.390625,-0.75 1.265625,-1.015625 1,-1.015625 c -0.21875,0 -0.40625,0.1875 -0.40625,0.46875 0,0.15625 0.140625,0.328125 0.1875,0.375 0.3125,0.15625 0.734375,0.21875 1,0.21875 C 2.984375,0.046875 4.25,-0.78125 4.25,-2.125 4.25,-3.078125 3.453125,-3.609375 2.890625,-3.6875 3.234375,-3.890625 3.78125,-4.375 3.78125,-5 c 0,-0.796875 -0.765625,-1.25 -1.265625,-1.25 z m 0,0"
               id="id-c2e9605c-e54d-4282-b332-46412e4bf515" />
          </symbol>
          <symbol
             overflow="visible"
             id="id-b32a82a5-e72e-4e35-9700-cd27caddc685">
            <path
               style="stroke:none"
               d="M 0.5,0 H 4.484375 V -4.8125 H 0.5 Z M 1,-0.5 V -4.3125 H 3.984375 V -0.5 Z m 0,0"
               id="id-f12202f6-ab85-41d8-bf49-43412cf33e1f" />
          </symbol>
          <symbol
             overflow="visible"
             id="id-e60198fc-ffa5-44d8-b929-af66764116d3">
            <path
               style="stroke:none"
               d="m 2.859375,-4.359375 c -0.390625,0 -0.953125,0.34375 -1.203125,0.546875 -0.015625,0.015625 -0.015625,0.03125 -0.03125,0.03125 -0.015625,0 -0.015625,-0.03125 -0.015625,-0.046875 0,-0.078125 0.0625,-0.328125 0.0625,-0.40625 0,-0.015625 -0.0625,-0.046875 -0.109375,-0.046875 -0.390625,0.15625 -0.890625,0.25 -1.40625,0.296875 v 0.265625 c 0.078125,0 0.578125,0 0.65625,0.171875 0.046875,0.125 0.046875,0.390625 0.046875,0.515625 v 4.046875 c 0,0.296875 0,0.578125 -0.046875,0.75 C 0.78125,1.875 0.3125,1.90625 0.171875,1.90625 V 2.203125 C 0.59375,2.1875 0.84375,2.15625 1.21875,2.15625 c 0.390625,0 0.671875,0.03125 1.078125,0.046875 V 1.90625 C 2.15625,1.90625 1.6875,1.875 1.65625,1.765625 1.609375,1.609375 1.609375,1.328125 1.609375,1.03125 v -0.9375 c 0,-0.078125 0.03125,-0.125 0.03125,-0.125 0.15625,0.046875 0.4375,0.109375 0.6875,0.109375 1.125,0 2.328125,-1.109375 2.328125,-2.390625 0,-0.859375 -0.5625,-2.046875 -1.796875,-2.046875 z M 2.4375,-3.78125 c 0.765625,0 1.40625,0.65625 1.40625,1.84375 0,0.8125 -0.484375,1.671875 -1.3125,1.671875 -0.34375,0 -0.921875,-0.21875 -0.921875,-0.734375 v -2.40625 c 0,-0.125 0.421875,-0.375 0.828125,-0.375 z m 0,0"
               id="id-b6251188-2063-4c41-8ec7-7e29fc2d2582" />
          </symbol>
        </g>
      </defs>
      <g
         id="id-c9cf0815-df15-4df7-9ce5-7b39130dc757"
         transform="translate(-149.306,-128.515)">
        <g
           style="fill:#000000;fill-opacity:1"
           id="id-bdc5450a-6770-413d-9d57-b04c8028cbbe">
          <g
             transform="translate(148.712,134.765)"
             id="g1307">
            <path
               style="stroke:none"
               d="m 2.515625,-6.25 c -0.765625,0 -1.3125,0.5 -1.625,0.953125 0,0.078125 0.0625,0.203125 0.125,0.203125 0.09375,-0.0625 0.46875,-0.640625 1.09375,-0.640625 0.546875,0 0.953125,0.390625 0.953125,0.90625 0,0.84375 -0.734375,1.265625 -1.515625,1.4375 -0.015625,0.03125 -0.015625,0.0625 -0.015625,0.09375 0,0.09375 0.015625,0.140625 0.046875,0.203125 0.125,-0.03125 0.375,-0.125 0.578125,-0.125 0.640625,0 1.25,0.578125 1.25,1.359375 0,1.125 -0.625,1.515625 -1.140625,1.515625 -0.265625,0 -0.53125,-0.0625 -0.71875,-0.25 C 1.390625,-0.75 1.265625,-1.015625 1,-1.015625 c -0.21875,0 -0.40625,0.1875 -0.40625,0.46875 0,0.15625 0.140625,0.328125 0.1875,0.375 0.3125,0.15625 0.734375,0.21875 1,0.21875 C 2.984375,0.046875 4.25,-0.78125 4.25,-2.125 4.25,-3.078125 3.453125,-3.609375 2.890625,-3.6875 3.234375,-3.890625 3.78125,-4.375 3.78125,-5 c 0,-0.796875 -0.765625,-1.25 -1.265625,-1.25 z m 0,0"
               id="id-1492c877-14ef-4c47-8f95-02f5cc00f117" />
          </g>
        </g>
        <g
           style="fill:#000000;fill-opacity:1"
           id="id-774721e3-2150-4e11-861d-7f13eca47690">
          <g
             transform="translate(153.544,134.765)"
             id="g1311">
            <path
               style="stroke:none"
               d="m 2.859375,-4.359375 c -0.390625,0 -0.953125,0.34375 -1.203125,0.546875 -0.015625,0.015625 -0.015625,0.03125 -0.03125,0.03125 -0.015625,0 -0.015625,-0.03125 -0.015625,-0.046875 0,-0.078125 0.0625,-0.328125 0.0625,-0.40625 0,-0.015625 -0.0625,-0.046875 -0.109375,-0.046875 -0.390625,0.15625 -0.890625,0.25 -1.40625,0.296875 v 0.265625 c 0.078125,0 0.578125,0 0.65625,0.171875 0.046875,0.125 0.046875,0.390625 0.046875,0.515625 v 4.046875 c 0,0.296875 0,0.578125 -0.046875,0.75 C 0.78125,1.875 0.3125,1.90625 0.171875,1.90625 V 2.203125 C 0.59375,2.1875 0.84375,2.15625 1.21875,2.15625 c 0.390625,0 0.671875,0.03125 1.078125,0.046875 V 1.90625 C 2.15625,1.90625 1.6875,1.875 1.65625,1.765625 1.609375,1.609375 1.609375,1.328125 1.609375,1.03125 v -0.9375 c 0,-0.078125 0.03125,-0.125 0.03125,-0.125 0.15625,0.046875 0.4375,0.109375 0.6875,0.109375 1.125,0 2.328125,-1.109375 2.328125,-2.390625 0,-0.859375 -0.5625,-2.046875 -1.796875,-2.046875 z M 2.4375,-3.78125 c 0.765625,0 1.40625,0.65625 1.40625,1.84375 0,0.8125 -0.484375,1.671875 -1.3125,1.671875 -0.34375,0 -0.921875,-0.21875 -0.921875,-0.734375 v -2.40625 c 0,-0.125 0.421875,-0.375 0.828125,-0.375 z m 0,0"
               id="id-00ccb303-905c-4763-8e3a-64c1a3ca8d63" />
          </g>
        </g>
      </g>
    </g>
  </g>
</svg>
