<?xml version="1.0" encoding="UTF-8" standalone="no"?>
<svg
   xmlns:ns2="http://www.iki.fi/pav/software/textext/"
   xmlns:dc="http://purl.org/dc/elements/1.1/"
   xmlns:cc="http://creativecommons.org/ns#"
   xmlns:rdf="http://www.w3.org/1999/02/22-rdf-syntax-ns#"
   xmlns:svg="http://www.w3.org/2000/svg"
   xmlns="http://www.w3.org/2000/svg"
   xmlns:sodipodi="http://sodipodi.sourceforge.net/DTD/sodipodi-0.dtd"
   xmlns:inkscape="http://www.inkscape.org/namespaces/inkscape"
   sodipodi:docname="tab_5_1-4.svg"
   inkscape:version="1.0.1 (3bc2e813f5, 2020-09-07)"
   id="svg8"
   version="1.1"
   viewBox="0 0 24.072887 10.296766"
   height="10.296766mm"
   width="24.072887mm">
  <defs
     id="defs2">
    <pattern
       id="EMFhbasepattern"
       patternUnits="userSpaceOnUse"
       width="6"
       height="6"
       x="0"
       y="0" />
    <pattern
       id="EMFhbasepattern-6"
       patternUnits="userSpaceOnUse"
       width="6"
       height="6"
       x="0"
       y="0" />
  </defs>
  <sodipodi:namedview
     id="base"
     pagecolor="#ffffff"
     bordercolor="#666666"
     borderopacity="1.0"
     inkscape:pageopacity="0.0"
     inkscape:pageshadow="2"
     inkscape:zoom="3.959798"
     inkscape:cx="91.362052"
     inkscape:cy="18.56772"
     inkscape:document-units="mm"
     inkscape:current-layer="layer1"
     inkscape:document-rotation="0"
     showgrid="false"
     inkscape:window-width="1600"
     inkscape:window-height="837"
     inkscape:window-x="-8"
     inkscape:window-y="-8"
     inkscape:window-maximized="1" />
  <metadata
     id="metadata5">
    <rdf:RDF>
      <cc:Work
         rdf:about="">
        <dc:format>image/svg+xml</dc:format>
        <dc:type
           rdf:resource="http://purl.org/dc/dcmitype/StillImage" />
        <dc:title></dc:title>
      </cc:Work>
    </rdf:RDF>
  </metadata>
  <g
     inkscape:label="Layer 1"
     inkscape:groupmode="layer"
     id="layer1"
     transform="translate(-29.401447,-36.9283)">
    <path
       style="fill:none;stroke:#000000;stroke-width:0.265;stroke-linecap:round;stroke-linejoin:miter;stroke-miterlimit:4;stroke-dasharray:none;stroke-opacity:1"
       d="M 34.088728,38.2765 H 47.955729"
       id="path848" />
    <path
       style="fill:none;stroke:#000000;stroke-width:0.265;stroke-linecap:round;stroke-linejoin:miter;stroke-miterlimit:4;stroke-dasharray:none;stroke-opacity:1"
       d="M 34.088728,42.1095 H 47.955729"
       id="path850" />
    <path
       style="fill:none;stroke:#000000;stroke-width:0.265;stroke-linecap:round;stroke-linejoin:miter;stroke-miterlimit:4;stroke-dasharray:none;stroke-opacity:1"
       d="M 34.088728,46.013792 H 47.955729"
       id="path852" />
    <path
       style="fill:none;stroke:#000000;stroke-width:0.265;stroke-linecap:round;stroke-linejoin:miter;stroke-miterlimit:4;stroke-dasharray:none;stroke-opacity:1"
       d="m 48.905404,46.013792 h 2.504092"
       id="path856"
       sodipodi:nodetypes="cc" />
    <g
       transform="matrix(0.423334,0,0,0.423334,49.255567,36.9283)"
       ns2:version="1.1.0"
       ns2:texconverter="pdflatex"
       ns2:pdfconverter="inkscape"
       ns2:text="$1$\n\n\n"
       ns2:preamble="C:\\Users\\flvisa\\Desktop\\lna\\latexify_books\\textext_preamble.tex"
       ns2:scale="1.199999773228722"
       ns2:alignment="middle center"
       ns2:inkscapeversion="1.0.1"
       ns2:jacobian_sqrt="0.423334"
       id="g1081">
      <defs
         id="id-49fb1e40-01be-4e90-a51e-67876c0630e7">
        <g
           id="id-f0a54b92-5067-4a3e-81b9-2e660b1c50a9">
          <symbol
             overflow="visible"
             id="id-0be2b5ff-e829-4ab3-b6d0-df46a6d20b56">
            <path
               style="stroke:none"
               d="M 0.5,0 H 4.484375 V -4.8125 H 0.5 Z M 1,-0.5 V -4.3125 H 3.984375 V -0.5 Z m 0,0"
               id="id-aefa20a0-ecd3-4821-8a82-cd0b63105a13" />
          </symbol>
          <symbol
             overflow="visible"
             id="id-f72fed7b-f7f4-4e64-bff0-22731504369a">
            <path
               style="stroke:none"
               d="m 2.171875,-1.125 c 0,0.28125 -0.015625,0.5625 -0.0625,0.71875 C 2.078125,-0.296875 1.609375,-0.25 1.5,-0.25 c -0.046875,0.046875 -0.046875,0.234375 0,0.28125 0.390625,-0.015625 0.65625,-0.046875 1.03125,-0.046875 0.375,0 0.6875,0.03125 1.09375,0.046875 0.046875,-0.046875 0.03125,-0.234375 0,-0.28125 C 3.5,-0.25 3.015625,-0.296875 2.984375,-0.40625 2.9375,-0.5625 2.9375,-0.84375 2.9375,-1.125 v -4.03125 c 0,-0.59375 0.078125,-0.9375 0.078125,-0.9375 0,-0.046875 -0.03125,-0.15625 -0.09375,-0.15625 H 2.90625 C 2.875,-6.25 2,-5.828125 1.203125,-5.46875 c -0.03125,0.015625 0,0.046875 0,0.0625 0,0.078125 0.03125,0.125 0.078125,0.171875 0.171875,-0.0625 0.546875,-0.203125 0.6875,-0.203125 0.140625,0 0.203125,0.09375 0.203125,0.375 z m 0,0"
               id="id-3e7ef44f-1e7b-4c44-97e7-69662c351c0d" />
          </symbol>
        </g>
      </defs>
      <g
         id="id-b51a7788-e425-4327-a03c-6d2d6c3bc1f0"
         transform="translate(-149.901,-128.515)">
        <g
           style="fill:#000000;fill-opacity:1"
           id="id-b220e7f7-e7b6-444b-bdf9-4559e0188738">
          <g
             transform="translate(148.712,134.765)"
             id="g1077">
            <path
               style="stroke:none"
               d="m 2.171875,-1.125 c 0,0.28125 -0.015625,0.5625 -0.0625,0.71875 C 2.078125,-0.296875 1.609375,-0.25 1.5,-0.25 c -0.046875,0.046875 -0.046875,0.234375 0,0.28125 0.390625,-0.015625 0.65625,-0.046875 1.03125,-0.046875 0.375,0 0.6875,0.03125 1.09375,0.046875 0.046875,-0.046875 0.03125,-0.234375 0,-0.28125 C 3.5,-0.25 3.015625,-0.296875 2.984375,-0.40625 2.9375,-0.5625 2.9375,-0.84375 2.9375,-1.125 v -4.03125 c 0,-0.59375 0.078125,-0.9375 0.078125,-0.9375 0,-0.046875 -0.03125,-0.15625 -0.09375,-0.15625 H 2.90625 C 2.875,-6.25 2,-5.828125 1.203125,-5.46875 c -0.03125,0.015625 0,0.046875 0,0.0625 0,0.078125 0.03125,0.125 0.078125,0.171875 0.171875,-0.0625 0.546875,-0.203125 0.6875,-0.203125 0.140625,0 0.203125,0.09375 0.203125,0.375 z m 0,0"
               id="id-16277fae-28d1-42f6-8549-50fe10112361" />
          </g>
        </g>
      </g>
    </g>
    <g
       transform="matrix(0.423334,0,0,0.423334,48.877967,40.6358)"
       ns2:version="1.1.0"
       ns2:texconverter="pdflatex"
       ns2:pdfconverter="inkscape"
       ns2:text="$0$\n\n\n\n"
       ns2:preamble="C:\\Users\\flvisa\\Desktop\\lna\\latexify_books\\textext_preamble.tex"
       ns2:scale="1.199999773228722"
       ns2:alignment="middle center"
       ns2:inkscapeversion="1.0.1"
       ns2:jacobian_sqrt="0.423334"
       id="g1181">
      <defs
         id="id-aa5e4b72-8b75-4737-8df6-b557d964d694">
        <g
           id="id-51b0dd91-dd69-4357-8651-c24344d7d0b6">
          <symbol
             overflow="visible"
             id="id-5ee87afc-cd5e-4305-99f1-35b1287e2e28">
            <path
               style="stroke:none"
               d="M 0.5,0 H 4.484375 V -4.8125 H 0.5 Z M 1,-0.5 V -4.3125 H 3.984375 V -0.5 Z m 0,0"
               id="id-705462a2-d5dc-4a37-9c3d-b5e48016e5e2" />
          </symbol>
          <symbol
             overflow="visible"
             id="id-3ac00cfa-2417-4d8e-ba95-eb10447d5a48">
            <path
               style="stroke:none"
               d="m 2.484375,-5.875 c 0.71875,0 1.203125,1.1875 1.203125,2.71875 0,1.515625 -0.4375,2.828125 -1.3125,2.828125 -0.703125,0 -1.21875,-1.25 -1.21875,-2.78125 0,-1.53125 0.515625,-2.765625 1.328125,-2.765625 z m -0.0625,-0.359375 c -1.34375,0 -2.125,1.421875 -2.125,3.125 0,1.6875 0.796875,3.140625 2.125,3.140625 1.34375,0 2.125,-1.453125 2.125,-3.140625 0,-1.703125 -0.765625,-3.125 -2.125,-3.125 z m 0,0"
               id="id-878afd14-d953-4520-aabc-3a64cb9d5799" />
          </symbol>
        </g>
      </defs>
      <g
         id="id-e757b37d-ca72-431b-aabc-9f205f3c068b"
         transform="translate(-149.009,-128.531)">
        <g
           style="fill:#000000;fill-opacity:1"
           id="id-b4e9c6db-2b55-42b5-b319-5dc0cfc651c9">
          <g
             transform="translate(148.712,134.765)"
             id="g1177">
            <path
               style="stroke:none"
               d="m 2.484375,-5.875 c 0.71875,0 1.203125,1.1875 1.203125,2.71875 0,1.515625 -0.4375,2.828125 -1.3125,2.828125 -0.703125,0 -1.21875,-1.25 -1.21875,-2.78125 0,-1.53125 0.515625,-2.765625 1.328125,-2.765625 z m -0.0625,-0.359375 c -1.34375,0 -2.125,1.421875 -2.125,3.125 0,1.6875 0.796875,3.140625 2.125,3.140625 1.34375,0 2.125,-1.453125 2.125,-3.140625 0,-1.703125 -0.765625,-3.125 -2.125,-3.125 z m 0,0"
               id="id-7a5d8a55-1a33-4191-8d5b-8c4f8cd26120" />
          </g>
        </g>
      </g>
    </g>
    <g
       transform="matrix(0.423334,0,0,0.423334,52.430569,44.566)"
       ns2:version="1.1.0"
       ns2:texconverter="pdflatex"
       ns2:pdfconverter="inkscape"
       ns2:text="$1$\n\n\n"
       ns2:preamble="C:\\Users\\flvisa\\Desktop\\lna\\latexify_books\\textext_preamble.tex"
       ns2:scale="1.199999773228722"
       ns2:alignment="middle center"
       ns2:inkscapeversion="1.0.1"
       ns2:jacobian_sqrt="0.423334"
       id="g1238">
      <defs
         id="defs1228">
        <g
           id="g1226">
          <symbol
             overflow="visible"
             id="symbol1220">
            <path
               style="stroke:none"
               d="M 0.5,0 H 4.484375 V -4.8125 H 0.5 Z M 1,-0.5 V -4.3125 H 3.984375 V -0.5 Z m 0,0"
               id="path1218" />
          </symbol>
          <symbol
             overflow="visible"
             id="symbol1224">
            <path
               style="stroke:none"
               d="m 2.171875,-1.125 c 0,0.28125 -0.015625,0.5625 -0.0625,0.71875 C 2.078125,-0.296875 1.609375,-0.25 1.5,-0.25 c -0.046875,0.046875 -0.046875,0.234375 0,0.28125 0.390625,-0.015625 0.65625,-0.046875 1.03125,-0.046875 0.375,0 0.6875,0.03125 1.09375,0.046875 0.046875,-0.046875 0.03125,-0.234375 0,-0.28125 C 3.5,-0.25 3.015625,-0.296875 2.984375,-0.40625 2.9375,-0.5625 2.9375,-0.84375 2.9375,-1.125 v -4.03125 c 0,-0.59375 0.078125,-0.9375 0.078125,-0.9375 0,-0.046875 -0.03125,-0.15625 -0.09375,-0.15625 H 2.90625 C 2.875,-6.25 2,-5.828125 1.203125,-5.46875 c -0.03125,0.015625 0,0.046875 0,0.0625 0,0.078125 0.03125,0.125 0.078125,0.171875 0.171875,-0.0625 0.546875,-0.203125 0.6875,-0.203125 0.140625,0 0.203125,0.09375 0.203125,0.375 z m 0,0"
               id="path1222" />
          </symbol>
        </g>
      </defs>
      <g
         id="g1236"
         transform="translate(-149.901,-128.515)">
        <g
           style="fill:#000000;fill-opacity:1"
           id="g1234">
          <g
             transform="translate(148.712,134.765)"
             id="g1232">
            <path
               style="stroke:none"
               d="m 2.171875,-1.125 c 0,0.28125 -0.015625,0.5625 -0.0625,0.71875 C 2.078125,-0.296875 1.609375,-0.25 1.5,-0.25 c -0.046875,0.046875 -0.046875,0.234375 0,0.28125 0.390625,-0.015625 0.65625,-0.046875 1.03125,-0.046875 0.375,0 0.6875,0.03125 1.09375,0.046875 0.046875,-0.046875 0.03125,-0.234375 0,-0.28125 C 3.5,-0.25 3.015625,-0.296875 2.984375,-0.40625 2.9375,-0.5625 2.9375,-0.84375 2.9375,-1.125 v -4.03125 c 0,-0.59375 0.078125,-0.9375 0.078125,-0.9375 0,-0.046875 -0.03125,-0.15625 -0.09375,-0.15625 H 2.90625 C 2.875,-6.25 2,-5.828125 1.203125,-5.46875 c -0.03125,0.015625 0,0.046875 0,0.0625 0,0.078125 0.03125,0.125 0.078125,0.171875 0.171875,-0.0625 0.546875,-0.203125 0.6875,-0.203125 0.140625,0 0.203125,0.09375 0.203125,0.375 z m 0,0"
               id="path1230" />
          </g>
        </g>
      </g>
    </g>
    <g
       transform="matrix(0.423334,0,0,0.423334,29.4015,40.331518)"
       ns2:version="1.1.0"
       ns2:texconverter="pdflatex"
       ns2:pdfconverter="inkscape"
       ns2:text="$2$p\n\n\n"
       ns2:preamble="C:\\Users\\flvisa\\Desktop\\lna\\latexify_books\\textext_preamble.tex"
       ns2:scale="1.199999773228722"
       ns2:alignment="middle center"
       ns2:inkscapeversion="1.0.1"
       ns2:jacobian_sqrt="0.423334"
       id="g1641">
      <defs
         id="id-49a553c7-1742-494d-9e38-afe902d5f06c">
        <g
           id="id-8b04e0b1-fcbd-4202-85c7-53b25029e5c6">
          <symbol
             overflow="visible"
             id="id-c4feb1cc-0f5e-45d6-84f4-052b53087e95">
            <path
               style="stroke:none"
               d="M 0.5,0 H 4.484375 V -4.8125 H 0.5 Z M 1,-0.5 V -4.3125 H 3.984375 V -0.5 Z m 0,0"
               id="id-5ad52f58-216d-4a82-83cf-3a2274c908da" />
          </symbol>
          <symbol
             overflow="visible"
             id="id-f8148366-a9c9-4696-a22f-2c0288889d07">
            <path
               style="stroke:none"
               d="M 4.421875,-1.453125 C 4.375,-1.484375 4.25,-1.515625 4.21875,-1.515625 c -0.0625,0 -0.09375,0.015625 -0.109375,0.0625 -0.21875,0.5 -0.4375,0.75 -0.8125,0.75 h -1.9375 c 0.4375,-0.5 1.4375,-1.59375 2.125,-2.453125 C 3.8125,-3.5625 4.03125,-4.0625 4.03125,-4.625 c 0,-0.828125 -0.734375,-1.625 -1.671875,-1.625 -1.03125,0 -1.734375,1.078125 -1.796875,1.3125 0,0.046875 0.109375,0.15625 0.1875,0.15625 0.125,-0.1875 0.609375,-0.828125 1.390625,-0.828125 0.609375,0 1.0625,0.5 1.0625,1.171875 0,0.484375 -0.0625,0.875 -0.46875,1.453125 -0.5625,0.828125 -1.5,1.9375 -2.3125,2.84375 0,0.046875 0.0625,0.125 0.09375,0.140625 h 3.375 c 0.0625,-0.171875 0.328125,-0.984375 0.53125,-1.453125 z m 0,0"
               id="id-f026b53d-2cf1-405f-8846-72995f3c7d5c" />
          </symbol>
          <symbol
             overflow="visible"
             id="id-c23caa55-8d69-4a25-97b9-e8b7a7326d8f">
            <path
               style="stroke:none"
               d="M 0.5,0 H 4.484375 V -4.8125 H 0.5 Z M 1,-0.5 V -4.3125 H 3.984375 V -0.5 Z m 0,0"
               id="id-2f1a49dd-1ab9-4bd7-8f0f-f933adfb0bca" />
          </symbol>
          <symbol
             overflow="visible"
             id="id-cdc971a8-e13c-4859-9372-d0ad2e42c957">
            <path
               style="stroke:none"
               d="m 2.859375,-4.359375 c -0.390625,0 -0.953125,0.34375 -1.203125,0.546875 -0.015625,0.015625 -0.015625,0.03125 -0.03125,0.03125 -0.015625,0 -0.015625,-0.03125 -0.015625,-0.046875 0,-0.078125 0.0625,-0.328125 0.0625,-0.40625 0,-0.015625 -0.0625,-0.046875 -0.109375,-0.046875 -0.390625,0.15625 -0.890625,0.25 -1.40625,0.296875 v 0.265625 c 0.078125,0 0.578125,0 0.65625,0.171875 0.046875,0.125 0.046875,0.390625 0.046875,0.515625 v 4.046875 c 0,0.296875 0,0.578125 -0.046875,0.75 C 0.78125,1.875 0.3125,1.90625 0.171875,1.90625 V 2.203125 C 0.59375,2.1875 0.84375,2.15625 1.21875,2.15625 c 0.390625,0 0.671875,0.03125 1.078125,0.046875 V 1.90625 C 2.15625,1.90625 1.6875,1.875 1.65625,1.765625 1.609375,1.609375 1.609375,1.328125 1.609375,1.03125 v -0.9375 c 0,-0.078125 0.03125,-0.125 0.03125,-0.125 0.15625,0.046875 0.4375,0.109375 0.6875,0.109375 1.125,0 2.328125,-1.109375 2.328125,-2.390625 0,-0.859375 -0.5625,-2.046875 -1.796875,-2.046875 z M 2.4375,-3.78125 c 0.765625,0 1.40625,0.65625 1.40625,1.84375 0,0.8125 -0.484375,1.671875 -1.3125,1.671875 -0.34375,0 -0.921875,-0.21875 -0.921875,-0.734375 v -2.40625 c 0,-0.125 0.421875,-0.375 0.828125,-0.375 z m 0,0"
               id="id-76dea720-4b80-474e-bbad-de0d60125a6e" />
          </symbol>
        </g>
      </defs>
      <g
         id="id-0c96dd8e-3c3f-4cd9-a6ca-c1cb69533a6d"
         transform="translate(-149.134,-128.515)">
        <g
           style="fill:#000000;fill-opacity:1"
           id="id-a898ee83-988a-45d8-9355-92d0dd7d790b">
          <g
             transform="translate(148.712,134.765)"
             id="g1633">
            <path
               style="stroke:none"
               d="M 4.421875,-1.453125 C 4.375,-1.484375 4.25,-1.515625 4.21875,-1.515625 c -0.0625,0 -0.09375,0.015625 -0.109375,0.0625 -0.21875,0.5 -0.4375,0.75 -0.8125,0.75 h -1.9375 c 0.4375,-0.5 1.4375,-1.59375 2.125,-2.453125 C 3.8125,-3.5625 4.03125,-4.0625 4.03125,-4.625 c 0,-0.828125 -0.734375,-1.625 -1.671875,-1.625 -1.03125,0 -1.734375,1.078125 -1.796875,1.3125 0,0.046875 0.109375,0.15625 0.1875,0.15625 0.125,-0.1875 0.609375,-0.828125 1.390625,-0.828125 0.609375,0 1.0625,0.5 1.0625,1.171875 0,0.484375 -0.0625,0.875 -0.46875,1.453125 -0.5625,0.828125 -1.5,1.9375 -2.3125,2.84375 0,0.046875 0.0625,0.125 0.09375,0.140625 h 3.375 c 0.0625,-0.171875 0.328125,-0.984375 0.53125,-1.453125 z m 0,0"
               id="id-0f4c5ed7-3c9e-4bd4-b78f-9330d2bad844" />
          </g>
        </g>
        <g
           style="fill:#000000;fill-opacity:1"
           id="id-851e6def-a394-4d82-959f-53dc8e1e816e">
          <g
             transform="translate(153.544,134.765)"
             id="g1637">
            <path
               style="stroke:none"
               d="m 2.859375,-4.359375 c -0.390625,0 -0.953125,0.34375 -1.203125,0.546875 -0.015625,0.015625 -0.015625,0.03125 -0.03125,0.03125 -0.015625,0 -0.015625,-0.03125 -0.015625,-0.046875 0,-0.078125 0.0625,-0.328125 0.0625,-0.40625 0,-0.015625 -0.0625,-0.046875 -0.109375,-0.046875 -0.390625,0.15625 -0.890625,0.25 -1.40625,0.296875 v 0.265625 c 0.078125,0 0.578125,0 0.65625,0.171875 0.046875,0.125 0.046875,0.390625 0.046875,0.515625 v 4.046875 c 0,0.296875 0,0.578125 -0.046875,0.75 C 0.78125,1.875 0.3125,1.90625 0.171875,1.90625 V 2.203125 C 0.59375,2.1875 0.84375,2.15625 1.21875,2.15625 c 0.390625,0 0.671875,0.03125 1.078125,0.046875 V 1.90625 C 2.15625,1.90625 1.6875,1.875 1.65625,1.765625 1.609375,1.609375 1.609375,1.328125 1.609375,1.03125 v -0.9375 c 0,-0.078125 0.03125,-0.125 0.03125,-0.125 0.15625,0.046875 0.4375,0.109375 0.6875,0.109375 1.125,0 2.328125,-1.109375 2.328125,-2.390625 0,-0.859375 -0.5625,-2.046875 -1.796875,-2.046875 z M 2.4375,-3.78125 c 0.765625,0 1.40625,0.65625 1.40625,1.84375 0,0.8125 -0.484375,1.671875 -1.3125,1.671875 -0.34375,0 -0.921875,-0.21875 -0.921875,-0.734375 v -2.40625 c 0,-0.125 0.421875,-0.375 0.828125,-0.375 z m 0,0"
               id="id-61c73313-e399-4cdd-b84e-6eeba1cf5ae1" />
          </g>
        </g>
      </g>
    </g>
  </g>
</svg>
