<?xml version="1.0" encoding="UTF-8" standalone="no"?>
<svg
   xmlns:ns2="http://www.iki.fi/pav/software/textext/"
   xmlns:dc="http://purl.org/dc/elements/1.1/"
   xmlns:cc="http://creativecommons.org/ns#"
   xmlns:rdf="http://www.w3.org/1999/02/22-rdf-syntax-ns#"
   xmlns:svg="http://www.w3.org/2000/svg"
   xmlns="http://www.w3.org/2000/svg"
   xmlns:sodipodi="http://sodipodi.sourceforge.net/DTD/sodipodi-0.dtd"
   xmlns:inkscape="http://www.inkscape.org/namespaces/inkscape"
   sodipodi:docname="tab_5_1-5.svg"
   inkscape:version="1.0.1 (3bc2e813f5, 2020-09-07)"
   id="svg8"
   version="1.1"
   viewBox="0 0 20.974737 2.7307984"
   height="2.7307985mm"
   width="20.974737mm">
  <defs
     id="defs2">
    <pattern
       id="EMFhbasepattern"
       patternUnits="userSpaceOnUse"
       width="6"
       height="6"
       x="0"
       y="0" />
    <pattern
       id="EMFhbasepattern-6"
       patternUnits="userSpaceOnUse"
       width="6"
       height="6"
       x="0"
       y="0" />
  </defs>
  <sodipodi:namedview
     id="base"
     pagecolor="#ffffff"
     bordercolor="#666666"
     borderopacity="1.0"
     inkscape:pageopacity="0.0"
     inkscape:pageshadow="2"
     inkscape:zoom="3.959798"
     inkscape:cx="90.224792"
     inkscape:cy="4.5557213"
     inkscape:document-units="mm"
     inkscape:current-layer="layer1"
     inkscape:document-rotation="0"
     showgrid="false"
     inkscape:window-width="1600"
     inkscape:window-height="837"
     inkscape:window-x="-8"
     inkscape:window-y="-8"
     inkscape:window-maximized="1" />
  <metadata
     id="metadata5">
    <rdf:RDF>
      <cc:Work
         rdf:about="">
        <dc:format>image/svg+xml</dc:format>
        <dc:type
           rdf:resource="http://purl.org/dc/dcmitype/StillImage" />
        <dc:title></dc:title>
      </cc:Work>
    </rdf:RDF>
  </metadata>
  <g
     inkscape:label="Layer 1"
     inkscape:groupmode="layer"
     id="layer1"
     transform="translate(-29.702347,-40.635641)">
    <path
       style="fill:none;stroke:#000000;stroke-width:0.265;stroke-linecap:round;stroke-linejoin:miter;stroke-miterlimit:4;stroke-dasharray:none;stroke-opacity:1"
       d="M 34.088728,42.1095 H 47.955729"
       id="path850" />
    <g
       transform="matrix(0.423334,0,0,0.423334,48.877967,40.6358)"
       ns2:version="1.1.0"
       ns2:texconverter="pdflatex"
       ns2:pdfconverter="inkscape"
       ns2:text="$0$\n\n\n\n"
       ns2:preamble="C:\\Users\\flvisa\\Desktop\\lna\\latexify_books\\textext_preamble.tex"
       ns2:scale="1.199999773228722"
       ns2:alignment="middle center"
       ns2:inkscapeversion="1.0.1"
       ns2:jacobian_sqrt="0.423334"
       id="g1181">
      <defs
         id="id-aa5e4b72-8b75-4737-8df6-b557d964d694">
        <g
           id="id-51b0dd91-dd69-4357-8651-c24344d7d0b6">
          <symbol
             overflow="visible"
             id="id-5ee87afc-cd5e-4305-99f1-35b1287e2e28">
            <path
               style="stroke:none"
               d="M 0.5,0 H 4.484375 V -4.8125 H 0.5 Z M 1,-0.5 V -4.3125 H 3.984375 V -0.5 Z m 0,0"
               id="id-705462a2-d5dc-4a37-9c3d-b5e48016e5e2" />
          </symbol>
          <symbol
             overflow="visible"
             id="id-3ac00cfa-2417-4d8e-ba95-eb10447d5a48">
            <path
               style="stroke:none"
               d="m 2.484375,-5.875 c 0.71875,0 1.203125,1.1875 1.203125,2.71875 0,1.515625 -0.4375,2.828125 -1.3125,2.828125 -0.703125,0 -1.21875,-1.25 -1.21875,-2.78125 0,-1.53125 0.515625,-2.765625 1.328125,-2.765625 z m -0.0625,-0.359375 c -1.34375,0 -2.125,1.421875 -2.125,3.125 0,1.6875 0.796875,3.140625 2.125,3.140625 1.34375,0 2.125,-1.453125 2.125,-3.140625 0,-1.703125 -0.765625,-3.125 -2.125,-3.125 z m 0,0"
               id="id-878afd14-d953-4520-aabc-3a64cb9d5799" />
          </symbol>
        </g>
      </defs>
      <g
         id="id-e757b37d-ca72-431b-aabc-9f205f3c068b"
         transform="translate(-149.009,-128.531)">
        <g
           style="fill:#000000;fill-opacity:1"
           id="id-b4e9c6db-2b55-42b5-b319-5dc0cfc651c9">
          <g
             transform="translate(148.712,134.765)"
             id="g1177">
            <path
               style="stroke:none"
               d="m 2.484375,-5.875 c 0.71875,0 1.203125,1.1875 1.203125,2.71875 0,1.515625 -0.4375,2.828125 -1.3125,2.828125 -0.703125,0 -1.21875,-1.25 -1.21875,-2.78125 0,-1.53125 0.515625,-2.765625 1.328125,-2.765625 z m -0.0625,-0.359375 c -1.34375,0 -2.125,1.421875 -2.125,3.125 0,1.6875 0.796875,3.140625 2.125,3.140625 1.34375,0 2.125,-1.453125 2.125,-3.140625 0,-1.703125 -0.765625,-3.125 -2.125,-3.125 z m 0,0"
               id="id-7a5d8a55-1a33-4191-8d5b-8c4f8cd26120" />
          </g>
        </g>
      </g>
    </g>
    <g
       transform="matrix(0.423334,0,0,0.423334,29.7024,40.6743)"
       ns2:version="1.1.0"
       ns2:texconverter="pdflatex"
       ns2:pdfconverter="inkscape"
       ns2:text="$2$s\n\n\n\n"
       ns2:preamble="C:\\Users\\flvisa\\Desktop\\lna\\latexify_books\\textext_preamble.tex"
       ns2:scale="1.199999773228722"
       ns2:alignment="middle center"
       ns2:inkscapeversion="1.0.1"
       ns2:jacobian_sqrt="0.423334"
       id="g1721">
      <defs
         id="id-492457dd-405e-4740-bafa-26281a64a5dd">
        <g
           id="id-0925d24d-4872-41cb-8038-8ba12eb6da0b">
          <symbol
             overflow="visible"
             id="id-1fdab274-2830-437c-85ee-a0a322ee8723">
            <path
               style="stroke:none"
               d="M 0.5,0 H 4.484375 V -4.8125 H 0.5 Z M 1,-0.5 V -4.3125 H 3.984375 V -0.5 Z m 0,0"
               id="id-bbdda193-46b9-494d-846a-f85e1f13a19b" />
          </symbol>
          <symbol
             overflow="visible"
             id="id-a0ba2b99-352f-43c1-bfec-38915c0863c1">
            <path
               style="stroke:none"
               d="M 4.421875,-1.453125 C 4.375,-1.484375 4.25,-1.515625 4.21875,-1.515625 c -0.0625,0 -0.09375,0.015625 -0.109375,0.0625 -0.21875,0.5 -0.4375,0.75 -0.8125,0.75 h -1.9375 c 0.4375,-0.5 1.4375,-1.59375 2.125,-2.453125 C 3.8125,-3.5625 4.03125,-4.0625 4.03125,-4.625 c 0,-0.828125 -0.734375,-1.625 -1.671875,-1.625 -1.03125,0 -1.734375,1.078125 -1.796875,1.3125 0,0.046875 0.109375,0.15625 0.1875,0.15625 0.125,-0.1875 0.609375,-0.828125 1.390625,-0.828125 0.609375,0 1.0625,0.5 1.0625,1.171875 0,0.484375 -0.0625,0.875 -0.46875,1.453125 -0.5625,0.828125 -1.5,1.9375 -2.3125,2.84375 0,0.046875 0.0625,0.125 0.09375,0.140625 h 3.375 c 0.0625,-0.171875 0.328125,-0.984375 0.53125,-1.453125 z m 0,0"
               id="id-7769c234-0d6b-440a-9ca1-41fbc1f65e78" />
          </symbol>
          <symbol
             overflow="visible"
             id="id-13944c01-d9a5-433f-aaf4-4684ce540ebf">
            <path
               style="stroke:none"
               d="M 0.5,0 H 4.484375 V -4.8125 H 0.5 Z M 1,-0.5 V -4.3125 H 3.984375 V -0.5 Z m 0,0"
               id="id-36e40999-a6df-4c82-85a1-41d6e5a13138" />
          </symbol>
          <symbol
             overflow="visible"
             id="id-d368d3bd-4da5-485e-8647-9a290bee658a">
            <path
               style="stroke:none"
               d="M 1.921875,-4.359375 C 1.203125,-4.359375 0.5,-3.875 0.5,-3.140625 c 0,0.53125 0.34375,0.84375 0.75,1.078125 0.578125,0.328125 1.203125,0.53125 1.203125,1.140625 0,0.453125 -0.3125,0.71875 -0.703125,0.71875 -0.53125,0 -0.96875,-0.53125 -1.078125,-0.9375 -0.03125,-0.03125 -0.046875,-0.03125 -0.078125,-0.03125 -0.0625,0 -0.140625,0.03125 -0.1875,0.0625 0,0.25 0.09375,0.8125 0.171875,1.03125 C 1,0 1.28125,0.109375 1.71875,0.109375 c 0.796875,0 1.515625,-0.5625 1.515625,-1.375 0,-0.640625 -0.6875,-0.953125 -1.125,-1.21875 C 1.671875,-2.75 1.25,-2.90625 1.25,-3.421875 c 0,-0.359375 0.21875,-0.625 0.6875,-0.625 0.4375,0 0.75,0.53125 0.84375,0.90625 0.046875,0.046875 0.125,0.0625 0.171875,0.0625 0.046875,0 0.09375,-0.015625 0.09375,-0.0625 0,-0.34375 -0.046875,-0.78125 -0.109375,-1.09375 -0.4375,-0.046875 -0.640625,-0.125 -1.015625,-0.125 z m 0,0"
               id="id-a4979cba-0020-4d8c-8f8f-9d4f3a9c8dcd" />
          </symbol>
        </g>
      </defs>
      <g
         id="id-23161919-7d73-48d5-baca-786801b50fd4"
         transform="translate(-149.134,-128.515)">
        <g
           style="fill:#000000;fill-opacity:1"
           id="id-111da8a4-35ef-4de1-a5b0-40b693d4233c">
          <g
             transform="translate(148.712,134.765)"
             id="g1713">
            <path
               style="stroke:none"
               d="M 4.421875,-1.453125 C 4.375,-1.484375 4.25,-1.515625 4.21875,-1.515625 c -0.0625,0 -0.09375,0.015625 -0.109375,0.0625 -0.21875,0.5 -0.4375,0.75 -0.8125,0.75 h -1.9375 c 0.4375,-0.5 1.4375,-1.59375 2.125,-2.453125 C 3.8125,-3.5625 4.03125,-4.0625 4.03125,-4.625 c 0,-0.828125 -0.734375,-1.625 -1.671875,-1.625 -1.03125,0 -1.734375,1.078125 -1.796875,1.3125 0,0.046875 0.109375,0.15625 0.1875,0.15625 0.125,-0.1875 0.609375,-0.828125 1.390625,-0.828125 0.609375,0 1.0625,0.5 1.0625,1.171875 0,0.484375 -0.0625,0.875 -0.46875,1.453125 -0.5625,0.828125 -1.5,1.9375 -2.3125,2.84375 0,0.046875 0.0625,0.125 0.09375,0.140625 h 3.375 c 0.0625,-0.171875 0.328125,-0.984375 0.53125,-1.453125 z m 0,0"
               id="id-d60182db-dfe1-40e9-9194-cc5e00cab8ef" />
          </g>
        </g>
        <g
           style="fill:#000000;fill-opacity:1"
           id="id-8d99ca3f-0360-4cc8-a1ad-d93182fbe505">
          <g
             transform="translate(153.544,134.765)"
             id="g1717">
            <path
               style="stroke:none"
               d="M 1.921875,-4.359375 C 1.203125,-4.359375 0.5,-3.875 0.5,-3.140625 c 0,0.53125 0.34375,0.84375 0.75,1.078125 0.578125,0.328125 1.203125,0.53125 1.203125,1.140625 0,0.453125 -0.3125,0.71875 -0.703125,0.71875 -0.53125,0 -0.96875,-0.53125 -1.078125,-0.9375 -0.03125,-0.03125 -0.046875,-0.03125 -0.078125,-0.03125 -0.0625,0 -0.140625,0.03125 -0.1875,0.0625 0,0.25 0.09375,0.8125 0.171875,1.03125 C 1,0 1.28125,0.109375 1.71875,0.109375 c 0.796875,0 1.515625,-0.5625 1.515625,-1.375 0,-0.640625 -0.6875,-0.953125 -1.125,-1.21875 C 1.671875,-2.75 1.25,-2.90625 1.25,-3.421875 c 0,-0.359375 0.21875,-0.625 0.6875,-0.625 0.4375,0 0.75,0.53125 0.84375,0.90625 0.046875,0.046875 0.125,0.0625 0.171875,0.0625 0.046875,0 0.09375,-0.015625 0.09375,-0.0625 0,-0.34375 -0.046875,-0.78125 -0.109375,-1.09375 -0.4375,-0.046875 -0.640625,-0.125 -1.015625,-0.125 z m 0,0"
               id="id-d7b19f44-3572-42b6-8d7c-8209cb0efad1" />
          </g>
        </g>
      </g>
    </g>
  </g>
</svg>
