<?xml version="1.0" encoding="UTF-8" standalone="no"?>
<svg
   xmlns:dc="http://purl.org/dc/elements/1.1/"
   xmlns:cc="http://creativecommons.org/ns#"
   xmlns:rdf="http://www.w3.org/1999/02/22-rdf-syntax-ns#"
   xmlns:svg="http://www.w3.org/2000/svg"
   xmlns="http://www.w3.org/2000/svg"
   xmlns:xlink="http://www.w3.org/1999/xlink"
   xmlns:sodipodi="http://sodipodi.sourceforge.net/DTD/sodipodi-0.dtd"
   xmlns:inkscape="http://www.inkscape.org/namespaces/inkscape"
   width="58.970898mm"
   height="55.287888mm"
   viewBox="0 0 58.970898 55.287887"
   version="1.1"
   id="svg8"
   inkscape:version="1.0.1 (3bc2e813f5, 2020-09-07)"
   sodipodi:docname="fig_3_2.svg">
  <defs
     id="defs2">
    <linearGradient
       inkscape:collect="always"
       id="linearGradient8348">
      <stop
         style="stop-color:#ffffff;stop-opacity:1;"
         offset="0"
         id="stop8344" />
      <stop
         style="stop-color:#806149;stop-opacity:1"
         offset="1"
         id="stop8346" />
    </linearGradient>
    <marker
       style="overflow:visible"
       id="Arrow1Send"
       refX="0"
       refY="0"
       orient="auto"
       inkscape:stockid="Arrow1Send"
       inkscape:isstock="true">
      <path
         transform="matrix(-0.2,0,0,-0.2,-1.2,0)"
         style="fill:#506a68;fill-opacity:1;fill-rule:evenodd;stroke:#506a68;stroke-width:1pt;stroke-opacity:1"
         d="M 0,0 5,-5 -12.5,0 5,5 Z"
         id="path7357" />
    </marker>
    <marker
       style="overflow:visible"
       id="Arrow1Mend"
       refX="0"
       refY="0"
       orient="auto"
       inkscape:stockid="Arrow1Mend"
       inkscape:isstock="true">
      <path
         transform="matrix(-0.4,0,0,-0.4,-4,0)"
         style="fill:#000000;fill-opacity:1;fill-rule:evenodd;stroke:#000000;stroke-width:1pt;stroke-opacity:1"
         d="M 0,0 5,-5 -12.5,0 5,5 Z"
         id="path7351" />
    </marker>
    <pattern
       id="EMFhbasepattern"
       patternUnits="userSpaceOnUse"
       width="6"
       height="6"
       x="0"
       y="0" />
    <marker
       style="overflow:visible"
       id="Arrow1Mend-4"
       refX="0"
       refY="0"
       orient="auto"
       inkscape:stockid="Arrow1Mend"
       inkscape:isstock="true">
      <path
         transform="matrix(-0.4,0,0,-0.4,-4,0)"
         style="fill:#506a68;fill-opacity:1;fill-rule:evenodd;stroke:#506a68;stroke-width:1pt;stroke-opacity:1"
         d="M 0,0 5,-5 -12.5,0 5,5 Z"
         id="path7351-0" />
    </marker>
    <g
       id="g10092">
      <symbol
         overflow="visible"
         id="symbol10082">
        <path
           style="stroke:none"
           d=""
           id="path10080" />
      </symbol>
      <symbol
         overflow="visible"
         id="symbol10086">
        <path
           style="stroke:none"
           d="m 4.34375,-0.640625 h -3.8125 c 0,0 2.78125,-4.6875 2.84375,-4.6875 0.28125,1.640625 0.6875,3.5 0.96875,4.6875 z M 3.734375,-6.609375 3.71875,-6.625 c -0.046875,0 -0.265625,0.28125 -0.3125,0.390625 -0.109375,0.25 -0.171875,0.4375 -0.328125,0.703125 -1.296875,2.140625 -3.34375,5.4375 -3.34375,5.4375 v 0.015625 C -0.265625,-0.046875 -0.25,0 -0.21875,0 c 0,0 1.90625,-0.03125 4.265625,-0.03125 0.21875,0 0.515625,0.046875 0.5625,0.078125 0.109375,-0.03125 0.4375,-0.125 0.546875,-0.375 C 4.578125,-2.890625 4.25,-4.09375 3.734375,-6.609375 Z m 0,0"
           id="path10084" />
      </symbol>
      <symbol
         overflow="visible"
         id="symbol10090">
        <path
           style="stroke:none"
           d="m 3.15625,-6.71875 c -0.9375,0 -2.125,0.75 -2.125,1.90625 0,1.046875 0.75,1.359375 1.359375,1.84375 0.515625,0.390625 0.953125,0.75 0.953125,1.484375 0,0.796875 -0.609375,1.265625 -1.28125,1.265625 -1,0 -1.359375,-1.078125 -1.359375,-1.640625 -0.03125,-0.03125 -0.0625,-0.046875 -0.109375,-0.046875 -0.0625,0 -0.21875,0.015625 -0.25,0.046875 0,0.03125 -0.015625,0.078125 -0.015625,0.171875 0,0.296875 0.046875,0.921875 0.140625,1.34375 0.375,0.21875 0.890625,0.421875 1.46875,0.421875 1.09375,0 2.3125,-0.78125 2.3125,-2.015625 C 4.25,-2.875 3.515625,-3.234375 2.984375,-3.671875 2.4375,-4.09375 1.8125,-4.421875 1.8125,-5.25 c 0,-0.515625 0.4375,-1.15625 1.265625,-1.15625 0.65625,0 0.9375,0.5 0.9375,1.203125 0,0.0625 -0.015625,0.125 -0.015625,0.171875 0.0625,0.0625 0.171875,0.09375 0.21875,0.09375 0.03125,0 0.09375,-0.015625 0.09375,-0.09375 C 4.375,-5.328125 4.5,-6.140625 4.53125,-6.484375 4.03125,-6.59375 3.734375,-6.71875 3.15625,-6.71875 Z m 0,0"
           id="path10088" />
      </symbol>
    </g>
    <g
       id="id-986fbf19-47f1-47f3-b07a-62647210ddcc-5">
      <symbol
         overflow="visible"
         id="id-8d6d49e0-3023-4984-bfda-7ef52e178dc0-5">
        <path
           style="stroke:none"
           d="M 0.5,0 H 4.484375 V -4.8125 H 0.5 Z M 1,-0.5 V -4.3125 H 3.984375 V -0.5 Z m 0,0"
           id="id-a2a0d55d-417c-4b0e-81ef-5a5f819b0d9b-0" />
      </symbol>
      <symbol
         overflow="visible"
         id="id-9d1907c9-728c-464c-8c1e-cb000987056a-2">
        <path
           style="stroke:none"
           d="m 2.75,-4.359375 c -0.890625,0 -2.359375,1 -2.359375,2.3125 0,1.203125 0.828125,2.125 1.75,2.125 0.46875,0 1.15625,-0.421875 1.3125,-0.59375 0.015625,-0.015625 0.03125,0.015625 0.03125,0.0625 v 0.34375 c 0,0.0625 0.015625,0.1875 0.078125,0.1875 0,0 0.765625,-0.25 1.28125,-0.28125 0.046875,0 0.078125,-0.109375 0.078125,-0.140625 0,-0.03125 -0.015625,-0.109375 -0.03125,-0.109375 -0.03125,-0.015625 -0.5,0 -0.59375,-0.171875 -0.0625,-0.140625 -0.0625,-0.578125 -0.0625,-0.953125 v -4.1875 c 0,-0.53125 0.109375,-0.84375 0.109375,-0.84375 0,-0.0625 -0.0625,-0.15625 -0.109375,-0.15625 -0.421875,0.1875 -0.921875,0.328125 -1.40625,0.375 -0.03125,0.015625 -0.015625,0.265625 0,0.265625 0.265625,0 0.546875,0.03125 0.59375,0.15625 0.0625,0.109375 0.0625,0.359375 0.0625,0.484375 v 1.03125 c 0,0.109375 -0.015625,0.1875 -0.0625,0.1875 C 3.328125,-4.3125 2.953125,-4.359375 2.75,-4.359375 Z m -0.328125,0.40625 c 0.5625,0 1.0625,0.265625 1.0625,0.484375 v 2.546875 c 0,0.15625 -0.421875,0.390625 -0.875,0.390625 -0.90625,0 -1.40625,-0.8125 -1.40625,-1.765625 0,-0.84375 0.46875,-1.65625 1.21875,-1.65625 z m 0,0"
           id="id-8afa7524-5ae9-481c-856e-26e2fdecdc7f-7" />
      </symbol>
      <symbol
         overflow="visible"
         id="id-ad047c67-a031-4b2a-9488-72ba5b9731fb-8">
        <path
           style="stroke:none"
           d=""
           id="id-8a64c646-c9ea-4f61-96f8-befc0eef9650-0" />
      </symbol>
      <symbol
         overflow="visible"
         id="id-a76a9207-260a-46cd-8d59-b639ebe12df3-4">
        <path
           style="stroke:none"
           d="m 3.15625,-6.71875 c -0.9375,0 -2.125,0.75 -2.125,1.90625 0,1.046875 0.75,1.359375 1.359375,1.84375 0.515625,0.390625 0.953125,0.75 0.953125,1.484375 0,0.796875 -0.609375,1.265625 -1.28125,1.265625 -1,0 -1.359375,-1.078125 -1.359375,-1.640625 -0.03125,-0.03125 -0.0625,-0.046875 -0.109375,-0.046875 -0.0625,0 -0.21875,0.015625 -0.25,0.046875 0,0.03125 -0.015625,0.078125 -0.015625,0.171875 0,0.296875 0.046875,0.921875 0.140625,1.34375 0.375,0.21875 0.890625,0.421875 1.46875,0.421875 1.09375,0 2.3125,-0.78125 2.3125,-2.015625 C 4.25,-2.875 3.515625,-3.234375 2.984375,-3.671875 2.4375,-4.09375 1.8125,-4.421875 1.8125,-5.25 c 0,-0.515625 0.4375,-1.15625 1.265625,-1.15625 0.65625,0 0.9375,0.5 0.9375,1.203125 0,0.0625 -0.015625,0.125 -0.015625,0.171875 0.0625,0.0625 0.171875,0.09375 0.21875,0.09375 0.03125,0 0.09375,-0.015625 0.09375,-0.09375 C 4.375,-5.328125 4.5,-6.140625 4.53125,-6.484375 4.03125,-6.59375 3.734375,-6.71875 3.15625,-6.71875 Z m 0,0"
           id="id-c04e6ddf-4ece-4575-996f-6299ce25a964-9" />
      </symbol>
    </g>
    <g
       id="g10561"
       style="fill:#506a68;fill-opacity:1;stroke-width:0">
      <symbol
         id="symbol10555"
         overflow="visible"
         style="fill:#506a68;fill-opacity:1;stroke-width:0">
        <path
           id="path10553"
           d=""
           style="fill:#506a68;fill-opacity:1;stroke:none;stroke-width:0" />
      </symbol>
      <symbol
         id="symbol10559"
         overflow="visible"
         style="fill:#506a68;fill-opacity:1;stroke-width:0">
        <path
           id="path10557"
           d="M 2.546875,-6.609375 C 2.15625,-6.609375 1.625,-6.625 1.21875,-6.65625 c -0.046875,0.0625 -0.109375,0.3125 -0.078125,0.390625 0.109375,0 0.546875,0.03125 0.5625,0.15625 C 1.75,-5.90625 1.671875,-5.59375 1.59375,-5.15625 L 0.875,-1.46875 c -0.078125,0.421875 -0.140625,0.734375 -0.25,0.9375 -0.078125,0.125 -0.515625,0.15625 -0.640625,0.171875 -0.046875,0.0625 -0.09375,0.3125 -0.0625,0.375 C 0.046875,0.015625 0.578125,0 1.203125,0 H 4.46875 c 0.15625,-0.4375 0.5625,-1.1875 0.828125,-1.71875 -0.015625,-0.03125 -0.15625,-0.0625 -0.25,-0.0625 -0.078125,0 -0.125,0.015625 -0.15625,0.0625 -0.25,0.4375 -0.4375,0.734375 -0.671875,0.953125 C 3.953125,-0.53125 3.625,-0.4375 3.28125,-0.4375 h -0.625 C 2.421875,-0.4375 2.125,-0.515625 2.09375,-0.640625 2.046875,-0.84375 2.15625,-1.375 2.171875,-1.4375 L 2.46875,-2.984375 C 2.5,-3.109375 2.921875,-3.125 3.1875,-3.125 c 0.34375,0 0.578125,0.015625 0.6875,0.0625 0.078125,0.046875 0.1875,0.140625 0.203125,0.625 0,0.046875 0.046875,0.0625 0.125,0.0625 0.0625,0 0.15625,0 0.171875,-0.03125 L 4.75,-4.34375 C 4.71875,-4.359375 4.640625,-4.390625 4.578125,-4.390625 c -0.078125,0 -0.109375,0.03125 -0.125,0.078125 -0.25,0.578125 -0.421875,0.71875 -0.96875,0.71875 H 3 c -0.203125,0 -0.390625,-0.0625 -0.375,-0.109375 L 2.96875,-5.5 C 3.03125,-5.796875 3.0625,-6 3.125,-6.125 c 0.078125,-0.109375 0.28125,-0.109375 0.5,-0.109375 h 0.765625 c 0.578125,0 0.71875,0.46875 0.8125,1.015625 0.015625,0.046875 0.0625,0.078125 0.125,0.078125 0.078125,0 0.203125,-0.015625 0.234375,-0.046875 0,-0.453125 -0.015625,-1 0.015625,-1.484375 -0.546875,0 -2.640625,0.0625 -3.03125,0.0625 z m 0,0"
           style="fill:#506a68;fill-opacity:1;stroke:none;stroke-width:0" />
      </symbol>
    </g>
    <pattern
       id="EMFhbasepattern-7"
       patternUnits="userSpaceOnUse"
       width="6"
       height="6"
       x="0"
       y="0" />
    <linearGradient
       inkscape:collect="always"
       xlink:href="#linearGradient8348"
       id="linearGradient8350"
       x1="50.175846"
       y1="34.838051"
       x2="59.072861"
       y2="52.977627"
       gradientUnits="userSpaceOnUse" />
    <linearGradient
       inkscape:collect="always"
       xlink:href="#linearGradient8348"
       id="linearGradient917"
       x1="58.501228"
       y1="47.334728"
       x2="71.498604"
       y2="47.3815"
       gradientUnits="userSpaceOnUse" />
    <linearGradient
       inkscape:collect="always"
       xlink:href="#linearGradient8348"
       id="linearGradient925"
       x1="40.786976"
       y1="47.3815"
       x2="48.873272"
       y2="47.3815"
       gradientUnits="userSpaceOnUse" />
  </defs>
  <sodipodi:namedview
     id="base"
     pagecolor="#ffffff"
     bordercolor="#666666"
     borderopacity="1.0"
     inkscape:pageopacity="0.0"
     inkscape:pageshadow="2"
     inkscape:zoom="2.8284272"
     inkscape:cx="105.36446"
     inkscape:cy="115.64222"
     inkscape:document-units="mm"
     inkscape:current-layer="layer1"
     inkscape:document-rotation="0"
     showgrid="false"
     inkscape:window-width="1600"
     inkscape:window-height="837"
     inkscape:window-x="-8"
     inkscape:window-y="-8"
     inkscape:window-maximized="1" />
  <metadata
     id="metadata5">
    <rdf:RDF>
      <cc:Work
         rdf:about="">
        <dc:format>image/svg+xml</dc:format>
        <dc:type
           rdf:resource="http://purl.org/dc/dcmitype/StillImage" />
        <dc:title />
      </cc:Work>
    </rdf:RDF>
  </metadata>
  <g
     inkscape:label="Layer 1"
     inkscape:groupmode="layer"
     id="layer1"
     transform="translate(-26.557323,-19.80874)">
    <ellipse
       style="opacity:1;fill:none;stroke:#aa9e95;stroke-width:0.264583;stroke-linecap:round;stroke-linejoin:round;stroke-miterlimit:4;stroke-dasharray:none"
       id="path8236"
       cx="56.008755"
       cy="47.410164"
       rx="25.743767"
       ry="24.247059" />
    <path
       id="path8238"
       style="fill:none;stroke:#aa9e95;stroke-width:0.264583px;stroke-linecap:round;stroke-linejoin:round;stroke-opacity:1"
       d="m 33.885522,47.363393 c -0.106885,-4.202708 3.048122,-7.380134 5.327032,-10.567347 2.37718,-3.374888 5.703554,-6.153431 9.690479,-7.374252 3.510758,-1.257652 7.404475,-1.661598 11.037992,-0.695926 3.096215,0.161288 5.657577,2.133306 8.313846,3.504295 3.806291,2.696835 6.013063,6.941259 8.400102,10.819305 0.63708,1.33344 0.913595,2.805934 1.055842,4.267125" />
    <path
       id="path8240"
       style="fill:none;stroke:#aa9e95;stroke-width:0.264583px;stroke-linecap:round;stroke-linejoin:round;stroke-opacity:1"
       d="m 36.972485,47.223076 c 7e-4,-2.829362 4.646556,-4.971847 6.140241,-8.090267 2.029866,-3.047355 5.409996,-4.741408 8.760263,-5.96439 1.362639,-0.414618 2.817746,-0.574565 4.240901,-0.52644"
       sodipodi:nodetypes="cccc" />
    <path
       id="path8242"
       style="fill:none;stroke:#aa9e95;stroke-width:0.264583px;stroke-linecap:round;stroke-linejoin:round;stroke-opacity:1"
       d="m 38.609512,47.176304 c -0.01302,-1.925875 5.462126,-3.742529 7.63234,-6.299954 2.671362,-2.482143 5.171441,-4.652924 9.80822,-4.7103"
       sodipodi:nodetypes="ccc" />
    <path
       id="path8244"
       style="fill:none;stroke:#aa9e95;stroke-width:0.264583px;stroke-linecap:round;stroke-linejoin:round;stroke-opacity:1"
       d="m 39.778814,47.269848 c -0.01736,-1.473803 5.467738,-1.595017 10.759276,-7.305764 1.491831,-1.379123 3.531313,-1.682221 5.523274,-1.668567"
       sodipodi:nodetypes="ccc" />
    <path
       id="path8276"
       style="fill:none;stroke:#aa9e95;stroke-width:0.264583px;stroke-linecap:round;stroke-linejoin:round;stroke-opacity:1"
       d="m 33.885522,47.363393 c -0.106885,4.202708 3.048122,7.380134 5.327032,10.567347 2.37718,3.374888 5.703554,6.153431 9.690479,7.374252 3.510758,1.257652 7.404475,1.661598 11.037992,0.695926 3.096215,-0.161288 5.657577,-2.133306 8.313846,-3.504295 3.806291,-2.696835 6.013063,-6.941259 8.400102,-10.819305 0.63708,-1.33344 0.913595,-2.805934 1.055842,-4.267125" />
    <path
       id="path8296"
       style="fill:none;stroke:#aa9e95;stroke-width:0.264583px;stroke-linecap:round;stroke-linejoin:round;stroke-opacity:1"
       d="m 75.127659,47.223076 c -7e-4,-2.829362 -4.646556,-4.971847 -6.140241,-8.090267 -2.029866,-3.047355 -5.409996,-4.741408 -8.760263,-5.96439 -1.362639,-0.414618 -2.817746,-0.574565 -4.240901,-0.52644"
       sodipodi:nodetypes="cccc" />
    <path
       id="path8298"
       style="fill:none;stroke:#aa9e95;stroke-width:0.264583px;stroke-linecap:round;stroke-linejoin:round;stroke-opacity:1"
       d="m 73.490632,47.176304 c 0.01302,-1.925875 -5.462126,-3.742529 -7.63234,-6.299954 -2.671362,-2.482143 -5.171441,-4.652924 -9.80822,-4.7103"
       sodipodi:nodetypes="ccc" />
    <path
       id="path8300"
       style="fill:none;stroke:#aa9e95;stroke-width:0.264583px;stroke-linecap:round;stroke-linejoin:round;stroke-opacity:1"
       d="M 72.32133,47.269848 C 72.33869,45.796045 66.853592,45.674831 61.562054,39.964084 60.070223,38.584961 58.030741,38.281863 56.03878,38.295517"
       sodipodi:nodetypes="ccc" />
    <path
       id="path8302"
       style="fill:none;stroke:#aa9e95;stroke-width:0.264583px;stroke-linecap:round;stroke-linejoin:round;stroke-opacity:1"
       d="m 36.972485,47.31662 c 7e-4,2.829362 4.646556,4.971847 6.140241,8.090267 2.029866,3.047355 5.409996,4.741408 8.760263,5.96439 1.362639,0.414618 2.817746,0.574565 4.240901,0.52644"
       sodipodi:nodetypes="cccc" />
    <path
       id="path8304"
       style="fill:none;stroke:#aa9e95;stroke-width:0.264583px;stroke-linecap:round;stroke-linejoin:round;stroke-opacity:1"
       d="m 38.609512,47.363392 c -0.01302,1.925875 5.462126,3.742529 7.63234,6.299954 2.671362,2.482143 5.171441,4.652924 9.80822,4.7103"
       sodipodi:nodetypes="ccc" />
    <path
       id="path8306"
       style="fill:none;stroke:#aa9e95;stroke-width:0.264583px;stroke-linecap:round;stroke-linejoin:round;stroke-opacity:1"
       d="m 39.778814,47.269848 c -0.01736,1.473803 5.467738,1.595017 10.759276,7.305764 1.491831,1.379123 3.531313,1.682221 5.523274,1.668567"
       sodipodi:nodetypes="ccc" />
    <path
       id="path8308"
       style="fill:none;stroke:#aa9e95;stroke-width:0.264583px;stroke-linecap:round;stroke-linejoin:round;stroke-opacity:1"
       d="m 75.127659,47.31662 c -7e-4,2.829362 -4.646556,4.971847 -6.140241,8.090267 -2.029866,3.047355 -5.409996,4.741408 -8.760263,5.96439 -1.362639,0.414618 -2.817746,0.574565 -4.240901,0.52644"
       sodipodi:nodetypes="cccc" />
    <path
       id="path8310"
       style="fill:none;stroke:#aa9e95;stroke-width:0.264583px;stroke-linecap:round;stroke-linejoin:round;stroke-opacity:1"
       d="m 73.490632,47.363392 c 0.01302,1.925875 -5.462126,3.742529 -7.63234,6.299954 -2.671362,2.482143 -5.171441,4.652924 -9.80822,4.7103"
       sodipodi:nodetypes="ccc" />
    <path
       id="path8312"
       style="fill:none;stroke:#aa9e95;stroke-width:0.264583px;stroke-linecap:round;stroke-linejoin:round;stroke-opacity:1"
       d="m 72.32133,47.269848 c 0.01736,1.473803 -5.467738,1.595017 -10.759276,7.305764 -1.491831,1.379123 -3.531313,1.682221 -5.523274,1.668567"
       sodipodi:nodetypes="ccc" />
    <path
       style="fill:none;stroke:#506a68;stroke-width:0.264583;stroke-linecap:butt;stroke-linejoin:miter;stroke-miterlimit:4;stroke-dasharray:1.05833, 0.264583;stroke-dashoffset:0;stroke-opacity:1"
       d="M 56.017023,40.171606 V 19.80874"
       id="path8314" />
    <path
       style="fill:none;stroke:#506a68;stroke-width:0.264583;stroke-linecap:butt;stroke-linejoin:miter;stroke-miterlimit:4;stroke-dasharray:1.05833, 0.264583;stroke-dashoffset:0;stroke-opacity:1"
       d="M 59.844076,41.002378 70.548435,23.78811"
       id="path8316" />
    <path
       style="fill:none;stroke:#506a68;stroke-width:0.264583;stroke-linecap:butt;stroke-linejoin:miter;stroke-miterlimit:4;stroke-dasharray:1.05833, 0.264583;stroke-dashoffset:0;stroke-opacity:1"
       d="M 52.228008,41.002378 41.523649,23.78811"
       id="path8318" />
    <path
       style="fill:none;stroke:#506a68;stroke-width:0.264583;stroke-linecap:butt;stroke-linejoin:miter;stroke-miterlimit:4;stroke-dasharray:1.05833, 0.264583;stroke-dashoffset:0;stroke-opacity:1"
       d="M 40.919237,47.29882 H 26.557323"
       id="path8320" />
    <path
       style="fill:none;stroke:#506a68;stroke-width:0.264583;stroke-linecap:butt;stroke-linejoin:miter;stroke-miterlimit:4;stroke-dasharray:1.05833, 0.264583;stroke-dashoffset:0;stroke-opacity:1"
       d="m 30.567414,33.590096 c 2.594174,1.763079 16.071516,8.173088 16.073438,13.791406"
       id="path8322"
       sodipodi:nodetypes="cc" />
    <path
       style="fill:none;stroke:#506a68;stroke-width:0.264583;stroke-linecap:butt;stroke-linejoin:miter;stroke-miterlimit:4;stroke-dasharray:1.05833, 0.264583;stroke-dashoffset:0;stroke-opacity:1"
       d="M 85.52822,47.29882 H 71.166306"
       id="path8324" />
    <path
       style="fill:none;stroke:#506a68;stroke-width:0.264583;stroke-linecap:butt;stroke-linejoin:miter;stroke-miterlimit:4;stroke-dasharray:1.05833, 0.264583;stroke-dashoffset:0;stroke-opacity:1"
       d="M 56.017023,75.096628 V 54.733762"
       id="path8326" />
    <path
       style="fill:none;stroke:#506a68;stroke-width:0.264583;stroke-linecap:butt;stroke-linejoin:miter;stroke-miterlimit:4;stroke-dasharray:1.05833, 0.264583;stroke-dashoffset:0;stroke-opacity:1"
       d="M 30.567414,61.172908 C 33.161588,59.409829 46.63893,52.99982 46.640852,47.381502"
       id="path8328"
       sodipodi:nodetypes="cc" />
    <path
       style="fill:none;stroke:#506a68;stroke-width:0.264583;stroke-linecap:butt;stroke-linejoin:miter;stroke-miterlimit:4;stroke-dasharray:1.05833, 0.264583;stroke-dashoffset:0;stroke-opacity:1"
       d="M 81.094986,33.590096 C 78.500812,35.353175 65.02347,41.763184 65.021548,47.381502"
       id="path8330"
       sodipodi:nodetypes="cc" />
    <path
       style="fill:none;stroke:#506a68;stroke-width:0.264583;stroke-linecap:butt;stroke-linejoin:miter;stroke-miterlimit:4;stroke-dasharray:1.05833, 0.264583;stroke-dashoffset:0;stroke-opacity:1"
       d="M 81.094986,61.172908 C 78.500812,59.409829 65.02347,52.99982 65.021548,47.381502"
       id="path8332"
       sodipodi:nodetypes="cc" />
    <path
       style="fill:none;stroke:#506a68;stroke-width:0.264583;stroke-linecap:butt;stroke-linejoin:miter;stroke-miterlimit:4;stroke-dasharray:1.05833, 0.264583;stroke-dashoffset:0;stroke-opacity:1"
       d="M 59.844076,53.850282 70.548435,71.06455"
       id="path8334" />
    <path
       style="fill:none;stroke:#506a68;stroke-width:0.264583;stroke-linecap:butt;stroke-linejoin:miter;stroke-miterlimit:4;stroke-dasharray:1.05833, 0.264583;stroke-dashoffset:0;stroke-opacity:1"
       d="M 52.228008,53.850282 41.523649,71.06455"
       id="path8336" />
    <ellipse
       style="opacity:1;fill:url(#linearGradient8350);fill-opacity:1;stroke:#aa9e95;stroke-width:0.264583;stroke-linecap:round;stroke-linejoin:round;stroke-miterlimit:4;stroke-dasharray:none"
       id="ellipse8246"
       cx="56.135109"
       cy="47.394585"
       rx="7.861557"
       ry="7.2684283" />
    <path
       style="fill:url(#linearGradient917);stroke:#aa9e95;stroke-width:0.264583px;stroke-linecap:round;stroke-linejoin:round;stroke-opacity:1;fill-opacity:1"
       d="m 71.366342,47.29882 -7.821745,-2.397787 0.01654,4.960938 z"
       id="path8250" />
    <path
       style="fill:url(#linearGradient925);stroke:#aa9e95;stroke-width:0.264583px;stroke-linecap:round;stroke-linejoin:round;stroke-opacity:1;fill-opacity:1.0"
       d="m 40.919237,47.29882 7.821745,-2.397787 -0.01654,4.960938 z"
       id="path8248" />
  </g>
</svg>
