<?xml version="1.0" encoding="UTF-8" standalone="no"?>
<svg
   xmlns:dc="http://purl.org/dc/elements/1.1/"
   xmlns:cc="http://creativecommons.org/ns#"
   xmlns:rdf="http://www.w3.org/1999/02/22-rdf-syntax-ns#"
   xmlns:svg="http://www.w3.org/2000/svg"
   xmlns="http://www.w3.org/2000/svg"
   xmlns:sodipodi="http://sodipodi.sourceforge.net/DTD/sodipodi-0.dtd"
   xmlns:inkscape="http://www.inkscape.org/namespaces/inkscape"
   width="59.076721mm"
   height="43.885624mm"
   viewBox="0 0 59.076722 43.885623"
   version="1.1"
   id="svg8"
   inkscape:version="1.0.1 (3bc2e813f5, 2020-09-07)"
   sodipodi:docname="fig_3_4.svg">
  <defs
     id="defs2">
    <marker
       style="overflow:visible"
       id="marker9454"
       refX="0"
       refY="0"
       orient="auto"
       inkscape:stockid="Arrow1Mstart"
       inkscape:isstock="true">
      <path
         transform="matrix(0.4,0,0,0.4,4,0)"
         style="fill:#506a68;fill-opacity:1;fill-rule:evenodd;stroke:#506a68;stroke-width:1pt;stroke-opacity:1"
         d="M 0,0 5,-5 -12.5,0 5,5 Z"
         id="path9452" />
    </marker>
    <marker
       style="overflow:visible"
       id="marker9186"
       refX="0"
       refY="0"
       orient="auto"
       inkscape:stockid="Arrow1Mstart"
       inkscape:isstock="true">
      <path
         transform="matrix(0.4,0,0,0.4,4,0)"
         style="fill:#506a68;fill-opacity:1;fill-rule:evenodd;stroke:#506a68;stroke-width:1pt;stroke-opacity:1"
         d="M 0,0 5,-5 -12.5,0 5,5 Z"
         id="path9184" />
    </marker>
    <marker
       style="overflow:visible"
       id="marker9074"
       refX="0"
       refY="0"
       orient="auto"
       inkscape:stockid="Arrow1Mstart"
       inkscape:isstock="true"
       inkscape:collect="always">
      <path
         transform="matrix(0.4,0,0,0.4,4,0)"
         style="fill:#506a68;fill-opacity:1;fill-rule:evenodd;stroke:#506a68;stroke-width:1pt;stroke-opacity:1"
         d="M 0,0 5,-5 -12.5,0 5,5 Z"
         id="path9072" />
    </marker>
    <marker
       style="overflow:visible"
       id="marker9030"
       refX="0"
       refY="0"
       orient="auto"
       inkscape:stockid="Arrow1Mstart"
       inkscape:isstock="true"
       inkscape:collect="always">
      <path
         transform="matrix(0.4,0,0,0.4,4,0)"
         style="fill:#506a68;fill-opacity:1;fill-rule:evenodd;stroke:#506a68;stroke-width:1pt;stroke-opacity:1"
         d="M 0,0 5,-5 -12.5,0 5,5 Z"
         id="path9028" />
    </marker>
    <marker
       style="overflow:visible"
       id="marker8818"
       refX="0"
       refY="0"
       orient="auto"
       inkscape:stockid="Arrow1Mstart"
       inkscape:isstock="true"
       inkscape:collect="always">
      <path
         transform="matrix(0.4,0,0,0.4,4,0)"
         style="fill:#9e7867;fill-opacity:1;fill-rule:evenodd;stroke:#9e7867;stroke-width:1pt;stroke-opacity:1"
         d="M 0,0 5,-5 -12.5,0 5,5 Z"
         id="path8816" />
    </marker>
    <marker
       style="overflow:visible"
       id="marker8778"
       refX="0"
       refY="0"
       orient="auto"
       inkscape:stockid="Arrow1Mstart"
       inkscape:isstock="true"
       inkscape:collect="always">
      <path
         transform="matrix(0.4,0,0,0.4,4,0)"
         style="fill:#506a68;fill-opacity:1;fill-rule:evenodd;stroke:#506a68;stroke-width:1pt;stroke-opacity:1"
         d="M 0,0 5,-5 -12.5,0 5,5 Z"
         id="path8776" />
    </marker>
    <marker
       style="overflow:visible"
       id="marker8612"
       refX="0"
       refY="0"
       orient="auto"
       inkscape:stockid="Arrow1Mstart"
       inkscape:isstock="true"
       inkscape:collect="always">
      <path
         transform="matrix(0.4,0,0,0.4,4,0)"
         style="fill:#506a68;fill-opacity:1;fill-rule:evenodd;stroke:#506a68;stroke-width:1pt;stroke-opacity:1"
         d="M 0,0 5,-5 -12.5,0 5,5 Z"
         id="path8610" />
    </marker>
    <marker
       style="overflow:visible"
       id="Arrow1Mstart"
       refX="0"
       refY="0"
       orient="auto"
       inkscape:stockid="Arrow1Mstart"
       inkscape:isstock="true"
       inkscape:collect="always">
      <path
         transform="matrix(0.4,0,0,0.4,4,0)"
         style="fill:#506a68;fill-opacity:1;fill-rule:evenodd;stroke:#506a68;stroke-width:1pt;stroke-opacity:1"
         d="M 0,0 5,-5 -12.5,0 5,5 Z"
         id="path8302" />
    </marker>
    <marker
       style="overflow:visible"
       id="marker8252"
       refX="0"
       refY="0"
       orient="auto"
       inkscape:stockid="Arrow1Mend"
       inkscape:isstock="true">
      <path
         transform="matrix(-0.4,0,0,-0.4,-4,0)"
         style="fill:#9e7867;fill-opacity:1;fill-rule:evenodd;stroke:#9e7867;stroke-width:1pt;stroke-opacity:1"
         d="M 0,0 5,-5 -12.5,0 5,5 Z"
         id="path8250" />
    </marker>
    <marker
       style="overflow:visible"
       id="marker8214"
       refX="0"
       refY="0"
       orient="auto"
       inkscape:stockid="Arrow1Mend"
       inkscape:isstock="true">
      <path
         transform="matrix(-0.4,0,0,-0.4,-4,0)"
         style="fill:#506a68;fill-opacity:1;fill-rule:evenodd;stroke:#506a68;stroke-width:1pt;stroke-opacity:1"
         d="M 0,0 5,-5 -12.5,0 5,5 Z"
         id="path8212" />
    </marker>
    <marker
       style="overflow:visible"
       id="Arrow1Send"
       refX="0"
       refY="0"
       orient="auto"
       inkscape:stockid="Arrow1Send"
       inkscape:isstock="true">
      <path
         transform="matrix(-0.2,0,0,-0.2,-1.2,0)"
         style="fill:#506a68;fill-opacity:1;fill-rule:evenodd;stroke:#506a68;stroke-width:1pt;stroke-opacity:1"
         d="M 0,0 5,-5 -12.5,0 5,5 Z"
         id="path7357" />
    </marker>
    <marker
       style="overflow:visible"
       id="Arrow1Mend"
       refX="0"
       refY="0"
       orient="auto"
       inkscape:stockid="Arrow1Mend"
       inkscape:isstock="true"
       inkscape:collect="always">
      <path
         transform="matrix(-0.4,0,0,-0.4,-4,0)"
         style="fill:#506a68;fill-opacity:1;fill-rule:evenodd;stroke:#506a68;stroke-width:1pt;stroke-opacity:1"
         d="M 0,0 5,-5 -12.5,0 5,5 Z"
         id="path7351" />
    </marker>
    <pattern
       id="EMFhbasepattern"
       patternUnits="userSpaceOnUse"
       width="6"
       height="6"
       x="0"
       y="0" />
    <marker
       style="overflow:visible"
       id="Arrow1Mend-4"
       refX="0"
       refY="0"
       orient="auto"
       inkscape:stockid="Arrow1Mend"
       inkscape:isstock="true">
      <path
         transform="matrix(-0.4,0,0,-0.4,-4,0)"
         style="fill:#506a68;fill-opacity:1;fill-rule:evenodd;stroke:#506a68;stroke-width:1pt;stroke-opacity:1"
         d="M 0,0 5,-5 -12.5,0 5,5 Z"
         id="path7351-0" />
    </marker>
    <g
       id="g10092">
      <symbol
         overflow="visible"
         id="symbol10082">
        <path
           style="stroke:none"
           d=""
           id="path10080" />
      </symbol>
      <symbol
         overflow="visible"
         id="symbol10086">
        <path
           style="stroke:none"
           d="m 4.34375,-0.640625 h -3.8125 c 0,0 2.78125,-4.6875 2.84375,-4.6875 0.28125,1.640625 0.6875,3.5 0.96875,4.6875 z M 3.734375,-6.609375 3.71875,-6.625 c -0.046875,0 -0.265625,0.28125 -0.3125,0.390625 -0.109375,0.25 -0.171875,0.4375 -0.328125,0.703125 -1.296875,2.140625 -3.34375,5.4375 -3.34375,5.4375 v 0.015625 C -0.265625,-0.046875 -0.25,0 -0.21875,0 c 0,0 1.90625,-0.03125 4.265625,-0.03125 0.21875,0 0.515625,0.046875 0.5625,0.078125 0.109375,-0.03125 0.4375,-0.125 0.546875,-0.375 C 4.578125,-2.890625 4.25,-4.09375 3.734375,-6.609375 Z m 0,0"
           id="path10084" />
      </symbol>
      <symbol
         overflow="visible"
         id="symbol10090">
        <path
           style="stroke:none"
           d="m 3.15625,-6.71875 c -0.9375,0 -2.125,0.75 -2.125,1.90625 0,1.046875 0.75,1.359375 1.359375,1.84375 0.515625,0.390625 0.953125,0.75 0.953125,1.484375 0,0.796875 -0.609375,1.265625 -1.28125,1.265625 -1,0 -1.359375,-1.078125 -1.359375,-1.640625 -0.03125,-0.03125 -0.0625,-0.046875 -0.109375,-0.046875 -0.0625,0 -0.21875,0.015625 -0.25,0.046875 0,0.03125 -0.015625,0.078125 -0.015625,0.171875 0,0.296875 0.046875,0.921875 0.140625,1.34375 0.375,0.21875 0.890625,0.421875 1.46875,0.421875 1.09375,0 2.3125,-0.78125 2.3125,-2.015625 C 4.25,-2.875 3.515625,-3.234375 2.984375,-3.671875 2.4375,-4.09375 1.8125,-4.421875 1.8125,-5.25 c 0,-0.515625 0.4375,-1.15625 1.265625,-1.15625 0.65625,0 0.9375,0.5 0.9375,1.203125 0,0.0625 -0.015625,0.125 -0.015625,0.171875 0.0625,0.0625 0.171875,0.09375 0.21875,0.09375 0.03125,0 0.09375,-0.015625 0.09375,-0.09375 C 4.375,-5.328125 4.5,-6.140625 4.53125,-6.484375 4.03125,-6.59375 3.734375,-6.71875 3.15625,-6.71875 Z m 0,0"
           id="path10088" />
      </symbol>
    </g>
    <g
       id="id-986fbf19-47f1-47f3-b07a-62647210ddcc-5">
      <symbol
         overflow="visible"
         id="id-8d6d49e0-3023-4984-bfda-7ef52e178dc0-5">
        <path
           style="stroke:none"
           d="M 0.5,0 H 4.484375 V -4.8125 H 0.5 Z M 1,-0.5 V -4.3125 H 3.984375 V -0.5 Z m 0,0"
           id="id-a2a0d55d-417c-4b0e-81ef-5a5f819b0d9b-0" />
      </symbol>
      <symbol
         overflow="visible"
         id="id-9d1907c9-728c-464c-8c1e-cb000987056a-2">
        <path
           style="stroke:none"
           d="m 2.75,-4.359375 c -0.890625,0 -2.359375,1 -2.359375,2.3125 0,1.203125 0.828125,2.125 1.75,2.125 0.46875,0 1.15625,-0.421875 1.3125,-0.59375 0.015625,-0.015625 0.03125,0.015625 0.03125,0.0625 v 0.34375 c 0,0.0625 0.015625,0.1875 0.078125,0.1875 0,0 0.765625,-0.25 1.28125,-0.28125 0.046875,0 0.078125,-0.109375 0.078125,-0.140625 0,-0.03125 -0.015625,-0.109375 -0.03125,-0.109375 -0.03125,-0.015625 -0.5,0 -0.59375,-0.171875 -0.0625,-0.140625 -0.0625,-0.578125 -0.0625,-0.953125 v -4.1875 c 0,-0.53125 0.109375,-0.84375 0.109375,-0.84375 0,-0.0625 -0.0625,-0.15625 -0.109375,-0.15625 -0.421875,0.1875 -0.921875,0.328125 -1.40625,0.375 -0.03125,0.015625 -0.015625,0.265625 0,0.265625 0.265625,0 0.546875,0.03125 0.59375,0.15625 0.0625,0.109375 0.0625,0.359375 0.0625,0.484375 v 1.03125 c 0,0.109375 -0.015625,0.1875 -0.0625,0.1875 C 3.328125,-4.3125 2.953125,-4.359375 2.75,-4.359375 Z m -0.328125,0.40625 c 0.5625,0 1.0625,0.265625 1.0625,0.484375 v 2.546875 c 0,0.15625 -0.421875,0.390625 -0.875,0.390625 -0.90625,0 -1.40625,-0.8125 -1.40625,-1.765625 0,-0.84375 0.46875,-1.65625 1.21875,-1.65625 z m 0,0"
           id="id-8afa7524-5ae9-481c-856e-26e2fdecdc7f-7" />
      </symbol>
      <symbol
         overflow="visible"
         id="id-ad047c67-a031-4b2a-9488-72ba5b9731fb-8">
        <path
           style="stroke:none"
           d=""
           id="id-8a64c646-c9ea-4f61-96f8-befc0eef9650-0" />
      </symbol>
      <symbol
         overflow="visible"
         id="id-a76a9207-260a-46cd-8d59-b639ebe12df3-4">
        <path
           style="stroke:none"
           d="m 3.15625,-6.71875 c -0.9375,0 -2.125,0.75 -2.125,1.90625 0,1.046875 0.75,1.359375 1.359375,1.84375 0.515625,0.390625 0.953125,0.75 0.953125,1.484375 0,0.796875 -0.609375,1.265625 -1.28125,1.265625 -1,0 -1.359375,-1.078125 -1.359375,-1.640625 -0.03125,-0.03125 -0.0625,-0.046875 -0.109375,-0.046875 -0.0625,0 -0.21875,0.015625 -0.25,0.046875 0,0.03125 -0.015625,0.078125 -0.015625,0.171875 0,0.296875 0.046875,0.921875 0.140625,1.34375 0.375,0.21875 0.890625,0.421875 1.46875,0.421875 1.09375,0 2.3125,-0.78125 2.3125,-2.015625 C 4.25,-2.875 3.515625,-3.234375 2.984375,-3.671875 2.4375,-4.09375 1.8125,-4.421875 1.8125,-5.25 c 0,-0.515625 0.4375,-1.15625 1.265625,-1.15625 0.65625,0 0.9375,0.5 0.9375,1.203125 0,0.0625 -0.015625,0.125 -0.015625,0.171875 0.0625,0.0625 0.171875,0.09375 0.21875,0.09375 0.03125,0 0.09375,-0.015625 0.09375,-0.09375 C 4.375,-5.328125 4.5,-6.140625 4.53125,-6.484375 4.03125,-6.59375 3.734375,-6.71875 3.15625,-6.71875 Z m 0,0"
           id="id-c04e6ddf-4ece-4575-996f-6299ce25a964-9" />
      </symbol>
    </g>
    <g
       id="g10561"
       style="fill:#506a68;fill-opacity:1;stroke-width:0">
      <symbol
         id="symbol10555"
         overflow="visible"
         style="fill:#506a68;fill-opacity:1;stroke-width:0">
        <path
           id="path10553"
           d=""
           style="fill:#506a68;fill-opacity:1;stroke:none;stroke-width:0" />
      </symbol>
      <symbol
         id="symbol10559"
         overflow="visible"
         style="fill:#506a68;fill-opacity:1;stroke-width:0">
        <path
           id="path10557"
           d="M 2.546875,-6.609375 C 2.15625,-6.609375 1.625,-6.625 1.21875,-6.65625 c -0.046875,0.0625 -0.109375,0.3125 -0.078125,0.390625 0.109375,0 0.546875,0.03125 0.5625,0.15625 C 1.75,-5.90625 1.671875,-5.59375 1.59375,-5.15625 L 0.875,-1.46875 c -0.078125,0.421875 -0.140625,0.734375 -0.25,0.9375 -0.078125,0.125 -0.515625,0.15625 -0.640625,0.171875 -0.046875,0.0625 -0.09375,0.3125 -0.0625,0.375 C 0.046875,0.015625 0.578125,0 1.203125,0 H 4.46875 c 0.15625,-0.4375 0.5625,-1.1875 0.828125,-1.71875 -0.015625,-0.03125 -0.15625,-0.0625 -0.25,-0.0625 -0.078125,0 -0.125,0.015625 -0.15625,0.0625 -0.25,0.4375 -0.4375,0.734375 -0.671875,0.953125 C 3.953125,-0.53125 3.625,-0.4375 3.28125,-0.4375 h -0.625 C 2.421875,-0.4375 2.125,-0.515625 2.09375,-0.640625 2.046875,-0.84375 2.15625,-1.375 2.171875,-1.4375 L 2.46875,-2.984375 C 2.5,-3.109375 2.921875,-3.125 3.1875,-3.125 c 0.34375,0 0.578125,0.015625 0.6875,0.0625 0.078125,0.046875 0.1875,0.140625 0.203125,0.625 0,0.046875 0.046875,0.0625 0.125,0.0625 0.0625,0 0.15625,0 0.171875,-0.03125 L 4.75,-4.34375 C 4.71875,-4.359375 4.640625,-4.390625 4.578125,-4.390625 c -0.078125,0 -0.109375,0.03125 -0.125,0.078125 -0.25,0.578125 -0.421875,0.71875 -0.96875,0.71875 H 3 c -0.203125,0 -0.390625,-0.0625 -0.375,-0.109375 L 2.96875,-5.5 C 3.03125,-5.796875 3.0625,-6 3.125,-6.125 c 0.078125,-0.109375 0.28125,-0.109375 0.5,-0.109375 h 0.765625 c 0.578125,0 0.71875,0.46875 0.8125,1.015625 0.015625,0.046875 0.0625,0.078125 0.125,0.078125 0.078125,0 0.203125,-0.015625 0.234375,-0.046875 0,-0.453125 -0.015625,-1 0.015625,-1.484375 -0.546875,0 -2.640625,0.0625 -3.03125,0.0625 z m 0,0"
           style="fill:#506a68;fill-opacity:1;stroke:none;stroke-width:0" />
      </symbol>
    </g>
    <pattern
       id="EMFhbasepattern-7"
       patternUnits="userSpaceOnUse"
       width="6"
       height="6"
       x="0"
       y="0" />
    <pattern
       id="EMFhbasepattern-3"
       patternUnits="userSpaceOnUse"
       width="6"
       height="6"
       x="0"
       y="0" />
    <pattern
       id="EMFhbasepattern-6"
       patternUnits="userSpaceOnUse"
       width="6"
       height="6"
       x="0"
       y="0" />
  </defs>
  <sodipodi:namedview
     id="base"
     pagecolor="#ffffff"
     bordercolor="#666666"
     borderopacity="1.0"
     inkscape:pageopacity="0.0"
     inkscape:pageshadow="2"
     inkscape:zoom="2.8284272"
     inkscape:cx="116.30522"
     inkscape:cy="97.153472"
     inkscape:document-units="mm"
     inkscape:current-layer="layer1"
     inkscape:document-rotation="0"
     showgrid="false"
     inkscape:window-width="1600"
     inkscape:window-height="837"
     inkscape:window-x="-8"
     inkscape:window-y="-8"
     inkscape:window-maximized="1"
     showguides="false">
    <sodipodi:guide
       position="-53.63202,37.422126"
       orientation="1,0"
       id="guide946" />
  </sodipodi:namedview>
  <metadata
     id="metadata5">
    <rdf:RDF>
      <cc:Work
         rdf:about="">
        <dc:format>image/svg+xml</dc:format>
        <dc:type
           rdf:resource="http://purl.org/dc/dcmitype/StillImage" />
        <dc:title></dc:title>
      </cc:Work>
    </rdf:RDF>
  </metadata>
  <g
     inkscape:label="Layer 1"
     inkscape:groupmode="layer"
     id="layer1"
     transform="translate(-152.35445,-28.228056)">
    <path
       id="path8242"
       style="opacity:0.2;fill:#aa9e95;stroke:none;stroke-width:0.529167;stroke-linecap:butt;stroke-linejoin:miter;stroke-miterlimit:4;stroke-dasharray:none;stroke-opacity:1"
       d="m 169.06748,42.775812 c 1.35508,-2.548116 4.46456,-3.64598 7.21161,-3.176415 1.58376,0.376822 2.14499,0.910627 3.39311,0.972988 4.73994,0.204938 9.71707,0.547098 13.92324,2.958294 2.20965,1.489528 2.36844,4.358918 3.17404,6.661399 0.35006,1.239323 1.17486,2.228991 1.97259,3.201053 1.59022,2.185008 0.98026,5.41252 -1.56072,6.557003 -2.77469,1.370278 -5.61619,2.798448 -8.62339,3.324885 -2.13053,0.413446 -4.36173,0.50778 -6.45159,-0.158939 -2.9085,-0.615418 -6.87124,-2.367966 -8.42598,-2.347447 -4.95827,-0.214001 -5.42446,-0.596911 -6.35514,-4.246535 -0.28528,-1.700591 -0.30863,-2.8863 -0.49715,-4.513983 -0.0868,-2.334763 0.21826,-4.659985 0.92393,-6.736048 0.22752,-0.895445 1.31541,-2.496255 1.31541,-2.496255 z"
       sodipodi:nodetypes="ccccccccccccccc" />
    <path
       style="fill:none;stroke:#9e7867;stroke-width:0.264583;stroke-linecap:butt;stroke-linejoin:miter;stroke-miterlimit:4;stroke-dasharray:1.05833, 0.264583;stroke-dashoffset:0;stroke-opacity:1"
       d="m 152.56955,28.360347 h 58.31224"
       id="path7845" />
    <path
       style="fill:none;stroke:#9e7867;stroke-width:0.264583;stroke-linecap:butt;stroke-linejoin:miter;stroke-miterlimit:4;stroke-dasharray:1.05833, 0.264583;stroke-dashoffset:0;stroke-opacity:1"
       d="m 152.56955,71.981388 h 58.31224"
       id="path7847" />
    <path
       style="fill:none;stroke:#9e7867;stroke-width:0.264583;stroke-linecap:butt;stroke-linejoin:miter;stroke-miterlimit:4;stroke-dasharray:1.05833, 0.264583;stroke-dashoffset:0;stroke-opacity:1"
       d="m 152.56955,66.560388 h 58.31224"
       id="path7849" />
    <path
       style="fill:none;stroke:#9e7867;stroke-width:0.264583;stroke-linecap:butt;stroke-linejoin:miter;stroke-miterlimit:4;stroke-dasharray:1.05833, 0.264583;stroke-dashoffset:0;stroke-opacity:1"
       d="m 152.56955,61.068388 h 58.31224"
       id="path7851" />
    <path
       style="fill:none;stroke:#9e7867;stroke-width:0.264583;stroke-linecap:butt;stroke-linejoin:miter;stroke-miterlimit:4;stroke-dasharray:1.05833, 0.264583;stroke-dashoffset:0;stroke-opacity:1"
       d="m 152.56955,55.547388 h 58.31224"
       id="path7853" />
    <path
       style="fill:none;stroke:#9e7867;stroke-width:0.264583;stroke-linecap:butt;stroke-linejoin:miter;stroke-miterlimit:4;stroke-dasharray:1.05833, 0.264583;stroke-dashoffset:0;stroke-opacity:1"
       d="m 152.56955,50.156388 h 58.31224"
       id="path7855" />
    <path
       style="fill:none;stroke:#9e7867;stroke-width:0.264583;stroke-linecap:butt;stroke-linejoin:miter;stroke-miterlimit:4;stroke-dasharray:1.05833, 0.264583;stroke-dashoffset:0;stroke-opacity:1"
       d="m 152.56955,44.764524 h 58.31224"
       id="path7857" />
    <path
       style="fill:none;stroke:#9e7867;stroke-width:0.264583;stroke-linecap:butt;stroke-linejoin:miter;stroke-miterlimit:4;stroke-dasharray:1.05833, 0.264583;stroke-dashoffset:0;stroke-opacity:1"
       d="M 152.56986,39.272388 H 210.8821"
       id="path7859" />
    <path
       style="fill:none;stroke:#9e7867;stroke-width:0.264583;stroke-linecap:butt;stroke-linejoin:miter;stroke-miterlimit:4;stroke-dasharray:1.05833, 0.264583;stroke-dashoffset:0;stroke-opacity:1"
       d="m 152.56955,33.652017 h 58.31224"
       id="path7861" />
    <circle
       style="fill:#ffffff;stroke:#3a493f;stroke-width:0.206089;stroke-linejoin:round;stroke-miterlimit:4;stroke-dasharray:none;stroke-dashoffset:0"
       id="circle7886"
       cx="189.7529"
       cy="43.536285"
       r="1.1469556" />
    <g
       style="stroke:#3a493f;stroke-width:0.509521;stroke-miterlimit:4;stroke-dasharray:none"
       transform="matrix(0.51927882,0,0,0.51927882,158.51638,29.29126)"
       id="g7892">
      <path
         id="path7888"
         d="m 58.66566,27.445239 h 3.040192"
         style="fill:none;stroke:#3a493f;stroke-width:0.509521;stroke-linecap:round;stroke-linejoin:miter;stroke-miterlimit:4;stroke-dasharray:none;stroke-opacity:1" />
      <path
         style="fill:none;stroke:#3a493f;stroke-width:0.509521;stroke-linecap:round;stroke-linejoin:miter;stroke-miterlimit:4;stroke-dasharray:none;stroke-opacity:1"
         d="m 60.169052,25.916792 v 3.040192"
         id="path7890" />
    </g>
    <circle
       style="fill:#ffffff;stroke:#3a493f;stroke-width:0.206089;stroke-linejoin:round;stroke-miterlimit:4;stroke-dasharray:none;stroke-dashoffset:0"
       id="circle7924"
       cx="192.9451"
       cy="45.091461"
       r="1.1469556" />
    <g
       style="stroke:#3a493f;stroke-width:0.509521;stroke-miterlimit:4;stroke-dasharray:none"
       transform="matrix(0.51927882,0,0,0.51927882,161.70858,30.846435)"
       id="g7930">
      <path
         id="path7926"
         d="m 58.66566,27.445239 h 3.040192"
         style="fill:none;stroke:#3a493f;stroke-width:0.509521;stroke-linecap:round;stroke-linejoin:miter;stroke-miterlimit:4;stroke-dasharray:none;stroke-opacity:1" />
      <path
         style="fill:none;stroke:#3a493f;stroke-width:0.509521;stroke-linecap:round;stroke-linejoin:miter;stroke-miterlimit:4;stroke-dasharray:none;stroke-opacity:1"
         d="m 60.169052,25.916792 v 3.040192"
         id="path7928" />
    </g>
    <circle
       style="fill:#ffffff;stroke:#3a493f;stroke-width:0.206089;stroke-linejoin:round;stroke-miterlimit:4;stroke-dasharray:none;stroke-dashoffset:0"
       id="circle7946"
       cx="194.27811"
       cy="47.278061"
       r="1.1469556" />
    <g
       style="stroke:#3a493f;stroke-width:0.509521;stroke-miterlimit:4;stroke-dasharray:none"
       transform="matrix(0.51927882,0,0,0.51927882,163.04158,33.033033)"
       id="g7952">
      <path
         id="path7948"
         d="m 58.66566,27.445239 h 3.040192"
         style="fill:none;stroke:#3a493f;stroke-width:0.509521;stroke-linecap:round;stroke-linejoin:miter;stroke-miterlimit:4;stroke-dasharray:none;stroke-opacity:1" />
      <path
         style="fill:none;stroke:#3a493f;stroke-width:0.509521;stroke-linecap:round;stroke-linejoin:miter;stroke-miterlimit:4;stroke-dasharray:none;stroke-opacity:1"
         d="m 60.169052,25.916792 v 3.040192"
         id="path7950" />
    </g>
    <circle
       style="fill:#ffffff;stroke:#3a493f;stroke-width:0.206089;stroke-linejoin:round;stroke-miterlimit:4;stroke-dasharray:none;stroke-dashoffset:0"
       id="circle7956"
       cx="196.65935"
       cy="53.330402"
       r="1.1469556" />
    <g
       style="stroke:#3a493f;stroke-width:0.509521;stroke-miterlimit:4;stroke-dasharray:none"
       transform="matrix(0.51927882,0,0,0.51927882,165.42283,39.085377)"
       id="g7962">
      <path
         id="path7958"
         d="m 58.66566,27.445239 h 3.040192"
         style="fill:none;stroke:#3a493f;stroke-width:0.509521;stroke-linecap:round;stroke-linejoin:miter;stroke-miterlimit:4;stroke-dasharray:none;stroke-opacity:1" />
      <path
         style="fill:none;stroke:#3a493f;stroke-width:0.509521;stroke-linecap:round;stroke-linejoin:miter;stroke-miterlimit:4;stroke-dasharray:none;stroke-opacity:1"
         d="m 60.169052,25.916792 v 3.040192"
         id="path7960" />
    </g>
    <circle
       style="fill:#ffffff;stroke:#3a493f;stroke-width:0.206089;stroke-linejoin:round;stroke-miterlimit:4;stroke-dasharray:none;stroke-dashoffset:0"
       id="circle7966"
       cx="197.84998"
       cy="55.579361"
       r="1.1469556" />
    <g
       style="stroke:#3a493f;stroke-width:0.509521;stroke-miterlimit:4;stroke-dasharray:none"
       transform="matrix(0.51927882,0,0,0.51927882,166.61346,41.334335)"
       id="g7972">
      <path
         id="path7968"
         d="m 58.66566,27.445239 h 3.040192"
         style="fill:none;stroke:#3a493f;stroke-width:0.509521;stroke-linecap:round;stroke-linejoin:miter;stroke-miterlimit:4;stroke-dasharray:none;stroke-opacity:1" />
      <path
         style="fill:none;stroke:#3a493f;stroke-width:0.509521;stroke-linecap:round;stroke-linejoin:miter;stroke-miterlimit:4;stroke-dasharray:none;stroke-opacity:1"
         d="m 60.169052,25.916792 v 3.040192"
         id="path7970" />
    </g>
    <circle
       style="fill:#ffffff;stroke:#3a493f;stroke-width:0.206089;stroke-linejoin:round;stroke-miterlimit:4;stroke-dasharray:none;stroke-dashoffset:0"
       id="circle7976"
       cx="197.38696"
       cy="58.05983"
       r="1.1469556" />
    <g
       style="stroke:#3a493f;stroke-width:0.509521;stroke-miterlimit:4;stroke-dasharray:none"
       transform="matrix(0.51927882,0,0,0.51927882,166.15044,43.814804)"
       id="g7982">
      <path
         id="path7978"
         d="m 58.66566,27.445239 h 3.040192"
         style="fill:none;stroke:#3a493f;stroke-width:0.509521;stroke-linecap:round;stroke-linejoin:miter;stroke-miterlimit:4;stroke-dasharray:none;stroke-opacity:1" />
      <path
         style="fill:none;stroke:#3a493f;stroke-width:0.509521;stroke-linecap:round;stroke-linejoin:miter;stroke-miterlimit:4;stroke-dasharray:none;stroke-opacity:1"
         d="m 60.169052,25.916792 v 3.040192"
         id="path7980" />
    </g>
    <circle
       style="fill:#ffffff;stroke:#3a493f;stroke-width:0.206089;stroke-linejoin:round;stroke-miterlimit:4;stroke-dasharray:none;stroke-dashoffset:0"
       id="circle7986"
       cx="193.84816"
       cy="59.845768"
       r="1.1469556" />
    <g
       style="stroke:#3a493f;stroke-width:0.509521;stroke-miterlimit:4;stroke-dasharray:none"
       transform="matrix(0.51927882,0,0,0.51927882,162.61163,45.600741)"
       id="g7992">
      <path
         id="path7988"
         d="m 58.66566,27.445239 h 3.040192"
         style="fill:none;stroke:#3a493f;stroke-width:0.509521;stroke-linecap:round;stroke-linejoin:miter;stroke-miterlimit:4;stroke-dasharray:none;stroke-opacity:1" />
      <path
         style="fill:none;stroke:#3a493f;stroke-width:0.509521;stroke-linecap:round;stroke-linejoin:miter;stroke-miterlimit:4;stroke-dasharray:none;stroke-opacity:1"
         d="m 60.169052,25.916792 v 3.040192"
         id="path7990" />
    </g>
    <circle
       style="fill:#ffffff;stroke:#6a4239;stroke-width:0.206089;stroke-linejoin:round;stroke-miterlimit:4;stroke-dasharray:none;stroke-dashoffset:0"
       id="circle8008"
       cx="175.29425"
       cy="59.316601"
       r="1.1469556" />
    <path
       id="path8010"
       d="m 174.52156,59.323305 h 1.57871"
       style="fill:none;stroke:#6a4239;stroke-width:0.264583;stroke-linecap:round;stroke-linejoin:miter;stroke-miterlimit:4;stroke-dasharray:none;stroke-opacity:1" />
    <circle
       style="fill:#ffffff;stroke:#6a4239;stroke-width:0.206089;stroke-linejoin:round;stroke-miterlimit:4;stroke-dasharray:none;stroke-dashoffset:0"
       id="circle8030"
       cx="169.91991"
       cy="58.605534"
       r="1.1469556" />
    <path
       id="path8032"
       d="m 169.14721,58.612237 h 1.57871"
       style="fill:none;stroke:#6a4239;stroke-width:0.264583;stroke-linecap:round;stroke-linejoin:miter;stroke-miterlimit:4;stroke-dasharray:none;stroke-opacity:1" />
    <circle
       style="fill:#ffffff;stroke:#6a4239;stroke-width:0.206089;stroke-linejoin:round;stroke-miterlimit:4;stroke-dasharray:none;stroke-dashoffset:0"
       id="circle8034"
       cx="168.7506"
       cy="54.419426"
       r="1.1469556" />
    <path
       id="path8036"
       d="m 167.97791,54.426128 h 1.57871"
       style="fill:none;stroke:#6a4239;stroke-width:0.264583;stroke-linecap:round;stroke-linejoin:miter;stroke-miterlimit:4;stroke-dasharray:none;stroke-opacity:1" />
    <circle
       style="fill:#ffffff;stroke:#6a4239;stroke-width:0.206089;stroke-linejoin:round;stroke-miterlimit:4;stroke-dasharray:none;stroke-dashoffset:0"
       id="circle8038"
       cx="168.51674"
       cy="50.420406"
       r="1.1469556" />
    <path
       id="path8040"
       d="m 167.74405,50.427108 h 1.57871"
       style="fill:none;stroke:#6a4239;stroke-width:0.264583;stroke-linecap:round;stroke-linejoin:miter;stroke-miterlimit:4;stroke-dasharray:none;stroke-opacity:1" />
    <circle
       style="fill:#ffffff;stroke:#6a4239;stroke-width:0.206089;stroke-linejoin:round;stroke-miterlimit:4;stroke-dasharray:none;stroke-dashoffset:0"
       id="circle8042"
       cx="168.84415"
       cy="47.169743"
       r="1.1469556" />
    <path
       id="path8044"
       d="m 168.07146,47.176442 h 1.57871"
       style="fill:none;stroke:#6a4239;stroke-width:0.264583;stroke-linecap:round;stroke-linejoin:miter;stroke-miterlimit:4;stroke-dasharray:none;stroke-opacity:1" />
    <circle
       style="fill:#ffffff;stroke:#6a4239;stroke-width:0.206089;stroke-linejoin:round;stroke-miterlimit:4;stroke-dasharray:none;stroke-dashoffset:0"
       id="circle8046"
       cx="170.38763"
       cy="43.825531"
       r="1.1469556" />
    <path
       id="path8048"
       d="m 169.61494,43.832232 h 1.57871"
       style="fill:none;stroke:#6a4239;stroke-width:0.264583;stroke-linecap:round;stroke-linejoin:miter;stroke-miterlimit:4;stroke-dasharray:none;stroke-opacity:1" />
    <circle
       style="fill:#ffffff;stroke:#6a4239;stroke-width:0.206089;stroke-linejoin:round;stroke-miterlimit:4;stroke-dasharray:none;stroke-dashoffset:0"
       id="circle8050"
       cx="173.33427"
       cy="41.299835"
       r="1.1469556" />
    <path
       id="path8052"
       d="m 172.56159,41.306535 h 1.57871"
       style="fill:none;stroke:#6a4239;stroke-width:0.264583;stroke-linecap:round;stroke-linejoin:miter;stroke-miterlimit:4;stroke-dasharray:none;stroke-opacity:1" />
    <path
       style="fill:none;stroke:#506a68;stroke-width:0.264583;stroke-linecap:round;stroke-linejoin:miter;stroke-miterlimit:4;stroke-dasharray:none;stroke-opacity:1;marker-end:url(#Arrow1Mend)"
       d="m 152.5034,28.773758 c 6.4045,0.07639 17.30862,4.222022 27.51819,3.907739 10.44359,-0.321486 19.4385,-3.155993 30.88858,-3.610082"
       id="path8082"
       sodipodi:nodetypes="csc" />
    <path
       style="fill:none;stroke:#506a68;stroke-width:0.264583px;stroke-linecap:round;stroke-linejoin:miter;stroke-opacity:1"
       d="m 152.48674,34.19312 c 9.75121,0.130049 16.08092,1.743258 20.0068,5.565888"
       id="path8114"
       sodipodi:nodetypes="cc" />
    <path
       style="fill:none;stroke:#506a68;stroke-width:0.264583px;stroke-linecap:round;stroke-linejoin:miter;stroke-opacity:1"
       d="m 152.75176,39.735409 c 5.00967,0.257807 9.55464,-0.303141 16.31568,3.040403"
       id="path8116"
       sodipodi:nodetypes="cc" />
    <path
       style="fill:none;stroke:#506a68;stroke-width:0.264583px;stroke-linecap:round;stroke-linejoin:miter;stroke-opacity:1"
       d="m 152.77582,45.143266 c 4.50737,0.148484 8.95904,0.226405 14.37369,1.524107"
       id="path8180"
       sodipodi:nodetypes="cc" />
    <path
       style="fill:none;stroke:#506a68;stroke-width:0.264583px;stroke-linecap:round;stroke-linejoin:miter;stroke-opacity:1"
       d="m 152.70987,50.694268 c 4.93118,0.03036 10.17392,0.138611 13.68086,-0.187089"
       id="path8182"
       sodipodi:nodetypes="cc" />
    <path
       style="fill:none;stroke:#506a68;stroke-width:0.264583px;stroke-linecap:round;stroke-linejoin:miter;stroke-opacity:1"
       d="m 152.73356,60.553662 c 5.2413,-0.379963 11.75922,-0.400878 15.22435,-1.280389"
       id="path8184"
       sodipodi:nodetypes="cc" />
    <path
       style="fill:none;stroke:#506a68;stroke-width:0.264583px;stroke-linecap:round;stroke-linejoin:miter;stroke-opacity:1"
       d="m 152.55944,66.065572 c 13.12918,-0.803644 21.19573,-0.500816 22.14662,-5.033855"
       id="path8186"
       sodipodi:nodetypes="cc" />
    <path
       style="fill:none;stroke:#506a68;stroke-width:0.264583px;stroke-linecap:round;stroke-linejoin:miter;stroke-opacity:1"
       d="m 152.80106,55.175318 c 4.93364,-0.192983 11.75829,-0.307173 13.85157,-0.618505"
       id="path8190"
       sodipodi:nodetypes="cc" />
    <path
       style="fill:none;stroke:#506a68;stroke-width:0.264583px;stroke-linecap:round;stroke-linejoin:miter;stroke-opacity:1;marker-start:url(#Arrow1Mstart)"
       d="m 210.43161,34.406218 c -9.5877,0.808575 -16.78982,2.777806 -20.04811,7.542255"
       id="path8192"
       sodipodi:nodetypes="cc" />
    <path
       style="fill:none;stroke:#506a68;stroke-width:0.264583;stroke-linecap:round;stroke-linejoin:miter;stroke-miterlimit:4;stroke-dasharray:none;stroke-opacity:1;marker-end:url(#marker8214)"
       d="m 152.71387,71.617898 c 27.21812,-1.339239 28.48843,-4.931462 36.52233,-4.354224 10.51439,0.755461 10.14068,2.848852 20.76191,4.126725"
       id="path8210"
       sodipodi:nodetypes="csc" />
    <path
       style="fill:none;stroke:#506a68;stroke-width:0.264583px;stroke-linecap:round;stroke-linejoin:miter;stroke-opacity:1;marker-start:url(#marker8612)"
       d="m 210.43164,39.962469 c -9.5877,0.808575 -14.07659,2.688279 -15.97848,4.178677"
       id="path8608"
       sodipodi:nodetypes="cc" />
    <path
       style="fill:none;stroke:#506a68;stroke-width:0.264583px;stroke-linecap:round;stroke-linejoin:miter;stroke-opacity:1;marker-start:url(#marker8778)"
       d="m 210.39857,45.4195 c -10.89732,0.387625 -14.52327,1.301333 -14.52327,1.301333"
       id="path8688"
       sodipodi:nodetypes="cc" />
    <path
       style="fill:none;stroke:#9e7867;stroke-width:0.264583px;stroke-linecap:round;stroke-linejoin:miter;stroke-opacity:1;marker-start:url(#marker8818)"
       d="m 210.50606,50.859995 c -7.59003,0.470307 -12.10895,1.946255 -12.10895,1.946255"
       id="path8814"
       sodipodi:nodetypes="cc" />
    <path
       style="fill:none;stroke:#506a68;stroke-width:0.264583px;stroke-linecap:round;stroke-linejoin:miter;stroke-opacity:1;marker-start:url(#marker9454)"
       d="m 210.50606,50.859995 c -7.59003,0.470307 -12.10895,1.946255 -12.10895,1.946255"
       id="path8916"
       sodipodi:nodetypes="cc" />
    <path
       style="fill:none;stroke:#506a68;stroke-width:0.264583px;stroke-linecap:round;stroke-linejoin:miter;stroke-opacity:1;marker-start:url(#marker9030)"
       d="m 210.48952,55.258693 c -4.10084,-0.57149 -10.80257,0.0611 -10.80257,0.0611"
       id="path9026"
       sodipodi:nodetypes="cc" />
    <path
       style="fill:none;stroke:#506a68;stroke-width:0.264583px;stroke-linecap:round;stroke-linejoin:miter;stroke-opacity:1;marker-start:url(#marker9074)"
       d="m 210.395,60.780326 c -4.56856,-0.384401 -11.27029,-2.417825 -11.27029,-2.417825"
       id="path9070"
       sodipodi:nodetypes="cc" />
    <path
       style="fill:none;stroke:#506a68;stroke-width:0.264583px;stroke-linecap:round;stroke-linejoin:miter;stroke-opacity:1;marker-start:url(#marker9186)"
       d="M 210.19656,66.237357 C 197.41949,65.17476 194.59372,61.239845 194.59372,61.239845"
       id="path9182"
       sodipodi:nodetypes="cc" />
    <path
       id="path7863"
       style="fill:none;stroke:#aa9e95;stroke-width:0.529167;stroke-linecap:butt;stroke-linejoin:miter;stroke-miterlimit:4;stroke-dasharray:none;stroke-opacity:1"
       d="m 169.06748,42.775812 c 1.35508,-2.548116 4.46456,-3.64598 7.21161,-3.176415 1.58376,0.376822 2.14499,0.910627 3.39311,0.972988 4.73994,0.204938 9.71707,0.547098 13.92324,2.958294 2.20965,1.489528 2.36844,4.358918 3.17404,6.661399 0.35006,1.239323 1.17486,2.228991 1.97259,3.201053 1.59022,2.185008 0.98026,5.41252 -1.56072,6.557003 -2.77469,1.370278 -5.61619,2.798448 -8.62339,3.324885 -2.13053,0.413446 -4.36173,0.50778 -6.45159,-0.158939 -2.9085,-0.615418 -6.87124,-2.367966 -8.42598,-2.347447 -4.95827,-0.214001 -5.42446,-0.596911 -6.35514,-4.246535 -0.28528,-1.700591 -0.30863,-2.8863 -0.49715,-4.513983 -0.0868,-2.334763 0.21826,-4.659985 0.92393,-6.736048 0.22752,-0.895445 1.31541,-2.496255 1.31541,-2.496255 z"
       sodipodi:nodetypes="ccccccccccccccc" />
  </g>
</svg>
