<?xml version="1.0" encoding="UTF-8" standalone="no"?>
<svg
   xmlns:ns2="http://www.iki.fi/pav/software/textext/"
   xmlns:dc="http://purl.org/dc/elements/1.1/"
   xmlns:cc="http://creativecommons.org/ns#"
   xmlns:rdf="http://www.w3.org/1999/02/22-rdf-syntax-ns#"
   xmlns:svg="http://www.w3.org/2000/svg"
   xmlns="http://www.w3.org/2000/svg"
   xmlns:sodipodi="http://sodipodi.sourceforge.net/DTD/sodipodi-0.dtd"
   xmlns:inkscape="http://www.inkscape.org/namespaces/inkscape"
   width="38.387119mm"
   height="52.145462mm"
   viewBox="0 0 38.38712 52.145461"
   version="1.1"
   id="svg8"
   inkscape:version="1.0.1 (3bc2e813f5, 2020-09-07)"
   sodipodi:docname="fig_3_3.svg">
  <defs
     id="defs2">
    <marker
       style="overflow:visible"
       id="Arrow1Send"
       refX="0"
       refY="0"
       orient="auto"
       inkscape:stockid="Arrow1Send"
       inkscape:isstock="true">
      <path
         transform="matrix(-0.2,0,0,-0.2,-1.2,0)"
         style="fill:#506a68;fill-opacity:1;fill-rule:evenodd;stroke:#506a68;stroke-width:1pt;stroke-opacity:1"
         d="M 0,0 5,-5 -12.5,0 5,5 Z"
         id="path7357" />
    </marker>
    <marker
       style="overflow:visible"
       id="Arrow1Mend"
       refX="0"
       refY="0"
       orient="auto"
       inkscape:stockid="Arrow1Mend"
       inkscape:isstock="true">
      <path
         transform="matrix(-0.4,0,0,-0.4,-4,0)"
         style="fill:#000000;fill-opacity:1;fill-rule:evenodd;stroke:#000000;stroke-width:1pt;stroke-opacity:1"
         d="M 0,0 5,-5 -12.5,0 5,5 Z"
         id="path7351" />
    </marker>
    <pattern
       id="EMFhbasepattern"
       patternUnits="userSpaceOnUse"
       width="6"
       height="6"
       x="0"
       y="0" />
    <marker
       style="overflow:visible"
       id="Arrow1Mend-4"
       refX="0"
       refY="0"
       orient="auto"
       inkscape:stockid="Arrow1Mend"
       inkscape:isstock="true">
      <path
         transform="matrix(-0.4,0,0,-0.4,-4,0)"
         style="fill:#506a68;fill-opacity:1;fill-rule:evenodd;stroke:#506a68;stroke-width:1pt;stroke-opacity:1"
         d="M 0,0 5,-5 -12.5,0 5,5 Z"
         id="path7351-0" />
    </marker>
    <g
       id="g10092">
      <symbol
         overflow="visible"
         id="symbol10082">
        <path
           style="stroke:none"
           d=""
           id="path10080" />
      </symbol>
      <symbol
         overflow="visible"
         id="symbol10086">
        <path
           style="stroke:none"
           d="m 4.34375,-0.640625 h -3.8125 c 0,0 2.78125,-4.6875 2.84375,-4.6875 0.28125,1.640625 0.6875,3.5 0.96875,4.6875 z M 3.734375,-6.609375 3.71875,-6.625 c -0.046875,0 -0.265625,0.28125 -0.3125,0.390625 -0.109375,0.25 -0.171875,0.4375 -0.328125,0.703125 -1.296875,2.140625 -3.34375,5.4375 -3.34375,5.4375 v 0.015625 C -0.265625,-0.046875 -0.25,0 -0.21875,0 c 0,0 1.90625,-0.03125 4.265625,-0.03125 0.21875,0 0.515625,0.046875 0.5625,0.078125 0.109375,-0.03125 0.4375,-0.125 0.546875,-0.375 C 4.578125,-2.890625 4.25,-4.09375 3.734375,-6.609375 Z m 0,0"
           id="path10084" />
      </symbol>
      <symbol
         overflow="visible"
         id="symbol10090">
        <path
           style="stroke:none"
           d="m 3.15625,-6.71875 c -0.9375,0 -2.125,0.75 -2.125,1.90625 0,1.046875 0.75,1.359375 1.359375,1.84375 0.515625,0.390625 0.953125,0.75 0.953125,1.484375 0,0.796875 -0.609375,1.265625 -1.28125,1.265625 -1,0 -1.359375,-1.078125 -1.359375,-1.640625 -0.03125,-0.03125 -0.0625,-0.046875 -0.109375,-0.046875 -0.0625,0 -0.21875,0.015625 -0.25,0.046875 0,0.03125 -0.015625,0.078125 -0.015625,0.171875 0,0.296875 0.046875,0.921875 0.140625,1.34375 0.375,0.21875 0.890625,0.421875 1.46875,0.421875 1.09375,0 2.3125,-0.78125 2.3125,-2.015625 C 4.25,-2.875 3.515625,-3.234375 2.984375,-3.671875 2.4375,-4.09375 1.8125,-4.421875 1.8125,-5.25 c 0,-0.515625 0.4375,-1.15625 1.265625,-1.15625 0.65625,0 0.9375,0.5 0.9375,1.203125 0,0.0625 -0.015625,0.125 -0.015625,0.171875 0.0625,0.0625 0.171875,0.09375 0.21875,0.09375 0.03125,0 0.09375,-0.015625 0.09375,-0.09375 C 4.375,-5.328125 4.5,-6.140625 4.53125,-6.484375 4.03125,-6.59375 3.734375,-6.71875 3.15625,-6.71875 Z m 0,0"
           id="path10088" />
      </symbol>
    </g>
    <g
       id="id-986fbf19-47f1-47f3-b07a-62647210ddcc-5">
      <symbol
         overflow="visible"
         id="id-8d6d49e0-3023-4984-bfda-7ef52e178dc0-5">
        <path
           style="stroke:none"
           d="M 0.5,0 H 4.484375 V -4.8125 H 0.5 Z M 1,-0.5 V -4.3125 H 3.984375 V -0.5 Z m 0,0"
           id="id-a2a0d55d-417c-4b0e-81ef-5a5f819b0d9b-0" />
      </symbol>
      <symbol
         overflow="visible"
         id="id-9d1907c9-728c-464c-8c1e-cb000987056a-2">
        <path
           style="stroke:none"
           d="m 2.75,-4.359375 c -0.890625,0 -2.359375,1 -2.359375,2.3125 0,1.203125 0.828125,2.125 1.75,2.125 0.46875,0 1.15625,-0.421875 1.3125,-0.59375 0.015625,-0.015625 0.03125,0.015625 0.03125,0.0625 v 0.34375 c 0,0.0625 0.015625,0.1875 0.078125,0.1875 0,0 0.765625,-0.25 1.28125,-0.28125 0.046875,0 0.078125,-0.109375 0.078125,-0.140625 0,-0.03125 -0.015625,-0.109375 -0.03125,-0.109375 -0.03125,-0.015625 -0.5,0 -0.59375,-0.171875 -0.0625,-0.140625 -0.0625,-0.578125 -0.0625,-0.953125 v -4.1875 c 0,-0.53125 0.109375,-0.84375 0.109375,-0.84375 0,-0.0625 -0.0625,-0.15625 -0.109375,-0.15625 -0.421875,0.1875 -0.921875,0.328125 -1.40625,0.375 -0.03125,0.015625 -0.015625,0.265625 0,0.265625 0.265625,0 0.546875,0.03125 0.59375,0.15625 0.0625,0.109375 0.0625,0.359375 0.0625,0.484375 v 1.03125 c 0,0.109375 -0.015625,0.1875 -0.0625,0.1875 C 3.328125,-4.3125 2.953125,-4.359375 2.75,-4.359375 Z m -0.328125,0.40625 c 0.5625,0 1.0625,0.265625 1.0625,0.484375 v 2.546875 c 0,0.15625 -0.421875,0.390625 -0.875,0.390625 -0.90625,0 -1.40625,-0.8125 -1.40625,-1.765625 0,-0.84375 0.46875,-1.65625 1.21875,-1.65625 z m 0,0"
           id="id-8afa7524-5ae9-481c-856e-26e2fdecdc7f-7" />
      </symbol>
      <symbol
         overflow="visible"
         id="id-ad047c67-a031-4b2a-9488-72ba5b9731fb-8">
        <path
           style="stroke:none"
           d=""
           id="id-8a64c646-c9ea-4f61-96f8-befc0eef9650-0" />
      </symbol>
      <symbol
         overflow="visible"
         id="id-a76a9207-260a-46cd-8d59-b639ebe12df3-4">
        <path
           style="stroke:none"
           d="m 3.15625,-6.71875 c -0.9375,0 -2.125,0.75 -2.125,1.90625 0,1.046875 0.75,1.359375 1.359375,1.84375 0.515625,0.390625 0.953125,0.75 0.953125,1.484375 0,0.796875 -0.609375,1.265625 -1.28125,1.265625 -1,0 -1.359375,-1.078125 -1.359375,-1.640625 -0.03125,-0.03125 -0.0625,-0.046875 -0.109375,-0.046875 -0.0625,0 -0.21875,0.015625 -0.25,0.046875 0,0.03125 -0.015625,0.078125 -0.015625,0.171875 0,0.296875 0.046875,0.921875 0.140625,1.34375 0.375,0.21875 0.890625,0.421875 1.46875,0.421875 1.09375,0 2.3125,-0.78125 2.3125,-2.015625 C 4.25,-2.875 3.515625,-3.234375 2.984375,-3.671875 2.4375,-4.09375 1.8125,-4.421875 1.8125,-5.25 c 0,-0.515625 0.4375,-1.15625 1.265625,-1.15625 0.65625,0 0.9375,0.5 0.9375,1.203125 0,0.0625 -0.015625,0.125 -0.015625,0.171875 0.0625,0.0625 0.171875,0.09375 0.21875,0.09375 0.03125,0 0.09375,-0.015625 0.09375,-0.09375 C 4.375,-5.328125 4.5,-6.140625 4.53125,-6.484375 4.03125,-6.59375 3.734375,-6.71875 3.15625,-6.71875 Z m 0,0"
           id="id-c04e6ddf-4ece-4575-996f-6299ce25a964-9" />
      </symbol>
    </g>
    <g
       id="g10561"
       style="fill:#506a68;fill-opacity:1;stroke-width:0">
      <symbol
         id="symbol10555"
         overflow="visible"
         style="fill:#506a68;fill-opacity:1;stroke-width:0">
        <path
           id="path10553"
           d=""
           style="fill:#506a68;fill-opacity:1;stroke:none;stroke-width:0" />
      </symbol>
      <symbol
         id="symbol10559"
         overflow="visible"
         style="fill:#506a68;fill-opacity:1;stroke-width:0">
        <path
           id="path10557"
           d="M 2.546875,-6.609375 C 2.15625,-6.609375 1.625,-6.625 1.21875,-6.65625 c -0.046875,0.0625 -0.109375,0.3125 -0.078125,0.390625 0.109375,0 0.546875,0.03125 0.5625,0.15625 C 1.75,-5.90625 1.671875,-5.59375 1.59375,-5.15625 L 0.875,-1.46875 c -0.078125,0.421875 -0.140625,0.734375 -0.25,0.9375 -0.078125,0.125 -0.515625,0.15625 -0.640625,0.171875 -0.046875,0.0625 -0.09375,0.3125 -0.0625,0.375 C 0.046875,0.015625 0.578125,0 1.203125,0 H 4.46875 c 0.15625,-0.4375 0.5625,-1.1875 0.828125,-1.71875 -0.015625,-0.03125 -0.15625,-0.0625 -0.25,-0.0625 -0.078125,0 -0.125,0.015625 -0.15625,0.0625 -0.25,0.4375 -0.4375,0.734375 -0.671875,0.953125 C 3.953125,-0.53125 3.625,-0.4375 3.28125,-0.4375 h -0.625 C 2.421875,-0.4375 2.125,-0.515625 2.09375,-0.640625 2.046875,-0.84375 2.15625,-1.375 2.171875,-1.4375 L 2.46875,-2.984375 C 2.5,-3.109375 2.921875,-3.125 3.1875,-3.125 c 0.34375,0 0.578125,0.015625 0.6875,0.0625 0.078125,0.046875 0.1875,0.140625 0.203125,0.625 0,0.046875 0.046875,0.0625 0.125,0.0625 0.0625,0 0.15625,0 0.171875,-0.03125 L 4.75,-4.34375 C 4.71875,-4.359375 4.640625,-4.390625 4.578125,-4.390625 c -0.078125,0 -0.109375,0.03125 -0.125,0.078125 -0.25,0.578125 -0.421875,0.71875 -0.96875,0.71875 H 3 c -0.203125,0 -0.390625,-0.0625 -0.375,-0.109375 L 2.96875,-5.5 C 3.03125,-5.796875 3.0625,-6 3.125,-6.125 c 0.078125,-0.109375 0.28125,-0.109375 0.5,-0.109375 h 0.765625 c 0.578125,0 0.71875,0.46875 0.8125,1.015625 0.015625,0.046875 0.0625,0.078125 0.125,0.078125 0.078125,0 0.203125,-0.015625 0.234375,-0.046875 0,-0.453125 -0.015625,-1 0.015625,-1.484375 -0.546875,0 -2.640625,0.0625 -3.03125,0.0625 z m 0,0"
           style="fill:#506a68;fill-opacity:1;stroke:none;stroke-width:0" />
      </symbol>
    </g>
    <pattern
       id="EMFhbasepattern-7"
       patternUnits="userSpaceOnUse"
       width="6"
       height="6"
       x="0"
       y="0" />
    <pattern
       id="EMFhbasepattern-3"
       patternUnits="userSpaceOnUse"
       width="6"
       height="6"
       x="0"
       y="0" />
  </defs>
  <sodipodi:namedview
     id="base"
     pagecolor="#ffffff"
     bordercolor="#666666"
     borderopacity="1.0"
     inkscape:pageopacity="0.0"
     inkscape:pageshadow="2"
     inkscape:zoom="2"
     inkscape:cx="93.999925"
     inkscape:cy="71.494204"
     inkscape:document-units="mm"
     inkscape:current-layer="layer1"
     inkscape:document-rotation="0"
     showgrid="false"
     inkscape:window-width="1600"
     inkscape:window-height="837"
     inkscape:window-x="-8"
     inkscape:window-y="-8"
     inkscape:window-maximized="1"
     showguides="false">
    <sodipodi:guide
       position="-0.46743157,40.258006"
       orientation="1,0"
       id="guide946" />
  </sodipodi:namedview>
  <metadata
     id="metadata5">
    <rdf:RDF>
      <cc:Work
         rdf:about="">
        <dc:format>image/svg+xml</dc:format>
        <dc:type
           rdf:resource="http://purl.org/dc/dcmitype/StillImage" />
        <dc:title />
      </cc:Work>
    </rdf:RDF>
  </metadata>
  <g
     inkscape:label="Layer 1"
     inkscape:groupmode="layer"
     id="layer1"
     transform="translate(-99.18986,-22.804097)">
    <path
       style="fill:none;stroke:#506a68;stroke-width:0.396875;stroke-linecap:butt;stroke-linejoin:miter;stroke-miterlimit:4;stroke-dasharray:1.5875, 0.396875;stroke-dashoffset:0;stroke-opacity:1"
       d="m 101.97152,40.270519 c 0,0 17.00697,2.350653 21.07806,1.035373"
       id="path8330"
       sodipodi:nodetypes="cc" />
    <path
       style="fill:none;stroke:#506a68;stroke-width:0.396875;stroke-linecap:butt;stroke-linejoin:miter;stroke-miterlimit:4;stroke-dasharray:1.5875, 0.396875;stroke-dashoffset:0;stroke-opacity:1"
       d="m 101.03608,51.449067 c 0,0 15.65058,4.969894 31.50825,4.356197"
       id="path978"
       sodipodi:nodetypes="cc" />
    <path
       style="fill:none;stroke:#506a68;stroke-width:0.396875;stroke-linecap:butt;stroke-linejoin:miter;stroke-miterlimit:4;stroke-dasharray:1.5875, 0.396875;stroke-dashoffset:0;stroke-opacity:1"
       d="m 99.211962,62.672504 c 0,0 11.299628,1.172169 19.207168,6.58849"
       id="path980"
       sodipodi:nodetypes="cc" />
    <path
       style="fill:none;stroke:#aa9e95;stroke-width:0.529167;stroke-linecap:round;stroke-linejoin:miter;stroke-miterlimit:4;stroke-dasharray:none;stroke-opacity:1"
       d="m 114.69947,26.310071 c -5.6604,6.064133 -5.68032,10.410721 -6.14641,14.965453 -0.77468,7.570429 -0.007,12.686309 -3.75722,22.373946 -2.21789,5.729109 -1.01326,11.035506 -1.01326,11.035506"
       id="path940"
       sodipodi:nodetypes="cssc" />
    <path
       style="fill:none;stroke:#aa9e95;stroke-width:0.529167;stroke-linecap:round;stroke-linejoin:miter;stroke-miterlimit:4;stroke-dasharray:none;stroke-opacity:1"
       d="m 118.29544,28.180958 c -5.52499,6.064133 -2.62872,19.435957 -3.29331,25.676279 -0.94748,7.150138 -4.85552,9.039033 -5.40769,20.25123"
       id="path942"
       sodipodi:nodetypes="ccc" />
    <path
       style="fill:none;stroke:#aa9e95;stroke-width:0.529167;stroke-linecap:round;stroke-linejoin:miter;stroke-miterlimit:4;stroke-dasharray:none;stroke-opacity:1"
       d="m 122.96649,29.187735 c -5.52499,6.064133 -1.16709,18.149722 -1.55105,26.611722 0.0815,7.921879 -5.91958,9.249508 -6.8927,18.263413"
       id="path944"
       sodipodi:nodetypes="ccc" />
    <path
       style="fill:none;stroke:#aa9e95;stroke-width:0.529167;stroke-linecap:round;stroke-linejoin:miter;stroke-miterlimit:4;stroke-dasharray:none;stroke-opacity:1"
       d="m 124.54763,33.809158 c -8.98613,5.970589 8.69014,13.262031 8.30618,21.724031 0.0815,7.921879 -14.54904,7.741106 -15.33508,17.596909"
       id="path944-4"
       sodipodi:nodetypes="ccc" />
    <path
       style="opacity:0.5;fill:#aa9e95;stroke:#aa9e95;stroke-width:0.264583px;stroke-linecap:round;stroke-linejoin:round;stroke-opacity:1"
       d="m 124.54763,33.809158 c -8.75596,6.020211 8.15341,12.699897 8.31106,21.838168 0.14274,7.216653 -14.51276,7.951015 -15.33996,17.482772 l 3.84801,1.031074 c 1.16317,-10.414996 15.81063,-9.141653 16.07694,-17.978758 0.15021,-8.777273 -16.69903,-16.210685 -8.5593,-22.637728 z"
       id="path997"
       sodipodi:nodetypes="ccccccc" />
    <g
       transform="matrix(0.423334,0,0,0.423334,123.56757,27.236259)"
       ns2:version="1.1.0"
       ns2:texconverter="pdflatex"
       ns2:pdfconverter="inkscape"
       ns2:text="$\\varphi_1$\n"
       ns2:preamble="C:\\Users\\flvisa\\Desktop\\lna\\latexify_books\\textext_preamble.tex"
       ns2:scale="1.2"
       ns2:alignment="middle center"
       ns2:inkscapeversion="1.0.1"
       ns2:jacobian_sqrt="0.423334"
       id="g1061">
      <defs
         id="id-f520d08f-819a-4e6e-ac03-b7ccad19032b">
        <g
           id="id-97ae4654-8968-46e1-bdbe-3b20fdb39c27">
          <symbol
             overflow="visible"
             id="id-1f597f27-4ffb-4fc4-be61-af016971a486">
            <path
               style="stroke:none"
               d=""
               id="id-d515e85c-59e4-4d7b-aba7-620f325d26ac" />
          </symbol>
          <symbol
             overflow="visible"
             id="id-f645a92e-4c36-46b0-9284-715d619e1a02">
            <path
               style="stroke:none"
               d="m 4.6875,-2.828125 c 0,-0.875 -0.421875,-1.53125 -0.953125,-1.53125 -0.859375,0 -1.375,0.90625 -1.765625,2.9375 L 1.8125,-0.5625 H 1.75 c -0.78125,0 -1.125,-0.28125 -1.125,-0.921875 0,-1.15625 1.234375,-2.359375 2.0625,-2.484375 V -4 c 0,-0.234375 -0.390625,-0.359375 -0.625,-0.359375 -0.484375,0 -1.828125,1.375 -1.828125,2.796875 0,0.890625 0.5,1.546875 1.453125,1.65625 L 1.328125,1.9375 v 0.015625 c 0,0.15625 0.421875,0.34375 0.46875,0.34375 0.09375,0 0.171875,-0.0625 0.25,-0.15625 V 2.03125 C 2.046875,1.6875 2.140625,0.75 2.25,0.109375 3.59375,-0.09375 4.6875,-1.28125 4.6875,-2.828125 Z m -2.359375,2.21875 c 0.1875,-1.171875 0.5,-3.203125 1.390625,-3.203125 0.390625,0 0.609375,0.28125 0.609375,0.734375 0,1.171875 -0.875,2.328125 -2,2.46875 z m 0,0"
               id="id-23c8ae78-1cb0-429d-a2fc-9caec5bad446" />
          </symbol>
          <symbol
             overflow="visible"
             id="id-f25bc799-a779-45e2-a2bc-5248acf1b484">
            <path
               style="stroke:none"
               d="m 0.359375,0 h 2.90625 V -3.515625 H 0.359375 Z M 0.71875,-0.359375 v -2.78125 h 2.1875 v 2.78125 z m 0,0"
               id="id-3093d9eb-3126-45d7-8ad1-5f5ef0af1858" />
          </symbol>
          <symbol
             overflow="visible"
             id="id-9b716602-cff4-44e7-9240-679731d4353b">
            <path
               style="stroke:none"
               d="m 1.578125,-0.828125 c 0,0.21875 0,0.40625 -0.03125,0.53125 -0.03125,0.078125 -0.375,0.109375 -0.453125,0.109375 -0.03125,0.046875 -0.046875,0.171875 0,0.203125 C 1.375,0 1.5625,-0.015625 1.84375,-0.015625 c 0.28125,0 0.5,0.015625 0.796875,0.03125 0.03125,-0.03125 0.03125,-0.15625 0,-0.203125 -0.09375,0 -0.4375,-0.03125 -0.46875,-0.109375 -0.03125,-0.125 -0.03125,-0.3125 -0.03125,-0.53125 V -3.75 c 0,-0.4375 0.0625,-0.6875 0.0625,-0.6875 C 2.1875,-4.46875 2.171875,-4.5625 2.125,-4.5625 H 2.109375 c -0.015625,0 -0.65625,0.3125 -1.234375,0.578125 -0.015625,0.015625 0,0.03125 0,0.046875 0,0.046875 0.03125,0.09375 0.0625,0.125 0.109375,-0.046875 0.390625,-0.140625 0.5,-0.140625 0.109375,0 0.140625,0.0625 0.140625,0.265625 z m 0,0"
               id="id-b0b7bd3f-db8d-4e28-9323-5fb3035b1b79" />
          </symbol>
        </g>
      </defs>
      <g
         id="id-58ec035a-f390-41fc-afec-c3827d6586b1"
         transform="translate(-149.225,-130.406)">
        <g
           style="fill:#000000;fill-opacity:1"
           id="id-65f216d8-6966-465e-af85-0c2101d69f5d">
          <g
             transform="translate(148.991,134.765)"
             id="g1053">
            <path
               style="stroke:none"
               d="m 4.6875,-2.828125 c 0,-0.875 -0.421875,-1.53125 -0.953125,-1.53125 -0.859375,0 -1.375,0.90625 -1.765625,2.9375 L 1.8125,-0.5625 H 1.75 c -0.78125,0 -1.125,-0.28125 -1.125,-0.921875 0,-1.15625 1.234375,-2.359375 2.0625,-2.484375 V -4 c 0,-0.234375 -0.390625,-0.359375 -0.625,-0.359375 -0.484375,0 -1.828125,1.375 -1.828125,2.796875 0,0.890625 0.5,1.546875 1.453125,1.65625 L 1.328125,1.9375 v 0.015625 c 0,0.15625 0.421875,0.34375 0.46875,0.34375 0.09375,0 0.171875,-0.0625 0.25,-0.15625 V 2.03125 C 2.046875,1.6875 2.140625,0.75 2.25,0.109375 3.59375,-0.09375 4.6875,-1.28125 4.6875,-2.828125 Z m -2.359375,2.21875 c 0.1875,-1.171875 0.5,-3.203125 1.390625,-3.203125 0.390625,0 0.609375,0.28125 0.609375,0.734375 0,1.171875 -0.875,2.328125 -2,2.46875 z m 0,0"
               id="id-fae8603c-716d-400e-a318-30ff73d2f768" />
          </g>
        </g>
        <g
           style="fill:#000000;fill-opacity:1"
           id="id-37861eaa-079e-4af6-a00d-eafe50b6535e">
          <g
             transform="translate(154.252,136.259)"
             id="g1057">
            <path
               style="stroke:none"
               d="m 1.578125,-0.828125 c 0,0.21875 0,0.40625 -0.03125,0.53125 -0.03125,0.078125 -0.375,0.109375 -0.453125,0.109375 -0.03125,0.046875 -0.046875,0.171875 0,0.203125 C 1.375,0 1.5625,-0.015625 1.84375,-0.015625 c 0.28125,0 0.5,0.015625 0.796875,0.03125 0.03125,-0.03125 0.03125,-0.15625 0,-0.203125 -0.09375,0 -0.4375,-0.03125 -0.46875,-0.109375 -0.03125,-0.125 -0.03125,-0.3125 -0.03125,-0.53125 V -3.75 c 0,-0.4375 0.0625,-0.6875 0.0625,-0.6875 C 2.1875,-4.46875 2.171875,-4.5625 2.125,-4.5625 H 2.109375 c -0.015625,0 -0.65625,0.3125 -1.234375,0.578125 -0.015625,0.015625 0,0.03125 0,0.046875 0,0.046875 0.03125,0.09375 0.0625,0.125 0.109375,-0.046875 0.390625,-0.140625 0.5,-0.140625 0.109375,0 0.140625,0.0625 0.140625,0.265625 z m 0,0"
               id="id-435033fa-dd3d-46cf-885d-47d8e94e092e" />
          </g>
        </g>
      </g>
    </g>
    <g
       transform="matrix(0.423334,0,0,0.423334,118.55564,24.954046)"
       ns2:version="1.1.0"
       ns2:texconverter="pdflatex"
       ns2:pdfconverter="inkscape"
       ns2:text="$\\varphi_2$\n\n"
       ns2:preamble="C:\\Users\\flvisa\\Desktop\\lna\\latexify_books\\textext_preamble.tex"
       ns2:scale="1.2"
       ns2:alignment="middle center"
       ns2:inkscapeversion="1.0.1"
       ns2:jacobian_sqrt="0.423334"
       id="g1254">
      <defs
         id="id-2fd18dc6-e4b5-48c5-9c4a-d3459480c839">
        <g
           id="id-8af89cc6-4e9e-4b01-a32f-3fdd5deef3a4">
          <symbol
             overflow="visible"
             id="id-3e9537b2-8b71-4a4c-b1f5-fd858a22aa2f">
            <path
               style="stroke:none"
               d=""
               id="id-bf914465-6ebd-44e4-a5d2-3d3e161665df" />
          </symbol>
          <symbol
             overflow="visible"
             id="id-589f1b5b-3906-48ed-80ee-78303d7b1444">
            <path
               style="stroke:none"
               d="m 4.6875,-2.828125 c 0,-0.875 -0.421875,-1.53125 -0.953125,-1.53125 -0.859375,0 -1.375,0.90625 -1.765625,2.9375 L 1.8125,-0.5625 H 1.75 c -0.78125,0 -1.125,-0.28125 -1.125,-0.921875 0,-1.15625 1.234375,-2.359375 2.0625,-2.484375 V -4 c 0,-0.234375 -0.390625,-0.359375 -0.625,-0.359375 -0.484375,0 -1.828125,1.375 -1.828125,2.796875 0,0.890625 0.5,1.546875 1.453125,1.65625 L 1.328125,1.9375 v 0.015625 c 0,0.15625 0.421875,0.34375 0.46875,0.34375 0.09375,0 0.171875,-0.0625 0.25,-0.15625 V 2.03125 C 2.046875,1.6875 2.140625,0.75 2.25,0.109375 3.59375,-0.09375 4.6875,-1.28125 4.6875,-2.828125 Z m -2.359375,2.21875 c 0.1875,-1.171875 0.5,-3.203125 1.390625,-3.203125 0.390625,0 0.609375,0.28125 0.609375,0.734375 0,1.171875 -0.875,2.328125 -2,2.46875 z m 0,0"
               id="id-b08f1a78-2c0e-478b-82ac-28d3ee74df92" />
          </symbol>
          <symbol
             overflow="visible"
             id="id-dc748b02-4849-4401-a547-d596c06b3aa3">
            <path
               style="stroke:none"
               d="m 0.359375,0 h 2.90625 V -3.515625 H 0.359375 Z M 0.71875,-0.359375 v -2.78125 h 2.1875 v 2.78125 z m 0,0"
               id="id-5b96248c-8436-44f0-8ed7-ced84f618e22" />
          </symbol>
          <symbol
             overflow="visible"
             id="id-70bf46c5-5d73-46ec-9814-fbb8fece59ad">
            <path
               style="stroke:none"
               d="M 3.21875,-1.0625 C 3.1875,-1.078125 3.109375,-1.109375 3.078125,-1.109375 3.03125,-1.109375 3.015625,-1.09375 3,-1.0625 2.84375,-0.6875 2.6875,-0.515625 2.390625,-0.515625 H 0.984375 C 1.3125,-0.875 2.03125,-1.671875 2.53125,-2.296875 2.78125,-2.59375 2.9375,-2.96875 2.9375,-3.375 c 0,-0.59375 -0.546875,-1.1875 -1.21875,-1.1875 -0.75,0 -1.265625,0.796875 -1.3125,0.96875 0,0.03125 0.078125,0.109375 0.140625,0.109375 C 0.625,-3.625 0.984375,-4.09375 1.5625,-4.09375 c 0.4375,0 0.78125,0.375 0.78125,0.859375 0,0.34375 -0.0625,0.640625 -0.34375,1.0625 -0.421875,0.609375 -1.09375,1.40625 -1.6875,2.0625 0,0.03125 0.03125,0.09375 0.0625,0.109375 h 2.453125 c 0.046875,-0.125 0.25,-0.71875 0.390625,-1.0625 z m 0,0"
               id="id-600ea6ce-4ec0-4001-8953-a5972fe267a1" />
          </symbol>
        </g>
      </defs>
      <g
         id="id-a73f60d6-839f-4b1d-8671-9626a22905a6"
         transform="translate(-149.225,-130.406)">
        <g
           style="fill:#000000;fill-opacity:1"
           id="id-339df575-74f4-43d5-847d-8fbf850b2cd5">
          <g
             transform="translate(148.991,134.765)"
             id="g1246">
            <path
               style="stroke:none"
               d="m 4.6875,-2.828125 c 0,-0.875 -0.421875,-1.53125 -0.953125,-1.53125 -0.859375,0 -1.375,0.90625 -1.765625,2.9375 L 1.8125,-0.5625 H 1.75 c -0.78125,0 -1.125,-0.28125 -1.125,-0.921875 0,-1.15625 1.234375,-2.359375 2.0625,-2.484375 V -4 c 0,-0.234375 -0.390625,-0.359375 -0.625,-0.359375 -0.484375,0 -1.828125,1.375 -1.828125,2.796875 0,0.890625 0.5,1.546875 1.453125,1.65625 L 1.328125,1.9375 v 0.015625 c 0,0.15625 0.421875,0.34375 0.46875,0.34375 0.09375,0 0.171875,-0.0625 0.25,-0.15625 V 2.03125 C 2.046875,1.6875 2.140625,0.75 2.25,0.109375 3.59375,-0.09375 4.6875,-1.28125 4.6875,-2.828125 Z m -2.359375,2.21875 c 0.1875,-1.171875 0.5,-3.203125 1.390625,-3.203125 0.390625,0 0.609375,0.28125 0.609375,0.734375 0,1.171875 -0.875,2.328125 -2,2.46875 z m 0,0"
               id="id-f6149711-3a48-4d58-9195-b27de4fed55c" />
          </g>
        </g>
        <g
           style="fill:#000000;fill-opacity:1"
           id="id-9cd34405-4607-4246-9e91-da5942f1b9c7">
          <g
             transform="translate(154.252,136.259)"
             id="g1250">
            <path
               style="stroke:none"
               d="M 3.21875,-1.0625 C 3.1875,-1.078125 3.109375,-1.109375 3.078125,-1.109375 3.03125,-1.109375 3.015625,-1.09375 3,-1.0625 2.84375,-0.6875 2.6875,-0.515625 2.390625,-0.515625 H 0.984375 C 1.3125,-0.875 2.03125,-1.671875 2.53125,-2.296875 2.78125,-2.59375 2.9375,-2.96875 2.9375,-3.375 c 0,-0.59375 -0.546875,-1.1875 -1.21875,-1.1875 -0.75,0 -1.265625,0.796875 -1.3125,0.96875 0,0.03125 0.078125,0.109375 0.140625,0.109375 C 0.625,-3.625 0.984375,-4.09375 1.5625,-4.09375 c 0.4375,0 0.78125,0.375 0.78125,0.859375 0,0.34375 -0.0625,0.640625 -0.34375,1.0625 -0.421875,0.609375 -1.09375,1.40625 -1.6875,2.0625 0,0.03125 0.03125,0.09375 0.0625,0.109375 h 2.453125 c 0.046875,-0.125 0.25,-0.71875 0.390625,-1.0625 z m 0,0"
               id="id-617e1428-e278-4294-9149-e698ef9b6e2d" />
          </g>
        </g>
      </g>
    </g>
    <g
       transform="matrix(0.423334,0,0,0.423334,113.15786,22.804256)"
       ns2:version="1.1.0"
       ns2:texconverter="pdflatex"
       ns2:pdfconverter="inkscape"
       ns2:text="$\\varphi_3$\n\n"
       ns2:preamble="C:\\Users\\flvisa\\Desktop\\lna\\latexify_books\\textext_preamble.tex"
       ns2:scale="1.2"
       ns2:alignment="middle center"
       ns2:inkscapeversion="1.0.1"
       ns2:jacobian_sqrt="0.423334"
       id="g1375">
      <defs
         id="id-d82b370c-c676-440a-94d6-60de270280b2">
        <g
           id="id-5cdaca07-07a2-4f34-ad23-4f8bdf4ac8e3">
          <symbol
             overflow="visible"
             id="id-a404725a-90a5-4e28-8825-5f3672fdfdf7">
            <path
               style="stroke:none"
               d=""
               id="id-e0453a9f-b7c0-4d7b-9028-50f1a2e8c465" />
          </symbol>
          <symbol
             overflow="visible"
             id="id-ea15964d-1699-47b8-aaf9-b7d8110b99e1">
            <path
               style="stroke:none"
               d="m 4.6875,-2.828125 c 0,-0.875 -0.421875,-1.53125 -0.953125,-1.53125 -0.859375,0 -1.375,0.90625 -1.765625,2.9375 L 1.8125,-0.5625 H 1.75 c -0.78125,0 -1.125,-0.28125 -1.125,-0.921875 0,-1.15625 1.234375,-2.359375 2.0625,-2.484375 V -4 c 0,-0.234375 -0.390625,-0.359375 -0.625,-0.359375 -0.484375,0 -1.828125,1.375 -1.828125,2.796875 0,0.890625 0.5,1.546875 1.453125,1.65625 L 1.328125,1.9375 v 0.015625 c 0,0.15625 0.421875,0.34375 0.46875,0.34375 0.09375,0 0.171875,-0.0625 0.25,-0.15625 V 2.03125 C 2.046875,1.6875 2.140625,0.75 2.25,0.109375 3.59375,-0.09375 4.6875,-1.28125 4.6875,-2.828125 Z m -2.359375,2.21875 c 0.1875,-1.171875 0.5,-3.203125 1.390625,-3.203125 0.390625,0 0.609375,0.28125 0.609375,0.734375 0,1.171875 -0.875,2.328125 -2,2.46875 z m 0,0"
               id="id-7b8b3e61-2630-4d8e-95d5-2522b96e616b" />
          </symbol>
          <symbol
             overflow="visible"
             id="id-c61057b2-b458-4b1f-944f-cd95bbb65794">
            <path
               style="stroke:none"
               d="m 0.359375,0 h 2.90625 V -3.515625 H 0.359375 Z M 0.71875,-0.359375 v -2.78125 h 2.1875 v 2.78125 z m 0,0"
               id="id-74a7cc0e-93be-47e1-b21f-9a9e8a101090" />
          </symbol>
          <symbol
             overflow="visible"
             id="id-6d1f6499-e912-49c3-b403-648c749b7160">
            <path
               style="stroke:none"
               d="m 1.828125,-4.5625 c -0.546875,0 -0.953125,0.375 -1.171875,0.703125 0,0.0625 0.046875,0.140625 0.078125,0.140625 0.078125,-0.046875 0.34375,-0.453125 0.796875,-0.453125 0.40625,0 0.703125,0.28125 0.703125,0.65625 0,0.609375 -0.546875,0.921875 -1.109375,1.046875 -0.015625,0.015625 -0.015625,0.046875 -0.015625,0.078125 0,0.046875 0.015625,0.09375 0.046875,0.125 C 1.25,-2.28125 1.421875,-2.34375 1.578125,-2.34375 c 0.46875,0 0.90625,0.421875 0.90625,1 0,0.8125 -0.453125,1.09375 -0.828125,1.09375 -0.203125,0 -0.390625,-0.046875 -0.53125,-0.171875 -0.109375,-0.125 -0.203125,-0.3125 -0.40625,-0.3125 -0.140625,0 -0.296875,0.125 -0.296875,0.328125 0,0.125 0.109375,0.25 0.15625,0.28125 0.21875,0.109375 0.53125,0.15625 0.71875,0.15625 0.875,0 1.796875,-0.609375 1.796875,-1.578125 C 3.09375,-2.25 2.515625,-2.625 2.109375,-2.6875 c 0.25,-0.15625 0.65625,-0.5 0.65625,-0.953125 0,-0.59375 -0.578125,-0.921875 -0.9375,-0.921875 z m 0,0"
               id="id-d966a35c-04f3-4f68-af42-f0b6ef5ea1a8" />
          </symbol>
        </g>
      </defs>
      <g
         id="id-24a66fa7-8acb-4ebf-8942-8a9ebd903760"
         transform="translate(-149.225,-130.406)">
        <g
           style="fill:#000000;fill-opacity:1"
           id="id-352f96c9-d5c0-48bd-a60e-433884219f4d">
          <g
             transform="translate(148.991,134.765)"
             id="g1367">
            <path
               style="stroke:none"
               d="m 4.6875,-2.828125 c 0,-0.875 -0.421875,-1.53125 -0.953125,-1.53125 -0.859375,0 -1.375,0.90625 -1.765625,2.9375 L 1.8125,-0.5625 H 1.75 c -0.78125,0 -1.125,-0.28125 -1.125,-0.921875 0,-1.15625 1.234375,-2.359375 2.0625,-2.484375 V -4 c 0,-0.234375 -0.390625,-0.359375 -0.625,-0.359375 -0.484375,0 -1.828125,1.375 -1.828125,2.796875 0,0.890625 0.5,1.546875 1.453125,1.65625 L 1.328125,1.9375 v 0.015625 c 0,0.15625 0.421875,0.34375 0.46875,0.34375 0.09375,0 0.171875,-0.0625 0.25,-0.15625 V 2.03125 C 2.046875,1.6875 2.140625,0.75 2.25,0.109375 3.59375,-0.09375 4.6875,-1.28125 4.6875,-2.828125 Z m -2.359375,2.21875 c 0.1875,-1.171875 0.5,-3.203125 1.390625,-3.203125 0.390625,0 0.609375,0.28125 0.609375,0.734375 0,1.171875 -0.875,2.328125 -2,2.46875 z m 0,0"
               id="id-280bba5e-499b-49d5-bff7-e8346bc20b78" />
          </g>
        </g>
        <g
           style="fill:#000000;fill-opacity:1"
           id="id-b4a83d67-b280-4315-a3f9-9d5f5cc20173">
          <g
             transform="translate(154.252,136.259)"
             id="g1371">
            <path
               style="stroke:none"
               d="m 1.828125,-4.5625 c -0.546875,0 -0.953125,0.375 -1.171875,0.703125 0,0.0625 0.046875,0.140625 0.078125,0.140625 0.078125,-0.046875 0.34375,-0.453125 0.796875,-0.453125 0.40625,0 0.703125,0.28125 0.703125,0.65625 0,0.609375 -0.546875,0.921875 -1.109375,1.046875 -0.015625,0.015625 -0.015625,0.046875 -0.015625,0.078125 0,0.046875 0.015625,0.09375 0.046875,0.125 C 1.25,-2.28125 1.421875,-2.34375 1.578125,-2.34375 c 0.46875,0 0.90625,0.421875 0.90625,1 0,0.8125 -0.453125,1.09375 -0.828125,1.09375 -0.203125,0 -0.390625,-0.046875 -0.53125,-0.171875 -0.109375,-0.125 -0.203125,-0.3125 -0.40625,-0.3125 -0.140625,0 -0.296875,0.125 -0.296875,0.328125 0,0.125 0.109375,0.25 0.15625,0.28125 0.21875,0.109375 0.53125,0.15625 0.71875,0.15625 0.875,0 1.796875,-0.609375 1.796875,-1.578125 C 3.09375,-2.25 2.515625,-2.625 2.109375,-2.6875 c 0.25,-0.15625 0.65625,-0.5 0.65625,-0.953125 0,-0.59375 -0.578125,-0.921875 -0.9375,-0.921875 z m 0,0"
               id="id-196415bb-4dc5-44e1-8cc3-ff8368790c6e" />
          </g>
        </g>
      </g>
    </g>
  </g>
</svg>
