<?xml version="1.0" encoding="UTF-8" standalone="no"?>
<svg
   xmlns:ns2="http://www.iki.fi/pav/software/textext/"
   xmlns:dc="http://purl.org/dc/elements/1.1/"
   xmlns:cc="http://creativecommons.org/ns#"
   xmlns:rdf="http://www.w3.org/1999/02/22-rdf-syntax-ns#"
   xmlns:svg="http://www.w3.org/2000/svg"
   xmlns="http://www.w3.org/2000/svg"
   xmlns:sodipodi="http://sodipodi.sourceforge.net/DTD/sodipodi-0.dtd"
   xmlns:inkscape="http://www.inkscape.org/namespaces/inkscape"
   width="78.241013mm"
   height="44.957825mm"
   viewBox="0 0 78.241013 44.957825"
   version="1.1"
   id="svg8"
   inkscape:version="1.0.1 (3bc2e813f5, 2020-09-07)"
   sodipodi:docname="fig_9_1.svg">
  <defs
     id="defs2">
    <marker
       style="overflow:visible"
       id="marker1551"
       refX="0"
       refY="0"
       orient="auto"
       inkscape:stockid="Arrow1Mend"
       inkscape:isstock="true">
      <path
         transform="matrix(-0.4,0,0,-0.4,-4,0)"
         style="fill:#000000;fill-opacity:1;fill-rule:evenodd;stroke:#000000;stroke-width:1pt;stroke-opacity:1"
         d="M 0,0 5,-5 -12.5,0 5,5 Z"
         id="path1549" />
    </marker>
    <marker
       style="overflow:visible"
       id="Arrow1Mend"
       refX="0"
       refY="0"
       orient="auto"
       inkscape:stockid="Arrow1Mend"
       inkscape:isstock="true"
       inkscape:collect="always">
      <path
         transform="matrix(-0.4,0,0,-0.4,-4,0)"
         style="fill:#000000;fill-opacity:1;fill-rule:evenodd;stroke:#000000;stroke-width:1pt;stroke-opacity:1"
         d="M 0,0 5,-5 -12.5,0 5,5 Z"
         id="path861" />
    </marker>
    <pattern
       id="EMFhbasepattern"
       patternUnits="userSpaceOnUse"
       width="6"
       height="6"
       x="0"
       y="0" />
    <g
       id="g42394"
       style="fill:#000000;stroke-width:0">
      <symbol
         overflow="visible"
         id="symbol42388"
         style="fill:#000000;stroke-width:0">
        <path
           style="fill:#000000;stroke:none;stroke-width:0"
           d=""
           id="path42386" />
      </symbol>
      <symbol
         overflow="visible"
         id="symbol42392"
         style="fill:#000000;stroke-width:0">
        <path
           style="fill:#000000;stroke:none;stroke-width:0"
           d="M 2.546875,-6.546875 C 2.15625,-6.546875 1.5625,-6.5625 1.21875,-6.59375 1.171875,-6.546875 1.109375,-6.3125 1.140625,-6.234375 c 0.125,0 0.546875,0.046875 0.5625,0.171875 C 1.75,-5.859375 1.671875,-5.546875 1.59375,-5.109375 L 0.875,-1.421875 C 0.796875,-1 0.734375,-0.671875 0.625,-0.484375 0.546875,-0.34375 0.109375,-0.3125 -0.015625,-0.296875 -0.0625,-0.234375 -0.125,0.015625 -0.09375,0.0625 0.28125,0.03125 0.859375,0 1.25,0 1.640625,0 2.21875,0.03125 2.578125,0.0625 2.625,0.015625 2.671875,-0.234375 2.640625,-0.296875 2.515625,-0.3125 2.09375,-0.34375 2.078125,-0.484375 2.03125,-0.671875 2.109375,-1 2.1875,-1.421875 L 2.5,-3.078125 c 0,0 0.015625,-0.015625 0.015625,-0.03125 C 2.546875,-3.125 2.625,-3.15625 3.65625,-3.15625 c 0.375,0 0.75,0.015625 1.09375,0.03125 0,0 0,0.03125 0,0.046875 l -0.3125,1.65625 C 4.359375,-1 4.28125,-0.671875 4.171875,-0.484375 4.09375,-0.34375 3.65625,-0.3125 3.53125,-0.296875 3.484375,-0.234375 3.4375,0.015625 3.46875,0.0625 3.84375,0.03125 4.40625,0 4.796875,0 5.1875,0 5.765625,0.03125 6.125,0.0625 6.171875,0.015625 6.21875,-0.234375 6.1875,-0.296875 6.078125,-0.3125 5.640625,-0.34375 5.625,-0.484375 5.578125,-0.671875 5.65625,-1 5.734375,-1.421875 l 0.71875,-3.6875 c 0.078125,-0.4375 0.140625,-0.75 0.25,-0.953125 0.078125,-0.125 0.515625,-0.171875 0.640625,-0.171875 0.046875,-0.078125 0.09375,-0.3125 0.0625,-0.359375 -0.375,0.03125 -0.921875,0.046875 -1.3125,0.046875 -0.390625,0 -0.984375,-0.015625 -1.328125,-0.046875 -0.046875,0.046875 -0.09375,0.28125 -0.078125,0.359375 0.125,0 0.546875,0.046875 0.5625,0.171875 0.046875,0.203125 -0.03125,0.515625 -0.109375,0.953125 l -0.25,1.40625 c 0,0.03125 -0.03125,0.046875 -0.03125,0.046875 -0.34375,0 -0.765625,0.03125 -1.09375,0.03125 -0.421875,0 -0.765625,-0.03125 -1.125,-0.03125 0,0 -0.015625,-0.015625 -0.015625,-0.03125 l 0.28125,-1.421875 c 0.078125,-0.4375 0.140625,-0.75 0.25,-0.953125 0.078125,-0.125 0.515625,-0.171875 0.625,-0.171875 0.0625,-0.078125 0.109375,-0.3125 0.078125,-0.359375 -0.375,0.03125 -0.921875,0.046875 -1.3125,0.046875 z m 0,0"
           id="path42390" />
      </symbol>
    </g>
    <g
       id="g27689">
      <symbol
         id="symbol27683"
         overflow="visible">
        <path
           id="path27681"
           d=""
           style="stroke:none" />
      </symbol>
      <symbol
         id="symbol27687"
         overflow="visible">
        <path
           id="path27685"
           d="M 2.359375,-6.625 C 2,-6.625 1.625,-6.65625 1.25,-6.671875 1.1875,-6.625 1.15625,-6.4375 1.1875,-6.390625 c 0.109375,0 0.609375,0.0625 0.609375,0.171875 v 0.078125 c 0,0.15625 -0.03125,0.40625 -0.078125,0.65625 L 0.875,-1.171875 C 0.8125,-0.875 0.765625,-0.59375 0.6875,-0.421875 0.640625,-0.3125 0.109375,-0.265625 0,-0.265625 c -0.046875,0.0625 -0.09375,0.25 -0.046875,0.296875 0.390625,-0.015625 0.75,-0.046875 1.109375,-0.046875 0.359375,0 0.71875,0.03125 1.09375,0.046875 0.0625,-0.046875 0.09375,-0.234375 0.0625,-0.296875 -0.109375,0 -0.609375,-0.046875 -0.625,-0.15625 V -0.5 c 0,-0.15625 0.046875,-0.40625 0.09375,-0.671875 l 0.84375,-4.3125 C 2.59375,-5.78125 2.640625,-6.0625 2.71875,-6.21875 2.765625,-6.328125 3.296875,-6.390625 3.40625,-6.390625 3.453125,-6.4375 3.5,-6.625 3.453125,-6.671875 3.078125,-6.65625 2.71875,-6.625 2.359375,-6.625 Z m 0,0"
           style="stroke:none" />
      </symbol>
    </g>
    <g
       id="g22737"
       style="fill:#9e7867;fill-opacity:1;stroke-width:0">
      <symbol
         id="symbol22731"
         overflow="visible"
         style="fill:#9e7867;fill-opacity:1;stroke-width:0">
        <path
           id="path22729"
           d=""
           style="fill:#9e7867;fill-opacity:1;stroke:none;stroke-width:0" />
      </symbol>
      <symbol
         id="symbol22735"
         overflow="visible"
         style="fill:#9e7867;fill-opacity:1;stroke-width:0">
        <path
           id="path22733"
           d="M 1.6875,-6.15625 C 2.09375,-6.203125 2.375,-6.234375 2.84375,-6.234375 3.625,-6.234375 4,-6.015625 4.375,-5.21875 4.46875,-5.25 4.5,-5.265625 4.578125,-5.359375 4.546875,-5.875 4.3125,-6.703125 4.3125,-6.703125 c -1.046875,0.03125 -1.5,0.0625 -2.453125,0.0625 -0.484375,0 -0.75,-0.015625 -1.21875,-0.046875 -0.0625,0.03125 -0.125,0.125 -0.125,0.1875 C 0.703125,-6.453125 1,-6.296875 1.0625,-6.078125 l -1.125,5.875 V -0.1875 c 0,0.140625 0.40625,0.34375 0.46875,0.34375 0.09375,0 0.1875,-0.0625 0.265625,-0.171875 V -0.0625 C 0.671875,-0.40625 0.875,-1.65625 1,-2.328125 1.109375,-2.921875 1.609375,-5.6875 1.6875,-6.15625 Z m 0,0"
           style="fill:#9e7867;fill-opacity:1;stroke:none;stroke-width:0" />
      </symbol>
    </g>
    <g
       id="g3942">
      <symbol
         id="symbol3936"
         overflow="visible">
        <path
           id="path3934"
           d=""
           style="stroke:none" />
      </symbol>
      <symbol
         id="symbol3940"
         overflow="visible">
        <path
           id="path3938"
           d="m 1.765625,-6.625 c -0.4375,0 -0.65625,-0.03125 -1.078125,-0.046875 -0.015625,0.015625 -0.078125,0.28125 -0.0625,0.28125 0.109375,0 0.484375,0.078125 0.5625,0.234375 0.109375,0.265625 0.1875,0.578125 0.25,0.96875 0.3125,1.953125 0.5,3.25 0.796875,5.046875 0.015625,0.046875 0.015625,0.15625 0.0625,0.15625 0.109375,0 0.265625,-0.0625 0.421875,-0.328125 l 2.75,-4.796875 c 0.21875,-0.375 0.515625,-0.875 0.65625,-1.015625 0.203125,-0.1875 0.59375,-0.265625 0.65625,-0.265625 0.03125,0 0.09375,-0.234375 0.078125,-0.28125 C 6.484375,-6.65625 6.375,-6.625 5.9375,-6.625 c -0.34375,0 -0.65625,-0.03125 -1,-0.046875 C 4.890625,-6.625 4.859375,-6.40625 4.890625,-6.390625 5,-6.390625 5.4375,-6.3125 5.4375,-6.046875 c 0,0.03125 -0.015625,0.03125 -0.015625,0.0625 -0.03125,0.171875 -0.125,0.46875 -0.265625,0.703125 0,0 -2.234375,3.9375 -2.28125,3.984375 0,-0.03125 -0.46875,-3.140625 -0.59375,-4.03125 -0.03125,-0.25 -0.046875,-0.453125 -0.046875,-0.578125 0,-0.0625 0,-0.109375 0.015625,-0.140625 0.046875,-0.28125 0.546875,-0.34375 0.609375,-0.34375 C 2.90625,-6.40625 2.9375,-6.625 2.9375,-6.671875 2.546875,-6.65625 2.171875,-6.625 1.765625,-6.625 Z m 0,0"
           style="stroke:none" />
      </symbol>
    </g>
    <g
       id="g4049">
      <symbol
         id="symbol4035"
         overflow="visible">
        <path
           id="path4033"
           d=""
           style="stroke:none" />
      </symbol>
      <symbol
         id="symbol4039"
         overflow="visible">
        <path
           id="path4037"
           d="m 3.15625,-6.71875 c -0.9375,0 -2.125,0.75 -2.125,1.90625 0,1.046875 0.75,1.359375 1.359375,1.84375 0.515625,0.390625 0.953125,0.75 0.953125,1.484375 0,0.796875 -0.609375,1.265625 -1.28125,1.265625 -1,0 -1.359375,-1.078125 -1.359375,-1.640625 -0.03125,-0.03125 -0.0625,-0.046875 -0.109375,-0.046875 -0.0625,0 -0.21875,0.015625 -0.25,0.046875 0,0.03125 -0.015625,0.078125 -0.015625,0.171875 0,0.296875 0.046875,0.921875 0.140625,1.34375 0.375,0.21875 0.890625,0.421875 1.46875,0.421875 1.09375,0 2.3125,-0.78125 2.3125,-2.015625 C 4.25,-2.875 3.515625,-3.234375 2.984375,-3.671875 2.4375,-4.09375 1.8125,-4.421875 1.8125,-5.25 c 0,-0.515625 0.4375,-1.15625 1.265625,-1.15625 0.65625,0 0.9375,0.5 0.9375,1.203125 0,0.0625 -0.015625,0.125 -0.015625,0.171875 0.0625,0.0625 0.171875,0.09375 0.21875,0.09375 0.03125,0 0.09375,-0.015625 0.09375,-0.09375 C 4.375,-5.328125 4.5,-6.140625 4.53125,-6.484375 4.03125,-6.59375 3.734375,-6.71875 3.15625,-6.71875 Z m 0,0"
           style="stroke:none" />
      </symbol>
      <symbol
         id="symbol4043"
         overflow="visible">
        <path
           id="path4041"
           d="m 0.359375,0 h 2.90625 V -3.515625 H 0.359375 Z M 0.71875,-0.359375 v -2.78125 h 2.1875 v 2.78125 z m 0,0"
           style="stroke:none" />
      </symbol>
      <symbol
         id="symbol4047"
         overflow="visible">
        <path
           id="path4045"
           d="m 1.578125,-0.828125 c 0,0.21875 0,0.40625 -0.03125,0.53125 -0.03125,0.078125 -0.375,0.109375 -0.453125,0.109375 -0.03125,0.046875 -0.046875,0.171875 0,0.203125 C 1.375,0 1.5625,-0.015625 1.84375,-0.015625 c 0.28125,0 0.5,0.015625 0.796875,0.03125 0.03125,-0.03125 0.03125,-0.15625 0,-0.203125 -0.09375,0 -0.4375,-0.03125 -0.46875,-0.109375 -0.03125,-0.125 -0.03125,-0.3125 -0.03125,-0.53125 V -3.75 c 0,-0.4375 0.0625,-0.6875 0.0625,-0.6875 C 2.1875,-4.46875 2.171875,-4.5625 2.125,-4.5625 H 2.109375 c -0.015625,0 -0.65625,0.3125 -1.234375,0.578125 -0.015625,0.015625 0,0.03125 0,0.046875 0,0.046875 0.03125,0.09375 0.0625,0.125 0.109375,-0.046875 0.390625,-0.140625 0.5,-0.140625 0.109375,0 0.140625,0.0625 0.140625,0.265625 z m 0,0"
           style="stroke:none" />
      </symbol>
    </g>
    <g
       id="g4076">
      <symbol
         id="symbol4062"
         overflow="visible">
        <path
           id="path4060"
           d=""
           style="stroke:none" />
      </symbol>
      <symbol
         id="symbol4066"
         overflow="visible">
        <path
           id="path4064"
           d="m 3.15625,-6.71875 c -0.9375,0 -2.125,0.75 -2.125,1.90625 0,1.046875 0.75,1.359375 1.359375,1.84375 0.515625,0.390625 0.953125,0.75 0.953125,1.484375 0,0.796875 -0.609375,1.265625 -1.28125,1.265625 -1,0 -1.359375,-1.078125 -1.359375,-1.640625 -0.03125,-0.03125 -0.0625,-0.046875 -0.109375,-0.046875 -0.0625,0 -0.21875,0.015625 -0.25,0.046875 0,0.03125 -0.015625,0.078125 -0.015625,0.171875 0,0.296875 0.046875,0.921875 0.140625,1.34375 0.375,0.21875 0.890625,0.421875 1.46875,0.421875 1.09375,0 2.3125,-0.78125 2.3125,-2.015625 C 4.25,-2.875 3.515625,-3.234375 2.984375,-3.671875 2.4375,-4.09375 1.8125,-4.421875 1.8125,-5.25 c 0,-0.515625 0.4375,-1.15625 1.265625,-1.15625 0.65625,0 0.9375,0.5 0.9375,1.203125 0,0.0625 -0.015625,0.125 -0.015625,0.171875 0.0625,0.0625 0.171875,0.09375 0.21875,0.09375 0.03125,0 0.09375,-0.015625 0.09375,-0.09375 C 4.375,-5.328125 4.5,-6.140625 4.53125,-6.484375 4.03125,-6.59375 3.734375,-6.71875 3.15625,-6.71875 Z m 0,0"
           style="stroke:none" />
      </symbol>
      <symbol
         id="symbol4070"
         overflow="visible">
        <path
           id="path4068"
           d="m 0.359375,0 h 2.90625 V -3.515625 H 0.359375 Z M 0.71875,-0.359375 v -2.78125 h 2.1875 v 2.78125 z m 0,0"
           style="stroke:none" />
      </symbol>
      <symbol
         id="symbol4074"
         overflow="visible">
        <path
           id="path4072"
           d="M 3.21875,-1.0625 C 3.1875,-1.078125 3.109375,-1.109375 3.078125,-1.109375 3.03125,-1.109375 3.015625,-1.09375 3,-1.0625 2.84375,-0.6875 2.6875,-0.515625 2.390625,-0.515625 H 0.984375 C 1.3125,-0.875 2.03125,-1.671875 2.53125,-2.296875 2.78125,-2.59375 2.9375,-2.96875 2.9375,-3.375 c 0,-0.59375 -0.546875,-1.1875 -1.21875,-1.1875 -0.75,0 -1.265625,0.796875 -1.3125,0.96875 0,0.03125 0.078125,0.109375 0.140625,0.109375 C 0.625,-3.625 0.984375,-4.09375 1.5625,-4.09375 c 0.4375,0 0.78125,0.375 0.78125,0.859375 0,0.34375 -0.0625,0.640625 -0.34375,1.0625 -0.421875,0.609375 -1.09375,1.40625 -1.6875,2.0625 0,0.03125 0.03125,0.09375 0.0625,0.109375 h 2.453125 c 0.046875,-0.125 0.25,-0.71875 0.390625,-1.0625 z m 0,0"
           style="stroke:none" />
      </symbol>
    </g>
  </defs>
  <sodipodi:namedview
     id="base"
     pagecolor="#ffffff"
     bordercolor="#666666"
     borderopacity="1.0"
     inkscape:pageopacity="0.0"
     inkscape:pageshadow="2"
     inkscape:zoom="1.979899"
     inkscape:cx="196.04666"
     inkscape:cy="78.710926"
     inkscape:document-units="mm"
     inkscape:current-layer="layer1"
     inkscape:document-rotation="0"
     showgrid="false"
     inkscape:window-width="1600"
     inkscape:window-height="837"
     inkscape:window-x="-8"
     inkscape:window-y="-8"
     inkscape:window-maximized="1" />
  <metadata
     id="metadata5">
    <rdf:RDF>
      <cc:Work
         rdf:about="">
        <dc:format>image/svg+xml</dc:format>
        <dc:type
           rdf:resource="http://purl.org/dc/dcmitype/StillImage" />
        <dc:title></dc:title>
      </cc:Work>
    </rdf:RDF>
  </metadata>
  <g
     inkscape:label="Layer 1"
     inkscape:groupmode="layer"
     id="layer1"
     transform="translate(-62.677389,-9.7582494)">
    <path
       style="fill:none;stroke:#000000;stroke-width:0.529167;stroke-linecap:round;stroke-linejoin:miter;stroke-miterlimit:4;stroke-dasharray:none;stroke-opacity:1"
       d="m 62.941972,32.072344 h 34.74504"
       id="path848" />
    <path
       style="fill:none;stroke:#000000;stroke-width:0.396875;stroke-linecap:butt;stroke-linejoin:miter;stroke-miterlimit:4;stroke-dasharray:none;stroke-opacity:1;marker-end:url(#Arrow1Mend)"
       d="m 67.175308,32.072344 h 1.101368"
       id="path850" />
    <path
       style="fill:none;stroke:#506a65;stroke-width:0.264583;stroke-linecap:round;stroke-linejoin:round;stroke-miterlimit:4;stroke-dasharray:1.05833, 0.529167;stroke-dashoffset:0;stroke-opacity:1"
       d="m 102.62053,17.717634 c -4.338705,0 -3.236894,13.125805 -4.93352,14.35471"
       id="path1168"
       sodipodi:nodetypes="cc" />
    <path
       style="fill:none;stroke:#506a65;stroke-width:0.264583;stroke-linecap:round;stroke-linejoin:round;stroke-miterlimit:4;stroke-dasharray:1.05833, 0.529167;stroke-dashoffset:0;stroke-opacity:1"
       d="m 102.62053,22.428259 c -2.701679,0 -2.735764,8.448589 -4.93352,9.644085"
       id="path1170"
       sodipodi:nodetypes="cc" />
    <path
       style="fill:none;stroke:#506a65;stroke-width:0.264583;stroke-linecap:round;stroke-linejoin:round;stroke-miterlimit:4;stroke-dasharray:1.05833, 0.529167;stroke-dashoffset:0;stroke-opacity:1"
       d="m 102.62053,27.673423 c -2.701679,0 -1.96736,3.303651 -4.93352,4.398921"
       id="path1172"
       sodipodi:nodetypes="cc" />
    <path
       style="fill:none;stroke:#506a65;stroke-width:0.264583;stroke-linecap:round;stroke-linejoin:round;stroke-miterlimit:4;stroke-dasharray:1.05833, 0.529167;stroke-dashoffset:0;stroke-opacity:1"
       d="m 102.62053,46.427054 c -4.338705,0 -3.236894,-13.125805 -4.93352,-14.35471"
       id="path1174"
       sodipodi:nodetypes="cc" />
    <path
       style="fill:none;stroke:#506a65;stroke-width:0.264583;stroke-linecap:round;stroke-linejoin:round;stroke-miterlimit:4;stroke-dasharray:1.05833, 0.529167;stroke-dashoffset:0;stroke-opacity:1"
       d="m 102.62053,41.716429 c -2.701679,0 -2.735764,-8.448589 -4.93352,-9.644085"
       id="path1176"
       sodipodi:nodetypes="cc" />
    <path
       style="fill:none;stroke:#506a65;stroke-width:0.264583;stroke-linecap:round;stroke-linejoin:round;stroke-miterlimit:4;stroke-dasharray:1.05833, 0.529167;stroke-dashoffset:0;stroke-opacity:1"
       d="m 102.62053,36.471265 c -2.701679,0 -1.96736,-3.303651 -4.93352,-4.398921"
       id="path1178"
       sodipodi:nodetypes="cc" />
    <rect
       style="fill:none;stroke:#b3b3b3;stroke-width:0.529167;stroke-linecap:round;stroke-linejoin:round;stroke-miterlimit:4;stroke-dasharray:none"
       id="rect846"
       width="4.6875019"
       height="36.40456"
       x="98.027527"
       y="13.866273" />
    <circle
       r="0.66817379"
       cy="32.198845"
       cx="97.966705"
       id="path3435-3-3"
       style="opacity:1;fill:#000000;stroke:#000000;stroke-width:0.264583;stroke-linejoin:round;stroke-miterlimit:4;stroke-dasharray:none" />
    <path
       style="fill:none;stroke:#9e7867;stroke-width:0.529167;stroke-linecap:round;stroke-linejoin:round;stroke-miterlimit:4;stroke-dasharray:2.11667, 1.05833;stroke-dashoffset:0;stroke-opacity:1"
       d="m 88.1157,23.765253 v 16.630951 c 5.369273,5.918273 0.459839,14.05599 11.670014,14.05599 6.757986,0 8.008366,-5.049557 8.008366,-22.442337 0,-16.79646 -0.0993,-21.98725 -9.138216,-21.98725 -9.609049,0 -6.281281,9.483763 -10.540164,13.742646 z"
       id="path1201"
       sodipodi:nodetypes="cccccc" />
    <circle
       r="0.66817379"
       cy="40.391106"
       cx="88.098717"
       id="path3435-3-3-9"
       style="opacity:1;fill:#ffffff;stroke:#000000;stroke-width:0.264583;stroke-linejoin:round;stroke-miterlimit:4;stroke-dasharray:none" />
    <circle
       r="0.66817379"
       cy="23.686466"
       cx="88.098717"
       id="circle1203"
       style="opacity:1;fill:#ffffff;stroke:#000000;stroke-width:0.264583;stroke-linejoin:round;stroke-miterlimit:4;stroke-dasharray:none" />
    <g
       id="g14550"
       transform="translate(-93.331968,2.9714908)">
      <circle
         style="fill:#ffffff;stroke:#000000;stroke-width:0.265187;stroke-linejoin:round;stroke-miterlimit:4;stroke-dasharray:none;stroke-dashoffset:0"
         id="circle14546"
         cx="134.65411"
         cy="-105.38093"
         r="1.1174062"
         transform="rotate(45)" />
      <circle
         style="fill:#000000;stroke:#000000;stroke-width:0.126886;stroke-linejoin:round;stroke-miterlimit:4;stroke-dasharray:none;stroke-dashoffset:0"
         id="circle14548"
         cx="134.65411"
         cy="-105.38093"
         r="0.53465283"
         transform="rotate(45)" />
    </g>
    <g
       transform="matrix(0.42333399,0,0,0.42333399,70.682123,22.146835)"
       ns2:version="1.1.0"
       ns2:texconverter="pdflatex"
       ns2:pdfconverter="inkscape"
       ns2:text="$\\vec{H}$\n\n\n"
       ns2:preamble="C:\\Users\\flvisa\\Desktop\\lna\\latexify_books\\textext_preamble.tex"
       ns2:scale="1.1999998015751292"
       ns2:alignment="middle center"
       ns2:inkscapeversion="1.0.1"
       ns2:jacobian_sqrt="0.423334"
       style="fill:#000000;stroke-width:0"
       id="g41764">
      <defs
         id="id-41f66a78-cae2-4a6b-bb96-f3a5ce0f1da8">
        <g
           id="g1243"
           style="fill:#000000;stroke-width:0">
          <symbol
             overflow="visible"
             id="symbol1237"
             style="fill:#000000;stroke-width:0">
            <path
               style="fill:#000000;stroke:none;stroke-width:0"
               d=""
               id="path1235" />
          </symbol>
          <symbol
             overflow="visible"
             id="symbol1241"
             style="fill:#000000;stroke-width:0">
            <path
               style="fill:#000000;stroke:none;stroke-width:0"
               d="M 2.546875,-6.546875 C 2.15625,-6.546875 1.5625,-6.5625 1.21875,-6.59375 1.171875,-6.546875 1.109375,-6.3125 1.140625,-6.234375 c 0.125,0 0.546875,0.046875 0.5625,0.171875 C 1.75,-5.859375 1.671875,-5.546875 1.59375,-5.109375 L 0.875,-1.421875 C 0.796875,-1 0.734375,-0.671875 0.625,-0.484375 0.546875,-0.34375 0.109375,-0.3125 -0.015625,-0.296875 -0.0625,-0.234375 -0.125,0.015625 -0.09375,0.0625 0.28125,0.03125 0.859375,0 1.25,0 1.640625,0 2.21875,0.03125 2.578125,0.0625 2.625,0.015625 2.671875,-0.234375 2.640625,-0.296875 2.515625,-0.3125 2.09375,-0.34375 2.078125,-0.484375 2.03125,-0.671875 2.109375,-1 2.1875,-1.421875 L 2.5,-3.078125 c 0,0 0.015625,-0.015625 0.015625,-0.03125 C 2.546875,-3.125 2.625,-3.15625 3.65625,-3.15625 c 0.375,0 0.75,0.015625 1.09375,0.03125 0,0 0,0.03125 0,0.046875 l -0.3125,1.65625 C 4.359375,-1 4.28125,-0.671875 4.171875,-0.484375 4.09375,-0.34375 3.65625,-0.3125 3.53125,-0.296875 3.484375,-0.234375 3.4375,0.015625 3.46875,0.0625 3.84375,0.03125 4.40625,0 4.796875,0 5.1875,0 5.765625,0.03125 6.125,0.0625 6.171875,0.015625 6.21875,-0.234375 6.1875,-0.296875 6.078125,-0.3125 5.640625,-0.34375 5.625,-0.484375 5.578125,-0.671875 5.65625,-1 5.734375,-1.421875 l 0.71875,-3.6875 c 0.078125,-0.4375 0.140625,-0.75 0.25,-0.953125 0.078125,-0.125 0.515625,-0.171875 0.640625,-0.171875 0.046875,-0.078125 0.09375,-0.3125 0.0625,-0.359375 -0.375,0.03125 -0.921875,0.046875 -1.3125,0.046875 -0.390625,0 -0.984375,-0.015625 -1.328125,-0.046875 -0.046875,0.046875 -0.09375,0.28125 -0.078125,0.359375 0.125,0 0.546875,0.046875 0.5625,0.171875 0.046875,0.203125 -0.03125,0.515625 -0.109375,0.953125 l -0.25,1.40625 c 0,0.03125 -0.03125,0.046875 -0.03125,0.046875 -0.34375,0 -0.765625,0.03125 -1.09375,0.03125 -0.421875,0 -0.765625,-0.03125 -1.125,-0.03125 0,0 -0.015625,-0.015625 -0.015625,-0.03125 l 0.28125,-1.421875 c 0.078125,-0.4375 0.140625,-0.75 0.25,-0.953125 0.078125,-0.125 0.515625,-0.171875 0.625,-0.171875 0.0625,-0.078125 0.109375,-0.3125 0.078125,-0.359375 -0.375,0.03125 -0.921875,0.046875 -1.3125,0.046875 z m 0,0"
               id="path1239" />
          </symbol>
        </g>
      </defs>
      <g
         id="id-31df4b7e-7bfe-488d-812f-bd8f91387079"
         transform="translate(-149.158,-128.171)"
         style="fill:#000000;stroke-width:0">
        <g
           style="fill:#000000;fill-opacity:1;stroke-width:0"
           id="id-35c9b2ff-711f-425b-9202-429872df3444">
          <g
             transform="translate(149.26,134.765)"
             style="fill:#000000;stroke-width:0"
             id="g41760">
            <path
               style="fill:#000000;stroke:none;stroke-width:0"
               d="M 2.546875,-6.546875 C 2.15625,-6.546875 1.5625,-6.5625 1.21875,-6.59375 1.171875,-6.546875 1.109375,-6.3125 1.140625,-6.234375 c 0.125,0 0.546875,0.046875 0.5625,0.171875 C 1.75,-5.859375 1.671875,-5.546875 1.59375,-5.109375 L 0.875,-1.421875 C 0.796875,-1 0.734375,-0.671875 0.625,-0.484375 0.546875,-0.34375 0.109375,-0.3125 -0.015625,-0.296875 -0.0625,-0.234375 -0.125,0.015625 -0.09375,0.0625 0.28125,0.03125 0.859375,0 1.25,0 1.640625,0 2.21875,0.03125 2.578125,0.0625 2.625,0.015625 2.671875,-0.234375 2.640625,-0.296875 2.515625,-0.3125 2.09375,-0.34375 2.078125,-0.484375 2.03125,-0.671875 2.109375,-1 2.1875,-1.421875 L 2.5,-3.078125 c 0,0 0.015625,-0.015625 0.015625,-0.03125 C 2.546875,-3.125 2.625,-3.15625 3.65625,-3.15625 c 0.375,0 0.75,0.015625 1.09375,0.03125 0,0 0,0.03125 0,0.046875 l -0.3125,1.65625 C 4.359375,-1 4.28125,-0.671875 4.171875,-0.484375 4.09375,-0.34375 3.65625,-0.3125 3.53125,-0.296875 3.484375,-0.234375 3.4375,0.015625 3.46875,0.0625 3.84375,0.03125 4.40625,0 4.796875,0 5.1875,0 5.765625,0.03125 6.125,0.0625 6.171875,0.015625 6.21875,-0.234375 6.1875,-0.296875 6.078125,-0.3125 5.640625,-0.34375 5.625,-0.484375 5.578125,-0.671875 5.65625,-1 5.734375,-1.421875 l 0.71875,-3.6875 c 0.078125,-0.4375 0.140625,-0.75 0.25,-0.953125 0.078125,-0.125 0.515625,-0.171875 0.640625,-0.171875 0.046875,-0.078125 0.09375,-0.3125 0.0625,-0.359375 -0.375,0.03125 -0.921875,0.046875 -1.3125,0.046875 -0.390625,0 -0.984375,-0.015625 -1.328125,-0.046875 -0.046875,0.046875 -0.09375,0.28125 -0.078125,0.359375 0.125,0 0.546875,0.046875 0.5625,0.171875 0.046875,0.203125 -0.03125,0.515625 -0.109375,0.953125 l -0.25,1.40625 c 0,0.03125 -0.03125,0.046875 -0.03125,0.046875 -0.34375,0 -0.765625,0.03125 -1.09375,0.03125 -0.421875,0 -0.765625,-0.03125 -1.125,-0.03125 0,0 -0.015625,-0.015625 -0.015625,-0.03125 l 0.28125,-1.421875 c 0.078125,-0.4375 0.140625,-0.75 0.25,-0.953125 0.078125,-0.125 0.515625,-0.171875 0.625,-0.171875 0.0625,-0.078125 0.109375,-0.3125 0.078125,-0.359375 -0.375,0.03125 -0.921875,0.046875 -1.3125,0.046875 z m 0,0"
               id="id-e37b89c9-4a84-4cb4-9d6e-9a3974db522e" />
          </g>
        </g>
      </g>
    </g>
    <g
       id="g1255"
       transform="translate(-93.331968,20.233546)">
      <circle
         style="fill:#ffffff;stroke:#000000;stroke-width:0.265187;stroke-linejoin:round;stroke-miterlimit:4;stroke-dasharray:none;stroke-dashoffset:0"
         id="circle1251"
         cx="134.65411"
         cy="-105.38093"
         r="1.1174062"
         transform="rotate(45)" />
      <circle
         style="fill:#000000;stroke:#000000;stroke-width:0.126886;stroke-linejoin:round;stroke-miterlimit:4;stroke-dasharray:none;stroke-dashoffset:0"
         id="circle1253"
         cx="134.65411"
         cy="-105.38093"
         r="0.53465283"
         transform="rotate(45)" />
    </g>
    <g
       transform="matrix(0.42333399,0,0,0.42333399,70.682123,39.408894)"
       ns2:version="1.1.0"
       ns2:texconverter="pdflatex"
       ns2:pdfconverter="inkscape"
       ns2:text="$\\vec{H}$\n\n\n"
       ns2:preamble="C:\\Users\\flvisa\\Desktop\\lna\\latexify_books\\textext_preamble.tex"
       ns2:scale="1.1999998015751292"
       ns2:alignment="middle center"
       ns2:inkscapeversion="1.0.1"
       ns2:jacobian_sqrt="0.423334"
       style="fill:#000000;stroke-width:0"
       id="g1277">
      <defs
         id="defs1267">
        <g
           id="g1265"
           style="fill:#000000;stroke-width:0">
          <symbol
             overflow="visible"
             id="symbol1259"
             style="fill:#000000;stroke-width:0">
            <path
               style="fill:#000000;stroke:none;stroke-width:0"
               d=""
               id="path1257" />
          </symbol>
          <symbol
             overflow="visible"
             id="symbol1263"
             style="fill:#000000;stroke-width:0">
            <path
               style="fill:#000000;stroke:none;stroke-width:0"
               d="M 2.546875,-6.546875 C 2.15625,-6.546875 1.5625,-6.5625 1.21875,-6.59375 1.171875,-6.546875 1.109375,-6.3125 1.140625,-6.234375 c 0.125,0 0.546875,0.046875 0.5625,0.171875 C 1.75,-5.859375 1.671875,-5.546875 1.59375,-5.109375 L 0.875,-1.421875 C 0.796875,-1 0.734375,-0.671875 0.625,-0.484375 0.546875,-0.34375 0.109375,-0.3125 -0.015625,-0.296875 -0.0625,-0.234375 -0.125,0.015625 -0.09375,0.0625 0.28125,0.03125 0.859375,0 1.25,0 1.640625,0 2.21875,0.03125 2.578125,0.0625 2.625,0.015625 2.671875,-0.234375 2.640625,-0.296875 2.515625,-0.3125 2.09375,-0.34375 2.078125,-0.484375 2.03125,-0.671875 2.109375,-1 2.1875,-1.421875 L 2.5,-3.078125 c 0,0 0.015625,-0.015625 0.015625,-0.03125 C 2.546875,-3.125 2.625,-3.15625 3.65625,-3.15625 c 0.375,0 0.75,0.015625 1.09375,0.03125 0,0 0,0.03125 0,0.046875 l -0.3125,1.65625 C 4.359375,-1 4.28125,-0.671875 4.171875,-0.484375 4.09375,-0.34375 3.65625,-0.3125 3.53125,-0.296875 3.484375,-0.234375 3.4375,0.015625 3.46875,0.0625 3.84375,0.03125 4.40625,0 4.796875,0 5.1875,0 5.765625,0.03125 6.125,0.0625 6.171875,0.015625 6.21875,-0.234375 6.1875,-0.296875 6.078125,-0.3125 5.640625,-0.34375 5.625,-0.484375 5.578125,-0.671875 5.65625,-1 5.734375,-1.421875 l 0.71875,-3.6875 c 0.078125,-0.4375 0.140625,-0.75 0.25,-0.953125 0.078125,-0.125 0.515625,-0.171875 0.640625,-0.171875 0.046875,-0.078125 0.09375,-0.3125 0.0625,-0.359375 -0.375,0.03125 -0.921875,0.046875 -1.3125,0.046875 -0.390625,0 -0.984375,-0.015625 -1.328125,-0.046875 -0.046875,0.046875 -0.09375,0.28125 -0.078125,0.359375 0.125,0 0.546875,0.046875 0.5625,0.171875 0.046875,0.203125 -0.03125,0.515625 -0.109375,0.953125 l -0.25,1.40625 c 0,0.03125 -0.03125,0.046875 -0.03125,0.046875 -0.34375,0 -0.765625,0.03125 -1.09375,0.03125 -0.421875,0 -0.765625,-0.03125 -1.125,-0.03125 0,0 -0.015625,-0.015625 -0.015625,-0.03125 l 0.28125,-1.421875 c 0.078125,-0.4375 0.140625,-0.75 0.25,-0.953125 0.078125,-0.125 0.515625,-0.171875 0.625,-0.171875 0.0625,-0.078125 0.109375,-0.3125 0.078125,-0.359375 -0.375,0.03125 -0.921875,0.046875 -1.3125,0.046875 z m 0,0"
               id="path1261" />
          </symbol>
        </g>
      </defs>
      <g
         id="g1275"
         transform="translate(-149.158,-128.171)"
         style="fill:#000000;stroke-width:0">
        <g
           style="fill:#000000;fill-opacity:1;stroke-width:0"
           id="g1273">
          <g
             transform="translate(149.26,134.765)"
             style="fill:#000000;stroke-width:0"
             id="g1271">
            <path
               style="fill:#000000;stroke:none;stroke-width:0"
               d="M 2.546875,-6.546875 C 2.15625,-6.546875 1.5625,-6.5625 1.21875,-6.59375 1.171875,-6.546875 1.109375,-6.3125 1.140625,-6.234375 c 0.125,0 0.546875,0.046875 0.5625,0.171875 C 1.75,-5.859375 1.671875,-5.546875 1.59375,-5.109375 L 0.875,-1.421875 C 0.796875,-1 0.734375,-0.671875 0.625,-0.484375 0.546875,-0.34375 0.109375,-0.3125 -0.015625,-0.296875 -0.0625,-0.234375 -0.125,0.015625 -0.09375,0.0625 0.28125,0.03125 0.859375,0 1.25,0 1.640625,0 2.21875,0.03125 2.578125,0.0625 2.625,0.015625 2.671875,-0.234375 2.640625,-0.296875 2.515625,-0.3125 2.09375,-0.34375 2.078125,-0.484375 2.03125,-0.671875 2.109375,-1 2.1875,-1.421875 L 2.5,-3.078125 c 0,0 0.015625,-0.015625 0.015625,-0.03125 C 2.546875,-3.125 2.625,-3.15625 3.65625,-3.15625 c 0.375,0 0.75,0.015625 1.09375,0.03125 0,0 0,0.03125 0,0.046875 l -0.3125,1.65625 C 4.359375,-1 4.28125,-0.671875 4.171875,-0.484375 4.09375,-0.34375 3.65625,-0.3125 3.53125,-0.296875 3.484375,-0.234375 3.4375,0.015625 3.46875,0.0625 3.84375,0.03125 4.40625,0 4.796875,0 5.1875,0 5.765625,0.03125 6.125,0.0625 6.171875,0.015625 6.21875,-0.234375 6.1875,-0.296875 6.078125,-0.3125 5.640625,-0.34375 5.625,-0.484375 5.578125,-0.671875 5.65625,-1 5.734375,-1.421875 l 0.71875,-3.6875 c 0.078125,-0.4375 0.140625,-0.75 0.25,-0.953125 0.078125,-0.125 0.515625,-0.171875 0.640625,-0.171875 0.046875,-0.078125 0.09375,-0.3125 0.0625,-0.359375 -0.375,0.03125 -0.921875,0.046875 -1.3125,0.046875 -0.390625,0 -0.984375,-0.015625 -1.328125,-0.046875 -0.046875,0.046875 -0.09375,0.28125 -0.078125,0.359375 0.125,0 0.546875,0.046875 0.5625,0.171875 0.046875,0.203125 -0.03125,0.515625 -0.109375,0.953125 l -0.25,1.40625 c 0,0.03125 -0.03125,0.046875 -0.03125,0.046875 -0.34375,0 -0.765625,0.03125 -1.09375,0.03125 -0.421875,0 -0.765625,-0.03125 -1.125,-0.03125 0,0 -0.015625,-0.015625 -0.015625,-0.03125 l 0.28125,-1.421875 c 0.078125,-0.4375 0.140625,-0.75 0.25,-0.953125 0.078125,-0.125 0.515625,-0.171875 0.625,-0.171875 0.0625,-0.078125 0.109375,-0.3125 0.078125,-0.359375 -0.375,0.03125 -0.921875,0.046875 -1.3125,0.046875 z m 0,0"
               id="path1269" />
          </g>
        </g>
      </g>
    </g>
    <g
       transform="matrix(0.42333399,0,0,0.42333399,62.890165,28.183183)"
       ns2:version="1.1.0"
       ns2:texconverter="pdflatex"
       ns2:pdfconverter="inkscape"
       ns2:text="$I$"
       ns2:preamble="C:\\Users\\flvisa\\Desktop\\lna\\latexify_books\\textext_preamble.tex"
       ns2:scale="1.1999996881895043"
       ns2:alignment="middle center"
       ns2:inkscapeversion="1.0"
       ns2:jacobian_sqrt="0.423334"
       id="g25974">
      <defs
         id="id-49355945-13cb-4664-b86e-f2cf122652cd">
        <g
           id="g1307">
          <symbol
             id="symbol1301"
             overflow="visible">
            <path
               id="path1299"
               d=""
               style="stroke:none" />
          </symbol>
          <symbol
             id="symbol1305"
             overflow="visible">
            <path
               id="path1303"
               d="M 2.359375,-6.625 C 2,-6.625 1.625,-6.65625 1.25,-6.671875 1.1875,-6.625 1.15625,-6.4375 1.1875,-6.390625 c 0.109375,0 0.609375,0.0625 0.609375,0.171875 v 0.078125 c 0,0.15625 -0.03125,0.40625 -0.078125,0.65625 L 0.875,-1.171875 C 0.8125,-0.875 0.765625,-0.59375 0.6875,-0.421875 0.640625,-0.3125 0.109375,-0.265625 0,-0.265625 c -0.046875,0.0625 -0.09375,0.25 -0.046875,0.296875 0.390625,-0.015625 0.75,-0.046875 1.109375,-0.046875 0.359375,0 0.71875,0.03125 1.09375,0.046875 0.0625,-0.046875 0.09375,-0.234375 0.0625,-0.296875 -0.109375,0 -0.609375,-0.046875 -0.625,-0.15625 V -0.5 c 0,-0.15625 0.046875,-0.40625 0.09375,-0.671875 l 0.84375,-4.3125 C 2.59375,-5.78125 2.640625,-6.0625 2.71875,-6.21875 2.765625,-6.328125 3.296875,-6.390625 3.40625,-6.390625 3.453125,-6.4375 3.5,-6.625 3.453125,-6.671875 3.078125,-6.65625 2.71875,-6.625 2.359375,-6.625 Z m 0,0"
               style="stroke:none" />
          </symbol>
        </g>
      </defs>
      <g
         transform="translate(-149.045,-128.093)"
         id="id-12ed91a3-55c6-4038-ac27-f245390c0ac9">
        <g
           id="id-a7ae7ac0-04fc-4d90-ba98-0d9d58c2b825"
           style="fill:#000000;fill-opacity:1">
          <g
             transform="translate(149.111,134.765)"
             id="g25970">
            <path
               id="id-08224d92-967a-493e-9ffd-31bf4d851328"
               d="M 2.359375,-6.625 C 2,-6.625 1.625,-6.65625 1.25,-6.671875 1.1875,-6.625 1.15625,-6.4375 1.1875,-6.390625 c 0.109375,0 0.609375,0.0625 0.609375,0.171875 v 0.078125 c 0,0.15625 -0.03125,0.40625 -0.078125,0.65625 L 0.875,-1.171875 C 0.8125,-0.875 0.765625,-0.59375 0.6875,-0.421875 0.640625,-0.3125 0.109375,-0.265625 0,-0.265625 c -0.046875,0.0625 -0.09375,0.25 -0.046875,0.296875 0.390625,-0.015625 0.75,-0.046875 1.109375,-0.046875 0.359375,0 0.71875,0.03125 1.09375,0.046875 0.0625,-0.046875 0.09375,-0.234375 0.0625,-0.296875 -0.109375,0 -0.609375,-0.046875 -0.625,-0.15625 V -0.5 c 0,-0.15625 0.046875,-0.40625 0.09375,-0.671875 l 0.84375,-4.3125 C 2.59375,-5.78125 2.640625,-6.0625 2.71875,-6.21875 2.765625,-6.328125 3.296875,-6.390625 3.40625,-6.390625 3.453125,-6.4375 3.5,-6.625 3.453125,-6.671875 3.078125,-6.65625 2.71875,-6.625 2.359375,-6.625 Z m 0,0"
               style="stroke:none" />
          </g>
        </g>
      </g>
    </g>
    <g
       transform="matrix(0.42333399,0,0,0.42333399,85.913527,18.626773)"
       ns2:version="1.1.0"
       ns2:texconverter="pdflatex"
       ns2:pdfconverter="inkscape"
       ns2:text="$\\Gamma$"
       ns2:preamble="C:\\Users\\flvisa\\Desktop\\lna\\latexify_books\\textext_preamble.tex"
       ns2:scale="1.2"
       ns2:alignment="middle center"
       ns2:inkscapeversion="1.0"
       ns2:jacobian_sqrt="0.423334"
       style="fill:#9e7867;fill-opacity:1;stroke-width:0"
       id="g22674">
      <defs
         id="id-65e18321-e781-4f63-b8dc-36d6b2b3fb00">
        <g
           id="g1343"
           style="fill:#9e7867;fill-opacity:1;stroke-width:0">
          <symbol
             id="symbol1337"
             overflow="visible"
             style="fill:#9e7867;fill-opacity:1;stroke-width:0">
            <path
               id="path1335"
               d=""
               style="fill:#9e7867;fill-opacity:1;stroke:none;stroke-width:0" />
          </symbol>
          <symbol
             id="symbol1341"
             overflow="visible"
             style="fill:#9e7867;fill-opacity:1;stroke-width:0">
            <path
               id="path1339"
               d="M 1.6875,-6.15625 C 2.09375,-6.203125 2.375,-6.234375 2.84375,-6.234375 3.625,-6.234375 4,-6.015625 4.375,-5.21875 4.46875,-5.25 4.5,-5.265625 4.578125,-5.359375 4.546875,-5.875 4.3125,-6.703125 4.3125,-6.703125 c -1.046875,0.03125 -1.5,0.0625 -2.453125,0.0625 -0.484375,0 -0.75,-0.015625 -1.21875,-0.046875 -0.0625,0.03125 -0.125,0.125 -0.125,0.1875 C 0.703125,-6.453125 1,-6.296875 1.0625,-6.078125 l -1.125,5.875 V -0.1875 c 0,0.140625 0.40625,0.34375 0.46875,0.34375 0.09375,0 0.1875,-0.0625 0.265625,-0.171875 V -0.0625 C 0.671875,-0.40625 0.875,-1.65625 1,-2.328125 1.109375,-2.921875 1.609375,-5.6875 1.6875,-6.15625 Z m 0,0"
               style="fill:#9e7867;fill-opacity:1;stroke:none;stroke-width:0" />
          </symbol>
        </g>
      </defs>
      <g
         transform="translate(-148.948,-128.062)"
         id="id-8e88def5-6783-46f2-b995-3f70cf0bb221"
         style="fill:#9e7867;fill-opacity:1;stroke-width:0">
        <g
           id="id-a39c59a1-833b-4e78-9aea-9115c5d10b11"
           style="fill:#9e7867;fill-opacity:1;stroke-width:0">
          <g
             transform="translate(149.011,134.765)"
             style="fill:#9e7867;fill-opacity:1;stroke-width:0"
             id="g22670">
            <path
               id="id-ccfd7e65-8f0d-4f1c-8ef1-e144f86c651e"
               d="M 1.6875,-6.15625 C 2.09375,-6.203125 2.375,-6.234375 2.84375,-6.234375 3.625,-6.234375 4,-6.015625 4.375,-5.21875 4.46875,-5.25 4.5,-5.265625 4.578125,-5.359375 4.546875,-5.875 4.3125,-6.703125 4.3125,-6.703125 c -1.046875,0.03125 -1.5,0.0625 -2.453125,0.0625 -0.484375,0 -0.75,-0.015625 -1.21875,-0.046875 -0.0625,0.03125 -0.125,0.125 -0.125,0.1875 C 0.703125,-6.453125 1,-6.296875 1.0625,-6.078125 l -1.125,5.875 V -0.1875 c 0,0.140625 0.40625,0.34375 0.46875,0.34375 0.09375,0 0.1875,-0.0625 0.265625,-0.171875 V -0.0625 C 0.671875,-0.40625 0.875,-1.65625 1,-2.328125 1.109375,-2.921875 1.609375,-5.6875 1.6875,-6.15625 Z m 0,0"
               style="fill:#9e7867;fill-opacity:1;stroke:none;stroke-width:0" />
          </g>
        </g>
      </g>
    </g>
    <g
       transform="matrix(0.42333399,0,0,0.42333399,92.842414,22.26298)"
       ns2:version="1.1.0"
       ns2:texconverter="pdflatex"
       ns2:pdfconverter="inkscape"
       ns2:text="$V$"
       ns2:preamble="C:\\Users\\flvisa\\Desktop\\lna\\latexify_books\\textext_preamble.tex"
       ns2:scale="1.199999773228722"
       ns2:alignment="middle center"
       ns2:inkscapeversion="1.0"
       ns2:jacobian_sqrt="0.423334"
       id="g4218">
      <defs
         id="id-504fc980-41bc-4e31-ae26-51c24c321aab">
        <g
           id="g1433">
          <symbol
             id="symbol1427"
             overflow="visible">
            <path
               id="path1425"
               d=""
               style="stroke:none" />
          </symbol>
          <symbol
             id="symbol1431"
             overflow="visible">
            <path
               id="path1429"
               d="m 1.765625,-6.625 c -0.4375,0 -0.65625,-0.03125 -1.078125,-0.046875 -0.015625,0.015625 -0.078125,0.28125 -0.0625,0.28125 0.109375,0 0.484375,0.078125 0.5625,0.234375 0.109375,0.265625 0.1875,0.578125 0.25,0.96875 0.3125,1.953125 0.5,3.25 0.796875,5.046875 0.015625,0.046875 0.015625,0.15625 0.0625,0.15625 0.109375,0 0.265625,-0.0625 0.421875,-0.328125 l 2.75,-4.796875 c 0.21875,-0.375 0.515625,-0.875 0.65625,-1.015625 0.203125,-0.1875 0.59375,-0.265625 0.65625,-0.265625 0.03125,0 0.09375,-0.234375 0.078125,-0.28125 C 6.484375,-6.65625 6.375,-6.625 5.9375,-6.625 c -0.34375,0 -0.65625,-0.03125 -1,-0.046875 C 4.890625,-6.625 4.859375,-6.40625 4.890625,-6.390625 5,-6.390625 5.4375,-6.3125 5.4375,-6.046875 c 0,0.03125 -0.015625,0.03125 -0.015625,0.0625 -0.03125,0.171875 -0.125,0.46875 -0.265625,0.703125 0,0 -2.234375,3.9375 -2.28125,3.984375 0,-0.03125 -0.46875,-3.140625 -0.59375,-4.03125 -0.03125,-0.25 -0.046875,-0.453125 -0.046875,-0.578125 0,-0.0625 0,-0.109375 0.015625,-0.140625 0.046875,-0.28125 0.546875,-0.34375 0.609375,-0.34375 C 2.90625,-6.40625 2.9375,-6.625 2.9375,-6.671875 2.546875,-6.65625 2.171875,-6.625 1.765625,-6.625 Z m 0,0"
               style="stroke:none" />
          </symbol>
        </g>
      </defs>
      <g
         transform="translate(-149.236,-128.093)"
         id="id-75e3bbff-9e58-4e82-bef0-ba0ec0ad4c45">
        <g
           id="id-8e17e46c-46e8-43cb-b8ed-94b6d0cc94c8"
           style="fill:#000000;fill-opacity:1">
          <g
             transform="translate(148.613,134.765)"
             id="g4214">
            <path
               id="id-aeddeba0-56cd-427e-b60d-9ed5260b32da"
               d="m 1.765625,-6.625 c -0.4375,0 -0.65625,-0.03125 -1.078125,-0.046875 -0.015625,0.015625 -0.078125,0.28125 -0.0625,0.28125 0.109375,0 0.484375,0.078125 0.5625,0.234375 0.109375,0.265625 0.1875,0.578125 0.25,0.96875 0.3125,1.953125 0.5,3.25 0.796875,5.046875 0.015625,0.046875 0.015625,0.15625 0.0625,0.15625 0.109375,0 0.265625,-0.0625 0.421875,-0.328125 l 2.75,-4.796875 c 0.21875,-0.375 0.515625,-0.875 0.65625,-1.015625 0.203125,-0.1875 0.59375,-0.265625 0.65625,-0.265625 0.03125,0 0.09375,-0.234375 0.078125,-0.28125 C 6.484375,-6.65625 6.375,-6.625 5.9375,-6.625 c -0.34375,0 -0.65625,-0.03125 -1,-0.046875 C 4.890625,-6.625 4.859375,-6.40625 4.890625,-6.390625 5,-6.390625 5.4375,-6.3125 5.4375,-6.046875 c 0,0.03125 -0.015625,0.03125 -0.015625,0.0625 -0.03125,0.171875 -0.125,0.46875 -0.265625,0.703125 0,0 -2.234375,3.9375 -2.28125,3.984375 0,-0.03125 -0.46875,-3.140625 -0.59375,-4.03125 -0.03125,-0.25 -0.046875,-0.453125 -0.046875,-0.578125 0,-0.0625 0,-0.109375 0.015625,-0.140625 0.046875,-0.28125 0.546875,-0.34375 0.609375,-0.34375 C 2.90625,-6.40625 2.9375,-6.625 2.9375,-6.671875 2.546875,-6.65625 2.171875,-6.625 1.765625,-6.625 Z m 0,0"
               style="stroke:none" />
          </g>
        </g>
      </g>
    </g>
    <g
       transform="matrix(0.42333399,0,0,0.42333399,84.192358,27.988199)"
       ns2:version="1.1.0"
       ns2:texconverter="pdflatex"
       ns2:pdfconverter="inkscape"
       ns2:text="$S_1$"
       ns2:preamble="C:\\Users\\flvisa\\Desktop\\lna\\latexify_books\\textext_preamble.tex"
       ns2:scale="1.1999997448823154"
       ns2:alignment="middle center"
       ns2:inkscapeversion="1.0"
       ns2:jacobian_sqrt="0.423334"
       id="g8475">
      <defs
         id="id-47bf1388-8200-401f-8111-9c513a6ec9e7">
        <g
           id="g1457">
          <symbol
             id="symbol1443"
             overflow="visible">
            <path
               id="path1441"
               d=""
               style="stroke:none" />
          </symbol>
          <symbol
             id="symbol1447"
             overflow="visible">
            <path
               id="path1445"
               d="m 3.15625,-6.71875 c -0.9375,0 -2.125,0.75 -2.125,1.90625 0,1.046875 0.75,1.359375 1.359375,1.84375 0.515625,0.390625 0.953125,0.75 0.953125,1.484375 0,0.796875 -0.609375,1.265625 -1.28125,1.265625 -1,0 -1.359375,-1.078125 -1.359375,-1.640625 -0.03125,-0.03125 -0.0625,-0.046875 -0.109375,-0.046875 -0.0625,0 -0.21875,0.015625 -0.25,0.046875 0,0.03125 -0.015625,0.078125 -0.015625,0.171875 0,0.296875 0.046875,0.921875 0.140625,1.34375 0.375,0.21875 0.890625,0.421875 1.46875,0.421875 1.09375,0 2.3125,-0.78125 2.3125,-2.015625 C 4.25,-2.875 3.515625,-3.234375 2.984375,-3.671875 2.4375,-4.09375 1.8125,-4.421875 1.8125,-5.25 c 0,-0.515625 0.4375,-1.15625 1.265625,-1.15625 0.65625,0 0.9375,0.5 0.9375,1.203125 0,0.0625 -0.015625,0.125 -0.015625,0.171875 0.0625,0.0625 0.171875,0.09375 0.21875,0.09375 0.03125,0 0.09375,-0.015625 0.09375,-0.09375 C 4.375,-5.328125 4.5,-6.140625 4.53125,-6.484375 4.03125,-6.59375 3.734375,-6.71875 3.15625,-6.71875 Z m 0,0"
               style="stroke:none" />
          </symbol>
          <symbol
             id="symbol1451"
             overflow="visible">
            <path
               id="path1449"
               d="m 0.359375,0 h 2.90625 V -3.515625 H 0.359375 Z M 0.71875,-0.359375 v -2.78125 h 2.1875 v 2.78125 z m 0,0"
               style="stroke:none" />
          </symbol>
          <symbol
             id="symbol1455"
             overflow="visible">
            <path
               id="path1453"
               d="m 1.578125,-0.828125 c 0,0.21875 0,0.40625 -0.03125,0.53125 -0.03125,0.078125 -0.375,0.109375 -0.453125,0.109375 -0.03125,0.046875 -0.046875,0.171875 0,0.203125 C 1.375,0 1.5625,-0.015625 1.84375,-0.015625 c 0.28125,0 0.5,0.015625 0.796875,0.03125 0.03125,-0.03125 0.03125,-0.15625 0,-0.203125 -0.09375,0 -0.4375,-0.03125 -0.46875,-0.109375 -0.03125,-0.125 -0.03125,-0.3125 -0.03125,-0.53125 V -3.75 c 0,-0.4375 0.0625,-0.6875 0.0625,-0.6875 C 2.1875,-4.46875 2.171875,-4.5625 2.125,-4.5625 H 2.109375 c -0.015625,0 -0.65625,0.3125 -1.234375,0.578125 -0.015625,0.015625 0,0.03125 0,0.046875 0,0.046875 0.03125,0.09375 0.0625,0.125 0.109375,-0.046875 0.390625,-0.140625 0.5,-0.140625 0.109375,0 0.140625,0.0625 0.140625,0.265625 z m 0,0"
               style="stroke:none" />
          </symbol>
        </g>
      </defs>
      <g
         transform="translate(-148.941,-128.046)"
         id="id-c398a82e-20ba-4560-847e-4914f4aacf0c">
        <g
           id="id-a1ff0d4b-8afe-4504-8aa6-298dd0835a15"
           style="fill:#000000;fill-opacity:1">
          <g
             transform="translate(148.613,134.765)"
             id="g8467">
            <path
               id="id-00906d91-3e1e-479e-8842-8b0dd275abaf"
               d="m 3.15625,-6.71875 c -0.9375,0 -2.125,0.75 -2.125,1.90625 0,1.046875 0.75,1.359375 1.359375,1.84375 0.515625,0.390625 0.953125,0.75 0.953125,1.484375 0,0.796875 -0.609375,1.265625 -1.28125,1.265625 -1,0 -1.359375,-1.078125 -1.359375,-1.640625 -0.03125,-0.03125 -0.0625,-0.046875 -0.109375,-0.046875 -0.0625,0 -0.21875,0.015625 -0.25,0.046875 0,0.03125 -0.015625,0.078125 -0.015625,0.171875 0,0.296875 0.046875,0.921875 0.140625,1.34375 0.375,0.21875 0.890625,0.421875 1.46875,0.421875 1.09375,0 2.3125,-0.78125 2.3125,-2.015625 C 4.25,-2.875 3.515625,-3.234375 2.984375,-3.671875 2.4375,-4.09375 1.8125,-4.421875 1.8125,-5.25 c 0,-0.515625 0.4375,-1.15625 1.265625,-1.15625 0.65625,0 0.9375,0.5 0.9375,1.203125 0,0.0625 -0.015625,0.125 -0.015625,0.171875 0.0625,0.0625 0.171875,0.09375 0.21875,0.09375 0.03125,0 0.09375,-0.015625 0.09375,-0.09375 C 4.375,-5.328125 4.5,-6.140625 4.53125,-6.484375 4.03125,-6.59375 3.734375,-6.71875 3.15625,-6.71875 Z m 0,0"
               style="stroke:none" />
          </g>
        </g>
        <g
           id="id-0d3a0483-3fe1-4d55-b925-1829ee9b52f4"
           style="fill:#000000;fill-opacity:1">
          <g
             transform="translate(153.355,136.259)"
             id="g8471">
            <path
               id="id-5d1cc871-5ad3-42cd-9875-9a791511226a"
               d="m 1.578125,-0.828125 c 0,0.21875 0,0.40625 -0.03125,0.53125 -0.03125,0.078125 -0.375,0.109375 -0.453125,0.109375 -0.03125,0.046875 -0.046875,0.171875 0,0.203125 C 1.375,0 1.5625,-0.015625 1.84375,-0.015625 c 0.28125,0 0.5,0.015625 0.796875,0.03125 0.03125,-0.03125 0.03125,-0.15625 0,-0.203125 -0.09375,0 -0.4375,-0.03125 -0.46875,-0.109375 -0.03125,-0.125 -0.03125,-0.3125 -0.03125,-0.53125 V -3.75 c 0,-0.4375 0.0625,-0.6875 0.0625,-0.6875 C 2.1875,-4.46875 2.171875,-4.5625 2.125,-4.5625 H 2.109375 c -0.015625,0 -0.65625,0.3125 -1.234375,0.578125 -0.015625,0.015625 0,0.03125 0,0.046875 0,0.046875 0.03125,0.09375 0.0625,0.125 0.109375,-0.046875 0.390625,-0.140625 0.5,-0.140625 0.109375,0 0.140625,0.0625 0.140625,0.265625 z m 0,0"
               style="stroke:none" />
          </g>
        </g>
      </g>
    </g>
    <g
       transform="matrix(0.42333399,0,0,0.42333399,107.67862,11.031698)"
       ns2:version="1.1.0"
       ns2:texconverter="pdflatex"
       ns2:pdfconverter="inkscape"
       ns2:text="$S_2$"
       ns2:preamble="C:\\Users\\flvisa\\Desktop\\lna\\latexify_books\\textext_preamble.tex"
       ns2:scale="1.1999997165359095"
       ns2:alignment="middle center"
       ns2:inkscapeversion="1.0"
       ns2:jacobian_sqrt="0.423334"
       id="g9021">
      <defs
         id="id-d435a10a-18bc-4e2b-a471-c7e90479aca6">
        <g
           id="g1484">
          <symbol
             id="symbol1470"
             overflow="visible">
            <path
               id="path1468"
               d=""
               style="stroke:none" />
          </symbol>
          <symbol
             id="symbol1474"
             overflow="visible">
            <path
               id="path1472"
               d="m 3.15625,-6.71875 c -0.9375,0 -2.125,0.75 -2.125,1.90625 0,1.046875 0.75,1.359375 1.359375,1.84375 0.515625,0.390625 0.953125,0.75 0.953125,1.484375 0,0.796875 -0.609375,1.265625 -1.28125,1.265625 -1,0 -1.359375,-1.078125 -1.359375,-1.640625 -0.03125,-0.03125 -0.0625,-0.046875 -0.109375,-0.046875 -0.0625,0 -0.21875,0.015625 -0.25,0.046875 0,0.03125 -0.015625,0.078125 -0.015625,0.171875 0,0.296875 0.046875,0.921875 0.140625,1.34375 0.375,0.21875 0.890625,0.421875 1.46875,0.421875 1.09375,0 2.3125,-0.78125 2.3125,-2.015625 C 4.25,-2.875 3.515625,-3.234375 2.984375,-3.671875 2.4375,-4.09375 1.8125,-4.421875 1.8125,-5.25 c 0,-0.515625 0.4375,-1.15625 1.265625,-1.15625 0.65625,0 0.9375,0.5 0.9375,1.203125 0,0.0625 -0.015625,0.125 -0.015625,0.171875 0.0625,0.0625 0.171875,0.09375 0.21875,0.09375 0.03125,0 0.09375,-0.015625 0.09375,-0.09375 C 4.375,-5.328125 4.5,-6.140625 4.53125,-6.484375 4.03125,-6.59375 3.734375,-6.71875 3.15625,-6.71875 Z m 0,0"
               style="stroke:none" />
          </symbol>
          <symbol
             id="symbol1478"
             overflow="visible">
            <path
               id="path1476"
               d="m 0.359375,0 h 2.90625 V -3.515625 H 0.359375 Z M 0.71875,-0.359375 v -2.78125 h 2.1875 v 2.78125 z m 0,0"
               style="stroke:none" />
          </symbol>
          <symbol
             id="symbol1482"
             overflow="visible">
            <path
               id="path1480"
               d="M 3.21875,-1.0625 C 3.1875,-1.078125 3.109375,-1.109375 3.078125,-1.109375 3.03125,-1.109375 3.015625,-1.09375 3,-1.0625 2.84375,-0.6875 2.6875,-0.515625 2.390625,-0.515625 H 0.984375 C 1.3125,-0.875 2.03125,-1.671875 2.53125,-2.296875 2.78125,-2.59375 2.9375,-2.96875 2.9375,-3.375 c 0,-0.59375 -0.546875,-1.1875 -1.21875,-1.1875 -0.75,0 -1.265625,0.796875 -1.3125,0.96875 0,0.03125 0.078125,0.109375 0.140625,0.109375 C 0.625,-3.625 0.984375,-4.09375 1.5625,-4.09375 c 0.4375,0 0.78125,0.375 0.78125,0.859375 0,0.34375 -0.0625,0.640625 -0.34375,1.0625 -0.421875,0.609375 -1.09375,1.40625 -1.6875,2.0625 0,0.03125 0.03125,0.09375 0.0625,0.109375 h 2.453125 c 0.046875,-0.125 0.25,-0.71875 0.390625,-1.0625 z m 0,0"
               style="stroke:none" />
          </symbol>
        </g>
      </defs>
      <g
         transform="translate(-148.941,-128.046)"
         id="id-b5bd9719-6500-4818-a8eb-c4f4de681c23">
        <g
           id="id-f9f87c90-13b4-428e-85c0-4f200410e027"
           style="fill:#000000;fill-opacity:1">
          <g
             transform="translate(148.613,134.765)"
             id="g9013">
            <path
               id="id-14848a32-0e0e-4687-b11d-5adb766b93da"
               d="m 3.15625,-6.71875 c -0.9375,0 -2.125,0.75 -2.125,1.90625 0,1.046875 0.75,1.359375 1.359375,1.84375 0.515625,0.390625 0.953125,0.75 0.953125,1.484375 0,0.796875 -0.609375,1.265625 -1.28125,1.265625 -1,0 -1.359375,-1.078125 -1.359375,-1.640625 -0.03125,-0.03125 -0.0625,-0.046875 -0.109375,-0.046875 -0.0625,0 -0.21875,0.015625 -0.25,0.046875 0,0.03125 -0.015625,0.078125 -0.015625,0.171875 0,0.296875 0.046875,0.921875 0.140625,1.34375 0.375,0.21875 0.890625,0.421875 1.46875,0.421875 1.09375,0 2.3125,-0.78125 2.3125,-2.015625 C 4.25,-2.875 3.515625,-3.234375 2.984375,-3.671875 2.4375,-4.09375 1.8125,-4.421875 1.8125,-5.25 c 0,-0.515625 0.4375,-1.15625 1.265625,-1.15625 0.65625,0 0.9375,0.5 0.9375,1.203125 0,0.0625 -0.015625,0.125 -0.015625,0.171875 0.0625,0.0625 0.171875,0.09375 0.21875,0.09375 0.03125,0 0.09375,-0.015625 0.09375,-0.09375 C 4.375,-5.328125 4.5,-6.140625 4.53125,-6.484375 4.03125,-6.59375 3.734375,-6.71875 3.15625,-6.71875 Z m 0,0"
               style="stroke:none" />
          </g>
        </g>
        <g
           id="id-4509b74c-cd51-49a4-ad58-e90bc312d0db"
           style="fill:#000000;fill-opacity:1">
          <g
             transform="translate(153.355,136.259)"
             id="g9017">
            <path
               id="id-4c1b167b-4306-4ddb-b3f9-5262e7e37a39"
               d="M 3.21875,-1.0625 C 3.1875,-1.078125 3.109375,-1.109375 3.078125,-1.109375 3.03125,-1.109375 3.015625,-1.09375 3,-1.0625 2.84375,-0.6875 2.6875,-0.515625 2.390625,-0.515625 H 0.984375 C 1.3125,-0.875 2.03125,-1.671875 2.53125,-2.296875 2.78125,-2.59375 2.9375,-2.96875 2.9375,-3.375 c 0,-0.59375 -0.546875,-1.1875 -1.21875,-1.1875 -0.75,0 -1.265625,0.796875 -1.3125,0.96875 0,0.03125 0.078125,0.109375 0.140625,0.109375 C 0.625,-3.625 0.984375,-4.09375 1.5625,-4.09375 c 0.4375,0 0.78125,0.375 0.78125,0.859375 0,0.34375 -0.0625,0.640625 -0.34375,1.0625 -0.421875,0.609375 -1.09375,1.40625 -1.6875,2.0625 0,0.03125 0.03125,0.09375 0.0625,0.109375 h 2.453125 c 0.046875,-0.125 0.25,-0.71875 0.390625,-1.0625 z m 0,0"
               style="stroke:none" />
          </g>
        </g>
      </g>
    </g>
    <path
       style="fill:none;stroke:#506a65;stroke-width:0.264583;stroke-linecap:round;stroke-linejoin:round;stroke-miterlimit:4;stroke-dasharray:1.05833, 0.529167;stroke-dashoffset:0;stroke-opacity:1"
       d="m 117.37498,17.717634 c 4.33872,0 3.2369,13.125805 4.93354,14.35471"
       id="path1495"
       sodipodi:nodetypes="cc" />
    <path
       style="fill:none;stroke:#506a65;stroke-width:0.264583;stroke-linecap:round;stroke-linejoin:round;stroke-miterlimit:4;stroke-dasharray:1.05833, 0.529167;stroke-dashoffset:0;stroke-opacity:1"
       d="m 117.37498,22.428259 c 2.70168,0 2.73577,8.448589 4.93354,9.644085"
       id="path1497"
       sodipodi:nodetypes="cc" />
    <path
       style="fill:none;stroke:#506a65;stroke-width:0.264583;stroke-linecap:round;stroke-linejoin:round;stroke-miterlimit:4;stroke-dasharray:1.05833, 0.529167;stroke-dashoffset:0;stroke-opacity:1"
       d="m 117.37498,27.673423 c 2.70168,0 1.96736,3.303651 4.93354,4.398921"
       id="path1499"
       sodipodi:nodetypes="cc" />
    <path
       style="fill:none;stroke:#506a65;stroke-width:0.264583;stroke-linecap:round;stroke-linejoin:round;stroke-miterlimit:4;stroke-dasharray:1.05833, 0.529167;stroke-dashoffset:0;stroke-opacity:1"
       d="m 117.37498,46.427054 c 4.33872,0 3.2369,-13.125805 4.93354,-14.35471"
       id="path1501"
       sodipodi:nodetypes="cc" />
    <path
       style="fill:none;stroke:#506a65;stroke-width:0.264583;stroke-linecap:round;stroke-linejoin:round;stroke-miterlimit:4;stroke-dasharray:1.05833, 0.529167;stroke-dashoffset:0;stroke-opacity:1"
       d="m 117.37498,41.716429 c 2.70168,0 2.73577,-8.448589 4.93354,-9.644085"
       id="path1503"
       sodipodi:nodetypes="cc" />
    <path
       style="fill:none;stroke:#506a65;stroke-width:0.264583;stroke-linecap:round;stroke-linejoin:round;stroke-miterlimit:4;stroke-dasharray:1.05833, 0.529167;stroke-dashoffset:0;stroke-opacity:1"
       d="m 117.37498,36.471265 c 2.70168,0 1.96736,-3.303651 4.93354,-4.398921"
       id="path1505"
       sodipodi:nodetypes="cc" />
    <rect
       style="fill:none;stroke:#b3b3b3;stroke-width:0.529167;stroke-linecap:round;stroke-linejoin:round;stroke-miterlimit:4;stroke-dasharray:none"
       id="rect1507"
       width="4.6875019"
       height="36.40456"
       x="-121.96809"
       y="13.866273"
       transform="scale(-1,1)" />
    <circle
       r="0.66817379"
       cy="32.198845"
       cx="-122.02894"
       id="circle1509"
       style="opacity:1;fill:#000000;stroke:#000000;stroke-width:0.264583;stroke-linejoin:round;stroke-miterlimit:4;stroke-dasharray:none"
       transform="scale(-1,1)" />
    <path
       style="fill:none;stroke:#000000;stroke-width:0.529167;stroke-linecap:round;stroke-linejoin:miter;stroke-miterlimit:4;stroke-dasharray:none;stroke-opacity:1"
       d="m 122.2088,32.072344 h 18.44502"
       id="path1523"
       sodipodi:nodetypes="cc" />
    <path
       style="fill:none;stroke:#000000;stroke-width:0.396875;stroke-linecap:butt;stroke-linejoin:miter;stroke-miterlimit:4;stroke-dasharray:none;stroke-opacity:1;marker-end:url(#marker1551)"
       d="m 135.96722,32.072344 h 1.10138"
       id="path1525" />
    <g
       transform="matrix(0.42333399,0,0,0.42333399,139.09043,28.183183)"
       ns2:version="1.1.0"
       ns2:texconverter="pdflatex"
       ns2:pdfconverter="inkscape"
       ns2:text="$I$"
       ns2:preamble="C:\\Users\\flvisa\\Desktop\\lna\\latexify_books\\textext_preamble.tex"
       ns2:scale="1.1999996881895043"
       ns2:alignment="middle center"
       ns2:inkscapeversion="1.0"
       ns2:jacobian_sqrt="0.423334"
       id="g1547">
      <defs
         id="defs1537">
        <g
           id="g1535">
          <symbol
             id="symbol1529"
             overflow="visible">
            <path
               id="path1527"
               d=""
               style="stroke:none" />
          </symbol>
          <symbol
             id="symbol1533"
             overflow="visible">
            <path
               id="path1531"
               d="M 2.359375,-6.625 C 2,-6.625 1.625,-6.65625 1.25,-6.671875 1.1875,-6.625 1.15625,-6.4375 1.1875,-6.390625 c 0.109375,0 0.609375,0.0625 0.609375,0.171875 v 0.078125 c 0,0.15625 -0.03125,0.40625 -0.078125,0.65625 L 0.875,-1.171875 C 0.8125,-0.875 0.765625,-0.59375 0.6875,-0.421875 0.640625,-0.3125 0.109375,-0.265625 0,-0.265625 c -0.046875,0.0625 -0.09375,0.25 -0.046875,0.296875 0.390625,-0.015625 0.75,-0.046875 1.109375,-0.046875 0.359375,0 0.71875,0.03125 1.09375,0.046875 0.0625,-0.046875 0.09375,-0.234375 0.0625,-0.296875 -0.109375,0 -0.609375,-0.046875 -0.625,-0.15625 V -0.5 c 0,-0.15625 0.046875,-0.40625 0.09375,-0.671875 l 0.84375,-4.3125 C 2.59375,-5.78125 2.640625,-6.0625 2.71875,-6.21875 2.765625,-6.328125 3.296875,-6.390625 3.40625,-6.390625 3.453125,-6.4375 3.5,-6.625 3.453125,-6.671875 3.078125,-6.65625 2.71875,-6.625 2.359375,-6.625 Z m 0,0"
               style="stroke:none" />
          </symbol>
        </g>
      </defs>
      <g
         transform="translate(-149.045,-128.093)"
         id="g1545">
        <g
           id="g1543"
           style="fill:#000000;fill-opacity:1">
          <g
             transform="translate(149.111,134.765)"
             id="g1541">
            <path
               id="path1539"
               d="M 2.359375,-6.625 C 2,-6.625 1.625,-6.65625 1.25,-6.671875 1.1875,-6.625 1.15625,-6.4375 1.1875,-6.390625 c 0.109375,0 0.609375,0.0625 0.609375,0.171875 v 0.078125 c 0,0.15625 -0.03125,0.40625 -0.078125,0.65625 L 0.875,-1.171875 C 0.8125,-0.875 0.765625,-0.59375 0.6875,-0.421875 0.640625,-0.3125 0.109375,-0.265625 0,-0.265625 c -0.046875,0.0625 -0.09375,0.25 -0.046875,0.296875 0.390625,-0.015625 0.75,-0.046875 1.109375,-0.046875 0.359375,0 0.71875,0.03125 1.09375,0.046875 0.0625,-0.046875 0.09375,-0.234375 0.0625,-0.296875 -0.109375,0 -0.609375,-0.046875 -0.625,-0.15625 V -0.5 c 0,-0.15625 0.046875,-0.40625 0.09375,-0.671875 l 0.84375,-4.3125 C 2.59375,-5.78125 2.640625,-6.0625 2.71875,-6.21875 2.765625,-6.328125 3.296875,-6.390625 3.40625,-6.390625 3.453125,-6.4375 3.5,-6.625 3.453125,-6.671875 3.078125,-6.65625 2.71875,-6.625 2.359375,-6.625 Z m 0,0"
               style="stroke:none" />
          </g>
        </g>
      </g>
    </g>
  </g>
</svg>
