<?xml version="1.0" encoding="UTF-8" standalone="no"?>
<svg
   xmlns:ns1="http://www.iki.fi/pav/software/textext/"
   xmlns:dc="http://purl.org/dc/elements/1.1/"
   xmlns:cc="http://creativecommons.org/ns#"
   xmlns:rdf="http://www.w3.org/1999/02/22-rdf-syntax-ns#"
   xmlns:svg="http://www.w3.org/2000/svg"
   xmlns="http://www.w3.org/2000/svg"
   xmlns:sodipodi="http://sodipodi.sourceforge.net/DTD/sodipodi-0.dtd"
   xmlns:inkscape="http://www.inkscape.org/namespaces/inkscape"
   width="42.690132mm"
   height="22.418463mm"
   viewBox="0 0 42.690132 22.418463"
   version="1.1"
   id="svg6879"
   inkscape:version="1.0 (4035a4fb49, 2020-05-01)"
   sodipodi:docname="fig_1_7.svg">
  <defs
     id="defs6873">
    <marker
       inkscape:isstock="true"
       style="overflow:visible;"
       id="marker26797"
       refX="0.0"
       refY="0.0"
       orient="auto"
       inkscape:stockid="Arrow1Send">
      <path
         transform="scale(0.2) rotate(180) translate(6,0)"
         style="fill-rule:evenodd;stroke:#a6a7a3;stroke-width:1pt;stroke-opacity:1;fill:#a6a7a3;fill-opacity:1"
         d="M 0.0,0.0 L 5.0,-5.0 L -12.5,0.0 L 5.0,5.0 L 0.0,0.0 z "
         id="path26795" />
    </marker>
    <marker
       inkscape:isstock="true"
       style="overflow:visible;"
       id="marker26727"
       refX="0.0"
       refY="0.0"
       orient="auto"
       inkscape:stockid="Arrow1Send">
      <path
         transform="scale(0.2) rotate(180) translate(6,0)"
         style="fill-rule:evenodd;stroke:#c28f48;stroke-width:1pt;stroke-opacity:1;fill:#c28f48;fill-opacity:1"
         d="M 0.0,0.0 L 5.0,-5.0 L -12.5,0.0 L 5.0,5.0 L 0.0,0.0 z "
         id="path26725" />
    </marker>
    <marker
       inkscape:collect="always"
       inkscape:stockid="Arrow1Send"
       orient="auto"
       refY="0.0"
       refX="0.0"
       id="marker26663"
       style="overflow:visible;"
       inkscape:isstock="true">
      <path
         id="path26661"
         d="M 0.0,0.0 L 5.0,-5.0 L -12.5,0.0 L 5.0,5.0 L 0.0,0.0 z "
         style="fill-rule:evenodd;stroke:#3d677b;stroke-width:1pt;stroke-opacity:1;fill:#3d677b;fill-opacity:1"
         transform="scale(0.2) rotate(180) translate(6,0)" />
    </marker>
    <marker
       inkscape:collect="always"
       inkscape:isstock="true"
       style="overflow:visible;"
       id="Arrow1Send"
       refX="0.0"
       refY="0.0"
       orient="auto"
       inkscape:stockid="Arrow1Send">
      <path
         transform="scale(0.2) rotate(180) translate(6,0)"
         style="fill-rule:evenodd;stroke:#9a4832;stroke-width:1pt;stroke-opacity:1;fill:#9a4832;fill-opacity:1"
         d="M 0.0,0.0 L 5.0,-5.0 L -12.5,0.0 L 5.0,5.0 L 0.0,0.0 z "
         id="path15679" />
    </marker>
    <marker
       inkscape:isstock="true"
       style="overflow:visible;"
       id="marker25647"
       refX="0.0"
       refY="0.0"
       orient="auto"
       inkscape:stockid="Arrow1Mend">
      <path
         transform="scale(0.4) rotate(180) translate(10,0)"
         style="fill-rule:evenodd;stroke:#9a4832;stroke-width:1pt;stroke-opacity:1;fill:#9a4832;fill-opacity:1"
         d="M 0.0,0.0 L 5.0,-5.0 L -12.5,0.0 L 5.0,5.0 L 0.0,0.0 z "
         id="path25645" />
    </marker>
    <marker
       inkscape:isstock="true"
       style="overflow:visible;"
       id="marker25637"
       refX="0.0"
       refY="0.0"
       orient="auto"
       inkscape:stockid="Arrow1Mend">
      <path
         transform="scale(0.4) rotate(180) translate(10,0)"
         style="fill-rule:evenodd;stroke:#3d677b;stroke-width:1pt;stroke-opacity:1;fill:#3d677b;fill-opacity:1"
         d="M 0.0,0.0 L 5.0,-5.0 L -12.5,0.0 L 5.0,5.0 L 0.0,0.0 z "
         id="path25635" />
    </marker>
    <marker
       inkscape:isstock="true"
       style="overflow:visible;"
       id="marker25627"
       refX="0.0"
       refY="0.0"
       orient="auto"
       inkscape:stockid="Arrow1Mend">
      <path
         transform="scale(0.4) rotate(180) translate(10,0)"
         style="fill-rule:evenodd;stroke:#a6a7a3;stroke-width:1pt;stroke-opacity:1;fill:#a6a7a3;fill-opacity:1"
         d="M 0.0,0.0 L 5.0,-5.0 L -12.5,0.0 L 5.0,5.0 L 0.0,0.0 z "
         id="path25625" />
    </marker>
    <marker
       inkscape:isstock="true"
       style="overflow:visible;"
       id="marker25617"
       refX="0.0"
       refY="0.0"
       orient="auto"
       inkscape:stockid="Arrow1Mend">
      <path
         transform="scale(0.4) rotate(180) translate(10,0)"
         style="fill-rule:evenodd;stroke:#c28f48;stroke-width:1pt;stroke-opacity:1;fill:#c28f48;fill-opacity:1"
         d="M 0.0,0.0 L 5.0,-5.0 L -12.5,0.0 L 5.0,5.0 L 0.0,0.0 z "
         id="path25615" />
    </marker>
    <pattern
       id="EMFhbasepattern"
       patternUnits="userSpaceOnUse"
       width="6"
       height="6"
       x="0"
       y="0" />
    <marker
       inkscape:isstock="true"
       style="overflow:visible"
       id="marker1688"
       refX="0"
       refY="0"
       orient="auto"
       inkscape:stockid="Arrow2Mend">
      <path
         transform="scale(-0.6)"
         d="M 8.7185878,4.0337352 -2.2072895,0.01601326 8.7185884,-4.0017078 c -1.7454984,2.3720609 -1.7354408,5.6174519 -6e-7,8.035443 z"
         style="fill:#9a4832;fill-opacity:1;fill-rule:evenodd;stroke:#9a4832;stroke-width:0.625;stroke-linejoin:round;stroke-opacity:1"
         id="path1686" />
    </marker>
    <g
       id="g3985">
      <symbol
         id="symbol3971"
         overflow="visible">
        <path
           id="path3969"
           d=""
           style="stroke:none" />
      </symbol>
      <symbol
         id="symbol3975"
         overflow="visible">
        <path
           id="path3973"
           d="m 3.1875,-4.5 c -1.28125,0 -3.078125,1.546875 -3.078125,3.34375 0,0.671875 0.3125,1.21875 0.875,1.21875 0.59375,0 1.234375,-0.65625 1.453125,-1.03125 -0.015625,0.046875 -0.03125,0.125 -0.046875,0.203125 C 2.375,-0.703125 2.375,-0.625 2.375,-0.578125 c 0,0.4375 0.28125,0.65625 0.625,0.65625 0.53125,0 1.421875,-0.890625 1.59375,-1.203125 0,-0.0625 -0.0625,-0.265625 -0.140625,-0.265625 -0.03125,0.0625 -0.5,0.609375 -0.71875,0.609375 -0.09375,0 -0.140625,-0.125 -0.140625,-0.21875 0,-0.046875 0.03125,-0.28125 0.03125,-0.328125 l 0.640625,-3 C 4.0625,-4.390625 3.546875,-4.5 3.1875,-4.5 Z M 2.625,-3.953125 c 0.140625,0 0.28125,0.046875 0.359375,0.125 l -0.1875,1 c -0.203125,1 -0.71875,2.015625 -1.0625,2.015625 -0.21875,0 -0.359375,-0.234375 -0.359375,-0.71875 0,-1.1875 0.578125,-2.421875 1.25,-2.421875 z m 0,0"
           style="stroke:none" />
      </symbol>
      <symbol
         id="symbol3979"
         overflow="visible">
        <path
           id="path3977"
           d="m 0.359375,0 h 2.90625 V -3.515625 H 0.359375 Z M 0.71875,-0.359375 v -2.78125 h 2.1875 v 2.78125 z m 0,0"
           style="stroke:none" />
      </symbol>
      <symbol
         id="symbol3983"
         overflow="visible">
        <path
           id="path3981"
           d="m 1.578125,-0.828125 c 0,0.21875 0,0.40625 -0.03125,0.53125 -0.03125,0.078125 -0.375,0.109375 -0.453125,0.109375 -0.03125,0.046875 -0.046875,0.171875 0,0.203125 C 1.375,0 1.5625,-0.015625 1.84375,-0.015625 c 0.28125,0 0.5,0.015625 0.796875,0.03125 0.03125,-0.03125 0.03125,-0.15625 0,-0.203125 -0.09375,0 -0.4375,-0.03125 -0.46875,-0.109375 -0.03125,-0.125 -0.03125,-0.3125 -0.03125,-0.53125 V -3.75 c 0,-0.4375 0.0625,-0.6875 0.0625,-0.6875 C 2.1875,-4.46875 2.171875,-4.5625 2.125,-4.5625 H 2.109375 c -0.015625,0 -0.65625,0.3125 -1.234375,0.578125 -0.015625,0.015625 0,0.03125 0,0.046875 0,0.046875 0.03125,0.09375 0.0625,0.125 0.109375,-0.046875 0.390625,-0.140625 0.5,-0.140625 0.109375,0 0.140625,0.0625 0.140625,0.265625 z m 0,0"
           style="stroke:none" />
      </symbol>
    </g>
    <g
       id="g4012">
      <symbol
         id="symbol3998"
         overflow="visible">
        <path
           id="path3996"
           d=""
           style="stroke:none" />
      </symbol>
      <symbol
         id="symbol4002"
         overflow="visible">
        <path
           id="path4000"
           d="m 3.1875,-4.5 c -1.28125,0 -3.078125,1.546875 -3.078125,3.34375 0,0.671875 0.3125,1.21875 0.875,1.21875 0.59375,0 1.234375,-0.65625 1.453125,-1.03125 -0.015625,0.046875 -0.03125,0.125 -0.046875,0.203125 C 2.375,-0.703125 2.375,-0.625 2.375,-0.578125 c 0,0.4375 0.28125,0.65625 0.625,0.65625 0.53125,0 1.421875,-0.890625 1.59375,-1.203125 0,-0.0625 -0.0625,-0.265625 -0.140625,-0.265625 -0.03125,0.0625 -0.5,0.609375 -0.71875,0.609375 -0.09375,0 -0.140625,-0.125 -0.140625,-0.21875 0,-0.046875 0.03125,-0.28125 0.03125,-0.328125 l 0.640625,-3 C 4.0625,-4.390625 3.546875,-4.5 3.1875,-4.5 Z M 2.625,-3.953125 c 0.140625,0 0.28125,0.046875 0.359375,0.125 l -0.1875,1 c -0.203125,1 -0.71875,2.015625 -1.0625,2.015625 -0.21875,0 -0.359375,-0.234375 -0.359375,-0.71875 0,-1.1875 0.578125,-2.421875 1.25,-2.421875 z m 0,0"
           style="stroke:none" />
      </symbol>
      <symbol
         id="symbol4006"
         overflow="visible">
        <path
           id="path4004"
           d="m 0.359375,0 h 2.90625 V -3.515625 H 0.359375 Z M 0.71875,-0.359375 v -2.78125 h 2.1875 v 2.78125 z m 0,0"
           style="stroke:none" />
      </symbol>
      <symbol
         id="symbol4010"
         overflow="visible">
        <path
           id="path4008"
           d="M 3.21875,-1.0625 C 3.1875,-1.078125 3.109375,-1.109375 3.078125,-1.109375 3.03125,-1.109375 3.015625,-1.09375 3,-1.0625 2.84375,-0.6875 2.6875,-0.515625 2.390625,-0.515625 H 0.984375 C 1.3125,-0.875 2.03125,-1.671875 2.53125,-2.296875 2.78125,-2.59375 2.9375,-2.96875 2.9375,-3.375 c 0,-0.59375 -0.546875,-1.1875 -1.21875,-1.1875 -0.75,0 -1.265625,0.796875 -1.3125,0.96875 0,0.03125 0.078125,0.109375 0.140625,0.109375 C 0.625,-3.625 0.984375,-4.09375 1.5625,-4.09375 c 0.4375,0 0.78125,0.375 0.78125,0.859375 0,0.34375 -0.0625,0.640625 -0.34375,1.0625 -0.421875,0.609375 -1.09375,1.40625 -1.6875,2.0625 0,0.03125 0.03125,0.09375 0.0625,0.109375 h 2.453125 c 0.046875,-0.125 0.25,-0.71875 0.390625,-1.0625 z m 0,0"
           style="stroke:none" />
      </symbol>
    </g>
    <g
       style="fill:#00aa00;stroke-width:0"
       id="id-c03a4457-695c-4ab3-9186-d37db2094829">
      <symbol
         style="fill:#00aa00;stroke-width:0"
         overflow="visible"
         id="id-fe899809-2014-4d31-b5ce-ce2323e91550">
        <path
           style="fill:#00aa00;stroke:none;stroke-width:0"
           d=""
           id="id-0a64c3a2-3a73-4371-94ef-5c97c1032f8a" />
      </symbol>
      <symbol
         style="fill:#00aa00;stroke-width:0"
         overflow="visible"
         id="id-426b3cac-b859-48d6-a1c5-66f506cdc1ec">
        <path
           style="fill:#00aa00;stroke:none;stroke-width:0"
           d="m 3.1875,-4.5 c -1.28125,0 -3.078125,1.546875 -3.078125,3.34375 0,0.671875 0.3125,1.21875 0.875,1.21875 0.59375,0 1.234375,-0.65625 1.453125,-1.03125 -0.015625,0.046875 -0.03125,0.125 -0.046875,0.203125 C 2.375,-0.703125 2.375,-0.625 2.375,-0.578125 c 0,0.4375 0.28125,0.65625 0.625,0.65625 0.53125,0 1.421875,-0.890625 1.59375,-1.203125 0,-0.0625 -0.0625,-0.265625 -0.140625,-0.265625 -0.03125,0.0625 -0.5,0.609375 -0.71875,0.609375 -0.09375,0 -0.140625,-0.125 -0.140625,-0.21875 0,-0.046875 0.03125,-0.28125 0.03125,-0.328125 l 0.640625,-3 C 4.0625,-4.390625 3.546875,-4.5 3.1875,-4.5 Z M 2.625,-3.953125 c 0.140625,0 0.28125,0.046875 0.359375,0.125 l -0.1875,1 c -0.203125,1 -0.71875,2.015625 -1.0625,2.015625 -0.21875,0 -0.359375,-0.234375 -0.359375,-0.71875 0,-1.1875 0.578125,-2.421875 1.25,-2.421875 z m 0,0"
           id="id-7d1767f4-6368-48ac-9fea-0edb8abc70c9" />
      </symbol>
      <symbol
         style="fill:#00aa00;stroke-width:0"
         overflow="visible"
         id="id-87a9b1fc-9aa5-47fa-8fae-105af9e14040">
        <path
           style="fill:#00aa00;stroke:none;stroke-width:0"
           d="m 0.359375,0 h 2.90625 V -3.515625 H 0.359375 Z M 0.71875,-0.359375 v -2.78125 h 2.1875 v 2.78125 z m 0,0"
           id="id-e1fd851f-de45-4aa5-9e9e-b4823d676d4f" />
      </symbol>
      <symbol
         style="fill:#00aa00;stroke-width:0"
         overflow="visible"
         id="id-21958528-301a-49f2-bced-bcea6ae4380d">
        <path
           style="fill:#00aa00;stroke:none;stroke-width:0"
           d="m 1.828125,-4.5625 c -0.546875,0 -0.953125,0.375 -1.171875,0.703125 0,0.0625 0.046875,0.140625 0.078125,0.140625 0.078125,-0.046875 0.34375,-0.453125 0.796875,-0.453125 0.40625,0 0.703125,0.28125 0.703125,0.65625 0,0.609375 -0.546875,0.921875 -1.109375,1.046875 -0.015625,0.015625 -0.015625,0.046875 -0.015625,0.078125 0,0.046875 0.015625,0.09375 0.046875,0.125 C 1.25,-2.28125 1.421875,-2.34375 1.578125,-2.34375 c 0.46875,0 0.90625,0.421875 0.90625,1 0,0.8125 -0.453125,1.09375 -0.828125,1.09375 -0.203125,0 -0.390625,-0.046875 -0.53125,-0.171875 -0.109375,-0.125 -0.203125,-0.3125 -0.40625,-0.3125 -0.140625,0 -0.296875,0.125 -0.296875,0.328125 0,0.125 0.109375,0.25 0.15625,0.28125 0.21875,0.109375 0.53125,0.15625 0.71875,0.15625 0.875,0 1.796875,-0.609375 1.796875,-1.578125 C 3.09375,-2.25 2.515625,-2.625 2.109375,-2.6875 c 0.25,-0.15625 0.65625,-0.5 0.65625,-0.953125 0,-0.59375 -0.578125,-0.921875 -0.9375,-0.921875 z m 0,0"
           id="id-83a44a5c-65b4-441c-8537-6d38b1a059c2" />
      </symbol>
    </g>
    <g
       style="fill:#d4aa00;stroke-width:0"
       id="id-9d644290-b013-4426-b315-4916ecc3231b">
      <symbol
         style="fill:#d4aa00;stroke-width:0"
         overflow="visible"
         id="id-6c185d56-6c42-476c-b984-7d6004668fb7">
        <path
           style="fill:#d4aa00;stroke:none;stroke-width:0"
           d=""
           id="id-4f6b6327-359b-477c-8e9f-cfc796e5e027" />
      </symbol>
      <symbol
         style="fill:#d4aa00;stroke-width:0"
         overflow="visible"
         id="id-0d636687-0275-4a23-8fa1-f89fbd703f86">
        <path
           style="fill:#d4aa00;stroke:none;stroke-width:0"
           d="m 3.1875,-4.5 c -1.28125,0 -3.078125,1.546875 -3.078125,3.34375 0,0.671875 0.3125,1.21875 0.875,1.21875 0.59375,0 1.234375,-0.65625 1.453125,-1.03125 -0.015625,0.046875 -0.03125,0.125 -0.046875,0.203125 C 2.375,-0.703125 2.375,-0.625 2.375,-0.578125 c 0,0.4375 0.28125,0.65625 0.625,0.65625 0.53125,0 1.421875,-0.890625 1.59375,-1.203125 0,-0.0625 -0.0625,-0.265625 -0.140625,-0.265625 -0.03125,0.0625 -0.5,0.609375 -0.71875,0.609375 -0.09375,0 -0.140625,-0.125 -0.140625,-0.21875 0,-0.046875 0.03125,-0.28125 0.03125,-0.328125 l 0.640625,-3 C 4.0625,-4.390625 3.546875,-4.5 3.1875,-4.5 Z M 2.625,-3.953125 c 0.140625,0 0.28125,0.046875 0.359375,0.125 l -0.1875,1 c -0.203125,1 -0.71875,2.015625 -1.0625,2.015625 -0.21875,0 -0.359375,-0.234375 -0.359375,-0.71875 0,-1.1875 0.578125,-2.421875 1.25,-2.421875 z m 0,0"
           id="id-0ae334ce-a658-4444-abb6-a09ea4a60693" />
      </symbol>
      <symbol
         style="fill:#d4aa00;stroke-width:0"
         overflow="visible"
         id="id-57b3cb31-97ad-49fe-9efe-7846ba71dea0">
        <path
           style="fill:#d4aa00;stroke:none;stroke-width:0"
           d="m 0.359375,0 h 2.90625 V -3.515625 H 0.359375 Z M 0.71875,-0.359375 v -2.78125 h 2.1875 v 2.78125 z m 0,0"
           id="id-68419c3d-b9d6-44c9-a13e-d9f4a35e80b1" />
      </symbol>
      <symbol
         style="fill:#d4aa00;stroke-width:0"
         overflow="visible"
         id="id-1914e5d3-c723-434a-917d-8da6751703ae">
        <path
           style="fill:#d4aa00;stroke:none;stroke-width:0"
           d="m 2.71875,-4.5625 c -0.0625,0 -0.171875,0.109375 -0.21875,0.171875 l -2.3125,3.03125 c 0,0.03125 0.015625,0.09375 0.078125,0.125 h 2 v 1.21875 c 0,0.046875 0.078125,0.0625 0.25,0.0625 C 2.796875,0.046875 2.8125,0 2.8125,0 v -1.234375 h 0.5 C 3.328125,-1.25 3.328125,-1.28125 3.328125,-1.34375 3.328125,-1.5 3.28125,-1.640625 3.234375,-1.640625 H 2.8125 V -4.4375 c 0,-0.0625 -0.015625,-0.125 -0.09375,-0.125 z m -0.453125,0.84375 v 2.078125 h -1.59375 z m 0,0"
           id="id-d9329f16-5ff7-47d7-9737-6c191e0d3715" />
      </symbol>
    </g>
    <g
       style="fill:#808080;stroke-width:0"
       id="id-8f1f9d62-078b-4387-b0a6-fbe23722aefa">
      <symbol
         style="fill:#808080;stroke-width:0"
         overflow="visible"
         id="id-7f2aa2b1-0e1c-4144-87da-f484a2a8babc">
        <path
           style="fill:#808080;stroke:none;stroke-width:0"
           d=""
           id="id-21d4cf4f-e6f0-483f-9a00-36105a324af4" />
      </symbol>
      <symbol
         style="fill:#808080;stroke-width:0"
         overflow="visible"
         id="id-0b601272-029a-46f1-bfd0-486369389bc9">
        <path
           style="fill:#808080;stroke:none;stroke-width:0"
           d="m 3.1875,-4.5 c -1.28125,0 -3.078125,1.546875 -3.078125,3.34375 0,0.671875 0.3125,1.21875 0.875,1.21875 0.59375,0 1.234375,-0.65625 1.453125,-1.03125 -0.015625,0.046875 -0.03125,0.125 -0.046875,0.203125 C 2.375,-0.703125 2.375,-0.625 2.375,-0.578125 c 0,0.4375 0.28125,0.65625 0.625,0.65625 0.53125,0 1.421875,-0.890625 1.59375,-1.203125 0,-0.0625 -0.0625,-0.265625 -0.140625,-0.265625 -0.03125,0.0625 -0.5,0.609375 -0.71875,0.609375 -0.09375,0 -0.140625,-0.125 -0.140625,-0.21875 0,-0.046875 0.03125,-0.28125 0.03125,-0.328125 l 0.640625,-3 C 4.0625,-4.390625 3.546875,-4.5 3.1875,-4.5 Z M 2.625,-3.953125 c 0.140625,0 0.28125,0.046875 0.359375,0.125 l -0.1875,1 c -0.203125,1 -0.71875,2.015625 -1.0625,2.015625 -0.21875,0 -0.359375,-0.234375 -0.359375,-0.71875 0,-1.1875 0.578125,-2.421875 1.25,-2.421875 z m 0,0"
           id="id-e679223d-e6c5-4d9c-9824-7e633db580b3" />
      </symbol>
      <symbol
         style="fill:#808080;stroke-width:0"
         overflow="visible"
         id="id-4002276c-b843-408e-9f4c-344f0c59c08f">
        <path
           style="fill:#808080;stroke:none;stroke-width:0"
           d="m 0.359375,0 h 2.90625 V -3.515625 H 0.359375 Z M 0.71875,-0.359375 v -2.78125 h 2.1875 v 2.78125 z m 0,0"
           id="id-b51c5d29-c091-4695-953e-74dc25154152" />
      </symbol>
      <symbol
         style="fill:#808080;stroke-width:0"
         overflow="visible"
         id="id-1a621824-3bbd-4133-b4aa-a7b840ccc630">
        <path
           style="fill:#808080;stroke:none;stroke-width:0"
           d="m 1.765625,-2.796875 c -0.1875,0 -0.5625,0.046875 -0.75,0.125 0.078125,-0.390625 0.15625,-0.84375 0.25,-1.265625 h 0.59375 c 0.375,0 0.625,-0.03125 0.828125,-0.046875 0.125,-0.15625 0.21875,-0.46875 0.21875,-0.5 0,-0.046875 -0.046875,-0.0625 -0.09375,-0.078125 0,0 -0.359375,0.0625 -0.65625,0.0625 H 1.109375 c -0.078125,0.4375 -0.265625,1.3125 -0.40625,2.109375 0,0.046875 0.015625,0.09375 0.046875,0.09375 0.125,-0.0625 0.453125,-0.109375 0.59375,-0.109375 0.828125,0 1.140625,0.609375 1.140625,1.0625 0,0.8125 -0.453125,1.09375 -0.828125,1.09375 -0.203125,0 -0.390625,-0.046875 -0.53125,-0.171875 -0.109375,-0.125 -0.203125,-0.3125 -0.40625,-0.3125 -0.140625,0 -0.296875,0.125 -0.296875,0.328125 0,0.125 0.109375,0.25 0.15625,0.28125 0.21875,0.109375 0.53125,0.15625 0.71875,0.15625 0.875,0 1.796875,-0.609375 1.796875,-1.578125 0,-0.609375 -0.5,-1.25 -1.328125,-1.25 z m 0,0"
           id="id-b993264f-44b5-47b1-832a-185330e25959" />
      </symbol>
    </g>
    <g
       style="fill:#ff0000;stroke-width:0"
       id="id-034b6f46-7eaa-455f-bdc0-55729a4f8479-3">
      <symbol
         style="fill:#ff0000;stroke-width:0"
         overflow="visible"
         id="id-07f78a41-1e85-44a4-82d8-8c7c6a7a1095-7">
        <path
           style="fill:#ff0000;stroke:none;stroke-width:0"
           d=""
           id="id-d825f623-8334-46f1-9352-aefa437c14dd-6" />
      </symbol>
      <symbol
         style="fill:#ff0000;stroke-width:0"
         overflow="visible"
         id="id-72a75f5f-0546-4d0b-addd-a79916b35ecc-2">
        <path
           style="fill:#ff0000;stroke:none;stroke-width:0"
           d="m 2.8125,-3.625 c 0.234375,0 0.28125,0.34375 0.28125,0.59375 0,0.96875 -0.625,2.640625 -1.265625,2.640625 -0.359375,0 -0.359375,-0.71875 -0.25,-1.28125 C 1.75,-2.5625 2.359375,-3.625 2.8125,-3.625 Z M 1.90625,-3.375 2.4375,-6.046875 C 2.5,-6.28125 2.578125,-6.703125 2.578125,-6.78125 c 0,-0.0625 0,-0.171875 -0.0625,-0.203125 -0.21875,0.09375 -1.265625,0.296875 -1.8125,0.34375 -0.03125,0.046875 -0.0625,0.265625 -0.03125,0.296875 0.15625,0 0.609375,0 0.609375,0.1875 0,0.109375 -0.046875,0.359375 -0.078125,0.546875 L 0.40625,-1.625 c -0.03125,0.140625 -0.0625,0.421875 -0.0625,0.5625 0,0.6875 0.546875,1.125 1.171875,1.125 1.140625,0 2.875,-1.5625 2.875,-3.4375 0,-0.734375 -0.359375,-1.125 -0.921875,-1.125 -0.484375,0 -1.28125,0.703125 -1.5625,1.125 z m 0,0"
           id="id-bc9f470f-4b19-4405-8778-49b0590dd037-3" />
      </symbol>
    </g>
  </defs>
  <sodipodi:namedview
     fit-margin-bottom="0"
     fit-margin-right="0"
     fit-margin-left="0"
     fit-margin-top="0"
     inkscape:window-maximized="1"
     inkscape:window-y="-8"
     inkscape:window-x="-8"
     inkscape:window-height="837"
     inkscape:window-width="1600"
     showgrid="false"
     inkscape:document-rotation="0"
     inkscape:current-layer="layer1"
     inkscape:document-units="mm"
     inkscape:cy="34.167399"
     inkscape:cx="62.004756"
     inkscape:zoom="2.8"
     inkscape:pageshadow="2"
     inkscape:pageopacity="0.0"
     borderopacity="1.0"
     bordercolor="#666666"
     pagecolor="#ffffff"
     id="base" />
  <metadata
     id="metadata6876">
    <rdf:RDF>
      <cc:Work
         rdf:about="">
        <dc:format>image/svg+xml</dc:format>
        <dc:type
           rdf:resource="http://purl.org/dc/dcmitype/StillImage" />
        <dc:title></dc:title>
      </cc:Work>
    </rdf:RDF>
  </metadata>
  <g
     transform="translate(-32.486785,-108.40949)"
     id="layer1"
     inkscape:groupmode="layer"
     inkscape:label="Layer 1">
    <path
       id="path984"
       d="m 47.030894,130.84356 27.086617,-16.8593"
       style="fill:none;stroke:#3d677b;stroke-width:0.529167;stroke-linecap:butt;stroke-linejoin:miter;stroke-miterlimit:4;stroke-dasharray:none;stroke-opacity:1;marker-end:url(#marker26663)"
       sodipodi:nodetypes="cc" />
    <path
       id="path986"
       d="M 47.030894,130.84356 33.82178,114.48005"
       style="fill:none;stroke:#c28f48;stroke-width:0.521697;stroke-linecap:butt;stroke-linejoin:miter;stroke-miterlimit:4;stroke-dasharray:none;stroke-opacity:1;marker-end:url(#marker26727)"
       sodipodi:nodetypes="cc" />
    <path
       id="path1684"
       d="m 33.140988,113.49 40.817504,-0.0659"
       style="fill:none;stroke:#9a4832;stroke-width:0.529;stroke-linecap:butt;stroke-linejoin:miter;stroke-miterlimit:4;stroke-dasharray:none;stroke-opacity:1;marker-end:url(#Arrow1Send)"
       sodipodi:nodetypes="cc" />
    <path
       style="fill:none;stroke:#a6a7a3;stroke-width:0.524678;stroke-linecap:butt;stroke-linejoin:miter;stroke-miterlimit:4;stroke-dasharray:1.57403401, 0.52467799999999998;stroke-dashoffset:0;stroke-opacity:1;marker-end:url(#marker26797)"
       d="m 36.101493,111.5888 13.50797,16.16434"
       id="path986-9" />
    <g
       id="g24619"
       style="fill:#9a4832;stroke-width:0"
       ns1:jacobian_sqrt="0.458611"
       ns1:inkscapeversion="1.0"
       ns1:alignment="middle center"
       ns1:scale="1.3"
       ns1:preamble="C:\\Users\\flvisa\\Desktop\\lna\\latexify_books\\textext_preamble.tex"
       ns1:text="$\\boldsymbol{c}=\\boldsymbol{a}-\\boldsymbol{b}$"
       ns1:pdfconverter="inkscape"
       ns1:texconverter="pdflatex"
       ns1:version="1.1.0"
       transform="matrix(0.458611,0,0,0.458611,55.806068,108.40966)">
      <defs
         id="id-8ba7cecd-98d3-469a-b1ba-44c3135d90c5">
        <g
           style="fill:#0066ff;stroke-width:0"
           id="id-aa9410a9-8460-4a0d-b4ad-16438d55bbf1">
          <symbol
             style="fill:#0066ff;stroke-width:0"
             overflow="visible"
             id="id-ebf394f7-7cab-4c3b-8dc6-66c94047d1ff">
            <path
               style="fill:#0066ff;stroke:none;stroke-width:0"
               d=""
               id="id-ba03d16f-358d-4c73-a828-7cb13cfac99d" />
          </symbol>
          <symbol
             style="fill:#0066ff;stroke-width:0"
             overflow="visible"
             id="id-3abffb55-aec4-4b03-9e3b-11eb48cf4cdc">
            <path
               style="fill:#0066ff;stroke:none;stroke-width:0"
               d="m 2.671875,-4.5 c -1.203125,0 -2.515625,1.625 -2.515625,3.1875 0,0.9375 0.609375,1.375 1.203125,1.375 0.75,0 1.65625,-0.984375 1.8125,-1.203125 0,-0.0625 -0.046875,-0.265625 -0.125,-0.265625 -0.03125,0.03125 -0.5625,0.640625 -1.015625,0.640625 -0.390625,0 -0.609375,-0.265625 -0.609375,-0.9375 C 1.421875,-2.765625 1.8125,-4 2.1875,-4 c 0.21875,0 0.359375,0.296875 0.4375,0.46875 0.109375,0.1875 0.265625,0.359375 0.515625,0.359375 0.296875,0 0.5625,-0.3125 0.5625,-0.609375 0,-0.21875 -0.09375,-0.421875 -0.15625,-0.5 C 3.421875,-4.390625 3.078125,-4.5 2.671875,-4.5 Z m 0,0"
               id="id-1ae40f48-630c-4578-a247-a4936c473640" />
          </symbol>
          <symbol
             style="fill:#0066ff;stroke-width:0"
             overflow="visible"
             id="id-f875f020-431f-4a1d-b1ce-9230133c2eaf">
            <path
               style="fill:#0066ff;stroke:none;stroke-width:0"
               d="m 3.1875,-4.5 c -1.28125,0 -3.078125,1.546875 -3.078125,3.34375 0,0.671875 0.3125,1.21875 0.875,1.21875 0.59375,0 1.234375,-0.65625 1.453125,-1.03125 -0.015625,0.046875 -0.03125,0.125 -0.046875,0.203125 C 2.375,-0.703125 2.375,-0.625 2.375,-0.578125 c 0,0.4375 0.28125,0.65625 0.625,0.65625 0.53125,0 1.421875,-0.890625 1.59375,-1.203125 0,-0.0625 -0.0625,-0.265625 -0.140625,-0.265625 -0.03125,0.0625 -0.5,0.609375 -0.71875,0.609375 -0.09375,0 -0.140625,-0.125 -0.140625,-0.21875 0,-0.046875 0.03125,-0.28125 0.03125,-0.328125 l 0.640625,-3 C 4.0625,-4.390625 3.546875,-4.5 3.1875,-4.5 Z M 2.625,-3.953125 c 0.140625,0 0.28125,0.046875 0.359375,0.125 l -0.1875,1 c -0.203125,1 -0.71875,2.015625 -1.0625,2.015625 -0.21875,0 -0.359375,-0.234375 -0.359375,-0.71875 0,-1.1875 0.578125,-2.421875 1.25,-2.421875 z m 0,0"
               id="id-138bb748-0698-4329-820a-706ad3f56d0a" />
          </symbol>
          <symbol
             style="fill:#0066ff;stroke-width:0"
             overflow="visible"
             id="id-ac3c3f93-5cb8-44e4-9514-d2b00be9ee25">
            <path
               style="fill:#0066ff;stroke:none;stroke-width:0"
               d="m 2.8125,-3.625 c 0.234375,0 0.28125,0.34375 0.28125,0.59375 0,0.96875 -0.625,2.640625 -1.265625,2.640625 -0.359375,0 -0.359375,-0.71875 -0.25,-1.28125 C 1.75,-2.5625 2.359375,-3.625 2.8125,-3.625 Z M 1.90625,-3.375 2.4375,-6.046875 C 2.5,-6.28125 2.578125,-6.703125 2.578125,-6.78125 c 0,-0.0625 0,-0.171875 -0.0625,-0.203125 -0.21875,0.09375 -1.265625,0.296875 -1.8125,0.34375 -0.03125,0.046875 -0.0625,0.265625 -0.03125,0.296875 0.15625,0 0.609375,0 0.609375,0.1875 0,0.109375 -0.046875,0.359375 -0.078125,0.546875 L 0.40625,-1.625 c -0.03125,0.140625 -0.0625,0.421875 -0.0625,0.5625 0,0.6875 0.546875,1.125 1.171875,1.125 1.140625,0 2.875,-1.5625 2.875,-3.4375 0,-0.734375 -0.359375,-1.125 -0.921875,-1.125 -0.484375,0 -1.28125,0.703125 -1.5625,1.125 z m 0,0"
               id="id-81abdeb4-0d29-475c-ac35-fa123de718ac" />
          </symbol>
          <symbol
             style="fill:#0066ff;stroke-width:0"
             overflow="visible"
             id="id-86842aa2-f3e6-40ad-bafa-bbac685b7062">
            <path
               style="fill:#0066ff;stroke:none;stroke-width:0"
               d=""
               id="id-cddad2aa-50bc-4d97-bcac-7cf7728d28a5" />
          </symbol>
          <symbol
             style="fill:#0066ff;stroke-width:0"
             overflow="visible"
             id="id-7fcee6e7-1ac0-4f43-af9b-8563a04afbb9">
            <path
               style="fill:#0066ff;stroke:none;stroke-width:0"
               d="M 5.5,-3.296875 V -3.84375 H 0.40625 v 0.546875 z m 0,2.03125 v -0.5625 H 0.40625 v 0.5625 z m 0,0"
               id="id-9c0510e9-fb23-4747-be2f-11b9b86ec73c" />
          </symbol>
          <symbol
             style="fill:#0066ff;stroke-width:0"
             overflow="visible"
             id="id-4fec05c9-3976-4fc9-a535-79f54c1c7c2e">
            <path
               style="fill:#0066ff;stroke:none;stroke-width:0"
               d=""
               id="id-22b90c04-9988-4cfb-be82-05b951d15f4b" />
          </symbol>
          <symbol
             style="fill:#0066ff;stroke-width:0"
             overflow="visible"
             id="id-6ca0846d-7a26-4769-b361-de44943301b8">
            <path
               style="fill:#0066ff;stroke:none;stroke-width:0"
               d="m 5.71875,-2.28125 v -0.5625 H 0.625 v 0.5625 z m 0,0"
               id="id-b5b39fc1-b70d-44c9-bee9-794edbc9e64b" />
          </symbol>
        </g>
      </defs>
      <g
         style="fill:#9a4832;stroke-width:0"
         id="id-20191b31-c4e7-484d-bb15-e2db1c265d57"
         transform="translate(-149.068,-127.781)">
        <g
           style="fill:#9a4832;fill-opacity:1;stroke-width:0"
           id="id-e6539c45-c1b9-433b-b089-497c18ef9ede">
          <g
             id="g24599"
             style="fill:#9a4832;stroke-width:0"
             transform="translate(148.912,134.765)">
            <path
               style="fill:#9a4832;stroke:none;stroke-width:0"
               d="m 2.671875,-4.5 c -1.203125,0 -2.515625,1.625 -2.515625,3.1875 0,0.9375 0.609375,1.375 1.203125,1.375 0.75,0 1.65625,-0.984375 1.8125,-1.203125 0,-0.0625 -0.046875,-0.265625 -0.125,-0.265625 -0.03125,0.03125 -0.5625,0.640625 -1.015625,0.640625 -0.390625,0 -0.609375,-0.265625 -0.609375,-0.9375 C 1.421875,-2.765625 1.8125,-4 2.1875,-4 c 0.21875,0 0.359375,0.296875 0.4375,0.46875 0.109375,0.1875 0.265625,0.359375 0.515625,0.359375 0.296875,0 0.5625,-0.3125 0.5625,-0.609375 0,-0.21875 -0.09375,-0.421875 -0.15625,-0.5 C 3.421875,-4.390625 3.078125,-4.5 2.671875,-4.5 Z m 0,0"
               id="id-8531febe-675e-4a85-9bd8-62b7c3978860" />
          </g>
        </g>
        <g
           style="fill:#9a4832;fill-opacity:1;stroke-width:0"
           id="id-dba4886a-edff-480f-bc24-b53c977953d3">
          <g
             id="g24603"
             style="fill:#9a4832;stroke-width:0"
             transform="translate(155.649,134.765)">
            <path
               style="fill:#9a4832;stroke:none;stroke-width:0"
               d="M 5.5,-3.296875 V -3.84375 H 0.40625 v 0.546875 z m 0,2.03125 v -0.5625 H 0.40625 v 0.5625 z m 0,0"
               id="id-022f58f5-4f8a-434f-bfb6-c6580f2d8d1a" />
          </g>
        </g>
        <g
           style="fill:#9a4832;fill-opacity:1;stroke-width:0"
           id="id-ea6967d8-9b87-4b72-a212-3812e8c626af">
          <g
             id="g24607"
             style="fill:#9a4832;stroke-width:0"
             transform="translate(164.513,134.765)">
            <path
               style="fill:#9a4832;stroke:none;stroke-width:0"
               d="m 3.1875,-4.5 c -1.28125,0 -3.078125,1.546875 -3.078125,3.34375 0,0.671875 0.3125,1.21875 0.875,1.21875 0.59375,0 1.234375,-0.65625 1.453125,-1.03125 -0.015625,0.046875 -0.03125,0.125 -0.046875,0.203125 C 2.375,-0.703125 2.375,-0.625 2.375,-0.578125 c 0,0.4375 0.28125,0.65625 0.625,0.65625 0.53125,0 1.421875,-0.890625 1.59375,-1.203125 0,-0.0625 -0.0625,-0.265625 -0.140625,-0.265625 -0.03125,0.0625 -0.5,0.609375 -0.71875,0.609375 -0.09375,0 -0.140625,-0.125 -0.140625,-0.21875 0,-0.046875 0.03125,-0.28125 0.03125,-0.328125 l 0.640625,-3 C 4.0625,-4.390625 3.546875,-4.5 3.1875,-4.5 Z M 2.625,-3.953125 c 0.140625,0 0.28125,0.046875 0.359375,0.125 l -0.1875,1 c -0.203125,1 -0.71875,2.015625 -1.0625,2.015625 -0.21875,0 -0.359375,-0.234375 -0.359375,-0.71875 0,-1.1875 0.578125,-2.421875 1.25,-2.421875 z m 0,0"
               id="id-09a56619-a1d2-463a-83bb-e55af1cd1b46" />
          </g>
        </g>
        <g
           style="fill:#9a4832;fill-opacity:1;stroke-width:0"
           id="id-572f41b0-1e71-4399-ae18-728d2bdcd005">
          <g
             id="g24611"
             style="fill:#9a4832;stroke-width:0"
             transform="translate(171.609,134.765)">
            <path
               style="fill:#9a4832;stroke:none;stroke-width:0"
               d="m 5.71875,-2.28125 v -0.5625 H 0.625 v 0.5625 z m 0,0"
               id="id-4a01bcbf-9b97-4f6e-b5ea-bd3d4568b1a7" />
          </g>
        </g>
        <g
           style="fill:#9a4832;fill-opacity:1;stroke-width:0"
           id="id-a7149308-b98b-4e69-9369-0f7fda275a83">
          <g
             id="g24615"
             style="fill:#9a4832;stroke-width:0"
             transform="translate(180.259,134.765)">
            <path
               style="fill:#9a4832;stroke:none;stroke-width:0"
               d="m 2.8125,-3.625 c 0.234375,0 0.28125,0.34375 0.28125,0.59375 0,0.96875 -0.625,2.640625 -1.265625,2.640625 -0.359375,0 -0.359375,-0.71875 -0.25,-1.28125 C 1.75,-2.5625 2.359375,-3.625 2.8125,-3.625 Z M 1.90625,-3.375 2.4375,-6.046875 C 2.5,-6.28125 2.578125,-6.703125 2.578125,-6.78125 c 0,-0.0625 0,-0.171875 -0.0625,-0.203125 -0.21875,0.09375 -1.265625,0.296875 -1.8125,0.34375 -0.03125,0.046875 -0.0625,0.265625 -0.03125,0.296875 0.15625,0 0.609375,0 0.609375,0.1875 0,0.109375 -0.046875,0.359375 -0.078125,0.546875 L 0.40625,-1.625 c -0.03125,0.140625 -0.0625,0.421875 -0.0625,0.5625 0,0.6875 0.546875,1.125 1.171875,1.125 1.140625,0 2.875,-1.5625 2.875,-3.4375 0,-0.734375 -0.359375,-1.125 -0.921875,-1.125 -0.484375,0 -1.28125,0.703125 -1.5625,1.125 z m 0,0"
               id="id-4e753d35-ee74-4395-ae47-88441b2ea0b9" />
          </g>
        </g>
      </g>
    </g>
    <g
       style="fill:#3d677b"
       id="g24809"
       ns1:jacobian_sqrt="0.458611"
       ns1:inkscapeversion="1.0"
       ns1:alignment="middle center"
       ns1:scale="1.3"
       ns1:preamble="C:\\Users\\flvisa\\Desktop\\lna\\latexify_books\\textext_preamble.tex"
       ns1:text="$\\boldsymbol{a}$"
       ns1:pdfconverter="inkscape"
       ns1:texconverter="pdflatex"
       ns1:version="1.1.0"
       transform="matrix(0.458611,0,0,0.458611,72.067867,117.10983)">
      <defs
         id="id-2fa6ef41-01f7-49e7-88ad-f3ad170993d4">
        <g
           id="id-4bec60d7-a695-443f-b781-6653fe6c8161">
          <symbol
             overflow="visible"
             id="id-bef0cc1a-b34e-4a5b-9c50-e29d68304192">
            <path
               style="stroke:none"
               d=""
               id="id-c0c236a5-c993-410d-87ed-5e78439eeafe" />
          </symbol>
          <symbol
             overflow="visible"
             id="id-f279d483-15bd-47da-85a9-a05f278a5804">
            <path
               style="stroke:none"
               d="m 3.1875,-4.5 c -1.28125,0 -3.078125,1.546875 -3.078125,3.34375 0,0.671875 0.3125,1.21875 0.875,1.21875 0.59375,0 1.234375,-0.65625 1.453125,-1.03125 -0.015625,0.046875 -0.03125,0.125 -0.046875,0.203125 C 2.375,-0.703125 2.375,-0.625 2.375,-0.578125 c 0,0.4375 0.28125,0.65625 0.625,0.65625 0.53125,0 1.421875,-0.890625 1.59375,-1.203125 0,-0.0625 -0.0625,-0.265625 -0.140625,-0.265625 -0.03125,0.0625 -0.5,0.609375 -0.71875,0.609375 -0.09375,0 -0.140625,-0.125 -0.140625,-0.21875 0,-0.046875 0.03125,-0.28125 0.03125,-0.328125 l 0.640625,-3 C 4.0625,-4.390625 3.546875,-4.5 3.1875,-4.5 Z M 2.625,-3.953125 c 0.140625,0 0.28125,0.046875 0.359375,0.125 l -0.1875,1 c -0.203125,1 -0.71875,2.015625 -1.0625,2.015625 -0.21875,0 -0.359375,-0.234375 -0.359375,-0.71875 0,-1.1875 0.578125,-2.421875 1.25,-2.421875 z m 0,0"
               id="id-c8bebaa3-fb66-4043-a6c6-dd6b0329a923" />
          </symbol>
        </g>
      </defs>
      <g
         style="fill:#3d677b"
         id="id-de11e362-a835-46f2-9138-d929a962869b"
         transform="translate(-149.021,-130.265)">
        <g
           style="fill:#3d677b;fill-opacity:1"
           id="id-b214f89c-4b57-4622-b689-a1b3a57a3480">
          <g
             style="fill:#3d677b"
             id="g24805"
             transform="translate(148.912,134.765)">
            <path
               style="stroke:none;fill:#3d677b"
               d="m 3.1875,-4.5 c -1.28125,0 -3.078125,1.546875 -3.078125,3.34375 0,0.671875 0.3125,1.21875 0.875,1.21875 0.59375,0 1.234375,-0.65625 1.453125,-1.03125 -0.015625,0.046875 -0.03125,0.125 -0.046875,0.203125 C 2.375,-0.703125 2.375,-0.625 2.375,-0.578125 c 0,0.4375 0.28125,0.65625 0.625,0.65625 0.53125,0 1.421875,-0.890625 1.59375,-1.203125 0,-0.0625 -0.0625,-0.265625 -0.140625,-0.265625 -0.03125,0.0625 -0.5,0.609375 -0.71875,0.609375 -0.09375,0 -0.140625,-0.125 -0.140625,-0.21875 0,-0.046875 0.03125,-0.28125 0.03125,-0.328125 l 0.640625,-3 C 4.0625,-4.390625 3.546875,-4.5 3.1875,-4.5 Z M 2.625,-3.953125 c 0.140625,0 0.28125,0.046875 0.359375,0.125 l -0.1875,1 c -0.203125,1 -0.71875,2.015625 -1.0625,2.015625 -0.21875,0 -0.359375,-0.234375 -0.359375,-0.71875 0,-1.1875 0.578125,-2.421875 1.25,-2.421875 z m 0,0"
               id="id-d9350058-6606-4d92-94a2-d9bc79935cb2" />
          </g>
        </g>
      </g>
    </g>
    <g
       id="g24978"
       style="fill:#a6a7a3;stroke:none;stroke-width:0"
       ns1:jacobian_sqrt="0.458611"
       ns1:inkscapeversion="1.0"
       ns1:alignment="middle center"
       ns1:scale="1.3"
       ns1:preamble="C:\\Users\\flvisa\\Desktop\\lna\\latexify_books\\textext_preamble.tex"
       ns1:text="$(-\\boldsymbol{b})$"
       ns1:pdfconverter="inkscape"
       ns1:texconverter="pdflatex"
       ns1:version="1.1.0"
       transform="matrix(0.458611,0,0,0.458611,47.089121,119.40152)">
      <defs
         id="id-3d11f1b4-14e0-4ed8-9f82-4871c3bc2f3f">
        <g
           style="fill:#999999;stroke:#999999;stroke-width:0"
           id="id-912474fd-4c54-4241-8342-7b90a0d97be8">
          <symbol
             style="fill:#999999;stroke:#999999;stroke-width:0"
             overflow="visible"
             id="id-543e3281-bec5-42e8-bc2f-648c91b8b14e">
            <path
               style="fill:#999999;stroke:#999999;stroke-width:0"
               d=""
               id="id-cd3000d8-49c5-4707-af85-d1096aac16a9" />
          </symbol>
          <symbol
             style="fill:#999999;stroke:#999999;stroke-width:0"
             overflow="visible"
             id="id-1730c835-9b6f-4252-a70e-a8a5782f40bf">
            <path
               style="fill:#999999;stroke:#999999;stroke-width:0"
               d="M 2.9375,-7.140625 C 1.5,-6.203125 0.484375,-4.59375 0.484375,-2.5625 c 0,1.859375 1.046875,3.734375 2.421875,4.578125 l 0.125,-0.15625 C 1.71875,0.8125 1.328125,-0.390625 1.328125,-2.59375 1.328125,-4.8125 1.75,-5.953125 3.03125,-6.984375 Z m 0,0"
               id="id-0921d3dd-06d8-49d4-b15b-bc0c61ee5373" />
          </symbol>
          <symbol
             style="fill:#999999;stroke:#999999;stroke-width:0"
             overflow="visible"
             id="id-a25284b1-a5eb-43f1-ba80-8f26f57f8fb2">
            <path
               style="fill:#999999;stroke:#999999;stroke-width:0"
               d="m 5.71875,-2.28125 v -0.5625 H 0.625 v 0.5625 z m 0,0"
               id="id-8a4b7aac-8f14-44b9-9f70-9320cf0baf01" />
          </symbol>
          <symbol
             style="fill:#999999;stroke:#999999;stroke-width:0"
             overflow="visible"
             id="id-fea6b006-9d18-4956-ab9e-dcdd5a2cce7a">
            <path
               style="fill:#999999;stroke:#999999;stroke-width:0"
               d="m 0.375,-7.140625 -0.078125,0.15625 c 1.28125,1.03125 1.6875,2.171875 1.6875,4.390625 0,2.203125 -0.375,3.40625 -1.6875,4.453125 l 0.109375,0.15625 c 1.375,-0.84375 2.4375,-2.71875 2.4375,-4.578125 0,-2.03125 -1.015625,-3.640625 -2.46875,-4.578125 z m 0,0"
               id="id-9176938a-ee52-4830-9850-456ff0ca2e95" />
          </symbol>
          <symbol
             style="fill:#999999;stroke:#999999;stroke-width:0"
             overflow="visible"
             id="id-a2921ed5-c9da-4a1f-9f2b-b8514828e9be">
            <path
               style="fill:#999999;stroke:#999999;stroke-width:0"
               d=""
               id="id-4f884e01-cf37-4f3d-a204-4cbb92cee7d3" />
          </symbol>
          <symbol
             style="fill:#999999;stroke:#999999;stroke-width:0"
             overflow="visible"
             id="id-4821fbe9-0f45-4622-ab06-de1959e5f10e">
            <path
               style="fill:#999999;stroke:#999999;stroke-width:0"
               d="m 2.8125,-3.625 c 0.234375,0 0.28125,0.34375 0.28125,0.59375 0,0.96875 -0.625,2.640625 -1.265625,2.640625 -0.359375,0 -0.359375,-0.71875 -0.25,-1.28125 C 1.75,-2.5625 2.359375,-3.625 2.8125,-3.625 Z M 1.90625,-3.375 2.4375,-6.046875 C 2.5,-6.28125 2.578125,-6.703125 2.578125,-6.78125 c 0,-0.0625 0,-0.171875 -0.0625,-0.203125 -0.21875,0.09375 -1.265625,0.296875 -1.8125,0.34375 -0.03125,0.046875 -0.0625,0.265625 -0.03125,0.296875 0.15625,0 0.609375,0 0.609375,0.1875 0,0.109375 -0.046875,0.359375 -0.078125,0.546875 L 0.40625,-1.625 c -0.03125,0.140625 -0.0625,0.421875 -0.0625,0.5625 0,0.6875 0.546875,1.125 1.171875,1.125 1.140625,0 2.875,-1.5625 2.875,-3.4375 0,-0.734375 -0.359375,-1.125 -0.921875,-1.125 -0.484375,0 -1.28125,0.703125 -1.5625,1.125 z m 0,0"
               id="id-44c4bf6d-9ae8-4cf8-acc6-7ece9ddb338d" />
          </symbol>
        </g>
      </defs>
      <g
         style="fill:#a6a7a3;stroke:none;stroke-width:0"
         id="id-b04e03ae-47a4-4517-96a7-36f60e23c2d1"
         transform="translate(-149.694,-127.624)">
        <g
           style="fill:#a6a7a3;fill-opacity:1;stroke:none;stroke-width:0"
           id="id-707015a5-9174-4a7c-80c7-a814c403956c">
          <g
             id="g24962"
             style="fill:#a6a7a3;stroke:none;stroke-width:0"
             transform="translate(149.21,134.765)">
            <path
               style="fill:#a6a7a3;stroke:none;stroke-width:0"
               d="M 2.9375,-7.140625 C 1.5,-6.203125 0.484375,-4.59375 0.484375,-2.5625 c 0,1.859375 1.046875,3.734375 2.421875,4.578125 l 0.125,-0.15625 C 1.71875,0.8125 1.328125,-0.390625 1.328125,-2.59375 1.328125,-4.8125 1.75,-5.953125 3.03125,-6.984375 Z m 0,0"
               id="id-dd2a6f03-8972-468a-933d-c70f8be54394" />
          </g>
        </g>
        <g
           style="fill:#a6a7a3;fill-opacity:1;stroke:none;stroke-width:0"
           id="id-c409e83d-5b5d-4098-952b-5c97f5dc39d1">
          <g
             id="g24966"
             style="fill:#a6a7a3;stroke:none;stroke-width:0"
             transform="translate(152.926,134.765)">
            <path
               style="fill:#a6a7a3;stroke:none;stroke-width:0"
               d="m 5.71875,-2.28125 v -0.5625 H 0.625 v 0.5625 z m 0,0"
               id="id-ed89c8cc-13f5-49c8-9b6d-78c224bdb8ea" />
          </g>
        </g>
        <g
           style="fill:#a6a7a3;fill-opacity:1;stroke:none;stroke-width:0"
           id="id-e165e945-b013-49e4-ab60-b47031c2b183">
          <g
             id="g24970"
             style="fill:#a6a7a3;stroke:none;stroke-width:0"
             transform="translate(159.362,134.765)">
            <path
               style="fill:#a6a7a3;stroke:none;stroke-width:0"
               d="m 2.8125,-3.625 c 0.234375,0 0.28125,0.34375 0.28125,0.59375 0,0.96875 -0.625,2.640625 -1.265625,2.640625 -0.359375,0 -0.359375,-0.71875 -0.25,-1.28125 C 1.75,-2.5625 2.359375,-3.625 2.8125,-3.625 Z M 1.90625,-3.375 2.4375,-6.046875 C 2.5,-6.28125 2.578125,-6.703125 2.578125,-6.78125 c 0,-0.0625 0,-0.171875 -0.0625,-0.203125 -0.21875,0.09375 -1.265625,0.296875 -1.8125,0.34375 -0.03125,0.046875 -0.0625,0.265625 -0.03125,0.296875 0.15625,0 0.609375,0 0.609375,0.1875 0,0.109375 -0.046875,0.359375 -0.078125,0.546875 L 0.40625,-1.625 c -0.03125,0.140625 -0.0625,0.421875 -0.0625,0.5625 0,0.6875 0.546875,1.125 1.171875,1.125 1.140625,0 2.875,-1.5625 2.875,-3.4375 0,-0.734375 -0.359375,-1.125 -0.921875,-1.125 -0.484375,0 -1.28125,0.703125 -1.5625,1.125 z m 0,0"
               id="id-3f4e3816-2780-4a1e-b666-93f57ce95645" />
          </g>
        </g>
        <g
           style="fill:#a6a7a3;fill-opacity:1;stroke:none;stroke-width:0"
           id="id-bf14eb70-d036-43cc-be1a-49bc3baa40bb">
          <g
             id="g24974"
             style="fill:#a6a7a3;stroke:none;stroke-width:0"
             transform="translate(164.005,134.765)">
            <path
               style="fill:#a6a7a3;stroke:none;stroke-width:0"
               d="m 0.375,-7.140625 -0.078125,0.15625 c 1.28125,1.03125 1.6875,2.171875 1.6875,4.390625 0,2.203125 -0.375,3.40625 -1.6875,4.453125 l 0.109375,0.15625 c 1.375,-0.84375 2.4375,-2.71875 2.4375,-4.578125 0,-2.03125 -1.015625,-3.640625 -2.46875,-4.578125 z m 0,0"
               id="id-4b2bd6b7-958d-4c39-9a66-e2de0f15a994" />
          </g>
        </g>
      </g>
    </g>
    <g
       id="g25161"
       style="fill:#c28f48;stroke-width:0"
       ns1:jacobian_sqrt="0.458611"
       ns1:inkscapeversion="1.0"
       ns1:alignment="middle center"
       ns1:scale="1.3"
       ns1:preamble="C:\\Users\\flvisa\\Desktop\\lna\\latexify_books\\textext_preamble.tex"
       ns1:text="$\\boldsymbol{b}$"
       ns1:pdfconverter="inkscape"
       ns1:texconverter="pdflatex"
       ns1:version="1.1.0"
       transform="matrix(0.458611,0,0,0.458611,32.4869,117.211)">
      <defs
         id="id-c1460266-44fa-4a36-9749-8f523321f0c9">
        <g
           style="fill:#ff0000;stroke-width:0"
           id="id-737c6e28-a0b6-4457-8054-0c360b5176ca">
          <symbol
             style="fill:#ff0000;stroke-width:0"
             overflow="visible"
             id="id-27aa86ac-ea05-42fa-861a-790c20351a31">
            <path
               style="fill:#ff0000;stroke:none;stroke-width:0"
               d=""
               id="id-3fd9e181-42f7-45af-8221-7861783712e5" />
          </symbol>
          <symbol
             style="fill:#ff0000;stroke-width:0"
             overflow="visible"
             id="id-e67ddd11-b54e-425d-bc91-cd4d15c45984">
            <path
               style="fill:#ff0000;stroke:none;stroke-width:0"
               d="m 2.8125,-3.625 c 0.234375,0 0.28125,0.34375 0.28125,0.59375 0,0.96875 -0.625,2.640625 -1.265625,2.640625 -0.359375,0 -0.359375,-0.71875 -0.25,-1.28125 C 1.75,-2.5625 2.359375,-3.625 2.8125,-3.625 Z M 1.90625,-3.375 2.4375,-6.046875 C 2.5,-6.28125 2.578125,-6.703125 2.578125,-6.78125 c 0,-0.0625 0,-0.171875 -0.0625,-0.203125 -0.21875,0.09375 -1.265625,0.296875 -1.8125,0.34375 -0.03125,0.046875 -0.0625,0.265625 -0.03125,0.296875 0.15625,0 0.609375,0 0.609375,0.1875 0,0.109375 -0.046875,0.359375 -0.078125,0.546875 L 0.40625,-1.625 c -0.03125,0.140625 -0.0625,0.421875 -0.0625,0.5625 0,0.6875 0.546875,1.125 1.171875,1.125 1.140625,0 2.875,-1.5625 2.875,-3.4375 0,-0.734375 -0.359375,-1.125 -0.921875,-1.125 -0.484375,0 -1.28125,0.703125 -1.5625,1.125 z m 0,0"
               id="id-6df71785-28ed-4312-8c6a-24de83ce7f5f" />
          </symbol>
        </g>
      </defs>
      <g
         style="fill:#c28f48;stroke-width:0"
         id="id-a3b2841f-a10d-4bdd-ab8c-619126796ee0"
         transform="translate(-149.156,-127.781)">
        <g
           style="fill:#c28f48;fill-opacity:1;stroke-width:0"
           id="id-d09bd0aa-7458-42b2-a0f3-7d7a99eb75de">
          <g
             id="g25157"
             style="fill:#c28f48;stroke-width:0"
             transform="translate(148.812,134.765)">
            <path
               style="fill:#c28f48;stroke:none;stroke-width:0"
               d="m 2.8125,-3.625 c 0.234375,0 0.28125,0.34375 0.28125,0.59375 0,0.96875 -0.625,2.640625 -1.265625,2.640625 -0.359375,0 -0.359375,-0.71875 -0.25,-1.28125 C 1.75,-2.5625 2.359375,-3.625 2.8125,-3.625 Z M 1.90625,-3.375 2.4375,-6.046875 C 2.5,-6.28125 2.578125,-6.703125 2.578125,-6.78125 c 0,-0.0625 0,-0.171875 -0.0625,-0.203125 -0.21875,0.09375 -1.265625,0.296875 -1.8125,0.34375 -0.03125,0.046875 -0.0625,0.265625 -0.03125,0.296875 0.15625,0 0.609375,0 0.609375,0.1875 0,0.109375 -0.046875,0.359375 -0.078125,0.546875 L 0.40625,-1.625 c -0.03125,0.140625 -0.0625,0.421875 -0.0625,0.5625 0,0.6875 0.546875,1.125 1.171875,1.125 1.140625,0 2.875,-1.5625 2.875,-3.4375 0,-0.734375 -0.359375,-1.125 -0.921875,-1.125 -0.484375,0 -1.28125,0.703125 -1.5625,1.125 z m 0,0"
               id="id-a2cfd00c-be19-418b-8f66-007985bc43b1" />
          </g>
        </g>
      </g>
    </g>
  </g>
</svg>
