<?xml version="1.0" encoding="UTF-8" standalone="no"?>
<svg
   xmlns:ns1="http://www.iki.fi/pav/software/textext/"
   xmlns:dc="http://purl.org/dc/elements/1.1/"
   xmlns:cc="http://creativecommons.org/ns#"
   xmlns:rdf="http://www.w3.org/1999/02/22-rdf-syntax-ns#"
   xmlns:svg="http://www.w3.org/2000/svg"
   xmlns="http://www.w3.org/2000/svg"
   xmlns:sodipodi="http://sodipodi.sourceforge.net/DTD/sodipodi-0.dtd"
   xmlns:inkscape="http://www.inkscape.org/namespaces/inkscape"
   inkscape:version="1.0 (4035a4fb49, 2020-05-01)"
   sodipodi:docname="fig_1_22.svg"
   id="svg8"
   version="1.1"
   viewBox="0 0 58.631397 41.6404"
   height="41.6404mm"
   width="58.631397mm">
  <defs
     id="defs2">
    <marker
       inkscape:stockid="Arrow1Send"
       orient="auto"
       refY="0"
       refX="0"
       id="marker16541"
       style="overflow:visible"
       inkscape:isstock="true">
      <path
         id="path16539"
         d="M 0,0 5,-5 -12.5,0 5,5 Z"
         style="fill:#9a4832;fill-opacity:1;fill-rule:evenodd;stroke:#9a4832;stroke-width:1pt;stroke-opacity:1"
         transform="matrix(-0.2,0,0,-0.2,-1.2,0)" />
    </marker>
    <marker
       inkscape:stockid="Arrow1Send"
       orient="auto"
       refY="0"
       refX="0"
       id="marker16531"
       style="overflow:visible"
       inkscape:isstock="true">
      <path
         id="path16529"
         d="M 0,0 5,-5 -12.5,0 5,5 Z"
         style="fill:#3d677b;fill-opacity:1;fill-rule:evenodd;stroke:#3d677b;stroke-width:1pt;stroke-opacity:1"
         transform="matrix(-0.2,0,0,-0.2,-1.2,0)" />
    </marker>
    <marker
       inkscape:stockid="Arrow1Send"
       orient="auto"
       refY="0"
       refX="0"
       id="marker16521"
       style="overflow:visible"
       inkscape:isstock="true">
      <path
         id="path16519"
         d="M 0,0 5,-5 -12.5,0 5,5 Z"
         style="fill:#c28f48;fill-opacity:1;fill-rule:evenodd;stroke:#c28f48;stroke-width:1pt;stroke-opacity:1"
         transform="matrix(-0.2,0,0,-0.2,-1.2,0)" />
    </marker>
    <marker
       inkscape:stockid="Arrow1Send"
       orient="auto"
       refY="0"
       refX="0"
       id="marker16511"
       style="overflow:visible"
       inkscape:isstock="true">
      <path
         id="path16509"
         d="M 0,0 5,-5 -12.5,0 5,5 Z"
         style="fill:#000000;fill-opacity:1;fill-rule:evenodd;stroke:#000000;stroke-width:1pt;stroke-opacity:1"
         transform="matrix(-0.2,0,0,-0.2,-1.2,0)" />
    </marker>
    <marker
       inkscape:stockid="Arrow1Send"
       orient="auto"
       refY="0"
       refX="0"
       id="marker16501"
       style="overflow:visible"
       inkscape:isstock="true">
      <path
         id="path16499"
         d="M 0,0 5,-5 -12.5,0 5,5 Z"
         style="fill:#000000;fill-opacity:1;fill-rule:evenodd;stroke:#000000;stroke-width:1pt;stroke-opacity:1"
         transform="matrix(-0.2,0,0,-0.2,-1.2,0)" />
    </marker>
    <marker
       inkscape:isstock="true"
       style="overflow:visible"
       id="marker9606"
       refX="0"
       refY="0"
       orient="auto"
       inkscape:stockid="Arrow1Mend">
      <path
         transform="matrix(-0.4,0,0,-0.4,-4,0)"
         style="fill:#a6a7a3;fill-opacity:1;fill-rule:evenodd;stroke:#a6a7a3;stroke-width:1pt;stroke-opacity:1"
         d="M 0,0 5,-5 -12.5,0 5,5 Z"
         id="path9604" />
    </marker>
    <marker
       inkscape:isstock="true"
       style="overflow:visible"
       id="marker9596"
       refX="0"
       refY="0"
       orient="auto"
       inkscape:stockid="Arrow1Mend">
      <path
         transform="matrix(-0.4,0,0,-0.4,-4,0)"
         style="fill:#a6a7a3;fill-opacity:1;fill-rule:evenodd;stroke:#a6a7a3;stroke-width:1pt;stroke-opacity:1"
         d="M 0,0 5,-5 -12.5,0 5,5 Z"
         id="path9594" />
    </marker>
    <marker
       inkscape:isstock="true"
       style="overflow:visible"
       id="marker9586"
       refX="0"
       refY="0"
       orient="auto"
       inkscape:stockid="Arrow1Mend">
      <path
         transform="matrix(-0.4,0,0,-0.4,-4,0)"
         style="fill:#a6a7a3;fill-opacity:1;fill-rule:evenodd;stroke:#a6a7a3;stroke-width:1pt;stroke-opacity:1"
         d="M 0,0 5,-5 -12.5,0 5,5 Z"
         id="path9584" />
    </marker>
    <marker
       inkscape:isstock="true"
       style="overflow:visible"
       id="marker9576"
       refX="0"
       refY="0"
       orient="auto"
       inkscape:stockid="Arrow1Mend">
      <path
         transform="matrix(-0.4,0,0,-0.4,-4,0)"
         style="fill:#a6a7a3;fill-opacity:1;fill-rule:evenodd;stroke:#a6a7a3;stroke-width:1pt;stroke-opacity:1"
         d="M 0,0 5,-5 -12.5,0 5,5 Z"
         id="path9574" />
    </marker>
    <marker
       inkscape:isstock="true"
       style="overflow:visible"
       id="marker9566"
       refX="0"
       refY="0"
       orient="auto"
       inkscape:stockid="Arrow1Mend">
      <path
         transform="matrix(-0.4,0,0,-0.4,-4,0)"
         style="fill:#a6a7a3;fill-opacity:1;fill-rule:evenodd;stroke:#a6a7a3;stroke-width:1pt;stroke-opacity:1"
         d="M 0,0 5,-5 -12.5,0 5,5 Z"
         id="path9564" />
    </marker>
    <marker
       inkscape:isstock="true"
       style="overflow:visible"
       id="marker9556"
       refX="0"
       refY="0"
       orient="auto"
       inkscape:stockid="Arrow1Mend">
      <path
         transform="matrix(-0.4,0,0,-0.4,-4,0)"
         style="fill:#a6a7a3;fill-opacity:1;fill-rule:evenodd;stroke:#a6a7a3;stroke-width:1pt;stroke-opacity:1"
         d="M 0,0 5,-5 -12.5,0 5,5 Z"
         id="path9554" />
    </marker>
    <marker
       inkscape:isstock="true"
       style="overflow:visible"
       id="marker9546"
       refX="0"
       refY="0"
       orient="auto"
       inkscape:stockid="Arrow1Mend">
      <path
         transform="matrix(-0.4,0,0,-0.4,-4,0)"
         style="fill:#a6a7a3;fill-opacity:1;fill-rule:evenodd;stroke:#a6a7a3;stroke-width:1pt;stroke-opacity:1"
         d="M 0,0 5,-5 -12.5,0 5,5 Z"
         id="path9544" />
    </marker>
    <marker
       inkscape:isstock="true"
       style="overflow:visible"
       id="marker9536"
       refX="0"
       refY="0"
       orient="auto"
       inkscape:stockid="Arrow1Mend">
      <path
         transform="matrix(-0.4,0,0,-0.4,-4,0)"
         style="fill:#a6a7a3;fill-opacity:1;fill-rule:evenodd;stroke:#a6a7a3;stroke-width:1pt;stroke-opacity:1"
         d="M 0,0 5,-5 -12.5,0 5,5 Z"
         id="path9534" />
    </marker>
    <marker
       inkscape:isstock="true"
       style="overflow:visible"
       id="marker9526"
       refX="0"
       refY="0"
       orient="auto"
       inkscape:stockid="Arrow1Mend">
      <path
         transform="matrix(-0.4,0,0,-0.4,-4,0)"
         style="fill:#a6a7a3;fill-opacity:1;fill-rule:evenodd;stroke:#a6a7a3;stroke-width:1pt;stroke-opacity:1"
         d="M 0,0 5,-5 -12.5,0 5,5 Z"
         id="path9524" />
    </marker>
    <marker
       inkscape:stockid="Arrow1Send"
       orient="auto"
       refY="0"
       refX="0"
       id="Arrow1Send"
       style="overflow:visible"
       inkscape:isstock="true">
      <path
         id="path7254"
         d="M 0,0 5,-5 -12.5,0 5,5 Z"
         style="fill:#808080;fill-opacity:1;fill-rule:evenodd;stroke:#808080;stroke-width:1pt;stroke-opacity:1"
         transform="matrix(-0.2,0,0,-0.2,-1.2,0)" />
    </marker>
    <marker
       inkscape:stockid="Arrow1Mend"
       orient="auto"
       refY="0"
       refX="0"
       id="marker7171"
       style="overflow:visible"
       inkscape:isstock="true">
      <path
         id="path7169"
         d="M 0,0 5,-5 -12.5,0 5,5 Z"
         style="fill:#000000;fill-opacity:1;fill-rule:evenodd;stroke:#000000;stroke-width:1pt;stroke-opacity:1"
         transform="matrix(-0.4,0,0,-0.4,-4,0)" />
    </marker>
    <pattern
       id="EMFhbasepattern"
       patternUnits="userSpaceOnUse"
       width="6"
       height="6"
       x="0"
       y="0" />
    <marker
       inkscape:stockid="Arrow1Mend"
       orient="auto"
       refY="0"
       refX="0"
       id="marker2714"
       style="overflow:visible"
       inkscape:isstock="true">
      <path
         id="path2712"
         d="M 0,0 5,-5 -12.5,0 5,5 Z"
         style="fill:#000000;fill-opacity:1;fill-rule:evenodd;stroke:#000000;stroke-width:1pt;stroke-opacity:1"
         transform="matrix(-0.4,0,0,-0.4,-4,0)" />
    </marker>
    <marker
       inkscape:stockid="Arrow1Mend"
       orient="auto"
       refY="0"
       refX="0"
       id="marker2605"
       style="overflow:visible"
       inkscape:isstock="true">
      <path
         id="path2603"
         d="M 0,0 5,-5 -12.5,0 5,5 Z"
         style="fill:#0055d4;fill-opacity:1;fill-rule:evenodd;stroke:#0055d4;stroke-width:1pt;stroke-opacity:1"
         transform="matrix(-0.4,0,0,-0.4,-4,0)" />
    </marker>
    <marker
       inkscape:stockid="Arrow1Mend"
       orient="auto"
       refY="0"
       refX="0"
       id="marker2647"
       style="overflow:visible"
       inkscape:isstock="true">
      <path
         id="path2645"
         d="M 0,0 5,-5 -12.5,0 5,5 Z"
         style="fill:#44aa00;fill-opacity:1;fill-rule:evenodd;stroke:#44aa00;stroke-width:1pt;stroke-opacity:1"
         transform="matrix(-0.4,0,0,-0.4,-4,0)" />
    </marker>
    <marker
       inkscape:isstock="true"
       style="overflow:visible"
       id="marker2321-4"
       refX="0"
       refY="0"
       orient="auto"
       inkscape:stockid="Arrow1Mend">
      <path
         transform="matrix(-0.4,0,0,-0.4,-4,0)"
         style="fill:#000000;fill-opacity:1;fill-rule:evenodd;stroke:#000000;stroke-width:1pt;stroke-opacity:1"
         d="M 0,0 5,-5 -12.5,0 5,5 Z"
         id="path2319-1" />
    </marker>
    <g
       id="id-9bb6c6b1-b4db-46a5-afa1-ae7501b95b97">
      <symbol
         id="id-eefbabd5-cb55-492e-85b9-2fc367eb7e71"
         overflow="visible">
        <path
           id="id-7516f642-e399-4b0f-b1a9-6243845db504"
           d="M 0.5,0 H 4.484375 V -4.8125 H 0.5 Z M 1,-0.5 V -4.3125 H 3.984375 V -0.5 Z m 0,0"
           style="stroke:none" />
      </symbol>
      <symbol
         id="id-42ebec65-16f1-436d-9d4e-3255e0795cc9"
         overflow="visible">
        <path
           id="id-760eca7f-bee4-4d68-9658-d47180b49a99"
           d="m 1.5,-6.546875 c -0.03125,0 -0.078125,0.046875 -0.109375,0.09375 C 1.0625,-5.90625 0.875,-5.65625 0.484375,-5.15625 c 0,0.0625 0.046875,0.125 0.109375,0.125 0.328125,-0.265625 0.90625,-0.75 0.90625,-0.75 0,0 0.546875,0.453125 0.921875,0.75 0.046875,0 0.109375,-0.0625 0.109375,-0.125 -0.375,-0.5 -0.59375,-0.75 -0.921875,-1.296875 C 1.578125,-6.5 1.546875,-6.546875 1.5,-6.546875 Z m 0,0"
           style="stroke:none" />
      </symbol>
      <symbol
         id="id-63ad3062-f27d-400b-961a-5c5581ccb4ea"
         overflow="visible">
        <path
           id="id-d55a9056-08ed-4d3f-8175-d1cf5e5b1636"
           d=""
           style="stroke:none" />
      </symbol>
      <symbol
         id="id-d4d6091b-d580-4b05-8b0c-af19cb87cfa2"
         overflow="visible">
        <path
           id="id-f76f974c-ba49-407f-82c5-cf2ac40ea359"
           d="m 2.6875,-4.5 c -1.15625,0 -2.53125,1.609375 -2.53125,3.09375 0,0.9375 0.453125,1.46875 1.15625,1.46875 0.625,0 1.734375,-0.96875 1.875,-1.1875 0,-0.0625 -0.0625,-0.296875 -0.15625,-0.296875 -0.03125,0.03125 -0.5625,0.65625 -1.015625,0.65625 -0.5,0 -0.609375,-0.5 -0.609375,-0.875 0,-0.046875 0.015625,-0.21875 0.015625,-0.25 0.625,0 2.375,-0.65625 2.375,-1.6875 C 3.796875,-4.28125 3.203125,-4.5 2.6875,-4.5 Z M 1.453125,-2.265625 C 1.5,-2.765625 1.859375,-4.125 2.34375,-4.125 c 0.21875,0 0.265625,0.203125 0.265625,0.390625 0,0.734375 -0.765625,1.46875 -1.15625,1.46875 z m 0,0"
           style="stroke:none" />
      </symbol>
      <symbol
         id="id-cde24818-c842-4043-a24f-5cf616a1edea"
         overflow="visible">
        <path
           id="id-70b1a93e-12d6-488f-a4f2-5dec78e12a00"
           d=""
           style="stroke:none" />
      </symbol>
      <symbol
         id="id-c234b9a4-6b25-41fb-83bd-e53b1a9605f9"
         overflow="visible">
        <path
           id="id-1db3ddb2-f5b2-4829-b4ac-e78425e123d6"
           d="m 2.25,-3.203125 c -0.90625,0 -2.109375,1.09375 -2.109375,2.375 0,0.515625 0.25,0.859375 0.65625,0.859375 0.421875,0 0.9375,-0.734375 1.078125,-0.984375 -0.015625,0.09375 -0.09375,0.53125 -0.09375,0.609375 0,0.21875 0.09375,0.390625 0.265625,0.390625 0.34375,0 0.875,-0.5625 0.953125,-0.6875 C 3,-0.6875 2.953125,-0.78125 2.921875,-0.78125 2.90625,-0.75 2.578125,-0.359375 2.40625,-0.359375 c -0.046875,0 -0.078125,-0.078125 -0.078125,-0.15625 0,-0.109375 0.03125,-0.21875 0.046875,-0.265625 L 2.8125,-3.109375 C 2.6875,-3.15625 2.5,-3.203125 2.25,-3.203125 Z M 1.90625,-2.90625 C 2,-2.90625 2.171875,-2.875 2.25,-2.796875 l -0.171875,0.78125 c -0.125,0.703125 -0.640625,1.625 -1.015625,1.625 -0.25,0 -0.375,-0.265625 -0.375,-0.71875 0,-0.84375 0.65625,-1.796875 1.21875,-1.796875 z m 0,0"
           style="stroke:none" />
      </symbol>
      <symbol
         id="id-dd9883c0-8564-4ec7-99b1-cacd87e43ed8"
         overflow="visible">
        <path
           id="id-f5ef5cea-d035-4fc5-8258-93ea2a2b64bc"
           d=""
           style="stroke:none" />
      </symbol>
      <symbol
         id="id-c15c1469-f467-498c-8ea4-dc4bc23181f7"
         overflow="visible">
        <path
           id="id-ac76f6de-fe2f-4104-8400-cbef5a329362"
           d="M 2.9375,-7.140625 C 1.5,-6.203125 0.484375,-4.59375 0.484375,-2.5625 c 0,1.859375 1.046875,3.734375 2.421875,4.578125 l 0.125,-0.15625 C 1.71875,0.8125 1.328125,-0.390625 1.328125,-2.59375 1.328125,-4.8125 1.75,-5.953125 3.03125,-6.984375 Z m 0,0"
           style="stroke:none" />
      </symbol>
      <symbol
         id="id-1bb9b168-a02d-4d2d-8aa2-41556a7ca766"
         overflow="visible">
        <path
           id="id-c2ff055a-6d97-43de-b8d0-fd78e7824a43"
           d="m 0.375,-7.140625 -0.078125,0.15625 c 1.28125,1.03125 1.6875,2.171875 1.6875,4.390625 0,2.203125 -0.375,3.40625 -1.6875,4.453125 l 0.109375,0.15625 c 1.375,-0.84375 2.4375,-2.71875 2.4375,-4.578125 0,-2.03125 -1.015625,-3.640625 -2.46875,-4.578125 z m 0,0"
           style="stroke:none" />
      </symbol>
      <symbol
         id="id-2fcefd0e-4433-45bd-8c57-460e54bd7cec"
         overflow="visible">
        <path
           id="id-710363f7-38ac-4d82-913f-c8ac03495a50"
           d=""
           style="stroke:none" />
      </symbol>
      <symbol
         id="id-191d7f25-1723-45e4-b764-0141384954f3"
         overflow="visible">
        <path
           id="id-444fd1c5-69cc-4cd8-b822-10b3a1b82a39"
           d="M 1.171875,-4.171875 H 0.875 c -0.234375,0 -0.46875,0.25 -0.46875,0.34375 0,0.015625 0.015625,0.03125 0.03125,0.03125 H 1.109375 L 0.5625,-1 C 0.53125,-0.78125 0.5,-0.546875 0.5,-0.46875 c 0,0.296875 0.125,0.53125 0.34375,0.53125 0.46875,0 1.203125,-0.765625 1.3125,-0.953125 0,-0.0625 -0.078125,-0.171875 -0.109375,-0.171875 C 2.03125,-1.03125 1.578125,-0.5 1.359375,-0.5 1.25,-0.5 1.25,-0.65625 1.25,-0.75 c 0,-0.046875 0.03125,-0.21875 0.046875,-0.3125 l 0.53125,-2.734375 h 0.78125 c 0.046875,-0.078125 0.09375,-0.15625 0.09375,-0.25 0,-0.046875 -0.015625,-0.125 -0.046875,-0.125 H 1.890625 L 2.125,-5.359375 c -0.046875,-0.03125 -0.125,-0.0625 -0.1875,-0.0625 -0.078125,0 -0.53125,0.515625 -0.640625,0.65625 z m 0,0"
           style="stroke:none" />
      </symbol>
    </g>
    <g
       id="id-c9f6f285-1f91-45b4-89c6-5609e3e3cef6">
      <symbol
         id="id-bdf56e00-66e1-435f-82dc-130f0a60d71f"
         overflow="visible">
        <path
           id="id-8fe550ed-a699-4bca-ab77-bb8553ceeac8"
           d="M 0.5,0 H 4.484375 V -4.8125 H 0.5 Z M 1,-0.5 V -4.3125 H 3.984375 V -0.5 Z m 0,0"
           style="stroke:none" />
      </symbol>
      <symbol
         id="id-f820d048-a3b8-4567-9770-34d7e5384225"
         overflow="visible">
        <path
           id="id-65f478c9-f7dc-4cbd-9bd7-c89c7e43098a"
           d="m 1.5,-6.546875 c -0.03125,0 -0.078125,0.046875 -0.109375,0.09375 C 1.0625,-5.90625 0.875,-5.65625 0.484375,-5.15625 c 0,0.0625 0.046875,0.125 0.109375,0.125 0.328125,-0.265625 0.90625,-0.75 0.90625,-0.75 0,0 0.546875,0.453125 0.921875,0.75 0.046875,0 0.109375,-0.0625 0.109375,-0.125 -0.375,-0.5 -0.59375,-0.75 -0.921875,-1.296875 C 1.578125,-6.5 1.546875,-6.546875 1.5,-6.546875 Z m 0,0"
           style="stroke:none" />
      </symbol>
      <symbol
         id="id-ede806ad-7876-49f0-b1e7-6ea6cb8b5600"
         overflow="visible">
        <path
           id="id-cf0191f0-dce6-4011-a8c3-8fc41ed01e8c"
           d=""
           style="stroke:none" />
      </symbol>
      <symbol
         id="id-a8f30882-5e6d-4eb7-ac7d-992bd1969482"
         overflow="visible">
        <path
           id="id-cf65d956-ffea-44a2-bd62-61757e718f2a"
           d="m 2.6875,-4.5 c -1.15625,0 -2.53125,1.609375 -2.53125,3.09375 0,0.9375 0.453125,1.46875 1.15625,1.46875 0.625,0 1.734375,-0.96875 1.875,-1.1875 0,-0.0625 -0.0625,-0.296875 -0.15625,-0.296875 -0.03125,0.03125 -0.5625,0.65625 -1.015625,0.65625 -0.5,0 -0.609375,-0.5 -0.609375,-0.875 0,-0.046875 0.015625,-0.21875 0.015625,-0.25 0.625,0 2.375,-0.65625 2.375,-1.6875 C 3.796875,-4.28125 3.203125,-4.5 2.6875,-4.5 Z M 1.453125,-2.265625 C 1.5,-2.765625 1.859375,-4.125 2.34375,-4.125 c 0.21875,0 0.265625,0.203125 0.265625,0.390625 0,0.734375 -0.765625,1.46875 -1.15625,1.46875 z m 0,0"
           style="stroke:none" />
      </symbol>
      <symbol
         id="id-06646c8d-3330-4932-8cc2-a926ab366f0c"
         overflow="visible">
        <path
           id="id-44f41aeb-da39-401c-98fd-47ebb91f2510"
           d=""
           style="stroke:none" />
      </symbol>
      <symbol
         id="id-fa8bf611-6483-402b-a35d-1d092a660bcd"
         overflow="visible">
        <path
           id="id-beb92137-28d7-4955-bfa8-39c77b66c531"
           d="M 4.71875,0 V -0.40625 H 2.796875 V -4 h -0.40625 v 3.59375 h -1.9375 V 0 Z m 0,0"
           style="stroke:none" />
      </symbol>
    </g>
    <g
       id="id-8c7a5cda-9572-4636-b4c8-4bc594f088aa">
      <symbol
         id="id-42adb08d-746c-4b71-9ea6-349b24f4b7d9"
         overflow="visible">
        <path
           id="id-b8e5e404-8644-45ff-b151-a65d75e28c7b"
           d="M 0.5,0 H 4.484375 V -4.8125 H 0.5 Z M 1,-0.5 V -4.3125 H 3.984375 V -0.5 Z m 0,0"
           style="stroke:none" />
      </symbol>
      <symbol
         id="id-4ea651ba-cd90-49e4-99f4-bbf321c6b54c"
         overflow="visible">
        <path
           id="id-5b509699-fc84-4bcc-8cb9-bb041e38376c"
           d="m 4.34375,-0.640625 h -3.8125 c 0,0 2.78125,-4.6875 2.84375,-4.6875 0.28125,1.640625 0.6875,3.5 0.96875,4.6875 z M 3.734375,-6.609375 3.71875,-6.625 c -0.046875,0 -0.265625,0.28125 -0.3125,0.390625 -0.109375,0.25 -0.171875,0.4375 -0.328125,0.703125 -1.296875,2.140625 -3.34375,5.4375 -3.34375,5.4375 v 0.015625 C -0.265625,-0.046875 -0.25,0 -0.21875,0 c 0,0 1.90625,-0.03125 4.265625,-0.03125 0.21875,0 0.515625,0.046875 0.5625,0.078125 0.109375,-0.03125 0.4375,-0.125 0.546875,-0.375 C 4.578125,-2.890625 4.25,-4.09375 3.734375,-6.609375 Z m 0,0"
           style="stroke:none" />
      </symbol>
      <symbol
         id="id-0bef659b-08ac-4a0e-883b-e0dfc50ecf94"
         overflow="visible">
        <path
           id="id-2c57418c-28f7-46bf-aa5e-bb40a6341b0d"
           d=""
           style="stroke:none" />
      </symbol>
      <symbol
         id="id-bb71de83-0083-4422-8b94-61041e397819"
         overflow="visible">
        <path
           id="id-eff286a6-9045-45cc-be54-ba76b22dc4af"
           d="m 4.6875,-2.828125 c 0,-0.875 -0.421875,-1.53125 -0.953125,-1.53125 -0.859375,0 -1.375,0.90625 -1.765625,2.9375 L 1.8125,-0.5625 H 1.75 c -0.78125,0 -1.125,-0.28125 -1.125,-0.921875 0,-1.15625 1.234375,-2.359375 2.0625,-2.484375 V -4 c 0,-0.234375 -0.390625,-0.359375 -0.625,-0.359375 -0.484375,0 -1.828125,1.375 -1.828125,2.796875 0,0.890625 0.5,1.546875 1.453125,1.65625 L 1.328125,1.9375 v 0.015625 c 0,0.15625 0.421875,0.34375 0.46875,0.34375 0.09375,0 0.171875,-0.0625 0.25,-0.15625 V 2.03125 C 2.046875,1.6875 2.140625,0.75 2.25,0.109375 3.59375,-0.09375 4.6875,-1.28125 4.6875,-2.828125 Z m -2.359375,2.21875 c 0.1875,-1.171875 0.5,-3.203125 1.390625,-3.203125 0.390625,0 0.609375,0.28125 0.609375,0.734375 0,1.171875 -0.875,2.328125 -2,2.46875 z m 0,0"
           style="stroke:none" />
      </symbol>
    </g>
    <g
       id="id-bd8f5679-d245-4266-a1ca-c06bfad5840c">
      <symbol
         id="id-52f9f5d4-3033-4bcf-9f29-9ada05c78a86"
         overflow="visible">
        <path
           id="id-375e6c30-ec5b-4537-a3f5-24ba1b54f524"
           d="M 0.5,0 H 4.484375 V -4.8125 H 0.5 Z M 1,-0.5 V -4.3125 H 3.984375 V -0.5 Z m 0,0"
           style="stroke:none" />
      </symbol>
      <symbol
         id="id-c80d14b4-d027-4bc7-8107-e1ec25a3f6ff"
         overflow="visible">
        <path
           id="id-481b019a-a916-42a3-87bf-5dd78c929442"
           d="m 1.5,-6.546875 c -0.03125,0 -0.078125,0.046875 -0.109375,0.09375 C 1.0625,-5.90625 0.875,-5.65625 0.484375,-5.15625 c 0,0.0625 0.046875,0.125 0.109375,0.125 0.328125,-0.265625 0.90625,-0.75 0.90625,-0.75 0,0 0.546875,0.453125 0.921875,0.75 0.046875,0 0.109375,-0.0625 0.109375,-0.125 -0.375,-0.5 -0.59375,-0.75 -0.921875,-1.296875 C 1.578125,-6.5 1.546875,-6.546875 1.5,-6.546875 Z m 0,0"
           style="stroke:none" />
      </symbol>
      <symbol
         id="id-68cc118a-fbaf-4991-87f5-b1b86d18dce8"
         overflow="visible">
        <path
           id="id-8c760344-bb83-4e68-8884-11bca5f2475f"
           d=""
           style="stroke:none" />
      </symbol>
      <symbol
         id="id-1ceaa9d7-e491-448b-af85-3171c1a32272"
         overflow="visible">
        <path
           id="id-c5919087-13a3-4134-b3fb-ea917de7d58e"
           d="m 2.6875,-4.5 c -1.15625,0 -2.53125,1.609375 -2.53125,3.09375 0,0.9375 0.453125,1.46875 1.15625,1.46875 0.625,0 1.734375,-0.96875 1.875,-1.1875 0,-0.0625 -0.0625,-0.296875 -0.15625,-0.296875 -0.03125,0.03125 -0.5625,0.65625 -1.015625,0.65625 -0.5,0 -0.609375,-0.5 -0.609375,-0.875 0,-0.046875 0.015625,-0.21875 0.015625,-0.25 0.625,0 2.375,-0.65625 2.375,-1.6875 C 3.796875,-4.28125 3.203125,-4.5 2.6875,-4.5 Z M 1.453125,-2.265625 C 1.5,-2.765625 1.859375,-4.125 2.34375,-4.125 c 0.21875,0 0.265625,0.203125 0.265625,0.390625 0,0.734375 -0.765625,1.46875 -1.15625,1.46875 z m 0,0"
           style="stroke:none" />
      </symbol>
      <symbol
         id="id-2d4ec4ca-827f-4dd8-92df-e74e74ef2d41"
         overflow="visible">
        <path
           id="id-56aeee34-df82-4332-bfbc-fafa53b26db1"
           d=""
           style="stroke:none" />
      </symbol>
      <symbol
         id="id-bbee3589-0fe4-434b-aa06-4011497aaa0d"
         overflow="visible">
        <path
           id="id-2ae8c594-cdf7-4401-ba41-37b7d97ba690"
           d="m 2.25,-3.203125 c -0.90625,0 -2.109375,1.09375 -2.109375,2.375 0,0.515625 0.25,0.859375 0.65625,0.859375 0.421875,0 0.9375,-0.734375 1.078125,-0.984375 -0.015625,0.09375 -0.09375,0.53125 -0.09375,0.609375 0,0.21875 0.09375,0.390625 0.265625,0.390625 0.34375,0 0.875,-0.5625 0.953125,-0.6875 C 3,-0.6875 2.953125,-0.78125 2.921875,-0.78125 2.90625,-0.75 2.578125,-0.359375 2.40625,-0.359375 c -0.046875,0 -0.078125,-0.078125 -0.078125,-0.15625 0,-0.109375 0.03125,-0.21875 0.046875,-0.265625 L 2.8125,-3.109375 C 2.6875,-3.15625 2.5,-3.203125 2.25,-3.203125 Z M 1.90625,-2.90625 C 2,-2.90625 2.171875,-2.875 2.25,-2.796875 l -0.171875,0.78125 c -0.125,0.703125 -0.640625,1.625 -1.015625,1.625 -0.25,0 -0.375,-0.265625 -0.375,-0.71875 0,-0.84375 0.65625,-1.796875 1.21875,-1.796875 z m 0,0"
           style="stroke:none" />
      </symbol>
      <symbol
         id="id-cc35bb21-8d89-47b4-ab59-58a317ea4f2a"
         overflow="visible">
        <path
           id="id-ad69cb86-b8fe-4a51-b458-26829ca76dd6"
           d=""
           style="stroke:none" />
      </symbol>
      <symbol
         id="id-3e9714ac-2f4f-4283-a0c6-bab5860e8732"
         overflow="visible">
        <path
           id="id-78325598-4aad-48f1-87dd-0492b6d57d4b"
           d="M 2.9375,-7.140625 C 1.5,-6.203125 0.484375,-4.59375 0.484375,-2.5625 c 0,1.859375 1.046875,3.734375 2.421875,4.578125 l 0.125,-0.15625 C 1.71875,0.8125 1.328125,-0.390625 1.328125,-2.59375 1.328125,-4.8125 1.75,-5.953125 3.03125,-6.984375 Z m 0,0"
           style="stroke:none" />
      </symbol>
      <symbol
         id="id-571ff145-33a2-47e6-9bce-c43d37f0d1f3"
         overflow="visible">
        <path
           id="id-ed2e46b1-aac4-4a6e-a059-1fcc4649a3f6"
           d="m 2.484375,-2.84375 h -2.1875 v 0.65625 h 2.1875 V 0 h 0.65625 v -2.1875 h 2.1875 v -0.65625 h -2.1875 v -2.203125 h -0.65625 z m 0,0"
           style="stroke:none" />
      </symbol>
      <symbol
         id="id-63b5e2e4-ed1b-4431-ac40-4d7fef83b581"
         overflow="visible">
        <path
           id="id-afe2fe7b-d05a-4b6c-b6d7-c6a6ee305fa5"
           d="m 0.375,-7.140625 -0.078125,0.15625 c 1.28125,1.03125 1.6875,2.171875 1.6875,4.390625 0,2.203125 -0.375,3.40625 -1.6875,4.453125 l 0.109375,0.15625 c 1.375,-0.84375 2.4375,-2.71875 2.4375,-4.578125 0,-2.03125 -1.015625,-3.640625 -2.46875,-4.578125 z m 0,0"
           style="stroke:none" />
      </symbol>
      <symbol
         id="id-8536c152-145b-4c53-9210-6e8c617a79a5"
         overflow="visible">
        <path
           id="id-756c1a93-98d5-4c17-ba8d-4ca370554519"
           d=""
           style="stroke:none" />
      </symbol>
      <symbol
         id="id-626340bc-134f-43b7-aee6-17a6ac138a4b"
         overflow="visible">
        <path
           id="id-241c7365-9c40-4886-9907-b632383e8c2a"
           d="M 1.171875,-4.171875 H 0.875 c -0.234375,0 -0.46875,0.25 -0.46875,0.34375 0,0.015625 0.015625,0.03125 0.03125,0.03125 H 1.109375 L 0.5625,-1 C 0.53125,-0.78125 0.5,-0.546875 0.5,-0.46875 c 0,0.296875 0.125,0.53125 0.34375,0.53125 0.46875,0 1.203125,-0.765625 1.3125,-0.953125 0,-0.0625 -0.078125,-0.171875 -0.109375,-0.171875 C 2.03125,-1.03125 1.578125,-0.5 1.359375,-0.5 1.25,-0.5 1.25,-0.65625 1.25,-0.75 c 0,-0.046875 0.03125,-0.21875 0.046875,-0.3125 l 0.53125,-2.734375 h 0.78125 c 0.046875,-0.078125 0.09375,-0.15625 0.09375,-0.25 0,-0.046875 -0.015625,-0.125 -0.046875,-0.125 H 1.890625 L 2.125,-5.359375 c -0.046875,-0.03125 -0.125,-0.0625 -0.1875,-0.0625 -0.078125,0 -0.53125,0.515625 -0.640625,0.65625 z m 0,0"
           style="stroke:none" />
      </symbol>
      <symbol
         id="id-98b3daf3-d33b-46f3-829e-3a5ecd08895a"
         overflow="visible">
        <path
           id="id-5c0eba3f-b246-49a8-b85b-503e947eed88"
           d="M 0.5,0 H 4.484375 V -4.8125 H 0.5 Z M 1,-0.5 V -4.3125 H 3.984375 V -0.5 Z m 0,0"
           style="stroke:none" />
      </symbol>
      <symbol
         id="id-a7c80e46-b2e1-4f9b-8092-14d6841e6790"
         overflow="visible">
        <path
           id="id-12e9f94c-811d-47c8-ae6c-f08839eaa977"
           d="m 4.34375,-0.640625 h -3.8125 c 0,0 2.78125,-4.6875 2.84375,-4.6875 0.28125,1.640625 0.6875,3.5 0.96875,4.6875 z M 3.734375,-6.609375 3.71875,-6.625 c -0.046875,0 -0.265625,0.28125 -0.3125,0.390625 -0.109375,0.25 -0.171875,0.4375 -0.328125,0.703125 -1.296875,2.140625 -3.34375,5.4375 -3.34375,5.4375 v 0.015625 C -0.265625,-0.046875 -0.25,0 -0.21875,0 c 0,0 1.90625,-0.03125 4.265625,-0.03125 0.21875,0 0.515625,0.046875 0.5625,0.078125 0.109375,-0.03125 0.4375,-0.125 0.546875,-0.375 C 4.578125,-2.890625 4.25,-4.09375 3.734375,-6.609375 Z m 0,0"
           style="stroke:none" />
      </symbol>
    </g>
    <g
       id="id-ad7b37ae-e2f6-4e0a-bee4-4335d8e74db0">
      <symbol
         id="id-c2597ba7-1008-4c70-ada2-3e371df6350f"
         overflow="visible">
        <path
           id="id-9058ca44-5482-4394-9dba-23c0957e55b1"
           d="M 0.5,0 H 4.484375 V -4.8125 H 0.5 Z M 1,-0.5 V -4.3125 H 3.984375 V -0.5 Z m 0,0"
           style="stroke:none" />
      </symbol>
      <symbol
         id="id-8bd9be5f-180b-4117-be90-df03eb40975c"
         overflow="visible">
        <path
           id="id-1f9d1939-b471-449b-b6ef-e791613df70e"
           d="m 4.34375,-0.640625 h -3.8125 c 0,0 2.78125,-4.6875 2.84375,-4.6875 0.28125,1.640625 0.6875,3.5 0.96875,4.6875 z M 3.734375,-6.609375 3.71875,-6.625 c -0.046875,0 -0.265625,0.28125 -0.3125,0.390625 -0.109375,0.25 -0.171875,0.4375 -0.328125,0.703125 -1.296875,2.140625 -3.34375,5.4375 -3.34375,5.4375 v 0.015625 C -0.265625,-0.046875 -0.25,0 -0.21875,0 c 0,0 1.90625,-0.03125 4.265625,-0.03125 0.21875,0 0.515625,0.046875 0.5625,0.078125 0.109375,-0.03125 0.4375,-0.125 0.546875,-0.375 C 4.578125,-2.890625 4.25,-4.09375 3.734375,-6.609375 Z m 0,0"
           style="stroke:none" />
      </symbol>
      <symbol
         id="id-f1ba040c-c8d4-4106-9b75-1d7de73a1a71"
         overflow="visible">
        <path
           id="id-d62dc1cb-7dd9-4ed5-8cc5-5894b85475bc"
           d="M 0.5,0 H 4.484375 V -4.8125 H 0.5 Z M 1,-0.5 V -4.3125 H 3.984375 V -0.5 Z m 0,0"
           style="stroke:none" />
      </symbol>
      <symbol
         id="id-4440ff0e-61f0-49f0-8465-4420a40c801d"
         overflow="visible">
        <path
           id="id-7cbad38e-a9ec-473a-94fc-4eca944e92e4"
           d="m 1.5,-6.546875 c -0.03125,0 -0.078125,0.046875 -0.109375,0.09375 C 1.0625,-5.90625 0.875,-5.65625 0.484375,-5.15625 c 0,0.0625 0.046875,0.125 0.109375,0.125 0.328125,-0.265625 0.90625,-0.75 0.90625,-0.75 0,0 0.546875,0.453125 0.921875,0.75 0.046875,0 0.109375,-0.0625 0.109375,-0.125 -0.375,-0.5 -0.59375,-0.75 -0.921875,-1.296875 C 1.578125,-6.5 1.546875,-6.546875 1.5,-6.546875 Z m 0,0"
           style="stroke:none" />
      </symbol>
      <symbol
         id="id-a3f85f61-1213-4820-bfa0-3a607051a10a"
         overflow="visible">
        <path
           id="id-035d8583-8f0f-412a-ae28-bca9099a8259"
           d=""
           style="stroke:none" />
      </symbol>
      <symbol
         id="id-04694c44-792b-498d-ba65-e984abd3ebfc"
         overflow="visible">
        <path
           id="id-1f75cd85-498c-4cf4-aa22-60346aedd755"
           d="m 2.6875,-4.5 c -1.15625,0 -2.53125,1.609375 -2.53125,3.09375 0,0.9375 0.453125,1.46875 1.15625,1.46875 0.625,0 1.734375,-0.96875 1.875,-1.1875 0,-0.0625 -0.0625,-0.296875 -0.15625,-0.296875 -0.03125,0.03125 -0.5625,0.65625 -1.015625,0.65625 -0.5,0 -0.609375,-0.5 -0.609375,-0.875 0,-0.046875 0.015625,-0.21875 0.015625,-0.25 0.625,0 2.375,-0.65625 2.375,-1.6875 C 3.796875,-4.28125 3.203125,-4.5 2.6875,-4.5 Z M 1.453125,-2.265625 C 1.5,-2.765625 1.859375,-4.125 2.34375,-4.125 c 0.21875,0 0.265625,0.203125 0.265625,0.390625 0,0.734375 -0.765625,1.46875 -1.15625,1.46875 z m 0,0"
           style="stroke:none" />
      </symbol>
      <symbol
         id="id-af7f57f9-36a3-4bb8-b39d-41e1670e5496"
         overflow="visible">
        <path
           id="id-adc6386e-1637-4783-94a4-e10ac4e18bd6"
           d=""
           style="stroke:none" />
      </symbol>
      <symbol
         id="id-37807738-4029-4165-8b0e-2b2d073036e1"
         overflow="visible">
        <path
           id="id-4dc4b698-bbae-4e52-9323-99a4c0b3d556"
           d="m 2.25,-3.203125 c -0.90625,0 -2.109375,1.09375 -2.109375,2.375 0,0.515625 0.25,0.859375 0.65625,0.859375 0.421875,0 0.9375,-0.734375 1.078125,-0.984375 -0.015625,0.09375 -0.09375,0.53125 -0.09375,0.609375 0,0.21875 0.09375,0.390625 0.265625,0.390625 0.34375,0 0.875,-0.5625 0.953125,-0.6875 C 3,-0.6875 2.953125,-0.78125 2.921875,-0.78125 2.90625,-0.75 2.578125,-0.359375 2.40625,-0.359375 c -0.046875,0 -0.078125,-0.078125 -0.078125,-0.15625 0,-0.109375 0.03125,-0.21875 0.046875,-0.265625 L 2.8125,-3.109375 C 2.6875,-3.15625 2.5,-3.203125 2.25,-3.203125 Z M 1.90625,-2.90625 C 2,-2.90625 2.171875,-2.875 2.25,-2.796875 l -0.171875,0.78125 c -0.125,0.703125 -0.640625,1.625 -1.015625,1.625 -0.25,0 -0.375,-0.265625 -0.375,-0.71875 0,-0.84375 0.65625,-1.796875 1.21875,-1.796875 z m 0,0"
           style="stroke:none" />
      </symbol>
    </g>
    <g
       id="id-120f6b61-087a-4eb2-89d0-3ed125088d16">
      <symbol
         id="id-966ad986-c851-4efa-b093-394186574d31"
         overflow="visible">
        <path
           id="id-32f79ed6-faea-49c7-89a8-95cdc082b93e"
           d="M 0.5,0 H 4.484375 V -4.8125 H 0.5 Z M 1,-0.5 V -4.3125 H 3.984375 V -0.5 Z m 0,0"
           style="stroke:none" />
      </symbol>
      <symbol
         id="id-a83af135-d2a6-41d6-93ae-dcfd07e56bd9"
         overflow="visible">
        <path
           id="id-a9e14f41-4b85-4915-bd5c-eab0bec3c7de"
           d="m 1.5,-6.546875 c -0.03125,0 -0.078125,0.046875 -0.109375,0.09375 C 1.0625,-5.90625 0.875,-5.65625 0.484375,-5.15625 c 0,0.0625 0.046875,0.125 0.109375,0.125 0.328125,-0.265625 0.90625,-0.75 0.90625,-0.75 0,0 0.546875,0.453125 0.921875,0.75 0.046875,0 0.109375,-0.0625 0.109375,-0.125 -0.375,-0.5 -0.59375,-0.75 -0.921875,-1.296875 C 1.578125,-6.5 1.546875,-6.546875 1.5,-6.546875 Z m 0,0"
           style="stroke:none" />
      </symbol>
      <symbol
         id="id-5f4bae2c-7aad-4470-9468-587b87a7c413"
         overflow="visible">
        <path
           id="id-7e55c31d-e105-49b8-888a-15efcd1e4a29"
           d=""
           style="stroke:none" />
      </symbol>
      <symbol
         id="id-e0b68a81-a9e3-4df2-9969-5245082877b1"
         overflow="visible">
        <path
           id="id-86261bda-78ab-4149-82e6-e59ae8df9ec6"
           d="m 2.6875,-4.5 c -1.15625,0 -2.53125,1.609375 -2.53125,3.09375 0,0.9375 0.453125,1.46875 1.15625,1.46875 0.625,0 1.734375,-0.96875 1.875,-1.1875 0,-0.0625 -0.0625,-0.296875 -0.15625,-0.296875 -0.03125,0.03125 -0.5625,0.65625 -1.015625,0.65625 -0.5,0 -0.609375,-0.5 -0.609375,-0.875 0,-0.046875 0.015625,-0.21875 0.015625,-0.25 0.625,0 2.375,-0.65625 2.375,-1.6875 C 3.796875,-4.28125 3.203125,-4.5 2.6875,-4.5 Z M 1.453125,-2.265625 C 1.5,-2.765625 1.859375,-4.125 2.34375,-4.125 c 0.21875,0 0.265625,0.203125 0.265625,0.390625 0,0.734375 -0.765625,1.46875 -1.15625,1.46875 z m 0,0"
           style="stroke:none" />
      </symbol>
      <symbol
         id="id-412b916e-6e53-42d1-b0b1-7bed6fa355d8"
         overflow="visible">
        <path
           id="id-c6a812b7-94cd-4be9-9def-5790416098a2"
           d="m 0.359375,0 h 2.90625 V -3.515625 H 0.359375 Z M 0.71875,-0.359375 v -2.78125 h 2.1875 v 2.78125 z m 0,0"
           style="stroke:none" />
      </symbol>
      <symbol
         id="id-0d0d716d-2726-46ee-ac7f-a107e5de7007"
         overflow="visible">
        <path
           id="id-9dd345c7-4afe-44c5-94bc-4cbc5b4a2a9e"
           d="M 3.15625,-0.46875 H 0.390625 c 0,0 2.03125,-3.421875 2.0625,-3.421875 0.203125,1.203125 0.5,2.5625 0.703125,3.421875 z M 2.71875,-4.8125 2.703125,-4.828125 c -0.015625,0 -0.1875,0.203125 -0.21875,0.28125 -0.078125,0.1875 -0.125,0.3125 -0.234375,0.515625 -0.953125,1.5625 -2.453125,3.953125 -2.453125,3.953125 V -0.0625 c 0,0.03125 0.015625,0.0625 0.046875,0.0625 0,0 1.390625,-0.015625 3.109375,-0.015625 0.15625,0 0.375,0.015625 0.40625,0.046875 C 3.4375,0.015625 3.671875,-0.0625 3.75,-0.234375 c -0.40625,-1.875 -0.65625,-2.75 -1.03125,-4.578125 z m 0,0"
           style="stroke:none" />
      </symbol>
      <symbol
         id="id-319cd4b1-8572-48fc-8904-ccc1b705f4d6"
         overflow="visible">
        <path
           id="id-4756f7bc-6166-44d2-bb61-2f6772cdf889"
           d="m 0.359375,0 h 2.90625 V -3.515625 H 0.359375 Z M 0.71875,-0.359375 v -2.78125 h 2.1875 v 2.78125 z m 0,0"
           style="stroke:none" />
      </symbol>
      <symbol
         id="id-215df19f-7e2a-4e14-ac6b-23104d08e7b6"
         overflow="visible">
        <path
           id="id-40146b07-e38a-461a-952a-776b0dde4007"
           d="m 1.09375,-4.765625 c -0.03125,0 -0.0625,0.03125 -0.078125,0.0625 C 0.78125,-4.3125 0.625,-4.125 0.359375,-3.765625 c 0,0.046875 0.03125,0.09375 0.0625,0.09375 0.25,-0.1875 0.671875,-0.546875 0.671875,-0.546875 0,0 0.40625,0.328125 0.671875,0.546875 0.03125,0 0.078125,-0.046875 0.078125,-0.09375 C 1.5625,-4.125 1.421875,-4.3125 1.171875,-4.703125 1.15625,-4.734375 1.125,-4.765625 1.09375,-4.765625 Z m 0,0"
           style="stroke:none" />
      </symbol>
      <symbol
         id="id-4c7b8b2d-e36f-4e33-9a61-3cbb32232299"
         overflow="visible">
        <path
           id="id-bc420bd7-57d2-4a00-a841-6bd472f553ff"
           d=""
           style="stroke:none" />
      </symbol>
      <symbol
         id="id-1edbd012-7c7b-4fcd-8739-4b16bc4c3de6"
         overflow="visible">
        <path
           id="id-e02a8c9b-86f2-488c-b5a1-51a10692bf64"
           d="m 1.96875,-3.28125 c -0.84375,0 -1.859375,1.171875 -1.859375,2.25 0,0.6875 0.328125,1.078125 0.84375,1.078125 0.46875,0 1.265625,-0.703125 1.359375,-0.875 0,-0.03125 -0.03125,-0.203125 -0.109375,-0.203125 -0.015625,0.015625 -0.40625,0.46875 -0.734375,0.46875 -0.359375,0 -0.4375,-0.359375 -0.4375,-0.625 0,-0.046875 0,-0.15625 0,-0.1875 0.453125,0 1.734375,-0.484375 1.734375,-1.234375 0,-0.5 -0.4375,-0.671875 -0.796875,-0.671875 z m -0.90625,1.625 c 0.03125,-0.359375 0.296875,-1.359375 0.640625,-1.359375 0.171875,0 0.203125,0.15625 0.203125,0.296875 0,0.53125 -0.5625,1.0625 -0.84375,1.0625 z m 0,0"
           style="stroke:none" />
      </symbol>
    </g>
    <pattern
       y="0"
       x="0"
       height="6"
       width="6"
       patternUnits="userSpaceOnUse"
       id="EMFhbasepattern-1" />
    <marker
       inkscape:stockid="Arrow1Mend"
       orient="auto"
       refY="0"
       refX="0"
       id="marker6666-6"
       style="overflow:visible"
       inkscape:isstock="true">
      <path
         id="path6664-1"
         d="M 0,0 5,-5 -12.5,0 5,5 Z"
         style="fill:#000000;fill-opacity:1;fill-rule:evenodd;stroke:#000000;stroke-width:1pt;stroke-opacity:1"
         transform="matrix(-0.4,0,0,-0.4,-4,0)" />
    </marker>
    <marker
       inkscape:stockid="Arrow1Send"
       orient="auto"
       refY="0"
       refX="0"
       id="Arrow1Send-8-5"
       style="overflow:visible"
       inkscape:isstock="true">
      <path
         id="path7254-2-3"
         d="M 0,0 5,-5 -12.5,0 5,5 Z"
         style="fill:#808080;fill-opacity:1;fill-rule:evenodd;stroke:#808080;stroke-width:1pt;stroke-opacity:1"
         transform="matrix(-0.2,0,0,-0.2,-1.2,0)" />
    </marker>
    <marker
       inkscape:isstock="true"
       style="overflow:visible"
       id="Arrow1Send-8-5-1"
       refX="0"
       refY="0"
       orient="auto"
       inkscape:stockid="Arrow1Send">
      <path
         transform="matrix(-0.2,0,0,-0.2,-1.2,0)"
         style="fill:#808080;fill-opacity:1;fill-rule:evenodd;stroke:#808080;stroke-width:1pt;stroke-opacity:1"
         d="M 0,0 5,-5 -12.5,0 5,5 Z"
         id="path7254-2-3-2" />
    </marker>
    <marker
       inkscape:isstock="true"
       style="overflow:visible"
       id="Arrow1Send-8-5-7"
       refX="0"
       refY="0"
       orient="auto"
       inkscape:stockid="Arrow1Send">
      <path
         transform="matrix(-0.2,0,0,-0.2,-1.2,0)"
         style="fill:#808080;fill-opacity:1;fill-rule:evenodd;stroke:#808080;stroke-width:1pt;stroke-opacity:1"
         d="M 0,0 5,-5 -12.5,0 5,5 Z"
         id="path7254-2-3-1" />
    </marker>
    <marker
       inkscape:stockid="Arrow1Send"
       orient="auto"
       refY="0"
       refX="0"
       id="Arrow1Send-8-5-7-5"
       style="overflow:visible"
       inkscape:isstock="true">
      <path
         id="path7254-2-3-1-6"
         d="M 0,0 5,-5 -12.5,0 5,5 Z"
         style="fill:#808080;fill-opacity:1;fill-rule:evenodd;stroke:#808080;stroke-width:1pt;stroke-opacity:1"
         transform="matrix(-0.2,0,0,-0.2,-1.2,0)" />
    </marker>
    <marker
       inkscape:stockid="Arrow1Send"
       orient="auto"
       refY="0"
       refX="0"
       id="Arrow1Send-8-5-7-1"
       style="overflow:visible"
       inkscape:isstock="true">
      <path
         id="path7254-2-3-1-7"
         d="M 0,0 5,-5 -12.5,0 5,5 Z"
         style="fill:#808080;fill-opacity:1;fill-rule:evenodd;stroke:#808080;stroke-width:1pt;stroke-opacity:1"
         transform="matrix(-0.2,0,0,-0.2,-1.2,0)" />
    </marker>
    <marker
       inkscape:isstock="true"
       style="overflow:visible"
       id="Arrow1Send-8-5-7-5-9"
       refX="0"
       refY="0"
       orient="auto"
       inkscape:stockid="Arrow1Send">
      <path
         transform="matrix(-0.2,0,0,-0.2,-1.2,0)"
         style="fill:#808080;fill-opacity:1;fill-rule:evenodd;stroke:#808080;stroke-width:1pt;stroke-opacity:1"
         d="M 0,0 5,-5 -12.5,0 5,5 Z"
         id="path7254-2-3-1-6-7" />
    </marker>
    <marker
       inkscape:stockid="Arrow1Send"
       orient="auto"
       refY="0"
       refX="0"
       id="Arrow1Send-8-5-7-5-9-7"
       style="overflow:visible"
       inkscape:isstock="true">
      <path
         id="path7254-2-3-1-6-7-5"
         d="M 0,0 5,-5 -12.5,0 5,5 Z"
         style="fill:#808080;fill-opacity:1;fill-rule:evenodd;stroke:#808080;stroke-width:1pt;stroke-opacity:1"
         transform="matrix(-0.2,0,0,-0.2,-1.2,0)" />
    </marker>
    <g
       id="id-10116a31-7bb5-4fd2-bb6f-99711bf46ca6-1">
      <symbol
         id="id-a5762e95-6c56-4fdb-a89c-0b733329475e-4"
         overflow="visible">
        <path
           id="id-004097e0-d902-4818-bde3-2ef0fe8cecb5-7"
           d=""
           style="stroke:none" />
      </symbol>
      <symbol
         id="id-b25d1a1f-9f40-456c-96c8-a413b294862b-8"
         overflow="visible">
        <path
           id="id-ff58081f-cbc5-4f58-ac90-62df3b809e30-7"
           d="m 3.765625,-4.5 c -0.546875,0 -1.40625,1.015625 -1.65625,1.953125 0,0 0.109375,-0.53125 0.140625,-0.640625 C 2.265625,-3.296875 2.328125,-3.65625 2.328125,-3.78125 2.328125,-4.25 2.0625,-4.5 1.671875,-4.5 c -0.546875,0 -1.390625,0.875 -1.5625,1.203125 0,0.0625 0.0625,0.265625 0.140625,0.265625 0.03125,-0.0625 0.5,-0.59375 0.71875,-0.59375 0.09375,0 0.140625,0.109375 0.140625,0.203125 0,0.046875 -0.03125,0.28125 -0.046875,0.328125 L 0.46875,0 C 0.59375,0.03125 0.953125,0.0625 1.0625,0.0625 1.171875,0.0625 1.53125,0.03125 1.625,0 L 1.828125,-0.921875 C 2.109375,-2.1875 2.875,-3.46875 3.15625,-3.46875 c 0.15625,0 0.171875,0.03125 0.265625,0.078125 0.125,0.0625 0.265625,0.1875 0.46875,0.1875 0.265625,0 0.578125,-0.25 0.578125,-0.71875 0,-0.1875 -0.078125,-0.359375 -0.15625,-0.453125 C 4.140625,-4.46875 4.046875,-4.5 3.765625,-4.5 Z m 0,0"
           style="stroke:none" />
      </symbol>
    </g>
    <g
       id="id-6209ee91-3440-4e08-8528-dd1d57996704-3"
       style="fill:#0066ff;stroke-width:0">
      <symbol
         id="id-6af41626-640b-48ca-a5ae-4a10d9ec31c5-6"
         overflow="visible"
         style="fill:#0066ff;stroke-width:0">
        <path
           id="id-bf09c0ce-52c0-45b3-a75a-9cc0e1ce94f4-8"
           d=""
           style="fill:#0066ff;stroke:none;stroke-width:0" />
      </symbol>
      <symbol
         id="id-e6c4c36c-8c46-44e8-a797-5d1f3fd84f46-8"
         overflow="visible"
         style="fill:#0066ff;stroke-width:0">
        <path
           id="id-a6dd4f32-578b-4cee-84a0-8184cfdc57f4-2"
           d="m 3.765625,-4.5 c -0.546875,0 -1.40625,1.015625 -1.65625,1.953125 0,0 0.109375,-0.53125 0.140625,-0.640625 C 2.265625,-3.296875 2.328125,-3.65625 2.328125,-3.78125 2.328125,-4.25 2.0625,-4.5 1.671875,-4.5 c -0.546875,0 -1.390625,0.875 -1.5625,1.203125 0,0.0625 0.0625,0.265625 0.140625,0.265625 0.03125,-0.0625 0.5,-0.59375 0.71875,-0.59375 0.09375,0 0.140625,0.109375 0.140625,0.203125 0,0.046875 -0.03125,0.28125 -0.046875,0.328125 L 0.46875,0 C 0.59375,0.03125 0.953125,0.0625 1.0625,0.0625 1.171875,0.0625 1.53125,0.03125 1.625,0 L 1.828125,-0.921875 C 2.109375,-2.1875 2.875,-3.46875 3.15625,-3.46875 c 0.15625,0 0.171875,0.03125 0.265625,0.078125 0.125,0.0625 0.265625,0.1875 0.46875,0.1875 0.265625,0 0.578125,-0.25 0.578125,-0.71875 0,-0.1875 -0.078125,-0.359375 -0.15625,-0.453125 C 4.140625,-4.46875 4.046875,-4.5 3.765625,-4.5 Z m 0,0"
           style="fill:#0066ff;stroke:none;stroke-width:0" />
      </symbol>
      <symbol
         id="id-c0d150d8-b8b9-4255-8185-8416bf403bb1-3"
         overflow="visible"
         style="fill:#0066ff;stroke-width:0">
        <path
           id="id-9092a750-6982-43be-b44a-3433b0623790-1"
           d=""
           style="fill:#0066ff;stroke:none;stroke-width:0" />
      </symbol>
      <symbol
         id="id-dead0dd5-d33f-40c3-9c1a-9845c72b221f-0"
         overflow="visible"
         style="fill:#0066ff;stroke-width:0">
        <path
           id="id-9019d22e-89fb-4684-a77f-48d73addf77b-0"
           d="m 2.484375,-2.84375 h -2.1875 v 0.65625 h 2.1875 V 0 h 0.65625 v -2.1875 h 2.1875 v -0.65625 h -2.1875 v -2.203125 h -0.65625 z m 0,0"
           style="fill:#0066ff;stroke:none;stroke-width:0" />
      </symbol>
      <symbol
         id="id-e749d333-5aaf-4415-a811-47de5a6adbe3-5"
         overflow="visible"
         style="fill:#0066ff;stroke-width:0">
        <path
           id="id-5ca3a04b-ad43-404e-96bc-9d5aa0a9239a-1"
           d="M 0.5,0 H 4.484375 V -4.8125 H 0.5 Z M 1,-0.5 V -4.3125 H 3.984375 V -0.5 Z m 0,0"
           style="fill:#0066ff;stroke:none;stroke-width:0" />
      </symbol>
      <symbol
         id="id-84917f6f-da75-4070-a177-8dd1b6ca10c2-4"
         overflow="visible"
         style="fill:#0066ff;stroke-width:0">
        <path
           id="id-704b95d6-ce8c-4563-b8eb-73ec4dbe5612-2"
           d="m 2.75,-4.359375 c -0.890625,0 -2.359375,1 -2.359375,2.3125 0,1.203125 0.828125,2.125 1.75,2.125 0.46875,0 1.15625,-0.421875 1.3125,-0.59375 0.015625,-0.015625 0.03125,0.015625 0.03125,0.0625 v 0.34375 c 0,0.0625 0.015625,0.1875 0.078125,0.1875 0,0 0.765625,-0.25 1.28125,-0.28125 0.046875,0 0.078125,-0.109375 0.078125,-0.140625 0,-0.03125 -0.015625,-0.109375 -0.03125,-0.109375 -0.03125,-0.015625 -0.5,0 -0.59375,-0.171875 -0.0625,-0.140625 -0.0625,-0.578125 -0.0625,-0.953125 v -4.1875 c 0,-0.53125 0.109375,-0.84375 0.109375,-0.84375 0,-0.0625 -0.0625,-0.15625 -0.109375,-0.15625 -0.421875,0.1875 -0.921875,0.328125 -1.40625,0.375 -0.03125,0.015625 -0.015625,0.265625 0,0.265625 0.265625,0 0.546875,0.03125 0.59375,0.15625 0.0625,0.109375 0.0625,0.359375 0.0625,0.484375 v 1.03125 c 0,0.109375 -0.015625,0.1875 -0.0625,0.1875 C 3.328125,-4.3125 2.953125,-4.359375 2.75,-4.359375 Z m -0.328125,0.40625 c 0.5625,0 1.0625,0.265625 1.0625,0.484375 v 2.546875 c 0,0.15625 -0.421875,0.390625 -0.875,0.390625 -0.90625,0 -1.40625,-0.8125 -1.40625,-1.765625 0,-0.84375 0.46875,-1.65625 1.21875,-1.65625 z m 0,0"
           style="fill:#0066ff;stroke:none;stroke-width:0" />
      </symbol>
    </g>
  </defs>
  <sodipodi:namedview
     fit-margin-bottom="0"
     fit-margin-right="0"
     fit-margin-left="0"
     fit-margin-top="0"
     inkscape:window-maximized="1"
     inkscape:window-y="-8"
     inkscape:window-x="-8"
     inkscape:window-height="837"
     inkscape:window-width="1600"
     showgrid="false"
     inkscape:document-rotation="0"
     inkscape:current-layer="layer1"
     inkscape:document-units="mm"
     inkscape:cy="49.743425"
     inkscape:cx="139.07202"
     inkscape:zoom="2.8"
     inkscape:pageshadow="2"
     inkscape:pageopacity="0.0"
     borderopacity="1.0"
     bordercolor="#666666"
     pagecolor="#ffffff"
     id="base" />
  <metadata
     id="metadata5">
    <rdf:RDF>
      <cc:Work
         rdf:about="">
        <dc:format>image/svg+xml</dc:format>
        <dc:type
           rdf:resource="http://purl.org/dc/dcmitype/StillImage" />
        <dc:title></dc:title>
      </cc:Work>
    </rdf:RDF>
  </metadata>
  <g
     transform="translate(-110.85964,-95.038962)"
     id="layer1"
     inkscape:groupmode="layer"
     inkscape:label="Layer 1">
    <path
       style="fill:none;stroke:#000000;stroke-width:0.265;stroke-linecap:butt;stroke-linejoin:miter;stroke-miterlimit:4;stroke-dasharray:none;stroke-opacity:1;marker-end:url(#marker16501)"
       d="m 114.77549,133.12071 c 0,0 0,-19.93825 0,-24.37947 0,-4.44122 0,-13.229163 0,-13.229163"
       id="path6662" />
    <path
       id="path6662-2"
       d="m 114.77549,133.12071 c 0,0 28.38736,0 34.71061,0 6.32325,0 18.83521,0 18.83521,0"
       style="fill:none;stroke:#000000;stroke-width:0.264583;stroke-linecap:butt;stroke-linejoin:miter;stroke-miterlimit:4;stroke-dasharray:none;stroke-opacity:1;marker-end:url(#marker16511)" />
    <path
       id="path2317"
       d="m 114.81384,133.14643 35.62033,-29.38167"
       style="fill:none;stroke:#c28f48;stroke-width:0.52422;stroke-linecap:butt;stroke-linejoin:miter;stroke-miterlimit:4;stroke-dasharray:none;stroke-opacity:1;marker-end:url(#marker16521)" />
    <path
       style="fill:none;stroke:#3d677b;stroke-width:0.525695;stroke-linecap:butt;stroke-linejoin:miter;stroke-miterlimit:4;stroke-dasharray:none;stroke-opacity:1;marker-end:url(#marker16531)"
       d="m 114.82033,133.16078 31.30524,-30.36362"
       id="path2317-4" />
    <path
       style="fill:none;stroke:#a6a7a3;stroke-width:0.264583px;stroke-linecap:butt;stroke-linejoin:miter;stroke-opacity:1"
       d="m 121.88596,105.56562 c 24.23204,-11.478605 43.97235,4.70801 43.97235,4.70801"
       id="path7010"
       sodipodi:nodetypes="cc" />
    <path
       style="fill:none;stroke:#a6a7a3;stroke-width:0.264583;stroke-linecap:butt;stroke-linejoin:miter;stroke-miterlimit:4;stroke-dasharray:none;stroke-opacity:1;marker-end:url(#marker9526)"
       d="m 121.88596,105.56562 2.82232,-1.26346"
       id="path7167" />
    <path
       id="path7167-6"
       d="m 124.68634,104.30689 2.86103,-1.0038"
       style="fill:none;stroke:#a6a7a3;stroke-width:0.264583;stroke-linecap:butt;stroke-linejoin:miter;stroke-miterlimit:4;stroke-dasharray:none;stroke-opacity:1;marker-end:url(#marker9536)" />
    <path
       style="fill:none;stroke:#a6a7a3;stroke-width:0.264583;stroke-linecap:butt;stroke-linejoin:miter;stroke-miterlimit:4;stroke-dasharray:none;stroke-opacity:1;marker-end:url(#marker9546)"
       d="m 127.52338,103.30968 2.9456,-0.75241"
       id="path7167-6-9" />
    <path
       id="path7167-6-9-0"
       d="m 130.45387,102.56182 3.00273,-0.61452"
       style="fill:none;stroke:#a6a7a3;stroke-width:0.264583;stroke-linecap:butt;stroke-linejoin:miter;stroke-miterlimit:4;stroke-dasharray:none;stroke-opacity:1;marker-end:url(#marker9556)" />
    <path
       id="path7167-6-9-4"
       d="m 133.40961,101.96421 3.13498,-0.37773"
       style="fill:none;stroke:#a6a7a3;stroke-width:0.264583;stroke-linecap:butt;stroke-linejoin:miter;stroke-miterlimit:4;stroke-dasharray:none;stroke-opacity:1;marker-end:url(#marker9566)" />
    <path
       style="fill:none;stroke:#a6a7a3;stroke-width:0.264583;stroke-linecap:butt;stroke-linejoin:miter;stroke-miterlimit:4;stroke-dasharray:none;stroke-opacity:1;marker-end:url(#marker9576)"
       d="m 136.45916,101.59863 3.38709,-0.13089"
       id="path7167-6-9-4-0" />
    <path
       style="fill:none;stroke:#a6a7a3;stroke-width:0.264583;stroke-linecap:butt;stroke-linejoin:miter;stroke-miterlimit:4;stroke-dasharray:none;stroke-opacity:1;marker-end:url(#marker9586)"
       d="m 143.03575,101.59177 0.31555,1e-5"
       id="path7167-6-9-4-9" />
    <path
       id="path7167-6-9-4-0-4"
       d="m 143.3513,101.59178 3.35885,0.45569"
       style="fill:none;stroke:#a6a7a3;stroke-width:0.264583;stroke-linecap:butt;stroke-linejoin:miter;stroke-miterlimit:4;stroke-dasharray:none;stroke-opacity:1;marker-end:url(#marker9596)" />
    <path
       style="fill:none;stroke:#a6a7a3;stroke-width:0.264583;stroke-linecap:butt;stroke-linejoin:miter;stroke-miterlimit:4;stroke-dasharray:none;stroke-opacity:1;marker-end:url(#marker9606)"
       d="m 147.78901,102.26133 3.27948,0.82698"
       id="path7167-6-9-4-0-4-3" />
    <g
       id="g10037"
       ns1:jacobian_sqrt="0.423334"
       ns1:inkscapeversion="1.0"
       ns1:alignment="middle center"
       ns1:scale="1.1999998866143555"
       ns1:preamble="C:\\Users\\flvisa\\Desktop\\lna\\latexify_books\\textext_preamble.tex"
       ns1:text="$y$"
       ns1:pdfconverter="inkscape"
       ns1:texconverter="pdflatex"
       ns1:version="1.1.0"
       transform="matrix(0.423334,0,0,0.423334,110.8598,95.855877)">
      <defs
         id="id-208bc961-8849-435d-94a0-376a8d50c8ba">
        <g
           id="id-f36d0bde-f224-41a1-b064-49f0d45004af">
          <symbol
             overflow="visible"
             id="id-24807a81-9cc5-4b13-9f9e-2f57bf9afcaa">
            <path
               style="stroke:none"
               d=""
               id="id-25d97870-128d-4694-8cef-1cab80b196a9" />
          </symbol>
          <symbol
             overflow="visible"
             id="id-b7b4882a-144a-46bd-b064-57c4cca10ca5">
            <path
               style="stroke:none"
               d="m 1.328125,-4.390625 c -0.46875,0 -1.15625,0.765625 -1.265625,0.953125 0,0.0625 0.0625,0.1875 0.09375,0.1875 0.03125,-0.03125 0.484375,-0.59375 0.71875,-0.59375 0.484375,0 0.59375,2.0625 0.59375,3.21875 v 0.453125 c 0,0.375 -0.015625,0.78125 -0.171875,1.015625 -0.328125,0.484375 -0.75,0.84375 -1.375,0.84375 -0.21875,0 -0.65625,-0.109375 -0.8125,-0.1875 -0.140625,0.078125 -0.21875,0.28125 -0.21875,0.4375 0,0.21875 0.234375,0.421875 0.59375,0.421875 1.359375,0 4.609375,-3.578125 4.609375,-5.953125 0,-0.21875 -0.03125,-0.796875 -0.453125,-0.796875 -0.234375,0 -0.421875,0.171875 -0.5,0.4375 0.109375,0.21875 0.25,0.46875 0.25,1.078125 0,1.09375 -0.796875,2.28125 -1.15625,2.71875 0,-0.609375 -0.03125,-4.234375 -0.90625,-4.234375 z m 0,0"
               id="id-4e35c5c2-6a4d-466f-85b2-a610e4015f06" />
          </symbol>
        </g>
      </defs>
      <g
         id="id-b3bc14bc-470d-4d0e-b094-e2b3ae12be91"
         transform="translate(-148.6,-130.374)">
        <g
           style="fill:#000000;fill-opacity:1"
           id="id-0957ab5b-1eb6-4271-8117-4e034facf909">
          <g
             id="g10033"
             transform="translate(149.709,134.765)">
            <path
               style="stroke:none"
               d="m 1.328125,-4.390625 c -0.46875,0 -1.15625,0.765625 -1.265625,0.953125 0,0.0625 0.0625,0.1875 0.09375,0.1875 0.03125,-0.03125 0.484375,-0.59375 0.71875,-0.59375 0.484375,0 0.59375,2.0625 0.59375,3.21875 v 0.453125 c 0,0.375 -0.015625,0.78125 -0.171875,1.015625 -0.328125,0.484375 -0.75,0.84375 -1.375,0.84375 -0.21875,0 -0.65625,-0.109375 -0.8125,-0.1875 -0.140625,0.078125 -0.21875,0.28125 -0.21875,0.4375 0,0.21875 0.234375,0.421875 0.59375,0.421875 1.359375,0 4.609375,-3.578125 4.609375,-5.953125 0,-0.21875 -0.03125,-0.796875 -0.453125,-0.796875 -0.234375,0 -0.421875,0.171875 -0.5,0.4375 0.109375,0.21875 0.25,0.46875 0.25,1.078125 0,1.09375 -0.796875,2.28125 -1.15625,2.71875 0,-0.609375 -0.03125,-4.234375 -0.90625,-4.234375 z m 0,0"
               id="id-be2f5f86-3c4b-48da-ae5f-e72f7fa959f1" />
          </g>
        </g>
      </g>
    </g>
    <g
       id="g10592"
       ns1:jacobian_sqrt="0.423334"
       ns1:inkscapeversion="1.0"
       ns1:alignment="middle center"
       ns1:scale="1.1999998866143555"
       ns1:preamble="C:\\Users\\flvisa\\Desktop\\lna\\latexify_books\\textext_preamble.tex"
       ns1:text="$x$"
       ns1:pdfconverter="inkscape"
       ns1:texconverter="pdflatex"
       ns1:version="1.1.0"
       transform="matrix(0.423334,0,0,0.423334,164.60049,134.62426)">
      <defs
         id="id-d8405508-fe5a-4f9d-9773-768bd7339bd6">
        <g
           id="id-45136fda-2b1f-49e0-9069-c2e3787b9ec1">
          <symbol
             overflow="visible"
             id="id-96966e64-753e-41ba-abe7-f456762347e4">
            <path
               style="stroke:none"
               d=""
               id="id-ab90aea5-1b35-47d2-bc1a-66a40e32f52e" />
          </symbol>
          <symbol
             overflow="visible"
             id="id-4086f671-54f0-4317-9efe-6ce700e6aca1">
            <path
               style="stroke:none"
               d="M 2.984375,-0.890625 2.65625,-2.46875 c 0.1875,-0.375 0.375,-0.671875 0.609375,-1.0625 0.0625,-0.125 0.140625,-0.234375 0.265625,-0.234375 H 3.5625 c 0.21875,0.015625 0.265625,0.28125 0.46875,0.28125 0.21875,0 0.359375,-0.203125 0.359375,-0.4375 0,-0.15625 -0.046875,-0.265625 -0.109375,-0.34375 -0.15625,-0.09375 -0.328125,-0.125 -0.46875,-0.125 -0.515625,0 -0.78125,0.671875 -1.234375,1.5625 L 2.4375,-3.515625 c -0.109375,-0.546875 -0.390625,-0.875 -0.6875,-0.875 -0.453125,0 -1.15625,0.796875 -1.234375,0.9375 0,0.046875 0.078125,0.1875 0.109375,0.1875 0.109375,-0.140625 0.5625,-0.578125 0.765625,-0.578125 0.171875,0 0.28125,0.171875 0.3125,0.390625 l 0.28125,1.40625 c -0.25,0.484375 -0.421875,0.78125 -0.6875,1.25 C 1.21875,-0.671875 1.140625,-0.5625 1,-0.5625 H 0.984375 c -0.21875,-0.03125 -0.25,-0.296875 -0.453125,-0.296875 -0.234375,0 -0.375,0.21875 -0.375,0.453125 0,0.140625 0.046875,0.25 0.109375,0.34375 0.15625,0.09375 0.328125,0.109375 0.46875,0.109375 0.5625,0 0.828125,-0.765625 1.328125,-1.734375 L 2.25,-0.828125 c 0.109375,0.53125 0.375,0.875 0.6875,0.875 0.4375,0 1.15625,-0.796875 1.234375,-0.9375 C 4.171875,-0.9375 4.09375,-1.0625 4.0625,-1.0625 3.953125,-0.921875 3.5,-0.53125 3.328125,-0.53125 c -0.21875,0 -0.3125,-0.140625 -0.34375,-0.359375 z m 0,0"
               id="id-15085f06-2011-42ce-a5a9-eb5f900dc705" />
          </symbol>
        </g>
      </defs>
      <g
         id="id-13f413fb-e02d-4b7d-856d-2d19cfdbba68"
         transform="translate(-149.167,-130.374)">
        <g
           style="fill:#000000;fill-opacity:1"
           id="id-4cb86817-30aa-44aa-997a-6a86fc2c83d3">
          <g
             id="g10588"
             transform="translate(149.011,134.765)">
            <path
               style="stroke:none"
               d="M 2.984375,-0.890625 2.65625,-2.46875 c 0.1875,-0.375 0.375,-0.671875 0.609375,-1.0625 0.0625,-0.125 0.140625,-0.234375 0.265625,-0.234375 H 3.5625 c 0.21875,0.015625 0.265625,0.28125 0.46875,0.28125 0.21875,0 0.359375,-0.203125 0.359375,-0.4375 0,-0.15625 -0.046875,-0.265625 -0.109375,-0.34375 -0.15625,-0.09375 -0.328125,-0.125 -0.46875,-0.125 -0.515625,0 -0.78125,0.671875 -1.234375,1.5625 L 2.4375,-3.515625 c -0.109375,-0.546875 -0.390625,-0.875 -0.6875,-0.875 -0.453125,0 -1.15625,0.796875 -1.234375,0.9375 0,0.046875 0.078125,0.1875 0.109375,0.1875 0.109375,-0.140625 0.5625,-0.578125 0.765625,-0.578125 0.171875,0 0.28125,0.171875 0.3125,0.390625 l 0.28125,1.40625 c -0.25,0.484375 -0.421875,0.78125 -0.6875,1.25 C 1.21875,-0.671875 1.140625,-0.5625 1,-0.5625 H 0.984375 c -0.21875,-0.03125 -0.25,-0.296875 -0.453125,-0.296875 -0.234375,0 -0.375,0.21875 -0.375,0.453125 0,0.140625 0.046875,0.25 0.109375,0.34375 0.15625,0.09375 0.328125,0.109375 0.46875,0.109375 0.5625,0 0.828125,-0.765625 1.328125,-1.734375 L 2.25,-0.828125 c 0.109375,0.53125 0.375,0.875 0.6875,0.875 0.4375,0 1.15625,-0.796875 1.234375,-0.9375 C 4.171875,-0.9375 4.09375,-1.0625 4.0625,-1.0625 3.953125,-0.921875 3.5,-0.53125 3.328125,-0.53125 c -0.21875,0 -0.3125,-0.140625 -0.34375,-0.359375 z m 0,0"
               id="id-8c59678a-3c11-4990-a16c-e2e37667f9f3" />
          </g>
        </g>
      </g>
    </g>
    <g
       id="g10828"
       ns1:jacobian_sqrt="0.423334"
       ns1:inkscapeversion="1.0"
       ns1:alignment="middle center"
       ns1:scale="1.1999998866143555"
       ns1:preamble="C:\\Users\\flvisa\\Desktop\\lna\\latexify_books\\textext_preamble.tex"
       ns1:text="$0$"
       ns1:pdfconverter="inkscape"
       ns1:texconverter="pdflatex"
       ns1:version="1.1.0"
       transform="matrix(0.423334,0,0,0.423334,113.8495,134.02707)">
      <defs
         id="id-ba5f3ae6-79f3-41cd-b1d8-11a1db134232">
        <g
           id="id-b2f4774c-335a-4556-a6df-830266f6d3df">
          <symbol
             overflow="visible"
             id="id-3ed520d9-15c7-417c-a138-bea0b8711605">
            <path
               style="stroke:none"
               d="M 0.5,0 H 4.484375 V -4.8125 H 0.5 Z M 1,-0.5 V -4.3125 H 3.984375 V -0.5 Z m 0,0"
               id="id-720c95d9-67b0-4850-80b8-0e6a65bc38c2" />
          </symbol>
          <symbol
             overflow="visible"
             id="id-ab269727-2c99-4ed5-96c6-bd11290be5b6">
            <path
               style="stroke:none"
               d="m 2.484375,-5.875 c 0.71875,0 1.203125,1.1875 1.203125,2.71875 0,1.515625 -0.4375,2.828125 -1.3125,2.828125 -0.703125,0 -1.21875,-1.25 -1.21875,-2.78125 0,-1.53125 0.515625,-2.765625 1.328125,-2.765625 z m -0.0625,-0.359375 c -1.34375,0 -2.125,1.421875 -2.125,3.125 0,1.6875 0.796875,3.140625 2.125,3.140625 1.34375,0 2.125,-1.453125 2.125,-3.140625 0,-1.703125 -0.765625,-3.125 -2.125,-3.125 z m 0,0"
               id="id-77e8e6fc-5ccf-4ffc-af94-244421df72bc" />
          </symbol>
        </g>
      </defs>
      <g
         id="id-41980880-cf16-4329-beef-cf6b992e356e"
         transform="translate(-149.009,-128.531)">
        <g
           style="fill:#000000;fill-opacity:1"
           id="id-d53e3bce-a0a7-425a-b7c0-634aa36896b3">
          <g
             id="g10824"
             transform="translate(148.712,134.765)">
            <path
               style="stroke:none"
               d="m 2.484375,-5.875 c 0.71875,0 1.203125,1.1875 1.203125,2.71875 0,1.515625 -0.4375,2.828125 -1.3125,2.828125 -0.703125,0 -1.21875,-1.25 -1.21875,-2.78125 0,-1.53125 0.515625,-2.765625 1.328125,-2.765625 z m -0.0625,-0.359375 c -1.34375,0 -2.125,1.421875 -2.125,3.125 0,1.6875 0.796875,3.140625 2.125,3.140625 1.34375,0 2.125,-1.453125 2.125,-3.140625 0,-1.703125 -0.765625,-3.125 -2.125,-3.125 z m 0,0"
               id="id-f1542ce8-19be-4d7b-823e-3fe966462137" />
          </g>
        </g>
      </g>
    </g>
    <g
       id="g11075"
       ns1:jacobian_sqrt="0.423334"
       ns1:inkscapeversion="1.0"
       ns1:alignment="middle center"
       ns1:scale="1.1999998866143555"
       ns1:preamble="C:\\Users\\flvisa\\Desktop\\lna\\latexify_books\\textext_preamble.tex"
       ns1:text="$\\boldsymbol{r}$"
       ns1:pdfconverter="inkscape"
       ns1:texconverter="pdflatex"
       ns1:version="1.1.0"
       transform="matrix(0.423334,0,0,0.423334,139.50232,105.37344)"
       style="fill:#3d677b">
      <defs
         id="id-21885417-ccc9-45fd-ad0f-8e810959a848">
        <g
           id="id-10116a31-7bb5-4fd2-bb6f-99711bf46ca6">
          <symbol
             overflow="visible"
             id="id-a5762e95-6c56-4fdb-a89c-0b733329475e">
            <path
               style="stroke:none"
               d=""
               id="id-004097e0-d902-4818-bde3-2ef0fe8cecb5" />
          </symbol>
          <symbol
             overflow="visible"
             id="id-b25d1a1f-9f40-456c-96c8-a413b294862b">
            <path
               style="stroke:none"
               d="m 3.765625,-4.5 c -0.546875,0 -1.40625,1.015625 -1.65625,1.953125 0,0 0.109375,-0.53125 0.140625,-0.640625 C 2.265625,-3.296875 2.328125,-3.65625 2.328125,-3.78125 2.328125,-4.25 2.0625,-4.5 1.671875,-4.5 c -0.546875,0 -1.390625,0.875 -1.5625,1.203125 0,0.0625 0.0625,0.265625 0.140625,0.265625 0.03125,-0.0625 0.5,-0.59375 0.71875,-0.59375 0.09375,0 0.140625,0.109375 0.140625,0.203125 0,0.046875 -0.03125,0.28125 -0.046875,0.328125 L 0.46875,0 C 0.59375,0.03125 0.953125,0.0625 1.0625,0.0625 1.171875,0.0625 1.53125,0.03125 1.625,0 L 1.828125,-0.921875 C 2.109375,-2.1875 2.875,-3.46875 3.15625,-3.46875 c 0.15625,0 0.171875,0.03125 0.265625,0.078125 0.125,0.0625 0.265625,0.1875 0.46875,0.1875 0.265625,0 0.578125,-0.25 0.578125,-0.71875 0,-0.1875 -0.078125,-0.359375 -0.15625,-0.453125 C 4.140625,-4.46875 4.046875,-4.5 3.765625,-4.5 Z m 0,0"
               id="id-ff58081f-cbc5-4f58-ac90-62df3b809e30" />
          </symbol>
        </g>
      </defs>
      <g
         id="id-60693b61-ac66-49ca-bc40-1ac85b695118"
         transform="translate(-148.821,-130.265)"
         style="fill:#3d677b">
        <g
           style="fill:#3d677b;fill-opacity:1"
           id="id-5fc54b14-9264-4096-8e47-8f88f8f81f94">
          <g
             id="g11071"
             transform="translate(148.712,134.765)"
             style="fill:#3d677b">
            <path
               style="fill:#3d677b;stroke:none"
               d="m 3.765625,-4.5 c -0.546875,0 -1.40625,1.015625 -1.65625,1.953125 0,0 0.109375,-0.53125 0.140625,-0.640625 C 2.265625,-3.296875 2.328125,-3.65625 2.328125,-3.78125 2.328125,-4.25 2.0625,-4.5 1.671875,-4.5 c -0.546875,0 -1.390625,0.875 -1.5625,1.203125 0,0.0625 0.0625,0.265625 0.140625,0.265625 0.03125,-0.0625 0.5,-0.59375 0.71875,-0.59375 0.09375,0 0.140625,0.109375 0.140625,0.203125 0,0.046875 -0.03125,0.28125 -0.046875,0.328125 L 0.46875,0 C 0.59375,0.03125 0.953125,0.0625 1.0625,0.0625 1.171875,0.0625 1.53125,0.03125 1.625,0 L 1.828125,-0.921875 C 2.109375,-2.1875 2.875,-3.46875 3.15625,-3.46875 c 0.15625,0 0.171875,0.03125 0.265625,0.078125 0.125,0.0625 0.265625,0.1875 0.46875,0.1875 0.265625,0 0.578125,-0.25 0.578125,-0.71875 0,-0.1875 -0.078125,-0.359375 -0.15625,-0.453125 C 4.140625,-4.46875 4.046875,-4.5 3.765625,-4.5 Z m 0,0"
               id="id-ad3c4050-de56-4c78-abb6-e56fc87f6f43" />
          </g>
        </g>
      </g>
    </g>
    <g
       id="g11721"
       style="fill:#c28f48;stroke-width:0"
       ns1:jacobian_sqrt="0.423334"
       ns1:inkscapeversion="1.0"
       ns1:alignment="middle center"
       ns1:scale="1.199999858267946"
       ns1:preamble="C:\\Users\\flvisa\\Desktop\\lna\\latexify_books\\textext_preamble.tex"
       ns1:text="$\\boldsymbol{r}+\\mathrm{d}\\boldsymbol{r}$"
       ns1:pdfconverter="inkscape"
       ns1:texconverter="pdflatex"
       ns1:version="1.1.0"
       transform="matrix(0.423334,0,0,0.423334,143.046,109.635)">
      <defs
         id="id-9352b34b-86f3-41b5-b43a-7c707b4f9113">
        <g
           style="fill:#0066ff;stroke-width:0"
           id="id-6209ee91-3440-4e08-8528-dd1d57996704">
          <symbol
             style="fill:#0066ff;stroke-width:0"
             overflow="visible"
             id="id-6af41626-640b-48ca-a5ae-4a10d9ec31c5">
            <path
               style="fill:#0066ff;stroke:none;stroke-width:0"
               d=""
               id="id-bf09c0ce-52c0-45b3-a75a-9cc0e1ce94f4" />
          </symbol>
          <symbol
             style="fill:#0066ff;stroke-width:0"
             overflow="visible"
             id="id-e6c4c36c-8c46-44e8-a797-5d1f3fd84f46">
            <path
               style="fill:#0066ff;stroke:none;stroke-width:0"
               d="m 3.765625,-4.5 c -0.546875,0 -1.40625,1.015625 -1.65625,1.953125 0,0 0.109375,-0.53125 0.140625,-0.640625 C 2.265625,-3.296875 2.328125,-3.65625 2.328125,-3.78125 2.328125,-4.25 2.0625,-4.5 1.671875,-4.5 c -0.546875,0 -1.390625,0.875 -1.5625,1.203125 0,0.0625 0.0625,0.265625 0.140625,0.265625 0.03125,-0.0625 0.5,-0.59375 0.71875,-0.59375 0.09375,0 0.140625,0.109375 0.140625,0.203125 0,0.046875 -0.03125,0.28125 -0.046875,0.328125 L 0.46875,0 C 0.59375,0.03125 0.953125,0.0625 1.0625,0.0625 1.171875,0.0625 1.53125,0.03125 1.625,0 L 1.828125,-0.921875 C 2.109375,-2.1875 2.875,-3.46875 3.15625,-3.46875 c 0.15625,0 0.171875,0.03125 0.265625,0.078125 0.125,0.0625 0.265625,0.1875 0.46875,0.1875 0.265625,0 0.578125,-0.25 0.578125,-0.71875 0,-0.1875 -0.078125,-0.359375 -0.15625,-0.453125 C 4.140625,-4.46875 4.046875,-4.5 3.765625,-4.5 Z m 0,0"
               id="id-a6dd4f32-578b-4cee-84a0-8184cfdc57f4" />
          </symbol>
          <symbol
             style="fill:#0066ff;stroke-width:0"
             overflow="visible"
             id="id-c0d150d8-b8b9-4255-8185-8416bf403bb1">
            <path
               style="fill:#0066ff;stroke:none;stroke-width:0"
               d=""
               id="id-9092a750-6982-43be-b44a-3433b0623790" />
          </symbol>
          <symbol
             style="fill:#0066ff;stroke-width:0"
             overflow="visible"
             id="id-dead0dd5-d33f-40c3-9c1a-9845c72b221f">
            <path
               style="fill:#0066ff;stroke:none;stroke-width:0"
               d="m 2.484375,-2.84375 h -2.1875 v 0.65625 h 2.1875 V 0 h 0.65625 v -2.1875 h 2.1875 v -0.65625 h -2.1875 v -2.203125 h -0.65625 z m 0,0"
               id="id-9019d22e-89fb-4684-a77f-48d73addf77b" />
          </symbol>
          <symbol
             style="fill:#0066ff;stroke-width:0"
             overflow="visible"
             id="id-e749d333-5aaf-4415-a811-47de5a6adbe3">
            <path
               style="fill:#0066ff;stroke:none;stroke-width:0"
               d="M 0.5,0 H 4.484375 V -4.8125 H 0.5 Z M 1,-0.5 V -4.3125 H 3.984375 V -0.5 Z m 0,0"
               id="id-5ca3a04b-ad43-404e-96bc-9d5aa0a9239a" />
          </symbol>
          <symbol
             style="fill:#0066ff;stroke-width:0"
             overflow="visible"
             id="id-84917f6f-da75-4070-a177-8dd1b6ca10c2">
            <path
               style="fill:#0066ff;stroke:none;stroke-width:0"
               d="m 2.75,-4.359375 c -0.890625,0 -2.359375,1 -2.359375,2.3125 0,1.203125 0.828125,2.125 1.75,2.125 0.46875,0 1.15625,-0.421875 1.3125,-0.59375 0.015625,-0.015625 0.03125,0.015625 0.03125,0.0625 v 0.34375 c 0,0.0625 0.015625,0.1875 0.078125,0.1875 0,0 0.765625,-0.25 1.28125,-0.28125 0.046875,0 0.078125,-0.109375 0.078125,-0.140625 0,-0.03125 -0.015625,-0.109375 -0.03125,-0.109375 -0.03125,-0.015625 -0.5,0 -0.59375,-0.171875 -0.0625,-0.140625 -0.0625,-0.578125 -0.0625,-0.953125 v -4.1875 c 0,-0.53125 0.109375,-0.84375 0.109375,-0.84375 0,-0.0625 -0.0625,-0.15625 -0.109375,-0.15625 -0.421875,0.1875 -0.921875,0.328125 -1.40625,0.375 -0.03125,0.015625 -0.015625,0.265625 0,0.265625 0.265625,0 0.546875,0.03125 0.59375,0.15625 0.0625,0.109375 0.0625,0.359375 0.0625,0.484375 v 1.03125 c 0,0.109375 -0.015625,0.1875 -0.0625,0.1875 C 3.328125,-4.3125 2.953125,-4.359375 2.75,-4.359375 Z m -0.328125,0.40625 c 0.5625,0 1.0625,0.265625 1.0625,0.484375 v 2.546875 c 0,0.15625 -0.421875,0.390625 -0.875,0.390625 -0.90625,0 -1.40625,-0.8125 -1.40625,-1.765625 0,-0.84375 0.46875,-1.65625 1.21875,-1.65625 z m 0,0"
               id="id-704b95d6-ce8c-4563-b8eb-73ec4dbe5612" />
          </symbol>
        </g>
      </defs>
      <g
         style="fill:#c28f48;stroke-width:0"
         id="id-f989ba48-4a50-4b13-b1c7-a7d020e56ef2"
         transform="translate(-148.821,-127.999)">
        <g
           style="fill:#c28f48;fill-opacity:1;stroke-width:0"
           id="id-38c1d51a-01b6-455e-bd16-f9143a3058f3">
          <g
             id="g11705"
             style="fill:#c28f48;stroke-width:0"
             transform="translate(148.712,134.765)">
            <path
               style="fill:#c28f48;stroke:none;stroke-width:0"
               d="m 3.765625,-4.5 c -0.546875,0 -1.40625,1.015625 -1.65625,1.953125 0,0 0.109375,-0.53125 0.140625,-0.640625 C 2.265625,-3.296875 2.328125,-3.65625 2.328125,-3.78125 2.328125,-4.25 2.0625,-4.5 1.671875,-4.5 c -0.546875,0 -1.390625,0.875 -1.5625,1.203125 0,0.0625 0.0625,0.265625 0.140625,0.265625 0.03125,-0.0625 0.5,-0.59375 0.71875,-0.59375 0.09375,0 0.140625,0.109375 0.140625,0.203125 0,0.046875 -0.03125,0.28125 -0.046875,0.328125 L 0.46875,0 C 0.59375,0.03125 0.953125,0.0625 1.0625,0.0625 1.171875,0.0625 1.53125,0.03125 1.625,0 L 1.828125,-0.921875 C 2.109375,-2.1875 2.875,-3.46875 3.15625,-3.46875 c 0.15625,0 0.171875,0.03125 0.265625,0.078125 0.125,0.0625 0.265625,0.1875 0.46875,0.1875 0.265625,0 0.578125,-0.25 0.578125,-0.71875 0,-0.1875 -0.078125,-0.359375 -0.15625,-0.453125 C 4.140625,-4.46875 4.046875,-4.5 3.765625,-4.5 Z m 0,0"
               id="id-2bb96d2c-dbbc-44b9-a3d6-2803968ed4a2" />
          </g>
        </g>
        <g
           style="fill:#c28f48;fill-opacity:1;stroke-width:0"
           id="id-0c0ed45f-1be3-4e80-9741-fb81552f451d">
          <g
             id="g11709"
             style="fill:#c28f48;stroke-width:0"
             transform="translate(155.703,134.765)">
            <path
               style="fill:#c28f48;stroke:none;stroke-width:0"
               d="m 2.484375,-2.84375 h -2.1875 v 0.65625 h 2.1875 V 0 h 0.65625 v -2.1875 h 2.1875 v -0.65625 h -2.1875 v -2.203125 h -0.65625 z m 0,0"
               id="id-ff94f54e-b0a0-472f-9650-14e29d5e0b80" />
          </g>
        </g>
        <g
           style="fill:#c28f48;fill-opacity:1;stroke-width:0"
           id="id-a8e2fefc-ed53-4525-a31b-393ae75924e3">
          <g
             id="g11713"
             style="fill:#c28f48;stroke-width:0"
             transform="translate(163.536,134.765)">
            <path
               style="fill:#c28f48;stroke:none;stroke-width:0"
               d="m 2.75,-4.359375 c -0.890625,0 -2.359375,1 -2.359375,2.3125 0,1.203125 0.828125,2.125 1.75,2.125 0.46875,0 1.15625,-0.421875 1.3125,-0.59375 0.015625,-0.015625 0.03125,0.015625 0.03125,0.0625 v 0.34375 c 0,0.0625 0.015625,0.1875 0.078125,0.1875 0,0 0.765625,-0.25 1.28125,-0.28125 0.046875,0 0.078125,-0.109375 0.078125,-0.140625 0,-0.03125 -0.015625,-0.109375 -0.03125,-0.109375 -0.03125,-0.015625 -0.5,0 -0.59375,-0.171875 -0.0625,-0.140625 -0.0625,-0.578125 -0.0625,-0.953125 v -4.1875 c 0,-0.53125 0.109375,-0.84375 0.109375,-0.84375 0,-0.0625 -0.0625,-0.15625 -0.109375,-0.15625 -0.421875,0.1875 -0.921875,0.328125 -1.40625,0.375 -0.03125,0.015625 -0.015625,0.265625 0,0.265625 0.265625,0 0.546875,0.03125 0.59375,0.15625 0.0625,0.109375 0.0625,0.359375 0.0625,0.484375 v 1.03125 c 0,0.109375 -0.015625,0.1875 -0.0625,0.1875 C 3.328125,-4.3125 2.953125,-4.359375 2.75,-4.359375 Z m -0.328125,0.40625 c 0.5625,0 1.0625,0.265625 1.0625,0.484375 v 2.546875 c 0,0.15625 -0.421875,0.390625 -0.875,0.390625 -0.90625,0 -1.40625,-0.8125 -1.40625,-1.765625 0,-0.84375 0.46875,-1.65625 1.21875,-1.65625 z m 0,0"
               id="id-31e4ef36-ed18-48f6-935b-1cdfd5f1ee25" />
          </g>
        </g>
        <g
           style="fill:#c28f48;fill-opacity:1;stroke-width:0"
           id="id-4ea041ab-b47f-45f4-99b7-fc19ec4b987a">
          <g
             id="g11717"
             style="fill:#c28f48;stroke-width:0"
             transform="translate(168.597,134.765)">
            <path
               style="fill:#c28f48;stroke:none;stroke-width:0"
               d="m 3.765625,-4.5 c -0.546875,0 -1.40625,1.015625 -1.65625,1.953125 0,0 0.109375,-0.53125 0.140625,-0.640625 C 2.265625,-3.296875 2.328125,-3.65625 2.328125,-3.78125 2.328125,-4.25 2.0625,-4.5 1.671875,-4.5 c -0.546875,0 -1.390625,0.875 -1.5625,1.203125 0,0.0625 0.0625,0.265625 0.140625,0.265625 0.03125,-0.0625 0.5,-0.59375 0.71875,-0.59375 0.09375,0 0.140625,0.109375 0.140625,0.203125 0,0.046875 -0.03125,0.28125 -0.046875,0.328125 L 0.46875,0 C 0.59375,0.03125 0.953125,0.0625 1.0625,0.0625 1.171875,0.0625 1.53125,0.03125 1.625,0 L 1.828125,-0.921875 C 2.109375,-2.1875 2.875,-3.46875 3.15625,-3.46875 c 0.15625,0 0.171875,0.03125 0.265625,0.078125 0.125,0.0625 0.265625,0.1875 0.46875,0.1875 0.265625,0 0.578125,-0.25 0.578125,-0.71875 0,-0.1875 -0.078125,-0.359375 -0.15625,-0.453125 C 4.140625,-4.46875 4.046875,-4.5 3.765625,-4.5 Z m 0,0"
               id="id-458921ce-f4cf-4cfd-8d0b-32c7e91b26b2" />
          </g>
        </g>
      </g>
    </g>
    <g
       id="g12172"
       style="fill:#a6a7a3;stroke-width:0"
       ns1:jacobian_sqrt="0.423334"
       ns1:inkscapeversion="1.0"
       ns1:alignment="middle center"
       ns1:scale="1.1999998299215373"
       ns1:preamble="C:\\Users\\flvisa\\Desktop\\lna\\latexify_books\\textext_preamble.tex"
       ns1:text="$\\mathrm{d}\\boldsymbol{r}$"
       ns1:pdfconverter="inkscape"
       ns1:texconverter="pdflatex"
       ns1:version="1.1.0"
       transform="matrix(0.423334,0,0,0.423334,148.64618,98.303439)">
      <defs
         id="id-d210e38f-e4e3-47bc-8642-d18863a84408">
        <g
           style="fill:#0066ff;stroke-width:0"
           id="id-461713d6-1c1e-4037-8f07-64d1035aad86">
          <symbol
             style="fill:#0066ff;stroke-width:0"
             overflow="visible"
             id="id-33470d01-a871-4e21-aa9f-20669654ab0e">
            <path
               style="fill:#0066ff;stroke:none;stroke-width:0"
               d="M 0.5,0 H 4.484375 V -4.8125 H 0.5 Z M 1,-0.5 V -4.3125 H 3.984375 V -0.5 Z m 0,0"
               id="id-db355bc2-061f-4cd6-8cb0-cfb8a8264346" />
          </symbol>
          <symbol
             style="fill:#0066ff;stroke-width:0"
             overflow="visible"
             id="id-f38dff3a-2b9a-4b5d-9333-89675935a9a5">
            <path
               style="fill:#0066ff;stroke:none;stroke-width:0"
               d="m 2.75,-4.359375 c -0.890625,0 -2.359375,1 -2.359375,2.3125 0,1.203125 0.828125,2.125 1.75,2.125 0.46875,0 1.15625,-0.421875 1.3125,-0.59375 0.015625,-0.015625 0.03125,0.015625 0.03125,0.0625 v 0.34375 c 0,0.0625 0.015625,0.1875 0.078125,0.1875 0,0 0.765625,-0.25 1.28125,-0.28125 0.046875,0 0.078125,-0.109375 0.078125,-0.140625 0,-0.03125 -0.015625,-0.109375 -0.03125,-0.109375 -0.03125,-0.015625 -0.5,0 -0.59375,-0.171875 -0.0625,-0.140625 -0.0625,-0.578125 -0.0625,-0.953125 v -4.1875 c 0,-0.53125 0.109375,-0.84375 0.109375,-0.84375 0,-0.0625 -0.0625,-0.15625 -0.109375,-0.15625 -0.421875,0.1875 -0.921875,0.328125 -1.40625,0.375 -0.03125,0.015625 -0.015625,0.265625 0,0.265625 0.265625,0 0.546875,0.03125 0.59375,0.15625 0.0625,0.109375 0.0625,0.359375 0.0625,0.484375 v 1.03125 c 0,0.109375 -0.015625,0.1875 -0.0625,0.1875 C 3.328125,-4.3125 2.953125,-4.359375 2.75,-4.359375 Z m -0.328125,0.40625 c 0.5625,0 1.0625,0.265625 1.0625,0.484375 v 2.546875 c 0,0.15625 -0.421875,0.390625 -0.875,0.390625 -0.90625,0 -1.40625,-0.8125 -1.40625,-1.765625 0,-0.84375 0.46875,-1.65625 1.21875,-1.65625 z m 0,0"
               id="id-daf78fc9-e954-4e79-9a51-88156ebdb1ad" />
          </symbol>
          <symbol
             style="fill:#0066ff;stroke-width:0"
             overflow="visible"
             id="id-2678ec2a-fc22-4c73-8ffb-235a461f4c49">
            <path
               style="fill:#0066ff;stroke:none;stroke-width:0"
               d=""
               id="id-2800b2f2-69ac-48da-9d5e-b177dbf9568b" />
          </symbol>
          <symbol
             style="fill:#0066ff;stroke-width:0"
             overflow="visible"
             id="id-c953cd67-b9b8-4763-85db-5459da9a675a">
            <path
               style="fill:#0066ff;stroke:none;stroke-width:0"
               d="m 3.765625,-4.5 c -0.546875,0 -1.40625,1.015625 -1.65625,1.953125 0,0 0.109375,-0.53125 0.140625,-0.640625 C 2.265625,-3.296875 2.328125,-3.65625 2.328125,-3.78125 2.328125,-4.25 2.0625,-4.5 1.671875,-4.5 c -0.546875,0 -1.390625,0.875 -1.5625,1.203125 0,0.0625 0.0625,0.265625 0.140625,0.265625 0.03125,-0.0625 0.5,-0.59375 0.71875,-0.59375 0.09375,0 0.140625,0.109375 0.140625,0.203125 0,0.046875 -0.03125,0.28125 -0.046875,0.328125 L 0.46875,0 C 0.59375,0.03125 0.953125,0.0625 1.0625,0.0625 1.171875,0.0625 1.53125,0.03125 1.625,0 L 1.828125,-0.921875 C 2.109375,-2.1875 2.875,-3.46875 3.15625,-3.46875 c 0.15625,0 0.171875,0.03125 0.265625,0.078125 0.125,0.0625 0.265625,0.1875 0.46875,0.1875 0.265625,0 0.578125,-0.25 0.578125,-0.71875 0,-0.1875 -0.078125,-0.359375 -0.15625,-0.453125 C 4.140625,-4.46875 4.046875,-4.5 3.765625,-4.5 Z m 0,0"
               id="id-d69ae96e-990e-43e0-93ed-469700b278e1" />
          </symbol>
        </g>
      </defs>
      <g
         style="fill:#a6a7a3;stroke-width:0"
         id="id-c67efe56-7dfd-4e36-bd90-8f6c3fbd41f0"
         transform="translate(-149.103,-127.999)">
        <g
           style="fill:#a6a7a3;fill-opacity:1;stroke-width:0"
           id="id-a8216c98-06f1-4834-bf16-99198c13a385">
          <g
             id="g12164"
             style="fill:#a6a7a3;stroke-width:0"
             transform="translate(148.712,134.765)">
            <path
               style="fill:#a6a7a3;stroke:none;stroke-width:0"
               d="m 2.75,-4.359375 c -0.890625,0 -2.359375,1 -2.359375,2.3125 0,1.203125 0.828125,2.125 1.75,2.125 0.46875,0 1.15625,-0.421875 1.3125,-0.59375 0.015625,-0.015625 0.03125,0.015625 0.03125,0.0625 v 0.34375 c 0,0.0625 0.015625,0.1875 0.078125,0.1875 0,0 0.765625,-0.25 1.28125,-0.28125 0.046875,0 0.078125,-0.109375 0.078125,-0.140625 0,-0.03125 -0.015625,-0.109375 -0.03125,-0.109375 -0.03125,-0.015625 -0.5,0 -0.59375,-0.171875 -0.0625,-0.140625 -0.0625,-0.578125 -0.0625,-0.953125 v -4.1875 c 0,-0.53125 0.109375,-0.84375 0.109375,-0.84375 0,-0.0625 -0.0625,-0.15625 -0.109375,-0.15625 -0.421875,0.1875 -0.921875,0.328125 -1.40625,0.375 -0.03125,0.015625 -0.015625,0.265625 0,0.265625 0.265625,0 0.546875,0.03125 0.59375,0.15625 0.0625,0.109375 0.0625,0.359375 0.0625,0.484375 v 1.03125 c 0,0.109375 -0.015625,0.1875 -0.0625,0.1875 C 3.328125,-4.3125 2.953125,-4.359375 2.75,-4.359375 Z m -0.328125,0.40625 c 0.5625,0 1.0625,0.265625 1.0625,0.484375 v 2.546875 c 0,0.15625 -0.421875,0.390625 -0.875,0.390625 -0.90625,0 -1.40625,-0.8125 -1.40625,-1.765625 0,-0.84375 0.46875,-1.65625 1.21875,-1.65625 z m 0,0"
               id="id-0ab8dd9b-c95e-49ed-8fbd-d1dd2351cb30" />
          </g>
        </g>
        <g
           style="fill:#a6a7a3;fill-opacity:1;stroke-width:0"
           id="id-0e7730b3-b9e0-4458-b1c4-f607b8265755">
          <g
             id="g12168"
             style="fill:#a6a7a3;stroke-width:0"
             transform="translate(153.773,134.765)">
            <path
               style="fill:#a6a7a3;stroke:none;stroke-width:0"
               d="m 3.765625,-4.5 c -0.546875,0 -1.40625,1.015625 -1.65625,1.953125 0,0 0.109375,-0.53125 0.140625,-0.640625 C 2.265625,-3.296875 2.328125,-3.65625 2.328125,-3.78125 2.328125,-4.25 2.0625,-4.5 1.671875,-4.5 c -0.546875,0 -1.390625,0.875 -1.5625,1.203125 0,0.0625 0.0625,0.265625 0.140625,0.265625 0.03125,-0.0625 0.5,-0.59375 0.71875,-0.59375 0.09375,0 0.140625,0.109375 0.140625,0.203125 0,0.046875 -0.03125,0.28125 -0.046875,0.328125 L 0.46875,0 C 0.59375,0.03125 0.953125,0.0625 1.0625,0.0625 1.171875,0.0625 1.53125,0.03125 1.625,0 L 1.828125,-0.921875 C 2.109375,-2.1875 2.875,-3.46875 3.15625,-3.46875 c 0.15625,0 0.171875,0.03125 0.265625,0.078125 0.125,0.0625 0.265625,0.1875 0.46875,0.1875 0.265625,0 0.578125,-0.25 0.578125,-0.71875 0,-0.1875 -0.078125,-0.359375 -0.15625,-0.453125 C 4.140625,-4.46875 4.046875,-4.5 3.765625,-4.5 Z m 0,0"
               id="id-905b73e4-7166-48ec-912a-9fae07600a3c" />
          </g>
        </g>
      </g>
    </g>
    <g
       style="fill:#9a4832"
       id="g12896"
       ns1:jacobian_sqrt="0.423334"
       ns1:inkscapeversion="1.0"
       ns1:alignment="middle center"
       ns1:scale="1.1999998299215373"
       ns1:preamble="C:\\Users\\flvisa\\Desktop\\lna\\latexify_books\\textext_preamble.tex"
       ns1:text="$\\boldsymbol{v}$"
       ns1:pdfconverter="inkscape"
       ns1:texconverter="pdflatex"
       ns1:version="1.1.0"
       transform="matrix(0.423334,0,0,0.423334,165.73748,103.00908)">
      <defs
         id="id-7c0d5fe1-6e55-496e-afd8-8ac19f25f469">
        <g
           id="id-56f6e111-9932-4857-897c-e703f06d62e4">
          <symbol
             overflow="visible"
             id="id-500c1210-6c31-4e92-825b-081d477ae394">
            <path
               style="stroke:none"
               d=""
               id="id-7c0ea3e8-3db2-4df8-a31b-5194f13147d1" />
          </symbol>
          <symbol
             overflow="visible"
             id="id-c1cdd50a-43ec-4582-8d1c-73f0e6b53210">
            <path
               style="stroke:none"
               d="m 1.453125,0.0625 c 1.796875,0 3.3125,-2.140625 3.3125,-3.734375 C 4.765625,-4.0625 4.546875,-4.5 4.09375,-4.5 c -0.296875,0 -0.703125,0.34375 -0.78125,0.578125 0.15625,0.15625 0.25,0.390625 0.25,0.59375 0,0.21875 -0.015625,0.546875 -0.109375,0.890625 -0.140625,0.546875 -0.34375,1.703125 -1.171875,1.703125 -0.3125,0 -0.53125,-0.109375 -0.53125,-0.3125 0,-0.5625 0.515625,-2.484375 0.515625,-2.921875 0,-0.28125 -0.234375,-0.53125 -0.5,-0.53125 -0.609375,0 -1.5,0.875 -1.640625,1.09375 0,0.0625 0.078125,0.171875 0.109375,0.171875 0.03125,-0.03125 0.421875,-0.53125 0.6875,-0.53125 0.140625,0 0.140625,0.171875 0.140625,0.25 l -0.421875,2.0625 C 0.5625,-1.09375 0.46875,-0.71875 0.46875,-0.53125 c 0,0.484375 0.515625,0.59375 0.984375,0.59375 z m 0,0"
               id="id-3081f977-f667-41b1-b562-42e3638544db" />
          </symbol>
        </g>
      </defs>
      <g
         style="fill:#9a4832"
         id="id-80026685-4308-456a-8f4c-85d0cbf57f6c"
         transform="translate(-148.638,-130.265)">
        <g
           style="fill:#9a4832;fill-opacity:1"
           id="id-a9c93bb5-0332-49cf-93f9-09cc4e05e240">
          <g
             style="fill:#9a4832"
             id="g12892"
             transform="translate(148.513,134.765)">
            <path
               style="fill:#9a4832;stroke:none"
               d="m 1.453125,0.0625 c 1.796875,0 3.3125,-2.140625 3.3125,-3.734375 C 4.765625,-4.0625 4.546875,-4.5 4.09375,-4.5 c -0.296875,0 -0.703125,0.34375 -0.78125,0.578125 0.15625,0.15625 0.25,0.390625 0.25,0.59375 0,0.21875 -0.015625,0.546875 -0.109375,0.890625 -0.140625,0.546875 -0.34375,1.703125 -1.171875,1.703125 -0.3125,0 -0.53125,-0.109375 -0.53125,-0.3125 0,-0.5625 0.515625,-2.484375 0.515625,-2.921875 0,-0.28125 -0.234375,-0.53125 -0.5,-0.53125 -0.609375,0 -1.5,0.875 -1.640625,1.09375 0,0.0625 0.078125,0.171875 0.109375,0.171875 0.03125,-0.03125 0.421875,-0.53125 0.6875,-0.53125 0.140625,0 0.140625,0.171875 0.140625,0.25 l -0.421875,2.0625 C 0.5625,-1.09375 0.46875,-0.71875 0.46875,-0.53125 c 0,0.484375 0.515625,0.59375 0.984375,0.59375 z m 0,0"
               id="id-29c350a5-e2ae-4f66-83e7-a0510aa26449" />
          </g>
        </g>
      </g>
    </g>
    <path
       style="fill:none;stroke:#9a4832;stroke-width:0.529167;stroke-linecap:butt;stroke-linejoin:miter;stroke-miterlimit:4;stroke-dasharray:none;stroke-opacity:1;marker-end:url(#marker16541)"
       d="m 151.06849,103.08831 17.49414,3.29601"
       id="path6998" />
  </g>
</svg>
