<?xml version="1.0" encoding="UTF-8" standalone="no"?>
<svg
   xmlns:ns1="http://www.iki.fi/pav/software/textext/"
   xmlns:dc="http://purl.org/dc/elements/1.1/"
   xmlns:cc="http://creativecommons.org/ns#"
   xmlns:rdf="http://www.w3.org/1999/02/22-rdf-syntax-ns#"
   xmlns:svg="http://www.w3.org/2000/svg"
   xmlns="http://www.w3.org/2000/svg"
   xmlns:sodipodi="http://sodipodi.sourceforge.net/DTD/sodipodi-0.dtd"
   xmlns:inkscape="http://www.inkscape.org/namespaces/inkscape"
   width="44.918262mm"
   height="39.80917mm"
   viewBox="0 0 44.918263 39.809169"
   version="1.1"
   id="svg8"
   inkscape:version="1.0 (4035a4fb49, 2020-05-01)"
   sodipodi:docname="fig_1_25.svg">
  <defs
     id="defs2">
    <marker
       inkscape:stockid="Arrow1Send"
       orient="auto"
       refY="0"
       refX="0"
       id="marker21732"
       style="overflow:visible"
       inkscape:isstock="true">
      <path
         id="path21730"
         d="M 0,0 5,-5 -12.5,0 5,5 Z"
         style="fill:#a6a7a3;fill-opacity:1;fill-rule:evenodd;stroke:#a6a7a3;stroke-width:1pt;stroke-opacity:1"
         transform="matrix(-0.2,0,0,-0.2,-1.2,0)" />
    </marker>
    <marker
       inkscape:stockid="Arrow1Send"
       orient="auto"
       refY="0"
       refX="0"
       id="marker21722"
       style="overflow:visible"
       inkscape:isstock="true">
      <path
         id="path21720"
         d="M 0,0 5,-5 -12.5,0 5,5 Z"
         style="fill:#a6a7a3;fill-opacity:1;fill-rule:evenodd;stroke:#a6a7a3;stroke-width:1pt;stroke-opacity:1"
         transform="matrix(-0.2,0,0,-0.2,-1.2,0)" />
    </marker>
    <marker
       inkscape:stockid="Arrow1Send"
       orient="auto"
       refY="0"
       refX="0"
       id="marker21712"
       style="overflow:visible"
       inkscape:isstock="true">
      <path
         id="path21710"
         d="M 0,0 5,-5 -12.5,0 5,5 Z"
         style="fill:#9a4832;fill-opacity:1;fill-rule:evenodd;stroke:#9a4832;stroke-width:1pt;stroke-opacity:1"
         transform="matrix(-0.2,0,0,-0.2,-1.2,0)" />
    </marker>
    <marker
       inkscape:stockid="Arrow1Send"
       orient="auto"
       refY="0"
       refX="0"
       id="marker21702"
       style="overflow:visible"
       inkscape:isstock="true">
      <path
         id="path21700"
         d="M 0,0 5,-5 -12.5,0 5,5 Z"
         style="fill:#c28f48;fill-opacity:1;fill-rule:evenodd;stroke:#c28f48;stroke-width:1pt;stroke-opacity:1"
         transform="matrix(-0.2,0,0,-0.2,-1.2,0)" />
    </marker>
    <marker
       inkscape:stockid="Arrow1Send"
       orient="auto"
       refY="0"
       refX="0"
       id="marker21692"
       style="overflow:visible"
       inkscape:isstock="true">
      <path
         id="path21690"
         d="M 0,0 5,-5 -12.5,0 5,5 Z"
         style="fill:#9a4832;fill-opacity:1;fill-rule:evenodd;stroke:#9a4832;stroke-width:1pt;stroke-opacity:1"
         transform="matrix(-0.2,0,0,-0.2,-1.2,0)" />
    </marker>
    <marker
       inkscape:stockid="Arrow1Send"
       orient="auto"
       refY="0"
       refX="0"
       id="marker21682"
       style="overflow:visible"
       inkscape:isstock="true">
      <path
         id="path21680"
         d="M 0,0 5,-5 -12.5,0 5,5 Z"
         style="fill:#3d677b;fill-opacity:1;fill-rule:evenodd;stroke:#3d677b;stroke-width:1pt;stroke-opacity:1"
         transform="matrix(-0.2,0,0,-0.2,-1.2,0)" />
    </marker>
    <marker
       inkscape:stockid="Arrow1Send"
       orient="auto"
       refY="0"
       refX="0"
       id="marker21672"
       style="overflow:visible"
       inkscape:isstock="true">
      <path
         id="path21670"
         d="M 0,0 5,-5 -12.5,0 5,5 Z"
         style="fill:#000000;fill-opacity:1;fill-rule:evenodd;stroke:#000000;stroke-width:1pt;stroke-opacity:1"
         transform="matrix(-0.2,0,0,-0.2,-1.2,0)" />
    </marker>
    <marker
       inkscape:stockid="Arrow1Send"
       orient="auto"
       refY="0"
       refX="0"
       id="marker21662"
       style="overflow:visible"
       inkscape:isstock="true">
      <path
         id="path21660"
         d="M 0,0 5,-5 -12.5,0 5,5 Z"
         style="fill:#000000;fill-opacity:1;fill-rule:evenodd;stroke:#000000;stroke-width:1pt;stroke-opacity:1"
         transform="matrix(-0.2,0,0,-0.2,-1.2,0)" />
    </marker>
    <marker
       inkscape:stockid="Arrow1Mend"
       orient="auto"
       refY="0"
       refX="0"
       id="marker4051"
       style="overflow:visible"
       inkscape:isstock="true">
      <path
         id="path4049"
         d="M 0,0 5,-5 -12.5,0 5,5 Z"
         style="fill:#000000;fill-opacity:1;fill-rule:evenodd;stroke:#000000;stroke-width:1pt;stroke-opacity:1"
         transform="matrix(-0.4,0,0,-0.4,-4,0)" />
    </marker>
    <marker
       inkscape:isstock="true"
       style="overflow:visible"
       id="marker3498"
       refX="0"
       refY="0"
       orient="auto"
       inkscape:stockid="Arrow1Mend">
      <path
         transform="matrix(-0.4,0,0,-0.4,-4,0)"
         style="fill:#666666;fill-opacity:1;fill-rule:evenodd;stroke:#666666;stroke-width:1pt;stroke-opacity:1"
         d="M 0,0 5,-5 -12.5,0 5,5 Z"
         id="path3496" />
    </marker>
    <marker
       inkscape:stockid="Arrow1Mend"
       orient="auto"
       refY="0"
       refX="0"
       id="marker3444"
       style="overflow:visible"
       inkscape:isstock="true">
      <path
         id="path3442"
         d="M 0,0 5,-5 -12.5,0 5,5 Z"
         style="fill:#44aa00;fill-opacity:1;fill-rule:evenodd;stroke:#44aa00;stroke-width:1pt;stroke-opacity:1"
         transform="matrix(-0.4,0,0,-0.4,-4,0)" />
    </marker>
    <pattern
       y="0"
       x="0"
       height="6"
       width="6"
       patternUnits="userSpaceOnUse"
       id="EMFhbasepattern" />
    <g
       id="id-b2f4774c-335a-4556-a6df-830266f6d3df">
      <symbol
         overflow="visible"
         id="id-3ed520d9-15c7-417c-a138-bea0b8711605">
        <path
           style="stroke:none"
           d="M 0.5,0 H 4.484375 V -4.8125 H 0.5 Z M 1,-0.5 V -4.3125 H 3.984375 V -0.5 Z m 0,0"
           id="id-720c95d9-67b0-4850-80b8-0e6a65bc38c2" />
      </symbol>
      <symbol
         overflow="visible"
         id="id-ab269727-2c99-4ed5-96c6-bd11290be5b6">
        <path
           style="stroke:none"
           d="m 2.484375,-5.875 c 0.71875,0 1.203125,1.1875 1.203125,2.71875 0,1.515625 -0.4375,2.828125 -1.3125,2.828125 -0.703125,0 -1.21875,-1.25 -1.21875,-2.78125 0,-1.53125 0.515625,-2.765625 1.328125,-2.765625 z m -0.0625,-0.359375 c -1.34375,0 -2.125,1.421875 -2.125,3.125 0,1.6875 0.796875,3.140625 2.125,3.140625 1.34375,0 2.125,-1.453125 2.125,-3.140625 0,-1.703125 -0.765625,-3.125 -2.125,-3.125 z m 0,0"
           id="id-77e8e6fc-5ccf-4ffc-af94-244421df72bc" />
      </symbol>
    </g>
    <g
       id="id-10116a31-7bb5-4fd2-bb6f-99711bf46ca6">
      <symbol
         overflow="visible"
         id="id-a5762e95-6c56-4fdb-a89c-0b733329475e">
        <path
           style="stroke:none"
           d=""
           id="id-004097e0-d902-4818-bde3-2ef0fe8cecb5" />
      </symbol>
      <symbol
         overflow="visible"
         id="id-b25d1a1f-9f40-456c-96c8-a413b294862b">
        <path
           style="stroke:none"
           d="m 3.765625,-4.5 c -0.546875,0 -1.40625,1.015625 -1.65625,1.953125 0,0 0.109375,-0.53125 0.140625,-0.640625 C 2.265625,-3.296875 2.328125,-3.65625 2.328125,-3.78125 2.328125,-4.25 2.0625,-4.5 1.671875,-4.5 c -0.546875,0 -1.390625,0.875 -1.5625,1.203125 0,0.0625 0.0625,0.265625 0.140625,0.265625 0.03125,-0.0625 0.5,-0.59375 0.71875,-0.59375 0.09375,0 0.140625,0.109375 0.140625,0.203125 0,0.046875 -0.03125,0.28125 -0.046875,0.328125 L 0.46875,0 C 0.59375,0.03125 0.953125,0.0625 1.0625,0.0625 1.171875,0.0625 1.53125,0.03125 1.625,0 L 1.828125,-0.921875 C 2.109375,-2.1875 2.875,-3.46875 3.15625,-3.46875 c 0.15625,0 0.171875,0.03125 0.265625,0.078125 0.125,0.0625 0.265625,0.1875 0.46875,0.1875 0.265625,0 0.578125,-0.25 0.578125,-0.71875 0,-0.1875 -0.078125,-0.359375 -0.15625,-0.453125 C 4.140625,-4.46875 4.046875,-4.5 3.765625,-4.5 Z m 0,0"
           id="id-ff58081f-cbc5-4f58-ac90-62df3b809e30" />
      </symbol>
    </g>
    <g
       style="fill:#0066ff;stroke-width:0"
       id="id-b9da9494-b1f3-4d35-93bb-c0205ba99480">
      <symbol
         style="fill:#0066ff;stroke-width:0"
         overflow="visible"
         id="id-655779c7-f81b-43f0-af84-a0a6574f67c1">
        <path
           style="fill:#0066ff;stroke:none;stroke-width:0"
           d=""
           id="id-ea139a73-69a5-4e2b-a7e9-8d351b59a513" />
      </symbol>
      <symbol
         style="fill:#0066ff;stroke-width:0"
         overflow="visible"
         id="id-e1cf1cd9-5e4f-41e3-9ca7-ba16c7addbfc">
        <path
           style="fill:#0066ff;stroke:none;stroke-width:0"
           d="m 3.765625,-4.5 c -0.546875,0 -1.40625,1.015625 -1.65625,1.953125 0,0 0.109375,-0.53125 0.140625,-0.640625 C 2.265625,-3.296875 2.328125,-3.65625 2.328125,-3.78125 2.328125,-4.25 2.0625,-4.5 1.671875,-4.5 c -0.546875,0 -1.390625,0.875 -1.5625,1.203125 0,0.0625 0.0625,0.265625 0.140625,0.265625 0.03125,-0.0625 0.5,-0.59375 0.71875,-0.59375 0.09375,0 0.140625,0.109375 0.140625,0.203125 0,0.046875 -0.03125,0.28125 -0.046875,0.328125 L 0.46875,0 C 0.59375,0.03125 0.953125,0.0625 1.0625,0.0625 1.171875,0.0625 1.53125,0.03125 1.625,0 L 1.828125,-0.921875 C 2.109375,-2.1875 2.875,-3.46875 3.15625,-3.46875 c 0.15625,0 0.171875,0.03125 0.265625,0.078125 0.125,0.0625 0.265625,0.1875 0.46875,0.1875 0.265625,0 0.578125,-0.25 0.578125,-0.71875 0,-0.1875 -0.078125,-0.359375 -0.15625,-0.453125 C 4.140625,-4.46875 4.046875,-4.5 3.765625,-4.5 Z m 0,0"
           id="id-f71892b4-7d77-429a-8b91-7d89629eac7c" />
      </symbol>
      <symbol
         style="fill:#0066ff;stroke-width:0"
         overflow="visible"
         id="id-606d3576-f0cf-49a6-ba0b-777059cdf835">
        <path
           style="fill:#0066ff;stroke:none;stroke-width:0"
           d=""
           id="id-dd3f08ef-80e0-43e2-a3ff-62ba5d034b84" />
      </symbol>
      <symbol
         style="fill:#0066ff;stroke-width:0"
         overflow="visible"
         id="id-969a8b3f-e025-4dc7-8b53-4f0148475be5">
        <path
           style="fill:#0066ff;stroke:none;stroke-width:0"
           d="m 2.484375,-2.84375 h -2.1875 v 0.65625 h 2.1875 V 0 h 0.65625 v -2.1875 h 2.1875 v -0.65625 h -2.1875 v -2.203125 h -0.65625 z m 0,0"
           id="id-70d76920-5e66-4436-8a82-2366559031c9" />
      </symbol>
      <symbol
         style="fill:#0066ff;stroke-width:0"
         overflow="visible"
         id="id-07821e26-9073-4ee7-b9a8-a9a8b81f17e0">
        <path
           style="fill:#0066ff;stroke:none;stroke-width:0"
           d=""
           id="id-53c036e7-2b5a-4aba-aa3d-6f8a49ac87db" />
      </symbol>
      <symbol
         style="fill:#0066ff;stroke-width:0"
         overflow="visible"
         id="id-b4f1c22b-832d-4fc8-a760-20c4c44c9ae0">
        <path
           style="fill:#0066ff;stroke:none;stroke-width:0"
           d="m 4.34375,-0.640625 h -3.8125 c 0,0 2.78125,-4.6875 2.84375,-4.6875 0.28125,1.640625 0.6875,3.5 0.96875,4.6875 z M 3.734375,-6.609375 3.71875,-6.625 c -0.046875,0 -0.265625,0.28125 -0.3125,0.390625 -0.109375,0.25 -0.171875,0.4375 -0.328125,0.703125 -1.296875,2.140625 -3.34375,5.4375 -3.34375,5.4375 v 0.015625 C -0.265625,-0.046875 -0.25,0 -0.21875,0 c 0,0 1.90625,-0.03125 4.265625,-0.03125 0.21875,0 0.515625,0.046875 0.5625,0.078125 0.109375,-0.03125 0.4375,-0.125 0.546875,-0.375 C 4.578125,-2.890625 4.25,-4.09375 3.734375,-6.609375 Z m 0,0"
           id="id-1cc14518-f934-4abe-8eb7-ee96bd008097" />
      </symbol>
    </g>
    <g
       id="id-fce73690-5dd7-4914-a4d8-ecab6776bb22">
      <symbol
         overflow="visible"
         id="id-d6b372da-e7bc-4890-af0b-a1c9051f4682">
        <path
           style="stroke:none"
           d=""
           id="id-acb999f0-a9ef-46d9-a073-c1a117a77923" />
      </symbol>
      <symbol
         overflow="visible"
         id="id-07a9a45c-0fdd-4d40-aa8b-c5455b92d7a0">
        <path
           style="stroke:none"
           d="m 4.34375,-0.640625 h -3.8125 c 0,0 2.78125,-4.6875 2.84375,-4.6875 0.28125,1.640625 0.6875,3.5 0.96875,4.6875 z M 3.734375,-6.609375 3.71875,-6.625 c -0.046875,0 -0.265625,0.28125 -0.3125,0.390625 -0.109375,0.25 -0.171875,0.4375 -0.328125,0.703125 -1.296875,2.140625 -3.34375,5.4375 -3.34375,5.4375 v 0.015625 C -0.265625,-0.046875 -0.25,0 -0.21875,0 c 0,0 1.90625,-0.03125 4.265625,-0.03125 0.21875,0 0.515625,0.046875 0.5625,0.078125 0.109375,-0.03125 0.4375,-0.125 0.546875,-0.375 C 4.578125,-2.890625 4.25,-4.09375 3.734375,-6.609375 Z m 0,0"
           id="id-e6e07179-0543-49c4-8f1b-7304a339f774" />
      </symbol>
      <symbol
         overflow="visible"
         id="id-06e894df-3226-4799-bbf8-b0d38a534a8f">
        <path
           style="stroke:none"
           d="m 2,-4.421875 c -0.84375,0 -1.390625,0.703125 -1.390625,1.265625 0,0.578125 0.375,1 0.71875,1.375 0.265625,0.3125 0.53125,0.578125 0.53125,0.9375 0,0.21875 -0.09375,0.578125 -0.5,0.578125 C 1.09375,-0.265625 0.9375,-0.40625 0.828125,-0.5625 0.671875,-0.78125 0.59375,-1 0.390625,-1 c -0.203125,0 -0.375,0.15625 -0.375,0.453125 0,0.09375 0.078125,0.25 0.109375,0.3125 C 0.375,-0.015625 0.703125,0.0625 1,0.0625 c 0.859375,0 1.46875,-0.484375 1.46875,-1.234375 0,-0.515625 -0.3125,-0.90625 -0.609375,-1.265625 C 1.546875,-2.796875 1.1875,-3.109375 1.1875,-3.515625 c 0,-0.21875 0.140625,-0.5625 0.5,-0.5625 0.28125,0 0.359375,0.15625 0.46875,0.3125 0.140625,0.1875 0.296875,0.359375 0.46875,0.359375 0.203125,0 0.359375,-0.1875 0.359375,-0.421875 0,-0.0625 -0.0625,-0.25 -0.109375,-0.3125 C 2.65625,-4.328125 2.40625,-4.421875 2,-4.421875 Z m 0,0"
           id="id-0b3b1719-5fce-44a0-aa4f-38159ff9761a" />
      </symbol>
    </g>
    <g
       style="fill:#0066ff;stroke-width:0"
       id="id-64fc657f-e1ae-412c-ab9e-76d6c8ff3e06">
      <symbol
         style="fill:#0066ff;stroke-width:0"
         overflow="visible"
         id="id-c11c960d-fcf3-4af5-81be-c9c9068b6b6e">
        <path
           style="fill:#0066ff;stroke:none;stroke-width:0"
           d=""
           id="id-d6ba9e38-d61b-4211-93c0-6ae63ea48eb1" />
      </symbol>
      <symbol
         style="fill:#0066ff;stroke-width:0"
         overflow="visible"
         id="id-c2120dbc-0068-4710-b888-5a9886efd220">
        <path
           style="fill:#0066ff;stroke:none;stroke-width:0"
           d="m 4.34375,-0.640625 h -3.8125 c 0,0 2.78125,-4.6875 2.84375,-4.6875 0.28125,1.640625 0.6875,3.5 0.96875,4.6875 z M 3.734375,-6.609375 3.71875,-6.625 c -0.046875,0 -0.265625,0.28125 -0.3125,0.390625 -0.109375,0.25 -0.171875,0.4375 -0.328125,0.703125 -1.296875,2.140625 -3.34375,5.4375 -3.34375,5.4375 v 0.015625 C -0.265625,-0.046875 -0.25,0 -0.21875,0 c 0,0 1.90625,-0.03125 4.265625,-0.03125 0.21875,0 0.515625,0.046875 0.5625,0.078125 0.109375,-0.03125 0.4375,-0.125 0.546875,-0.375 C 4.578125,-2.890625 4.25,-4.09375 3.734375,-6.609375 Z m 0,0"
           id="id-f8a8188a-5bda-4833-8918-3faedf122f01" />
      </symbol>
      <symbol
         style="fill:#0066ff;stroke-width:0"
         overflow="visible"
         id="id-b29616f5-385e-4a46-a4cf-9aed0157c4ad">
        <path
           style="fill:#0066ff;stroke:none;stroke-width:0"
           d=""
           id="id-be0f9202-844a-4cd0-bee1-c68566f0cfa8" />
      </symbol>
      <symbol
         style="fill:#0066ff;stroke-width:0"
         overflow="visible"
         id="id-cc36fb47-01d5-4938-9648-267eb069b4c6">
        <path
           style="fill:#0066ff;stroke:none;stroke-width:0"
           d="m 3.765625,-4.5 c -0.546875,0 -1.40625,1.015625 -1.65625,1.953125 0,0 0.109375,-0.53125 0.140625,-0.640625 C 2.265625,-3.296875 2.328125,-3.65625 2.328125,-3.78125 2.328125,-4.25 2.0625,-4.5 1.671875,-4.5 c -0.546875,0 -1.390625,0.875 -1.5625,1.203125 0,0.0625 0.0625,0.265625 0.140625,0.265625 0.03125,-0.0625 0.5,-0.59375 0.71875,-0.59375 0.09375,0 0.140625,0.109375 0.140625,0.203125 0,0.046875 -0.03125,0.28125 -0.046875,0.328125 L 0.46875,0 C 0.59375,0.03125 0.953125,0.0625 1.0625,0.0625 1.171875,0.0625 1.53125,0.03125 1.625,0 L 1.828125,-0.921875 C 2.109375,-2.1875 2.875,-3.46875 3.15625,-3.46875 c 0.15625,0 0.171875,0.03125 0.265625,0.078125 0.125,0.0625 0.265625,0.1875 0.46875,0.1875 0.265625,0 0.578125,-0.25 0.578125,-0.71875 0,-0.1875 -0.078125,-0.359375 -0.15625,-0.453125 C 4.140625,-4.46875 4.046875,-4.5 3.765625,-4.5 Z m 0,0"
           id="id-9c4a346b-f31d-4600-b5a4-56dd8edc4f0e" />
      </symbol>
    </g>
    <marker
       inkscape:stockid="Arrow1Mend"
       orient="auto"
       refY="0"
       refX="0"
       id="marker3498-3"
       style="overflow:visible"
       inkscape:isstock="true">
      <path
         id="path3496-9"
         d="M 0,0 5,-5 -12.5,0 5,5 Z"
         style="fill:#666666;fill-opacity:1;fill-rule:evenodd;stroke:#666666;stroke-width:1pt;stroke-opacity:1"
         transform="matrix(-0.4,0,0,-0.4,-4,0)" />
    </marker>
    <marker
       inkscape:isstock="true"
       style="overflow:visible"
       id="marker3498-3-9"
       refX="0"
       refY="0"
       orient="auto"
       inkscape:stockid="Arrow1Mend">
      <path
         transform="matrix(-0.4,0,0,-0.4,-4,0)"
         style="fill:#000000;fill-opacity:1;fill-rule:evenodd;stroke:#000000;stroke-width:1pt;stroke-opacity:1"
         d="M 0,0 5,-5 -12.5,0 5,5 Z"
         id="path3496-9-3" />
    </marker>
    <marker
       inkscape:stockid="Arrow1Mend"
       orient="auto"
       refY="0"
       refX="0"
       id="marker3498-0"
       style="overflow:visible"
       inkscape:isstock="true">
      <path
         id="path3496-5"
         d="M 0,0 5,-5 -12.5,0 5,5 Z"
         style="fill:#000000;fill-opacity:1;fill-rule:evenodd;stroke:#000000;stroke-width:1pt;stroke-opacity:1"
         transform="matrix(-0.4,0,0,-0.4,-4,0)" />
    </marker>
    <marker
       inkscape:stockid="Arrow1Mend"
       orient="auto"
       refY="0"
       refX="0"
       id="marker3498-3-9-4"
       style="overflow:visible"
       inkscape:isstock="true">
      <path
         id="path3496-9-3-6"
         d="M 0,0 5,-5 -12.5,0 5,5 Z"
         style="fill:#0066ff;fill-opacity:1;fill-rule:evenodd;stroke:#0066ff;stroke-width:1pt;stroke-opacity:1"
         transform="matrix(-0.4,0,0,-0.4,-4,0)" />
    </marker>
    <g
       id="id-45d76c81-febb-4be6-94db-b68c1a72082d-2">
      <symbol
         id="id-55632850-be62-4f3d-81cb-e435ee19fb98-6"
         overflow="visible">
        <path
           id="id-7d19b862-1400-4489-9fcb-07cae1fad945-7"
           d=""
           style="stroke:none" />
      </symbol>
      <symbol
         id="id-ca9da0e0-b405-47b5-87cd-846c2973cbe8-9"
         overflow="visible">
        <path
           id="id-8c6a882d-44ae-41f7-ac0a-4b764fb7c52b-9"
           d="m 1.453125,0.0625 c 1.796875,0 3.3125,-2.140625 3.3125,-3.734375 C 4.765625,-4.0625 4.546875,-4.5 4.09375,-4.5 c -0.296875,0 -0.703125,0.34375 -0.78125,0.578125 0.15625,0.15625 0.25,0.390625 0.25,0.59375 0,0.21875 -0.015625,0.546875 -0.109375,0.890625 -0.140625,0.546875 -0.34375,1.703125 -1.171875,1.703125 -0.3125,0 -0.53125,-0.109375 -0.53125,-0.3125 0,-0.5625 0.515625,-2.484375 0.515625,-2.921875 0,-0.28125 -0.234375,-0.53125 -0.5,-0.53125 -0.609375,0 -1.5,0.875 -1.640625,1.09375 0,0.0625 0.078125,0.171875 0.109375,0.171875 0.03125,-0.03125 0.421875,-0.53125 0.6875,-0.53125 0.140625,0 0.140625,0.171875 0.140625,0.25 l -0.421875,2.0625 C 0.5625,-1.09375 0.46875,-0.71875 0.46875,-0.53125 c 0,0.484375 0.515625,0.59375 0.984375,0.59375 z m 0,0"
           style="stroke:none" />
      </symbol>
      <symbol
         id="id-630b5161-1b15-4231-928a-24095ef3091e-4"
         overflow="visible">
        <path
           id="id-92a4b81a-3075-4f2a-94df-627e560cd7b6-9"
           d=""
           style="stroke:none" />
      </symbol>
      <symbol
         id="id-d81d85b3-5936-4331-b186-6af3bd44d5a3-5"
         overflow="visible">
        <path
           id="id-4bce2c7a-7551-45ed-ba4a-cb8b5997b44f-5"
           d="m 2.265625,-3.203125 c -0.359375,0 -0.875,0.90625 -1.078125,1.390625 0.046875,-0.234375 0.078125,-0.375 0.125,-0.609375 0.03125,-0.171875 0.046875,-0.34375 0.046875,-0.390625 0,-0.21875 -0.109375,-0.390625 -0.28125,-0.390625 -0.34375,0 -0.84375,0.5625 -0.921875,0.703125 0,0.03125 0.046875,0.125 0.0625,0.125 0.03125,-0.015625 0.359375,-0.421875 0.515625,-0.421875 0.078125,0 0.078125,0.125 0.078125,0.1875 0,0.03125 -0.03125,0.1875 -0.03125,0.234375 L 0.34375,0 C 0.4375,0.015625 0.515625,0.015625 0.625,0.015625 c 0.078125,0 0.15625,0 0.234375,-0.015625 L 1.03125,-0.890625 c 0.140625,-0.765625 0.75,-1.796875 1.015625,-1.796875 0.0625,0 0.125,0.03125 0.15625,0.0625 0.0625,0.0625 0.15625,0.109375 0.21875,0.109375 0.171875,0 0.265625,-0.140625 0.265625,-0.328125 0,-0.0625 -0.046875,-0.171875 -0.078125,-0.203125 -0.0625,-0.0625 -0.1875,-0.15625 -0.34375,-0.15625 z m 0,0"
           style="stroke:none" />
      </symbol>
    </g>
    <g
       id="id-45d76c81-febb-4be6-94db-b68c1a72082d-5">
      <symbol
         id="id-55632850-be62-4f3d-81cb-e435ee19fb98-3"
         overflow="visible">
        <path
           id="id-7d19b862-1400-4489-9fcb-07cae1fad945-0"
           d=""
           style="stroke:none" />
      </symbol>
      <symbol
         id="id-ca9da0e0-b405-47b5-87cd-846c2973cbe8-7"
         overflow="visible">
        <path
           id="id-8c6a882d-44ae-41f7-ac0a-4b764fb7c52b-5"
           d="m 1.453125,0.0625 c 1.796875,0 3.3125,-2.140625 3.3125,-3.734375 C 4.765625,-4.0625 4.546875,-4.5 4.09375,-4.5 c -0.296875,0 -0.703125,0.34375 -0.78125,0.578125 0.15625,0.15625 0.25,0.390625 0.25,0.59375 0,0.21875 -0.015625,0.546875 -0.109375,0.890625 -0.140625,0.546875 -0.34375,1.703125 -1.171875,1.703125 -0.3125,0 -0.53125,-0.109375 -0.53125,-0.3125 0,-0.5625 0.515625,-2.484375 0.515625,-2.921875 0,-0.28125 -0.234375,-0.53125 -0.5,-0.53125 -0.609375,0 -1.5,0.875 -1.640625,1.09375 0,0.0625 0.078125,0.171875 0.109375,0.171875 0.03125,-0.03125 0.421875,-0.53125 0.6875,-0.53125 0.140625,0 0.140625,0.171875 0.140625,0.25 l -0.421875,2.0625 C 0.5625,-1.09375 0.46875,-0.71875 0.46875,-0.53125 c 0,0.484375 0.515625,0.59375 0.984375,0.59375 z m 0,0"
           style="stroke:none" />
      </symbol>
      <symbol
         id="id-630b5161-1b15-4231-928a-24095ef3091e-6"
         overflow="visible">
        <path
           id="id-92a4b81a-3075-4f2a-94df-627e560cd7b6-4"
           d=""
           style="stroke:none" />
      </symbol>
      <symbol
         id="id-d81d85b3-5936-4331-b186-6af3bd44d5a3-4"
         overflow="visible">
        <path
           id="id-4bce2c7a-7551-45ed-ba4a-cb8b5997b44f-2"
           d="m 2.265625,-3.203125 c -0.359375,0 -0.875,0.90625 -1.078125,1.390625 0.046875,-0.234375 0.078125,-0.375 0.125,-0.609375 0.03125,-0.171875 0.046875,-0.34375 0.046875,-0.390625 0,-0.21875 -0.109375,-0.390625 -0.28125,-0.390625 -0.34375,0 -0.84375,0.5625 -0.921875,0.703125 0,0.03125 0.046875,0.125 0.0625,0.125 0.03125,-0.015625 0.359375,-0.421875 0.515625,-0.421875 0.078125,0 0.078125,0.125 0.078125,0.1875 0,0.03125 -0.03125,0.1875 -0.03125,0.234375 L 0.34375,0 C 0.4375,0.015625 0.515625,0.015625 0.625,0.015625 c 0.078125,0 0.15625,0 0.234375,-0.015625 L 1.03125,-0.890625 c 0.140625,-0.765625 0.75,-1.796875 1.015625,-1.796875 0.0625,0 0.125,0.03125 0.15625,0.0625 0.0625,0.0625 0.15625,0.109375 0.21875,0.109375 0.171875,0 0.265625,-0.140625 0.265625,-0.328125 0,-0.0625 -0.046875,-0.171875 -0.078125,-0.203125 -0.0625,-0.0625 -0.1875,-0.15625 -0.34375,-0.15625 z m 0,0"
           style="stroke:none" />
      </symbol>
    </g>
  </defs>
  <sodipodi:namedview
     id="base"
     pagecolor="#ffffff"
     bordercolor="#666666"
     borderopacity="1.0"
     inkscape:pageopacity="0.0"
     inkscape:pageshadow="2"
     inkscape:zoom="3.959798"
     inkscape:cx="101.35849"
     inkscape:cy="79.261759"
     inkscape:document-units="mm"
     inkscape:current-layer="layer1"
     inkscape:document-rotation="0"
     showgrid="false"
     inkscape:window-width="1600"
     inkscape:window-height="837"
     inkscape:window-x="-8"
     inkscape:window-y="-8"
     inkscape:window-maximized="1"
     fit-margin-top="0"
     fit-margin-left="0"
     fit-margin-right="0"
     fit-margin-bottom="0" />
  <metadata
     id="metadata5">
    <rdf:RDF>
      <cc:Work
         rdf:about="">
        <dc:format>image/svg+xml</dc:format>
        <dc:type
           rdf:resource="http://purl.org/dc/dcmitype/StillImage" />
        <dc:title></dc:title>
      </cc:Work>
    </rdf:RDF>
  </metadata>
  <g
     inkscape:label="Layer 1"
     inkscape:groupmode="layer"
     id="layer1"
     transform="translate(-69.765875,-37.923743)">
    <g
       id="g11075"
       ns1:jacobian_sqrt="0.423334"
       ns1:inkscapeversion="1.0"
       ns1:alignment="middle center"
       ns1:scale="1.1999998866143555"
       ns1:preamble="C:\\Users\\flvisa\\Desktop\\lna\\latexify_books\\textext_preamble.tex"
       ns1:text="$\\boldsymbol{r}$"
       ns1:pdfconverter="inkscape"
       ns1:texconverter="pdflatex"
       ns1:version="1.1.0"
       transform="matrix(0.42333399,0,0,0.42333399,93.639798,59.97966)"
       style="fill:#3d677b">
      <defs
         id="id-21885417-ccc9-45fd-ad0f-8e810959a848">
        <g
           id="g3174">
          <symbol
             overflow="visible"
             id="symbol3168">
            <path
               style="stroke:none"
               d=""
               id="path3166" />
          </symbol>
          <symbol
             overflow="visible"
             id="symbol3172">
            <path
               style="stroke:none"
               d="m 3.765625,-4.5 c -0.546875,0 -1.40625,1.015625 -1.65625,1.953125 0,0 0.109375,-0.53125 0.140625,-0.640625 C 2.265625,-3.296875 2.328125,-3.65625 2.328125,-3.78125 2.328125,-4.25 2.0625,-4.5 1.671875,-4.5 c -0.546875,0 -1.390625,0.875 -1.5625,1.203125 0,0.0625 0.0625,0.265625 0.140625,0.265625 0.03125,-0.0625 0.5,-0.59375 0.71875,-0.59375 0.09375,0 0.140625,0.109375 0.140625,0.203125 0,0.046875 -0.03125,0.28125 -0.046875,0.328125 L 0.46875,0 C 0.59375,0.03125 0.953125,0.0625 1.0625,0.0625 1.171875,0.0625 1.53125,0.03125 1.625,0 L 1.828125,-0.921875 C 2.109375,-2.1875 2.875,-3.46875 3.15625,-3.46875 c 0.15625,0 0.171875,0.03125 0.265625,0.078125 0.125,0.0625 0.265625,0.1875 0.46875,0.1875 0.265625,0 0.578125,-0.25 0.578125,-0.71875 0,-0.1875 -0.078125,-0.359375 -0.15625,-0.453125 C 4.140625,-4.46875 4.046875,-4.5 3.765625,-4.5 Z m 0,0"
               id="path3170" />
          </symbol>
        </g>
      </defs>
      <g
         id="id-60693b61-ac66-49ca-bc40-1ac85b695118"
         transform="translate(-148.821,-130.265)"
         style="fill:#3d677b">
        <g
           style="fill:#3d677b;fill-opacity:1"
           id="id-5fc54b14-9264-4096-8e47-8f88f8f81f94">
          <g
             id="g11071"
             transform="translate(148.712,134.765)"
             style="fill:#3d677b">
            <path
               style="fill:#3d677b;stroke:none"
               d="m 3.765625,-4.5 c -0.546875,0 -1.40625,1.015625 -1.65625,1.953125 0,0 0.109375,-0.53125 0.140625,-0.640625 C 2.265625,-3.296875 2.328125,-3.65625 2.328125,-3.78125 2.328125,-4.25 2.0625,-4.5 1.671875,-4.5 c -0.546875,0 -1.390625,0.875 -1.5625,1.203125 0,0.0625 0.0625,0.265625 0.140625,0.265625 0.03125,-0.0625 0.5,-0.59375 0.71875,-0.59375 0.09375,0 0.140625,0.109375 0.140625,0.203125 0,0.046875 -0.03125,0.28125 -0.046875,0.328125 L 0.46875,0 C 0.59375,0.03125 0.953125,0.0625 1.0625,0.0625 1.171875,0.0625 1.53125,0.03125 1.625,0 L 1.828125,-0.921875 C 2.109375,-2.1875 2.875,-3.46875 3.15625,-3.46875 c 0.15625,0 0.171875,0.03125 0.265625,0.078125 0.125,0.0625 0.265625,0.1875 0.46875,0.1875 0.265625,0 0.578125,-0.25 0.578125,-0.71875 0,-0.1875 -0.078125,-0.359375 -0.15625,-0.453125 C 4.140625,-4.46875 4.046875,-4.5 3.765625,-4.5 Z m 0,0"
               id="id-ad3c4050-de56-4c78-abb6-e56fc87f6f43" />
          </g>
        </g>
      </g>
    </g>
    <path
       style="fill:none;stroke:#000000;stroke-width:0.352778;stroke-linecap:butt;stroke-linejoin:miter;stroke-miterlimit:4;stroke-dasharray:none;stroke-opacity:1;marker-end:url(#marker21662)"
       d="M 77.579613,73.988839 V 38.553572"
       id="path3372" />
    <path
       style="fill:none;stroke:#000000;stroke-width:0.352778;stroke-linecap:butt;stroke-linejoin:miter;stroke-miterlimit:4;stroke-dasharray:none;stroke-opacity:1;marker-end:url(#marker21672)"
       d="M 77.579613,73.988839 H 114.05431"
       id="path3414" />
    <path
       style="fill:none;stroke:#000000;stroke-width:0.270869px;stroke-linecap:butt;stroke-linejoin:miter;stroke-opacity:1"
       d="m 84.786826,67.35176 c 3.127992,3.13623 2.754663,6.690999 2.754663,6.690999"
       id="path3647"
       sodipodi:nodetypes="cc" />
    <path
       style="fill:none;stroke:#d3c7b1;stroke-width:0.352778;stroke-linecap:butt;stroke-linejoin:miter;stroke-miterlimit:4;stroke-dasharray:1.05833, 0.352778;stroke-dashoffset:0;stroke-opacity:1"
       d="m 86.910898,45.026413 4.913691,-4.512091 10.205361,9.638393"
       id="path4002" />
    <g
       id="g4323"
       ns1:jacobian_sqrt="0.423334"
       ns1:inkscapeversion="1.0"
       ns1:alignment="middle center"
       ns1:scale="1.1999998299215373"
       ns1:preamble="C:\\Users\\flvisa\\Desktop\\lna\\latexify_books\\textext_preamble.tex"
       ns1:text="$y$"
       ns1:pdfconverter="inkscape"
       ns1:texconverter="pdflatex"
       ns1:version="1.1.0"
       transform="matrix(0.423334,0,0,0.423334,73.712423,38.68212)">
      <defs
         id="id-eb79caf1-e584-4a36-8216-f684648887c6">
        <g
           id="id-ad22f273-44ea-4ad6-8e54-0f1f69f06030">
          <symbol
             overflow="visible"
             id="id-098abe00-67e2-488b-ac67-e721616f5aa3">
            <path
               style="stroke:none"
               d=""
               id="id-9cb908f0-ddb9-415d-b548-95166b58541a" />
          </symbol>
          <symbol
             overflow="visible"
             id="id-eb5b737c-558e-4d19-9c03-d4a34a0f044f">
            <path
               style="stroke:none"
               d="m 1.328125,-4.390625 c -0.46875,0 -1.15625,0.765625 -1.265625,0.953125 0,0.0625 0.0625,0.1875 0.09375,0.1875 0.03125,-0.03125 0.484375,-0.59375 0.71875,-0.59375 0.484375,0 0.59375,2.0625 0.59375,3.21875 v 0.453125 c 0,0.375 -0.015625,0.78125 -0.171875,1.015625 -0.328125,0.484375 -0.75,0.84375 -1.375,0.84375 -0.21875,0 -0.65625,-0.109375 -0.8125,-0.1875 -0.140625,0.078125 -0.21875,0.28125 -0.21875,0.4375 0,0.21875 0.234375,0.421875 0.59375,0.421875 1.359375,0 4.609375,-3.578125 4.609375,-5.953125 0,-0.21875 -0.03125,-0.796875 -0.453125,-0.796875 -0.234375,0 -0.421875,0.171875 -0.5,0.4375 0.109375,0.21875 0.25,0.46875 0.25,1.078125 0,1.09375 -0.796875,2.28125 -1.15625,2.71875 0,-0.609375 -0.03125,-4.234375 -0.90625,-4.234375 z m 0,0"
               id="id-49ed9668-b669-40d1-9cdc-76efd250f57a" />
          </symbol>
        </g>
      </defs>
      <g
         id="id-08679c2b-f8b3-4556-ae7b-c241c53a53fc"
         transform="translate(-148.6,-130.374)">
        <g
           style="fill:#000000;fill-opacity:1"
           id="id-67d87485-4e47-49cc-af0f-5ebc1e71a002">
          <g
             id="g4319"
             transform="translate(149.709,134.765)">
            <path
               style="stroke:none"
               d="m 1.328125,-4.390625 c -0.46875,0 -1.15625,0.765625 -1.265625,0.953125 0,0.0625 0.0625,0.1875 0.09375,0.1875 0.03125,-0.03125 0.484375,-0.59375 0.71875,-0.59375 0.484375,0 0.59375,2.0625 0.59375,3.21875 v 0.453125 c 0,0.375 -0.015625,0.78125 -0.171875,1.015625 -0.328125,0.484375 -0.75,0.84375 -1.375,0.84375 -0.21875,0 -0.65625,-0.109375 -0.8125,-0.1875 -0.140625,0.078125 -0.21875,0.28125 -0.21875,0.4375 0,0.21875 0.234375,0.421875 0.59375,0.421875 1.359375,0 4.609375,-3.578125 4.609375,-5.953125 0,-0.21875 -0.03125,-0.796875 -0.453125,-0.796875 -0.234375,0 -0.421875,0.171875 -0.5,0.4375 0.109375,0.21875 0.25,0.46875 0.25,1.078125 0,1.09375 -0.796875,2.28125 -1.15625,2.71875 0,-0.609375 -0.03125,-4.234375 -0.90625,-4.234375 z m 0,0"
               id="id-1a71075b-1ddb-4809-9e93-94cd8d1795f2" />
          </g>
        </g>
      </g>
    </g>
    <g
       id="g4451"
       ns1:jacobian_sqrt="0.423334"
       ns1:inkscapeversion="1.0"
       ns1:alignment="middle center"
       ns1:scale="1.1999998299215373"
       ns1:preamble="C:\\Users\\flvisa\\Desktop\\lna\\latexify_books\\textext_preamble.tex"
       ns1:text="$x$"
       ns1:pdfconverter="inkscape"
       ns1:texconverter="pdflatex"
       ns1:version="1.1.0"
       transform="matrix(0.423334,0,0,0.423334,112.2631,75.85421)">
      <defs
         id="id-5589be16-5bd1-47a4-ad71-43f15ed85568">
        <g
           id="id-86409c94-0a41-48f8-acc0-0b7f38a96125">
          <symbol
             overflow="visible"
             id="id-3e5318a0-9f20-48f6-a656-96ac3b1a26d4">
            <path
               style="stroke:none"
               d=""
               id="id-f6c17fb7-6300-483f-97c1-087fc8ca3a76" />
          </symbol>
          <symbol
             overflow="visible"
             id="id-d7f8fdb9-dd08-48bd-a3fc-e57b75657b0f">
            <path
               style="stroke:none"
               d="M 2.984375,-0.890625 2.65625,-2.46875 c 0.1875,-0.375 0.375,-0.671875 0.609375,-1.0625 0.0625,-0.125 0.140625,-0.234375 0.265625,-0.234375 H 3.5625 c 0.21875,0.015625 0.265625,0.28125 0.46875,0.28125 0.21875,0 0.359375,-0.203125 0.359375,-0.4375 0,-0.15625 -0.046875,-0.265625 -0.109375,-0.34375 -0.15625,-0.09375 -0.328125,-0.125 -0.46875,-0.125 -0.515625,0 -0.78125,0.671875 -1.234375,1.5625 L 2.4375,-3.515625 c -0.109375,-0.546875 -0.390625,-0.875 -0.6875,-0.875 -0.453125,0 -1.15625,0.796875 -1.234375,0.9375 0,0.046875 0.078125,0.1875 0.109375,0.1875 0.109375,-0.140625 0.5625,-0.578125 0.765625,-0.578125 0.171875,0 0.28125,0.171875 0.3125,0.390625 l 0.28125,1.40625 c -0.25,0.484375 -0.421875,0.78125 -0.6875,1.25 C 1.21875,-0.671875 1.140625,-0.5625 1,-0.5625 H 0.984375 c -0.21875,-0.03125 -0.25,-0.296875 -0.453125,-0.296875 -0.234375,0 -0.375,0.21875 -0.375,0.453125 0,0.140625 0.046875,0.25 0.109375,0.34375 0.15625,0.09375 0.328125,0.109375 0.46875,0.109375 0.5625,0 0.828125,-0.765625 1.328125,-1.734375 L 2.25,-0.828125 c 0.109375,0.53125 0.375,0.875 0.6875,0.875 0.4375,0 1.15625,-0.796875 1.234375,-0.9375 C 4.171875,-0.9375 4.09375,-1.0625 4.0625,-1.0625 3.953125,-0.921875 3.5,-0.53125 3.328125,-0.53125 c -0.21875,0 -0.3125,-0.140625 -0.34375,-0.359375 z m 0,0"
               id="id-0c7db942-6921-476f-ad4e-7b1d6515e373" />
          </symbol>
        </g>
      </defs>
      <g
         id="id-d68d9aae-7eac-4e4c-a2a4-7693f771dc99"
         transform="translate(-149.167,-130.374)">
        <g
           style="fill:#000000;fill-opacity:1"
           id="id-d40fbae8-ca64-49a8-83e6-0b6b4de8e6b2">
          <g
             id="g4447"
             transform="translate(149.011,134.765)">
            <path
               style="stroke:none"
               d="M 2.984375,-0.890625 2.65625,-2.46875 c 0.1875,-0.375 0.375,-0.671875 0.609375,-1.0625 0.0625,-0.125 0.140625,-0.234375 0.265625,-0.234375 H 3.5625 c 0.21875,0.015625 0.265625,0.28125 0.46875,0.28125 0.21875,0 0.359375,-0.203125 0.359375,-0.4375 0,-0.15625 -0.046875,-0.265625 -0.109375,-0.34375 -0.15625,-0.09375 -0.328125,-0.125 -0.46875,-0.125 -0.515625,0 -0.78125,0.671875 -1.234375,1.5625 L 2.4375,-3.515625 c -0.109375,-0.546875 -0.390625,-0.875 -0.6875,-0.875 -0.453125,0 -1.15625,0.796875 -1.234375,0.9375 0,0.046875 0.078125,0.1875 0.109375,0.1875 0.109375,-0.140625 0.5625,-0.578125 0.765625,-0.578125 0.171875,0 0.28125,0.171875 0.3125,0.390625 l 0.28125,1.40625 c -0.25,0.484375 -0.421875,0.78125 -0.6875,1.25 C 1.21875,-0.671875 1.140625,-0.5625 1,-0.5625 H 0.984375 c -0.21875,-0.03125 -0.25,-0.296875 -0.453125,-0.296875 -0.234375,0 -0.375,0.21875 -0.375,0.453125 0,0.140625 0.046875,0.25 0.109375,0.34375 0.15625,0.09375 0.328125,0.109375 0.46875,0.109375 0.5625,0 0.828125,-0.765625 1.328125,-1.734375 L 2.25,-0.828125 c 0.109375,0.53125 0.375,0.875 0.6875,0.875 0.4375,0 1.15625,-0.796875 1.234375,-0.9375 C 4.171875,-0.9375 4.09375,-1.0625 4.0625,-1.0625 3.953125,-0.921875 3.5,-0.53125 3.328125,-0.53125 c -0.21875,0 -0.3125,-0.140625 -0.34375,-0.359375 z m 0,0"
               id="id-911734d0-e331-4066-9ee9-03d553cb032a" />
          </g>
        </g>
      </g>
    </g>
    <g
       id="g4584"
       ns1:jacobian_sqrt="0.423334"
       ns1:inkscapeversion="1.0"
       ns1:alignment="middle center"
       ns1:scale="1.1999998299215373"
       ns1:preamble="C:\\Users\\flvisa\\Desktop\\lna\\latexify_books\\textext_preamble.tex"
       ns1:text="$\\varphi$"
       ns1:pdfconverter="inkscape"
       ns1:texconverter="pdflatex"
       ns1:version="1.1.0"
       transform="matrix(0.423334,0,0,0.423334,83.129149,70.303148)">
      <defs
         id="id-2a47a0c3-e116-4183-a785-536f94fa5515">
        <g
           id="id-df056b95-2605-4811-b845-d2f5f054b993">
          <symbol
             overflow="visible"
             id="id-b1692076-fc44-411a-add5-6ff4cfc05e37">
            <path
               style="stroke:none"
               d=""
               id="id-416264c3-8424-455c-b08a-e9cb3158a499" />
          </symbol>
          <symbol
             overflow="visible"
             id="id-4a67404b-75fc-4670-9acc-c419c7566e0c">
            <path
               style="stroke:none"
               d="m 4.6875,-2.828125 c 0,-0.875 -0.421875,-1.53125 -0.953125,-1.53125 -0.859375,0 -1.375,0.90625 -1.765625,2.9375 L 1.8125,-0.5625 H 1.75 c -0.78125,0 -1.125,-0.28125 -1.125,-0.921875 0,-1.15625 1.234375,-2.359375 2.0625,-2.484375 V -4 c 0,-0.234375 -0.390625,-0.359375 -0.625,-0.359375 -0.484375,0 -1.828125,1.375 -1.828125,2.796875 0,0.890625 0.5,1.546875 1.453125,1.65625 L 1.328125,1.9375 v 0.015625 c 0,0.15625 0.421875,0.34375 0.46875,0.34375 0.09375,0 0.171875,-0.0625 0.25,-0.15625 V 2.03125 C 2.046875,1.6875 2.140625,0.75 2.25,0.109375 3.59375,-0.09375 4.6875,-1.28125 4.6875,-2.828125 Z m -2.359375,2.21875 c 0.1875,-1.171875 0.5,-3.203125 1.390625,-3.203125 0.390625,0 0.609375,0.28125 0.609375,0.734375 0,1.171875 -0.875,2.328125 -2,2.46875 z m 0,0"
               id="id-26e5b65b-612d-45d5-8441-8f2424e842e1" />
          </symbol>
        </g>
      </defs>
      <g
         id="id-b904808a-d243-4cb6-ae7f-12858f167596"
         transform="translate(-149.225,-130.406)">
        <g
           style="fill:#000000;fill-opacity:1"
           id="id-6e03db3f-df81-4916-9395-e466d6a5b247">
          <g
             id="g4580"
             transform="translate(148.991,134.765)">
            <path
               style="stroke:none"
               d="m 4.6875,-2.828125 c 0,-0.875 -0.421875,-1.53125 -0.953125,-1.53125 -0.859375,0 -1.375,0.90625 -1.765625,2.9375 L 1.8125,-0.5625 H 1.75 c -0.78125,0 -1.125,-0.28125 -1.125,-0.921875 0,-1.15625 1.234375,-2.359375 2.0625,-2.484375 V -4 c 0,-0.234375 -0.390625,-0.359375 -0.625,-0.359375 -0.484375,0 -1.828125,1.375 -1.828125,2.796875 0,0.890625 0.5,1.546875 1.453125,1.65625 L 1.328125,1.9375 v 0.015625 c 0,0.15625 0.421875,0.34375 0.46875,0.34375 0.09375,0 0.171875,-0.0625 0.25,-0.15625 V 2.03125 C 2.046875,1.6875 2.140625,0.75 2.25,0.109375 3.59375,-0.09375 4.6875,-1.28125 4.6875,-2.828125 Z m -2.359375,2.21875 c 0.1875,-1.171875 0.5,-3.203125 1.390625,-3.203125 0.390625,0 0.609375,0.28125 0.609375,0.734375 0,1.171875 -0.875,2.328125 -2,2.46875 z m 0,0"
               id="id-25556bff-0f85-42c9-87f2-82abd85ea134" />
          </g>
        </g>
      </g>
    </g>
    <g
       id="g4744"
       ns1:jacobian_sqrt="0.423334"
       ns1:inkscapeversion="1.0"
       ns1:alignment="middle center"
       ns1:scale="1.1999998299215373"
       ns1:preamble="C:\\Users\\flvisa\\Desktop\\lna\\latexify_books\\textext_preamble.tex"
       ns1:text="$\\hat{\\boldsymbol{e}}_r$"
       ns1:pdfconverter="inkscape"
       ns1:texconverter="pdflatex"
       ns1:version="1.1.0"
       transform="matrix(0.423334,0,0,0.423334,79.077346,65.665194)"
       style="fill:#a6a7a3">
      <defs
         id="id-bc75792a-45b8-40ff-8e41-ce2b87abb5a1">
        <g
           id="id-264d0087-7a16-4377-8b01-f23ac5702b7f">
          <symbol
             overflow="visible"
             id="id-61844fb4-555c-496b-b4cd-dd85506873dd">
            <path
               style="stroke:none"
               d="M 0.5,0 H 4.484375 V -4.8125 H 0.5 Z M 1,-0.5 V -4.3125 H 3.984375 V -0.5 Z m 0,0"
               id="id-6dbc26a4-3889-4ffd-a07a-b2201428d041" />
          </symbol>
          <symbol
             overflow="visible"
             id="id-dac6771f-6895-45ca-b8ff-ad1c1ef5e45a">
            <path
               style="stroke:none"
               d="m 1.5,-6.546875 c -0.03125,0 -0.078125,0.046875 -0.109375,0.09375 C 1.0625,-5.90625 0.875,-5.65625 0.484375,-5.15625 c 0,0.0625 0.046875,0.125 0.109375,0.125 0.328125,-0.265625 0.90625,-0.75 0.90625,-0.75 0,0 0.546875,0.453125 0.921875,0.75 0.046875,0 0.109375,-0.0625 0.109375,-0.125 -0.375,-0.5 -0.59375,-0.75 -0.921875,-1.296875 C 1.578125,-6.5 1.546875,-6.546875 1.5,-6.546875 Z m 0,0"
               id="id-43c7788a-82d4-4367-8986-f75807d7303f" />
          </symbol>
          <symbol
             overflow="visible"
             id="id-b11b254e-fcec-4138-ad82-4be18ce8c2b7">
            <path
               style="stroke:none"
               d=""
               id="id-513e56f0-4a7e-42e8-82cc-257bee46422d" />
          </symbol>
          <symbol
             overflow="visible"
             id="id-39408bf5-ca97-46ce-a538-397cc9868f84">
            <path
               style="stroke:none"
               d="m 2.6875,-4.5 c -1.15625,0 -2.53125,1.609375 -2.53125,3.09375 0,0.9375 0.453125,1.46875 1.15625,1.46875 0.625,0 1.734375,-0.96875 1.875,-1.1875 0,-0.0625 -0.0625,-0.296875 -0.15625,-0.296875 -0.03125,0.03125 -0.5625,0.65625 -1.015625,0.65625 -0.5,0 -0.609375,-0.5 -0.609375,-0.875 0,-0.046875 0.015625,-0.21875 0.015625,-0.25 0.625,0 2.375,-0.65625 2.375,-1.6875 C 3.796875,-4.28125 3.203125,-4.5 2.6875,-4.5 Z M 1.453125,-2.265625 C 1.5,-2.765625 1.859375,-4.125 2.34375,-4.125 c 0.21875,0 0.265625,0.203125 0.265625,0.390625 0,0.734375 -0.765625,1.46875 -1.15625,1.46875 z m 0,0"
               id="id-38c8ca89-1501-4ac8-be0c-7283bb20bab7" />
          </symbol>
          <symbol
             overflow="visible"
             id="id-f4d9e955-7bbf-4992-8e33-a625ad6c1fb0">
            <path
               style="stroke:none"
               d=""
               id="id-752777bf-b204-4710-b2fa-6ab302776a9e" />
          </symbol>
          <symbol
             overflow="visible"
             id="id-534fa896-8229-47e1-b10e-ae8c196699b0">
            <path
               style="stroke:none"
               d="m 2.265625,-3.203125 c -0.359375,0 -0.875,0.90625 -1.078125,1.390625 0.046875,-0.234375 0.078125,-0.375 0.125,-0.609375 0.03125,-0.171875 0.046875,-0.34375 0.046875,-0.390625 0,-0.21875 -0.109375,-0.390625 -0.28125,-0.390625 -0.34375,0 -0.84375,0.5625 -0.921875,0.703125 0,0.03125 0.046875,0.125 0.0625,0.125 0.03125,-0.015625 0.359375,-0.421875 0.515625,-0.421875 0.078125,0 0.078125,0.125 0.078125,0.1875 0,0.03125 -0.03125,0.1875 -0.03125,0.234375 L 0.34375,0 C 0.4375,0.015625 0.515625,0.015625 0.625,0.015625 c 0.078125,0 0.15625,0 0.234375,-0.015625 L 1.03125,-0.890625 c 0.140625,-0.765625 0.75,-1.796875 1.015625,-1.796875 0.0625,0 0.125,0.03125 0.15625,0.0625 0.0625,0.0625 0.15625,0.109375 0.21875,0.109375 0.171875,0 0.265625,-0.140625 0.265625,-0.328125 0,-0.0625 -0.046875,-0.171875 -0.078125,-0.203125 -0.0625,-0.0625 -0.1875,-0.15625 -0.34375,-0.15625 z m 0,0"
               id="id-762c7484-7b77-4c53-aae8-f7d421621d4d" />
          </symbol>
        </g>
      </defs>
      <g
         id="id-d25f799d-59a9-49ac-9282-668fa44c8f05"
         transform="translate(-148.968,-127.954)"
         style="fill:#a6a7a3">
        <g
           style="fill:#a6a7a3;fill-opacity:1"
           id="id-aa2625a6-6ff1-454a-ac0b-bf9d552fa829">
          <g
             id="g4732"
             transform="translate(149.225,134.501)"
             style="fill:#a6a7a3">
            <path
               style="fill:#a6a7a3;stroke:none"
               d="m 1.5,-6.546875 c -0.03125,0 -0.078125,0.046875 -0.109375,0.09375 C 1.0625,-5.90625 0.875,-5.65625 0.484375,-5.15625 c 0,0.0625 0.046875,0.125 0.109375,0.125 0.328125,-0.265625 0.90625,-0.75 0.90625,-0.75 0,0 0.546875,0.453125 0.921875,0.75 0.046875,0 0.109375,-0.0625 0.109375,-0.125 -0.375,-0.5 -0.59375,-0.75 -0.921875,-1.296875 C 1.578125,-6.5 1.546875,-6.546875 1.5,-6.546875 Z m 0,0"
               id="id-6e82403f-4fb5-49c7-a557-4999c2521f08" />
          </g>
        </g>
        <g
           style="fill:#a6a7a3;fill-opacity:1"
           id="id-d78a7d2e-5701-4265-9691-a72eef554d67">
          <g
             id="g4736"
             transform="translate(148.812,134.765)"
             style="fill:#a6a7a3">
            <path
               style="fill:#a6a7a3;stroke:none"
               d="m 2.6875,-4.5 c -1.15625,0 -2.53125,1.609375 -2.53125,3.09375 0,0.9375 0.453125,1.46875 1.15625,1.46875 0.625,0 1.734375,-0.96875 1.875,-1.1875 0,-0.0625 -0.0625,-0.296875 -0.15625,-0.296875 -0.03125,0.03125 -0.5625,0.65625 -1.015625,0.65625 -0.5,0 -0.609375,-0.5 -0.609375,-0.875 0,-0.046875 0.015625,-0.21875 0.015625,-0.25 0.625,0 2.375,-0.65625 2.375,-1.6875 C 3.796875,-4.28125 3.203125,-4.5 2.6875,-4.5 Z M 1.453125,-2.265625 C 1.5,-2.765625 1.859375,-4.125 2.34375,-4.125 c 0.21875,0 0.265625,0.203125 0.265625,0.390625 0,0.734375 -0.765625,1.46875 -1.15625,1.46875 z m 0,0"
               id="id-5ed2d4d8-2de8-4af6-a557-c41abf46c3e5" />
          </g>
        </g>
        <g
           style="fill:#a6a7a3;fill-opacity:1"
           id="id-0b9bd2b5-e3e9-44ae-92ab-78d883350adc">
          <g
             id="g4740"
             transform="translate(152.747,136.259)"
             style="fill:#a6a7a3">
            <path
               style="fill:#a6a7a3;stroke:none"
               d="m 2.265625,-3.203125 c -0.359375,0 -0.875,0.90625 -1.078125,1.390625 0.046875,-0.234375 0.078125,-0.375 0.125,-0.609375 0.03125,-0.171875 0.046875,-0.34375 0.046875,-0.390625 0,-0.21875 -0.109375,-0.390625 -0.28125,-0.390625 -0.34375,0 -0.84375,0.5625 -0.921875,0.703125 0,0.03125 0.046875,0.125 0.0625,0.125 0.03125,-0.015625 0.359375,-0.421875 0.515625,-0.421875 0.078125,0 0.078125,0.125 0.078125,0.1875 0,0.03125 -0.03125,0.1875 -0.03125,0.234375 L 0.34375,0 C 0.4375,0.015625 0.515625,0.015625 0.625,0.015625 c 0.078125,0 0.15625,0 0.234375,-0.015625 L 1.03125,-0.890625 c 0.140625,-0.765625 0.75,-1.796875 1.015625,-1.796875 0.0625,0 0.125,0.03125 0.15625,0.0625 0.0625,0.0625 0.15625,0.109375 0.21875,0.109375 0.171875,0 0.265625,-0.140625 0.265625,-0.328125 0,-0.0625 -0.046875,-0.171875 -0.078125,-0.203125 -0.0625,-0.0625 -0.1875,-0.15625 -0.34375,-0.15625 z m 0,0"
               id="id-b05b9cbb-60b3-472f-b6c2-ac0bd3fca471" />
          </g>
        </g>
      </g>
    </g>
    <g
       id="g4943"
       ns1:jacobian_sqrt="0.423334"
       ns1:inkscapeversion="1.0"
       ns1:alignment="middle center"
       ns1:scale="1.1999998299215373"
       ns1:preamble="C:\\Users\\flvisa\\Desktop\\lna\\latexify_books\\textext_preamble.tex"
       ns1:text="$\\hat{\\boldsymbol{e}}_{\\varphi}$"
       ns1:pdfconverter="inkscape"
       ns1:texconverter="pdflatex"
       ns1:version="1.1.0"
       transform="matrix(0.423334,0,0,0.423334,69.765769,68.741532)"
       style="fill:#a6a7a3">
      <defs
         id="id-778e9862-dc93-4504-9b1b-d429f4e20e39">
        <g
           id="id-470abd26-575c-4fda-bb11-bfcde3598bf6">
          <symbol
             overflow="visible"
             id="id-54557424-5142-4bd3-9ad1-559235b272e9">
            <path
               style="stroke:none"
               d="M 0.5,0 H 4.484375 V -4.8125 H 0.5 Z M 1,-0.5 V -4.3125 H 3.984375 V -0.5 Z m 0,0"
               id="id-186998f5-5ab0-4d04-8103-b37725303a3e" />
          </symbol>
          <symbol
             overflow="visible"
             id="id-9c2e2a8c-26a3-4e36-b6ee-f35a5ee18854">
            <path
               style="stroke:none"
               d="m 1.5,-6.546875 c -0.03125,0 -0.078125,0.046875 -0.109375,0.09375 C 1.0625,-5.90625 0.875,-5.65625 0.484375,-5.15625 c 0,0.0625 0.046875,0.125 0.109375,0.125 0.328125,-0.265625 0.90625,-0.75 0.90625,-0.75 0,0 0.546875,0.453125 0.921875,0.75 0.046875,0 0.109375,-0.0625 0.109375,-0.125 -0.375,-0.5 -0.59375,-0.75 -0.921875,-1.296875 C 1.578125,-6.5 1.546875,-6.546875 1.5,-6.546875 Z m 0,0"
               id="id-4f334651-c167-4838-a711-8633c9198b2c" />
          </symbol>
          <symbol
             overflow="visible"
             id="id-d959d404-4f1e-41c4-b293-3a1c58453834">
            <path
               style="stroke:none"
               d=""
               id="id-86588694-9eaa-4ad0-9342-fecaff2a016b" />
          </symbol>
          <symbol
             overflow="visible"
             id="id-1a995108-be0c-4ee2-89da-827aa0211fba">
            <path
               style="stroke:none"
               d="m 2.6875,-4.5 c -1.15625,0 -2.53125,1.609375 -2.53125,3.09375 0,0.9375 0.453125,1.46875 1.15625,1.46875 0.625,0 1.734375,-0.96875 1.875,-1.1875 0,-0.0625 -0.0625,-0.296875 -0.15625,-0.296875 -0.03125,0.03125 -0.5625,0.65625 -1.015625,0.65625 -0.5,0 -0.609375,-0.5 -0.609375,-0.875 0,-0.046875 0.015625,-0.21875 0.015625,-0.25 0.625,0 2.375,-0.65625 2.375,-1.6875 C 3.796875,-4.28125 3.203125,-4.5 2.6875,-4.5 Z M 1.453125,-2.265625 C 1.5,-2.765625 1.859375,-4.125 2.34375,-4.125 c 0.21875,0 0.265625,0.203125 0.265625,0.390625 0,0.734375 -0.765625,1.46875 -1.15625,1.46875 z m 0,0"
               id="id-9a96b3f8-37dd-4c16-8d23-73705654d898" />
          </symbol>
          <symbol
             overflow="visible"
             id="id-43360bc2-6519-4925-88ce-a3558253ddca">
            <path
               style="stroke:none"
               d=""
               id="id-0a298892-cfab-4583-a54c-6a80f3439d9d" />
          </symbol>
          <symbol
             overflow="visible"
             id="id-03c04773-c0bc-4860-9d80-62a8c09272e4">
            <path
               style="stroke:none"
               d="m 3.421875,-2.0625 c 0,-0.640625 -0.3125,-1.109375 -0.703125,-1.109375 -0.625,0 -1,0.65625 -1.28125,2.140625 l -0.109375,0.609375 h -0.0625 c -0.5625,0 -0.8125,-0.203125 -0.8125,-0.65625 0,-0.84375 0.890625,-1.71875 1.5,-1.8125 v -0.03125 c 0,-0.171875 -0.28125,-0.25 -0.453125,-0.25 -0.34375,0 -1.328125,1 -1.328125,2.03125 C 0.171875,-0.5 0.53125,0 1.234375,0.078125 L 0.96875,1.421875 c 0,0.109375 0.296875,0.25 0.34375,0.25 0.0625,0 0.125,-0.046875 0.171875,-0.109375 V 1.46875 c 0,-0.234375 0.078125,-0.921875 0.15625,-1.390625 C 2.625,-0.0625 3.421875,-0.9375 3.421875,-2.0625 Z m -1.71875,1.625 c 0.125,-0.859375 0.359375,-2.34375 1,-2.34375 0.296875,0 0.453125,0.203125 0.453125,0.546875 0,0.84375 -0.640625,1.6875 -1.453125,1.796875 z m 0,0"
               id="id-9a31f8e0-68a4-4800-b08e-214a84eb945f" />
          </symbol>
        </g>
      </defs>
      <g
         id="id-e70aa8c7-0e87-4b13-8500-4bd382caa939"
         transform="translate(-148.968,-127.954)"
         style="fill:#a6a7a3">
        <g
           style="fill:#a6a7a3;fill-opacity:1"
           id="id-25a688fa-d987-4ea5-b600-721dd5afe5ef">
          <g
             id="g4931"
             transform="translate(149.225,134.501)"
             style="fill:#a6a7a3">
            <path
               style="fill:#a6a7a3;stroke:none"
               d="m 1.5,-6.546875 c -0.03125,0 -0.078125,0.046875 -0.109375,0.09375 C 1.0625,-5.90625 0.875,-5.65625 0.484375,-5.15625 c 0,0.0625 0.046875,0.125 0.109375,0.125 0.328125,-0.265625 0.90625,-0.75 0.90625,-0.75 0,0 0.546875,0.453125 0.921875,0.75 0.046875,0 0.109375,-0.0625 0.109375,-0.125 -0.375,-0.5 -0.59375,-0.75 -0.921875,-1.296875 C 1.578125,-6.5 1.546875,-6.546875 1.5,-6.546875 Z m 0,0"
               id="id-0dccf838-34bf-45d9-845b-8b5b86c1473e" />
          </g>
        </g>
        <g
           style="fill:#a6a7a3;fill-opacity:1"
           id="id-5d3a44ad-1e38-46b4-8219-3561b329cc96">
          <g
             id="g4935"
             transform="translate(148.812,134.765)"
             style="fill:#a6a7a3">
            <path
               style="fill:#a6a7a3;stroke:none"
               d="m 2.6875,-4.5 c -1.15625,0 -2.53125,1.609375 -2.53125,3.09375 0,0.9375 0.453125,1.46875 1.15625,1.46875 0.625,0 1.734375,-0.96875 1.875,-1.1875 0,-0.0625 -0.0625,-0.296875 -0.15625,-0.296875 -0.03125,0.03125 -0.5625,0.65625 -1.015625,0.65625 -0.5,0 -0.609375,-0.5 -0.609375,-0.875 0,-0.046875 0.015625,-0.21875 0.015625,-0.25 0.625,0 2.375,-0.65625 2.375,-1.6875 C 3.796875,-4.28125 3.203125,-4.5 2.6875,-4.5 Z M 1.453125,-2.265625 C 1.5,-2.765625 1.859375,-4.125 2.34375,-4.125 c 0.21875,0 0.265625,0.203125 0.265625,0.390625 0,0.734375 -0.765625,1.46875 -1.15625,1.46875 z m 0,0"
               id="id-e4dedb4d-c995-42e9-bc20-87b38815abac" />
          </g>
        </g>
        <g
           style="fill:#a6a7a3;fill-opacity:1"
           id="id-baff1f03-0670-4178-978a-2409ef45737d">
          <g
             id="g4939"
             transform="translate(152.951,136.259)"
             style="fill:#a6a7a3">
            <path
               style="fill:#a6a7a3;stroke:none"
               d="m 3.421875,-2.0625 c 0,-0.640625 -0.3125,-1.109375 -0.703125,-1.109375 -0.625,0 -1,0.65625 -1.28125,2.140625 l -0.109375,0.609375 h -0.0625 c -0.5625,0 -0.8125,-0.203125 -0.8125,-0.65625 0,-0.84375 0.890625,-1.71875 1.5,-1.8125 v -0.03125 c 0,-0.171875 -0.28125,-0.25 -0.453125,-0.25 -0.34375,0 -1.328125,1 -1.328125,2.03125 C 0.171875,-0.5 0.53125,0 1.234375,0.078125 L 0.96875,1.421875 c 0,0.109375 0.296875,0.25 0.34375,0.25 0.0625,0 0.125,-0.046875 0.171875,-0.109375 V 1.46875 c 0,-0.234375 0.078125,-0.921875 0.15625,-1.390625 C 2.625,-0.0625 3.421875,-0.9375 3.421875,-2.0625 Z m -1.71875,1.625 c 0.125,-0.859375 0.359375,-2.34375 1,-2.34375 0.296875,0 0.453125,0.203125 0.453125,0.546875 0,0.84375 -0.640625,1.6875 -1.453125,1.796875 z m 0,0"
               id="id-03ce5ae6-f58d-4f6e-bcda-17de42cb5b02" />
          </g>
        </g>
      </g>
    </g>
    <g
       style="fill:#9a4832"
       id="g5159"
       ns1:jacobian_sqrt="0.423334"
       ns1:inkscapeversion="1.0"
       ns1:alignment="middle center"
       ns1:scale="1.1999998299215373"
       ns1:preamble="C:\\Users\\flvisa\\Desktop\\lna\\latexify_books\\textext_preamble.tex"
       ns1:text="$\\boldsymbol{v}_r$"
       ns1:pdfconverter="inkscape"
       ns1:texconverter="pdflatex"
       ns1:version="1.1.0"
       transform="matrix(0.423334,0,0,0.423334,102.05521,51.427845)">
      <defs
         id="id-76ace871-402b-4430-8669-482748dd6cd6">
        <g
           id="id-45d76c81-febb-4be6-94db-b68c1a72082d">
          <symbol
             overflow="visible"
             id="id-55632850-be62-4f3d-81cb-e435ee19fb98">
            <path
               style="stroke:none"
               d=""
               id="id-7d19b862-1400-4489-9fcb-07cae1fad945" />
          </symbol>
          <symbol
             overflow="visible"
             id="id-ca9da0e0-b405-47b5-87cd-846c2973cbe8">
            <path
               style="stroke:none"
               d="m 1.453125,0.0625 c 1.796875,0 3.3125,-2.140625 3.3125,-3.734375 C 4.765625,-4.0625 4.546875,-4.5 4.09375,-4.5 c -0.296875,0 -0.703125,0.34375 -0.78125,0.578125 0.15625,0.15625 0.25,0.390625 0.25,0.59375 0,0.21875 -0.015625,0.546875 -0.109375,0.890625 -0.140625,0.546875 -0.34375,1.703125 -1.171875,1.703125 -0.3125,0 -0.53125,-0.109375 -0.53125,-0.3125 0,-0.5625 0.515625,-2.484375 0.515625,-2.921875 0,-0.28125 -0.234375,-0.53125 -0.5,-0.53125 -0.609375,0 -1.5,0.875 -1.640625,1.09375 0,0.0625 0.078125,0.171875 0.109375,0.171875 0.03125,-0.03125 0.421875,-0.53125 0.6875,-0.53125 0.140625,0 0.140625,0.171875 0.140625,0.25 l -0.421875,2.0625 C 0.5625,-1.09375 0.46875,-0.71875 0.46875,-0.53125 c 0,0.484375 0.515625,0.59375 0.984375,0.59375 z m 0,0"
               id="id-8c6a882d-44ae-41f7-ac0a-4b764fb7c52b" />
          </symbol>
          <symbol
             overflow="visible"
             id="id-630b5161-1b15-4231-928a-24095ef3091e">
            <path
               style="stroke:none"
               d=""
               id="id-92a4b81a-3075-4f2a-94df-627e560cd7b6" />
          </symbol>
          <symbol
             overflow="visible"
             id="id-d81d85b3-5936-4331-b186-6af3bd44d5a3">
            <path
               style="stroke:none"
               d="m 2.265625,-3.203125 c -0.359375,0 -0.875,0.90625 -1.078125,1.390625 0.046875,-0.234375 0.078125,-0.375 0.125,-0.609375 0.03125,-0.171875 0.046875,-0.34375 0.046875,-0.390625 0,-0.21875 -0.109375,-0.390625 -0.28125,-0.390625 -0.34375,0 -0.84375,0.5625 -0.921875,0.703125 0,0.03125 0.046875,0.125 0.0625,0.125 0.03125,-0.015625 0.359375,-0.421875 0.515625,-0.421875 0.078125,0 0.078125,0.125 0.078125,0.1875 0,0.03125 -0.03125,0.1875 -0.03125,0.234375 L 0.34375,0 C 0.4375,0.015625 0.515625,0.015625 0.625,0.015625 c 0.078125,0 0.15625,0 0.234375,-0.015625 L 1.03125,-0.890625 c 0.140625,-0.765625 0.75,-1.796875 1.015625,-1.796875 0.0625,0 0.125,0.03125 0.15625,0.0625 0.0625,0.0625 0.15625,0.109375 0.21875,0.109375 0.171875,0 0.265625,-0.140625 0.265625,-0.328125 0,-0.0625 -0.046875,-0.171875 -0.078125,-0.203125 -0.0625,-0.0625 -0.1875,-0.15625 -0.34375,-0.15625 z m 0,0"
               id="id-4bce2c7a-7551-45ed-ba4a-cb8b5997b44f" />
          </symbol>
        </g>
      </defs>
      <g
         style="fill:#9a4832"
         id="id-2aa0571c-662b-4a45-954d-1e4c0cf0c9ab"
         transform="translate(-148.638,-130.265)">
        <g
           style="fill:#9a4832;fill-opacity:1"
           id="id-51766a15-d0ad-4262-84ab-86a7f10ff6a9">
          <g
             style="fill:#9a4832"
             id="g5151"
             transform="translate(148.513,134.765)">
            <path
               style="fill:#9a4832;stroke:none"
               d="m 1.453125,0.0625 c 1.796875,0 3.3125,-2.140625 3.3125,-3.734375 C 4.765625,-4.0625 4.546875,-4.5 4.09375,-4.5 c -0.296875,0 -0.703125,0.34375 -0.78125,0.578125 0.15625,0.15625 0.25,0.390625 0.25,0.59375 0,0.21875 -0.015625,0.546875 -0.109375,0.890625 -0.140625,0.546875 -0.34375,1.703125 -1.171875,1.703125 -0.3125,0 -0.53125,-0.109375 -0.53125,-0.3125 0,-0.5625 0.515625,-2.484375 0.515625,-2.921875 0,-0.28125 -0.234375,-0.53125 -0.5,-0.53125 -0.609375,0 -1.5,0.875 -1.640625,1.09375 0,0.0625 0.078125,0.171875 0.109375,0.171875 0.03125,-0.03125 0.421875,-0.53125 0.6875,-0.53125 0.140625,0 0.140625,0.171875 0.140625,0.25 l -0.421875,2.0625 C 0.5625,-1.09375 0.46875,-0.71875 0.46875,-0.53125 c 0,0.484375 0.515625,0.59375 0.984375,0.59375 z m 0,0"
               id="id-3cfb2524-2f2b-49b5-a653-a7b04f68ee2c" />
          </g>
        </g>
        <g
           style="fill:#9a4832;fill-opacity:1"
           id="id-b318d675-de31-44fc-a018-ef05df3d03f3">
          <g
             style="fill:#9a4832"
             id="g5155"
             transform="translate(153.579,136.259)">
            <path
               style="fill:#9a4832;stroke:none"
               d="m 2.265625,-3.203125 c -0.359375,0 -0.875,0.90625 -1.078125,1.390625 0.046875,-0.234375 0.078125,-0.375 0.125,-0.609375 0.03125,-0.171875 0.046875,-0.34375 0.046875,-0.390625 0,-0.21875 -0.109375,-0.390625 -0.28125,-0.390625 -0.34375,0 -0.84375,0.5625 -0.921875,0.703125 0,0.03125 0.046875,0.125 0.0625,0.125 0.03125,-0.015625 0.359375,-0.421875 0.515625,-0.421875 0.078125,0 0.078125,0.125 0.078125,0.1875 0,0.03125 -0.03125,0.1875 -0.03125,0.234375 L 0.34375,0 C 0.4375,0.015625 0.515625,0.015625 0.625,0.015625 c 0.078125,0 0.15625,0 0.234375,-0.015625 L 1.03125,-0.890625 c 0.140625,-0.765625 0.75,-1.796875 1.015625,-1.796875 0.0625,0 0.125,0.03125 0.15625,0.0625 0.0625,0.0625 0.15625,0.109375 0.21875,0.109375 0.171875,0 0.265625,-0.140625 0.265625,-0.328125 0,-0.0625 -0.046875,-0.171875 -0.078125,-0.203125 -0.0625,-0.0625 -0.1875,-0.15625 -0.34375,-0.15625 z m 0,0"
               id="id-95ff852a-c4ac-49e0-960c-ca5a2155cfe3" />
          </g>
        </g>
      </g>
    </g>
    <g
       style="fill:#9a4832"
       id="g5479"
       ns1:jacobian_sqrt="0.423334"
       ns1:inkscapeversion="1.0"
       ns1:alignment="middle center"
       ns1:scale="1.1999998015751292"
       ns1:preamble="C:\\Users\\flvisa\\Desktop\\lna\\latexify_books\\textext_preamble.tex"
       ns1:text="$\\boldsymbol{v}_{\\varphi}$"
       ns1:pdfconverter="inkscape"
       ns1:texconverter="pdflatex"
       ns1:version="1.1.0"
       transform="matrix(0.423334,0,0,0.423334,83.760467,45.454334)">
      <defs
         id="id-d9ee8a37-a9f9-4e1d-a32b-2d5a81d0aa89">
        <g
           id="id-e6f87b5a-3197-497d-88a5-b47f82d02132">
          <symbol
             overflow="visible"
             id="id-367c52e6-a5ef-4de4-ba30-246bfffee564">
            <path
               style="stroke:none"
               d=""
               id="id-c3c4606c-e02d-47dd-b938-db3a1393ecb7" />
          </symbol>
          <symbol
             overflow="visible"
             id="id-fffcece9-3c91-41df-b3a7-d4d8cf805308">
            <path
               style="stroke:none"
               d="m 1.453125,0.0625 c 1.796875,0 3.3125,-2.140625 3.3125,-3.734375 C 4.765625,-4.0625 4.546875,-4.5 4.09375,-4.5 c -0.296875,0 -0.703125,0.34375 -0.78125,0.578125 0.15625,0.15625 0.25,0.390625 0.25,0.59375 0,0.21875 -0.015625,0.546875 -0.109375,0.890625 -0.140625,0.546875 -0.34375,1.703125 -1.171875,1.703125 -0.3125,0 -0.53125,-0.109375 -0.53125,-0.3125 0,-0.5625 0.515625,-2.484375 0.515625,-2.921875 0,-0.28125 -0.234375,-0.53125 -0.5,-0.53125 -0.609375,0 -1.5,0.875 -1.640625,1.09375 0,0.0625 0.078125,0.171875 0.109375,0.171875 0.03125,-0.03125 0.421875,-0.53125 0.6875,-0.53125 0.140625,0 0.140625,0.171875 0.140625,0.25 l -0.421875,2.0625 C 0.5625,-1.09375 0.46875,-0.71875 0.46875,-0.53125 c 0,0.484375 0.515625,0.59375 0.984375,0.59375 z m 0,0"
               id="id-9e39322b-fb69-40b3-9f1c-6d2db9ad2898" />
          </symbol>
          <symbol
             overflow="visible"
             id="id-1408efe5-4422-4c6a-af3a-5c23dc586a4b">
            <path
               style="stroke:none"
               d=""
               id="id-25b2d8d4-acce-415d-a230-d5a04650df03" />
          </symbol>
          <symbol
             overflow="visible"
             id="id-e7942dfa-9658-4db0-97d8-9d7ff6435c13">
            <path
               style="stroke:none"
               d="m 3.421875,-2.0625 c 0,-0.640625 -0.3125,-1.109375 -0.703125,-1.109375 -0.625,0 -1,0.65625 -1.28125,2.140625 l -0.109375,0.609375 h -0.0625 c -0.5625,0 -0.8125,-0.203125 -0.8125,-0.65625 0,-0.84375 0.890625,-1.71875 1.5,-1.8125 v -0.03125 c 0,-0.171875 -0.28125,-0.25 -0.453125,-0.25 -0.34375,0 -1.328125,1 -1.328125,2.03125 C 0.171875,-0.5 0.53125,0 1.234375,0.078125 L 0.96875,1.421875 c 0,0.109375 0.296875,0.25 0.34375,0.25 0.0625,0 0.125,-0.046875 0.171875,-0.109375 V 1.46875 c 0,-0.234375 0.078125,-0.921875 0.15625,-1.390625 C 2.625,-0.0625 3.421875,-0.9375 3.421875,-2.0625 Z m -1.71875,1.625 c 0.125,-0.859375 0.359375,-2.34375 1,-2.34375 0.296875,0 0.453125,0.203125 0.453125,0.546875 0,0.84375 -0.640625,1.6875 -1.453125,1.796875 z m 0,0"
               id="id-bf94bb2d-de79-44f2-9467-53398a45fe6d" />
          </symbol>
        </g>
      </defs>
      <g
         style="fill:#9a4832"
         id="id-ab088196-cafa-452f-bce7-66f99f516cc6"
         transform="translate(-148.638,-130.265)">
        <g
           style="fill:#9a4832;fill-opacity:1"
           id="id-45d87eae-ce0b-4eb8-85f3-c00fc8f6b0cd">
          <g
             style="fill:#9a4832"
             id="g5471"
             transform="translate(148.513,134.765)">
            <path
               style="fill:#9a4832;stroke:none"
               d="m 1.453125,0.0625 c 1.796875,0 3.3125,-2.140625 3.3125,-3.734375 C 4.765625,-4.0625 4.546875,-4.5 4.09375,-4.5 c -0.296875,0 -0.703125,0.34375 -0.78125,0.578125 0.15625,0.15625 0.25,0.390625 0.25,0.59375 0,0.21875 -0.015625,0.546875 -0.109375,0.890625 -0.140625,0.546875 -0.34375,1.703125 -1.171875,1.703125 -0.3125,0 -0.53125,-0.109375 -0.53125,-0.3125 0,-0.5625 0.515625,-2.484375 0.515625,-2.921875 0,-0.28125 -0.234375,-0.53125 -0.5,-0.53125 -0.609375,0 -1.5,0.875 -1.640625,1.09375 0,0.0625 0.078125,0.171875 0.109375,0.171875 0.03125,-0.03125 0.421875,-0.53125 0.6875,-0.53125 0.140625,0 0.140625,0.171875 0.140625,0.25 l -0.421875,2.0625 C 0.5625,-1.09375 0.46875,-0.71875 0.46875,-0.53125 c 0,0.484375 0.515625,0.59375 0.984375,0.59375 z m 0,0"
               id="id-ab3e9410-80f4-43f6-b4cb-ab3446399c31" />
          </g>
        </g>
        <g
           style="fill:#9a4832;fill-opacity:1"
           id="id-fc113baa-6ecc-4e47-99e5-eeb6bac65b8c">
          <g
             style="fill:#9a4832"
             id="g5475"
             transform="translate(153.783,136.259)">
            <path
               style="fill:#9a4832;stroke:none"
               d="m 3.421875,-2.0625 c 0,-0.640625 -0.3125,-1.109375 -0.703125,-1.109375 -0.625,0 -1,0.65625 -1.28125,2.140625 l -0.109375,0.609375 h -0.0625 c -0.5625,0 -0.8125,-0.203125 -0.8125,-0.65625 0,-0.84375 0.890625,-1.71875 1.5,-1.8125 v -0.03125 c 0,-0.171875 -0.28125,-0.25 -0.453125,-0.25 -0.34375,0 -1.328125,1 -1.328125,2.03125 C 0.171875,-0.5 0.53125,0 1.234375,0.078125 L 0.96875,1.421875 c 0,0.109375 0.296875,0.25 0.34375,0.25 0.0625,0 0.125,-0.046875 0.171875,-0.109375 V 1.46875 c 0,-0.234375 0.078125,-0.921875 0.15625,-1.390625 C 2.625,-0.0625 3.421875,-0.9375 3.421875,-2.0625 Z m -1.71875,1.625 c 0.125,-0.859375 0.359375,-2.34375 1,-2.34375 0.296875,0 0.453125,0.203125 0.453125,0.546875 0,0.84375 -0.640625,1.6875 -1.453125,1.796875 z m 0,0"
               id="id-6dbfb754-c5ad-46aa-9716-e98f24e6413f" />
          </g>
        </g>
      </g>
    </g>
    <g
       id="g5792"
       ns1:jacobian_sqrt="0.423334"
       ns1:inkscapeversion="1.0"
       ns1:alignment="middle center"
       ns1:scale="1.1999998015751292"
       ns1:preamble="C:\\Users\\flvisa\\Desktop\\lna\\latexify_books\\textext_preamble.tex"
       ns1:text="$\\boldsymbol{v}$"
       ns1:pdfconverter="inkscape"
       ns1:texconverter="pdflatex"
       ns1:version="1.1.0"
       transform="matrix(0.423334,0,0,0.423334,90.865185,38.159231)"
       style="fill:#c28f48">
      <defs
         id="id-d5d5d890-a412-47aa-a885-e6e6ca484858">
        <g
           id="id-370ba6fe-490a-4ef0-919d-95e468073833">
          <symbol
             overflow="visible"
             id="id-bfe40df3-b637-47e2-a6ff-438b08e4dbf3">
            <path
               style="stroke:none"
               d=""
               id="id-c061a9a5-c934-4cf2-a6d7-b140132c7e43" />
          </symbol>
          <symbol
             overflow="visible"
             id="id-ca90a4c2-d413-472b-a3d7-58362d71f703">
            <path
               style="stroke:none"
               d="m 1.453125,0.0625 c 1.796875,0 3.3125,-2.140625 3.3125,-3.734375 C 4.765625,-4.0625 4.546875,-4.5 4.09375,-4.5 c -0.296875,0 -0.703125,0.34375 -0.78125,0.578125 0.15625,0.15625 0.25,0.390625 0.25,0.59375 0,0.21875 -0.015625,0.546875 -0.109375,0.890625 -0.140625,0.546875 -0.34375,1.703125 -1.171875,1.703125 -0.3125,0 -0.53125,-0.109375 -0.53125,-0.3125 0,-0.5625 0.515625,-2.484375 0.515625,-2.921875 0,-0.28125 -0.234375,-0.53125 -0.5,-0.53125 -0.609375,0 -1.5,0.875 -1.640625,1.09375 0,0.0625 0.078125,0.171875 0.109375,0.171875 0.03125,-0.03125 0.421875,-0.53125 0.6875,-0.53125 0.140625,0 0.140625,0.171875 0.140625,0.25 l -0.421875,2.0625 C 0.5625,-1.09375 0.46875,-0.71875 0.46875,-0.53125 c 0,0.484375 0.515625,0.59375 0.984375,0.59375 z m 0,0"
               id="id-0750dd0f-bbcc-4715-a4ba-84ac2882686e" />
          </symbol>
        </g>
      </defs>
      <g
         id="id-c374bfb7-5095-48af-968c-c93d516b4dae"
         transform="translate(-148.638,-130.265)"
         style="fill:#c28f48">
        <g
           style="fill:#c28f48;fill-opacity:1"
           id="id-69f8fe36-4ede-4a22-998f-599004582f91">
          <g
             id="g5788"
             transform="translate(148.513,134.765)"
             style="fill:#c28f48">
            <path
               style="fill:#c28f48;stroke:none"
               d="m 1.453125,0.0625 c 1.796875,0 3.3125,-2.140625 3.3125,-3.734375 C 4.765625,-4.0625 4.546875,-4.5 4.09375,-4.5 c -0.296875,0 -0.703125,0.34375 -0.78125,0.578125 0.15625,0.15625 0.25,0.390625 0.25,0.59375 0,0.21875 -0.015625,0.546875 -0.109375,0.890625 -0.140625,0.546875 -0.34375,1.703125 -1.171875,1.703125 -0.3125,0 -0.53125,-0.109375 -0.53125,-0.3125 0,-0.5625 0.515625,-2.484375 0.515625,-2.921875 0,-0.28125 -0.234375,-0.53125 -0.5,-0.53125 -0.609375,0 -1.5,0.875 -1.640625,1.09375 0,0.0625 0.078125,0.171875 0.109375,0.171875 0.03125,-0.03125 0.421875,-0.53125 0.6875,-0.53125 0.140625,0 0.140625,0.171875 0.140625,0.25 l -0.421875,2.0625 C 0.5625,-1.09375 0.46875,-0.71875 0.46875,-0.53125 c 0,0.484375 0.515625,0.59375 0.984375,0.59375 z m 0,0"
               id="id-a39c154b-c2f5-41be-9827-feea59c8c24a" />
          </g>
        </g>
      </g>
    </g>
    <path
       style="fill:none;stroke:#9a4832;stroke-width:0.520328;stroke-linecap:butt;stroke-linejoin:miter;stroke-miterlimit:4;stroke-dasharray:none;stroke-opacity:1;marker-end:url(#marker21712)"
       d="M 96.985282,55.123255 87.549454,45.583616"
       id="path3494-5-3" />
    <path
       id="path3494-4"
       d="m 97.02125,55.212102 4.42176,-4.437655"
       style="fill:none;stroke:#9a4832;stroke-width:0.501586;stroke-linecap:butt;stroke-linejoin:miter;stroke-miterlimit:4;stroke-dasharray:none;stroke-opacity:1;marker-end:url(#marker21692)" />
    <path
       id="path3494-5-3-6"
       d="M 96.975243,55.12434 92.197801,41.387516"
       style="fill:none;stroke:#c28f48;stroke-width:0.512311;stroke-linecap:butt;stroke-linejoin:miter;stroke-miterlimit:4;stroke-dasharray:none;stroke-opacity:1;marker-end:url(#marker21702)" />
    <path
       style="fill:none;stroke:#3d677b;stroke-width:0.522515;stroke-linecap:butt;stroke-linejoin:miter;stroke-miterlimit:4;stroke-dasharray:none;stroke-opacity:1;marker-end:url(#marker21682)"
       d="M 77.575789,73.993928 96.311274,55.795032"
       id="path3440" />
    <path
       sodipodi:nodetypes="cc"
       id="path7010-3"
       d="M 108.90107,64.016901 C 97.414364,58.39107 96.96994,55.288191 96.96994,55.288191"
       style="fill:none;stroke:#a6a7a3;stroke-width:0.352778;stroke-linecap:butt;stroke-linejoin:miter;stroke-miterlimit:4;stroke-dasharray:none;stroke-opacity:1" />
    <path
       style="fill:none;stroke:#a6a7a3;stroke-width:0.352778;stroke-linecap:butt;stroke-linejoin:miter;stroke-miterlimit:4;stroke-dasharray:none;stroke-opacity:1"
       d="M 83.605986,50.018489 C 95.975951,48.054194 96.96994,55.288191 96.96994,55.288191"
       id="path7010"
       sodipodi:nodetypes="cc" />
    <path
       style="fill:none;stroke:#a6a7a3;stroke-width:0.529167;stroke-linecap:butt;stroke-linejoin:miter;stroke-miterlimit:4;stroke-dasharray:none;stroke-opacity:1;marker-end:url(#marker21732)"
       d="M 77.579613,73.988839 83.296502,68.41369"
       id="path3494" />
    <path
       id="path3494-5"
       d="M 77.79813,74.006557 72.222981,68.289668"
       style="fill:none;stroke:#a6a7a3;stroke-width:0.529167;stroke-linecap:butt;stroke-linejoin:miter;stroke-miterlimit:4;stroke-dasharray:none;stroke-opacity:1;marker-end:url(#marker21722)" />
  </g>
</svg>
