<?xml version="1.0" encoding="UTF-8" standalone="no"?>
<svg
   xmlns:ns1="http://www.iki.fi/pav/software/textext/"
   xmlns:dc="http://purl.org/dc/elements/1.1/"
   xmlns:cc="http://creativecommons.org/ns#"
   xmlns:rdf="http://www.w3.org/1999/02/22-rdf-syntax-ns#"
   xmlns:svg="http://www.w3.org/2000/svg"
   xmlns="http://www.w3.org/2000/svg"
   xmlns:sodipodi="http://sodipodi.sourceforge.net/DTD/sodipodi-0.dtd"
   xmlns:inkscape="http://www.inkscape.org/namespaces/inkscape"
   width="58.305302mm"
   height="37.550732mm"
   viewBox="0 0 58.305302 37.550732"
   version="1.1"
   id="svg8"
   inkscape:version="1.0 (4035a4fb49, 2020-05-01)"
   sodipodi:docname="fig_1_26.svg">
  <defs
     id="defs2">
    <marker
       inkscape:isstock="true"
       style="overflow:visible"
       id="marker24426"
       refX="0"
       refY="0"
       orient="auto"
       inkscape:stockid="Arrow1Send">
      <path
         transform="matrix(-0.2,0,0,-0.2,-1.2,0)"
         style="fill:#9a4832;fill-opacity:1;fill-rule:evenodd;stroke:#9a4832;stroke-width:1pt;stroke-opacity:1"
         d="M 0,0 5,-5 -12.5,0 5,5 Z"
         id="path24424" />
    </marker>
    <marker
       inkscape:isstock="true"
       style="overflow:visible"
       id="marker24416"
       refX="0"
       refY="0"
       orient="auto"
       inkscape:stockid="Arrow1Send">
      <path
         transform="matrix(-0.2,0,0,-0.2,-1.2,0)"
         style="fill:#9a4832;fill-opacity:1;fill-rule:evenodd;stroke:#9a4832;stroke-width:1pt;stroke-opacity:1"
         d="M 0,0 5,-5 -12.5,0 5,5 Z"
         id="path24414" />
    </marker>
    <marker
       inkscape:isstock="true"
       style="overflow:visible"
       id="marker24406"
       refX="0"
       refY="0"
       orient="auto"
       inkscape:stockid="Arrow1Send">
      <path
         transform="matrix(-0.2,0,0,-0.2,-1.2,0)"
         style="fill:#000000;fill-opacity:1;fill-rule:evenodd;stroke:#000000;stroke-width:1pt;stroke-opacity:1"
         d="M 0,0 5,-5 -12.5,0 5,5 Z"
         id="path24404" />
    </marker>
    <marker
       inkscape:isstock="true"
       style="overflow:visible"
       id="marker24396"
       refX="0"
       refY="0"
       orient="auto"
       inkscape:stockid="Arrow1Send">
      <path
         transform="matrix(-0.2,0,0,-0.2,-1.2,0)"
         style="fill:#000000;fill-opacity:1;fill-rule:evenodd;stroke:#000000;stroke-width:1pt;stroke-opacity:1"
         d="M 0,0 5,-5 -12.5,0 5,5 Z"
         id="path24394" />
    </marker>
    <marker
       inkscape:stockid="Arrow1Mend"
       orient="auto"
       refY="0"
       refX="0"
       id="marker7106"
       style="overflow:visible"
       inkscape:isstock="true">
      <path
         id="path7104"
         d="M 0,0 5,-5 -12.5,0 5,5 Z"
         style="fill:#0066ff;fill-opacity:1;fill-rule:evenodd;stroke:#0066ff;stroke-width:1pt;stroke-opacity:1"
         transform="matrix(-0.4,0,0,-0.4,-4,0)" />
    </marker>
    <marker
       inkscape:isstock="true"
       style="overflow:visible"
       id="Arrow1Mstart"
       refX="0"
       refY="0"
       orient="auto"
       inkscape:stockid="Arrow1Mstart">
      <path
         transform="matrix(0.4,0,0,0.4,4,0)"
         style="fill:#0066ff;fill-opacity:1;fill-rule:evenodd;stroke:#0066ff;stroke-width:1pt;stroke-opacity:1"
         d="M 0,0 5,-5 -12.5,0 5,5 Z"
         id="path6341" />
    </marker>
    <marker
       inkscape:isstock="true"
       style="overflow:visible"
       id="marker4051"
       refX="0"
       refY="0"
       orient="auto"
       inkscape:stockid="Arrow1Mend">
      <path
         transform="matrix(-0.4,0,0,-0.4,-4,0)"
         style="fill:#000000;fill-opacity:1;fill-rule:evenodd;stroke:#000000;stroke-width:1pt;stroke-opacity:1"
         d="M 0,0 5,-5 -12.5,0 5,5 Z"
         id="path4049" />
    </marker>
    <marker
       inkscape:stockid="Arrow1Mend"
       orient="auto"
       refY="0"
       refX="0"
       id="marker3498"
       style="overflow:visible"
       inkscape:isstock="true">
      <path
         id="path3496"
         d="M 0,0 5,-5 -12.5,0 5,5 Z"
         style="fill:#666666;fill-opacity:1;fill-rule:evenodd;stroke:#666666;stroke-width:1pt;stroke-opacity:1"
         transform="matrix(-0.4,0,0,-0.4,-4,0)" />
    </marker>
    <marker
       inkscape:isstock="true"
       style="overflow:visible"
       id="marker3444"
       refX="0"
       refY="0"
       orient="auto"
       inkscape:stockid="Arrow1Mend">
      <path
         transform="matrix(-0.4,0,0,-0.4,-4,0)"
         style="fill:#44aa00;fill-opacity:1;fill-rule:evenodd;stroke:#44aa00;stroke-width:1pt;stroke-opacity:1"
         d="M 0,0 5,-5 -12.5,0 5,5 Z"
         id="path3442" />
    </marker>
    <pattern
       id="EMFhbasepattern"
       patternUnits="userSpaceOnUse"
       width="6"
       height="6"
       x="0"
       y="0" />
    <g
       id="id-b2f4774c-335a-4556-a6df-830266f6d3df">
      <symbol
         id="id-3ed520d9-15c7-417c-a138-bea0b8711605"
         overflow="visible">
        <path
           id="id-720c95d9-67b0-4850-80b8-0e6a65bc38c2"
           d="M 0.5,0 H 4.484375 V -4.8125 H 0.5 Z M 1,-0.5 V -4.3125 H 3.984375 V -0.5 Z m 0,0"
           style="stroke:none" />
      </symbol>
      <symbol
         id="id-ab269727-2c99-4ed5-96c6-bd11290be5b6"
         overflow="visible">
        <path
           id="id-77e8e6fc-5ccf-4ffc-af94-244421df72bc"
           d="m 2.484375,-5.875 c 0.71875,0 1.203125,1.1875 1.203125,2.71875 0,1.515625 -0.4375,2.828125 -1.3125,2.828125 -0.703125,0 -1.21875,-1.25 -1.21875,-2.78125 0,-1.53125 0.515625,-2.765625 1.328125,-2.765625 z m -0.0625,-0.359375 c -1.34375,0 -2.125,1.421875 -2.125,3.125 0,1.6875 0.796875,3.140625 2.125,3.140625 1.34375,0 2.125,-1.453125 2.125,-3.140625 0,-1.703125 -0.765625,-3.125 -2.125,-3.125 z m 0,0"
           style="stroke:none" />
      </symbol>
    </g>
    <g
       id="id-10116a31-7bb5-4fd2-bb6f-99711bf46ca6">
      <symbol
         id="id-a5762e95-6c56-4fdb-a89c-0b733329475e"
         overflow="visible">
        <path
           id="id-004097e0-d902-4818-bde3-2ef0fe8cecb5"
           d=""
           style="stroke:none" />
      </symbol>
      <symbol
         id="id-b25d1a1f-9f40-456c-96c8-a413b294862b"
         overflow="visible">
        <path
           id="id-ff58081f-cbc5-4f58-ac90-62df3b809e30"
           d="m 3.765625,-4.5 c -0.546875,0 -1.40625,1.015625 -1.65625,1.953125 0,0 0.109375,-0.53125 0.140625,-0.640625 C 2.265625,-3.296875 2.328125,-3.65625 2.328125,-3.78125 2.328125,-4.25 2.0625,-4.5 1.671875,-4.5 c -0.546875,0 -1.390625,0.875 -1.5625,1.203125 0,0.0625 0.0625,0.265625 0.140625,0.265625 0.03125,-0.0625 0.5,-0.59375 0.71875,-0.59375 0.09375,0 0.140625,0.109375 0.140625,0.203125 0,0.046875 -0.03125,0.28125 -0.046875,0.328125 L 0.46875,0 C 0.59375,0.03125 0.953125,0.0625 1.0625,0.0625 1.171875,0.0625 1.53125,0.03125 1.625,0 L 1.828125,-0.921875 C 2.109375,-2.1875 2.875,-3.46875 3.15625,-3.46875 c 0.15625,0 0.171875,0.03125 0.265625,0.078125 0.125,0.0625 0.265625,0.1875 0.46875,0.1875 0.265625,0 0.578125,-0.25 0.578125,-0.71875 0,-0.1875 -0.078125,-0.359375 -0.15625,-0.453125 C 4.140625,-4.46875 4.046875,-4.5 3.765625,-4.5 Z m 0,0"
           style="stroke:none" />
      </symbol>
    </g>
    <g
       id="id-b9da9494-b1f3-4d35-93bb-c0205ba99480"
       style="fill:#0066ff;stroke-width:0">
      <symbol
         id="id-655779c7-f81b-43f0-af84-a0a6574f67c1"
         overflow="visible"
         style="fill:#0066ff;stroke-width:0">
        <path
           id="id-ea139a73-69a5-4e2b-a7e9-8d351b59a513"
           d=""
           style="fill:#0066ff;stroke:none;stroke-width:0" />
      </symbol>
      <symbol
         id="id-e1cf1cd9-5e4f-41e3-9ca7-ba16c7addbfc"
         overflow="visible"
         style="fill:#0066ff;stroke-width:0">
        <path
           id="id-f71892b4-7d77-429a-8b91-7d89629eac7c"
           d="m 3.765625,-4.5 c -0.546875,0 -1.40625,1.015625 -1.65625,1.953125 0,0 0.109375,-0.53125 0.140625,-0.640625 C 2.265625,-3.296875 2.328125,-3.65625 2.328125,-3.78125 2.328125,-4.25 2.0625,-4.5 1.671875,-4.5 c -0.546875,0 -1.390625,0.875 -1.5625,1.203125 0,0.0625 0.0625,0.265625 0.140625,0.265625 0.03125,-0.0625 0.5,-0.59375 0.71875,-0.59375 0.09375,0 0.140625,0.109375 0.140625,0.203125 0,0.046875 -0.03125,0.28125 -0.046875,0.328125 L 0.46875,0 C 0.59375,0.03125 0.953125,0.0625 1.0625,0.0625 1.171875,0.0625 1.53125,0.03125 1.625,0 L 1.828125,-0.921875 C 2.109375,-2.1875 2.875,-3.46875 3.15625,-3.46875 c 0.15625,0 0.171875,0.03125 0.265625,0.078125 0.125,0.0625 0.265625,0.1875 0.46875,0.1875 0.265625,0 0.578125,-0.25 0.578125,-0.71875 0,-0.1875 -0.078125,-0.359375 -0.15625,-0.453125 C 4.140625,-4.46875 4.046875,-4.5 3.765625,-4.5 Z m 0,0"
           style="fill:#0066ff;stroke:none;stroke-width:0" />
      </symbol>
      <symbol
         id="id-606d3576-f0cf-49a6-ba0b-777059cdf835"
         overflow="visible"
         style="fill:#0066ff;stroke-width:0">
        <path
           id="id-dd3f08ef-80e0-43e2-a3ff-62ba5d034b84"
           d=""
           style="fill:#0066ff;stroke:none;stroke-width:0" />
      </symbol>
      <symbol
         id="id-969a8b3f-e025-4dc7-8b53-4f0148475be5"
         overflow="visible"
         style="fill:#0066ff;stroke-width:0">
        <path
           id="id-70d76920-5e66-4436-8a82-2366559031c9"
           d="m 2.484375,-2.84375 h -2.1875 v 0.65625 h 2.1875 V 0 h 0.65625 v -2.1875 h 2.1875 v -0.65625 h -2.1875 v -2.203125 h -0.65625 z m 0,0"
           style="fill:#0066ff;stroke:none;stroke-width:0" />
      </symbol>
      <symbol
         id="id-07821e26-9073-4ee7-b9a8-a9a8b81f17e0"
         overflow="visible"
         style="fill:#0066ff;stroke-width:0">
        <path
           id="id-53c036e7-2b5a-4aba-aa3d-6f8a49ac87db"
           d=""
           style="fill:#0066ff;stroke:none;stroke-width:0" />
      </symbol>
      <symbol
         id="id-b4f1c22b-832d-4fc8-a760-20c4c44c9ae0"
         overflow="visible"
         style="fill:#0066ff;stroke-width:0">
        <path
           id="id-1cc14518-f934-4abe-8eb7-ee96bd008097"
           d="m 4.34375,-0.640625 h -3.8125 c 0,0 2.78125,-4.6875 2.84375,-4.6875 0.28125,1.640625 0.6875,3.5 0.96875,4.6875 z M 3.734375,-6.609375 3.71875,-6.625 c -0.046875,0 -0.265625,0.28125 -0.3125,0.390625 -0.109375,0.25 -0.171875,0.4375 -0.328125,0.703125 -1.296875,2.140625 -3.34375,5.4375 -3.34375,5.4375 v 0.015625 C -0.265625,-0.046875 -0.25,0 -0.21875,0 c 0,0 1.90625,-0.03125 4.265625,-0.03125 0.21875,0 0.515625,0.046875 0.5625,0.078125 0.109375,-0.03125 0.4375,-0.125 0.546875,-0.375 C 4.578125,-2.890625 4.25,-4.09375 3.734375,-6.609375 Z m 0,0"
           style="fill:#0066ff;stroke:none;stroke-width:0" />
      </symbol>
    </g>
    <g
       id="id-fce73690-5dd7-4914-a4d8-ecab6776bb22">
      <symbol
         id="id-d6b372da-e7bc-4890-af0b-a1c9051f4682"
         overflow="visible">
        <path
           id="id-acb999f0-a9ef-46d9-a073-c1a117a77923"
           d=""
           style="stroke:none" />
      </symbol>
      <symbol
         id="id-07a9a45c-0fdd-4d40-aa8b-c5455b92d7a0"
         overflow="visible">
        <path
           id="id-e6e07179-0543-49c4-8f1b-7304a339f774"
           d="m 4.34375,-0.640625 h -3.8125 c 0,0 2.78125,-4.6875 2.84375,-4.6875 0.28125,1.640625 0.6875,3.5 0.96875,4.6875 z M 3.734375,-6.609375 3.71875,-6.625 c -0.046875,0 -0.265625,0.28125 -0.3125,0.390625 -0.109375,0.25 -0.171875,0.4375 -0.328125,0.703125 -1.296875,2.140625 -3.34375,5.4375 -3.34375,5.4375 v 0.015625 C -0.265625,-0.046875 -0.25,0 -0.21875,0 c 0,0 1.90625,-0.03125 4.265625,-0.03125 0.21875,0 0.515625,0.046875 0.5625,0.078125 0.109375,-0.03125 0.4375,-0.125 0.546875,-0.375 C 4.578125,-2.890625 4.25,-4.09375 3.734375,-6.609375 Z m 0,0"
           style="stroke:none" />
      </symbol>
      <symbol
         id="id-06e894df-3226-4799-bbf8-b0d38a534a8f"
         overflow="visible">
        <path
           id="id-0b3b1719-5fce-44a0-aa4f-38159ff9761a"
           d="m 2,-4.421875 c -0.84375,0 -1.390625,0.703125 -1.390625,1.265625 0,0.578125 0.375,1 0.71875,1.375 0.265625,0.3125 0.53125,0.578125 0.53125,0.9375 0,0.21875 -0.09375,0.578125 -0.5,0.578125 C 1.09375,-0.265625 0.9375,-0.40625 0.828125,-0.5625 0.671875,-0.78125 0.59375,-1 0.390625,-1 c -0.203125,0 -0.375,0.15625 -0.375,0.453125 0,0.09375 0.078125,0.25 0.109375,0.3125 C 0.375,-0.015625 0.703125,0.0625 1,0.0625 c 0.859375,0 1.46875,-0.484375 1.46875,-1.234375 0,-0.515625 -0.3125,-0.90625 -0.609375,-1.265625 C 1.546875,-2.796875 1.1875,-3.109375 1.1875,-3.515625 c 0,-0.21875 0.140625,-0.5625 0.5,-0.5625 0.28125,0 0.359375,0.15625 0.46875,0.3125 0.140625,0.1875 0.296875,0.359375 0.46875,0.359375 0.203125,0 0.359375,-0.1875 0.359375,-0.421875 0,-0.0625 -0.0625,-0.25 -0.109375,-0.3125 C 2.65625,-4.328125 2.40625,-4.421875 2,-4.421875 Z m 0,0"
           style="stroke:none" />
      </symbol>
    </g>
    <g
       id="id-64fc657f-e1ae-412c-ab9e-76d6c8ff3e06"
       style="fill:#0066ff;stroke-width:0">
      <symbol
         id="id-c11c960d-fcf3-4af5-81be-c9c9068b6b6e"
         overflow="visible"
         style="fill:#0066ff;stroke-width:0">
        <path
           id="id-d6ba9e38-d61b-4211-93c0-6ae63ea48eb1"
           d=""
           style="fill:#0066ff;stroke:none;stroke-width:0" />
      </symbol>
      <symbol
         id="id-c2120dbc-0068-4710-b888-5a9886efd220"
         overflow="visible"
         style="fill:#0066ff;stroke-width:0">
        <path
           id="id-f8a8188a-5bda-4833-8918-3faedf122f01"
           d="m 4.34375,-0.640625 h -3.8125 c 0,0 2.78125,-4.6875 2.84375,-4.6875 0.28125,1.640625 0.6875,3.5 0.96875,4.6875 z M 3.734375,-6.609375 3.71875,-6.625 c -0.046875,0 -0.265625,0.28125 -0.3125,0.390625 -0.109375,0.25 -0.171875,0.4375 -0.328125,0.703125 -1.296875,2.140625 -3.34375,5.4375 -3.34375,5.4375 v 0.015625 C -0.265625,-0.046875 -0.25,0 -0.21875,0 c 0,0 1.90625,-0.03125 4.265625,-0.03125 0.21875,0 0.515625,0.046875 0.5625,0.078125 0.109375,-0.03125 0.4375,-0.125 0.546875,-0.375 C 4.578125,-2.890625 4.25,-4.09375 3.734375,-6.609375 Z m 0,0"
           style="fill:#0066ff;stroke:none;stroke-width:0" />
      </symbol>
      <symbol
         id="id-b29616f5-385e-4a46-a4cf-9aed0157c4ad"
         overflow="visible"
         style="fill:#0066ff;stroke-width:0">
        <path
           id="id-be0f9202-844a-4cd0-bee1-c68566f0cfa8"
           d=""
           style="fill:#0066ff;stroke:none;stroke-width:0" />
      </symbol>
      <symbol
         id="id-cc36fb47-01d5-4938-9648-267eb069b4c6"
         overflow="visible"
         style="fill:#0066ff;stroke-width:0">
        <path
           id="id-9c4a346b-f31d-4600-b5a4-56dd8edc4f0e"
           d="m 3.765625,-4.5 c -0.546875,0 -1.40625,1.015625 -1.65625,1.953125 0,0 0.109375,-0.53125 0.140625,-0.640625 C 2.265625,-3.296875 2.328125,-3.65625 2.328125,-3.78125 2.328125,-4.25 2.0625,-4.5 1.671875,-4.5 c -0.546875,0 -1.390625,0.875 -1.5625,1.203125 0,0.0625 0.0625,0.265625 0.140625,0.265625 0.03125,-0.0625 0.5,-0.59375 0.71875,-0.59375 0.09375,0 0.140625,0.109375 0.140625,0.203125 0,0.046875 -0.03125,0.28125 -0.046875,0.328125 L 0.46875,0 C 0.59375,0.03125 0.953125,0.0625 1.0625,0.0625 1.171875,0.0625 1.53125,0.03125 1.625,0 L 1.828125,-0.921875 C 2.109375,-2.1875 2.875,-3.46875 3.15625,-3.46875 c 0.15625,0 0.171875,0.03125 0.265625,0.078125 0.125,0.0625 0.265625,0.1875 0.46875,0.1875 0.265625,0 0.578125,-0.25 0.578125,-0.71875 0,-0.1875 -0.078125,-0.359375 -0.15625,-0.453125 C 4.140625,-4.46875 4.046875,-4.5 3.765625,-4.5 Z m 0,0"
           style="fill:#0066ff;stroke:none;stroke-width:0" />
      </symbol>
    </g>
    <marker
       inkscape:isstock="true"
       style="overflow:visible"
       id="marker3498-3"
       refX="0"
       refY="0"
       orient="auto"
       inkscape:stockid="Arrow1Mend">
      <path
         transform="matrix(-0.4,0,0,-0.4,-4,0)"
         style="fill:#666666;fill-opacity:1;fill-rule:evenodd;stroke:#666666;stroke-width:1pt;stroke-opacity:1"
         d="M 0,0 5,-5 -12.5,0 5,5 Z"
         id="path3496-9" />
    </marker>
    <marker
       inkscape:stockid="Arrow1Mend"
       orient="auto"
       refY="0"
       refX="0"
       id="marker3498-3-9"
       style="overflow:visible"
       inkscape:isstock="true">
      <path
         id="path3496-9-3"
         d="M 0,0 5,-5 -12.5,0 5,5 Z"
         style="fill:#000000;fill-opacity:1;fill-rule:evenodd;stroke:#000000;stroke-width:1pt;stroke-opacity:1"
         transform="matrix(-0.4,0,0,-0.4,-4,0)" />
    </marker>
    <marker
       inkscape:isstock="true"
       style="overflow:visible"
       id="marker3498-0"
       refX="0"
       refY="0"
       orient="auto"
       inkscape:stockid="Arrow1Mend">
      <path
         transform="matrix(-0.4,0,0,-0.4,-4,0)"
         style="fill:#000000;fill-opacity:1;fill-rule:evenodd;stroke:#000000;stroke-width:1pt;stroke-opacity:1"
         d="M 0,0 5,-5 -12.5,0 5,5 Z"
         id="path3496-5" />
    </marker>
    <g
       id="id-45d76c81-febb-4be6-94db-b68c1a72082d-2">
      <symbol
         overflow="visible"
         id="id-55632850-be62-4f3d-81cb-e435ee19fb98-6">
        <path
           style="stroke:none"
           d=""
           id="id-7d19b862-1400-4489-9fcb-07cae1fad945-7" />
      </symbol>
      <symbol
         overflow="visible"
         id="id-ca9da0e0-b405-47b5-87cd-846c2973cbe8-9">
        <path
           style="stroke:none"
           d="m 1.453125,0.0625 c 1.796875,0 3.3125,-2.140625 3.3125,-3.734375 C 4.765625,-4.0625 4.546875,-4.5 4.09375,-4.5 c -0.296875,0 -0.703125,0.34375 -0.78125,0.578125 0.15625,0.15625 0.25,0.390625 0.25,0.59375 0,0.21875 -0.015625,0.546875 -0.109375,0.890625 -0.140625,0.546875 -0.34375,1.703125 -1.171875,1.703125 -0.3125,0 -0.53125,-0.109375 -0.53125,-0.3125 0,-0.5625 0.515625,-2.484375 0.515625,-2.921875 0,-0.28125 -0.234375,-0.53125 -0.5,-0.53125 -0.609375,0 -1.5,0.875 -1.640625,1.09375 0,0.0625 0.078125,0.171875 0.109375,0.171875 0.03125,-0.03125 0.421875,-0.53125 0.6875,-0.53125 0.140625,0 0.140625,0.171875 0.140625,0.25 l -0.421875,2.0625 C 0.5625,-1.09375 0.46875,-0.71875 0.46875,-0.53125 c 0,0.484375 0.515625,0.59375 0.984375,0.59375 z m 0,0"
           id="id-8c6a882d-44ae-41f7-ac0a-4b764fb7c52b-9" />
      </symbol>
      <symbol
         overflow="visible"
         id="id-630b5161-1b15-4231-928a-24095ef3091e-4">
        <path
           style="stroke:none"
           d=""
           id="id-92a4b81a-3075-4f2a-94df-627e560cd7b6-9" />
      </symbol>
      <symbol
         overflow="visible"
         id="id-d81d85b3-5936-4331-b186-6af3bd44d5a3-5">
        <path
           style="stroke:none"
           d="m 2.265625,-3.203125 c -0.359375,0 -0.875,0.90625 -1.078125,1.390625 0.046875,-0.234375 0.078125,-0.375 0.125,-0.609375 0.03125,-0.171875 0.046875,-0.34375 0.046875,-0.390625 0,-0.21875 -0.109375,-0.390625 -0.28125,-0.390625 -0.34375,0 -0.84375,0.5625 -0.921875,0.703125 0,0.03125 0.046875,0.125 0.0625,0.125 0.03125,-0.015625 0.359375,-0.421875 0.515625,-0.421875 0.078125,0 0.078125,0.125 0.078125,0.1875 0,0.03125 -0.03125,0.1875 -0.03125,0.234375 L 0.34375,0 C 0.4375,0.015625 0.515625,0.015625 0.625,0.015625 c 0.078125,0 0.15625,0 0.234375,-0.015625 L 1.03125,-0.890625 c 0.140625,-0.765625 0.75,-1.796875 1.015625,-1.796875 0.0625,0 0.125,0.03125 0.15625,0.0625 0.0625,0.0625 0.15625,0.109375 0.21875,0.109375 0.171875,0 0.265625,-0.140625 0.265625,-0.328125 0,-0.0625 -0.046875,-0.171875 -0.078125,-0.203125 -0.0625,-0.0625 -0.1875,-0.15625 -0.34375,-0.15625 z m 0,0"
           id="id-4bce2c7a-7551-45ed-ba4a-cb8b5997b44f-5" />
      </symbol>
    </g>
    <g
       id="id-45d76c81-febb-4be6-94db-b68c1a72082d-5">
      <symbol
         overflow="visible"
         id="id-55632850-be62-4f3d-81cb-e435ee19fb98-3">
        <path
           style="stroke:none"
           d=""
           id="id-7d19b862-1400-4489-9fcb-07cae1fad945-0" />
      </symbol>
      <symbol
         overflow="visible"
         id="id-ca9da0e0-b405-47b5-87cd-846c2973cbe8-7">
        <path
           style="stroke:none"
           d="m 1.453125,0.0625 c 1.796875,0 3.3125,-2.140625 3.3125,-3.734375 C 4.765625,-4.0625 4.546875,-4.5 4.09375,-4.5 c -0.296875,0 -0.703125,0.34375 -0.78125,0.578125 0.15625,0.15625 0.25,0.390625 0.25,0.59375 0,0.21875 -0.015625,0.546875 -0.109375,0.890625 -0.140625,0.546875 -0.34375,1.703125 -1.171875,1.703125 -0.3125,0 -0.53125,-0.109375 -0.53125,-0.3125 0,-0.5625 0.515625,-2.484375 0.515625,-2.921875 0,-0.28125 -0.234375,-0.53125 -0.5,-0.53125 -0.609375,0 -1.5,0.875 -1.640625,1.09375 0,0.0625 0.078125,0.171875 0.109375,0.171875 0.03125,-0.03125 0.421875,-0.53125 0.6875,-0.53125 0.140625,0 0.140625,0.171875 0.140625,0.25 l -0.421875,2.0625 C 0.5625,-1.09375 0.46875,-0.71875 0.46875,-0.53125 c 0,0.484375 0.515625,0.59375 0.984375,0.59375 z m 0,0"
           id="id-8c6a882d-44ae-41f7-ac0a-4b764fb7c52b-5" />
      </symbol>
      <symbol
         overflow="visible"
         id="id-630b5161-1b15-4231-928a-24095ef3091e-6">
        <path
           style="stroke:none"
           d=""
           id="id-92a4b81a-3075-4f2a-94df-627e560cd7b6-4" />
      </symbol>
      <symbol
         overflow="visible"
         id="id-d81d85b3-5936-4331-b186-6af3bd44d5a3-4">
        <path
           style="stroke:none"
           d="m 2.265625,-3.203125 c -0.359375,0 -0.875,0.90625 -1.078125,1.390625 0.046875,-0.234375 0.078125,-0.375 0.125,-0.609375 0.03125,-0.171875 0.046875,-0.34375 0.046875,-0.390625 0,-0.21875 -0.109375,-0.390625 -0.28125,-0.390625 -0.34375,0 -0.84375,0.5625 -0.921875,0.703125 0,0.03125 0.046875,0.125 0.0625,0.125 0.03125,-0.015625 0.359375,-0.421875 0.515625,-0.421875 0.078125,0 0.078125,0.125 0.078125,0.1875 0,0.03125 -0.03125,0.1875 -0.03125,0.234375 L 0.34375,0 C 0.4375,0.015625 0.515625,0.015625 0.625,0.015625 c 0.078125,0 0.15625,0 0.234375,-0.015625 L 1.03125,-0.890625 c 0.140625,-0.765625 0.75,-1.796875 1.015625,-1.796875 0.0625,0 0.125,0.03125 0.15625,0.0625 0.0625,0.0625 0.15625,0.109375 0.21875,0.109375 0.171875,0 0.265625,-0.140625 0.265625,-0.328125 0,-0.0625 -0.046875,-0.171875 -0.078125,-0.203125 -0.0625,-0.0625 -0.1875,-0.15625 -0.34375,-0.15625 z m 0,0"
           id="id-4bce2c7a-7551-45ed-ba4a-cb8b5997b44f-2" />
      </symbol>
    </g>
    <pattern
       id="EMFhbasepattern-3"
       patternUnits="userSpaceOnUse"
       width="6"
       height="6"
       x="0"
       y="0" />
    <marker
       inkscape:stockid="Arrow1Mend"
       orient="auto"
       refY="0"
       refX="0"
       id="marker3498-3-9-4-6"
       style="overflow:visible"
       inkscape:isstock="true">
      <path
         id="path3496-9-3-6-8"
         d="M 0,0 5,-5 -12.5,0 5,5 Z"
         style="fill:#0066ff;fill-opacity:1;fill-rule:evenodd;stroke:#0066ff;stroke-width:1pt;stroke-opacity:1"
         transform="matrix(-0.4,0,0,-0.4,-4,0)" />
    </marker>
    <marker
       inkscape:isstock="true"
       style="overflow:visible"
       id="marker7106-1"
       refX="0"
       refY="0"
       orient="auto"
       inkscape:stockid="Arrow1Mend">
      <path
         transform="matrix(-0.4,0,0,-0.4,-4,0)"
         style="fill:#0066ff;fill-opacity:1;fill-rule:evenodd;stroke:#0066ff;stroke-width:1pt;stroke-opacity:1"
         d="M 0,0 5,-5 -12.5,0 5,5 Z"
         id="path7104-0" />
    </marker>
    <inkscape:path-effect
       lpeversion="0"
       effect="spiro"
       id="path-effect2988"
       is_visible="true" />
  </defs>
  <sodipodi:namedview
     fit-margin-bottom="0"
     fit-margin-right="0"
     fit-margin-left="0"
     fit-margin-top="0"
     inkscape:window-maximized="1"
     inkscape:window-y="-8"
     inkscape:window-x="-8"
     inkscape:window-height="837"
     inkscape:window-width="1600"
     showgrid="false"
     inkscape:document-rotation="0"
     inkscape:current-layer="layer1"
     inkscape:document-units="mm"
     inkscape:cy="72.714657"
     inkscape:cx="109.05748"
     inkscape:zoom="3.959798"
     inkscape:pageshadow="2"
     inkscape:pageopacity="0.0"
     borderopacity="1.0"
     bordercolor="#666666"
     pagecolor="#ffffff"
     id="base" />
  <metadata
     id="metadata5">
    <rdf:RDF>
      <cc:Work
         rdf:about="">
        <dc:format>image/svg+xml</dc:format>
        <dc:type
           rdf:resource="http://purl.org/dc/dcmitype/StillImage" />
        <dc:title />
      </cc:Work>
    </rdf:RDF>
  </metadata>
  <g
     transform="translate(-2.9035213,-39.71913)"
     id="layer1"
     inkscape:groupmode="layer"
     inkscape:label="Layer 1">
    <rect
       transform="rotate(90)"
       style="opacity:0.5;fill:#d3c7b1;fill-opacity:1;stroke:#c28f48;stroke-width:0.209864;stroke-miterlimit:4;stroke-dasharray:none;stroke-dashoffset:0;stroke-opacity:1"
       id="rect5400-8"
       width="20.511646"
       height="3.8315742"
       x="51.330788"
       y="-21.23838" />
    <rect
       y="-25.132948"
       x="49.782852"
       height="3.8687706"
       width="22.054325"
       id="rect5400-8-2"
       style="opacity:0.5;fill:#d3c7b1;fill-opacity:1;stroke:#c28f48;stroke-width:0.218667;stroke-miterlimit:4;stroke-dasharray:none;stroke-dashoffset:0;stroke-opacity:1"
       transform="rotate(90)" />
    <rect
       transform="rotate(90)"
       style="opacity:0.5;fill:#d3c7b1;fill-opacity:1;stroke:#c28f48;stroke-width:0.214323;stroke-miterlimit:4;stroke-dasharray:none;stroke-dashoffset:0;stroke-opacity:1"
       id="rect5400-8-2-6"
       width="23.985783"
       height="3.4172876"
       x="47.849987"
       y="-28.554487" />
    <rect
       y="43.35128"
       x="49.7234"
       height="3.9090374"
       width="22.121286"
       id="rect5400-8-7"
       style="opacity:0.5;fill:#d3c7b1;fill-opacity:1;stroke:#c28f48;stroke-width:0.220135;stroke-miterlimit:4;stroke-dasharray:none;stroke-dashoffset:0;stroke-opacity:1"
       transform="matrix(0,1,1,0,0,0)" />
    <rect
       transform="matrix(0,1,1,0,0,0)"
       style="opacity:0.5;fill:#d3c7b1;fill-opacity:1;stroke:#c28f48;stroke-width:0.225385;stroke-miterlimit:4;stroke-dasharray:none;stroke-dashoffset:0;stroke-opacity:1"
       id="rect5400-8-2-9"
       width="23.470577"
       height="3.8621447"
       x="48.369556"
       y="39.495941" />
    <rect
       y="35.839359"
       x="46.552467"
       height="3.6691732"
       width="25.286108"
       id="rect5400-8-2-6-9"
       style="opacity:0.5;fill:#d3c7b1;fill-opacity:1;stroke:#c28f48;stroke-width:0.228021;stroke-miterlimit:4;stroke-dasharray:none;stroke-dashoffset:0;stroke-opacity:1"
       transform="matrix(0,1,1,0,0,0)" />
    <rect
       transform="matrix(0,1,1,0,0,0)"
       style="opacity:0.5;fill:#d3c7b1;fill-opacity:1;stroke:#c28f48;stroke-width:0.207001;stroke-miterlimit:4;stroke-dasharray:none;stroke-dashoffset:0;stroke-opacity:1"
       id="rect5400-8-7-7"
       width="22.13442"
       height="3.4544499"
       x="49.716835"
       y="47.253754" />
    <rect
       transform="matrix(0,1,1,0,0,0)"
       style="opacity:0.5;fill:#d3c7b1;fill-opacity:1;stroke:#c28f48;stroke-width:0.220235;stroke-miterlimit:4;stroke-dasharray:none;stroke-dashoffset:0;stroke-opacity:1"
       id="rect5400-8-7-5"
       width="22.116779"
       height="3.9133914"
       x="49.717136"
       y="50.736961" />
    <path
       id="path3372"
       d="M 6.8035712,71.815476 V 40.348959"
       style="fill:none;stroke:#000000;stroke-width:0.352778;stroke-linecap:butt;stroke-linejoin:miter;stroke-miterlimit:4;stroke-dasharray:none;stroke-opacity:1;marker-end:url(#marker24396)" />
    <g
       transform="matrix(0.03963148,0,0,-0.03963148,28.554487,73.290418)"
       id="g7509"
       style="display:inline;fill:#a6a7a3">
      <path
         style="fill:#a6a7a3;fill-opacity:1;stroke:none"
         d="m 50.0087,3.0227061 c 2.425745,0.746744 5.012823,0.7122008 7.550759,0.6849483 7.475267,-0.08027 14.951223,-0.039342 22.426897,-0.020646 2.065866,0.00517 4.210218,0.025554 6.075969,0.9125736 C 88.159639,5.5966914 89.691972,7.6982458 90,10 89.307261,9.262159 88.482465,8.6486667 87.576557,8.1974158 85.297754,7.0622986 82.653275,6.9988553 80.107536,6.9734277 73.344129,6.9058728 66.580182,6.9450812 59.816442,6.9528892 56.529683,6.9566834 53.126722,6.929119 50.134192,5.5698678 48.016335,4.607906 46.200968,2.9920752 45,1 43.815115,2.9213533 42.068558,4.4916771 40.032465,5.4662944 36.941889,6.9456618 33.388933,7.0165354 29.962552,7.0265398 23.327154,7.0459139 16.691754,6.9420887 10.056424,6.9779241 7.4704959,6.9918899 4.7850487,7.0497254 2.4647757,8.1914576 1.5457144,8.6436983 0.70717095,9.258984 0,10 0.34151794,7.6910633 1.8791292,5.5924547 3.9777757,4.5709333 5.8118098,3.6782126 7.9223541,3.6028644 9.9615558,3.5550337 17.49377,3.3783611 25.029743,3.3485189 32.562597,3.4954066 35.047171,3.5438548 37.577655,3.6058885 39.964882,2.9155242 41.846492,2.3713797 43.59139,1.3610173 45,0 c 1.390009,1.3953906 3.126297,2.443225 5.0087,3.0227061 z"
         id="path3774"
         inkscape:path-effect="#path-effect2988"
         inkscape:original-d="m 50.0087,3.0227061 c 1.292036,0.5024419 4.985995,0.399272 7.550759,0.6849483 1.282382,0.1428382 18.039431,-0.09915 22.426897,-0.020646 4.387466,0.078504 5.444938,0.5434835 6.075969,0.9125736 C 86.693356,4.9686721 90,10 90,10 90,10 88.182447,8.402454 87.576557,8.1974158 86.970666,7.9923776 84.200716,7.0362075 80.107536,6.9734277 76.014356,6.9106479 60.964516,7.0154518 59.816442,6.9528892 57.520294,6.8277642 51.410387,6.1064871 50.134192,5.5698678 48.857997,5.0332484 45,1 45,1 45,1 38.478896,4.5713892 40.032465,5.4662944 40.895198,5.9632565 37.997093,6.5135007 29.962552,7.0265398 21.92801,7.5395789 11.000434,6.893712 10.056424,6.9779241 9.1124136,7.0621362 3.8409013,7.4088488 2.4647757,8.1914576 1.0886501,8.9740664 0,10 0,10 0,10 5.3337905,6.777155 3.9777757,4.5709333 2.6217609,2.3647115 9.6174962,4.4378151 9.9615558,3.5550337 10.305615,2.6722522 24.999056,3.8199992 32.562597,3.4954066 40.126138,3.1708139 39.372095,2.0337056 39.964882,2.9155242 40.55767,3.7973429 42.243915,0.48797044 45,0 c 2.635001,0.50646149 3.716664,2.5202643 5.0087,3.0227061 z"
         inkscape:connector-curvature="0"
         sodipodi:nodetypes="zsszczsszcsszzczzszcz" />
    </g>
    <g
       transform="matrix(0.423334,0,0,0.423334,2.9035742,40.71934)"
       ns1:version="1.1.0"
       ns1:texconverter="pdflatex"
       ns1:pdfconverter="inkscape"
       ns1:text="$v$"
       ns1:preamble="C:\\Users\\flvisa\\Desktop\\lna\\latexify_books\\textext_preamble.tex"
       ns1:scale="1.1999998015751292"
       ns1:alignment="middle center"
       ns1:inkscapeversion="1.0"
       ns1:jacobian_sqrt="0.423334"
       id="g7943">
      <defs
         id="id-547d2eaa-99d2-48cc-9a46-6e3aa338c0ee">
        <g
           id="id-0ec8ae88-8117-40a7-aa06-18cc6d7a40b2">
          <symbol
             id="id-1cde6035-0bb1-4828-9df8-8f02f39e2418"
             overflow="visible">
            <path
               id="id-a87dd69c-483f-4d71-9d20-9668d5fa30a1"
               d=""
               style="stroke:none" />
          </symbol>
          <symbol
             id="id-197540e8-1743-4966-a8d4-2812082296cc"
             overflow="visible">
            <path
               id="id-b09860ff-9965-4969-9ea3-752eea0e27e4"
               d="m 1.375,0.0625 c 1.234375,0 2.8125,-2.09375 2.8125,-3.640625 0,-0.375 -0.1875,-0.8125 -0.5625,-0.8125 -0.234375,0 -0.40625,0.21875 -0.46875,0.390625 0.171875,0.171875 0.28125,0.421875 0.28125,0.640625 0,0.234375 -0.015625,0.578125 -0.09375,0.953125 -0.140625,0.578125 -0.65625,1.859375 -1.484375,1.859375 -0.21875,0 -0.546875,-0.015625 -0.546875,-0.234375 0,-0.59375 0.515625,-2.609375 0.515625,-3.0625 0,-0.296875 -0.15625,-0.546875 -0.375,-0.546875 -0.484375,0 -1.171875,0.765625 -1.28125,0.953125 0,0.0625 0.0625,0.1875 0.09375,0.1875 0.03125,-0.03125 0.484375,-0.59375 0.71875,-0.59375 0.09375,0 0.078125,0.171875 0.078125,0.265625 L 0.65625,-1.5 c -0.09375,0.375 -0.140625,0.765625 -0.140625,0.9375 0,0.5 0.453125,0.625 0.859375,0.625 z m 0,0"
               style="stroke:none" />
          </symbol>
        </g>
      </defs>
      <g
         transform="translate(-149.084,-130.374)"
         id="id-48c32be1-af78-4284-b4c3-b74370327583">
        <g
           id="id-43f62969-c3ea-4baa-9d99-96bc2dfd9bae"
           style="fill:#000000;fill-opacity:1">
          <g
             transform="translate(148.912,134.765)"
             id="g7939">
            <path
               id="id-bd09d98c-8aea-4444-bdea-36bb0ab57756"
               d="m 1.375,0.0625 c 1.234375,0 2.8125,-2.09375 2.8125,-3.640625 0,-0.375 -0.1875,-0.8125 -0.5625,-0.8125 -0.234375,0 -0.40625,0.21875 -0.46875,0.390625 0.171875,0.171875 0.28125,0.421875 0.28125,0.640625 0,0.234375 -0.015625,0.578125 -0.09375,0.953125 -0.140625,0.578125 -0.65625,1.859375 -1.484375,1.859375 -0.21875,0 -0.546875,-0.015625 -0.546875,-0.234375 0,-0.59375 0.515625,-2.609375 0.515625,-3.0625 0,-0.296875 -0.15625,-0.546875 -0.375,-0.546875 -0.484375,0 -1.171875,0.765625 -1.28125,0.953125 0,0.0625 0.0625,0.1875 0.09375,0.1875 0.03125,-0.03125 0.484375,-0.59375 0.71875,-0.59375 0.09375,0 0.078125,0.171875 0.078125,0.265625 L 0.65625,-1.5 c -0.09375,0.375 -0.140625,0.765625 -0.140625,0.9375 0,0.5 0.453125,0.625 0.859375,0.625 z m 0,0"
               style="stroke:none" />
          </g>
        </g>
      </g>
    </g>
    <g
       transform="matrix(0.423334,0,0,0.423334,58.196626,73.813288)"
       ns1:version="1.1.0"
       ns1:texconverter="pdflatex"
       ns1:pdfconverter="inkscape"
       ns1:text="$t$"
       ns1:preamble="C:\\Users\\flvisa\\Desktop\\lna\\latexify_books\\textext_preamble.tex"
       ns1:scale="1.1999998015751292"
       ns1:alignment="middle center"
       ns1:inkscapeversion="1.0"
       ns1:jacobian_sqrt="0.423334"
       id="g8107">
      <defs
         id="id-08f4ee49-276e-4a5f-8edd-a7fab8c66b67">
        <g
           id="id-eb7214a9-b4fd-4301-b9e7-0c669f87171d">
          <symbol
             id="id-f0d04313-7fbf-4e78-ae0f-13cdaa7a9eab"
             overflow="visible">
            <path
               id="id-2660b282-0341-4dc3-908e-36d7b7c966e6"
               d=""
               style="stroke:none" />
          </symbol>
          <symbol
             id="id-21611951-519d-48c0-ab80-ae5b3c2d52f7"
             overflow="visible">
            <path
               id="id-bb996937-ca56-48ff-b7ce-d9a921c00ffe"
               d="M 1.171875,-4.171875 H 0.875 c -0.234375,0 -0.46875,0.25 -0.46875,0.34375 0,0.015625 0.015625,0.03125 0.03125,0.03125 H 1.109375 L 0.5625,-1 C 0.53125,-0.78125 0.5,-0.546875 0.5,-0.46875 c 0,0.296875 0.125,0.53125 0.34375,0.53125 0.46875,0 1.203125,-0.765625 1.3125,-0.953125 0,-0.0625 -0.078125,-0.171875 -0.109375,-0.171875 C 2.03125,-1.03125 1.578125,-0.5 1.359375,-0.5 1.25,-0.5 1.25,-0.65625 1.25,-0.75 c 0,-0.046875 0.03125,-0.21875 0.046875,-0.3125 l 0.53125,-2.734375 h 0.78125 c 0.046875,-0.078125 0.09375,-0.15625 0.09375,-0.25 0,-0.046875 -0.015625,-0.125 -0.046875,-0.125 H 1.890625 L 2.125,-5.359375 c -0.046875,-0.03125 -0.125,-0.0625 -0.1875,-0.0625 -0.078125,0 -0.53125,0.515625 -0.640625,0.65625 z m 0,0"
               style="stroke:none" />
          </symbol>
        </g>
      </defs>
      <g
         transform="translate(-149.118,-129.343)"
         id="id-6b60642e-5837-425a-9cf2-7a0806bf2b84">
        <g
           id="id-9fc3a361-37f6-4869-831e-93fc1fdae76b"
           style="fill:#000000;fill-opacity:1">
          <g
             transform="translate(148.712,134.765)"
             id="g8103">
            <path
               id="id-1b6d795d-ccf1-4321-b15a-959bfc9be0fa"
               d="M 1.171875,-4.171875 H 0.875 c -0.234375,0 -0.46875,0.25 -0.46875,0.34375 0,0.015625 0.015625,0.03125 0.03125,0.03125 H 1.109375 L 0.5625,-1 C 0.53125,-0.78125 0.5,-0.546875 0.5,-0.46875 c 0,0.296875 0.125,0.53125 0.34375,0.53125 0.46875,0 1.203125,-0.765625 1.3125,-0.953125 0,-0.0625 -0.078125,-0.171875 -0.109375,-0.171875 C 2.03125,-1.03125 1.578125,-0.5 1.359375,-0.5 1.25,-0.5 1.25,-0.65625 1.25,-0.75 c 0,-0.046875 0.03125,-0.21875 0.046875,-0.3125 l 0.53125,-2.734375 h 0.78125 c 0.046875,-0.078125 0.09375,-0.15625 0.09375,-0.25 0,-0.046875 -0.015625,-0.125 -0.046875,-0.125 H 1.890625 L 2.125,-5.359375 c -0.046875,-0.03125 -0.125,-0.0625 -0.1875,-0.0625 -0.078125,0 -0.53125,0.515625 -0.640625,0.65625 z m 0,0"
               style="stroke:none" />
          </g>
        </g>
      </g>
    </g>
    <g
       transform="matrix(0.423334,0,0,0.423334,5.9040394,73.8135)"
       ns1:version="1.1.0"
       ns1:texconverter="pdflatex"
       ns1:pdfconverter="inkscape"
       ns1:text="$0$"
       ns1:preamble="C:\\Users\\flvisa\\Desktop\\lna\\latexify_books\\textext_preamble.tex"
       ns1:scale="1.1999998015751292"
       ns1:alignment="middle center"
       ns1:inkscapeversion="1.0"
       ns1:jacobian_sqrt="0.423334"
       id="g8490">
      <defs
         id="id-42463532-4263-44a9-a984-ade8abc7a20f">
        <g
           id="id-60d945d8-3bd8-4725-8f7b-02644e17b625">
          <symbol
             id="id-fdecaca5-37ac-4d58-bf9d-86a915ad8324"
             overflow="visible">
            <path
               id="id-acdb6c7d-c234-4783-ab1f-35ba4d7d41f4"
               d="M 0.5,0 H 4.484375 V -4.8125 H 0.5 Z M 1,-0.5 V -4.3125 H 3.984375 V -0.5 Z m 0,0"
               style="stroke:none" />
          </symbol>
          <symbol
             id="id-9710ee9d-2418-43ce-9ab1-9697c22315d6"
             overflow="visible">
            <path
               id="id-80c06021-e142-4fc1-97ed-624dc76d8aa7"
               d="m 2.484375,-5.875 c 0.71875,0 1.203125,1.1875 1.203125,2.71875 0,1.515625 -0.4375,2.828125 -1.3125,2.828125 -0.703125,0 -1.21875,-1.25 -1.21875,-2.78125 0,-1.53125 0.515625,-2.765625 1.328125,-2.765625 z m -0.0625,-0.359375 c -1.34375,0 -2.125,1.421875 -2.125,3.125 0,1.6875 0.796875,3.140625 2.125,3.140625 1.34375,0 2.125,-1.453125 2.125,-3.140625 0,-1.703125 -0.765625,-3.125 -2.125,-3.125 z m 0,0"
               style="stroke:none" />
          </symbol>
        </g>
      </defs>
      <g
         transform="translate(-149.009,-128.531)"
         id="id-85f04e6b-2689-4da0-b114-02c1d44fa5e8">
        <g
           id="id-5a6a3bdf-e332-49f0-ab6e-acc649fd12e6"
           style="fill:#000000;fill-opacity:1">
          <g
             transform="translate(148.712,134.765)"
             id="g8486">
            <path
               id="id-2a257930-fd5c-496c-ada8-010a90b983c4"
               d="m 2.484375,-5.875 c 0.71875,0 1.203125,1.1875 1.203125,2.71875 0,1.515625 -0.4375,2.828125 -1.3125,2.828125 -0.703125,0 -1.21875,-1.25 -1.21875,-2.78125 0,-1.53125 0.515625,-2.765625 1.328125,-2.765625 z m -0.0625,-0.359375 c -1.34375,0 -2.125,1.421875 -2.125,3.125 0,1.6875 0.796875,3.140625 2.125,3.140625 1.34375,0 2.125,-1.453125 2.125,-3.140625 0,-1.703125 -0.765625,-3.125 -2.125,-3.125 z m 0,0"
               style="stroke:none" />
          </g>
        </g>
      </g>
    </g>
    <g
       transform="matrix(0.423334,0,0,0.423334,16.48796,73.813288)"
       ns1:version="1.1.0"
       ns1:texconverter="pdflatex"
       ns1:pdfconverter="inkscape"
       ns1:text="$t_1$"
       ns1:preamble="C:\\Users\\flvisa\\Desktop\\lna\\latexify_books\\textext_preamble.tex"
       ns1:scale="1.1999998015751292"
       ns1:alignment="middle center"
       ns1:inkscapeversion="1.0"
       ns1:jacobian_sqrt="0.423334"
       id="g8702">
      <defs
         id="id-debe29e6-d08d-4394-9554-4384c472f6bf">
        <g
           id="id-9336daa8-2fb0-4963-a700-4a60f65d4e7d">
          <symbol
             id="id-bef7ff07-19f8-4cb6-9d6d-77d9fb976d3a"
             overflow="visible">
            <path
               id="id-a4fbf90e-1095-4033-8c1a-dff0a5956ab7"
               d=""
               style="stroke:none" />
          </symbol>
          <symbol
             id="id-ca63187f-d708-4cf6-bb84-8c10704dbd3e"
             overflow="visible">
            <path
               id="id-cc5f1d04-e017-47bf-a601-46cf22508f51"
               d="M 1.171875,-4.171875 H 0.875 c -0.234375,0 -0.46875,0.25 -0.46875,0.34375 0,0.015625 0.015625,0.03125 0.03125,0.03125 H 1.109375 L 0.5625,-1 C 0.53125,-0.78125 0.5,-0.546875 0.5,-0.46875 c 0,0.296875 0.125,0.53125 0.34375,0.53125 0.46875,0 1.203125,-0.765625 1.3125,-0.953125 0,-0.0625 -0.078125,-0.171875 -0.109375,-0.171875 C 2.03125,-1.03125 1.578125,-0.5 1.359375,-0.5 1.25,-0.5 1.25,-0.65625 1.25,-0.75 c 0,-0.046875 0.03125,-0.21875 0.046875,-0.3125 l 0.53125,-2.734375 h 0.78125 c 0.046875,-0.078125 0.09375,-0.15625 0.09375,-0.25 0,-0.046875 -0.015625,-0.125 -0.046875,-0.125 H 1.890625 L 2.125,-5.359375 c -0.046875,-0.03125 -0.125,-0.0625 -0.1875,-0.0625 -0.078125,0 -0.53125,0.515625 -0.640625,0.65625 z m 0,0"
               style="stroke:none" />
          </symbol>
          <symbol
             id="id-c1924862-7198-4d15-8a3b-02a99dd769c9"
             overflow="visible">
            <path
               id="id-33d74bd0-a6a0-4071-9ec9-be158797cdb3"
               d="m 0.359375,0 h 2.90625 V -3.515625 H 0.359375 Z M 0.71875,-0.359375 v -2.78125 h 2.1875 v 2.78125 z m 0,0"
               style="stroke:none" />
          </symbol>
          <symbol
             id="id-75b7ac3c-8ecc-49f1-a9ef-5c4dba80ee31"
             overflow="visible">
            <path
               id="id-90ac5186-42ab-4f2d-84b8-47035f73c0c0"
               d="m 1.578125,-0.828125 c 0,0.21875 0,0.40625 -0.03125,0.53125 -0.03125,0.078125 -0.375,0.109375 -0.453125,0.109375 -0.03125,0.046875 -0.046875,0.171875 0,0.203125 C 1.375,0 1.5625,-0.015625 1.84375,-0.015625 c 0.28125,0 0.5,0.015625 0.796875,0.03125 0.03125,-0.03125 0.03125,-0.15625 0,-0.203125 -0.09375,0 -0.4375,-0.03125 -0.46875,-0.109375 -0.03125,-0.125 -0.03125,-0.3125 -0.03125,-0.53125 V -3.75 c 0,-0.4375 0.0625,-0.6875 0.0625,-0.6875 C 2.1875,-4.46875 2.171875,-4.5625 2.125,-4.5625 H 2.109375 c -0.015625,0 -0.65625,0.3125 -1.234375,0.578125 -0.015625,0.015625 0,0.03125 0,0.046875 0,0.046875 0.03125,0.09375 0.0625,0.125 0.109375,-0.046875 0.390625,-0.140625 0.5,-0.140625 0.109375,0 0.140625,0.0625 0.140625,0.265625 z m 0,0"
               style="stroke:none" />
          </symbol>
        </g>
      </defs>
      <g
         transform="translate(-149.118,-129.343)"
         id="id-745a80a4-ecd3-4e73-8761-d5b75374ca48">
        <g
           id="id-cbc5e690-3174-4e21-9ac5-0fde28c38c90"
           style="fill:#000000;fill-opacity:1">
          <g
             transform="translate(148.712,134.765)"
             id="g8694">
            <path
               id="id-620cff26-65e3-47e0-abe5-ec97e51e90c2"
               d="M 1.171875,-4.171875 H 0.875 c -0.234375,0 -0.46875,0.25 -0.46875,0.34375 0,0.015625 0.015625,0.03125 0.03125,0.03125 H 1.109375 L 0.5625,-1 C 0.53125,-0.78125 0.5,-0.546875 0.5,-0.46875 c 0,0.296875 0.125,0.53125 0.34375,0.53125 0.46875,0 1.203125,-0.765625 1.3125,-0.953125 0,-0.0625 -0.078125,-0.171875 -0.109375,-0.171875 C 2.03125,-1.03125 1.578125,-0.5 1.359375,-0.5 1.25,-0.5 1.25,-0.65625 1.25,-0.75 c 0,-0.046875 0.03125,-0.21875 0.046875,-0.3125 l 0.53125,-2.734375 h 0.78125 c 0.046875,-0.078125 0.09375,-0.15625 0.09375,-0.25 0,-0.046875 -0.015625,-0.125 -0.046875,-0.125 H 1.890625 L 2.125,-5.359375 c -0.046875,-0.03125 -0.125,-0.0625 -0.1875,-0.0625 -0.078125,0 -0.53125,0.515625 -0.640625,0.65625 z m 0,0"
               style="stroke:none" />
          </g>
        </g>
        <g
           id="id-ee8a9e69-5c0f-4ee2-ad23-0822f230d95c"
           style="fill:#000000;fill-opacity:1">
          <g
             transform="translate(151.601,136.259)"
             id="g8698">
            <path
               id="id-2d3983b6-cc90-4fa0-95f9-9c675301bfa9"
               d="m 1.578125,-0.828125 c 0,0.21875 0,0.40625 -0.03125,0.53125 -0.03125,0.078125 -0.375,0.109375 -0.453125,0.109375 -0.03125,0.046875 -0.046875,0.171875 0,0.203125 C 1.375,0 1.5625,-0.015625 1.84375,-0.015625 c 0.28125,0 0.5,0.015625 0.796875,0.03125 0.03125,-0.03125 0.03125,-0.15625 0,-0.203125 -0.09375,0 -0.4375,-0.03125 -0.46875,-0.109375 -0.03125,-0.125 -0.03125,-0.3125 -0.03125,-0.53125 V -3.75 c 0,-0.4375 0.0625,-0.6875 0.0625,-0.6875 C 2.1875,-4.46875 2.171875,-4.5625 2.125,-4.5625 H 2.109375 c -0.015625,0 -0.65625,0.3125 -1.234375,0.578125 -0.015625,0.015625 0,0.03125 0,0.046875 0,0.046875 0.03125,0.09375 0.0625,0.125 0.109375,-0.046875 0.390625,-0.140625 0.5,-0.140625 0.109375,0 0.140625,0.0625 0.140625,0.265625 z m 0,0"
               style="stroke:none" />
          </g>
        </g>
      </g>
    </g>
    <g
       transform="matrix(0.423334,0,0,0.423334,53.717589,73.813288)"
       ns1:version="1.1.0"
       ns1:texconverter="pdflatex"
       ns1:pdfconverter="inkscape"
       ns1:text="$t_2$"
       ns1:preamble="C:\\Users\\flvisa\\Desktop\\lna\\latexify_books\\textext_preamble.tex"
       ns1:scale="1.1999998015751292"
       ns1:alignment="middle center"
       ns1:inkscapeversion="1.0"
       ns1:jacobian_sqrt="0.423334"
       id="g8939">
      <defs
         id="id-262f5579-ed7b-48db-888a-09f27618c259">
        <g
           id="id-875b25d2-1f45-4448-ba21-b7af0de2fe6a">
          <symbol
             id="id-7330350b-fc2f-4fc1-ad68-20f52edd6bf7"
             overflow="visible">
            <path
               id="id-5f807aa3-8bbc-49b0-a551-f66b925716ee"
               d=""
               style="stroke:none" />
          </symbol>
          <symbol
             id="id-03f299ba-c47d-4130-b1ff-e00d7aa7233b"
             overflow="visible">
            <path
               id="id-c425620f-521f-46ed-9815-c1423a4ffeef"
               d="M 1.171875,-4.171875 H 0.875 c -0.234375,0 -0.46875,0.25 -0.46875,0.34375 0,0.015625 0.015625,0.03125 0.03125,0.03125 H 1.109375 L 0.5625,-1 C 0.53125,-0.78125 0.5,-0.546875 0.5,-0.46875 c 0,0.296875 0.125,0.53125 0.34375,0.53125 0.46875,0 1.203125,-0.765625 1.3125,-0.953125 0,-0.0625 -0.078125,-0.171875 -0.109375,-0.171875 C 2.03125,-1.03125 1.578125,-0.5 1.359375,-0.5 1.25,-0.5 1.25,-0.65625 1.25,-0.75 c 0,-0.046875 0.03125,-0.21875 0.046875,-0.3125 l 0.53125,-2.734375 h 0.78125 c 0.046875,-0.078125 0.09375,-0.15625 0.09375,-0.25 0,-0.046875 -0.015625,-0.125 -0.046875,-0.125 H 1.890625 L 2.125,-5.359375 c -0.046875,-0.03125 -0.125,-0.0625 -0.1875,-0.0625 -0.078125,0 -0.53125,0.515625 -0.640625,0.65625 z m 0,0"
               style="stroke:none" />
          </symbol>
          <symbol
             id="id-eea3e092-7cac-4a63-9be1-df964a5cfd49"
             overflow="visible">
            <path
               id="id-5f6a7eef-5fec-44fa-a1ed-b08d3302242b"
               d="m 0.359375,0 h 2.90625 V -3.515625 H 0.359375 Z M 0.71875,-0.359375 v -2.78125 h 2.1875 v 2.78125 z m 0,0"
               style="stroke:none" />
          </symbol>
          <symbol
             id="id-d80739fd-78c5-49a7-9423-d020af319c74"
             overflow="visible">
            <path
               id="id-f3bd7764-f4e5-45fa-8202-c452a6815afa"
               d="M 3.21875,-1.0625 C 3.1875,-1.078125 3.109375,-1.109375 3.078125,-1.109375 3.03125,-1.109375 3.015625,-1.09375 3,-1.0625 2.84375,-0.6875 2.6875,-0.515625 2.390625,-0.515625 H 0.984375 C 1.3125,-0.875 2.03125,-1.671875 2.53125,-2.296875 2.78125,-2.59375 2.9375,-2.96875 2.9375,-3.375 c 0,-0.59375 -0.546875,-1.1875 -1.21875,-1.1875 -0.75,0 -1.265625,0.796875 -1.3125,0.96875 0,0.03125 0.078125,0.109375 0.140625,0.109375 C 0.625,-3.625 0.984375,-4.09375 1.5625,-4.09375 c 0.4375,0 0.78125,0.375 0.78125,0.859375 0,0.34375 -0.0625,0.640625 -0.34375,1.0625 -0.421875,0.609375 -1.09375,1.40625 -1.6875,2.0625 0,0.03125 0.03125,0.09375 0.0625,0.109375 h 2.453125 c 0.046875,-0.125 0.25,-0.71875 0.390625,-1.0625 z m 0,0"
               style="stroke:none" />
          </symbol>
        </g>
      </defs>
      <g
         transform="translate(-149.118,-129.343)"
         id="id-fdee51b2-7d45-4b86-9216-41934f54f6cf">
        <g
           id="id-51caa37a-1643-4bca-a42d-ad70af75f670"
           style="fill:#000000;fill-opacity:1">
          <g
             transform="translate(148.712,134.765)"
             id="g8931">
            <path
               id="id-ed2174d6-abf3-452f-8524-3d658d09d2c4"
               d="M 1.171875,-4.171875 H 0.875 c -0.234375,0 -0.46875,0.25 -0.46875,0.34375 0,0.015625 0.015625,0.03125 0.03125,0.03125 H 1.109375 L 0.5625,-1 C 0.53125,-0.78125 0.5,-0.546875 0.5,-0.46875 c 0,0.296875 0.125,0.53125 0.34375,0.53125 0.46875,0 1.203125,-0.765625 1.3125,-0.953125 0,-0.0625 -0.078125,-0.171875 -0.109375,-0.171875 C 2.03125,-1.03125 1.578125,-0.5 1.359375,-0.5 1.25,-0.5 1.25,-0.65625 1.25,-0.75 c 0,-0.046875 0.03125,-0.21875 0.046875,-0.3125 l 0.53125,-2.734375 h 0.78125 c 0.046875,-0.078125 0.09375,-0.15625 0.09375,-0.25 0,-0.046875 -0.015625,-0.125 -0.046875,-0.125 H 1.890625 L 2.125,-5.359375 c -0.046875,-0.03125 -0.125,-0.0625 -0.1875,-0.0625 -0.078125,0 -0.53125,0.515625 -0.640625,0.65625 z m 0,0"
               style="stroke:none" />
          </g>
        </g>
        <g
           id="id-3268890f-940a-4b56-a492-2fe6955ba4ca"
           style="fill:#000000;fill-opacity:1">
          <g
             transform="translate(151.601,136.259)"
             id="g8935">
            <path
               id="id-80e4235c-b83d-42cd-9474-212907370670"
               d="M 3.21875,-1.0625 C 3.1875,-1.078125 3.109375,-1.109375 3.078125,-1.109375 3.03125,-1.109375 3.015625,-1.09375 3,-1.0625 2.84375,-0.6875 2.6875,-0.515625 2.390625,-0.515625 H 0.984375 C 1.3125,-0.875 2.03125,-1.671875 2.53125,-2.296875 2.78125,-2.59375 2.9375,-2.96875 2.9375,-3.375 c 0,-0.59375 -0.546875,-1.1875 -1.21875,-1.1875 -0.75,0 -1.265625,0.796875 -1.3125,0.96875 0,0.03125 0.078125,0.109375 0.140625,0.109375 C 0.625,-3.625 0.984375,-4.09375 1.5625,-4.09375 c 0.4375,0 0.78125,0.375 0.78125,0.859375 0,0.34375 -0.0625,0.640625 -0.34375,1.0625 -0.421875,0.609375 -1.09375,1.40625 -1.6875,2.0625 0,0.03125 0.03125,0.09375 0.0625,0.109375 h 2.453125 c 0.046875,-0.125 0.25,-0.71875 0.390625,-1.0625 z m 0,0"
               style="stroke:none" />
          </g>
        </g>
      </g>
    </g>
    <g
       style="fill:#a6a7a3"
       transform="matrix(0.423334,0,0,0.423334,28.559899,73.81297)"
       ns1:version="1.1.0"
       ns1:texconverter="pdflatex"
       ns1:pdfconverter="inkscape"
       ns1:text="$\\Delta t_i$"
       ns1:preamble="C:\\Users\\flvisa\\Desktop\\lna\\latexify_books\\textext_preamble.tex"
       ns1:scale="1.1999998015751292"
       ns1:alignment="middle center"
       ns1:inkscapeversion="1.0"
       ns1:jacobian_sqrt="0.423334"
       id="g9200">
      <defs
         id="id-f120e038-112b-4f56-aa74-b425f04a03c3">
        <g
           id="id-c2610e84-5833-4a27-96b4-d849a0989f3d">
          <symbol
             id="id-9725cca4-59c8-4c74-beeb-a9b5a7e3d68e"
             overflow="visible">
            <path
               id="id-4ac07bb6-f7eb-4bb7-9649-d44201c669bf"
               d=""
               style="stroke:none" />
          </symbol>
          <symbol
             id="id-957d3dea-68a6-41bd-920b-d71e216281a0"
             overflow="visible">
            <path
               id="id-0f2d89ca-5a03-42b0-821b-7876d5153b98"
               d="m 4.34375,-0.640625 h -3.8125 c 0,0 2.78125,-4.6875 2.84375,-4.6875 0.28125,1.640625 0.6875,3.5 0.96875,4.6875 z M 3.734375,-6.609375 3.71875,-6.625 c -0.046875,0 -0.265625,0.28125 -0.3125,0.390625 -0.109375,0.25 -0.171875,0.4375 -0.328125,0.703125 -1.296875,2.140625 -3.34375,5.4375 -3.34375,5.4375 v 0.015625 C -0.265625,-0.046875 -0.25,0 -0.21875,0 c 0,0 1.90625,-0.03125 4.265625,-0.03125 0.21875,0 0.515625,0.046875 0.5625,0.078125 0.109375,-0.03125 0.4375,-0.125 0.546875,-0.375 C 4.578125,-2.890625 4.25,-4.09375 3.734375,-6.609375 Z m 0,0"
               style="stroke:none" />
          </symbol>
          <symbol
             id="id-a83fd8a8-d7cf-4d0e-af6a-a90f4d41117d"
             overflow="visible">
            <path
               id="id-e4f3f7d1-b4e5-4cab-81c5-85a95ff2bdf2"
               d="M 1.171875,-4.171875 H 0.875 c -0.234375,0 -0.46875,0.25 -0.46875,0.34375 0,0.015625 0.015625,0.03125 0.03125,0.03125 H 1.109375 L 0.5625,-1 C 0.53125,-0.78125 0.5,-0.546875 0.5,-0.46875 c 0,0.296875 0.125,0.53125 0.34375,0.53125 0.46875,0 1.203125,-0.765625 1.3125,-0.953125 0,-0.0625 -0.078125,-0.171875 -0.109375,-0.171875 C 2.03125,-1.03125 1.578125,-0.5 1.359375,-0.5 1.25,-0.5 1.25,-0.65625 1.25,-0.75 c 0,-0.046875 0.03125,-0.21875 0.046875,-0.3125 l 0.53125,-2.734375 h 0.78125 c 0.046875,-0.078125 0.09375,-0.15625 0.09375,-0.25 0,-0.046875 -0.015625,-0.125 -0.046875,-0.125 H 1.890625 L 2.125,-5.359375 c -0.046875,-0.03125 -0.125,-0.0625 -0.1875,-0.0625 -0.078125,0 -0.53125,0.515625 -0.640625,0.65625 z m 0,0"
               style="stroke:none" />
          </symbol>
          <symbol
             id="id-51f9f6cd-eeba-4324-ad55-098a99365a9c"
             overflow="visible">
            <path
               id="id-f6cc3a42-2fc1-4cbd-94a6-def73674891e"
               d=""
               style="stroke:none" />
          </symbol>
          <symbol
             id="id-cc592adc-cc19-4973-af7b-14b6d01fcf34"
             overflow="visible">
            <path
               id="id-df7da5fe-4e70-4b99-8c84-9a71d31952f2"
               d="m 0.8125,-2.375 -0.375,1.65625 c -0.015625,0.15625 -0.046875,0.3125 -0.046875,0.375 0,0.21875 0.09375,0.390625 0.25,0.390625 0.34375,0 0.890625,-0.5625 0.96875,-0.6875 0,-0.046875 -0.0625,-0.140625 -0.078125,-0.140625 C 1.5,-0.75 1.171875,-0.359375 1.015625,-0.359375 c -0.078125,0 -0.078125,-0.125 -0.078125,-0.1875 0,-0.03125 0.015625,-0.15625 0.03125,-0.234375 l 0.375,-1.640625 C 1.375,-2.59375 1.390625,-2.765625 1.390625,-2.8125 c 0,-0.21875 -0.125,-0.390625 -0.28125,-0.390625 -0.34375,0 -0.84375,0.5625 -0.921875,0.703125 0,0.03125 0.046875,0.125 0.0625,0.125 0.03125,-0.015625 0.359375,-0.421875 0.515625,-0.421875 0.078125,0 0.078125,0.125 0.078125,0.1875 0,0.03125 -0.015625,0.1875 -0.03125,0.234375 z M 1.234375,-4.75 c -0.21875,0 -0.390625,0.203125 -0.390625,0.421875 0,0.15625 0.09375,0.3125 0.265625,0.3125 0.21875,0 0.390625,-0.21875 0.390625,-0.4375 C 1.5,-4.609375 1.390625,-4.75 1.234375,-4.75 Z m 0,0"
               style="stroke:none" />
          </symbol>
        </g>
      </defs>
      <g
         style="fill:#a6a7a3"
         transform="translate(-149.353,-128.14)"
         id="id-2df4d979-4226-4097-b914-f14542ad15f5">
        <g
           id="id-c5e372cf-85fa-40b2-a8fe-bf550d81d248"
           style="fill:#a6a7a3;fill-opacity:1">
          <g
             style="fill:#a6a7a3"
             transform="translate(149.619,134.765)"
             id="g9188">
            <path
               id="id-d399ac06-fbfb-46ee-ba06-0a5d883ff0df"
               d="m 4.34375,-0.640625 h -3.8125 c 0,0 2.78125,-4.6875 2.84375,-4.6875 0.28125,1.640625 0.6875,3.5 0.96875,4.6875 z M 3.734375,-6.609375 3.71875,-6.625 c -0.046875,0 -0.265625,0.28125 -0.3125,0.390625 -0.109375,0.25 -0.171875,0.4375 -0.328125,0.703125 -1.296875,2.140625 -3.34375,5.4375 -3.34375,5.4375 v 0.015625 C -0.265625,-0.046875 -0.25,0 -0.21875,0 c 0,0 1.90625,-0.03125 4.265625,-0.03125 0.21875,0 0.515625,0.046875 0.5625,0.078125 0.109375,-0.03125 0.4375,-0.125 0.546875,-0.375 C 4.578125,-2.890625 4.25,-4.09375 3.734375,-6.609375 Z m 0,0"
               style="stroke:none;fill:#a6a7a3" />
          </g>
        </g>
        <g
           id="id-7b605935-f076-49d3-9631-1effe43a5395"
           style="fill:#a6a7a3;fill-opacity:1">
          <g
             style="fill:#a6a7a3"
             transform="translate(155.178,134.765)"
             id="g9192">
            <path
               id="id-830b8c95-1168-476c-b045-5f1e69ff1fef"
               d="M 1.171875,-4.171875 H 0.875 c -0.234375,0 -0.46875,0.25 -0.46875,0.34375 0,0.015625 0.015625,0.03125 0.03125,0.03125 H 1.109375 L 0.5625,-1 C 0.53125,-0.78125 0.5,-0.546875 0.5,-0.46875 c 0,0.296875 0.125,0.53125 0.34375,0.53125 0.46875,0 1.203125,-0.765625 1.3125,-0.953125 0,-0.0625 -0.078125,-0.171875 -0.109375,-0.171875 C 2.03125,-1.03125 1.578125,-0.5 1.359375,-0.5 1.25,-0.5 1.25,-0.65625 1.25,-0.75 c 0,-0.046875 0.03125,-0.21875 0.046875,-0.3125 l 0.53125,-2.734375 h 0.78125 c 0.046875,-0.078125 0.09375,-0.15625 0.09375,-0.25 0,-0.046875 -0.015625,-0.125 -0.046875,-0.125 H 1.890625 L 2.125,-5.359375 c -0.046875,-0.03125 -0.125,-0.0625 -0.1875,-0.0625 -0.078125,0 -0.53125,0.515625 -0.640625,0.65625 z m 0,0"
               style="stroke:none;fill:#a6a7a3" />
          </g>
        </g>
        <g
           id="id-749b5263-c21f-46d2-adb9-d2ecdbaff5e4"
           style="fill:#a6a7a3;fill-opacity:1">
          <g
             style="fill:#a6a7a3"
             transform="translate(158.213,136.259)"
             id="g9196">
            <path
               id="id-02a04cf7-386e-42b4-a65a-c4546b92ce93"
               d="m 0.8125,-2.375 -0.375,1.65625 c -0.015625,0.15625 -0.046875,0.3125 -0.046875,0.375 0,0.21875 0.09375,0.390625 0.25,0.390625 0.34375,0 0.890625,-0.5625 0.96875,-0.6875 0,-0.046875 -0.0625,-0.140625 -0.078125,-0.140625 C 1.5,-0.75 1.171875,-0.359375 1.015625,-0.359375 c -0.078125,0 -0.078125,-0.125 -0.078125,-0.1875 0,-0.03125 0.015625,-0.15625 0.03125,-0.234375 l 0.375,-1.640625 C 1.375,-2.59375 1.390625,-2.765625 1.390625,-2.8125 c 0,-0.21875 -0.125,-0.390625 -0.28125,-0.390625 -0.34375,0 -0.84375,0.5625 -0.921875,0.703125 0,0.03125 0.046875,0.125 0.0625,0.125 0.03125,-0.015625 0.359375,-0.421875 0.515625,-0.421875 0.078125,0 0.078125,0.125 0.078125,0.1875 0,0.03125 -0.015625,0.1875 -0.03125,0.234375 z M 1.234375,-4.75 c -0.21875,0 -0.390625,0.203125 -0.390625,0.421875 0,0.15625 0.09375,0.3125 0.265625,0.3125 0.21875,0 0.390625,-0.21875 0.390625,-0.4375 C 1.5,-4.609375 1.390625,-4.75 1.234375,-4.75 Z m 0,0"
               style="stroke:none;fill:#a6a7a3" />
          </g>
        </g>
      </g>
    </g>
    <rect
       y="-32.415958"
       x="45.993481"
       height="3.8434794"
       width="25.829599"
       id="rect5400-8-2-6-1"
       style="opacity:0.5;fill:#d3c7b1;fill-opacity:1;stroke:#c28f48;stroke-width:0.23587;stroke-miterlimit:4;stroke-dasharray:none;stroke-dashoffset:0;stroke-opacity:1"
       transform="rotate(90)" />
    <path
       id="path7102"
       d="m 30.544072,62.119007 v 9.020346"
       style="fill:none;stroke:#9a4832;stroke-width:0.352778;stroke-linecap:butt;stroke-linejoin:miter;stroke-miterlimit:4;stroke-dasharray:1.05833, 0.35277799999999998;stroke-dashoffset:0;stroke-opacity:1;marker-end:url(#marker24426)" />
    <path
       style="fill:none;stroke:#9a4832;stroke-width:0.352778;stroke-linecap:butt;stroke-linejoin:miter;stroke-miterlimit:4;stroke-dasharray:1.05833, 0.35277799999999998;stroke-dashoffset:0;stroke-opacity:1;marker-end:url(#marker24416)"
       d="M 30.544072,55.669096 V 46.64875"
       id="path7102-3" />
    <g
       style="fill:#9a4832"
       transform="matrix(0.423334,0,0,0.423334,29.232847,57.782217)"
       ns1:version="1.1.0"
       ns1:texconverter="pdflatex"
       ns1:pdfconverter="inkscape"
       ns1:text="$v_i$"
       ns1:preamble="C:\\Users\\flvisa\\Desktop\\lna\\latexify_books\\textext_preamble.tex"
       ns1:scale="1.1999998015751292"
       ns1:alignment="middle center"
       ns1:inkscapeversion="1.0"
       ns1:jacobian_sqrt="0.423334"
       id="g8290">
      <defs
         id="id-e861c14c-90f9-4bc4-8ce0-9c5c95d5d90e">
        <g
           id="id-70171b10-864a-4204-95fb-407fc728f64f">
          <symbol
             id="id-e0ca11f8-7000-4257-9d24-1c9afc30d980"
             overflow="visible">
            <path
               id="id-ad927062-415d-411e-8503-8baecc5cd3c4"
               d=""
               style="stroke:none" />
          </symbol>
          <symbol
             id="id-371ae2db-efb3-4913-9600-9abe0bef9055"
             overflow="visible">
            <path
               id="id-5f1d669c-df32-4fb6-a1d3-8e73f24ac590"
               d="m 1.375,0.0625 c 1.234375,0 2.8125,-2.09375 2.8125,-3.640625 0,-0.375 -0.1875,-0.8125 -0.5625,-0.8125 -0.234375,0 -0.40625,0.21875 -0.46875,0.390625 0.171875,0.171875 0.28125,0.421875 0.28125,0.640625 0,0.234375 -0.015625,0.578125 -0.09375,0.953125 -0.140625,0.578125 -0.65625,1.859375 -1.484375,1.859375 -0.21875,0 -0.546875,-0.015625 -0.546875,-0.234375 0,-0.59375 0.515625,-2.609375 0.515625,-3.0625 0,-0.296875 -0.15625,-0.546875 -0.375,-0.546875 -0.484375,0 -1.171875,0.765625 -1.28125,0.953125 0,0.0625 0.0625,0.1875 0.09375,0.1875 0.03125,-0.03125 0.484375,-0.59375 0.71875,-0.59375 0.09375,0 0.078125,0.171875 0.078125,0.265625 L 0.65625,-1.5 c -0.09375,0.375 -0.140625,0.765625 -0.140625,0.9375 0,0.5 0.453125,0.625 0.859375,0.625 z m 0,0"
               style="stroke:none" />
          </symbol>
          <symbol
             id="id-545f3626-ee9f-49fe-85cc-6fa23b76c1bf"
             overflow="visible">
            <path
               id="id-93d2e1db-7840-4d68-ba79-005aa7b535d5"
               d=""
               style="stroke:none" />
          </symbol>
          <symbol
             id="id-027fccb0-e5d4-48ce-97b8-fb524f51944f"
             overflow="visible">
            <path
               id="id-148b9728-727f-4dee-8d3d-9dd1383fd00b"
               d="m 0.8125,-2.375 -0.375,1.65625 c -0.015625,0.15625 -0.046875,0.3125 -0.046875,0.375 0,0.21875 0.09375,0.390625 0.25,0.390625 0.34375,0 0.890625,-0.5625 0.96875,-0.6875 0,-0.046875 -0.0625,-0.140625 -0.078125,-0.140625 C 1.5,-0.75 1.171875,-0.359375 1.015625,-0.359375 c -0.078125,0 -0.078125,-0.125 -0.078125,-0.1875 0,-0.03125 0.015625,-0.15625 0.03125,-0.234375 l 0.375,-1.640625 C 1.375,-2.59375 1.390625,-2.765625 1.390625,-2.8125 c 0,-0.21875 -0.125,-0.390625 -0.28125,-0.390625 -0.34375,0 -0.84375,0.5625 -0.921875,0.703125 0,0.03125 0.046875,0.125 0.0625,0.125 0.03125,-0.015625 0.359375,-0.421875 0.515625,-0.421875 0.078125,0 0.078125,0.125 0.078125,0.1875 0,0.03125 -0.015625,0.1875 -0.03125,0.234375 z M 1.234375,-4.75 c -0.21875,0 -0.390625,0.203125 -0.390625,0.421875 0,0.15625 0.09375,0.3125 0.265625,0.3125 0.21875,0 0.390625,-0.21875 0.390625,-0.4375 C 1.5,-4.609375 1.390625,-4.75 1.234375,-4.75 Z m 0,0"
               style="stroke:none" />
          </symbol>
        </g>
      </defs>
      <g
         style="fill:#9a4832"
         transform="translate(-149.084,-130.374)"
         id="id-9dea3887-6526-4b84-af7d-c3ba178c50f8">
        <g
           id="id-1e2cd2a4-03b1-4a8b-b505-07feb8fdf6d1"
           style="fill:#9a4832;fill-opacity:1">
          <g
             style="fill:#9a4832"
             transform="translate(148.912,134.765)"
             id="g8282">
            <path
               id="id-36c5cc70-fff0-4e27-b84e-e59c1d2e9db4"
               d="m 1.375,0.0625 c 1.234375,0 2.8125,-2.09375 2.8125,-3.640625 0,-0.375 -0.1875,-0.8125 -0.5625,-0.8125 -0.234375,0 -0.40625,0.21875 -0.46875,0.390625 0.171875,0.171875 0.28125,0.421875 0.28125,0.640625 0,0.234375 -0.015625,0.578125 -0.09375,0.953125 -0.140625,0.578125 -0.65625,1.859375 -1.484375,1.859375 -0.21875,0 -0.546875,-0.015625 -0.546875,-0.234375 0,-0.59375 0.515625,-2.609375 0.515625,-3.0625 0,-0.296875 -0.15625,-0.546875 -0.375,-0.546875 -0.484375,0 -1.171875,0.765625 -1.28125,0.953125 0,0.0625 0.0625,0.1875 0.09375,0.1875 0.03125,-0.03125 0.484375,-0.59375 0.71875,-0.59375 0.09375,0 0.078125,0.171875 0.078125,0.265625 L 0.65625,-1.5 c -0.09375,0.375 -0.140625,0.765625 -0.140625,0.9375 0,0.5 0.453125,0.625 0.859375,0.625 z m 0,0"
               style="fill:#9a4832;stroke:none" />
          </g>
        </g>
        <g
           id="id-572c5327-8248-41ae-b819-f869606fee41"
           style="fill:#9a4832;fill-opacity:1">
          <g
             style="fill:#9a4832"
             transform="translate(153.072,136.259)"
             id="g8286">
            <path
               id="id-c5d0cf28-0647-45c1-9a7b-ef934f63dd61"
               d="m 0.8125,-2.375 -0.375,1.65625 c -0.015625,0.15625 -0.046875,0.3125 -0.046875,0.375 0,0.21875 0.09375,0.390625 0.25,0.390625 0.34375,0 0.890625,-0.5625 0.96875,-0.6875 0,-0.046875 -0.0625,-0.140625 -0.078125,-0.140625 C 1.5,-0.75 1.171875,-0.359375 1.015625,-0.359375 c -0.078125,0 -0.078125,-0.125 -0.078125,-0.1875 0,-0.03125 0.015625,-0.15625 0.03125,-0.234375 l 0.375,-1.640625 C 1.375,-2.59375 1.390625,-2.765625 1.390625,-2.8125 c 0,-0.21875 -0.125,-0.390625 -0.28125,-0.390625 -0.34375,0 -0.84375,0.5625 -0.921875,0.703125 0,0.03125 0.046875,0.125 0.0625,0.125 0.03125,-0.015625 0.359375,-0.421875 0.515625,-0.421875 0.078125,0 0.078125,0.125 0.078125,0.1875 0,0.03125 -0.015625,0.1875 -0.03125,0.234375 z M 1.234375,-4.75 c -0.21875,0 -0.390625,0.203125 -0.390625,0.421875 0,0.15625 0.09375,0.3125 0.265625,0.3125 0.21875,0 0.390625,-0.21875 0.390625,-0.4375 C 1.5,-4.609375 1.390625,-4.75 1.234375,-4.75 Z m 0,0"
               style="fill:#9a4832;stroke:none" />
          </g>
        </g>
      </g>
    </g>
    <rect
       transform="matrix(0,1,1,0,0,0)"
       style="opacity:0.5;fill:#d3c7b1;fill-opacity:1;stroke:#c28f48;stroke-width:0.224093;stroke-miterlimit:4;stroke-dasharray:none;stroke-dashoffset:0;stroke-opacity:1"
       id="rect5400-8-2-6-1-2"
       width="26.290443"
       height="3.4084418"
       x="45.539543"
       y="32.409054" />
    <path
       style="fill:none;fill-opacity:0.498039;stroke:#3d677b;stroke-width:0.52916667;stroke-miterlimit:4;stroke-dashoffset:0;stroke-opacity:1;stroke-dasharray:none"
       d="m 12.420401,52.906576 c 19.516591,-3.313247 14.787092,-11.569923 26.247857,-6.07234 6.759524,3.242457 11.524118,3.879048 18.564004,2.281142"
       id="path4393"
       sodipodi:nodetypes="css" />
    <path
       style="fill:none;stroke:#000000;stroke-width:0.353;stroke-linecap:butt;stroke-linejoin:miter;stroke-miterlimit:4;stroke-dasharray:none;stroke-opacity:1;marker-end:url(#marker24406)"
       d="M 6.8035712,71.815476 H 60.578996"
       id="path3372-2" />
  </g>
</svg>
