<?xml version="1.0" encoding="UTF-8" standalone="no"?>
<svg
   xmlns:ns1="http://www.iki.fi/pav/software/textext/"
   xmlns:dc="http://purl.org/dc/elements/1.1/"
   xmlns:cc="http://creativecommons.org/ns#"
   xmlns:rdf="http://www.w3.org/1999/02/22-rdf-syntax-ns#"
   xmlns:svg="http://www.w3.org/2000/svg"
   xmlns="http://www.w3.org/2000/svg"
   xmlns:sodipodi="http://sodipodi.sourceforge.net/DTD/sodipodi-0.dtd"
   xmlns:inkscape="http://www.inkscape.org/namespaces/inkscape"
   width="61mm"
   height="27.920067mm"
   viewBox="0 0 61 27.920067"
   version="1.1"
   id="svg8"
   inkscape:version="1.0 (4035a4fb49, 2020-05-01)"
   sodipodi:docname="fig_1_2.svg">
  <defs
     id="defs2">
    <marker
       inkscape:isstock="true"
       style="overflow:visible"
       id="Arrow2Mend"
       refX="0"
       refY="0"
       orient="auto"
       inkscape:stockid="Arrow2Mend">
      <path
         inkscape:connector-curvature="0"
         transform="scale(-0.6)"
         d="M 8.7185878,4.0337352 -2.2072895,0.01601326 8.7185884,-4.0017078 c -1.7454984,2.3720609 -1.7354408,5.6174519 -6e-7,8.035443 z"
         style="fill:#a6a7a3;fill-opacity:1;fill-rule:evenodd;stroke:#a6a7a3;stroke-width:0.625;stroke-linejoin:round;stroke-opacity:1"
         id="path5217" />
    </marker>
    <marker
       inkscape:isstock="true"
       style="overflow:visible"
       id="Arrow1Mend"
       refX="0"
       refY="0"
       orient="auto"
       inkscape:stockid="Arrow1Mend">
      <path
         inkscape:connector-curvature="0"
         transform="matrix(-0.4,0,0,-0.4,-4,0)"
         style="fill:#000000;fill-opacity:1;fill-rule:evenodd;stroke:#000000;stroke-width:1pt;stroke-opacity:1"
         d="M 0,0 5,-5 -12.5,0 5,5 Z"
         id="path5199" />
    </marker>
    <marker
       inkscape:isstock="true"
       style="overflow:visible"
       id="Arrow2Mend-3"
       refX="0"
       refY="0"
       orient="auto"
       inkscape:stockid="Arrow2Mend">
      <path
         transform="scale(-0.6)"
         d="M 8.7185878,4.0337352 -2.2072895,0.01601326 8.7185884,-4.0017078 c -1.7454984,2.3720609 -1.7354408,5.6174519 -6e-7,8.035443 z"
         style="fill:#a6a7a3;fill-opacity:1;fill-rule:evenodd;stroke:#a6a7a3;stroke-width:0.625;stroke-linejoin:round;stroke-opacity:1"
         id="path5217-0"
         inkscape:connector-curvature="0" />
    </marker>
    <g
       id="id-bdc8ee9c-d579-44b4-b61c-6020d603527d-1">
      <symbol
         overflow="visible"
         id="id-70de078d-e2f8-4731-a404-6f23d900de68-5">
        <path
           style="stroke:none"
           d="M 0.5,0 H 4.484375 V -4.8125 H 0.5 Z M 1,-0.5 V -4.3125 H 3.984375 V -0.5 Z m 0,0"
           id="id-daa610c1-1b78-4275-ac6b-e8c64e11a94e-8" />
      </symbol>
      <symbol
         overflow="visible"
         id="id-1728be85-9f0e-424b-932a-0e4f0afe5833-7">
        <path
           style="stroke:none"
           d="m 1.84375,-0.453125 c -0.375,0 -0.671875,-0.328125 -0.671875,-0.6875 0,-0.390625 0.25,-0.640625 0.609375,-0.78125 C 1.96875,-2 2.453125,-2.140625 2.71875,-2.21875 v 1.359375 c 0,0.109375 -0.53125,0.40625 -0.875,0.40625 z M 2.375,-4.34375 c -0.71875,0 -1.484375,0.53125 -1.78125,0.8125 -0.046875,0.046875 -0.078125,0.203125 -0.078125,0.234375 0,0.21875 0.125,0.421875 0.328125,0.421875 0.25,0 0.40625,-0.140625 0.46875,-0.46875 0.0625,-0.390625 0.1875,-0.640625 0.546875,-0.640625 0.484375,0 0.859375,0.515625 0.859375,0.96875 V -2.75 c 0,0.171875 -0.03125,0.21875 -0.125,0.25 -0.28125,0.140625 -1.171875,0.421875 -1.71875,0.625 -0.234375,0.078125 -0.5,0.40625 -0.5,0.8125 0,0.640625 0.5,1.140625 1.140625,1.140625 0.34375,0 1.109375,-0.53125 1.21875,-0.65625 C 2.796875,-0.28125 3.0625,0.0625 3.34375,0.0625 c 0.203125,0 0.609375,-0.265625 0.734375,-0.375 C 4.109375,-0.359375 4.125,-0.4375 4.125,-0.5 c 0,-0.03125 -0.015625,-0.078125 -0.03125,-0.078125 -0.03125,0.015625 -0.15625,0.125 -0.328125,0.125 -0.234375,0 -0.3125,-0.203125 -0.3125,-0.46875 V -2.96875 c 0,-0.765625 -0.515625,-1.375 -1.078125,-1.375 z m 0,0"
           id="id-d57185d8-e596-4512-baaa-d53c798aea3e-6" />
      </symbol>
      <symbol
         overflow="visible"
         id="id-0fe56999-9dbd-4089-9f00-0bcf641b1bff-1">
        <path
           style="stroke:none"
           d="M 2.1875,-2.765625 C 2.1875,-4.671875 1.375,-6.09375 0.234375,-7 c -0.0625,0.046875 -0.1875,0.1875 -0.171875,0.1875 0.921875,0.8125 1.40625,2.5 1.40625,4.046875 0,1.515625 -0.484375,3.21875 -1.40625,4.03125 -0.015625,0 0.109375,0.15625 0.171875,0.1875 C 1.375,0.5625 2.1875,-0.890625 2.1875,-2.765625 Z m 0,0"
           id="id-8f2f5bf8-f514-4b20-9d67-24a67f75fdea-7" />
      </symbol>
    </g>
  </defs>
  <sodipodi:namedview
     inkscape:document-rotation="0"
     inkscape:window-maximized="1"
     inkscape:window-y="-8"
     inkscape:window-x="-8"
     inkscape:window-height="837"
     inkscape:window-width="1600"
     fit-margin-bottom="0"
     fit-margin-right="0"
     fit-margin-left="0"
     fit-margin-top="0"
     showgrid="false"
     inkscape:current-layer="layer1"
     inkscape:document-units="mm"
     inkscape:cy="45.019807"
     inkscape:cx="82.173651"
     inkscape:zoom="3.959798"
     inkscape:pageshadow="2"
     inkscape:pageopacity="0.0"
     borderopacity="1.0"
     bordercolor="#666666"
     pagecolor="#ffffff"
     id="base" />
  <metadata
     id="metadata5">
    <rdf:RDF>
      <cc:Work
         rdf:about="">
        <dc:format>image/svg+xml</dc:format>
        <dc:type
           rdf:resource="http://purl.org/dc/dcmitype/StillImage" />
        <dc:title></dc:title>
      </cc:Work>
    </rdf:RDF>
  </metadata>
  <g
     transform="translate(-26.511056,-64.966428)"
     id="layer1"
     inkscape:groupmode="layer"
     inkscape:label="Layer 1">
    <path
       inkscape:connector-curvature="0"
       id="path5150"
       d="m 45.85566,70.196409 c -1.194437,-1.09612 -1.960134,-2.63018 -3.667114,-2.934664 -1.327826,-1.204331 -2.737522,-0.10197 -3.872488,0.719541 -1.36514,0.89415 -3.229246,0.376847 -4.397798,1.69937 -1.3967,1.580948 -3.505825,2.106246 -5.088639,3.426346 -1.314552,1.292178 -1.844472,3.276353 -1.336815,5.052497 -0.245274,1.421255 0.489028,2.554527 0.972952,3.770513 0.07185,1.344985 0.146261,3.293802 1.614707,3.815686 1.450391,0.02096 2.431679,-1.461053 3.970146,-1.260546 1.398152,-0.481743 2.804713,-0.235264 4.224372,0.01506 1.458078,-0.108717 2.930572,-0.07546 4.370686,0.180227 1.783512,0.0507 2.275131,-1.819704 3.036113,-3.018277 0.919951,-1.272459 1.511589,-2.749157 2.647619,-3.858307 0.586932,-1.338952 1.97322,-2.464457 1.648016,-4.003539 -0.922038,-1.063264 -1.867536,-2.151614 -2.767271,-3.291005 -0.351703,-0.423674 -0.856235,-0.433332 -1.354486,-0.3129 z"
       style="fill:none;stroke:#3d677b;stroke-width:0.231501px;stroke-linecap:butt;stroke-linejoin:miter;stroke-opacity:1" />
    <path
       inkscape:connector-curvature="0"
       id="path5152"
       d="m 70.375407,65.293374 c -1.021343,-0.0068 -2.279492,-0.214973 -3.01636,0.67775 -0.913224,0.793439 -2.258746,0.212263 -3.24147,0.8397 -1.041598,0.203515 -2.391633,0.277317 -2.893324,1.387291 -0.564575,0.946168 -1.459239,1.759469 -1.581029,2.912853 -0.07548,1.355467 -1.402448,1.823999 -2.125061,2.695799 -0.783836,1.16121 0.345016,2.038807 1.032212,2.822349 0.535913,1.355882 2.061128,0.388086 2.89489,1.263304 0.936418,0.746717 1.137898,2.2219 2.401601,2.587131 0.8729,0.385214 1.540934,-0.341787 2.250581,-0.685743 1.159636,-0.351292 2.555156,0.167096 3.539835,-0.719725 0.736516,-0.624668 1.617427,-1.051048 2.288018,-1.750894 0.564494,-0.525807 1.128643,-1.05613 1.754773,-1.509114 0.412707,-0.963168 1.144224,-1.792571 1.806494,-2.571279 0.77712,-0.819257 0.525359,-2.02423 0.884648,-3.013284 0.443601,-1.212186 -0.06903,-2.432106 -1.077024,-3.170629 -0.635575,-0.583067 -0.769665,-1.653817 -1.733388,-1.858925 -0.726396,-0.252465 -1.507546,-0.06271 -2.182742,0.237958 -0.335512,0.06976 -0.711064,0.05397 -1.002654,-0.144542 z"
       style="fill:none;stroke:#3d677b;stroke-width:0.231501px;stroke-linecap:butt;stroke-linejoin:miter;stroke-opacity:1" />
    <ellipse
       transform="matrix(0.69573658,-0.71829702,0.53961124,0.84191431,0,0)"
       ry="6.8940725"
       rx="2.8033464"
       cy="82.585274"
       cx="-9.2239399"
       id="path5154"
       style="opacity:1;fill:none;fill-opacity:1;stroke:#c28f48;stroke-width:0.234648;stroke-miterlimit:4;stroke-dasharray:0.703945, 0.234648;stroke-dashoffset:0;stroke-opacity:1" />
    <ellipse
       transform="matrix(0.91714292,-0.39855848,0.48174631,0.87631073,0,0)"
       ry="3.6939697"
       rx="1.544902"
       cy="84.282318"
       cx="3.6349106"
       id="path5154-3"
       style="opacity:1;fill:none;fill-opacity:1;stroke:#c28f48;stroke-width:0.232;stroke-miterlimit:4;stroke-dasharray:0.695998, 0.232;stroke-dashoffset:0;stroke-opacity:1" />
    <ellipse
       transform="matrix(0.63544976,-0.77214221,0.53983408,0.84177145,0,0)"
       ry="4.4205141"
       rx="1.7853819"
       cy="78.621613"
       cx="-17.291595"
       id="path5154-1"
       style="opacity:1;fill:none;fill-opacity:1;stroke:#c28f48;stroke-width:0.237299;stroke-miterlimit:4;stroke-dasharray:0.711896, 0.237299;stroke-dashoffset:0;stroke-opacity:1" />
    <path
       inkscape:connector-curvature="0"
       id="path5186"
       d="M 26.568931,82.476895 52.241071,67.655078"
       style="fill:none;stroke:#d3c7b1;stroke-width:0.231501px;stroke-linecap:butt;stroke-linejoin:miter;stroke-opacity:1" />
    <path
       sodipodi:nodetypes="cccc"
       inkscape:connector-curvature="0"
       id="path5188"
       d="m 48.675725,69.268632 c 0,0 -0.730699,-2.216232 -0.03439,-2.929084 1.4269,-0.982374 4.250286,4.053331 3.100712,5.535834 -0.565943,0.879454 -2.231246,-1.19881 -2.231246,-1.19881"
       style="fill:none;stroke:#a6a7a3;stroke-width:0.231501px;stroke-linecap:butt;stroke-linejoin:miter;stroke-opacity:1;marker-end:url(#Arrow2Mend)" />
    <ellipse
       transform="matrix(0.67151802,-0.74098823,0.56013288,0.82840278,0,0)"
       ry="6.5259423"
       rx="2.6468277"
       cy="110.34122"
       cx="12.995949"
       id="path5154-19"
       style="opacity:1;fill:none;fill-opacity:1;stroke:#c28f48;stroke-width:0.234891;stroke-miterlimit:4;stroke-dasharray:0.704674, 0.234891;stroke-dashoffset:0;stroke-opacity:1" />
    <ellipse
       transform="matrix(0.78424454,-0.62045185,0.51198395,0.85899502,0,0)"
       ry="8.4686852"
       rx="3.4888122"
       cy="109.90981"
       cx="28.199373"
       id="path5154-19-5"
       style="opacity:1;fill:none;fill-opacity:1;stroke:#c28f48;stroke-width:0.232512;stroke-miterlimit:4;stroke-dasharray:0.697535, 0.232512;stroke-dashoffset:0;stroke-opacity:1" />
    <path
       inkscape:connector-curvature="0"
       id="path5186-8"
       d="M 61.781041,86.509892 87.453181,71.688075"
       style="fill:none;stroke:#d3c7b1;stroke-width:0.231501;stroke-linecap:butt;stroke-linejoin:miter;stroke-miterlimit:4;stroke-dasharray:none;stroke-dashoffset:0;stroke-opacity:1" />
    <path
       sodipodi:nodetypes="cccc"
       inkscape:connector-curvature="0"
       id="path5188-8"
       d="m 83.887836,73.301629 c 0,0 -0.730699,-2.216232 -0.03439,-2.929084 1.426901,-0.982374 4.250288,4.053331 3.100716,5.535834 -0.565951,0.879454 -2.23125,-1.19881 -2.23125,-1.19881"
       style="fill:none;stroke:#a6a7a3;stroke-width:0.231501px;stroke-linecap:butt;stroke-linejoin:miter;stroke-opacity:1;marker-end:url(#Arrow2Mend-3)" />
    <g
       transform="matrix(0.423334,0,0,0.423334,34.9975,89.308)"
       ns1:version="1.1.0"
       ns1:texconverter="pdflatex"
       ns1:pdfconverter="inkscape"
       ns1:text="(a)"
       ns1:preamble="C:\\Users\\flvisa\\Desktop\\lna\\latexify_books\\textext_preamble.tex"
       ns1:scale="1.2"
       ns1:alignment="middle center"
       ns1:inkscapeversion="1.0"
       ns1:jacobian_sqrt="0.423334"
       id="g1111">
      <defs
         id="id-c2c70040-72f7-4c80-97e3-cd443948c5dd">
        <g
           id="id-e8bd0f9c-030d-40af-ad33-addceb5b7a71">
          <symbol
             id="id-ba9cc5fc-dd2b-4372-8694-9e708d7d8786"
             overflow="visible">
            <path
               id="id-693346cd-1446-4fe4-840e-164c65e214df"
               d="M 0.5,0 H 4.484375 V -4.8125 H 0.5 Z M 1,-0.5 V -4.3125 H 3.984375 V -0.5 Z m 0,0"
               style="stroke:none" />
          </symbol>
          <symbol
             id="id-5c6d1972-59be-4fe0-8bc3-52934bc1ae11"
             overflow="visible">
            <path
               id="id-c346e2bb-5d6c-401b-b9a5-9b60fac14e79"
               d="M 1.0625,-2.765625 C 1.0625,-4.3125 1.578125,-6 2.5,-6.8125 c 0,0 -0.125,-0.140625 -0.203125,-0.1875 -1.125,0.90625 -1.9375,2.328125 -1.9375,4.234375 0,1.875 0.8125,3.328125 1.9375,4.21875 C 2.375,1.421875 2.5,1.265625 2.5,1.265625 1.578125,0.453125 1.0625,-1.25 1.0625,-2.765625 Z m 0,0"
               style="stroke:none" />
          </symbol>
          <symbol
             id="id-bee020ef-2f35-42d4-a9e1-cd04b400f7c1"
             overflow="visible">
            <path
               id="id-174f8ecd-f953-46b2-80ee-481c8c8f1198"
               d="m 1.84375,-0.453125 c -0.375,0 -0.671875,-0.328125 -0.671875,-0.6875 0,-0.390625 0.25,-0.640625 0.609375,-0.78125 C 1.96875,-2 2.453125,-2.140625 2.71875,-2.21875 v 1.359375 c 0,0.109375 -0.53125,0.40625 -0.875,0.40625 z M 2.375,-4.34375 c -0.71875,0 -1.484375,0.53125 -1.78125,0.8125 -0.046875,0.046875 -0.078125,0.203125 -0.078125,0.234375 0,0.21875 0.125,0.421875 0.328125,0.421875 0.25,0 0.40625,-0.140625 0.46875,-0.46875 0.0625,-0.390625 0.1875,-0.640625 0.546875,-0.640625 0.484375,0 0.859375,0.515625 0.859375,0.96875 V -2.75 c 0,0.171875 -0.03125,0.21875 -0.125,0.25 -0.28125,0.140625 -1.171875,0.421875 -1.71875,0.625 -0.234375,0.078125 -0.5,0.40625 -0.5,0.8125 0,0.640625 0.5,1.140625 1.140625,1.140625 0.34375,0 1.109375,-0.53125 1.21875,-0.65625 C 2.796875,-0.28125 3.0625,0.0625 3.34375,0.0625 c 0.203125,0 0.609375,-0.265625 0.734375,-0.375 C 4.109375,-0.359375 4.125,-0.4375 4.125,-0.5 c 0,-0.03125 -0.015625,-0.078125 -0.03125,-0.078125 -0.03125,0.015625 -0.15625,0.125 -0.328125,0.125 -0.234375,0 -0.3125,-0.203125 -0.3125,-0.46875 V -2.96875 c 0,-0.765625 -0.515625,-1.375 -1.078125,-1.375 z m 0,0"
               style="stroke:none" />
          </symbol>
          <symbol
             id="id-8dd34647-7731-436d-87e2-b37ce73594ed"
             overflow="visible">
            <path
               id="id-128ce545-8be5-4f4c-bdd3-66cbcab3a540"
               d="M 2.1875,-2.765625 C 2.1875,-4.671875 1.375,-6.09375 0.234375,-7 c -0.0625,0.046875 -0.1875,0.1875 -0.171875,0.1875 0.921875,0.8125 1.40625,2.5 1.40625,4.046875 0,1.515625 -0.484375,3.21875 -1.40625,4.03125 -0.015625,0 0.109375,0.15625 0.171875,0.1875 C 1.375,0.5625 2.1875,-0.890625 2.1875,-2.765625 Z m 0,0"
               style="stroke:none" />
          </symbol>
        </g>
      </defs>
      <g
         transform="translate(-149.071,-127.765)"
         id="id-110da6b2-1db0-4dfc-bd1e-41c73e3dd383">
        <g
           id="id-c2ef3356-984d-4ec8-97d3-634f56f8102f"
           style="fill:#000000;fill-opacity:1">
          <g
             transform="translate(148.712,134.765)"
             id="g1099">
            <path
               id="id-1feff400-d467-4216-a9e9-75fddf9cb7d1"
               d="M 1.0625,-2.765625 C 1.0625,-4.3125 1.578125,-6 2.5,-6.8125 c 0,0 -0.125,-0.140625 -0.203125,-0.1875 -1.125,0.90625 -1.9375,2.328125 -1.9375,4.234375 0,1.875 0.8125,3.328125 1.9375,4.21875 C 2.375,1.421875 2.5,1.265625 2.5,1.265625 1.578125,0.453125 1.0625,-1.25 1.0625,-2.765625 Z m 0,0"
               style="stroke:none" />
          </g>
        </g>
        <g
           id="id-448dda68-fda1-4720-bb5f-788d92705b6f"
           style="fill:#000000;fill-opacity:1">
          <g
             transform="translate(151.013,134.765)"
             id="g1103">
            <path
               id="id-c9526ddd-a9fe-408a-abe9-86b5dfe1b6ea"
               d="m 1.84375,-0.453125 c -0.375,0 -0.671875,-0.328125 -0.671875,-0.6875 0,-0.390625 0.25,-0.640625 0.609375,-0.78125 C 1.96875,-2 2.453125,-2.140625 2.71875,-2.21875 v 1.359375 c 0,0.109375 -0.53125,0.40625 -0.875,0.40625 z M 2.375,-4.34375 c -0.71875,0 -1.484375,0.53125 -1.78125,0.8125 -0.046875,0.046875 -0.078125,0.203125 -0.078125,0.234375 0,0.21875 0.125,0.421875 0.328125,0.421875 0.25,0 0.40625,-0.140625 0.46875,-0.46875 0.0625,-0.390625 0.1875,-0.640625 0.546875,-0.640625 0.484375,0 0.859375,0.515625 0.859375,0.96875 V -2.75 c 0,0.171875 -0.03125,0.21875 -0.125,0.25 -0.28125,0.140625 -1.171875,0.421875 -1.71875,0.625 -0.234375,0.078125 -0.5,0.40625 -0.5,0.8125 0,0.640625 0.5,1.140625 1.140625,1.140625 0.34375,0 1.109375,-0.53125 1.21875,-0.65625 C 2.796875,-0.28125 3.0625,0.0625 3.34375,0.0625 c 0.203125,0 0.609375,-0.265625 0.734375,-0.375 C 4.109375,-0.359375 4.125,-0.4375 4.125,-0.5 c 0,-0.03125 -0.015625,-0.078125 -0.03125,-0.078125 -0.03125,0.015625 -0.15625,0.125 -0.328125,0.125 -0.234375,0 -0.3125,-0.203125 -0.3125,-0.46875 V -2.96875 c 0,-0.765625 -0.515625,-1.375 -1.078125,-1.375 z m 0,0"
               style="stroke:none" />
          </g>
        </g>
        <g
           id="id-50c428fa-988b-4d03-b55f-6df1396a864f"
           style="fill:#000000;fill-opacity:1">
          <g
             transform="translate(155.108,134.765)"
             id="g1107">
            <path
               id="id-d4817309-bb19-4b18-9bf2-9771803ab7ca"
               d="M 2.1875,-2.765625 C 2.1875,-4.671875 1.375,-6.09375 0.234375,-7 c -0.0625,0.046875 -0.1875,0.1875 -0.171875,0.1875 0.921875,0.8125 1.40625,2.5 1.40625,4.046875 0,1.515625 -0.484375,3.21875 -1.40625,4.03125 -0.015625,0 0.109375,0.15625 0.171875,0.1875 C 1.375,0.5625 2.1875,-0.890625 2.1875,-2.765625 Z m 0,0"
               style="stroke:none" />
          </g>
        </g>
      </g>
    </g>
    <g
       transform="matrix(0.423334,0,0,0.423334,72.4756,89.2137)"
       ns1:version="1.1.0"
       ns1:texconverter="pdflatex"
       ns1:pdfconverter="inkscape"
       ns1:text="(b)"
       ns1:preamble="C:\\Users\\flvisa\\Desktop\\lna\\latexify_books\\textext_preamble.tex"
       ns1:scale="1.2"
       ns1:alignment="middle center"
       ns1:inkscapeversion="1.0"
       ns1:jacobian_sqrt="0.423334"
       id="g1206">
      <defs
         id="id-424c1be8-ecb4-4fbb-8b8e-06af379b3a6e">
        <g
           id="id-9e25bd29-eb16-4464-9ec8-bb14dfacddbe">
          <symbol
             id="id-9479e9e5-b109-4213-8498-f52a83f34bb1"
             overflow="visible">
            <path
               id="id-e3d2292a-ec47-4743-b81a-ff6c823fdd9f"
               d="M 0.5,0 H 4.484375 V -4.8125 H 0.5 Z M 1,-0.5 V -4.3125 H 3.984375 V -0.5 Z m 0,0"
               style="stroke:none" />
          </symbol>
          <symbol
             id="id-f2a2648a-4db2-404a-8a8a-73be59b742a2"
             overflow="visible">
            <path
               id="id-e1a9f981-083e-4980-a3c2-34f2f899c77d"
               d="M 1.0625,-2.765625 C 1.0625,-4.3125 1.578125,-6 2.5,-6.8125 c 0,0 -0.125,-0.140625 -0.203125,-0.1875 -1.125,0.90625 -1.9375,2.328125 -1.9375,4.234375 0,1.875 0.8125,3.328125 1.9375,4.21875 C 2.375,1.421875 2.5,1.265625 2.5,1.265625 1.578125,0.453125 1.0625,-1.25 1.0625,-2.765625 Z m 0,0"
               style="stroke:none" />
          </symbol>
          <symbol
             id="id-30214c72-c7c9-4a02-aca1-7188000d4ec8"
             overflow="visible">
            <path
               id="id-1956b0bc-e501-4687-a061-e6e1715c7e6a"
               d="m 2.09375,0.0625 c 1.40625,0 2.4375,-1.0625 2.4375,-2.328125 0,-0.890625 -0.625,-2 -1.8125,-2 -0.375,0 -1.046875,0.421875 -1.203125,0.53125 C 1.453125,-3.6875 1.46875,-3.78125 1.46875,-3.84375 V -5.75 c 0,-0.546875 0.09375,-0.84375 0.09375,-0.84375 0,-0.078125 -0.046875,-0.171875 -0.09375,-0.171875 C 1.046875,-6.5625 0.5625,-6.421875 0.0625,-6.375 c -0.046875,0.015625 -0.015625,0.265625 -0.015625,0.265625 0.28125,0 0.546875,0.03125 0.609375,0.171875 0.046875,0.109375 0.046875,0.375 0.046875,0.5 v 4.375 c 0,0.1875 -0.015625,0.515625 -0.109375,0.71875 0,0.046875 0.078125,0.203125 0.125,0.203125 0.21875,-0.078125 0.421875,0 0.640625,0.0625 C 1.578125,-0.015625 1.9375,0.0625 2.09375,0.0625 Z M 2.25,-3.6875 c 0.890625,0 1.453125,0.671875 1.453125,1.796875 0,0.796875 -0.609375,1.625 -1.328125,1.625 -0.4375,0 -0.90625,-0.265625 -0.90625,-0.6875 V -3.3125 c 0,-0.0625 0,-0.09375 0.03125,-0.109375 C 1.59375,-3.515625 2,-3.6875 2.25,-3.6875 Z m 0,0"
               style="stroke:none" />
          </symbol>
          <symbol
             id="id-b1b6d632-45e9-4a0c-8a18-33d7ab5b509b"
             overflow="visible">
            <path
               id="id-02503823-adf4-4054-b322-cd957539b54c"
               d="M 2.1875,-2.765625 C 2.1875,-4.671875 1.375,-6.09375 0.234375,-7 c -0.0625,0.046875 -0.1875,0.1875 -0.171875,0.1875 0.921875,0.8125 1.40625,2.5 1.40625,4.046875 0,1.515625 -0.484375,3.21875 -1.40625,4.03125 -0.015625,0 0.109375,0.15625 0.171875,0.1875 C 1.375,0.5625 2.1875,-0.890625 2.1875,-2.765625 Z m 0,0"
               style="stroke:none" />
          </symbol>
        </g>
      </defs>
      <g
         transform="translate(-149.071,-127.765)"
         id="id-c1db5d09-564f-4a27-aaf8-f18dc52d8829">
        <g
           id="id-1ca8e849-8ebf-43bf-bf44-e67c18f9af32"
           style="fill:#000000;fill-opacity:1">
          <g
             transform="translate(148.712,134.765)"
             id="g1195">
            <path
               id="id-41364901-7308-478a-aa20-7a5f43ed8a68"
               d="M 1.0625,-2.765625 C 1.0625,-4.3125 1.578125,-6 2.5,-6.8125 c 0,0 -0.125,-0.140625 -0.203125,-0.1875 -1.125,0.90625 -1.9375,2.328125 -1.9375,4.234375 0,1.875 0.8125,3.328125 1.9375,4.21875 C 2.375,1.421875 2.5,1.265625 2.5,1.265625 1.578125,0.453125 1.0625,-1.25 1.0625,-2.765625 Z m 0,0"
               style="stroke:none" />
          </g>
          <g
             transform="translate(151.252,134.765)"
             id="g1198">
            <path
               id="id-1c7c8a1d-0d74-4f69-a00c-b1b524d5a927"
               d="m 2.09375,0.0625 c 1.40625,0 2.4375,-1.0625 2.4375,-2.328125 0,-0.890625 -0.625,-2 -1.8125,-2 -0.375,0 -1.046875,0.421875 -1.203125,0.53125 C 1.453125,-3.6875 1.46875,-3.78125 1.46875,-3.84375 V -5.75 c 0,-0.546875 0.09375,-0.84375 0.09375,-0.84375 0,-0.078125 -0.046875,-0.171875 -0.09375,-0.171875 C 1.046875,-6.5625 0.5625,-6.421875 0.0625,-6.375 c -0.046875,0.015625 -0.015625,0.265625 -0.015625,0.265625 0.28125,0 0.546875,0.03125 0.609375,0.171875 0.046875,0.109375 0.046875,0.375 0.046875,0.5 v 4.375 c 0,0.1875 -0.015625,0.515625 -0.109375,0.71875 0,0.046875 0.078125,0.203125 0.125,0.203125 0.21875,-0.078125 0.421875,0 0.640625,0.0625 C 1.578125,-0.015625 1.9375,0.0625 2.09375,0.0625 Z M 2.25,-3.6875 c 0.890625,0 1.453125,0.671875 1.453125,1.796875 0,0.796875 -0.609375,1.625 -1.328125,1.625 -0.4375,0 -0.90625,-0.265625 -0.90625,-0.6875 V -3.3125 c 0,-0.0625 0,-0.09375 0.03125,-0.109375 C 1.59375,-3.515625 2,-3.6875 2.25,-3.6875 Z m 0,0"
               style="stroke:none" />
          </g>
        </g>
        <g
           id="id-8e61c16e-7fb4-481c-ae37-cfa6c2c1a1ab"
           style="fill:#000000;fill-opacity:1">
          <g
             transform="translate(155.865,134.765)"
             id="g1202">
            <path
               id="id-04b5f9e0-0289-4b9f-9ddc-7f5af002ff93"
               d="M 2.1875,-2.765625 C 2.1875,-4.671875 1.375,-6.09375 0.234375,-7 c -0.0625,0.046875 -0.1875,0.1875 -0.171875,0.1875 0.921875,0.8125 1.40625,2.5 1.40625,4.046875 0,1.515625 -0.484375,3.21875 -1.40625,4.03125 -0.015625,0 0.109375,0.15625 0.171875,0.1875 C 1.375,0.5625 2.1875,-0.890625 2.1875,-2.765625 Z m 0,0"
               style="stroke:none" />
          </g>
        </g>
      </g>
    </g>
  </g>
</svg>
