<?xml version="1.0" encoding="UTF-8" standalone="no"?>
<svg
   xmlns:ns1="http://www.iki.fi/pav/software/textext/"
   xmlns:dc="http://purl.org/dc/elements/1.1/"
   xmlns:cc="http://creativecommons.org/ns#"
   xmlns:rdf="http://www.w3.org/1999/02/22-rdf-syntax-ns#"
   xmlns:svg="http://www.w3.org/2000/svg"
   xmlns="http://www.w3.org/2000/svg"
   xmlns:sodipodi="http://sodipodi.sourceforge.net/DTD/sodipodi-0.dtd"
   xmlns:inkscape="http://www.inkscape.org/namespaces/inkscape"
   inkscape:version="1.0 (4035a4fb49, 2020-05-01)"
   sodipodi:docname="fig_1_21.svg"
   id="svg8"
   version="1.1"
   viewBox="0 0 60.49987 31.590699"
   height="31.590698mm"
   width="60.49987mm">
  <defs
     id="defs2">
    <marker
       inkscape:stockid="Arrow1Send"
       orient="auto"
       refY="0"
       refX="0"
       id="marker14693"
       style="overflow:visible"
       inkscape:isstock="true">
      <path
         id="path14691"
         d="M 0,0 5,-5 -12.5,0 5,5 Z"
         style="fill:#9a4832;fill-opacity:1;fill-rule:evenodd;stroke:#9a4832;stroke-width:1pt;stroke-opacity:1"
         transform="matrix(-0.2,0,0,-0.2,-1.2,0)" />
    </marker>
    <marker
       inkscape:stockid="Arrow1Send"
       orient="auto"
       refY="0"
       refX="0"
       id="marker14683"
       style="overflow:visible"
       inkscape:isstock="true">
      <path
         id="path14681"
         d="M 0,0 5,-5 -12.5,0 5,5 Z"
         style="fill:#3d677b;fill-opacity:1;fill-rule:evenodd;stroke:#3d677b;stroke-width:1pt;stroke-opacity:1"
         transform="matrix(-0.2,0,0,-0.2,-1.2,0)" />
    </marker>
    <marker
       inkscape:stockid="Arrow1Send"
       orient="auto"
       refY="0"
       refX="0"
       id="marker14673"
       style="overflow:visible"
       inkscape:isstock="true">
      <path
         id="path14671"
         d="M 0,0 5,-5 -12.5,0 5,5 Z"
         style="fill:#c28f48;fill-opacity:1;fill-rule:evenodd;stroke:#c28f48;stroke-width:1pt;stroke-opacity:1"
         transform="matrix(-0.2,0,0,-0.2,-1.2,0)" />
    </marker>
    <pattern
       y="0"
       x="0"
       height="6"
       width="6"
       patternUnits="userSpaceOnUse"
       id="EMFhbasepattern" />
    <marker
       inkscape:isstock="true"
       style="overflow:visible"
       id="marker2714"
       refX="0"
       refY="0"
       orient="auto"
       inkscape:stockid="Arrow1Mend">
      <path
         transform="matrix(-0.4,0,0,-0.4,-4,0)"
         style="fill:#808080;fill-opacity:1;fill-rule:evenodd;stroke:#808080;stroke-width:1pt;stroke-opacity:1"
         d="M 0,0 5,-5 -12.5,0 5,5 Z"
         id="path2712" />
    </marker>
    <marker
       inkscape:isstock="true"
       style="overflow:visible"
       id="marker2605"
       refX="0"
       refY="0"
       orient="auto"
       inkscape:stockid="Arrow1Mend">
      <path
         transform="matrix(-0.4,0,0,-0.4,-4,0)"
         style="fill:#0055d4;fill-opacity:1;fill-rule:evenodd;stroke:#0055d4;stroke-width:1pt;stroke-opacity:1"
         d="M 0,0 5,-5 -12.5,0 5,5 Z"
         id="path2603" />
    </marker>
    <marker
       inkscape:isstock="true"
       style="overflow:visible"
       id="marker2647"
       refX="0"
       refY="0"
       orient="auto"
       inkscape:stockid="Arrow1Mend">
      <path
         transform="matrix(-0.4,0,0,-0.4,-4,0)"
         style="fill:#44aa00;fill-opacity:1;fill-rule:evenodd;stroke:#44aa00;stroke-width:1pt;stroke-opacity:1"
         d="M 0,0 5,-5 -12.5,0 5,5 Z"
         id="path2645" />
    </marker>
    <marker
       inkscape:isstock="true"
       style="overflow:visible"
       id="marker2321"
       refX="0"
       refY="0"
       orient="auto"
       inkscape:stockid="Arrow1Mend">
      <path
         transform="matrix(-0.4,0,0,-0.4,-4,0)"
         style="fill:#000000;fill-opacity:1;fill-rule:evenodd;stroke:#000000;stroke-width:1pt;stroke-opacity:1"
         d="M 0,0 5,-5 -12.5,0 5,5 Z"
         id="path2319" />
    </marker>
    <marker
       inkscape:stockid="Arrow1Mend"
       orient="auto"
       refY="0"
       refX="0"
       id="marker2321-4"
       style="overflow:visible"
       inkscape:isstock="true">
      <path
         id="path2319-1"
         d="M 0,0 5,-5 -12.5,0 5,5 Z"
         style="fill:#000000;fill-opacity:1;fill-rule:evenodd;stroke:#000000;stroke-width:1pt;stroke-opacity:1"
         transform="matrix(-0.4,0,0,-0.4,-4,0)" />
    </marker>
    <g
       id="id-9bb6c6b1-b4db-46a5-afa1-ae7501b95b97">
      <symbol
         overflow="visible"
         id="id-eefbabd5-cb55-492e-85b9-2fc367eb7e71">
        <path
           style="stroke:none"
           d="M 0.5,0 H 4.484375 V -4.8125 H 0.5 Z M 1,-0.5 V -4.3125 H 3.984375 V -0.5 Z m 0,0"
           id="id-7516f642-e399-4b0f-b1a9-6243845db504" />
      </symbol>
      <symbol
         overflow="visible"
         id="id-42ebec65-16f1-436d-9d4e-3255e0795cc9">
        <path
           style="stroke:none"
           d="m 1.5,-6.546875 c -0.03125,0 -0.078125,0.046875 -0.109375,0.09375 C 1.0625,-5.90625 0.875,-5.65625 0.484375,-5.15625 c 0,0.0625 0.046875,0.125 0.109375,0.125 0.328125,-0.265625 0.90625,-0.75 0.90625,-0.75 0,0 0.546875,0.453125 0.921875,0.75 0.046875,0 0.109375,-0.0625 0.109375,-0.125 -0.375,-0.5 -0.59375,-0.75 -0.921875,-1.296875 C 1.578125,-6.5 1.546875,-6.546875 1.5,-6.546875 Z m 0,0"
           id="id-760eca7f-bee4-4d68-9658-d47180b49a99" />
      </symbol>
      <symbol
         overflow="visible"
         id="id-63ad3062-f27d-400b-961a-5c5581ccb4ea">
        <path
           style="stroke:none"
           d=""
           id="id-d55a9056-08ed-4d3f-8175-d1cf5e5b1636" />
      </symbol>
      <symbol
         overflow="visible"
         id="id-d4d6091b-d580-4b05-8b0c-af19cb87cfa2">
        <path
           style="stroke:none"
           d="m 2.6875,-4.5 c -1.15625,0 -2.53125,1.609375 -2.53125,3.09375 0,0.9375 0.453125,1.46875 1.15625,1.46875 0.625,0 1.734375,-0.96875 1.875,-1.1875 0,-0.0625 -0.0625,-0.296875 -0.15625,-0.296875 -0.03125,0.03125 -0.5625,0.65625 -1.015625,0.65625 -0.5,0 -0.609375,-0.5 -0.609375,-0.875 0,-0.046875 0.015625,-0.21875 0.015625,-0.25 0.625,0 2.375,-0.65625 2.375,-1.6875 C 3.796875,-4.28125 3.203125,-4.5 2.6875,-4.5 Z M 1.453125,-2.265625 C 1.5,-2.765625 1.859375,-4.125 2.34375,-4.125 c 0.21875,0 0.265625,0.203125 0.265625,0.390625 0,0.734375 -0.765625,1.46875 -1.15625,1.46875 z m 0,0"
           id="id-f76f974c-ba49-407f-82c5-cf2ac40ea359" />
      </symbol>
      <symbol
         overflow="visible"
         id="id-cde24818-c842-4043-a24f-5cf616a1edea">
        <path
           style="stroke:none"
           d=""
           id="id-70b1a93e-12d6-488f-a4f2-5dec78e12a00" />
      </symbol>
      <symbol
         overflow="visible"
         id="id-c234b9a4-6b25-41fb-83bd-e53b1a9605f9">
        <path
           style="stroke:none"
           d="m 2.25,-3.203125 c -0.90625,0 -2.109375,1.09375 -2.109375,2.375 0,0.515625 0.25,0.859375 0.65625,0.859375 0.421875,0 0.9375,-0.734375 1.078125,-0.984375 -0.015625,0.09375 -0.09375,0.53125 -0.09375,0.609375 0,0.21875 0.09375,0.390625 0.265625,0.390625 0.34375,0 0.875,-0.5625 0.953125,-0.6875 C 3,-0.6875 2.953125,-0.78125 2.921875,-0.78125 2.90625,-0.75 2.578125,-0.359375 2.40625,-0.359375 c -0.046875,0 -0.078125,-0.078125 -0.078125,-0.15625 0,-0.109375 0.03125,-0.21875 0.046875,-0.265625 L 2.8125,-3.109375 C 2.6875,-3.15625 2.5,-3.203125 2.25,-3.203125 Z M 1.90625,-2.90625 C 2,-2.90625 2.171875,-2.875 2.25,-2.796875 l -0.171875,0.78125 c -0.125,0.703125 -0.640625,1.625 -1.015625,1.625 -0.25,0 -0.375,-0.265625 -0.375,-0.71875 0,-0.84375 0.65625,-1.796875 1.21875,-1.796875 z m 0,0"
           id="id-1db3ddb2-f5b2-4829-b4ac-e78425e123d6" />
      </symbol>
      <symbol
         overflow="visible"
         id="id-dd9883c0-8564-4ec7-99b1-cacd87e43ed8">
        <path
           style="stroke:none"
           d=""
           id="id-f5ef5cea-d035-4fc5-8258-93ea2a2b64bc" />
      </symbol>
      <symbol
         overflow="visible"
         id="id-c15c1469-f467-498c-8ea4-dc4bc23181f7">
        <path
           style="stroke:none"
           d="M 2.9375,-7.140625 C 1.5,-6.203125 0.484375,-4.59375 0.484375,-2.5625 c 0,1.859375 1.046875,3.734375 2.421875,4.578125 l 0.125,-0.15625 C 1.71875,0.8125 1.328125,-0.390625 1.328125,-2.59375 1.328125,-4.8125 1.75,-5.953125 3.03125,-6.984375 Z m 0,0"
           id="id-ac76f6de-fe2f-4104-8400-cbef5a329362" />
      </symbol>
      <symbol
         overflow="visible"
         id="id-1bb9b168-a02d-4d2d-8aa2-41556a7ca766">
        <path
           style="stroke:none"
           d="m 0.375,-7.140625 -0.078125,0.15625 c 1.28125,1.03125 1.6875,2.171875 1.6875,4.390625 0,2.203125 -0.375,3.40625 -1.6875,4.453125 l 0.109375,0.15625 c 1.375,-0.84375 2.4375,-2.71875 2.4375,-4.578125 0,-2.03125 -1.015625,-3.640625 -2.46875,-4.578125 z m 0,0"
           id="id-c2ff055a-6d97-43de-b8d0-fd78e7824a43" />
      </symbol>
      <symbol
         overflow="visible"
         id="id-2fcefd0e-4433-45bd-8c57-460e54bd7cec">
        <path
           style="stroke:none"
           d=""
           id="id-710363f7-38ac-4d82-913f-c8ac03495a50" />
      </symbol>
      <symbol
         overflow="visible"
         id="id-191d7f25-1723-45e4-b764-0141384954f3">
        <path
           style="stroke:none"
           d="M 1.171875,-4.171875 H 0.875 c -0.234375,0 -0.46875,0.25 -0.46875,0.34375 0,0.015625 0.015625,0.03125 0.03125,0.03125 H 1.109375 L 0.5625,-1 C 0.53125,-0.78125 0.5,-0.546875 0.5,-0.46875 c 0,0.296875 0.125,0.53125 0.34375,0.53125 0.46875,0 1.203125,-0.765625 1.3125,-0.953125 0,-0.0625 -0.078125,-0.171875 -0.109375,-0.171875 C 2.03125,-1.03125 1.578125,-0.5 1.359375,-0.5 1.25,-0.5 1.25,-0.65625 1.25,-0.75 c 0,-0.046875 0.03125,-0.21875 0.046875,-0.3125 l 0.53125,-2.734375 h 0.78125 c 0.046875,-0.078125 0.09375,-0.15625 0.09375,-0.25 0,-0.046875 -0.015625,-0.125 -0.046875,-0.125 H 1.890625 L 2.125,-5.359375 c -0.046875,-0.03125 -0.125,-0.0625 -0.1875,-0.0625 -0.078125,0 -0.53125,0.515625 -0.640625,0.65625 z m 0,0"
           id="id-444fd1c5-69cc-4cd8-b822-10b3a1b82a39" />
      </symbol>
    </g>
    <g
       id="id-c9f6f285-1f91-45b4-89c6-5609e3e3cef6">
      <symbol
         overflow="visible"
         id="id-bdf56e00-66e1-435f-82dc-130f0a60d71f">
        <path
           style="stroke:none"
           d="M 0.5,0 H 4.484375 V -4.8125 H 0.5 Z M 1,-0.5 V -4.3125 H 3.984375 V -0.5 Z m 0,0"
           id="id-8fe550ed-a699-4bca-ab77-bb8553ceeac8" />
      </symbol>
      <symbol
         overflow="visible"
         id="id-f820d048-a3b8-4567-9770-34d7e5384225">
        <path
           style="stroke:none"
           d="m 1.5,-6.546875 c -0.03125,0 -0.078125,0.046875 -0.109375,0.09375 C 1.0625,-5.90625 0.875,-5.65625 0.484375,-5.15625 c 0,0.0625 0.046875,0.125 0.109375,0.125 0.328125,-0.265625 0.90625,-0.75 0.90625,-0.75 0,0 0.546875,0.453125 0.921875,0.75 0.046875,0 0.109375,-0.0625 0.109375,-0.125 -0.375,-0.5 -0.59375,-0.75 -0.921875,-1.296875 C 1.578125,-6.5 1.546875,-6.546875 1.5,-6.546875 Z m 0,0"
           id="id-65f478c9-f7dc-4cbd-9bd7-c89c7e43098a" />
      </symbol>
      <symbol
         overflow="visible"
         id="id-ede806ad-7876-49f0-b1e7-6ea6cb8b5600">
        <path
           style="stroke:none"
           d=""
           id="id-cf0191f0-dce6-4011-a8c3-8fc41ed01e8c" />
      </symbol>
      <symbol
         overflow="visible"
         id="id-a8f30882-5e6d-4eb7-ac7d-992bd1969482">
        <path
           style="stroke:none"
           d="m 2.6875,-4.5 c -1.15625,0 -2.53125,1.609375 -2.53125,3.09375 0,0.9375 0.453125,1.46875 1.15625,1.46875 0.625,0 1.734375,-0.96875 1.875,-1.1875 0,-0.0625 -0.0625,-0.296875 -0.15625,-0.296875 -0.03125,0.03125 -0.5625,0.65625 -1.015625,0.65625 -0.5,0 -0.609375,-0.5 -0.609375,-0.875 0,-0.046875 0.015625,-0.21875 0.015625,-0.25 0.625,0 2.375,-0.65625 2.375,-1.6875 C 3.796875,-4.28125 3.203125,-4.5 2.6875,-4.5 Z M 1.453125,-2.265625 C 1.5,-2.765625 1.859375,-4.125 2.34375,-4.125 c 0.21875,0 0.265625,0.203125 0.265625,0.390625 0,0.734375 -0.765625,1.46875 -1.15625,1.46875 z m 0,0"
           id="id-cf65d956-ffea-44a2-bd62-61757e718f2a" />
      </symbol>
      <symbol
         overflow="visible"
         id="id-06646c8d-3330-4932-8cc2-a926ab366f0c">
        <path
           style="stroke:none"
           d=""
           id="id-44f41aeb-da39-401c-98fd-47ebb91f2510" />
      </symbol>
      <symbol
         overflow="visible"
         id="id-fa8bf611-6483-402b-a35d-1d092a660bcd">
        <path
           style="stroke:none"
           d="M 4.71875,0 V -0.40625 H 2.796875 V -4 h -0.40625 v 3.59375 h -1.9375 V 0 Z m 0,0"
           id="id-beb92137-28d7-4955-bfa8-39c77b66c531" />
      </symbol>
    </g>
    <g
       id="id-8c7a5cda-9572-4636-b4c8-4bc594f088aa">
      <symbol
         overflow="visible"
         id="id-42adb08d-746c-4b71-9ea6-349b24f4b7d9">
        <path
           style="stroke:none"
           d="M 0.5,0 H 4.484375 V -4.8125 H 0.5 Z M 1,-0.5 V -4.3125 H 3.984375 V -0.5 Z m 0,0"
           id="id-b8e5e404-8644-45ff-b151-a65d75e28c7b" />
      </symbol>
      <symbol
         overflow="visible"
         id="id-4ea651ba-cd90-49e4-99f4-bbf321c6b54c">
        <path
           style="stroke:none"
           d="m 4.34375,-0.640625 h -3.8125 c 0,0 2.78125,-4.6875 2.84375,-4.6875 0.28125,1.640625 0.6875,3.5 0.96875,4.6875 z M 3.734375,-6.609375 3.71875,-6.625 c -0.046875,0 -0.265625,0.28125 -0.3125,0.390625 -0.109375,0.25 -0.171875,0.4375 -0.328125,0.703125 -1.296875,2.140625 -3.34375,5.4375 -3.34375,5.4375 v 0.015625 C -0.265625,-0.046875 -0.25,0 -0.21875,0 c 0,0 1.90625,-0.03125 4.265625,-0.03125 0.21875,0 0.515625,0.046875 0.5625,0.078125 0.109375,-0.03125 0.4375,-0.125 0.546875,-0.375 C 4.578125,-2.890625 4.25,-4.09375 3.734375,-6.609375 Z m 0,0"
           id="id-5b509699-fc84-4bcc-8cb9-bb041e38376c" />
      </symbol>
      <symbol
         overflow="visible"
         id="id-0bef659b-08ac-4a0e-883b-e0dfc50ecf94">
        <path
           style="stroke:none"
           d=""
           id="id-2c57418c-28f7-46bf-aa5e-bb40a6341b0d" />
      </symbol>
      <symbol
         overflow="visible"
         id="id-bb71de83-0083-4422-8b94-61041e397819">
        <path
           style="stroke:none"
           d="m 4.6875,-2.828125 c 0,-0.875 -0.421875,-1.53125 -0.953125,-1.53125 -0.859375,0 -1.375,0.90625 -1.765625,2.9375 L 1.8125,-0.5625 H 1.75 c -0.78125,0 -1.125,-0.28125 -1.125,-0.921875 0,-1.15625 1.234375,-2.359375 2.0625,-2.484375 V -4 c 0,-0.234375 -0.390625,-0.359375 -0.625,-0.359375 -0.484375,0 -1.828125,1.375 -1.828125,2.796875 0,0.890625 0.5,1.546875 1.453125,1.65625 L 1.328125,1.9375 v 0.015625 c 0,0.15625 0.421875,0.34375 0.46875,0.34375 0.09375,0 0.171875,-0.0625 0.25,-0.15625 V 2.03125 C 2.046875,1.6875 2.140625,0.75 2.25,0.109375 3.59375,-0.09375 4.6875,-1.28125 4.6875,-2.828125 Z m -2.359375,2.21875 c 0.1875,-1.171875 0.5,-3.203125 1.390625,-3.203125 0.390625,0 0.609375,0.28125 0.609375,0.734375 0,1.171875 -0.875,2.328125 -2,2.46875 z m 0,0"
           id="id-eff286a6-9045-45cc-be54-ba76b22dc4af" />
      </symbol>
    </g>
    <g
       id="id-bd8f5679-d245-4266-a1ca-c06bfad5840c">
      <symbol
         overflow="visible"
         id="id-52f9f5d4-3033-4bcf-9f29-9ada05c78a86">
        <path
           style="stroke:none"
           d="M 0.5,0 H 4.484375 V -4.8125 H 0.5 Z M 1,-0.5 V -4.3125 H 3.984375 V -0.5 Z m 0,0"
           id="id-375e6c30-ec5b-4537-a3f5-24ba1b54f524" />
      </symbol>
      <symbol
         overflow="visible"
         id="id-c80d14b4-d027-4bc7-8107-e1ec25a3f6ff">
        <path
           style="stroke:none"
           d="m 1.5,-6.546875 c -0.03125,0 -0.078125,0.046875 -0.109375,0.09375 C 1.0625,-5.90625 0.875,-5.65625 0.484375,-5.15625 c 0,0.0625 0.046875,0.125 0.109375,0.125 0.328125,-0.265625 0.90625,-0.75 0.90625,-0.75 0,0 0.546875,0.453125 0.921875,0.75 0.046875,0 0.109375,-0.0625 0.109375,-0.125 -0.375,-0.5 -0.59375,-0.75 -0.921875,-1.296875 C 1.578125,-6.5 1.546875,-6.546875 1.5,-6.546875 Z m 0,0"
           id="id-481b019a-a916-42a3-87bf-5dd78c929442" />
      </symbol>
      <symbol
         overflow="visible"
         id="id-68cc118a-fbaf-4991-87f5-b1b86d18dce8">
        <path
           style="stroke:none"
           d=""
           id="id-8c760344-bb83-4e68-8884-11bca5f2475f" />
      </symbol>
      <symbol
         overflow="visible"
         id="id-1ceaa9d7-e491-448b-af85-3171c1a32272">
        <path
           style="stroke:none"
           d="m 2.6875,-4.5 c -1.15625,0 -2.53125,1.609375 -2.53125,3.09375 0,0.9375 0.453125,1.46875 1.15625,1.46875 0.625,0 1.734375,-0.96875 1.875,-1.1875 0,-0.0625 -0.0625,-0.296875 -0.15625,-0.296875 -0.03125,0.03125 -0.5625,0.65625 -1.015625,0.65625 -0.5,0 -0.609375,-0.5 -0.609375,-0.875 0,-0.046875 0.015625,-0.21875 0.015625,-0.25 0.625,0 2.375,-0.65625 2.375,-1.6875 C 3.796875,-4.28125 3.203125,-4.5 2.6875,-4.5 Z M 1.453125,-2.265625 C 1.5,-2.765625 1.859375,-4.125 2.34375,-4.125 c 0.21875,0 0.265625,0.203125 0.265625,0.390625 0,0.734375 -0.765625,1.46875 -1.15625,1.46875 z m 0,0"
           id="id-c5919087-13a3-4134-b3fb-ea917de7d58e" />
      </symbol>
      <symbol
         overflow="visible"
         id="id-2d4ec4ca-827f-4dd8-92df-e74e74ef2d41">
        <path
           style="stroke:none"
           d=""
           id="id-56aeee34-df82-4332-bfbc-fafa53b26db1" />
      </symbol>
      <symbol
         overflow="visible"
         id="id-bbee3589-0fe4-434b-aa06-4011497aaa0d">
        <path
           style="stroke:none"
           d="m 2.25,-3.203125 c -0.90625,0 -2.109375,1.09375 -2.109375,2.375 0,0.515625 0.25,0.859375 0.65625,0.859375 0.421875,0 0.9375,-0.734375 1.078125,-0.984375 -0.015625,0.09375 -0.09375,0.53125 -0.09375,0.609375 0,0.21875 0.09375,0.390625 0.265625,0.390625 0.34375,0 0.875,-0.5625 0.953125,-0.6875 C 3,-0.6875 2.953125,-0.78125 2.921875,-0.78125 2.90625,-0.75 2.578125,-0.359375 2.40625,-0.359375 c -0.046875,0 -0.078125,-0.078125 -0.078125,-0.15625 0,-0.109375 0.03125,-0.21875 0.046875,-0.265625 L 2.8125,-3.109375 C 2.6875,-3.15625 2.5,-3.203125 2.25,-3.203125 Z M 1.90625,-2.90625 C 2,-2.90625 2.171875,-2.875 2.25,-2.796875 l -0.171875,0.78125 c -0.125,0.703125 -0.640625,1.625 -1.015625,1.625 -0.25,0 -0.375,-0.265625 -0.375,-0.71875 0,-0.84375 0.65625,-1.796875 1.21875,-1.796875 z m 0,0"
           id="id-2ae8c594-cdf7-4401-ba41-37b7d97ba690" />
      </symbol>
      <symbol
         overflow="visible"
         id="id-cc35bb21-8d89-47b4-ab59-58a317ea4f2a">
        <path
           style="stroke:none"
           d=""
           id="id-ad69cb86-b8fe-4a51-b458-26829ca76dd6" />
      </symbol>
      <symbol
         overflow="visible"
         id="id-3e9714ac-2f4f-4283-a0c6-bab5860e8732">
        <path
           style="stroke:none"
           d="M 2.9375,-7.140625 C 1.5,-6.203125 0.484375,-4.59375 0.484375,-2.5625 c 0,1.859375 1.046875,3.734375 2.421875,4.578125 l 0.125,-0.15625 C 1.71875,0.8125 1.328125,-0.390625 1.328125,-2.59375 1.328125,-4.8125 1.75,-5.953125 3.03125,-6.984375 Z m 0,0"
           id="id-78325598-4aad-48f1-87dd-0492b6d57d4b" />
      </symbol>
      <symbol
         overflow="visible"
         id="id-571ff145-33a2-47e6-9bce-c43d37f0d1f3">
        <path
           style="stroke:none"
           d="m 2.484375,-2.84375 h -2.1875 v 0.65625 h 2.1875 V 0 h 0.65625 v -2.1875 h 2.1875 v -0.65625 h -2.1875 v -2.203125 h -0.65625 z m 0,0"
           id="id-ed2e46b1-aac4-4a6e-a059-1fcc4649a3f6" />
      </symbol>
      <symbol
         overflow="visible"
         id="id-63b5e2e4-ed1b-4431-ac40-4d7fef83b581">
        <path
           style="stroke:none"
           d="m 0.375,-7.140625 -0.078125,0.15625 c 1.28125,1.03125 1.6875,2.171875 1.6875,4.390625 0,2.203125 -0.375,3.40625 -1.6875,4.453125 l 0.109375,0.15625 c 1.375,-0.84375 2.4375,-2.71875 2.4375,-4.578125 0,-2.03125 -1.015625,-3.640625 -2.46875,-4.578125 z m 0,0"
           id="id-afe2fe7b-d05a-4b6c-b6d7-c6a6ee305fa5" />
      </symbol>
      <symbol
         overflow="visible"
         id="id-8536c152-145b-4c53-9210-6e8c617a79a5">
        <path
           style="stroke:none"
           d=""
           id="id-756c1a93-98d5-4c17-ba8d-4ca370554519" />
      </symbol>
      <symbol
         overflow="visible"
         id="id-626340bc-134f-43b7-aee6-17a6ac138a4b">
        <path
           style="stroke:none"
           d="M 1.171875,-4.171875 H 0.875 c -0.234375,0 -0.46875,0.25 -0.46875,0.34375 0,0.015625 0.015625,0.03125 0.03125,0.03125 H 1.109375 L 0.5625,-1 C 0.53125,-0.78125 0.5,-0.546875 0.5,-0.46875 c 0,0.296875 0.125,0.53125 0.34375,0.53125 0.46875,0 1.203125,-0.765625 1.3125,-0.953125 0,-0.0625 -0.078125,-0.171875 -0.109375,-0.171875 C 2.03125,-1.03125 1.578125,-0.5 1.359375,-0.5 1.25,-0.5 1.25,-0.65625 1.25,-0.75 c 0,-0.046875 0.03125,-0.21875 0.046875,-0.3125 l 0.53125,-2.734375 h 0.78125 c 0.046875,-0.078125 0.09375,-0.15625 0.09375,-0.25 0,-0.046875 -0.015625,-0.125 -0.046875,-0.125 H 1.890625 L 2.125,-5.359375 c -0.046875,-0.03125 -0.125,-0.0625 -0.1875,-0.0625 -0.078125,0 -0.53125,0.515625 -0.640625,0.65625 z m 0,0"
           id="id-241c7365-9c40-4886-9907-b632383e8c2a" />
      </symbol>
      <symbol
         overflow="visible"
         id="id-98b3daf3-d33b-46f3-829e-3a5ecd08895a">
        <path
           style="stroke:none"
           d="M 0.5,0 H 4.484375 V -4.8125 H 0.5 Z M 1,-0.5 V -4.3125 H 3.984375 V -0.5 Z m 0,0"
           id="id-5c0eba3f-b246-49a8-b85b-503e947eed88" />
      </symbol>
      <symbol
         overflow="visible"
         id="id-a7c80e46-b2e1-4f9b-8092-14d6841e6790">
        <path
           style="stroke:none"
           d="m 4.34375,-0.640625 h -3.8125 c 0,0 2.78125,-4.6875 2.84375,-4.6875 0.28125,1.640625 0.6875,3.5 0.96875,4.6875 z M 3.734375,-6.609375 3.71875,-6.625 c -0.046875,0 -0.265625,0.28125 -0.3125,0.390625 -0.109375,0.25 -0.171875,0.4375 -0.328125,0.703125 -1.296875,2.140625 -3.34375,5.4375 -3.34375,5.4375 v 0.015625 C -0.265625,-0.046875 -0.25,0 -0.21875,0 c 0,0 1.90625,-0.03125 4.265625,-0.03125 0.21875,0 0.515625,0.046875 0.5625,0.078125 0.109375,-0.03125 0.4375,-0.125 0.546875,-0.375 C 4.578125,-2.890625 4.25,-4.09375 3.734375,-6.609375 Z m 0,0"
           id="id-12e9f94c-811d-47c8-ae6c-f08839eaa977" />
      </symbol>
    </g>
    <g
       id="id-ad7b37ae-e2f6-4e0a-bee4-4335d8e74db0">
      <symbol
         overflow="visible"
         id="id-c2597ba7-1008-4c70-ada2-3e371df6350f">
        <path
           style="stroke:none"
           d="M 0.5,0 H 4.484375 V -4.8125 H 0.5 Z M 1,-0.5 V -4.3125 H 3.984375 V -0.5 Z m 0,0"
           id="id-9058ca44-5482-4394-9dba-23c0957e55b1" />
      </symbol>
      <symbol
         overflow="visible"
         id="id-8bd9be5f-180b-4117-be90-df03eb40975c">
        <path
           style="stroke:none"
           d="m 4.34375,-0.640625 h -3.8125 c 0,0 2.78125,-4.6875 2.84375,-4.6875 0.28125,1.640625 0.6875,3.5 0.96875,4.6875 z M 3.734375,-6.609375 3.71875,-6.625 c -0.046875,0 -0.265625,0.28125 -0.3125,0.390625 -0.109375,0.25 -0.171875,0.4375 -0.328125,0.703125 -1.296875,2.140625 -3.34375,5.4375 -3.34375,5.4375 v 0.015625 C -0.265625,-0.046875 -0.25,0 -0.21875,0 c 0,0 1.90625,-0.03125 4.265625,-0.03125 0.21875,0 0.515625,0.046875 0.5625,0.078125 0.109375,-0.03125 0.4375,-0.125 0.546875,-0.375 C 4.578125,-2.890625 4.25,-4.09375 3.734375,-6.609375 Z m 0,0"
           id="id-1f9d1939-b471-449b-b6ef-e791613df70e" />
      </symbol>
      <symbol
         overflow="visible"
         id="id-f1ba040c-c8d4-4106-9b75-1d7de73a1a71">
        <path
           style="stroke:none"
           d="M 0.5,0 H 4.484375 V -4.8125 H 0.5 Z M 1,-0.5 V -4.3125 H 3.984375 V -0.5 Z m 0,0"
           id="id-d62dc1cb-7dd9-4ed5-8cc5-5894b85475bc" />
      </symbol>
      <symbol
         overflow="visible"
         id="id-4440ff0e-61f0-49f0-8465-4420a40c801d">
        <path
           style="stroke:none"
           d="m 1.5,-6.546875 c -0.03125,0 -0.078125,0.046875 -0.109375,0.09375 C 1.0625,-5.90625 0.875,-5.65625 0.484375,-5.15625 c 0,0.0625 0.046875,0.125 0.109375,0.125 0.328125,-0.265625 0.90625,-0.75 0.90625,-0.75 0,0 0.546875,0.453125 0.921875,0.75 0.046875,0 0.109375,-0.0625 0.109375,-0.125 -0.375,-0.5 -0.59375,-0.75 -0.921875,-1.296875 C 1.578125,-6.5 1.546875,-6.546875 1.5,-6.546875 Z m 0,0"
           id="id-7cbad38e-a9ec-473a-94fc-4eca944e92e4" />
      </symbol>
      <symbol
         overflow="visible"
         id="id-a3f85f61-1213-4820-bfa0-3a607051a10a">
        <path
           style="stroke:none"
           d=""
           id="id-035d8583-8f0f-412a-ae28-bca9099a8259" />
      </symbol>
      <symbol
         overflow="visible"
         id="id-04694c44-792b-498d-ba65-e984abd3ebfc">
        <path
           style="stroke:none"
           d="m 2.6875,-4.5 c -1.15625,0 -2.53125,1.609375 -2.53125,3.09375 0,0.9375 0.453125,1.46875 1.15625,1.46875 0.625,0 1.734375,-0.96875 1.875,-1.1875 0,-0.0625 -0.0625,-0.296875 -0.15625,-0.296875 -0.03125,0.03125 -0.5625,0.65625 -1.015625,0.65625 -0.5,0 -0.609375,-0.5 -0.609375,-0.875 0,-0.046875 0.015625,-0.21875 0.015625,-0.25 0.625,0 2.375,-0.65625 2.375,-1.6875 C 3.796875,-4.28125 3.203125,-4.5 2.6875,-4.5 Z M 1.453125,-2.265625 C 1.5,-2.765625 1.859375,-4.125 2.34375,-4.125 c 0.21875,0 0.265625,0.203125 0.265625,0.390625 0,0.734375 -0.765625,1.46875 -1.15625,1.46875 z m 0,0"
           id="id-1f75cd85-498c-4cf4-aa22-60346aedd755" />
      </symbol>
      <symbol
         overflow="visible"
         id="id-af7f57f9-36a3-4bb8-b39d-41e1670e5496">
        <path
           style="stroke:none"
           d=""
           id="id-adc6386e-1637-4783-94a4-e10ac4e18bd6" />
      </symbol>
      <symbol
         overflow="visible"
         id="id-37807738-4029-4165-8b0e-2b2d073036e1">
        <path
           style="stroke:none"
           d="m 2.25,-3.203125 c -0.90625,0 -2.109375,1.09375 -2.109375,2.375 0,0.515625 0.25,0.859375 0.65625,0.859375 0.421875,0 0.9375,-0.734375 1.078125,-0.984375 -0.015625,0.09375 -0.09375,0.53125 -0.09375,0.609375 0,0.21875 0.09375,0.390625 0.265625,0.390625 0.34375,0 0.875,-0.5625 0.953125,-0.6875 C 3,-0.6875 2.953125,-0.78125 2.921875,-0.78125 2.90625,-0.75 2.578125,-0.359375 2.40625,-0.359375 c -0.046875,0 -0.078125,-0.078125 -0.078125,-0.15625 0,-0.109375 0.03125,-0.21875 0.046875,-0.265625 L 2.8125,-3.109375 C 2.6875,-3.15625 2.5,-3.203125 2.25,-3.203125 Z M 1.90625,-2.90625 C 2,-2.90625 2.171875,-2.875 2.25,-2.796875 l -0.171875,0.78125 c -0.125,0.703125 -0.640625,1.625 -1.015625,1.625 -0.25,0 -0.375,-0.265625 -0.375,-0.71875 0,-0.84375 0.65625,-1.796875 1.21875,-1.796875 z m 0,0"
           id="id-4dc4b698-bbae-4e52-9323-99a4c0b3d556" />
      </symbol>
    </g>
    <g
       id="id-120f6b61-087a-4eb2-89d0-3ed125088d16">
      <symbol
         overflow="visible"
         id="id-966ad986-c851-4efa-b093-394186574d31">
        <path
           style="stroke:none"
           d="M 0.5,0 H 4.484375 V -4.8125 H 0.5 Z M 1,-0.5 V -4.3125 H 3.984375 V -0.5 Z m 0,0"
           id="id-32f79ed6-faea-49c7-89a8-95cdc082b93e" />
      </symbol>
      <symbol
         overflow="visible"
         id="id-a83af135-d2a6-41d6-93ae-dcfd07e56bd9">
        <path
           style="stroke:none"
           d="m 1.5,-6.546875 c -0.03125,0 -0.078125,0.046875 -0.109375,0.09375 C 1.0625,-5.90625 0.875,-5.65625 0.484375,-5.15625 c 0,0.0625 0.046875,0.125 0.109375,0.125 0.328125,-0.265625 0.90625,-0.75 0.90625,-0.75 0,0 0.546875,0.453125 0.921875,0.75 0.046875,0 0.109375,-0.0625 0.109375,-0.125 -0.375,-0.5 -0.59375,-0.75 -0.921875,-1.296875 C 1.578125,-6.5 1.546875,-6.546875 1.5,-6.546875 Z m 0,0"
           id="id-a9e14f41-4b85-4915-bd5c-eab0bec3c7de" />
      </symbol>
      <symbol
         overflow="visible"
         id="id-5f4bae2c-7aad-4470-9468-587b87a7c413">
        <path
           style="stroke:none"
           d=""
           id="id-7e55c31d-e105-49b8-888a-15efcd1e4a29" />
      </symbol>
      <symbol
         overflow="visible"
         id="id-e0b68a81-a9e3-4df2-9969-5245082877b1">
        <path
           style="stroke:none"
           d="m 2.6875,-4.5 c -1.15625,0 -2.53125,1.609375 -2.53125,3.09375 0,0.9375 0.453125,1.46875 1.15625,1.46875 0.625,0 1.734375,-0.96875 1.875,-1.1875 0,-0.0625 -0.0625,-0.296875 -0.15625,-0.296875 -0.03125,0.03125 -0.5625,0.65625 -1.015625,0.65625 -0.5,0 -0.609375,-0.5 -0.609375,-0.875 0,-0.046875 0.015625,-0.21875 0.015625,-0.25 0.625,0 2.375,-0.65625 2.375,-1.6875 C 3.796875,-4.28125 3.203125,-4.5 2.6875,-4.5 Z M 1.453125,-2.265625 C 1.5,-2.765625 1.859375,-4.125 2.34375,-4.125 c 0.21875,0 0.265625,0.203125 0.265625,0.390625 0,0.734375 -0.765625,1.46875 -1.15625,1.46875 z m 0,0"
           id="id-86261bda-78ab-4149-82e6-e59ae8df9ec6" />
      </symbol>
      <symbol
         overflow="visible"
         id="id-412b916e-6e53-42d1-b0b1-7bed6fa355d8">
        <path
           style="stroke:none"
           d="m 0.359375,0 h 2.90625 V -3.515625 H 0.359375 Z M 0.71875,-0.359375 v -2.78125 h 2.1875 v 2.78125 z m 0,0"
           id="id-c6a812b7-94cd-4be9-9def-5790416098a2" />
      </symbol>
      <symbol
         overflow="visible"
         id="id-0d0d716d-2726-46ee-ac7f-a107e5de7007">
        <path
           style="stroke:none"
           d="M 3.15625,-0.46875 H 0.390625 c 0,0 2.03125,-3.421875 2.0625,-3.421875 0.203125,1.203125 0.5,2.5625 0.703125,3.421875 z M 2.71875,-4.8125 2.703125,-4.828125 c -0.015625,0 -0.1875,0.203125 -0.21875,0.28125 -0.078125,0.1875 -0.125,0.3125 -0.234375,0.515625 -0.953125,1.5625 -2.453125,3.953125 -2.453125,3.953125 V -0.0625 c 0,0.03125 0.015625,0.0625 0.046875,0.0625 0,0 1.390625,-0.015625 3.109375,-0.015625 0.15625,0 0.375,0.015625 0.40625,0.046875 C 3.4375,0.015625 3.671875,-0.0625 3.75,-0.234375 c -0.40625,-1.875 -0.65625,-2.75 -1.03125,-4.578125 z m 0,0"
           id="id-9dd345c7-4afe-44c5-94bc-4cbc5b4a2a9e" />
      </symbol>
      <symbol
         overflow="visible"
         id="id-319cd4b1-8572-48fc-8904-ccc1b705f4d6">
        <path
           style="stroke:none"
           d="m 0.359375,0 h 2.90625 V -3.515625 H 0.359375 Z M 0.71875,-0.359375 v -2.78125 h 2.1875 v 2.78125 z m 0,0"
           id="id-4756f7bc-6166-44d2-bb61-2f6772cdf889" />
      </symbol>
      <symbol
         overflow="visible"
         id="id-215df19f-7e2a-4e14-ac6b-23104d08e7b6">
        <path
           style="stroke:none"
           d="m 1.09375,-4.765625 c -0.03125,0 -0.0625,0.03125 -0.078125,0.0625 C 0.78125,-4.3125 0.625,-4.125 0.359375,-3.765625 c 0,0.046875 0.03125,0.09375 0.0625,0.09375 0.25,-0.1875 0.671875,-0.546875 0.671875,-0.546875 0,0 0.40625,0.328125 0.671875,0.546875 0.03125,0 0.078125,-0.046875 0.078125,-0.09375 C 1.5625,-4.125 1.421875,-4.3125 1.171875,-4.703125 1.15625,-4.734375 1.125,-4.765625 1.09375,-4.765625 Z m 0,0"
           id="id-40146b07-e38a-461a-952a-776b0dde4007" />
      </symbol>
      <symbol
         overflow="visible"
         id="id-4c7b8b2d-e36f-4e33-9a61-3cbb32232299">
        <path
           style="stroke:none"
           d=""
           id="id-bc420bd7-57d2-4a00-a841-6bd472f553ff" />
      </symbol>
      <symbol
         overflow="visible"
         id="id-1edbd012-7c7b-4fcd-8739-4b16bc4c3de6">
        <path
           style="stroke:none"
           d="m 1.96875,-3.28125 c -0.84375,0 -1.859375,1.171875 -1.859375,2.25 0,0.6875 0.328125,1.078125 0.84375,1.078125 0.46875,0 1.265625,-0.703125 1.359375,-0.875 0,-0.03125 -0.03125,-0.203125 -0.109375,-0.203125 -0.015625,0.015625 -0.40625,0.46875 -0.734375,0.46875 -0.359375,0 -0.4375,-0.359375 -0.4375,-0.625 0,-0.046875 0,-0.15625 0,-0.1875 0.453125,0 1.734375,-0.484375 1.734375,-1.234375 0,-0.5 -0.4375,-0.671875 -0.796875,-0.671875 z m -0.90625,1.625 c 0.03125,-0.359375 0.296875,-1.359375 0.640625,-1.359375 0.171875,0 0.203125,0.15625 0.203125,0.296875 0,0.53125 -0.5625,1.0625 -0.84375,1.0625 z m 0,0"
           id="id-e02a8c9b-86f2-488c-b5a1-51a10692bf64" />
      </symbol>
    </g>
    <pattern
       y="0"
       x="0"
       height="6"
       width="6"
       patternUnits="userSpaceOnUse"
       id="EMFhbasepattern-3" />
    <marker
       inkscape:stockid="Arrow1Mend"
       orient="auto"
       refY="0"
       refX="0"
       id="marker2321-9"
       style="overflow:visible"
       inkscape:isstock="true">
      <path
         id="path2319-8"
         d="M 0,0 5,-5 -12.5,0 5,5 Z"
         style="fill:#0055d4;fill-opacity:1;fill-rule:evenodd;stroke:#0055d4;stroke-width:1pt;stroke-opacity:1"
         transform="matrix(-0.4,0,0,-0.4,-4,0)" />
    </marker>
    <marker
       inkscape:stockid="Arrow1Mend"
       orient="auto"
       refY="0"
       refX="0"
       id="marker2321-1"
       style="overflow:visible"
       inkscape:isstock="true">
      <path
         id="path2319-89"
         d="M 0,0 5,-5 -12.5,0 5,5 Z"
         style="fill:#00aa00;fill-opacity:1;fill-rule:evenodd;stroke:#00aa00;stroke-width:1pt;stroke-opacity:1"
         transform="matrix(-0.4,0,0,-0.4,-4,0)" />
    </marker>
    <g
       id="id-62c0cad6-3cfd-452d-b512-432a552c16db-6">
      <symbol
         id="id-fc93f8ac-4847-4177-8fa9-8e9561a2de55-6"
         overflow="visible">
        <path
           id="id-1e977944-d225-444b-aa64-d45cbe002f5f-4"
           d=""
           style="stroke:none" />
      </symbol>
      <symbol
         id="id-2513e76f-50ba-4848-85aa-5a7bd72098c8-7"
         overflow="visible">
        <path
           id="id-50953b7d-7c77-48ef-9bae-92e13f5c5f4d-8"
           d="m 3.765625,-4.5 c -0.546875,0 -1.40625,1.015625 -1.65625,1.953125 0,0 0.109375,-0.53125 0.140625,-0.640625 C 2.265625,-3.296875 2.328125,-3.65625 2.328125,-3.78125 2.328125,-4.25 2.0625,-4.5 1.671875,-4.5 c -0.546875,0 -1.390625,0.875 -1.5625,1.203125 0,0.0625 0.0625,0.265625 0.140625,0.265625 0.03125,-0.0625 0.5,-0.59375 0.71875,-0.59375 0.09375,0 0.140625,0.109375 0.140625,0.203125 0,0.046875 -0.03125,0.28125 -0.046875,0.328125 L 0.46875,0 C 0.59375,0.03125 0.953125,0.0625 1.0625,0.0625 1.171875,0.0625 1.53125,0.03125 1.625,0 L 1.828125,-0.921875 C 2.109375,-2.1875 2.875,-3.46875 3.15625,-3.46875 c 0.15625,0 0.171875,0.03125 0.265625,0.078125 0.125,0.0625 0.265625,0.1875 0.46875,0.1875 0.265625,0 0.578125,-0.25 0.578125,-0.71875 0,-0.1875 -0.078125,-0.359375 -0.15625,-0.453125 C 4.140625,-4.46875 4.046875,-4.5 3.765625,-4.5 Z m 0,0"
           style="stroke:none" />
      </symbol>
      <symbol
         id="id-207dfc37-01e1-44a6-aaae-6532210058d9-1"
         overflow="visible">
        <path
           id="id-bda182f4-9f53-4a4e-8501-5ec4bcb053ee-1"
           d="m 0.359375,0 h 2.90625 V -3.515625 H 0.359375 Z M 0.71875,-0.359375 v -2.78125 h 2.1875 v 2.78125 z m 0,0"
           style="stroke:none" />
      </symbol>
      <symbol
         id="id-52d03aa1-2aba-4ee5-9b2c-49ac0b73449c-4"
         overflow="visible">
        <path
           id="id-87d3c293-7a1e-457e-bcbf-6b6c2c1a631a-4"
           d="m 1.578125,-0.828125 c 0,0.21875 0,0.40625 -0.03125,0.53125 -0.03125,0.078125 -0.375,0.109375 -0.453125,0.109375 -0.03125,0.046875 -0.046875,0.171875 0,0.203125 C 1.375,0 1.5625,-0.015625 1.84375,-0.015625 c 0.28125,0 0.5,0.015625 0.796875,0.03125 0.03125,-0.03125 0.03125,-0.15625 0,-0.203125 -0.09375,0 -0.4375,-0.03125 -0.46875,-0.109375 -0.03125,-0.125 -0.03125,-0.3125 -0.03125,-0.53125 V -3.75 c 0,-0.4375 0.0625,-0.6875 0.0625,-0.6875 C 2.1875,-4.46875 2.171875,-4.5625 2.125,-4.5625 H 2.109375 c -0.015625,0 -0.65625,0.3125 -1.234375,0.578125 -0.015625,0.015625 0,0.03125 0,0.046875 0,0.046875 0.03125,0.09375 0.0625,0.125 0.109375,-0.046875 0.390625,-0.140625 0.5,-0.140625 0.109375,0 0.140625,0.0625 0.140625,0.265625 z m 0,0"
           style="stroke:none" />
      </symbol>
      <symbol
         id="id-2176e037-48a0-4346-a869-265aa9d11f37-8"
         overflow="visible">
        <path
           id="id-76a37c71-df13-49db-aa1b-6aa627a49e2f-0"
           d="M 3.21875,-1.0625 C 3.1875,-1.078125 3.109375,-1.109375 3.078125,-1.109375 3.03125,-1.109375 3.015625,-1.09375 3,-1.0625 2.84375,-0.6875 2.6875,-0.515625 2.390625,-0.515625 H 0.984375 C 1.3125,-0.875 2.03125,-1.671875 2.53125,-2.296875 2.78125,-2.59375 2.9375,-2.96875 2.9375,-3.375 c 0,-0.59375 -0.546875,-1.1875 -1.21875,-1.1875 -0.75,0 -1.265625,0.796875 -1.3125,0.96875 0,0.03125 0.078125,0.109375 0.140625,0.109375 C 0.625,-3.625 0.984375,-4.09375 1.5625,-4.09375 c 0.4375,0 0.78125,0.375 0.78125,0.859375 0,0.34375 -0.0625,0.640625 -0.34375,1.0625 -0.421875,0.609375 -1.09375,1.40625 -1.6875,2.0625 0,0.03125 0.03125,0.09375 0.0625,0.109375 h 2.453125 c 0.046875,-0.125 0.25,-0.71875 0.390625,-1.0625 z m 0,0"
           style="stroke:none" />
      </symbol>
    </g>
    <g
       id="id-62c0cad6-3cfd-452d-b512-432a552c16db-65">
      <symbol
         id="id-fc93f8ac-4847-4177-8fa9-8e9561a2de55-5"
         overflow="visible">
        <path
           id="id-1e977944-d225-444b-aa64-d45cbe002f5f-49"
           d=""
           style="stroke:none" />
      </symbol>
      <symbol
         id="id-2513e76f-50ba-4848-85aa-5a7bd72098c8-5"
         overflow="visible">
        <path
           id="id-50953b7d-7c77-48ef-9bae-92e13f5c5f4d-3"
           d="m 3.765625,-4.5 c -0.546875,0 -1.40625,1.015625 -1.65625,1.953125 0,0 0.109375,-0.53125 0.140625,-0.640625 C 2.265625,-3.296875 2.328125,-3.65625 2.328125,-3.78125 2.328125,-4.25 2.0625,-4.5 1.671875,-4.5 c -0.546875,0 -1.390625,0.875 -1.5625,1.203125 0,0.0625 0.0625,0.265625 0.140625,0.265625 0.03125,-0.0625 0.5,-0.59375 0.71875,-0.59375 0.09375,0 0.140625,0.109375 0.140625,0.203125 0,0.046875 -0.03125,0.28125 -0.046875,0.328125 L 0.46875,0 C 0.59375,0.03125 0.953125,0.0625 1.0625,0.0625 1.171875,0.0625 1.53125,0.03125 1.625,0 L 1.828125,-0.921875 C 2.109375,-2.1875 2.875,-3.46875 3.15625,-3.46875 c 0.15625,0 0.171875,0.03125 0.265625,0.078125 0.125,0.0625 0.265625,0.1875 0.46875,0.1875 0.265625,0 0.578125,-0.25 0.578125,-0.71875 0,-0.1875 -0.078125,-0.359375 -0.15625,-0.453125 C 4.140625,-4.46875 4.046875,-4.5 3.765625,-4.5 Z m 0,0"
           style="stroke:none" />
      </symbol>
      <symbol
         id="id-207dfc37-01e1-44a6-aaae-6532210058d9-3"
         overflow="visible">
        <path
           id="id-bda182f4-9f53-4a4e-8501-5ec4bcb053ee-4"
           d="m 0.359375,0 h 2.90625 V -3.515625 H 0.359375 Z M 0.71875,-0.359375 v -2.78125 h 2.1875 v 2.78125 z m 0,0"
           style="stroke:none" />
      </symbol>
      <symbol
         id="id-52d03aa1-2aba-4ee5-9b2c-49ac0b73449c-47"
         overflow="visible">
        <path
           id="id-87d3c293-7a1e-457e-bcbf-6b6c2c1a631a-0"
           d="m 1.578125,-0.828125 c 0,0.21875 0,0.40625 -0.03125,0.53125 -0.03125,0.078125 -0.375,0.109375 -0.453125,0.109375 -0.03125,0.046875 -0.046875,0.171875 0,0.203125 C 1.375,0 1.5625,-0.015625 1.84375,-0.015625 c 0.28125,0 0.5,0.015625 0.796875,0.03125 0.03125,-0.03125 0.03125,-0.15625 0,-0.203125 -0.09375,0 -0.4375,-0.03125 -0.46875,-0.109375 -0.03125,-0.125 -0.03125,-0.3125 -0.03125,-0.53125 V -3.75 c 0,-0.4375 0.0625,-0.6875 0.0625,-0.6875 C 2.1875,-4.46875 2.171875,-4.5625 2.125,-4.5625 H 2.109375 c -0.015625,0 -0.65625,0.3125 -1.234375,0.578125 -0.015625,0.015625 0,0.03125 0,0.046875 0,0.046875 0.03125,0.09375 0.0625,0.125 0.109375,-0.046875 0.390625,-0.140625 0.5,-0.140625 0.109375,0 0.140625,0.0625 0.140625,0.265625 z m 0,0"
           style="stroke:none" />
      </symbol>
      <symbol
         id="id-2176e037-48a0-4346-a869-265aa9d11f37-6"
         overflow="visible">
        <path
           id="id-76a37c71-df13-49db-aa1b-6aa627a49e2f-1"
           d="M 3.21875,-1.0625 C 3.1875,-1.078125 3.109375,-1.109375 3.078125,-1.109375 3.03125,-1.109375 3.015625,-1.09375 3,-1.0625 2.84375,-0.6875 2.6875,-0.515625 2.390625,-0.515625 H 0.984375 C 1.3125,-0.875 2.03125,-1.671875 2.53125,-2.296875 2.78125,-2.59375 2.9375,-2.96875 2.9375,-3.375 c 0,-0.59375 -0.546875,-1.1875 -1.21875,-1.1875 -0.75,0 -1.265625,0.796875 -1.3125,0.96875 0,0.03125 0.078125,0.109375 0.140625,0.109375 C 0.625,-3.625 0.984375,-4.09375 1.5625,-4.09375 c 0.4375,0 0.78125,0.375 0.78125,0.859375 0,0.34375 -0.0625,0.640625 -0.34375,1.0625 -0.421875,0.609375 -1.09375,1.40625 -1.6875,2.0625 0,0.03125 0.03125,0.09375 0.0625,0.109375 h 2.453125 c 0.046875,-0.125 0.25,-0.71875 0.390625,-1.0625 z m 0,0"
           style="stroke:none" />
      </symbol>
    </g>
  </defs>
  <sodipodi:namedview
     id="base"
     pagecolor="#ffffff"
     bordercolor="#666666"
     borderopacity="1.0"
     inkscape:pageopacity="0.0"
     inkscape:pageshadow="2"
     inkscape:zoom="2.8"
     inkscape:cx="169.94696"
     inkscape:cy="31.913492"
     inkscape:document-units="mm"
     inkscape:current-layer="layer1"
     inkscape:document-rotation="0"
     showgrid="false"
     inkscape:window-width="1600"
     inkscape:window-height="837"
     inkscape:window-x="-8"
     inkscape:window-y="-8"
     inkscape:window-maximized="1"
     fit-margin-top="0"
     fit-margin-left="0"
     fit-margin-right="0"
     fit-margin-bottom="0" />
  <metadata
     id="metadata5">
    <rdf:RDF>
      <cc:Work
         rdf:about="">
        <dc:format>image/svg+xml</dc:format>
        <dc:type
           rdf:resource="http://purl.org/dc/dcmitype/StillImage" />
        <dc:title></dc:title>
      </cc:Work>
    </rdf:RDF>
  </metadata>
  <g
     inkscape:label="Layer 1"
     inkscape:groupmode="layer"
     id="layer1"
     transform="translate(-110.03469,-95.974159)">
    <g
       style="fill:#a6a7a3"
       id="g3807"
       ns1:jacobian_sqrt="0.423334"
       ns1:inkscapeversion="1.0"
       ns1:alignment="middle center"
       ns1:scale="1.1999999149607656"
       ns1:preamble="C:\\Users\\flvisa\\Desktop\\lna\\latexify_books\\textext_preamble.tex"
       ns1:text="$1$"
       ns1:pdfconverter="inkscape"
       ns1:texconverter="pdflatex"
       ns1:version="1.1.0"
       transform="matrix(0.423334,0,0,0.423334,110.03459,124.90579)">
      <defs
         id="id-c14859ed-4c64-4706-ac84-aafb292b1fc7">
        <g
           id="id-2f243e22-a83c-4a3b-8c07-320878749070">
          <symbol
             overflow="visible"
             id="id-6c98f21d-0205-46bc-820d-6047f742b46c">
            <path
               style="stroke:none"
               d="M 0.5,0 H 4.484375 V -4.8125 H 0.5 Z M 1,-0.5 V -4.3125 H 3.984375 V -0.5 Z m 0,0"
               id="id-63e27701-0a0b-413e-b16c-00d2addc049c" />
          </symbol>
          <symbol
             overflow="visible"
             id="id-adaf3019-004c-4bf1-859c-6bc31003d44a">
            <path
               style="stroke:none"
               d="m 2.171875,-1.125 c 0,0.28125 -0.015625,0.5625 -0.0625,0.71875 C 2.078125,-0.296875 1.609375,-0.25 1.5,-0.25 c -0.046875,0.046875 -0.046875,0.234375 0,0.28125 0.390625,-0.015625 0.65625,-0.046875 1.03125,-0.046875 0.375,0 0.6875,0.03125 1.09375,0.046875 0.046875,-0.046875 0.03125,-0.234375 0,-0.28125 C 3.5,-0.25 3.015625,-0.296875 2.984375,-0.40625 2.9375,-0.5625 2.9375,-0.84375 2.9375,-1.125 v -4.03125 c 0,-0.59375 0.078125,-0.9375 0.078125,-0.9375 0,-0.046875 -0.03125,-0.15625 -0.09375,-0.15625 H 2.90625 C 2.875,-6.25 2,-5.828125 1.203125,-5.46875 c -0.03125,0.015625 0,0.046875 0,0.0625 0,0.078125 0.03125,0.125 0.078125,0.171875 0.171875,-0.0625 0.546875,-0.203125 0.6875,-0.203125 0.140625,0 0.203125,0.09375 0.203125,0.375 z m 0,0"
               id="id-2780a711-16b8-4af5-9102-8f405e49283b" />
          </symbol>
        </g>
      </defs>
      <g
         style="fill:#a6a7a3"
         id="id-80ecdef0-5075-4985-b6b3-9e41a30fb31d"
         transform="translate(-149.901,-128.515)">
        <g
           style="fill:#a6a7a3;fill-opacity:1"
           id="id-74fdcff6-70d0-420e-b9b5-018f0e547da7">
          <g
             style="fill:#a6a7a3"
             id="g3803"
             transform="translate(148.712,134.765)">
            <path
               style="fill:#a6a7a3;stroke:none"
               d="m 2.171875,-1.125 c 0,0.28125 -0.015625,0.5625 -0.0625,0.71875 C 2.078125,-0.296875 1.609375,-0.25 1.5,-0.25 c -0.046875,0.046875 -0.046875,0.234375 0,0.28125 0.390625,-0.015625 0.65625,-0.046875 1.03125,-0.046875 0.375,0 0.6875,0.03125 1.09375,0.046875 0.046875,-0.046875 0.03125,-0.234375 0,-0.28125 C 3.5,-0.25 3.015625,-0.296875 2.984375,-0.40625 2.9375,-0.5625 2.9375,-0.84375 2.9375,-1.125 v -4.03125 c 0,-0.59375 0.078125,-0.9375 0.078125,-0.9375 0,-0.046875 -0.03125,-0.15625 -0.09375,-0.15625 H 2.90625 C 2.875,-6.25 2,-5.828125 1.203125,-5.46875 c -0.03125,0.015625 0,0.046875 0,0.0625 0,0.078125 0.03125,0.125 0.078125,0.171875 0.171875,-0.0625 0.546875,-0.203125 0.6875,-0.203125 0.140625,0 0.203125,0.09375 0.203125,0.375 z m 0,0"
               id="id-1ce1329d-7674-48cd-aed2-7325ee0d5f87" />
          </g>
        </g>
      </g>
    </g>
    <g
       style="fill:#a6a7a3"
       id="g3975"
       ns1:jacobian_sqrt="0.423334"
       ns1:inkscapeversion="1.0"
       ns1:alignment="middle center"
       ns1:scale="1.1999999149607656"
       ns1:preamble="C:\\Users\\flvisa\\Desktop\\lna\\latexify_books\\textext_preamble.tex"
       ns1:text="$2$"
       ns1:pdfconverter="inkscape"
       ns1:texconverter="pdflatex"
       ns1:version="1.1.0"
       transform="matrix(0.423334,0,0,0.423334,146.71775,95.974159)">
      <defs
         id="id-895c2ee3-65e1-46a5-99e5-dc34bdb0baf6">
        <g
           id="id-4a09d787-d897-496d-8cd6-e1ae493bd9f2">
          <symbol
             overflow="visible"
             id="id-dc1dafea-f8aa-4fb8-8c57-a631ceac4e55">
            <path
               style="stroke:none"
               d="M 0.5,0 H 4.484375 V -4.8125 H 0.5 Z M 1,-0.5 V -4.3125 H 3.984375 V -0.5 Z m 0,0"
               id="id-a95eae4e-1b4e-4df1-8760-d19730fecafb" />
          </symbol>
          <symbol
             overflow="visible"
             id="id-6d9014fe-01d3-406a-996a-e8d36bd15da4">
            <path
               style="stroke:none"
               d="M 4.421875,-1.453125 C 4.375,-1.484375 4.25,-1.515625 4.21875,-1.515625 c -0.0625,0 -0.09375,0.015625 -0.109375,0.0625 -0.21875,0.5 -0.4375,0.75 -0.8125,0.75 h -1.9375 c 0.4375,-0.5 1.4375,-1.59375 2.125,-2.453125 C 3.8125,-3.5625 4.03125,-4.0625 4.03125,-4.625 c 0,-0.828125 -0.734375,-1.625 -1.671875,-1.625 -1.03125,0 -1.734375,1.078125 -1.796875,1.3125 0,0.046875 0.109375,0.15625 0.1875,0.15625 0.125,-0.1875 0.609375,-0.828125 1.390625,-0.828125 0.609375,0 1.0625,0.5 1.0625,1.171875 0,0.484375 -0.0625,0.875 -0.46875,1.453125 -0.5625,0.828125 -1.5,1.9375 -2.3125,2.84375 0,0.046875 0.0625,0.125 0.09375,0.140625 h 3.375 c 0.0625,-0.171875 0.328125,-0.984375 0.53125,-1.453125 z m 0,0"
               id="id-e78edfa6-9861-4875-abb2-76f094d0166e" />
          </symbol>
        </g>
      </defs>
      <g
         style="fill:#a6a7a3"
         id="id-b871268b-7966-4767-a6bb-955f7d1914c8"
         transform="translate(-149.134,-128.515)">
        <g
           style="fill:#a6a7a3;fill-opacity:1"
           id="id-a9d1ea95-d830-41d3-bb1d-8c9abe2d2140">
          <g
             style="fill:#a6a7a3"
             id="g3971"
             transform="translate(148.712,134.765)">
            <path
               style="fill:#a6a7a3;stroke:none"
               d="M 4.421875,-1.453125 C 4.375,-1.484375 4.25,-1.515625 4.21875,-1.515625 c -0.0625,0 -0.09375,0.015625 -0.109375,0.0625 -0.21875,0.5 -0.4375,0.75 -0.8125,0.75 h -1.9375 c 0.4375,-0.5 1.4375,-1.59375 2.125,-2.453125 C 3.8125,-3.5625 4.03125,-4.0625 4.03125,-4.625 c 0,-0.828125 -0.734375,-1.625 -1.671875,-1.625 -1.03125,0 -1.734375,1.078125 -1.796875,1.3125 0,0.046875 0.109375,0.15625 0.1875,0.15625 0.125,-0.1875 0.609375,-0.828125 1.390625,-0.828125 0.609375,0 1.0625,0.5 1.0625,1.171875 0,0.484375 -0.0625,0.875 -0.46875,1.453125 -0.5625,0.828125 -1.5,1.9375 -2.3125,2.84375 0,0.046875 0.0625,0.125 0.09375,0.140625 h 3.375 c 0.0625,-0.171875 0.328125,-0.984375 0.53125,-1.453125 z m 0,0"
               id="id-0e3c0a52-5bd7-4ccc-ae18-68d5b9ff9dee" />
          </g>
        </g>
      </g>
    </g>
    <g
       style="fill:#3d677b"
       id="g4471"
       ns1:jacobian_sqrt="0.423334"
       ns1:inkscapeversion="1.0"
       ns1:alignment="middle center"
       ns1:scale="1.1999999149607656"
       ns1:preamble="C:\\Users\\flvisa\\Desktop\\lna\\latexify_books\\textext_preamble.tex"
       ns1:text="$\\boldsymbol{r}_{12}$"
       ns1:pdfconverter="inkscape"
       ns1:texconverter="pdflatex"
       ns1:version="1.1.0"
       transform="matrix(0.423334,0,0,0.423334,126.28079,108.06767)">
      <defs
         id="id-a3621db7-448b-4c08-8359-241104c82cdc">
        <g
           id="id-62c0cad6-3cfd-452d-b512-432a552c16db">
          <symbol
             overflow="visible"
             id="id-fc93f8ac-4847-4177-8fa9-8e9561a2de55">
            <path
               style="stroke:none"
               d=""
               id="id-1e977944-d225-444b-aa64-d45cbe002f5f" />
          </symbol>
          <symbol
             overflow="visible"
             id="id-2513e76f-50ba-4848-85aa-5a7bd72098c8">
            <path
               style="stroke:none"
               d="m 3.765625,-4.5 c -0.546875,0 -1.40625,1.015625 -1.65625,1.953125 0,0 0.109375,-0.53125 0.140625,-0.640625 C 2.265625,-3.296875 2.328125,-3.65625 2.328125,-3.78125 2.328125,-4.25 2.0625,-4.5 1.671875,-4.5 c -0.546875,0 -1.390625,0.875 -1.5625,1.203125 0,0.0625 0.0625,0.265625 0.140625,0.265625 0.03125,-0.0625 0.5,-0.59375 0.71875,-0.59375 0.09375,0 0.140625,0.109375 0.140625,0.203125 0,0.046875 -0.03125,0.28125 -0.046875,0.328125 L 0.46875,0 C 0.59375,0.03125 0.953125,0.0625 1.0625,0.0625 1.171875,0.0625 1.53125,0.03125 1.625,0 L 1.828125,-0.921875 C 2.109375,-2.1875 2.875,-3.46875 3.15625,-3.46875 c 0.15625,0 0.171875,0.03125 0.265625,0.078125 0.125,0.0625 0.265625,0.1875 0.46875,0.1875 0.265625,0 0.578125,-0.25 0.578125,-0.71875 0,-0.1875 -0.078125,-0.359375 -0.15625,-0.453125 C 4.140625,-4.46875 4.046875,-4.5 3.765625,-4.5 Z m 0,0"
               id="id-50953b7d-7c77-48ef-9bae-92e13f5c5f4d" />
          </symbol>
          <symbol
             overflow="visible"
             id="id-207dfc37-01e1-44a6-aaae-6532210058d9">
            <path
               style="stroke:none"
               d="m 0.359375,0 h 2.90625 V -3.515625 H 0.359375 Z M 0.71875,-0.359375 v -2.78125 h 2.1875 v 2.78125 z m 0,0"
               id="id-bda182f4-9f53-4a4e-8501-5ec4bcb053ee" />
          </symbol>
          <symbol
             overflow="visible"
             id="id-52d03aa1-2aba-4ee5-9b2c-49ac0b73449c">
            <path
               style="stroke:none"
               d="m 1.578125,-0.828125 c 0,0.21875 0,0.40625 -0.03125,0.53125 -0.03125,0.078125 -0.375,0.109375 -0.453125,0.109375 -0.03125,0.046875 -0.046875,0.171875 0,0.203125 C 1.375,0 1.5625,-0.015625 1.84375,-0.015625 c 0.28125,0 0.5,0.015625 0.796875,0.03125 0.03125,-0.03125 0.03125,-0.15625 0,-0.203125 -0.09375,0 -0.4375,-0.03125 -0.46875,-0.109375 -0.03125,-0.125 -0.03125,-0.3125 -0.03125,-0.53125 V -3.75 c 0,-0.4375 0.0625,-0.6875 0.0625,-0.6875 C 2.1875,-4.46875 2.171875,-4.5625 2.125,-4.5625 H 2.109375 c -0.015625,0 -0.65625,0.3125 -1.234375,0.578125 -0.015625,0.015625 0,0.03125 0,0.046875 0,0.046875 0.03125,0.09375 0.0625,0.125 0.109375,-0.046875 0.390625,-0.140625 0.5,-0.140625 0.109375,0 0.140625,0.0625 0.140625,0.265625 z m 0,0"
               id="id-87d3c293-7a1e-457e-bcbf-6b6c2c1a631a" />
          </symbol>
          <symbol
             overflow="visible"
             id="id-2176e037-48a0-4346-a869-265aa9d11f37">
            <path
               style="stroke:none"
               d="M 3.21875,-1.0625 C 3.1875,-1.078125 3.109375,-1.109375 3.078125,-1.109375 3.03125,-1.109375 3.015625,-1.09375 3,-1.0625 2.84375,-0.6875 2.6875,-0.515625 2.390625,-0.515625 H 0.984375 C 1.3125,-0.875 2.03125,-1.671875 2.53125,-2.296875 2.78125,-2.59375 2.9375,-2.96875 2.9375,-3.375 c 0,-0.59375 -0.546875,-1.1875 -1.21875,-1.1875 -0.75,0 -1.265625,0.796875 -1.3125,0.96875 0,0.03125 0.078125,0.109375 0.140625,0.109375 C 0.625,-3.625 0.984375,-4.09375 1.5625,-4.09375 c 0.4375,0 0.78125,0.375 0.78125,0.859375 0,0.34375 -0.0625,0.640625 -0.34375,1.0625 -0.421875,0.609375 -1.09375,1.40625 -1.6875,2.0625 0,0.03125 0.03125,0.09375 0.0625,0.109375 h 2.453125 c 0.046875,-0.125 0.25,-0.71875 0.390625,-1.0625 z m 0,0"
               id="id-76a37c71-df13-49db-aa1b-6aa627a49e2f" />
          </symbol>
        </g>
      </defs>
      <g
         style="fill:#3d677b"
         id="id-5ed2b687-1a85-48cd-a587-8ae961c4bd65"
         transform="translate(-148.821,-130.265)">
        <g
           style="fill:#3d677b;fill-opacity:1"
           id="id-73362fdd-116f-4c9f-ba05-b033a1d2d401">
          <g
             style="fill:#3d677b"
             id="g4460"
             transform="translate(148.712,134.765)">
            <path
               style="fill:#3d677b;stroke:none"
               d="m 3.765625,-4.5 c -0.546875,0 -1.40625,1.015625 -1.65625,1.953125 0,0 0.109375,-0.53125 0.140625,-0.640625 C 2.265625,-3.296875 2.328125,-3.65625 2.328125,-3.78125 2.328125,-4.25 2.0625,-4.5 1.671875,-4.5 c -0.546875,0 -1.390625,0.875 -1.5625,1.203125 0,0.0625 0.0625,0.265625 0.140625,0.265625 0.03125,-0.0625 0.5,-0.59375 0.71875,-0.59375 0.09375,0 0.140625,0.109375 0.140625,0.203125 0,0.046875 -0.03125,0.28125 -0.046875,0.328125 L 0.46875,0 C 0.59375,0.03125 0.953125,0.0625 1.0625,0.0625 1.171875,0.0625 1.53125,0.03125 1.625,0 L 1.828125,-0.921875 C 2.109375,-2.1875 2.875,-3.46875 3.15625,-3.46875 c 0.15625,0 0.171875,0.03125 0.265625,0.078125 0.125,0.0625 0.265625,0.1875 0.46875,0.1875 0.265625,0 0.578125,-0.25 0.578125,-0.71875 0,-0.1875 -0.078125,-0.359375 -0.15625,-0.453125 C 4.140625,-4.46875 4.046875,-4.5 3.765625,-4.5 Z m 0,0"
               id="id-c4a379b2-3e98-4a6f-a782-6ea05fd7902a" />
          </g>
        </g>
        <g
           style="fill:#3d677b;fill-opacity:1"
           id="id-66a9c2a9-4b02-49f0-a9dc-011966311d41">
          <g
             style="fill:#3d677b"
             id="g4464"
             transform="translate(153.489,136.259)">
            <path
               style="fill:#3d677b;stroke:none"
               d="m 1.578125,-0.828125 c 0,0.21875 0,0.40625 -0.03125,0.53125 -0.03125,0.078125 -0.375,0.109375 -0.453125,0.109375 -0.03125,0.046875 -0.046875,0.171875 0,0.203125 C 1.375,0 1.5625,-0.015625 1.84375,-0.015625 c 0.28125,0 0.5,0.015625 0.796875,0.03125 0.03125,-0.03125 0.03125,-0.15625 0,-0.203125 -0.09375,0 -0.4375,-0.03125 -0.46875,-0.109375 -0.03125,-0.125 -0.03125,-0.3125 -0.03125,-0.53125 V -3.75 c 0,-0.4375 0.0625,-0.6875 0.0625,-0.6875 C 2.1875,-4.46875 2.171875,-4.5625 2.125,-4.5625 H 2.109375 c -0.015625,0 -0.65625,0.3125 -1.234375,0.578125 -0.015625,0.015625 0,0.03125 0,0.046875 0,0.046875 0.03125,0.09375 0.0625,0.125 0.109375,-0.046875 0.390625,-0.140625 0.5,-0.140625 0.109375,0 0.140625,0.0625 0.140625,0.265625 z m 0,0"
               id="id-cba0d5c7-ee51-4162-b62c-c8e6a91049e7" />
          </g>
          <g
             style="fill:#3d677b"
             id="g4467"
             transform="translate(157.016,136.259)">
            <path
               style="fill:#3d677b;stroke:none"
               d="M 3.21875,-1.0625 C 3.1875,-1.078125 3.109375,-1.109375 3.078125,-1.109375 3.03125,-1.109375 3.015625,-1.09375 3,-1.0625 2.84375,-0.6875 2.6875,-0.515625 2.390625,-0.515625 H 0.984375 C 1.3125,-0.875 2.03125,-1.671875 2.53125,-2.296875 2.78125,-2.59375 2.9375,-2.96875 2.9375,-3.375 c 0,-0.59375 -0.546875,-1.1875 -1.21875,-1.1875 -0.75,0 -1.265625,0.796875 -1.3125,0.96875 0,0.03125 0.078125,0.109375 0.140625,0.109375 C 0.625,-3.625 0.984375,-4.09375 1.5625,-4.09375 c 0.4375,0 0.78125,0.375 0.78125,0.859375 0,0.34375 -0.0625,0.640625 -0.34375,1.0625 -0.421875,0.609375 -1.09375,1.40625 -1.6875,2.0625 0,0.03125 0.03125,0.09375 0.0625,0.109375 h 2.453125 c 0.046875,-0.125 0.25,-0.71875 0.390625,-1.0625 z m 0,0"
               id="id-7c3e813a-ebcf-4632-bca7-1204f6c7d4b1" />
          </g>
        </g>
      </g>
    </g>
    <path
       id="path2317-7"
       d="m 147.28655,99.67833 20.55586,18.08065"
       style="fill:none;stroke:#c28f48;stroke-width:0.529167;stroke-linecap:butt;stroke-linejoin:miter;stroke-miterlimit:4;stroke-dasharray:none;stroke-opacity:1;marker-end:url(#marker14673)" />
    <path
       id="path2317-5"
       d="m 112.15196,125.631 55.47346,-7.16559"
       style="fill:none;stroke:#9a4832;stroke-width:0.517914;stroke-linecap:butt;stroke-linejoin:miter;stroke-miterlimit:4;stroke-dasharray:none;stroke-opacity:1;marker-end:url(#marker14693)" />
    <g
       style="fill:#9a4832"
       id="g5224"
       ns1:jacobian_sqrt="0.423334"
       ns1:inkscapeversion="1.0"
       ns1:alignment="middle center"
       ns1:scale="1.1999998866143555"
       ns1:preamble="C:\\Users\\flvisa\\Desktop\\lna\\latexify_books\\textext_preamble.tex"
       ns1:text="$\\boldsymbol{r}_{13}$"
       ns1:pdfconverter="inkscape"
       ns1:texconverter="pdflatex"
       ns1:version="1.1.0"
       transform="matrix(0.423334,0,0,0.423334,141.212,123.429)">
      <defs
         id="id-8a149432-3a24-4923-b448-bef72e301ed6">
        <g
           id="id-e95b46bf-c143-4881-82dd-21b3ae136ebd">
          <symbol
             overflow="visible"
             id="id-7a214e3f-0228-451c-85ce-7b195418e0b7">
            <path
               style="stroke:none"
               d=""
               id="id-3f4265b3-90b7-4ef7-ba15-b2797681e5d9" />
          </symbol>
          <symbol
             overflow="visible"
             id="id-3bc7bc2d-fe4e-480c-a3b3-ad0931b0f1fc">
            <path
               style="stroke:none"
               d="m 3.765625,-4.5 c -0.546875,0 -1.40625,1.015625 -1.65625,1.953125 0,0 0.109375,-0.53125 0.140625,-0.640625 C 2.265625,-3.296875 2.328125,-3.65625 2.328125,-3.78125 2.328125,-4.25 2.0625,-4.5 1.671875,-4.5 c -0.546875,0 -1.390625,0.875 -1.5625,1.203125 0,0.0625 0.0625,0.265625 0.140625,0.265625 0.03125,-0.0625 0.5,-0.59375 0.71875,-0.59375 0.09375,0 0.140625,0.109375 0.140625,0.203125 0,0.046875 -0.03125,0.28125 -0.046875,0.328125 L 0.46875,0 C 0.59375,0.03125 0.953125,0.0625 1.0625,0.0625 1.171875,0.0625 1.53125,0.03125 1.625,0 L 1.828125,-0.921875 C 2.109375,-2.1875 2.875,-3.46875 3.15625,-3.46875 c 0.15625,0 0.171875,0.03125 0.265625,0.078125 0.125,0.0625 0.265625,0.1875 0.46875,0.1875 0.265625,0 0.578125,-0.25 0.578125,-0.71875 0,-0.1875 -0.078125,-0.359375 -0.15625,-0.453125 C 4.140625,-4.46875 4.046875,-4.5 3.765625,-4.5 Z m 0,0"
               id="id-43fade2f-99d1-4272-820c-7806f4609e99" />
          </symbol>
          <symbol
             overflow="visible"
             id="id-5e4fbd25-e505-49bf-a6d6-62ed49054a5c">
            <path
               style="stroke:none"
               d="m 0.359375,0 h 2.90625 V -3.515625 H 0.359375 Z M 0.71875,-0.359375 v -2.78125 h 2.1875 v 2.78125 z m 0,0"
               id="id-608bc0bc-9dfb-488c-b6b6-6d59ba98cd03" />
          </symbol>
          <symbol
             overflow="visible"
             id="id-e9387f82-3b34-461e-9b92-f16aa1506c79">
            <path
               style="stroke:none"
               d="m 1.578125,-0.828125 c 0,0.21875 0,0.40625 -0.03125,0.53125 -0.03125,0.078125 -0.375,0.109375 -0.453125,0.109375 -0.03125,0.046875 -0.046875,0.171875 0,0.203125 C 1.375,0 1.5625,-0.015625 1.84375,-0.015625 c 0.28125,0 0.5,0.015625 0.796875,0.03125 0.03125,-0.03125 0.03125,-0.15625 0,-0.203125 -0.09375,0 -0.4375,-0.03125 -0.46875,-0.109375 -0.03125,-0.125 -0.03125,-0.3125 -0.03125,-0.53125 V -3.75 c 0,-0.4375 0.0625,-0.6875 0.0625,-0.6875 C 2.1875,-4.46875 2.171875,-4.5625 2.125,-4.5625 H 2.109375 c -0.015625,0 -0.65625,0.3125 -1.234375,0.578125 -0.015625,0.015625 0,0.03125 0,0.046875 0,0.046875 0.03125,0.09375 0.0625,0.125 0.109375,-0.046875 0.390625,-0.140625 0.5,-0.140625 0.109375,0 0.140625,0.0625 0.140625,0.265625 z m 0,0"
               id="id-c189a8ea-c11e-4108-8083-bbc66b42ec47" />
          </symbol>
          <symbol
             overflow="visible"
             id="id-8e56808d-1ee4-4001-9ed8-fc2ca8802579">
            <path
               style="stroke:none"
               d="m 1.828125,-4.5625 c -0.546875,0 -0.953125,0.375 -1.171875,0.703125 0,0.0625 0.046875,0.140625 0.078125,0.140625 0.078125,-0.046875 0.34375,-0.453125 0.796875,-0.453125 0.40625,0 0.703125,0.28125 0.703125,0.65625 0,0.609375 -0.546875,0.921875 -1.109375,1.046875 -0.015625,0.015625 -0.015625,0.046875 -0.015625,0.078125 0,0.046875 0.015625,0.09375 0.046875,0.125 C 1.25,-2.28125 1.421875,-2.34375 1.578125,-2.34375 c 0.46875,0 0.90625,0.421875 0.90625,1 0,0.8125 -0.453125,1.09375 -0.828125,1.09375 -0.203125,0 -0.390625,-0.046875 -0.53125,-0.171875 -0.109375,-0.125 -0.203125,-0.3125 -0.40625,-0.3125 -0.140625,0 -0.296875,0.125 -0.296875,0.328125 0,0.125 0.109375,0.25 0.15625,0.28125 0.21875,0.109375 0.53125,0.15625 0.71875,0.15625 0.875,0 1.796875,-0.609375 1.796875,-1.578125 C 3.09375,-2.25 2.515625,-2.625 2.109375,-2.6875 c 0.25,-0.15625 0.65625,-0.5 0.65625,-0.953125 0,-0.59375 -0.578125,-0.921875 -0.9375,-0.921875 z m 0,0"
               id="id-fa6d9e43-5827-4737-a614-1635e4f16a50" />
          </symbol>
        </g>
      </defs>
      <g
         style="fill:#9a4832"
         id="id-b9b34dd4-f7da-4a7f-ac11-d1a1e07c536c"
         transform="translate(-148.821,-130.265)">
        <g
           style="fill:#9a4832;fill-opacity:1"
           id="id-1c9ffaec-8413-4aeb-b79b-83ff2c8796f4">
          <g
             style="fill:#9a4832"
             id="g5213"
             transform="translate(148.712,134.765)">
            <path
               style="fill:#9a4832;stroke:none"
               d="m 3.765625,-4.5 c -0.546875,0 -1.40625,1.015625 -1.65625,1.953125 0,0 0.109375,-0.53125 0.140625,-0.640625 C 2.265625,-3.296875 2.328125,-3.65625 2.328125,-3.78125 2.328125,-4.25 2.0625,-4.5 1.671875,-4.5 c -0.546875,0 -1.390625,0.875 -1.5625,1.203125 0,0.0625 0.0625,0.265625 0.140625,0.265625 0.03125,-0.0625 0.5,-0.59375 0.71875,-0.59375 0.09375,0 0.140625,0.109375 0.140625,0.203125 0,0.046875 -0.03125,0.28125 -0.046875,0.328125 L 0.46875,0 C 0.59375,0.03125 0.953125,0.0625 1.0625,0.0625 1.171875,0.0625 1.53125,0.03125 1.625,0 L 1.828125,-0.921875 C 2.109375,-2.1875 2.875,-3.46875 3.15625,-3.46875 c 0.15625,0 0.171875,0.03125 0.265625,0.078125 0.125,0.0625 0.265625,0.1875 0.46875,0.1875 0.265625,0 0.578125,-0.25 0.578125,-0.71875 0,-0.1875 -0.078125,-0.359375 -0.15625,-0.453125 C 4.140625,-4.46875 4.046875,-4.5 3.765625,-4.5 Z m 0,0"
               id="id-d669a36d-2754-4c6c-b459-d9be6e20a081" />
          </g>
        </g>
        <g
           style="fill:#9a4832;fill-opacity:1"
           id="id-178f1b14-4a28-42f4-965d-9ece8f2e57eb">
          <g
             style="fill:#9a4832"
             id="g5217"
             transform="translate(153.489,136.259)">
            <path
               style="fill:#9a4832;stroke:none"
               d="m 1.578125,-0.828125 c 0,0.21875 0,0.40625 -0.03125,0.53125 -0.03125,0.078125 -0.375,0.109375 -0.453125,0.109375 -0.03125,0.046875 -0.046875,0.171875 0,0.203125 C 1.375,0 1.5625,-0.015625 1.84375,-0.015625 c 0.28125,0 0.5,0.015625 0.796875,0.03125 0.03125,-0.03125 0.03125,-0.15625 0,-0.203125 -0.09375,0 -0.4375,-0.03125 -0.46875,-0.109375 -0.03125,-0.125 -0.03125,-0.3125 -0.03125,-0.53125 V -3.75 c 0,-0.4375 0.0625,-0.6875 0.0625,-0.6875 C 2.1875,-4.46875 2.171875,-4.5625 2.125,-4.5625 H 2.109375 c -0.015625,0 -0.65625,0.3125 -1.234375,0.578125 -0.015625,0.015625 0,0.03125 0,0.046875 0,0.046875 0.03125,0.09375 0.0625,0.125 0.109375,-0.046875 0.390625,-0.140625 0.5,-0.140625 0.109375,0 0.140625,0.0625 0.140625,0.265625 z m 0,0"
               id="id-3a445ad9-b614-48a6-874d-36d3c5b56e9e" />
          </g>
          <g
             style="fill:#9a4832"
             id="g5220"
             transform="translate(157.016,136.259)">
            <path
               style="fill:#9a4832;stroke:none"
               d="m 1.828125,-4.5625 c -0.546875,0 -0.953125,0.375 -1.171875,0.703125 0,0.0625 0.046875,0.140625 0.078125,0.140625 0.078125,-0.046875 0.34375,-0.453125 0.796875,-0.453125 0.40625,0 0.703125,0.28125 0.703125,0.65625 0,0.609375 -0.546875,0.921875 -1.109375,1.046875 -0.015625,0.015625 -0.015625,0.046875 -0.015625,0.078125 0,0.046875 0.015625,0.09375 0.046875,0.125 C 1.25,-2.28125 1.421875,-2.34375 1.578125,-2.34375 c 0.46875,0 0.90625,0.421875 0.90625,1 0,0.8125 -0.453125,1.09375 -0.828125,1.09375 -0.203125,0 -0.390625,-0.046875 -0.53125,-0.171875 -0.109375,-0.125 -0.203125,-0.3125 -0.40625,-0.3125 -0.140625,0 -0.296875,0.125 -0.296875,0.328125 0,0.125 0.109375,0.25 0.15625,0.28125 0.21875,0.109375 0.53125,0.15625 0.71875,0.15625 0.875,0 1.796875,-0.609375 1.796875,-1.578125 C 3.09375,-2.25 2.515625,-2.625 2.109375,-2.6875 c 0.25,-0.15625 0.65625,-0.5 0.65625,-0.953125 0,-0.59375 -0.578125,-0.921875 -0.9375,-0.921875 z m 0,0"
               id="id-d1459250-be5a-4d98-a064-9d6b13669b2a" />
          </g>
        </g>
      </g>
    </g>
    <g
       style="fill:#c28f48"
       id="g5497"
       ns1:jacobian_sqrt="0.423334"
       ns1:inkscapeversion="1.0"
       ns1:alignment="middle center"
       ns1:scale="1.1999998866143555"
       ns1:preamble="C:\\Users\\flvisa\\Desktop\\lna\\latexify_books\\textext_preamble.tex"
       ns1:text="$\\boldsymbol{r}_{23}$"
       ns1:pdfconverter="inkscape"
       ns1:texconverter="pdflatex"
       ns1:version="1.1.0"
       transform="matrix(0.423334,0,0,0.423334,157.906,105.805)">
      <defs
         id="id-6d7978fb-6e6a-42ed-b73d-5f6319e987a7">
        <g
           id="id-10f86a8e-e3f2-4aa6-a518-ff66663d6511">
          <symbol
             overflow="visible"
             id="id-b7787e65-38ef-46f0-b1ed-f8e9631e58ff">
            <path
               style="stroke:none"
               d=""
               id="id-9df36942-4e2b-4c3d-8edc-43057f74ba06" />
          </symbol>
          <symbol
             overflow="visible"
             id="id-90b3bc7b-000c-4c5b-aaaf-ce77889a55cc">
            <path
               style="stroke:none"
               d="m 3.765625,-4.5 c -0.546875,0 -1.40625,1.015625 -1.65625,1.953125 0,0 0.109375,-0.53125 0.140625,-0.640625 C 2.265625,-3.296875 2.328125,-3.65625 2.328125,-3.78125 2.328125,-4.25 2.0625,-4.5 1.671875,-4.5 c -0.546875,0 -1.390625,0.875 -1.5625,1.203125 0,0.0625 0.0625,0.265625 0.140625,0.265625 0.03125,-0.0625 0.5,-0.59375 0.71875,-0.59375 0.09375,0 0.140625,0.109375 0.140625,0.203125 0,0.046875 -0.03125,0.28125 -0.046875,0.328125 L 0.46875,0 C 0.59375,0.03125 0.953125,0.0625 1.0625,0.0625 1.171875,0.0625 1.53125,0.03125 1.625,0 L 1.828125,-0.921875 C 2.109375,-2.1875 2.875,-3.46875 3.15625,-3.46875 c 0.15625,0 0.171875,0.03125 0.265625,0.078125 0.125,0.0625 0.265625,0.1875 0.46875,0.1875 0.265625,0 0.578125,-0.25 0.578125,-0.71875 0,-0.1875 -0.078125,-0.359375 -0.15625,-0.453125 C 4.140625,-4.46875 4.046875,-4.5 3.765625,-4.5 Z m 0,0"
               id="id-8e373826-de0c-464c-bf51-74bb5bfc1c00" />
          </symbol>
          <symbol
             overflow="visible"
             id="id-898a1842-9a1a-4dec-85e3-931ffd312c7e">
            <path
               style="stroke:none"
               d="m 0.359375,0 h 2.90625 V -3.515625 H 0.359375 Z M 0.71875,-0.359375 v -2.78125 h 2.1875 v 2.78125 z m 0,0"
               id="id-9e7371ce-2c83-4f9a-9a04-ac4eca16f7ac" />
          </symbol>
          <symbol
             overflow="visible"
             id="id-ba949e64-dc0d-4372-80e3-d647266031d5">
            <path
               style="stroke:none"
               d="M 3.21875,-1.0625 C 3.1875,-1.078125 3.109375,-1.109375 3.078125,-1.109375 3.03125,-1.109375 3.015625,-1.09375 3,-1.0625 2.84375,-0.6875 2.6875,-0.515625 2.390625,-0.515625 H 0.984375 C 1.3125,-0.875 2.03125,-1.671875 2.53125,-2.296875 2.78125,-2.59375 2.9375,-2.96875 2.9375,-3.375 c 0,-0.59375 -0.546875,-1.1875 -1.21875,-1.1875 -0.75,0 -1.265625,0.796875 -1.3125,0.96875 0,0.03125 0.078125,0.109375 0.140625,0.109375 C 0.625,-3.625 0.984375,-4.09375 1.5625,-4.09375 c 0.4375,0 0.78125,0.375 0.78125,0.859375 0,0.34375 -0.0625,0.640625 -0.34375,1.0625 -0.421875,0.609375 -1.09375,1.40625 -1.6875,2.0625 0,0.03125 0.03125,0.09375 0.0625,0.109375 h 2.453125 c 0.046875,-0.125 0.25,-0.71875 0.390625,-1.0625 z m 0,0"
               id="id-c92ec206-4532-4f94-a485-9bc98bf8ff3f" />
          </symbol>
          <symbol
             overflow="visible"
             id="id-440a04d0-3227-4922-acbb-807ed45e275c">
            <path
               style="stroke:none"
               d="m 1.828125,-4.5625 c -0.546875,0 -0.953125,0.375 -1.171875,0.703125 0,0.0625 0.046875,0.140625 0.078125,0.140625 0.078125,-0.046875 0.34375,-0.453125 0.796875,-0.453125 0.40625,0 0.703125,0.28125 0.703125,0.65625 0,0.609375 -0.546875,0.921875 -1.109375,1.046875 -0.015625,0.015625 -0.015625,0.046875 -0.015625,0.078125 0,0.046875 0.015625,0.09375 0.046875,0.125 C 1.25,-2.28125 1.421875,-2.34375 1.578125,-2.34375 c 0.46875,0 0.90625,0.421875 0.90625,1 0,0.8125 -0.453125,1.09375 -0.828125,1.09375 -0.203125,0 -0.390625,-0.046875 -0.53125,-0.171875 -0.109375,-0.125 -0.203125,-0.3125 -0.40625,-0.3125 -0.140625,0 -0.296875,0.125 -0.296875,0.328125 0,0.125 0.109375,0.25 0.15625,0.28125 0.21875,0.109375 0.53125,0.15625 0.71875,0.15625 0.875,0 1.796875,-0.609375 1.796875,-1.578125 C 3.09375,-2.25 2.515625,-2.625 2.109375,-2.6875 c 0.25,-0.15625 0.65625,-0.5 0.65625,-0.953125 0,-0.59375 -0.578125,-0.921875 -0.9375,-0.921875 z m 0,0"
               id="id-32471fcd-5e52-41a9-af91-7cd119e05066" />
          </symbol>
        </g>
      </defs>
      <g
         style="fill:#c28f48"
         id="id-728652f4-3564-454c-b1b8-8bd9beb39d3c"
         transform="translate(-148.821,-130.265)">
        <g
           style="fill:#c28f48;fill-opacity:1"
           id="id-d47aed55-1980-41f5-a645-967e60bc7a4e">
          <g
             style="fill:#c28f48"
             id="g5486"
             transform="translate(148.712,134.765)">
            <path
               style="fill:#c28f48;stroke:none"
               d="m 3.765625,-4.5 c -0.546875,0 -1.40625,1.015625 -1.65625,1.953125 0,0 0.109375,-0.53125 0.140625,-0.640625 C 2.265625,-3.296875 2.328125,-3.65625 2.328125,-3.78125 2.328125,-4.25 2.0625,-4.5 1.671875,-4.5 c -0.546875,0 -1.390625,0.875 -1.5625,1.203125 0,0.0625 0.0625,0.265625 0.140625,0.265625 0.03125,-0.0625 0.5,-0.59375 0.71875,-0.59375 0.09375,0 0.140625,0.109375 0.140625,0.203125 0,0.046875 -0.03125,0.28125 -0.046875,0.328125 L 0.46875,0 C 0.59375,0.03125 0.953125,0.0625 1.0625,0.0625 1.171875,0.0625 1.53125,0.03125 1.625,0 L 1.828125,-0.921875 C 2.109375,-2.1875 2.875,-3.46875 3.15625,-3.46875 c 0.15625,0 0.171875,0.03125 0.265625,0.078125 0.125,0.0625 0.265625,0.1875 0.46875,0.1875 0.265625,0 0.578125,-0.25 0.578125,-0.71875 0,-0.1875 -0.078125,-0.359375 -0.15625,-0.453125 C 4.140625,-4.46875 4.046875,-4.5 3.765625,-4.5 Z m 0,0"
               id="id-27ab4fe9-0806-40e3-82ef-0ed6c267accb" />
          </g>
        </g>
        <g
           style="fill:#c28f48;fill-opacity:1"
           id="id-d9c45956-e01e-476a-aa17-63affc18d693">
          <g
             style="fill:#c28f48"
             id="g5490"
             transform="translate(153.489,136.259)">
            <path
               style="fill:#c28f48;stroke:none"
               d="M 3.21875,-1.0625 C 3.1875,-1.078125 3.109375,-1.109375 3.078125,-1.109375 3.03125,-1.109375 3.015625,-1.09375 3,-1.0625 2.84375,-0.6875 2.6875,-0.515625 2.390625,-0.515625 H 0.984375 C 1.3125,-0.875 2.03125,-1.671875 2.53125,-2.296875 2.78125,-2.59375 2.9375,-2.96875 2.9375,-3.375 c 0,-0.59375 -0.546875,-1.1875 -1.21875,-1.1875 -0.75,0 -1.265625,0.796875 -1.3125,0.96875 0,0.03125 0.078125,0.109375 0.140625,0.109375 C 0.625,-3.625 0.984375,-4.09375 1.5625,-4.09375 c 0.4375,0 0.78125,0.375 0.78125,0.859375 0,0.34375 -0.0625,0.640625 -0.34375,1.0625 -0.421875,0.609375 -1.09375,1.40625 -1.6875,2.0625 0,0.03125 0.03125,0.09375 0.0625,0.109375 h 2.453125 c 0.046875,-0.125 0.25,-0.71875 0.390625,-1.0625 z m 0,0"
               id="id-1420d52e-3bad-48fa-b2c4-c0a8dff59a9d" />
          </g>
          <g
             style="fill:#c28f48"
             id="g5493"
             transform="translate(157.016,136.259)">
            <path
               style="fill:#c28f48;stroke:none"
               d="m 1.828125,-4.5625 c -0.546875,0 -0.953125,0.375 -1.171875,0.703125 0,0.0625 0.046875,0.140625 0.078125,0.140625 0.078125,-0.046875 0.34375,-0.453125 0.796875,-0.453125 0.40625,0 0.703125,0.28125 0.703125,0.65625 0,0.609375 -0.546875,0.921875 -1.109375,1.046875 -0.015625,0.015625 -0.015625,0.046875 -0.015625,0.078125 0,0.046875 0.015625,0.09375 0.046875,0.125 C 1.25,-2.28125 1.421875,-2.34375 1.578125,-2.34375 c 0.46875,0 0.90625,0.421875 0.90625,1 0,0.8125 -0.453125,1.09375 -0.828125,1.09375 -0.203125,0 -0.390625,-0.046875 -0.53125,-0.171875 -0.109375,-0.125 -0.203125,-0.3125 -0.40625,-0.3125 -0.140625,0 -0.296875,0.125 -0.296875,0.328125 0,0.125 0.109375,0.25 0.15625,0.28125 0.21875,0.109375 0.53125,0.15625 0.71875,0.15625 0.875,0 1.796875,-0.609375 1.796875,-1.578125 C 3.09375,-2.25 2.515625,-2.625 2.109375,-2.6875 c 0.25,-0.15625 0.65625,-0.5 0.65625,-0.953125 0,-0.59375 -0.578125,-0.921875 -0.9375,-0.921875 z m 0,0"
               id="id-3125e696-7838-4f4e-a1ee-9497aa83c692" />
          </g>
        </g>
      </g>
    </g>
    <g
       style="fill:#a6a7a3"
       id="g5779"
       ns1:jacobian_sqrt="0.423334"
       ns1:inkscapeversion="1.0"
       ns1:alignment="middle center"
       ns1:scale="1.1999998866143555"
       ns1:preamble="C:\\Users\\flvisa\\Desktop\\lna\\latexify_books\\textext_preamble.tex"
       ns1:text="$3$"
       ns1:pdfconverter="inkscape"
       ns1:texconverter="pdflatex"
       ns1:version="1.1.0"
       transform="matrix(0.423334,0,0,0.423334,168.98685,117.20336)">
      <defs
         id="id-e0c6d823-075b-4ff4-892f-1782bbd0737a">
        <g
           id="id-1e43aed5-07aa-4b95-9169-f55534d8e1b3">
          <symbol
             overflow="visible"
             id="id-af511b52-22ce-4e7a-9820-19f7b837a6ab">
            <path
               style="stroke:none"
               d="M 0.5,0 H 4.484375 V -4.8125 H 0.5 Z M 1,-0.5 V -4.3125 H 3.984375 V -0.5 Z m 0,0"
               id="id-5f4270ac-36cd-41a1-af67-138a39b8d2a9" />
          </symbol>
          <symbol
             overflow="visible"
             id="id-f8c06109-6c78-4080-9053-def8c3edb377">
            <path
               style="stroke:none"
               d="m 2.515625,-6.25 c -0.765625,0 -1.3125,0.5 -1.625,0.953125 0,0.078125 0.0625,0.203125 0.125,0.203125 0.09375,-0.0625 0.46875,-0.640625 1.09375,-0.640625 0.546875,0 0.953125,0.390625 0.953125,0.90625 0,0.84375 -0.734375,1.265625 -1.515625,1.4375 -0.015625,0.03125 -0.015625,0.0625 -0.015625,0.09375 0,0.09375 0.015625,0.140625 0.046875,0.203125 0.125,-0.03125 0.375,-0.125 0.578125,-0.125 0.640625,0 1.25,0.578125 1.25,1.359375 0,1.125 -0.625,1.515625 -1.140625,1.515625 -0.265625,0 -0.53125,-0.0625 -0.71875,-0.25 C 1.390625,-0.75 1.265625,-1.015625 1,-1.015625 c -0.21875,0 -0.40625,0.1875 -0.40625,0.46875 0,0.15625 0.140625,0.328125 0.1875,0.375 0.3125,0.15625 0.734375,0.21875 1,0.21875 C 2.984375,0.046875 4.25,-0.78125 4.25,-2.125 4.25,-3.078125 3.453125,-3.609375 2.890625,-3.6875 3.234375,-3.890625 3.78125,-4.375 3.78125,-5 c 0,-0.796875 -0.765625,-1.25 -1.265625,-1.25 z m 0,0"
               id="id-be1831b6-ad54-407f-b5bb-6a226904403c" />
          </symbol>
        </g>
      </defs>
      <g
         style="fill:#a6a7a3"
         id="id-8d373162-84a1-4aa6-8e00-3614c800210e"
         transform="translate(-149.306,-128.515)">
        <g
           style="fill:#a6a7a3;fill-opacity:1"
           id="id-b4fd395b-e8af-45ef-b336-5620f82c3b30">
          <g
             style="fill:#a6a7a3"
             id="g5775"
             transform="translate(148.712,134.765)">
            <path
               style="fill:#a6a7a3;stroke:none"
               d="m 2.515625,-6.25 c -0.765625,0 -1.3125,0.5 -1.625,0.953125 0,0.078125 0.0625,0.203125 0.125,0.203125 0.09375,-0.0625 0.46875,-0.640625 1.09375,-0.640625 0.546875,0 0.953125,0.390625 0.953125,0.90625 0,0.84375 -0.734375,1.265625 -1.515625,1.4375 -0.015625,0.03125 -0.015625,0.0625 -0.015625,0.09375 0,0.09375 0.015625,0.140625 0.046875,0.203125 0.125,-0.03125 0.375,-0.125 0.578125,-0.125 0.640625,0 1.25,0.578125 1.25,1.359375 0,1.125 -0.625,1.515625 -1.140625,1.515625 -0.265625,0 -0.53125,-0.0625 -0.71875,-0.25 C 1.390625,-0.75 1.265625,-1.015625 1,-1.015625 c -0.21875,0 -0.40625,0.1875 -0.40625,0.46875 0,0.15625 0.140625,0.328125 0.1875,0.375 0.3125,0.15625 0.734375,0.21875 1,0.21875 C 2.984375,0.046875 4.25,-0.78125 4.25,-2.125 4.25,-3.078125 3.453125,-3.609375 2.890625,-3.6875 3.234375,-3.890625 3.78125,-4.375 3.78125,-5 c 0,-0.796875 -0.765625,-1.25 -1.265625,-1.25 z m 0,0"
               id="id-2de25265-f0ee-4e8d-9468-09069a9a059b" />
          </g>
        </g>
      </g>
    </g>
    <path
       style="fill:none;stroke:#3d677b;stroke-width:0.524151;stroke-linecap:butt;stroke-linejoin:miter;stroke-miterlimit:4;stroke-dasharray:none;stroke-opacity:1;marker-end:url(#marker14683)"
       d="m 112.16547,125.63031 34.39644,-25.392"
       id="path2317" />
  </g>
</svg>
