<?xml version="1.0" encoding="UTF-8" standalone="no"?>
<svg
   xmlns:ns1="http://www.iki.fi/pav/software/textext/"
   xmlns:dc="http://purl.org/dc/elements/1.1/"
   xmlns:cc="http://creativecommons.org/ns#"
   xmlns:rdf="http://www.w3.org/1999/02/22-rdf-syntax-ns#"
   xmlns:svg="http://www.w3.org/2000/svg"
   xmlns="http://www.w3.org/2000/svg"
   xmlns:sodipodi="http://sodipodi.sourceforge.net/DTD/sodipodi-0.dtd"
   xmlns:inkscape="http://www.inkscape.org/namespaces/inkscape"
   width="37.552692mm"
   height="23.539623mm"
   viewBox="0 0 37.552692 23.539623"
   version="1.1"
   id="svg5575"
   inkscape:version="1.0 (4035a4fb49, 2020-05-01)"
   sodipodi:docname="fig_1_16.svg">
  <defs
     id="defs5569">
    <marker
       inkscape:stockid="Arrow1Sstart"
       orient="auto"
       refY="0"
       refX="0"
       id="Arrow1Sstart"
       style="overflow:visible"
       inkscape:isstock="true">
      <path
         id="path1280"
         d="M 0,0 5,-5 -12.5,0 5,5 Z"
         style="fill:#9a4832;fill-opacity:1;fill-rule:evenodd;stroke:#9a4832;stroke-width:1pt;stroke-opacity:1"
         transform="matrix(0.2,0,0,0.2,1.2,0)" />
    </marker>
    <marker
       inkscape:stockid="Arrow1Send"
       orient="auto"
       refY="0"
       refX="0"
       id="marker7738"
       style="overflow:visible"
       inkscape:isstock="true">
      <path
         id="path7736"
         d="M 0,0 5,-5 -12.5,0 5,5 Z"
         style="fill:#9a4832;fill-opacity:1;fill-rule:evenodd;stroke:#9a4832;stroke-width:1pt;stroke-opacity:1"
         transform="matrix(-0.2,0,0,-0.2,-1.2,0)" />
    </marker>
    <marker
       inkscape:isstock="true"
       style="overflow:visible"
       id="marker7620"
       refX="0"
       refY="0"
       orient="auto"
       inkscape:stockid="Arrow1Send">
      <path
         transform="matrix(-0.2,0,0,-0.2,-1.2,0)"
         style="fill:#c28f48;fill-opacity:1;fill-rule:evenodd;stroke:#c28f48;stroke-width:1pt;stroke-opacity:1"
         d="M 0,0 5,-5 -12.5,0 5,5 Z"
         id="path7618" />
    </marker>
    <marker
       inkscape:isstock="true"
       style="overflow:visible"
       id="marker7610"
       refX="0"
       refY="0"
       orient="auto"
       inkscape:stockid="Arrow1Send"
       inkscape:collect="always">
      <path
         transform="matrix(-0.2,0,0,-0.2,-1.2,0)"
         style="fill:#3d677b;fill-opacity:1;fill-rule:evenodd;stroke:#3d677b;stroke-width:1pt;stroke-opacity:1"
         d="M 0,0 5,-5 -12.5,0 5,5 Z"
         id="path7608" />
    </marker>
    <marker
       inkscape:stockid="Arrow1Mstart"
       orient="auto"
       refY="0"
       refX="0"
       id="Arrow1Mstart"
       style="overflow:visible"
       inkscape:isstock="true">
      <path
         id="path889"
         d="M 0,0 5,-5 -12.5,0 5,5 Z"
         style="fill:#000000;fill-opacity:1;fill-rule:evenodd;stroke:#000000;stroke-width:1pt;stroke-opacity:1"
         transform="matrix(0.4,0,0,0.4,4,0)" />
    </marker>
    <marker
       inkscape:isstock="true"
       style="overflow:visible"
       id="marker6782"
       refX="0"
       refY="0"
       orient="auto"
       inkscape:stockid="Arrow1Mend">
      <path
         transform="matrix(-0.4,0,0,-0.4,-4,0)"
         style="fill:#000000;fill-opacity:1;fill-rule:evenodd;stroke:#000000;stroke-width:1pt;stroke-opacity:1"
         d="M 0,0 5,-5 -12.5,0 5,5 Z"
         id="path6780" />
    </marker>
    <pattern
       y="0"
       x="0"
       height="6"
       width="6"
       patternUnits="userSpaceOnUse"
       id="EMFhbasepattern" />
    <marker
       inkscape:stockid="Arrow1Mend"
       orient="auto"
       refY="0"
       refX="0"
       id="marker5113"
       style="overflow:visible"
       inkscape:isstock="true">
      <path
         id="path5111"
         d="M 0,0 5,-5 -12.5,0 5,5 Z"
         style="fill:#0055d4;fill-opacity:1;fill-rule:evenodd;stroke:#0055d4;stroke-width:1pt;stroke-opacity:1"
         transform="matrix(-0.4,0,0,-0.4,-4,0)" />
    </marker>
    <inkscape:path-effect
       lpeversion="0"
       effect="spiro"
       id="path-effect2988"
       is_visible="true" />
    <inkscape:path-effect
       lpeversion="0"
       is_visible="true"
       id="path-effect5109"
       effect="spiro" />
    <g
       id="id-8ec4743e-35da-4c3c-b8b3-e9e1cda954b3">
      <symbol
         id="id-bee18e15-2dcc-487d-8bcf-1316bc00ee29"
         overflow="visible">
        <path
           id="id-d11b5ddd-49c5-404f-884d-510abfd633c9"
           d=""
           style="stroke:none" />
      </symbol>
      <symbol
         id="id-fb0de130-02a6-4415-adc7-5897246f1269"
         overflow="visible">
        <path
           id="id-00e2557d-f098-46da-85e9-eef5d07d5004"
           d="m 2.8125,-3.625 c 0.234375,0 0.28125,0.34375 0.28125,0.59375 0,0.96875 -0.625,2.640625 -1.265625,2.640625 -0.359375,0 -0.359375,-0.71875 -0.25,-1.28125 C 1.75,-2.5625 2.359375,-3.625 2.8125,-3.625 Z M 1.90625,-3.375 2.4375,-6.046875 C 2.5,-6.28125 2.578125,-6.703125 2.578125,-6.78125 c 0,-0.0625 0,-0.171875 -0.0625,-0.203125 -0.21875,0.09375 -1.265625,0.296875 -1.8125,0.34375 -0.03125,0.046875 -0.0625,0.265625 -0.03125,0.296875 0.15625,0 0.609375,0 0.609375,0.1875 0,0.109375 -0.046875,0.359375 -0.078125,0.546875 L 0.40625,-1.625 c -0.03125,0.140625 -0.0625,0.421875 -0.0625,0.5625 0,0.6875 0.546875,1.125 1.171875,1.125 1.140625,0 2.875,-1.5625 2.875,-3.4375 0,-0.734375 -0.359375,-1.125 -0.921875,-1.125 -0.484375,0 -1.28125,0.703125 -1.5625,1.125 z m 0,0"
           style="stroke:none" />
      </symbol>
    </g>
    <g
       id="id-5031b966-8670-43b5-92c3-573cab41d95a">
      <symbol
         id="id-c83ffb19-57a7-4d3d-8f9b-faddd8f19637"
         overflow="visible">
        <path
           id="id-10d3c516-36c8-438c-8f5a-596c4658f4ce"
           d=""
           style="stroke:none" />
      </symbol>
      <symbol
         id="id-eb971c38-d20e-440f-95bb-b1f0243877fa"
         overflow="visible">
        <path
           id="id-77f6ea17-e1d3-4037-98fb-b702e266d3e9"
           d="m 3.1875,-4.5 c -1.28125,0 -3.078125,1.546875 -3.078125,3.34375 0,0.671875 0.3125,1.21875 0.875,1.21875 0.59375,0 1.234375,-0.65625 1.453125,-1.03125 -0.015625,0.046875 -0.03125,0.125 -0.046875,0.203125 C 2.375,-0.703125 2.375,-0.625 2.375,-0.578125 c 0,0.4375 0.28125,0.65625 0.625,0.65625 0.53125,0 1.421875,-0.890625 1.59375,-1.203125 0,-0.0625 -0.0625,-0.265625 -0.140625,-0.265625 -0.03125,0.0625 -0.5,0.609375 -0.71875,0.609375 -0.09375,0 -0.140625,-0.125 -0.140625,-0.21875 0,-0.046875 0.03125,-0.28125 0.03125,-0.328125 l 0.640625,-3 C 4.0625,-4.390625 3.546875,-4.5 3.1875,-4.5 Z M 2.625,-3.953125 c 0.140625,0 0.28125,0.046875 0.359375,0.125 l -0.1875,1 c -0.203125,1 -0.71875,2.015625 -1.0625,2.015625 -0.21875,0 -0.359375,-0.234375 -0.359375,-0.71875 0,-1.1875 0.578125,-2.421875 1.25,-2.421875 z m 0,0"
           style="stroke:none" />
      </symbol>
    </g>
    <g
       id="id-6a12c514-7e51-46b6-bcdc-eb7409dd9dc7">
      <symbol
         id="id-357890ab-a567-4797-8dcd-26f1dab59376"
         overflow="visible">
        <path
           id="id-9e32e456-8198-4316-b68f-802a646b844b"
           d=""
           style="stroke:none" />
      </symbol>
      <symbol
         id="id-9dca89ec-2224-4ba0-9dd7-0ff41faa3805"
         overflow="visible">
        <path
           id="id-c7c65a6c-2d62-47bc-8480-e6425f593681"
           d="m 2.34375,-4.40625 c -1.0625,0 -2.171875,2.1875 -2.171875,3.390625 0,0.75 0.34375,1.078125 0.890625,1.078125 0.546875,0 1.15625,-0.59375 1.6875,-1.265625 -0.03125,0.1875 -0.046875,0.375 -0.046875,0.53125 0,0.40625 0.140625,0.71875 0.453125,0.71875 0.4375,0 0.78125,-0.546875 0.84375,-0.75 0.015625,-0.03125 -0.015625,-0.1875 -0.046875,-0.21875 -0.140625,0.140625 -0.296875,0.25 -0.515625,0.25 -0.15625,0 -0.359375,-0.078125 -0.359375,-0.53125 0,-0.15625 0.015625,-0.390625 0.109375,-0.6875 l 0.484375,-0.78125 c 0.25,-0.3125 0.5625,-0.921875 0.5625,-1.21875 0,-0.28125 -0.203125,-0.5 -0.328125,-0.5 -0.15625,0 -0.53125,0.9375 -0.78125,1.65625 l -0.25,0.4375 c 0.015625,-0.171875 0.03125,-0.515625 0.03125,-0.71875 0,-0.765625 -0.1875,-1.390625 -0.5625,-1.390625 z m -1.703125,3.625 c 0,-1.03125 1.03125,-2.921875 1.625,-2.921875 0.234375,0 0.3125,0.34375 0.3125,0.796875 v 0.0625 c 0,0.46875 -0.09375,0.984375 -0.25,1.328125 -0.5,0.71875 -1.015625,1.21875 -1.375,1.21875 -0.1875,0 -0.3125,-0.125 -0.3125,-0.484375 z m 0,0"
           style="stroke:none" />
      </symbol>
    </g>
    <g
       id="id-dd346631-f5bd-4e2a-82d8-159332aff218">
      <symbol
         id="id-e55b4570-1c95-47c9-b744-0341022665aa"
         overflow="visible">
        <path
           id="id-ada0c5ba-313d-4a48-b32c-79d9b8ab8c65"
           d=""
           style="stroke:none" />
      </symbol>
      <symbol
         id="id-7c15b9e7-1309-41d1-9878-486d65f08892"
         overflow="visible">
        <path
           id="id-532d8d54-e26b-4343-8eb7-cbaa6c8b25ec"
           d="m 3.078125,-4.390625 c -1.21875,0 -2.890625,1.5 -2.890625,3.25 0,0.71875 0.34375,1.1875 0.90625,1.1875 0.578125,0 1.28125,-1 1.484375,-1.359375 -0.03125,0.140625 -0.125,0.75 -0.125,0.84375 0,0.296875 0.125,0.53125 0.34375,0.53125 0.484375,0 1.203125,-0.765625 1.3125,-0.953125 0,-0.0625 -0.0625,-0.171875 -0.09375,-0.171875 C 3.984375,-1.03125 3.53125,-0.5 3.3125,-0.5 3.234375,-0.5 3.203125,-0.59375 3.203125,-0.71875 3.203125,-0.84375 3.234375,-1 3.25,-1.0625 L 3.875,-4.25 C 3.671875,-4.328125 3.421875,-4.390625 3.078125,-4.390625 Z m -0.46875,0.40625 c 0.125,0 0.375,0.046875 0.46875,0.140625 l -0.21875,1.078125 c -0.1875,0.96875 -0.890625,2.234375 -1.40625,2.234375 -0.34375,0 -0.515625,-0.359375 -0.515625,-1 0,-1.15625 0.890625,-2.453125 1.671875,-2.453125 z m 0,0"
           style="stroke:none" />
      </symbol>
      <symbol
         id="id-12afab00-827c-4b16-bce3-605aea54c616"
         overflow="visible">
        <path
           id="id-65e3a136-40a0-4ec9-b09e-c593e6217c51"
           d=""
           style="stroke:none" />
      </symbol>
      <symbol
         id="id-b51ad74b-db6b-4b5c-a87d-fe30b0139613"
         overflow="visible">
        <path
           id="id-5f2a92e9-300c-4542-a453-e248250040e4"
           d="m 2.015625,-2.796875 c 0.265625,0 0.296875,0.3125 0.296875,0.578125 0,0.59375 -0.484375,2.015625 -1.109375,2.015625 -0.265625,0 -0.375,-0.1875 -0.375,-0.53125 0,-0.9375 0.8125,-2.0625 1.1875,-2.0625 z M 1.046875,-2.09375 1.5,-4.34375 c 0.046875,-0.1875 0.109375,-0.5 0.109375,-0.546875 0,-0.046875 -0.015625,-0.125 -0.046875,-0.140625 C 1.40625,-4.984375 1,-4.828125 0.59375,-4.796875 c -0.03125,0.03125 -0.0625,0.125 -0.03125,0.15625 0.109375,0 0.453125,0 0.453125,0.140625 0,0.078125 -0.046875,0.25 -0.078125,0.390625 L 0.359375,-1.15625 C 0.34375,-1.078125 0.3125,-0.890625 0.3125,-0.8125 c 0,0.546875 0.28125,0.859375 0.6875,0.859375 0.78125,0 1.859375,-1.09375 1.859375,-2.421875 0,-0.5 -0.171875,-0.828125 -0.515625,-0.828125 -0.234375,0 -0.78125,0.25 -1.296875,1.109375 z m 0,0"
           style="stroke:none" />
      </symbol>
    </g>
    <g
       id="id-227917cf-e165-4977-aa8d-7802bdaffab2">
      <symbol
         id="id-6c978d9b-790f-4984-86b9-012d455a5e36"
         overflow="visible">
        <path
           id="id-956cef79-7462-42af-9f2b-0f043279548a"
           d=""
           style="stroke:none" />
      </symbol>
      <symbol
         id="id-f072fb16-3e61-46ac-b421-e629c133cc12"
         overflow="visible">
        <path
           id="id-409f3259-f367-4003-ab73-a9c0e1445d7f"
           d="m 2.765625,-3.84375 c 0.359375,0 0.40625,0.421875 0.40625,0.796875 0,0.8125 -0.671875,2.78125 -1.515625,2.78125 -0.359375,0 -0.53125,-0.265625 -0.53125,-0.75 0,-1.28125 1.125,-2.828125 1.640625,-2.828125 z M 1.453125,-2.875 2.0625,-5.96875 c 0.046875,-0.234375 0.140625,-0.671875 0.140625,-0.75 0,-0.0625 -0.015625,-0.15625 -0.0625,-0.1875 C 1.921875,-6.828125 1.359375,-6.625 0.8125,-6.578125 0.765625,-6.546875 0.734375,-6.40625 0.765625,-6.375 c 0.15625,0 0.625,0.015625 0.625,0.203125 0,0.109375 -0.0625,0.34375 -0.09375,0.53125 L 0.5,-1.59375 c -0.015625,0.125 -0.0625,0.375 -0.0625,0.484375 0,0.734375 0.375,1.171875 0.9375,1.171875 1.0625,0 2.546875,-1.5 2.546875,-3.3125 0,-0.703125 -0.25,-1.140625 -0.71875,-1.140625 -0.3125,0 -1.046875,0.34375 -1.75,1.515625 z m 0,0"
           style="stroke:none" />
      </symbol>
      <symbol
         id="id-8dc15b7d-3237-466a-bf69-6aac66cd246c"
         overflow="visible">
        <path
           id="id-ca449afd-bd58-4b0e-983f-f7dc9f565d4c"
           d=""
           style="stroke:none" />
      </symbol>
      <symbol
         id="id-d04c70f0-1463-4ec2-9362-b4791adc5cf5"
         overflow="visible">
        <path
           id="id-ed3307df-acfa-4d12-ad40-18e114c60315"
           d="m 2.25,-3.203125 c -0.90625,0 -2.109375,1.09375 -2.109375,2.375 0,0.515625 0.25,0.859375 0.65625,0.859375 0.421875,0 0.9375,-0.734375 1.078125,-0.984375 -0.015625,0.09375 -0.09375,0.53125 -0.09375,0.609375 0,0.21875 0.09375,0.390625 0.265625,0.390625 0.34375,0 0.875,-0.5625 0.953125,-0.6875 C 3,-0.6875 2.953125,-0.78125 2.921875,-0.78125 2.90625,-0.75 2.578125,-0.359375 2.40625,-0.359375 c -0.046875,0 -0.078125,-0.078125 -0.078125,-0.15625 0,-0.109375 0.03125,-0.21875 0.046875,-0.265625 L 2.8125,-3.109375 C 2.6875,-3.15625 2.5,-3.203125 2.25,-3.203125 Z M 1.90625,-2.90625 C 2,-2.90625 2.171875,-2.875 2.25,-2.796875 l -0.171875,0.78125 c -0.125,0.703125 -0.640625,1.625 -1.015625,1.625 -0.25,0 -0.375,-0.265625 -0.375,-0.71875 0,-0.84375 0.65625,-1.796875 1.21875,-1.796875 z m 0,0"
           style="stroke:none" />
      </symbol>
    </g>
    <marker
       inkscape:isstock="true"
       style="overflow:visible"
       id="marker5113-8"
       refX="0"
       refY="0"
       orient="auto"
       inkscape:stockid="Arrow1Mend">
      <path
         transform="matrix(-0.4,0,0,-0.4,-4,0)"
         style="fill:#0055d4;fill-opacity:1;fill-rule:evenodd;stroke:#0055d4;stroke-width:1pt;stroke-opacity:1"
         d="M 0,0 5,-5 -12.5,0 5,5 Z"
         id="path5111-1" />
    </marker>
  </defs>
  <sodipodi:namedview
     id="base"
     pagecolor="#ffffff"
     bordercolor="#666666"
     borderopacity="1.0"
     inkscape:pageopacity="0.0"
     inkscape:pageshadow="2"
     inkscape:zoom="3.959798"
     inkscape:cx="89.659174"
     inkscape:cy="42.767899"
     inkscape:document-units="mm"
     inkscape:current-layer="layer1"
     inkscape:document-rotation="0"
     showgrid="false"
     inkscape:window-width="1600"
     inkscape:window-height="837"
     inkscape:window-x="-8"
     inkscape:window-y="-8"
     inkscape:window-maximized="1"
     fit-margin-top="0"
     fit-margin-left="0"
     fit-margin-right="0"
     fit-margin-bottom="0" />
  <metadata
     id="metadata5572">
    <rdf:RDF>
      <cc:Work
         rdf:about="">
        <dc:format>image/svg+xml</dc:format>
        <dc:type
           rdf:resource="http://purl.org/dc/dcmitype/StillImage" />
        <dc:title />
      </cc:Work>
    </rdf:RDF>
  </metadata>
  <g
     inkscape:label="Layer 1"
     inkscape:groupmode="layer"
     id="layer1"
     transform="translate(-36.747359,-122.84716)">
    <g
       id="g7052"
       style="fill:#f2f2f2;stroke:#d3c7b1">
      <path
         sodipodi:nodetypes="ccc"
         id="path6744"
         d="m 49.456019,124.10825 h 24.627314 l -8.979205,17.4733"
         style="fill:#f2f2f2;stroke:#d3c7b1;stroke-width:0.264583;stroke-linecap:butt;stroke-linejoin:miter;stroke-miterlimit:4;stroke-dasharray:0.793749, 0.26458300000000001;stroke-dashoffset:0;stroke-opacity:1" />
      <path
         style="fill:#f2f2f2;stroke:#d3c7b1;stroke-width:0.264583;stroke-linecap:butt;stroke-linejoin:miter;stroke-miterlimit:4;stroke-dasharray:0.79375, 0.26458300000000001;stroke-dashoffset:0;stroke-opacity:1"
         d="m 65.104128,141.58155 h -24.62732 l 8.97921,-17.4733"
         id="path6744-3"
         sodipodi:nodetypes="ccc" />
    </g>
    <g
       style="fill:#c28f48"
       transform="matrix(0.42333399,0,0,0.42333399,62.74748,143.40376)"
       ns1:version="1.1.0"
       ns1:texconverter="pdflatex"
       ns1:pdfconverter="inkscape"
       ns1:text="$\\boldsymbol{b}$"
       ns1:preamble="C:\\Users\\flvisa\\Desktop\\lna\\latexify_books\\textext_preamble.tex"
       ns1:scale="1.1999999716535878"
       ns1:alignment="middle center"
       ns1:inkscapeversion="1.0"
       ns1:jacobian_sqrt="0.423334"
       id="g5195">
      <defs
         id="id-8cc06fa5-7737-4e54-96ea-1aa2d3452284">
        <g
           id="g6402">
          <symbol
             id="symbol6396"
             overflow="visible">
            <path
               id="path6394"
               d=""
               style="stroke:none" />
          </symbol>
          <symbol
             id="symbol6400"
             overflow="visible">
            <path
               id="path6398"
               d="m 2.8125,-3.625 c 0.234375,0 0.28125,0.34375 0.28125,0.59375 0,0.96875 -0.625,2.640625 -1.265625,2.640625 -0.359375,0 -0.359375,-0.71875 -0.25,-1.28125 C 1.75,-2.5625 2.359375,-3.625 2.8125,-3.625 Z M 1.90625,-3.375 2.4375,-6.046875 C 2.5,-6.28125 2.578125,-6.703125 2.578125,-6.78125 c 0,-0.0625 0,-0.171875 -0.0625,-0.203125 -0.21875,0.09375 -1.265625,0.296875 -1.8125,0.34375 -0.03125,0.046875 -0.0625,0.265625 -0.03125,0.296875 0.15625,0 0.609375,0 0.609375,0.1875 0,0.109375 -0.046875,0.359375 -0.078125,0.546875 L 0.40625,-1.625 c -0.03125,0.140625 -0.0625,0.421875 -0.0625,0.5625 0,0.6875 0.546875,1.125 1.171875,1.125 1.140625,0 2.875,-1.5625 2.875,-3.4375 0,-0.734375 -0.359375,-1.125 -0.921875,-1.125 -0.484375,0 -1.28125,0.703125 -1.5625,1.125 z m 0,0"
               style="stroke:none" />
          </symbol>
        </g>
      </defs>
      <g
         style="fill:#c28f48"
         transform="translate(-149.156,-127.781)"
         id="id-35968720-c410-46cf-9c32-49c1942e9941">
        <g
           id="id-20c49b1b-2a6c-49b0-97a4-b1a939f2b5ec"
           style="fill:#c28f48;fill-opacity:1">
          <g
             style="fill:#c28f48"
             transform="translate(148.812,134.765)"
             id="g5191">
            <path
               id="id-5c2d4d52-da83-4e69-97fa-0a28d886065f"
               d="m 2.8125,-3.625 c 0.234375,0 0.28125,0.34375 0.28125,0.59375 0,0.96875 -0.625,2.640625 -1.265625,2.640625 -0.359375,0 -0.359375,-0.71875 -0.25,-1.28125 C 1.75,-2.5625 2.359375,-3.625 2.8125,-3.625 Z M 1.90625,-3.375 2.4375,-6.046875 C 2.5,-6.28125 2.578125,-6.703125 2.578125,-6.78125 c 0,-0.0625 0,-0.171875 -0.0625,-0.203125 -0.21875,0.09375 -1.265625,0.296875 -1.8125,0.34375 -0.03125,0.046875 -0.0625,0.265625 -0.03125,0.296875 0.15625,0 0.609375,0 0.609375,0.1875 0,0.109375 -0.046875,0.359375 -0.078125,0.546875 L 0.40625,-1.625 c -0.03125,0.140625 -0.0625,0.421875 -0.0625,0.5625 0,0.6875 0.546875,1.125 1.171875,1.125 1.140625,0 2.875,-1.5625 2.875,-3.4375 0,-0.734375 -0.359375,-1.125 -0.921875,-1.125 -0.484375,0 -1.28125,0.703125 -1.5625,1.125 z m 0,0"
               style="fill:#c28f48;stroke:none" />
          </g>
        </g>
      </g>
    </g>
    <g
       transform="matrix(0.42333399,0,0,0.42333399,45.489021,122.84716)"
       ns1:version="1.1.0"
       ns1:texconverter="pdflatex"
       ns1:pdfconverter="inkscape"
       ns1:text="$\\boldsymbol{a}$"
       ns1:preamble="C:\\Users\\flvisa\\Desktop\\lna\\latexify_books\\textext_preamble.tex"
       ns1:scale="1.1999999716535878"
       ns1:alignment="middle center"
       ns1:inkscapeversion="1.0"
       ns1:jacobian_sqrt="0.423334"
       id="g5253"
       style="fill:#3d677b">
      <defs
         id="id-a7b61f21-2a99-4218-b463-7f9076b7eeaa">
        <g
           id="g6418">
          <symbol
             id="symbol6412"
             overflow="visible">
            <path
               id="path6410"
               d=""
               style="stroke:none" />
          </symbol>
          <symbol
             id="symbol6416"
             overflow="visible">
            <path
               id="path6414"
               d="m 3.1875,-4.5 c -1.28125,0 -3.078125,1.546875 -3.078125,3.34375 0,0.671875 0.3125,1.21875 0.875,1.21875 0.59375,0 1.234375,-0.65625 1.453125,-1.03125 -0.015625,0.046875 -0.03125,0.125 -0.046875,0.203125 C 2.375,-0.703125 2.375,-0.625 2.375,-0.578125 c 0,0.4375 0.28125,0.65625 0.625,0.65625 0.53125,0 1.421875,-0.890625 1.59375,-1.203125 0,-0.0625 -0.0625,-0.265625 -0.140625,-0.265625 -0.03125,0.0625 -0.5,0.609375 -0.71875,0.609375 -0.09375,0 -0.140625,-0.125 -0.140625,-0.21875 0,-0.046875 0.03125,-0.28125 0.03125,-0.328125 l 0.640625,-3 C 4.0625,-4.390625 3.546875,-4.5 3.1875,-4.5 Z M 2.625,-3.953125 c 0.140625,0 0.28125,0.046875 0.359375,0.125 l -0.1875,1 c -0.203125,1 -0.71875,2.015625 -1.0625,2.015625 -0.21875,0 -0.359375,-0.234375 -0.359375,-0.71875 0,-1.1875 0.578125,-2.421875 1.25,-2.421875 z m 0,0"
               style="stroke:none" />
          </symbol>
        </g>
      </defs>
      <g
         transform="translate(-149.021,-130.265)"
         id="id-b1e571b2-0a04-474b-894d-e22cbd533097"
         style="fill:#3d677b">
        <g
           id="id-f36f6860-4ba6-492a-bd77-2bb541069416"
           style="fill:#3d677b;fill-opacity:1">
          <g
             transform="translate(148.912,134.765)"
             id="g5249"
             style="fill:#3d677b">
            <path
               id="id-604a2e59-08ff-4806-a1e9-80814e6113c2"
               d="m 3.1875,-4.5 c -1.28125,0 -3.078125,1.546875 -3.078125,3.34375 0,0.671875 0.3125,1.21875 0.875,1.21875 0.59375,0 1.234375,-0.65625 1.453125,-1.03125 -0.015625,0.046875 -0.03125,0.125 -0.046875,0.203125 C 2.375,-0.703125 2.375,-0.625 2.375,-0.578125 c 0,0.4375 0.28125,0.65625 0.625,0.65625 0.53125,0 1.421875,-0.890625 1.59375,-1.203125 0,-0.0625 -0.0625,-0.265625 -0.140625,-0.265625 -0.03125,0.0625 -0.5,0.609375 -0.71875,0.609375 -0.09375,0 -0.140625,-0.125 -0.140625,-0.21875 0,-0.046875 0.03125,-0.28125 0.03125,-0.328125 l 0.640625,-3 C 4.0625,-4.390625 3.546875,-4.5 3.1875,-4.5 Z M 2.625,-3.953125 c 0.140625,0 0.28125,0.046875 0.359375,0.125 l -0.1875,1 c -0.203125,1 -0.71875,2.015625 -1.0625,2.015625 -0.21875,0 -0.359375,-0.234375 -0.359375,-0.71875 0,-1.1875 0.578125,-2.421875 1.25,-2.421875 z m 0,0"
               style="fill:#3d677b;stroke:none" />
          </g>
        </g>
      </g>
    </g>
    <g
       id="g6878"
       style="fill:#ffffff;stroke:#a6a7a3"
       transform="matrix(1.0076659,0,0,1,-0.36150507,0)">
      <path
         style="fill:#ffffff;stroke:#a6a7a3;stroke-width:0.264583;stroke-linecap:butt;stroke-linejoin:miter;stroke-miterlimit:4;stroke-dasharray:none;stroke-opacity:1"
         d="m 43.556688,135.75667 c 3.89275,1.52873 3.679699,5.12781 3.542884,5.80589"
         id="path5054"
         sodipodi:nodetypes="cc" />
      <path
         id="path6874"
         d="m 43.556687,135.75667 -3.029056,5.82488 6.57194,-0.019"
         style="fill:#ffffff;stroke:#a6a7a3;stroke-width:0.264583px;stroke-linecap:butt;stroke-linejoin:miter;stroke-opacity:1" />
    </g>
    <path
       style="fill:none;stroke:#3d677b;stroke-width:0.529167;stroke-linecap:butt;stroke-linejoin:miter;stroke-miterlimit:4;stroke-dasharray:none;stroke-opacity:1;marker-end:url(#marker7610)"
       d="m 40.476808,141.58155 8.568689,-16.70579"
       id="path5000-2"
       sodipodi:nodetypes="cc" />
    <path
       style="fill:none;stroke:#9a4832;stroke-width:0.264583;stroke-linecap:butt;stroke-linejoin:miter;stroke-miterlimit:4;stroke-dasharray:none;stroke-opacity:1;marker-start:url(#Arrow1Sstart);marker-end:url(#marker7738)"
       d="M 52.633183,140.92072 V 124.75043"
       id="path6778" />
    <g
       transform="matrix(0.42333399,0,0,0.42333399,43.495211,138.31366)"
       ns1:version="1.1.0"
       ns1:texconverter="pdflatex"
       ns1:pdfconverter="inkscape"
       ns1:text="$\\alpha$"
       ns1:preamble="C:\\Users\\flvisa\\Desktop\\lna\\latexify_books\\textext_preamble.tex"
       ns1:scale="1.1999999716535878"
       ns1:alignment="middle center"
       ns1:inkscapeversion="1.0"
       ns1:jacobian_sqrt="0.423334"
       id="g5322"
       style="fill:#a6a7a3">
      <defs
         id="id-9c54d3f2-1d94-4f52-a44b-9487aca956df">
        <g
           id="g6434">
          <symbol
             id="symbol6428"
             overflow="visible">
            <path
               id="path6426"
               d=""
               style="stroke:none" />
          </symbol>
          <symbol
             id="symbol6432"
             overflow="visible">
            <path
               id="path6430"
               d="m 2.34375,-4.40625 c -1.0625,0 -2.171875,2.1875 -2.171875,3.390625 0,0.75 0.34375,1.078125 0.890625,1.078125 0.546875,0 1.15625,-0.59375 1.6875,-1.265625 -0.03125,0.1875 -0.046875,0.375 -0.046875,0.53125 0,0.40625 0.140625,0.71875 0.453125,0.71875 0.4375,0 0.78125,-0.546875 0.84375,-0.75 0.015625,-0.03125 -0.015625,-0.1875 -0.046875,-0.21875 -0.140625,0.140625 -0.296875,0.25 -0.515625,0.25 -0.15625,0 -0.359375,-0.078125 -0.359375,-0.53125 0,-0.15625 0.015625,-0.390625 0.109375,-0.6875 l 0.484375,-0.78125 c 0.25,-0.3125 0.5625,-0.921875 0.5625,-1.21875 0,-0.28125 -0.203125,-0.5 -0.328125,-0.5 -0.15625,0 -0.53125,0.9375 -0.78125,1.65625 l -0.25,0.4375 c 0.015625,-0.171875 0.03125,-0.515625 0.03125,-0.71875 0,-0.765625 -0.1875,-1.390625 -0.5625,-1.390625 z m -1.703125,3.625 c 0,-1.03125 1.03125,-2.921875 1.625,-2.921875 0.234375,0 0.3125,0.34375 0.3125,0.796875 v 0.0625 c 0,0.46875 -0.09375,0.984375 -0.25,1.328125 -0.5,0.71875 -1.015625,1.21875 -1.375,1.21875 -0.1875,0 -0.3125,-0.125 -0.3125,-0.484375 z m 0,0"
               style="stroke:none" />
          </symbol>
        </g>
      </defs>
      <g
         transform="translate(-149.153,-130.359)"
         id="id-3f7d8940-7c9e-49c9-b55b-6e0d63ad88e8"
         style="fill:#a6a7a3">
        <g
           id="id-1adf483c-53db-47b6-9066-a0250fdce2e3"
           style="fill:#a6a7a3;fill-opacity:1">
          <g
             transform="translate(148.981,134.765)"
             id="g5318"
             style="fill:#a6a7a3">
            <path
               id="id-9c9a8e87-830f-4369-b1b7-d908b0d364a7"
               d="m 2.34375,-4.40625 c -1.0625,0 -2.171875,2.1875 -2.171875,3.390625 0,0.75 0.34375,1.078125 0.890625,1.078125 0.546875,0 1.15625,-0.59375 1.6875,-1.265625 -0.03125,0.1875 -0.046875,0.375 -0.046875,0.53125 0,0.40625 0.140625,0.71875 0.453125,0.71875 0.4375,0 0.78125,-0.546875 0.84375,-0.75 0.015625,-0.03125 -0.015625,-0.1875 -0.046875,-0.21875 -0.140625,0.140625 -0.296875,0.25 -0.515625,0.25 -0.15625,0 -0.359375,-0.078125 -0.359375,-0.53125 0,-0.15625 0.015625,-0.390625 0.109375,-0.6875 l 0.484375,-0.78125 c 0.25,-0.3125 0.5625,-0.921875 0.5625,-1.21875 0,-0.28125 -0.203125,-0.5 -0.328125,-0.5 -0.15625,0 -0.53125,0.9375 -0.78125,1.65625 l -0.25,0.4375 c 0.015625,-0.171875 0.03125,-0.515625 0.03125,-0.71875 0,-0.765625 -0.1875,-1.390625 -0.5625,-1.390625 z m -1.703125,3.625 c 0,-1.03125 1.03125,-2.921875 1.625,-2.921875 0.234375,0 0.3125,0.34375 0.3125,0.796875 v 0.0625 c 0,0.46875 -0.09375,0.984375 -0.25,1.328125 -0.5,0.71875 -1.015625,1.21875 -1.375,1.21875 -0.1875,0 -0.3125,-0.125 -0.3125,-0.484375 z m 0,0"
               style="fill:#a6a7a3;stroke:none" />
          </g>
        </g>
      </g>
    </g>
    <path
       style="fill:none;stroke:#c28f48;stroke-width:0.529167;stroke-linecap:butt;stroke-linejoin:miter;stroke-miterlimit:4;stroke-dasharray:none;stroke-opacity:1;marker-end:url(#marker7620)"
       d="m 40.527631,141.58155 23.733545,-0.0177"
       id="path5016-2"
       sodipodi:nodetypes="cc" />
    <circle
       id="circle7695"
       stroke-width="0.0372099"
       stroke="#000000"
       fill="#ffffff"
       r="0.97675949"
       cy="141.60872"
       cx="40.655483"
       style="stroke-width:0.176389;stroke-miterlimit:4;stroke-dasharray:none" />
    <path
       style="fill:none;stroke:#000000;stroke-width:0.264583px;stroke-linecap:butt;stroke-linejoin:miter;stroke-opacity:1"
       d="m 39.850784,140.92245 1.453277,1.31965"
       id="path7748" />
    <path
       style="fill:none;stroke:#000000;stroke-width:0.264583px;stroke-linecap:butt;stroke-linejoin:miter;stroke-opacity:1"
       d="m 41.320767,140.92245 -1.311291,1.31129"
       id="path7750" />
    <g
       transform="matrix(0.423334,0,0,0.423334,53.5434,130.863)"
       ns1:version="1.1.0"
       ns1:texconverter="pdflatex"
       ns1:pdfconverter="inkscape"
       ns1:text="$a\\,\\sin\\alpha$"
       ns1:preamble="C:\\Users\\flvisa\\Desktop\\lna\\latexify_books\\textext_preamble.tex"
       ns1:scale="1.1999999716535878"
       ns1:alignment="middle center"
       ns1:inkscapeversion="1.0"
       ns1:jacobian_sqrt="0.423334"
       id="g1133"
       style="fill:#9a4832">
      <defs
         id="id-ab474ff7-b7ab-456e-9768-3f49a5c56133">
        <g
           id="id-8e7b11b8-966a-448a-b1ef-ec3c71671bae">
          <symbol
             id="id-9b7aa18f-46fa-4701-b181-bad945eadf66"
             overflow="visible">
            <path
               id="id-1a41c400-4d30-4b3d-921e-fa94f3b85ffb"
               d=""
               style="stroke:none" />
          </symbol>
          <symbol
             id="id-04e79ff9-a5ae-4a88-8fdf-80a18f0ea26d"
             overflow="visible">
            <path
               id="id-bda62558-eba2-4e45-b672-cd9666cf09a7"
               d="m 3.078125,-4.390625 c -1.21875,0 -2.890625,1.5 -2.890625,3.25 0,0.71875 0.34375,1.1875 0.90625,1.1875 0.578125,0 1.28125,-1 1.484375,-1.359375 -0.03125,0.140625 -0.125,0.75 -0.125,0.84375 0,0.296875 0.125,0.53125 0.34375,0.53125 0.484375,0 1.203125,-0.765625 1.3125,-0.953125 0,-0.0625 -0.0625,-0.171875 -0.09375,-0.171875 C 3.984375,-1.03125 3.53125,-0.5 3.3125,-0.5 3.234375,-0.5 3.203125,-0.59375 3.203125,-0.71875 3.203125,-0.84375 3.234375,-1 3.25,-1.0625 L 3.875,-4.25 C 3.671875,-4.328125 3.421875,-4.390625 3.078125,-4.390625 Z m -0.46875,0.40625 c 0.125,0 0.375,0.046875 0.46875,0.140625 l -0.21875,1.078125 c -0.1875,0.96875 -0.890625,2.234375 -1.40625,2.234375 -0.34375,0 -0.515625,-0.359375 -0.515625,-1 0,-1.15625 0.890625,-2.453125 1.671875,-2.453125 z m 0,0"
               style="stroke:none" />
          </symbol>
          <symbol
             id="id-62c256cc-c0d6-4362-99ee-712b4a64679d"
             overflow="visible">
            <path
               id="id-967223e5-6d2e-4345-8246-347839b6f4be"
               d="m 2.34375,-4.40625 c -1.0625,0 -2.171875,2.1875 -2.171875,3.390625 0,0.75 0.34375,1.078125 0.890625,1.078125 0.546875,0 1.15625,-0.59375 1.6875,-1.265625 -0.03125,0.1875 -0.046875,0.375 -0.046875,0.53125 0,0.40625 0.140625,0.71875 0.453125,0.71875 0.4375,0 0.78125,-0.546875 0.84375,-0.75 0.015625,-0.03125 -0.015625,-0.1875 -0.046875,-0.21875 -0.140625,0.140625 -0.296875,0.25 -0.515625,0.25 -0.15625,0 -0.359375,-0.078125 -0.359375,-0.53125 0,-0.15625 0.015625,-0.390625 0.109375,-0.6875 l 0.484375,-0.78125 c 0.25,-0.3125 0.5625,-0.921875 0.5625,-1.21875 0,-0.28125 -0.203125,-0.5 -0.328125,-0.5 -0.15625,0 -0.53125,0.9375 -0.78125,1.65625 l -0.25,0.4375 c 0.015625,-0.171875 0.03125,-0.515625 0.03125,-0.71875 0,-0.765625 -0.1875,-1.390625 -0.5625,-1.390625 z m -1.703125,3.625 c 0,-1.03125 1.03125,-2.921875 1.625,-2.921875 0.234375,0 0.3125,0.34375 0.3125,0.796875 v 0.0625 c 0,0.46875 -0.09375,0.984375 -0.25,1.328125 -0.5,0.71875 -1.015625,1.21875 -1.375,1.21875 -0.1875,0 -0.3125,-0.125 -0.3125,-0.484375 z m 0,0"
               style="stroke:none" />
          </symbol>
          <symbol
             id="id-a042ba48-1bc1-42ac-9b68-904d15479e5b"
             overflow="visible">
            <path
               id="id-64f63c75-7c79-4e45-b5f7-29294b078521"
               d="M 0.5,0 H 4.484375 V -4.8125 H 0.5 Z M 1,-0.5 V -4.3125 H 3.984375 V -0.5 Z m 0,0"
               style="stroke:none" />
          </symbol>
          <symbol
             id="id-296a5c88-b49d-41f6-a56e-ff18a1ee150a"
             overflow="visible">
            <path
               id="id-d1b551cf-87cb-4e3b-9a32-23af305dfa8f"
               d="M 1.921875,-4.359375 C 1.203125,-4.359375 0.5,-3.875 0.5,-3.140625 c 0,0.53125 0.34375,0.84375 0.75,1.078125 0.578125,0.328125 1.203125,0.53125 1.203125,1.140625 0,0.453125 -0.3125,0.71875 -0.703125,0.71875 -0.53125,0 -0.96875,-0.53125 -1.078125,-0.9375 -0.03125,-0.03125 -0.046875,-0.03125 -0.078125,-0.03125 -0.0625,0 -0.140625,0.03125 -0.1875,0.0625 0,0.25 0.09375,0.8125 0.171875,1.03125 C 1,0 1.28125,0.109375 1.71875,0.109375 c 0.796875,0 1.515625,-0.5625 1.515625,-1.375 0,-0.640625 -0.6875,-0.953125 -1.125,-1.21875 C 1.671875,-2.75 1.25,-2.90625 1.25,-3.421875 c 0,-0.359375 0.21875,-0.625 0.6875,-0.625 0.4375,0 0.75,0.53125 0.84375,0.90625 0.046875,0.046875 0.125,0.0625 0.171875,0.0625 0.046875,0 0.09375,-0.015625 0.09375,-0.0625 0,-0.34375 -0.046875,-0.78125 -0.109375,-1.09375 -0.4375,-0.046875 -0.640625,-0.125 -1.015625,-0.125 z m 0,0"
               style="stroke:none" />
          </symbol>
          <symbol
             id="id-7e322cf3-00c9-44d8-8529-085f502764b8"
             overflow="visible">
            <path
               id="id-195f02ed-3bea-45db-956b-cb7c12945974"
               d="m 0.84375,-5.765625 c 0,0.265625 0.21875,0.484375 0.484375,0.484375 0.28125,0 0.5,-0.21875 0.5,-0.484375 0,-0.28125 -0.21875,-0.5 -0.5,-0.5 -0.265625,0 -0.484375,0.21875 -0.484375,0.5 z m 0.9375,2.609375 v -0.328125 c 0,-0.109375 0.0625,-0.578125 0.078125,-0.640625 0,-0.046875 -0.0625,-0.15625 -0.109375,-0.15625 -0.390625,0.203125 -0.90625,0.328125 -1.40625,0.40625 v 0.25 c 0.0625,0 0.578125,0 0.640625,0.171875 0.046875,0.125 0.046875,0.375 0.046875,0.515625 v 1.8125 c 0,0.28125 0,0.5625 -0.046875,0.71875 -0.03125,0.109375 -0.5,0.15625 -0.625,0.15625 V 0.03125 C 0.75,0.015625 1.03125,-0.015625 1.40625,-0.015625 c 0.390625,0 0.640625,0.03125 1.046875,0.046875 V -0.25 c -0.125,0 -0.59375,-0.046875 -0.625,-0.15625 C 1.78125,-0.5625 1.78125,-0.84375 1.78125,-1.125 Z m 0,0"
               style="stroke:none" />
          </symbol>
          <symbol
             id="id-ff375b53-ec7d-4819-8c98-9ef12cb4875b"
             overflow="visible">
            <path
               id="id-2c3c7d31-a015-4acc-a735-336302711144"
               d="m 3.1875,-4.359375 c -0.484375,0 -1.140625,0.5 -1.328125,0.703125 -0.015625,0.015625 -0.03125,0.03125 -0.03125,0.03125 -0.03125,0 -0.03125,-0.03125 -0.03125,-0.046875 0,-0.078125 0.0625,-0.484375 0.0625,-0.5625 0,-0.015625 -0.0625,-0.046875 -0.109375,-0.046875 -0.390625,0.15625 -0.90625,0.25 -1.40625,0.296875 v 0.265625 c 0.0625,0 0.578125,0 0.640625,0.1875 0.046875,0.109375 0.046875,0.421875 0.046875,0.546875 v 1.828125 c 0,0.296875 0,0.578125 -0.046875,0.75 -0.03125,0.109375 -0.5,0.15625 -0.625,0.15625 V 0.03125 C 0.75,0.015625 1.03125,-0.015625 1.40625,-0.015625 c 0.390625,0 0.640625,0.03125 1.0625,0.046875 V -0.25 c -0.125,0 -0.59375,-0.046875 -0.625,-0.15625 -0.0625,-0.171875 -0.0625,-0.453125 -0.0625,-0.75 v -2.078125 c 0,-0.109375 0.59375,-0.5625 0.953125,-0.5625 0.78125,0 0.96875,0.390625 0.96875,1.640625 v 1 c 0,0.296875 0,0.578125 -0.046875,0.75 C 3.625,-0.296875 3.15625,-0.25 3.03125,-0.25 V 0.03125 C 3.4375,0.015625 3.6875,-0.015625 4.078125,-0.015625 c 0.390625,0 0.65625,0.03125 1.0625,0.046875 V -0.25 C 5.015625,-0.25 4.53125,-0.296875 4.5,-0.40625 4.453125,-0.578125 4.453125,-0.84375 4.453125,-1.140625 V -2.25 C 4.453125,-3.703125 4.25,-4.359375 3.1875,-4.359375 Z m 0,0"
               style="stroke:none" />
          </symbol>
        </g>
      </defs>
      <g
         transform="translate(-149.1,-128.499)"
         id="id-6d278e7e-ee7a-4ff6-a980-36838e726e7e"
         style="fill:#9a4832">
        <g
           id="id-b65fda29-8dd8-460c-812d-34b77c9dd207"
           style="fill:#9a4832;fill-opacity:1">
          <g
             transform="translate(148.912,134.765)"
             id="g1115"
             style="fill:#9a4832">
            <path
               id="id-4ff0f627-ea23-4169-a1c1-cfc9a473ac55"
               d="m 3.078125,-4.390625 c -1.21875,0 -2.890625,1.5 -2.890625,3.25 0,0.71875 0.34375,1.1875 0.90625,1.1875 0.578125,0 1.28125,-1 1.484375,-1.359375 -0.03125,0.140625 -0.125,0.75 -0.125,0.84375 0,0.296875 0.125,0.53125 0.34375,0.53125 0.484375,0 1.203125,-0.765625 1.3125,-0.953125 0,-0.0625 -0.0625,-0.171875 -0.09375,-0.171875 C 3.984375,-1.03125 3.53125,-0.5 3.3125,-0.5 3.234375,-0.5 3.203125,-0.59375 3.203125,-0.71875 3.203125,-0.84375 3.234375,-1 3.25,-1.0625 L 3.875,-4.25 C 3.671875,-4.328125 3.421875,-4.390625 3.078125,-4.390625 Z m -0.46875,0.40625 c 0.125,0 0.375,0.046875 0.46875,0.140625 l -0.21875,1.078125 c -0.1875,0.96875 -0.890625,2.234375 -1.40625,2.234375 -0.34375,0 -0.515625,-0.359375 -0.515625,-1 0,-1.15625 0.890625,-2.453125 1.671875,-2.453125 z m 0,0"
               style="fill:#9a4832;stroke:none" />
          </g>
        </g>
        <g
           id="id-0f0e9d26-a8eb-4f4d-bb78-09df579836e0"
           style="fill:#9a4832;fill-opacity:1">
          <g
             transform="translate(156.745,134.765)"
             id="g1119"
             style="fill:#9a4832">
            <path
               id="id-e9aa24d9-d13d-4f19-af2c-bdd1f44ec138"
               d="M 1.921875,-4.359375 C 1.203125,-4.359375 0.5,-3.875 0.5,-3.140625 c 0,0.53125 0.34375,0.84375 0.75,1.078125 0.578125,0.328125 1.203125,0.53125 1.203125,1.140625 0,0.453125 -0.3125,0.71875 -0.703125,0.71875 -0.53125,0 -0.96875,-0.53125 -1.078125,-0.9375 -0.03125,-0.03125 -0.046875,-0.03125 -0.078125,-0.03125 -0.0625,0 -0.140625,0.03125 -0.1875,0.0625 0,0.25 0.09375,0.8125 0.171875,1.03125 C 1,0 1.28125,0.109375 1.71875,0.109375 c 0.796875,0 1.515625,-0.5625 1.515625,-1.375 0,-0.640625 -0.6875,-0.953125 -1.125,-1.21875 C 1.671875,-2.75 1.25,-2.90625 1.25,-3.421875 c 0,-0.359375 0.21875,-0.625 0.6875,-0.625 0.4375,0 0.75,0.53125 0.84375,0.90625 0.046875,0.046875 0.125,0.0625 0.171875,0.0625 0.046875,0 0.09375,-0.015625 0.09375,-0.0625 0,-0.34375 -0.046875,-0.78125 -0.109375,-1.09375 -0.4375,-0.046875 -0.640625,-0.125 -1.015625,-0.125 z m 0,0"
               style="fill:#9a4832;stroke:none" />
          </g>
          <g
             transform="translate(160.351,134.765)"
             id="g1122"
             style="fill:#9a4832">
            <path
               id="id-3ab285d7-987b-4316-8405-a5f7505ba664"
               d="m 0.84375,-5.765625 c 0,0.265625 0.21875,0.484375 0.484375,0.484375 0.28125,0 0.5,-0.21875 0.5,-0.484375 0,-0.28125 -0.21875,-0.5 -0.5,-0.5 -0.265625,0 -0.484375,0.21875 -0.484375,0.5 z m 0.9375,2.609375 v -0.328125 c 0,-0.109375 0.0625,-0.578125 0.078125,-0.640625 0,-0.046875 -0.0625,-0.15625 -0.109375,-0.15625 -0.390625,0.203125 -0.90625,0.328125 -1.40625,0.40625 v 0.25 c 0.0625,0 0.578125,0 0.640625,0.171875 0.046875,0.125 0.046875,0.375 0.046875,0.515625 v 1.8125 c 0,0.28125 0,0.5625 -0.046875,0.71875 -0.03125,0.109375 -0.5,0.15625 -0.625,0.15625 V 0.03125 C 0.75,0.015625 1.03125,-0.015625 1.40625,-0.015625 c 0.390625,0 0.640625,0.03125 1.046875,0.046875 V -0.25 c -0.125,0 -0.59375,-0.046875 -0.625,-0.15625 C 1.78125,-0.5625 1.78125,-0.84375 1.78125,-1.125 Z m 0,0"
               style="fill:#9a4832;stroke:none" />
          </g>
          <g
             transform="translate(162.992,134.765)"
             id="g1125"
             style="fill:#9a4832">
            <path
               id="id-198a1758-4968-482f-9089-d33fdea52ee1"
               d="m 3.1875,-4.359375 c -0.484375,0 -1.140625,0.5 -1.328125,0.703125 -0.015625,0.015625 -0.03125,0.03125 -0.03125,0.03125 -0.03125,0 -0.03125,-0.03125 -0.03125,-0.046875 0,-0.078125 0.0625,-0.484375 0.0625,-0.5625 0,-0.015625 -0.0625,-0.046875 -0.109375,-0.046875 -0.390625,0.15625 -0.90625,0.25 -1.40625,0.296875 v 0.265625 c 0.0625,0 0.578125,0 0.640625,0.1875 0.046875,0.109375 0.046875,0.421875 0.046875,0.546875 v 1.828125 c 0,0.296875 0,0.578125 -0.046875,0.75 -0.03125,0.109375 -0.5,0.15625 -0.625,0.15625 V 0.03125 C 0.75,0.015625 1.03125,-0.015625 1.40625,-0.015625 c 0.390625,0 0.640625,0.03125 1.0625,0.046875 V -0.25 c -0.125,0 -0.59375,-0.046875 -0.625,-0.15625 -0.0625,-0.171875 -0.0625,-0.453125 -0.0625,-0.75 v -2.078125 c 0,-0.109375 0.59375,-0.5625 0.953125,-0.5625 0.78125,0 0.96875,0.390625 0.96875,1.640625 v 1 c 0,0.296875 0,0.578125 -0.046875,0.75 C 3.625,-0.296875 3.15625,-0.25 3.03125,-0.25 V 0.03125 C 3.4375,0.015625 3.6875,-0.015625 4.078125,-0.015625 c 0.390625,0 0.65625,0.03125 1.0625,0.046875 V -0.25 C 5.015625,-0.25 4.53125,-0.296875 4.5,-0.40625 4.453125,-0.578125 4.453125,-0.84375 4.453125,-1.140625 V -2.25 C 4.453125,-3.703125 4.25,-4.359375 3.1875,-4.359375 Z m 0,0"
               style="fill:#9a4832;stroke:none" />
          </g>
        </g>
        <g
           id="id-0851aa90-87ce-498c-8f52-53d3a1157ad0"
           style="fill:#9a4832;fill-opacity:1">
          <g
             transform="translate(170.162,134.765)"
             id="g1129"
             style="fill:#9a4832">
            <path
               id="id-ce550c6a-1d7b-47c8-bdb2-80985559ec91"
               d="m 2.34375,-4.40625 c -1.0625,0 -2.171875,2.1875 -2.171875,3.390625 0,0.75 0.34375,1.078125 0.890625,1.078125 0.546875,0 1.15625,-0.59375 1.6875,-1.265625 -0.03125,0.1875 -0.046875,0.375 -0.046875,0.53125 0,0.40625 0.140625,0.71875 0.453125,0.71875 0.4375,0 0.78125,-0.546875 0.84375,-0.75 0.015625,-0.03125 -0.015625,-0.1875 -0.046875,-0.21875 -0.140625,0.140625 -0.296875,0.25 -0.515625,0.25 -0.15625,0 -0.359375,-0.078125 -0.359375,-0.53125 0,-0.15625 0.015625,-0.390625 0.109375,-0.6875 l 0.484375,-0.78125 c 0.25,-0.3125 0.5625,-0.921875 0.5625,-1.21875 0,-0.28125 -0.203125,-0.5 -0.328125,-0.5 -0.15625,0 -0.53125,0.9375 -0.78125,1.65625 l -0.25,0.4375 c 0.015625,-0.171875 0.03125,-0.515625 0.03125,-0.71875 0,-0.765625 -0.1875,-1.390625 -0.5625,-1.390625 z m -1.703125,3.625 c 0,-1.03125 1.03125,-2.921875 1.625,-2.921875 0.234375,0 0.3125,0.34375 0.3125,0.796875 v 0.0625 c 0,0.46875 -0.09375,0.984375 -0.25,1.328125 -0.5,0.71875 -1.015625,1.21875 -1.375,1.21875 -0.1875,0 -0.3125,-0.125 -0.3125,-0.484375 z m 0,0"
               style="fill:#9a4832;stroke:none" />
          </g>
        </g>
      </g>
    </g>
    <g
       id="g8084"
       ns1:jacobian_sqrt="0.423334"
       ns1:inkscapeversion="1.0"
       ns1:alignment="middle center"
       ns1:scale="1.1999999716535878"
       ns1:preamble="C:\\Users\\flvisa\\Desktop\\lna\\latexify_books\\textext_preamble.tex"
       ns1:text="$\\hat{\\boldsymbol{n}}$"
       ns1:pdfconverter="inkscape"
       ns1:texconverter="pdflatex"
       ns1:version="1.1.0"
       transform="matrix(0.423334,0,0,0.423334,36.7472,139.82183)"
       style="fill:#000000">
      <defs
         id="id-93969d22-5516-4b1b-a566-4115f230af02">
        <g
           id="id-94dbb745-0fc2-4aea-b19c-65fbf20a4acd">
          <symbol
             overflow="visible"
             id="id-2e864942-b9f0-42a3-af26-4018266ee9e2">
            <path
               style="stroke:none"
               d="M 0.5,0 H 4.484375 V -4.8125 H 0.5 Z M 1,-0.5 V -4.3125 H 3.984375 V -0.5 Z m 0,0"
               id="id-3b4c5f1e-0ed4-4585-86df-ee273dbe4fab" />
          </symbol>
          <symbol
             overflow="visible"
             id="id-b2baa50f-b634-4f98-b600-f5b33a786749">
            <path
               style="stroke:none"
               d="m 1.5,-6.546875 c -0.03125,0 -0.078125,0.046875 -0.109375,0.09375 C 1.0625,-5.90625 0.875,-5.65625 0.484375,-5.15625 c 0,0.0625 0.046875,0.125 0.109375,0.125 0.328125,-0.265625 0.90625,-0.75 0.90625,-0.75 0,0 0.546875,0.453125 0.921875,0.75 0.046875,0 0.109375,-0.0625 0.109375,-0.125 -0.375,-0.5 -0.59375,-0.75 -0.921875,-1.296875 C 1.578125,-6.5 1.546875,-6.546875 1.5,-6.546875 Z m 0,0"
               id="id-9903b73c-5477-4a7c-9f0c-ede224bb45a5" />
          </symbol>
          <symbol
             overflow="visible"
             id="id-36838d52-69be-4c99-b8fa-885c6d7a4f19">
            <path
               style="stroke:none"
               d=""
               id="id-0632e4a8-e486-4986-abd0-d932fe00ec76" />
          </symbol>
          <symbol
             overflow="visible"
             id="id-38dd08fd-3d87-455f-998d-462697fdcaf5">
            <path
               style="stroke:none"
               d="M 2.25,-3.1875 C 2.265625,-3.296875 2.328125,-3.65625 2.328125,-3.78125 2.328125,-4.25 2.0625,-4.5 1.671875,-4.5 c -0.546875,0 -1.390625,0.875 -1.5625,1.203125 0,0.0625 0.0625,0.265625 0.140625,0.265625 0.03125,-0.0625 0.5,-0.59375 0.71875,-0.59375 0.09375,0 0.140625,0.109375 0.140625,0.203125 0,0.046875 -0.03125,0.28125 -0.046875,0.328125 L 0.46875,0 C 0.59375,0.03125 0.953125,0.0625 1.0625,0.0625 1.171875,0.0625 1.53125,0.03125 1.625,0 L 1.828125,-0.921875 C 2.109375,-2.1875 2.890625,-3.40625 3.1875,-3.40625 c 0.109375,0 0.15625,0.109375 0.15625,0.21875 0,0.09375 -0.09375,0.640625 -0.125,0.765625 l -0.234375,1.1875 C 2.96875,-1.15625 2.90625,-0.765625 2.90625,-0.625 c 0,0.5 0.296875,0.703125 0.625,0.703125 0.53125,0 1.421875,-0.890625 1.59375,-1.203125 0,-0.0625 -0.078125,-0.265625 -0.140625,-0.265625 C 4.953125,-1.328125 4.5,-0.78125 4.28125,-0.78125 4.171875,-0.78125 4.125,-0.90625 4.125,-1 c 0,-0.046875 0.03125,-0.28125 0.046875,-0.328125 l 0.1875,-1 C 4.421875,-2.59375 4.5625,-3.296875 4.5625,-3.625 4.5625,-4.203125 4.390625,-4.5 3.84375,-4.5 c -0.5,0 -1.40625,1.078125 -1.703125,1.75 0,0 0.078125,-0.328125 0.109375,-0.4375 z m 0,0"
               id="id-4919ffdc-a98d-4e0b-8c9e-d0b9bfb3145f" />
          </symbol>
        </g>
      </defs>
      <g
         id="id-f9591a25-7c21-4355-8ee7-9eaf21d3afa6"
         transform="translate(-148.921,-127.954)"
         style="fill:#000000">
        <g
           style="fill:#000000;fill-opacity:1"
           id="id-86b3e95b-6d5e-48a5-b56e-9cbd0366034d">
          <g
             id="g8076"
             transform="translate(149.938,134.501)"
             style="fill:#000000">
            <path
               style="fill:#000000;stroke:none"
               d="m 1.5,-6.546875 c -0.03125,0 -0.078125,0.046875 -0.109375,0.09375 C 1.0625,-5.90625 0.875,-5.65625 0.484375,-5.15625 c 0,0.0625 0.046875,0.125 0.109375,0.125 0.328125,-0.265625 0.90625,-0.75 0.90625,-0.75 0,0 0.546875,0.453125 0.921875,0.75 0.046875,0 0.109375,-0.0625 0.109375,-0.125 -0.375,-0.5 -0.59375,-0.75 -0.921875,-1.296875 C 1.578125,-6.5 1.546875,-6.546875 1.5,-6.546875 Z m 0,0"
               id="id-ccf86889-73cc-40b7-8861-e50249bc90f4" />
          </g>
        </g>
        <g
           style="fill:#000000;fill-opacity:1"
           id="id-e7abb755-0a11-482f-9ec9-be8ec803b327">
          <g
             id="g8080"
             transform="translate(148.812,134.765)"
             style="fill:#000000">
            <path
               style="fill:#000000;stroke:none"
               d="M 2.25,-3.1875 C 2.265625,-3.296875 2.328125,-3.65625 2.328125,-3.78125 2.328125,-4.25 2.0625,-4.5 1.671875,-4.5 c -0.546875,0 -1.390625,0.875 -1.5625,1.203125 0,0.0625 0.0625,0.265625 0.140625,0.265625 0.03125,-0.0625 0.5,-0.59375 0.71875,-0.59375 0.09375,0 0.140625,0.109375 0.140625,0.203125 0,0.046875 -0.03125,0.28125 -0.046875,0.328125 L 0.46875,0 C 0.59375,0.03125 0.953125,0.0625 1.0625,0.0625 1.171875,0.0625 1.53125,0.03125 1.625,0 L 1.828125,-0.921875 C 2.109375,-2.1875 2.890625,-3.40625 3.1875,-3.40625 c 0.109375,0 0.15625,0.109375 0.15625,0.21875 0,0.09375 -0.09375,0.640625 -0.125,0.765625 l -0.234375,1.1875 C 2.96875,-1.15625 2.90625,-0.765625 2.90625,-0.625 c 0,0.5 0.296875,0.703125 0.625,0.703125 0.53125,0 1.421875,-0.890625 1.59375,-1.203125 0,-0.0625 -0.078125,-0.265625 -0.140625,-0.265625 C 4.953125,-1.328125 4.5,-0.78125 4.28125,-0.78125 4.171875,-0.78125 4.125,-0.90625 4.125,-1 c 0,-0.046875 0.03125,-0.28125 0.046875,-0.328125 l 0.1875,-1 C 4.421875,-2.59375 4.5625,-3.296875 4.5625,-3.625 4.5625,-4.203125 4.390625,-4.5 3.84375,-4.5 c -0.5,0 -1.40625,1.078125 -1.703125,1.75 0,0 0.078125,-0.328125 0.109375,-0.4375 z m 0,0"
               id="id-08fe7b31-d524-4975-931e-5796ae04d25b" />
          </g>
        </g>
      </g>
    </g>
  </g>
</svg>
