<?xml version="1.0" encoding="UTF-8" standalone="no"?>
<svg
   xmlns:ns1="http://www.iki.fi/pav/software/textext/"
   xmlns:dc="http://purl.org/dc/elements/1.1/"
   xmlns:cc="http://creativecommons.org/ns#"
   xmlns:rdf="http://www.w3.org/1999/02/22-rdf-syntax-ns#"
   xmlns:svg="http://www.w3.org/2000/svg"
   xmlns="http://www.w3.org/2000/svg"
   xmlns:sodipodi="http://sodipodi.sourceforge.net/DTD/sodipodi-0.dtd"
   xmlns:inkscape="http://www.inkscape.org/namespaces/inkscape"
   width="35.48164mm"
   height="35.174259mm"
   viewBox="0 0 35.48164 35.174259"
   version="1.1"
   id="svg8"
   inkscape:version="1.0 (4035a4fb49, 2020-05-01)"
   sodipodi:docname="fig_1_17.svg">
  <defs
     id="defs2">
    <marker
       inkscape:stockid="Arrow1Send"
       orient="auto"
       refY="0"
       refX="0"
       id="marker9814"
       style="overflow:visible"
       inkscape:isstock="true">
      <path
         id="path9812"
         d="M 0,0 5,-5 -12.5,0 5,5 Z"
         style="fill:#3d677b;fill-opacity:1;fill-rule:evenodd;stroke:#3d677b;stroke-width:1pt;stroke-opacity:1"
         transform="matrix(-0.2,0,0,-0.2,-1.2,0)" />
    </marker>
    <marker
       inkscape:stockid="Arrow1Send"
       orient="auto"
       refY="0"
       refX="0"
       id="marker9804"
       style="overflow:visible"
       inkscape:isstock="true">
      <path
         id="path9802"
         d="M 0,0 5,-5 -12.5,0 5,5 Z"
         style="fill:#3d677b;fill-opacity:1;fill-rule:evenodd;stroke:#3d677b;stroke-width:1pt;stroke-opacity:1"
         transform="matrix(-0.2,0,0,-0.2,-1.2,0)" />
    </marker>
    <marker
       inkscape:stockid="Arrow1Send"
       orient="auto"
       refY="0"
       refX="0"
       id="marker9794"
       style="overflow:visible"
       inkscape:isstock="true">
      <path
         id="path9792"
         d="M 0,0 5,-5 -12.5,0 5,5 Z"
         style="fill:#3d677b;fill-opacity:1;fill-rule:evenodd;stroke:#3d677b;stroke-width:1pt;stroke-opacity:1"
         transform="matrix(-0.2,0,0,-0.2,-1.2,0)" />
    </marker>
    <marker
       inkscape:stockid="Arrow1Sstart"
       orient="auto"
       refY="0"
       refX="0"
       id="marker9722"
       style="overflow:visible"
       inkscape:isstock="true">
      <path
         id="path9720"
         d="M 0,0 5,-5 -12.5,0 5,5 Z"
         style="fill:#000000;fill-opacity:1;fill-rule:evenodd;stroke:#000000;stroke-width:1pt;stroke-opacity:1"
         transform="matrix(0.2,0,0,0.2,1.2,0)" />
    </marker>
    <marker
       inkscape:stockid="Arrow1Sstart"
       orient="auto"
       refY="0"
       refX="0"
       id="marker9712"
       style="overflow:visible"
       inkscape:isstock="true">
      <path
         id="path9710"
         d="M 0,0 5,-5 -12.5,0 5,5 Z"
         style="fill:#000000;fill-opacity:1;fill-rule:evenodd;stroke:#000000;stroke-width:1pt;stroke-opacity:1"
         transform="matrix(0.2,0,0,0.2,1.2,0)" />
    </marker>
    <marker
       inkscape:stockid="Arrow1Sstart"
       orient="auto"
       refY="0"
       refX="0"
       id="marker9702"
       style="overflow:visible"
       inkscape:isstock="true">
      <path
         id="path9700"
         d="M 0,0 5,-5 -12.5,0 5,5 Z"
         style="fill:#000000;fill-opacity:1;fill-rule:evenodd;stroke:#000000;stroke-width:1pt;stroke-opacity:1"
         transform="matrix(0.2,0,0,0.2,1.2,0)" />
    </marker>
    <marker
       inkscape:stockid="Arrow1Mend"
       orient="auto"
       refY="0"
       refX="0"
       id="Arrow1Mend"
       style="overflow:visible"
       inkscape:isstock="true">
      <path
         id="path857"
         d="M 0,0 5,-5 -12.5,0 5,5 Z"
         style="fill:#000000;fill-opacity:1;fill-rule:evenodd;stroke:#000000;stroke-width:1pt;stroke-opacity:1"
         transform="matrix(-0.4,0,0,-0.4,-4,0)" />
    </marker>
    <pattern
       y="0"
       x="0"
       height="6"
       width="6"
       patternUnits="userSpaceOnUse"
       id="EMFhbasepattern" />
    <marker
       inkscape:isstock="true"
       style="overflow:visible"
       id="Arrow1Mend-0"
       refX="0"
       refY="0"
       orient="auto"
       inkscape:stockid="Arrow1Mend">
      <path
         transform="matrix(-0.4,0,0,-0.4,-4,0)"
         style="fill:#000000;fill-opacity:1;fill-rule:evenodd;stroke:#000000;stroke-width:1pt;stroke-opacity:1"
         d="M 0,0 5,-5 -12.5,0 5,5 Z"
         id="path857-5" />
    </marker>
    <marker
       inkscape:stockid="Arrow1Mend"
       orient="auto"
       refY="0"
       refX="0"
       id="Arrow1Mend-0-4"
       style="overflow:visible"
       inkscape:isstock="true">
      <path
         id="path857-5-7"
         d="M 0,0 5,-5 -12.5,0 5,5 Z"
         style="fill:#000000;fill-opacity:1;fill-rule:evenodd;stroke:#000000;stroke-width:1pt;stroke-opacity:1"
         transform="matrix(-0.4,0,0,-0.4,-4,0)" />
    </marker>
    <g
       id="id-5f25a96c-656e-48cd-80d7-0801a287a3c3-6">
      <symbol
         id="id-b28496a5-6bfd-4d17-af9e-05cea2abbd84-6"
         overflow="visible">
        <path
           id="id-4c33a5cc-c1d0-4c26-b260-f12d85da9e67-2"
           d="M 0.5,0 H 4.484375 V -4.8125 H 0.5 Z M 1,-0.5 V -4.3125 H 3.984375 V -0.5 Z m 0,0"
           style="stroke:none" />
      </symbol>
      <symbol
         id="id-72c0ea69-5741-47c2-b0ea-677943e55704-7"
         overflow="visible">
        <path
           id="id-47c7cced-fe5f-448d-9d37-3c3c0a63d597-0"
           d="m 1.5,-6.546875 c -0.03125,0 -0.078125,0.046875 -0.109375,0.09375 C 1.0625,-5.90625 0.875,-5.65625 0.484375,-5.15625 c 0,0.0625 0.046875,0.125 0.109375,0.125 0.328125,-0.265625 0.90625,-0.75 0.90625,-0.75 0,0 0.546875,0.453125 0.921875,0.75 0.046875,0 0.109375,-0.0625 0.109375,-0.125 -0.375,-0.5 -0.59375,-0.75 -0.921875,-1.296875 C 1.578125,-6.5 1.546875,-6.546875 1.5,-6.546875 Z m 0,0"
           style="stroke:none" />
      </symbol>
      <symbol
         id="id-080179b9-4a82-440b-888f-b9bfcd9657f9-5"
         overflow="visible">
        <path
           id="id-227abe84-4153-40d9-9ecf-d730d89171dc-7"
           d=""
           style="stroke:none" />
      </symbol>
      <symbol
         id="id-f54f1821-8e86-4087-a126-4cfb6b0ece81-0"
         overflow="visible">
        <path
           id="id-9a78fec5-04cb-47a4-b7a5-008b598ecf2e-3"
           d="m 2.6875,-4.5 c -1.15625,0 -2.53125,1.609375 -2.53125,3.09375 0,0.9375 0.453125,1.46875 1.15625,1.46875 0.625,0 1.734375,-0.96875 1.875,-1.1875 0,-0.0625 -0.0625,-0.296875 -0.15625,-0.296875 -0.03125,0.03125 -0.5625,0.65625 -1.015625,0.65625 -0.5,0 -0.609375,-0.5 -0.609375,-0.875 0,-0.046875 0.015625,-0.21875 0.015625,-0.25 0.625,0 2.375,-0.65625 2.375,-1.6875 C 3.796875,-4.28125 3.203125,-4.5 2.6875,-4.5 Z M 1.453125,-2.265625 C 1.5,-2.765625 1.859375,-4.125 2.34375,-4.125 c 0.21875,0 0.265625,0.203125 0.265625,0.390625 0,0.734375 -0.765625,1.46875 -1.15625,1.46875 z m 0,0"
           style="stroke:none" />
      </symbol>
      <symbol
         id="id-76265986-9831-4a63-8f19-b44d1cc2c320-2"
         overflow="visible">
        <path
           id="id-a849959f-806e-4522-8205-81d63be7c8ba-5"
           d=""
           style="stroke:none" />
      </symbol>
      <symbol
         id="id-7d4c6b7b-c557-453f-bb3f-0d267c725217-0"
         overflow="visible">
        <path
           id="id-42a7cd5d-3b3c-4cab-ade9-52cd3988a8c9-7"
           d="m 1.6875,-2.4375 c 0.234375,0 0.4375,-0.140625 0.46875,-0.15625 C 2.140625,-2.5625 -0.078125,-0.25 -0.078125,-0.140625 -0.0625,-0.078125 -0.03125,-0.015625 0,0 c 0.15625,-0.078125 0.28125,-0.234375 0.5,-0.234375 0.15625,0 0.40625,0.03125 0.515625,0.078125 C 1.203125,-0.09375 1.4375,0 1.609375,0 1.953125,0 2.25,-0.609375 2.375,-0.875 2.375,-0.9375 2.359375,-1 2.28125,-1 2.25,-0.9375 2.046875,-0.515625 1.859375,-0.515625 1.75,-0.515625 1.609375,-0.578125 1.46875,-0.625 1.328125,-0.703125 1.171875,-0.75 1.015625,-0.75 c -0.15625,0 -0.3125,0.0625 -0.34375,0.078125 0.03125,-0.03125 2.125,-2.28125 2.125,-2.375 0,-0.0625 -0.03125,-0.125 -0.09375,-0.15625 -0.0625,0 -0.390625,0.234375 -0.65625,0.234375 -0.390625,0 -0.609375,-0.234375 -0.984375,-0.234375 -0.34375,0 -0.703125,0.75 -0.75,0.890625 0.015625,0.0625 0.046875,0.125 0.09375,0.125 0.046875,-0.078125 0.21875,-0.5 0.421875,-0.5 0.28125,0 0.546875,0.25 0.859375,0.25 z m 0,0"
           style="stroke:none" />
      </symbol>
    </g>
    <g
       id="id-f5ca25ab-2bcd-4a96-9890-9228317c25ef-2">
      <symbol
         id="id-471572ca-53cd-4d70-92c5-5944e1df70fb-1"
         overflow="visible">
        <path
           id="id-8c82a9b0-172b-4fe8-a9cd-b9db5b3c898d-0"
           d="M 0.5,0 H 4.484375 V -4.8125 H 0.5 Z M 1,-0.5 V -4.3125 H 3.984375 V -0.5 Z m 0,0"
           style="stroke:none" />
      </symbol>
      <symbol
         id="id-1350adce-4949-4318-a679-caff95f0727b-2"
         overflow="visible">
        <path
           id="id-d8051dd3-29f4-4abd-bee8-3ec201cb41a1-5"
           d="m 1.5,-6.546875 c -0.03125,0 -0.078125,0.046875 -0.109375,0.09375 C 1.0625,-5.90625 0.875,-5.65625 0.484375,-5.15625 c 0,0.0625 0.046875,0.125 0.109375,0.125 0.328125,-0.265625 0.90625,-0.75 0.90625,-0.75 0,0 0.546875,0.453125 0.921875,0.75 0.046875,0 0.109375,-0.0625 0.109375,-0.125 -0.375,-0.5 -0.59375,-0.75 -0.921875,-1.296875 C 1.578125,-6.5 1.546875,-6.546875 1.5,-6.546875 Z m 0,0"
           style="stroke:none" />
      </symbol>
      <symbol
         id="id-60b1e815-4e48-4cbb-8230-930fec31c7e4-3"
         overflow="visible">
        <path
           id="id-323aa536-91ea-42be-904d-c0f4c1dee9a4-5"
           d=""
           style="stroke:none" />
      </symbol>
      <symbol
         id="id-6ead9bac-34df-437c-9cfb-f213430b9942-1"
         overflow="visible">
        <path
           id="id-170f1d7e-c4f0-46fe-aa20-f72e06a9f77e-6"
           d="m 2.6875,-4.5 c -1.15625,0 -2.53125,1.609375 -2.53125,3.09375 0,0.9375 0.453125,1.46875 1.15625,1.46875 0.625,0 1.734375,-0.96875 1.875,-1.1875 0,-0.0625 -0.0625,-0.296875 -0.15625,-0.296875 -0.03125,0.03125 -0.5625,0.65625 -1.015625,0.65625 -0.5,0 -0.609375,-0.5 -0.609375,-0.875 0,-0.046875 0.015625,-0.21875 0.015625,-0.25 0.625,0 2.375,-0.65625 2.375,-1.6875 C 3.796875,-4.28125 3.203125,-4.5 2.6875,-4.5 Z M 1.453125,-2.265625 C 1.5,-2.765625 1.859375,-4.125 2.34375,-4.125 c 0.21875,0 0.265625,0.203125 0.265625,0.390625 0,0.734375 -0.765625,1.46875 -1.15625,1.46875 z m 0,0"
           style="stroke:none" />
      </symbol>
      <symbol
         id="id-b40de617-a1a8-4aaa-8100-fe1e60b9c575-7"
         overflow="visible">
        <path
           id="id-e9438b38-d173-4b06-95d8-eecf9ed52670-3"
           d=""
           style="stroke:none" />
      </symbol>
      <symbol
         id="id-31451389-9ce9-4488-97ac-55ba9a190c08-5"
         overflow="visible">
        <path
           id="id-b624c656-1616-456c-9024-8d9bfd8f0ced-9"
           d="m 0.96875,-3.203125 c -0.34375,0 -0.84375,0.5625 -0.921875,0.703125 0,0.03125 0.046875,0.125 0.0625,0.125 0.03125,-0.015625 0.359375,-0.421875 0.515625,-0.421875 0.375,0 0.453125,1.5 0.453125,2.34375 V -0.125 c 0,0.265625 -0.015625,0.5625 -0.140625,0.75 -0.234375,0.34375 -0.53125,0.609375 -1,0.609375 -0.15625,0 -0.46875,-0.078125 -0.578125,-0.140625 C -0.75,1.140625 -0.8125,1.296875 -0.8125,1.421875 c 0,0.15625 0.171875,0.296875 0.4375,0.296875 1,0 3.359375,-2.609375 3.359375,-4.328125 0,-0.171875 -0.015625,-0.59375 -0.328125,-0.59375 -0.171875,0 -0.3125,0.125 -0.375,0.3125 0.09375,0.171875 0.1875,0.34375 0.1875,0.796875 0,0.796875 -0.578125,1.65625 -0.84375,1.984375 0,-0.453125 -0.015625,-3.09375 -0.65625,-3.09375 z m 0,0"
           style="stroke:none" />
      </symbol>
    </g>
  </defs>
  <sodipodi:namedview
     id="base"
     pagecolor="#ffffff"
     bordercolor="#666666"
     borderopacity="1.0"
     inkscape:pageopacity="0.0"
     inkscape:pageshadow="2"
     inkscape:zoom="3.959798"
     inkscape:cx="69.131243"
     inkscape:cy="68.917948"
     inkscape:document-units="mm"
     inkscape:current-layer="layer1"
     inkscape:document-rotation="0"
     showgrid="false"
     inkscape:window-width="1600"
     inkscape:window-height="837"
     inkscape:window-x="-8"
     inkscape:window-y="-8"
     inkscape:window-maximized="1"
     fit-margin-top="0"
     fit-margin-left="0"
     fit-margin-right="0"
     fit-margin-bottom="0" />
  <metadata
     id="metadata5">
    <rdf:RDF>
      <cc:Work
         rdf:about="">
        <dc:format>image/svg+xml</dc:format>
        <dc:type
           rdf:resource="http://purl.org/dc/dcmitype/StillImage" />
        <dc:title></dc:title>
      </cc:Work>
    </rdf:RDF>
  </metadata>
  <g
     inkscape:label="Layer 1"
     inkscape:groupmode="layer"
     id="layer1"
     transform="translate(-45.777591,-109.37076)">
    <path
       style="fill:none;stroke:#3d677b;stroke-width:0.529167;stroke-linecap:butt;stroke-linejoin:miter;stroke-miterlimit:4;stroke-dasharray:none;stroke-opacity:1;marker-end:url(#marker9804)"
       d="M 58.732477,131.89751 V 110.3155"
       id="path846" />
    <path
       id="path846-7"
       d="m 58.732477,131.89751 h 21.58201"
       style="fill:none;stroke:#3d677b;stroke-width:0.529167;stroke-linecap:butt;stroke-linejoin:miter;stroke-miterlimit:4;stroke-dasharray:none;stroke-opacity:1;marker-end:url(#marker9794)" />
    <path
       style="fill:none;stroke:#3d677b;stroke-width:0.529167;stroke-linecap:butt;stroke-linejoin:miter;stroke-miterlimit:4;stroke-dasharray:none;stroke-opacity:1;marker-end:url(#marker9814)"
       d="M 58.762422,131.88547 46.47032,143.28433"
       id="path846-7-5" />
    <g
       style="fill:#a6a7a3"
       id="g1279"
       ns1:jacobian_sqrt="0.423334"
       ns1:inkscapeversion="1.0"
       ns1:alignment="middle center"
       ns1:scale="1.1999999716535878"
       ns1:preamble="C:\\Users\\flvisa\\Desktop\\lna\\latexify_books\\textext_preamble.tex"
       ns1:text="$0$"
       ns1:pdfconverter="inkscape"
       ns1:texconverter="pdflatex"
       ns1:version="1.1.0"
       transform="matrix(0.423334,0,0,0.423334,55.772919,129.02702)">
      <defs
         id="id-08c57fc9-4ab7-4bbf-91e8-3f0a35ec41d5">
        <g
           id="id-45cc9ccb-0392-4a68-a0d1-098a92137fbf">
          <symbol
             overflow="visible"
             id="id-5a1ab0dc-217a-4ad8-8c67-8b4cd2000ad9">
            <path
               style="stroke:none"
               d="M 0.5,0 H 4.484375 V -4.8125 H 0.5 Z M 1,-0.5 V -4.3125 H 3.984375 V -0.5 Z m 0,0"
               id="id-8eaf1dfc-0345-456c-983d-7d48a205bbbf" />
          </symbol>
          <symbol
             overflow="visible"
             id="id-f34ec40d-3f5c-4a91-8a87-dd423d98cc25">
            <path
               style="stroke:none"
               d="m 2.484375,-5.875 c 0.71875,0 1.203125,1.1875 1.203125,2.71875 0,1.515625 -0.4375,2.828125 -1.3125,2.828125 -0.703125,0 -1.21875,-1.25 -1.21875,-2.78125 0,-1.53125 0.515625,-2.765625 1.328125,-2.765625 z m -0.0625,-0.359375 c -1.34375,0 -2.125,1.421875 -2.125,3.125 0,1.6875 0.796875,3.140625 2.125,3.140625 1.34375,0 2.125,-1.453125 2.125,-3.140625 0,-1.703125 -0.765625,-3.125 -2.125,-3.125 z m 0,0"
               id="id-fdc5e3da-df39-4c9f-84ec-ce6f9cc4a704" />
          </symbol>
        </g>
      </defs>
      <g
         style="fill:#a6a7a3"
         id="id-8d9df9fd-04fa-4bab-a511-8c06123e39f9"
         transform="translate(-149.009,-128.531)">
        <g
           style="fill:#a6a7a3;fill-opacity:1"
           id="id-6226ef73-d79c-4c8c-811e-da56f517d4e2">
          <g
             style="fill:#a6a7a3"
             id="g1275"
             transform="translate(148.712,134.765)">
            <path
               style="fill:#a6a7a3;stroke:none"
               d="m 2.484375,-5.875 c 0.71875,0 1.203125,1.1875 1.203125,2.71875 0,1.515625 -0.4375,2.828125 -1.3125,2.828125 -0.703125,0 -1.21875,-1.25 -1.21875,-2.78125 0,-1.53125 0.515625,-2.765625 1.328125,-2.765625 z m -0.0625,-0.359375 c -1.34375,0 -2.125,1.421875 -2.125,3.125 0,1.6875 0.796875,3.140625 2.125,3.140625 1.34375,0 2.125,-1.453125 2.125,-3.140625 0,-1.703125 -0.765625,-3.125 -2.125,-3.125 z m 0,0"
               id="id-5f1732a0-7a78-4616-b9ff-aa9f41fae37a" />
          </g>
        </g>
      </g>
    </g>
    <g
       style="fill:#c28f48"
       id="g1346"
       ns1:jacobian_sqrt="0.423334"
       ns1:inkscapeversion="1.0"
       ns1:alignment="middle center"
       ns1:scale="1.1999999716535878"
       ns1:preamble="C:\\Users\\flvisa\\Desktop\\lna\\latexify_books\\textext_preamble.tex"
       ns1:text="$\\hat{\\boldsymbol{e}}_z$"
       ns1:pdfconverter="inkscape"
       ns1:texconverter="pdflatex"
       ns1:version="1.1.0"
       transform="matrix(0.423334,0,0,0.423334,54.299076,110.02928)">
      <defs
         id="id-c34fdcd6-af45-432b-904f-94325f9f3ca5">
        <g
           id="id-5f25a96c-656e-48cd-80d7-0801a287a3c3">
          <symbol
             overflow="visible"
             id="id-b28496a5-6bfd-4d17-af9e-05cea2abbd84">
            <path
               style="stroke:none"
               d="M 0.5,0 H 4.484375 V -4.8125 H 0.5 Z M 1,-0.5 V -4.3125 H 3.984375 V -0.5 Z m 0,0"
               id="id-4c33a5cc-c1d0-4c26-b260-f12d85da9e67" />
          </symbol>
          <symbol
             overflow="visible"
             id="id-72c0ea69-5741-47c2-b0ea-677943e55704">
            <path
               style="stroke:none"
               d="m 1.5,-6.546875 c -0.03125,0 -0.078125,0.046875 -0.109375,0.09375 C 1.0625,-5.90625 0.875,-5.65625 0.484375,-5.15625 c 0,0.0625 0.046875,0.125 0.109375,0.125 0.328125,-0.265625 0.90625,-0.75 0.90625,-0.75 0,0 0.546875,0.453125 0.921875,0.75 0.046875,0 0.109375,-0.0625 0.109375,-0.125 -0.375,-0.5 -0.59375,-0.75 -0.921875,-1.296875 C 1.578125,-6.5 1.546875,-6.546875 1.5,-6.546875 Z m 0,0"
               id="id-47c7cced-fe5f-448d-9d37-3c3c0a63d597" />
          </symbol>
          <symbol
             overflow="visible"
             id="id-080179b9-4a82-440b-888f-b9bfcd9657f9">
            <path
               style="stroke:none"
               d=""
               id="id-227abe84-4153-40d9-9ecf-d730d89171dc" />
          </symbol>
          <symbol
             overflow="visible"
             id="id-f54f1821-8e86-4087-a126-4cfb6b0ece81">
            <path
               style="stroke:none"
               d="m 2.6875,-4.5 c -1.15625,0 -2.53125,1.609375 -2.53125,3.09375 0,0.9375 0.453125,1.46875 1.15625,1.46875 0.625,0 1.734375,-0.96875 1.875,-1.1875 0,-0.0625 -0.0625,-0.296875 -0.15625,-0.296875 -0.03125,0.03125 -0.5625,0.65625 -1.015625,0.65625 -0.5,0 -0.609375,-0.5 -0.609375,-0.875 0,-0.046875 0.015625,-0.21875 0.015625,-0.25 0.625,0 2.375,-0.65625 2.375,-1.6875 C 3.796875,-4.28125 3.203125,-4.5 2.6875,-4.5 Z M 1.453125,-2.265625 C 1.5,-2.765625 1.859375,-4.125 2.34375,-4.125 c 0.21875,0 0.265625,0.203125 0.265625,0.390625 0,0.734375 -0.765625,1.46875 -1.15625,1.46875 z m 0,0"
               id="id-9a78fec5-04cb-47a4-b7a5-008b598ecf2e" />
          </symbol>
          <symbol
             overflow="visible"
             id="id-76265986-9831-4a63-8f19-b44d1cc2c320">
            <path
               style="stroke:none"
               d=""
               id="id-a849959f-806e-4522-8205-81d63be7c8ba" />
          </symbol>
          <symbol
             overflow="visible"
             id="id-7d4c6b7b-c557-453f-bb3f-0d267c725217">
            <path
               style="stroke:none"
               d="m 1.6875,-2.4375 c 0.234375,0 0.4375,-0.140625 0.46875,-0.15625 C 2.140625,-2.5625 -0.078125,-0.25 -0.078125,-0.140625 -0.0625,-0.078125 -0.03125,-0.015625 0,0 c 0.15625,-0.078125 0.28125,-0.234375 0.5,-0.234375 0.15625,0 0.40625,0.03125 0.515625,0.078125 C 1.203125,-0.09375 1.4375,0 1.609375,0 1.953125,0 2.25,-0.609375 2.375,-0.875 2.375,-0.9375 2.359375,-1 2.28125,-1 2.25,-0.9375 2.046875,-0.515625 1.859375,-0.515625 1.75,-0.515625 1.609375,-0.578125 1.46875,-0.625 1.328125,-0.703125 1.171875,-0.75 1.015625,-0.75 c -0.15625,0 -0.3125,0.0625 -0.34375,0.078125 0.03125,-0.03125 2.125,-2.28125 2.125,-2.375 0,-0.0625 -0.03125,-0.125 -0.09375,-0.15625 -0.0625,0 -0.390625,0.234375 -0.65625,0.234375 -0.390625,0 -0.609375,-0.234375 -0.984375,-0.234375 -0.34375,0 -0.703125,0.75 -0.75,0.890625 0.015625,0.0625 0.046875,0.125 0.09375,0.125 0.046875,-0.078125 0.21875,-0.5 0.421875,-0.5 0.28125,0 0.546875,0.25 0.859375,0.25 z m 0,0"
               id="id-42a7cd5d-3b3c-4cab-ade9-52cd3988a8c9" />
          </symbol>
        </g>
      </defs>
      <g
         style="fill:#c28f48"
         id="id-ce475bfb-6833-4713-b9bf-38e4d9aefe51"
         transform="translate(-148.968,-127.954)">
        <g
           style="fill:#c28f48;fill-opacity:1"
           id="id-87d23fd8-454d-43ef-804b-21de8b8358b1">
          <g
             style="fill:#c28f48"
             id="g1334"
             transform="translate(149.225,134.501)">
            <path
               style="fill:#c28f48;stroke:none"
               d="m 1.5,-6.546875 c -0.03125,0 -0.078125,0.046875 -0.109375,0.09375 C 1.0625,-5.90625 0.875,-5.65625 0.484375,-5.15625 c 0,0.0625 0.046875,0.125 0.109375,0.125 0.328125,-0.265625 0.90625,-0.75 0.90625,-0.75 0,0 0.546875,0.453125 0.921875,0.75 0.046875,0 0.109375,-0.0625 0.109375,-0.125 -0.375,-0.5 -0.59375,-0.75 -0.921875,-1.296875 C 1.578125,-6.5 1.546875,-6.546875 1.5,-6.546875 Z m 0,0"
               id="id-89500df2-0f91-4d80-b3d5-088c7acc9fbc" />
          </g>
        </g>
        <g
           style="fill:#c28f48;fill-opacity:1"
           id="id-994488e2-7465-4ac2-94fa-5e7015f72a52">
          <g
             style="fill:#c28f48"
             id="g1338"
             transform="translate(148.812,134.765)">
            <path
               style="fill:#c28f48;stroke:none"
               d="m 2.6875,-4.5 c -1.15625,0 -2.53125,1.609375 -2.53125,3.09375 0,0.9375 0.453125,1.46875 1.15625,1.46875 0.625,0 1.734375,-0.96875 1.875,-1.1875 0,-0.0625 -0.0625,-0.296875 -0.15625,-0.296875 -0.03125,0.03125 -0.5625,0.65625 -1.015625,0.65625 -0.5,0 -0.609375,-0.5 -0.609375,-0.875 0,-0.046875 0.015625,-0.21875 0.015625,-0.25 0.625,0 2.375,-0.65625 2.375,-1.6875 C 3.796875,-4.28125 3.203125,-4.5 2.6875,-4.5 Z M 1.453125,-2.265625 C 1.5,-2.765625 1.859375,-4.125 2.34375,-4.125 c 0.21875,0 0.265625,0.203125 0.265625,0.390625 0,0.734375 -0.765625,1.46875 -1.15625,1.46875 z m 0,0"
               id="id-64ef50f3-d547-4783-813c-d14ba73331c4" />
          </g>
        </g>
        <g
           style="fill:#c28f48;fill-opacity:1"
           id="id-9c20f1e0-caaf-4c9b-b33f-e436420321ae">
          <g
             style="fill:#c28f48"
             id="g1342"
             transform="translate(152.965,136.259)">
            <path
               style="fill:#c28f48;stroke:none"
               d="m 1.6875,-2.4375 c 0.234375,0 0.4375,-0.140625 0.46875,-0.15625 C 2.140625,-2.5625 -0.078125,-0.25 -0.078125,-0.140625 -0.0625,-0.078125 -0.03125,-0.015625 0,0 c 0.15625,-0.078125 0.28125,-0.234375 0.5,-0.234375 0.15625,0 0.40625,0.03125 0.515625,0.078125 C 1.203125,-0.09375 1.4375,0 1.609375,0 1.953125,0 2.25,-0.609375 2.375,-0.875 2.375,-0.9375 2.359375,-1 2.28125,-1 2.25,-0.9375 2.046875,-0.515625 1.859375,-0.515625 1.75,-0.515625 1.609375,-0.578125 1.46875,-0.625 1.328125,-0.703125 1.171875,-0.75 1.015625,-0.75 c -0.15625,0 -0.3125,0.0625 -0.34375,0.078125 0.03125,-0.03125 2.125,-2.28125 2.125,-2.375 0,-0.0625 -0.03125,-0.125 -0.09375,-0.15625 -0.0625,0 -0.390625,0.234375 -0.65625,0.234375 -0.390625,0 -0.609375,-0.234375 -0.984375,-0.234375 -0.34375,0 -0.703125,0.75 -0.75,0.890625 0.015625,0.0625 0.046875,0.125 0.09375,0.125 0.046875,-0.078125 0.21875,-0.5 0.421875,-0.5 0.28125,0 0.546875,0.25 0.859375,0.25 z m 0,0"
               id="id-789d208d-6b78-49d2-b01b-cbb775a74b2c" />
          </g>
        </g>
      </g>
    </g>
    <g
       style="fill:#c28f48"
       id="g1578"
       ns1:jacobian_sqrt="0.423334"
       ns1:inkscapeversion="1.0"
       ns1:alignment="middle center"
       ns1:scale="1.1999999433071764"
       ns1:preamble="C:\\Users\\flvisa\\Desktop\\lna\\latexify_books\\textext_preamble.tex"
       ns1:text="$\\hat{\\boldsymbol{e}}_y$"
       ns1:pdfconverter="inkscape"
       ns1:texconverter="pdflatex"
       ns1:version="1.1.0"
       transform="matrix(0.423334,0,0,0.423334,77.3497,133.66834)">
      <defs
         id="id-88fe4e61-affd-4d1d-8dd0-86ce7edb6e28">
        <g
           id="id-f5ca25ab-2bcd-4a96-9890-9228317c25ef">
          <symbol
             overflow="visible"
             id="id-471572ca-53cd-4d70-92c5-5944e1df70fb">
            <path
               style="stroke:none"
               d="M 0.5,0 H 4.484375 V -4.8125 H 0.5 Z M 1,-0.5 V -4.3125 H 3.984375 V -0.5 Z m 0,0"
               id="id-8c82a9b0-172b-4fe8-a9cd-b9db5b3c898d" />
          </symbol>
          <symbol
             overflow="visible"
             id="id-1350adce-4949-4318-a679-caff95f0727b">
            <path
               style="stroke:none"
               d="m 1.5,-6.546875 c -0.03125,0 -0.078125,0.046875 -0.109375,0.09375 C 1.0625,-5.90625 0.875,-5.65625 0.484375,-5.15625 c 0,0.0625 0.046875,0.125 0.109375,0.125 0.328125,-0.265625 0.90625,-0.75 0.90625,-0.75 0,0 0.546875,0.453125 0.921875,0.75 0.046875,0 0.109375,-0.0625 0.109375,-0.125 -0.375,-0.5 -0.59375,-0.75 -0.921875,-1.296875 C 1.578125,-6.5 1.546875,-6.546875 1.5,-6.546875 Z m 0,0"
               id="id-d8051dd3-29f4-4abd-bee8-3ec201cb41a1" />
          </symbol>
          <symbol
             overflow="visible"
             id="id-60b1e815-4e48-4cbb-8230-930fec31c7e4">
            <path
               style="stroke:none"
               d=""
               id="id-323aa536-91ea-42be-904d-c0f4c1dee9a4" />
          </symbol>
          <symbol
             overflow="visible"
             id="id-6ead9bac-34df-437c-9cfb-f213430b9942">
            <path
               style="stroke:none"
               d="m 2.6875,-4.5 c -1.15625,0 -2.53125,1.609375 -2.53125,3.09375 0,0.9375 0.453125,1.46875 1.15625,1.46875 0.625,0 1.734375,-0.96875 1.875,-1.1875 0,-0.0625 -0.0625,-0.296875 -0.15625,-0.296875 -0.03125,0.03125 -0.5625,0.65625 -1.015625,0.65625 -0.5,0 -0.609375,-0.5 -0.609375,-0.875 0,-0.046875 0.015625,-0.21875 0.015625,-0.25 0.625,0 2.375,-0.65625 2.375,-1.6875 C 3.796875,-4.28125 3.203125,-4.5 2.6875,-4.5 Z M 1.453125,-2.265625 C 1.5,-2.765625 1.859375,-4.125 2.34375,-4.125 c 0.21875,0 0.265625,0.203125 0.265625,0.390625 0,0.734375 -0.765625,1.46875 -1.15625,1.46875 z m 0,0"
               id="id-170f1d7e-c4f0-46fe-aa20-f72e06a9f77e" />
          </symbol>
          <symbol
             overflow="visible"
             id="id-b40de617-a1a8-4aaa-8100-fe1e60b9c575">
            <path
               style="stroke:none"
               d=""
               id="id-e9438b38-d173-4b06-95d8-eecf9ed52670" />
          </symbol>
          <symbol
             overflow="visible"
             id="id-31451389-9ce9-4488-97ac-55ba9a190c08">
            <path
               style="stroke:none"
               d="m 0.96875,-3.203125 c -0.34375,0 -0.84375,0.5625 -0.921875,0.703125 0,0.03125 0.046875,0.125 0.0625,0.125 0.03125,-0.015625 0.359375,-0.421875 0.515625,-0.421875 0.375,0 0.453125,1.5 0.453125,2.34375 V -0.125 c 0,0.265625 -0.015625,0.5625 -0.140625,0.75 -0.234375,0.34375 -0.53125,0.609375 -1,0.609375 -0.15625,0 -0.46875,-0.078125 -0.578125,-0.140625 C -0.75,1.140625 -0.8125,1.296875 -0.8125,1.421875 c 0,0.15625 0.171875,0.296875 0.4375,0.296875 1,0 3.359375,-2.609375 3.359375,-4.328125 0,-0.171875 -0.015625,-0.59375 -0.328125,-0.59375 -0.171875,0 -0.3125,0.125 -0.375,0.3125 0.09375,0.171875 0.1875,0.34375 0.1875,0.796875 0,0.796875 -0.578125,1.65625 -0.84375,1.984375 0,-0.453125 -0.015625,-3.09375 -0.65625,-3.09375 z m 0,0"
               id="id-b624c656-1616-456c-9024-8d9bfd8f0ced" />
          </symbol>
        </g>
      </defs>
      <g
         style="fill:#c28f48"
         id="id-8d83fbd2-0f95-4f72-b457-722577dc9ce6"
         transform="translate(-148.968,-127.954)">
        <g
           style="fill:#c28f48;fill-opacity:1"
           id="id-0b04d4e2-9d8d-4f9d-a789-989846a16ed9">
          <g
             style="fill:#c28f48"
             id="g1566"
             transform="translate(149.225,134.501)">
            <path
               style="fill:#c28f48;stroke:none"
               d="m 1.5,-6.546875 c -0.03125,0 -0.078125,0.046875 -0.109375,0.09375 C 1.0625,-5.90625 0.875,-5.65625 0.484375,-5.15625 c 0,0.0625 0.046875,0.125 0.109375,0.125 0.328125,-0.265625 0.90625,-0.75 0.90625,-0.75 0,0 0.546875,0.453125 0.921875,0.75 0.046875,0 0.109375,-0.0625 0.109375,-0.125 -0.375,-0.5 -0.59375,-0.75 -0.921875,-1.296875 C 1.578125,-6.5 1.546875,-6.546875 1.5,-6.546875 Z m 0,0"
               id="id-6522058b-e80b-4fb1-adbe-b463574bae5c" />
          </g>
        </g>
        <g
           style="fill:#c28f48;fill-opacity:1"
           id="id-900b314c-f93e-4e89-ba2f-42cdbcccad28">
          <g
             style="fill:#c28f48"
             id="g1570"
             transform="translate(148.812,134.765)">
            <path
               style="fill:#c28f48;stroke:none"
               d="m 2.6875,-4.5 c -1.15625,0 -2.53125,1.609375 -2.53125,3.09375 0,0.9375 0.453125,1.46875 1.15625,1.46875 0.625,0 1.734375,-0.96875 1.875,-1.1875 0,-0.0625 -0.0625,-0.296875 -0.15625,-0.296875 -0.03125,0.03125 -0.5625,0.65625 -1.015625,0.65625 -0.5,0 -0.609375,-0.5 -0.609375,-0.875 0,-0.046875 0.015625,-0.21875 0.015625,-0.25 0.625,0 2.375,-0.65625 2.375,-1.6875 C 3.796875,-4.28125 3.203125,-4.5 2.6875,-4.5 Z M 1.453125,-2.265625 C 1.5,-2.765625 1.859375,-4.125 2.34375,-4.125 c 0.21875,0 0.265625,0.203125 0.265625,0.390625 0,0.734375 -0.765625,1.46875 -1.15625,1.46875 z m 0,0"
               id="id-8d62aa51-0d3d-4bbe-a37a-5b5a258a75c0" />
          </g>
        </g>
        <g
           style="fill:#c28f48;fill-opacity:1"
           id="id-44825b8d-ae8b-4b2a-9658-817115a25b19">
          <g
             style="fill:#c28f48"
             id="g1574"
             transform="translate(153.474,136.259)">
            <path
               style="fill:#c28f48;stroke:none"
               d="m 0.96875,-3.203125 c -0.34375,0 -0.84375,0.5625 -0.921875,0.703125 0,0.03125 0.046875,0.125 0.0625,0.125 0.03125,-0.015625 0.359375,-0.421875 0.515625,-0.421875 0.375,0 0.453125,1.5 0.453125,2.34375 V -0.125 c 0,0.265625 -0.015625,0.5625 -0.140625,0.75 -0.234375,0.34375 -0.53125,0.609375 -1,0.609375 -0.15625,0 -0.46875,-0.078125 -0.578125,-0.140625 C -0.75,1.140625 -0.8125,1.296875 -0.8125,1.421875 c 0,0.15625 0.171875,0.296875 0.4375,0.296875 1,0 3.359375,-2.609375 3.359375,-4.328125 0,-0.171875 -0.015625,-0.59375 -0.328125,-0.59375 -0.171875,0 -0.3125,0.125 -0.375,0.3125 0.09375,0.171875 0.1875,0.34375 0.1875,0.796875 0,0.796875 -0.578125,1.65625 -0.84375,1.984375 0,-0.453125 -0.015625,-3.09375 -0.65625,-3.09375 z m 0,0"
               id="id-02ecf77e-3bfd-4d71-b18b-d72e6f63aa68" />
          </g>
        </g>
      </g>
    </g>
    <g
       style="fill:#c28f48"
       id="g1847"
       ns1:jacobian_sqrt="0.423334"
       ns1:inkscapeversion="1.0"
       ns1:alignment="middle center"
       ns1:scale="1.1999999149607656"
       ns1:preamble="C:\\Users\\flvisa\\Desktop\\lna\\latexify_books\\textext_preamble.tex"
       ns1:text="$\\hat{\\boldsymbol{e}}_x$"
       ns1:pdfconverter="inkscape"
       ns1:texconverter="pdflatex"
       ns1:version="1.1.0"
       transform="matrix(0.423334,0,0,0.423334,49.653933,141.016)">
      <defs
         id="id-8348e508-7dd5-4be0-ac22-fc2a3cafe210">
        <g
           id="id-c6ce8817-2991-4cfb-b64e-e59a2ed1b663">
          <symbol
             overflow="visible"
             id="id-cffbec96-838f-4bf1-a670-6f3ab559968c">
            <path
               style="stroke:none"
               d="M 0.5,0 H 4.484375 V -4.8125 H 0.5 Z M 1,-0.5 V -4.3125 H 3.984375 V -0.5 Z m 0,0"
               id="id-64427e35-4ac0-42f3-ac77-91493977567c" />
          </symbol>
          <symbol
             overflow="visible"
             id="id-70d27a32-ebb4-4e93-91cf-fddebc137a4e">
            <path
               style="stroke:none"
               d="m 1.5,-6.546875 c -0.03125,0 -0.078125,0.046875 -0.109375,0.09375 C 1.0625,-5.90625 0.875,-5.65625 0.484375,-5.15625 c 0,0.0625 0.046875,0.125 0.109375,0.125 0.328125,-0.265625 0.90625,-0.75 0.90625,-0.75 0,0 0.546875,0.453125 0.921875,0.75 0.046875,0 0.109375,-0.0625 0.109375,-0.125 -0.375,-0.5 -0.59375,-0.75 -0.921875,-1.296875 C 1.578125,-6.5 1.546875,-6.546875 1.5,-6.546875 Z m 0,0"
               id="id-692139f5-5da6-4a55-959e-19fb07aaa5b5" />
          </symbol>
          <symbol
             overflow="visible"
             id="id-ad15602c-0c56-4a19-ba06-08b166364d9e">
            <path
               style="stroke:none"
               d=""
               id="id-66140758-0a1f-412c-a3d9-4540600a2942" />
          </symbol>
          <symbol
             overflow="visible"
             id="id-80814668-d3b0-4df1-94ab-bc3d40b08320">
            <path
               style="stroke:none"
               d="m 2.6875,-4.5 c -1.15625,0 -2.53125,1.609375 -2.53125,3.09375 0,0.9375 0.453125,1.46875 1.15625,1.46875 0.625,0 1.734375,-0.96875 1.875,-1.1875 0,-0.0625 -0.0625,-0.296875 -0.15625,-0.296875 -0.03125,0.03125 -0.5625,0.65625 -1.015625,0.65625 -0.5,0 -0.609375,-0.5 -0.609375,-0.875 0,-0.046875 0.015625,-0.21875 0.015625,-0.25 0.625,0 2.375,-0.65625 2.375,-1.6875 C 3.796875,-4.28125 3.203125,-4.5 2.6875,-4.5 Z M 1.453125,-2.265625 C 1.5,-2.765625 1.859375,-4.125 2.34375,-4.125 c 0.21875,0 0.265625,0.203125 0.265625,0.390625 0,0.734375 -0.765625,1.46875 -1.15625,1.46875 z m 0,0"
               id="id-9f74e97b-268a-4747-b6bf-d75b15341d89" />
          </symbol>
          <symbol
             overflow="visible"
             id="id-746edabf-286a-4b1f-b753-866744da9abe">
            <path
               style="stroke:none"
               d=""
               id="id-3890f79e-9eb5-4017-84ce-dd637138578b" />
          </symbol>
          <symbol
             overflow="visible"
             id="id-49e282b2-d6c6-4890-8ae8-f43029ec9ca6">
            <path
               style="stroke:none"
               d="M 2.171875,-0.65625 1.9375,-1.796875 C 2.078125,-2.078125 2.203125,-2.28125 2.375,-2.578125 2.421875,-2.671875 2.484375,-2.75 2.578125,-2.75 H 2.59375 c 0.15625,0.015625 0.203125,0.21875 0.34375,0.21875 0.171875,0 0.265625,-0.15625 0.265625,-0.328125 0,-0.109375 -0.03125,-0.1875 -0.078125,-0.25 -0.109375,-0.078125 -0.234375,-0.09375 -0.34375,-0.09375 -0.375,0 -0.578125,0.5 -0.90625,1.140625 l -0.09375,-0.5 C 1.703125,-2.96875 1.5,-3.203125 1.265625,-3.203125 0.9375,-3.203125 0.4375,-2.625 0.375,-2.515625 c 0,0.03125 0.046875,0.125 0.078125,0.125 0.078125,-0.09375 0.40625,-0.40625 0.5625,-0.40625 0.125,0 0.203125,0.125 0.234375,0.28125 L 1.453125,-1.5 C 1.265625,-1.140625 1.140625,-0.921875 0.9375,-0.578125 0.890625,-0.5 0.828125,-0.421875 0.734375,-0.421875 H 0.71875 c -0.15625,0 -0.1875,-0.203125 -0.328125,-0.203125 -0.171875,0 -0.28125,0.15625 -0.28125,0.328125 0,0.109375 0.03125,0.1875 0.078125,0.25 0.125,0.0625 0.25,0.078125 0.34375,0.078125 0.40625,0 0.609375,-0.546875 0.96875,-1.265625 l 0.140625,0.625 c 0.078125,0.40625 0.265625,0.640625 0.5,0.640625 0.328125,0 0.84375,-0.578125 0.890625,-0.671875 0,-0.046875 -0.046875,-0.140625 -0.0625,-0.140625 -0.078125,0.109375 -0.421875,0.390625 -0.546875,0.390625 -0.15625,0 -0.21875,-0.109375 -0.25,-0.265625 z m 0,0"
               id="id-0d996d5b-9005-44f7-891b-915dd8b7982c" />
          </symbol>
        </g>
      </defs>
      <g
         style="fill:#c28f48"
         id="id-6f6760ab-681f-43db-9744-1b8accec174a"
         transform="translate(-148.968,-127.954)">
        <g
           style="fill:#c28f48;fill-opacity:1"
           id="id-804820d7-e679-4ba6-bec3-e1272517bf63">
          <g
             style="fill:#c28f48"
             id="g1835"
             transform="translate(149.225,134.501)">
            <path
               style="fill:#c28f48;stroke:none"
               d="m 1.5,-6.546875 c -0.03125,0 -0.078125,0.046875 -0.109375,0.09375 C 1.0625,-5.90625 0.875,-5.65625 0.484375,-5.15625 c 0,0.0625 0.046875,0.125 0.109375,0.125 0.328125,-0.265625 0.90625,-0.75 0.90625,-0.75 0,0 0.546875,0.453125 0.921875,0.75 0.046875,0 0.109375,-0.0625 0.109375,-0.125 -0.375,-0.5 -0.59375,-0.75 -0.921875,-1.296875 C 1.578125,-6.5 1.546875,-6.546875 1.5,-6.546875 Z m 0,0"
               id="id-bbf8fded-cfa8-4725-be81-efe909c1125e" />
          </g>
        </g>
        <g
           style="fill:#c28f48;fill-opacity:1"
           id="id-97ef7815-f40a-4765-b021-10ca08973bdb">
          <g
             style="fill:#c28f48"
             id="g1839"
             transform="translate(148.812,134.765)">
            <path
               style="fill:#c28f48;stroke:none"
               d="m 2.6875,-4.5 c -1.15625,0 -2.53125,1.609375 -2.53125,3.09375 0,0.9375 0.453125,1.46875 1.15625,1.46875 0.625,0 1.734375,-0.96875 1.875,-1.1875 0,-0.0625 -0.0625,-0.296875 -0.15625,-0.296875 -0.03125,0.03125 -0.5625,0.65625 -1.015625,0.65625 -0.5,0 -0.609375,-0.5 -0.609375,-0.875 0,-0.046875 0.015625,-0.21875 0.015625,-0.25 0.625,0 2.375,-0.65625 2.375,-1.6875 C 3.796875,-4.28125 3.203125,-4.5 2.6875,-4.5 Z M 1.453125,-2.265625 C 1.5,-2.765625 1.859375,-4.125 2.34375,-4.125 c 0.21875,0 0.265625,0.203125 0.265625,0.390625 0,0.734375 -0.765625,1.46875 -1.15625,1.46875 z m 0,0"
               id="id-aed08101-9743-4cae-9928-62086179c8b0" />
          </g>
        </g>
        <g
           style="fill:#c28f48;fill-opacity:1"
           id="id-0ec1cf80-ad76-4398-b872-5b9f27563402">
          <g
             style="fill:#c28f48"
             id="g1843"
             transform="translate(152.965,136.259)">
            <path
               style="fill:#c28f48;stroke:none"
               d="M 2.171875,-0.65625 1.9375,-1.796875 C 2.078125,-2.078125 2.203125,-2.28125 2.375,-2.578125 2.421875,-2.671875 2.484375,-2.75 2.578125,-2.75 H 2.59375 c 0.15625,0.015625 0.203125,0.21875 0.34375,0.21875 0.171875,0 0.265625,-0.15625 0.265625,-0.328125 0,-0.109375 -0.03125,-0.1875 -0.078125,-0.25 -0.109375,-0.078125 -0.234375,-0.09375 -0.34375,-0.09375 -0.375,0 -0.578125,0.5 -0.90625,1.140625 l -0.09375,-0.5 C 1.703125,-2.96875 1.5,-3.203125 1.265625,-3.203125 0.9375,-3.203125 0.4375,-2.625 0.375,-2.515625 c 0,0.03125 0.046875,0.125 0.078125,0.125 0.078125,-0.09375 0.40625,-0.40625 0.5625,-0.40625 0.125,0 0.203125,0.125 0.234375,0.28125 L 1.453125,-1.5 C 1.265625,-1.140625 1.140625,-0.921875 0.9375,-0.578125 0.890625,-0.5 0.828125,-0.421875 0.734375,-0.421875 H 0.71875 c -0.15625,0 -0.1875,-0.203125 -0.328125,-0.203125 -0.171875,0 -0.28125,0.15625 -0.28125,0.328125 0,0.109375 0.03125,0.1875 0.078125,0.25 0.125,0.0625 0.25,0.078125 0.34375,0.078125 0.40625,0 0.609375,-0.546875 0.96875,-1.265625 l 0.140625,0.625 c 0.078125,0.40625 0.265625,0.640625 0.5,0.640625 0.328125,0 0.84375,-0.578125 0.890625,-0.671875 0,-0.046875 -0.046875,-0.140625 -0.0625,-0.140625 -0.078125,0.109375 -0.421875,0.390625 -0.546875,0.390625 -0.15625,0 -0.21875,-0.109375 -0.25,-0.265625 z m 0,0"
               id="id-8e759d90-52fd-4f24-8acc-8eee9643e87a" />
          </g>
        </g>
      </g>
    </g>
  </g>
</svg>
