<?xml version="1.0" encoding="UTF-8" standalone="no"?>
<svg
   xmlns:ns1="http://www.iki.fi/pav/software/textext/"
   xmlns:dc="http://purl.org/dc/elements/1.1/"
   xmlns:cc="http://creativecommons.org/ns#"
   xmlns:rdf="http://www.w3.org/1999/02/22-rdf-syntax-ns#"
   xmlns:svg="http://www.w3.org/2000/svg"
   xmlns="http://www.w3.org/2000/svg"
   xmlns:sodipodi="http://sodipodi.sourceforge.net/DTD/sodipodi-0.dtd"
   xmlns:inkscape="http://www.inkscape.org/namespaces/inkscape"
   width="61mm"
   height="41.894764mm"
   viewBox="0 0 61 41.894764"
   version="1.1"
   id="svg8"
   inkscape:version="1.0 (4035a4fb49, 2020-05-01)"
   sodipodi:docname="fig_1_29.svg">
  <defs
     id="defs2">
    <marker
       inkscape:stockid="Arrow1Send"
       orient="auto"
       refY="0"
       refX="0"
       id="marker4928"
       style="overflow:visible"
       inkscape:isstock="true">
      <path
         id="path4926"
         d="M 0,0 5,-5 -12.5,0 5,5 Z"
         style="fill:#a6a7a3;fill-opacity:1;fill-rule:evenodd;stroke:#a6a7a3;stroke-width:1pt;stroke-opacity:1"
         transform="matrix(-0.2,0,0,-0.2,-1.2,0)" />
    </marker>
    <marker
       inkscape:stockid="Arrow1Send"
       orient="auto"
       refY="0"
       refX="0"
       id="marker4918"
       style="overflow:visible"
       inkscape:isstock="true">
      <path
         id="path4916"
         d="M 0,0 5,-5 -12.5,0 5,5 Z"
         style="fill:#a6a7a3;fill-opacity:1;fill-rule:evenodd;stroke:#a6a7a3;stroke-width:1pt;stroke-opacity:1"
         transform="matrix(-0.2,0,0,-0.2,-1.2,0)" />
    </marker>
    <marker
       inkscape:stockid="Arrow1Send"
       orient="auto"
       refY="0"
       refX="0"
       id="marker4734"
       style="overflow:visible"
       inkscape:isstock="true">
      <path
         id="path4732"
         d="M 0,0 5,-5 -12.5,0 5,5 Z"
         style="fill:#a6a7a3;fill-opacity:1;fill-rule:evenodd;stroke:#a6a7a3;stroke-width:1pt;stroke-opacity:1"
         transform="matrix(-0.2,0,0,-0.2,-1.2,0)" />
    </marker>
    <marker
       inkscape:isstock="true"
       style="overflow:visible"
       id="Arrow2Mend"
       refX="0"
       refY="0"
       orient="auto"
       inkscape:stockid="Arrow2Mend">
      <path
         transform="scale(-0.6)"
         d="M 8.7185878,4.0337352 -2.2072895,0.01601326 8.7185884,-4.0017078 c -1.7454984,2.3720609 -1.7354408,5.6174519 -6e-7,8.035443 z"
         style="fill:#a6a7a3;fill-opacity:1;fill-rule:evenodd;stroke:#a6a7a3;stroke-width:0.625;stroke-linejoin:round;stroke-opacity:1"
         id="path1165" />
    </marker>
    <marker
       inkscape:isstock="true"
       style="overflow:visible"
       id="marker3758"
       refX="0"
       refY="0"
       orient="auto"
       inkscape:stockid="Arrow1Mend">
      <path
         transform="matrix(-0.4,0,0,-0.4,-4,0)"
         style="fill:#000000;fill-opacity:1;fill-rule:evenodd;stroke:#000000;stroke-width:1pt;stroke-opacity:1"
         d="M 0,0 5,-5 -12.5,0 5,5 Z"
         id="path3756" />
    </marker>
    <marker
       inkscape:isstock="true"
       style="overflow:visible"
       id="Arrow1Send"
       refX="0"
       refY="0"
       orient="auto"
       inkscape:stockid="Arrow1Send"
       inkscape:collect="always">
      <path
         transform="matrix(-0.2,0,0,-0.2,-1.2,0)"
         style="fill:#3d677b;fill-opacity:1;fill-rule:evenodd;stroke:#3d677b;stroke-width:1pt;stroke-opacity:1"
         d="M 0,0 5,-5 -12.5,0 5,5 Z"
         id="path1153" />
    </marker>
    <marker
       inkscape:stockid="Arrow1Mend"
       orient="auto"
       refY="0"
       refX="0"
       id="marker3261"
       style="overflow:visible"
       inkscape:isstock="true">
      <path
         id="path3259"
         d="M 0,0 5,-5 -12.5,0 5,5 Z"
         style="fill:#000000;fill-opacity:1;fill-rule:evenodd;stroke:#000000;stroke-width:1pt;stroke-opacity:1"
         transform="matrix(-0.4,0,0,-0.4,-4,0)" />
    </marker>
    <marker
       inkscape:isstock="true"
       style="overflow:visible"
       id="Arrow1Lstart"
       refX="0"
       refY="0"
       orient="auto"
       inkscape:stockid="Arrow1Lstart">
      <path
         transform="matrix(0.8,0,0,0.8,10,0)"
         style="fill-rule:evenodd;stroke:#000000;stroke-width:1pt"
         d="M 0,0 5,-5 -12.5,0 5,5 Z"
         id="path1138" />
    </marker>
    <pattern
       id="EMFhbasepattern"
       patternUnits="userSpaceOnUse"
       width="6"
       height="6"
       x="0"
       y="0" />
    <marker
       inkscape:isstock="true"
       style="overflow:visible"
       id="marker3261-3"
       refX="0"
       refY="0"
       orient="auto"
       inkscape:stockid="Arrow1Mend">
      <path
         transform="matrix(-0.4,0,0,-0.4,-4,0)"
         style="fill:#000000;fill-opacity:1;fill-rule:evenodd;stroke:#000000;stroke-width:1pt;stroke-opacity:1"
         d="M 0,0 5,-5 -12.5,0 5,5 Z"
         id="path3259-7" />
    </marker>
  </defs>
  <sodipodi:namedview
     fit-margin-bottom="0"
     fit-margin-right="0"
     fit-margin-left="0"
     fit-margin-top="0"
     inkscape:window-maximized="1"
     inkscape:window-y="-8"
     inkscape:window-x="-8"
     inkscape:window-height="837"
     inkscape:window-width="1600"
     showgrid="false"
     inkscape:document-rotation="0"
     inkscape:current-layer="layer1"
     inkscape:document-units="mm"
     inkscape:cy="58.171138"
     inkscape:cx="47.426593"
     inkscape:zoom="1.979899"
     inkscape:pageshadow="2"
     inkscape:pageopacity="0.0"
     borderopacity="1.0"
     bordercolor="#666666"
     pagecolor="#ffffff"
     id="base" />
  <metadata
     id="metadata5">
    <rdf:RDF>
      <cc:Work
         rdf:about="">
        <dc:format>image/svg+xml</dc:format>
        <dc:type
           rdf:resource="http://purl.org/dc/dcmitype/StillImage" />
        <dc:title></dc:title>
      </cc:Work>
    </rdf:RDF>
  </metadata>
  <g
     transform="translate(-38.93472,-17.656032)"
     id="layer1"
     inkscape:groupmode="layer"
     inkscape:label="Layer 1">
    <path
       sodipodi:nodetypes="cssssssssssssscccssssssssssssscccccccscccccccccscccccccssssssssssssssssssssscccssssssccccccccssssssccccssccssccsssssccssscccsccsscccssccssssccsssccsssssssccsccccccccccsssssssccssssccccccccccccccccssscccccscccsccccssssccssssccssscccsccccssssccssssccsssssccsssccccccccccccssccsssscccssssc"
       id="path4218"
       d="m 68.556765,18.982651 c 0.06124,0.08902 0.0827,0.293699 0.04769,0.454812 -0.06227,0.286512 -0.07172,0.294222 -0.430972,0.351317 -0.202017,0.03212 -0.400896,0.0094 -0.441958,-0.05014 -0.05736,-0.0834 -0.132875,-0.05171 -0.326228,0.136901 -0.537777,0.524659 -0.610827,0.619509 -0.547762,0.711178 0.07824,0.113756 -0.02545,0.644747 -0.14152,0.724595 -0.04518,0.03109 -0.262816,0.02945 -0.483599,-0.0037 -0.220789,-0.0331 -0.474601,-0.0092 -0.564027,0.05291 -0.33813,0.2352 -0.666282,0.603342 -0.612229,0.686867 0.06081,0.0939 0.0044,0.739065 -0.06903,0.78957 -0.104589,0.07193 -0.730072,-8.11e-4 -0.79296,-0.09216 -0.04964,-0.07214 -0.205884,-0.0056 -0.563305,0.240439 -0.352706,0.242646 -0.475281,0.368395 -0.427209,0.438268 0.03707,0.05389 0.05042,0.280009 0.02966,0.50247 l -0.03771,0.404476 -0.355624,-0.01203 c -0.19559,-0.0066 -0.42073,-0.06835 -0.500304,-0.137093 -0.128832,-0.111264 -0.189616,-0.08824 -0.554338,0.209922 -0.326535,0.266939 -0.41158,0.390945 -0.419179,0.611117 -0.0279,0.808823 0.02991,0.740331 -0.536088,0.635118 -0.486702,-0.09047 -0.527511,-0.08071 -0.917852,0.219746 -0.398147,0.306449 -0.407626,0.326497 -0.373979,0.789806 0.01898,0.261458 0.0056,0.495196 -0.02952,0.519422 -0.03522,0.02423 -0.28201,-0.0078 -0.548426,-0.07114 -0.409017,-0.09727 -0.531017,-0.08313 -0.784021,0.09092 -0.423054,0.291042 -0.581093,0.557504 -0.554952,0.935648 0.01255,0.180095 0.0042,0.339857 -0.01828,0.355034 -0.02252,0.01516 -0.238587,-0.0042 -0.480158,-0.04308 -0.404466,-0.06508 -0.467451,-0.04702 -0.795943,0.228203 -0.268465,0.224926 -0.390528,0.415166 -0.493367,0.768879 l -0.13664,0.47 -4.006208,2.756081 -4.006215,2.756088 0.608721,0.884828 0.608719,0.884827 -0.357422,0.173049 c -0.616466,0.298455 -1.544145,0.376385 -2.342485,0.196768 -0.734716,-0.165292 -1.827151,-0.708897 -2.244621,-1.11692 l -0.218767,-0.213859 0.767011,-0.527668 0.767,-0.527658 -0.57585,-0.837053 -0.575853,-0.837052 -0.77047,0.530046 -0.770468,0.530046 -0.121286,-0.280918 c -0.258695,-0.599223 -0.360581,-1.75462 -0.226717,-2.570997 0.144849,-0.883343 0.457968,-1.526408 0.980554,-2.013757 l 0.324403,-0.302526 0.607973,0.883743 0.607971,0.88374 3.787044,-2.602554 3.787055,-2.602562 0.596888,-0.02107 c 0.802256,-0.02837 1.228033,-0.302354 1.195741,-0.769423 -0.0122,-0.176586 0.0035,-0.33868 0.03472,-0.360219 0.0313,-0.02154 0.270219,-0.0094 0.530918,0.02714 0.429834,0.06011 0.515889,0.03747 0.923573,-0.242989 0.433138,-0.29798 0.448653,-0.322938 0.423493,-0.68373 -0.01429,-0.205941 -0.01011,-0.385464 0.0094,-0.398939 0.09589,-0.06597 0.840825,0.02696 0.899476,0.112223 0.04336,0.06304 0.247411,0.0021 0.576067,-0.171881 0.533415,-0.282503 0.590471,-0.385892 0.536183,-0.971796 -0.01272,-0.138051 0.04765,-0.158757 0.41114,-0.140945 0.234374,0.0115 0.477297,0.05603 0.539832,0.09899 0.07953,0.05462 0.24922,-0.01516 0.5647,-0.232177 0.434766,-0.2991 0.450067,-0.323736 0.424916,-0.684709 -0.01429,-0.20594 0.01011,-0.399337 0.05432,-0.429766 0.137407,-0.09452 0.852402,-0.02325 0.932347,0.09302 0.04866,0.07073 0.154313,0.05631 0.294642,-0.04022 0.120327,-0.08279 0.337369,-0.201377 0.482315,-0.263558 0.232598,-0.09976 0.262255,-0.159507 0.252611,-0.508728 -0.0059,-0.217625 0.01499,-0.414108 0.04657,-0.436624 0.125468,-0.08943 0.823308,-0.0515 0.942195,0.05112 0.102794,0.08873 0.212313,0.05012 0.584657,-0.206023 0.404889,-0.278542 0.460484,-0.351313 0.47805,-0.625677 l 0.01989,-0.310475 0.397823,-0.07196 c 0.218805,-0.03958 0.427066,-0.02945 0.462807,0.02248 0.0386,0.05614 0.279907,-0.0037 0.594714,-0.147359 0.511295,-0.233402 0.532124,-0.253375 0.598464,-0.573654 0.06829,-0.329819 0.07099,-0.332198 0.439904,-0.390831 0.21159,-0.03362 0.439165,9.52e-4 0.529316,0.08035 0.09445,0.0832 0.24518,0.03437 0.395744,0.0507 l 1.223072,0.132718 -0.08244,0.08425 -1.441202,-0.125939 1.274235,1.103779 0.140666,-1.062872 0.116684,0.0024 z m -1.613786,-1.205188 c -0.01813,-0.02628 -0.166095,-0.01943 -0.328815,0.01534 -0.252622,0.0538 -0.303539,0.09553 -0.348568,0.285592 -0.05103,0.215379 -0.02952,0.241826 0.665521,0.818179 0.931979,0.772828 0.943673,0.779643 1.245818,0.726201 0.210484,-0.03723 0.266462,-0.08401 0.307446,-0.257041 0.04753,-0.200567 0.0098,-0.24593 -0.729152,-0.87595 -0.428604,-0.365435 -0.794114,-0.685931 -0.812252,-0.712219 z m 0.150408,1.452377 -0.360634,-0.268402 -0.403727,0.297794 c -0.445359,0.328518 -0.444697,0.339662 0.05058,0.85412 0.266296,0.276619 0.358183,0.249223 0.893852,-0.266471 0.290677,-0.279842 0.295571,-0.263056 -0.180074,-0.617048 z m -1.508375,-0.449976 c -0.347442,0.169772 -0.382426,0.207093 -0.267884,0.285757 0.100214,0.06883 0.234165,0.01922 0.55956,-0.20725 0.493656,-0.343571 0.337034,-0.385715 -0.291672,-0.0785 z m 0.125347,0.906361 c -0.858148,-0.82288 -0.909442,-0.857408 -1.204144,-0.81057 -0.288281,0.04582 -0.308529,0.06537 -0.319133,0.308092 -0.01081,0.246199 0.03676,0.302954 0.949545,1.134253 0.868646,0.791088 0.989858,0.873166 1.262845,0.855138 0.287082,-0.01896 0.302341,-0.03092 0.309479,-0.242733 0.0098,-0.287606 0.04552,-0.242973 -0.998594,-1.244173 z m -0.612217,0.790025 c -0.309851,-0.272517 -0.572276,-0.508437 -0.583167,-0.524269 -0.01098,-0.01586 -0.22161,0.116876 -0.468255,0.294898 -0.414949,0.299575 -0.43767,0.334 -0.304002,0.461934 0.07946,0.07606 0.356547,0.358103 0.615792,0.626798 l 0.471338,0.488536 0.482433,-0.331892 c 0.335842,-0.231043 0.462201,-0.360546 0.41583,-0.426205 -0.03669,-0.05185 -0.320117,-0.317284 -0.629973,-0.589797 z m -1.186083,0.625774 c -0.459715,-0.449985 -0.901316,-0.890234 -0.981343,-0.978323 -0.08003,-0.08808 -0.278498,-0.152239 -0.441042,-0.142566 -0.281488,0.01673 -0.29793,0.0305 -0.345761,0.289219 l -0.05021,0.271626 1.099422,1.07815 c 0.962116,0.943496 1.135095,1.079455 1.38504,1.088605 0.272307,0.0099 0.2882,-5.27e-4 0.341187,-0.224052 0.071,-0.29964 10e-4,-0.395656 -1.007286,-1.382652 z m -0.542593,0.86994 c -0.747293,-0.718428 -0.786638,-0.732057 -1.230931,-0.426405 -0.205319,0.141258 -0.371453,0.293384 -0.369189,0.338067 0.0059,0.112815 1.141078,1.293974 1.265988,1.317065 0.08683,0.01603 0.919286,-0.64103 0.881567,-0.69586 -0.0073,-0.01063 -0.253697,-0.250475 -0.547433,-0.532863 z M 61.651635,21.09575 c -0.23266,0.160064 -0.384257,0.30808 -0.336889,0.328926 0.04737,0.02084 0.25815,-0.08043 0.468387,-0.225066 0.210243,-0.144639 0.361842,-0.292659 0.336891,-0.328926 -0.02496,-0.03629 -0.23573,0.06503 -0.468389,0.225066 z m 0.41249,1.389678 c -0.458547,-0.450789 -0.941005,-0.930088 -1.072116,-1.06512 -0.151036,-0.15555 -0.336999,-0.243285 -0.507503,-0.23944 -0.344443,0.0078 -0.348158,0.01115 -0.341243,0.317862 0.0052,0.235976 0.106646,0.361444 1.178367,1.45917 0.644895,0.66055 1.178703,1.197477 1.186237,1.193173 0.0077,-0.0044 0.135368,0.004 0.284088,0.01853 0.261125,0.02546 0.272349,0.01804 0.327828,-0.216065 0.07355,-0.310482 -0.04307,-0.472677 -1.055651,-1.468112 z m -0.809604,0.610989 c -0.230123,-0.217282 -0.46559,-0.415831 -0.523265,-0.441216 -0.05767,-0.02539 -0.298518,0.08369 -0.535224,0.242393 l -0.430385,0.288513 0.209849,0.215907 c 0.115429,0.11874 0.433325,0.453142 0.706474,0.7431 l 0.496646,0.527226 0.446133,-0.306919 0.446135,-0.306919 -0.199001,-0.28351 C 61.762379,23.619093 61.484613,23.313696 61.25449,23.09641 Z m -1.323478,-0.929085 c -0.0949,0.06529 -0.294317,0.170939 -0.443106,0.234761 -0.229421,0.0984 -0.254916,0.138714 -0.167837,0.265287 0.0866,0.125887 0.152587,0.11339 0.421562,-0.07981 0.175384,-0.125992 0.320487,-0.280611 0.322444,-0.343617 0.0023,-0.07095 0.0289,-0.07865 0.07017,-0.02025 0.0366,0.05192 0.09976,0.07151 0.1403,0.04362 0.04054,-0.02789 0.01867,-0.08852 -0.04861,-0.134723 -0.06727,-0.0462 -0.199989,-0.03057 -0.294915,0.0347 z m 0.2245,1.639312 c -0.523894,-0.533666 -1.040016,-1.063366 -1.146934,-1.177114 -0.128901,-0.137162 -0.300772,-0.199456 -0.510226,-0.184979 -0.311595,0.02154 -0.315752,0.02562 -0.309495,0.303178 0.0073,0.322112 0.143106,0.489025 1.516995,1.86415 0.716511,0.717147 0.91267,0.868567 1.190319,0.918829 l 0.332434,0.06018 0.01638,-0.29158 c 0.02079,-0.369263 0.04247,-0.339566 -1.089521,-1.492662 z m -0.80765,0.63971 -0.578263,-0.583146 -0.456937,0.314353 -0.456938,0.314352 0.325813,0.364433 c 0.179206,0.200432 0.509402,0.553448 0.73379,0.784455 l 0.407973,0.420023 0.476258,-0.327647 0.47626,-0.327643 -0.174847,-0.188012 c -0.09615,-0.103421 -0.435071,-0.450431 -0.753109,-0.771168 z m -1.69165,-0.938289 c -0.251116,0.172752 -0.438381,0.339428 -0.416148,0.370374 0.109661,0.15264 0.306147,0.127438 0.693828,-0.08895 0.403845,-0.225423 0.41907,-0.246397 0.302085,-0.416445 -0.115656,-0.168134 -0.151071,-0.15989 -0.579765,0.135036 z m 0.28233,1.31925 c -0.998955,-1.058983 -1.11685,-1.15831 -1.407385,-1.185681 l -0.317093,-0.02987 -0.02464,0.249363 c -0.03245,0.328349 0.05206,0.439592 1.409844,1.855988 0.965199,1.006873 1.206744,1.217194 1.461459,1.272552 l 0.305148,0.06632 0.02708,-0.334671 c 0.01959,-0.242065 -0.02705,-0.390501 -0.168517,-0.536435 -0.107569,-0.110968 -0.686226,-0.721883 -1.285883,-1.357576 z m -0.518775,0.917445 -0.545556,-0.521567 -0.453255,0.278191 c -0.427327,0.262283 -0.446347,0.288189 -0.332544,0.452997 0.216564,0.313522 1.34612,1.457917 1.459868,1.478945 0.06097,0.01133 0.268763,-0.123482 0.461763,-0.299447 0.350597,-0.319651 0.350727,-0.320189 0.153093,-0.59375 -0.108772,-0.150618 -0.443312,-0.508512 -0.743372,-0.79537 z m -1.597935,-1.086845 c -0.184916,0.127211 -0.404667,0.247778 -0.48835,0.267913 -0.112763,0.02714 -0.11956,0.08397 -0.02614,0.219782 0.186956,0.271751 0.33063,0.259569 0.736137,-0.06243 0.331391,-0.263138 0.354243,-0.308166 0.24038,-0.473671 -0.113895,-0.165537 -0.157746,-0.160936 -0.462026,0.0484 z m 0.266896,1.554097 c -1.051719,-1.123328 -1.175936,-1.230342 -1.46483,-1.261947 -0.397856,-0.04352 -0.40172,-0.04024 -0.376806,0.320129 0.01957,0.283321 0.08821,0.3706 1.272703,1.618895 1.116244,1.176369 1.289498,1.327799 1.5979,1.3966 l 0.345912,0.07717 0.02613,-0.333111 c 0.01499,-0.190867 -0.03322,-0.388021 -0.11285,-0.461717 -0.07644,-0.07074 -0.656095,-0.680947 -1.288137,-1.356027 z m -0.716874,0.717395 -0.406392,-0.393083 -0.287568,0.186305 c -0.158182,0.102445 -0.272785,0.206521 -0.254686,0.231277 0.146522,0.200482 1.193723,1.392133 1.324812,1.507645 0.124841,0.110009 0.235833,0.10966 0.445799,-0.0014 0.153772,-0.0813 0.271108,-0.194768 0.260694,-0.252258 -0.0249,-0.137912 -0.574886,-0.787368 -1.082638,-1.278492 z m -1.309501,-1.217228 c -0.08369,0.02015 -0.219996,0.08331 -0.302929,0.140353 -0.124005,0.08531 -0.11665,0.144291 0.04136,0.331955 0.163166,0.193802 0.234628,0.210127 0.473942,0.108214 0.272091,-0.115848 0.27591,-0.128553 0.110811,-0.368573 -0.107657,-0.156473 -0.227386,-0.235017 -0.323159,-0.21197 z m 0.267224,1.362742 c -0.493065,-0.576854 -0.904493,-1.046563 -0.914279,-1.043802 -0.0098,0.0028 -0.227462,0.01185 -0.483728,0.02027 -0.287254,0.0094 -0.439519,0.05148 -0.397047,0.109643 0.317128,0.434282 2.877279,3.297979 2.983044,3.317538 0.202728,0.03747 0.374396,-0.557997 0.265267,-0.716628 -0.05074,-0.07376 -0.960189,-1.110232 -1.453259,-1.687083 z m -0.342353,0.977051 c -0.394445,-0.436725 -0.734954,-0.797361 -0.756723,-0.801388 -0.02175,-0.0042 -1.503554,1.002969 -3.292851,2.237759 -3.15301,2.176006 -3.253346,2.251917 -3.255147,2.468291 -0.0015,0.175959 -0.08957,0.283548 -0.416089,0.508177 l -0.41421,0.284958 0.863778,1.255578 0.863781,1.255579 3.965843,-2.728312 3.965844,-2.728316 -0.403555,-0.479113 C 54.885956,29.061684 54.381681,28.488722 53.987244,28.05199 Z M 52.232764,26.23017 c -0.04479,-1.3e-5 -1.39283,0.915921 -2.995661,2.035405 l -2.914228,2.03545 0.09366,0.21328 c 0.06818,0.155358 0.127054,0.190691 0.216925,0.129895 2.132765,-1.442516 5.888562,-4.063445 5.917679,-4.129477 0.04059,-0.09227 -0.174433,-0.284498 -0.31835,-0.284572 z m -8.482311,3.789415 c -0.297009,-0.430582 -0.374492,-0.402993 -0.875197,0.311568 -0.464071,0.662269 -0.683807,1.901003 -0.517388,2.916703 0.20885,1.274728 0.153075,1.240012 1.026626,0.63905 0.419999,-0.288938 0.781076,-0.489223 0.82414,-0.457139 0.04218,0.03142 0.325569,0.441826 0.629605,0.912185 l 0.553133,0.854959 -0.749061,0.515319 c -0.873728,0.601084 -0.884376,0.539557 0.203234,1.173654 1.094633,0.638196 2.536842,0.827378 3.394157,0.445234 0.173903,-0.0775 0.340281,-0.195688 0.369726,-0.262614 0.0416,-0.09458 -0.465675,-0.85268 -2.278261,-3.404657 -1.28249,-1.805653 -2.443891,-3.445521 -2.580938,-3.644132 z"
       style="fill:#9a4832;fill-opacity:1;stroke-width:0.0317068" />
    <path
       sodipodi:nodetypes="cc"
       id="path1136"
       d="m 49.942299,24.977914 9.043242,-6.296776"
       style="fill:none;stroke:#a6a7a3;stroke-width:0.534034;stroke-linecap:butt;stroke-linejoin:miter;stroke-miterlimit:4;stroke-dasharray:none;stroke-opacity:1;marker-end:url(#marker4928)" />
    <path
       sodipodi:nodetypes="cc"
       id="path7010"
       d="m 54.425071,35.449182 c 4.34649,-3.888138 9.553018,-4.012986 9.553018,-4.012986"
       style="fill:none;stroke:#a6a7a3;stroke-width:0.534034;stroke-linecap:butt;stroke-linejoin:miter;stroke-miterlimit:4;stroke-dasharray:none;stroke-opacity:1;marker-end:url(#marker4734)" />
    <path
       style="fill:none;stroke:#a6a7a3;stroke-width:0.375127px;stroke-linecap:butt;stroke-linejoin:miter;stroke-opacity:1"
       d="m 61.342996,43.511817 c 1.980054,-1.884542 4.121885,-1.743226 4.121885,-1.743226"
       id="path7010-1"
       sodipodi:nodetypes="cc" />
    <path
       id="path3293"
       d="M 65.573372,48.658302 65.573056,31.469375"
       style="fill:none;stroke:#c28f48;stroke-width:0.375127px;stroke-linecap:butt;stroke-linejoin:miter;stroke-opacity:1" />
    <path
       id="path3295"
       d="M 65.573372,48.658302 54.402771,35.40253"
       style="fill:none;stroke:#c28f48;stroke-width:0.375127px;stroke-linecap:butt;stroke-linejoin:miter;stroke-opacity:1" />
    <path
       id="path3297"
       d="M 50.975293,59.399773 99.823492,23.423735"
       style="fill:none;stroke:#d3c7b1;stroke-width:0.375127;stroke-linecap:butt;stroke-linejoin:miter;stroke-miterlimit:4;stroke-dasharray:3.00103, 0.750255, 0.375127, 0.750255;stroke-dashoffset:0;stroke-opacity:1" />
    <path
       id="path3299"
       d="M 65.573372,48.658302 88.554165,31.712424"
       style="fill:none;stroke:#3d677b;stroke-width:0.534034;stroke-linecap:butt;stroke-linejoin:miter;stroke-miterlimit:4;stroke-dasharray:none;stroke-opacity:1;marker-end:url(#Arrow1Send)" />
    <path
       style="fill:none;stroke:#a6a7a3;stroke-width:0.534034;stroke-linecap:butt;stroke-linejoin:miter;stroke-miterlimit:4;stroke-dasharray:none;stroke-opacity:1;marker-end:url(#marker4918)"
       d="m 42.169547,39.034768 c -4.949572,-4.94835 -1.849013,-9.180873 -1.849013,-9.180873"
       id="path7010-5"
       sodipodi:nodetypes="cc" />
    <g
       transform="matrix(0.423334,0,0,0.423334,61.633878,39.172804)"
       ns1:version="1.1.0"
       ns1:texconverter="pdflatex"
       ns1:pdfconverter="inkscape"
       ns1:text="$\\varphi$"
       ns1:preamble="C:\\Users\\flvisa\\Desktop\\lna\\latexify_books\\textext_preamble.tex"
       ns1:scale="1.199999773228722"
       ns1:alignment="middle center"
       ns1:inkscapeversion="1.0"
       ns1:jacobian_sqrt="0.423334"
       id="g3531"
       style="fill:#a6a7a3">
      <defs
         id="id-ee089695-940b-4888-8f1e-d0b67dd2f287">
        <g
           id="id-0acdfd05-f57e-4dd8-b5b6-8b7390dd5cae">
          <symbol
             id="id-55563677-4c87-4138-8cb0-22f438b6cabf"
             overflow="visible">
            <path
               id="id-52e4600a-4070-4458-96ad-dc8829e0b22d"
               d=""
               style="stroke:none" />
          </symbol>
          <symbol
             id="id-eff9332f-e1eb-4d3d-a302-6c959d30af0a"
             overflow="visible">
            <path
               id="id-957649d3-b2c6-45c7-a0e7-9221114f7f14"
               d="m 4.6875,-2.828125 c 0,-0.875 -0.421875,-1.53125 -0.953125,-1.53125 -0.859375,0 -1.375,0.90625 -1.765625,2.9375 L 1.8125,-0.5625 H 1.75 c -0.78125,0 -1.125,-0.28125 -1.125,-0.921875 0,-1.15625 1.234375,-2.359375 2.0625,-2.484375 V -4 c 0,-0.234375 -0.390625,-0.359375 -0.625,-0.359375 -0.484375,0 -1.828125,1.375 -1.828125,2.796875 0,0.890625 0.5,1.546875 1.453125,1.65625 L 1.328125,1.9375 v 0.015625 c 0,0.15625 0.421875,0.34375 0.46875,0.34375 0.09375,0 0.171875,-0.0625 0.25,-0.15625 V 2.03125 C 2.046875,1.6875 2.140625,0.75 2.25,0.109375 3.59375,-0.09375 4.6875,-1.28125 4.6875,-2.828125 Z m -2.359375,2.21875 c 0.1875,-1.171875 0.5,-3.203125 1.390625,-3.203125 0.390625,0 0.609375,0.28125 0.609375,0.734375 0,1.171875 -0.875,2.328125 -2,2.46875 z m 0,0"
               style="stroke:none" />
          </symbol>
        </g>
      </defs>
      <g
         transform="translate(-149.225,-130.406)"
         id="id-9fdad59c-6288-4f4d-b7d7-37bb7585e86f"
         style="fill:#a6a7a3">
        <g
           id="id-b4e536a4-603b-4a76-a07b-20fc9369b36f"
           style="fill:#a6a7a3;fill-opacity:1">
          <g
             transform="translate(148.991,134.765)"
             id="g3527"
             style="fill:#a6a7a3">
            <path
               id="id-9f6f7406-4183-44c7-969b-ed167a18e7c5"
               d="m 4.6875,-2.828125 c 0,-0.875 -0.421875,-1.53125 -0.953125,-1.53125 -0.859375,0 -1.375,0.90625 -1.765625,2.9375 L 1.8125,-0.5625 H 1.75 c -0.78125,0 -1.125,-0.28125 -1.125,-0.921875 0,-1.15625 1.234375,-2.359375 2.0625,-2.484375 V -4 c 0,-0.234375 -0.390625,-0.359375 -0.625,-0.359375 -0.484375,0 -1.828125,1.375 -1.828125,2.796875 0,0.890625 0.5,1.546875 1.453125,1.65625 L 1.328125,1.9375 v 0.015625 c 0,0.15625 0.421875,0.34375 0.46875,0.34375 0.09375,0 0.171875,-0.0625 0.25,-0.15625 V 2.03125 C 2.046875,1.6875 2.140625,0.75 2.25,0.109375 3.59375,-0.09375 4.6875,-1.28125 4.6875,-2.828125 Z m -2.359375,2.21875 c 0.1875,-1.171875 0.5,-3.203125 1.390625,-3.203125 0.390625,0 0.609375,0.28125 0.609375,0.734375 0,1.171875 -0.875,2.328125 -2,2.46875 z m 0,0"
               style="fill:#a6a7a3;stroke:none" />
          </g>
        </g>
      </g>
    </g>
    <circle
       style="fill:#c28f48;stroke:#c28f48"
       r="0.49367505"
       cx="54.476692"
       cy="35.410999"
       fill="#ffffff"
       stroke="#000000"
       stroke-width="1.4178"
       id="circle3642" />
    <circle
       id="circle3642-6"
       stroke-width="1.4178"
       stroke="#000000"
       fill="#ffffff"
       cy="31.486797"
       cx="65.645485"
       r="0.49367505"
       style="fill:#c28f48;stroke:#c28f48" />
  </g>
</svg>
