<?xml version="1.0" encoding="UTF-8" standalone="no"?>
<svg
   xmlns:ns1="http://www.iki.fi/pav/software/textext/"
   xmlns:dc="http://purl.org/dc/elements/1.1/"
   xmlns:cc="http://creativecommons.org/ns#"
   xmlns:rdf="http://www.w3.org/1999/02/22-rdf-syntax-ns#"
   xmlns:svg="http://www.w3.org/2000/svg"
   xmlns="http://www.w3.org/2000/svg"
   xmlns:sodipodi="http://sodipodi.sourceforge.net/DTD/sodipodi-0.dtd"
   xmlns:inkscape="http://www.inkscape.org/namespaces/inkscape"
   width="61.000004mm"
   height="51.350685mm"
   viewBox="0 0 61.000003 51.350685"
   version="1.1"
   id="svg8"
   inkscape:version="1.0 (4035a4fb49, 2020-05-01)"
   sodipodi:docname="fig_1_1.svg">
  <defs
     id="defs2">
    <g
       id="id-299b88cb-9907-436f-a2b8-fb99e9c1664d-6">
      <symbol
         overflow="visible"
         id="id-3fc51c15-9dd5-4d22-a2e6-6b41a3a4bf24-7">
        <path
           style="stroke:none"
           d=""
           id="id-5b02a62f-914d-4716-829e-30cade9912fd-6" />
      </symbol>
      <symbol
         overflow="visible"
         id="id-743bb4b2-a437-43e7-8fc3-53daccadf02b-2">
        <path
           style="stroke:none"
           d="M 4.125,-0.3125 C 4.046875,-0.25 4,-0.03125 4.046875,0.03125 4.578125,0.015625 4.78125,-0.03125 5.3125,-0.03125 c 0.484375,0 0.875,0.046875 1.328125,0.0625 C 6.65625,0 6.703125,-0.234375 6.671875,-0.3125 6.59375,-0.3125 5.96875,-0.359375 5.90625,-0.703125 5.890625,-0.75 5.84375,-1.09375 5.765625,-1.53125 L 4.734375,-7.984375 C 4.71875,-8 4.703125,-8.015625 4.671875,-8.015625 c -0.09375,0 -0.375,0.15625 -0.484375,0.34375 L 0.84375,-1.6875 C 0.609375,-1.25 0.375,-0.859375 0.09375,-0.546875 -0.046875,-0.390625 -0.46875,-0.3125 -0.59375,-0.3125 -0.640625,-0.234375 -0.6875,0 -0.671875,0.03125 -0.140625,0.015625 0,-0.03125 0.53125,-0.03125 c 0.484375,0 0.625,0.046875 1.078125,0.0625 0.03125,-0.0625 0.0625,-0.3125 0.046875,-0.34375 -0.09375,0 -0.765625,-0.03125 -0.765625,-0.296875 C 0.890625,-0.78125 1.03125,-1.09375 1.25,-1.5 1.34375,-1.703125 1.703125,-2.34375 2.109375,-3.09375 H 4.5 l 0.28125,1.8125 c 0.03125,0.234375 0.03125,0.46875 0.03125,0.59375 0,0.234375 -0.265625,0.375 -0.6875,0.375 z M 2.328125,-3.484375 3.984375,-6.46875 4.4375,-3.484375 Z m 0,0"
           id="id-44aabfd1-3fc9-4ee0-81d2-7bf80e366047-5" />
      </symbol>
    </g>
    <g
       id="id-299b88cb-9907-436f-a2b8-fb99e9c1664d-4">
      <symbol
         overflow="visible"
         id="id-3fc51c15-9dd5-4d22-a2e6-6b41a3a4bf24-6">
        <path
           style="stroke:none"
           d=""
           id="id-5b02a62f-914d-4716-829e-30cade9912fd-62" />
      </symbol>
      <symbol
         overflow="visible"
         id="id-743bb4b2-a437-43e7-8fc3-53daccadf02b-5">
        <path
           style="stroke:none"
           d="M 4.125,-0.3125 C 4.046875,-0.25 4,-0.03125 4.046875,0.03125 4.578125,0.015625 4.78125,-0.03125 5.3125,-0.03125 c 0.484375,0 0.875,0.046875 1.328125,0.0625 C 6.65625,0 6.703125,-0.234375 6.671875,-0.3125 6.59375,-0.3125 5.96875,-0.359375 5.90625,-0.703125 5.890625,-0.75 5.84375,-1.09375 5.765625,-1.53125 L 4.734375,-7.984375 C 4.71875,-8 4.703125,-8.015625 4.671875,-8.015625 c -0.09375,0 -0.375,0.15625 -0.484375,0.34375 L 0.84375,-1.6875 C 0.609375,-1.25 0.375,-0.859375 0.09375,-0.546875 -0.046875,-0.390625 -0.46875,-0.3125 -0.59375,-0.3125 -0.640625,-0.234375 -0.6875,0 -0.671875,0.03125 -0.140625,0.015625 0,-0.03125 0.53125,-0.03125 c 0.484375,0 0.625,0.046875 1.078125,0.0625 0.03125,-0.0625 0.0625,-0.3125 0.046875,-0.34375 -0.09375,0 -0.765625,-0.03125 -0.765625,-0.296875 C 0.890625,-0.78125 1.03125,-1.09375 1.25,-1.5 1.34375,-1.703125 1.703125,-2.34375 2.109375,-3.09375 H 4.5 l 0.28125,1.8125 c 0.03125,0.234375 0.03125,0.46875 0.03125,0.59375 0,0.234375 -0.265625,0.375 -0.6875,0.375 z M 2.328125,-3.484375 3.984375,-6.46875 4.4375,-3.484375 Z m 0,0"
           id="id-44aabfd1-3fc9-4ee0-81d2-7bf80e366047-8" />
      </symbol>
    </g>
    <g
       id="id-1728efab-6604-4eb0-bb0d-a0dbc9be56c1-8">
      <symbol
         overflow="visible"
         id="id-2cb82501-7191-406f-a45f-488ac4541b91-9">
        <path
           style="stroke:none"
           d=""
           id="id-84c2c9d8-bc50-41e0-84a2-d48bbd5fc6d9-3" />
      </symbol>
      <symbol
         overflow="visible"
         id="id-77faca0c-53a8-4569-b870-342099705d6e-6">
        <path
           style="stroke:none"
           d="m 2.640625,-4.46875 0.390625,-2.125 c 0.078125,-0.359375 0.140625,-0.75 0.234375,-0.90625 0.0625,-0.109375 0.46875,-0.125 0.59375,-0.125 1.046875,0 1.375,0.625 1.375,1.3125 0,1.03125 -0.640625,1.84375 -1.453125,1.84375 z m -0.71875,3.78125 c 0,-0.203125 0.078125,-0.59375 0.09375,-0.71875 L 2.5625,-4.09375 h 0.671875 c 1.6875,0 1.71875,1.015625 1.71875,1.390625 v 0.03125 c 0,1.5 -0.90625,2.328125 -2.15625,2.328125 -0.421875,0 -0.875,0 -0.875,-0.34375 z m 0.90625,-7.265625 c -0.4375,0 -0.875,-0.03125 -1.328125,-0.0625 -0.046875,0.046875 -0.078125,0.15625 -0.078125,0.265625 0,0.03125 0,0.0625 0.015625,0.09375 0.1875,0 0.734375,0.046875 0.734375,0.25 0,0.1875 -0.0625,0.515625 -0.109375,0.828125 L 1.046875,-1.4375 c -0.0625,0.359375 -0.125,0.703125 -0.21875,0.890625 -0.0625,0.125 -0.6875,0.203125 -0.8125,0.203125 -0.046875,0.046875 -0.09375,0.171875 -0.09375,0.265625 0,0.046875 0,0.0625 0.015625,0.078125 h 2.59375 c 2.046875,0 3.5625,-1.09375 3.5625,-2.734375 0,-1 -0.6875,-1.640625 -1.234375,-1.6875 0.46875,-0.265625 1.4375,-0.859375 1.4375,-2.0625 0,-1.046875 -0.859375,-1.484375 -1.890625,-1.484375 -0.671875,0 -1.15625,0.015625 -1.578125,0.015625 z m 0,0"
           id="id-47bdb5dd-71f1-47f0-b15d-99ec642a5518-2" />
      </symbol>
    </g>
    <g
       id="id-93388952-5820-4b55-b4db-85194272ab6e-0">
      <symbol
         overflow="visible"
         id="id-b740ae7d-866c-4c9c-b5b6-502a733ac507-0">
        <path
           style="stroke:none"
           d=""
           id="id-8747d854-e67a-42d2-b5b6-39b4880e5f82-4" />
      </symbol>
      <symbol
         overflow="visible"
         id="id-e71ade56-6bea-4322-9ef6-6d15d355bd46-0">
        <path
           style="stroke:none"
           d="m 2.640625,-4.46875 0.390625,-2.125 c 0.078125,-0.359375 0.140625,-0.75 0.234375,-0.90625 0.0625,-0.109375 0.46875,-0.125 0.59375,-0.125 1.046875,0 1.375,0.625 1.375,1.3125 0,1.03125 -0.640625,1.84375 -1.453125,1.84375 z m -0.71875,3.78125 c 0,-0.203125 0.078125,-0.59375 0.09375,-0.71875 L 2.5625,-4.09375 h 0.671875 c 1.6875,0 1.71875,1.015625 1.71875,1.390625 v 0.03125 c 0,1.5 -0.90625,2.328125 -2.15625,2.328125 -0.421875,0 -0.875,0 -0.875,-0.34375 z m 0.90625,-7.265625 c -0.4375,0 -0.875,-0.03125 -1.328125,-0.0625 -0.046875,0.046875 -0.078125,0.15625 -0.078125,0.265625 0,0.03125 0,0.0625 0.015625,0.09375 0.1875,0 0.734375,0.046875 0.734375,0.25 0,0.1875 -0.0625,0.515625 -0.109375,0.828125 L 1.046875,-1.4375 c -0.0625,0.359375 -0.125,0.703125 -0.21875,0.890625 -0.0625,0.125 -0.6875,0.203125 -0.8125,0.203125 -0.046875,0.046875 -0.09375,0.171875 -0.09375,0.265625 0,0.046875 0,0.0625 0.015625,0.078125 h 2.59375 c 2.046875,0 3.5625,-1.09375 3.5625,-2.734375 0,-1 -0.6875,-1.640625 -1.234375,-1.6875 0.46875,-0.265625 1.4375,-0.859375 1.4375,-2.0625 0,-1.046875 -0.859375,-1.484375 -1.890625,-1.484375 -0.671875,0 -1.15625,0.015625 -1.578125,0.015625 z m 0,0"
           id="id-f613ce68-b23e-4320-b237-e08c3497620b-2" />
      </symbol>
      <symbol
         overflow="visible"
         id="id-f57438e2-6698-48cb-b011-eb44a906b254-2">
        <path
           style="stroke:none"
           d=""
           id="id-3727083f-4ffa-4dc3-8812-46ceb22935c0-1" />
      </symbol>
      <symbol
         overflow="visible"
         id="id-3ad86b45-2bb9-4e14-a277-7765d75e451b-8">
        <path
           style="stroke:none"
           d="M 2.609375,-3.609375 C 2.609375,-3.90625 2.28125,-4.125 2,-4.125 c -0.3125,0 -0.46875,0.328125 -0.5625,0.578125 l -0.90625,2.65625 C 0.5,-0.8125 0.4375,-0.65625 0.4375,-0.578125 c 0,0.078125 0.046875,0.1875 0.140625,0.1875 0.125,0 0.28125,-0.1875 0.34375,-0.28125 l 1.4375,-2.265625 c 0.125,-0.1875 0.25,-0.4375 0.25,-0.671875 z m 0,0"
           id="id-cbc5b750-7851-4f4c-a05c-0c917d5795bf-2" />
      </symbol>
    </g>
    <g
       id="id-f330f04b-00ce-4d9b-9f7f-041ba5f1aafc-7">
      <symbol
         overflow="visible"
         id="id-53b2c4df-ab32-4832-8631-aa7e1ea77305-6">
        <path
           style="stroke:none"
           d=""
           id="id-04e4f12b-c61b-4544-b6a1-3731d878491d-4" />
      </symbol>
      <symbol
         overflow="visible"
         id="id-1d7d341e-19ea-4406-bb4e-e5fd9a9f2b5b-5">
        <path
           style="stroke:none"
           d="M 4.125,-0.3125 C 4.046875,-0.25 4,-0.03125 4.046875,0.03125 4.578125,0.015625 4.78125,-0.03125 5.3125,-0.03125 c 0.484375,0 0.875,0.046875 1.328125,0.0625 C 6.65625,0 6.703125,-0.234375 6.671875,-0.3125 6.59375,-0.3125 5.96875,-0.359375 5.90625,-0.703125 5.890625,-0.75 5.84375,-1.09375 5.765625,-1.53125 L 4.734375,-7.984375 C 4.71875,-8 4.703125,-8.015625 4.671875,-8.015625 c -0.09375,0 -0.375,0.15625 -0.484375,0.34375 L 0.84375,-1.6875 C 0.609375,-1.25 0.375,-0.859375 0.09375,-0.546875 -0.046875,-0.390625 -0.46875,-0.3125 -0.59375,-0.3125 -0.640625,-0.234375 -0.6875,0 -0.671875,0.03125 -0.140625,0.015625 0,-0.03125 0.53125,-0.03125 c 0.484375,0 0.625,0.046875 1.078125,0.0625 0.03125,-0.0625 0.0625,-0.3125 0.046875,-0.34375 -0.09375,0 -0.765625,-0.03125 -0.765625,-0.296875 C 0.890625,-0.78125 1.03125,-1.09375 1.25,-1.5 1.34375,-1.703125 1.703125,-2.34375 2.109375,-3.09375 H 4.5 l 0.28125,1.8125 c 0.03125,0.234375 0.03125,0.46875 0.03125,0.59375 0,0.234375 -0.265625,0.375 -0.6875,0.375 z M 2.328125,-3.484375 3.984375,-6.46875 4.4375,-3.484375 Z m 0,0"
           id="id-2453d232-7b1e-4ff7-ae0c-9d6a7d739057-5" />
      </symbol>
      <symbol
         overflow="visible"
         id="id-98d5b1d3-e8b5-49e8-a85b-0b756f5351be-0">
        <path
           style="stroke:none"
           d=""
           id="id-e8b3227a-9eb1-4149-b525-7cb2cf750fbd-5" />
      </symbol>
      <symbol
         overflow="visible"
         id="id-8e93d5e9-0907-4d4c-93af-70c7995a7d14-0">
        <path
           style="stroke:none"
           d="M 2.609375,-3.609375 C 2.609375,-3.90625 2.28125,-4.125 2,-4.125 c -0.3125,0 -0.46875,0.328125 -0.5625,0.578125 l -0.90625,2.65625 C 0.5,-0.8125 0.4375,-0.65625 0.4375,-0.578125 c 0,0.078125 0.046875,0.1875 0.140625,0.1875 0.125,0 0.28125,-0.1875 0.34375,-0.28125 l 1.4375,-2.265625 c 0.125,-0.1875 0.25,-0.4375 0.25,-0.671875 z m 0,0"
           id="id-b5f89d65-2da4-468b-86a8-47a43b11c5dd-5" />
      </symbol>
    </g>
  </defs>
  <sodipodi:namedview
     inkscape:document-rotation="0"
     fit-margin-bottom="0"
     fit-margin-right="0"
     fit-margin-left="0"
     fit-margin-top="0"
     inkscape:window-maximized="1"
     inkscape:window-y="-8"
     inkscape:window-x="-8"
     inkscape:window-height="837"
     inkscape:window-width="1600"
     showgrid="false"
     inkscape:current-layer="layer1"
     inkscape:document-units="mm"
     inkscape:cy="118.09672"
     inkscape:cx="70.736184"
     inkscape:zoom="1.979899"
     inkscape:pageshadow="2"
     inkscape:pageopacity="0.0"
     borderopacity="1.0"
     bordercolor="#666666"
     pagecolor="#ffffff"
     id="base" />
  <metadata
     id="metadata5">
    <rdf:RDF>
      <cc:Work
         rdf:about="">
        <dc:format>image/svg+xml</dc:format>
        <dc:type
           rdf:resource="http://purl.org/dc/dcmitype/StillImage" />
        <dc:title></dc:title>
      </cc:Work>
    </rdf:RDF>
  </metadata>
  <g
     transform="translate(-58.034521,-50.612324)"
     id="layer1"
     inkscape:groupmode="layer"
     inkscape:label="Layer 1">
    <path
       sodipodi:nodetypes="ccc"
       inkscape:connector-curvature="0"
       id="path4523"
       d="m 64.151079,91.509713 c 0,0 16.506423,-18.151584 23.095022,-22.394686 10.46497,-7.607255 31.758819,-10.865926 31.758819,-10.865926"
       style="fill:none;stroke:#d3c7b1;stroke-width:0.376827;stroke-linecap:butt;stroke-linejoin:miter;stroke-miterlimit:4;stroke-dasharray:1.50731, 0.376827;stroke-dashoffset:0;stroke-opacity:1" />
    <path
       inkscape:connector-curvature="0"
       id="path4552"
       d="M 69.138746,81.856776 59.086417,100.78341"
       style="fill:none;stroke:#a6a7b1;stroke-width:0.220045;stroke-linecap:butt;stroke-linejoin:miter;stroke-miterlimit:4;stroke-dasharray:none;stroke-opacity:1" />
    <path
       inkscape:connector-curvature="0"
       id="path5718"
       d="m 68.26284,85.142304 c -0.896201,0.04269 -1.996165,-0.724692 -2.727003,0.103664 -0.885135,0.944 -2.236687,1.36148 -2.908775,2.518195 -0.964508,1.090207 -2.426517,1.52909 -3.479262,2.51871 -0.673517,0.48663 -1.286631,1.374993 -0.768702,2.194086 0.574441,1.020091 0.617076,2.221363 0.504978,3.359824 0.395009,1.249839 1.87946,1.679031 3.061189,1.622833 1.118691,-0.102391 1.554457,-1.332987 2.453068,-1.847851 0.90477,-0.514533 1.851782,-0.993416 2.488006,-1.859421 0.683652,-0.761115 1.89369,-1.363771 1.767815,-2.564136 -0.456615,-0.959529 -0.128542,-2.013448 -0.05842,-3.005153 0.247608,-0.923752 0.973874,-2.277304 -0.103946,-2.948619 l -0.111219,-0.0533 z"
       style="fill:none;stroke:#3d677b;stroke-width:0.306895;stroke-linecap:butt;stroke-linejoin:miter;stroke-miterlimit:4;stroke-dasharray:none;stroke-opacity:1" />
    <path
       inkscape:connector-curvature="0"
       id="path4552-0"
       d="M 87.711343,63.239363 77.659014,82.165999"
       style="fill:none;stroke:#a6a7b1;stroke-width:0.220045;stroke-linecap:butt;stroke-linejoin:miter;stroke-miterlimit:4;stroke-dasharray:none;stroke-opacity:1" />
    <path
       inkscape:connector-curvature="0"
       id="path5718-8"
       d="m 86.835436,66.52489 c -0.8962,0.04269 -1.996164,-0.724691 -2.727002,0.103665 -0.885135,0.944 -2.236687,1.36148 -2.908775,2.518195 -0.964508,1.090207 -2.426518,1.529089 -3.479263,2.51871 -0.673516,0.48663 -1.286631,1.374992 -0.768701,2.194085 0.574441,1.020092 0.617076,2.221364 0.504977,3.359825 0.395009,1.249839 1.879461,1.679031 3.061189,1.622833 1.118692,-0.102391 1.554457,-1.332987 2.453069,-1.847851 0.904769,-0.514533 1.851782,-0.993416 2.488005,-1.859421 0.683653,-0.761115 1.893691,-1.363771 1.767816,-2.564136 -0.456616,-0.959529 -0.128542,-2.013448 -0.05842,-3.005153 0.247607,-0.923752 0.973874,-2.277304 -0.103947,-2.948619 l -0.111218,-0.0533 z"
       style="fill:none;stroke:#3d677b;stroke-width:0.306895;stroke-linecap:butt;stroke-linejoin:miter;stroke-miterlimit:4;stroke-dasharray:none;stroke-opacity:1" />
    <path
       inkscape:connector-curvature="0"
       id="path4552-6"
       d="M 108.63704,51.730229 98.584705,70.656865"
       style="fill:none;stroke:#a6a7b1;stroke-width:0.220045;stroke-linecap:butt;stroke-linejoin:miter;stroke-miterlimit:4;stroke-dasharray:none;stroke-opacity:1" />
    <path
       inkscape:connector-curvature="0"
       id="path5718-6"
       d="m 107.76113,55.015757 c -0.89621,0.04269 -1.99616,-0.724692 -2.72701,0.103664 -0.88513,0.944 -2.23668,1.361481 -2.90877,2.518195 -0.96451,1.090208 -2.426516,1.52909 -3.479262,2.518711 -0.673514,0.48663 -1.286628,1.374992 -0.768702,2.194085 0.574445,1.020092 0.617081,2.221364 0.504981,3.359825 0.395003,1.249838 1.879453,1.679031 3.061183,1.622833 1.1187,-0.102392 1.55446,-1.332988 2.45307,-1.847851 0.90477,-0.514533 1.85178,-0.993416 2.48801,-1.859422 0.68365,-0.761115 1.89369,-1.363771 1.76781,-2.564135 -0.45661,-0.95953 -0.12854,-2.013448 -0.0585,-3.005153 0.24761,-0.923753 0.97388,-2.277305 -0.10394,-2.94862 l -0.11122,-0.0533 z"
       style="fill:none;stroke:#3d677b;stroke-width:0.306895;stroke-linecap:butt;stroke-linejoin:miter;stroke-miterlimit:4;stroke-dasharray:none;stroke-opacity:1" />
    <g
       style="fill:#a6a7b1"
       transform="matrix(0.352778,0,0,0.352778,59.322337,99.124116)"
       ns1:version="1.1.0"
       ns1:texconverter="pdflatex"
       ns1:pdfconverter="inkscape"
       ns1:text="\\large{$A$}"
       ns1:preamble="C:\\Users\\flvisa\\Desktop\\lna\\latexify_books\\textext_preamble.tex"
       ns1:scale="1.00000011338576"
       ns1:alignment="middle center"
       ns1:inkscapeversion="0.92.1"
       ns1:jacobian_sqrt="0.352778"
       id="g888">
      <defs
         id="id-3a5efb6e-5ee4-4759-b4d6-550924ea2917">
        <g
           id="id-299b88cb-9907-436f-a2b8-fb99e9c1664d">
          <symbol
             id="id-3fc51c15-9dd5-4d22-a2e6-6b41a3a4bf24"
             overflow="visible">
            <path
               id="id-5b02a62f-914d-4716-829e-30cade9912fd"
               d=""
               style="stroke:none" />
          </symbol>
          <symbol
             id="id-743bb4b2-a437-43e7-8fc3-53daccadf02b"
             overflow="visible">
            <path
               id="id-44aabfd1-3fc9-4ee0-81d2-7bf80e366047"
               d="M 4.125,-0.3125 C 4.046875,-0.25 4,-0.03125 4.046875,0.03125 4.578125,0.015625 4.78125,-0.03125 5.3125,-0.03125 c 0.484375,0 0.875,0.046875 1.328125,0.0625 C 6.65625,0 6.703125,-0.234375 6.671875,-0.3125 6.59375,-0.3125 5.96875,-0.359375 5.90625,-0.703125 5.890625,-0.75 5.84375,-1.09375 5.765625,-1.53125 L 4.734375,-7.984375 C 4.71875,-8 4.703125,-8.015625 4.671875,-8.015625 c -0.09375,0 -0.375,0.15625 -0.484375,0.34375 L 0.84375,-1.6875 C 0.609375,-1.25 0.375,-0.859375 0.09375,-0.546875 -0.046875,-0.390625 -0.46875,-0.3125 -0.59375,-0.3125 -0.640625,-0.234375 -0.6875,0 -0.671875,0.03125 -0.140625,0.015625 0,-0.03125 0.53125,-0.03125 c 0.484375,0 0.625,0.046875 1.078125,0.0625 0.03125,-0.0625 0.0625,-0.3125 0.046875,-0.34375 -0.09375,0 -0.765625,-0.03125 -0.765625,-0.296875 C 0.890625,-0.78125 1.03125,-1.09375 1.25,-1.5 1.34375,-1.703125 1.703125,-2.34375 2.109375,-3.09375 H 4.5 l 0.28125,1.8125 c 0.03125,0.234375 0.03125,0.46875 0.03125,0.59375 0,0.234375 -0.265625,0.375 -0.6875,0.375 z M 2.328125,-3.484375 3.984375,-6.46875 4.4375,-3.484375 Z m 0,0"
               style="stroke:none" />
          </symbol>
        </g>
      </defs>
      <g
         style="fill:#a6a7b1"
         transform="translate(-148.874,-126.749)"
         id="id-e0a59253-fc1b-492f-8363-7a2f5776aee9">
        <g
           id="id-8a74ddb6-f19e-48e5-b4e6-ba119c227248"
           style="fill:#a6a7b1;fill-opacity:1">
          <g
             style="fill:#a6a7b1"
             transform="translate(149.549,134.765)"
             id="g884">
            <path
               id="id-03e3bafd-9876-44a0-b752-fdccccb1800a"
               d="M 4.125,-0.3125 C 4.046875,-0.25 4,-0.03125 4.046875,0.03125 4.578125,0.015625 4.78125,-0.03125 5.3125,-0.03125 c 0.484375,0 0.875,0.046875 1.328125,0.0625 C 6.65625,0 6.703125,-0.234375 6.671875,-0.3125 6.59375,-0.3125 5.96875,-0.359375 5.90625,-0.703125 5.890625,-0.75 5.84375,-1.09375 5.765625,-1.53125 L 4.734375,-7.984375 C 4.71875,-8 4.703125,-8.015625 4.671875,-8.015625 c -0.09375,0 -0.375,0.15625 -0.484375,0.34375 L 0.84375,-1.6875 C 0.609375,-1.25 0.375,-0.859375 0.09375,-0.546875 -0.046875,-0.390625 -0.46875,-0.3125 -0.59375,-0.3125 -0.640625,-0.234375 -0.6875,0 -0.671875,0.03125 -0.140625,0.015625 0,-0.03125 0.53125,-0.03125 c 0.484375,0 0.625,0.046875 1.078125,0.0625 0.03125,-0.0625 0.0625,-0.3125 0.046875,-0.34375 -0.09375,0 -0.765625,-0.03125 -0.765625,-0.296875 C 0.890625,-0.78125 1.03125,-1.09375 1.25,-1.5 1.34375,-1.703125 1.703125,-2.34375 2.109375,-3.09375 H 4.5 l 0.28125,1.8125 c 0.03125,0.234375 0.03125,0.46875 0.03125,0.59375 0,0.234375 -0.265625,0.375 -0.6875,0.375 z M 2.328125,-3.484375 3.984375,-6.46875 4.4375,-3.484375 Z m 0,0"
               style="fill:#a6a7b1;stroke:none" />
          </g>
        </g>
      </g>
    </g>
    <g
       style="fill:#a6a7b1"
       transform="matrix(0.352778,0,0,0.352778,68.682477,78.341847)"
       ns1:version="1.1.0"
       ns1:texconverter="pdflatex"
       ns1:pdfconverter="inkscape"
       ns1:text="\\large{$B$}"
       ns1:preamble="C:\\Users\\flvisa\\Desktop\\lna\\latexify_books\\textext_preamble.tex"
       ns1:scale="1.0000001417322018"
       ns1:alignment="middle center"
       ns1:inkscapeversion="0.92.1"
       ns1:jacobian_sqrt="0.352778"
       id="g1006">
      <defs
         id="id-bf3eb7ee-c751-42d1-9350-f189e04ae936">
        <g
           id="id-1728efab-6604-4eb0-bb0d-a0dbc9be56c1">
          <symbol
             id="id-2cb82501-7191-406f-a45f-488ac4541b91"
             overflow="visible">
            <path
               id="id-84c2c9d8-bc50-41e0-84a2-d48bbd5fc6d9"
               d=""
               style="stroke:none" />
          </symbol>
          <symbol
             id="id-77faca0c-53a8-4569-b870-342099705d6e"
             overflow="visible">
            <path
               id="id-47bdb5dd-71f1-47f0-b15d-99ec642a5518"
               d="m 2.640625,-4.46875 0.390625,-2.125 c 0.078125,-0.359375 0.140625,-0.75 0.234375,-0.90625 0.0625,-0.109375 0.46875,-0.125 0.59375,-0.125 1.046875,0 1.375,0.625 1.375,1.3125 0,1.03125 -0.640625,1.84375 -1.453125,1.84375 z m -0.71875,3.78125 c 0,-0.203125 0.078125,-0.59375 0.09375,-0.71875 L 2.5625,-4.09375 h 0.671875 c 1.6875,0 1.71875,1.015625 1.71875,1.390625 v 0.03125 c 0,1.5 -0.90625,2.328125 -2.15625,2.328125 -0.421875,0 -0.875,0 -0.875,-0.34375 z m 0.90625,-7.265625 c -0.4375,0 -0.875,-0.03125 -1.328125,-0.0625 -0.046875,0.046875 -0.078125,0.15625 -0.078125,0.265625 0,0.03125 0,0.0625 0.015625,0.09375 0.1875,0 0.734375,0.046875 0.734375,0.25 0,0.1875 -0.0625,0.515625 -0.109375,0.828125 L 1.046875,-1.4375 c -0.0625,0.359375 -0.125,0.703125 -0.21875,0.890625 -0.0625,0.125 -0.6875,0.203125 -0.8125,0.203125 -0.046875,0.046875 -0.09375,0.171875 -0.09375,0.265625 0,0.046875 0,0.0625 0.015625,0.078125 h 2.59375 c 2.046875,0 3.5625,-1.09375 3.5625,-2.734375 0,-1 -0.6875,-1.640625 -1.234375,-1.6875 0.46875,-0.265625 1.4375,-0.859375 1.4375,-2.0625 0,-1.046875 -0.859375,-1.484375 -1.890625,-1.484375 -0.671875,0 -1.15625,0.015625 -1.578125,0.015625 z m 0,0"
               style="stroke:none" />
          </symbol>
        </g>
      </defs>
      <g
         style="fill:#a6a7b1"
         transform="translate(-149.232,-126.749)"
         id="id-aeae6ebd-6111-4129-9fe8-32cced780170">
        <g
           id="id-ea9e94b0-20cd-40ed-9265-1497ba853a5a"
           style="fill:#a6a7b1;fill-opacity:1">
          <g
             style="fill:#a6a7b1"
             transform="translate(149.31,134.765)"
             id="g1002">
            <path
               id="id-4d16fc9a-8143-475c-9c11-3d6179e18ce5"
               d="m 2.640625,-4.46875 0.390625,-2.125 c 0.078125,-0.359375 0.140625,-0.75 0.234375,-0.90625 0.0625,-0.109375 0.46875,-0.125 0.59375,-0.125 1.046875,0 1.375,0.625 1.375,1.3125 0,1.03125 -0.640625,1.84375 -1.453125,1.84375 z m -0.71875,3.78125 c 0,-0.203125 0.078125,-0.59375 0.09375,-0.71875 L 2.5625,-4.09375 h 0.671875 c 1.6875,0 1.71875,1.015625 1.71875,1.390625 v 0.03125 c 0,1.5 -0.90625,2.328125 -2.15625,2.328125 -0.421875,0 -0.875,0 -0.875,-0.34375 z m 0.90625,-7.265625 c -0.4375,0 -0.875,-0.03125 -1.328125,-0.0625 -0.046875,0.046875 -0.078125,0.15625 -0.078125,0.265625 0,0.03125 0,0.0625 0.015625,0.09375 0.1875,0 0.734375,0.046875 0.734375,0.25 0,0.1875 -0.0625,0.515625 -0.109375,0.828125 L 1.046875,-1.4375 c -0.0625,0.359375 -0.125,0.703125 -0.21875,0.890625 -0.0625,0.125 -0.6875,0.203125 -0.8125,0.203125 -0.046875,0.046875 -0.09375,0.171875 -0.09375,0.265625 0,0.046875 0,0.0625 0.015625,0.078125 h 2.59375 c 2.046875,0 3.5625,-1.09375 3.5625,-2.734375 0,-1 -0.6875,-1.640625 -1.234375,-1.6875 0.46875,-0.265625 1.4375,-0.859375 1.4375,-2.0625 0,-1.046875 -0.859375,-1.484375 -1.890625,-1.484375 -0.671875,0 -1.15625,0.015625 -1.578125,0.015625 z m 0,0"
               style="fill:#a6a7b1;stroke:none" />
          </g>
        </g>
      </g>
    </g>
    <g
       style="fill:#a6a7b1"
       transform="matrix(0.352778,0,0,0.352778,87.005831,59.966465)"
       ns1:version="1.1.0"
       ns1:texconverter="pdflatex"
       ns1:pdfconverter="inkscape"
       ns1:text="\\large{$B^{\\prime}$}"
       ns1:preamble="C:\\Users\\flvisa\\Desktop\\lna\\latexify_books\\textext_preamble.tex"
       ns1:scale="1.0000001700786445"
       ns1:alignment="middle center"
       ns1:inkscapeversion="0.92.1"
       ns1:jacobian_sqrt="0.352778"
       id="g1301">
      <defs
         id="id-79c114fd-8535-420b-9f38-8b5922656309">
        <g
           id="id-93388952-5820-4b55-b4db-85194272ab6e">
          <symbol
             id="id-b740ae7d-866c-4c9c-b5b6-502a733ac507"
             overflow="visible">
            <path
               id="id-8747d854-e67a-42d2-b5b6-39b4880e5f82"
               d=""
               style="stroke:none" />
          </symbol>
          <symbol
             id="id-e71ade56-6bea-4322-9ef6-6d15d355bd46"
             overflow="visible">
            <path
               id="id-f613ce68-b23e-4320-b237-e08c3497620b"
               d="m 2.640625,-4.46875 0.390625,-2.125 c 0.078125,-0.359375 0.140625,-0.75 0.234375,-0.90625 0.0625,-0.109375 0.46875,-0.125 0.59375,-0.125 1.046875,0 1.375,0.625 1.375,1.3125 0,1.03125 -0.640625,1.84375 -1.453125,1.84375 z m -0.71875,3.78125 c 0,-0.203125 0.078125,-0.59375 0.09375,-0.71875 L 2.5625,-4.09375 h 0.671875 c 1.6875,0 1.71875,1.015625 1.71875,1.390625 v 0.03125 c 0,1.5 -0.90625,2.328125 -2.15625,2.328125 -0.421875,0 -0.875,0 -0.875,-0.34375 z m 0.90625,-7.265625 c -0.4375,0 -0.875,-0.03125 -1.328125,-0.0625 -0.046875,0.046875 -0.078125,0.15625 -0.078125,0.265625 0,0.03125 0,0.0625 0.015625,0.09375 0.1875,0 0.734375,0.046875 0.734375,0.25 0,0.1875 -0.0625,0.515625 -0.109375,0.828125 L 1.046875,-1.4375 c -0.0625,0.359375 -0.125,0.703125 -0.21875,0.890625 -0.0625,0.125 -0.6875,0.203125 -0.8125,0.203125 -0.046875,0.046875 -0.09375,0.171875 -0.09375,0.265625 0,0.046875 0,0.0625 0.015625,0.078125 h 2.59375 c 2.046875,0 3.5625,-1.09375 3.5625,-2.734375 0,-1 -0.6875,-1.640625 -1.234375,-1.6875 0.46875,-0.265625 1.4375,-0.859375 1.4375,-2.0625 0,-1.046875 -0.859375,-1.484375 -1.890625,-1.484375 -0.671875,0 -1.15625,0.015625 -1.578125,0.015625 z m 0,0"
               style="stroke:none" />
          </symbol>
          <symbol
             id="id-f57438e2-6698-48cb-b011-eb44a906b254"
             overflow="visible">
            <path
               id="id-3727083f-4ffa-4dc3-8812-46ceb22935c0"
               d=""
               style="stroke:none" />
          </symbol>
          <symbol
             id="id-3ad86b45-2bb9-4e14-a277-7765d75e451b"
             overflow="visible">
            <path
               id="id-cbc5b750-7851-4f4c-a05c-0c917d5795bf"
               d="M 2.609375,-3.609375 C 2.609375,-3.90625 2.28125,-4.125 2,-4.125 c -0.3125,0 -0.46875,0.328125 -0.5625,0.578125 l -0.90625,2.65625 C 0.5,-0.8125 0.4375,-0.65625 0.4375,-0.578125 c 0,0.078125 0.046875,0.1875 0.140625,0.1875 0.125,0 0.28125,-0.1875 0.34375,-0.28125 l 1.4375,-2.265625 c 0.125,-0.1875 0.25,-0.4375 0.25,-0.671875 z m 0,0"
               style="stroke:none" />
          </symbol>
        </g>
      </defs>
      <g
         style="fill:#a6a7b1"
         transform="translate(-149.232,-126.3)"
         id="id-e61cb0b2-2127-4238-8b13-37a26d7a7ca6">
        <g
           id="id-2f075a15-cacf-4c33-9e40-f1d7def23e65"
           style="fill:#a6a7b1;fill-opacity:1">
          <g
             style="fill:#a6a7b1"
             transform="translate(149.31,134.765)"
             id="g1293">
            <path
               id="id-d5d20e34-4202-42b2-89a5-68ad2e68608e"
               d="m 2.640625,-4.46875 0.390625,-2.125 c 0.078125,-0.359375 0.140625,-0.75 0.234375,-0.90625 0.0625,-0.109375 0.46875,-0.125 0.59375,-0.125 1.046875,0 1.375,0.625 1.375,1.3125 0,1.03125 -0.640625,1.84375 -1.453125,1.84375 z m -0.71875,3.78125 c 0,-0.203125 0.078125,-0.59375 0.09375,-0.71875 L 2.5625,-4.09375 h 0.671875 c 1.6875,0 1.71875,1.015625 1.71875,1.390625 v 0.03125 c 0,1.5 -0.90625,2.328125 -2.15625,2.328125 -0.421875,0 -0.875,0 -0.875,-0.34375 z m 0.90625,-7.265625 c -0.4375,0 -0.875,-0.03125 -1.328125,-0.0625 -0.046875,0.046875 -0.078125,0.15625 -0.078125,0.265625 0,0.03125 0,0.0625 0.015625,0.09375 0.1875,0 0.734375,0.046875 0.734375,0.25 0,0.1875 -0.0625,0.515625 -0.109375,0.828125 L 1.046875,-1.4375 c -0.0625,0.359375 -0.125,0.703125 -0.21875,0.890625 -0.0625,0.125 -0.6875,0.203125 -0.8125,0.203125 -0.046875,0.046875 -0.09375,0.171875 -0.09375,0.265625 0,0.046875 0,0.0625 0.015625,0.078125 h 2.59375 c 2.046875,0 3.5625,-1.09375 3.5625,-2.734375 0,-1 -0.6875,-1.640625 -1.234375,-1.6875 0.46875,-0.265625 1.4375,-0.859375 1.4375,-2.0625 0,-1.046875 -0.859375,-1.484375 -1.890625,-1.484375 -0.671875,0 -1.15625,0.015625 -1.578125,0.015625 z m 0,0"
               style="fill:#a6a7b1;stroke:none" />
          </g>
        </g>
        <g
           id="id-ee2538bf-2199-4426-b114-95f6feed8825"
           style="fill:#a6a7b1;fill-opacity:1">
          <g
             style="fill:#a6a7b1"
             transform="translate(156.081,130.425)"
             id="g1297">
            <path
               id="id-e7c38bb3-ab71-400f-9404-6d9bdfbf63ff"
               d="M 2.609375,-3.609375 C 2.609375,-3.90625 2.28125,-4.125 2,-4.125 c -0.3125,0 -0.46875,0.328125 -0.5625,0.578125 l -0.90625,2.65625 C 0.5,-0.8125 0.4375,-0.65625 0.4375,-0.578125 c 0,0.078125 0.046875,0.1875 0.140625,0.1875 0.125,0 0.28125,-0.1875 0.34375,-0.28125 l 1.4375,-2.265625 c 0.125,-0.1875 0.25,-0.4375 0.25,-0.671875 z m 0,0"
               style="fill:#a6a7b1;stroke:none" />
          </g>
        </g>
      </g>
    </g>
    <g
       style="fill:#a6a7b1"
       transform="matrix(0.352778,0,0,0.352778,75.750706,82.525612)"
       ns1:version="1.1.0"
       ns1:texconverter="pdflatex"
       ns1:pdfconverter="inkscape"
       ns1:text="\\large{$A^{\\prime}$}"
       ns1:preamble="C:\\Users\\flvisa\\Desktop\\lna\\latexify_books\\textext_preamble.tex"
       ns1:scale="1.0000001417322018"
       ns1:alignment="middle center"
       ns1:inkscapeversion="0.92.1"
       ns1:jacobian_sqrt="0.352778"
       id="g1410">
      <defs
         id="id-ba5201d9-4a1f-47e1-b208-1b740379c303">
        <g
           id="id-f330f04b-00ce-4d9b-9f7f-041ba5f1aafc">
          <symbol
             id="id-53b2c4df-ab32-4832-8631-aa7e1ea77305"
             overflow="visible">
            <path
               id="id-04e4f12b-c61b-4544-b6a1-3731d878491d"
               d=""
               style="stroke:none" />
          </symbol>
          <symbol
             id="id-1d7d341e-19ea-4406-bb4e-e5fd9a9f2b5b"
             overflow="visible">
            <path
               id="id-2453d232-7b1e-4ff7-ae0c-9d6a7d739057"
               d="M 4.125,-0.3125 C 4.046875,-0.25 4,-0.03125 4.046875,0.03125 4.578125,0.015625 4.78125,-0.03125 5.3125,-0.03125 c 0.484375,0 0.875,0.046875 1.328125,0.0625 C 6.65625,0 6.703125,-0.234375 6.671875,-0.3125 6.59375,-0.3125 5.96875,-0.359375 5.90625,-0.703125 5.890625,-0.75 5.84375,-1.09375 5.765625,-1.53125 L 4.734375,-7.984375 C 4.71875,-8 4.703125,-8.015625 4.671875,-8.015625 c -0.09375,0 -0.375,0.15625 -0.484375,0.34375 L 0.84375,-1.6875 C 0.609375,-1.25 0.375,-0.859375 0.09375,-0.546875 -0.046875,-0.390625 -0.46875,-0.3125 -0.59375,-0.3125 -0.640625,-0.234375 -0.6875,0 -0.671875,0.03125 -0.140625,0.015625 0,-0.03125 0.53125,-0.03125 c 0.484375,0 0.625,0.046875 1.078125,0.0625 0.03125,-0.0625 0.0625,-0.3125 0.046875,-0.34375 -0.09375,0 -0.765625,-0.03125 -0.765625,-0.296875 C 0.890625,-0.78125 1.03125,-1.09375 1.25,-1.5 1.34375,-1.703125 1.703125,-2.34375 2.109375,-3.09375 H 4.5 l 0.28125,1.8125 c 0.03125,0.234375 0.03125,0.46875 0.03125,0.59375 0,0.234375 -0.265625,0.375 -0.6875,0.375 z M 2.328125,-3.484375 3.984375,-6.46875 4.4375,-3.484375 Z m 0,0"
               style="stroke:none" />
          </symbol>
          <symbol
             id="id-98d5b1d3-e8b5-49e8-a85b-0b756f5351be"
             overflow="visible">
            <path
               id="id-e8b3227a-9eb1-4149-b525-7cb2cf750fbd"
               d=""
               style="stroke:none" />
          </symbol>
          <symbol
             id="id-8e93d5e9-0907-4d4c-93af-70c7995a7d14"
             overflow="visible">
            <path
               id="id-b5f89d65-2da4-468b-86a8-47a43b11c5dd"
               d="M 2.609375,-3.609375 C 2.609375,-3.90625 2.28125,-4.125 2,-4.125 c -0.3125,0 -0.46875,0.328125 -0.5625,0.578125 l -0.90625,2.65625 C 0.5,-0.8125 0.4375,-0.65625 0.4375,-0.578125 c 0,0.078125 0.046875,0.1875 0.140625,0.1875 0.125,0 0.28125,-0.1875 0.34375,-0.28125 l 1.4375,-2.265625 c 0.125,-0.1875 0.25,-0.4375 0.25,-0.671875 z m 0,0"
               style="stroke:none" />
          </symbol>
        </g>
      </defs>
      <g
         style="fill:#a6a7b1"
         transform="translate(-148.874,-126.3)"
         id="id-5958de87-90e3-4b55-9cfd-0c5bc97c7fab">
        <g
           id="id-da910d3f-5bd4-4f4f-b1c3-d15c18591977"
           style="fill:#a6a7b1;fill-opacity:1">
          <g
             style="fill:#a6a7b1"
             transform="translate(149.549,134.765)"
             id="g1402">
            <path
               id="id-ae349e0e-7a61-42ab-9890-9f461daf524c"
               d="M 4.125,-0.3125 C 4.046875,-0.25 4,-0.03125 4.046875,0.03125 4.578125,0.015625 4.78125,-0.03125 5.3125,-0.03125 c 0.484375,0 0.875,0.046875 1.328125,0.0625 C 6.65625,0 6.703125,-0.234375 6.671875,-0.3125 6.59375,-0.3125 5.96875,-0.359375 5.90625,-0.703125 5.890625,-0.75 5.84375,-1.09375 5.765625,-1.53125 L 4.734375,-7.984375 C 4.71875,-8 4.703125,-8.015625 4.671875,-8.015625 c -0.09375,0 -0.375,0.15625 -0.484375,0.34375 L 0.84375,-1.6875 C 0.609375,-1.25 0.375,-0.859375 0.09375,-0.546875 -0.046875,-0.390625 -0.46875,-0.3125 -0.59375,-0.3125 -0.640625,-0.234375 -0.6875,0 -0.671875,0.03125 -0.140625,0.015625 0,-0.03125 0.53125,-0.03125 c 0.484375,0 0.625,0.046875 1.078125,0.0625 0.03125,-0.0625 0.0625,-0.3125 0.046875,-0.34375 -0.09375,0 -0.765625,-0.03125 -0.765625,-0.296875 C 0.890625,-0.78125 1.03125,-1.09375 1.25,-1.5 1.34375,-1.703125 1.703125,-2.34375 2.109375,-3.09375 H 4.5 l 0.28125,1.8125 c 0.03125,0.234375 0.03125,0.46875 0.03125,0.59375 0,0.234375 -0.265625,0.375 -0.6875,0.375 z M 2.328125,-3.484375 3.984375,-6.46875 4.4375,-3.484375 Z m 0,0"
               style="fill:#a6a7b1;stroke:none" />
          </g>
        </g>
        <g
           id="id-2c38878a-b832-4549-9fe7-7f64f6a08222"
           style="fill:#a6a7b1;fill-opacity:1">
          <g
             style="fill:#a6a7b1"
             transform="translate(156.212,130.425)"
             id="g1406">
            <path
               id="id-87804c8a-e8e2-409b-bf9c-86701809bc1e"
               d="M 2.609375,-3.609375 C 2.609375,-3.90625 2.28125,-4.125 2,-4.125 c -0.3125,0 -0.46875,0.328125 -0.5625,0.578125 l -0.90625,2.65625 C 0.5,-0.8125 0.4375,-0.65625 0.4375,-0.578125 c 0,0.078125 0.046875,0.1875 0.140625,0.1875 0.125,0 0.28125,-0.1875 0.34375,-0.28125 l 1.4375,-2.265625 c 0.125,-0.1875 0.25,-0.4375 0.25,-0.671875 z m 0,0"
               style="fill:#a6a7b1;stroke:none" />
          </g>
        </g>
      </g>
    </g>
    <g
       style="fill:#a6a7b1"
       transform="matrix(0.352778,0,0,0.352778,108.78272,50.612324)"
       ns1:version="1.1.0"
       ns1:texconverter="pdflatex"
       ns1:pdfconverter="inkscape"
       ns1:text="\\large{$B^{\\prime\\prime}$}"
       ns1:preamble="C:\\Users\\flvisa\\Desktop\\lna\\latexify_books\\textext_preamble.tex"
       ns1:scale="1.0000001984250881"
       ns1:alignment="middle center"
       ns1:inkscapeversion="0.92.1"
       ns1:jacobian_sqrt="0.352778"
       id="g1733">
      <defs
         id="id-62ea9eb0-b444-49f6-8c0f-e0620deb7f5b">
        <g
           id="id-e013073c-0429-4221-ad21-0c57d2f837d2">
          <symbol
             id="id-38d26be5-9117-45df-bca2-4f6901ac2403"
             overflow="visible">
            <path
               id="id-828ff799-fdf8-4a30-bae5-39543337ef2f"
               d=""
               style="stroke:none" />
          </symbol>
          <symbol
             id="id-7973b39b-08b6-4296-9ebe-9d4d57fa6707"
             overflow="visible">
            <path
               id="id-8eafd49e-4a80-42bd-bd84-60acd20a391d"
               d="m 2.640625,-4.46875 0.390625,-2.125 c 0.078125,-0.359375 0.140625,-0.75 0.234375,-0.90625 0.0625,-0.109375 0.46875,-0.125 0.59375,-0.125 1.046875,0 1.375,0.625 1.375,1.3125 0,1.03125 -0.640625,1.84375 -1.453125,1.84375 z m -0.71875,3.78125 c 0,-0.203125 0.078125,-0.59375 0.09375,-0.71875 L 2.5625,-4.09375 h 0.671875 c 1.6875,0 1.71875,1.015625 1.71875,1.390625 v 0.03125 c 0,1.5 -0.90625,2.328125 -2.15625,2.328125 -0.421875,0 -0.875,0 -0.875,-0.34375 z m 0.90625,-7.265625 c -0.4375,0 -0.875,-0.03125 -1.328125,-0.0625 -0.046875,0.046875 -0.078125,0.15625 -0.078125,0.265625 0,0.03125 0,0.0625 0.015625,0.09375 0.1875,0 0.734375,0.046875 0.734375,0.25 0,0.1875 -0.0625,0.515625 -0.109375,0.828125 L 1.046875,-1.4375 c -0.0625,0.359375 -0.125,0.703125 -0.21875,0.890625 -0.0625,0.125 -0.6875,0.203125 -0.8125,0.203125 -0.046875,0.046875 -0.09375,0.171875 -0.09375,0.265625 0,0.046875 0,0.0625 0.015625,0.078125 h 2.59375 c 2.046875,0 3.5625,-1.09375 3.5625,-2.734375 0,-1 -0.6875,-1.640625 -1.234375,-1.6875 0.46875,-0.265625 1.4375,-0.859375 1.4375,-2.0625 0,-1.046875 -0.859375,-1.484375 -1.890625,-1.484375 -0.671875,0 -1.15625,0.015625 -1.578125,0.015625 z m 0,0"
               style="stroke:none" />
          </symbol>
          <symbol
             id="id-fb49c245-3487-49b7-9b8c-8ff62509df4c"
             overflow="visible">
            <path
               id="id-dc924379-f0e5-4d92-ab8c-9e930b125395"
               d=""
               style="stroke:none" />
          </symbol>
          <symbol
             id="id-5611cdad-27bb-4d66-9770-98cbadd1b086"
             overflow="visible">
            <path
               id="id-35305c11-1fc2-4f8a-a1ba-8f20dd7a571b"
               d="M 2.609375,-3.609375 C 2.609375,-3.90625 2.28125,-4.125 2,-4.125 c -0.3125,0 -0.46875,0.328125 -0.5625,0.578125 l -0.90625,2.65625 C 0.5,-0.8125 0.4375,-0.65625 0.4375,-0.578125 c 0,0.078125 0.046875,0.1875 0.140625,0.1875 0.125,0 0.28125,-0.1875 0.34375,-0.28125 l 1.4375,-2.265625 c 0.125,-0.1875 0.25,-0.4375 0.25,-0.671875 z m 0,0"
               style="stroke:none" />
          </symbol>
        </g>
      </defs>
      <g
         style="fill:#a6a7b1"
         transform="translate(-149.232,-126.3)"
         id="id-8b53fa05-a4a1-41d1-ae12-e07454c11a7a">
        <g
           id="id-3f4e8788-8edf-4ba0-b54b-63805e117b6e"
           style="fill:#a6a7b1;fill-opacity:1">
          <g
             style="fill:#a6a7b1"
             transform="translate(149.31,134.765)"
             id="g1721">
            <path
               id="id-23acf464-e3f5-4df9-8765-c498ee1c61d9"
               d="m 2.640625,-4.46875 0.390625,-2.125 c 0.078125,-0.359375 0.140625,-0.75 0.234375,-0.90625 0.0625,-0.109375 0.46875,-0.125 0.59375,-0.125 1.046875,0 1.375,0.625 1.375,1.3125 0,1.03125 -0.640625,1.84375 -1.453125,1.84375 z m -0.71875,3.78125 c 0,-0.203125 0.078125,-0.59375 0.09375,-0.71875 L 2.5625,-4.09375 h 0.671875 c 1.6875,0 1.71875,1.015625 1.71875,1.390625 v 0.03125 c 0,1.5 -0.90625,2.328125 -2.15625,2.328125 -0.421875,0 -0.875,0 -0.875,-0.34375 z m 0.90625,-7.265625 c -0.4375,0 -0.875,-0.03125 -1.328125,-0.0625 -0.046875,0.046875 -0.078125,0.15625 -0.078125,0.265625 0,0.03125 0,0.0625 0.015625,0.09375 0.1875,0 0.734375,0.046875 0.734375,0.25 0,0.1875 -0.0625,0.515625 -0.109375,0.828125 L 1.046875,-1.4375 c -0.0625,0.359375 -0.125,0.703125 -0.21875,0.890625 -0.0625,0.125 -0.6875,0.203125 -0.8125,0.203125 -0.046875,0.046875 -0.09375,0.171875 -0.09375,0.265625 0,0.046875 0,0.0625 0.015625,0.078125 h 2.59375 c 2.046875,0 3.5625,-1.09375 3.5625,-2.734375 0,-1 -0.6875,-1.640625 -1.234375,-1.6875 0.46875,-0.265625 1.4375,-0.859375 1.4375,-2.0625 0,-1.046875 -0.859375,-1.484375 -1.890625,-1.484375 -0.671875,0 -1.15625,0.015625 -1.578125,0.015625 z m 0,0"
               style="fill:#a6a7b1;stroke:none" />
          </g>
        </g>
        <g
           id="id-ac4b222b-0ef0-4d34-8aea-4c6633ab30bc"
           style="fill:#a6a7b1;fill-opacity:1">
          <g
             style="fill:#a6a7b1"
             transform="translate(156.081,130.425)"
             id="g1725">
            <path
               id="id-3e2a574a-30f3-4370-9f97-29eb63474b3a"
               d="M 2.609375,-3.609375 C 2.609375,-3.90625 2.28125,-4.125 2,-4.125 c -0.3125,0 -0.46875,0.328125 -0.5625,0.578125 l -0.90625,2.65625 C 0.5,-0.8125 0.4375,-0.65625 0.4375,-0.578125 c 0,0.078125 0.046875,0.1875 0.140625,0.1875 0.125,0 0.28125,-0.1875 0.34375,-0.28125 l 1.4375,-2.265625 c 0.125,-0.1875 0.25,-0.4375 0.25,-0.671875 z m 0,0"
               style="fill:#a6a7b1;stroke:none" />
          </g>
        </g>
        <g
           id="id-bbed546a-549e-4284-92ab-ae8ca804fd8c"
           style="fill:#a6a7b1;fill-opacity:1">
          <g
             style="fill:#a6a7b1"
             transform="translate(158.685,130.425)"
             id="g1729">
            <path
               id="id-15e8e003-22d0-4276-86f8-de92895029ca"
               d="M 2.609375,-3.609375 C 2.609375,-3.90625 2.28125,-4.125 2,-4.125 c -0.3125,0 -0.46875,0.328125 -0.5625,0.578125 l -0.90625,2.65625 C 0.5,-0.8125 0.4375,-0.65625 0.4375,-0.578125 c 0,0.078125 0.046875,0.1875 0.140625,0.1875 0.125,0 0.28125,-0.1875 0.34375,-0.28125 l 1.4375,-2.265625 c 0.125,-0.1875 0.25,-0.4375 0.25,-0.671875 z m 0,0"
               style="fill:#a6a7b1;stroke:none" />
          </g>
        </g>
      </g>
    </g>
    <g
       style="fill:#a6a7b1"
       transform="matrix(0.352778,0,0,0.352778,96.676397,71.016478)"
       ns1:version="1.1.0"
       ns1:texconverter="pdflatex"
       ns1:pdfconverter="inkscape"
       ns1:text="\\large{$A^{\\prime\\prime}$}"
       ns1:preamble="C:\\Users\\flvisa\\Desktop\\lna\\latexify_books\\textext_preamble.tex"
       ns1:scale="1.0000001700786445"
       ns1:alignment="middle center"
       ns1:inkscapeversion="0.92.1"
       ns1:jacobian_sqrt="0.352778"
       id="g1906">
      <defs
         id="id-50d52134-c40a-416e-bc2e-e5ec7495773b">
        <g
           id="id-4b2e8db9-ad89-4417-88e9-e84286ce8983">
          <symbol
             id="id-c161755d-1bcc-4fb3-b21a-99da3f9a49ad"
             overflow="visible">
            <path
               id="id-2e715750-52fe-4d97-89a3-6fb705317b49"
               d=""
               style="stroke:none" />
          </symbol>
          <symbol
             id="id-92b2f903-daa7-4858-a17b-5d07c7738992"
             overflow="visible">
            <path
               id="id-9c273a18-5bc6-4093-8744-b153d14d20e7"
               d="M 4.125,-0.3125 C 4.046875,-0.25 4,-0.03125 4.046875,0.03125 4.578125,0.015625 4.78125,-0.03125 5.3125,-0.03125 c 0.484375,0 0.875,0.046875 1.328125,0.0625 C 6.65625,0 6.703125,-0.234375 6.671875,-0.3125 6.59375,-0.3125 5.96875,-0.359375 5.90625,-0.703125 5.890625,-0.75 5.84375,-1.09375 5.765625,-1.53125 L 4.734375,-7.984375 C 4.71875,-8 4.703125,-8.015625 4.671875,-8.015625 c -0.09375,0 -0.375,0.15625 -0.484375,0.34375 L 0.84375,-1.6875 C 0.609375,-1.25 0.375,-0.859375 0.09375,-0.546875 -0.046875,-0.390625 -0.46875,-0.3125 -0.59375,-0.3125 -0.640625,-0.234375 -0.6875,0 -0.671875,0.03125 -0.140625,0.015625 0,-0.03125 0.53125,-0.03125 c 0.484375,0 0.625,0.046875 1.078125,0.0625 0.03125,-0.0625 0.0625,-0.3125 0.046875,-0.34375 -0.09375,0 -0.765625,-0.03125 -0.765625,-0.296875 C 0.890625,-0.78125 1.03125,-1.09375 1.25,-1.5 1.34375,-1.703125 1.703125,-2.34375 2.109375,-3.09375 H 4.5 l 0.28125,1.8125 c 0.03125,0.234375 0.03125,0.46875 0.03125,0.59375 0,0.234375 -0.265625,0.375 -0.6875,0.375 z M 2.328125,-3.484375 3.984375,-6.46875 4.4375,-3.484375 Z m 0,0"
               style="stroke:none" />
          </symbol>
          <symbol
             id="id-0c29fb83-d021-496e-8915-7597dee6ba3c"
             overflow="visible">
            <path
               id="id-cd1c7bf2-35e0-4aca-81c0-f14bae2f02d0"
               d=""
               style="stroke:none" />
          </symbol>
          <symbol
             id="id-c38fcc8d-3e7d-4860-91f3-3e8bec6ef0db"
             overflow="visible">
            <path
               id="id-7c25c2fe-8934-4283-b2c7-842d97c87bfe"
               d="M 2.609375,-3.609375 C 2.609375,-3.90625 2.28125,-4.125 2,-4.125 c -0.3125,0 -0.46875,0.328125 -0.5625,0.578125 l -0.90625,2.65625 C 0.5,-0.8125 0.4375,-0.65625 0.4375,-0.578125 c 0,0.078125 0.046875,0.1875 0.140625,0.1875 0.125,0 0.28125,-0.1875 0.34375,-0.28125 l 1.4375,-2.265625 c 0.125,-0.1875 0.25,-0.4375 0.25,-0.671875 z m 0,0"
               style="stroke:none" />
          </symbol>
        </g>
      </defs>
      <g
         style="fill:#a6a7b1"
         transform="translate(-148.874,-126.3)"
         id="id-e5bc133f-ca4e-4a30-a472-583d46a3e5db">
        <g
           id="id-aa6e474e-f619-40a6-9880-77bd15142fc2"
           style="fill:#a6a7b1;fill-opacity:1">
          <g
             style="fill:#a6a7b1"
             transform="translate(149.549,134.765)"
             id="g1894">
            <path
               id="id-a38407c0-15b6-43aa-8d73-d10aa51a99cd"
               d="M 4.125,-0.3125 C 4.046875,-0.25 4,-0.03125 4.046875,0.03125 4.578125,0.015625 4.78125,-0.03125 5.3125,-0.03125 c 0.484375,0 0.875,0.046875 1.328125,0.0625 C 6.65625,0 6.703125,-0.234375 6.671875,-0.3125 6.59375,-0.3125 5.96875,-0.359375 5.90625,-0.703125 5.890625,-0.75 5.84375,-1.09375 5.765625,-1.53125 L 4.734375,-7.984375 C 4.71875,-8 4.703125,-8.015625 4.671875,-8.015625 c -0.09375,0 -0.375,0.15625 -0.484375,0.34375 L 0.84375,-1.6875 C 0.609375,-1.25 0.375,-0.859375 0.09375,-0.546875 -0.046875,-0.390625 -0.46875,-0.3125 -0.59375,-0.3125 -0.640625,-0.234375 -0.6875,0 -0.671875,0.03125 -0.140625,0.015625 0,-0.03125 0.53125,-0.03125 c 0.484375,0 0.625,0.046875 1.078125,0.0625 0.03125,-0.0625 0.0625,-0.3125 0.046875,-0.34375 -0.09375,0 -0.765625,-0.03125 -0.765625,-0.296875 C 0.890625,-0.78125 1.03125,-1.09375 1.25,-1.5 1.34375,-1.703125 1.703125,-2.34375 2.109375,-3.09375 H 4.5 l 0.28125,1.8125 c 0.03125,0.234375 0.03125,0.46875 0.03125,0.59375 0,0.234375 -0.265625,0.375 -0.6875,0.375 z M 2.328125,-3.484375 3.984375,-6.46875 4.4375,-3.484375 Z m 0,0"
               style="fill:#a6a7b1;stroke:none" />
          </g>
        </g>
        <g
           id="id-36016ad7-cc9c-4d40-beed-94c281917553"
           style="fill:#a6a7b1;fill-opacity:1">
          <g
             style="fill:#a6a7b1"
             transform="translate(156.212,130.425)"
             id="g1898">
            <path
               id="id-eb298b43-9808-4ec7-af11-233cf82a1967"
               d="M 2.609375,-3.609375 C 2.609375,-3.90625 2.28125,-4.125 2,-4.125 c -0.3125,0 -0.46875,0.328125 -0.5625,0.578125 l -0.90625,2.65625 C 0.5,-0.8125 0.4375,-0.65625 0.4375,-0.578125 c 0,0.078125 0.046875,0.1875 0.140625,0.1875 0.125,0 0.28125,-0.1875 0.34375,-0.28125 l 1.4375,-2.265625 c 0.125,-0.1875 0.25,-0.4375 0.25,-0.671875 z m 0,0"
               style="fill:#a6a7b1;stroke:none" />
          </g>
        </g>
        <g
           id="id-7642a137-5f64-42ec-b3cf-7b842751bf03"
           style="fill:#a6a7b1;fill-opacity:1">
          <g
             style="fill:#a6a7b1"
             transform="translate(158.816,130.425)"
             id="g1902">
            <path
               id="id-15c4333d-0c54-43c2-9f0e-44f72de6d0a0"
               d="M 2.609375,-3.609375 C 2.609375,-3.90625 2.28125,-4.125 2,-4.125 c -0.3125,0 -0.46875,0.328125 -0.5625,0.578125 l -0.90625,2.65625 C 0.5,-0.8125 0.4375,-0.65625 0.4375,-0.578125 c 0,0.078125 0.046875,0.1875 0.140625,0.1875 0.125,0 0.28125,-0.1875 0.34375,-0.28125 l 1.4375,-2.265625 c 0.125,-0.1875 0.25,-0.4375 0.25,-0.671875 z m 0,0"
               style="fill:#a6a7b1;stroke:none" />
          </g>
        </g>
      </g>
    </g>
  </g>
</svg>
