<?xml version="1.0" encoding="UTF-8" standalone="no"?>
<svg
   xmlns:ns1="http://www.iki.fi/pav/software/textext/"
   xmlns:dc="http://purl.org/dc/elements/1.1/"
   xmlns:cc="http://creativecommons.org/ns#"
   xmlns:rdf="http://www.w3.org/1999/02/22-rdf-syntax-ns#"
   xmlns:svg="http://www.w3.org/2000/svg"
   xmlns="http://www.w3.org/2000/svg"
   xmlns:sodipodi="http://sodipodi.sourceforge.net/DTD/sodipodi-0.dtd"
   xmlns:inkscape="http://www.inkscape.org/namespaces/inkscape"
   width="43.029324mm"
   height="19.797644mm"
   viewBox="0 0 43.029323 19.797643"
   version="1.1"
   id="svg13406"
   inkscape:version="1.0 (4035a4fb49, 2020-05-01)"
   sodipodi:docname="fig_1_10.svg">
  <defs
     id="defs13400">
    <marker
       inkscape:stockid="Arrow1Send"
       orient="auto"
       refY="0.0"
       refX="0.0"
       id="marker33668"
       style="overflow:visible;"
       inkscape:isstock="true">
      <path
         id="path33666"
         d="M 0.0,0.0 L 5.0,-5.0 L -12.5,0.0 L 5.0,5.0 L 0.0,0.0 z "
         style="fill-rule:evenodd;stroke:#c28f48;stroke-width:1pt;stroke-opacity:1;fill:#c28f48;fill-opacity:1"
         transform="scale(0.2) rotate(180) translate(6,0)" />
    </marker>
    <marker
       inkscape:collect="always"
       inkscape:isstock="true"
       style="overflow:visible;"
       id="Arrow1Send"
       refX="0.0"
       refY="0.0"
       orient="auto"
       inkscape:stockid="Arrow1Send">
      <path
         transform="scale(0.2) rotate(180) translate(6,0)"
         style="fill-rule:evenodd;stroke:#3d677b;stroke-width:1pt;stroke-opacity:1;fill:#3d677b;fill-opacity:1"
         d="M 0.0,0.0 L 5.0,-5.0 L -12.5,0.0 L 5.0,5.0 L 0.0,0.0 z "
         id="path15679" />
    </marker>
    <pattern
       y="0"
       x="0"
       height="6"
       width="6"
       patternUnits="userSpaceOnUse"
       id="EMFhbasepattern" />
    <marker
       inkscape:isstock="true"
       style="overflow:visible"
       id="Arrow2Mend-5"
       refX="0"
       refY="0"
       orient="auto"
       inkscape:stockid="Arrow2Mend">
      <path
         transform="scale(-0.6)"
         d="M 8.7185878,4.0337352 -2.2072895,0.01601326 8.7185884,-4.0017078 c -1.7454984,2.3720609 -1.7354408,5.6174519 -6e-7,8.035443 z"
         style="fill:#d4aa00;fill-opacity:1;fill-rule:evenodd;stroke:#d4aa00;stroke-width:0.625;stroke-linejoin:round;stroke-opacity:1"
         id="path1015-7" />
    </marker>
    <marker
       inkscape:stockid="Arrow2Mend"
       orient="auto"
       refY="0"
       refX="0"
       id="Arrow2Mend"
       style="overflow:visible"
       inkscape:isstock="true">
      <path
         id="path1015"
         style="fill:#3d677b;fill-opacity:1;fill-rule:evenodd;stroke:#3d677b;stroke-width:0.625;stroke-linejoin:round;stroke-opacity:1"
         d="M 8.7185878,4.0337352 -2.2072895,0.01601326 8.7185884,-4.0017078 c -1.7454984,2.3720609 -1.7354408,5.6174519 -6e-7,8.035443 z"
         transform="scale(-0.6)" />
    </marker>
    <marker
       inkscape:isstock="true"
       style="overflow:visible"
       id="marker1688"
       refX="0"
       refY="0"
       orient="auto"
       inkscape:stockid="Arrow2Mend">
      <path
         transform="scale(-0.6)"
         d="M 8.7185878,4.0337352 -2.2072895,0.01601326 8.7185884,-4.0017078 c -1.7454984,2.3720609 -1.7354408,5.6174519 -6e-7,8.035443 z"
         style="fill:#0066ff;fill-opacity:1;fill-rule:evenodd;stroke:#0066ff;stroke-width:0.625;stroke-linejoin:round;stroke-opacity:1"
         id="path1686" />
    </marker>
    <marker
       inkscape:stockid="Arrow2Mend"
       orient="auto"
       refY="0"
       refX="0"
       id="marker1688-4"
       style="overflow:visible"
       inkscape:isstock="true">
      <path
         id="path1686-6"
         style="fill:#c28f48;fill-opacity:1;fill-rule:evenodd;stroke:#c28f48;stroke-width:0.625;stroke-linejoin:round;stroke-opacity:1"
         d="M 8.7185878,4.0337352 -2.2072895,0.01601326 8.7185884,-4.0017078 c -1.7454984,2.3720609 -1.7354408,5.6174519 -6e-7,8.035443 z"
         transform="scale(-0.6)" />
    </marker>
    <marker
       inkscape:stockid="Arrow2Mend"
       orient="auto"
       refY="0"
       refX="0"
       id="marker1688-1"
       style="overflow:visible"
       inkscape:isstock="true">
      <path
         id="path1686-7"
         style="fill:#ff2a2a;fill-opacity:1;fill-rule:evenodd;stroke:#ff2a2a;stroke-width:0.625;stroke-linejoin:round;stroke-opacity:1"
         d="M 8.7185878,4.0337352 -2.2072895,0.01601326 8.7185884,-4.0017078 c -1.7454984,2.3720609 -1.7354408,5.6174519 -6e-7,8.035443 z"
         transform="scale(-0.6)" />
    </marker>
    <g
       id="g11860">
      <symbol
         id="symbol11854"
         overflow="visible">
        <path
           id="path11852"
           d=""
           style="stroke:none" />
      </symbol>
      <symbol
         id="symbol11858"
         overflow="visible">
        <path
           id="path11856"
           d="m 3.1875,-4.5 c -1.28125,0 -3.078125,1.546875 -3.078125,3.34375 0,0.671875 0.3125,1.21875 0.875,1.21875 0.59375,0 1.234375,-0.65625 1.453125,-1.03125 -0.015625,0.046875 -0.03125,0.125 -0.046875,0.203125 C 2.375,-0.703125 2.375,-0.625 2.375,-0.578125 c 0,0.4375 0.28125,0.65625 0.625,0.65625 0.53125,0 1.421875,-0.890625 1.59375,-1.203125 0,-0.0625 -0.0625,-0.265625 -0.140625,-0.265625 -0.03125,0.0625 -0.5,0.609375 -0.71875,0.609375 -0.09375,0 -0.140625,-0.125 -0.140625,-0.21875 0,-0.046875 0.03125,-0.28125 0.03125,-0.328125 l 0.640625,-3 C 4.0625,-4.390625 3.546875,-4.5 3.1875,-4.5 Z M 2.625,-3.953125 c 0.140625,0 0.28125,0.046875 0.359375,0.125 l -0.1875,1 c -0.203125,1 -0.71875,2.015625 -1.0625,2.015625 -0.21875,0 -0.359375,-0.234375 -0.359375,-0.71875 0,-1.1875 0.578125,-2.421875 1.25,-2.421875 z m 0,0"
           style="stroke:none" />
      </symbol>
    </g>
    <g
       id="id-5ac602f0-6e9b-473e-826d-f2682b8926cc">
      <symbol
         id="id-f3b664c4-9621-4269-8365-cb2464221915"
         overflow="visible">
        <path
           id="id-08e8a0fc-104c-4b15-ba0c-a0efd338748d"
           d=""
           style="stroke:none" />
      </symbol>
      <symbol
         id="id-e670dc81-23e2-4136-a420-6cab0227a471"
         overflow="visible">
        <path
           id="id-1c88639d-8720-446f-8a82-a609e06bc99d"
           d="m 2.34375,-4.40625 c -1.0625,0 -2.171875,2.1875 -2.171875,3.390625 0,0.75 0.34375,1.078125 0.890625,1.078125 0.546875,0 1.15625,-0.59375 1.6875,-1.265625 -0.03125,0.1875 -0.046875,0.375 -0.046875,0.53125 0,0.40625 0.140625,0.71875 0.453125,0.71875 0.4375,0 0.78125,-0.546875 0.84375,-0.75 0.015625,-0.03125 -0.015625,-0.1875 -0.046875,-0.21875 -0.140625,0.140625 -0.296875,0.25 -0.515625,0.25 -0.15625,0 -0.359375,-0.078125 -0.359375,-0.53125 0,-0.15625 0.015625,-0.390625 0.109375,-0.6875 l 0.484375,-0.78125 c 0.25,-0.3125 0.5625,-0.921875 0.5625,-1.21875 0,-0.28125 -0.203125,-0.5 -0.328125,-0.5 -0.15625,0 -0.53125,0.9375 -0.78125,1.65625 l -0.25,0.4375 c 0.015625,-0.171875 0.03125,-0.515625 0.03125,-0.71875 0,-0.765625 -0.1875,-1.390625 -0.5625,-1.390625 z m -1.703125,3.625 c 0,-1.03125 1.03125,-2.921875 1.625,-2.921875 0.234375,0 0.3125,0.34375 0.3125,0.796875 v 0.0625 c 0,0.46875 -0.09375,0.984375 -0.25,1.328125 -0.5,0.71875 -1.015625,1.21875 -1.375,1.21875 -0.1875,0 -0.3125,-0.125 -0.3125,-0.484375 z m 0,0"
           style="stroke:none" />
      </symbol>
      <symbol
         id="id-42ea8efa-452c-43f6-8283-1337c553654d"
         overflow="visible">
        <path
           id="id-217ba429-76f6-4ed6-8bcf-2b7c213568e3"
           d=""
           style="stroke:none" />
      </symbol>
      <symbol
         id="id-db6fd4a8-b4f9-4fac-aace-99e5ad048420"
         overflow="visible">
        <path
           id="id-c9aa6782-e12a-4fc2-a529-b4cac6a0986a"
           d="m 3.1875,-4.5 c -1.28125,0 -3.078125,1.546875 -3.078125,3.34375 0,0.671875 0.3125,1.21875 0.875,1.21875 0.59375,0 1.234375,-0.65625 1.453125,-1.03125 -0.015625,0.046875 -0.03125,0.125 -0.046875,0.203125 C 2.375,-0.703125 2.375,-0.625 2.375,-0.578125 c 0,0.4375 0.28125,0.65625 0.625,0.65625 0.53125,0 1.421875,-0.890625 1.59375,-1.203125 0,-0.0625 -0.0625,-0.265625 -0.140625,-0.265625 -0.03125,0.0625 -0.5,0.609375 -0.71875,0.609375 -0.09375,0 -0.140625,-0.125 -0.140625,-0.21875 0,-0.046875 0.03125,-0.28125 0.03125,-0.328125 l 0.640625,-3 C 4.0625,-4.390625 3.546875,-4.5 3.1875,-4.5 Z M 2.625,-3.953125 c 0.140625,0 0.28125,0.046875 0.359375,0.125 l -0.1875,1 c -0.203125,1 -0.71875,2.015625 -1.0625,2.015625 -0.21875,0 -0.359375,-0.234375 -0.359375,-0.71875 0,-1.1875 0.578125,-2.421875 1.25,-2.421875 z m 0,0"
           style="stroke:none" />
      </symbol>
    </g>
    <g
       id="id-5ed177d7-b111-4505-9541-279060c6f370">
      <symbol
         id="id-f5f81477-3bf3-472b-887c-429c2688350f"
         overflow="visible">
        <path
           id="id-e2916674-c50c-446d-8945-a05c0c8f0712"
           d=""
           style="stroke:none" />
      </symbol>
      <symbol
         id="id-383de54a-7a33-4cca-b921-63fc2391aed4"
         overflow="visible">
        <path
           id="id-3e2f3dba-52a9-4017-801d-ff1c2b7e75c1"
           d="m 2.671875,-4.5 c -1.203125,0 -2.515625,1.625 -2.515625,3.1875 0,0.9375 0.609375,1.375 1.203125,1.375 0.75,0 1.65625,-0.984375 1.8125,-1.203125 0,-0.0625 -0.046875,-0.265625 -0.125,-0.265625 -0.03125,0.03125 -0.5625,0.640625 -1.015625,0.640625 -0.390625,0 -0.609375,-0.265625 -0.609375,-0.9375 C 1.421875,-2.765625 1.8125,-4 2.1875,-4 c 0.21875,0 0.359375,0.296875 0.4375,0.46875 0.109375,0.1875 0.265625,0.359375 0.515625,0.359375 0.296875,0 0.5625,-0.3125 0.5625,-0.609375 0,-0.21875 -0.09375,-0.421875 -0.15625,-0.5 C 3.421875,-4.390625 3.078125,-4.5 2.671875,-4.5 Z m 0,0"
           style="stroke:none" />
      </symbol>
    </g>
    <g
       id="id-8a8d2533-2124-4a1b-a6e0-3a8abfa90a93"
       style="fill:#d4aa00;stroke-width:0">
      <symbol
         id="id-33e5b3e7-5f92-4737-adf4-88ebbc6a37dd"
         overflow="visible"
         style="fill:#d4aa00;stroke-width:0">
        <path
           id="id-fa12b092-bd75-402f-9149-61d1ecf2902b"
           d=""
           style="fill:#d4aa00;stroke:none;stroke-width:0" />
      </symbol>
      <symbol
         id="id-d467d5cf-28b5-4110-8464-c9d0ab9401d9"
         overflow="visible"
         style="fill:#d4aa00;stroke-width:0">
        <path
           id="id-35f796b6-207f-4ab8-bb43-e270f0ec41cd"
           d="m 1.1875,-0.75 c 0.078125,0.234375 0.390625,0.8125 0.96875,0.8125 1.046875,0 1.546875,-1.34375 1.546875,-2.140625 0,-0.859375 -0.359375,-1.265625 -0.71875,-1.5 0.4375,-0.46875 0.90625,-1.328125 0.90625,-2.265625 0,-0.3125 -0.078125,-1.140625 -0.84375,-1.140625 -0.796875,0 -1.625,0.6875 -2.0625,2.921875 -0.421875,2.15625 -0.9375,4.8125 -0.9375,5.671875 0,0.421875 0.28125,0.625 0.390625,0.625 0.21875,0 0.421875,-0.234375 0.46875,-0.34375 -0.171875,-0.25 -0.25,-0.796875 -0.25,-1.53125 0,-0.765625 0.65625,-3.734375 0.75,-4.203125 0.3125,-1.5625 0.828125,-2.59375 1.671875,-2.59375 0.328125,0 0.46875,0.28125 0.46875,0.609375 C 3.546875,-4.71875 2.71875,-3.96875 2,-3.609375 1.890625,-3.5625 1.796875,-3.46875 1.796875,-3.34375 c 0,0.21875 0.1875,0.421875 0.234375,0.453125 0.109375,0 0.34375,-0.15625 0.609375,-0.375 0.046875,-0.03125 0.0625,-0.03125 0.09375,-0.03125 0.3125,0 0.578125,0.59375 0.578125,0.984375 0,1.09375 -0.578125,1.734375 -1.15625,1.734375 -0.625,0 -0.859375,-0.328125 -0.90625,-0.375 -0.03125,0 -0.078125,0.171875 -0.0625,0.203125 z m 0,0"
           style="fill:#d4aa00;stroke:none;stroke-width:0" />
      </symbol>
      <symbol
         id="id-2cee3568-8b76-42d9-b9b7-58c583de134f"
         overflow="visible"
         style="fill:#d4aa00;stroke-width:0">
        <path
           id="id-71d548a4-f2e3-47dc-abb0-e236297c496f"
           d=""
           style="fill:#d4aa00;stroke:none;stroke-width:0" />
      </symbol>
      <symbol
         id="id-03c63ba4-667e-46e7-b4c0-f285972e17e7"
         overflow="visible"
         style="fill:#d4aa00;stroke-width:0">
        <path
           id="id-f2d01bb0-153b-44c1-80b8-a44ae490686c"
           d="m 2.8125,-3.625 c 0.234375,0 0.28125,0.34375 0.28125,0.59375 0,0.96875 -0.625,2.640625 -1.265625,2.640625 -0.359375,0 -0.359375,-0.71875 -0.25,-1.28125 C 1.75,-2.5625 2.359375,-3.625 2.8125,-3.625 Z M 1.90625,-3.375 2.4375,-6.046875 C 2.5,-6.28125 2.578125,-6.703125 2.578125,-6.78125 c 0,-0.0625 0,-0.171875 -0.0625,-0.203125 -0.21875,0.09375 -1.265625,0.296875 -1.8125,0.34375 -0.03125,0.046875 -0.0625,0.265625 -0.03125,0.296875 0.15625,0 0.609375,0 0.609375,0.1875 0,0.109375 -0.046875,0.359375 -0.078125,0.546875 L 0.40625,-1.625 c -0.03125,0.140625 -0.0625,0.421875 -0.0625,0.5625 0,0.6875 0.546875,1.125 1.171875,1.125 1.140625,0 2.875,-1.5625 2.875,-3.4375 0,-0.734375 -0.359375,-1.125 -0.921875,-1.125 -0.484375,0 -1.28125,0.703125 -1.5625,1.125 z m 0,0"
           style="fill:#d4aa00;stroke:none;stroke-width:0" />
      </symbol>
    </g>
    <g
       id="id-3a87597b-e5e9-4843-aa8e-e3e021742c05">
      <symbol
         id="id-3defd79f-3d2e-4dc6-bad4-286e532bd273"
         overflow="visible">
        <path
           id="id-04023761-9ff2-4c94-90c6-8ffff5eca3e1"
           d=""
           style="stroke:none" />
      </symbol>
      <symbol
         id="id-fbe5c2f5-bfa3-473c-aa00-342537075ffe"
         overflow="visible">
        <path
           id="id-72faf0c7-6611-4924-af96-8af8246a0d3c"
           d="m 2.8125,-3.625 c 0.234375,0 0.28125,0.34375 0.28125,0.59375 0,0.96875 -0.625,2.640625 -1.265625,2.640625 -0.359375,0 -0.359375,-0.71875 -0.25,-1.28125 C 1.75,-2.5625 2.359375,-3.625 2.8125,-3.625 Z M 1.90625,-3.375 2.4375,-6.046875 C 2.5,-6.28125 2.578125,-6.703125 2.578125,-6.78125 c 0,-0.0625 0,-0.171875 -0.0625,-0.203125 -0.21875,0.09375 -1.265625,0.296875 -1.8125,0.34375 -0.03125,0.046875 -0.0625,0.265625 -0.03125,0.296875 0.15625,0 0.609375,0 0.609375,0.1875 0,0.109375 -0.046875,0.359375 -0.078125,0.546875 L 0.40625,-1.625 c -0.03125,0.140625 -0.0625,0.421875 -0.0625,0.5625 0,0.6875 0.546875,1.125 1.171875,1.125 1.140625,0 2.875,-1.5625 2.875,-3.4375 0,-0.734375 -0.359375,-1.125 -0.921875,-1.125 -0.484375,0 -1.28125,0.703125 -1.5625,1.125 z m 0,0"
           style="stroke:none" />
      </symbol>
    </g>
    <inkscape:path-effect
       is_visible="true"
       id="path-effect2988"
       effect="spiro"
       lpeversion="0" />
  </defs>
  <sodipodi:namedview
     id="base"
     pagecolor="#ffffff"
     bordercolor="#666666"
     borderopacity="1.0"
     inkscape:pageopacity="0.0"
     inkscape:pageshadow="2"
     inkscape:zoom="2.8"
     inkscape:cx="58.832035"
     inkscape:cy="57.814805"
     inkscape:document-units="mm"
     inkscape:current-layer="layer1"
     inkscape:document-rotation="0"
     showgrid="false"
     inkscape:window-width="1600"
     inkscape:window-height="837"
     inkscape:window-x="-8"
     inkscape:window-y="-8"
     inkscape:window-maximized="1"
     fit-margin-top="0"
     fit-margin-left="0"
     fit-margin-right="0"
     fit-margin-bottom="0" />
  <metadata
     id="metadata13403">
    <rdf:RDF>
      <cc:Work
         rdf:about="">
        <dc:format>image/svg+xml</dc:format>
        <dc:type
           rdf:resource="http://purl.org/dc/dcmitype/StillImage" />
        <dc:title></dc:title>
      </cc:Work>
    </rdf:RDF>
  </metadata>
  <g
     inkscape:label="Layer 1"
     inkscape:groupmode="layer"
     id="layer1"
     transform="translate(-90.155838,-126.019)">
    <path
       style="fill:none;stroke:#d3c7b1;stroke-width:0.352778;stroke-linecap:butt;stroke-linejoin:miter;stroke-miterlimit:4;stroke-dasharray:1.05833, 0.35277799999999998;stroke-dashoffset:0;stroke-opacity:1"
       d="m 105.89027,133.09761 -0.0181,4.84687"
       id="path14495" />
    <path
       id="path14495-4"
       d="m 121.18172,128.08646 -0.0176,10.06345"
       style="fill:none;stroke:#d3c7b1;stroke-width:0.352778;stroke-linecap:butt;stroke-linejoin:miter;stroke-miterlimit:4;stroke-dasharray:1.05833, 0.35277799999999998;stroke-dashoffset:0;stroke-opacity:1" />
    <path
       style="fill:none;stroke:#c28f48;stroke-width:0.513801;stroke-linecap:butt;stroke-linejoin:miter;stroke-miterlimit:4;stroke-dasharray:none;stroke-opacity:1;marker-end:url(#marker33668)"
       d="m 105.89023,133.10585 14.47744,-4.75615"
       id="path1684-4" />
    <path
       style="fill:none;stroke:#000000;stroke-width:0.176389;stroke-linecap:butt;stroke-linejoin:miter;stroke-miterlimit:4;stroke-dasharray:none;stroke-opacity:1"
       d="m 101.1907,134.60449 v 0 c 1.35232,1.27585 0.49864,3.40412 0.0632,3.36884"
       id="path14514"
       sodipodi:nodetypes="ccc" />
    <path
       style="fill:#999999;stroke:#d3c7b1;stroke-width:0.352778;stroke-linecap:butt;stroke-linejoin:miter;stroke-miterlimit:4;stroke-dasharray:1.05833, 0.35277799999999998;stroke-dashoffset:0;stroke-opacity:1"
       d="m 90.208612,138.01461 15.681658,-4.917"
       id="path14493" />
    <g
       id="g14814"
       ns1:jacobian_sqrt="0.352778"
       ns1:inkscapeversion="1.0"
       ns1:alignment="middle center"
       ns1:scale="1.0000000850393187"
       ns1:preamble="C:\\Users\\flvisa\\Desktop\\lna\\latexify_books\\textext_preamble.tex"
       ns1:text="$\\varphi$"
       ns1:pdfconverter="inkscape"
       ns1:texconverter="pdflatex"
       ns1:version="1.1.0"
       transform="matrix(0.352778,0,0,0.352778,99.711941,135.32762)">
      <defs
         id="id-b75022da-26ef-4d80-a495-0367938f1a19">
        <g
           id="id-19cc6cbd-2643-43e5-a871-08f39ae0a8c9">
          <symbol
             overflow="visible"
             id="id-219e03ce-4c6c-4595-b8fc-3a52e5bb2cd0">
            <path
               style="stroke:none"
               d=""
               id="id-e089a402-d1ef-421e-ae0a-6dfcefd6fcdc" />
          </symbol>
          <symbol
             overflow="visible"
             id="id-83c3986b-4fd5-4eee-897e-e71db561838f">
            <path
               style="stroke:none"
               d="m 4.6875,-2.828125 c 0,-0.875 -0.421875,-1.53125 -0.953125,-1.53125 -0.859375,0 -1.375,0.90625 -1.765625,2.9375 L 1.8125,-0.5625 H 1.75 c -0.78125,0 -1.125,-0.28125 -1.125,-0.921875 0,-1.15625 1.234375,-2.359375 2.0625,-2.484375 V -4 c 0,-0.234375 -0.390625,-0.359375 -0.625,-0.359375 -0.484375,0 -1.828125,1.375 -1.828125,2.796875 0,0.890625 0.5,1.546875 1.453125,1.65625 L 1.328125,1.9375 v 0.015625 c 0,0.15625 0.421875,0.34375 0.46875,0.34375 0.09375,0 0.171875,-0.0625 0.25,-0.15625 V 2.03125 C 2.046875,1.6875 2.140625,0.75 2.25,0.109375 3.59375,-0.09375 4.6875,-1.28125 4.6875,-2.828125 Z m -2.359375,2.21875 c 0.1875,-1.171875 0.5,-3.203125 1.390625,-3.203125 0.390625,0 0.609375,0.28125 0.609375,0.734375 0,1.171875 -0.875,2.328125 -2,2.46875 z m 0,0"
               id="id-87685a19-b182-4989-aa29-0446b11518f8" />
          </symbol>
        </g>
      </defs>
      <g
         id="id-ff22382d-886a-43af-a903-dd7b7af9e3c8"
         transform="translate(-149.225,-130.406)">
        <g
           style="fill:#000000;fill-opacity:1"
           id="id-e526538c-1e4f-4ec8-870f-3fc1a3c81a42">
          <g
             id="g14810"
             transform="translate(148.991,134.765)">
            <path
               style="stroke:none"
               d="m 4.6875,-2.828125 c 0,-0.875 -0.421875,-1.53125 -0.953125,-1.53125 -0.859375,0 -1.375,0.90625 -1.765625,2.9375 L 1.8125,-0.5625 H 1.75 c -0.78125,0 -1.125,-0.28125 -1.125,-0.921875 0,-1.15625 1.234375,-2.359375 2.0625,-2.484375 V -4 c 0,-0.234375 -0.390625,-0.359375 -0.625,-0.359375 -0.484375,0 -1.828125,1.375 -1.828125,2.796875 0,0.890625 0.5,1.546875 1.453125,1.65625 L 1.328125,1.9375 v 0.015625 c 0,0.15625 0.421875,0.34375 0.46875,0.34375 0.09375,0 0.171875,-0.0625 0.25,-0.15625 V 2.03125 C 2.046875,1.6875 2.140625,0.75 2.25,0.109375 3.59375,-0.09375 4.6875,-1.28125 4.6875,-2.828125 Z m -2.359375,2.21875 c 0.1875,-1.171875 0.5,-3.203125 1.390625,-3.203125 0.390625,0 0.609375,0.28125 0.609375,0.734375 0,1.171875 -0.875,2.328125 -2,2.46875 z m 0,0"
               id="id-7eeb39f0-efc3-4ce9-a1ef-2f8cf5720e34" />
          </g>
        </g>
      </g>
    </g>
    <g
       style="display:inline;fill:#9a4832"
       id="g15104"
       transform="matrix(0.17178141,0,0,-0.17178141,105.87217,141.2498)">
      <path
         sodipodi:nodetypes="zsszczsszcsszzczzszcz"
         inkscape:connector-curvature="0"
         inkscape:original-d="m 50.0087,3.0227061 c 1.292036,0.5024419 4.985995,0.399272 7.550759,0.6849483 1.282382,0.1428382 18.039431,-0.09915 22.426897,-0.020646 4.387466,0.078504 5.444938,0.5434835 6.075969,0.9125736 C 86.693356,4.9686721 90,10 90,10 90,10 88.182447,8.402454 87.576557,8.1974158 86.970666,7.9923776 84.200716,7.0362075 80.107536,6.9734277 76.014356,6.9106479 60.964516,7.0154518 59.816442,6.9528892 57.520294,6.8277642 51.410387,6.1064871 50.134192,5.5698678 48.857997,5.0332484 45,1 45,1 45,1 38.478896,4.5713892 40.032465,5.4662944 40.895198,5.9632565 37.997093,6.5135007 29.962552,7.0265398 21.92801,7.5395789 11.000434,6.893712 10.056424,6.9779241 9.1124136,7.0621362 3.8409013,7.4088488 2.4647757,8.1914576 1.0886501,8.9740664 0,10 0,10 0,10 5.3337905,6.777155 3.9777757,4.5709333 2.6217609,2.3647115 9.6174962,4.4378151 9.9615558,3.5550337 10.305615,2.6722522 24.999056,3.8199992 32.562597,3.4954066 40.126138,3.1708139 39.372095,2.0337056 39.964882,2.9155242 40.55767,3.7973429 42.243915,0.48797044 45,0 c 2.635001,0.50646149 3.716664,2.5202643 5.0087,3.0227061 z"
         inkscape:path-effect="#path-effect2988"
         id="path3774"
         d="m 50.0087,3.0227061 c 2.425745,0.746744 5.012823,0.7122008 7.550759,0.6849483 7.475267,-0.08027 14.951223,-0.039342 22.426897,-0.020646 2.065866,0.00517 4.210218,0.025554 6.075969,0.9125736 C 88.159639,5.5966914 89.691972,7.6982458 90,10 89.307261,9.262159 88.482465,8.6486667 87.576557,8.1974158 85.297754,7.0622986 82.653275,6.9988553 80.107536,6.9734277 73.344129,6.9058728 66.580182,6.9450812 59.816442,6.9528892 56.529683,6.9566834 53.126722,6.929119 50.134192,5.5698678 48.016335,4.607906 46.200968,2.9920752 45,1 43.815115,2.9213533 42.068558,4.4916771 40.032465,5.4662944 36.941889,6.9456618 33.388933,7.0165354 29.962552,7.0265398 23.327154,7.0459139 16.691754,6.9420887 10.056424,6.9779241 7.4704959,6.9918899 4.7850487,7.0497254 2.4647757,8.1914576 1.5457144,8.6436983 0.70717095,9.258984 0,10 0.34151794,7.6910633 1.8791292,5.5924547 3.9777757,4.5709333 5.8118098,3.6782126 7.9223541,3.6028644 9.9615558,3.5550337 17.49377,3.3783611 25.029743,3.3485189 32.562597,3.4954066 35.047171,3.5438548 37.577655,3.6058885 39.964882,2.9155242 41.846492,2.3713797 43.59139,1.3610173 45,0 c 1.390009,1.3953906 3.126297,2.443225 5.0087,3.0227061 z"
         style="fill:#9a4832;fill-opacity:1;stroke:none" />
    </g>
    <path
       style="fill:none;stroke:#3d677b;stroke-width:0.526712;stroke-linecap:butt;stroke-linejoin:miter;stroke-miterlimit:4;stroke-dasharray:none;stroke-opacity:1;marker-end:url(#Arrow1Send)"
       d="M 90.208614,138.01461 H 132.25896"
       id="path10835" />
    <g
       transform="matrix(0.458611,0,0,0.458611,116.053,126.019)"
       ns1:version="1.1.0"
       ns1:texconverter="pdflatex"
       ns1:pdfconverter="inkscape"
       ns1:text="$\\boldsymbol{a}$"
       ns1:preamble="C:\\Users\\flvisa\\Desktop\\lna\\latexify_books\\textext_preamble.tex"
       ns1:scale="1.3"
       ns1:alignment="middle center"
       ns1:inkscapeversion="1.0"
       ns1:jacobian_sqrt="0.458611"
       style="fill:#c28f48;stroke-width:0"
       id="g28449">
      <defs
         id="id-25a44b57-f49a-48a4-b462-6b45379bad72">
        <g
           id="id-d599b4f0-ccb7-42f1-9738-da753bfd661f"
           style="fill:#0066ff;stroke-width:0">
          <symbol
             id="id-e8d77065-330b-4050-a032-6214892197c5"
             overflow="visible"
             style="fill:#0066ff;stroke-width:0">
            <path
               id="id-ad1a4eac-025f-4c47-bc8d-7dbb5a21bfa4"
               d=""
               style="fill:#0066ff;stroke:none;stroke-width:0" />
          </symbol>
          <symbol
             id="id-25d0a201-2be2-49ae-a83c-043c0b542032"
             overflow="visible"
             style="fill:#0066ff;stroke-width:0">
            <path
               id="id-91ee2aaf-0ce2-4af8-bff5-c6d0ed670e99"
               d="m 3.1875,-4.5 c -1.28125,0 -3.078125,1.546875 -3.078125,3.34375 0,0.671875 0.3125,1.21875 0.875,1.21875 0.59375,0 1.234375,-0.65625 1.453125,-1.03125 -0.015625,0.046875 -0.03125,0.125 -0.046875,0.203125 C 2.375,-0.703125 2.375,-0.625 2.375,-0.578125 c 0,0.4375 0.28125,0.65625 0.625,0.65625 0.53125,0 1.421875,-0.890625 1.59375,-1.203125 0,-0.0625 -0.0625,-0.265625 -0.140625,-0.265625 -0.03125,0.0625 -0.5,0.609375 -0.71875,0.609375 -0.09375,0 -0.140625,-0.125 -0.140625,-0.21875 0,-0.046875 0.03125,-0.28125 0.03125,-0.328125 l 0.640625,-3 C 4.0625,-4.390625 3.546875,-4.5 3.1875,-4.5 Z M 2.625,-3.953125 c 0.140625,0 0.28125,0.046875 0.359375,0.125 l -0.1875,1 c -0.203125,1 -0.71875,2.015625 -1.0625,2.015625 -0.21875,0 -0.359375,-0.234375 -0.359375,-0.71875 0,-1.1875 0.578125,-2.421875 1.25,-2.421875 z m 0,0"
               style="fill:#0066ff;stroke:none;stroke-width:0" />
          </symbol>
        </g>
      </defs>
      <g
         transform="translate(-149.021,-130.265)"
         id="id-f51d30db-a6d6-448c-9d7a-aacdc898f8ec"
         style="fill:#c28f48;stroke-width:0">
        <g
           id="id-2ba22901-a778-41b0-b6b0-5e72da97034b"
           style="fill:#c28f48;fill-opacity:1;stroke-width:0">
          <g
             transform="translate(148.912,134.765)"
             style="fill:#c28f48;stroke-width:0"
             id="g28445">
            <path
               id="id-581bf1e8-6c6d-4f9b-ac18-bc85af312a89"
               d="m 3.1875,-4.5 c -1.28125,0 -3.078125,1.546875 -3.078125,3.34375 0,0.671875 0.3125,1.21875 0.875,1.21875 0.59375,0 1.234375,-0.65625 1.453125,-1.03125 -0.015625,0.046875 -0.03125,0.125 -0.046875,0.203125 C 2.375,-0.703125 2.375,-0.625 2.375,-0.578125 c 0,0.4375 0.28125,0.65625 0.625,0.65625 0.53125,0 1.421875,-0.890625 1.59375,-1.203125 0,-0.0625 -0.0625,-0.265625 -0.140625,-0.265625 -0.03125,0.0625 -0.5,0.609375 -0.71875,0.609375 -0.09375,0 -0.140625,-0.125 -0.140625,-0.21875 0,-0.046875 0.03125,-0.28125 0.03125,-0.328125 l 0.640625,-3 C 4.0625,-4.390625 3.546875,-4.5 3.1875,-4.5 Z M 2.625,-3.953125 c 0.140625,0 0.28125,0.046875 0.359375,0.125 l -0.1875,1 c -0.203125,1 -0.71875,2.015625 -1.0625,2.015625 -0.21875,0 -0.359375,-0.234375 -0.359375,-0.71875 0,-1.1875 0.578125,-2.421875 1.25,-2.421875 z m 0,0"
               style="fill:#c28f48;stroke:none;stroke-width:0" />
          </g>
        </g>
      </g>
    </g>
    <g
       transform="matrix(0.458611,0,0,0.458611,129.56268,139.59217)"
       ns1:version="1.1.0"
       ns1:texconverter="pdflatex"
       ns1:pdfconverter="inkscape"
       ns1:text="$l$"
       ns1:preamble="C:\\Users\\flvisa\\Desktop\\lna\\latexify_books\\textext_preamble.tex"
       ns1:scale="1.3"
       ns1:alignment="middle center"
       ns1:inkscapeversion="1.0"
       ns1:jacobian_sqrt="0.458611"
       style="fill:#3d677b;stroke-width:0"
       id="g28601">
      <defs
         id="id-f3ec9223-9eb0-4506-b091-6252fb69631c">
        <g
           id="id-19ae904d-b7dc-4096-b4c9-a79a76d6259f"
           style="fill:#000000;stroke-width:0">
          <symbol
             id="id-643d2548-51b9-4e6c-862a-1f7a33c430be"
             overflow="visible"
             style="fill:#000000;stroke-width:0">
            <path
               id="id-9442e23c-3771-4995-85d1-9bd5f6a340cb"
               d=""
               style="fill:#000000;stroke:none;stroke-width:0" />
          </symbol>
          <symbol
             id="id-4a86afb7-02c2-433d-b9ef-a22bdca44ecb"
             overflow="visible"
             style="fill:#000000;stroke-width:0">
            <path
               id="id-b8a65d79-acf6-4997-ac17-1b19e640784d"
               d="M 1.359375,-5.640625 0.453125,-1 C 0.40625,-0.78125 0.375,-0.546875 0.375,-0.46875 c 0,0.296875 0.125,0.53125 0.34375,0.53125 0.484375,0 1.203125,-0.765625 1.3125,-0.953125 0,-0.0625 -0.0625,-0.171875 -0.09375,-0.171875 C 1.90625,-1.03125 1.453125,-0.5 1.21875,-0.5 1.125,-0.5 1.125,-0.65625 1.125,-0.75 c 0,-0.046875 0.03125,-0.28125 0.046875,-0.3125 l 0.96875,-4.90625 c 0.046875,-0.234375 0.125,-0.671875 0.125,-0.75 0,-0.0625 -0.015625,-0.15625 -0.0625,-0.1875 C 1.984375,-6.828125 1.421875,-6.625 0.875,-6.578125 0.828125,-6.546875 0.796875,-6.40625 0.828125,-6.375 c 0.15625,0 0.625,0.015625 0.625,0.203125 0,0.109375 -0.0625,0.34375 -0.09375,0.53125 z m 0,0"
               style="fill:#000000;stroke:none;stroke-width:0" />
          </symbol>
        </g>
      </defs>
      <g
         transform="translate(-149.287,-127.859)"
         id="id-ae23cb74-b19c-44b4-8b7b-a8f6d548dc81"
         style="fill:#3d677b;stroke-width:0">
        <g
           id="id-f360b711-f742-424d-b46c-44e1051b635f"
           style="fill:#3d677b;fill-opacity:1;stroke-width:0">
          <g
             transform="translate(148.912,134.765)"
             style="fill:#3d677b;stroke-width:0"
             id="g28597">
            <path
               id="id-948f635a-da00-4bde-b31d-92d3d9f677ea"
               d="M 1.359375,-5.640625 0.453125,-1 C 0.40625,-0.78125 0.375,-0.546875 0.375,-0.46875 c 0,0.296875 0.125,0.53125 0.34375,0.53125 0.484375,0 1.203125,-0.765625 1.3125,-0.953125 0,-0.0625 -0.0625,-0.171875 -0.09375,-0.171875 C 1.90625,-1.03125 1.453125,-0.5 1.21875,-0.5 1.125,-0.5 1.125,-0.65625 1.125,-0.75 c 0,-0.046875 0.03125,-0.28125 0.046875,-0.3125 l 0.96875,-4.90625 c 0.046875,-0.234375 0.125,-0.671875 0.125,-0.75 0,-0.0625 -0.015625,-0.15625 -0.0625,-0.1875 C 1.984375,-6.828125 1.421875,-6.625 0.875,-6.578125 0.828125,-6.546875 0.796875,-6.40625 0.828125,-6.375 c 0.15625,0 0.625,0.015625 0.625,0.203125 0,0.109375 -0.0625,0.34375 -0.09375,0.53125 z m 0,0"
               style="fill:#3d677b;stroke:none;stroke-width:0" />
          </g>
        </g>
      </g>
    </g>
    <g
       transform="matrix(0.458611,0,0,0.458611,103.24617,142.74951)"
       ns1:version="1.1.0"
       ns1:texconverter="pdflatex"
       ns1:pdfconverter="inkscape"
       ns1:text="$a_l = a\\,\\cos\\varphi$"
       ns1:preamble="C:\\Users\\flvisa\\Desktop\\lna\\latexify_books\\textext_preamble.tex"
       ns1:scale="1.3"
       ns1:alignment="middle center"
       ns1:inkscapeversion="1.0"
       ns1:jacobian_sqrt="0.458611"
       style="fill:#9a4832;stroke-width:0"
       id="g28760">
      <defs
         id="id-8bbebd23-9638-4917-98d3-df2132d452c4">
        <g
           id="id-475e0d8f-7471-4be8-ac0c-a681f8f5d2d6"
           style="fill:#00d400;stroke-width:0">
          <symbol
             id="id-9c14c3a0-33fc-4dc7-ae81-f77cc79e85a3"
             overflow="visible"
             style="fill:#00d400;stroke-width:0">
            <path
               id="id-61f11199-decc-4365-859d-18e6868fd202"
               d=""
               style="fill:#00d400;stroke:none;stroke-width:0" />
          </symbol>
          <symbol
             id="id-0fe7f40e-090e-4c6a-9ab9-7542c2034551"
             overflow="visible"
             style="fill:#00d400;stroke-width:0">
            <path
               id="id-63a54f24-5d32-4006-a797-273338187413"
               d="m 3.078125,-4.390625 c -1.21875,0 -2.890625,1.5 -2.890625,3.25 0,0.71875 0.34375,1.1875 0.90625,1.1875 0.578125,0 1.28125,-1 1.484375,-1.359375 -0.03125,0.140625 -0.125,0.75 -0.125,0.84375 0,0.296875 0.125,0.53125 0.34375,0.53125 0.484375,0 1.203125,-0.765625 1.3125,-0.953125 0,-0.0625 -0.0625,-0.171875 -0.09375,-0.171875 C 3.984375,-1.03125 3.53125,-0.5 3.3125,-0.5 3.234375,-0.5 3.203125,-0.59375 3.203125,-0.71875 3.203125,-0.84375 3.234375,-1 3.25,-1.0625 L 3.875,-4.25 C 3.671875,-4.328125 3.421875,-4.390625 3.078125,-4.390625 Z m -0.46875,0.40625 c 0.125,0 0.375,0.046875 0.46875,0.140625 l -0.21875,1.078125 c -0.1875,0.96875 -0.890625,2.234375 -1.40625,2.234375 -0.34375,0 -0.515625,-0.359375 -0.515625,-1 0,-1.15625 0.890625,-2.453125 1.671875,-2.453125 z m 0,0"
               style="fill:#00d400;stroke:none;stroke-width:0" />
          </symbol>
          <symbol
             id="id-ea40e18c-7cf6-4070-8ccc-27fc64f87c3a"
             overflow="visible"
             style="fill:#00d400;stroke-width:0">
            <path
               id="id-9bd6b430-e67e-45b8-8d53-84dd9abafbca"
               d="m 4.6875,-2.828125 c 0,-0.875 -0.421875,-1.53125 -0.953125,-1.53125 -0.859375,0 -1.375,0.90625 -1.765625,2.9375 L 1.8125,-0.5625 H 1.75 c -0.78125,0 -1.125,-0.28125 -1.125,-0.921875 0,-1.15625 1.234375,-2.359375 2.0625,-2.484375 V -4 c 0,-0.234375 -0.390625,-0.359375 -0.625,-0.359375 -0.484375,0 -1.828125,1.375 -1.828125,2.796875 0,0.890625 0.5,1.546875 1.453125,1.65625 L 1.328125,1.9375 v 0.015625 c 0,0.15625 0.421875,0.34375 0.46875,0.34375 0.09375,0 0.171875,-0.0625 0.25,-0.15625 V 2.03125 C 2.046875,1.6875 2.140625,0.75 2.25,0.109375 3.59375,-0.09375 4.6875,-1.28125 4.6875,-2.828125 Z m -2.359375,2.21875 c 0.1875,-1.171875 0.5,-3.203125 1.390625,-3.203125 0.390625,0 0.609375,0.28125 0.609375,0.734375 0,1.171875 -0.875,2.328125 -2,2.46875 z m 0,0"
               style="fill:#00d400;stroke:none;stroke-width:0" />
          </symbol>
          <symbol
             id="id-91b22d58-3c8e-480c-8cd0-2b17d81f2476"
             overflow="visible"
             style="fill:#00d400;stroke-width:0">
            <path
               id="id-6596c9ef-8c50-4c40-8557-d27a3693ec7f"
               d=""
               style="fill:#00d400;stroke:none;stroke-width:0" />
          </symbol>
          <symbol
             id="id-ca9c71ea-2ab2-4d9e-9420-bd29363e2427"
             overflow="visible"
             style="fill:#00d400;stroke-width:0">
            <path
               id="id-073bac8e-ed3f-4364-a641-fd326d886cb6"
               d="m 0.984375,-4.109375 -0.65625,3.390625 c -0.03125,0.15625 -0.0625,0.3125 -0.0625,0.375 0,0.21875 0.09375,0.390625 0.25,0.390625 0.359375,0 0.890625,-0.5625 0.96875,-0.6875 0,-0.046875 -0.046875,-0.140625 -0.0625,-0.140625 -0.03125,0.03125 -0.375,0.421875 -0.53125,0.421875 -0.0625,0 -0.0625,-0.125 -0.0625,-0.1875 0,-0.03125 0.015625,-0.203125 0.015625,-0.234375 l 0.71875,-3.5625 c 0.03125,-0.1875 0.09375,-0.5 0.09375,-0.546875 0,-0.046875 -0.015625,-0.125 -0.046875,-0.140625 -0.15625,0.046875 -0.578125,0.203125 -0.984375,0.234375 -0.015625,0.03125 -0.046875,0.125 -0.015625,0.15625 0.109375,0 0.4375,0 0.4375,0.140625 0,0.078125 -0.03125,0.25 -0.0625,0.390625 z m 0,0"
               style="fill:#00d400;stroke:none;stroke-width:0" />
          </symbol>
          <symbol
             id="id-c5e970f6-c68d-4332-8acf-7dddfaefcd93"
             overflow="visible"
             style="fill:#00d400;stroke-width:0">
            <path
               id="id-81b998e6-c5fb-492a-b969-0cd7dfa28337"
               d=""
               style="fill:#00d400;stroke:none;stroke-width:0" />
          </symbol>
          <symbol
             id="id-2ab2549b-d92d-4579-9b92-f19d90108928"
             overflow="visible"
             style="fill:#00d400;stroke-width:0">
            <path
               id="id-7eb64ca1-237e-4cbe-b9eb-ea27771993b4"
               d="M 5.5,-3.296875 V -3.84375 H 0.40625 v 0.546875 z m 0,2.03125 v -0.5625 H 0.40625 v 0.5625 z m 0,0"
               style="fill:#00d400;stroke:none;stroke-width:0" />
          </symbol>
          <symbol
             id="id-05736007-d06d-4dc2-8278-e9eaac25b119"
             overflow="visible"
             style="fill:#00d400;stroke-width:0">
            <path
               id="id-7118aa93-8d4d-460c-a48e-3b9dc5c2aa3a"
               d="M 0.5,0 H 4.484375 V -4.8125 H 0.5 Z M 1,-0.5 V -4.3125 H 3.984375 V -0.5 Z m 0,0"
               style="fill:#00d400;stroke:none;stroke-width:0" />
          </symbol>
          <symbol
             id="id-b5806168-505b-4406-af01-9de7389dd1eb"
             overflow="visible"
             style="fill:#00d400;stroke-width:0">
            <path
               id="id-bc3f58c8-7cf8-4620-a1ac-631f80c4938c"
               d="m 3.78125,-3.84375 c 0,-0.109375 -0.046875,-0.25 -0.09375,-0.28125 -0.234375,-0.15625 -0.546875,-0.234375 -0.890625,-0.234375 -1.046875,0 -2.40625,0.96875 -2.40625,2.421875 0,1.046875 0.796875,2.015625 2,2.015625 0.765625,0 1.265625,-0.5625 1.453125,-0.828125 0.03125,-0.0625 0.046875,-0.140625 0.046875,-0.1875 0,-0.078125 -0.0625,-0.125 -0.078125,-0.125 -0.125,0.140625 -0.5,0.5 -1.046875,0.5 -0.90625,0 -1.625,-0.53125 -1.625,-1.703125 0,-1.046875 0.59375,-1.671875 1.125,-1.671875 0.25,0 0.34375,0.046875 0.5625,0.203125 C 3,-3.625 3.203125,-3.375 3.40625,-3.375 c 0.1875,0 0.375,-0.125 0.375,-0.46875 z m 0,0"
               style="fill:#00d400;stroke:none;stroke-width:0" />
          </symbol>
          <symbol
             id="id-a91f099a-ce0b-4a99-a08b-446f9173926e"
             overflow="visible"
             style="fill:#00d400;stroke-width:0">
            <path
               id="id-cb8d9c81-67b6-4482-a4d7-20212f81886f"
               d="m 2.40625,-4.046875 c 0.890625,0 1.375,1.109375 1.375,2.078125 0,0.859375 -0.296875,1.71875 -1.15625,1.71875 -0.890625,0 -1.375,-1.109375 -1.375,-2.078125 0,-0.859375 0.3125,-1.71875 1.15625,-1.71875 z M 2.515625,-4.375 c -1.203125,0 -2.109375,0.96875 -2.109375,2.25 0,1.25 0.8125,2.1875 2.125,2.1875 1.203125,0 2.09375,-0.984375 2.09375,-2.265625 0,-1.25 -0.8125,-2.171875 -2.109375,-2.171875 z m 0,0"
               style="fill:#00d400;stroke:none;stroke-width:0" />
          </symbol>
          <symbol
             id="id-cd658e3e-bdef-48ec-a7f2-832eec0b8c23"
             overflow="visible"
             style="fill:#00d400;stroke-width:0">
            <path
               id="id-aba5a547-78e1-48d0-a038-721bed525ef6"
               d="M 1.921875,-4.359375 C 1.203125,-4.359375 0.5,-3.875 0.5,-3.140625 c 0,0.53125 0.34375,0.84375 0.75,1.078125 0.578125,0.328125 1.203125,0.53125 1.203125,1.140625 0,0.453125 -0.3125,0.71875 -0.703125,0.71875 -0.53125,0 -0.96875,-0.53125 -1.078125,-0.9375 -0.03125,-0.03125 -0.046875,-0.03125 -0.078125,-0.03125 -0.0625,0 -0.140625,0.03125 -0.1875,0.0625 0,0.25 0.09375,0.8125 0.171875,1.03125 C 1,0 1.28125,0.109375 1.71875,0.109375 c 0.796875,0 1.515625,-0.5625 1.515625,-1.375 0,-0.640625 -0.6875,-0.953125 -1.125,-1.21875 C 1.671875,-2.75 1.25,-2.90625 1.25,-3.421875 c 0,-0.359375 0.21875,-0.625 0.6875,-0.625 0.4375,0 0.75,0.53125 0.84375,0.90625 0.046875,0.046875 0.125,0.0625 0.171875,0.0625 0.046875,0 0.09375,-0.015625 0.09375,-0.0625 0,-0.34375 -0.046875,-0.78125 -0.109375,-1.09375 -0.4375,-0.046875 -0.640625,-0.125 -1.015625,-0.125 z m 0,0"
               style="fill:#00d400;stroke:none;stroke-width:0" />
          </symbol>
        </g>
      </defs>
      <g
         transform="translate(-149.1,-130.374)"
         id="id-80cba43a-d1af-4057-918b-74c2b150530e"
         style="fill:#9a4832;stroke-width:0">
        <g
           id="id-8f80bbeb-fd72-4790-88e1-5d4b1bfa0f46"
           style="fill:#9a4832;fill-opacity:1;stroke-width:0">
          <g
             transform="translate(148.912,134.765)"
             style="fill:#9a4832;stroke-width:0"
             id="g28730">
            <path
               id="id-4bc4acbe-fab5-438a-b2e2-4c2ec121c94e"
               d="m 3.078125,-4.390625 c -1.21875,0 -2.890625,1.5 -2.890625,3.25 0,0.71875 0.34375,1.1875 0.90625,1.1875 0.578125,0 1.28125,-1 1.484375,-1.359375 -0.03125,0.140625 -0.125,0.75 -0.125,0.84375 0,0.296875 0.125,0.53125 0.34375,0.53125 0.484375,0 1.203125,-0.765625 1.3125,-0.953125 0,-0.0625 -0.0625,-0.171875 -0.09375,-0.171875 C 3.984375,-1.03125 3.53125,-0.5 3.3125,-0.5 3.234375,-0.5 3.203125,-0.59375 3.203125,-0.71875 3.203125,-0.84375 3.234375,-1 3.25,-1.0625 L 3.875,-4.25 C 3.671875,-4.328125 3.421875,-4.390625 3.078125,-4.390625 Z m -0.46875,0.40625 c 0.125,0 0.375,0.046875 0.46875,0.140625 l -0.21875,1.078125 c -0.1875,0.96875 -0.890625,2.234375 -1.40625,2.234375 -0.34375,0 -0.515625,-0.359375 -0.515625,-1 0,-1.15625 0.890625,-2.453125 1.671875,-2.453125 z m 0,0"
               style="fill:#9a4832;stroke:none;stroke-width:0" />
          </g>
        </g>
        <g
           id="id-6397b9af-fc3a-45ad-a264-85746fec318d"
           style="fill:#9a4832;fill-opacity:1;stroke-width:0">
          <g
             transform="translate(153.57,136.259)"
             style="fill:#9a4832;stroke-width:0"
             id="g28734">
            <path
               id="id-cd19f93a-e278-4919-8dab-180882ee0b6b"
               d="m 0.984375,-4.109375 -0.65625,3.390625 c -0.03125,0.15625 -0.0625,0.3125 -0.0625,0.375 0,0.21875 0.09375,0.390625 0.25,0.390625 0.359375,0 0.890625,-0.5625 0.96875,-0.6875 0,-0.046875 -0.046875,-0.140625 -0.0625,-0.140625 -0.03125,0.03125 -0.375,0.421875 -0.53125,0.421875 -0.0625,0 -0.0625,-0.125 -0.0625,-0.1875 0,-0.03125 0.015625,-0.203125 0.015625,-0.234375 l 0.71875,-3.5625 c 0.03125,-0.1875 0.09375,-0.5 0.09375,-0.546875 0,-0.046875 -0.015625,-0.125 -0.046875,-0.140625 -0.15625,0.046875 -0.578125,0.203125 -0.984375,0.234375 -0.015625,0.03125 -0.046875,0.125 -0.015625,0.15625 0.109375,0 0.4375,0 0.4375,0.140625 0,0.078125 -0.03125,0.25 -0.0625,0.390625 z m 0,0"
               style="fill:#9a4832;stroke:none;stroke-width:0" />
          </g>
        </g>
        <g
           id="id-01d3b441-b4c1-42d1-b573-dfffd1d823fa"
           style="fill:#9a4832;fill-opacity:1;stroke-width:0">
          <g
             transform="translate(158.828,134.765)"
             style="fill:#9a4832;stroke-width:0"
             id="g28738">
            <path
               id="id-7fce91ac-3ac3-45e0-b15e-2f51ee7a3107"
               d="M 5.5,-3.296875 V -3.84375 H 0.40625 v 0.546875 z m 0,2.03125 v -0.5625 H 0.40625 v 0.5625 z m 0,0"
               style="fill:#9a4832;stroke:none;stroke-width:0" />
          </g>
        </g>
        <g
           id="id-64a16398-0bff-491e-b6cc-81cd40438c3c"
           style="fill:#9a4832;fill-opacity:1;stroke-width:0">
          <g
             transform="translate(167.693,134.765)"
             style="fill:#9a4832;stroke-width:0"
             id="g28742">
            <path
               id="id-438f4253-15f0-4b61-91f8-b462b2e55e47"
               d="m 3.078125,-4.390625 c -1.21875,0 -2.890625,1.5 -2.890625,3.25 0,0.71875 0.34375,1.1875 0.90625,1.1875 0.578125,0 1.28125,-1 1.484375,-1.359375 -0.03125,0.140625 -0.125,0.75 -0.125,0.84375 0,0.296875 0.125,0.53125 0.34375,0.53125 0.484375,0 1.203125,-0.765625 1.3125,-0.953125 0,-0.0625 -0.0625,-0.171875 -0.09375,-0.171875 C 3.984375,-1.03125 3.53125,-0.5 3.3125,-0.5 3.234375,-0.5 3.203125,-0.59375 3.203125,-0.71875 3.203125,-0.84375 3.234375,-1 3.25,-1.0625 L 3.875,-4.25 C 3.671875,-4.328125 3.421875,-4.390625 3.078125,-4.390625 Z m -0.46875,0.40625 c 0.125,0 0.375,0.046875 0.46875,0.140625 l -0.21875,1.078125 c -0.1875,0.96875 -0.890625,2.234375 -1.40625,2.234375 -0.34375,0 -0.515625,-0.359375 -0.515625,-1 0,-1.15625 0.890625,-2.453125 1.671875,-2.453125 z m 0,0"
               style="fill:#9a4832;stroke:none;stroke-width:0" />
          </g>
        </g>
        <g
           id="id-e48a0ce9-1ad7-485b-966a-5063be62f19d"
           style="fill:#9a4832;fill-opacity:1;stroke-width:0">
          <g
             transform="translate(175.527,134.765)"
             style="fill:#9a4832;stroke-width:0"
             id="g28746">
            <path
               id="id-bd17b489-fed3-4c4b-82be-7520aa57887a"
               d="m 3.78125,-3.84375 c 0,-0.109375 -0.046875,-0.25 -0.09375,-0.28125 -0.234375,-0.15625 -0.546875,-0.234375 -0.890625,-0.234375 -1.046875,0 -2.40625,0.96875 -2.40625,2.421875 0,1.046875 0.796875,2.015625 2,2.015625 0.765625,0 1.265625,-0.5625 1.453125,-0.828125 0.03125,-0.0625 0.046875,-0.140625 0.046875,-0.1875 0,-0.078125 -0.0625,-0.125 -0.078125,-0.125 -0.125,0.140625 -0.5,0.5 -1.046875,0.5 -0.90625,0 -1.625,-0.53125 -1.625,-1.703125 0,-1.046875 0.59375,-1.671875 1.125,-1.671875 0.25,0 0.34375,0.046875 0.5625,0.203125 C 3,-3.625 3.203125,-3.375 3.40625,-3.375 c 0.1875,0 0.375,-0.125 0.375,-0.46875 z m 0,0"
               style="fill:#9a4832;stroke:none;stroke-width:0" />
          </g>
          <g
             transform="translate(179.701,134.765)"
             style="fill:#9a4832;stroke-width:0"
             id="g28749">
            <path
               id="id-af31c895-59fe-4ef5-a85a-833fb023f64f"
               d="m 2.40625,-4.046875 c 0.890625,0 1.375,1.109375 1.375,2.078125 0,0.859375 -0.296875,1.71875 -1.15625,1.71875 -0.890625,0 -1.375,-1.109375 -1.375,-2.078125 0,-0.859375 0.3125,-1.71875 1.15625,-1.71875 z M 2.515625,-4.375 c -1.203125,0 -2.109375,0.96875 -2.109375,2.25 0,1.25 0.8125,2.1875 2.125,2.1875 1.203125,0 2.09375,-0.984375 2.09375,-2.265625 0,-1.25 -0.8125,-2.171875 -2.109375,-2.171875 z m 0,0"
               style="fill:#9a4832;stroke:none;stroke-width:0" />
          </g>
          <g
             transform="translate(184.713,134.765)"
             style="fill:#9a4832;stroke-width:0"
             id="g28752">
            <path
               id="id-6a641f44-e62f-4096-b287-de854d40886b"
               d="M 1.921875,-4.359375 C 1.203125,-4.359375 0.5,-3.875 0.5,-3.140625 c 0,0.53125 0.34375,0.84375 0.75,1.078125 0.578125,0.328125 1.203125,0.53125 1.203125,1.140625 0,0.453125 -0.3125,0.71875 -0.703125,0.71875 -0.53125,0 -0.96875,-0.53125 -1.078125,-0.9375 -0.03125,-0.03125 -0.046875,-0.03125 -0.078125,-0.03125 -0.0625,0 -0.140625,0.03125 -0.1875,0.0625 0,0.25 0.09375,0.8125 0.171875,1.03125 C 1,0 1.28125,0.109375 1.71875,0.109375 c 0.796875,0 1.515625,-0.5625 1.515625,-1.375 0,-0.640625 -0.6875,-0.953125 -1.125,-1.21875 C 1.671875,-2.75 1.25,-2.90625 1.25,-3.421875 c 0,-0.359375 0.21875,-0.625 0.6875,-0.625 0.4375,0 0.75,0.53125 0.84375,0.90625 0.046875,0.046875 0.125,0.0625 0.171875,0.0625 0.046875,0 0.09375,-0.015625 0.09375,-0.0625 0,-0.34375 -0.046875,-0.78125 -0.109375,-1.09375 -0.4375,-0.046875 -0.640625,-0.125 -1.015625,-0.125 z m 0,0"
               style="fill:#9a4832;stroke:none;stroke-width:0" />
          </g>
        </g>
        <g
           id="id-d7f5fd1b-7a72-4d1c-b2c9-53d7788e1d73"
           style="fill:#9a4832;fill-opacity:1;stroke-width:0">
          <g
             transform="translate(190.258,134.765)"
             style="fill:#9a4832;stroke-width:0"
             id="g28756">
            <path
               id="id-25c0588e-5787-4b88-a5c0-c8714aabdcda"
               d="m 4.6875,-2.828125 c 0,-0.875 -0.421875,-1.53125 -0.953125,-1.53125 -0.859375,0 -1.375,0.90625 -1.765625,2.9375 L 1.8125,-0.5625 H 1.75 c -0.78125,0 -1.125,-0.28125 -1.125,-0.921875 0,-1.15625 1.234375,-2.359375 2.0625,-2.484375 V -4 c 0,-0.234375 -0.390625,-0.359375 -0.625,-0.359375 -0.484375,0 -1.828125,1.375 -1.828125,2.796875 0,0.890625 0.5,1.546875 1.453125,1.65625 L 1.328125,1.9375 v 0.015625 c 0,0.15625 0.421875,0.34375 0.46875,0.34375 0.09375,0 0.171875,-0.0625 0.25,-0.15625 V 2.03125 C 2.046875,1.6875 2.140625,0.75 2.25,0.109375 3.59375,-0.09375 4.6875,-1.28125 4.6875,-2.828125 Z m -2.359375,2.21875 c 0.1875,-1.171875 0.5,-3.203125 1.390625,-3.203125 0.390625,0 0.609375,0.28125 0.609375,0.734375 0,1.171875 -0.875,2.328125 -2,2.46875 z m 0,0"
               style="fill:#9a4832;stroke:none;stroke-width:0" />
          </g>
        </g>
      </g>
    </g>
  </g>
</svg>
