<?xml version="1.0" encoding="UTF-8" standalone="no"?>
<svg
   xmlns:dc="http://purl.org/dc/elements/1.1/"
   xmlns:cc="http://creativecommons.org/ns#"
   xmlns:rdf="http://www.w3.org/1999/02/22-rdf-syntax-ns#"
   xmlns:svg="http://www.w3.org/2000/svg"
   xmlns="http://www.w3.org/2000/svg"
   xmlns:sodipodi="http://sodipodi.sourceforge.net/DTD/sodipodi-0.dtd"
   xmlns:inkscape="http://www.inkscape.org/namespaces/inkscape"
   width="46.909096mm"
   height="46.34026mm"
   viewBox="0 0 46.909097 46.340259"
   version="1.1"
   id="svg12764"
   inkscape:version="1.0.1 (3bc2e813f5, 2020-09-07)"
   sodipodi:docname="fig_18_9.svg">
  <defs
     id="defs12758">
    <marker
       style="overflow:visible"
       id="marker16174"
       refX="0"
       refY="0"
       orient="auto"
       inkscape:stockid="Arrow1Mend"
       inkscape:isstock="true">
      <path
         transform="matrix(-0.4,0,0,-0.4,-4,0)"
         style="fill:#000000;fill-opacity:1;fill-rule:evenodd;stroke:#000000;stroke-width:1pt;stroke-opacity:1"
         d="M 0,0 5,-5 -12.5,0 5,5 Z"
         id="path16172" />
    </marker>
    <marker
       style="overflow:visible"
       id="marker15880"
       refX="0"
       refY="0"
       orient="auto"
       inkscape:stockid="Arrow1Mend"
       inkscape:isstock="true">
      <path
         transform="matrix(-0.4,0,0,-0.4,-4,0)"
         style="fill:#000000;fill-opacity:1;fill-rule:evenodd;stroke:#000000;stroke-width:1pt;stroke-opacity:1"
         d="M 0,0 5,-5 -12.5,0 5,5 Z"
         id="path15878" />
    </marker>
    <marker
       style="overflow:visible"
       id="Arrow1Mstart"
       refX="0"
       refY="0"
       orient="auto"
       inkscape:stockid="Arrow1Mstart"
       inkscape:isstock="true">
      <path
         transform="matrix(0.4,0,0,0.4,4,0)"
         style="fill:#000000;fill-opacity:1;fill-rule:evenodd;stroke:#000000;stroke-width:1pt;stroke-opacity:1"
         d="M 0,0 5,-5 -12.5,0 5,5 Z"
         id="path13350" />
    </marker>
    <pattern
       id="EMFhbasepattern"
       patternUnits="userSpaceOnUse"
       width="6"
       height="6"
       x="0"
       y="0" />
    <pattern
       id="EMFhbasepattern-0"
       patternUnits="userSpaceOnUse"
       width="6"
       height="6"
       x="0"
       y="0" />
    <g
       id="g13617">
      <symbol
         overflow="visible"
         id="symbol13611">
        <path
           style="stroke:none"
           d="M 0.5,0 H 4.484375 V -4.8125 H 0.5 Z M 1,-0.5 V -4.3125 H 3.984375 V -0.5 Z m 0,0"
           id="path13609" />
      </symbol>
      <symbol
         overflow="visible"
         id="symbol13615">
        <path
           style="stroke:none"
           d="m 3.765625,-6.484375 c -1.921875,0 -3.296875,1.53125 -3.296875,3.359375 0,1.71875 1.328125,3.1875 3.25,3.1875 0.890625,0 1.5625,-0.140625 2.09375,-0.4375 C 5.953125,-0.5 6.15625,-1.578125 6.15625,-1.78125 6.0625,-1.84375 5.9375,-1.875 5.84375,-1.859375 5.765625,-1.546875 5.625,-1.0625 5.25,-0.734375 c -0.28125,0.25 -0.6875,0.46875 -1.296875,0.46875 -1.6875,0 -2.515625,-1.5625 -2.515625,-3.078125 0,-1.359375 0.921875,-2.828125 2.375,-2.828125 1.625,0 1.84375,1.125 1.90625,1.421875 0.015625,0.015625 0.046875,0.03125 0.109375,0.03125 0.109375,0 0.21875,-0.0625 0.21875,-0.125 0,-0.09375 -0.21875,-1.453125 -0.21875,-1.453125 -0.71875,-0.15625 -1.4375,-0.1875 -2.0625,-0.1875 z m 0,0"
           id="path13613" />
      </symbol>
    </g>
    <g
       id="g7014">
      <symbol
         id="symbol7008"
         overflow="visible">
        <path
           id="path7006"
           d="M 0.5,0 H 4.484375 V -4.8125 H 0.5 Z M 1,-0.5 V -4.3125 H 3.984375 V -0.5 Z m 0,0"
           style="stroke:none" />
      </symbol>
      <symbol
         id="symbol7012"
         overflow="visible">
        <path
           id="path7010"
           d="m 2.171875,-1.125 c 0,0.28125 -0.015625,0.5625 -0.0625,0.71875 C 2.078125,-0.296875 1.609375,-0.25 1.5,-0.25 c -0.046875,0.046875 -0.046875,0.234375 0,0.28125 0.390625,-0.015625 0.65625,-0.046875 1.03125,-0.046875 0.375,0 0.6875,0.03125 1.09375,0.046875 0.046875,-0.046875 0.03125,-0.234375 0,-0.28125 C 3.5,-0.25 3.015625,-0.296875 2.984375,-0.40625 2.9375,-0.5625 2.9375,-0.84375 2.9375,-1.125 v -4.03125 c 0,-0.59375 0.078125,-0.9375 0.078125,-0.9375 0,-0.046875 -0.03125,-0.15625 -0.09375,-0.15625 H 2.90625 C 2.875,-6.25 2,-5.828125 1.203125,-5.46875 c -0.03125,0.015625 0,0.046875 0,0.0625 0,0.078125 0.03125,0.125 0.078125,0.171875 0.171875,-0.0625 0.546875,-0.203125 0.6875,-0.203125 0.140625,0 0.203125,0.09375 0.203125,0.375 z m 0,0"
           style="stroke:none" />
      </symbol>
    </g>
    <g
       id="g7030">
      <symbol
         id="symbol7024"
         overflow="visible">
        <path
           id="path7022"
           d="M 0.5,0 H 4.484375 V -4.8125 H 0.5 Z M 1,-0.5 V -4.3125 H 3.984375 V -0.5 Z m 0,0"
           style="stroke:none" />
      </symbol>
      <symbol
         id="symbol7028"
         overflow="visible">
        <path
           id="path7026"
           d="M 4.421875,-1.453125 C 4.375,-1.484375 4.25,-1.515625 4.21875,-1.515625 c -0.0625,0 -0.09375,0.015625 -0.109375,0.0625 -0.21875,0.5 -0.4375,0.75 -0.8125,0.75 h -1.9375 c 0.4375,-0.5 1.4375,-1.59375 2.125,-2.453125 C 3.8125,-3.5625 4.03125,-4.0625 4.03125,-4.625 c 0,-0.828125 -0.734375,-1.625 -1.671875,-1.625 -1.03125,0 -1.734375,1.078125 -1.796875,1.3125 0,0.046875 0.109375,0.15625 0.1875,0.15625 0.125,-0.1875 0.609375,-0.828125 1.390625,-0.828125 0.609375,0 1.0625,0.5 1.0625,1.171875 0,0.484375 -0.0625,0.875 -0.46875,1.453125 -0.5625,0.828125 -1.5,1.9375 -2.3125,2.84375 0,0.046875 0.0625,0.125 0.09375,0.140625 h 3.375 c 0.0625,-0.171875 0.328125,-0.984375 0.53125,-1.453125 z m 0,0"
           style="stroke:none" />
      </symbol>
    </g>
    <g
       style="fill:#3a493f;stroke-width:0"
       id="g3367">
      <symbol
         style="fill:#3a493f;stroke-width:0"
         overflow="visible"
         id="symbol3361">
        <path
           style="fill:#3a493f;stroke:none;stroke-width:0"
           d="M 0.5,0 H 4.484375 V -4.8125 H 0.5 Z M 1,-0.5 V -4.3125 H 3.984375 V -0.5 Z m 0,0"
           id="path3359" />
      </symbol>
      <symbol
         style="fill:#3a493f;stroke-width:0"
         overflow="visible"
         id="symbol3365">
        <path
           style="fill:#3a493f;stroke:none;stroke-width:0"
           d="m 2.484375,-5.875 c 0.71875,0 1.203125,1.1875 1.203125,2.71875 0,1.515625 -0.4375,2.828125 -1.3125,2.828125 -0.703125,0 -1.21875,-1.25 -1.21875,-2.78125 0,-1.53125 0.515625,-2.765625 1.328125,-2.765625 z m -0.0625,-0.359375 c -1.34375,0 -2.125,1.421875 -2.125,3.125 0,1.6875 0.796875,3.140625 2.125,3.140625 1.34375,0 2.125,-1.453125 2.125,-3.140625 0,-1.703125 -0.765625,-3.125 -2.125,-3.125 z m 0,0"
           id="path3363" />
      </symbol>
    </g>
    <pattern
       id="EMFhbasepattern-4"
       patternUnits="userSpaceOnUse"
       width="6"
       height="6"
       x="0"
       y="0" />
    <g
       id="g6230">
      <symbol
         id="symbol6224"
         overflow="visible">
        <path
           id="path6222"
           d="M 0.5,0 H 4.484375 V -4.8125 H 0.5 Z M 1,-0.5 V -4.3125 H 3.984375 V -0.5 Z m 0,0"
           style="stroke:none" />
      </symbol>
      <symbol
         id="symbol6228"
         overflow="visible">
        <path
           id="path6226"
           d="m 2,-3.234375 h 0.609375 c 1.484375,0 1.796875,0.796875 1.796875,1.515625 0,1.1875 -0.8125,1.40625 -1.546875,1.40625 C 2.5,-0.3125 2.25,-0.328125 2.09375,-0.484375 2.03125,-0.5625 2,-1 2,-1.140625 Z M 2,-3.59375 v -1.6875 c 0,-0.28125 0,-0.609375 0.046875,-0.734375 0.046875,-0.078125 0.375,-0.078125 0.5,-0.078125 0.90625,0 1.484375,0.484375 1.484375,1.34375 0,0.5625 -0.328125,1.15625 -1.203125,1.15625 z m 0.96875,-2.828125 c -0.578125,0 -1,0.015625 -1.390625,0.015625 -0.375,0 -0.734375,-0.015625 -1.140625,-0.03125 -0.046875,0.046875 -0.03125,0.234375 0,0.28125 0.125,0 0.640625,0.03125 0.671875,0.140625 0.046875,0.15625 0.046875,0.4375 0.046875,0.734375 v 4.125 c 0,0.28125 0,0.5625 -0.046875,0.71875 C 1.078125,-0.328125 0.5625,-0.28125 0.4375,-0.28125 0.40625,-0.234375 0.390625,-0.046875 0.4375,0 h 2.25 C 3.421875,-0.015625 4.25,-0.140625 4.71875,-0.53125 5.203125,-0.921875 5.375,-1.375 5.375,-1.9375 c 0,-0.96875 -0.953125,-1.546875 -1.421875,-1.578125 -0.03125,-0.015625 -0.03125,-0.015625 0,-0.03125 0.328125,-0.125 0.96875,-0.671875 0.96875,-1.421875 0,-1.109375 -1.0625,-1.453125 -1.953125,-1.453125 z m 0,0"
           style="stroke:none" />
      </symbol>
    </g>
    <g
       style="fill:#000000;stroke-width:0"
       id="g3509">
      <symbol
         style="fill:#000000;stroke-width:0"
         overflow="visible"
         id="symbol3495">
        <path
           style="fill:#000000;stroke:none;stroke-width:0"
           d="M 0.5,0 H 4.484375 V -4.8125 H 0.5 Z M 1,-0.5 V -4.3125 H 3.984375 V -0.5 Z m 0,0"
           id="path3493" />
      </symbol>
      <symbol
         style="fill:#000000;stroke-width:0"
         overflow="visible"
         id="symbol3499">
        <path
           style="fill:#000000;stroke:none;stroke-width:0"
           d="M 1.0625,-2.765625 C 1.0625,-4.3125 1.578125,-6 2.5,-6.8125 c 0,0 -0.125,-0.140625 -0.203125,-0.1875 -1.125,0.90625 -1.9375,2.328125 -1.9375,4.234375 0,1.875 0.8125,3.328125 1.9375,4.21875 C 2.375,1.421875 2.5,1.265625 2.5,1.265625 1.578125,0.453125 1.0625,-1.25 1.0625,-2.765625 Z m 0,0"
           id="path3497" />
      </symbol>
      <symbol
         style="fill:#000000;stroke-width:0"
         overflow="visible"
         id="symbol3503">
        <path
           style="fill:#000000;stroke:none;stroke-width:0"
           d="m 1.84375,-0.453125 c -0.375,0 -0.671875,-0.328125 -0.671875,-0.6875 0,-0.390625 0.25,-0.640625 0.609375,-0.78125 C 1.96875,-2 2.453125,-2.140625 2.71875,-2.21875 v 1.359375 c 0,0.109375 -0.53125,0.40625 -0.875,0.40625 z M 2.375,-4.34375 c -0.71875,0 -1.484375,0.53125 -1.78125,0.8125 -0.046875,0.046875 -0.078125,0.203125 -0.078125,0.234375 0,0.21875 0.125,0.421875 0.328125,0.421875 0.25,0 0.40625,-0.140625 0.46875,-0.46875 0.0625,-0.390625 0.1875,-0.640625 0.546875,-0.640625 0.484375,0 0.859375,0.515625 0.859375,0.96875 V -2.75 c 0,0.171875 -0.03125,0.21875 -0.125,0.25 -0.28125,0.140625 -1.171875,0.421875 -1.71875,0.625 -0.234375,0.078125 -0.5,0.40625 -0.5,0.8125 0,0.640625 0.5,1.140625 1.140625,1.140625 0.34375,0 1.109375,-0.53125 1.21875,-0.65625 C 2.796875,-0.28125 3.0625,0.0625 3.34375,0.0625 c 0.203125,0 0.609375,-0.265625 0.734375,-0.375 C 4.109375,-0.359375 4.125,-0.4375 4.125,-0.5 c 0,-0.03125 -0.015625,-0.078125 -0.03125,-0.078125 -0.03125,0.015625 -0.15625,0.125 -0.328125,0.125 -0.234375,0 -0.3125,-0.203125 -0.3125,-0.46875 V -2.96875 c 0,-0.765625 -0.515625,-1.375 -1.078125,-1.375 z m 0,0"
           id="path3501" />
      </symbol>
      <symbol
         style="fill:#000000;stroke-width:0"
         overflow="visible"
         id="symbol3507">
        <path
           style="fill:#000000;stroke:none;stroke-width:0"
           d="M 2.1875,-2.765625 C 2.1875,-4.671875 1.375,-6.09375 0.234375,-7 c -0.0625,0.046875 -0.1875,0.1875 -0.171875,0.1875 0.921875,0.8125 1.40625,2.5 1.40625,4.046875 0,1.515625 -0.484375,3.21875 -1.40625,4.03125 -0.015625,0 0.109375,0.15625 0.171875,0.1875 C 1.375,0.5625 2.1875,-0.890625 2.1875,-2.765625 Z m 0,0"
           id="path3505" />
      </symbol>
    </g>
    <g
       style="fill:#000000;stroke-width:0"
       id="g3539">
      <symbol
         style="fill:#000000;stroke-width:0"
         overflow="visible"
         id="symbol3525">
        <path
           style="fill:#000000;stroke:none;stroke-width:0"
           d="M 0.5,0 H 4.484375 V -4.8125 H 0.5 Z M 1,-0.5 V -4.3125 H 3.984375 V -0.5 Z m 0,0"
           id="path3523" />
      </symbol>
      <symbol
         style="fill:#000000;stroke-width:0"
         overflow="visible"
         id="symbol3529">
        <path
           style="fill:#000000;stroke:none;stroke-width:0"
           d="M 1.0625,-2.765625 C 1.0625,-4.3125 1.578125,-6 2.5,-6.8125 c 0,0 -0.125,-0.140625 -0.203125,-0.1875 -1.125,0.90625 -1.9375,2.328125 -1.9375,4.234375 0,1.875 0.8125,3.328125 1.9375,4.21875 C 2.375,1.421875 2.5,1.265625 2.5,1.265625 1.578125,0.453125 1.0625,-1.25 1.0625,-2.765625 Z m 0,0"
           id="path3527" />
      </symbol>
      <symbol
         style="fill:#000000;stroke-width:0"
         overflow="visible"
         id="symbol3533">
        <path
           style="fill:#000000;stroke:none;stroke-width:0"
           d="m 2.09375,0.0625 c 1.40625,0 2.4375,-1.0625 2.4375,-2.328125 0,-0.890625 -0.625,-2 -1.8125,-2 -0.375,0 -1.046875,0.421875 -1.203125,0.53125 C 1.453125,-3.6875 1.46875,-3.78125 1.46875,-3.84375 V -5.75 c 0,-0.546875 0.09375,-0.84375 0.09375,-0.84375 0,-0.078125 -0.046875,-0.171875 -0.09375,-0.171875 C 1.046875,-6.5625 0.5625,-6.421875 0.0625,-6.375 c -0.046875,0.015625 -0.015625,0.265625 -0.015625,0.265625 0.28125,0 0.546875,0.03125 0.609375,0.171875 0.046875,0.109375 0.046875,0.375 0.046875,0.5 v 4.375 c 0,0.1875 -0.015625,0.515625 -0.109375,0.71875 0,0.046875 0.078125,0.203125 0.125,0.203125 0.21875,-0.078125 0.421875,0 0.640625,0.0625 C 1.578125,-0.015625 1.9375,0.0625 2.09375,0.0625 Z M 2.25,-3.6875 c 0.890625,0 1.453125,0.671875 1.453125,1.796875 0,0.796875 -0.609375,1.625 -1.328125,1.625 -0.4375,0 -0.90625,-0.265625 -0.90625,-0.6875 V -3.3125 c 0,-0.0625 0,-0.09375 0.03125,-0.109375 C 1.59375,-3.515625 2,-3.6875 2.25,-3.6875 Z m 0,0"
           id="path3531" />
      </symbol>
      <symbol
         style="fill:#000000;stroke-width:0"
         overflow="visible"
         id="symbol3537">
        <path
           style="fill:#000000;stroke:none;stroke-width:0"
           d="M 2.1875,-2.765625 C 2.1875,-4.671875 1.375,-6.09375 0.234375,-7 c -0.0625,0.046875 -0.1875,0.1875 -0.171875,0.1875 0.921875,0.8125 1.40625,2.5 1.40625,4.046875 0,1.515625 -0.484375,3.21875 -1.40625,4.03125 -0.015625,0 0.109375,0.15625 0.171875,0.1875 C 1.375,0.5625 2.1875,-0.890625 2.1875,-2.765625 Z m 0,0"
           id="path3535" />
      </symbol>
    </g>
    <g
       id="g11377"
       style="fill:#000000;stroke-width:0">
      <symbol
         overflow="visible"
         id="symbol11363"
         style="fill:#000000;stroke-width:0">
        <path
           style="fill:#000000;stroke:none;stroke-width:0"
           d="M 0.5,0 H 4.484375 V -4.8125 H 0.5 Z M 1,-0.5 V -4.3125 H 3.984375 V -0.5 Z m 0,0"
           id="path11361" />
      </symbol>
      <symbol
         overflow="visible"
         id="symbol11367"
         style="fill:#000000;stroke-width:0">
        <path
           style="fill:#000000;stroke:none;stroke-width:0"
           d="M 1.0625,-2.765625 C 1.0625,-4.3125 1.578125,-6 2.5,-6.8125 c 0,0 -0.125,-0.140625 -0.203125,-0.1875 -1.125,0.90625 -1.9375,2.328125 -1.9375,4.234375 0,1.875 0.8125,3.328125 1.9375,4.21875 C 2.375,1.421875 2.5,1.265625 2.5,1.265625 1.578125,0.453125 1.0625,-1.25 1.0625,-2.765625 Z m 0,0"
           id="path11365" />
      </symbol>
      <symbol
         overflow="visible"
         id="symbol11371"
         style="fill:#000000;stroke-width:0">
        <path
           style="fill:#000000;stroke:none;stroke-width:0"
           d="m 3.78125,-3.84375 c 0,-0.109375 -0.046875,-0.25 -0.09375,-0.28125 -0.234375,-0.15625 -0.546875,-0.234375 -0.890625,-0.234375 -1.046875,0 -2.40625,0.96875 -2.40625,2.421875 0,1.046875 0.796875,2.015625 2,2.015625 0.765625,0 1.265625,-0.5625 1.453125,-0.828125 0.03125,-0.0625 0.046875,-0.140625 0.046875,-0.1875 0,-0.078125 -0.0625,-0.125 -0.078125,-0.125 -0.125,0.140625 -0.5,0.5 -1.046875,0.5 -0.90625,0 -1.625,-0.53125 -1.625,-1.703125 0,-1.046875 0.59375,-1.671875 1.125,-1.671875 0.25,0 0.34375,0.046875 0.5625,0.203125 C 3,-3.625 3.203125,-3.375 3.40625,-3.375 c 0.1875,0 0.375,-0.125 0.375,-0.46875 z m 0,0"
           id="path11369" />
      </symbol>
      <symbol
         overflow="visible"
         id="symbol11375"
         style="fill:#000000;stroke-width:0">
        <path
           style="fill:#000000;stroke:none;stroke-width:0"
           d="M 2.1875,-2.765625 C 2.1875,-4.671875 1.375,-6.09375 0.234375,-7 c -0.0625,0.046875 -0.1875,0.1875 -0.171875,0.1875 0.921875,0.8125 1.40625,2.5 1.40625,4.046875 0,1.515625 -0.484375,3.21875 -1.40625,4.03125 -0.015625,0 0.109375,0.15625 0.171875,0.1875 C 1.375,0.5625 2.1875,-0.890625 2.1875,-2.765625 Z m 0,0"
           id="path11373" />
      </symbol>
    </g>
    <g
       id="g79340"
       style="fill:#000000;stroke-width:0">
      <symbol
         overflow="visible"
         id="symbol79326"
         style="fill:#000000;stroke-width:0">
        <path
           style="fill:#000000;stroke:none;stroke-width:0"
           d="M 0.5,0 H 4.484375 V -4.8125 H 0.5 Z M 1,-0.5 V -4.3125 H 3.984375 V -0.5 Z m 0,0"
           id="path79324" />
      </symbol>
      <symbol
         overflow="visible"
         id="symbol79330"
         style="fill:#000000;stroke-width:0">
        <path
           style="fill:#000000;stroke:none;stroke-width:0"
           d="M 1.0625,-2.765625 C 1.0625,-4.3125 1.578125,-6 2.5,-6.8125 c 0,0 -0.125,-0.140625 -0.203125,-0.1875 -1.125,0.90625 -1.9375,2.328125 -1.9375,4.234375 0,1.875 0.8125,3.328125 1.9375,4.21875 C 2.375,1.421875 2.5,1.265625 2.5,1.265625 1.578125,0.453125 1.0625,-1.25 1.0625,-2.765625 Z m 0,0"
           id="path79328" />
      </symbol>
      <symbol
         overflow="visible"
         id="symbol79334"
         style="fill:#000000;stroke-width:0">
        <path
           style="fill:#000000;stroke:none;stroke-width:0"
           d="m 2.75,-4.359375 c -0.890625,0 -2.359375,1 -2.359375,2.3125 0,1.203125 0.828125,2.125 1.75,2.125 0.46875,0 1.15625,-0.421875 1.3125,-0.59375 0.015625,-0.015625 0.03125,0.015625 0.03125,0.0625 v 0.34375 c 0,0.0625 0.015625,0.1875 0.078125,0.1875 0,0 0.765625,-0.25 1.28125,-0.28125 0.046875,0 0.078125,-0.109375 0.078125,-0.140625 0,-0.03125 -0.015625,-0.109375 -0.03125,-0.109375 -0.03125,-0.015625 -0.5,0 -0.59375,-0.171875 -0.0625,-0.140625 -0.0625,-0.578125 -0.0625,-0.953125 v -4.1875 c 0,-0.53125 0.109375,-0.84375 0.109375,-0.84375 0,-0.0625 -0.0625,-0.15625 -0.109375,-0.15625 -0.421875,0.1875 -0.921875,0.328125 -1.40625,0.375 -0.03125,0.015625 -0.015625,0.265625 0,0.265625 0.265625,0 0.546875,0.03125 0.59375,0.15625 0.0625,0.109375 0.0625,0.359375 0.0625,0.484375 v 1.03125 c 0,0.109375 -0.015625,0.1875 -0.0625,0.1875 C 3.328125,-4.3125 2.953125,-4.359375 2.75,-4.359375 Z m -0.328125,0.40625 c 0.5625,0 1.0625,0.265625 1.0625,0.484375 v 2.546875 c 0,0.15625 -0.421875,0.390625 -0.875,0.390625 -0.90625,0 -1.40625,-0.8125 -1.40625,-1.765625 0,-0.84375 0.46875,-1.65625 1.21875,-1.65625 z m 0,0"
           id="path79332" />
      </symbol>
      <symbol
         overflow="visible"
         id="symbol79338"
         style="fill:#000000;stroke-width:0">
        <path
           style="fill:#000000;stroke:none;stroke-width:0"
           d="M 2.1875,-2.765625 C 2.1875,-4.671875 1.375,-6.09375 0.234375,-7 c -0.0625,0.046875 -0.1875,0.1875 -0.171875,0.1875 0.921875,0.8125 1.40625,2.5 1.40625,4.046875 0,1.515625 -0.484375,3.21875 -1.40625,4.03125 -0.015625,0 0.109375,0.15625 0.171875,0.1875 C 1.375,0.5625 2.1875,-0.890625 2.1875,-2.765625 Z m 0,0"
           id="path79336" />
      </symbol>
    </g>
    <pattern
       id="EMFhbasepattern-7"
       patternUnits="userSpaceOnUse"
       width="6"
       height="6"
       x="0"
       y="0" />
  </defs>
  <sodipodi:namedview
     id="base"
     pagecolor="#ffffff"
     bordercolor="#666666"
     borderopacity="1.0"
     inkscape:pageopacity="0.0"
     inkscape:pageshadow="2"
     inkscape:zoom="1.979899"
     inkscape:cx="98.057385"
     inkscape:cy="87.927498"
     inkscape:document-units="mm"
     inkscape:current-layer="layer1"
     inkscape:document-rotation="0"
     showgrid="false"
     inkscape:window-width="1600"
     inkscape:window-height="837"
     inkscape:window-x="1432"
     inkscape:window-y="-8"
     inkscape:window-maximized="1"
     showguides="false" />
  <metadata
     id="metadata12761">
    <rdf:RDF>
      <cc:Work
         rdf:about="">
        <dc:format>image/svg+xml</dc:format>
        <dc:type
           rdf:resource="http://purl.org/dc/dcmitype/StillImage" />
        <dc:title></dc:title>
      </cc:Work>
    </rdf:RDF>
  </metadata>
  <g
     inkscape:label="Layer 1"
     inkscape:groupmode="layer"
     id="layer1"
     transform="translate(-20.718575,0.03580843)">
    <ellipse
       style="opacity:1;fill:none;stroke:#506a65;stroke-width:1.36408;stroke-linecap:round;stroke-linejoin:round;stroke-miterlimit:4;stroke-dasharray:none"
       id="path16700"
       cx="44.173122"
       cy="23.134321"
       rx="5.6495104"
       ry="5.5806141" />
    <ellipse
       style="opacity:1;fill:none;stroke:#506a65;stroke-width:1.38853;stroke-linecap:round;stroke-linejoin:round;stroke-miterlimit:4;stroke-dasharray:none"
       id="ellipse16702"
       cx="44.173122"
       cy="23.134321"
       rx="8.4078665"
       ry="8.3053312" />
    <ellipse
       style="opacity:1;fill:none;stroke:#506a65;stroke-width:1.05833;stroke-linecap:round;stroke-linejoin:round;stroke-miterlimit:4;stroke-dasharray:none"
       id="ellipse16704"
       cx="44.173122"
       cy="23.134321"
       rx="10.697582"
       ry="10.567123" />
    <ellipse
       style="opacity:1;fill:none;stroke:#506a65;stroke-width:1.05833;stroke-linecap:round;stroke-linejoin:round;stroke-miterlimit:4;stroke-dasharray:none"
       id="ellipse16706"
       cx="44.173122"
       cy="23.134321"
       rx="12.453364"
       ry="12.301494" />
    <ellipse
       style="opacity:1;fill:none;stroke:#506a65;stroke-width:0.926042;stroke-linecap:round;stroke-linejoin:round;stroke-miterlimit:4;stroke-dasharray:none"
       id="ellipse16708"
       cx="44.173122"
       cy="23.134321"
       rx="14.039608"
       ry="13.868393" />
    <ellipse
       style="opacity:1;fill:none;stroke:#506a65;stroke-width:0.79375;stroke-linecap:round;stroke-linejoin:round;stroke-miterlimit:4;stroke-dasharray:none"
       id="ellipse16710"
       cx="44.173122"
       cy="23.134321"
       rx="15.411765"
       ry="15.223817" />
    <ellipse
       style="opacity:1;fill:none;stroke:#506a65;stroke-width:0.661458;stroke-linecap:round;stroke-linejoin:round;stroke-miterlimit:4;stroke-dasharray:none"
       id="ellipse16712"
       cx="44.173122"
       cy="23.134321"
       rx="16.577143"
       ry="16.374983" />
    <ellipse
       style="opacity:1;fill:none;stroke:#506a65;stroke-width:0.661458;stroke-linecap:round;stroke-linejoin:round;stroke-miterlimit:4;stroke-dasharray:none"
       id="ellipse16714"
       cx="44.173122"
       cy="23.134321"
       rx="17.939003"
       ry="17.720236" />
    <ellipse
       style="opacity:1;fill:none;stroke:#506a65;stroke-width:0.529167;stroke-linecap:round;stroke-linejoin:round;stroke-miterlimit:4;stroke-dasharray:none"
       id="ellipse16716"
       cx="44.173122"
       cy="23.134321"
       rx="19.159807"
       ry="18.926151" />
    <ellipse
       style="opacity:1;fill:none;stroke:#506a65;stroke-width:0.529167;stroke-linecap:round;stroke-linejoin:round;stroke-miterlimit:4;stroke-dasharray:none"
       id="ellipse16718"
       cx="44.173122"
       cy="23.134321"
       rx="20.339079"
       ry="20.091042" />
    <ellipse
       style="opacity:1;fill:none;stroke:#506a65;stroke-width:0.396875;stroke-linecap:round;stroke-linejoin:round;stroke-miterlimit:4;stroke-dasharray:none"
       id="ellipse16720"
       cx="44.173122"
       cy="23.134321"
       rx="21.377668"
       ry="21.116966" />
    <ellipse
       style="opacity:1;fill:none;stroke:#506a65;stroke-width:0.330729;stroke-linecap:round;stroke-linejoin:round;stroke-miterlimit:4;stroke-dasharray:none"
       id="ellipse16722"
       cx="44.173122"
       cy="23.134321"
       rx="22.372755"
       ry="22.099916" />
    <ellipse
       style="opacity:1;fill:none;stroke:#506a65;stroke-width:0.264583;stroke-linecap:round;stroke-linejoin:round;stroke-miterlimit:4;stroke-dasharray:none"
       id="ellipse16724"
       cx="44.173122"
       cy="23.134321"
       rx="23.322256"
       ry="23.037838" />
  </g>
</svg>
