<?xml version="1.0" encoding="UTF-8" standalone="no"?>
<svg
   xmlns:ns2="http://www.iki.fi/pav/software/textext/"
   xmlns:dc="http://purl.org/dc/elements/1.1/"
   xmlns:cc="http://creativecommons.org/ns#"
   xmlns:rdf="http://www.w3.org/1999/02/22-rdf-syntax-ns#"
   xmlns:svg="http://www.w3.org/2000/svg"
   xmlns="http://www.w3.org/2000/svg"
   xmlns:sodipodi="http://sodipodi.sourceforge.net/DTD/sodipodi-0.dtd"
   xmlns:inkscape="http://www.inkscape.org/namespaces/inkscape"
   width="24.327003mm"
   height="32.594627mm"
   viewBox="0 0 24.327003 32.594627"
   version="1.1"
   id="svg12764"
   inkscape:version="1.0.1 (3bc2e813f5, 2020-09-07)"
   sodipodi:docname="fig_18_7.svg">
  <defs
     id="defs12758">
    <marker
       style="overflow:visible"
       id="marker15160"
       refX="0"
       refY="0"
       orient="auto"
       inkscape:stockid="Arrow1Mend"
       inkscape:isstock="true">
      <path
         transform="matrix(-0.4,0,0,-0.4,-4,0)"
         style="fill:#9e7867;fill-opacity:1;fill-rule:evenodd;stroke:#9e7867;stroke-width:1pt;stroke-opacity:1"
         d="M 0,0 5,-5 -12.5,0 5,5 Z"
         id="path15158" />
    </marker>
    <pattern
       id="EMFhbasepattern"
       patternUnits="userSpaceOnUse"
       width="6"
       height="6"
       x="0"
       y="0" />
    <pattern
       id="EMFhbasepattern-0"
       patternUnits="userSpaceOnUse"
       width="6"
       height="6"
       x="0"
       y="0" />
    <g
       id="g13617">
      <symbol
         overflow="visible"
         id="symbol13611">
        <path
           style="stroke:none"
           d="M 0.5,0 H 4.484375 V -4.8125 H 0.5 Z M 1,-0.5 V -4.3125 H 3.984375 V -0.5 Z m 0,0"
           id="path13609" />
      </symbol>
      <symbol
         overflow="visible"
         id="symbol13615">
        <path
           style="stroke:none"
           d="m 3.765625,-6.484375 c -1.921875,0 -3.296875,1.53125 -3.296875,3.359375 0,1.71875 1.328125,3.1875 3.25,3.1875 0.890625,0 1.5625,-0.140625 2.09375,-0.4375 C 5.953125,-0.5 6.15625,-1.578125 6.15625,-1.78125 6.0625,-1.84375 5.9375,-1.875 5.84375,-1.859375 5.765625,-1.546875 5.625,-1.0625 5.25,-0.734375 c -0.28125,0.25 -0.6875,0.46875 -1.296875,0.46875 -1.6875,0 -2.515625,-1.5625 -2.515625,-3.078125 0,-1.359375 0.921875,-2.828125 2.375,-2.828125 1.625,0 1.84375,1.125 1.90625,1.421875 0.015625,0.015625 0.046875,0.03125 0.109375,0.03125 0.109375,0 0.21875,-0.0625 0.21875,-0.125 0,-0.09375 -0.21875,-1.453125 -0.21875,-1.453125 -0.71875,-0.15625 -1.4375,-0.1875 -2.0625,-0.1875 z m 0,0"
           id="path13613" />
      </symbol>
    </g>
    <g
       id="g7014">
      <symbol
         id="symbol7008"
         overflow="visible">
        <path
           id="path7006"
           d="M 0.5,0 H 4.484375 V -4.8125 H 0.5 Z M 1,-0.5 V -4.3125 H 3.984375 V -0.5 Z m 0,0"
           style="stroke:none" />
      </symbol>
      <symbol
         id="symbol7012"
         overflow="visible">
        <path
           id="path7010"
           d="m 2.171875,-1.125 c 0,0.28125 -0.015625,0.5625 -0.0625,0.71875 C 2.078125,-0.296875 1.609375,-0.25 1.5,-0.25 c -0.046875,0.046875 -0.046875,0.234375 0,0.28125 0.390625,-0.015625 0.65625,-0.046875 1.03125,-0.046875 0.375,0 0.6875,0.03125 1.09375,0.046875 0.046875,-0.046875 0.03125,-0.234375 0,-0.28125 C 3.5,-0.25 3.015625,-0.296875 2.984375,-0.40625 2.9375,-0.5625 2.9375,-0.84375 2.9375,-1.125 v -4.03125 c 0,-0.59375 0.078125,-0.9375 0.078125,-0.9375 0,-0.046875 -0.03125,-0.15625 -0.09375,-0.15625 H 2.90625 C 2.875,-6.25 2,-5.828125 1.203125,-5.46875 c -0.03125,0.015625 0,0.046875 0,0.0625 0,0.078125 0.03125,0.125 0.078125,0.171875 0.171875,-0.0625 0.546875,-0.203125 0.6875,-0.203125 0.140625,0 0.203125,0.09375 0.203125,0.375 z m 0,0"
           style="stroke:none" />
      </symbol>
    </g>
    <g
       id="g7030">
      <symbol
         id="symbol7024"
         overflow="visible">
        <path
           id="path7022"
           d="M 0.5,0 H 4.484375 V -4.8125 H 0.5 Z M 1,-0.5 V -4.3125 H 3.984375 V -0.5 Z m 0,0"
           style="stroke:none" />
      </symbol>
      <symbol
         id="symbol7028"
         overflow="visible">
        <path
           id="path7026"
           d="M 4.421875,-1.453125 C 4.375,-1.484375 4.25,-1.515625 4.21875,-1.515625 c -0.0625,0 -0.09375,0.015625 -0.109375,0.0625 -0.21875,0.5 -0.4375,0.75 -0.8125,0.75 h -1.9375 c 0.4375,-0.5 1.4375,-1.59375 2.125,-2.453125 C 3.8125,-3.5625 4.03125,-4.0625 4.03125,-4.625 c 0,-0.828125 -0.734375,-1.625 -1.671875,-1.625 -1.03125,0 -1.734375,1.078125 -1.796875,1.3125 0,0.046875 0.109375,0.15625 0.1875,0.15625 0.125,-0.1875 0.609375,-0.828125 1.390625,-0.828125 0.609375,0 1.0625,0.5 1.0625,1.171875 0,0.484375 -0.0625,0.875 -0.46875,1.453125 -0.5625,0.828125 -1.5,1.9375 -2.3125,2.84375 0,0.046875 0.0625,0.125 0.09375,0.140625 h 3.375 c 0.0625,-0.171875 0.328125,-0.984375 0.53125,-1.453125 z m 0,0"
           style="stroke:none" />
      </symbol>
    </g>
    <g
       style="fill:#3a493f;stroke-width:0"
       id="g3367">
      <symbol
         style="fill:#3a493f;stroke-width:0"
         overflow="visible"
         id="symbol3361">
        <path
           style="fill:#3a493f;stroke:none;stroke-width:0"
           d="M 0.5,0 H 4.484375 V -4.8125 H 0.5 Z M 1,-0.5 V -4.3125 H 3.984375 V -0.5 Z m 0,0"
           id="path3359" />
      </symbol>
      <symbol
         style="fill:#3a493f;stroke-width:0"
         overflow="visible"
         id="symbol3365">
        <path
           style="fill:#3a493f;stroke:none;stroke-width:0"
           d="m 2.484375,-5.875 c 0.71875,0 1.203125,1.1875 1.203125,2.71875 0,1.515625 -0.4375,2.828125 -1.3125,2.828125 -0.703125,0 -1.21875,-1.25 -1.21875,-2.78125 0,-1.53125 0.515625,-2.765625 1.328125,-2.765625 z m -0.0625,-0.359375 c -1.34375,0 -2.125,1.421875 -2.125,3.125 0,1.6875 0.796875,3.140625 2.125,3.140625 1.34375,0 2.125,-1.453125 2.125,-3.140625 0,-1.703125 -0.765625,-3.125 -2.125,-3.125 z m 0,0"
           id="path3363" />
      </symbol>
    </g>
  </defs>
  <sodipodi:namedview
     id="base"
     pagecolor="#ffffff"
     bordercolor="#666666"
     borderopacity="1.0"
     inkscape:pageopacity="0.0"
     inkscape:pageshadow="2"
     inkscape:zoom="3.959798"
     inkscape:cx="65.379132"
     inkscape:cy="54.492977"
     inkscape:document-units="mm"
     inkscape:current-layer="layer1"
     inkscape:document-rotation="0"
     showgrid="false"
     inkscape:window-width="1600"
     inkscape:window-height="837"
     inkscape:window-x="1432"
     inkscape:window-y="-8"
     inkscape:window-maximized="1"
     showguides="false" />
  <metadata
     id="metadata12761">
    <rdf:RDF>
      <cc:Work
         rdf:about="">
        <dc:format>image/svg+xml</dc:format>
        <dc:type
           rdf:resource="http://purl.org/dc/dcmitype/StillImage" />
        <dc:title></dc:title>
      </cc:Work>
    </rdf:RDF>
  </metadata>
  <g
     inkscape:label="Layer 1"
     inkscape:groupmode="layer"
     id="layer1"
     transform="translate(-77.047272,-6.090516)">
    <g
       id="g15356"
       style="stroke:#506a65;stroke-width:1.00741;stroke-miterlimit:4;stroke-dasharray:none;shape-rendering:geometricPrecision"
       transform="matrix(-0.00348674,0.04710729,0.04710729,0.00348674,89.382006,21.875932)">
  <path
   style="fill:none;stroke:#506a65;stroke-width:8.40193;stroke-linecap:round;stroke-linejoin:round;stroke-miterlimit:4;stroke-dasharray:none"
   d="m 39.863038,-15.668937 c 2.570536,-16.151146 -4.245759,-35.101468 -19.279018,-46.749114 -15.0332572,-11.647656 -37.902042,-15.219736 -57.83705,-6.678456 -19.935012,8.541296 -35.987483,29.200848 -38.55802,53.42757 -2.570517,24.2267226 8.81951,51.099011 30.846414,66.784447 22.026908,15.685432 54.0432053,19.257512 80.97187,6.678446 26.928665,-12.579066 47.554909,-41.160604 50.125444,-73.462893 2.570536,-32.302298 -13.393272,-67.096566 -42.413837,-86.819793 -29.020566,-19.72324 -70.184376,-23.29531 -104.106689,-6.67845 -33.922279,16.616861 -59.122272,53.120375 -61.692802,93.498243 -2.57053,40.377865 17.96703,83.094109 53.981201,106.855111 36.014206,23.761016 86.325531,27.333096 127.241503,6.67845 40.915976,-20.654642 70.689766,-65.080126 73.260306,-113.533561 2.57054,-48.453444 -22.54081,-99.091673 -65.548699,-126.890483 -43.007872,-27.79881 -102.46671,-31.37089 -150.376291,-6.67845 -47.90961,24.69245 -82.25712,77.039923 -84.82766,133.568933 -2.57054,56.529011 27.11453,115.089201 77.116059,146.925797 50.001476,31.8366 118.607827,35.40868 173.511106,6.67846 54.903335,-28.73024 93.824605,-88.99967 96.395145,-153.604257 2.57054,-64.604586 -31.68831,-131.086773 -88.683538,-166.961173 -56.99518,-35.87438 -134.749043,-39.44646 -196.645922,-6.67845 -61.89693,32.76802 -105.39196,100.959457 -107.96249,173.639623 -2.57054,72.680153 36.26206,147.084317 100.25088,186.996487 C -50.380267,211.23972 36.521108,214.8118 105.4117,178.006 174.30235,141.20019 222.37114,65.086796 224.94166,-15.668937 227.5122,-96.424669 184.10585,-178.75083 113.12332,-222.7008 c -70.982504,-43.94995 -167.031396,-47.52204 -242.91558,-6.67845 -75.88424,40.84359 -128.52678,124.879 -131.09732,213.710313 -2.57054,88.831299 45.40957,179.079407 123.38571,227.067167 77.976101,47.98774 183.172491,51.55983 266.05042,6.67845 C 211.42448,173.1953 268.64077,81.237928 271.21131,-15.668937"
   id="path15354"
   sodipodi:nodetypes="csssssssssssssssssssssssssssssc" />

 </g>
    <circle
       r="0.66817379"
       cy="21.350065"
       cx="89.048393"
       id="path3435-3-3"
       style="opacity:1;fill:#000000;stroke:#000000;stroke-width:0.264583;stroke-linejoin:round;stroke-miterlimit:4;stroke-dasharray:none" />
    <circle
       r="0.66817379"
       cy="9.5371275"
       cx="89.036583"
       id="circle15387"
       style="opacity:1;fill:#000000;stroke:#000000;stroke-width:0.264583;stroke-linejoin:round;stroke-miterlimit:4;stroke-dasharray:none" />
    <circle
       r="0.66817379"
       cy="32.374825"
       cx="87.950798"
       id="circle15389"
       style="opacity:1;fill:#000000;stroke:#000000;stroke-width:0.264583;stroke-linejoin:round;stroke-miterlimit:4;stroke-dasharray:none" />
    <circle
       r="0.66817379"
       cy="34.591721"
       cx="87.950798"
       id="circle15391"
       style="opacity:1;fill:#000000;stroke:#000000;stroke-width:0.264583;stroke-linejoin:round;stroke-miterlimit:4;stroke-dasharray:none" />
    <g
       id="g12657"
       ns2:jacobian_sqrt="0.423334"
       ns2:inkscapeversion="1.0"
       ns2:alignment="middle center"
       ns2:scale="1.1999998299215373"
       ns2:preamble="C:\\Users\\flvisa\\Desktop\\lna\\latexify_books\\textext_preamble.tex"
       ns2:text="C"
       ns2:pdfconverter="inkscape"
       ns2:texconverter="pdflatex"
       ns2:version="1.1.0"
       transform="matrix(0.26373626,0,0,0.26373626,90.065209,20.094335)">
      <defs
         id="id-fe274fe3-c964-4e1e-9bfc-db0a15f96e05">
        <g
           id="g15548">
          <symbol
             overflow="visible"
             id="symbol15542">
            <path
               style="stroke:none"
               d="M 0.5,0 H 4.484375 V -4.8125 H 0.5 Z M 1,-0.5 V -4.3125 H 3.984375 V -0.5 Z m 0,0"
               id="path15540" />
          </symbol>
          <symbol
             overflow="visible"
             id="symbol15546">
            <path
               style="stroke:none"
               d="m 3.765625,-6.484375 c -1.921875,0 -3.296875,1.53125 -3.296875,3.359375 0,1.71875 1.328125,3.1875 3.25,3.1875 0.890625,0 1.5625,-0.140625 2.09375,-0.4375 C 5.953125,-0.5 6.15625,-1.578125 6.15625,-1.78125 6.0625,-1.84375 5.9375,-1.875 5.84375,-1.859375 5.765625,-1.546875 5.625,-1.0625 5.25,-0.734375 c -0.28125,0.25 -0.6875,0.46875 -1.296875,0.46875 -1.6875,0 -2.515625,-1.5625 -2.515625,-3.078125 0,-1.359375 0.921875,-2.828125 2.375,-2.828125 1.625,0 1.84375,1.125 1.90625,1.421875 0.015625,0.015625 0.046875,0.03125 0.109375,0.03125 0.109375,0 0.21875,-0.0625 0.21875,-0.125 0,-0.09375 -0.21875,-1.453125 -0.21875,-1.453125 -0.71875,-0.15625 -1.4375,-0.1875 -2.0625,-0.1875 z m 0,0"
               id="path15544" />
          </symbol>
        </g>
      </defs>
      <g
         id="id-5c1c4ae8-f18b-4582-b095-5adb0b213f9c"
         transform="translate(-149.181,-128.281)">
        <g
           style="fill:#000000;fill-opacity:1"
           id="id-00559197-870c-46df-bc63-7a61878d961b">
          <g
             id="g12653"
             transform="translate(148.712,134.765)">
            <path
               style="stroke:none"
               d="m 3.765625,-6.484375 c -1.921875,0 -3.296875,1.53125 -3.296875,3.359375 0,1.71875 1.328125,3.1875 3.25,3.1875 0.890625,0 1.5625,-0.140625 2.09375,-0.4375 C 5.953125,-0.5 6.15625,-1.578125 6.15625,-1.78125 6.0625,-1.84375 5.9375,-1.875 5.84375,-1.859375 5.765625,-1.546875 5.625,-1.0625 5.25,-0.734375 c -0.28125,0.25 -0.6875,0.46875 -1.296875,0.46875 -1.6875,0 -2.515625,-1.5625 -2.515625,-3.078125 0,-1.359375 0.921875,-2.828125 2.375,-2.828125 1.625,0 1.84375,1.125 1.90625,1.421875 0.015625,0.015625 0.046875,0.03125 0.109375,0.03125 0.109375,0 0.21875,-0.0625 0.21875,-0.125 0,-0.09375 -0.21875,-1.453125 -0.21875,-1.453125 -0.71875,-0.15625 -1.4375,-0.1875 -2.0625,-0.1875 z m 0,0"
               id="id-268bad3b-5084-409e-819c-d13cd609c05f" />
          </g>
        </g>
      </g>
    </g>
    <g
       transform="matrix(0.42333399,0,0,0.42333399,90.729426,6.090516)"
       ns2:version="1.1.0"
       ns2:texconverter="pdflatex"
       ns2:pdfconverter="inkscape"
       ns2:text="$1$"
       ns2:preamble="C:\\Users\\flvisa\\Desktop\\lna\\latexify_books\\textext_preamble.tex"
       ns2:scale="1.199999773228722"
       ns2:alignment="middle center"
       ns2:inkscapeversion="1.0"
       ns2:jacobian_sqrt="0.423334"
       id="g6582">
      <defs
         id="id-99136f65-f779-4cb7-b19c-c10459896000">
        <g
           id="g15657">
          <symbol
             id="symbol15651"
             overflow="visible">
            <path
               id="path15649"
               d="M 0.5,0 H 4.484375 V -4.8125 H 0.5 Z M 1,-0.5 V -4.3125 H 3.984375 V -0.5 Z m 0,0"
               style="stroke:none" />
          </symbol>
          <symbol
             id="symbol15655"
             overflow="visible">
            <path
               id="path15653"
               d="m 2.171875,-1.125 c 0,0.28125 -0.015625,0.5625 -0.0625,0.71875 C 2.078125,-0.296875 1.609375,-0.25 1.5,-0.25 c -0.046875,0.046875 -0.046875,0.234375 0,0.28125 0.390625,-0.015625 0.65625,-0.046875 1.03125,-0.046875 0.375,0 0.6875,0.03125 1.09375,0.046875 0.046875,-0.046875 0.03125,-0.234375 0,-0.28125 C 3.5,-0.25 3.015625,-0.296875 2.984375,-0.40625 2.9375,-0.5625 2.9375,-0.84375 2.9375,-1.125 v -4.03125 c 0,-0.59375 0.078125,-0.9375 0.078125,-0.9375 0,-0.046875 -0.03125,-0.15625 -0.09375,-0.15625 H 2.90625 C 2.875,-6.25 2,-5.828125 1.203125,-5.46875 c -0.03125,0.015625 0,0.046875 0,0.0625 0,0.078125 0.03125,0.125 0.078125,0.171875 0.171875,-0.0625 0.546875,-0.203125 0.6875,-0.203125 0.140625,0 0.203125,0.09375 0.203125,0.375 z m 0,0"
               style="stroke:none" />
          </symbol>
        </g>
      </defs>
      <g
         transform="translate(-149.901,-128.515)"
         id="id-bd3de61b-ee2e-47ef-96ff-2b0b05c6120a">
        <g
           id="id-094dc464-c691-462e-9002-f9b026782012"
           style="fill:#000000;fill-opacity:1">
          <g
             transform="translate(148.712,134.765)"
             id="g6578">
            <path
               id="id-74bf3bd2-a8b6-49d6-a543-6822b0530089"
               d="m 2.171875,-1.125 c 0,0.28125 -0.015625,0.5625 -0.0625,0.71875 C 2.078125,-0.296875 1.609375,-0.25 1.5,-0.25 c -0.046875,0.046875 -0.046875,0.234375 0,0.28125 0.390625,-0.015625 0.65625,-0.046875 1.03125,-0.046875 0.375,0 0.6875,0.03125 1.09375,0.046875 0.046875,-0.046875 0.03125,-0.234375 0,-0.28125 C 3.5,-0.25 3.015625,-0.296875 2.984375,-0.40625 2.9375,-0.5625 2.9375,-0.84375 2.9375,-1.125 v -4.03125 c 0,-0.59375 0.078125,-0.9375 0.078125,-0.9375 0,-0.046875 -0.03125,-0.15625 -0.09375,-0.15625 H 2.90625 C 2.875,-6.25 2,-5.828125 1.203125,-5.46875 c -0.03125,0.015625 0,0.046875 0,0.0625 0,0.078125 0.03125,0.125 0.078125,0.171875 0.171875,-0.0625 0.546875,-0.203125 0.6875,-0.203125 0.140625,0 0.203125,0.09375 0.203125,0.375 z m 0,0"
               style="stroke:none" />
          </g>
        </g>
      </g>
    </g>
    <g
       transform="matrix(0.42333399,0,0,0.42333399,82.31746,33.011823)"
       ns2:version="1.1.0"
       ns2:texconverter="pdflatex"
       ns2:pdfconverter="inkscape"
       ns2:text="$2$"
       ns2:preamble="C:\\Users\\flvisa\\Desktop\\lna\\latexify_books\\textext_preamble.tex"
       ns2:scale="1.1999997448823154"
       ns2:alignment="middle center"
       ns2:inkscapeversion="1.0"
       ns2:jacobian_sqrt="0.423334"
       id="g6925">
      <defs
         id="id-10d01f89-49fc-436f-a187-d029386b3763">
        <g
           id="g15673">
          <symbol
             id="symbol15667"
             overflow="visible">
            <path
               id="path15665"
               d="M 0.5,0 H 4.484375 V -4.8125 H 0.5 Z M 1,-0.5 V -4.3125 H 3.984375 V -0.5 Z m 0,0"
               style="stroke:none" />
          </symbol>
          <symbol
             id="symbol15671"
             overflow="visible">
            <path
               id="path15669"
               d="M 4.421875,-1.453125 C 4.375,-1.484375 4.25,-1.515625 4.21875,-1.515625 c -0.0625,0 -0.09375,0.015625 -0.109375,0.0625 -0.21875,0.5 -0.4375,0.75 -0.8125,0.75 h -1.9375 c 0.4375,-0.5 1.4375,-1.59375 2.125,-2.453125 C 3.8125,-3.5625 4.03125,-4.0625 4.03125,-4.625 c 0,-0.828125 -0.734375,-1.625 -1.671875,-1.625 -1.03125,0 -1.734375,1.078125 -1.796875,1.3125 0,0.046875 0.109375,0.15625 0.1875,0.15625 0.125,-0.1875 0.609375,-0.828125 1.390625,-0.828125 0.609375,0 1.0625,0.5 1.0625,1.171875 0,0.484375 -0.0625,0.875 -0.46875,1.453125 -0.5625,0.828125 -1.5,1.9375 -2.3125,2.84375 0,0.046875 0.0625,0.125 0.09375,0.140625 h 3.375 c 0.0625,-0.171875 0.328125,-0.984375 0.53125,-1.453125 z m 0,0"
               style="stroke:none" />
          </symbol>
        </g>
      </defs>
      <g
         transform="translate(-149.134,-128.515)"
         id="id-2b50523c-e81a-4f87-ba36-3d7fa8f68420">
        <g
           id="id-9b635aa6-b372-4423-8fa0-6e45d443fb17"
           style="fill:#000000;fill-opacity:1">
          <g
             transform="translate(148.712,134.765)"
             id="g6921">
            <path
               id="id-392eb9f9-4e03-4d03-ba62-75c1d1e34a13"
               d="M 4.421875,-1.453125 C 4.375,-1.484375 4.25,-1.515625 4.21875,-1.515625 c -0.0625,0 -0.09375,0.015625 -0.109375,0.0625 -0.21875,0.5 -0.4375,0.75 -0.8125,0.75 h -1.9375 c 0.4375,-0.5 1.4375,-1.59375 2.125,-2.453125 C 3.8125,-3.5625 4.03125,-4.0625 4.03125,-4.625 c 0,-0.828125 -0.734375,-1.625 -1.671875,-1.625 -1.03125,0 -1.734375,1.078125 -1.796875,1.3125 0,0.046875 0.109375,0.15625 0.1875,0.15625 0.125,-0.1875 0.609375,-0.828125 1.390625,-0.828125 0.609375,0 1.0625,0.5 1.0625,1.171875 0,0.484375 -0.0625,0.875 -0.46875,1.453125 -0.5625,0.828125 -1.5,1.9375 -2.3125,2.84375 0,0.046875 0.0625,0.125 0.09375,0.140625 h 3.375 c 0.0625,-0.171875 0.328125,-0.984375 0.53125,-1.453125 z m 0,0"
               style="stroke:none" />
          </g>
        </g>
      </g>
    </g>
    <g
       id="g3286"
       style="fill:#000000;stroke-width:0"
       ns2:jacobian_sqrt="0.423334"
       ns2:inkscapeversion="1.0"
       ns2:alignment="middle center"
       ns2:scale="1.1999998866143555"
       ns2:preamble="C:\\Users\\flvisa\\Desktop\\lna\\latexify_books\\textext_preamble.tex"
       ns2:text="$0$"
       ns2:pdfconverter="inkscape"
       ns2:texconverter="pdflatex"
       ns2:version="1.1.0"
       transform="matrix(0.42333399,0,0,0.42333399,86.772251,36.032852)">
      <defs
         id="id-c9b5e3a1-af6b-45d7-8f9c-7fa4577b7189">
        <g
           style="fill:#3a493f;stroke-width:0"
           id="g15689">
          <symbol
             style="fill:#3a493f;stroke-width:0"
             overflow="visible"
             id="symbol15683">
            <path
               style="fill:#3a493f;stroke:none;stroke-width:0"
               d="M 0.5,0 H 4.484375 V -4.8125 H 0.5 Z M 1,-0.5 V -4.3125 H 3.984375 V -0.5 Z m 0,0"
               id="path15681" />
          </symbol>
          <symbol
             style="fill:#3a493f;stroke-width:0"
             overflow="visible"
             id="symbol15687">
            <path
               style="fill:#3a493f;stroke:none;stroke-width:0"
               d="m 2.484375,-5.875 c 0.71875,0 1.203125,1.1875 1.203125,2.71875 0,1.515625 -0.4375,2.828125 -1.3125,2.828125 -0.703125,0 -1.21875,-1.25 -1.21875,-2.78125 0,-1.53125 0.515625,-2.765625 1.328125,-2.765625 z m -0.0625,-0.359375 c -1.34375,0 -2.125,1.421875 -2.125,3.125 0,1.6875 0.796875,3.140625 2.125,3.140625 1.34375,0 2.125,-1.453125 2.125,-3.140625 0,-1.703125 -0.765625,-3.125 -2.125,-3.125 z m 0,0"
               id="path15685" />
          </symbol>
        </g>
      </defs>
      <g
         style="fill:#000000;stroke-width:0"
         id="id-75a4d36a-b09c-4574-85f5-edd07e979b84"
         transform="translate(-149.009,-128.531)">
        <g
           style="fill:#000000;fill-opacity:1;stroke-width:0"
           id="id-e73582e4-c014-49ba-9e2b-505396076844">
          <g
             id="g3282"
             style="fill:#000000;stroke-width:0"
             transform="translate(148.712,134.765)">
            <path
               style="fill:#000000;stroke:none;stroke-width:0"
               d="m 2.484375,-5.875 c 0.71875,0 1.203125,1.1875 1.203125,2.71875 0,1.515625 -0.4375,2.828125 -1.3125,2.828125 -0.703125,0 -1.21875,-1.25 -1.21875,-2.78125 0,-1.53125 0.515625,-2.765625 1.328125,-2.765625 z m -0.0625,-0.359375 c -1.34375,0 -2.125,1.421875 -2.125,3.125 0,1.6875 0.796875,3.140625 2.125,3.140625 1.34375,0 2.125,-1.453125 2.125,-3.140625 0,-1.703125 -0.765625,-3.125 -2.125,-3.125 z m 0,0"
               id="id-9ce7ca54-69fd-4d5e-ab37-f20ad0949d24" />
          </g>
        </g>
      </g>
    </g>
    <path
       style="fill:none;stroke:#000000;stroke-width:0.132292;stroke-linecap:round;stroke-linejoin:miter;stroke-miterlimit:4;stroke-dasharray:none;stroke-opacity:1"
       d="m 87.994661,32.456814 c -1.576962,0.248386 -2.72599,1.585102 -3.775183,1.753957"
       id="path15697"
       sodipodi:nodetypes="cc" />
  </g>
</svg>
