<?xml version="1.0" encoding="UTF-8" standalone="no"?>
<svg
   xmlns:ns2="http://www.iki.fi/pav/software/textext/"
   xmlns:dc="http://purl.org/dc/elements/1.1/"
   xmlns:cc="http://creativecommons.org/ns#"
   xmlns:rdf="http://www.w3.org/1999/02/22-rdf-syntax-ns#"
   xmlns:svg="http://www.w3.org/2000/svg"
   xmlns="http://www.w3.org/2000/svg"
   xmlns:sodipodi="http://sodipodi.sourceforge.net/DTD/sodipodi-0.dtd"
   xmlns:inkscape="http://www.inkscape.org/namespaces/inkscape"
   width="106.28554mm"
   height="39.817757mm"
   viewBox="0 0 106.28554 39.817756"
   version="1.1"
   id="svg12764"
   inkscape:version="1.0.1 (3bc2e813f5, 2020-09-07)"
   sodipodi:docname="fig_18_8.svg">
  <defs
     id="defs12758">
    <marker
       style="overflow:visible"
       id="marker16174"
       refX="0"
       refY="0"
       orient="auto"
       inkscape:stockid="Arrow1Mend"
       inkscape:isstock="true">
      <path
         transform="matrix(-0.4,0,0,-0.4,-4,0)"
         style="fill:#000000;fill-opacity:1;fill-rule:evenodd;stroke:#000000;stroke-width:1pt;stroke-opacity:1"
         d="M 0,0 5,-5 -12.5,0 5,5 Z"
         id="path16172" />
    </marker>
    <marker
       style="overflow:visible"
       id="marker16028"
       refX="0"
       refY="0"
       orient="auto"
       inkscape:stockid="Arrow1Mend"
       inkscape:isstock="true"
       inkscape:collect="always">
      <path
         transform="matrix(-0.4,0,0,-0.4,-4,0)"
         style="fill:#000000;fill-opacity:1;fill-rule:evenodd;stroke:#000000;stroke-width:1pt;stroke-opacity:1"
         d="M 0,0 5,-5 -12.5,0 5,5 Z"
         id="path16026" />
    </marker>
    <marker
       style="overflow:visible"
       id="marker15880"
       refX="0"
       refY="0"
       orient="auto"
       inkscape:stockid="Arrow1Mend"
       inkscape:isstock="true">
      <path
         transform="matrix(-0.4,0,0,-0.4,-4,0)"
         style="fill:#000000;fill-opacity:1;fill-rule:evenodd;stroke:#000000;stroke-width:1pt;stroke-opacity:1"
         d="M 0,0 5,-5 -12.5,0 5,5 Z"
         id="path15878" />
    </marker>
    <marker
       style="overflow:visible"
       id="Arrow1Mstart"
       refX="0"
       refY="0"
       orient="auto"
       inkscape:stockid="Arrow1Mstart"
       inkscape:isstock="true">
      <path
         transform="matrix(0.4,0,0,0.4,4,0)"
         style="fill:#000000;fill-opacity:1;fill-rule:evenodd;stroke:#000000;stroke-width:1pt;stroke-opacity:1"
         d="M 0,0 5,-5 -12.5,0 5,5 Z"
         id="path13350" />
    </marker>
    <marker
       style="overflow:visible"
       id="marker15160"
       refX="0"
       refY="0"
       orient="auto"
       inkscape:stockid="Arrow1Mend"
       inkscape:isstock="true"
       inkscape:collect="always">
      <path
         transform="matrix(-0.4,0,0,-0.4,-4,0)"
         style="fill:#000000;fill-opacity:1;fill-rule:evenodd;stroke:#000000;stroke-width:1pt;stroke-opacity:1"
         d="M 0,0 5,-5 -12.5,0 5,5 Z"
         id="path15158" />
    </marker>
    <pattern
       id="EMFhbasepattern"
       patternUnits="userSpaceOnUse"
       width="6"
       height="6"
       x="0"
       y="0" />
    <pattern
       id="EMFhbasepattern-0"
       patternUnits="userSpaceOnUse"
       width="6"
       height="6"
       x="0"
       y="0" />
    <g
       id="g13617">
      <symbol
         overflow="visible"
         id="symbol13611">
        <path
           style="stroke:none"
           d="M 0.5,0 H 4.484375 V -4.8125 H 0.5 Z M 1,-0.5 V -4.3125 H 3.984375 V -0.5 Z m 0,0"
           id="path13609" />
      </symbol>
      <symbol
         overflow="visible"
         id="symbol13615">
        <path
           style="stroke:none"
           d="m 3.765625,-6.484375 c -1.921875,0 -3.296875,1.53125 -3.296875,3.359375 0,1.71875 1.328125,3.1875 3.25,3.1875 0.890625,0 1.5625,-0.140625 2.09375,-0.4375 C 5.953125,-0.5 6.15625,-1.578125 6.15625,-1.78125 6.0625,-1.84375 5.9375,-1.875 5.84375,-1.859375 5.765625,-1.546875 5.625,-1.0625 5.25,-0.734375 c -0.28125,0.25 -0.6875,0.46875 -1.296875,0.46875 -1.6875,0 -2.515625,-1.5625 -2.515625,-3.078125 0,-1.359375 0.921875,-2.828125 2.375,-2.828125 1.625,0 1.84375,1.125 1.90625,1.421875 0.015625,0.015625 0.046875,0.03125 0.109375,0.03125 0.109375,0 0.21875,-0.0625 0.21875,-0.125 0,-0.09375 -0.21875,-1.453125 -0.21875,-1.453125 -0.71875,-0.15625 -1.4375,-0.1875 -2.0625,-0.1875 z m 0,0"
           id="path13613" />
      </symbol>
    </g>
    <g
       id="g7014">
      <symbol
         id="symbol7008"
         overflow="visible">
        <path
           id="path7006"
           d="M 0.5,0 H 4.484375 V -4.8125 H 0.5 Z M 1,-0.5 V -4.3125 H 3.984375 V -0.5 Z m 0,0"
           style="stroke:none" />
      </symbol>
      <symbol
         id="symbol7012"
         overflow="visible">
        <path
           id="path7010"
           d="m 2.171875,-1.125 c 0,0.28125 -0.015625,0.5625 -0.0625,0.71875 C 2.078125,-0.296875 1.609375,-0.25 1.5,-0.25 c -0.046875,0.046875 -0.046875,0.234375 0,0.28125 0.390625,-0.015625 0.65625,-0.046875 1.03125,-0.046875 0.375,0 0.6875,0.03125 1.09375,0.046875 0.046875,-0.046875 0.03125,-0.234375 0,-0.28125 C 3.5,-0.25 3.015625,-0.296875 2.984375,-0.40625 2.9375,-0.5625 2.9375,-0.84375 2.9375,-1.125 v -4.03125 c 0,-0.59375 0.078125,-0.9375 0.078125,-0.9375 0,-0.046875 -0.03125,-0.15625 -0.09375,-0.15625 H 2.90625 C 2.875,-6.25 2,-5.828125 1.203125,-5.46875 c -0.03125,0.015625 0,0.046875 0,0.0625 0,0.078125 0.03125,0.125 0.078125,0.171875 0.171875,-0.0625 0.546875,-0.203125 0.6875,-0.203125 0.140625,0 0.203125,0.09375 0.203125,0.375 z m 0,0"
           style="stroke:none" />
      </symbol>
    </g>
    <g
       id="g7030">
      <symbol
         id="symbol7024"
         overflow="visible">
        <path
           id="path7022"
           d="M 0.5,0 H 4.484375 V -4.8125 H 0.5 Z M 1,-0.5 V -4.3125 H 3.984375 V -0.5 Z m 0,0"
           style="stroke:none" />
      </symbol>
      <symbol
         id="symbol7028"
         overflow="visible">
        <path
           id="path7026"
           d="M 4.421875,-1.453125 C 4.375,-1.484375 4.25,-1.515625 4.21875,-1.515625 c -0.0625,0 -0.09375,0.015625 -0.109375,0.0625 -0.21875,0.5 -0.4375,0.75 -0.8125,0.75 h -1.9375 c 0.4375,-0.5 1.4375,-1.59375 2.125,-2.453125 C 3.8125,-3.5625 4.03125,-4.0625 4.03125,-4.625 c 0,-0.828125 -0.734375,-1.625 -1.671875,-1.625 -1.03125,0 -1.734375,1.078125 -1.796875,1.3125 0,0.046875 0.109375,0.15625 0.1875,0.15625 0.125,-0.1875 0.609375,-0.828125 1.390625,-0.828125 0.609375,0 1.0625,0.5 1.0625,1.171875 0,0.484375 -0.0625,0.875 -0.46875,1.453125 -0.5625,0.828125 -1.5,1.9375 -2.3125,2.84375 0,0.046875 0.0625,0.125 0.09375,0.140625 h 3.375 c 0.0625,-0.171875 0.328125,-0.984375 0.53125,-1.453125 z m 0,0"
           style="stroke:none" />
      </symbol>
    </g>
    <g
       style="fill:#3a493f;stroke-width:0"
       id="g3367">
      <symbol
         style="fill:#3a493f;stroke-width:0"
         overflow="visible"
         id="symbol3361">
        <path
           style="fill:#3a493f;stroke:none;stroke-width:0"
           d="M 0.5,0 H 4.484375 V -4.8125 H 0.5 Z M 1,-0.5 V -4.3125 H 3.984375 V -0.5 Z m 0,0"
           id="path3359" />
      </symbol>
      <symbol
         style="fill:#3a493f;stroke-width:0"
         overflow="visible"
         id="symbol3365">
        <path
           style="fill:#3a493f;stroke:none;stroke-width:0"
           d="m 2.484375,-5.875 c 0.71875,0 1.203125,1.1875 1.203125,2.71875 0,1.515625 -0.4375,2.828125 -1.3125,2.828125 -0.703125,0 -1.21875,-1.25 -1.21875,-2.78125 0,-1.53125 0.515625,-2.765625 1.328125,-2.765625 z m -0.0625,-0.359375 c -1.34375,0 -2.125,1.421875 -2.125,3.125 0,1.6875 0.796875,3.140625 2.125,3.140625 1.34375,0 2.125,-1.453125 2.125,-3.140625 0,-1.703125 -0.765625,-3.125 -2.125,-3.125 z m 0,0"
           id="path3363" />
      </symbol>
    </g>
    <pattern
       id="EMFhbasepattern-4"
       patternUnits="userSpaceOnUse"
       width="6"
       height="6"
       x="0"
       y="0" />
    <g
       id="g6230">
      <symbol
         id="symbol6224"
         overflow="visible">
        <path
           id="path6222"
           d="M 0.5,0 H 4.484375 V -4.8125 H 0.5 Z M 1,-0.5 V -4.3125 H 3.984375 V -0.5 Z m 0,0"
           style="stroke:none" />
      </symbol>
      <symbol
         id="symbol6228"
         overflow="visible">
        <path
           id="path6226"
           d="m 2,-3.234375 h 0.609375 c 1.484375,0 1.796875,0.796875 1.796875,1.515625 0,1.1875 -0.8125,1.40625 -1.546875,1.40625 C 2.5,-0.3125 2.25,-0.328125 2.09375,-0.484375 2.03125,-0.5625 2,-1 2,-1.140625 Z M 2,-3.59375 v -1.6875 c 0,-0.28125 0,-0.609375 0.046875,-0.734375 0.046875,-0.078125 0.375,-0.078125 0.5,-0.078125 0.90625,0 1.484375,0.484375 1.484375,1.34375 0,0.5625 -0.328125,1.15625 -1.203125,1.15625 z m 0.96875,-2.828125 c -0.578125,0 -1,0.015625 -1.390625,0.015625 -0.375,0 -0.734375,-0.015625 -1.140625,-0.03125 -0.046875,0.046875 -0.03125,0.234375 0,0.28125 0.125,0 0.640625,0.03125 0.671875,0.140625 0.046875,0.15625 0.046875,0.4375 0.046875,0.734375 v 4.125 c 0,0.28125 0,0.5625 -0.046875,0.71875 C 1.078125,-0.328125 0.5625,-0.28125 0.4375,-0.28125 0.40625,-0.234375 0.390625,-0.046875 0.4375,0 h 2.25 C 3.421875,-0.015625 4.25,-0.140625 4.71875,-0.53125 5.203125,-0.921875 5.375,-1.375 5.375,-1.9375 c 0,-0.96875 -0.953125,-1.546875 -1.421875,-1.578125 -0.03125,-0.015625 -0.03125,-0.015625 0,-0.03125 0.328125,-0.125 0.96875,-0.671875 0.96875,-1.421875 0,-1.109375 -1.0625,-1.453125 -1.953125,-1.453125 z m 0,0"
           style="stroke:none" />
      </symbol>
    </g>
    <g
       style="fill:#000000;stroke-width:0"
       id="g3509">
      <symbol
         style="fill:#000000;stroke-width:0"
         overflow="visible"
         id="symbol3495">
        <path
           style="fill:#000000;stroke:none;stroke-width:0"
           d="M 0.5,0 H 4.484375 V -4.8125 H 0.5 Z M 1,-0.5 V -4.3125 H 3.984375 V -0.5 Z m 0,0"
           id="path3493" />
      </symbol>
      <symbol
         style="fill:#000000;stroke-width:0"
         overflow="visible"
         id="symbol3499">
        <path
           style="fill:#000000;stroke:none;stroke-width:0"
           d="M 1.0625,-2.765625 C 1.0625,-4.3125 1.578125,-6 2.5,-6.8125 c 0,0 -0.125,-0.140625 -0.203125,-0.1875 -1.125,0.90625 -1.9375,2.328125 -1.9375,4.234375 0,1.875 0.8125,3.328125 1.9375,4.21875 C 2.375,1.421875 2.5,1.265625 2.5,1.265625 1.578125,0.453125 1.0625,-1.25 1.0625,-2.765625 Z m 0,0"
           id="path3497" />
      </symbol>
      <symbol
         style="fill:#000000;stroke-width:0"
         overflow="visible"
         id="symbol3503">
        <path
           style="fill:#000000;stroke:none;stroke-width:0"
           d="m 1.84375,-0.453125 c -0.375,0 -0.671875,-0.328125 -0.671875,-0.6875 0,-0.390625 0.25,-0.640625 0.609375,-0.78125 C 1.96875,-2 2.453125,-2.140625 2.71875,-2.21875 v 1.359375 c 0,0.109375 -0.53125,0.40625 -0.875,0.40625 z M 2.375,-4.34375 c -0.71875,0 -1.484375,0.53125 -1.78125,0.8125 -0.046875,0.046875 -0.078125,0.203125 -0.078125,0.234375 0,0.21875 0.125,0.421875 0.328125,0.421875 0.25,0 0.40625,-0.140625 0.46875,-0.46875 0.0625,-0.390625 0.1875,-0.640625 0.546875,-0.640625 0.484375,0 0.859375,0.515625 0.859375,0.96875 V -2.75 c 0,0.171875 -0.03125,0.21875 -0.125,0.25 -0.28125,0.140625 -1.171875,0.421875 -1.71875,0.625 -0.234375,0.078125 -0.5,0.40625 -0.5,0.8125 0,0.640625 0.5,1.140625 1.140625,1.140625 0.34375,0 1.109375,-0.53125 1.21875,-0.65625 C 2.796875,-0.28125 3.0625,0.0625 3.34375,0.0625 c 0.203125,0 0.609375,-0.265625 0.734375,-0.375 C 4.109375,-0.359375 4.125,-0.4375 4.125,-0.5 c 0,-0.03125 -0.015625,-0.078125 -0.03125,-0.078125 -0.03125,0.015625 -0.15625,0.125 -0.328125,0.125 -0.234375,0 -0.3125,-0.203125 -0.3125,-0.46875 V -2.96875 c 0,-0.765625 -0.515625,-1.375 -1.078125,-1.375 z m 0,0"
           id="path3501" />
      </symbol>
      <symbol
         style="fill:#000000;stroke-width:0"
         overflow="visible"
         id="symbol3507">
        <path
           style="fill:#000000;stroke:none;stroke-width:0"
           d="M 2.1875,-2.765625 C 2.1875,-4.671875 1.375,-6.09375 0.234375,-7 c -0.0625,0.046875 -0.1875,0.1875 -0.171875,0.1875 0.921875,0.8125 1.40625,2.5 1.40625,4.046875 0,1.515625 -0.484375,3.21875 -1.40625,4.03125 -0.015625,0 0.109375,0.15625 0.171875,0.1875 C 1.375,0.5625 2.1875,-0.890625 2.1875,-2.765625 Z m 0,0"
           id="path3505" />
      </symbol>
    </g>
    <g
       style="fill:#000000;stroke-width:0"
       id="g3539">
      <symbol
         style="fill:#000000;stroke-width:0"
         overflow="visible"
         id="symbol3525">
        <path
           style="fill:#000000;stroke:none;stroke-width:0"
           d="M 0.5,0 H 4.484375 V -4.8125 H 0.5 Z M 1,-0.5 V -4.3125 H 3.984375 V -0.5 Z m 0,0"
           id="path3523" />
      </symbol>
      <symbol
         style="fill:#000000;stroke-width:0"
         overflow="visible"
         id="symbol3529">
        <path
           style="fill:#000000;stroke:none;stroke-width:0"
           d="M 1.0625,-2.765625 C 1.0625,-4.3125 1.578125,-6 2.5,-6.8125 c 0,0 -0.125,-0.140625 -0.203125,-0.1875 -1.125,0.90625 -1.9375,2.328125 -1.9375,4.234375 0,1.875 0.8125,3.328125 1.9375,4.21875 C 2.375,1.421875 2.5,1.265625 2.5,1.265625 1.578125,0.453125 1.0625,-1.25 1.0625,-2.765625 Z m 0,0"
           id="path3527" />
      </symbol>
      <symbol
         style="fill:#000000;stroke-width:0"
         overflow="visible"
         id="symbol3533">
        <path
           style="fill:#000000;stroke:none;stroke-width:0"
           d="m 2.09375,0.0625 c 1.40625,0 2.4375,-1.0625 2.4375,-2.328125 0,-0.890625 -0.625,-2 -1.8125,-2 -0.375,0 -1.046875,0.421875 -1.203125,0.53125 C 1.453125,-3.6875 1.46875,-3.78125 1.46875,-3.84375 V -5.75 c 0,-0.546875 0.09375,-0.84375 0.09375,-0.84375 0,-0.078125 -0.046875,-0.171875 -0.09375,-0.171875 C 1.046875,-6.5625 0.5625,-6.421875 0.0625,-6.375 c -0.046875,0.015625 -0.015625,0.265625 -0.015625,0.265625 0.28125,0 0.546875,0.03125 0.609375,0.171875 0.046875,0.109375 0.046875,0.375 0.046875,0.5 v 4.375 c 0,0.1875 -0.015625,0.515625 -0.109375,0.71875 0,0.046875 0.078125,0.203125 0.125,0.203125 0.21875,-0.078125 0.421875,0 0.640625,0.0625 C 1.578125,-0.015625 1.9375,0.0625 2.09375,0.0625 Z M 2.25,-3.6875 c 0.890625,0 1.453125,0.671875 1.453125,1.796875 0,0.796875 -0.609375,1.625 -1.328125,1.625 -0.4375,0 -0.90625,-0.265625 -0.90625,-0.6875 V -3.3125 c 0,-0.0625 0,-0.09375 0.03125,-0.109375 C 1.59375,-3.515625 2,-3.6875 2.25,-3.6875 Z m 0,0"
           id="path3531" />
      </symbol>
      <symbol
         style="fill:#000000;stroke-width:0"
         overflow="visible"
         id="symbol3537">
        <path
           style="fill:#000000;stroke:none;stroke-width:0"
           d="M 2.1875,-2.765625 C 2.1875,-4.671875 1.375,-6.09375 0.234375,-7 c -0.0625,0.046875 -0.1875,0.1875 -0.171875,0.1875 0.921875,0.8125 1.40625,2.5 1.40625,4.046875 0,1.515625 -0.484375,3.21875 -1.40625,4.03125 -0.015625,0 0.109375,0.15625 0.171875,0.1875 C 1.375,0.5625 2.1875,-0.890625 2.1875,-2.765625 Z m 0,0"
           id="path3535" />
      </symbol>
    </g>
    <g
       id="g11377"
       style="fill:#000000;stroke-width:0">
      <symbol
         overflow="visible"
         id="symbol11363"
         style="fill:#000000;stroke-width:0">
        <path
           style="fill:#000000;stroke:none;stroke-width:0"
           d="M 0.5,0 H 4.484375 V -4.8125 H 0.5 Z M 1,-0.5 V -4.3125 H 3.984375 V -0.5 Z m 0,0"
           id="path11361" />
      </symbol>
      <symbol
         overflow="visible"
         id="symbol11367"
         style="fill:#000000;stroke-width:0">
        <path
           style="fill:#000000;stroke:none;stroke-width:0"
           d="M 1.0625,-2.765625 C 1.0625,-4.3125 1.578125,-6 2.5,-6.8125 c 0,0 -0.125,-0.140625 -0.203125,-0.1875 -1.125,0.90625 -1.9375,2.328125 -1.9375,4.234375 0,1.875 0.8125,3.328125 1.9375,4.21875 C 2.375,1.421875 2.5,1.265625 2.5,1.265625 1.578125,0.453125 1.0625,-1.25 1.0625,-2.765625 Z m 0,0"
           id="path11365" />
      </symbol>
      <symbol
         overflow="visible"
         id="symbol11371"
         style="fill:#000000;stroke-width:0">
        <path
           style="fill:#000000;stroke:none;stroke-width:0"
           d="m 3.78125,-3.84375 c 0,-0.109375 -0.046875,-0.25 -0.09375,-0.28125 -0.234375,-0.15625 -0.546875,-0.234375 -0.890625,-0.234375 -1.046875,0 -2.40625,0.96875 -2.40625,2.421875 0,1.046875 0.796875,2.015625 2,2.015625 0.765625,0 1.265625,-0.5625 1.453125,-0.828125 0.03125,-0.0625 0.046875,-0.140625 0.046875,-0.1875 0,-0.078125 -0.0625,-0.125 -0.078125,-0.125 -0.125,0.140625 -0.5,0.5 -1.046875,0.5 -0.90625,0 -1.625,-0.53125 -1.625,-1.703125 0,-1.046875 0.59375,-1.671875 1.125,-1.671875 0.25,0 0.34375,0.046875 0.5625,0.203125 C 3,-3.625 3.203125,-3.375 3.40625,-3.375 c 0.1875,0 0.375,-0.125 0.375,-0.46875 z m 0,0"
           id="path11369" />
      </symbol>
      <symbol
         overflow="visible"
         id="symbol11375"
         style="fill:#000000;stroke-width:0">
        <path
           style="fill:#000000;stroke:none;stroke-width:0"
           d="M 2.1875,-2.765625 C 2.1875,-4.671875 1.375,-6.09375 0.234375,-7 c -0.0625,0.046875 -0.1875,0.1875 -0.171875,0.1875 0.921875,0.8125 1.40625,2.5 1.40625,4.046875 0,1.515625 -0.484375,3.21875 -1.40625,4.03125 -0.015625,0 0.109375,0.15625 0.171875,0.1875 C 1.375,0.5625 2.1875,-0.890625 2.1875,-2.765625 Z m 0,0"
           id="path11373" />
      </symbol>
    </g>
    <g
       id="g79340"
       style="fill:#000000;stroke-width:0">
      <symbol
         overflow="visible"
         id="symbol79326"
         style="fill:#000000;stroke-width:0">
        <path
           style="fill:#000000;stroke:none;stroke-width:0"
           d="M 0.5,0 H 4.484375 V -4.8125 H 0.5 Z M 1,-0.5 V -4.3125 H 3.984375 V -0.5 Z m 0,0"
           id="path79324" />
      </symbol>
      <symbol
         overflow="visible"
         id="symbol79330"
         style="fill:#000000;stroke-width:0">
        <path
           style="fill:#000000;stroke:none;stroke-width:0"
           d="M 1.0625,-2.765625 C 1.0625,-4.3125 1.578125,-6 2.5,-6.8125 c 0,0 -0.125,-0.140625 -0.203125,-0.1875 -1.125,0.90625 -1.9375,2.328125 -1.9375,4.234375 0,1.875 0.8125,3.328125 1.9375,4.21875 C 2.375,1.421875 2.5,1.265625 2.5,1.265625 1.578125,0.453125 1.0625,-1.25 1.0625,-2.765625 Z m 0,0"
           id="path79328" />
      </symbol>
      <symbol
         overflow="visible"
         id="symbol79334"
         style="fill:#000000;stroke-width:0">
        <path
           style="fill:#000000;stroke:none;stroke-width:0"
           d="m 2.75,-4.359375 c -0.890625,0 -2.359375,1 -2.359375,2.3125 0,1.203125 0.828125,2.125 1.75,2.125 0.46875,0 1.15625,-0.421875 1.3125,-0.59375 0.015625,-0.015625 0.03125,0.015625 0.03125,0.0625 v 0.34375 c 0,0.0625 0.015625,0.1875 0.078125,0.1875 0,0 0.765625,-0.25 1.28125,-0.28125 0.046875,0 0.078125,-0.109375 0.078125,-0.140625 0,-0.03125 -0.015625,-0.109375 -0.03125,-0.109375 -0.03125,-0.015625 -0.5,0 -0.59375,-0.171875 -0.0625,-0.140625 -0.0625,-0.578125 -0.0625,-0.953125 v -4.1875 c 0,-0.53125 0.109375,-0.84375 0.109375,-0.84375 0,-0.0625 -0.0625,-0.15625 -0.109375,-0.15625 -0.421875,0.1875 -0.921875,0.328125 -1.40625,0.375 -0.03125,0.015625 -0.015625,0.265625 0,0.265625 0.265625,0 0.546875,0.03125 0.59375,0.15625 0.0625,0.109375 0.0625,0.359375 0.0625,0.484375 v 1.03125 c 0,0.109375 -0.015625,0.1875 -0.0625,0.1875 C 3.328125,-4.3125 2.953125,-4.359375 2.75,-4.359375 Z m -0.328125,0.40625 c 0.5625,0 1.0625,0.265625 1.0625,0.484375 v 2.546875 c 0,0.15625 -0.421875,0.390625 -0.875,0.390625 -0.90625,0 -1.40625,-0.8125 -1.40625,-1.765625 0,-0.84375 0.46875,-1.65625 1.21875,-1.65625 z m 0,0"
           id="path79332" />
      </symbol>
      <symbol
         overflow="visible"
         id="symbol79338"
         style="fill:#000000;stroke-width:0">
        <path
           style="fill:#000000;stroke:none;stroke-width:0"
           d="M 2.1875,-2.765625 C 2.1875,-4.671875 1.375,-6.09375 0.234375,-7 c -0.0625,0.046875 -0.1875,0.1875 -0.171875,0.1875 0.921875,0.8125 1.40625,2.5 1.40625,4.046875 0,1.515625 -0.484375,3.21875 -1.40625,4.03125 -0.015625,0 0.109375,0.15625 0.171875,0.1875 C 1.375,0.5625 2.1875,-0.890625 2.1875,-2.765625 Z m 0,0"
           id="path79336" />
      </symbol>
    </g>
  </defs>
  <sodipodi:namedview
     id="base"
     pagecolor="#ffffff"
     bordercolor="#666666"
     borderopacity="1.0"
     inkscape:pageopacity="0.0"
     inkscape:pageshadow="2"
     inkscape:zoom="0.98994949"
     inkscape:cx="178.18757"
     inkscape:cy="52.303391"
     inkscape:document-units="mm"
     inkscape:current-layer="layer1"
     inkscape:document-rotation="0"
     showgrid="false"
     inkscape:window-width="1600"
     inkscape:window-height="837"
     inkscape:window-x="1432"
     inkscape:window-y="-8"
     inkscape:window-maximized="1"
     showguides="false" />
  <metadata
     id="metadata12761">
    <rdf:RDF>
      <cc:Work
         rdf:about="">
        <dc:format>image/svg+xml</dc:format>
        <dc:type
           rdf:resource="http://purl.org/dc/dcmitype/StillImage" />
        <dc:title></dc:title>
      </cc:Work>
    </rdf:RDF>
  </metadata>
  <g
     inkscape:label="Layer 1"
     inkscape:groupmode="layer"
     id="layer1"
     transform="translate(-77.047272,-5.5613493)">
    <g
       id="g15356"
       style="stroke:#506a65;stroke-width:1.00741;stroke-miterlimit:4;stroke-dasharray:none;shape-rendering:geometricPrecision"
       transform="matrix(-0.00348674,0.04710729,0.04710729,0.00348674,89.382006,21.875932)">
  <path
   style="fill:none;stroke:#506a65;stroke-width:8.40193;stroke-linecap:round;stroke-linejoin:round;stroke-miterlimit:4;stroke-dasharray:none"
   d="M 82.276875,137.93532 C 137.18021,109.20508 176.10148,48.93565 178.67202,-15.668937 181.24256,-80.273523 146.98371,-146.75571 89.988482,-182.63011 c -56.99518,-35.87438 -134.749043,-39.44646 -196.645922,-6.67845 -61.89693,32.76802 -105.39196,100.959457 -107.96249,173.639623 -2.57054,72.680153 36.26206,147.084317 100.25088,186.996487 C -50.380267,211.23972 36.521108,214.8118 105.4117,178.006 174.30235,141.20019 222.37114,65.086796 224.94166,-15.668937 227.5122,-96.424669 184.10585,-178.75083 113.12332,-222.7008 c -70.982504,-43.94995 -167.031396,-47.52204 -242.91558,-6.67845 -75.88424,40.84359 -128.52678,124.879 -131.09732,213.710313 -2.57054,88.831299 45.40957,179.079407 123.38571,227.067167 77.976101,47.98774 183.172491,51.55983 266.05042,6.67845 C 204.50976,176.93987 258.91474,96.254709 269.44358,8.4587984"
   id="path15354"
   sodipodi:nodetypes="cssssssssssssc" />

 </g>
    <circle
       r="0.66817379"
       cy="21.350065"
       cx="88.818741"
       id="path3435-3-3"
       style="opacity:1;fill:#000000;stroke:#000000;stroke-width:0.264583;stroke-linejoin:round;stroke-miterlimit:4;stroke-dasharray:none" />
    <g
       id="g12657"
       ns2:jacobian_sqrt="0.423334"
       ns2:inkscapeversion="1.0"
       ns2:alignment="middle center"
       ns2:scale="1.1999998299215373"
       ns2:preamble="C:\\Users\\flvisa\\Desktop\\lna\\latexify_books\\textext_preamble.tex"
       ns2:text="C"
       ns2:pdfconverter="inkscape"
       ns2:texconverter="pdflatex"
       ns2:version="1.1.0"
       transform="matrix(0.43956044,0,0,0.43956044,84.556249,19.955022)">
      <defs
         id="id-fe274fe3-c964-4e1e-9bfc-db0a15f96e05">
        <g
           id="g15548">
          <symbol
             overflow="visible"
             id="symbol15542">
            <path
               style="stroke:none"
               d="M 0.5,0 H 4.484375 V -4.8125 H 0.5 Z M 1,-0.5 V -4.3125 H 3.984375 V -0.5 Z m 0,0"
               id="path15540" />
          </symbol>
          <symbol
             overflow="visible"
             id="symbol15546">
            <path
               style="stroke:none"
               d="m 3.765625,-6.484375 c -1.921875,0 -3.296875,1.53125 -3.296875,3.359375 0,1.71875 1.328125,3.1875 3.25,3.1875 0.890625,0 1.5625,-0.140625 2.09375,-0.4375 C 5.953125,-0.5 6.15625,-1.578125 6.15625,-1.78125 6.0625,-1.84375 5.9375,-1.875 5.84375,-1.859375 5.765625,-1.546875 5.625,-1.0625 5.25,-0.734375 c -0.28125,0.25 -0.6875,0.46875 -1.296875,0.46875 -1.6875,0 -2.515625,-1.5625 -2.515625,-3.078125 0,-1.359375 0.921875,-2.828125 2.375,-2.828125 1.625,0 1.84375,1.125 1.90625,1.421875 0.015625,0.015625 0.046875,0.03125 0.109375,0.03125 0.109375,0 0.21875,-0.0625 0.21875,-0.125 0,-0.09375 -0.21875,-1.453125 -0.21875,-1.453125 -0.71875,-0.15625 -1.4375,-0.1875 -2.0625,-0.1875 z m 0,0"
               id="path15544" />
          </symbol>
        </g>
      </defs>
      <g
         id="id-5c1c4ae8-f18b-4582-b095-5adb0b213f9c"
         transform="translate(-149.181,-128.281)">
        <g
           style="fill:#000000;fill-opacity:1"
           id="id-00559197-870c-46df-bc63-7a61878d961b">
          <g
             id="g12653"
             transform="translate(148.712,134.765)">
            <path
               style="stroke:none"
               d="m 3.765625,-6.484375 c -1.921875,0 -3.296875,1.53125 -3.296875,3.359375 0,1.71875 1.328125,3.1875 3.25,3.1875 0.890625,0 1.5625,-0.140625 2.09375,-0.4375 C 5.953125,-0.5 6.15625,-1.578125 6.15625,-1.78125 6.0625,-1.84375 5.9375,-1.875 5.84375,-1.859375 5.765625,-1.546875 5.625,-1.0625 5.25,-0.734375 c -0.28125,0.25 -0.6875,0.46875 -1.296875,0.46875 -1.6875,0 -2.515625,-1.5625 -2.515625,-3.078125 0,-1.359375 0.921875,-2.828125 2.375,-2.828125 1.625,0 1.84375,1.125 1.90625,1.421875 0.015625,0.015625 0.046875,0.03125 0.109375,0.03125 0.109375,0 0.21875,-0.0625 0.21875,-0.125 0,-0.09375 -0.21875,-1.453125 -0.21875,-1.453125 -0.71875,-0.15625 -1.4375,-0.1875 -2.0625,-0.1875 z m 0,0"
               id="id-268bad3b-5084-409e-819c-d13cd609c05f" />
          </g>
        </g>
      </g>
    </g>
    <g
       transform="matrix(0.42333399,0,0,0.42333399,88.159506,5.5613493)"
       ns2:version="1.1.0"
       ns2:texconverter="pdflatex"
       ns2:pdfconverter="inkscape"
       ns2:text="$1$"
       ns2:preamble="C:\\Users\\flvisa\\Desktop\\lna\\latexify_books\\textext_preamble.tex"
       ns2:scale="1.199999773228722"
       ns2:alignment="middle center"
       ns2:inkscapeversion="1.0"
       ns2:jacobian_sqrt="0.423334"
       id="g6582">
      <defs
         id="id-99136f65-f779-4cb7-b19c-c10459896000">
        <g
           id="g15657">
          <symbol
             id="symbol15651"
             overflow="visible">
            <path
               id="path15649"
               d="M 0.5,0 H 4.484375 V -4.8125 H 0.5 Z M 1,-0.5 V -4.3125 H 3.984375 V -0.5 Z m 0,0"
               style="stroke:none" />
          </symbol>
          <symbol
             id="symbol15655"
             overflow="visible">
            <path
               id="path15653"
               d="m 2.171875,-1.125 c 0,0.28125 -0.015625,0.5625 -0.0625,0.71875 C 2.078125,-0.296875 1.609375,-0.25 1.5,-0.25 c -0.046875,0.046875 -0.046875,0.234375 0,0.28125 0.390625,-0.015625 0.65625,-0.046875 1.03125,-0.046875 0.375,0 0.6875,0.03125 1.09375,0.046875 0.046875,-0.046875 0.03125,-0.234375 0,-0.28125 C 3.5,-0.25 3.015625,-0.296875 2.984375,-0.40625 2.9375,-0.5625 2.9375,-0.84375 2.9375,-1.125 v -4.03125 c 0,-0.59375 0.078125,-0.9375 0.078125,-0.9375 0,-0.046875 -0.03125,-0.15625 -0.09375,-0.15625 H 2.90625 C 2.875,-6.25 2,-5.828125 1.203125,-5.46875 c -0.03125,0.015625 0,0.046875 0,0.0625 0,0.078125 0.03125,0.125 0.078125,0.171875 0.171875,-0.0625 0.546875,-0.203125 0.6875,-0.203125 0.140625,0 0.203125,0.09375 0.203125,0.375 z m 0,0"
               style="stroke:none" />
          </symbol>
        </g>
      </defs>
      <g
         transform="translate(-149.901,-128.515)"
         id="id-bd3de61b-ee2e-47ef-96ff-2b0b05c6120a">
        <g
           id="id-094dc464-c691-462e-9002-f9b026782012"
           style="fill:#000000;fill-opacity:1">
          <g
             transform="translate(148.712,134.765)"
             id="g6578">
            <path
               id="id-74bf3bd2-a8b6-49d6-a543-6822b0530089"
               d="m 2.171875,-1.125 c 0,0.28125 -0.015625,0.5625 -0.0625,0.71875 C 2.078125,-0.296875 1.609375,-0.25 1.5,-0.25 c -0.046875,0.046875 -0.046875,0.234375 0,0.28125 0.390625,-0.015625 0.65625,-0.046875 1.03125,-0.046875 0.375,0 0.6875,0.03125 1.09375,0.046875 0.046875,-0.046875 0.03125,-0.234375 0,-0.28125 C 3.5,-0.25 3.015625,-0.296875 2.984375,-0.40625 2.9375,-0.5625 2.9375,-0.84375 2.9375,-1.125 v -4.03125 c 0,-0.59375 0.078125,-0.9375 0.078125,-0.9375 0,-0.046875 -0.03125,-0.15625 -0.09375,-0.15625 H 2.90625 C 2.875,-6.25 2,-5.828125 1.203125,-5.46875 c -0.03125,0.015625 0,0.046875 0,0.0625 0,0.078125 0.03125,0.125 0.078125,0.171875 0.171875,-0.0625 0.546875,-0.203125 0.6875,-0.203125 0.140625,0 0.203125,0.09375 0.203125,0.375 z m 0,0"
               style="stroke:none" />
          </g>
        </g>
      </g>
    </g>
    <g
       id="g3286"
       style="fill:#000000;stroke-width:0"
       ns2:jacobian_sqrt="0.423334"
       ns2:inkscapeversion="1.0"
       ns2:alignment="middle center"
       ns2:scale="1.1999998866143555"
       ns2:preamble="C:\\Users\\flvisa\\Desktop\\lna\\latexify_books\\textext_preamble.tex"
       ns2:text="$0$"
       ns2:pdfconverter="inkscape"
       ns2:texconverter="pdflatex"
       ns2:version="1.1.0"
       transform="matrix(0.42333399,0,0,0.42333399,87.930325,36.032852)">
      <defs
         id="id-c9b5e3a1-af6b-45d7-8f9c-7fa4577b7189">
        <g
           style="fill:#3a493f;stroke-width:0"
           id="g15689">
          <symbol
             style="fill:#3a493f;stroke-width:0"
             overflow="visible"
             id="symbol15683">
            <path
               style="fill:#3a493f;stroke:none;stroke-width:0"
               d="M 0.5,0 H 4.484375 V -4.8125 H 0.5 Z M 1,-0.5 V -4.3125 H 3.984375 V -0.5 Z m 0,0"
               id="path15681" />
          </symbol>
          <symbol
             style="fill:#3a493f;stroke-width:0"
             overflow="visible"
             id="symbol15687">
            <path
               style="fill:#3a493f;stroke:none;stroke-width:0"
               d="m 2.484375,-5.875 c 0.71875,0 1.203125,1.1875 1.203125,2.71875 0,1.515625 -0.4375,2.828125 -1.3125,2.828125 -0.703125,0 -1.21875,-1.25 -1.21875,-2.78125 0,-1.53125 0.515625,-2.765625 1.328125,-2.765625 z m -0.0625,-0.359375 c -1.34375,0 -2.125,1.421875 -2.125,3.125 0,1.6875 0.796875,3.140625 2.125,3.140625 1.34375,0 2.125,-1.453125 2.125,-3.140625 0,-1.703125 -0.765625,-3.125 -2.125,-3.125 z m 0,0"
               id="path15685" />
          </symbol>
        </g>
      </defs>
      <g
         style="fill:#000000;stroke-width:0"
         id="id-75a4d36a-b09c-4574-85f5-edd07e979b84"
         transform="translate(-149.009,-128.531)">
        <g
           style="fill:#000000;fill-opacity:1;stroke-width:0"
           id="id-e73582e4-c014-49ba-9e2b-505396076844">
          <g
             id="g3282"
             style="fill:#000000;stroke-width:0"
             transform="translate(148.712,134.765)">
            <path
               style="fill:#000000;stroke:none;stroke-width:0"
               d="m 2.484375,-5.875 c 0.71875,0 1.203125,1.1875 1.203125,2.71875 0,1.515625 -0.4375,2.828125 -1.3125,2.828125 -0.703125,0 -1.21875,-1.25 -1.21875,-2.78125 0,-1.53125 0.515625,-2.765625 1.328125,-2.765625 z m -0.0625,-0.359375 c -1.34375,0 -2.125,1.421875 -2.125,3.125 0,1.6875 0.796875,3.140625 2.125,3.140625 1.34375,0 2.125,-1.453125 2.125,-3.140625 0,-1.703125 -0.765625,-3.125 -2.125,-3.125 z m 0,0"
               id="id-9ce7ca54-69fd-4d5e-ab37-f20ad0949d24" />
          </g>
        </g>
      </g>
    </g>
    <path
       style="fill:none;stroke:#000000;stroke-width:0.264583px;stroke-linecap:butt;stroke-linejoin:miter;stroke-opacity:1;marker-end:url(#marker15160)"
       d="M 88.851336,34.158308 V 10.242925"
       id="path15714"
       sodipodi:nodetypes="cc" />
    <g
       id="g15780"
       style="stroke:#506a65;stroke-width:1.00741;stroke-miterlimit:4;stroke-dasharray:none;shape-rendering:geometricPrecision"
       transform="matrix(-0.00348674,0.04710729,0.04710729,0.00348674,115.84044,21.875932)">
  <path
   style="fill:none;stroke:#506a65;stroke-width:8.40193;stroke-linecap:round;stroke-linejoin:round;stroke-miterlimit:4;stroke-dasharray:none"
   d="M 82.276875,137.93532 C 137.18021,109.20508 176.10148,48.93565 178.67202,-15.668937 181.24256,-80.273523 146.98371,-146.75571 89.988482,-182.63011 c -56.99518,-35.87438 -134.749043,-39.44646 -196.645922,-6.67845 -61.89693,32.76802 -105.39196,100.959457 -107.96249,173.639623 -2.57054,72.680153 36.26206,147.084317 100.25088,186.996487 C -50.380267,211.23972 36.521108,214.8118 105.4117,178.006 174.30235,141.20019 222.37114,65.086796 224.94166,-15.668937 227.5122,-96.424669 184.10585,-178.75083 113.12332,-222.7008 c -70.982504,-43.94995 -167.031396,-47.52204 -242.91558,-6.67845 -75.88424,40.84359 -128.52678,124.879 -131.09732,213.710313 -2.57054,88.831299 45.40957,179.079407 123.38571,227.067167 77.976101,47.98774 183.172491,51.55983 266.05042,6.67845 C 204.50976,176.93987 258.91474,96.254709 269.44358,8.4587984"
   id="path15778"
   sodipodi:nodetypes="cssssssssssssc" />

 </g>
    <circle
       r="0.66817379"
       cy="21.350065"
       cx="115.27711"
       id="circle15782"
       style="opacity:1;fill:#000000;stroke:#000000;stroke-width:0.264583;stroke-linejoin:round;stroke-miterlimit:4;stroke-dasharray:none" />
    <circle
       r="0.66817379"
       cy="34.591721"
       cx="115.26709"
       id="circle15784"
       style="opacity:1;fill:#9e7867;stroke:#9e7867;stroke-width:0.264583;stroke-linejoin:round;stroke-miterlimit:4;stroke-dasharray:none" />
    <g
       id="g15806"
       ns2:jacobian_sqrt="0.423334"
       ns2:inkscapeversion="1.0"
       ns2:alignment="middle center"
       ns2:scale="1.1999998299215373"
       ns2:preamble="C:\\Users\\flvisa\\Desktop\\lna\\latexify_books\\textext_preamble.tex"
       ns2:text="C"
       ns2:pdfconverter="inkscape"
       ns2:texconverter="pdflatex"
       ns2:version="1.1.0"
       transform="matrix(0.43956044,0,0,0.43956044,111.01466,19.955022)">
      <defs
         id="defs15796">
        <g
           id="g15794">
          <symbol
             overflow="visible"
             id="symbol15788">
            <path
               style="stroke:none"
               d="M 0.5,0 H 4.484375 V -4.8125 H 0.5 Z M 1,-0.5 V -4.3125 H 3.984375 V -0.5 Z m 0,0"
               id="path15786" />
          </symbol>
          <symbol
             overflow="visible"
             id="symbol15792">
            <path
               style="stroke:none"
               d="m 3.765625,-6.484375 c -1.921875,0 -3.296875,1.53125 -3.296875,3.359375 0,1.71875 1.328125,3.1875 3.25,3.1875 0.890625,0 1.5625,-0.140625 2.09375,-0.4375 C 5.953125,-0.5 6.15625,-1.578125 6.15625,-1.78125 6.0625,-1.84375 5.9375,-1.875 5.84375,-1.859375 5.765625,-1.546875 5.625,-1.0625 5.25,-0.734375 c -0.28125,0.25 -0.6875,0.46875 -1.296875,0.46875 -1.6875,0 -2.515625,-1.5625 -2.515625,-3.078125 0,-1.359375 0.921875,-2.828125 2.375,-2.828125 1.625,0 1.84375,1.125 1.90625,1.421875 0.015625,0.015625 0.046875,0.03125 0.109375,0.03125 0.109375,0 0.21875,-0.0625 0.21875,-0.125 0,-0.09375 -0.21875,-1.453125 -0.21875,-1.453125 -0.71875,-0.15625 -1.4375,-0.1875 -2.0625,-0.1875 z m 0,0"
               id="path15790" />
          </symbol>
        </g>
      </defs>
      <g
         id="g15804"
         transform="translate(-149.181,-128.281)">
        <g
           style="fill:#000000;fill-opacity:1"
           id="g15802">
          <g
             id="g15800"
             transform="translate(148.712,134.765)">
            <path
               style="stroke:none"
               d="m 3.765625,-6.484375 c -1.921875,0 -3.296875,1.53125 -3.296875,3.359375 0,1.71875 1.328125,3.1875 3.25,3.1875 0.890625,0 1.5625,-0.140625 2.09375,-0.4375 C 5.953125,-0.5 6.15625,-1.578125 6.15625,-1.78125 6.0625,-1.84375 5.9375,-1.875 5.84375,-1.859375 5.765625,-1.546875 5.625,-1.0625 5.25,-0.734375 c -0.28125,0.25 -0.6875,0.46875 -1.296875,0.46875 -1.6875,0 -2.515625,-1.5625 -2.515625,-3.078125 0,-1.359375 0.921875,-2.828125 2.375,-2.828125 1.625,0 1.84375,1.125 1.90625,1.421875 0.015625,0.015625 0.046875,0.03125 0.109375,0.03125 0.109375,0 0.21875,-0.0625 0.21875,-0.125 0,-0.09375 -0.21875,-1.453125 -0.21875,-1.453125 -0.71875,-0.15625 -1.4375,-0.1875 -2.0625,-0.1875 z m 0,0"
               id="path15798" />
          </g>
        </g>
      </g>
    </g>
    <g
       transform="matrix(0.42333399,0,0,0.42333399,114.61794,5.5613493)"
       ns2:version="1.1.0"
       ns2:texconverter="pdflatex"
       ns2:pdfconverter="inkscape"
       ns2:text="$1$"
       ns2:preamble="C:\\Users\\flvisa\\Desktop\\lna\\latexify_books\\textext_preamble.tex"
       ns2:scale="1.199999773228722"
       ns2:alignment="middle center"
       ns2:inkscapeversion="1.0"
       ns2:jacobian_sqrt="0.423334"
       id="g15828">
      <defs
         id="defs15818">
        <g
           id="g15816">
          <symbol
             id="symbol15810"
             overflow="visible">
            <path
               id="path15808"
               d="M 0.5,0 H 4.484375 V -4.8125 H 0.5 Z M 1,-0.5 V -4.3125 H 3.984375 V -0.5 Z m 0,0"
               style="stroke:none" />
          </symbol>
          <symbol
             id="symbol15814"
             overflow="visible">
            <path
               id="path15812"
               d="m 2.171875,-1.125 c 0,0.28125 -0.015625,0.5625 -0.0625,0.71875 C 2.078125,-0.296875 1.609375,-0.25 1.5,-0.25 c -0.046875,0.046875 -0.046875,0.234375 0,0.28125 0.390625,-0.015625 0.65625,-0.046875 1.03125,-0.046875 0.375,0 0.6875,0.03125 1.09375,0.046875 0.046875,-0.046875 0.03125,-0.234375 0,-0.28125 C 3.5,-0.25 3.015625,-0.296875 2.984375,-0.40625 2.9375,-0.5625 2.9375,-0.84375 2.9375,-1.125 v -4.03125 c 0,-0.59375 0.078125,-0.9375 0.078125,-0.9375 0,-0.046875 -0.03125,-0.15625 -0.09375,-0.15625 H 2.90625 C 2.875,-6.25 2,-5.828125 1.203125,-5.46875 c -0.03125,0.015625 0,0.046875 0,0.0625 0,0.078125 0.03125,0.125 0.078125,0.171875 0.171875,-0.0625 0.546875,-0.203125 0.6875,-0.203125 0.140625,0 0.203125,0.09375 0.203125,0.375 z m 0,0"
               style="stroke:none" />
          </symbol>
        </g>
      </defs>
      <g
         transform="translate(-149.901,-128.515)"
         id="g15826">
        <g
           id="g15824"
           style="fill:#000000;fill-opacity:1">
          <g
             transform="translate(148.712,134.765)"
             id="g15822">
            <path
               id="path15820"
               d="m 2.171875,-1.125 c 0,0.28125 -0.015625,0.5625 -0.0625,0.71875 C 2.078125,-0.296875 1.609375,-0.25 1.5,-0.25 c -0.046875,0.046875 -0.046875,0.234375 0,0.28125 0.390625,-0.015625 0.65625,-0.046875 1.03125,-0.046875 0.375,0 0.6875,0.03125 1.09375,0.046875 0.046875,-0.046875 0.03125,-0.234375 0,-0.28125 C 3.5,-0.25 3.015625,-0.296875 2.984375,-0.40625 2.9375,-0.5625 2.9375,-0.84375 2.9375,-1.125 v -4.03125 c 0,-0.59375 0.078125,-0.9375 0.078125,-0.9375 0,-0.046875 -0.03125,-0.15625 -0.09375,-0.15625 H 2.90625 C 2.875,-6.25 2,-5.828125 1.203125,-5.46875 c -0.03125,0.015625 0,0.046875 0,0.0625 0,0.078125 0.03125,0.125 0.078125,0.171875 0.171875,-0.0625 0.546875,-0.203125 0.6875,-0.203125 0.140625,0 0.203125,0.09375 0.203125,0.375 z m 0,0"
               style="stroke:none" />
          </g>
        </g>
      </g>
    </g>
    <g
       transform="matrix(0.42333399,0,0,0.42333399,109.61998,33.217647)"
       ns2:version="1.1.0"
       ns2:texconverter="pdflatex"
       ns2:pdfconverter="inkscape"
       ns2:text="$2$"
       ns2:preamble="C:\\Users\\flvisa\\Desktop\\lna\\latexify_books\\textext_preamble.tex"
       ns2:scale="1.1999997448823154"
       ns2:alignment="middle center"
       ns2:inkscapeversion="1.0"
       ns2:jacobian_sqrt="0.423334"
       id="g15850">
      <defs
         id="defs15840">
        <g
           id="g15838">
          <symbol
             id="symbol15832"
             overflow="visible">
            <path
               id="path15830"
               d="M 0.5,0 H 4.484375 V -4.8125 H 0.5 Z M 1,-0.5 V -4.3125 H 3.984375 V -0.5 Z m 0,0"
               style="stroke:none" />
          </symbol>
          <symbol
             id="symbol15836"
             overflow="visible">
            <path
               id="path15834"
               d="M 4.421875,-1.453125 C 4.375,-1.484375 4.25,-1.515625 4.21875,-1.515625 c -0.0625,0 -0.09375,0.015625 -0.109375,0.0625 -0.21875,0.5 -0.4375,0.75 -0.8125,0.75 h -1.9375 c 0.4375,-0.5 1.4375,-1.59375 2.125,-2.453125 C 3.8125,-3.5625 4.03125,-4.0625 4.03125,-4.625 c 0,-0.828125 -0.734375,-1.625 -1.671875,-1.625 -1.03125,0 -1.734375,1.078125 -1.796875,1.3125 0,0.046875 0.109375,0.15625 0.1875,0.15625 0.125,-0.1875 0.609375,-0.828125 1.390625,-0.828125 0.609375,0 1.0625,0.5 1.0625,1.171875 0,0.484375 -0.0625,0.875 -0.46875,1.453125 -0.5625,0.828125 -1.5,1.9375 -2.3125,2.84375 0,0.046875 0.0625,0.125 0.09375,0.140625 h 3.375 c 0.0625,-0.171875 0.328125,-0.984375 0.53125,-1.453125 z m 0,0"
               style="stroke:none" />
          </symbol>
        </g>
      </defs>
      <g
         transform="translate(-149.134,-128.515)"
         id="g15848">
        <g
           id="g15846"
           style="fill:#000000;fill-opacity:1">
          <g
             transform="translate(148.712,134.765)"
             id="g15844">
            <path
               id="path15842"
               d="M 4.421875,-1.453125 C 4.375,-1.484375 4.25,-1.515625 4.21875,-1.515625 c -0.0625,0 -0.09375,0.015625 -0.109375,0.0625 -0.21875,0.5 -0.4375,0.75 -0.8125,0.75 h -1.9375 c 0.4375,-0.5 1.4375,-1.59375 2.125,-2.453125 C 3.8125,-3.5625 4.03125,-4.0625 4.03125,-4.625 c 0,-0.828125 -0.734375,-1.625 -1.671875,-1.625 -1.03125,0 -1.734375,1.078125 -1.796875,1.3125 0,0.046875 0.109375,0.15625 0.1875,0.15625 0.125,-0.1875 0.609375,-0.828125 1.390625,-0.828125 0.609375,0 1.0625,0.5 1.0625,1.171875 0,0.484375 -0.0625,0.875 -0.46875,1.453125 -0.5625,0.828125 -1.5,1.9375 -2.3125,2.84375 0,0.046875 0.0625,0.125 0.09375,0.140625 h 3.375 c 0.0625,-0.171875 0.328125,-0.984375 0.53125,-1.453125 z m 0,0"
               style="stroke:none" />
          </g>
        </g>
      </g>
    </g>
    <g
       id="g15872"
       style="fill:#000000;stroke-width:0"
       ns2:jacobian_sqrt="0.423334"
       ns2:inkscapeversion="1.0"
       ns2:alignment="middle center"
       ns2:scale="1.1999998866143555"
       ns2:preamble="C:\\Users\\flvisa\\Desktop\\lna\\latexify_books\\textext_preamble.tex"
       ns2:text="$0$"
       ns2:pdfconverter="inkscape"
       ns2:texconverter="pdflatex"
       ns2:version="1.1.0"
       transform="matrix(0.42333399,0,0,0.42333399,114.38876,36.032852)">
      <defs
         id="defs15862">
        <g
           style="fill:#3a493f;stroke-width:0"
           id="g15860">
          <symbol
             style="fill:#3a493f;stroke-width:0"
             overflow="visible"
             id="symbol15854">
            <path
               style="fill:#3a493f;stroke:none;stroke-width:0"
               d="M 0.5,0 H 4.484375 V -4.8125 H 0.5 Z M 1,-0.5 V -4.3125 H 3.984375 V -0.5 Z m 0,0"
               id="path15852" />
          </symbol>
          <symbol
             style="fill:#3a493f;stroke-width:0"
             overflow="visible"
             id="symbol15858">
            <path
               style="fill:#3a493f;stroke:none;stroke-width:0"
               d="m 2.484375,-5.875 c 0.71875,0 1.203125,1.1875 1.203125,2.71875 0,1.515625 -0.4375,2.828125 -1.3125,2.828125 -0.703125,0 -1.21875,-1.25 -1.21875,-2.78125 0,-1.53125 0.515625,-2.765625 1.328125,-2.765625 z m -0.0625,-0.359375 c -1.34375,0 -2.125,1.421875 -2.125,3.125 0,1.6875 0.796875,3.140625 2.125,3.140625 1.34375,0 2.125,-1.453125 2.125,-3.140625 0,-1.703125 -0.765625,-3.125 -2.125,-3.125 z m 0,0"
               id="path15856" />
          </symbol>
        </g>
      </defs>
      <g
         style="fill:#000000;stroke-width:0"
         id="g15870"
         transform="translate(-149.009,-128.531)">
        <g
           style="fill:#000000;fill-opacity:1;stroke-width:0"
           id="g15868">
          <g
             id="g15866"
             style="fill:#000000;stroke-width:0"
             transform="translate(148.712,134.765)">
            <path
               style="fill:#000000;stroke:none;stroke-width:0"
               d="m 2.484375,-5.875 c 0.71875,0 1.203125,1.1875 1.203125,2.71875 0,1.515625 -0.4375,2.828125 -1.3125,2.828125 -0.703125,0 -1.21875,-1.25 -1.21875,-2.78125 0,-1.53125 0.515625,-2.765625 1.328125,-2.765625 z m -0.0625,-0.359375 c -1.34375,0 -2.125,1.421875 -2.125,3.125 0,1.6875 0.796875,3.140625 2.125,3.140625 1.34375,0 2.125,-1.453125 2.125,-3.140625 0,-1.703125 -0.765625,-3.125 -2.125,-3.125 z m 0,0"
               id="path15864" />
          </g>
        </g>
      </g>
    </g>
    <path
       style="fill:none;stroke:#000000;stroke-width:0.132292;stroke-linecap:round;stroke-linejoin:miter;stroke-miterlimit:4;stroke-dasharray:none;stroke-opacity:1"
       d="m 115.29721,32.662638 c -1.57697,0.248386 -2.726,1.585102 -3.7752,1.753957"
       id="path15874"
       sodipodi:nodetypes="cc" />
    <path
       style="fill:none;stroke:#000000;stroke-width:0.264583px;stroke-linecap:butt;stroke-linejoin:miter;stroke-opacity:1;marker-end:url(#marker15880)"
       d="M 115.30977,9.7215162 V 31.699195"
       id="path15876"
       sodipodi:nodetypes="cc" />
    <circle
       r="0.66817379"
       cy="9.5796356"
       cx="115.27711"
       id="circle15930"
       style="opacity:1;fill:#9e7867;stroke:#9e7867;stroke-width:0.264583;stroke-linejoin:round;stroke-miterlimit:4;stroke-dasharray:none" />
    <g
       id="g15952"
       style="stroke:#506a65;stroke-width:1.00741;stroke-miterlimit:4;stroke-dasharray:none;shape-rendering:geometricPrecision"
       transform="matrix(-0.00348674,0.04710729,0.04710729,0.00348674,142.29894,21.875932)">
  <path
   style="fill:none;stroke:#506a65;stroke-width:8.40193;stroke-linecap:round;stroke-linejoin:round;stroke-miterlimit:4;stroke-dasharray:none"
   d="M 82.276875,137.93532 C 137.18021,109.20508 176.10148,48.93565 178.67202,-15.668937 181.24256,-80.273523 146.98371,-146.75571 89.988482,-182.63011 c -56.99518,-35.87438 -134.749043,-39.44646 -196.645922,-6.67845 -61.89693,32.76802 -105.39196,100.959457 -107.96249,173.639623 -2.57054,72.680153 36.26206,147.084317 100.25088,186.996487 C -50.380267,211.23972 36.521108,214.8118 105.4117,178.006 174.30235,141.20019 222.37114,65.086796 224.94166,-15.668937 227.5122,-96.424669 184.10585,-178.75083 113.12332,-222.7008 c -70.982504,-43.94995 -167.031396,-47.52204 -242.91558,-6.67845 -75.88424,40.84359 -128.52678,124.879 -131.09732,213.710313 -2.57054,88.831299 45.40957,179.079407 123.38571,227.067167 77.976101,47.98774 183.172491,51.55983 266.05042,6.67845 C 204.50976,176.93987 258.91474,96.254709 269.44358,8.4587984"
   id="path15950"
   sodipodi:nodetypes="cssssssssssssc" />

 </g>
    <circle
       r="0.66817379"
       cy="21.350065"
       cx="141.73524"
       id="circle15954"
       style="opacity:1;fill:#000000;stroke:#000000;stroke-width:0.264583;stroke-linejoin:round;stroke-miterlimit:4;stroke-dasharray:none" />
    <g
       id="g15978"
       ns2:jacobian_sqrt="0.423334"
       ns2:inkscapeversion="1.0"
       ns2:alignment="middle center"
       ns2:scale="1.1999998299215373"
       ns2:preamble="C:\\Users\\flvisa\\Desktop\\lna\\latexify_books\\textext_preamble.tex"
       ns2:text="C"
       ns2:pdfconverter="inkscape"
       ns2:texconverter="pdflatex"
       ns2:version="1.1.0"
       transform="matrix(0.43956044,0,0,0.43956044,137.47316,19.955022)">
      <defs
         id="defs15968">
        <g
           id="g15966">
          <symbol
             overflow="visible"
             id="symbol15960">
            <path
               style="stroke:none"
               d="M 0.5,0 H 4.484375 V -4.8125 H 0.5 Z M 1,-0.5 V -4.3125 H 3.984375 V -0.5 Z m 0,0"
               id="path15958" />
          </symbol>
          <symbol
             overflow="visible"
             id="symbol15964">
            <path
               style="stroke:none"
               d="m 3.765625,-6.484375 c -1.921875,0 -3.296875,1.53125 -3.296875,3.359375 0,1.71875 1.328125,3.1875 3.25,3.1875 0.890625,0 1.5625,-0.140625 2.09375,-0.4375 C 5.953125,-0.5 6.15625,-1.578125 6.15625,-1.78125 6.0625,-1.84375 5.9375,-1.875 5.84375,-1.859375 5.765625,-1.546875 5.625,-1.0625 5.25,-0.734375 c -0.28125,0.25 -0.6875,0.46875 -1.296875,0.46875 -1.6875,0 -2.515625,-1.5625 -2.515625,-3.078125 0,-1.359375 0.921875,-2.828125 2.375,-2.828125 1.625,0 1.84375,1.125 1.90625,1.421875 0.015625,0.015625 0.046875,0.03125 0.109375,0.03125 0.109375,0 0.21875,-0.0625 0.21875,-0.125 0,-0.09375 -0.21875,-1.453125 -0.21875,-1.453125 -0.71875,-0.15625 -1.4375,-0.1875 -2.0625,-0.1875 z m 0,0"
               id="path15962" />
          </symbol>
        </g>
      </defs>
      <g
         id="g15976"
         transform="translate(-149.181,-128.281)">
        <g
           style="fill:#000000;fill-opacity:1"
           id="g15974">
          <g
             id="g15972"
             transform="translate(148.712,134.765)">
            <path
               style="stroke:none"
               d="m 3.765625,-6.484375 c -1.921875,0 -3.296875,1.53125 -3.296875,3.359375 0,1.71875 1.328125,3.1875 3.25,3.1875 0.890625,0 1.5625,-0.140625 2.09375,-0.4375 C 5.953125,-0.5 6.15625,-1.578125 6.15625,-1.78125 6.0625,-1.84375 5.9375,-1.875 5.84375,-1.859375 5.765625,-1.546875 5.625,-1.0625 5.25,-0.734375 c -0.28125,0.25 -0.6875,0.46875 -1.296875,0.46875 -1.6875,0 -2.515625,-1.5625 -2.515625,-3.078125 0,-1.359375 0.921875,-2.828125 2.375,-2.828125 1.625,0 1.84375,1.125 1.90625,1.421875 0.015625,0.015625 0.046875,0.03125 0.109375,0.03125 0.109375,0 0.21875,-0.0625 0.21875,-0.125 0,-0.09375 -0.21875,-1.453125 -0.21875,-1.453125 -0.71875,-0.15625 -1.4375,-0.1875 -2.0625,-0.1875 z m 0,0"
               id="path15970" />
          </g>
        </g>
      </g>
    </g>
    <g
       transform="matrix(0.42333399,0,0,0.42333399,141.07644,5.5613493)"
       ns2:version="1.1.0"
       ns2:texconverter="pdflatex"
       ns2:pdfconverter="inkscape"
       ns2:text="$1$"
       ns2:preamble="C:\\Users\\flvisa\\Desktop\\lna\\latexify_books\\textext_preamble.tex"
       ns2:scale="1.199999773228722"
       ns2:alignment="middle center"
       ns2:inkscapeversion="1.0"
       ns2:jacobian_sqrt="0.423334"
       id="g16000">
      <defs
         id="defs15990">
        <g
           id="g15988">
          <symbol
             id="symbol15982"
             overflow="visible">
            <path
               id="path15980"
               d="M 0.5,0 H 4.484375 V -4.8125 H 0.5 Z M 1,-0.5 V -4.3125 H 3.984375 V -0.5 Z m 0,0"
               style="stroke:none" />
          </symbol>
          <symbol
             id="symbol15986"
             overflow="visible">
            <path
               id="path15984"
               d="m 2.171875,-1.125 c 0,0.28125 -0.015625,0.5625 -0.0625,0.71875 C 2.078125,-0.296875 1.609375,-0.25 1.5,-0.25 c -0.046875,0.046875 -0.046875,0.234375 0,0.28125 0.390625,-0.015625 0.65625,-0.046875 1.03125,-0.046875 0.375,0 0.6875,0.03125 1.09375,0.046875 0.046875,-0.046875 0.03125,-0.234375 0,-0.28125 C 3.5,-0.25 3.015625,-0.296875 2.984375,-0.40625 2.9375,-0.5625 2.9375,-0.84375 2.9375,-1.125 v -4.03125 c 0,-0.59375 0.078125,-0.9375 0.078125,-0.9375 0,-0.046875 -0.03125,-0.15625 -0.09375,-0.15625 H 2.90625 C 2.875,-6.25 2,-5.828125 1.203125,-5.46875 c -0.03125,0.015625 0,0.046875 0,0.0625 0,0.078125 0.03125,0.125 0.078125,0.171875 0.171875,-0.0625 0.546875,-0.203125 0.6875,-0.203125 0.140625,0 0.203125,0.09375 0.203125,0.375 z m 0,0"
               style="stroke:none" />
          </symbol>
        </g>
      </defs>
      <g
         transform="translate(-149.901,-128.515)"
         id="g15998">
        <g
           id="g15996"
           style="fill:#000000;fill-opacity:1">
          <g
             transform="translate(148.712,134.765)"
             id="g15994">
            <path
               id="path15992"
               d="m 2.171875,-1.125 c 0,0.28125 -0.015625,0.5625 -0.0625,0.71875 C 2.078125,-0.296875 1.609375,-0.25 1.5,-0.25 c -0.046875,0.046875 -0.046875,0.234375 0,0.28125 0.390625,-0.015625 0.65625,-0.046875 1.03125,-0.046875 0.375,0 0.6875,0.03125 1.09375,0.046875 0.046875,-0.046875 0.03125,-0.234375 0,-0.28125 C 3.5,-0.25 3.015625,-0.296875 2.984375,-0.40625 2.9375,-0.5625 2.9375,-0.84375 2.9375,-1.125 v -4.03125 c 0,-0.59375 0.078125,-0.9375 0.078125,-0.9375 0,-0.046875 -0.03125,-0.15625 -0.09375,-0.15625 H 2.90625 C 2.875,-6.25 2,-5.828125 1.203125,-5.46875 c -0.03125,0.015625 0,0.046875 0,0.0625 0,0.078125 0.03125,0.125 0.078125,0.171875 0.171875,-0.0625 0.546875,-0.203125 0.6875,-0.203125 0.140625,0 0.203125,0.09375 0.203125,0.375 z m 0,0"
               style="stroke:none" />
          </g>
        </g>
      </g>
    </g>
    <g
       id="g16022"
       style="fill:#000000;stroke-width:0"
       ns2:jacobian_sqrt="0.423334"
       ns2:inkscapeversion="1.0"
       ns2:alignment="middle center"
       ns2:scale="1.1999998866143555"
       ns2:preamble="C:\\Users\\flvisa\\Desktop\\lna\\latexify_books\\textext_preamble.tex"
       ns2:text="$0$"
       ns2:pdfconverter="inkscape"
       ns2:texconverter="pdflatex"
       ns2:version="1.1.0"
       transform="matrix(0.42333399,0,0,0.42333399,140.84726,36.032852)">
      <defs
         id="defs16012">
        <g
           style="fill:#3a493f;stroke-width:0"
           id="g16010">
          <symbol
             style="fill:#3a493f;stroke-width:0"
             overflow="visible"
             id="symbol16004">
            <path
               style="fill:#3a493f;stroke:none;stroke-width:0"
               d="M 0.5,0 H 4.484375 V -4.8125 H 0.5 Z M 1,-0.5 V -4.3125 H 3.984375 V -0.5 Z m 0,0"
               id="path16002" />
          </symbol>
          <symbol
             style="fill:#3a493f;stroke-width:0"
             overflow="visible"
             id="symbol16008">
            <path
               style="fill:#3a493f;stroke:none;stroke-width:0"
               d="m 2.484375,-5.875 c 0.71875,0 1.203125,1.1875 1.203125,2.71875 0,1.515625 -0.4375,2.828125 -1.3125,2.828125 -0.703125,0 -1.21875,-1.25 -1.21875,-2.78125 0,-1.53125 0.515625,-2.765625 1.328125,-2.765625 z m -0.0625,-0.359375 c -1.34375,0 -2.125,1.421875 -2.125,3.125 0,1.6875 0.796875,3.140625 2.125,3.140625 1.34375,0 2.125,-1.453125 2.125,-3.140625 0,-1.703125 -0.765625,-3.125 -2.125,-3.125 z m 0,0"
               id="path16006" />
          </symbol>
        </g>
      </defs>
      <g
         style="fill:#000000;stroke-width:0"
         id="g16020"
         transform="translate(-149.009,-128.531)">
        <g
           style="fill:#000000;fill-opacity:1;stroke-width:0"
           id="g16018">
          <g
             id="g16016"
             style="fill:#000000;stroke-width:0"
             transform="translate(148.712,134.765)">
            <path
               style="fill:#000000;stroke:none;stroke-width:0"
               d="m 2.484375,-5.875 c 0.71875,0 1.203125,1.1875 1.203125,2.71875 0,1.515625 -0.4375,2.828125 -1.3125,2.828125 -0.703125,0 -1.21875,-1.25 -1.21875,-2.78125 0,-1.53125 0.515625,-2.765625 1.328125,-2.765625 z m -0.0625,-0.359375 c -1.34375,0 -2.125,1.421875 -2.125,3.125 0,1.6875 0.796875,3.140625 2.125,3.140625 1.34375,0 2.125,-1.453125 2.125,-3.140625 0,-1.703125 -0.765625,-3.125 -2.125,-3.125 z m 0,0"
               id="path16014" />
          </g>
        </g>
      </g>
    </g>
    <path
       style="fill:none;stroke:#000000;stroke-width:0.264583px;stroke-linecap:butt;stroke-linejoin:miter;stroke-opacity:1;marker-end:url(#marker16028)"
       d="M 141.76827,34.158308 V 22.637549"
       id="path16024"
       sodipodi:nodetypes="cc" />
    <circle
       r="0.66817379"
       cy="9.5796356"
       cx="141.63573"
       id="circle16086"
       style="opacity:1;fill:#9e7867;stroke:#9e7867;stroke-width:0.264583;stroke-linejoin:round;stroke-miterlimit:4;stroke-dasharray:none" />
    <g
       id="g16096"
       style="stroke:#506a65;stroke-width:1.00741;stroke-miterlimit:4;stroke-dasharray:none;shape-rendering:geometricPrecision"
       transform="matrix(-0.00348674,0.04710729,0.04710729,0.00348674,168.75744,21.875932)">
  <path
   style="fill:none;stroke:#506a65;stroke-width:8.40193;stroke-linecap:round;stroke-linejoin:round;stroke-miterlimit:4;stroke-dasharray:none"
   d="m 112.70649,117.49321 c 38.39718,-32.20101 63.90135,-81.283861 65.96553,-133.162147 2.57054,-64.604586 -31.68831,-131.086773 -88.683538,-166.961173 -56.99518,-35.87438 -134.749043,-39.44646 -196.645922,-6.67845 -61.89693,32.76802 -105.39196,100.959457 -107.96249,173.639623 -2.57054,72.680153 36.26206,147.084317 100.25088,186.996487 C -50.380267,211.23972 36.521108,214.8118 105.4117,178.006 174.30235,141.20019 222.37114,65.086796 224.94166,-15.668937 227.5122,-96.424669 184.10585,-178.75083 113.12332,-222.7008 c -70.982504,-43.94995 -167.031396,-47.52204 -242.91558,-6.67845 -75.88424,40.84359 -128.52678,124.879 -131.09732,213.710313 -2.57054,88.831299 45.40957,179.079407 123.38571,227.067167 77.976101,47.98774 183.172491,51.55983 266.05042,6.67845 C 204.50976,176.93987 258.91474,96.254709 269.44358,8.4587984"
   id="path16094"
   sodipodi:nodetypes="cssssssssssssc" />

 </g>
    <circle
       r="0.66817379"
       cy="21.350065"
       cx="168.19322"
       id="circle16098"
       style="opacity:1;fill:#000000;stroke:#000000;stroke-width:0.264583;stroke-linejoin:round;stroke-miterlimit:4;stroke-dasharray:none" />
    <g
       id="g16122"
       ns2:jacobian_sqrt="0.423334"
       ns2:inkscapeversion="1.0"
       ns2:alignment="middle center"
       ns2:scale="1.1999998299215373"
       ns2:preamble="C:\\Users\\flvisa\\Desktop\\lna\\latexify_books\\textext_preamble.tex"
       ns2:text="C"
       ns2:pdfconverter="inkscape"
       ns2:texconverter="pdflatex"
       ns2:version="1.1.0"
       transform="matrix(0.43956044,0,0,0.43956044,163.93166,19.955022)">
      <defs
         id="defs16112">
        <g
           id="g16110">
          <symbol
             overflow="visible"
             id="symbol16104">
            <path
               style="stroke:none"
               d="M 0.5,0 H 4.484375 V -4.8125 H 0.5 Z M 1,-0.5 V -4.3125 H 3.984375 V -0.5 Z m 0,0"
               id="path16102" />
          </symbol>
          <symbol
             overflow="visible"
             id="symbol16108">
            <path
               style="stroke:none"
               d="m 3.765625,-6.484375 c -1.921875,0 -3.296875,1.53125 -3.296875,3.359375 0,1.71875 1.328125,3.1875 3.25,3.1875 0.890625,0 1.5625,-0.140625 2.09375,-0.4375 C 5.953125,-0.5 6.15625,-1.578125 6.15625,-1.78125 6.0625,-1.84375 5.9375,-1.875 5.84375,-1.859375 5.765625,-1.546875 5.625,-1.0625 5.25,-0.734375 c -0.28125,0.25 -0.6875,0.46875 -1.296875,0.46875 -1.6875,0 -2.515625,-1.5625 -2.515625,-3.078125 0,-1.359375 0.921875,-2.828125 2.375,-2.828125 1.625,0 1.84375,1.125 1.90625,1.421875 0.015625,0.015625 0.046875,0.03125 0.109375,0.03125 0.109375,0 0.21875,-0.0625 0.21875,-0.125 0,-0.09375 -0.21875,-1.453125 -0.21875,-1.453125 -0.71875,-0.15625 -1.4375,-0.1875 -2.0625,-0.1875 z m 0,0"
               id="path16106" />
          </symbol>
        </g>
      </defs>
      <g
         id="g16120"
         transform="translate(-149.181,-128.281)">
        <g
           style="fill:#000000;fill-opacity:1"
           id="g16118">
          <g
             id="g16116"
             transform="translate(148.712,134.765)">
            <path
               style="stroke:none"
               d="m 3.765625,-6.484375 c -1.921875,0 -3.296875,1.53125 -3.296875,3.359375 0,1.71875 1.328125,3.1875 3.25,3.1875 0.890625,0 1.5625,-0.140625 2.09375,-0.4375 C 5.953125,-0.5 6.15625,-1.578125 6.15625,-1.78125 6.0625,-1.84375 5.9375,-1.875 5.84375,-1.859375 5.765625,-1.546875 5.625,-1.0625 5.25,-0.734375 c -0.28125,0.25 -0.6875,0.46875 -1.296875,0.46875 -1.6875,0 -2.515625,-1.5625 -2.515625,-3.078125 0,-1.359375 0.921875,-2.828125 2.375,-2.828125 1.625,0 1.84375,1.125 1.90625,1.421875 0.015625,0.015625 0.046875,0.03125 0.109375,0.03125 0.109375,0 0.21875,-0.0625 0.21875,-0.125 0,-0.09375 -0.21875,-1.453125 -0.21875,-1.453125 -0.71875,-0.15625 -1.4375,-0.1875 -2.0625,-0.1875 z m 0,0"
               id="path16114" />
          </g>
        </g>
      </g>
    </g>
    <g
       transform="matrix(0.42333399,0,0,0.42333399,167.53494,5.5613493)"
       ns2:version="1.1.0"
       ns2:texconverter="pdflatex"
       ns2:pdfconverter="inkscape"
       ns2:text="$1$"
       ns2:preamble="C:\\Users\\flvisa\\Desktop\\lna\\latexify_books\\textext_preamble.tex"
       ns2:scale="1.199999773228722"
       ns2:alignment="middle center"
       ns2:inkscapeversion="1.0"
       ns2:jacobian_sqrt="0.423334"
       id="g16144">
      <defs
         id="defs16134">
        <g
           id="g16132">
          <symbol
             id="symbol16126"
             overflow="visible">
            <path
               id="path16124"
               d="M 0.5,0 H 4.484375 V -4.8125 H 0.5 Z M 1,-0.5 V -4.3125 H 3.984375 V -0.5 Z m 0,0"
               style="stroke:none" />
          </symbol>
          <symbol
             id="symbol16130"
             overflow="visible">
            <path
               id="path16128"
               d="m 2.171875,-1.125 c 0,0.28125 -0.015625,0.5625 -0.0625,0.71875 C 2.078125,-0.296875 1.609375,-0.25 1.5,-0.25 c -0.046875,0.046875 -0.046875,0.234375 0,0.28125 0.390625,-0.015625 0.65625,-0.046875 1.03125,-0.046875 0.375,0 0.6875,0.03125 1.09375,0.046875 0.046875,-0.046875 0.03125,-0.234375 0,-0.28125 C 3.5,-0.25 3.015625,-0.296875 2.984375,-0.40625 2.9375,-0.5625 2.9375,-0.84375 2.9375,-1.125 v -4.03125 c 0,-0.59375 0.078125,-0.9375 0.078125,-0.9375 0,-0.046875 -0.03125,-0.15625 -0.09375,-0.15625 H 2.90625 C 2.875,-6.25 2,-5.828125 1.203125,-5.46875 c -0.03125,0.015625 0,0.046875 0,0.0625 0,0.078125 0.03125,0.125 0.078125,0.171875 0.171875,-0.0625 0.546875,-0.203125 0.6875,-0.203125 0.140625,0 0.203125,0.09375 0.203125,0.375 z m 0,0"
               style="stroke:none" />
          </symbol>
        </g>
      </defs>
      <g
         transform="translate(-149.901,-128.515)"
         id="g16142">
        <g
           id="g16140"
           style="fill:#000000;fill-opacity:1">
          <g
             transform="translate(148.712,134.765)"
             id="g16138">
            <path
               id="path16136"
               d="m 2.171875,-1.125 c 0,0.28125 -0.015625,0.5625 -0.0625,0.71875 C 2.078125,-0.296875 1.609375,-0.25 1.5,-0.25 c -0.046875,0.046875 -0.046875,0.234375 0,0.28125 0.390625,-0.015625 0.65625,-0.046875 1.03125,-0.046875 0.375,0 0.6875,0.03125 1.09375,0.046875 0.046875,-0.046875 0.03125,-0.234375 0,-0.28125 C 3.5,-0.25 3.015625,-0.296875 2.984375,-0.40625 2.9375,-0.5625 2.9375,-0.84375 2.9375,-1.125 v -4.03125 c 0,-0.59375 0.078125,-0.9375 0.078125,-0.9375 0,-0.046875 -0.03125,-0.15625 -0.09375,-0.15625 H 2.90625 C 2.875,-6.25 2,-5.828125 1.203125,-5.46875 c -0.03125,0.015625 0,0.046875 0,0.0625 0,0.078125 0.03125,0.125 0.078125,0.171875 0.171875,-0.0625 0.546875,-0.203125 0.6875,-0.203125 0.140625,0 0.203125,0.09375 0.203125,0.375 z m 0,0"
               style="stroke:none" />
          </g>
        </g>
      </g>
    </g>
    <g
       id="g16166"
       style="fill:#000000;stroke-width:0"
       ns2:jacobian_sqrt="0.423334"
       ns2:inkscapeversion="1.0"
       ns2:alignment="middle center"
       ns2:scale="1.1999998866143555"
       ns2:preamble="C:\\Users\\flvisa\\Desktop\\lna\\latexify_books\\textext_preamble.tex"
       ns2:text="$0$"
       ns2:pdfconverter="inkscape"
       ns2:texconverter="pdflatex"
       ns2:version="1.1.0"
       transform="matrix(0.42333399,0,0,0.42333399,167.30576,36.032852)">
      <defs
         id="defs16156">
        <g
           style="fill:#3a493f;stroke-width:0"
           id="g16154">
          <symbol
             style="fill:#3a493f;stroke-width:0"
             overflow="visible"
             id="symbol16148">
            <path
               style="fill:#3a493f;stroke:none;stroke-width:0"
               d="M 0.5,0 H 4.484375 V -4.8125 H 0.5 Z M 1,-0.5 V -4.3125 H 3.984375 V -0.5 Z m 0,0"
               id="path16146" />
          </symbol>
          <symbol
             style="fill:#3a493f;stroke-width:0"
             overflow="visible"
             id="symbol16152">
            <path
               style="fill:#3a493f;stroke:none;stroke-width:0"
               d="m 2.484375,-5.875 c 0.71875,0 1.203125,1.1875 1.203125,2.71875 0,1.515625 -0.4375,2.828125 -1.3125,2.828125 -0.703125,0 -1.21875,-1.25 -1.21875,-2.78125 0,-1.53125 0.515625,-2.765625 1.328125,-2.765625 z m -0.0625,-0.359375 c -1.34375,0 -2.125,1.421875 -2.125,3.125 0,1.6875 0.796875,3.140625 2.125,3.140625 1.34375,0 2.125,-1.453125 2.125,-3.140625 0,-1.703125 -0.765625,-3.125 -2.125,-3.125 z m 0,0"
               id="path16150" />
          </symbol>
        </g>
      </defs>
      <g
         style="fill:#000000;stroke-width:0"
         id="g16164"
         transform="translate(-149.009,-128.531)">
        <g
           style="fill:#000000;fill-opacity:1;stroke-width:0"
           id="g16162">
          <g
             id="g16160"
             style="fill:#000000;stroke-width:0"
             transform="translate(148.712,134.765)">
            <path
               style="fill:#000000;stroke:none;stroke-width:0"
               d="m 2.484375,-5.875 c 0.71875,0 1.203125,1.1875 1.203125,2.71875 0,1.515625 -0.4375,2.828125 -1.3125,2.828125 -0.703125,0 -1.21875,-1.25 -1.21875,-2.78125 0,-1.53125 0.515625,-2.765625 1.328125,-2.765625 z m -0.0625,-0.359375 c -1.34375,0 -2.125,1.421875 -2.125,3.125 0,1.6875 0.796875,3.140625 2.125,3.140625 1.34375,0 2.125,-1.453125 2.125,-3.140625 0,-1.703125 -0.765625,-3.125 -2.125,-3.125 z m 0,0"
               id="path16158" />
          </g>
        </g>
      </g>
    </g>
    <path
       style="fill:none;stroke:#000000;stroke-width:0.264583px;stroke-linecap:butt;stroke-linejoin:miter;stroke-opacity:1;marker-end:url(#marker16174)"
       d="M 168.22677,34.158308 179.92722,21.502637"
       id="path16168"
       sodipodi:nodetypes="cc" />
    <circle
       r="0.66817379"
       cy="9.5796356"
       cx="168.0937"
       id="circle16170"
       style="opacity:1;fill:#9e7867;stroke:#9e7867;stroke-width:0.264583;stroke-linejoin:round;stroke-miterlimit:4;stroke-dasharray:none" />
    <g
       transform="matrix(0.42333399,0,0,0.42333399,181.23011,19.948031)"
       ns2:version="1.1.0"
       ns2:texconverter="pdflatex"
       ns2:pdfconverter="inkscape"
       ns2:text="B"
       ns2:preamble="C:\\Users\\flvisa\\Desktop\\lna\\latexify_books\\textext_preamble.tex"
       ns2:scale="1.199999858267946"
       ns2:alignment="middle center"
       ns2:inkscapeversion="1.0"
       ns2:jacobian_sqrt="0.423334"
       id="g5465">
      <defs
         id="id-55757423-e0ac-467d-94dd-53366f9b4d91">
        <g
           id="g16289">
          <symbol
             id="symbol16283"
             overflow="visible">
            <path
               id="path16281"
               d="M 0.5,0 H 4.484375 V -4.8125 H 0.5 Z M 1,-0.5 V -4.3125 H 3.984375 V -0.5 Z m 0,0"
               style="stroke:none" />
          </symbol>
          <symbol
             id="symbol16287"
             overflow="visible">
            <path
               id="path16285"
               d="m 2,-3.234375 h 0.609375 c 1.484375,0 1.796875,0.796875 1.796875,1.515625 0,1.1875 -0.8125,1.40625 -1.546875,1.40625 C 2.5,-0.3125 2.25,-0.328125 2.09375,-0.484375 2.03125,-0.5625 2,-1 2,-1.140625 Z M 2,-3.59375 v -1.6875 c 0,-0.28125 0,-0.609375 0.046875,-0.734375 0.046875,-0.078125 0.375,-0.078125 0.5,-0.078125 0.90625,0 1.484375,0.484375 1.484375,1.34375 0,0.5625 -0.328125,1.15625 -1.203125,1.15625 z m 0.96875,-2.828125 c -0.578125,0 -1,0.015625 -1.390625,0.015625 -0.375,0 -0.734375,-0.015625 -1.140625,-0.03125 -0.046875,0.046875 -0.03125,0.234375 0,0.28125 0.125,0 0.640625,0.03125 0.671875,0.140625 0.046875,0.15625 0.046875,0.4375 0.046875,0.734375 v 4.125 c 0,0.28125 0,0.5625 -0.046875,0.71875 C 1.078125,-0.328125 0.5625,-0.28125 0.4375,-0.28125 0.40625,-0.234375 0.390625,-0.046875 0.4375,0 h 2.25 C 3.421875,-0.015625 4.25,-0.140625 4.71875,-0.53125 5.203125,-0.921875 5.375,-1.375 5.375,-1.9375 c 0,-0.96875 -0.953125,-1.546875 -1.421875,-1.578125 -0.03125,-0.015625 -0.03125,-0.015625 0,-0.03125 0.328125,-0.125 0.96875,-0.671875 0.96875,-1.421875 0,-1.109375 -1.0625,-1.453125 -1.953125,-1.453125 z m 0,0"
               style="stroke:none" />
          </symbol>
        </g>
      </defs>
      <g
         transform="translate(-149.12,-128.327)"
         id="id-0e249727-ae7a-4c5c-912f-23666a41aff8">
        <g
           id="id-ce14de43-51b9-4bbe-be1a-16d826d2cdcf"
           style="fill:#000000;fill-opacity:1">
          <g
             transform="translate(148.712,134.765)"
             id="g5461">
            <path
               id="id-f62314d4-5018-4d4a-9777-36bef46963f9"
               d="m 2,-3.234375 h 0.609375 c 1.484375,0 1.796875,0.796875 1.796875,1.515625 0,1.1875 -0.8125,1.40625 -1.546875,1.40625 C 2.5,-0.3125 2.25,-0.328125 2.09375,-0.484375 2.03125,-0.5625 2,-1 2,-1.140625 Z M 2,-3.59375 v -1.6875 c 0,-0.28125 0,-0.609375 0.046875,-0.734375 0.046875,-0.078125 0.375,-0.078125 0.5,-0.078125 0.90625,0 1.484375,0.484375 1.484375,1.34375 0,0.5625 -0.328125,1.15625 -1.203125,1.15625 z m 0.96875,-2.828125 c -0.578125,0 -1,0.015625 -1.390625,0.015625 -0.375,0 -0.734375,-0.015625 -1.140625,-0.03125 -0.046875,0.046875 -0.03125,0.234375 0,0.28125 0.125,0 0.640625,0.03125 0.671875,0.140625 0.046875,0.15625 0.046875,0.4375 0.046875,0.734375 v 4.125 c 0,0.28125 0,0.5625 -0.046875,0.71875 C 1.078125,-0.328125 0.5625,-0.28125 0.4375,-0.28125 0.40625,-0.234375 0.390625,-0.046875 0.4375,0 h 2.25 C 3.421875,-0.015625 4.25,-0.140625 4.71875,-0.53125 5.203125,-0.921875 5.375,-1.375 5.375,-1.9375 c 0,-0.96875 -0.953125,-1.546875 -1.421875,-1.578125 -0.03125,-0.015625 -0.03125,-0.015625 0,-0.03125 0.328125,-0.125 0.96875,-0.671875 0.96875,-1.421875 0,-1.109375 -1.0625,-1.453125 -1.953125,-1.453125 z m 0,0"
               style="stroke:none" />
          </g>
        </g>
      </g>
    </g>
    <g
       id="g6439"
       style="fill:#000000;stroke-width:0"
       ns2:jacobian_sqrt="0.423334"
       ns2:inkscapeversion="1.0"
       ns2:alignment="middle center"
       ns2:scale="1.199999773228722"
       ns2:preamble="C:\\Users\\flvisa\\Desktop\\lna\\latexify_books\\textext_preamble.tex"
       ns2:text="(a)"
       ns2:pdfconverter="inkscape"
       ns2:texconverter="pdflatex"
       ns2:version="1.1.0"
       transform="matrix(0.42333399,0,0,0.42333399,86.970999,41.800612)">
      <defs
         id="id-bfc48e17-d46c-42ce-8412-2ed8706fcb1d">
        <g
           style="fill:#000000;stroke-width:0"
           id="g16537">
          <symbol
             style="fill:#000000;stroke-width:0"
             overflow="visible"
             id="symbol16523">
            <path
               style="fill:#000000;stroke:none;stroke-width:0"
               d="M 0.5,0 H 4.484375 V -4.8125 H 0.5 Z M 1,-0.5 V -4.3125 H 3.984375 V -0.5 Z m 0,0"
               id="path16521" />
          </symbol>
          <symbol
             style="fill:#000000;stroke-width:0"
             overflow="visible"
             id="symbol16527">
            <path
               style="fill:#000000;stroke:none;stroke-width:0"
               d="M 1.0625,-2.765625 C 1.0625,-4.3125 1.578125,-6 2.5,-6.8125 c 0,0 -0.125,-0.140625 -0.203125,-0.1875 -1.125,0.90625 -1.9375,2.328125 -1.9375,4.234375 0,1.875 0.8125,3.328125 1.9375,4.21875 C 2.375,1.421875 2.5,1.265625 2.5,1.265625 1.578125,0.453125 1.0625,-1.25 1.0625,-2.765625 Z m 0,0"
               id="path16525" />
          </symbol>
          <symbol
             style="fill:#000000;stroke-width:0"
             overflow="visible"
             id="symbol16531">
            <path
               style="fill:#000000;stroke:none;stroke-width:0"
               d="m 1.84375,-0.453125 c -0.375,0 -0.671875,-0.328125 -0.671875,-0.6875 0,-0.390625 0.25,-0.640625 0.609375,-0.78125 C 1.96875,-2 2.453125,-2.140625 2.71875,-2.21875 v 1.359375 c 0,0.109375 -0.53125,0.40625 -0.875,0.40625 z M 2.375,-4.34375 c -0.71875,0 -1.484375,0.53125 -1.78125,0.8125 -0.046875,0.046875 -0.078125,0.203125 -0.078125,0.234375 0,0.21875 0.125,0.421875 0.328125,0.421875 0.25,0 0.40625,-0.140625 0.46875,-0.46875 0.0625,-0.390625 0.1875,-0.640625 0.546875,-0.640625 0.484375,0 0.859375,0.515625 0.859375,0.96875 V -2.75 c 0,0.171875 -0.03125,0.21875 -0.125,0.25 -0.28125,0.140625 -1.171875,0.421875 -1.71875,0.625 -0.234375,0.078125 -0.5,0.40625 -0.5,0.8125 0,0.640625 0.5,1.140625 1.140625,1.140625 0.34375,0 1.109375,-0.53125 1.21875,-0.65625 C 2.796875,-0.28125 3.0625,0.0625 3.34375,0.0625 c 0.203125,0 0.609375,-0.265625 0.734375,-0.375 C 4.109375,-0.359375 4.125,-0.4375 4.125,-0.5 c 0,-0.03125 -0.015625,-0.078125 -0.03125,-0.078125 -0.03125,0.015625 -0.15625,0.125 -0.328125,0.125 -0.234375,0 -0.3125,-0.203125 -0.3125,-0.46875 V -2.96875 c 0,-0.765625 -0.515625,-1.375 -1.078125,-1.375 z m 0,0"
               id="path16529" />
          </symbol>
          <symbol
             style="fill:#000000;stroke-width:0"
             overflow="visible"
             id="symbol16535">
            <path
               style="fill:#000000;stroke:none;stroke-width:0"
               d="M 2.1875,-2.765625 C 2.1875,-4.671875 1.375,-6.09375 0.234375,-7 c -0.0625,0.046875 -0.1875,0.1875 -0.171875,0.1875 0.921875,0.8125 1.40625,2.5 1.40625,4.046875 0,1.515625 -0.484375,3.21875 -1.40625,4.03125 -0.015625,0 0.109375,0.15625 0.171875,0.1875 C 1.375,0.5625 2.1875,-0.890625 2.1875,-2.765625 Z m 0,0"
               id="path16533" />
          </symbol>
        </g>
      </defs>
      <g
         style="fill:#000000;stroke-width:0"
         id="id-412cdaa6-c35c-428f-88e3-afe4b0676dd6"
         transform="translate(-149.071,-127.765)">
        <g
           style="fill:#000000;fill-opacity:1;stroke-width:0"
           id="id-807f0546-f8a6-4195-944c-97dad4429a1b">
          <g
             id="g6427"
             style="fill:#000000;stroke-width:0"
             transform="translate(148.712,134.765)">
            <path
               style="fill:#000000;stroke:none;stroke-width:0"
               d="M 1.0625,-2.765625 C 1.0625,-4.3125 1.578125,-6 2.5,-6.8125 c 0,0 -0.125,-0.140625 -0.203125,-0.1875 -1.125,0.90625 -1.9375,2.328125 -1.9375,4.234375 0,1.875 0.8125,3.328125 1.9375,4.21875 C 2.375,1.421875 2.5,1.265625 2.5,1.265625 1.578125,0.453125 1.0625,-1.25 1.0625,-2.765625 Z m 0,0"
               id="id-075e525f-edc0-4aaf-9d9d-5e922c3b3664" />
          </g>
        </g>
        <g
           style="fill:#000000;fill-opacity:1;stroke-width:0"
           id="id-f15d244d-a9c9-4b5f-8302-9f1984458999">
          <g
             id="g6431"
             style="fill:#000000;stroke-width:0"
             transform="translate(151.013,134.765)">
            <path
               style="fill:#000000;stroke:none;stroke-width:0"
               d="m 1.84375,-0.453125 c -0.375,0 -0.671875,-0.328125 -0.671875,-0.6875 0,-0.390625 0.25,-0.640625 0.609375,-0.78125 C 1.96875,-2 2.453125,-2.140625 2.71875,-2.21875 v 1.359375 c 0,0.109375 -0.53125,0.40625 -0.875,0.40625 z M 2.375,-4.34375 c -0.71875,0 -1.484375,0.53125 -1.78125,0.8125 -0.046875,0.046875 -0.078125,0.203125 -0.078125,0.234375 0,0.21875 0.125,0.421875 0.328125,0.421875 0.25,0 0.40625,-0.140625 0.46875,-0.46875 0.0625,-0.390625 0.1875,-0.640625 0.546875,-0.640625 0.484375,0 0.859375,0.515625 0.859375,0.96875 V -2.75 c 0,0.171875 -0.03125,0.21875 -0.125,0.25 -0.28125,0.140625 -1.171875,0.421875 -1.71875,0.625 -0.234375,0.078125 -0.5,0.40625 -0.5,0.8125 0,0.640625 0.5,1.140625 1.140625,1.140625 0.34375,0 1.109375,-0.53125 1.21875,-0.65625 C 2.796875,-0.28125 3.0625,0.0625 3.34375,0.0625 c 0.203125,0 0.609375,-0.265625 0.734375,-0.375 C 4.109375,-0.359375 4.125,-0.4375 4.125,-0.5 c 0,-0.03125 -0.015625,-0.078125 -0.03125,-0.078125 -0.03125,0.015625 -0.15625,0.125 -0.328125,0.125 -0.234375,0 -0.3125,-0.203125 -0.3125,-0.46875 V -2.96875 c 0,-0.765625 -0.515625,-1.375 -1.078125,-1.375 z m 0,0"
               id="id-21f545d2-8f9a-4a0f-8d04-06c6cc127786" />
          </g>
        </g>
        <g
           style="fill:#000000;fill-opacity:1;stroke-width:0"
           id="id-6c9c1a3d-30d4-4470-8fbe-a6830b19de24">
          <g
             id="g6435"
             style="fill:#000000;stroke-width:0"
             transform="translate(155.108,134.765)">
            <path
               style="fill:#000000;stroke:none;stroke-width:0"
               d="M 2.1875,-2.765625 C 2.1875,-4.671875 1.375,-6.09375 0.234375,-7 c -0.0625,0.046875 -0.1875,0.1875 -0.171875,0.1875 0.921875,0.8125 1.40625,2.5 1.40625,4.046875 0,1.515625 -0.484375,3.21875 -1.40625,4.03125 -0.015625,0 0.109375,0.15625 0.171875,0.1875 C 1.375,0.5625 2.1875,-0.890625 2.1875,-2.765625 Z m 0,0"
               id="id-1a2c5bf8-b996-4587-8d65-19b19ebd0515" />
          </g>
        </g>
      </g>
    </g>
    <g
       id="g7059"
       style="fill:#000000;stroke-width:0"
       ns2:jacobian_sqrt="0.423334"
       ns2:inkscapeversion="1.0"
       ns2:alignment="middle center"
       ns2:scale="1.1999997448823154"
       ns2:preamble="C:\\Users\\flvisa\\Desktop\\lna\\latexify_books\\textext_preamble.tex"
       ns2:text="(b)"
       ns2:pdfconverter="inkscape"
       ns2:texconverter="pdflatex"
       ns2:version="1.1.0"
       transform="matrix(0.42333399,0,0,0.42333399,113.37698,41.80017)">
      <defs
         id="id-3fb34fbc-c86b-4450-9731-65ba8a734e8b">
        <g
           style="fill:#000000;stroke-width:0"
           id="g16567">
          <symbol
             style="fill:#000000;stroke-width:0"
             overflow="visible"
             id="symbol16553">
            <path
               style="fill:#000000;stroke:none;stroke-width:0"
               d="M 0.5,0 H 4.484375 V -4.8125 H 0.5 Z M 1,-0.5 V -4.3125 H 3.984375 V -0.5 Z m 0,0"
               id="path16551" />
          </symbol>
          <symbol
             style="fill:#000000;stroke-width:0"
             overflow="visible"
             id="symbol16557">
            <path
               style="fill:#000000;stroke:none;stroke-width:0"
               d="M 1.0625,-2.765625 C 1.0625,-4.3125 1.578125,-6 2.5,-6.8125 c 0,0 -0.125,-0.140625 -0.203125,-0.1875 -1.125,0.90625 -1.9375,2.328125 -1.9375,4.234375 0,1.875 0.8125,3.328125 1.9375,4.21875 C 2.375,1.421875 2.5,1.265625 2.5,1.265625 1.578125,0.453125 1.0625,-1.25 1.0625,-2.765625 Z m 0,0"
               id="path16555" />
          </symbol>
          <symbol
             style="fill:#000000;stroke-width:0"
             overflow="visible"
             id="symbol16561">
            <path
               style="fill:#000000;stroke:none;stroke-width:0"
               d="m 2.09375,0.0625 c 1.40625,0 2.4375,-1.0625 2.4375,-2.328125 0,-0.890625 -0.625,-2 -1.8125,-2 -0.375,0 -1.046875,0.421875 -1.203125,0.53125 C 1.453125,-3.6875 1.46875,-3.78125 1.46875,-3.84375 V -5.75 c 0,-0.546875 0.09375,-0.84375 0.09375,-0.84375 0,-0.078125 -0.046875,-0.171875 -0.09375,-0.171875 C 1.046875,-6.5625 0.5625,-6.421875 0.0625,-6.375 c -0.046875,0.015625 -0.015625,0.265625 -0.015625,0.265625 0.28125,0 0.546875,0.03125 0.609375,0.171875 0.046875,0.109375 0.046875,0.375 0.046875,0.5 v 4.375 c 0,0.1875 -0.015625,0.515625 -0.109375,0.71875 0,0.046875 0.078125,0.203125 0.125,0.203125 0.21875,-0.078125 0.421875,0 0.640625,0.0625 C 1.578125,-0.015625 1.9375,0.0625 2.09375,0.0625 Z M 2.25,-3.6875 c 0.890625,0 1.453125,0.671875 1.453125,1.796875 0,0.796875 -0.609375,1.625 -1.328125,1.625 -0.4375,0 -0.90625,-0.265625 -0.90625,-0.6875 V -3.3125 c 0,-0.0625 0,-0.09375 0.03125,-0.109375 C 1.59375,-3.515625 2,-3.6875 2.25,-3.6875 Z m 0,0"
               id="path16559" />
          </symbol>
          <symbol
             style="fill:#000000;stroke-width:0"
             overflow="visible"
             id="symbol16565">
            <path
               style="fill:#000000;stroke:none;stroke-width:0"
               d="M 2.1875,-2.765625 C 2.1875,-4.671875 1.375,-6.09375 0.234375,-7 c -0.0625,0.046875 -0.1875,0.1875 -0.171875,0.1875 0.921875,0.8125 1.40625,2.5 1.40625,4.046875 0,1.515625 -0.484375,3.21875 -1.40625,4.03125 -0.015625,0 0.109375,0.15625 0.171875,0.1875 C 1.375,0.5625 2.1875,-0.890625 2.1875,-2.765625 Z m 0,0"
               id="path16563" />
          </symbol>
        </g>
      </defs>
      <g
         style="fill:#000000;stroke-width:0"
         id="id-18ff5d7c-4f88-4ce5-8586-4362d264fb7f"
         transform="translate(-149.071,-127.765)">
        <g
           style="fill:#000000;fill-opacity:1;stroke-width:0"
           id="id-cd9c4bd4-af9c-4951-8c1c-5a396856dbfe">
          <g
             id="g7048"
             style="fill:#000000;stroke-width:0"
             transform="translate(148.712,134.765)">
            <path
               style="fill:#000000;stroke:none;stroke-width:0"
               d="M 1.0625,-2.765625 C 1.0625,-4.3125 1.578125,-6 2.5,-6.8125 c 0,0 -0.125,-0.140625 -0.203125,-0.1875 -1.125,0.90625 -1.9375,2.328125 -1.9375,4.234375 0,1.875 0.8125,3.328125 1.9375,4.21875 C 2.375,1.421875 2.5,1.265625 2.5,1.265625 1.578125,0.453125 1.0625,-1.25 1.0625,-2.765625 Z m 0,0"
               id="id-3ae1ebc5-b1f1-48fd-9c87-de5a36943d13" />
          </g>
          <g
             id="g7051"
             style="fill:#000000;stroke-width:0"
             transform="translate(151.252,134.765)">
            <path
               style="fill:#000000;stroke:none;stroke-width:0"
               d="m 2.09375,0.0625 c 1.40625,0 2.4375,-1.0625 2.4375,-2.328125 0,-0.890625 -0.625,-2 -1.8125,-2 -0.375,0 -1.046875,0.421875 -1.203125,0.53125 C 1.453125,-3.6875 1.46875,-3.78125 1.46875,-3.84375 V -5.75 c 0,-0.546875 0.09375,-0.84375 0.09375,-0.84375 0,-0.078125 -0.046875,-0.171875 -0.09375,-0.171875 C 1.046875,-6.5625 0.5625,-6.421875 0.0625,-6.375 c -0.046875,0.015625 -0.015625,0.265625 -0.015625,0.265625 0.28125,0 0.546875,0.03125 0.609375,0.171875 0.046875,0.109375 0.046875,0.375 0.046875,0.5 v 4.375 c 0,0.1875 -0.015625,0.515625 -0.109375,0.71875 0,0.046875 0.078125,0.203125 0.125,0.203125 0.21875,-0.078125 0.421875,0 0.640625,0.0625 C 1.578125,-0.015625 1.9375,0.0625 2.09375,0.0625 Z M 2.25,-3.6875 c 0.890625,0 1.453125,0.671875 1.453125,1.796875 0,0.796875 -0.609375,1.625 -1.328125,1.625 -0.4375,0 -0.90625,-0.265625 -0.90625,-0.6875 V -3.3125 c 0,-0.0625 0,-0.09375 0.03125,-0.109375 C 1.59375,-3.515625 2,-3.6875 2.25,-3.6875 Z m 0,0"
               id="id-c1de3dc2-d773-4199-99cf-f9016a55a396" />
          </g>
        </g>
        <g
           style="fill:#000000;fill-opacity:1;stroke-width:0"
           id="id-dfec57ec-917e-464b-8d1a-829e4630c9d1">
          <g
             id="g7055"
             style="fill:#000000;stroke-width:0"
             transform="translate(155.865,134.765)">
            <path
               style="fill:#000000;stroke:none;stroke-width:0"
               d="M 2.1875,-2.765625 C 2.1875,-4.671875 1.375,-6.09375 0.234375,-7 c -0.0625,0.046875 -0.1875,0.1875 -0.171875,0.1875 0.921875,0.8125 1.40625,2.5 1.40625,4.046875 0,1.515625 -0.484375,3.21875 -1.40625,4.03125 -0.015625,0 0.109375,0.15625 0.171875,0.1875 C 1.375,0.5625 2.1875,-0.890625 2.1875,-2.765625 Z m 0,0"
               id="id-710f1c23-24ca-4d68-a8b1-802b45b876d4" />
          </g>
        </g>
      </g>
    </g>
    <g
       transform="matrix(0.42333399,0,0,0.42333399,139.98559,41.80017)"
       ns2:version="1.1.0"
       ns2:texconverter="pdflatex"
       ns2:pdfconverter="inkscape"
       ns2:text="(c)\n"
       ns2:preamble="C:\\Users\\flvisa\\Desktop\\lna\\latexify_books\\textext_preamble.tex"
       ns2:scale="1.1999997165359095"
       ns2:alignment="middle center"
       ns2:inkscapeversion="1.0.1"
       ns2:jacobian_sqrt="0.423334"
       style="fill:#000000;stroke-width:0"
       id="g11273">
      <defs
         id="id-77239f58-0bb6-4327-8ff8-22bc0f76ec1b">
        <g
           id="g16596"
           style="fill:#000000;stroke-width:0">
          <symbol
             overflow="visible"
             id="symbol16582"
             style="fill:#000000;stroke-width:0">
            <path
               style="fill:#000000;stroke:none;stroke-width:0"
               d="M 0.5,0 H 4.484375 V -4.8125 H 0.5 Z M 1,-0.5 V -4.3125 H 3.984375 V -0.5 Z m 0,0"
               id="path16580" />
          </symbol>
          <symbol
             overflow="visible"
             id="symbol16586"
             style="fill:#000000;stroke-width:0">
            <path
               style="fill:#000000;stroke:none;stroke-width:0"
               d="M 1.0625,-2.765625 C 1.0625,-4.3125 1.578125,-6 2.5,-6.8125 c 0,0 -0.125,-0.140625 -0.203125,-0.1875 -1.125,0.90625 -1.9375,2.328125 -1.9375,4.234375 0,1.875 0.8125,3.328125 1.9375,4.21875 C 2.375,1.421875 2.5,1.265625 2.5,1.265625 1.578125,0.453125 1.0625,-1.25 1.0625,-2.765625 Z m 0,0"
               id="path16584" />
          </symbol>
          <symbol
             overflow="visible"
             id="symbol16590"
             style="fill:#000000;stroke-width:0">
            <path
               style="fill:#000000;stroke:none;stroke-width:0"
               d="m 3.78125,-3.84375 c 0,-0.109375 -0.046875,-0.25 -0.09375,-0.28125 -0.234375,-0.15625 -0.546875,-0.234375 -0.890625,-0.234375 -1.046875,0 -2.40625,0.96875 -2.40625,2.421875 0,1.046875 0.796875,2.015625 2,2.015625 0.765625,0 1.265625,-0.5625 1.453125,-0.828125 0.03125,-0.0625 0.046875,-0.140625 0.046875,-0.1875 0,-0.078125 -0.0625,-0.125 -0.078125,-0.125 -0.125,0.140625 -0.5,0.5 -1.046875,0.5 -0.90625,0 -1.625,-0.53125 -1.625,-1.703125 0,-1.046875 0.59375,-1.671875 1.125,-1.671875 0.25,0 0.34375,0.046875 0.5625,0.203125 C 3,-3.625 3.203125,-3.375 3.40625,-3.375 c 0.1875,0 0.375,-0.125 0.375,-0.46875 z m 0,0"
               id="path16588" />
          </symbol>
          <symbol
             overflow="visible"
             id="symbol16594"
             style="fill:#000000;stroke-width:0">
            <path
               style="fill:#000000;stroke:none;stroke-width:0"
               d="M 2.1875,-2.765625 C 2.1875,-4.671875 1.375,-6.09375 0.234375,-7 c -0.0625,0.046875 -0.1875,0.1875 -0.171875,0.1875 0.921875,0.8125 1.40625,2.5 1.40625,4.046875 0,1.515625 -0.484375,3.21875 -1.40625,4.03125 -0.015625,0 0.109375,0.15625 0.171875,0.1875 C 1.375,0.5625 2.1875,-0.890625 2.1875,-2.765625 Z m 0,0"
               id="path16592" />
          </symbol>
        </g>
      </defs>
      <g
         id="id-be4819e2-23f0-412e-94bd-043747f0ec21"
         transform="translate(-149.071,-127.765)"
         style="fill:#000000;stroke-width:0">
        <g
           style="fill:#000000;fill-opacity:1;stroke-width:0"
           id="id-65a2a5ac-6dcd-4d97-9d27-8cfcfaca8590">
          <g
             transform="translate(148.712,134.765)"
             style="fill:#000000;stroke-width:0"
             id="g11261">
            <path
               style="fill:#000000;stroke:none;stroke-width:0"
               d="M 1.0625,-2.765625 C 1.0625,-4.3125 1.578125,-6 2.5,-6.8125 c 0,0 -0.125,-0.140625 -0.203125,-0.1875 -1.125,0.90625 -1.9375,2.328125 -1.9375,4.234375 0,1.875 0.8125,3.328125 1.9375,4.21875 C 2.375,1.421875 2.5,1.265625 2.5,1.265625 1.578125,0.453125 1.0625,-1.25 1.0625,-2.765625 Z m 0,0"
               id="id-6d434598-8256-4ab4-9b2c-107b2ac408f8" />
          </g>
        </g>
        <g
           style="fill:#000000;fill-opacity:1;stroke-width:0"
           id="id-13be7f9a-1361-4197-ac6f-ae9bcfa8fbd9">
          <g
             transform="translate(150.954,134.765)"
             style="fill:#000000;stroke-width:0"
             id="g11265">
            <path
               style="fill:#000000;stroke:none;stroke-width:0"
               d="m 3.78125,-3.84375 c 0,-0.109375 -0.046875,-0.25 -0.09375,-0.28125 -0.234375,-0.15625 -0.546875,-0.234375 -0.890625,-0.234375 -1.046875,0 -2.40625,0.96875 -2.40625,2.421875 0,1.046875 0.796875,2.015625 2,2.015625 0.765625,0 1.265625,-0.5625 1.453125,-0.828125 0.03125,-0.0625 0.046875,-0.140625 0.046875,-0.1875 0,-0.078125 -0.0625,-0.125 -0.078125,-0.125 -0.125,0.140625 -0.5,0.5 -1.046875,0.5 -0.90625,0 -1.625,-0.53125 -1.625,-1.703125 0,-1.046875 0.59375,-1.671875 1.125,-1.671875 0.25,0 0.34375,0.046875 0.5625,0.203125 C 3,-3.625 3.203125,-3.375 3.40625,-3.375 c 0.1875,0 0.375,-0.125 0.375,-0.46875 z m 0,0"
               id="id-2937b4a0-84c6-4c7b-a64b-b63e82b76dda" />
          </g>
        </g>
        <g
           style="fill:#000000;fill-opacity:1;stroke-width:0"
           id="id-ff3bf317-be39-48d2-87db-2cb986e3c1cd">
          <g
             transform="translate(154.949,134.765)"
             style="fill:#000000;stroke-width:0"
             id="g11269">
            <path
               style="fill:#000000;stroke:none;stroke-width:0"
               d="M 2.1875,-2.765625 C 2.1875,-4.671875 1.375,-6.09375 0.234375,-7 c -0.0625,0.046875 -0.1875,0.1875 -0.171875,0.1875 0.921875,0.8125 1.40625,2.5 1.40625,4.046875 0,1.515625 -0.484375,3.21875 -1.40625,4.03125 -0.015625,0 0.109375,0.15625 0.171875,0.1875 C 1.375,0.5625 2.1875,-0.890625 2.1875,-2.765625 Z m 0,0"
               id="id-d410a312-622f-48d6-b168-b96098d2e178" />
          </g>
        </g>
      </g>
    </g>
    <g
       transform="matrix(0.42333399,0,0,0.42333399,166.34406,41.80017)"
       ns2:version="1.1.0"
       ns2:texconverter="pdflatex"
       ns2:pdfconverter="inkscape"
       ns2:text="(d)\n\n"
       ns2:preamble="C:\\Users\\flvisa\\Desktop\\lna\\latexify_books\\textext_preamble.tex"
       ns2:scale="1.1999996881895043"
       ns2:alignment="middle center"
       ns2:inkscapeversion="1.0.1"
       ns2:jacobian_sqrt="0.423334"
       style="fill:#000000;stroke-width:0"
       id="g79239">
      <defs
         id="id-fd80bf32-2c9c-49f1-8a58-1d93e7d1a38f">
        <g
           id="g16626"
           style="fill:#000000;stroke-width:0">
          <symbol
             overflow="visible"
             id="symbol16612"
             style="fill:#000000;stroke-width:0">
            <path
               style="fill:#000000;stroke:none;stroke-width:0"
               d="M 0.5,0 H 4.484375 V -4.8125 H 0.5 Z M 1,-0.5 V -4.3125 H 3.984375 V -0.5 Z m 0,0"
               id="path16610" />
          </symbol>
          <symbol
             overflow="visible"
             id="symbol16616"
             style="fill:#000000;stroke-width:0">
            <path
               style="fill:#000000;stroke:none;stroke-width:0"
               d="M 1.0625,-2.765625 C 1.0625,-4.3125 1.578125,-6 2.5,-6.8125 c 0,0 -0.125,-0.140625 -0.203125,-0.1875 -1.125,0.90625 -1.9375,2.328125 -1.9375,4.234375 0,1.875 0.8125,3.328125 1.9375,4.21875 C 2.375,1.421875 2.5,1.265625 2.5,1.265625 1.578125,0.453125 1.0625,-1.25 1.0625,-2.765625 Z m 0,0"
               id="path16614" />
          </symbol>
          <symbol
             overflow="visible"
             id="symbol16620"
             style="fill:#000000;stroke-width:0">
            <path
               style="fill:#000000;stroke:none;stroke-width:0"
               d="m 2.75,-4.359375 c -0.890625,0 -2.359375,1 -2.359375,2.3125 0,1.203125 0.828125,2.125 1.75,2.125 0.46875,0 1.15625,-0.421875 1.3125,-0.59375 0.015625,-0.015625 0.03125,0.015625 0.03125,0.0625 v 0.34375 c 0,0.0625 0.015625,0.1875 0.078125,0.1875 0,0 0.765625,-0.25 1.28125,-0.28125 0.046875,0 0.078125,-0.109375 0.078125,-0.140625 0,-0.03125 -0.015625,-0.109375 -0.03125,-0.109375 -0.03125,-0.015625 -0.5,0 -0.59375,-0.171875 -0.0625,-0.140625 -0.0625,-0.578125 -0.0625,-0.953125 v -4.1875 c 0,-0.53125 0.109375,-0.84375 0.109375,-0.84375 0,-0.0625 -0.0625,-0.15625 -0.109375,-0.15625 -0.421875,0.1875 -0.921875,0.328125 -1.40625,0.375 -0.03125,0.015625 -0.015625,0.265625 0,0.265625 0.265625,0 0.546875,0.03125 0.59375,0.15625 0.0625,0.109375 0.0625,0.359375 0.0625,0.484375 v 1.03125 c 0,0.109375 -0.015625,0.1875 -0.0625,0.1875 C 3.328125,-4.3125 2.953125,-4.359375 2.75,-4.359375 Z m -0.328125,0.40625 c 0.5625,0 1.0625,0.265625 1.0625,0.484375 v 2.546875 c 0,0.15625 -0.421875,0.390625 -0.875,0.390625 -0.90625,0 -1.40625,-0.8125 -1.40625,-1.765625 0,-0.84375 0.46875,-1.65625 1.21875,-1.65625 z m 0,0"
               id="path16618" />
          </symbol>
          <symbol
             overflow="visible"
             id="symbol16624"
             style="fill:#000000;stroke-width:0">
            <path
               style="fill:#000000;stroke:none;stroke-width:0"
               d="M 2.1875,-2.765625 C 2.1875,-4.671875 1.375,-6.09375 0.234375,-7 c -0.0625,0.046875 -0.1875,0.1875 -0.171875,0.1875 0.921875,0.8125 1.40625,2.5 1.40625,4.046875 0,1.515625 -0.484375,3.21875 -1.40625,4.03125 -0.015625,0 0.109375,0.15625 0.171875,0.1875 C 1.375,0.5625 2.1875,-0.890625 2.1875,-2.765625 Z m 0,0"
               id="path16622" />
          </symbol>
        </g>
      </defs>
      <g
         id="id-be868e23-194e-471b-8d2f-e25f67ae32b5"
         transform="translate(-149.071,-127.765)"
         style="fill:#000000;stroke-width:0">
        <g
           style="fill:#000000;fill-opacity:1;stroke-width:0"
           id="id-578b3075-7769-4bcc-8203-ab6a48643e21">
          <g
             transform="translate(148.712,134.765)"
             style="fill:#000000;stroke-width:0"
             id="g79228">
            <path
               style="fill:#000000;stroke:none;stroke-width:0"
               d="M 1.0625,-2.765625 C 1.0625,-4.3125 1.578125,-6 2.5,-6.8125 c 0,0 -0.125,-0.140625 -0.203125,-0.1875 -1.125,0.90625 -1.9375,2.328125 -1.9375,4.234375 0,1.875 0.8125,3.328125 1.9375,4.21875 C 2.375,1.421875 2.5,1.265625 2.5,1.265625 1.578125,0.453125 1.0625,-1.25 1.0625,-2.765625 Z m 0,0"
               id="id-4e91f074-d8c1-4aaf-aac3-c25e57f7ce70" />
          </g>
        </g>
        <g
           style="fill:#000000;fill-opacity:1;stroke-width:0"
           id="id-d444e71e-123d-4ca5-af7a-1b99316bfc0d">
          <g
             transform="translate(150.974,134.765)"
             style="fill:#000000;stroke-width:0"
             id="g79232">
            <path
               style="fill:#000000;stroke:none;stroke-width:0"
               d="m 2.75,-4.359375 c -0.890625,0 -2.359375,1 -2.359375,2.3125 0,1.203125 0.828125,2.125 1.75,2.125 0.46875,0 1.15625,-0.421875 1.3125,-0.59375 0.015625,-0.015625 0.03125,0.015625 0.03125,0.0625 v 0.34375 c 0,0.0625 0.015625,0.1875 0.078125,0.1875 0,0 0.765625,-0.25 1.28125,-0.28125 0.046875,0 0.078125,-0.109375 0.078125,-0.140625 0,-0.03125 -0.015625,-0.109375 -0.03125,-0.109375 -0.03125,-0.015625 -0.5,0 -0.59375,-0.171875 -0.0625,-0.140625 -0.0625,-0.578125 -0.0625,-0.953125 v -4.1875 c 0,-0.53125 0.109375,-0.84375 0.109375,-0.84375 0,-0.0625 -0.0625,-0.15625 -0.109375,-0.15625 -0.421875,0.1875 -0.921875,0.328125 -1.40625,0.375 -0.03125,0.015625 -0.015625,0.265625 0,0.265625 0.265625,0 0.546875,0.03125 0.59375,0.15625 0.0625,0.109375 0.0625,0.359375 0.0625,0.484375 v 1.03125 c 0,0.109375 -0.015625,0.1875 -0.0625,0.1875 C 3.328125,-4.3125 2.953125,-4.359375 2.75,-4.359375 Z m -0.328125,0.40625 c 0.5625,0 1.0625,0.265625 1.0625,0.484375 v 2.546875 c 0,0.15625 -0.421875,0.390625 -0.875,0.390625 -0.90625,0 -1.40625,-0.8125 -1.40625,-1.765625 0,-0.84375 0.46875,-1.65625 1.21875,-1.65625 z m 0,0"
               id="id-5eaad49e-71cd-42e8-afb5-3f3849cb702b" />
          </g>
          <g
             transform="translate(156.035,134.765)"
             style="fill:#000000;stroke-width:0"
             id="g79235">
            <path
               style="fill:#000000;stroke:none;stroke-width:0"
               d="M 2.1875,-2.765625 C 2.1875,-4.671875 1.375,-6.09375 0.234375,-7 c -0.0625,0.046875 -0.1875,0.1875 -0.171875,0.1875 0.921875,0.8125 1.40625,2.5 1.40625,4.046875 0,1.515625 -0.484375,3.21875 -1.40625,4.03125 -0.015625,0 0.109375,0.15625 0.171875,0.1875 C 1.375,0.5625 2.1875,-0.890625 2.1875,-2.765625 Z m 0,0"
               id="id-bd7c0e91-41a0-4485-9055-0987b480bdbc" />
          </g>
        </g>
      </g>
    </g>
    <circle
       r="0.66817379"
       cy="34.591721"
       cx="88.808739"
       id="circle15391"
       style="opacity:1;fill:#9e7867;stroke:#9e7867;stroke-width:0.264583;stroke-linejoin:round;stroke-miterlimit:4;stroke-dasharray:none" />
    <circle
       r="0.66817379"
       cy="34.591721"
       cx="141.72523"
       id="circle15956"
       style="opacity:1;fill:#9e7867;stroke:#9e7867;stroke-width:0.264583;stroke-linejoin:round;stroke-miterlimit:4;stroke-dasharray:none" />
    <circle
       r="0.66817379"
       cy="34.591721"
       cx="168.18321"
       id="circle16100"
       style="opacity:1;fill:#9e7867;stroke:#9e7867;stroke-width:0.264583;stroke-linejoin:round;stroke-miterlimit:4;stroke-dasharray:none" />
  </g>
</svg>
