<?xml version="1.0" encoding="UTF-8" standalone="no"?>
<svg
   xmlns:ns2="http://www.iki.fi/pav/software/textext/"
   xmlns:dc="http://purl.org/dc/elements/1.1/"
   xmlns:cc="http://creativecommons.org/ns#"
   xmlns:rdf="http://www.w3.org/1999/02/22-rdf-syntax-ns#"
   xmlns:svg="http://www.w3.org/2000/svg"
   xmlns="http://www.w3.org/2000/svg"
   xmlns:sodipodi="http://sodipodi.sourceforge.net/DTD/sodipodi-0.dtd"
   xmlns:inkscape="http://www.inkscape.org/namespaces/inkscape"
   width="86.045273mm"
   height="29.006439mm"
   viewBox="0 0 86.045273 29.006439"
   version="1.1"
   id="svg12842"
   inkscape:version="1.0.1 (3bc2e813f5, 2020-09-07)"
   sodipodi:docname="fig_18_11.svg">
  <defs
     id="defs12836">
    <pattern
       id="EMFhbasepattern"
       patternUnits="userSpaceOnUse"
       width="6"
       height="6"
       x="0"
       y="0" />
    <g
       id="g7014">
      <symbol
         id="symbol7008"
         overflow="visible">
        <path
           id="path7006"
           d="M 0.5,0 H 4.484375 V -4.8125 H 0.5 Z M 1,-0.5 V -4.3125 H 3.984375 V -0.5 Z m 0,0"
           style="stroke:none" />
      </symbol>
      <symbol
         id="symbol7012"
         overflow="visible">
        <path
           id="path7010"
           d="m 2.171875,-1.125 c 0,0.28125 -0.015625,0.5625 -0.0625,0.71875 C 2.078125,-0.296875 1.609375,-0.25 1.5,-0.25 c -0.046875,0.046875 -0.046875,0.234375 0,0.28125 0.390625,-0.015625 0.65625,-0.046875 1.03125,-0.046875 0.375,0 0.6875,0.03125 1.09375,0.046875 0.046875,-0.046875 0.03125,-0.234375 0,-0.28125 C 3.5,-0.25 3.015625,-0.296875 2.984375,-0.40625 2.9375,-0.5625 2.9375,-0.84375 2.9375,-1.125 v -4.03125 c 0,-0.59375 0.078125,-0.9375 0.078125,-0.9375 0,-0.046875 -0.03125,-0.15625 -0.09375,-0.15625 H 2.90625 C 2.875,-6.25 2,-5.828125 1.203125,-5.46875 c -0.03125,0.015625 0,0.046875 0,0.0625 0,0.078125 0.03125,0.125 0.078125,0.171875 0.171875,-0.0625 0.546875,-0.203125 0.6875,-0.203125 0.140625,0 0.203125,0.09375 0.203125,0.375 z m 0,0"
           style="stroke:none" />
      </symbol>
    </g>
    <g
       id="g7030">
      <symbol
         id="symbol7024"
         overflow="visible">
        <path
           id="path7022"
           d="M 0.5,0 H 4.484375 V -4.8125 H 0.5 Z M 1,-0.5 V -4.3125 H 3.984375 V -0.5 Z m 0,0"
           style="stroke:none" />
      </symbol>
      <symbol
         id="symbol7028"
         overflow="visible">
        <path
           id="path7026"
           d="M 4.421875,-1.453125 C 4.375,-1.484375 4.25,-1.515625 4.21875,-1.515625 c -0.0625,0 -0.09375,0.015625 -0.109375,0.0625 -0.21875,0.5 -0.4375,0.75 -0.8125,0.75 h -1.9375 c 0.4375,-0.5 1.4375,-1.59375 2.125,-2.453125 C 3.8125,-3.5625 4.03125,-4.0625 4.03125,-4.625 c 0,-0.828125 -0.734375,-1.625 -1.671875,-1.625 -1.03125,0 -1.734375,1.078125 -1.796875,1.3125 0,0.046875 0.109375,0.15625 0.1875,0.15625 0.125,-0.1875 0.609375,-0.828125 1.390625,-0.828125 0.609375,0 1.0625,0.5 1.0625,1.171875 0,0.484375 -0.0625,0.875 -0.46875,1.453125 -0.5625,0.828125 -1.5,1.9375 -2.3125,2.84375 0,0.046875 0.0625,0.125 0.09375,0.140625 h 3.375 c 0.0625,-0.171875 0.328125,-0.984375 0.53125,-1.453125 z m 0,0"
           style="stroke:none" />
      </symbol>
    </g>
    <g
       style="fill:#9e7867;fill-opacity:1;stroke-width:0"
       id="g7144">
      <symbol
         style="fill:#9e7867;fill-opacity:1;stroke-width:0"
         overflow="visible"
         id="symbol7138">
        <path
           style="fill:#9e7867;fill-opacity:1;stroke:none;stroke-width:0"
           d="M 0.5,0 H 4.484375 V -4.8125 H 0.5 Z M 1,-0.5 V -4.3125 H 3.984375 V -0.5 Z m 0,0"
           id="path7136" />
      </symbol>
      <symbol
         style="fill:#9e7867;fill-opacity:1;stroke-width:0"
         overflow="visible"
         id="symbol7142">
        <path
           style="fill:#9e7867;fill-opacity:1;stroke:none;stroke-width:0"
           d="m 2.515625,-6.25 c -0.765625,0 -1.3125,0.5 -1.625,0.953125 0,0.078125 0.0625,0.203125 0.125,0.203125 0.09375,-0.0625 0.46875,-0.640625 1.09375,-0.640625 0.546875,0 0.953125,0.390625 0.953125,0.90625 0,0.84375 -0.734375,1.265625 -1.515625,1.4375 -0.015625,0.03125 -0.015625,0.0625 -0.015625,0.09375 0,0.09375 0.015625,0.140625 0.046875,0.203125 0.125,-0.03125 0.375,-0.125 0.578125,-0.125 0.640625,0 1.25,0.578125 1.25,1.359375 0,1.125 -0.625,1.515625 -1.140625,1.515625 -0.265625,0 -0.53125,-0.0625 -0.71875,-0.25 C 1.390625,-0.75 1.265625,-1.015625 1,-1.015625 c -0.21875,0 -0.40625,0.1875 -0.40625,0.46875 0,0.15625 0.140625,0.328125 0.1875,0.375 0.3125,0.15625 0.734375,0.21875 1,0.21875 C 2.984375,0.046875 4.25,-0.78125 4.25,-2.125 4.25,-3.078125 3.453125,-3.609375 2.890625,-3.6875 3.234375,-3.890625 3.78125,-4.375 3.78125,-5 c 0,-0.796875 -0.765625,-1.25 -1.265625,-1.25 z m 0,0"
           id="path7140" />
      </symbol>
    </g>
    <g
       id="g16067"
       style="fill:#000000;fill-opacity:1;stroke-width:0">
      <symbol
         id="symbol16061"
         overflow="visible"
         style="fill:#000000;fill-opacity:1;stroke-width:0">
        <path
           id="path16059"
           d="M 0.5,0 H 4.484375 V -4.8125 H 0.5 Z M 1,-0.5 V -4.3125 H 3.984375 V -0.5 Z m 0,0"
           style="fill:#000000;fill-opacity:1;stroke:none;stroke-width:0" />
      </symbol>
      <symbol
         id="symbol16065"
         overflow="visible"
         style="fill:#000000;fill-opacity:1;stroke-width:0">
        <path
           id="path16063"
           d="m 3.734375,-6.265625 c -0.078125,0 -0.25,0.171875 -0.3125,0.25 L 0.265625,-1.875 c 0,0.0625 0.03125,0.140625 0.09375,0.1875 H 3.09375 v 1.671875 c 0,0.0625 0.125,0.078125 0.359375,0.078125 0.375,0 0.421875,-0.046875 0.421875,-0.046875 V -1.6875 H 4.546875 C 4.5625,-1.71875 4.578125,-1.765625 4.578125,-1.859375 4.578125,-2.0625 4.5,-2.25 4.453125,-2.25 H 3.875 v -3.84375 c 0,-0.078125 -0.046875,-0.171875 -0.140625,-0.171875 z M 3.09375,-5.109375 V -2.25 H 0.921875 Z m 0,0"
           style="fill:#000000;fill-opacity:1;stroke:none;stroke-width:0" />
      </symbol>
    </g>
    <g
       id="g28967">
      <symbol
         id="symbol28961"
         overflow="visible">
        <path
           id="path28959"
           d="M 0.5,0 H 4.484375 V -4.8125 H 0.5 Z M 1,-0.5 V -4.3125 H 3.984375 V -0.5 Z m 0,0"
           style="stroke:none" />
      </symbol>
      <symbol
         id="symbol28965"
         overflow="visible">
        <path
           id="path28963"
           d="m 2.171875,-1.125 c 0,0.28125 -0.015625,0.5625 -0.0625,0.71875 C 2.078125,-0.296875 1.609375,-0.25 1.5,-0.25 c -0.046875,0.046875 -0.046875,0.234375 0,0.28125 0.390625,-0.015625 0.65625,-0.046875 1.03125,-0.046875 0.375,0 0.6875,0.03125 1.09375,0.046875 0.046875,-0.046875 0.03125,-0.234375 0,-0.28125 C 3.5,-0.25 3.015625,-0.296875 2.984375,-0.40625 2.9375,-0.5625 2.9375,-0.84375 2.9375,-1.125 v -4.03125 c 0,-0.59375 0.078125,-0.9375 0.078125,-0.9375 0,-0.046875 -0.03125,-0.15625 -0.09375,-0.15625 H 2.90625 C 2.875,-6.25 2,-5.828125 1.203125,-5.46875 c -0.03125,0.015625 0,0.046875 0,0.0625 0,0.078125 0.03125,0.125 0.078125,0.171875 0.171875,-0.0625 0.546875,-0.203125 0.6875,-0.203125 0.140625,0 0.203125,0.09375 0.203125,0.375 z m 0,0"
           style="stroke:none" />
      </symbol>
    </g>
    <g
       id="g28983">
      <symbol
         id="symbol28977"
         overflow="visible">
        <path
           id="path28975"
           d="M 0.5,0 H 4.484375 V -4.8125 H 0.5 Z M 1,-0.5 V -4.3125 H 3.984375 V -0.5 Z m 0,0"
           style="stroke:none" />
      </symbol>
      <symbol
         id="symbol28981"
         overflow="visible">
        <path
           id="path28979"
           d="M 4.421875,-1.453125 C 4.375,-1.484375 4.25,-1.515625 4.21875,-1.515625 c -0.0625,0 -0.09375,0.015625 -0.109375,0.0625 -0.21875,0.5 -0.4375,0.75 -0.8125,0.75 h -1.9375 c 0.4375,-0.5 1.4375,-1.59375 2.125,-2.453125 C 3.8125,-3.5625 4.03125,-4.0625 4.03125,-4.625 c 0,-0.828125 -0.734375,-1.625 -1.671875,-1.625 -1.03125,0 -1.734375,1.078125 -1.796875,1.3125 0,0.046875 0.109375,0.15625 0.1875,0.15625 0.125,-0.1875 0.609375,-0.828125 1.390625,-0.828125 0.609375,0 1.0625,0.5 1.0625,1.171875 0,0.484375 -0.0625,0.875 -0.46875,1.453125 -0.5625,0.828125 -1.5,1.9375 -2.3125,2.84375 0,0.046875 0.0625,0.125 0.09375,0.140625 h 3.375 c 0.0625,-0.171875 0.328125,-0.984375 0.53125,-1.453125 z m 0,0"
           style="stroke:none" />
      </symbol>
    </g>
    <g
       style="fill:#9e7867;fill-opacity:1;stroke-width:0"
       id="g28999">
      <symbol
         style="fill:#9e7867;fill-opacity:1;stroke-width:0"
         overflow="visible"
         id="symbol28993">
        <path
           style="fill:#9e7867;fill-opacity:1;stroke:none;stroke-width:0"
           d="M 0.5,0 H 4.484375 V -4.8125 H 0.5 Z M 1,-0.5 V -4.3125 H 3.984375 V -0.5 Z m 0,0"
           id="path28991" />
      </symbol>
      <symbol
         style="fill:#9e7867;fill-opacity:1;stroke-width:0"
         overflow="visible"
         id="symbol28997">
        <path
           style="fill:#9e7867;fill-opacity:1;stroke:none;stroke-width:0"
           d="m 2.515625,-6.25 c -0.765625,0 -1.3125,0.5 -1.625,0.953125 0,0.078125 0.0625,0.203125 0.125,0.203125 0.09375,-0.0625 0.46875,-0.640625 1.09375,-0.640625 0.546875,0 0.953125,0.390625 0.953125,0.90625 0,0.84375 -0.734375,1.265625 -1.515625,1.4375 -0.015625,0.03125 -0.015625,0.0625 -0.015625,0.09375 0,0.09375 0.015625,0.140625 0.046875,0.203125 0.125,-0.03125 0.375,-0.125 0.578125,-0.125 0.640625,0 1.25,0.578125 1.25,1.359375 0,1.125 -0.625,1.515625 -1.140625,1.515625 -0.265625,0 -0.53125,-0.0625 -0.71875,-0.25 C 1.390625,-0.75 1.265625,-1.015625 1,-1.015625 c -0.21875,0 -0.40625,0.1875 -0.40625,0.46875 0,0.15625 0.140625,0.328125 0.1875,0.375 0.3125,0.15625 0.734375,0.21875 1,0.21875 C 2.984375,0.046875 4.25,-0.78125 4.25,-2.125 4.25,-3.078125 3.453125,-3.609375 2.890625,-3.6875 3.234375,-3.890625 3.78125,-4.375 3.78125,-5 c 0,-0.796875 -0.765625,-1.25 -1.265625,-1.25 z m 0,0"
           id="path28995" />
      </symbol>
    </g>
    <g
       id="g29015"
       style="fill:#000000;fill-opacity:1;stroke-width:0">
      <symbol
         id="symbol29009"
         overflow="visible"
         style="fill:#000000;fill-opacity:1;stroke-width:0">
        <path
           id="path29007"
           d="M 0.5,0 H 4.484375 V -4.8125 H 0.5 Z M 1,-0.5 V -4.3125 H 3.984375 V -0.5 Z m 0,0"
           style="fill:#000000;fill-opacity:1;stroke:none;stroke-width:0" />
      </symbol>
      <symbol
         id="symbol29013"
         overflow="visible"
         style="fill:#000000;fill-opacity:1;stroke-width:0">
        <path
           id="path29011"
           d="m 3.734375,-6.265625 c -0.078125,0 -0.25,0.171875 -0.3125,0.25 L 0.265625,-1.875 c 0,0.0625 0.03125,0.140625 0.09375,0.1875 H 3.09375 v 1.671875 c 0,0.0625 0.125,0.078125 0.359375,0.078125 0.375,0 0.421875,-0.046875 0.421875,-0.046875 V -1.6875 H 4.546875 C 4.5625,-1.71875 4.578125,-1.765625 4.578125,-1.859375 4.578125,-2.0625 4.5,-2.25 4.453125,-2.25 H 3.875 v -3.84375 c 0,-0.078125 -0.046875,-0.171875 -0.140625,-0.171875 z M 3.09375,-5.109375 V -2.25 H 0.921875 Z m 0,0"
           style="fill:#000000;fill-opacity:1;stroke:none;stroke-width:0" />
      </symbol>
    </g>
    <g
       style="fill:#000000;stroke-width:0"
       id="g29031">
      <symbol
         style="fill:#000000;stroke-width:0"
         overflow="visible"
         id="symbol29025">
        <path
           style="fill:#000000;stroke:none;stroke-width:0"
           d="M 0.5,0 H 4.484375 V -4.8125 H 0.5 Z M 1,-0.5 V -4.3125 H 3.984375 V -0.5 Z m 0,0"
           id="path29023" />
      </symbol>
      <symbol
         style="fill:#000000;stroke-width:0"
         overflow="visible"
         id="symbol29029">
        <path
           style="fill:#000000;stroke:none;stroke-width:0"
           d="m 2.421875,-3.84375 c -0.265625,0 -0.765625,0.078125 -1.03125,0.1875 0.109375,-0.546875 0.21875,-1.171875 0.34375,-1.75 h 0.8125 c 0.515625,0 0.875,-0.03125 1.140625,-0.0625 0.1875,-0.21875 0.296875,-0.625 0.296875,-0.6875 0,-0.046875 -0.0625,-0.078125 -0.125,-0.109375 0,0 -0.5,0.078125 -0.90625,0.078125 H 1.53125 c -0.109375,0.609375 -0.359375,1.8125 -0.578125,2.890625 0,0.078125 0.046875,0.140625 0.078125,0.140625 0.171875,-0.078125 0.609375,-0.140625 0.828125,-0.140625 1.125,0 1.546875,0.828125 1.546875,1.4375 0,1.125 -0.625,1.515625 -1.140625,1.515625 -0.265625,0 -0.53125,-0.0625 -0.71875,-0.25 C 1.390625,-0.75 1.265625,-1.015625 1,-1.015625 c -0.21875,0 -0.40625,0.1875 -0.40625,0.46875 0,0.15625 0.140625,0.328125 0.1875,0.375 0.3125,0.15625 0.734375,0.21875 1,0.21875 1.203125,0 2.46875,-0.828125 2.46875,-2.171875 0,-0.828125 -0.6875,-1.71875 -1.828125,-1.71875 z m 0,0"
           id="path29027" />
      </symbol>
    </g>
    <g
       style="fill:#000000;stroke-width:0"
       id="g3509">
      <symbol
         style="fill:#000000;stroke-width:0"
         overflow="visible"
         id="symbol3495">
        <path
           style="fill:#000000;stroke:none;stroke-width:0"
           d="M 0.5,0 H 4.484375 V -4.8125 H 0.5 Z M 1,-0.5 V -4.3125 H 3.984375 V -0.5 Z m 0,0"
           id="path3493" />
      </symbol>
      <symbol
         style="fill:#000000;stroke-width:0"
         overflow="visible"
         id="symbol3499">
        <path
           style="fill:#000000;stroke:none;stroke-width:0"
           d="M 1.0625,-2.765625 C 1.0625,-4.3125 1.578125,-6 2.5,-6.8125 c 0,0 -0.125,-0.140625 -0.203125,-0.1875 -1.125,0.90625 -1.9375,2.328125 -1.9375,4.234375 0,1.875 0.8125,3.328125 1.9375,4.21875 C 2.375,1.421875 2.5,1.265625 2.5,1.265625 1.578125,0.453125 1.0625,-1.25 1.0625,-2.765625 Z m 0,0"
           id="path3497" />
      </symbol>
      <symbol
         style="fill:#000000;stroke-width:0"
         overflow="visible"
         id="symbol3503">
        <path
           style="fill:#000000;stroke:none;stroke-width:0"
           d="m 1.84375,-0.453125 c -0.375,0 -0.671875,-0.328125 -0.671875,-0.6875 0,-0.390625 0.25,-0.640625 0.609375,-0.78125 C 1.96875,-2 2.453125,-2.140625 2.71875,-2.21875 v 1.359375 c 0,0.109375 -0.53125,0.40625 -0.875,0.40625 z M 2.375,-4.34375 c -0.71875,0 -1.484375,0.53125 -1.78125,0.8125 -0.046875,0.046875 -0.078125,0.203125 -0.078125,0.234375 0,0.21875 0.125,0.421875 0.328125,0.421875 0.25,0 0.40625,-0.140625 0.46875,-0.46875 0.0625,-0.390625 0.1875,-0.640625 0.546875,-0.640625 0.484375,0 0.859375,0.515625 0.859375,0.96875 V -2.75 c 0,0.171875 -0.03125,0.21875 -0.125,0.25 -0.28125,0.140625 -1.171875,0.421875 -1.71875,0.625 -0.234375,0.078125 -0.5,0.40625 -0.5,0.8125 0,0.640625 0.5,1.140625 1.140625,1.140625 0.34375,0 1.109375,-0.53125 1.21875,-0.65625 C 2.796875,-0.28125 3.0625,0.0625 3.34375,0.0625 c 0.203125,0 0.609375,-0.265625 0.734375,-0.375 C 4.109375,-0.359375 4.125,-0.4375 4.125,-0.5 c 0,-0.03125 -0.015625,-0.078125 -0.03125,-0.078125 -0.03125,0.015625 -0.15625,0.125 -0.328125,0.125 -0.234375,0 -0.3125,-0.203125 -0.3125,-0.46875 V -2.96875 c 0,-0.765625 -0.515625,-1.375 -1.078125,-1.375 z m 0,0"
           id="path3501" />
      </symbol>
      <symbol
         style="fill:#000000;stroke-width:0"
         overflow="visible"
         id="symbol3507">
        <path
           style="fill:#000000;stroke:none;stroke-width:0"
           d="M 2.1875,-2.765625 C 2.1875,-4.671875 1.375,-6.09375 0.234375,-7 c -0.0625,0.046875 -0.1875,0.1875 -0.171875,0.1875 0.921875,0.8125 1.40625,2.5 1.40625,4.046875 0,1.515625 -0.484375,3.21875 -1.40625,4.03125 -0.015625,0 0.109375,0.15625 0.171875,0.1875 C 1.375,0.5625 2.1875,-0.890625 2.1875,-2.765625 Z m 0,0"
           id="path3505" />
      </symbol>
    </g>
    <g
       style="fill:#000000;stroke-width:0"
       id="g3539">
      <symbol
         style="fill:#000000;stroke-width:0"
         overflow="visible"
         id="symbol3525">
        <path
           style="fill:#000000;stroke:none;stroke-width:0"
           d="M 0.5,0 H 4.484375 V -4.8125 H 0.5 Z M 1,-0.5 V -4.3125 H 3.984375 V -0.5 Z m 0,0"
           id="path3523" />
      </symbol>
      <symbol
         style="fill:#000000;stroke-width:0"
         overflow="visible"
         id="symbol3529">
        <path
           style="fill:#000000;stroke:none;stroke-width:0"
           d="M 1.0625,-2.765625 C 1.0625,-4.3125 1.578125,-6 2.5,-6.8125 c 0,0 -0.125,-0.140625 -0.203125,-0.1875 -1.125,0.90625 -1.9375,2.328125 -1.9375,4.234375 0,1.875 0.8125,3.328125 1.9375,4.21875 C 2.375,1.421875 2.5,1.265625 2.5,1.265625 1.578125,0.453125 1.0625,-1.25 1.0625,-2.765625 Z m 0,0"
           id="path3527" />
      </symbol>
      <symbol
         style="fill:#000000;stroke-width:0"
         overflow="visible"
         id="symbol3533">
        <path
           style="fill:#000000;stroke:none;stroke-width:0"
           d="m 2.09375,0.0625 c 1.40625,0 2.4375,-1.0625 2.4375,-2.328125 0,-0.890625 -0.625,-2 -1.8125,-2 -0.375,0 -1.046875,0.421875 -1.203125,0.53125 C 1.453125,-3.6875 1.46875,-3.78125 1.46875,-3.84375 V -5.75 c 0,-0.546875 0.09375,-0.84375 0.09375,-0.84375 0,-0.078125 -0.046875,-0.171875 -0.09375,-0.171875 C 1.046875,-6.5625 0.5625,-6.421875 0.0625,-6.375 c -0.046875,0.015625 -0.015625,0.265625 -0.015625,0.265625 0.28125,0 0.546875,0.03125 0.609375,0.171875 0.046875,0.109375 0.046875,0.375 0.046875,0.5 v 4.375 c 0,0.1875 -0.015625,0.515625 -0.109375,0.71875 0,0.046875 0.078125,0.203125 0.125,0.203125 0.21875,-0.078125 0.421875,0 0.640625,0.0625 C 1.578125,-0.015625 1.9375,0.0625 2.09375,0.0625 Z M 2.25,-3.6875 c 0.890625,0 1.453125,0.671875 1.453125,1.796875 0,0.796875 -0.609375,1.625 -1.328125,1.625 -0.4375,0 -0.90625,-0.265625 -0.90625,-0.6875 V -3.3125 c 0,-0.0625 0,-0.09375 0.03125,-0.109375 C 1.59375,-3.515625 2,-3.6875 2.25,-3.6875 Z m 0,0"
           id="path3531" />
      </symbol>
      <symbol
         style="fill:#000000;stroke-width:0"
         overflow="visible"
         id="symbol3537">
        <path
           style="fill:#000000;stroke:none;stroke-width:0"
           d="M 2.1875,-2.765625 C 2.1875,-4.671875 1.375,-6.09375 0.234375,-7 c -0.0625,0.046875 -0.1875,0.1875 -0.171875,0.1875 0.921875,0.8125 1.40625,2.5 1.40625,4.046875 0,1.515625 -0.484375,3.21875 -1.40625,4.03125 -0.015625,0 0.109375,0.15625 0.171875,0.1875 C 1.375,0.5625 2.1875,-0.890625 2.1875,-2.765625 Z m 0,0"
           id="path3535" />
      </symbol>
    </g>
    <g
       id="g11377"
       style="fill:#000000;stroke-width:0">
      <symbol
         overflow="visible"
         id="symbol11363"
         style="fill:#000000;stroke-width:0">
        <path
           style="fill:#000000;stroke:none;stroke-width:0"
           d="M 0.5,0 H 4.484375 V -4.8125 H 0.5 Z M 1,-0.5 V -4.3125 H 3.984375 V -0.5 Z m 0,0"
           id="path11361" />
      </symbol>
      <symbol
         overflow="visible"
         id="symbol11367"
         style="fill:#000000;stroke-width:0">
        <path
           style="fill:#000000;stroke:none;stroke-width:0"
           d="M 1.0625,-2.765625 C 1.0625,-4.3125 1.578125,-6 2.5,-6.8125 c 0,0 -0.125,-0.140625 -0.203125,-0.1875 -1.125,0.90625 -1.9375,2.328125 -1.9375,4.234375 0,1.875 0.8125,3.328125 1.9375,4.21875 C 2.375,1.421875 2.5,1.265625 2.5,1.265625 1.578125,0.453125 1.0625,-1.25 1.0625,-2.765625 Z m 0,0"
           id="path11365" />
      </symbol>
      <symbol
         overflow="visible"
         id="symbol11371"
         style="fill:#000000;stroke-width:0">
        <path
           style="fill:#000000;stroke:none;stroke-width:0"
           d="m 3.78125,-3.84375 c 0,-0.109375 -0.046875,-0.25 -0.09375,-0.28125 -0.234375,-0.15625 -0.546875,-0.234375 -0.890625,-0.234375 -1.046875,0 -2.40625,0.96875 -2.40625,2.421875 0,1.046875 0.796875,2.015625 2,2.015625 0.765625,0 1.265625,-0.5625 1.453125,-0.828125 0.03125,-0.0625 0.046875,-0.140625 0.046875,-0.1875 0,-0.078125 -0.0625,-0.125 -0.078125,-0.125 -0.125,0.140625 -0.5,0.5 -1.046875,0.5 -0.90625,0 -1.625,-0.53125 -1.625,-1.703125 0,-1.046875 0.59375,-1.671875 1.125,-1.671875 0.25,0 0.34375,0.046875 0.5625,0.203125 C 3,-3.625 3.203125,-3.375 3.40625,-3.375 c 0.1875,0 0.375,-0.125 0.375,-0.46875 z m 0,0"
           id="path11369" />
      </symbol>
      <symbol
         overflow="visible"
         id="symbol11375"
         style="fill:#000000;stroke-width:0">
        <path
           style="fill:#000000;stroke:none;stroke-width:0"
           d="M 2.1875,-2.765625 C 2.1875,-4.671875 1.375,-6.09375 0.234375,-7 c -0.0625,0.046875 -0.1875,0.1875 -0.171875,0.1875 0.921875,0.8125 1.40625,2.5 1.40625,4.046875 0,1.515625 -0.484375,3.21875 -1.40625,4.03125 -0.015625,0 0.109375,0.15625 0.171875,0.1875 C 1.375,0.5625 2.1875,-0.890625 2.1875,-2.765625 Z m 0,0"
           id="path11373" />
      </symbol>
    </g>
  </defs>
  <sodipodi:namedview
     id="base"
     pagecolor="#ffffff"
     bordercolor="#666666"
     borderopacity="1.0"
     inkscape:pageopacity="0.0"
     inkscape:pageshadow="2"
     inkscape:zoom="1.4"
     inkscape:cx="131.4113"
     inkscape:cy="167.74899"
     inkscape:document-units="mm"
     inkscape:current-layer="layer1"
     inkscape:document-rotation="0"
     showgrid="false"
     inkscape:window-width="1600"
     inkscape:window-height="837"
     inkscape:window-x="-8"
     inkscape:window-y="-8"
     inkscape:window-maximized="1" />
  <metadata
     id="metadata12839">
    <rdf:RDF>
      <cc:Work
         rdf:about="">
        <dc:format>image/svg+xml</dc:format>
        <dc:type
           rdf:resource="http://purl.org/dc/dcmitype/StillImage" />
        <dc:title></dc:title>
      </cc:Work>
    </rdf:RDF>
  </metadata>
  <g
     inkscape:label="Layer 1"
     inkscape:groupmode="layer"
     id="layer1"
     transform="translate(-50.441818,-13.523499)">
    <ellipse
       style="opacity:0.5;fill:#506a65;stroke:none;stroke-width:0.396875;stroke-linecap:round;stroke-linejoin:round;stroke-miterlimit:4;stroke-dasharray:none"
       id="ellipse13420"
       cx="63.152363"
       cy="25.489767"
       rx="12.710545"
       ry="11.966269" />
    <ellipse
       style="fill:#ffffff;stroke:#aa9e95;stroke-width:0.397;stroke-linecap:round;stroke-linejoin:round;stroke-miterlimit:4;stroke-dasharray:none"
       id="ellipse13424"
       cx="63.152363"
       cy="25.489767"
       rx="11.59657"
       ry="10.917524" />
    <ellipse
       style="opacity:0.3;fill:#aa9e95;stroke:none;stroke-width:0.396875;stroke-linecap:round;stroke-linejoin:round;stroke-miterlimit:4;stroke-dasharray:none"
       id="ellipse13567"
       cx="63.152363"
       cy="25.489767"
       rx="9.3686218"
       ry="8.8200359" />
    <ellipse
       style="fill:none;stroke:#aa9e95;stroke-width:0.396875;stroke-linecap:round;stroke-linejoin:round;stroke-miterlimit:4;stroke-dasharray:none"
       id="path13418"
       cx="63.152363"
       cy="25.489767"
       rx="9.3686218"
       ry="8.8200359" />
    <ellipse
       style="fill:#ffffff;stroke:#aa9e95;stroke-width:0.396875;stroke-linecap:round;stroke-linejoin:round;stroke-miterlimit:4;stroke-dasharray:none"
       id="ellipse13422"
       cx="63.152363"
       cy="25.489767"
       rx="6.4629531"
       ry="6.0845103" />
    <g
       transform="matrix(0.24246766,0,0,0.24246766,62.985441,24.623927)"
       ns2:version="1.1.0"
       ns2:texconverter="pdflatex"
       ns2:pdfconverter="inkscape"
       ns2:text="$1$"
       ns2:preamble="C:\\Users\\flvisa\\Desktop\\lna\\latexify_books\\textext_preamble.tex"
       ns2:scale="1.199999773228722"
       ns2:alignment="middle center"
       ns2:inkscapeversion="1.0"
       ns2:jacobian_sqrt="0.423334"
       id="g6582">
      <defs
         id="id-99136f65-f779-4cb7-b19c-c10459896000">
        <g
           id="g13527">
          <symbol
             id="symbol13521"
             overflow="visible">
            <path
               id="path13519"
               d="M 0.5,0 H 4.484375 V -4.8125 H 0.5 Z M 1,-0.5 V -4.3125 H 3.984375 V -0.5 Z m 0,0"
               style="stroke:none" />
          </symbol>
          <symbol
             id="symbol13525"
             overflow="visible">
            <path
               id="path13523"
               d="m 2.171875,-1.125 c 0,0.28125 -0.015625,0.5625 -0.0625,0.71875 C 2.078125,-0.296875 1.609375,-0.25 1.5,-0.25 c -0.046875,0.046875 -0.046875,0.234375 0,0.28125 0.390625,-0.015625 0.65625,-0.046875 1.03125,-0.046875 0.375,0 0.6875,0.03125 1.09375,0.046875 0.046875,-0.046875 0.03125,-0.234375 0,-0.28125 C 3.5,-0.25 3.015625,-0.296875 2.984375,-0.40625 2.9375,-0.5625 2.9375,-0.84375 2.9375,-1.125 v -4.03125 c 0,-0.59375 0.078125,-0.9375 0.078125,-0.9375 0,-0.046875 -0.03125,-0.15625 -0.09375,-0.15625 H 2.90625 C 2.875,-6.25 2,-5.828125 1.203125,-5.46875 c -0.03125,0.015625 0,0.046875 0,0.0625 0,0.078125 0.03125,0.125 0.078125,0.171875 0.171875,-0.0625 0.546875,-0.203125 0.6875,-0.203125 0.140625,0 0.203125,0.09375 0.203125,0.375 z m 0,0"
               style="stroke:none" />
          </symbol>
        </g>
      </defs>
      <g
         transform="translate(-149.901,-128.515)"
         id="id-bd3de61b-ee2e-47ef-96ff-2b0b05c6120a">
        <g
           id="id-094dc464-c691-462e-9002-f9b026782012"
           style="fill:#000000;fill-opacity:1">
          <g
             transform="translate(148.712,134.765)"
             id="g6578">
            <path
               id="id-74bf3bd2-a8b6-49d6-a543-6822b0530089"
               d="m 2.171875,-1.125 c 0,0.28125 -0.015625,0.5625 -0.0625,0.71875 C 2.078125,-0.296875 1.609375,-0.25 1.5,-0.25 c -0.046875,0.046875 -0.046875,0.234375 0,0.28125 0.390625,-0.015625 0.65625,-0.046875 1.03125,-0.046875 0.375,0 0.6875,0.03125 1.09375,0.046875 0.046875,-0.046875 0.03125,-0.234375 0,-0.28125 C 3.5,-0.25 3.015625,-0.296875 2.984375,-0.40625 2.9375,-0.5625 2.9375,-0.84375 2.9375,-1.125 v -4.03125 c 0,-0.59375 0.078125,-0.9375 0.078125,-0.9375 0,-0.046875 -0.03125,-0.15625 -0.09375,-0.15625 H 2.90625 C 2.875,-6.25 2,-5.828125 1.203125,-5.46875 c -0.03125,0.015625 0,0.046875 0,0.0625 0,0.078125 0.03125,0.125 0.078125,0.171875 0.171875,-0.0625 0.546875,-0.203125 0.6875,-0.203125 0.140625,0 0.203125,0.09375 0.203125,0.375 z m 0,0"
               style="stroke:none" />
          </g>
        </g>
      </g>
    </g>
    <g
       transform="matrix(0.24370887,0,0,0.24370887,62.865771,32.143)"
       ns2:version="1.1.0"
       ns2:texconverter="pdflatex"
       ns2:pdfconverter="inkscape"
       ns2:text="$2$"
       ns2:preamble="C:\\Users\\flvisa\\Desktop\\lna\\latexify_books\\textext_preamble.tex"
       ns2:scale="1.1999997448823154"
       ns2:alignment="middle center"
       ns2:inkscapeversion="1.0"
       ns2:jacobian_sqrt="0.423334"
       id="g6925">
      <defs
         id="id-10d01f89-49fc-436f-a187-d029386b3763">
        <g
           id="g13543">
          <symbol
             id="symbol13537"
             overflow="visible">
            <path
               id="path13535"
               d="M 0.5,0 H 4.484375 V -4.8125 H 0.5 Z M 1,-0.5 V -4.3125 H 3.984375 V -0.5 Z m 0,0"
               style="stroke:none" />
          </symbol>
          <symbol
             id="symbol13541"
             overflow="visible">
            <path
               id="path13539"
               d="M 4.421875,-1.453125 C 4.375,-1.484375 4.25,-1.515625 4.21875,-1.515625 c -0.0625,0 -0.09375,0.015625 -0.109375,0.0625 -0.21875,0.5 -0.4375,0.75 -0.8125,0.75 h -1.9375 c 0.4375,-0.5 1.4375,-1.59375 2.125,-2.453125 C 3.8125,-3.5625 4.03125,-4.0625 4.03125,-4.625 c 0,-0.828125 -0.734375,-1.625 -1.671875,-1.625 -1.03125,0 -1.734375,1.078125 -1.796875,1.3125 0,0.046875 0.109375,0.15625 0.1875,0.15625 0.125,-0.1875 0.609375,-0.828125 1.390625,-0.828125 0.609375,0 1.0625,0.5 1.0625,1.171875 0,0.484375 -0.0625,0.875 -0.46875,1.453125 -0.5625,0.828125 -1.5,1.9375 -2.3125,2.84375 0,0.046875 0.0625,0.125 0.09375,0.140625 h 3.375 c 0.0625,-0.171875 0.328125,-0.984375 0.53125,-1.453125 z m 0,0"
               style="stroke:none" />
          </symbol>
        </g>
      </defs>
      <g
         transform="translate(-149.134,-128.515)"
         id="id-2b50523c-e81a-4f87-ba36-3d7fa8f68420">
        <g
           id="id-9b635aa6-b372-4423-8fa0-6e45d443fb17"
           style="fill:#000000;fill-opacity:1">
          <g
             transform="translate(148.712,134.765)"
             id="g6921">
            <path
               id="id-392eb9f9-4e03-4d03-ba62-75c1d1e34a13"
               d="M 4.421875,-1.453125 C 4.375,-1.484375 4.25,-1.515625 4.21875,-1.515625 c -0.0625,0 -0.09375,0.015625 -0.109375,0.0625 -0.21875,0.5 -0.4375,0.75 -0.8125,0.75 h -1.9375 c 0.4375,-0.5 1.4375,-1.59375 2.125,-2.453125 C 3.8125,-3.5625 4.03125,-4.0625 4.03125,-4.625 c 0,-0.828125 -0.734375,-1.625 -1.671875,-1.625 -1.03125,0 -1.734375,1.078125 -1.796875,1.3125 0,0.046875 0.109375,0.15625 0.1875,0.15625 0.125,-0.1875 0.609375,-0.828125 1.390625,-0.828125 0.609375,0 1.0625,0.5 1.0625,1.171875 0,0.484375 -0.0625,0.875 -0.46875,1.453125 -0.5625,0.828125 -1.5,1.9375 -2.3125,2.84375 0,0.046875 0.0625,0.125 0.09375,0.140625 h 3.375 c 0.0625,-0.171875 0.328125,-0.984375 0.53125,-1.453125 z m 0,0"
               style="stroke:none" />
          </g>
        </g>
      </g>
    </g>
    <g
       id="g6434"
       style="fill:#000000;fill-opacity:1;stroke-width:0"
       ns2:jacobian_sqrt="0.423334"
       ns2:inkscapeversion="1.0"
       ns2:alignment="middle center"
       ns2:scale="1.1999998866143555"
       ns2:preamble="C:\\Users\\flvisa\\Desktop\\lna\\latexify_books\\textext_preamble.tex"
       ns2:text="$3$"
       ns2:pdfconverter="inkscape"
       ns2:texconverter="pdflatex"
       ns2:version="1.1.0"
       transform="matrix(0.24615385,0,0,0.24615385,62.793597,34.6)">
      <defs
         id="id-b9751adc-d4af-488e-8068-c57a471d098c">
        <g
           style="fill:#9e7867;fill-opacity:1;stroke-width:0"
           id="g13559">
          <symbol
             style="fill:#9e7867;fill-opacity:1;stroke-width:0"
             overflow="visible"
             id="symbol13553">
            <path
               style="fill:#9e7867;fill-opacity:1;stroke:none;stroke-width:0"
               d="M 0.5,0 H 4.484375 V -4.8125 H 0.5 Z M 1,-0.5 V -4.3125 H 3.984375 V -0.5 Z m 0,0"
               id="path13551" />
          </symbol>
          <symbol
             style="fill:#9e7867;fill-opacity:1;stroke-width:0"
             overflow="visible"
             id="symbol13557">
            <path
               style="fill:#9e7867;fill-opacity:1;stroke:none;stroke-width:0"
               d="m 2.515625,-6.25 c -0.765625,0 -1.3125,0.5 -1.625,0.953125 0,0.078125 0.0625,0.203125 0.125,0.203125 0.09375,-0.0625 0.46875,-0.640625 1.09375,-0.640625 0.546875,0 0.953125,0.390625 0.953125,0.90625 0,0.84375 -0.734375,1.265625 -1.515625,1.4375 -0.015625,0.03125 -0.015625,0.0625 -0.015625,0.09375 0,0.09375 0.015625,0.140625 0.046875,0.203125 0.125,-0.03125 0.375,-0.125 0.578125,-0.125 0.640625,0 1.25,0.578125 1.25,1.359375 0,1.125 -0.625,1.515625 -1.140625,1.515625 -0.265625,0 -0.53125,-0.0625 -0.71875,-0.25 C 1.390625,-0.75 1.265625,-1.015625 1,-1.015625 c -0.21875,0 -0.40625,0.1875 -0.40625,0.46875 0,0.15625 0.140625,0.328125 0.1875,0.375 0.3125,0.15625 0.734375,0.21875 1,0.21875 C 2.984375,0.046875 4.25,-0.78125 4.25,-2.125 4.25,-3.078125 3.453125,-3.609375 2.890625,-3.6875 3.234375,-3.890625 3.78125,-4.375 3.78125,-5 c 0,-0.796875 -0.765625,-1.25 -1.265625,-1.25 z m 0,0"
               id="path13555" />
          </symbol>
        </g>
      </defs>
      <g
         style="fill:#000000;fill-opacity:1;stroke-width:0"
         id="id-fa85de6a-5775-428e-ad32-adcc5d1d87e8"
         transform="translate(-149.306,-128.515)">
        <g
           style="fill:#000000;fill-opacity:1;stroke-width:0"
           id="id-165f79ec-7bba-4134-b058-87f93dcba377">
          <g
             id="g6430"
             style="fill:#000000;fill-opacity:1;stroke-width:0"
             transform="translate(148.712,134.765)">
            <path
               style="fill:#000000;fill-opacity:1;stroke:none;stroke-width:0"
               d="m 2.515625,-6.25 c -0.765625,0 -1.3125,0.5 -1.625,0.953125 0,0.078125 0.0625,0.203125 0.125,0.203125 0.09375,-0.0625 0.46875,-0.640625 1.09375,-0.640625 0.546875,0 0.953125,0.390625 0.953125,0.90625 0,0.84375 -0.734375,1.265625 -1.515625,1.4375 -0.015625,0.03125 -0.015625,0.0625 -0.015625,0.09375 0,0.09375 0.015625,0.140625 0.046875,0.203125 0.125,-0.03125 0.375,-0.125 0.578125,-0.125 0.640625,0 1.25,0.578125 1.25,1.359375 0,1.125 -0.625,1.515625 -1.140625,1.515625 -0.265625,0 -0.53125,-0.0625 -0.71875,-0.25 C 1.390625,-0.75 1.265625,-1.015625 1,-1.015625 c -0.21875,0 -0.40625,0.1875 -0.40625,0.46875 0,0.15625 0.140625,0.328125 0.1875,0.375 0.3125,0.15625 0.734375,0.21875 1,0.21875 C 2.984375,0.046875 4.25,-0.78125 4.25,-2.125 4.25,-3.078125 3.453125,-3.609375 2.890625,-3.6875 3.234375,-3.890625 3.78125,-4.375 3.78125,-5 c 0,-0.796875 -0.765625,-1.25 -1.265625,-1.25 z m 0,0"
               id="id-44dde96e-5338-4cbe-a7bb-14cfbf3a4581" />
          </g>
        </g>
      </g>
    </g>
    <ellipse
       style="opacity:0.5;fill:#506a65;stroke:none;stroke-width:0.396875;stroke-linecap:round;stroke-linejoin:round;stroke-miterlimit:4;stroke-dasharray:none"
       id="ellipse13569"
       cx="93.414543"
       cy="25.489767"
       rx="12.710545"
       ry="11.966269" />
    <ellipse
       style="opacity:1;fill:#ffffff;stroke:none;stroke-width:0.391586;stroke-linecap:round;stroke-linejoin:round;stroke-miterlimit:4;stroke-dasharray:none"
       id="ellipse13651"
       cx="93.603531"
       cy="25.371651"
       rx="11.410227"
       ry="10.802051" />
    <ellipse
       style="opacity:0.3;fill:#aa9e95;stroke:none;stroke-width:0.391586;stroke-linecap:round;stroke-linejoin:round;stroke-miterlimit:4;stroke-dasharray:none"
       id="ellipse13649"
       cx="93.603531"
       cy="25.371651"
       rx="11.410227"
       ry="10.802051" />
    <ellipse
       style="fill:#ffffff;stroke:#aa9e95;stroke-width:0.378749;stroke-linecap:round;stroke-linejoin:round;stroke-miterlimit:4;stroke-dasharray:none"
       id="ellipse13571"
       cx="93.603531"
       cy="24.662945"
       rx="11.416645"
       ry="10.099764" />
    <ellipse
       style="fill:none;stroke:#aa9e95;stroke-width:0.396875;stroke-linecap:round;stroke-linejoin:round;stroke-miterlimit:4;stroke-dasharray:none"
       id="ellipse13575"
       cx="93.414543"
       cy="23.902266"
       rx="9.3686218"
       ry="8.8200359" />
    <ellipse
       style="opacity:0.3;fill:#aa9e95;stroke:none;stroke-width:0.396875;stroke-linecap:round;stroke-linejoin:round;stroke-miterlimit:4;stroke-dasharray:none"
       id="ellipse13647"
       cx="93.414543"
       cy="23.902266"
       rx="9.3686218"
       ry="8.8200359" />
    <ellipse
       style="fill:#ffffff;stroke:#aa9e95;stroke-width:0.396875;stroke-linecap:round;stroke-linejoin:round;stroke-miterlimit:4;stroke-dasharray:none"
       id="ellipse13577"
       cx="93.414543"
       cy="23.902266"
       rx="6.4629531"
       ry="6.0845103" />
    <g
       transform="matrix(0.24246766,0,0,0.24246766,93.247617,24.623927)"
       ns2:version="1.1.0"
       ns2:texconverter="pdflatex"
       ns2:pdfconverter="inkscape"
       ns2:text="$1$"
       ns2:preamble="C:\\Users\\flvisa\\Desktop\\lna\\latexify_books\\textext_preamble.tex"
       ns2:scale="1.199999773228722"
       ns2:alignment="middle center"
       ns2:inkscapeversion="1.0"
       ns2:jacobian_sqrt="0.423334"
       id="g13599">
      <defs
         id="defs13589">
        <g
           id="g13587">
          <symbol
             id="symbol13581"
             overflow="visible">
            <path
               id="path13579"
               d="M 0.5,0 H 4.484375 V -4.8125 H 0.5 Z M 1,-0.5 V -4.3125 H 3.984375 V -0.5 Z m 0,0"
               style="stroke:none" />
          </symbol>
          <symbol
             id="symbol13585"
             overflow="visible">
            <path
               id="path13583"
               d="m 2.171875,-1.125 c 0,0.28125 -0.015625,0.5625 -0.0625,0.71875 C 2.078125,-0.296875 1.609375,-0.25 1.5,-0.25 c -0.046875,0.046875 -0.046875,0.234375 0,0.28125 0.390625,-0.015625 0.65625,-0.046875 1.03125,-0.046875 0.375,0 0.6875,0.03125 1.09375,0.046875 0.046875,-0.046875 0.03125,-0.234375 0,-0.28125 C 3.5,-0.25 3.015625,-0.296875 2.984375,-0.40625 2.9375,-0.5625 2.9375,-0.84375 2.9375,-1.125 v -4.03125 c 0,-0.59375 0.078125,-0.9375 0.078125,-0.9375 0,-0.046875 -0.03125,-0.15625 -0.09375,-0.15625 H 2.90625 C 2.875,-6.25 2,-5.828125 1.203125,-5.46875 c -0.03125,0.015625 0,0.046875 0,0.0625 0,0.078125 0.03125,0.125 0.078125,0.171875 0.171875,-0.0625 0.546875,-0.203125 0.6875,-0.203125 0.140625,0 0.203125,0.09375 0.203125,0.375 z m 0,0"
               style="stroke:none" />
          </symbol>
        </g>
      </defs>
      <g
         transform="translate(-149.901,-128.515)"
         id="g13597">
        <g
           id="g13595"
           style="fill:#000000;fill-opacity:1">
          <g
             transform="translate(148.712,134.765)"
             id="g13593">
            <path
               id="path13591"
               d="m 2.171875,-1.125 c 0,0.28125 -0.015625,0.5625 -0.0625,0.71875 C 2.078125,-0.296875 1.609375,-0.25 1.5,-0.25 c -0.046875,0.046875 -0.046875,0.234375 0,0.28125 0.390625,-0.015625 0.65625,-0.046875 1.03125,-0.046875 0.375,0 0.6875,0.03125 1.09375,0.046875 0.046875,-0.046875 0.03125,-0.234375 0,-0.28125 C 3.5,-0.25 3.015625,-0.296875 2.984375,-0.40625 2.9375,-0.5625 2.9375,-0.84375 2.9375,-1.125 v -4.03125 c 0,-0.59375 0.078125,-0.9375 0.078125,-0.9375 0,-0.046875 -0.03125,-0.15625 -0.09375,-0.15625 H 2.90625 C 2.875,-6.25 2,-5.828125 1.203125,-5.46875 c -0.03125,0.015625 0,0.046875 0,0.0625 0,0.078125 0.03125,0.125 0.078125,0.171875 0.171875,-0.0625 0.546875,-0.203125 0.6875,-0.203125 0.140625,0 0.203125,0.09375 0.203125,0.375 z m 0,0"
               style="stroke:none" />
          </g>
        </g>
      </g>
    </g>
    <g
       transform="matrix(0.24370887,0,0,0.24370887,93.127947,30.555499)"
       ns2:version="1.1.0"
       ns2:texconverter="pdflatex"
       ns2:pdfconverter="inkscape"
       ns2:text="$2$"
       ns2:preamble="C:\\Users\\flvisa\\Desktop\\lna\\latexify_books\\textext_preamble.tex"
       ns2:scale="1.1999997448823154"
       ns2:alignment="middle center"
       ns2:inkscapeversion="1.0"
       ns2:jacobian_sqrt="0.423334"
       id="g13621">
      <defs
         id="defs13611">
        <g
           id="g13609">
          <symbol
             id="symbol13603"
             overflow="visible">
            <path
               id="path13601"
               d="M 0.5,0 H 4.484375 V -4.8125 H 0.5 Z M 1,-0.5 V -4.3125 H 3.984375 V -0.5 Z m 0,0"
               style="stroke:none" />
          </symbol>
          <symbol
             id="symbol13607"
             overflow="visible">
            <path
               id="path13605"
               d="M 4.421875,-1.453125 C 4.375,-1.484375 4.25,-1.515625 4.21875,-1.515625 c -0.0625,0 -0.09375,0.015625 -0.109375,0.0625 -0.21875,0.5 -0.4375,0.75 -0.8125,0.75 h -1.9375 c 0.4375,-0.5 1.4375,-1.59375 2.125,-2.453125 C 3.8125,-3.5625 4.03125,-4.0625 4.03125,-4.625 c 0,-0.828125 -0.734375,-1.625 -1.671875,-1.625 -1.03125,0 -1.734375,1.078125 -1.796875,1.3125 0,0.046875 0.109375,0.15625 0.1875,0.15625 0.125,-0.1875 0.609375,-0.828125 1.390625,-0.828125 0.609375,0 1.0625,0.5 1.0625,1.171875 0,0.484375 -0.0625,0.875 -0.46875,1.453125 -0.5625,0.828125 -1.5,1.9375 -2.3125,2.84375 0,0.046875 0.0625,0.125 0.09375,0.140625 h 3.375 c 0.0625,-0.171875 0.328125,-0.984375 0.53125,-1.453125 z m 0,0"
               style="stroke:none" />
          </symbol>
        </g>
      </defs>
      <g
         transform="translate(-149.134,-128.515)"
         id="g13619">
        <g
           id="g13617"
           style="fill:#000000;fill-opacity:1">
          <g
             transform="translate(148.712,134.765)"
             id="g13615">
            <path
               id="path13613"
               d="M 4.421875,-1.453125 C 4.375,-1.484375 4.25,-1.515625 4.21875,-1.515625 c -0.0625,0 -0.09375,0.015625 -0.109375,0.0625 -0.21875,0.5 -0.4375,0.75 -0.8125,0.75 h -1.9375 c 0.4375,-0.5 1.4375,-1.59375 2.125,-2.453125 C 3.8125,-3.5625 4.03125,-4.0625 4.03125,-4.625 c 0,-0.828125 -0.734375,-1.625 -1.671875,-1.625 -1.03125,0 -1.734375,1.078125 -1.796875,1.3125 0,0.046875 0.109375,0.15625 0.1875,0.15625 0.125,-0.1875 0.609375,-0.828125 1.390625,-0.828125 0.609375,0 1.0625,0.5 1.0625,1.171875 0,0.484375 -0.0625,0.875 -0.46875,1.453125 -0.5625,0.828125 -1.5,1.9375 -2.3125,2.84375 0,0.046875 0.0625,0.125 0.09375,0.140625 h 3.375 c 0.0625,-0.171875 0.328125,-0.984375 0.53125,-1.453125 z m 0,0"
               style="stroke:none" />
          </g>
        </g>
      </g>
    </g>
    <g
       id="g13643"
       style="fill:#000000;fill-opacity:1;stroke-width:0"
       ns2:jacobian_sqrt="0.423334"
       ns2:inkscapeversion="1.0"
       ns2:alignment="middle center"
       ns2:scale="1.1999998866143555"
       ns2:preamble="C:\\Users\\flvisa\\Desktop\\lna\\latexify_books\\textext_preamble.tex"
       ns2:text="$3$"
       ns2:pdfconverter="inkscape"
       ns2:texconverter="pdflatex"
       ns2:version="1.1.0"
       transform="matrix(0.24615385,0,0,0.24615385,93.055773,32.953341)">
      <defs
         id="defs13633">
        <g
           style="fill:#9e7867;fill-opacity:1;stroke-width:0"
           id="g13631">
          <symbol
             style="fill:#9e7867;fill-opacity:1;stroke-width:0"
             overflow="visible"
             id="symbol13625">
            <path
               style="fill:#9e7867;fill-opacity:1;stroke:none;stroke-width:0"
               d="M 0.5,0 H 4.484375 V -4.8125 H 0.5 Z M 1,-0.5 V -4.3125 H 3.984375 V -0.5 Z m 0,0"
               id="path13623" />
          </symbol>
          <symbol
             style="fill:#9e7867;fill-opacity:1;stroke-width:0"
             overflow="visible"
             id="symbol13629">
            <path
               style="fill:#9e7867;fill-opacity:1;stroke:none;stroke-width:0"
               d="m 2.515625,-6.25 c -0.765625,0 -1.3125,0.5 -1.625,0.953125 0,0.078125 0.0625,0.203125 0.125,0.203125 0.09375,-0.0625 0.46875,-0.640625 1.09375,-0.640625 0.546875,0 0.953125,0.390625 0.953125,0.90625 0,0.84375 -0.734375,1.265625 -1.515625,1.4375 -0.015625,0.03125 -0.015625,0.0625 -0.015625,0.09375 0,0.09375 0.015625,0.140625 0.046875,0.203125 0.125,-0.03125 0.375,-0.125 0.578125,-0.125 0.640625,0 1.25,0.578125 1.25,1.359375 0,1.125 -0.625,1.515625 -1.140625,1.515625 -0.265625,0 -0.53125,-0.0625 -0.71875,-0.25 C 1.390625,-0.75 1.265625,-1.015625 1,-1.015625 c -0.21875,0 -0.40625,0.1875 -0.40625,0.46875 0,0.15625 0.140625,0.328125 0.1875,0.375 0.3125,0.15625 0.734375,0.21875 1,0.21875 C 2.984375,0.046875 4.25,-0.78125 4.25,-2.125 4.25,-3.078125 3.453125,-3.609375 2.890625,-3.6875 3.234375,-3.890625 3.78125,-4.375 3.78125,-5 c 0,-0.796875 -0.765625,-1.25 -1.265625,-1.25 z m 0,0"
               id="path13627" />
          </symbol>
        </g>
      </defs>
      <g
         style="fill:#000000;fill-opacity:1;stroke-width:0"
         id="g13641"
         transform="translate(-149.306,-128.515)">
        <g
           style="fill:#000000;fill-opacity:1;stroke-width:0"
           id="g13639">
          <g
             id="g13637"
             style="fill:#000000;fill-opacity:1;stroke-width:0"
             transform="translate(148.712,134.765)">
            <path
               style="fill:#000000;fill-opacity:1;stroke:none;stroke-width:0"
               d="m 2.515625,-6.25 c -0.765625,0 -1.3125,0.5 -1.625,0.953125 0,0.078125 0.0625,0.203125 0.125,0.203125 0.09375,-0.0625 0.46875,-0.640625 1.09375,-0.640625 0.546875,0 0.953125,0.390625 0.953125,0.90625 0,0.84375 -0.734375,1.265625 -1.515625,1.4375 -0.015625,0.03125 -0.015625,0.0625 -0.015625,0.09375 0,0.09375 0.015625,0.140625 0.046875,0.203125 0.125,-0.03125 0.375,-0.125 0.578125,-0.125 0.640625,0 1.25,0.578125 1.25,1.359375 0,1.125 -0.625,1.515625 -1.140625,1.515625 -0.265625,0 -0.53125,-0.0625 -0.71875,-0.25 C 1.390625,-0.75 1.265625,-1.015625 1,-1.015625 c -0.21875,0 -0.40625,0.1875 -0.40625,0.46875 0,0.15625 0.140625,0.328125 0.1875,0.375 0.3125,0.15625 0.734375,0.21875 1,0.21875 C 2.984375,0.046875 4.25,-0.78125 4.25,-2.125 4.25,-3.078125 3.453125,-3.609375 2.890625,-3.6875 3.234375,-3.890625 3.78125,-4.375 3.78125,-5 c 0,-0.796875 -0.765625,-1.25 -1.265625,-1.25 z m 0,0"
               id="path13635" />
          </g>
        </g>
      </g>
    </g>
    <ellipse
       style="fill:none;stroke:#aa9e95;stroke-width:0.394068;stroke-linecap:round;stroke-linejoin:round;stroke-miterlimit:4;stroke-dasharray:none"
       id="ellipse13645"
       cx="93.633057"
       cy="25.371651"
       rx="11.556633"
       ry="10.80081" />
    <ellipse
       style="opacity:0.5;fill:#506a65;stroke:none;stroke-width:0.396875;stroke-linecap:round;stroke-linejoin:round;stroke-miterlimit:4;stroke-dasharray:none"
       id="ellipse13653"
       cx="123.77654"
       cy="25.489767"
       rx="12.710545"
       ry="11.966269" />
    <ellipse
       style="fill:#ffffff;stroke:#aa9e95;stroke-width:0.396875;stroke-linecap:round;stroke-linejoin:round;stroke-miterlimit:4;stroke-dasharray:none"
       id="ellipse13737"
       cx="124.06052"
       cy="25.427732"
       rx="11.412408"
       ry="10.830412" />
    <ellipse
       style="opacity:0.3;fill:#aa9e95;stroke:none;stroke-width:0.473521;stroke-linecap:round;stroke-linejoin:round;stroke-miterlimit:4;stroke-dasharray:none"
       id="ellipse13747"
       cx="124.06052"
       cy="24.893194"
       rx="11.418344"
       ry="10.301808" />
    <ellipse
       style="fill:#ffffff;stroke:#aa9e95;stroke-width:0.396875;stroke-linecap:round;stroke-linejoin:round;stroke-miterlimit:4;stroke-dasharray:none"
       id="ellipse13743"
       cx="124.06052"
       cy="23.941046"
       rx="11.42931"
       ry="9.3606262" />
    <ellipse
       style="opacity:0.3;fill:#aa9e95;stroke:none;stroke-width:0.389448;stroke-linecap:round;stroke-linejoin:round;stroke-miterlimit:4;stroke-dasharray:none"
       id="ellipse13745"
       cx="123.77654"
       cy="23.039011"
       rx="9.3723354"
       ry="8.4896622" />
    <ellipse
       style="opacity:1;fill:none;stroke:none;stroke-width:0.391586;stroke-linecap:round;stroke-linejoin:round;stroke-miterlimit:4;stroke-dasharray:none"
       id="ellipse13655"
       cx="123.96555"
       cy="25.371651"
       rx="11.410227"
       ry="10.802051" />
    <ellipse
       style="opacity:0.3;fill:none;stroke:none;stroke-width:0.391586;stroke-linecap:round;stroke-linejoin:round;stroke-miterlimit:4;stroke-dasharray:none"
       id="ellipse13657"
       cx="123.96555"
       cy="25.371651"
       rx="11.410227"
       ry="10.802051" />
    <ellipse
       style="fill:none;stroke:#aa9e95;stroke-width:0.396875;stroke-linecap:round;stroke-linejoin:round;stroke-miterlimit:4;stroke-dasharray:none"
       id="ellipse13661"
       cx="123.77654"
       cy="23.039011"
       rx="9.3723354"
       ry="8.4896622" />
    <ellipse
       style="fill:#ffffff;stroke:#aa9e95;stroke-width:0.396875;stroke-linecap:round;stroke-linejoin:round;stroke-miterlimit:4;stroke-dasharray:none"
       id="ellipse13665"
       cx="123.77654"
       cy="22.743948"
       rx="6.4629531"
       ry="6.0845103" />
    <g
       transform="matrix(0.24246766,0,0,0.24246766,123.6098,24.623927)"
       ns2:version="1.1.0"
       ns2:texconverter="pdflatex"
       ns2:pdfconverter="inkscape"
       ns2:text="$1$"
       ns2:preamble="C:\\Users\\flvisa\\Desktop\\lna\\latexify_books\\textext_preamble.tex"
       ns2:scale="1.199999773228722"
       ns2:alignment="middle center"
       ns2:inkscapeversion="1.0"
       ns2:jacobian_sqrt="0.423334"
       id="g13687">
      <defs
         id="defs13677">
        <g
           id="g13675">
          <symbol
             id="symbol13669"
             overflow="visible">
            <path
               id="path13667"
               d="M 0.5,0 H 4.484375 V -4.8125 H 0.5 Z M 1,-0.5 V -4.3125 H 3.984375 V -0.5 Z m 0,0"
               style="stroke:none" />
          </symbol>
          <symbol
             id="symbol13673"
             overflow="visible">
            <path
               id="path13671"
               d="m 2.171875,-1.125 c 0,0.28125 -0.015625,0.5625 -0.0625,0.71875 C 2.078125,-0.296875 1.609375,-0.25 1.5,-0.25 c -0.046875,0.046875 -0.046875,0.234375 0,0.28125 0.390625,-0.015625 0.65625,-0.046875 1.03125,-0.046875 0.375,0 0.6875,0.03125 1.09375,0.046875 0.046875,-0.046875 0.03125,-0.234375 0,-0.28125 C 3.5,-0.25 3.015625,-0.296875 2.984375,-0.40625 2.9375,-0.5625 2.9375,-0.84375 2.9375,-1.125 v -4.03125 c 0,-0.59375 0.078125,-0.9375 0.078125,-0.9375 0,-0.046875 -0.03125,-0.15625 -0.09375,-0.15625 H 2.90625 C 2.875,-6.25 2,-5.828125 1.203125,-5.46875 c -0.03125,0.015625 0,0.046875 0,0.0625 0,0.078125 0.03125,0.125 0.078125,0.171875 0.171875,-0.0625 0.546875,-0.203125 0.6875,-0.203125 0.140625,0 0.203125,0.09375 0.203125,0.375 z m 0,0"
               style="stroke:none" />
          </symbol>
        </g>
      </defs>
      <g
         transform="translate(-149.901,-128.515)"
         id="g13685">
        <g
           id="g13683"
           style="fill:#000000;fill-opacity:1">
          <g
             transform="translate(148.712,134.765)"
             id="g13681">
            <path
               id="path13679"
               d="m 2.171875,-1.125 c 0,0.28125 -0.015625,0.5625 -0.0625,0.71875 C 2.078125,-0.296875 1.609375,-0.25 1.5,-0.25 c -0.046875,0.046875 -0.046875,0.234375 0,0.28125 0.390625,-0.015625 0.65625,-0.046875 1.03125,-0.046875 0.375,0 0.6875,0.03125 1.09375,0.046875 0.046875,-0.046875 0.03125,-0.234375 0,-0.28125 C 3.5,-0.25 3.015625,-0.296875 2.984375,-0.40625 2.9375,-0.5625 2.9375,-0.84375 2.9375,-1.125 v -4.03125 c 0,-0.59375 0.078125,-0.9375 0.078125,-0.9375 0,-0.046875 -0.03125,-0.15625 -0.09375,-0.15625 H 2.90625 C 2.875,-6.25 2,-5.828125 1.203125,-5.46875 c -0.03125,0.015625 0,0.046875 0,0.0625 0,0.078125 0.03125,0.125 0.078125,0.171875 0.171875,-0.0625 0.546875,-0.203125 0.6875,-0.203125 0.140625,0 0.203125,0.09375 0.203125,0.375 z m 0,0"
               style="stroke:none" />
          </g>
        </g>
      </g>
    </g>
    <g
       transform="matrix(0.24370887,0,0,0.24370887,123.49013,29.397)"
       ns2:version="1.1.0"
       ns2:texconverter="pdflatex"
       ns2:pdfconverter="inkscape"
       ns2:text="$2$"
       ns2:preamble="C:\\Users\\flvisa\\Desktop\\lna\\latexify_books\\textext_preamble.tex"
       ns2:scale="1.1999997448823154"
       ns2:alignment="middle center"
       ns2:inkscapeversion="1.0"
       ns2:jacobian_sqrt="0.423334"
       id="g13709">
      <defs
         id="defs13699">
        <g
           id="g13697">
          <symbol
             id="symbol13691"
             overflow="visible">
            <path
               id="path13689"
               d="M 0.5,0 H 4.484375 V -4.8125 H 0.5 Z M 1,-0.5 V -4.3125 H 3.984375 V -0.5 Z m 0,0"
               style="stroke:none" />
          </symbol>
          <symbol
             id="symbol13695"
             overflow="visible">
            <path
               id="path13693"
               d="M 4.421875,-1.453125 C 4.375,-1.484375 4.25,-1.515625 4.21875,-1.515625 c -0.0625,0 -0.09375,0.015625 -0.109375,0.0625 -0.21875,0.5 -0.4375,0.75 -0.8125,0.75 h -1.9375 c 0.4375,-0.5 1.4375,-1.59375 2.125,-2.453125 C 3.8125,-3.5625 4.03125,-4.0625 4.03125,-4.625 c 0,-0.828125 -0.734375,-1.625 -1.671875,-1.625 -1.03125,0 -1.734375,1.078125 -1.796875,1.3125 0,0.046875 0.109375,0.15625 0.1875,0.15625 0.125,-0.1875 0.609375,-0.828125 1.390625,-0.828125 0.609375,0 1.0625,0.5 1.0625,1.171875 0,0.484375 -0.0625,0.875 -0.46875,1.453125 -0.5625,0.828125 -1.5,1.9375 -2.3125,2.84375 0,0.046875 0.0625,0.125 0.09375,0.140625 h 3.375 c 0.0625,-0.171875 0.328125,-0.984375 0.53125,-1.453125 z m 0,0"
               style="stroke:none" />
          </symbol>
        </g>
      </defs>
      <g
         transform="translate(-149.134,-128.515)"
         id="g13707">
        <g
           id="g13705"
           style="fill:#000000;fill-opacity:1">
          <g
             transform="translate(148.712,134.765)"
             id="g13703">
            <path
               id="path13701"
               d="M 4.421875,-1.453125 C 4.375,-1.484375 4.25,-1.515625 4.21875,-1.515625 c -0.0625,0 -0.09375,0.015625 -0.109375,0.0625 -0.21875,0.5 -0.4375,0.75 -0.8125,0.75 h -1.9375 c 0.4375,-0.5 1.4375,-1.59375 2.125,-2.453125 C 3.8125,-3.5625 4.03125,-4.0625 4.03125,-4.625 c 0,-0.828125 -0.734375,-1.625 -1.671875,-1.625 -1.03125,0 -1.734375,1.078125 -1.796875,1.3125 0,0.046875 0.109375,0.15625 0.1875,0.15625 0.125,-0.1875 0.609375,-0.828125 1.390625,-0.828125 0.609375,0 1.0625,0.5 1.0625,1.171875 0,0.484375 -0.0625,0.875 -0.46875,1.453125 -0.5625,0.828125 -1.5,1.9375 -2.3125,2.84375 0,0.046875 0.0625,0.125 0.09375,0.140625 h 3.375 c 0.0625,-0.171875 0.328125,-0.984375 0.53125,-1.453125 z m 0,0"
               style="stroke:none" />
          </g>
        </g>
      </g>
    </g>
    <g
       id="g13731"
       style="fill:#000000;fill-opacity:1;stroke-width:0"
       ns2:jacobian_sqrt="0.423334"
       ns2:inkscapeversion="1.0"
       ns2:alignment="middle center"
       ns2:scale="1.1999998866143555"
       ns2:preamble="C:\\Users\\flvisa\\Desktop\\lna\\latexify_books\\textext_preamble.tex"
       ns2:text="$3$"
       ns2:pdfconverter="inkscape"
       ns2:texconverter="pdflatex"
       ns2:version="1.1.0"
       transform="matrix(0.24615385,0,0,0.24615385,123.41795,31.595)">
      <defs
         id="defs13721">
        <g
           style="fill:#9e7867;fill-opacity:1;stroke-width:0"
           id="g13719">
          <symbol
             style="fill:#9e7867;fill-opacity:1;stroke-width:0"
             overflow="visible"
             id="symbol13713">
            <path
               style="fill:#9e7867;fill-opacity:1;stroke:none;stroke-width:0"
               d="M 0.5,0 H 4.484375 V -4.8125 H 0.5 Z M 1,-0.5 V -4.3125 H 3.984375 V -0.5 Z m 0,0"
               id="path13711" />
          </symbol>
          <symbol
             style="fill:#9e7867;fill-opacity:1;stroke-width:0"
             overflow="visible"
             id="symbol13717">
            <path
               style="fill:#9e7867;fill-opacity:1;stroke:none;stroke-width:0"
               d="m 2.515625,-6.25 c -0.765625,0 -1.3125,0.5 -1.625,0.953125 0,0.078125 0.0625,0.203125 0.125,0.203125 0.09375,-0.0625 0.46875,-0.640625 1.09375,-0.640625 0.546875,0 0.953125,0.390625 0.953125,0.90625 0,0.84375 -0.734375,1.265625 -1.515625,1.4375 -0.015625,0.03125 -0.015625,0.0625 -0.015625,0.09375 0,0.09375 0.015625,0.140625 0.046875,0.203125 0.125,-0.03125 0.375,-0.125 0.578125,-0.125 0.640625,0 1.25,0.578125 1.25,1.359375 0,1.125 -0.625,1.515625 -1.140625,1.515625 -0.265625,0 -0.53125,-0.0625 -0.71875,-0.25 C 1.390625,-0.75 1.265625,-1.015625 1,-1.015625 c -0.21875,0 -0.40625,0.1875 -0.40625,0.46875 0,0.15625 0.140625,0.328125 0.1875,0.375 0.3125,0.15625 0.734375,0.21875 1,0.21875 C 2.984375,0.046875 4.25,-0.78125 4.25,-2.125 4.25,-3.078125 3.453125,-3.609375 2.890625,-3.6875 3.234375,-3.890625 3.78125,-4.375 3.78125,-5 c 0,-0.796875 -0.765625,-1.25 -1.265625,-1.25 z m 0,0"
               id="path13715" />
          </symbol>
        </g>
      </defs>
      <g
         style="fill:#000000;fill-opacity:1;stroke-width:0"
         id="g13729"
         transform="translate(-149.306,-128.515)">
        <g
           style="fill:#000000;fill-opacity:1;stroke-width:0"
           id="g13727">
          <g
             id="g13725"
             style="fill:#000000;fill-opacity:1;stroke-width:0"
             transform="translate(148.712,134.765)">
            <path
               style="fill:#000000;fill-opacity:1;stroke:none;stroke-width:0"
               d="m 2.515625,-6.25 c -0.765625,0 -1.3125,0.5 -1.625,0.953125 0,0.078125 0.0625,0.203125 0.125,0.203125 0.09375,-0.0625 0.46875,-0.640625 1.09375,-0.640625 0.546875,0 0.953125,0.390625 0.953125,0.90625 0,0.84375 -0.734375,1.265625 -1.515625,1.4375 -0.015625,0.03125 -0.015625,0.0625 -0.015625,0.09375 0,0.09375 0.015625,0.140625 0.046875,0.203125 0.125,-0.03125 0.375,-0.125 0.578125,-0.125 0.640625,0 1.25,0.578125 1.25,1.359375 0,1.125 -0.625,1.515625 -1.140625,1.515625 -0.265625,0 -0.53125,-0.0625 -0.71875,-0.25 C 1.390625,-0.75 1.265625,-1.015625 1,-1.015625 c -0.21875,0 -0.40625,0.1875 -0.40625,0.46875 0,0.15625 0.140625,0.328125 0.1875,0.375 0.3125,0.15625 0.734375,0.21875 1,0.21875 C 2.984375,0.046875 4.25,-0.78125 4.25,-2.125 4.25,-3.078125 3.453125,-3.609375 2.890625,-3.6875 3.234375,-3.890625 3.78125,-4.375 3.78125,-5 c 0,-0.796875 -0.765625,-1.25 -1.265625,-1.25 z m 0,0"
               id="path13723" />
          </g>
        </g>
      </g>
    </g>
    <ellipse
       style="fill:none;stroke:#aa9e95;stroke-width:0.396875;stroke-linecap:round;stroke-linejoin:round;stroke-miterlimit:4;stroke-dasharray:none"
       id="ellipse13741"
       cx="124.08331"
       cy="24.792969"
       rx="11.526937"
       ry="10.399783" />
    <g
       transform="matrix(0.24493827,0,0,0.24493827,93.002564,34.653271)"
       ns2:version="1.1.0"
       ns2:texconverter="pdflatex"
       ns2:pdfconverter="inkscape"
       ns2:text="$4$"
       ns2:preamble="C:\\Users\\flvisa\\Desktop\\lna\\latexify_books\\textext_preamble.tex"
       ns2:scale="0.9002470389576935"
       ns2:alignment="middle center"
       ns2:inkscapeversion="1.0"
       ns2:jacobian_sqrt="0.317588"
       style="fill:#000000;fill-opacity:1;stroke-width:0"
       id="g38494">
      <defs
         id="id-b26b0405-8982-4621-8f53-9d54ac0d5a4e">
        <g
           id="g13796"
           style="fill:#000000;fill-opacity:1;stroke-width:0">
          <symbol
             id="symbol13790"
             overflow="visible"
             style="fill:#000000;fill-opacity:1;stroke-width:0">
            <path
               id="path13788"
               d="M 0.5,0 H 4.484375 V -4.8125 H 0.5 Z M 1,-0.5 V -4.3125 H 3.984375 V -0.5 Z m 0,0"
               style="fill:#000000;fill-opacity:1;stroke:none;stroke-width:0" />
          </symbol>
          <symbol
             id="symbol13794"
             overflow="visible"
             style="fill:#000000;fill-opacity:1;stroke-width:0">
            <path
               id="path13792"
               d="m 3.734375,-6.265625 c -0.078125,0 -0.25,0.171875 -0.3125,0.25 L 0.265625,-1.875 c 0,0.0625 0.03125,0.140625 0.09375,0.1875 H 3.09375 v 1.671875 c 0,0.0625 0.125,0.078125 0.359375,0.078125 0.375,0 0.421875,-0.046875 0.421875,-0.046875 V -1.6875 H 4.546875 C 4.5625,-1.71875 4.578125,-1.765625 4.578125,-1.859375 4.578125,-2.0625 4.5,-2.25 4.453125,-2.25 H 3.875 v -3.84375 c 0,-0.078125 -0.046875,-0.171875 -0.140625,-0.171875 z M 3.09375,-5.109375 V -2.25 H 0.921875 Z m 0,0"
               style="fill:#000000;fill-opacity:1;stroke:none;stroke-width:0" />
          </symbol>
        </g>
      </defs>
      <g
         transform="translate(-148.978,-128.499)"
         id="id-b2c34f68-0c47-4586-bdf3-2c2084584931"
         style="fill:#000000;fill-opacity:1;stroke-width:0">
        <g
           id="id-fa0630a2-7913-45ca-b891-d3a58fc1d27c"
           style="fill:#000000;fill-opacity:1;stroke-width:0">
          <g
             transform="translate(148.712,134.765)"
             style="fill:#000000;fill-opacity:1;stroke-width:0"
             id="g38490">
            <path
               id="id-e718d947-2e12-4663-b402-b5170008b1a3"
               d="m 3.734375,-6.265625 c -0.078125,0 -0.25,0.171875 -0.3125,0.25 L 0.265625,-1.875 c 0,0.0625 0.03125,0.140625 0.09375,0.1875 H 3.09375 v 1.671875 c 0,0.0625 0.125,0.078125 0.359375,0.078125 0.375,0 0.421875,-0.046875 0.421875,-0.046875 V -1.6875 H 4.546875 C 4.5625,-1.71875 4.578125,-1.765625 4.578125,-1.859375 4.578125,-2.0625 4.5,-2.25 4.453125,-2.25 H 3.875 v -3.84375 c 0,-0.078125 -0.046875,-0.171875 -0.140625,-0.171875 z M 3.09375,-5.109375 V -2.25 H 0.921875 Z m 0,0"
               style="fill:#000000;fill-opacity:1;stroke:none;stroke-width:0" />
          </g>
        </g>
      </g>
    </g>
    <g
       transform="matrix(0.24493827,0,0,0.24493827,123.16521,33.494908)"
       ns2:version="1.1.0"
       ns2:texconverter="pdflatex"
       ns2:pdfconverter="inkscape"
       ns2:text="$4$"
       ns2:preamble="C:\\Users\\flvisa\\Desktop\\lna\\latexify_books\\textext_preamble.tex"
       ns2:scale="0.9002470389576935"
       ns2:alignment="middle center"
       ns2:inkscapeversion="1.0"
       ns2:jacobian_sqrt="0.317588"
       style="fill:#000000;fill-opacity:1;stroke-width:0"
       id="g13824">
      <defs
         id="defs13814">
        <g
           id="g13812"
           style="fill:#000000;fill-opacity:1;stroke-width:0">
          <symbol
             id="symbol13806"
             overflow="visible"
             style="fill:#000000;fill-opacity:1;stroke-width:0">
            <path
               id="path13804"
               d="M 0.5,0 H 4.484375 V -4.8125 H 0.5 Z M 1,-0.5 V -4.3125 H 3.984375 V -0.5 Z m 0,0"
               style="fill:#000000;fill-opacity:1;stroke:none;stroke-width:0" />
          </symbol>
          <symbol
             id="symbol13810"
             overflow="visible"
             style="fill:#000000;fill-opacity:1;stroke-width:0">
            <path
               id="path13808"
               d="m 3.734375,-6.265625 c -0.078125,0 -0.25,0.171875 -0.3125,0.25 L 0.265625,-1.875 c 0,0.0625 0.03125,0.140625 0.09375,0.1875 H 3.09375 v 1.671875 c 0,0.0625 0.125,0.078125 0.359375,0.078125 0.375,0 0.421875,-0.046875 0.421875,-0.046875 V -1.6875 H 4.546875 C 4.5625,-1.71875 4.578125,-1.765625 4.578125,-1.859375 4.578125,-2.0625 4.5,-2.25 4.453125,-2.25 H 3.875 v -3.84375 c 0,-0.078125 -0.046875,-0.171875 -0.140625,-0.171875 z M 3.09375,-5.109375 V -2.25 H 0.921875 Z m 0,0"
               style="fill:#000000;fill-opacity:1;stroke:none;stroke-width:0" />
          </symbol>
        </g>
      </defs>
      <g
         transform="translate(-148.978,-128.499)"
         id="g13822"
         style="fill:#000000;fill-opacity:1;stroke-width:0">
        <g
           id="g13820"
           style="fill:#000000;fill-opacity:1;stroke-width:0">
          <g
             transform="translate(148.712,134.765)"
             style="fill:#000000;fill-opacity:1;stroke-width:0"
             id="g13818">
            <path
               id="path13816"
               d="m 3.734375,-6.265625 c -0.078125,0 -0.25,0.171875 -0.3125,0.25 L 0.265625,-1.875 c 0,0.0625 0.03125,0.140625 0.09375,0.1875 H 3.09375 v 1.671875 c 0,0.0625 0.125,0.078125 0.359375,0.078125 0.375,0 0.421875,-0.046875 0.421875,-0.046875 V -1.6875 H 4.546875 C 4.5625,-1.71875 4.578125,-1.765625 4.578125,-1.859375 4.578125,-2.0625 4.5,-2.25 4.453125,-2.25 H 3.875 v -3.84375 c 0,-0.078125 -0.046875,-0.171875 -0.140625,-0.171875 z M 3.09375,-5.109375 V -2.25 H 0.921875 Z m 0,0"
               style="fill:#000000;fill-opacity:1;stroke:none;stroke-width:0" />
          </g>
        </g>
      </g>
    </g>
    <g
       id="g22538"
       style="fill:#000000;stroke-width:0"
       ns2:jacobian_sqrt="0.278814"
       ns2:inkscapeversion="1.0"
       ns2:alignment="middle center"
       ns2:scale="0.7903366712490167"
       ns2:preamble="C:\\Users\\flvisa\\Desktop\\lna\\latexify_books\\textext_preamble.tex"
       ns2:text="$5$"
       ns2:pdfconverter="inkscape"
       ns2:texconverter="pdflatex"
       ns2:version="1.1.0"
       transform="matrix(0.24554455,0,0,0.24554455,123.29298,35.340413)">
      <defs
         id="id-0021b63d-1125-4cef-9727-1c3cd3938b14">
        <g
           style="fill:#000000;stroke-width:0"
           id="g14045">
          <symbol
             style="fill:#000000;stroke-width:0"
             overflow="visible"
             id="symbol14039">
            <path
               style="fill:#000000;stroke:none;stroke-width:0"
               d="M 0.5,0 H 4.484375 V -4.8125 H 0.5 Z M 1,-0.5 V -4.3125 H 3.984375 V -0.5 Z m 0,0"
               id="path14037" />
          </symbol>
          <symbol
             style="fill:#000000;stroke-width:0"
             overflow="visible"
             id="symbol14043">
            <path
               style="fill:#000000;stroke:none;stroke-width:0"
               d="m 2.421875,-3.84375 c -0.265625,0 -0.765625,0.078125 -1.03125,0.1875 0.109375,-0.546875 0.21875,-1.171875 0.34375,-1.75 h 0.8125 c 0.515625,0 0.875,-0.03125 1.140625,-0.0625 0.1875,-0.21875 0.296875,-0.625 0.296875,-0.6875 0,-0.046875 -0.0625,-0.078125 -0.125,-0.109375 0,0 -0.5,0.078125 -0.90625,0.078125 H 1.53125 c -0.109375,0.609375 -0.359375,1.8125 -0.578125,2.890625 0,0.078125 0.046875,0.140625 0.078125,0.140625 0.171875,-0.078125 0.609375,-0.140625 0.828125,-0.140625 1.125,0 1.546875,0.828125 1.546875,1.4375 0,1.125 -0.625,1.515625 -1.140625,1.515625 -0.265625,0 -0.53125,-0.0625 -0.71875,-0.25 C 1.390625,-0.75 1.265625,-1.015625 1,-1.015625 c -0.21875,0 -0.40625,0.1875 -0.40625,0.46875 0,0.15625 0.140625,0.328125 0.1875,0.375 0.3125,0.15625 0.734375,0.21875 1,0.21875 1.203125,0 2.46875,-0.828125 2.46875,-2.171875 0,-0.828125 -0.6875,-1.71875 -1.828125,-1.71875 z m 0,0"
               id="path14041" />
          </symbol>
        </g>
      </defs>
      <g
         style="fill:#000000;stroke-width:0"
         id="id-4f9da523-1e76-4ef3-8207-46fcdf23b50d"
         transform="translate(-149.306,-128.499)">
        <g
           style="fill:#000000;fill-opacity:1;stroke-width:0"
           id="id-6adf61f7-cb70-4e5b-89b0-701e6e19cf0b">
          <g
             id="g22534"
             style="fill:#000000;stroke-width:0"
             transform="translate(148.712,134.765)">
            <path
               style="fill:#000000;stroke:none;stroke-width:0"
               d="m 2.421875,-3.84375 c -0.265625,0 -0.765625,0.078125 -1.03125,0.1875 0.109375,-0.546875 0.21875,-1.171875 0.34375,-1.75 h 0.8125 c 0.515625,0 0.875,-0.03125 1.140625,-0.0625 0.1875,-0.21875 0.296875,-0.625 0.296875,-0.6875 0,-0.046875 -0.0625,-0.078125 -0.125,-0.109375 0,0 -0.5,0.078125 -0.90625,0.078125 H 1.53125 c -0.109375,0.609375 -0.359375,1.8125 -0.578125,2.890625 0,0.078125 0.046875,0.140625 0.078125,0.140625 0.171875,-0.078125 0.609375,-0.140625 0.828125,-0.140625 1.125,0 1.546875,0.828125 1.546875,1.4375 0,1.125 -0.625,1.515625 -1.140625,1.515625 -0.265625,0 -0.53125,-0.0625 -0.71875,-0.25 C 1.390625,-0.75 1.265625,-1.015625 1,-1.015625 c -0.21875,0 -0.40625,0.1875 -0.40625,0.46875 0,0.15625 0.140625,0.328125 0.1875,0.375 0.3125,0.15625 0.734375,0.21875 1,0.21875 1.203125,0 2.46875,-0.828125 2.46875,-2.171875 0,-0.828125 -0.6875,-1.71875 -1.828125,-1.71875 z m 0,0"
               id="id-389ffe11-62bd-4f7e-affc-327935f4355c" />
          </g>
        </g>
      </g>
    </g>
    <g
       id="g6439"
       style="fill:#000000;stroke-width:0"
       ns2:jacobian_sqrt="0.423334"
       ns2:inkscapeversion="1.0"
       ns2:alignment="middle center"
       ns2:scale="1.199999773228722"
       ns2:preamble="C:\\Users\\flvisa\\Desktop\\lna\\latexify_books\\textext_preamble.tex"
       ns2:text="(a)"
       ns2:pdfconverter="inkscape"
       ns2:texconverter="pdflatex"
       ns2:version="1.1.0"
       transform="matrix(0.42333399,0,0,0.42333399,61.60317,38.951442)">
      <defs
         id="id-bfc48e17-d46c-42ce-8412-2ed8706fcb1d">
        <g
           style="fill:#000000;stroke-width:0"
           id="g14232">
          <symbol
             style="fill:#000000;stroke-width:0"
             overflow="visible"
             id="symbol14218">
            <path
               style="fill:#000000;stroke:none;stroke-width:0"
               d="M 0.5,0 H 4.484375 V -4.8125 H 0.5 Z M 1,-0.5 V -4.3125 H 3.984375 V -0.5 Z m 0,0"
               id="path14216" />
          </symbol>
          <symbol
             style="fill:#000000;stroke-width:0"
             overflow="visible"
             id="symbol14222">
            <path
               style="fill:#000000;stroke:none;stroke-width:0"
               d="M 1.0625,-2.765625 C 1.0625,-4.3125 1.578125,-6 2.5,-6.8125 c 0,0 -0.125,-0.140625 -0.203125,-0.1875 -1.125,0.90625 -1.9375,2.328125 -1.9375,4.234375 0,1.875 0.8125,3.328125 1.9375,4.21875 C 2.375,1.421875 2.5,1.265625 2.5,1.265625 1.578125,0.453125 1.0625,-1.25 1.0625,-2.765625 Z m 0,0"
               id="path14220" />
          </symbol>
          <symbol
             style="fill:#000000;stroke-width:0"
             overflow="visible"
             id="symbol14226">
            <path
               style="fill:#000000;stroke:none;stroke-width:0"
               d="m 1.84375,-0.453125 c -0.375,0 -0.671875,-0.328125 -0.671875,-0.6875 0,-0.390625 0.25,-0.640625 0.609375,-0.78125 C 1.96875,-2 2.453125,-2.140625 2.71875,-2.21875 v 1.359375 c 0,0.109375 -0.53125,0.40625 -0.875,0.40625 z M 2.375,-4.34375 c -0.71875,0 -1.484375,0.53125 -1.78125,0.8125 -0.046875,0.046875 -0.078125,0.203125 -0.078125,0.234375 0,0.21875 0.125,0.421875 0.328125,0.421875 0.25,0 0.40625,-0.140625 0.46875,-0.46875 0.0625,-0.390625 0.1875,-0.640625 0.546875,-0.640625 0.484375,0 0.859375,0.515625 0.859375,0.96875 V -2.75 c 0,0.171875 -0.03125,0.21875 -0.125,0.25 -0.28125,0.140625 -1.171875,0.421875 -1.71875,0.625 -0.234375,0.078125 -0.5,0.40625 -0.5,0.8125 0,0.640625 0.5,1.140625 1.140625,1.140625 0.34375,0 1.109375,-0.53125 1.21875,-0.65625 C 2.796875,-0.28125 3.0625,0.0625 3.34375,0.0625 c 0.203125,0 0.609375,-0.265625 0.734375,-0.375 C 4.109375,-0.359375 4.125,-0.4375 4.125,-0.5 c 0,-0.03125 -0.015625,-0.078125 -0.03125,-0.078125 -0.03125,0.015625 -0.15625,0.125 -0.328125,0.125 -0.234375,0 -0.3125,-0.203125 -0.3125,-0.46875 V -2.96875 c 0,-0.765625 -0.515625,-1.375 -1.078125,-1.375 z m 0,0"
               id="path14224" />
          </symbol>
          <symbol
             style="fill:#000000;stroke-width:0"
             overflow="visible"
             id="symbol14230">
            <path
               style="fill:#000000;stroke:none;stroke-width:0"
               d="M 2.1875,-2.765625 C 2.1875,-4.671875 1.375,-6.09375 0.234375,-7 c -0.0625,0.046875 -0.1875,0.1875 -0.171875,0.1875 0.921875,0.8125 1.40625,2.5 1.40625,4.046875 0,1.515625 -0.484375,3.21875 -1.40625,4.03125 -0.015625,0 0.109375,0.15625 0.171875,0.1875 C 1.375,0.5625 2.1875,-0.890625 2.1875,-2.765625 Z m 0,0"
               id="path14228" />
          </symbol>
        </g>
      </defs>
      <g
         style="fill:#000000;stroke-width:0"
         id="id-412cdaa6-c35c-428f-88e3-afe4b0676dd6"
         transform="translate(-149.071,-127.765)">
        <g
           style="fill:#000000;fill-opacity:1;stroke-width:0"
           id="id-807f0546-f8a6-4195-944c-97dad4429a1b">
          <g
             id="g6427"
             style="fill:#000000;stroke-width:0"
             transform="translate(148.712,134.765)">
            <path
               style="fill:#000000;stroke:none;stroke-width:0"
               d="M 1.0625,-2.765625 C 1.0625,-4.3125 1.578125,-6 2.5,-6.8125 c 0,0 -0.125,-0.140625 -0.203125,-0.1875 -1.125,0.90625 -1.9375,2.328125 -1.9375,4.234375 0,1.875 0.8125,3.328125 1.9375,4.21875 C 2.375,1.421875 2.5,1.265625 2.5,1.265625 1.578125,0.453125 1.0625,-1.25 1.0625,-2.765625 Z m 0,0"
               id="id-075e525f-edc0-4aaf-9d9d-5e922c3b3664" />
          </g>
        </g>
        <g
           style="fill:#000000;fill-opacity:1;stroke-width:0"
           id="id-f15d244d-a9c9-4b5f-8302-9f1984458999">
          <g
             id="g6431"
             style="fill:#000000;stroke-width:0"
             transform="translate(151.013,134.765)">
            <path
               style="fill:#000000;stroke:none;stroke-width:0"
               d="m 1.84375,-0.453125 c -0.375,0 -0.671875,-0.328125 -0.671875,-0.6875 0,-0.390625 0.25,-0.640625 0.609375,-0.78125 C 1.96875,-2 2.453125,-2.140625 2.71875,-2.21875 v 1.359375 c 0,0.109375 -0.53125,0.40625 -0.875,0.40625 z M 2.375,-4.34375 c -0.71875,0 -1.484375,0.53125 -1.78125,0.8125 -0.046875,0.046875 -0.078125,0.203125 -0.078125,0.234375 0,0.21875 0.125,0.421875 0.328125,0.421875 0.25,0 0.40625,-0.140625 0.46875,-0.46875 0.0625,-0.390625 0.1875,-0.640625 0.546875,-0.640625 0.484375,0 0.859375,0.515625 0.859375,0.96875 V -2.75 c 0,0.171875 -0.03125,0.21875 -0.125,0.25 -0.28125,0.140625 -1.171875,0.421875 -1.71875,0.625 -0.234375,0.078125 -0.5,0.40625 -0.5,0.8125 0,0.640625 0.5,1.140625 1.140625,1.140625 0.34375,0 1.109375,-0.53125 1.21875,-0.65625 C 2.796875,-0.28125 3.0625,0.0625 3.34375,0.0625 c 0.203125,0 0.609375,-0.265625 0.734375,-0.375 C 4.109375,-0.359375 4.125,-0.4375 4.125,-0.5 c 0,-0.03125 -0.015625,-0.078125 -0.03125,-0.078125 -0.03125,0.015625 -0.15625,0.125 -0.328125,0.125 -0.234375,0 -0.3125,-0.203125 -0.3125,-0.46875 V -2.96875 c 0,-0.765625 -0.515625,-1.375 -1.078125,-1.375 z m 0,0"
               id="id-21f545d2-8f9a-4a0f-8d04-06c6cc127786" />
          </g>
        </g>
        <g
           style="fill:#000000;fill-opacity:1;stroke-width:0"
           id="id-6c9c1a3d-30d4-4470-8fbe-a6830b19de24">
          <g
             id="g6435"
             style="fill:#000000;stroke-width:0"
             transform="translate(155.108,134.765)">
            <path
               style="fill:#000000;stroke:none;stroke-width:0"
               d="M 2.1875,-2.765625 C 2.1875,-4.671875 1.375,-6.09375 0.234375,-7 c -0.0625,0.046875 -0.1875,0.1875 -0.171875,0.1875 0.921875,0.8125 1.40625,2.5 1.40625,4.046875 0,1.515625 -0.484375,3.21875 -1.40625,4.03125 -0.015625,0 0.109375,0.15625 0.171875,0.1875 C 1.375,0.5625 2.1875,-0.890625 2.1875,-2.765625 Z m 0,0"
               id="id-1a2c5bf8-b996-4587-8d65-19b19ebd0515" />
          </g>
        </g>
      </g>
    </g>
    <g
       id="g7059"
       style="fill:#000000;stroke-width:0"
       ns2:jacobian_sqrt="0.423334"
       ns2:inkscapeversion="1.0"
       ns2:alignment="middle center"
       ns2:scale="1.1999997448823154"
       ns2:preamble="C:\\Users\\flvisa\\Desktop\\lna\\latexify_books\\textext_preamble.tex"
       ns2:text="(b)"
       ns2:pdfconverter="inkscape"
       ns2:texconverter="pdflatex"
       ns2:version="1.1.0"
       transform="matrix(0.42333399,0,0,0.42333399,91.615579,38.951)">
      <defs
         id="id-3fb34fbc-c86b-4450-9731-65ba8a734e8b">
        <g
           style="fill:#000000;stroke-width:0"
           id="g14262">
          <symbol
             style="fill:#000000;stroke-width:0"
             overflow="visible"
             id="symbol14248">
            <path
               style="fill:#000000;stroke:none;stroke-width:0"
               d="M 0.5,0 H 4.484375 V -4.8125 H 0.5 Z M 1,-0.5 V -4.3125 H 3.984375 V -0.5 Z m 0,0"
               id="path14246" />
          </symbol>
          <symbol
             style="fill:#000000;stroke-width:0"
             overflow="visible"
             id="symbol14252">
            <path
               style="fill:#000000;stroke:none;stroke-width:0"
               d="M 1.0625,-2.765625 C 1.0625,-4.3125 1.578125,-6 2.5,-6.8125 c 0,0 -0.125,-0.140625 -0.203125,-0.1875 -1.125,0.90625 -1.9375,2.328125 -1.9375,4.234375 0,1.875 0.8125,3.328125 1.9375,4.21875 C 2.375,1.421875 2.5,1.265625 2.5,1.265625 1.578125,0.453125 1.0625,-1.25 1.0625,-2.765625 Z m 0,0"
               id="path14250" />
          </symbol>
          <symbol
             style="fill:#000000;stroke-width:0"
             overflow="visible"
             id="symbol14256">
            <path
               style="fill:#000000;stroke:none;stroke-width:0"
               d="m 2.09375,0.0625 c 1.40625,0 2.4375,-1.0625 2.4375,-2.328125 0,-0.890625 -0.625,-2 -1.8125,-2 -0.375,0 -1.046875,0.421875 -1.203125,0.53125 C 1.453125,-3.6875 1.46875,-3.78125 1.46875,-3.84375 V -5.75 c 0,-0.546875 0.09375,-0.84375 0.09375,-0.84375 0,-0.078125 -0.046875,-0.171875 -0.09375,-0.171875 C 1.046875,-6.5625 0.5625,-6.421875 0.0625,-6.375 c -0.046875,0.015625 -0.015625,0.265625 -0.015625,0.265625 0.28125,0 0.546875,0.03125 0.609375,0.171875 0.046875,0.109375 0.046875,0.375 0.046875,0.5 v 4.375 c 0,0.1875 -0.015625,0.515625 -0.109375,0.71875 0,0.046875 0.078125,0.203125 0.125,0.203125 0.21875,-0.078125 0.421875,0 0.640625,0.0625 C 1.578125,-0.015625 1.9375,0.0625 2.09375,0.0625 Z M 2.25,-3.6875 c 0.890625,0 1.453125,0.671875 1.453125,1.796875 0,0.796875 -0.609375,1.625 -1.328125,1.625 -0.4375,0 -0.90625,-0.265625 -0.90625,-0.6875 V -3.3125 c 0,-0.0625 0,-0.09375 0.03125,-0.109375 C 1.59375,-3.515625 2,-3.6875 2.25,-3.6875 Z m 0,0"
               id="path14254" />
          </symbol>
          <symbol
             style="fill:#000000;stroke-width:0"
             overflow="visible"
             id="symbol14260">
            <path
               style="fill:#000000;stroke:none;stroke-width:0"
               d="M 2.1875,-2.765625 C 2.1875,-4.671875 1.375,-6.09375 0.234375,-7 c -0.0625,0.046875 -0.1875,0.1875 -0.171875,0.1875 0.921875,0.8125 1.40625,2.5 1.40625,4.046875 0,1.515625 -0.484375,3.21875 -1.40625,4.03125 -0.015625,0 0.109375,0.15625 0.171875,0.1875 C 1.375,0.5625 2.1875,-0.890625 2.1875,-2.765625 Z m 0,0"
               id="path14258" />
          </symbol>
        </g>
      </defs>
      <g
         style="fill:#000000;stroke-width:0"
         id="id-18ff5d7c-4f88-4ce5-8586-4362d264fb7f"
         transform="translate(-149.071,-127.765)">
        <g
           style="fill:#000000;fill-opacity:1;stroke-width:0"
           id="id-cd9c4bd4-af9c-4951-8c1c-5a396856dbfe">
          <g
             id="g7048"
             style="fill:#000000;stroke-width:0"
             transform="translate(148.712,134.765)">
            <path
               style="fill:#000000;stroke:none;stroke-width:0"
               d="M 1.0625,-2.765625 C 1.0625,-4.3125 1.578125,-6 2.5,-6.8125 c 0,0 -0.125,-0.140625 -0.203125,-0.1875 -1.125,0.90625 -1.9375,2.328125 -1.9375,4.234375 0,1.875 0.8125,3.328125 1.9375,4.21875 C 2.375,1.421875 2.5,1.265625 2.5,1.265625 1.578125,0.453125 1.0625,-1.25 1.0625,-2.765625 Z m 0,0"
               id="id-3ae1ebc5-b1f1-48fd-9c87-de5a36943d13" />
          </g>
          <g
             id="g7051"
             style="fill:#000000;stroke-width:0"
             transform="translate(151.252,134.765)">
            <path
               style="fill:#000000;stroke:none;stroke-width:0"
               d="m 2.09375,0.0625 c 1.40625,0 2.4375,-1.0625 2.4375,-2.328125 0,-0.890625 -0.625,-2 -1.8125,-2 -0.375,0 -1.046875,0.421875 -1.203125,0.53125 C 1.453125,-3.6875 1.46875,-3.78125 1.46875,-3.84375 V -5.75 c 0,-0.546875 0.09375,-0.84375 0.09375,-0.84375 0,-0.078125 -0.046875,-0.171875 -0.09375,-0.171875 C 1.046875,-6.5625 0.5625,-6.421875 0.0625,-6.375 c -0.046875,0.015625 -0.015625,0.265625 -0.015625,0.265625 0.28125,0 0.546875,0.03125 0.609375,0.171875 0.046875,0.109375 0.046875,0.375 0.046875,0.5 v 4.375 c 0,0.1875 -0.015625,0.515625 -0.109375,0.71875 0,0.046875 0.078125,0.203125 0.125,0.203125 0.21875,-0.078125 0.421875,0 0.640625,0.0625 C 1.578125,-0.015625 1.9375,0.0625 2.09375,0.0625 Z M 2.25,-3.6875 c 0.890625,0 1.453125,0.671875 1.453125,1.796875 0,0.796875 -0.609375,1.625 -1.328125,1.625 -0.4375,0 -0.90625,-0.265625 -0.90625,-0.6875 V -3.3125 c 0,-0.0625 0,-0.09375 0.03125,-0.109375 C 1.59375,-3.515625 2,-3.6875 2.25,-3.6875 Z m 0,0"
               id="id-c1de3dc2-d773-4199-99cf-f9016a55a396" />
          </g>
        </g>
        <g
           style="fill:#000000;fill-opacity:1;stroke-width:0"
           id="id-dfec57ec-917e-464b-8d1a-829e4630c9d1">
          <g
             id="g7055"
             style="fill:#000000;stroke-width:0"
             transform="translate(155.865,134.765)">
            <path
               style="fill:#000000;stroke:none;stroke-width:0"
               d="M 2.1875,-2.765625 C 2.1875,-4.671875 1.375,-6.09375 0.234375,-7 c -0.0625,0.046875 -0.1875,0.1875 -0.171875,0.1875 0.921875,0.8125 1.40625,2.5 1.40625,4.046875 0,1.515625 -0.484375,3.21875 -1.40625,4.03125 -0.015625,0 0.109375,0.15625 0.171875,0.1875 C 1.375,0.5625 2.1875,-0.890625 2.1875,-2.765625 Z m 0,0"
               id="id-710f1c23-24ca-4d68-a8b1-802b45b876d4" />
          </g>
        </g>
      </g>
    </g>
    <g
       transform="matrix(0.42333399,0,0,0.42333399,121.92834,38.951)"
       ns2:version="1.1.0"
       ns2:texconverter="pdflatex"
       ns2:pdfconverter="inkscape"
       ns2:text="(c)\n"
       ns2:preamble="C:\\Users\\flvisa\\Desktop\\lna\\latexify_books\\textext_preamble.tex"
       ns2:scale="1.1999997165359095"
       ns2:alignment="middle center"
       ns2:inkscapeversion="1.0.1"
       ns2:jacobian_sqrt="0.423334"
       style="fill:#000000;stroke-width:0"
       id="g11273">
      <defs
         id="id-77239f58-0bb6-4327-8ff8-22bc0f76ec1b">
        <g
           id="g14291"
           style="fill:#000000;stroke-width:0">
          <symbol
             overflow="visible"
             id="symbol14277"
             style="fill:#000000;stroke-width:0">
            <path
               style="fill:#000000;stroke:none;stroke-width:0"
               d="M 0.5,0 H 4.484375 V -4.8125 H 0.5 Z M 1,-0.5 V -4.3125 H 3.984375 V -0.5 Z m 0,0"
               id="path14275" />
          </symbol>
          <symbol
             overflow="visible"
             id="symbol14281"
             style="fill:#000000;stroke-width:0">
            <path
               style="fill:#000000;stroke:none;stroke-width:0"
               d="M 1.0625,-2.765625 C 1.0625,-4.3125 1.578125,-6 2.5,-6.8125 c 0,0 -0.125,-0.140625 -0.203125,-0.1875 -1.125,0.90625 -1.9375,2.328125 -1.9375,4.234375 0,1.875 0.8125,3.328125 1.9375,4.21875 C 2.375,1.421875 2.5,1.265625 2.5,1.265625 1.578125,0.453125 1.0625,-1.25 1.0625,-2.765625 Z m 0,0"
               id="path14279" />
          </symbol>
          <symbol
             overflow="visible"
             id="symbol14285"
             style="fill:#000000;stroke-width:0">
            <path
               style="fill:#000000;stroke:none;stroke-width:0"
               d="m 3.78125,-3.84375 c 0,-0.109375 -0.046875,-0.25 -0.09375,-0.28125 -0.234375,-0.15625 -0.546875,-0.234375 -0.890625,-0.234375 -1.046875,0 -2.40625,0.96875 -2.40625,2.421875 0,1.046875 0.796875,2.015625 2,2.015625 0.765625,0 1.265625,-0.5625 1.453125,-0.828125 0.03125,-0.0625 0.046875,-0.140625 0.046875,-0.1875 0,-0.078125 -0.0625,-0.125 -0.078125,-0.125 -0.125,0.140625 -0.5,0.5 -1.046875,0.5 -0.90625,0 -1.625,-0.53125 -1.625,-1.703125 0,-1.046875 0.59375,-1.671875 1.125,-1.671875 0.25,0 0.34375,0.046875 0.5625,0.203125 C 3,-3.625 3.203125,-3.375 3.40625,-3.375 c 0.1875,0 0.375,-0.125 0.375,-0.46875 z m 0,0"
               id="path14283" />
          </symbol>
          <symbol
             overflow="visible"
             id="symbol14289"
             style="fill:#000000;stroke-width:0">
            <path
               style="fill:#000000;stroke:none;stroke-width:0"
               d="M 2.1875,-2.765625 C 2.1875,-4.671875 1.375,-6.09375 0.234375,-7 c -0.0625,0.046875 -0.1875,0.1875 -0.171875,0.1875 0.921875,0.8125 1.40625,2.5 1.40625,4.046875 0,1.515625 -0.484375,3.21875 -1.40625,4.03125 -0.015625,0 0.109375,0.15625 0.171875,0.1875 C 1.375,0.5625 2.1875,-0.890625 2.1875,-2.765625 Z m 0,0"
               id="path14287" />
          </symbol>
        </g>
      </defs>
      <g
         id="id-be4819e2-23f0-412e-94bd-043747f0ec21"
         transform="translate(-149.071,-127.765)"
         style="fill:#000000;stroke-width:0">
        <g
           style="fill:#000000;fill-opacity:1;stroke-width:0"
           id="id-65a2a5ac-6dcd-4d97-9d27-8cfcfaca8590">
          <g
             transform="translate(148.712,134.765)"
             style="fill:#000000;stroke-width:0"
             id="g11261">
            <path
               style="fill:#000000;stroke:none;stroke-width:0"
               d="M 1.0625,-2.765625 C 1.0625,-4.3125 1.578125,-6 2.5,-6.8125 c 0,0 -0.125,-0.140625 -0.203125,-0.1875 -1.125,0.90625 -1.9375,2.328125 -1.9375,4.234375 0,1.875 0.8125,3.328125 1.9375,4.21875 C 2.375,1.421875 2.5,1.265625 2.5,1.265625 1.578125,0.453125 1.0625,-1.25 1.0625,-2.765625 Z m 0,0"
               id="id-6d434598-8256-4ab4-9b2c-107b2ac408f8" />
          </g>
        </g>
        <g
           style="fill:#000000;fill-opacity:1;stroke-width:0"
           id="id-13be7f9a-1361-4197-ac6f-ae9bcfa8fbd9">
          <g
             transform="translate(150.954,134.765)"
             style="fill:#000000;stroke-width:0"
             id="g11265">
            <path
               style="fill:#000000;stroke:none;stroke-width:0"
               d="m 3.78125,-3.84375 c 0,-0.109375 -0.046875,-0.25 -0.09375,-0.28125 -0.234375,-0.15625 -0.546875,-0.234375 -0.890625,-0.234375 -1.046875,0 -2.40625,0.96875 -2.40625,2.421875 0,1.046875 0.796875,2.015625 2,2.015625 0.765625,0 1.265625,-0.5625 1.453125,-0.828125 0.03125,-0.0625 0.046875,-0.140625 0.046875,-0.1875 0,-0.078125 -0.0625,-0.125 -0.078125,-0.125 -0.125,0.140625 -0.5,0.5 -1.046875,0.5 -0.90625,0 -1.625,-0.53125 -1.625,-1.703125 0,-1.046875 0.59375,-1.671875 1.125,-1.671875 0.25,0 0.34375,0.046875 0.5625,0.203125 C 3,-3.625 3.203125,-3.375 3.40625,-3.375 c 0.1875,0 0.375,-0.125 0.375,-0.46875 z m 0,0"
               id="id-2937b4a0-84c6-4c7b-a64b-b63e82b76dda" />
          </g>
        </g>
        <g
           style="fill:#000000;fill-opacity:1;stroke-width:0"
           id="id-ff3bf317-be39-48d2-87db-2cb986e3c1cd">
          <g
             transform="translate(154.949,134.765)"
             style="fill:#000000;stroke-width:0"
             id="g11269">
            <path
               style="fill:#000000;stroke:none;stroke-width:0"
               d="M 2.1875,-2.765625 C 2.1875,-4.671875 1.375,-6.09375 0.234375,-7 c -0.0625,0.046875 -0.1875,0.1875 -0.171875,0.1875 0.921875,0.8125 1.40625,2.5 1.40625,4.046875 0,1.515625 -0.484375,3.21875 -1.40625,4.03125 -0.015625,0 0.109375,0.15625 0.171875,0.1875 C 1.375,0.5625 2.1875,-0.890625 2.1875,-2.765625 Z m 0,0"
               id="id-d410a312-622f-48d6-b168-b96098d2e178" />
          </g>
        </g>
      </g>
    </g>
  </g>
</svg>
