<?xml version="1.0" encoding="UTF-8" standalone="no"?>
<svg
   xmlns:ns2="http://www.iki.fi/pav/software/textext/"
   xmlns:dc="http://purl.org/dc/elements/1.1/"
   xmlns:cc="http://creativecommons.org/ns#"
   xmlns:rdf="http://www.w3.org/1999/02/22-rdf-syntax-ns#"
   xmlns:svg="http://www.w3.org/2000/svg"
   xmlns="http://www.w3.org/2000/svg"
   xmlns:sodipodi="http://sodipodi.sourceforge.net/DTD/sodipodi-0.dtd"
   xmlns:inkscape="http://www.inkscape.org/namespaces/inkscape"
   width="60.192097mm"
   height="26.414801mm"
   viewBox="0 0 60.192097 26.414801"
   version="1.1"
   id="svg9172"
   inkscape:version="1.0.1 (3bc2e813f5, 2020-09-07)"
   sodipodi:docname="fig_8_20.svg">
  <defs
     id="defs9166">
    <marker
       style="overflow:visible"
       id="marker13344"
       refX="0"
       refY="0"
       orient="auto"
       inkscape:stockid="Arrow1Mend"
       inkscape:isstock="true">
      <path
         transform="matrix(-0.4,0,0,-0.4,-4,0)"
         style="fill:#000000;fill-opacity:1;fill-rule:evenodd;stroke:#000000;stroke-width:1pt;stroke-opacity:1"
         d="M 0,0 5,-5 -12.5,0 5,5 Z"
         id="path13342" />
    </marker>
    <marker
       style="overflow:visible"
       id="marker13334"
       refX="0"
       refY="0"
       orient="auto"
       inkscape:stockid="Arrow1Mstart"
       inkscape:isstock="true">
      <path
         transform="matrix(0.4,0,0,0.4,4,0)"
         style="fill:#000000;fill-opacity:1;fill-rule:evenodd;stroke:#000000;stroke-width:1pt;stroke-opacity:1"
         d="M 0,0 5,-5 -12.5,0 5,5 Z"
         id="path13332" />
    </marker>
    <marker
       style="overflow:visible"
       id="Arrow1Mstart"
       refX="0"
       refY="0"
       orient="auto"
       inkscape:stockid="Arrow1Mstart"
       inkscape:isstock="true"
       inkscape:collect="always">
      <path
         transform="matrix(0.4,0,0,0.4,4,0)"
         style="fill:#000000;fill-opacity:1;fill-rule:evenodd;stroke:#000000;stroke-width:1pt;stroke-opacity:1"
         d="M 0,0 5,-5 -12.5,0 5,5 Z"
         id="path12992" />
    </marker>
    <marker
       style="overflow:visible"
       id="Arrow1Mend"
       refX="0"
       refY="0"
       orient="auto"
       inkscape:stockid="Arrow1Mend"
       inkscape:isstock="true"
       inkscape:collect="always">
      <path
         transform="matrix(-0.4,0,0,-0.4,-4,0)"
         style="fill:#000000;fill-opacity:1;fill-rule:evenodd;stroke:#000000;stroke-width:1pt;stroke-opacity:1"
         d="M 0,0 5,-5 -12.5,0 5,5 Z"
         id="path12995" />
    </marker>
    <pattern
       id="EMFhbasepattern"
       patternUnits="userSpaceOnUse"
       width="6"
       height="6"
       x="0"
       y="0" />
    <g
       id="id-25e3ef04-51ac-4453-bd2b-86a1f4ce0c54">
      <symbol
         overflow="visible"
         id="id-8995a852-b0a4-4e93-8fab-df127af8b9d2">
        <path
           style="stroke:none"
           d=""
           id="id-14b2f419-f7b8-4bfa-8408-e4815357a437" />
      </symbol>
      <symbol
         overflow="visible"
         id="id-0375233c-dc1a-4130-89f8-2a21b9e16378">
        <path
           style="stroke:none"
           d="m 5.578125,0.03125 c 0.015625,-0.015625 0.109375,-0.234375 0.0625,-0.296875 -0.5,-0.03125 -0.703125,-0.1875 -0.9375,-0.609375 -0.25,-0.4375 -0.75,-1.4375 -1.078125,-2.34375 0.78125,-0.28125 1.65625,-1.03125 1.65625,-2 0,-0.9375 -0.71875,-1.4375 -1.578125,-1.4375 -0.546875,0 -0.96875,0.03125 -1.328125,0.03125 -0.34375,0 -0.75,-0.03125 -1.125,-0.046875 -0.0625,0.046875 -0.09375,0.234375 -0.0625,0.28125 0.109375,0 0.609375,0.0625 0.609375,0.171875 v 0.078125 c 0,0.15625 -0.03125,0.40625 -0.078125,0.65625 L 0.875,-1.171875 C 0.8125,-0.875 0.765625,-0.59375 0.6875,-0.421875 0.640625,-0.3125 0.109375,-0.265625 0,-0.265625 c -0.046875,0.0625 -0.09375,0.25 -0.046875,0.296875 0.390625,-0.015625 0.75,-0.046875 1.109375,-0.046875 0.359375,0 0.71875,0.03125 1.09375,0.046875 0.0625,-0.046875 0.09375,-0.234375 0.0625,-0.296875 -0.109375,0 -0.609375,-0.046875 -0.625,-0.15625 V -0.5 c 0,-0.15625 0.046875,-0.40625 0.09375,-0.671875 L 2.046875,-3.0625 h 0.5 c 0.140625,0 0.234375,0.046875 0.265625,0.125 0.3125,0.890625 0.765625,1.859375 1.0625,2.453125 0.234375,0.46875 0.875,0.515625 1.703125,0.515625 z M 2.125,-3.359375 2.53125,-5.5 c 0.0625,-0.296875 0.125,-0.625 0.1875,-0.75 0.046875,-0.09375 0.390625,-0.109375 0.5,-0.109375 1.03125,0 1.171875,0.78125 1.171875,1.203125 0,1.21875 -0.96875,1.796875 -1.765625,1.796875 z m 0,0"
           id="id-e2956129-3acc-4108-beb3-bf7b6624a761" />
      </symbol>
    </g>
    <g
       id="id-316874d8-2879-4be2-81ee-f416b5be50a3">
      <symbol
         overflow="visible"
         id="id-9b0fdb73-701c-4dae-a7a3-418b52afcb68">
        <path
           style="stroke:none"
           d=""
           id="id-10f1bcdc-ce9e-42b0-991f-3c51fe18879e" />
      </symbol>
      <symbol
         overflow="visible"
         id="id-0fcd2285-7f4c-43d1-8e73-fc46968d7c90">
        <path
           style="stroke:none"
           d="m 5.578125,0.03125 c 0.015625,-0.015625 0.109375,-0.234375 0.0625,-0.296875 -0.5,-0.03125 -0.703125,-0.1875 -0.9375,-0.609375 -0.25,-0.4375 -0.75,-1.4375 -1.078125,-2.34375 0.78125,-0.28125 1.65625,-1.03125 1.65625,-2 0,-0.9375 -0.71875,-1.4375 -1.578125,-1.4375 -0.546875,0 -0.96875,0.03125 -1.328125,0.03125 -0.34375,0 -0.75,-0.03125 -1.125,-0.046875 -0.0625,0.046875 -0.09375,0.234375 -0.0625,0.28125 0.109375,0 0.609375,0.0625 0.609375,0.171875 v 0.078125 c 0,0.15625 -0.03125,0.40625 -0.078125,0.65625 L 0.875,-1.171875 C 0.8125,-0.875 0.765625,-0.59375 0.6875,-0.421875 0.640625,-0.3125 0.109375,-0.265625 0,-0.265625 c -0.046875,0.0625 -0.09375,0.25 -0.046875,0.296875 0.390625,-0.015625 0.75,-0.046875 1.109375,-0.046875 0.359375,0 0.71875,0.03125 1.09375,0.046875 0.0625,-0.046875 0.09375,-0.234375 0.0625,-0.296875 -0.109375,0 -0.609375,-0.046875 -0.625,-0.15625 V -0.5 c 0,-0.15625 0.046875,-0.40625 0.09375,-0.671875 L 2.046875,-3.0625 h 0.5 c 0.140625,0 0.234375,0.046875 0.265625,0.125 0.3125,0.890625 0.765625,1.859375 1.0625,2.453125 0.234375,0.46875 0.875,0.515625 1.703125,0.515625 z M 2.125,-3.359375 2.53125,-5.5 c 0.0625,-0.296875 0.125,-0.625 0.1875,-0.75 0.046875,-0.09375 0.390625,-0.109375 0.5,-0.109375 1.03125,0 1.171875,0.78125 1.171875,1.203125 0,1.21875 -0.96875,1.796875 -1.765625,1.796875 z m 0,0"
           id="id-3a5b842e-ac41-4c6b-8020-48c8966308cc" />
      </symbol>
      <symbol
         overflow="visible"
         id="id-23898fa5-7cfb-4e9c-8358-e06b548dec05">
        <path
           style="stroke:none"
           d="m 0.359375,0 h 2.90625 V -3.515625 H 0.359375 Z M 0.71875,-0.359375 v -2.78125 h 2.1875 v 2.78125 z m 0,0"
           id="id-6becf57d-d629-47e8-ba43-989e5153199b" />
      </symbol>
      <symbol
         overflow="visible"
         id="id-b7bad844-8a58-48d5-9a14-d8fcf788dc2b">
        <path
           style="stroke:none"
           d="m 2.546875,-4.484375 c 1.09375,0 1.703125,1.1875 1.703125,2.296875 0,0.953125 -0.421875,2.015625 -1.484375,2.015625 -1.109375,0 -1.71875,-1.21875 -1.71875,-2.3125 0,-0.953125 0.4375,-2 1.5,-2 z m 0.09375,-0.25 c -1.25,0 -2.296875,1.078125 -2.296875,2.40625 0,1.40625 1.046875,2.40625 2.296875,2.40625 1.25,0 2.328125,-1.078125 2.328125,-2.40625 0,-1.40625 -1.078125,-2.40625 -2.328125,-2.40625 z m 0,0"
           id="id-02b9433e-7932-4901-806a-f286c7661d4f" />
      </symbol>
      <symbol
         overflow="visible"
         id="id-32cbd3e0-19f2-4c5d-aa76-83dec95cf4c4">
        <path
           style="stroke:none"
           d="m 2.203125,-3.1875 c -0.328125,0 -0.8125,0.375 -0.96875,0.53125 0,0 -0.015625,0.015625 -0.015625,0.015625 -0.015625,0 -0.03125,0 -0.03125,-0.015625 v -1.5625 c 0,-0.375 0.078125,-0.59375 0.078125,-0.59375 0,-0.046875 -0.03125,-0.109375 -0.078125,-0.109375 -0.296875,0.125 -0.65625,0.234375 -1.015625,0.265625 -0.03125,0 -0.015625,0.1875 0,0.1875 0.1875,0 0.390625,0.015625 0.4375,0.125 0.03125,0.09375 0.03125,0.28125 0.03125,0.375 v 3.140625 c 0,0.21875 0,0.40625 -0.03125,0.53125 C 0.59375,-0.21875 0.25,-0.1875 0.15625,-0.1875 V 0.015625 C 0.453125,0 0.640625,-0.015625 0.921875,-0.015625 1.203125,-0.015625 1.390625,0 1.6875,0.015625 V -0.1875 C 1.59375,-0.1875 1.25,-0.21875 1.234375,-0.296875 1.1875,-0.421875 1.1875,-0.625 1.1875,-0.84375 v -1.515625 c 0,-0.078125 0.421875,-0.40625 0.6875,-0.40625 0.578125,0 0.71875,0.28125 0.71875,1.203125 v 0.71875 c 0,0.21875 0,0.421875 -0.03125,0.546875 C 2.53125,-0.21875 2.1875,-0.1875 2.09375,-0.1875 V 0.015625 C 2.390625,0 2.59375,-0.015625 2.875,-0.015625 c 0.265625,0 0.46875,0.015625 0.75,0.03125 V -0.1875 c -0.078125,0 -0.421875,-0.03125 -0.4375,-0.109375 -0.046875,-0.125 -0.046875,-0.328125 -0.046875,-0.53125 v -0.8125 c 0,-1.0625 -0.15625,-1.546875 -0.9375,-1.546875 z m 0,0"
           id="id-22b3b5b2-3a73-41a8-9365-c2ae3b568974" />
      </symbol>
      <symbol
         overflow="visible"
         id="id-3192d06b-948d-4be2-b7d7-2d4dc11d0d69">
        <path
           style="stroke:none"
           d="m 2.296875,-3.1875 c -0.390625,0 -0.765625,0.34375 -0.953125,0.484375 0,0.015625 0,0.015625 -0.015625,0.015625 -0.015625,0 -0.015625,-0.015625 -0.015625,-0.015625 0,-0.0625 0.03125,-0.328125 0.046875,-0.375 C 1.359375,-3.09375 1.3125,-3.125 1.265625,-3.125 0.984375,-3.015625 0.609375,-2.9375 0.25,-2.90625 v 0.203125 c 0.046875,0 0.421875,0 0.46875,0.125 0.03125,0.09375 0.03125,0.3125 0.03125,0.40625 v 1.328125 c 0,0.21875 0,0.421875 -0.03125,0.546875 C 0.703125,-0.21875 0.34375,-0.1875 0.265625,-0.1875 V 0.015625 C 0.546875,0 0.75,-0.015625 1.03125,-0.015625 1.3125,-0.015625 1.5,0 1.796875,0.015625 V -0.1875 c -0.09375,0 -0.4375,-0.03125 -0.453125,-0.109375 C 1.296875,-0.421875 1.296875,-0.625 1.296875,-0.84375 v -1.515625 c 0,-0.109375 0.359375,-0.40625 0.6875,-0.40625 0.515625,0 0.671875,0.28125 0.671875,1.1875 v 0.734375 c 0,0.21875 0,0.421875 -0.03125,0.546875 C 2.59375,-0.21875 2.265625,-0.1875 2.171875,-0.1875 v 0.203125 c 0.296875,-0.015625 0.46875,-0.03125 0.75,-0.03125 0.28125,0 0.484375,0.015625 0.78125,0.03125 V -0.1875 c -0.09375,0 -0.4375,-0.03125 -0.46875,-0.109375 C 3.203125,-0.421875 3.21875,-0.625 3.21875,-0.84375 v -0.890625 c 0,-0.140625 -0.015625,-0.375 -0.03125,-0.53125 0,-0.015625 -0.015625,-0.078125 -0.015625,-0.078125 0,-0.0625 0.359375,-0.421875 0.703125,-0.421875 0.59375,0 0.6875,0.421875 0.6875,1.140625 v 0.78125 c 0,0.21875 0,0.421875 -0.03125,0.546875 C 4.5,-0.21875 4.15625,-0.1875 4.078125,-0.1875 V 0.015625 C 4.359375,0 4.5625,-0.015625 4.828125,-0.015625 5.109375,-0.015625 5.3125,0 5.609375,0.015625 V -0.1875 c -0.09375,0 -0.4375,-0.03125 -0.46875,-0.109375 -0.03125,-0.125 -0.03125,-0.328125 -0.03125,-0.53125 v -0.8125 c 0,-1.0625 -0.15625,-1.546875 -0.9375,-1.546875 C 3.828125,-3.1875 3.4375,-2.875 3.125,-2.59375 3.015625,-3.015625 2.734375,-3.1875 2.296875,-3.1875 Z m 0,0"
           id="id-9e545049-ecf4-4b5d-9682-558d1c119679" />
      </symbol>
    </g>
    <g
       id="id-7c249247-184e-4df5-8a3b-2a0c952d7686">
      <symbol
         overflow="visible"
         id="id-6a8b7f26-627d-43cd-961e-86f90b3df6f5">
        <path
           style="stroke:none"
           d=""
           id="id-90e5dcec-fa8d-43a5-94c7-1ec79b74b3d9" />
      </symbol>
      <symbol
         overflow="visible"
         id="id-e4f94f24-140f-48d0-8ac6-3cf433783f82">
        <path
           style="stroke:none"
           d="m 5.734375,-1.75 c -0.4375,0.828125 -1.09375,1.53125 -2.125,1.53125 -1.53125,0 -2.046875,-1.453125 -2.046875,-2.65625 0,-2.171875 1.265625,-3.53125 2.828125,-3.53125 0.828125,0 1.515625,0.578125 1.515625,1.34375 v 0.078125 C 5.984375,-4.9375 6.078125,-4.9375 6.125,-4.9375 c 0.046875,0 0.078125,-0.015625 0.078125,-0.046875 0.03125,-0.28125 0.09375,-1.109375 0.109375,-1.46875 -0.484375,-0.125 -1.03125,-0.25 -1.625,-0.265625 H 4.609375 c -2.046875,0 -4.015625,1.53125 -4.015625,4.046875 0,1.5 1.09375,2.75 2.734375,2.75 0.875,0 1.421875,-0.078125 1.96875,-0.359375 0.140625,-0.125 0.6875,-1.1875 0.71875,-1.390625 0,0 -0.140625,-0.078125 -0.28125,-0.078125 z m 0,0"
           id="id-01d726bb-1202-4533-bcb6-17ff80848b4c" />
      </symbol>
    </g>
    <g
       id="id-abc7d1b6-ebc3-4f04-bb70-76fc2fae1bf3-1">
      <symbol
         overflow="visible"
         id="id-0d07d6fb-6381-404c-b24d-061a1b1912a0-0">
        <path
           style="stroke:none"
           d=""
           id="id-0c461adc-7574-413e-a0ea-82da2fe74908-0" />
      </symbol>
      <symbol
         overflow="visible"
         id="id-027a7780-40c2-4b21-8c19-62742cfb43f1-1">
        <path
           style="stroke:none"
           d="m 5.578125,0.03125 c 0.015625,-0.015625 0.109375,-0.234375 0.0625,-0.296875 -0.5,-0.03125 -0.703125,-0.1875 -0.9375,-0.609375 -0.25,-0.4375 -0.75,-1.4375 -1.078125,-2.34375 0.78125,-0.28125 1.65625,-1.03125 1.65625,-2 0,-0.9375 -0.71875,-1.4375 -1.578125,-1.4375 -0.546875,0 -0.96875,0.03125 -1.328125,0.03125 -0.34375,0 -0.75,-0.03125 -1.125,-0.046875 -0.0625,0.046875 -0.09375,0.234375 -0.0625,0.28125 0.109375,0 0.609375,0.0625 0.609375,0.171875 v 0.078125 c 0,0.15625 -0.03125,0.40625 -0.078125,0.65625 L 0.875,-1.171875 C 0.8125,-0.875 0.765625,-0.59375 0.6875,-0.421875 0.640625,-0.3125 0.109375,-0.265625 0,-0.265625 c -0.046875,0.0625 -0.09375,0.25 -0.046875,0.296875 0.390625,-0.015625 0.75,-0.046875 1.109375,-0.046875 0.359375,0 0.71875,0.03125 1.09375,0.046875 0.0625,-0.046875 0.09375,-0.234375 0.0625,-0.296875 -0.109375,0 -0.609375,-0.046875 -0.625,-0.15625 V -0.5 c 0,-0.15625 0.046875,-0.40625 0.09375,-0.671875 L 2.046875,-3.0625 h 0.5 c 0.140625,0 0.234375,0.046875 0.265625,0.125 0.3125,0.890625 0.765625,1.859375 1.0625,2.453125 0.234375,0.46875 0.875,0.515625 1.703125,0.515625 z M 2.125,-3.359375 2.53125,-5.5 c 0.0625,-0.296875 0.125,-0.625 0.1875,-0.75 0.046875,-0.09375 0.390625,-0.109375 0.5,-0.109375 1.03125,0 1.171875,0.78125 1.171875,1.203125 0,1.21875 -0.96875,1.796875 -1.765625,1.796875 z m 0,0"
           id="id-eaa7f849-860a-4ec6-b765-cfd9327763f2-4" />
      </symbol>
      <symbol
         overflow="visible"
         id="id-68af0cd2-f877-43b0-a3b6-bcf67b786594-3">
        <path
           style="stroke:none"
           d="m 0.359375,0 h 2.90625 V -3.515625 H 0.359375 Z M 0.71875,-0.359375 v -2.78125 h 2.1875 v 2.78125 z m 0,0"
           id="id-f6972f9b-7e4c-4edc-86c4-47f544fa234e-1" />
      </symbol>
      <symbol
         overflow="visible"
         id="id-827b9339-6c16-42c5-91dd-786d509e4e96-1">
        <path
           style="stroke:none"
           d="M 0.734375,-3.09375 C 0.4375,-3.09375 0.3125,-3.109375 0.015625,-3.125 v 0.203125 c 0.09375,0 0.328125,0 0.40625,0.140625 0.40625,0.828125 0.71875,1.71875 1.171875,2.828125 0.015625,0.015625 0.046875,0.03125 0.0625,0.03125 0.0625,0 0.171875,-0.0625 0.203125,-0.125 0.421875,-1.03125 0.65625,-1.59375 1.09375,-2.625 0.078125,-0.203125 0.390625,-0.25 0.453125,-0.25 0.015625,0 0.046875,-0.15625 0.015625,-0.203125 C 3.125,-3.109375 3.015625,-3.09375 2.75,-3.09375 c -0.296875,0 -0.359375,-0.015625 -0.59375,-0.03125 v 0.203125 c 0.25,0 0.421875,0.09375 0.421875,0.234375 0,0.0625 0,0.140625 -0.046875,0.234375 -0.265625,0.6875 -0.640625,1.65625 -0.640625,1.65625 L 1.09375,-2.765625 v -0.03125 c 0,-0.109375 0.28125,-0.125 0.34375,-0.125 0.03125,0 0.046875,-0.15625 0.03125,-0.203125 -0.296875,0.015625 -0.453125,0.03125 -0.734375,0.03125 z m 0,0"
           id="id-df043ce9-b1c4-4927-ba0e-e10b8c35e77d-3" />
      </symbol>
    </g>
    <g
       id="id-56663fef-b7d9-4993-a1fe-010fc1bad873-3">
      <symbol
         overflow="visible"
         id="id-0dc28fb0-d176-4b5d-9c9f-951c9b096133-7">
        <path
           style="stroke:none"
           d=""
           id="id-d1136d83-ce4c-49ba-81bd-81d9c4dbd8c4-2" />
      </symbol>
      <symbol
         overflow="visible"
         id="id-2086557b-e6d5-4b87-baae-5c1c583c9aba-7">
        <path
           style="stroke:none"
           d="m 2.8125,-6.34375 2.3125,-0.015625 -5.21875,6.21875 C -0.15625,-0.078125 -0.0625,0 0.046875,0 H 4.78125 C 4.96875,-0.515625 5.140625,-0.875 5.515625,-1.671875 5.5,-1.71875 5.390625,-1.765625 5.296875,-1.765625 5.25,-1.765625 5.1875,-1.75 5.171875,-1.734375 4.859375,-1.171875 4.421875,-0.3125 3.5,-0.3125 H 1.03125 C 3.15625,-2.71875 6.21875,-6.46875 6.25,-6.546875 6.265625,-6.625 6.171875,-6.765625 6.125,-6.765625 c -0.796875,0.0625 -1.1875,0.09375 -1.984375,0.09375 h -1.8125 C 2.078125,-6.671875 1.75,-6.71875 1.5625,-6.75 1.375,-6.0625 1.171875,-5.46875 0.921875,-5 c 0.015625,0.03125 0.140625,0.078125 0.21875,0.078125 0.0625,0 0.09375,-0.015625 0.109375,-0.046875 0.359375,-0.828125 0.921875,-1.375 1.5625,-1.375 z m 0,0"
           id="id-0f2148a7-c72c-45c5-a77b-f75eae52281b-9" />
      </symbol>
    </g>
  </defs>
  <sodipodi:namedview
     id="base"
     pagecolor="#ffffff"
     bordercolor="#666666"
     borderopacity="1.0"
     inkscape:pageopacity="0.0"
     inkscape:pageshadow="2"
     inkscape:zoom="1.979899"
     inkscape:cx="144.60221"
     inkscape:cy="74.976328"
     inkscape:document-units="mm"
     inkscape:current-layer="layer1"
     inkscape:document-rotation="0"
     showgrid="false"
     inkscape:window-width="1600"
     inkscape:window-height="837"
     inkscape:window-x="-8"
     inkscape:window-y="-8"
     inkscape:window-maximized="1" />
  <metadata
     id="metadata9169">
    <rdf:RDF>
      <cc:Work
         rdf:about="">
        <dc:format>image/svg+xml</dc:format>
        <dc:type
           rdf:resource="http://purl.org/dc/dcmitype/StillImage" />
        <dc:title />
      </cc:Work>
    </rdf:RDF>
  </metadata>
  <g
     inkscape:label="Layer 1"
     inkscape:groupmode="layer"
     id="layer1"
     transform="translate(-60.136987,-7.2454929)">
    <circle
       r="1.043415"
       cy="12.576706"
       cx="61.78289"
       id="path3435-3-3"
       style="opacity:1;fill:none;stroke:#000000;stroke-width:0.264583;stroke-linejoin:round;stroke-miterlimit:4;stroke-dasharray:none" />
    <path
       style="fill:none;stroke:#000000;stroke-width:0.264583px;stroke-linecap:round;stroke-linejoin:miter;stroke-opacity:1"
       d="m 60.269278,14.14858 3.190531,-3.123712"
       id="path9763" />
    <circle
       r="0.834732"
       cy="12.502318"
       cx="-86.652588"
       id="circle12597"
       style="fill:#000000;stroke:#000000;stroke-width:0.330536;stroke-linejoin:round;stroke-miterlimit:4;stroke-dasharray:none"
       transform="scale(-1,1)" />
    <path
       style="fill:none;stroke:#000000;stroke-width:0.396875;stroke-linecap:round;stroke-linejoin:miter;stroke-miterlimit:4;stroke-dasharray:none;stroke-opacity:1"
       d="M 63.008791,12.544963 H 113.28739"
       id="path12843" />
    <rect
       style="opacity:1;fill:#ffffff;fill-opacity:1;stroke:#000000;stroke-width:0.396875;stroke-linecap:round;stroke-linejoin:round;stroke-miterlimit:4;stroke-dasharray:none;stroke-dashoffset:0"
       id="rect89041"
       width="8.3844318"
       height="2.270411"
       x="72.447983"
       y="11.339361" />
    <g
       transform="matrix(0.423334,0,0,0.423334,74.6124,7.24544)"
       ns2:version="1.1.0"
       ns2:texconverter="pdflatex"
       ns2:pdfconverter="inkscape"
       ns2:text="$\\ab{R}{v}$\n"
       ns2:preamble="C:\\Users\\flvisa\\Desktop\\lna\\latexify_books\\textext_preamble.tex"
       ns2:scale="1.1999996598430998"
       ns2:alignment="middle center"
       ns2:inkscapeversion="1.0.1"
       ns2:jacobian_sqrt="0.423334"
       id="g12946">
      <defs
         id="id-539e231d-8480-4dd6-a259-dffa5c204988">
        <g
           id="id-abc7d1b6-ebc3-4f04-bb70-76fc2fae1bf3">
          <symbol
             overflow="visible"
             id="id-0d07d6fb-6381-404c-b24d-061a1b1912a0">
            <path
               style="stroke:none"
               d=""
               id="id-0c461adc-7574-413e-a0ea-82da2fe74908" />
          </symbol>
          <symbol
             overflow="visible"
             id="id-027a7780-40c2-4b21-8c19-62742cfb43f1">
            <path
               style="stroke:none"
               d="m 5.578125,0.03125 c 0.015625,-0.015625 0.109375,-0.234375 0.0625,-0.296875 -0.5,-0.03125 -0.703125,-0.1875 -0.9375,-0.609375 -0.25,-0.4375 -0.75,-1.4375 -1.078125,-2.34375 0.78125,-0.28125 1.65625,-1.03125 1.65625,-2 0,-0.9375 -0.71875,-1.4375 -1.578125,-1.4375 -0.546875,0 -0.96875,0.03125 -1.328125,0.03125 -0.34375,0 -0.75,-0.03125 -1.125,-0.046875 -0.0625,0.046875 -0.09375,0.234375 -0.0625,0.28125 0.109375,0 0.609375,0.0625 0.609375,0.171875 v 0.078125 c 0,0.15625 -0.03125,0.40625 -0.078125,0.65625 L 0.875,-1.171875 C 0.8125,-0.875 0.765625,-0.59375 0.6875,-0.421875 0.640625,-0.3125 0.109375,-0.265625 0,-0.265625 c -0.046875,0.0625 -0.09375,0.25 -0.046875,0.296875 0.390625,-0.015625 0.75,-0.046875 1.109375,-0.046875 0.359375,0 0.71875,0.03125 1.09375,0.046875 0.0625,-0.046875 0.09375,-0.234375 0.0625,-0.296875 -0.109375,0 -0.609375,-0.046875 -0.625,-0.15625 V -0.5 c 0,-0.15625 0.046875,-0.40625 0.09375,-0.671875 L 2.046875,-3.0625 h 0.5 c 0.140625,0 0.234375,0.046875 0.265625,0.125 0.3125,0.890625 0.765625,1.859375 1.0625,2.453125 0.234375,0.46875 0.875,0.515625 1.703125,0.515625 z M 2.125,-3.359375 2.53125,-5.5 c 0.0625,-0.296875 0.125,-0.625 0.1875,-0.75 0.046875,-0.09375 0.390625,-0.109375 0.5,-0.109375 1.03125,0 1.171875,0.78125 1.171875,1.203125 0,1.21875 -0.96875,1.796875 -1.765625,1.796875 z m 0,0"
               id="id-eaa7f849-860a-4ec6-b765-cfd9327763f2" />
          </symbol>
          <symbol
             overflow="visible"
             id="id-68af0cd2-f877-43b0-a3b6-bcf67b786594">
            <path
               style="stroke:none"
               d="m 0.359375,0 h 2.90625 V -3.515625 H 0.359375 Z M 0.71875,-0.359375 v -2.78125 h 2.1875 v 2.78125 z m 0,0"
               id="id-f6972f9b-7e4c-4edc-86c4-47f544fa234e" />
          </symbol>
          <symbol
             overflow="visible"
             id="id-827b9339-6c16-42c5-91dd-786d509e4e96">
            <path
               style="stroke:none"
               d="M 0.734375,-3.09375 C 0.4375,-3.09375 0.3125,-3.109375 0.015625,-3.125 v 0.203125 c 0.09375,0 0.328125,0 0.40625,0.140625 0.40625,0.828125 0.71875,1.71875 1.171875,2.828125 0.015625,0.015625 0.046875,0.03125 0.0625,0.03125 0.0625,0 0.171875,-0.0625 0.203125,-0.125 0.421875,-1.03125 0.65625,-1.59375 1.09375,-2.625 0.078125,-0.203125 0.390625,-0.25 0.453125,-0.25 0.015625,0 0.046875,-0.15625 0.015625,-0.203125 C 3.125,-3.109375 3.015625,-3.09375 2.75,-3.09375 c -0.296875,0 -0.359375,-0.015625 -0.59375,-0.03125 v 0.203125 c 0.25,0 0.421875,0.09375 0.421875,0.234375 0,0.0625 0,0.140625 -0.046875,0.234375 -0.265625,0.6875 -0.640625,1.65625 -0.640625,1.65625 L 1.09375,-2.765625 v -0.03125 c 0,-0.109375 0.28125,-0.125 0.34375,-0.125 0.03125,0 0.046875,-0.15625 0.03125,-0.203125 -0.296875,0.015625 -0.453125,0.03125 -0.734375,0.03125 z m 0,0"
               id="id-df043ce9-b1c4-4927-ba0e-e10b8c35e77d" />
          </symbol>
        </g>
      </defs>
      <g
         id="id-59b52dee-527d-452b-a8b1-ffc11b3cada3"
         transform="translate(-148.945,-128.093)">
        <g
           style="fill:#000000;fill-opacity:1"
           id="id-87032d22-e343-4e74-b5c3-5c6141d9e165">
          <g
             transform="translate(149.011,134.765)"
             id="g12938">
            <path
               style="stroke:none"
               d="m 5.578125,0.03125 c 0.015625,-0.015625 0.109375,-0.234375 0.0625,-0.296875 -0.5,-0.03125 -0.703125,-0.1875 -0.9375,-0.609375 -0.25,-0.4375 -0.75,-1.4375 -1.078125,-2.34375 0.78125,-0.28125 1.65625,-1.03125 1.65625,-2 0,-0.9375 -0.71875,-1.4375 -1.578125,-1.4375 -0.546875,0 -0.96875,0.03125 -1.328125,0.03125 -0.34375,0 -0.75,-0.03125 -1.125,-0.046875 -0.0625,0.046875 -0.09375,0.234375 -0.0625,0.28125 0.109375,0 0.609375,0.0625 0.609375,0.171875 v 0.078125 c 0,0.15625 -0.03125,0.40625 -0.078125,0.65625 L 0.875,-1.171875 C 0.8125,-0.875 0.765625,-0.59375 0.6875,-0.421875 0.640625,-0.3125 0.109375,-0.265625 0,-0.265625 c -0.046875,0.0625 -0.09375,0.25 -0.046875,0.296875 0.390625,-0.015625 0.75,-0.046875 1.109375,-0.046875 0.359375,0 0.71875,0.03125 1.09375,0.046875 0.0625,-0.046875 0.09375,-0.234375 0.0625,-0.296875 -0.109375,0 -0.609375,-0.046875 -0.625,-0.15625 V -0.5 c 0,-0.15625 0.046875,-0.40625 0.09375,-0.671875 L 2.046875,-3.0625 h 0.5 c 0.140625,0 0.234375,0.046875 0.265625,0.125 0.3125,0.890625 0.765625,1.859375 1.0625,2.453125 0.234375,0.46875 0.875,0.515625 1.703125,0.515625 z M 2.125,-3.359375 2.53125,-5.5 c 0.0625,-0.296875 0.125,-0.625 0.1875,-0.75 0.046875,-0.09375 0.390625,-0.109375 0.5,-0.109375 1.03125,0 1.171875,0.78125 1.171875,1.203125 0,1.21875 -0.96875,1.796875 -1.765625,1.796875 z m 0,0"
               id="id-d169c6bf-309f-4c24-8ef7-540a9ff070a5" />
          </g>
        </g>
        <g
           style="fill:#000000;fill-opacity:1"
           id="id-ec301740-fc9d-4add-8535-5787879f8984">
          <g
             transform="translate(155.029,136.259)"
             id="g12942">
            <path
               style="stroke:none"
               d="M 0.734375,-3.09375 C 0.4375,-3.09375 0.3125,-3.109375 0.015625,-3.125 v 0.203125 c 0.09375,0 0.328125,0 0.40625,0.140625 0.40625,0.828125 0.71875,1.71875 1.171875,2.828125 0.015625,0.015625 0.046875,0.03125 0.0625,0.03125 0.0625,0 0.171875,-0.0625 0.203125,-0.125 0.421875,-1.03125 0.65625,-1.59375 1.09375,-2.625 0.078125,-0.203125 0.390625,-0.25 0.453125,-0.25 0.015625,0 0.046875,-0.15625 0.015625,-0.203125 C 3.125,-3.109375 3.015625,-3.09375 2.75,-3.09375 c -0.296875,0 -0.359375,-0.015625 -0.59375,-0.03125 v 0.203125 c 0.25,0 0.421875,0.09375 0.421875,0.234375 0,0.0625 0,0.140625 -0.046875,0.234375 -0.265625,0.6875 -0.640625,1.65625 -0.640625,1.65625 L 1.09375,-2.765625 v -0.03125 c 0,-0.109375 0.28125,-0.125 0.34375,-0.125 0.03125,0 0.046875,-0.15625 0.03125,-0.203125 -0.296875,0.015625 -0.453125,0.03125 -0.734375,0.03125 z m 0,0"
               id="id-97b8477b-a0c1-4fb4-a6a0-16a25a9396c6" />
          </g>
        </g>
      </g>
    </g>
    <circle
       r="1.043415"
       cy="31.956129"
       cx="61.78289"
       id="circle12968"
       style="opacity:1;fill:none;stroke:#000000;stroke-width:0.264583;stroke-linejoin:round;stroke-miterlimit:4;stroke-dasharray:none" />
    <path
       style="fill:none;stroke:#000000;stroke-width:0.264583px;stroke-linecap:round;stroke-linejoin:miter;stroke-opacity:1"
       d="m 60.269278,33.528003 3.190531,-3.123712"
       id="path12970" />
    <path
       style="fill:none;stroke:#000000;stroke-width:0.396875;stroke-linecap:round;stroke-linejoin:miter;stroke-miterlimit:4;stroke-dasharray:none;stroke-opacity:1"
       d="M 63.008791,31.924437 H 113.28739"
       id="path12972" />
    <path
       style="fill:none;stroke:#000000;stroke-width:0.264583px;stroke-linecap:butt;stroke-linejoin:miter;stroke-opacity:1"
       d="M 86.645439,12.37792 V 31.87189"
       id="path12974" />
    <path
       style="fill:#000000;stroke:#000000;stroke-width:0.264583px;stroke-linecap:round;stroke-linejoin:round;stroke-opacity:1"
       d="m 85.103702,20.649311 h 3.130113 l -1.585853,2.624936 z"
       id="path12976"
       sodipodi:nodetypes="cccc" />
    <path
       style="fill:none;stroke:#000000;stroke-width:0.396875;stroke-linecap:butt;stroke-linejoin:miter;stroke-miterlimit:4;stroke-dasharray:none;stroke-opacity:1"
       d="m 84.967,23.519568 h 3.319102"
       id="path12978" />
    <path
       style="fill:none;stroke:#000000;stroke-width:0.264583px;stroke-linecap:butt;stroke-linejoin:miter;stroke-opacity:1"
       d="M 106.12429,12.37792 V 31.87189"
       id="path12982" />
    <rect
       style="opacity:1;fill:#ffffff;fill-opacity:1;stroke:#000000;stroke-width:0.396875;stroke-linecap:round;stroke-linejoin:round;stroke-miterlimit:4;stroke-dasharray:none;stroke-dashoffset:0"
       id="rect12980"
       width="8.3844318"
       height="2.270411"
       x="18.143438"
       y="-107.24608"
       transform="rotate(90)" />
    <path
       style="fill:none;stroke:#000000;stroke-width:0.264583px;stroke-linecap:butt;stroke-linejoin:miter;stroke-opacity:1;marker-start:url(#Arrow1Mstart);marker-end:url(#Arrow1Mend)"
       d="M 61.763671,14.268602 V 30.285341"
       id="path12984"
       sodipodi:nodetypes="cc" />
    <circle
       r="0.834732"
       cy="12.502318"
       cx="-106.132"
       id="circle13300"
       style="fill:#000000;stroke:#000000;stroke-width:0.330536;stroke-linejoin:round;stroke-miterlimit:4;stroke-dasharray:none"
       transform="scale(-1,1)" />
    <circle
       r="0.834732"
       cy="31.952"
       cx="-86.652588"
       id="circle13302"
       style="fill:#000000;stroke:#000000;stroke-width:0.330536;stroke-linejoin:round;stroke-miterlimit:4;stroke-dasharray:none"
       transform="scale(-1,1)" />
    <circle
       r="0.834732"
       cy="31.952"
       cx="-106.132"
       id="circle13304"
       style="fill:#000000;stroke:#000000;stroke-width:0.330536;stroke-linejoin:round;stroke-miterlimit:4;stroke-dasharray:none"
       transform="scale(-1,1)" />
    <path
       style="fill:none;stroke:#000000;stroke-width:0.264583px;stroke-linecap:butt;stroke-linejoin:miter;stroke-opacity:1;marker-start:url(#marker13334);marker-end:url(#marker13344)"
       d="M 113.09294,13.266341 V 31.187376"
       id="path13330"
       sodipodi:nodetypes="cc" />
    <g
       transform="matrix(0.423334,0,0,0.423334,100.6858,19.811748)"
       ns2:version="1.1.0"
       ns2:texconverter="pdflatex"
       ns2:pdfconverter="inkscape"
       ns2:text="$\\ab{R}{l}$\n\n"
       ns2:preamble="C:\\Users\\flvisa\\Desktop\\lna\\latexify_books\\textext_preamble.tex"
       ns2:scale="1.1999996314966959"
       ns2:alignment="middle center"
       ns2:inkscapeversion="1.0.1"
       ns2:jacobian_sqrt="0.423334"
       id="g13611">
      <defs
         id="id-e84b02ba-701d-4a6b-9b1b-bef9889031d4">
        <g
           id="id-d52c55df-0296-4d62-b315-6f6d6703a519">
          <symbol
             overflow="visible"
             id="id-21a3b706-65be-45af-88ac-492f9dcf8292">
            <path
               style="stroke:none"
               d=""
               id="id-be6a826d-3f06-4d1e-a49e-59dc74c3a272" />
          </symbol>
          <symbol
             overflow="visible"
             id="id-3f2b69f6-9ee4-4881-b8da-a532994e6b10">
            <path
               style="stroke:none"
               d="m 5.578125,0.03125 c 0.015625,-0.015625 0.109375,-0.234375 0.0625,-0.296875 -0.5,-0.03125 -0.703125,-0.1875 -0.9375,-0.609375 -0.25,-0.4375 -0.75,-1.4375 -1.078125,-2.34375 0.78125,-0.28125 1.65625,-1.03125 1.65625,-2 0,-0.9375 -0.71875,-1.4375 -1.578125,-1.4375 -0.546875,0 -0.96875,0.03125 -1.328125,0.03125 -0.34375,0 -0.75,-0.03125 -1.125,-0.046875 -0.0625,0.046875 -0.09375,0.234375 -0.0625,0.28125 0.109375,0 0.609375,0.0625 0.609375,0.171875 v 0.078125 c 0,0.15625 -0.03125,0.40625 -0.078125,0.65625 L 0.875,-1.171875 C 0.8125,-0.875 0.765625,-0.59375 0.6875,-0.421875 0.640625,-0.3125 0.109375,-0.265625 0,-0.265625 c -0.046875,0.0625 -0.09375,0.25 -0.046875,0.296875 0.390625,-0.015625 0.75,-0.046875 1.109375,-0.046875 0.359375,0 0.71875,0.03125 1.09375,0.046875 0.0625,-0.046875 0.09375,-0.234375 0.0625,-0.296875 -0.109375,0 -0.609375,-0.046875 -0.625,-0.15625 V -0.5 c 0,-0.15625 0.046875,-0.40625 0.09375,-0.671875 L 2.046875,-3.0625 h 0.5 c 0.140625,0 0.234375,0.046875 0.265625,0.125 0.3125,0.890625 0.765625,1.859375 1.0625,2.453125 0.234375,0.46875 0.875,0.515625 1.703125,0.515625 z M 2.125,-3.359375 2.53125,-5.5 c 0.0625,-0.296875 0.125,-0.625 0.1875,-0.75 0.046875,-0.09375 0.390625,-0.109375 0.5,-0.109375 1.03125,0 1.171875,0.78125 1.171875,1.203125 0,1.21875 -0.96875,1.796875 -1.765625,1.796875 z m 0,0"
               id="id-5a57baff-e976-4bf1-9116-fed79d9f72a5" />
          </symbol>
          <symbol
             overflow="visible"
             id="id-4f1af686-4dfa-4698-ba16-5ea15bd43ccf">
            <path
               style="stroke:none"
               d="m 0.359375,0 h 2.90625 V -3.515625 H 0.359375 Z M 0.71875,-0.359375 v -2.78125 h 2.1875 v 2.78125 z m 0,0"
               id="id-433d585e-8cd7-4692-9862-7fbe2814a539" />
          </symbol>
          <symbol
             overflow="visible"
             id="id-beed209e-e257-4b0a-8cfc-1bc5c0b9b98e">
            <path
               style="stroke:none"
               d="m 0.640625,-3.953125 v 3.125 c 0,0.21875 0,0.40625 -0.03125,0.53125 C 0.59375,-0.21875 0.25,-0.1875 0.15625,-0.1875 V 0.015625 C 0.453125,0 0.640625,-0.015625 0.921875,-0.015625 1.203125,-0.015625 1.390625,0 1.6875,0.015625 V -0.1875 C 1.59375,-0.1875 1.25,-0.21875 1.234375,-0.296875 1.1875,-0.421875 1.1875,-0.609375 1.1875,-0.828125 V -4.1875 c 0,-0.390625 0.078125,-0.625 0.078125,-0.625 0,-0.046875 -0.03125,-0.109375 -0.078125,-0.109375 -0.296875,0.140625 -0.65625,0.25 -1.015625,0.28125 -0.03125,0 -0.015625,0.1875 0,0.1875 0.1875,0 0.390625,0.015625 0.4375,0.125 0.03125,0.078125 0.03125,0.265625 0.03125,0.375 z m 0,0"
               id="id-766548dd-9f5f-4dfb-9a4e-fa01bb3c63a7" />
          </symbol>
        </g>
      </defs>
      <g
         id="id-b448b02d-a438-438b-bdc4-7f2c76ceb713"
         transform="translate(-148.945,-128.093)">
        <g
           style="fill:#000000;fill-opacity:1"
           id="id-f703e456-8995-4b24-bb5d-42a496b1bb91">
          <g
             transform="translate(149.011,134.765)"
             id="g13603">
            <path
               style="stroke:none"
               d="m 5.578125,0.03125 c 0.015625,-0.015625 0.109375,-0.234375 0.0625,-0.296875 -0.5,-0.03125 -0.703125,-0.1875 -0.9375,-0.609375 -0.25,-0.4375 -0.75,-1.4375 -1.078125,-2.34375 0.78125,-0.28125 1.65625,-1.03125 1.65625,-2 0,-0.9375 -0.71875,-1.4375 -1.578125,-1.4375 -0.546875,0 -0.96875,0.03125 -1.328125,0.03125 -0.34375,0 -0.75,-0.03125 -1.125,-0.046875 -0.0625,0.046875 -0.09375,0.234375 -0.0625,0.28125 0.109375,0 0.609375,0.0625 0.609375,0.171875 v 0.078125 c 0,0.15625 -0.03125,0.40625 -0.078125,0.65625 L 0.875,-1.171875 C 0.8125,-0.875 0.765625,-0.59375 0.6875,-0.421875 0.640625,-0.3125 0.109375,-0.265625 0,-0.265625 c -0.046875,0.0625 -0.09375,0.25 -0.046875,0.296875 0.390625,-0.015625 0.75,-0.046875 1.109375,-0.046875 0.359375,0 0.71875,0.03125 1.09375,0.046875 0.0625,-0.046875 0.09375,-0.234375 0.0625,-0.296875 -0.109375,0 -0.609375,-0.046875 -0.625,-0.15625 V -0.5 c 0,-0.15625 0.046875,-0.40625 0.09375,-0.671875 L 2.046875,-3.0625 h 0.5 c 0.140625,0 0.234375,0.046875 0.265625,0.125 0.3125,0.890625 0.765625,1.859375 1.0625,2.453125 0.234375,0.46875 0.875,0.515625 1.703125,0.515625 z M 2.125,-3.359375 2.53125,-5.5 c 0.0625,-0.296875 0.125,-0.625 0.1875,-0.75 0.046875,-0.09375 0.390625,-0.109375 0.5,-0.109375 1.03125,0 1.171875,0.78125 1.171875,1.203125 0,1.21875 -0.96875,1.796875 -1.765625,1.796875 z m 0,0"
               id="id-733626a3-15e7-47d5-bc09-9dc017d7551b" />
          </g>
        </g>
        <g
           style="fill:#000000;fill-opacity:1"
           id="id-a886c10a-e47a-4577-a304-a23c8d13127c">
          <g
             transform="translate(155.029,136.283)"
             id="g13607">
            <path
               style="stroke:none"
               d="m 0.640625,-3.953125 v 3.125 c 0,0.21875 0,0.40625 -0.03125,0.53125 C 0.59375,-0.21875 0.25,-0.1875 0.15625,-0.1875 V 0.015625 C 0.453125,0 0.640625,-0.015625 0.921875,-0.015625 1.203125,-0.015625 1.390625,0 1.6875,0.015625 V -0.1875 C 1.59375,-0.1875 1.25,-0.21875 1.234375,-0.296875 1.1875,-0.421875 1.1875,-0.609375 1.1875,-0.828125 V -4.1875 c 0,-0.390625 0.078125,-0.625 0.078125,-0.625 0,-0.046875 -0.03125,-0.109375 -0.078125,-0.109375 -0.296875,0.140625 -0.65625,0.25 -1.015625,0.28125 -0.03125,0 -0.015625,0.1875 0,0.1875 0.1875,0 0.390625,0.015625 0.4375,0.125 0.03125,0.078125 0.03125,0.265625 0.03125,0.375 z m 0,0"
               id="id-ed4054b0-b2a1-4266-823f-dd331a9a7545" />
          </g>
        </g>
      </g>
    </g>
    <g
       transform="matrix(0.423334,0,0,0.423334,89.5452,20.548466)"
       ns2:version="1.1.0"
       ns2:texconverter="pdflatex"
       ns2:pdfconverter="inkscape"
       ns2:text="$Z$\n\n\n\n\n"
       ns2:preamble="C:\\Users\\flvisa\\Desktop\\lna\\latexify_books\\textext_preamble.tex"
       ns2:scale="1.1999996598430998"
       ns2:alignment="middle center"
       ns2:inkscapeversion="1.0.1"
       ns2:jacobian_sqrt="0.423334"
       id="g13743">
      <defs
         id="id-75876ede-181e-43e2-97bb-5a2d1371fc1a">
        <g
           id="id-56663fef-b7d9-4993-a1fe-010fc1bad873">
          <symbol
             overflow="visible"
             id="id-0dc28fb0-d176-4b5d-9c9f-951c9b096133">
            <path
               style="stroke:none"
               d=""
               id="id-d1136d83-ce4c-49ba-81bd-81d9c4dbd8c4" />
          </symbol>
          <symbol
             overflow="visible"
             id="id-2086557b-e6d5-4b87-baae-5c1c583c9aba">
            <path
               style="stroke:none"
               d="m 2.8125,-6.34375 2.3125,-0.015625 -5.21875,6.21875 C -0.15625,-0.078125 -0.0625,0 0.046875,0 H 4.78125 C 4.96875,-0.515625 5.140625,-0.875 5.515625,-1.671875 5.5,-1.71875 5.390625,-1.765625 5.296875,-1.765625 5.25,-1.765625 5.1875,-1.75 5.171875,-1.734375 4.859375,-1.171875 4.421875,-0.3125 3.5,-0.3125 H 1.03125 C 3.15625,-2.71875 6.21875,-6.46875 6.25,-6.546875 6.265625,-6.625 6.171875,-6.765625 6.125,-6.765625 c -0.796875,0.0625 -1.1875,0.09375 -1.984375,0.09375 h -1.8125 C 2.078125,-6.671875 1.75,-6.71875 1.5625,-6.75 1.375,-6.0625 1.171875,-5.46875 0.921875,-5 c 0.015625,0.03125 0.140625,0.078125 0.21875,0.078125 0.0625,0 0.09375,-0.015625 0.109375,-0.046875 0.359375,-0.828125 0.921875,-1.375 1.5625,-1.375 z m 0,0"
               id="id-0f2148a7-c72c-45c5-a77b-f75eae52281b" />
          </symbol>
        </g>
      </defs>
      <g
         id="id-23f2aaec-e400-426e-8369-3574a5780b94"
         transform="translate(-148.798,-127.999)">
        <g
           style="fill:#000000;fill-opacity:1"
           id="id-642ee310-9cd5-4b00-a038-af0a2852da3c">
          <g
             transform="translate(148.912,134.765)"
             id="g13739">
            <path
               style="stroke:none"
               d="m 2.8125,-6.34375 2.3125,-0.015625 -5.21875,6.21875 C -0.15625,-0.078125 -0.0625,0 0.046875,0 H 4.78125 C 4.96875,-0.515625 5.140625,-0.875 5.515625,-1.671875 5.5,-1.71875 5.390625,-1.765625 5.296875,-1.765625 5.25,-1.765625 5.1875,-1.75 5.171875,-1.734375 4.859375,-1.171875 4.421875,-0.3125 3.5,-0.3125 H 1.03125 C 3.15625,-2.71875 6.21875,-6.46875 6.25,-6.546875 6.265625,-6.625 6.171875,-6.765625 6.125,-6.765625 c -0.796875,0.0625 -1.1875,0.09375 -1.984375,0.09375 h -1.8125 C 2.078125,-6.671875 1.75,-6.71875 1.5625,-6.75 1.375,-6.0625 1.171875,-5.46875 0.921875,-5 c 0.015625,0.03125 0.140625,0.078125 0.21875,0.078125 0.0625,0 0.09375,-0.015625 0.109375,-0.046875 0.359375,-0.828125 0.921875,-1.375 1.5625,-1.375 z m 0,0"
               id="id-ec495b97-a62b-403c-9d83-bf852f3429a0" />
          </g>
        </g>
      </g>
    </g>
    <g
       transform="matrix(0.423334,0,0,0.423334,62.584067,20.548947)"
       ns2:version="1.1.0"
       ns2:texconverter="pdflatex"
       ns2:pdfconverter="inkscape"
       ns2:text="$\\ab{V}{in}$\n\n\n\n\n\n"
       ns2:preamble="C:\\Users\\flvisa\\Desktop\\lna\\latexify_books\\textext_preamble.tex"
       ns2:scale="1.1999996314966959"
       ns2:alignment="middle center"
       ns2:inkscapeversion="1.0.1"
       ns2:jacobian_sqrt="0.423334"
       id="g13952">
      <defs
         id="id-74013aa1-586e-418d-bf16-4efb72728d29">
        <g
           id="id-a5d507af-7614-49b9-967b-c45e23c0d905">
          <symbol
             overflow="visible"
             id="id-8c53b092-c078-4e72-8f3e-3f5566e7bf05">
            <path
               style="stroke:none"
               d=""
               id="id-35fafd3d-2f5e-4207-8f98-b12f0eb31539" />
          </symbol>
          <symbol
             overflow="visible"
             id="id-4e37b645-8360-4fac-8fef-2eb21b2a58a2">
            <path
               style="stroke:none"
               d="m 1.765625,-6.625 c -0.4375,0 -0.65625,-0.03125 -1.078125,-0.046875 -0.015625,0.015625 -0.078125,0.28125 -0.0625,0.28125 0.109375,0 0.484375,0.078125 0.5625,0.234375 0.109375,0.265625 0.1875,0.578125 0.25,0.96875 0.3125,1.953125 0.5,3.25 0.796875,5.046875 0.015625,0.046875 0.015625,0.15625 0.0625,0.15625 0.109375,0 0.265625,-0.0625 0.421875,-0.328125 l 2.75,-4.796875 c 0.21875,-0.375 0.515625,-0.875 0.65625,-1.015625 0.203125,-0.1875 0.59375,-0.265625 0.65625,-0.265625 0.03125,0 0.09375,-0.234375 0.078125,-0.28125 C 6.484375,-6.65625 6.375,-6.625 5.9375,-6.625 c -0.34375,0 -0.65625,-0.03125 -1,-0.046875 C 4.890625,-6.625 4.859375,-6.40625 4.890625,-6.390625 5,-6.390625 5.4375,-6.3125 5.4375,-6.046875 c 0,0.03125 -0.015625,0.03125 -0.015625,0.0625 -0.03125,0.171875 -0.125,0.46875 -0.265625,0.703125 0,0 -2.234375,3.9375 -2.28125,3.984375 0,-0.03125 -0.46875,-3.140625 -0.59375,-4.03125 -0.03125,-0.25 -0.046875,-0.453125 -0.046875,-0.578125 0,-0.0625 0,-0.109375 0.015625,-0.140625 0.046875,-0.28125 0.546875,-0.34375 0.609375,-0.34375 C 2.90625,-6.40625 2.9375,-6.625 2.9375,-6.671875 2.546875,-6.65625 2.171875,-6.625 1.765625,-6.625 Z m 0,0"
               id="id-e3d7d954-a7a1-4ec4-a442-2cc8f282c78a" />
          </symbol>
          <symbol
             overflow="visible"
             id="id-f52f52f9-a3a9-481f-980b-f4349bf51fc6">
            <path
               style="stroke:none"
               d="m 0.359375,0 h 2.90625 V -3.515625 H 0.359375 Z M 0.71875,-0.359375 v -2.78125 h 2.1875 v 2.78125 z m 0,0"
               id="id-b63c5271-ca27-42a8-a86f-8c5caaeca927" />
          </symbol>
          <symbol
             overflow="visible"
             id="id-860773f0-1b67-4000-929a-4101dba08b96">
            <path
               style="stroke:none"
               d="m 0.625,-4.203125 c 0,0.1875 0.15625,0.359375 0.34375,0.359375 0.203125,0 0.359375,-0.171875 0.359375,-0.359375 0,-0.203125 -0.15625,-0.359375 -0.359375,-0.359375 -0.1875,0 -0.34375,0.15625 -0.34375,0.359375 z m 0.671875,1.90625 v -0.25 c 0,-0.0625 0.046875,-0.40625 0.046875,-0.46875 C 1.34375,-3.046875 1.3125,-3.125 1.265625,-3.125 0.984375,-2.96875 0.609375,-2.875 0.25,-2.828125 v 0.1875 c 0.046875,0 0.421875,0 0.46875,0.125 0.03125,0.09375 0.03125,0.28125 0.03125,0.375 v 1.3125 c 0,0.21875 0,0.40625 -0.03125,0.53125 C 0.703125,-0.21875 0.34375,-0.1875 0.265625,-0.1875 V 0.015625 C 0.546875,0 0.75,-0.015625 1.03125,-0.015625 1.3125,-0.015625 1.5,0 1.78125,0.015625 V -0.1875 c -0.078125,0 -0.421875,-0.03125 -0.4375,-0.109375 -0.046875,-0.125 -0.046875,-0.3125 -0.046875,-0.53125 z m 0,0"
               id="id-cbd11fec-6e05-4bae-bc84-249b06ac8887" />
          </symbol>
          <symbol
             overflow="visible"
             id="id-af61f2e0-307f-420f-8c34-0f700956e3ce">
            <path
               style="stroke:none"
               d="m 2.3125,-3.1875 c -0.34375,0 -0.8125,0.375 -0.96875,0.53125 0,0 0,0.015625 -0.015625,0.015625 -0.015625,0 -0.015625,-0.03125 -0.015625,-0.03125 0,-0.0625 0.03125,-0.359375 0.046875,-0.40625 C 1.359375,-3.09375 1.3125,-3.125 1.265625,-3.125 0.984375,-3.015625 0.609375,-2.9375 0.25,-2.90625 v 0.203125 c 0.046875,0 0.421875,0 0.46875,0.125 0.03125,0.09375 0.03125,0.3125 0.03125,0.40625 v 1.328125 c 0,0.21875 0,0.421875 -0.03125,0.546875 C 0.703125,-0.21875 0.34375,-0.1875 0.265625,-0.1875 V 0.015625 C 0.546875,0 0.75,-0.015625 1.03125,-0.015625 1.3125,-0.015625 1.5,0 1.796875,0.015625 V -0.1875 c -0.09375,0 -0.4375,-0.03125 -0.453125,-0.109375 C 1.296875,-0.421875 1.296875,-0.625 1.296875,-0.84375 v -1.515625 c 0,-0.078125 0.4375,-0.40625 0.703125,-0.40625 0.5625,0 0.703125,0.28125 0.703125,1.203125 v 0.71875 c 0,0.21875 0,0.421875 -0.03125,0.546875 -0.03125,0.078125 -0.375,0.109375 -0.46875,0.109375 V 0.015625 C 2.5,0 2.6875,-0.015625 2.96875,-0.015625 3.25,-0.015625 3.453125,0 3.75,0.015625 V -0.1875 c -0.09375,0 -0.4375,-0.03125 -0.46875,-0.109375 C 3.25,-0.421875 3.25,-0.625 3.25,-0.828125 v -0.8125 C 3.25,-2.703125 3.09375,-3.1875 2.3125,-3.1875 Z m 0,0"
               id="id-88bec1de-56da-4d42-aeaa-24bb132c2b6b" />
          </symbol>
        </g>
      </defs>
      <g
         id="id-ad85bb49-86d3-4bda-bd13-933e80a5871a"
         transform="translate(-149.236,-128.093)">
        <g
           style="fill:#000000;fill-opacity:1"
           id="id-344dab3e-0de3-46fc-8ff8-4603b0b5dfa0">
          <g
             transform="translate(148.613,134.765)"
             id="g13941">
            <path
               style="stroke:none"
               d="m 1.765625,-6.625 c -0.4375,0 -0.65625,-0.03125 -1.078125,-0.046875 -0.015625,0.015625 -0.078125,0.28125 -0.0625,0.28125 0.109375,0 0.484375,0.078125 0.5625,0.234375 0.109375,0.265625 0.1875,0.578125 0.25,0.96875 0.3125,1.953125 0.5,3.25 0.796875,5.046875 0.015625,0.046875 0.015625,0.15625 0.0625,0.15625 0.109375,0 0.265625,-0.0625 0.421875,-0.328125 l 2.75,-4.796875 c 0.21875,-0.375 0.515625,-0.875 0.65625,-1.015625 0.203125,-0.1875 0.59375,-0.265625 0.65625,-0.265625 0.03125,0 0.09375,-0.234375 0.078125,-0.28125 C 6.484375,-6.65625 6.375,-6.625 5.9375,-6.625 c -0.34375,0 -0.65625,-0.03125 -1,-0.046875 C 4.890625,-6.625 4.859375,-6.40625 4.890625,-6.390625 5,-6.390625 5.4375,-6.3125 5.4375,-6.046875 c 0,0.03125 -0.015625,0.03125 -0.015625,0.0625 -0.03125,0.171875 -0.125,0.46875 -0.265625,0.703125 0,0 -2.234375,3.9375 -2.28125,3.984375 0,-0.03125 -0.46875,-3.140625 -0.59375,-4.03125 -0.03125,-0.25 -0.046875,-0.453125 -0.046875,-0.578125 0,-0.0625 0,-0.109375 0.015625,-0.140625 0.046875,-0.28125 0.546875,-0.34375 0.609375,-0.34375 C 2.90625,-6.40625 2.9375,-6.625 2.9375,-6.671875 2.546875,-6.65625 2.171875,-6.625 1.765625,-6.625 Z m 0,0"
               id="id-d3a39d96-0914-42e9-8fdf-7f5af8ecaf9f" />
          </g>
        </g>
        <g
           style="fill:#000000;fill-opacity:1"
           id="id-6da1e99f-294a-4bb0-aa32-c243462dc2ef">
          <g
             transform="translate(154.311,136.259)"
             id="g13945">
            <path
               style="stroke:none"
               d="m 0.625,-4.203125 c 0,0.1875 0.15625,0.359375 0.34375,0.359375 0.203125,0 0.359375,-0.171875 0.359375,-0.359375 0,-0.203125 -0.15625,-0.359375 -0.359375,-0.359375 -0.1875,0 -0.34375,0.15625 -0.34375,0.359375 z m 0.671875,1.90625 v -0.25 c 0,-0.0625 0.046875,-0.40625 0.046875,-0.46875 C 1.34375,-3.046875 1.3125,-3.125 1.265625,-3.125 0.984375,-2.96875 0.609375,-2.875 0.25,-2.828125 v 0.1875 c 0.046875,0 0.421875,0 0.46875,0.125 0.03125,0.09375 0.03125,0.28125 0.03125,0.375 v 1.3125 c 0,0.21875 0,0.40625 -0.03125,0.53125 C 0.703125,-0.21875 0.34375,-0.1875 0.265625,-0.1875 V 0.015625 C 0.546875,0 0.75,-0.015625 1.03125,-0.015625 1.3125,-0.015625 1.5,0 1.78125,0.015625 V -0.1875 c -0.078125,0 -0.421875,-0.03125 -0.4375,-0.109375 -0.046875,-0.125 -0.046875,-0.3125 -0.046875,-0.53125 z m 0,0"
               id="id-957de155-1692-42b9-8edf-1b73d21486e0" />
          </g>
          <g
             transform="translate(156.238,136.259)"
             id="g13948">
            <path
               style="stroke:none"
               d="m 2.3125,-3.1875 c -0.34375,0 -0.8125,0.375 -0.96875,0.53125 0,0 0,0.015625 -0.015625,0.015625 -0.015625,0 -0.015625,-0.03125 -0.015625,-0.03125 0,-0.0625 0.03125,-0.359375 0.046875,-0.40625 C 1.359375,-3.09375 1.3125,-3.125 1.265625,-3.125 0.984375,-3.015625 0.609375,-2.9375 0.25,-2.90625 v 0.203125 c 0.046875,0 0.421875,0 0.46875,0.125 0.03125,0.09375 0.03125,0.3125 0.03125,0.40625 v 1.328125 c 0,0.21875 0,0.421875 -0.03125,0.546875 C 0.703125,-0.21875 0.34375,-0.1875 0.265625,-0.1875 V 0.015625 C 0.546875,0 0.75,-0.015625 1.03125,-0.015625 1.3125,-0.015625 1.5,0 1.796875,0.015625 V -0.1875 c -0.09375,0 -0.4375,-0.03125 -0.453125,-0.109375 C 1.296875,-0.421875 1.296875,-0.625 1.296875,-0.84375 v -1.515625 c 0,-0.078125 0.4375,-0.40625 0.703125,-0.40625 0.5625,0 0.703125,0.28125 0.703125,1.203125 v 0.71875 c 0,0.21875 0,0.421875 -0.03125,0.546875 -0.03125,0.078125 -0.375,0.109375 -0.46875,0.109375 V 0.015625 C 2.5,0 2.6875,-0.015625 2.96875,-0.015625 3.25,-0.015625 3.453125,0 3.75,0.015625 V -0.1875 c -0.09375,0 -0.4375,-0.03125 -0.46875,-0.109375 C 3.25,-0.421875 3.25,-0.625 3.25,-0.828125 v -0.8125 C 3.25,-2.703125 3.09375,-3.1875 2.3125,-3.1875 Z m 0,0"
               id="id-6b0beece-68f6-4afd-8ca3-53d4c59b3248" />
          </g>
        </g>
      </g>
    </g>
    <g
       transform="matrix(0.423334,0,0,0.423334,114.16534,20.539)"
       ns2:version="1.1.0"
       ns2:texconverter="pdflatex"
       ns2:pdfconverter="inkscape"
       ns2:text="$\\ab{V}{out}$\n\n\n\n\n\n\n"
       ns2:preamble="C:\\Users\\flvisa\\Desktop\\lna\\latexify_books\\textext_preamble.tex"
       ns2:scale="1.1999996314966959"
       ns2:alignment="middle center"
       ns2:inkscapeversion="1.0.1"
       ns2:jacobian_sqrt="0.423334"
       id="g14188">
      <defs
         id="id-7564ff0a-fc16-4b54-9bb5-41bd499f6470">
        <g
           id="id-84ea7389-af0f-476b-b6b2-66cc9022176c">
          <symbol
             overflow="visible"
             id="id-735213af-ef16-4b04-a71b-8029b666f87c">
            <path
               style="stroke:none"
               d=""
               id="id-80ff9cf9-66f5-46ff-af8a-1416109fe976" />
          </symbol>
          <symbol
             overflow="visible"
             id="id-08d1fdd5-828c-40f2-a0d8-580e7e03c343">
            <path
               style="stroke:none"
               d="m 1.765625,-6.625 c -0.4375,0 -0.65625,-0.03125 -1.078125,-0.046875 -0.015625,0.015625 -0.078125,0.28125 -0.0625,0.28125 0.109375,0 0.484375,0.078125 0.5625,0.234375 0.109375,0.265625 0.1875,0.578125 0.25,0.96875 0.3125,1.953125 0.5,3.25 0.796875,5.046875 0.015625,0.046875 0.015625,0.15625 0.0625,0.15625 0.109375,0 0.265625,-0.0625 0.421875,-0.328125 l 2.75,-4.796875 c 0.21875,-0.375 0.515625,-0.875 0.65625,-1.015625 0.203125,-0.1875 0.59375,-0.265625 0.65625,-0.265625 0.03125,0 0.09375,-0.234375 0.078125,-0.28125 C 6.484375,-6.65625 6.375,-6.625 5.9375,-6.625 c -0.34375,0 -0.65625,-0.03125 -1,-0.046875 C 4.890625,-6.625 4.859375,-6.40625 4.890625,-6.390625 5,-6.390625 5.4375,-6.3125 5.4375,-6.046875 c 0,0.03125 -0.015625,0.03125 -0.015625,0.0625 -0.03125,0.171875 -0.125,0.46875 -0.265625,0.703125 0,0 -2.234375,3.9375 -2.28125,3.984375 0,-0.03125 -0.46875,-3.140625 -0.59375,-4.03125 -0.03125,-0.25 -0.046875,-0.453125 -0.046875,-0.578125 0,-0.0625 0,-0.109375 0.015625,-0.140625 0.046875,-0.28125 0.546875,-0.34375 0.609375,-0.34375 C 2.90625,-6.40625 2.9375,-6.625 2.9375,-6.671875 2.546875,-6.65625 2.171875,-6.625 1.765625,-6.625 Z m 0,0"
               id="id-b8c6a68a-2855-408d-9c69-335630aa1475" />
          </symbol>
          <symbol
             overflow="visible"
             id="id-0415bee3-b046-4e30-bd9b-f122d1405a0a">
            <path
               style="stroke:none"
               d="m 0.359375,0 h 2.90625 V -3.515625 H 0.359375 Z M 0.71875,-0.359375 v -2.78125 h 2.1875 v 2.78125 z m 0,0"
               id="id-05de1335-8eff-40db-8582-84624d10d2e7" />
          </symbol>
          <symbol
             overflow="visible"
             id="id-9a70b33a-971d-4638-940e-c084e3b4753c">
            <path
               style="stroke:none"
               d="m 1.75,-2.953125 c 0.640625,0 1.015625,0.8125 1.015625,1.515625 0,0.625 -0.234375,1.25 -0.84375,1.25 -0.65625,0 -1.015625,-0.796875 -1.015625,-1.5 0,-0.640625 0.234375,-1.265625 0.84375,-1.265625 z M 1.828125,-3.1875 c -0.875,0 -1.53125,0.703125 -1.53125,1.640625 0,0.90625 0.59375,1.59375 1.546875,1.59375 0.875,0 1.53125,-0.71875 1.53125,-1.65625 0,-0.90625 -0.59375,-1.578125 -1.546875,-1.578125 z m 0,0"
               id="id-8553780c-bd5e-4c78-b7ec-1ab1d9390459" />
          </symbol>
          <symbol
             overflow="visible"
             id="id-16214b39-7f20-443b-a840-3274471c765d">
            <path
               style="stroke:none"
               d="m 2.53125,-2.265625 v 1.53125 c 0,0.15625 -0.359375,0.390625 -0.671875,0.390625 -0.5,0 -0.71875,-0.34375 -0.71875,-1.109375 v -1.03125 c 0,-0.21875 0.015625,-0.4375 0.046875,-0.5 C 1.1875,-3.015625 1.140625,-3.125 1.109375,-3.125 0.84375,-3.046875 0.5,-3 0.125,-2.984375 v 0.1875 c 0.09375,0 0.328125,0.015625 0.40625,0.140625 0.0625,0.109375 0.0625,0.296875 0.0625,0.390625 v 0.90625 c 0,0.59375 0.125,1.40625 0.890625,1.40625 0.375,0 0.828125,-0.25 1.03125,-0.46875 0,0 0.015625,0 0.015625,0.03125 V -0.0625 c 0,0.0625 0.015625,0.125 0.0625,0.125 0,0 0.546875,-0.1875 0.9375,-0.203125 0.03125,0 0.046875,-0.09375 0.046875,-0.109375 0,-0.03125 -0.015625,-0.078125 -0.03125,-0.078125 C 3.53125,-0.34375 3.171875,-0.3125 3.125,-0.453125 3.078125,-0.65625 3.078125,-0.921875 3.078125,-1 v -1.484375 c 0,-0.21875 0.03125,-0.40625 0.046875,-0.46875 0,-0.03125 -0.03125,-0.171875 -0.078125,-0.171875 -0.25,0.078125 -0.625,0.125 -0.984375,0.140625 v 0.1875 c 0.09375,0 0.328125,0.015625 0.40625,0.140625 0.0625,0.109375 0.0625,0.296875 0.0625,0.390625 z m 0,0"
               id="id-6805b44c-ec8e-4cf5-9890-b5c53038cf45" />
          </symbol>
          <symbol
             overflow="visible"
             id="id-812b3526-4f7e-4c00-95cc-a49c337bbd3e">
            <path
               style="stroke:none"
               d="M 1.140625,-3.140625 V -4 c 0,-0.03125 -0.0625,-0.03125 -0.109375,0.015625 0,0.015625 -0.296875,0.296875 -0.421875,0.4375 v 0.40625 h -0.28125 c 0,0.015625 -0.1875,0.203125 -0.1875,0.234375 0,0.015625 0.015625,0.0625 0.046875,0.0625 h 0.421875 v 2.109375 c 0,0.625 0.375,0.78125 0.75,0.78125 0.34375,0 0.625,-0.265625 0.734375,-0.390625 0,0 0.03125,-0.078125 0.03125,-0.109375 C 2.125,-0.484375 2.109375,-0.5 2.09375,-0.5 c -0.046875,0.03125 -0.25,0.171875 -0.453125,0.171875 -0.328125,0 -0.5,-0.21875 -0.5,-0.609375 v -1.90625 h 0.875 C 2.078125,-2.90625 2.125,-3 2.125,-3.0625 c 0,-0.046875 0,-0.078125 -0.046875,-0.078125 z m 0,0"
               id="id-1f4efffb-3afd-4ae8-9fa4-8bd968ef504e" />
          </symbol>
        </g>
      </defs>
      <g
         id="id-adf682fd-3ef4-4926-854b-f3e6062992f3"
         transform="translate(-149.236,-128.093)">
        <g
           style="fill:#000000;fill-opacity:1"
           id="id-a231e4fa-3131-40ed-a929-fdbe989880ae">
          <g
             transform="translate(148.613,134.765)"
             id="g14174">
            <path
               style="stroke:none"
               d="m 1.765625,-6.625 c -0.4375,0 -0.65625,-0.03125 -1.078125,-0.046875 -0.015625,0.015625 -0.078125,0.28125 -0.0625,0.28125 0.109375,0 0.484375,0.078125 0.5625,0.234375 0.109375,0.265625 0.1875,0.578125 0.25,0.96875 0.3125,1.953125 0.5,3.25 0.796875,5.046875 0.015625,0.046875 0.015625,0.15625 0.0625,0.15625 0.109375,0 0.265625,-0.0625 0.421875,-0.328125 l 2.75,-4.796875 c 0.21875,-0.375 0.515625,-0.875 0.65625,-1.015625 0.203125,-0.1875 0.59375,-0.265625 0.65625,-0.265625 0.03125,0 0.09375,-0.234375 0.078125,-0.28125 C 6.484375,-6.65625 6.375,-6.625 5.9375,-6.625 c -0.34375,0 -0.65625,-0.03125 -1,-0.046875 C 4.890625,-6.625 4.859375,-6.40625 4.890625,-6.390625 5,-6.390625 5.4375,-6.3125 5.4375,-6.046875 c 0,0.03125 -0.015625,0.03125 -0.015625,0.0625 -0.03125,0.171875 -0.125,0.46875 -0.265625,0.703125 0,0 -2.234375,3.9375 -2.28125,3.984375 0,-0.03125 -0.46875,-3.140625 -0.59375,-4.03125 -0.03125,-0.25 -0.046875,-0.453125 -0.046875,-0.578125 0,-0.0625 0,-0.109375 0.015625,-0.140625 0.046875,-0.28125 0.546875,-0.34375 0.609375,-0.34375 C 2.90625,-6.40625 2.9375,-6.625 2.9375,-6.671875 2.546875,-6.65625 2.171875,-6.625 1.765625,-6.625 Z m 0,0"
               id="id-6a799f86-7ce5-46a9-8502-faa189f08461" />
          </g>
        </g>
        <g
           style="fill:#000000;fill-opacity:1"
           id="id-c0d71dc9-0539-44bf-9c0b-2a40b5e0c4c3">
          <g
             transform="translate(154.311,136.259)"
             id="g14178">
            <path
               style="stroke:none"
               d="m 1.75,-2.953125 c 0.640625,0 1.015625,0.8125 1.015625,1.515625 0,0.625 -0.234375,1.25 -0.84375,1.25 -0.65625,0 -1.015625,-0.796875 -1.015625,-1.5 0,-0.640625 0.234375,-1.265625 0.84375,-1.265625 z M 1.828125,-3.1875 c -0.875,0 -1.53125,0.703125 -1.53125,1.640625 0,0.90625 0.59375,1.59375 1.546875,1.59375 0.875,0 1.53125,-0.71875 1.53125,-1.65625 0,-0.90625 -0.59375,-1.578125 -1.546875,-1.578125 z m 0,0"
               id="id-407c130b-5071-4c69-b537-e1be6f1262cc" />
          </g>
          <g
             transform="translate(157.969,136.259)"
             id="g14181">
            <path
               style="stroke:none"
               d="m 2.53125,-2.265625 v 1.53125 c 0,0.15625 -0.359375,0.390625 -0.671875,0.390625 -0.5,0 -0.71875,-0.34375 -0.71875,-1.109375 v -1.03125 c 0,-0.21875 0.015625,-0.4375 0.046875,-0.5 C 1.1875,-3.015625 1.140625,-3.125 1.109375,-3.125 0.84375,-3.046875 0.5,-3 0.125,-2.984375 v 0.1875 c 0.09375,0 0.328125,0.015625 0.40625,0.140625 0.0625,0.109375 0.0625,0.296875 0.0625,0.390625 v 0.90625 c 0,0.59375 0.125,1.40625 0.890625,1.40625 0.375,0 0.828125,-0.25 1.03125,-0.46875 0,0 0.015625,0 0.015625,0.03125 V -0.0625 c 0,0.0625 0.015625,0.125 0.0625,0.125 0,0 0.546875,-0.1875 0.9375,-0.203125 0.03125,0 0.046875,-0.09375 0.046875,-0.109375 0,-0.03125 -0.015625,-0.078125 -0.03125,-0.078125 C 3.53125,-0.34375 3.171875,-0.3125 3.125,-0.453125 3.078125,-0.65625 3.078125,-0.921875 3.078125,-1 v -1.484375 c 0,-0.21875 0.03125,-0.40625 0.046875,-0.46875 0,-0.03125 -0.03125,-0.171875 -0.078125,-0.171875 -0.25,0.078125 -0.625,0.125 -0.984375,0.140625 v 0.1875 c 0.09375,0 0.328125,0.015625 0.40625,0.140625 0.0625,0.109375 0.0625,0.296875 0.0625,0.390625 z m 0,0"
               id="id-6124cc1c-25bf-4a42-95a3-2d28bc57633f" />
          </g>
          <g
             transform="translate(161.671,136.259)"
             id="g14184">
            <path
               style="stroke:none"
               d="M 1.140625,-3.140625 V -4 c 0,-0.03125 -0.0625,-0.03125 -0.109375,0.015625 0,0.015625 -0.296875,0.296875 -0.421875,0.4375 v 0.40625 h -0.28125 c 0,0.015625 -0.1875,0.203125 -0.1875,0.234375 0,0.015625 0.015625,0.0625 0.046875,0.0625 h 0.421875 v 2.109375 c 0,0.625 0.375,0.78125 0.75,0.78125 0.34375,0 0.625,-0.265625 0.734375,-0.390625 0,0 0.03125,-0.078125 0.03125,-0.109375 C 2.125,-0.484375 2.109375,-0.5 2.09375,-0.5 c -0.046875,0.03125 -0.25,0.171875 -0.453125,0.171875 -0.328125,0 -0.5,-0.21875 -0.5,-0.609375 v -1.90625 h 0.875 C 2.078125,-2.90625 2.125,-3 2.125,-3.0625 c 0,-0.046875 0,-0.078125 -0.046875,-0.078125 z m 0,0"
               id="id-4b648cbb-922e-4ee2-8120-ada070124fae" />
          </g>
        </g>
      </g>
    </g>
  </g>
</svg>
