<?xml version="1.0" encoding="UTF-8" standalone="no"?>
<!-- Created with Inkscape (http://www.inkscape.org/) -->

<svg
   xmlns:dc="http://purl.org/dc/elements/1.1/"
   xmlns:cc="http://creativecommons.org/ns#"
   xmlns:rdf="http://www.w3.org/1999/02/22-rdf-syntax-ns#"
   xmlns:svg="http://www.w3.org/2000/svg"
   xmlns="http://www.w3.org/2000/svg"
   xmlns:sodipodi="http://sodipodi.sourceforge.net/DTD/sodipodi-0.dtd"
   xmlns:inkscape="http://www.inkscape.org/namespaces/inkscape"
   width="110.48907mm"
   height="128.46368mm"
   viewBox="0 0 110.48907 128.46368"
   version="1.1"
   id="svg8"
   inkscape:version="0.92.1 r15371"
   sodipodi:docname="mirlogo.svg">
  <defs
     id="defs2" />
  <sodipodi:namedview
     id="base"
     pagecolor="#ffffff"
     bordercolor="#666666"
     borderopacity="1.0"
     inkscape:pageopacity="0.0"
     inkscape:pageshadow="2"
     inkscape:zoom="0.53974135"
     inkscape:cx="301.02867"
     inkscape:cy="473.8066"
     inkscape:document-units="mm"
     inkscape:current-layer="layer1"
     showgrid="false"
     fit-margin-top="0"
     fit-margin-left="0"
     fit-margin-right="0"
     fit-margin-bottom="0"
     inkscape:window-width="1600"
     inkscape:window-height="837"
     inkscape:window-x="-8"
     inkscape:window-y="-8"
     inkscape:window-maximized="1" />
  <metadata
     id="metadata5">
    <rdf:RDF>
      <cc:Work
         rdf:about="">
        <dc:format>image/svg+xml</dc:format>
        <dc:type
           rdf:resource="http://purl.org/dc/dcmitype/StillImage" />
        <dc:title></dc:title>
      </cc:Work>
    </rdf:RDF>
  </metadata>
  <g
     inkscape:label="Layer 1"
     inkscape:groupmode="layer"
     id="layer1"
     transform="translate(-9.8850336,-145.73097)">
    <path
       style="fill:#000000;stroke-width:0.26458335"
       d="m 58.249247,273.89255 c -1.09141,-0.20997 -2.52016,-0.5137 -3.175,-0.67497 -0.65485,-0.16127 -1.77719,-0.39326 -2.49411,-0.51554 -1.30635,-0.22282 -4.11234,-1.04196 -7.82464,-2.2842 -2.382707,-0.79733 -5.036394,-2.01794 -6.482294,-2.98165 -0.582083,-0.38796 -2.248958,-1.49453 -3.704167,-2.45904 -4.14972,-2.75041 -4.703162,-3.18133 -5.416349,-4.21725 -0.367988,-0.53451 -1.145318,-1.31661 -1.727401,-1.73799 -2.772974,-2.00743 -5.918581,-6.50477 -10.080346,-14.41209 -2.424207,-4.60597 -3.052274,-6.15134 -3.949605,-9.71807 -0.384413,-1.52797 -0.931042,-3.54775 -1.214731,-4.48841 -0.750863,-2.48971 -1.418477,-7.15117 -2.104457,-14.69388 -0.5175775,-5.69105 0.06382,-16.80328 1.169755,-22.35729 1.14395,-5.74495 1.141339,-5.73635 4.978982,-16.40417 0.884771,-2.45947 2.812901,-6.22871 4.58655,-8.96608 1.513994,-2.33664 5.755623,-7.26761 7.626524,-8.86597 7.474931,-6.38603 17.218389,-11.14956 26.263789,-12.84024 2.53633,-0.47407 3.95532,-0.54801 10.451052,-0.54463 5.49305,0.003 7.94356,0.1035 9.10374,0.37389 0.87313,0.20349 2.30188,0.44965 3.175,0.54703 1.9784,0.22064 11.17988,3.13713 12.96458,4.10923 4.5126,2.45794 5.70744,3.16323 7.01146,4.13872 1.48628,1.11184 7.310151,6.99346 9.014691,9.10409 1.21772,1.50782 4.21448,6.04211 4.21448,6.37677 0,0.14133 0.48767,1.07783 1.08371,2.08112 0.59604,1.00328 1.82288,3.64347 2.7263,5.86709 1.98391,4.88302 2.99699,8.50396 3.98114,14.2294 0.23762,1.38245 0.60589,3.40923 0.81836,4.50396 0.21248,1.09473 0.38632,2.65697 0.38632,3.47165 0,0.81467 0.18992,3.1932 0.42204,5.28562 0.48567,4.37797 0.40349,13.60235 -0.15057,16.90127 -0.39092,2.32759 -1.91991,9.15555 -2.61686,11.68603 -0.48186,1.74955 -0.65968,2.24351 -2.5557,7.09939 -3.35833,8.60099 -9.67213,17.29068 -16.144781,22.22005 -6.95422,5.29611 -12.42317,7.68709 -23.00725,10.05858 -2.15998,0.48396 -14.96066,0.56343 -17.330212,0.10758 z m 14.613322,-2.7788 c 4.72702,-0.71403 8.00992,-1.58564 11.2817,-2.99527 3.58425,-1.54425 6.86735,-3.17716 8.12172,-4.03948 0.42678,-0.29339 1.4886,-0.99766 2.35961,-1.56503 2.43475,-1.58601 6.933391,-5.56957 8.626041,-7.63838 3.77983,-4.61984 8.5253,-12.78321 9.84809,-16.94113 1.7647,-5.54698 2.60644,-8.72783 2.97567,-11.24479 0.0961,-0.65484 0.36009,-1.905 0.58672,-2.77813 0.33355,-1.28507 0.40656,-3.15001 0.38322,-9.78958 -0.0406,-11.54552 -0.64226,-18.25968 -2.14576,-23.94479 -2.48378,-9.39177 -4.00388,-13.45792 -6.77143,-18.1131 -2.41488,-4.06196 -6.09576,-9.36326 -6.95817,-10.02131 -0.39583,-0.30204 -1.791251,-1.51658 -3.100941,-2.69898 -2.65721,-2.39896 -4.07384,-3.418 -6.21771,-4.47266 -0.80036,-0.39373 -2.11005,-1.05446 -2.91041,-1.46829 -2.55074,-1.31888 -8.89511,-3.13137 -13.49375,-3.85497 -1.52797,-0.24042 -3.12332,-0.54359 -3.54522,-0.6737 -1.0679,-0.32935 -10.10334,-0.29655 -12.84522,0.0466 -6.025702,0.75417 -8.553352,1.36131 -14.036652,3.37155 -3.3261,1.21938 -7.454521,3.50842 -10.661975,5.91163 -0.843618,0.63208 -1.974712,1.4787 -2.513541,1.88137 -0.538832,0.40267 -2.561664,2.3011 -4.495187,4.21873 -3.769465,3.73849 -4.436084,4.73647 -8.240359,12.33642 -2.085657,4.1666 -4.082164,10.21442 -4.381383,13.2721 -0.09256,0.94588 -0.273976,2.19604 -0.403142,2.77812 -0.642553,2.89566 -1.67599,13.27746 -1.672429,16.80104 0.0026,2.6101 0.645194,10.59618 1.043124,12.96459 0.595349,3.5434 1.15488,6.36996 1.414136,7.14375 0.121893,0.3638 0.486853,1.61395 0.811023,2.77812 2.294877,8.24142 5.555678,14.98138 9.984445,20.6375 3.722357,4.75395 8.005892,8.41113 13.186977,11.25875 0.859477,0.47238 2.098468,1.19084 2.753312,1.59657 0.654844,0.40573 2.083589,1.03127 3.174999,1.39008 1.09141,0.35881 2.63922,0.90436 3.43958,1.21232 1.71379,0.65943 4.65837,1.36668 8.33438,2.00182 1.45521,0.25142 3.003022,0.55257 3.439582,0.66921 1.20399,0.32167 10.44489,0.29921 12.62895,-0.0307 z m -9.58624,-3.25773 c -0.88362,-0.31772 -0.93381,-0.40466 -1.09576,-1.8981 -0.0934,-0.86082 -0.18264,-4.43887 -0.19844,-7.95123 l -0.0287,-6.3861 1.18055,-0.17704 c 1.373,-0.20589 2.1954,0.13413 2.38118,0.98449 0.0706,0.32322 0.16132,2.43314 0.20157,4.68871 0.0402,2.25558 0.16969,4.2502 0.28766,4.43249 0.15296,0.23636 0.35633,0.25554 0.70888,0.0668 0.56632,-0.30308 3.95349,-6.83445 4.64744,-8.96148 0.3854,-1.18131 0.61604,-1.48335 1.37476,-1.80036 0.50141,-0.20951 1.34644,-0.34467 1.87784,-0.30035 0.94545,0.0788 0.96758,0.10609 1.03188,1.27119 0.1656,3.00052 1.92701,10.95447 2.74253,12.38439 0.27448,0.48126 0.49905,1.10328 0.49905,1.38227 0,0.71659 -1.31372,1.31459 -2.88797,1.31459 -1.65158,0 -1.75507,-0.17515 -1.95437,-3.30729 -0.0833,-1.30969 -0.34417,-3.15516 -0.57965,-4.10105 -0.84093,-3.37794 -1.23307,-3.81069 -2.20995,-2.4388 -0.74222,1.04235 -3.58444,7.05224 -4.15643,8.7888 -0.76237,2.31452 -1.65922,2.7857 -3.82205,2.00802 z M 52.633497,266.4939 c -1.29683,-0.70376 -1.29866,-1.02375 -0.0286,-5.01152 0.64884,-2.03729 1.30327,-4.10295 1.4543,-4.59035 0.69133,-2.23104 -1.005,-1.35401 -5.38155,2.78235 -2.45846,2.32352 -2.71185,2.49307 -3.61371,2.41795 l -0.96986,-0.0808 0.0181,-2.77813 c 0.01,-1.52797 0.11695,-3.81992 0.23773,-5.09323 0.18478,-1.94798 0.1587,-2.3151 -0.16445,-2.3151 -0.5363,0 -2.604962,1.56144 -2.604962,1.96624 0,0.18313 -0.474493,1.0671 -1.054428,1.96437 -0.579935,0.89727 -1.296729,2.10636 -1.592877,2.68685 -0.404214,0.79233 -0.698272,1.05545 -1.179528,1.05545 -0.54918,0 -1.464834,-0.83095 -1.464834,-1.32934 0,-0.0843 0.966798,-1.15913 2.148438,-2.38852 1.181642,-1.2294 2.570551,-2.89011 3.086468,-3.69047 0.515916,-0.80036 1.40948,-2.06325 1.9857,-2.80642 0.576213,-0.74316 1.248403,-1.93379 1.493743,-2.64583 0.50236,-1.45797 1.17626,-1.76831 2.27565,-1.04796 1.21366,0.79522 1.50261,1.77908 1.19329,4.06306 -0.45893,3.38868 -0.767,6.78444 -0.63489,6.9982 0.46917,0.75915 2.33893,-0.47366 5.53427,-3.64898 1.76931,-1.75823 3.07349,-2.38216 4.33008,-2.07157 1.181852,0.29211 1.315312,0.93024 0.59101,2.82579 -0.78582,2.05653 -2.1286,6.71741 -2.45462,8.52017 -0.15791,0.87312 -0.21563,2.11095 -0.12829,2.75072 0.0963,0.70511 0.0418,1.30425 -0.13841,1.52135 -0.39007,0.47 -2.02741,0.43973 -2.93777,-0.0543 z m 32.354472,-2.85259 c -0.15421,-0.15422 -0.28039,-0.67118 -0.28039,-1.14881 0,-0.47763 -0.41118,-1.67421 -0.91374,-2.65907 -0.50256,-0.98485 -1.57907,-3.19111 -2.39224,-4.90279 -0.81317,-1.71169 -1.81065,-3.49763 -2.21662,-3.96875 -0.40596,-0.47113 -0.81942,-1.07908 -0.91879,-1.351 -0.58402,-1.59818 7.1916,-5.36822 9.88098,-4.79083 0.3638,0.0781 1.13093,0.53732 1.70473,1.02047 0.98818,0.83206 1.04917,0.9709 1.15475,2.62901 0.0967,1.51833 0.0216,1.90382 -0.56562,2.90591 -0.82552,1.40865 -2.64087,3.09547 -3.33132,3.09547 -0.85971,0 -1.34379,0.29851 -1.34379,0.82866 0,0.82989 1.813,4.17698 2.79377,5.15775 0.9516,0.9516 1.01518,1.10559 0.74604,1.80695 -0.34467,0.8982 -3.72009,1.9747 -4.31776,1.37703 z m 1.48804,-10.82404 c 1.10436,-1.16675 1.40657,-1.82686 1.40657,-3.07225 0,-1.39679 -0.9017,-2.15327 -2.56661,-2.15327 -1.81524,0 -2.19589,0.31968 -2.19589,1.84417 0,0.71301 0.10602,1.57524 0.2356,1.91606 0.26852,0.70626 1.70811,2.32519 2.06761,2.32519 0.13135,0 0.60508,-0.38695 1.05272,-0.8599 z m -25.05176,-4.30747 c -1.74645,-0.29955 -4.240882,-0.91639 -6.746882,-1.66841 -1.62704,-0.48825 -5.97442,-3.03124 -7.58944,-4.43943 -3.44794,-3.00636 -5.483636,-5.62041 -7.491265,-9.61958 -2.096624,-4.17646 -3.748339,-10.23804 -4.183568,-15.35313 -0.716867,-8.42513 -0.301125,-18.92566 0.989939,-25.00312 0.925544,-4.35684 3.752273,-10.1817 6.432105,-13.25423 6.375829,-7.31012 15.891019,-10.77574 25.340761,-9.2296 6.24098,1.02114 10.52651,2.92032 14.70509,6.51671 2.66995,2.29795 4.54796,4.70581 6.22037,7.97535 1.36388,2.66637 1.69368,3.47203 3.00072,7.33031 0.65358,1.92932 1.27872,5.31671 1.61133,8.73125 0.14884,1.52797 0.39688,4.08781 0.55121,5.68854 0.16128,1.67278 0.23012,6.17327 0.16189,10.58333 l -0.11871,7.67292 -0.98344,2.85587 c -2.40409,6.9814 -3.90128,9.64216 -7.36427,13.08753 -6.44128,6.4085 -16.03112,9.58443 -24.53584,8.12569 z m 10.50984,-3.42599 c 2.93855,-0.74498 6.99932,-2.64193 9.72083,-4.541 2.96742,-2.07066 5.68331,-5.66513 7.47842,-9.89762 1.35562,-3.1963 1.56621,-3.89535 1.94876,-6.46906 0.66316,-4.46153 0.62792,-4.49809 -3.38484,-3.51172 -1.57156,0.3863 -4.76239,1.14083 -7.09072,1.67674 -2.32833,0.5359 -5.06677,1.20694 -6.08542,1.4912 -1.01864,0.28426 -2.53791,0.68516 -3.37615,0.89089 -2.00462,0.492 -4.46595,1.75157 -5.25363,2.68852 -0.61449,0.73093 -1.01834,2.13187 -1.96557,6.81853 -0.66555,3.29295 -1.17251,5.66937 -1.6027,7.51285 -0.38855,1.66506 -0.30703,3.00853 0.22246,3.6658 0.18718,0.23235 1.23842,0.33073 3.53398,0.33073 2.60579,0 3.79148,-0.13283 5.85458,-0.65586 z m -14.001532,-1.78025 c 0.0886,-1.37682 -0.1389,-2.72951 -0.99211,-5.89827 -0.31346,-1.16416 -0.66984,-2.59291 -0.79194,-3.175 -1.55783,-7.42629 -2.50526,-8.29081 -10.73155,-9.79245 -1.30969,-0.23908 -2.954294,-0.56902 -3.654678,-0.73322 -2.568823,-0.60221 -2.789457,0.33944 -1.102333,4.70467 2.326492,6.01952 5.639411,10.52563 9.786751,13.31159 2.52286,1.69473 5.41083,2.98838 6.47963,2.90254 0.90359,-0.0726 0.92799,-0.10458 1.00623,-1.31986 z m 2.879592,-7.32754 c 0.40961,-1.41478 0.90225,-6.00145 0.70093,-6.52606 -0.18474,-0.48144 -2.55799,-0.52055 -2.931352,-0.0483 -0.56682,0.71696 -0.54759,1.96383 0.0622,4.03489 0.342792,1.16417 0.702782,2.51025 0.799992,2.9913 0.25058,1.2401 0.94471,1.01088 1.3682,-0.45182 z m 1.40585,-10.47698 c 0,-0.21828 -0.11204,-0.39687 -0.24897,-0.39687 -0.33363,0 -0.57258,0.41317 -0.3612,0.62455 0.29797,0.29797 0.61017,0.18148 0.61017,-0.22768 z m -5.519422,-3.01993 c 0.34355,-0.27851 0.5651,-0.55949 0.49233,-0.62439 -0.0728,-0.0649 -0.74438,-0.18706 -1.4925,-0.27147 -1.52468,-0.17204 -2.41306,0.2312 -2.13066,0.96712 0.24372,0.63513 2.31774,0.58793 3.13083,-0.0713 z m -6.96952,-1.54413 c 0.0842,-1.7665 0.0992,-1.74858 -1.40169,-1.66609 -0.83219,0.0457 -2.54633,0.75417 -3.42959,1.41742 -0.75449,0.56654 -0.15109,1.16828 1.40071,1.39685 0.67932,0.10005 1.47326,0.27918 1.7643,0.39805 1.26462,0.51653 1.58204,0.22197 1.66627,-1.54623 z m 15.673242,1.37785 c 0.60242,-0.72586 -0.20672,-1.02053 -2.58899,-0.94286 -1.18473,0.0386 -1.10299,0.66039 0.13229,1.00627 1.46112,0.40911 2.07776,0.39319 2.4567,-0.0634 z m 9.82704,-1.40635 c 2.22986,-0.56138 4.38171,-1.09943 4.78189,-1.19567 0.40018,-0.0962 0.7276,-0.34184 0.7276,-0.54578 0,-0.20395 -0.32742,-0.44249 -0.7276,-0.53008 -2.94913,-0.64555 -10.52712,-1.16931 -10.94027,-0.75616 -0.39194,0.39194 -0.56597,2.54907 -0.26792,3.32078 0.24085,0.62358 0.4305,0.7276 1.32652,0.7276 0.57502,0 2.86992,-0.45931 5.09978,-1.02069 z m -32.061344,-2.5285 c 6.185432,-2.41669 8.546752,-3.83954 9.849952,-5.93523 0.52964,-0.85173 0.62089,-1.43835 0.76764,-4.93537 0.36916,-8.79716 0.77009,-16.00812 1.02238,-18.38854 0.43667,-4.11996 0.63093,-12.99452 0.30262,-13.82449 -0.54911,-1.3881 -1.93057,-0.92652 -6.26904,2.09463 -0.88137,0.61375 -2.5503,2.10506 -3.70875,3.31403 -1.819043,1.89838 -2.348149,2.68518 -3.880174,5.76999 -1.192604,2.40138 -1.868572,4.12315 -2.062768,5.25413 -0.158869,0.92523 -0.585481,2.8811 -0.948024,4.34636 -0.65175,2.63412 -0.658264,2.77459 -0.578485,12.47296 0.09223,11.21227 0.0803,11.14328 1.892774,10.93799 0.604083,-0.0684 2.229427,-0.56632 3.611875,-1.10646 z M 56.264867,218.223 c 0,-0.28746 -0.35664,-0.41952 -1.29368,-0.47902 -1.32494,-0.0841 -1.95289,0.19969 -1.62294,0.73356 0.29038,0.46986 2.91662,0.24066 2.91662,-0.25454 z m 8.589342,-0.38528 c 0.51235,-0.61735 0.0459,-1.01296 -1.01687,-0.86235 -1.36144,0.19294 -2.47316,0.6718 -2.28111,0.98255 0.26111,0.42248 2.92828,0.32526 3.29798,-0.1202 z m 26.76883,-2.19441 c 0.32732,-0.82757 0.1203,-9.82522 -0.28155,-12.23697 -0.13336,-0.80037 -0.43872,-2.88396 -0.67858,-4.63021 -0.7763,-5.65168 -2.0945,-9.95448 -4.32917,-14.13101 -2.20692,-4.12469 -6.96818,-8.19867 -11.41574,-9.76792 -5.59697,-1.9748 -5.4566,-1.94568 -10.09207,-2.09358 -2.42193,-0.0773 -4.71045,-0.0635 -5.08559,0.0307 -1.005352,0.25233 -1.248842,0.91208 -0.950712,2.57591 0.140492,0.78402 0.427652,2.85424 0.638132,4.60049 0.3537,2.93433 1.04693,7.13243 1.33256,8.06979 0.0665,0.21828 0.23451,1.41009 0.37333,2.64847 0.13882,1.23838 0.54897,3.67916 0.91145,5.42396 0.885,4.25995 1.98673,10.27598 2.17993,11.90361 0.0864,0.72761 0.39264,2.06239 0.68062,2.96618 0.41834,1.31296 0.70661,1.75639 1.43415,2.20603 1.02366,0.63266 4.52273,1.56341 5.93237,1.57801 0.50932,0.005 1.42403,0.12454 2.03268,0.26503 0.60865,0.1405 3.80584,0.42767 7.10487,0.63817 3.29903,0.2105 6.06534,0.44982 6.14735,0.53184 0.082,0.082 0.96566,0.14912 1.96366,0.14912 1.73334,0 1.82741,-0.0326 2.10231,-0.72761 z m -30.19669,-5.49263 c 0.34942,-0.42103 0.3102,-0.8547 -0.39458,-4.36309 -0.21925,-1.09141 -0.58151,-3.53219 -0.80502,-5.42396 -0.37051,-3.13595 -1.696842,-10.20555 -2.123042,-11.31619 -0.25872,-0.67422 -0.58551,-0.55768 -0.75661,0.26983 -0.24834,1.20104 -0.68453,11.52955 -0.68495,16.21896 -2.7e-4,3.05347 0.0957,4.47495 0.3171,4.69636 0.48388,0.48387 4.031772,0.41853 4.447102,-0.0819 z m -29.65579,35.60934 c -0.42537,-0.42537 -0.773398,-1.02659 -0.773398,-1.33605 0,-2.32823 3.082769,-3.46598 4.502103,-1.66159 0.666152,0.84687 0.665723,1.81717 -0.0013,2.91114 -0.468969,0.76917 -0.652471,0.8599 -1.739154,0.8599 -0.989971,0 -1.35804,-0.14317 -1.988265,-0.7734 z m 63.96275,0.23277 c -0.83961,-0.66044 -1.13243,-2.00669 -0.71294,-3.27776 0.58216,-1.76396 2.32723,-2.26045 3.99493,-1.13659 1.810781,1.22028 1.994691,2.71619 0.51575,4.19513 -0.96005,0.96006 -2.7263,1.06201 -3.79774,0.21922 z m -74.939602,-7.28175 c -0.448716,-1.42659 -0.447425,-1.48772 0.04152,-1.96537 0.540399,-0.52791 2.541314,-1.30115 5.531726,-2.13769 3.017768,-0.84419 4.133127,-1.33859 4.045564,-1.79328 -0.128318,-0.66629 -4.769705,-2.33295 -7.882023,-2.83033 -4.026809,-0.64351 -4.484404,-0.81649 -4.920397,-1.85996 -0.204198,-0.48872 -0.37127,-1.11447 -0.37127,-1.39056 0,-0.87184 1.007262,-1.86481 2.061986,-2.03273 1.468787,-0.23385 5.686036,-1.16819 8.484169,-1.87969 2.777932,-0.70636 4.847053,-0.81333 5.294879,-0.27373 0.162475,0.19577 0.368318,0.7205 0.457432,1.16607 0.203222,1.0161 -0.484923,1.53327 -2.560682,1.92447 -0.789062,0.14871 -2.44669,0.61244 -3.683617,1.03051 -1.672005,0.56513 -2.248958,0.87852 -2.248958,1.22159 0,0.52546 0.309062,0.72158 1.984375,1.25921 0.654844,0.21015 2.024063,0.69638 3.042708,1.08052 1.018646,0.38415 2.552605,0.81221 3.408797,0.95126 1.763601,0.28643 2.39595,0.73935 2.818101,2.01847 0.565912,1.71473 0.240093,1.97904 -4.374814,3.54887 -2.476421,0.84239 -2.944339,0.98477 -5.522855,1.68057 -0.854755,0.23065 -2.066582,0.7197 -2.692946,1.08677 -0.626365,0.36708 -1.433984,0.66741 -1.794709,0.66741 -0.564045,0 -0.720701,-0.20613 -1.118986,-1.47238 z m 79.508743,-0.0891 c -1.134891,-0.71294 -2.823761,-2.50825 -3.757901,-3.99473 -0.66547,-1.05894 -1.32895,-4.14263 -1.12793,-5.24232 0.38355,-2.09828 2.55527,-4.68728 5.033671,-6.00088 1.24727,-0.66107 1.45908,-0.69085 3.70417,-0.52076 2.8244,0.21399 3.7357,0.54948 5.34835,1.96899 0.66464,0.58505 1.29312,1.06372 1.3966,1.06372 0.40892,0 1.95863,3.89554 2.06632,5.19415 0.1928,2.32486 -0.51414,3.87854 -2.84315,6.24856 l -2.01556,2.05104 -3.29919,-0.005 c -3.16959,-0.005 -3.34659,-0.0348 -4.50538,-0.76274 z m 8.69489,-2.80103 c 1.02392,-0.86157 1.63941,-2.19884 1.63941,-3.56193 0,-1.4187 -0.46889,-2.29201 -1.97695,-3.6821 -2.85741,-2.63387 -6.66227,-3.45729 -9.036051,-1.95552 -1.32442,0.83789 -1.79434,1.769 -1.76817,3.5035 0.0241,1.59689 0.5496,2.57332 2.168141,4.02853 1.78604,1.6058 3.60419,2.28713 6.16096,2.30874 1.79082,0.0151 2.12248,-0.0605 2.81266,-0.64122 z m -9.595821,-17.44209 c -1.53162,-1.53162 -1.76105,-2.48725 -1.67074,-6.95889 l 0.0737,-3.64793 7.197141,-0.13229 c 5.25495,-0.0966 7.28626,-0.22154 7.52739,-0.46302 0.49957,-0.50028 1.4936,-0.39636 1.80683,0.18891 0.15295,0.2858 0.30597,2.28773 0.34003,4.44872 0.0615,3.90313 0.0571,3.93648 -0.67625,5.04695 -1.35717,2.05517 -2.82092,2.5352 -5.37132,1.76151 -1.75546,-0.53253 -2.14639,-0.50445 -3.65877,0.26283 -0.94761,0.48075 -1.72306,0.66035 -2.85123,0.66035 -1.47919,0 -1.60267,-0.0531 -2.716761,-1.16714 z m 4.523671,-2.96839 c 1.6021,-0.76025 2.17688,-2.29017 1.24659,-3.31812 -0.34219,-0.37811 -0.82989,-0.48385 -2.23173,-0.48385 -0.98662,0 -2.11214,0.12101 -2.50117,0.26892 -0.643801,0.24477 -0.691591,0.35763 -0.532281,1.25677 0.291761,1.64668 0.419491,1.9007 1.157171,2.30125 0.93557,0.50799 1.75332,0.50085 2.86142,-0.025 z m 7.62575,-0.26216 c 0.9467,-0.36328 1.54942,-2.55786 0.88498,-3.22231 -0.47756,-0.47756 -4.29355,-0.42191 -4.70059,0.0685 -0.43833,0.52815 -0.1229,1.79504 0.65626,2.63576 0.4749,0.51242 0.89373,0.68237 1.68172,0.68237 0.57713,0 1.24206,-0.074 1.47763,-0.16436 z m -94.919075,0.75567 c -0.334518,-0.69342 -0.89908,-1.65418 -1.254582,-2.13503 -0.516135,-0.6981 -0.642245,-1.17778 -0.625902,-2.3807 0.03139,-2.31048 0.992958,-3.61074 3.25071,-4.39568 1.203522,-0.41842 2.164394,-0.3276 3.06592,0.28978 0.837774,0.57372 2.031528,0.41657 3.314567,-0.43635 1.02132,-0.67894 1.435176,-0.7904 2.910416,-0.78383 1.432595,0.006 1.893089,0.1277 2.757517,0.72647 2.254621,1.56174 2.915134,4.60743 1.577946,7.27605 -0.855877,1.70807 -1.36937,2.30631 -1.979605,2.30631 -0.768543,0 -0.866163,-0.52325 -0.224959,-1.20578 0.480187,-0.51113 0.603192,-0.95777 0.620805,-2.25419 0.01979,-1.45568 -0.05178,-1.68019 -0.718164,-2.2534 -0.623861,-0.53662 -1.020987,-0.63663 -2.527959,-0.63663 -1.641096,0 -1.850242,0.0651 -2.548289,0.79375 -0.855846,0.89331 -1.971956,1.04945 -2.547188,0.35633 -0.605951,-0.73012 -1.825195,-1.1202 -2.627344,-0.84057 -2.209656,0.77029 -2.509919,3.03992 -0.73312,5.54151 0.409025,0.57587 0.09532,1.29273 -0.56571,1.29273 -0.379204,0 -0.715443,-0.37022 -1.145059,-1.26077 z M 30.00246,203.42199 c -0.584562,-0.84064 -1.54554,-1.48278 -4.958424,-3.31329 -6.230902,-3.34197 -8.334375,-4.74411 -8.334375,-5.55557 0,-0.86905 0.757517,-1.22141 4.233333,-1.96911 3.090103,-0.66473 5.282335,-1.19414 7.299296,-1.76274 0.740394,-0.20872 1.573832,-0.38027 1.852084,-0.38123 0.278251,-0.001 0.8631,-0.24616 1.299662,-0.54489 1.106877,-0.75742 1.910953,-1.05244 2.378954,-0.87285 0.534215,0.205 0.502991,0.74875 -0.140158,2.4409 -0.296484,0.78007 -0.784188,3.04225 -1.083786,5.02709 -0.456695,3.02559 -0.497952,3.89421 -0.255299,5.37503 0.351718,2.14641 0.212616,2.59938 -0.79824,2.59938 -0.594988,0 -0.931273,-0.23486 -1.493047,-1.04272 z m 0.38531,-4.59422 c 0.203118,-0.69923 0.334026,-2.00891 0.29091,-2.91042 l -0.07839,-1.6391 -1.322917,0.0193 c -1.916586,0.028 -5.066512,0.58055 -5.968684,1.04708 -1.442169,0.74577 -1.08124,1.20612 2.529101,3.22572 3.760663,2.10369 4.009573,2.11778 4.549984,0.25742 z m 80.90753,4.30487 c -0.10538,-0.33204 0.0399,-0.89546 0.37905,-1.47033 0.64343,-1.09054 0.70611,-2.03025 0.16534,-2.47905 -0.97376,-0.80814 -12.045911,-0.0652 -13.531101,0.90789 -0.33979,0.22265 -0.78148,0.40481 -0.98152,0.40481 -0.76905,0 -1.56007,-3.18563 -1.02661,-4.13444 0.23658,-0.42078 0.61151,-0.49765 2.47887,-0.50821 1.21007,-0.007 3.807471,-0.21896 5.772001,-0.47138 6.82772,-0.87728 7.02245,-0.95177 6.80115,-2.60167 -0.0731,-0.54492 -0.38309,-1.34215 -0.68889,-1.77161 -0.69743,-0.97945 -0.6989,-1.2796 -0.007,-1.49909 0.95549,-0.30326 2.05845,0.35971 2.37187,1.42568 0.61934,2.10645 1.06172,11.11648 0.58114,11.83621 -0.25897,0.38784 -1.25253,0.89951 -1.74667,0.89951 -0.21804,0 -0.47332,-0.24225 -0.56729,-0.53832 z M 95.524679,189.64039 c -0.98438,-0.64696 -1.38835,-1.16487 -2.08145,-2.66858 -1.07596,-2.33431 -1.02793,-3.87563 0.19836,-6.36607 0.86456,-1.75581 2.16735,-2.96196 4.55974,-4.22149 1.05735,-0.55667 1.49849,-0.62081 3.940971,-0.57297 2.33568,0.0457 2.95399,0.15413 4.10104,0.71886 2.85249,1.40437 4.02661,3.39451 4.30342,7.2943 l 0.16646,2.34496 -0.99659,0.41641 c -1.26487,0.52849 -1.35369,0.52384 -1.98136,-0.10383 -0.51601,-0.51601 -0.51606,-0.52944 -0.006,-1.65365 0.73935,-1.62902 0.68557,-3.15218 -0.14623,-4.14071 -0.81678,-0.9707 -3.87537,-2.03617 -5.21006,-1.81495 -2.21292,0.36679 -4.035361,1.31797 -5.713041,2.98179 l -1.67349,1.65967 0.18471,1.28102 c 0.25931,1.79835 0.7567,2.88759 1.72063,3.768 0.85725,0.78298 0.98018,1.68025 0.24798,1.81013 -0.21661,0.0384 -0.94348,-0.29138 -1.61528,-0.73289 z m -62.596938,-3.84805 c -0.261453,-0.37436 -1.087951,-1.4224 -1.836658,-2.32898 -0.74871,-0.90658 -2.044512,-2.71364 -2.879564,-4.01569 -0.835049,-1.30206 -2.018652,-2.96269 -2.630225,-3.6903 -1.875334,-2.23113 -2.142519,-2.74146 -1.678323,-3.20566 0.736922,-0.73692 3.027825,-0.73791 5.97528,-0.003 1.494653,0.37288 3.340122,0.75819 4.101042,0.85624 0.760921,0.0981 1.665544,0.28285 2.010273,0.41067 0.344731,0.12781 1.704578,0.3439 3.021885,0.48018 3.434337,0.35531 3.828103,0.9819 1.878473,2.98914 -1.100211,1.13273 -1.343133,1.16767 -3.340317,0.48054 -0.807344,-0.27776 -2.279819,-0.59198 -3.272168,-0.69825 -0.992349,-0.10627 -2.192078,-0.35526 -2.666069,-0.5533 -0.473988,-0.198 -1.341871,-0.36004 -1.928627,-0.36004 -1.485913,0 -1.4072,0.57243 0.35919,2.61214 0.784313,0.90567 1.713463,2.20649 2.06478,2.89071 0.440303,0.85753 0.983681,1.43514 1.748977,1.85917 0.90083,0.49912 1.110221,0.75753 1.110221,1.37016 0,0.80263 -0.591539,1.58658 -1.197171,1.58658 -0.201094,0 -0.579543,-0.3063 -0.840999,-0.68066 z m 55.427898,-9.187 c -0.683,-0.30344 -2.78442,-1.92184 -5.00593,-3.85531 -0.56286,-0.48988 -1.02338,-1.08783 -1.02338,-1.32878 0,-0.24096 0.38696,-0.90636 0.8599,-1.47869 0.47294,-0.57232 1.27661,-1.59836 1.78594,-2.28007 0.50932,-0.68172 1.86073,-2.39594 3.00314,-3.80937 1.1424,-1.41344 2.35692,-3.20261 2.69892,-3.97595 0.37326,-0.84401 0.84056,-1.47548 1.16903,-1.57973 1.22526,-0.38889 3.70717,1.60786 3.32821,2.67762 -0.0964,0.27215 -0.6671,0.852 -1.26822,1.28856 -0.60111,0.43657 -1.81472,1.7199 -2.69691,2.85186 -0.88218,1.13197 -2.27697,2.9179 -3.09953,3.96875 -1.3554,1.73158 -1.66894,2.38023 -1.57761,3.26372 0.0663,0.64102 2.02868,1.68963 3.16204,1.68963 2.67204,0 4.16966,-1.60894 3.51654,-3.77791 -0.8063,-2.67768 -0.57381,-3.241 0.95414,-2.3118 1.10583,0.6725 1.92298,2.48177 1.92176,4.25502 -0.001,1.54886 -0.39524,2.40708 -1.78442,3.88521 -0.78894,0.83946 -0.86066,0.85962 -3.0171,0.84797 -1.21492,-0.007 -2.53186,-0.1554 -2.92652,-0.33073 z m -44.340052,-4.71008 c -0.2479,-0.45067 -0.840337,-1.33999 -1.316537,-1.97626 -0.476202,-0.63627 -1.08734,-1.66652 -1.358085,-2.28945 -0.407797,-0.93825 -2.366415,-3.85345 -3.471857,-5.16749 -0.153025,-0.1819 -0.607963,-0.33073 -1.010976,-0.33073 -0.923594,0 -1.390375,0.36998 -2.274173,1.80253 -0.535416,0.86787 -0.843206,1.12127 -1.285489,1.05834 -0.431893,-0.0615 -0.60185,-0.2906 -0.660543,-0.89058 -0.137255,-1.40307 0.564589,-2.03611 6.511502,-5.87317 3.861549,-2.49155 4.541918,-2.8035 5.400238,-2.47603 0.74579,0.28454 1.26475,1.45753 0.83468,1.8866 -0.12759,0.1273 -0.91716,0.33877 -1.7546,0.46994 -1.680804,0.26327 -2.578419,0.88376 -2.578419,1.78237 0,1.07206 4.827229,8.9712 5.852489,9.57683 1.3428,0.79321 1.21082,1.70417 -0.39027,2.69369 -1.27048,0.7852 -1.95989,0.71162 -2.49796,-0.26659 z m 33.100422,-2.28103 c -1.06871,-0.53234 -1.53104,-1.55874 -1.15163,-2.55668 0.34914,-0.91829 0.36352,-7.30881 0.0185,-8.21628 -0.14192,-0.37328 -0.40981,-0.6749 -0.59531,-0.67027 -0.39384,0.01 -3.94342,4.96073 -5.09978,7.11311 -0.67914,1.26409 -0.91538,1.48921 -1.63607,1.55903 -0.61637,0.0597 -0.91578,-0.0557 -1.1162,-0.43016 -0.32179,-0.60127 0.29218,-1.62164 2.93707,-4.88119 2.62936,-3.24042 4.94408,-6.29693 5.85764,-7.73483 0.62827,-0.98888 1.02524,-1.3442 1.57213,-1.40721 1.35545,-0.15616 1.54858,0.90277 1.71306,9.39266 0.15415,7.95698 0.10813,8.30557 -1.0918,8.2695 -0.3096,-0.009 -0.94303,-0.20626 -1.40761,-0.43768 z m -23.872782,-1.50439 c -0.19051,-0.22955 -0.43912,-1.22214 -0.55246,-2.20575 -0.11334,-0.98361 -0.27516,-1.96698 -0.35959,-2.18526 -0.0844,-0.21828 -0.27339,-1.28984 -0.41989,-2.38125 -0.42172,-3.14162 -0.79448,-4.72182 -1.47891,-6.26943 l -0.63707,-1.44055 0.66822,-0.61929 c 0.73215,-0.67853 2.87582,-1.21352 6.90507,-1.7233 2.726512,-0.34495 3.407922,-0.16922 3.689202,0.95146 0.27402,1.0918 -0.23263,1.33792 -1.68359,0.81787 -1.620082,-0.58067 -2.237212,-0.56624 -3.507912,0.082 -1.38791,0.70806 -1.61348,1.2109 -1.38141,3.07947 l 0.19248,1.54987 1.1242,0.0813 c 0.70621,0.0511 1.34294,-0.0719 1.71252,-0.33073 0.82328,-0.57664 1.978012,-0.52688 2.313352,0.0997 0.40675,0.76003 0.33157,2.28598 -0.13156,2.67035 -0.32496,0.26969 -0.60235,0.27152 -1.397132,0.009 -0.54541,-0.18 -1.33835,-0.28708 -1.76207,-0.23795 -0.61955,0.0718 -0.81439,0.26027 -0.9951,0.96238 -0.28794,1.11876 0.1749,3.68035 0.78725,4.35699 0.67358,0.74429 3.388882,0.54422 5.433672,-0.40036 1.75391,-0.81021 2.30758,-0.72578 2.30758,0.35189 0,1.13183 -0.75577,1.46883 -5.03581,2.24549 -5.643882,1.02413 -5.404182,1.00196 -5.791042,0.53582 z"
       id="path4562"
       inkscape:connector-curvature="0" />
  </g>
</svg>
