<?xml version="1.0" encoding="UTF-8" standalone="no"?>
<svg
   xmlns:ns2="http://www.iki.fi/pav/software/textext/"
   xmlns:dc="http://purl.org/dc/elements/1.1/"
   xmlns:cc="http://creativecommons.org/ns#"
   xmlns:rdf="http://www.w3.org/1999/02/22-rdf-syntax-ns#"
   xmlns:svg="http://www.w3.org/2000/svg"
   xmlns="http://www.w3.org/2000/svg"
   xmlns:sodipodi="http://sodipodi.sourceforge.net/DTD/sodipodi-0.dtd"
   xmlns:inkscape="http://www.inkscape.org/namespaces/inkscape"
   width="33.333225mm"
   height="36.83667mm"
   viewBox="0 0 33.333225 36.83667"
   version="1.1"
   id="svg8"
   inkscape:version="1.0.1 (3bc2e813f5, 2020-09-07)"
   sodipodi:docname="fig_13_2.svg">
  <defs
     id="defs2">
    <marker
       style="overflow:visible"
       id="marker2400"
       refX="0"
       refY="0"
       orient="auto"
       inkscape:stockid="Arrow1Mend"
       inkscape:isstock="true">
      <path
         transform="matrix(-0.4,0,0,-0.4,-4,0)"
         style="fill:#000000;fill-opacity:1;fill-rule:evenodd;stroke:#000000;stroke-width:1pt;stroke-opacity:1"
         d="M 0,0 5,-5 -12.5,0 5,5 Z"
         id="path2398" />
    </marker>
    <marker
       style="overflow:visible"
       id="marker2390"
       refX="0"
       refY="0"
       orient="auto"
       inkscape:stockid="Arrow1Mend"
       inkscape:isstock="true">
      <path
         transform="matrix(-0.4,0,0,-0.4,-4,0)"
         style="fill:#000000;fill-opacity:1;fill-rule:evenodd;stroke:#000000;stroke-width:1pt;stroke-opacity:1"
         d="M 0,0 5,-5 -12.5,0 5,5 Z"
         id="path2388" />
    </marker>
    <marker
       style="overflow:visible"
       id="marker1928"
       refX="0"
       refY="0"
       orient="auto"
       inkscape:stockid="Arrow1Mend"
       inkscape:isstock="true"
       inkscape:collect="always">
      <path
         transform="matrix(-0.4,0,0,-0.4,-4,0)"
         style="fill:#506a65;fill-opacity:1;fill-rule:evenodd;stroke:#506a65;stroke-width:1pt;stroke-opacity:1"
         d="M 0,0 5,-5 -12.5,0 5,5 Z"
         id="path1926" />
    </marker>
    <pattern
       id="EMFhbasepattern"
       patternUnits="userSpaceOnUse"
       width="6"
       height="6"
       x="0"
       y="0" />
    <g
       id="g8964"
       style="fill:#aa9e95;fill-opacity:1;stroke-width:0">
      <symbol
         id="symbol8950"
         overflow="visible"
         style="fill:#aa9e95;fill-opacity:1;stroke-width:0">
        <path
           id="path8948"
           d=""
           style="fill:#aa9e95;fill-opacity:1;stroke:none;stroke-width:0" />
      </symbol>
      <symbol
         id="symbol8954"
         overflow="visible"
         style="fill:#aa9e95;fill-opacity:1;stroke-width:0">
        <path
           id="path8952"
           d="m 5.71875,-2.28125 v -0.5625 H 0.625 v 0.5625 z m 0,0"
           style="fill:#aa9e95;fill-opacity:1;stroke:none;stroke-width:0" />
      </symbol>
      <symbol
         id="symbol8958"
         overflow="visible"
         style="fill:#aa9e95;fill-opacity:1;stroke-width:0">
        <path
           id="path8956"
           d=""
           style="fill:#aa9e95;fill-opacity:1;stroke:none;stroke-width:0" />
      </symbol>
      <symbol
         id="symbol8962"
         overflow="visible"
         style="fill:#aa9e95;fill-opacity:1;stroke-width:0">
        <path
           id="path8960"
           d="M 3.203125,2.296875 C 3.25,2.265625 3.265625,2.03125 3.21875,2.03125 2.765625,2.03125 2.75,1.859375 2.75,1.71875 2.75,1.59375 3.1875,-0.875 3.234375,-1.0625 l 0.625,-3.1875 C 3.671875,-4.328125 3.40625,-4.390625 3.0625,-4.390625 c -1.3125,0 -2.875,1.640625 -2.875,3.21875 0,0.59375 0.25,1.21875 0.875,1.21875 0.59375,0 1.296875,-1 1.5,-1.359375 L 2,1.71875 c -0.0625,0.265625 -0.390625,0.34375 -0.6875,0.375 -0.0625,0 -0.046875,0.25 -0.03125,0.265625 0.375,-0.03125 0.9375,-0.0625 1.515625,-0.0625 0.140625,0 0.265625,0 0.40625,0 z m -0.21875,-5.734375 -0.125,0.65625 c -0.1875,0.984375 -0.890625,2.25 -1.40625,2.25 -0.359375,0 -0.515625,-0.421875 -0.515625,-0.984375 0,-1.15625 0.875,-2.46875 1.6875,-2.46875 C 2.875,-3.984375 3,-3.75 3,-3.53125 3,-3.5 2.984375,-3.46875 2.984375,-3.4375 Z m 0,0"
           style="fill:#aa9e95;fill-opacity:1;stroke:none;stroke-width:0" />
      </symbol>
    </g>
    <g
       id="g8991"
       style="fill:#aa9e95;fill-opacity:1;stroke-width:0">
      <symbol
         id="symbol8977"
         overflow="visible"
         style="fill:#aa9e95;fill-opacity:1;stroke-width:0">
        <path
           id="path8975"
           d=""
           style="fill:#aa9e95;fill-opacity:1;stroke:none;stroke-width:0" />
      </symbol>
      <symbol
         id="symbol8981"
         overflow="visible"
         style="fill:#aa9e95;fill-opacity:1;stroke-width:0">
        <path
           id="path8979"
           d="m 2.484375,-2.84375 h -2.1875 v 0.65625 h 2.1875 V 0 h 0.65625 v -2.1875 h 2.1875 v -0.65625 h -2.1875 v -2.203125 h -0.65625 z m 0,0"
           style="fill:#aa9e95;fill-opacity:1;stroke:none;stroke-width:0" />
      </symbol>
      <symbol
         id="symbol8985"
         overflow="visible"
         style="fill:#aa9e95;fill-opacity:1;stroke-width:0">
        <path
           id="path8983"
           d=""
           style="fill:#aa9e95;fill-opacity:1;stroke:none;stroke-width:0" />
      </symbol>
      <symbol
         id="symbol8989"
         overflow="visible"
         style="fill:#aa9e95;fill-opacity:1;stroke-width:0">
        <path
           id="path8987"
           d="M 3.203125,2.296875 C 3.25,2.265625 3.265625,2.03125 3.21875,2.03125 2.765625,2.03125 2.75,1.859375 2.75,1.71875 2.75,1.59375 3.1875,-0.875 3.234375,-1.0625 l 0.625,-3.1875 C 3.671875,-4.328125 3.40625,-4.390625 3.0625,-4.390625 c -1.3125,0 -2.875,1.640625 -2.875,3.21875 0,0.59375 0.25,1.21875 0.875,1.21875 0.59375,0 1.296875,-1 1.5,-1.359375 L 2,1.71875 c -0.0625,0.265625 -0.390625,0.34375 -0.6875,0.375 -0.0625,0 -0.046875,0.25 -0.03125,0.265625 0.375,-0.03125 0.9375,-0.0625 1.515625,-0.0625 0.140625,0 0.265625,0 0.40625,0 z m -0.21875,-5.734375 -0.125,0.65625 c -0.1875,0.984375 -0.890625,2.25 -1.40625,2.25 -0.359375,0 -0.515625,-0.421875 -0.515625,-0.984375 0,-1.15625 0.875,-2.46875 1.6875,-2.46875 C 2.875,-3.984375 3,-3.75 3,-3.53125 3,-3.5 2.984375,-3.46875 2.984375,-3.4375 Z m 0,0"
           style="fill:#aa9e95;fill-opacity:1;stroke:none;stroke-width:0" />
      </symbol>
    </g>
    <g
       id="g28967">
      <symbol
         id="symbol28961"
         overflow="visible">
        <path
           id="path28959"
           d="M 0.5,0 H 4.484375 V -4.8125 H 0.5 Z M 1,-0.5 V -4.3125 H 3.984375 V -0.5 Z m 0,0"
           style="stroke:none" />
      </symbol>
      <symbol
         id="symbol28965"
         overflow="visible">
        <path
           id="path28963"
           d="m 2.171875,-1.125 c 0,0.28125 -0.015625,0.5625 -0.0625,0.71875 C 2.078125,-0.296875 1.609375,-0.25 1.5,-0.25 c -0.046875,0.046875 -0.046875,0.234375 0,0.28125 0.390625,-0.015625 0.65625,-0.046875 1.03125,-0.046875 0.375,0 0.6875,0.03125 1.09375,0.046875 0.046875,-0.046875 0.03125,-0.234375 0,-0.28125 C 3.5,-0.25 3.015625,-0.296875 2.984375,-0.40625 2.9375,-0.5625 2.9375,-0.84375 2.9375,-1.125 v -4.03125 c 0,-0.59375 0.078125,-0.9375 0.078125,-0.9375 0,-0.046875 -0.03125,-0.15625 -0.09375,-0.15625 H 2.90625 C 2.875,-6.25 2,-5.828125 1.203125,-5.46875 c -0.03125,0.015625 0,0.046875 0,0.0625 0,0.078125 0.03125,0.125 0.078125,0.171875 0.171875,-0.0625 0.546875,-0.203125 0.6875,-0.203125 0.140625,0 0.203125,0.09375 0.203125,0.375 z m 0,0"
           style="stroke:none" />
      </symbol>
    </g>
    <g
       id="g28983">
      <symbol
         id="symbol28977"
         overflow="visible">
        <path
           id="path28975"
           d="M 0.5,0 H 4.484375 V -4.8125 H 0.5 Z M 1,-0.5 V -4.3125 H 3.984375 V -0.5 Z m 0,0"
           style="stroke:none" />
      </symbol>
      <symbol
         id="symbol28981"
         overflow="visible">
        <path
           id="path28979"
           d="M 4.421875,-1.453125 C 4.375,-1.484375 4.25,-1.515625 4.21875,-1.515625 c -0.0625,0 -0.09375,0.015625 -0.109375,0.0625 -0.21875,0.5 -0.4375,0.75 -0.8125,0.75 h -1.9375 c 0.4375,-0.5 1.4375,-1.59375 2.125,-2.453125 C 3.8125,-3.5625 4.03125,-4.0625 4.03125,-4.625 c 0,-0.828125 -0.734375,-1.625 -1.671875,-1.625 -1.03125,0 -1.734375,1.078125 -1.796875,1.3125 0,0.046875 0.109375,0.15625 0.1875,0.15625 0.125,-0.1875 0.609375,-0.828125 1.390625,-0.828125 0.609375,0 1.0625,0.5 1.0625,1.171875 0,0.484375 -0.0625,0.875 -0.46875,1.453125 -0.5625,0.828125 -1.5,1.9375 -2.3125,2.84375 0,0.046875 0.0625,0.125 0.09375,0.140625 h 3.375 c 0.0625,-0.171875 0.328125,-0.984375 0.53125,-1.453125 z m 0,0"
           style="stroke:none" />
      </symbol>
    </g>
    <g
       style="fill:#9e7867;fill-opacity:1;stroke-width:0"
       id="g28999">
      <symbol
         style="fill:#9e7867;fill-opacity:1;stroke-width:0"
         overflow="visible"
         id="symbol28993">
        <path
           style="fill:#9e7867;fill-opacity:1;stroke:none;stroke-width:0"
           d="M 0.5,0 H 4.484375 V -4.8125 H 0.5 Z M 1,-0.5 V -4.3125 H 3.984375 V -0.5 Z m 0,0"
           id="path28991" />
      </symbol>
      <symbol
         style="fill:#9e7867;fill-opacity:1;stroke-width:0"
         overflow="visible"
         id="symbol28997">
        <path
           style="fill:#9e7867;fill-opacity:1;stroke:none;stroke-width:0"
           d="m 2.515625,-6.25 c -0.765625,0 -1.3125,0.5 -1.625,0.953125 0,0.078125 0.0625,0.203125 0.125,0.203125 0.09375,-0.0625 0.46875,-0.640625 1.09375,-0.640625 0.546875,0 0.953125,0.390625 0.953125,0.90625 0,0.84375 -0.734375,1.265625 -1.515625,1.4375 -0.015625,0.03125 -0.015625,0.0625 -0.015625,0.09375 0,0.09375 0.015625,0.140625 0.046875,0.203125 0.125,-0.03125 0.375,-0.125 0.578125,-0.125 0.640625,0 1.25,0.578125 1.25,1.359375 0,1.125 -0.625,1.515625 -1.140625,1.515625 -0.265625,0 -0.53125,-0.0625 -0.71875,-0.25 C 1.390625,-0.75 1.265625,-1.015625 1,-1.015625 c -0.21875,0 -0.40625,0.1875 -0.40625,0.46875 0,0.15625 0.140625,0.328125 0.1875,0.375 0.3125,0.15625 0.734375,0.21875 1,0.21875 C 2.984375,0.046875 4.25,-0.78125 4.25,-2.125 4.25,-3.078125 3.453125,-3.609375 2.890625,-3.6875 3.234375,-3.890625 3.78125,-4.375 3.78125,-5 c 0,-0.796875 -0.765625,-1.25 -1.265625,-1.25 z m 0,0"
           id="path28995" />
      </symbol>
    </g>
    <g
       id="g29015"
       style="fill:#000000;fill-opacity:1;stroke-width:0">
      <symbol
         id="symbol29009"
         overflow="visible"
         style="fill:#000000;fill-opacity:1;stroke-width:0">
        <path
           id="path29007"
           d="M 0.5,0 H 4.484375 V -4.8125 H 0.5 Z M 1,-0.5 V -4.3125 H 3.984375 V -0.5 Z m 0,0"
           style="fill:#000000;fill-opacity:1;stroke:none;stroke-width:0" />
      </symbol>
      <symbol
         id="symbol29013"
         overflow="visible"
         style="fill:#000000;fill-opacity:1;stroke-width:0">
        <path
           id="path29011"
           d="m 3.734375,-6.265625 c -0.078125,0 -0.25,0.171875 -0.3125,0.25 L 0.265625,-1.875 c 0,0.0625 0.03125,0.140625 0.09375,0.1875 H 3.09375 v 1.671875 c 0,0.0625 0.125,0.078125 0.359375,0.078125 0.375,0 0.421875,-0.046875 0.421875,-0.046875 V -1.6875 H 4.546875 C 4.5625,-1.71875 4.578125,-1.765625 4.578125,-1.859375 4.578125,-2.0625 4.5,-2.25 4.453125,-2.25 H 3.875 v -3.84375 c 0,-0.078125 -0.046875,-0.171875 -0.140625,-0.171875 z M 3.09375,-5.109375 V -2.25 H 0.921875 Z m 0,0"
           style="fill:#000000;fill-opacity:1;stroke:none;stroke-width:0" />
      </symbol>
    </g>
    <g
       style="fill:#000000;stroke-width:0"
       id="g29031">
      <symbol
         style="fill:#000000;stroke-width:0"
         overflow="visible"
         id="symbol29025">
        <path
           style="fill:#000000;stroke:none;stroke-width:0"
           d="M 0.5,0 H 4.484375 V -4.8125 H 0.5 Z M 1,-0.5 V -4.3125 H 3.984375 V -0.5 Z m 0,0"
           id="path29023" />
      </symbol>
      <symbol
         style="fill:#000000;stroke-width:0"
         overflow="visible"
         id="symbol29029">
        <path
           style="fill:#000000;stroke:none;stroke-width:0"
           d="m 2.421875,-3.84375 c -0.265625,0 -0.765625,0.078125 -1.03125,0.1875 0.109375,-0.546875 0.21875,-1.171875 0.34375,-1.75 h 0.8125 c 0.515625,0 0.875,-0.03125 1.140625,-0.0625 0.1875,-0.21875 0.296875,-0.625 0.296875,-0.6875 0,-0.046875 -0.0625,-0.078125 -0.125,-0.109375 0,0 -0.5,0.078125 -0.90625,0.078125 H 1.53125 c -0.109375,0.609375 -0.359375,1.8125 -0.578125,2.890625 0,0.078125 0.046875,0.140625 0.078125,0.140625 0.171875,-0.078125 0.609375,-0.140625 0.828125,-0.140625 1.125,0 1.546875,0.828125 1.546875,1.4375 0,1.125 -0.625,1.515625 -1.140625,1.515625 -0.265625,0 -0.53125,-0.0625 -0.71875,-0.25 C 1.390625,-0.75 1.265625,-1.015625 1,-1.015625 c -0.21875,0 -0.40625,0.1875 -0.40625,0.46875 0,0.15625 0.140625,0.328125 0.1875,0.375 0.3125,0.15625 0.734375,0.21875 1,0.21875 1.203125,0 2.46875,-0.828125 2.46875,-2.171875 0,-0.828125 -0.6875,-1.71875 -1.828125,-1.71875 z m 0,0"
           id="path29027" />
      </symbol>
    </g>
    <g
       id="g27689">
      <symbol
         id="symbol27683"
         overflow="visible">
        <path
           id="path27681"
           d=""
           style="stroke:none" />
      </symbol>
      <symbol
         id="symbol27687"
         overflow="visible">
        <path
           id="path27685"
           d="M 2.359375,-6.625 C 2,-6.625 1.625,-6.65625 1.25,-6.671875 1.1875,-6.625 1.15625,-6.4375 1.1875,-6.390625 c 0.109375,0 0.609375,0.0625 0.609375,0.171875 v 0.078125 c 0,0.15625 -0.03125,0.40625 -0.078125,0.65625 L 0.875,-1.171875 C 0.8125,-0.875 0.765625,-0.59375 0.6875,-0.421875 0.640625,-0.3125 0.109375,-0.265625 0,-0.265625 c -0.046875,0.0625 -0.09375,0.25 -0.046875,0.296875 0.390625,-0.015625 0.75,-0.046875 1.109375,-0.046875 0.359375,0 0.71875,0.03125 1.09375,0.046875 0.0625,-0.046875 0.09375,-0.234375 0.0625,-0.296875 -0.109375,0 -0.609375,-0.046875 -0.625,-0.15625 V -0.5 c 0,-0.15625 0.046875,-0.40625 0.09375,-0.671875 l 0.84375,-4.3125 C 2.59375,-5.78125 2.640625,-6.0625 2.71875,-6.21875 2.765625,-6.328125 3.296875,-6.390625 3.40625,-6.390625 3.453125,-6.4375 3.5,-6.625 3.453125,-6.671875 3.078125,-6.65625 2.71875,-6.625 2.359375,-6.625 Z m 0,0"
           style="stroke:none" />
      </symbol>
    </g>
    <clipPath
       id="clip22">
      <path
         d="M 0,0 V 906 H 1842 V 0 Z"
         id="path238"
         inkscape:connector-curvature="0" />
    </clipPath>
    <clipPath
       id="clip20">
      <path
         d="M 0,0 V 906 H 1842 V 0 Z"
         id="path216"
         inkscape:connector-curvature="0" />
    </clipPath>
    <clipPath
       id="clipPath11273">
      <path
         d="M 0,0 V 906 H 1842 V 0 Z"
         id="path11271"
         inkscape:connector-curvature="0" />
    </clipPath>
    <g
       style="fill:#000000;stroke-width:0"
       id="g3509">
      <symbol
         style="fill:#000000;stroke-width:0"
         overflow="visible"
         id="symbol3495">
        <path
           style="fill:#000000;stroke:none;stroke-width:0"
           d="M 0.5,0 H 4.484375 V -4.8125 H 0.5 Z M 1,-0.5 V -4.3125 H 3.984375 V -0.5 Z m 0,0"
           id="path3493" />
      </symbol>
      <symbol
         style="fill:#000000;stroke-width:0"
         overflow="visible"
         id="symbol3499">
        <path
           style="fill:#000000;stroke:none;stroke-width:0"
           d="M 1.0625,-2.765625 C 1.0625,-4.3125 1.578125,-6 2.5,-6.8125 c 0,0 -0.125,-0.140625 -0.203125,-0.1875 -1.125,0.90625 -1.9375,2.328125 -1.9375,4.234375 0,1.875 0.8125,3.328125 1.9375,4.21875 C 2.375,1.421875 2.5,1.265625 2.5,1.265625 1.578125,0.453125 1.0625,-1.25 1.0625,-2.765625 Z m 0,0"
           id="path3497" />
      </symbol>
      <symbol
         style="fill:#000000;stroke-width:0"
         overflow="visible"
         id="symbol3503">
        <path
           style="fill:#000000;stroke:none;stroke-width:0"
           d="m 1.84375,-0.453125 c -0.375,0 -0.671875,-0.328125 -0.671875,-0.6875 0,-0.390625 0.25,-0.640625 0.609375,-0.78125 C 1.96875,-2 2.453125,-2.140625 2.71875,-2.21875 v 1.359375 c 0,0.109375 -0.53125,0.40625 -0.875,0.40625 z M 2.375,-4.34375 c -0.71875,0 -1.484375,0.53125 -1.78125,0.8125 -0.046875,0.046875 -0.078125,0.203125 -0.078125,0.234375 0,0.21875 0.125,0.421875 0.328125,0.421875 0.25,0 0.40625,-0.140625 0.46875,-0.46875 0.0625,-0.390625 0.1875,-0.640625 0.546875,-0.640625 0.484375,0 0.859375,0.515625 0.859375,0.96875 V -2.75 c 0,0.171875 -0.03125,0.21875 -0.125,0.25 -0.28125,0.140625 -1.171875,0.421875 -1.71875,0.625 -0.234375,0.078125 -0.5,0.40625 -0.5,0.8125 0,0.640625 0.5,1.140625 1.140625,1.140625 0.34375,0 1.109375,-0.53125 1.21875,-0.65625 C 2.796875,-0.28125 3.0625,0.0625 3.34375,0.0625 c 0.203125,0 0.609375,-0.265625 0.734375,-0.375 C 4.109375,-0.359375 4.125,-0.4375 4.125,-0.5 c 0,-0.03125 -0.015625,-0.078125 -0.03125,-0.078125 -0.03125,0.015625 -0.15625,0.125 -0.328125,0.125 -0.234375,0 -0.3125,-0.203125 -0.3125,-0.46875 V -2.96875 c 0,-0.765625 -0.515625,-1.375 -1.078125,-1.375 z m 0,0"
           id="path3501" />
      </symbol>
      <symbol
         style="fill:#000000;stroke-width:0"
         overflow="visible"
         id="symbol3507">
        <path
           style="fill:#000000;stroke:none;stroke-width:0"
           d="M 2.1875,-2.765625 C 2.1875,-4.671875 1.375,-6.09375 0.234375,-7 c -0.0625,0.046875 -0.1875,0.1875 -0.171875,0.1875 0.921875,0.8125 1.40625,2.5 1.40625,4.046875 0,1.515625 -0.484375,3.21875 -1.40625,4.03125 -0.015625,0 0.109375,0.15625 0.171875,0.1875 C 1.375,0.5625 2.1875,-0.890625 2.1875,-2.765625 Z m 0,0"
           id="path3505" />
      </symbol>
    </g>
    <g
       style="fill:#000000;stroke-width:0"
       id="g3539">
      <symbol
         style="fill:#000000;stroke-width:0"
         overflow="visible"
         id="symbol3525">
        <path
           style="fill:#000000;stroke:none;stroke-width:0"
           d="M 0.5,0 H 4.484375 V -4.8125 H 0.5 Z M 1,-0.5 V -4.3125 H 3.984375 V -0.5 Z m 0,0"
           id="path3523" />
      </symbol>
      <symbol
         style="fill:#000000;stroke-width:0"
         overflow="visible"
         id="symbol3529">
        <path
           style="fill:#000000;stroke:none;stroke-width:0"
           d="M 1.0625,-2.765625 C 1.0625,-4.3125 1.578125,-6 2.5,-6.8125 c 0,0 -0.125,-0.140625 -0.203125,-0.1875 -1.125,0.90625 -1.9375,2.328125 -1.9375,4.234375 0,1.875 0.8125,3.328125 1.9375,4.21875 C 2.375,1.421875 2.5,1.265625 2.5,1.265625 1.578125,0.453125 1.0625,-1.25 1.0625,-2.765625 Z m 0,0"
           id="path3527" />
      </symbol>
      <symbol
         style="fill:#000000;stroke-width:0"
         overflow="visible"
         id="symbol3533">
        <path
           style="fill:#000000;stroke:none;stroke-width:0"
           d="m 2.09375,0.0625 c 1.40625,0 2.4375,-1.0625 2.4375,-2.328125 0,-0.890625 -0.625,-2 -1.8125,-2 -0.375,0 -1.046875,0.421875 -1.203125,0.53125 C 1.453125,-3.6875 1.46875,-3.78125 1.46875,-3.84375 V -5.75 c 0,-0.546875 0.09375,-0.84375 0.09375,-0.84375 0,-0.078125 -0.046875,-0.171875 -0.09375,-0.171875 C 1.046875,-6.5625 0.5625,-6.421875 0.0625,-6.375 c -0.046875,0.015625 -0.015625,0.265625 -0.015625,0.265625 0.28125,0 0.546875,0.03125 0.609375,0.171875 0.046875,0.109375 0.046875,0.375 0.046875,0.5 v 4.375 c 0,0.1875 -0.015625,0.515625 -0.109375,0.71875 0,0.046875 0.078125,0.203125 0.125,0.203125 0.21875,-0.078125 0.421875,0 0.640625,0.0625 C 1.578125,-0.015625 1.9375,0.0625 2.09375,0.0625 Z M 2.25,-3.6875 c 0.890625,0 1.453125,0.671875 1.453125,1.796875 0,0.796875 -0.609375,1.625 -1.328125,1.625 -0.4375,0 -0.90625,-0.265625 -0.90625,-0.6875 V -3.3125 c 0,-0.0625 0,-0.09375 0.03125,-0.109375 C 1.59375,-3.515625 2,-3.6875 2.25,-3.6875 Z m 0,0"
           id="path3531" />
      </symbol>
      <symbol
         style="fill:#000000;stroke-width:0"
         overflow="visible"
         id="symbol3537">
        <path
           style="fill:#000000;stroke:none;stroke-width:0"
           d="M 2.1875,-2.765625 C 2.1875,-4.671875 1.375,-6.09375 0.234375,-7 c -0.0625,0.046875 -0.1875,0.1875 -0.171875,0.1875 0.921875,0.8125 1.40625,2.5 1.40625,4.046875 0,1.515625 -0.484375,3.21875 -1.40625,4.03125 -0.015625,0 0.109375,0.15625 0.171875,0.1875 C 1.375,0.5625 2.1875,-0.890625 2.1875,-2.765625 Z m 0,0"
           id="path3535" />
      </symbol>
    </g>
    <pattern
       id="EMFhbasepattern-5"
       patternUnits="userSpaceOnUse"
       width="6"
       height="6"
       x="0"
       y="0" />
    <g
       id="g1572"
       style="fill:#aa9e95;fill-opacity:1;stroke-width:0">
      <symbol
         id="symbol1558"
         overflow="visible"
         style="fill:#aa9e95;fill-opacity:1;stroke-width:0">
        <path
           id="path1556"
           d=""
           style="fill:#aa9e95;fill-opacity:1;stroke:none;stroke-width:0" />
      </symbol>
      <symbol
         id="symbol1562"
         overflow="visible"
         style="fill:#aa9e95;fill-opacity:1;stroke-width:0">
        <path
           id="path1560"
           d="m 5.71875,-2.28125 v -0.5625 H 0.625 v 0.5625 z m 0,0"
           style="fill:#aa9e95;fill-opacity:1;stroke:none;stroke-width:0" />
      </symbol>
      <symbol
         id="symbol1566"
         overflow="visible"
         style="fill:#aa9e95;fill-opacity:1;stroke-width:0">
        <path
           id="path1564"
           d=""
           style="fill:#aa9e95;fill-opacity:1;stroke:none;stroke-width:0" />
      </symbol>
      <symbol
         id="symbol1570"
         overflow="visible"
         style="fill:#aa9e95;fill-opacity:1;stroke-width:0">
        <path
           id="path1568"
           d="M 3.203125,2.296875 C 3.25,2.265625 3.265625,2.03125 3.21875,2.03125 2.765625,2.03125 2.75,1.859375 2.75,1.71875 2.75,1.59375 3.1875,-0.875 3.234375,-1.0625 l 0.625,-3.1875 C 3.671875,-4.328125 3.40625,-4.390625 3.0625,-4.390625 c -1.3125,0 -2.875,1.640625 -2.875,3.21875 0,0.59375 0.25,1.21875 0.875,1.21875 0.59375,0 1.296875,-1 1.5,-1.359375 L 2,1.71875 c -0.0625,0.265625 -0.390625,0.34375 -0.6875,0.375 -0.0625,0 -0.046875,0.25 -0.03125,0.265625 0.375,-0.03125 0.9375,-0.0625 1.515625,-0.0625 0.140625,0 0.265625,0 0.40625,0 z m -0.21875,-5.734375 -0.125,0.65625 c -0.1875,0.984375 -0.890625,2.25 -1.40625,2.25 -0.359375,0 -0.515625,-0.421875 -0.515625,-0.984375 0,-1.15625 0.875,-2.46875 1.6875,-2.46875 C 2.875,-3.984375 3,-3.75 3,-3.53125 3,-3.5 2.984375,-3.46875 2.984375,-3.4375 Z m 0,0"
           style="fill:#aa9e95;fill-opacity:1;stroke:none;stroke-width:0" />
      </symbol>
    </g>
    <g
       id="g1608"
       style="fill:#aa9e95;fill-opacity:1;stroke-width:0">
      <symbol
         id="symbol1594"
         overflow="visible"
         style="fill:#aa9e95;fill-opacity:1;stroke-width:0">
        <path
           id="path1592"
           d=""
           style="fill:#aa9e95;fill-opacity:1;stroke:none;stroke-width:0" />
      </symbol>
      <symbol
         id="symbol1598"
         overflow="visible"
         style="fill:#aa9e95;fill-opacity:1;stroke-width:0">
        <path
           id="path1596"
           d="m 2.484375,-2.84375 h -2.1875 v 0.65625 h 2.1875 V 0 h 0.65625 v -2.1875 h 2.1875 v -0.65625 h -2.1875 v -2.203125 h -0.65625 z m 0,0"
           style="fill:#aa9e95;fill-opacity:1;stroke:none;stroke-width:0" />
      </symbol>
      <symbol
         id="symbol1602"
         overflow="visible"
         style="fill:#aa9e95;fill-opacity:1;stroke-width:0">
        <path
           id="path1600"
           d=""
           style="fill:#aa9e95;fill-opacity:1;stroke:none;stroke-width:0" />
      </symbol>
      <symbol
         id="symbol1606"
         overflow="visible"
         style="fill:#aa9e95;fill-opacity:1;stroke-width:0">
        <path
           id="path1604"
           d="M 3.203125,2.296875 C 3.25,2.265625 3.265625,2.03125 3.21875,2.03125 2.765625,2.03125 2.75,1.859375 2.75,1.71875 2.75,1.59375 3.1875,-0.875 3.234375,-1.0625 l 0.625,-3.1875 C 3.671875,-4.328125 3.40625,-4.390625 3.0625,-4.390625 c -1.3125,0 -2.875,1.640625 -2.875,3.21875 0,0.59375 0.25,1.21875 0.875,1.21875 0.59375,0 1.296875,-1 1.5,-1.359375 L 2,1.71875 c -0.0625,0.265625 -0.390625,0.34375 -0.6875,0.375 -0.0625,0 -0.046875,0.25 -0.03125,0.265625 0.375,-0.03125 0.9375,-0.0625 1.515625,-0.0625 0.140625,0 0.265625,0 0.40625,0 z m -0.21875,-5.734375 -0.125,0.65625 c -0.1875,0.984375 -0.890625,2.25 -1.40625,2.25 -0.359375,0 -0.515625,-0.421875 -0.515625,-0.984375 0,-1.15625 0.875,-2.46875 1.6875,-2.46875 C 2.875,-3.984375 3,-3.75 3,-3.53125 3,-3.5 2.984375,-3.46875 2.984375,-3.4375 Z m 0,0"
           style="fill:#aa9e95;fill-opacity:1;stroke:none;stroke-width:0" />
      </symbol>
    </g>
    <g
       id="g10709"
       style="fill:#c28f47;fill-opacity:1;stroke-width:0">
      <symbol
         overflow="visible"
         id="symbol10703"
         style="fill:#c28f47;fill-opacity:1;stroke-width:0">
        <path
           style="fill:#c28f47;fill-opacity:1;stroke:none;stroke-width:0"
           d=""
           id="path10701" />
      </symbol>
      <symbol
         overflow="visible"
         id="symbol10707"
         style="fill:#c28f47;fill-opacity:1;stroke-width:0">
        <path
           style="fill:#c28f47;fill-opacity:1;stroke:none;stroke-width:0"
           d="M 1.578125,-0.484375 C 1.578125,-0.640625 1.65625,-1 1.671875,-1.125 L 2.53125,-5.484375 C 2.59375,-5.78125 2.640625,-6.0625 2.71875,-6.21875 2.765625,-6.328125 3.296875,-6.390625 3.40625,-6.390625 3.453125,-6.4375 3.5,-6.625 3.453125,-6.671875 3.078125,-6.65625 2.71875,-6.625 2.359375,-6.625 2,-6.625 1.625,-6.65625 1.25,-6.671875 1.1875,-6.625 1.171875,-6.4375 1.203125,-6.390625 c 0.109375,0 0.59375,0.0625 0.609375,0.171875 v 0.0625 c 0,0.171875 -0.046875,0.421875 -0.09375,0.671875 l -0.84375,4.3125 c -0.0625,0.296875 -0.109375,0.578125 -0.1875,0.75 -0.046875,0.109375 -0.5625,0.15625 -0.671875,0.15625 -0.0625,0.0625 -0.109375,0.25 -0.0625,0.296875 C 0.3125,0.03125 0.625,0 1.0625,0 2.3125,0 3.234375,0.046875 4.25,0.046875 4.40625,-0.40625 4.8125,-1.09375 5.09375,-1.640625 5.078125,-1.671875 4.96875,-1.6875 4.875,-1.6875 c -0.0625,0 -0.125,0.015625 -0.15625,0.046875 -0.25,0.546875 -0.546875,0.890625 -0.84375,1.0625 -0.3125,0.171875 -0.75,0.28125 -1.109375,0.28125 H 2.25 c -0.390625,0 -0.671875,0.03125 -0.671875,-0.1875 z m 0,0"
           id="path10705" />
      </symbol>
    </g>
    <g
       id="g7014">
      <symbol
         id="symbol7008"
         overflow="visible">
        <path
           id="path7006"
           d="M 0.5,0 H 4.484375 V -4.8125 H 0.5 Z M 1,-0.5 V -4.3125 H 3.984375 V -0.5 Z m 0,0"
           style="stroke:none" />
      </symbol>
      <symbol
         id="symbol7012"
         overflow="visible">
        <path
           id="path7010"
           d="m 2.171875,-1.125 c 0,0.28125 -0.015625,0.5625 -0.0625,0.71875 C 2.078125,-0.296875 1.609375,-0.25 1.5,-0.25 c -0.046875,0.046875 -0.046875,0.234375 0,0.28125 0.390625,-0.015625 0.65625,-0.046875 1.03125,-0.046875 0.375,0 0.6875,0.03125 1.09375,0.046875 0.046875,-0.046875 0.03125,-0.234375 0,-0.28125 C 3.5,-0.25 3.015625,-0.296875 2.984375,-0.40625 2.9375,-0.5625 2.9375,-0.84375 2.9375,-1.125 v -4.03125 c 0,-0.59375 0.078125,-0.9375 0.078125,-0.9375 0,-0.046875 -0.03125,-0.15625 -0.09375,-0.15625 H 2.90625 C 2.875,-6.25 2,-5.828125 1.203125,-5.46875 c -0.03125,0.015625 0,0.046875 0,0.0625 0,0.078125 0.03125,0.125 0.078125,0.171875 0.171875,-0.0625 0.546875,-0.203125 0.6875,-0.203125 0.140625,0 0.203125,0.09375 0.203125,0.375 z m 0,0"
           style="stroke:none" />
      </symbol>
    </g>
    <g
       id="g7030">
      <symbol
         id="symbol7024"
         overflow="visible">
        <path
           id="path7022"
           d="M 0.5,0 H 4.484375 V -4.8125 H 0.5 Z M 1,-0.5 V -4.3125 H 3.984375 V -0.5 Z m 0,0"
           style="stroke:none" />
      </symbol>
      <symbol
         id="symbol7028"
         overflow="visible">
        <path
           id="path7026"
           d="M 4.421875,-1.453125 C 4.375,-1.484375 4.25,-1.515625 4.21875,-1.515625 c -0.0625,0 -0.09375,0.015625 -0.109375,0.0625 -0.21875,0.5 -0.4375,0.75 -0.8125,0.75 h -1.9375 c 0.4375,-0.5 1.4375,-1.59375 2.125,-2.453125 C 3.8125,-3.5625 4.03125,-4.0625 4.03125,-4.625 c 0,-0.828125 -0.734375,-1.625 -1.671875,-1.625 -1.03125,0 -1.734375,1.078125 -1.796875,1.3125 0,0.046875 0.109375,0.15625 0.1875,0.15625 0.125,-0.1875 0.609375,-0.828125 1.390625,-0.828125 0.609375,0 1.0625,0.5 1.0625,1.171875 0,0.484375 -0.0625,0.875 -0.46875,1.453125 -0.5625,0.828125 -1.5,1.9375 -2.3125,2.84375 0,0.046875 0.0625,0.125 0.09375,0.140625 h 3.375 c 0.0625,-0.171875 0.328125,-0.984375 0.53125,-1.453125 z m 0,0"
           style="stroke:none" />
      </symbol>
    </g>
    <g
       style="fill:#9e7867;fill-opacity:1;stroke-width:0"
       id="g7144">
      <symbol
         style="fill:#9e7867;fill-opacity:1;stroke-width:0"
         overflow="visible"
         id="symbol7138">
        <path
           style="fill:#9e7867;fill-opacity:1;stroke:none;stroke-width:0"
           d="M 0.5,0 H 4.484375 V -4.8125 H 0.5 Z M 1,-0.5 V -4.3125 H 3.984375 V -0.5 Z m 0,0"
           id="path7136" />
      </symbol>
      <symbol
         style="fill:#9e7867;fill-opacity:1;stroke-width:0"
         overflow="visible"
         id="symbol7142">
        <path
           style="fill:#9e7867;fill-opacity:1;stroke:none;stroke-width:0"
           d="m 2.515625,-6.25 c -0.765625,0 -1.3125,0.5 -1.625,0.953125 0,0.078125 0.0625,0.203125 0.125,0.203125 0.09375,-0.0625 0.46875,-0.640625 1.09375,-0.640625 0.546875,0 0.953125,0.390625 0.953125,0.90625 0,0.84375 -0.734375,1.265625 -1.515625,1.4375 -0.015625,0.03125 -0.015625,0.0625 -0.015625,0.09375 0,0.09375 0.015625,0.140625 0.046875,0.203125 0.125,-0.03125 0.375,-0.125 0.578125,-0.125 0.640625,0 1.25,0.578125 1.25,1.359375 0,1.125 -0.625,1.515625 -1.140625,1.515625 -0.265625,0 -0.53125,-0.0625 -0.71875,-0.25 C 1.390625,-0.75 1.265625,-1.015625 1,-1.015625 c -0.21875,0 -0.40625,0.1875 -0.40625,0.46875 0,0.15625 0.140625,0.328125 0.1875,0.375 0.3125,0.15625 0.734375,0.21875 1,0.21875 C 2.984375,0.046875 4.25,-0.78125 4.25,-2.125 4.25,-3.078125 3.453125,-3.609375 2.890625,-3.6875 3.234375,-3.890625 3.78125,-4.375 3.78125,-5 c 0,-0.796875 -0.765625,-1.25 -1.265625,-1.25 z m 0,0"
           id="path7140" />
      </symbol>
    </g>
  </defs>
  <sodipodi:namedview
     id="base"
     pagecolor="#ffffff"
     bordercolor="#666666"
     borderopacity="1.0"
     inkscape:pageopacity="0.0"
     inkscape:pageshadow="2"
     inkscape:zoom="3.9597979"
     inkscape:cx="68.098919"
     inkscape:cy="-4.9759232"
     inkscape:document-units="mm"
     inkscape:current-layer="layer1"
     inkscape:document-rotation="0"
     showgrid="false"
     inkscape:window-width="1600"
     inkscape:window-height="837"
     inkscape:window-x="-8"
     inkscape:window-y="-8"
     inkscape:window-maximized="1" />
  <metadata
     id="metadata5">
    <rdf:RDF>
      <cc:Work
         rdf:about="">
        <dc:format>image/svg+xml</dc:format>
        <dc:type
           rdf:resource="http://purl.org/dc/dcmitype/StillImage" />
        <dc:title></dc:title>
      </cc:Work>
    </rdf:RDF>
  </metadata>
  <g
     inkscape:label="Layer 1"
     inkscape:groupmode="layer"
     id="layer1"
     transform="translate(-230.41789,-8.4410858)">
    <path
       style="fill:none;stroke:#000000;stroke-width:0.264583;stroke-linecap:round;stroke-linejoin:round;stroke-miterlimit:4;stroke-dasharray:none;stroke-opacity:1"
       d="m 249.56852,17.29175 h 14.0503 v 21.49293"
       id="path1364"
       sodipodi:nodetypes="ccc" />
    <path
       style="fill:none;stroke:#000000;stroke-width:0.264583;stroke-linecap:round;stroke-linejoin:round;stroke-miterlimit:4;stroke-dasharray:none;stroke-opacity:1"
       d="m 263.61882,38.78468 h -4.51455"
       id="path1366" />
    <path
       style="fill:none;stroke:#000000;stroke-width:0.264583;stroke-linecap:round;stroke-linejoin:round;stroke-miterlimit:4;stroke-dasharray:none;stroke-opacity:1"
       d="m 247.95844,17.249877 h -14.21653 v 21.49293"
       id="path1400"
       sodipodi:nodetypes="ccc" />
    <path
       style="fill:none;stroke:#000000;stroke-width:0.264583;stroke-linecap:round;stroke-linejoin:round;stroke-miterlimit:4;stroke-dasharray:none;stroke-opacity:1"
       d="m 233.74191,38.742807 h 4.51455"
       id="path1402" />
    <path
       style="fill:none;stroke:#aa9e95;stroke-width:0.396875;stroke-linecap:round;stroke-linejoin:miter;stroke-miterlimit:4;stroke-dasharray:none;stroke-opacity:1"
       d="m 249.48411,12.319999 v 9.974827"
       id="path1418" />
    <path
       style="fill:none;stroke:#aa9e95;stroke-width:0.396875;stroke-linecap:round;stroke-linejoin:miter;stroke-miterlimit:4;stroke-dasharray:none;stroke-opacity:1"
       d="m 248.09154,12.319999 v 9.974827"
       id="path1422" />
    <path
       style="fill:none;stroke:#506a65;stroke-width:0.343958;stroke-linecap:butt;stroke-linejoin:miter;stroke-miterlimit:4;stroke-dasharray:none;stroke-opacity:1;marker-end:url(#marker1928)"
       d="m 233.7428,30.137419 c 0,-0.06575 0,-1.891766 0,-1.891766"
       id="path1924" />
    <g
       transform="matrix(0.42333399,0,0,0.42333399,230.41801,27.57639)"
       ns2:version="1.1.0"
       ns2:texconverter="pdflatex"
       ns2:pdfconverter="inkscape"
       ns2:text="$I$"
       ns2:preamble="C:\\Users\\flvisa\\Desktop\\lna\\latexify_books\\textext_preamble.tex"
       ns2:scale="1.1999996881895043"
       ns2:alignment="middle center"
       ns2:inkscapeversion="1.0"
       ns2:jacobian_sqrt="0.423334"
       id="g2334"
       style="fill:#506a65;fill-opacity:1">
      <defs
         id="defs2324">
        <g
           id="g2322">
          <symbol
             id="symbol2316"
             overflow="visible">
            <path
               id="path2314"
               d=""
               style="stroke:none" />
          </symbol>
          <symbol
             id="symbol2320"
             overflow="visible">
            <path
               id="path2318"
               d="M 2.359375,-6.625 C 2,-6.625 1.625,-6.65625 1.25,-6.671875 1.1875,-6.625 1.15625,-6.4375 1.1875,-6.390625 c 0.109375,0 0.609375,0.0625 0.609375,0.171875 v 0.078125 c 0,0.15625 -0.03125,0.40625 -0.078125,0.65625 L 0.875,-1.171875 C 0.8125,-0.875 0.765625,-0.59375 0.6875,-0.421875 0.640625,-0.3125 0.109375,-0.265625 0,-0.265625 c -0.046875,0.0625 -0.09375,0.25 -0.046875,0.296875 0.390625,-0.015625 0.75,-0.046875 1.109375,-0.046875 0.359375,0 0.71875,0.03125 1.09375,0.046875 0.0625,-0.046875 0.09375,-0.234375 0.0625,-0.296875 -0.109375,0 -0.609375,-0.046875 -0.625,-0.15625 V -0.5 c 0,-0.15625 0.046875,-0.40625 0.09375,-0.671875 l 0.84375,-4.3125 C 2.59375,-5.78125 2.640625,-6.0625 2.71875,-6.21875 2.765625,-6.328125 3.296875,-6.390625 3.40625,-6.390625 3.453125,-6.4375 3.5,-6.625 3.453125,-6.671875 3.078125,-6.65625 2.71875,-6.625 2.359375,-6.625 Z m 0,0"
               style="stroke:none" />
          </symbol>
        </g>
      </defs>
      <g
         transform="translate(-149.045,-128.093)"
         id="g2332"
         style="fill:#506a65;fill-opacity:1">
        <g
           id="g2330"
           style="fill:#506a65;fill-opacity:1">
          <g
             transform="translate(149.111,134.765)"
             id="g2328"
             style="fill:#506a65;fill-opacity:1">
            <path
               id="path2326"
               d="M 2.359375,-6.625 C 2,-6.625 1.625,-6.65625 1.25,-6.671875 1.1875,-6.625 1.15625,-6.4375 1.1875,-6.390625 c 0.109375,0 0.609375,0.0625 0.609375,0.171875 v 0.078125 c 0,0.15625 -0.03125,0.40625 -0.078125,0.65625 L 0.875,-1.171875 C 0.8125,-0.875 0.765625,-0.59375 0.6875,-0.421875 0.640625,-0.3125 0.109375,-0.265625 0,-0.265625 c -0.046875,0.0625 -0.09375,0.25 -0.046875,0.296875 0.390625,-0.015625 0.75,-0.046875 1.109375,-0.046875 0.359375,0 0.71875,0.03125 1.09375,0.046875 0.0625,-0.046875 0.09375,-0.234375 0.0625,-0.296875 -0.109375,0 -0.609375,-0.046875 -0.625,-0.15625 V -0.5 c 0,-0.15625 0.046875,-0.40625 0.09375,-0.671875 l 0.84375,-4.3125 C 2.59375,-5.78125 2.640625,-6.0625 2.71875,-6.21875 2.765625,-6.328125 3.296875,-6.390625 3.40625,-6.390625 3.453125,-6.4375 3.5,-6.625 3.453125,-6.671875 3.078125,-6.65625 2.71875,-6.625 2.359375,-6.625 Z m 0,0"
               style="fill:#506a65;fill-opacity:1;stroke:none" />
          </g>
        </g>
      </g>
    </g>
    <g
       transform="matrix(0.36230301,0,0,0.36230301,250.62466,14.016146)"
       ns2:version="1.1.0"
       ns2:texconverter="pdflatex"
       ns2:pdfconverter="inkscape"
       ns2:text="$-q$"
       ns2:preamble="C:\\Users\\flvisa\\Desktop\\lna\\latexify_books\\textext_preamble.tex"
       ns2:scale="1.0270000566928792"
       ns2:alignment="middle center"
       ns2:inkscapeversion="1.0"
       ns2:jacobian_sqrt="0.362303"
       style="fill:#aa9e95;fill-opacity:1;stroke-width:0"
       id="g1590">
      <defs
         id="defs1574">
        <g
           id="g7295"
           style="fill:#aa9e95;fill-opacity:1;stroke-width:0">
          <symbol
             id="symbol7281"
             overflow="visible"
             style="fill:#aa9e95;fill-opacity:1;stroke-width:0">
            <path
               id="path7279"
               d=""
               style="fill:#aa9e95;fill-opacity:1;stroke:none;stroke-width:0" />
          </symbol>
          <symbol
             id="symbol7285"
             overflow="visible"
             style="fill:#aa9e95;fill-opacity:1;stroke-width:0">
            <path
               id="path7283"
               d="m 5.71875,-2.28125 v -0.5625 H 0.625 v 0.5625 z m 0,0"
               style="fill:#aa9e95;fill-opacity:1;stroke:none;stroke-width:0" />
          </symbol>
          <symbol
             id="symbol7289"
             overflow="visible"
             style="fill:#aa9e95;fill-opacity:1;stroke-width:0">
            <path
               id="path7287"
               d=""
               style="fill:#aa9e95;fill-opacity:1;stroke:none;stroke-width:0" />
          </symbol>
          <symbol
             id="symbol7293"
             overflow="visible"
             style="fill:#aa9e95;fill-opacity:1;stroke-width:0">
            <path
               id="path7291"
               d="M 3.203125,2.296875 C 3.25,2.265625 3.265625,2.03125 3.21875,2.03125 2.765625,2.03125 2.75,1.859375 2.75,1.71875 2.75,1.59375 3.1875,-0.875 3.234375,-1.0625 l 0.625,-3.1875 C 3.671875,-4.328125 3.40625,-4.390625 3.0625,-4.390625 c -1.3125,0 -2.875,1.640625 -2.875,3.21875 0,0.59375 0.25,1.21875 0.875,1.21875 0.59375,0 1.296875,-1 1.5,-1.359375 L 2,1.71875 c -0.0625,0.265625 -0.390625,0.34375 -0.6875,0.375 -0.0625,0 -0.046875,0.25 -0.03125,0.265625 0.375,-0.03125 0.9375,-0.0625 1.515625,-0.0625 0.140625,0 0.265625,0 0.40625,0 z m -0.21875,-5.734375 -0.125,0.65625 c -0.1875,0.984375 -0.890625,2.25 -1.40625,2.25 -0.359375,0 -0.515625,-0.421875 -0.515625,-0.984375 0,-1.15625 0.875,-2.46875 1.6875,-2.46875 C 2.875,-3.984375 3,-3.75 3,-3.53125 3,-3.5 2.984375,-3.46875 2.984375,-3.4375 Z m 0,0"
               style="fill:#aa9e95;fill-opacity:1;stroke:none;stroke-width:0" />
          </symbol>
        </g>
      </defs>
      <g
         transform="translate(-149.337,-130.374)"
         id="g1588"
         style="fill:#aa9e95;fill-opacity:1;stroke-width:0">
        <g
           id="g1580"
           style="fill:#aa9e95;fill-opacity:1;stroke-width:0">
          <g
             transform="translate(148.712,134.765)"
             style="fill:#aa9e95;fill-opacity:1;stroke-width:0"
             id="g1578">
            <path
               id="path1576"
               d="m 5.71875,-2.28125 v -0.5625 H 0.625 v 0.5625 z m 0,0"
               style="fill:#aa9e95;fill-opacity:1;stroke:none;stroke-width:0" />
          </g>
        </g>
        <g
           id="g1586"
           style="fill:#aa9e95;fill-opacity:1;stroke-width:0">
          <g
             transform="translate(155.049,134.765)"
             style="fill:#aa9e95;fill-opacity:1;stroke-width:0"
             id="g1584">
            <path
               id="path1582"
               d="M 3.203125,2.296875 C 3.25,2.265625 3.265625,2.03125 3.21875,2.03125 2.765625,2.03125 2.75,1.859375 2.75,1.71875 2.75,1.59375 3.1875,-0.875 3.234375,-1.0625 l 0.625,-3.1875 C 3.671875,-4.328125 3.40625,-4.390625 3.0625,-4.390625 c -1.3125,0 -2.875,1.640625 -2.875,3.21875 0,0.59375 0.25,1.21875 0.875,1.21875 0.59375,0 1.296875,-1 1.5,-1.359375 L 2,1.71875 c -0.0625,0.265625 -0.390625,0.34375 -0.6875,0.375 -0.0625,0 -0.046875,0.25 -0.03125,0.265625 0.375,-0.03125 0.9375,-0.0625 1.515625,-0.0625 0.140625,0 0.265625,0 0.40625,0 z m -0.21875,-5.734375 -0.125,0.65625 c -0.1875,0.984375 -0.890625,2.25 -1.40625,2.25 -0.359375,0 -0.515625,-0.421875 -0.515625,-0.984375 0,-1.15625 0.875,-2.46875 1.6875,-2.46875 C 2.875,-3.984375 3,-3.75 3,-3.53125 3,-3.5 2.984375,-3.46875 2.984375,-3.4375 Z m 0,0"
               style="fill:#aa9e95;fill-opacity:1;stroke:none;stroke-width:0" />
          </g>
        </g>
      </g>
    </g>
    <g
       transform="matrix(0.36230301,0,0,0.36230301,242.98249,13.711498)"
       ns2:version="1.1.0"
       ns2:texconverter="pdflatex"
       ns2:pdfconverter="inkscape"
       ns2:text="$+q$"
       ns2:preamble="C:\\Users\\flvisa\\Desktop\\lna\\latexify_books\\textext_preamble.tex"
       ns2:scale="1.02700008503932"
       ns2:alignment="middle center"
       ns2:inkscapeversion="1.0"
       ns2:jacobian_sqrt="0.362303"
       style="fill:#aa9e95;fill-opacity:1;stroke-width:0"
       id="g1626">
      <defs
         id="defs1610">
        <g
           id="g7322"
           style="fill:#aa9e95;fill-opacity:1;stroke-width:0">
          <symbol
             id="symbol7308"
             overflow="visible"
             style="fill:#aa9e95;fill-opacity:1;stroke-width:0">
            <path
               id="path7306"
               d=""
               style="fill:#aa9e95;fill-opacity:1;stroke:none;stroke-width:0" />
          </symbol>
          <symbol
             id="symbol7312"
             overflow="visible"
             style="fill:#aa9e95;fill-opacity:1;stroke-width:0">
            <path
               id="path7310"
               d="m 2.484375,-2.84375 h -2.1875 v 0.65625 h 2.1875 V 0 h 0.65625 v -2.1875 h 2.1875 v -0.65625 h -2.1875 v -2.203125 h -0.65625 z m 0,0"
               style="fill:#aa9e95;fill-opacity:1;stroke:none;stroke-width:0" />
          </symbol>
          <symbol
             id="symbol7316"
             overflow="visible"
             style="fill:#aa9e95;fill-opacity:1;stroke-width:0">
            <path
               id="path7314"
               d=""
               style="fill:#aa9e95;fill-opacity:1;stroke:none;stroke-width:0" />
          </symbol>
          <symbol
             id="symbol7320"
             overflow="visible"
             style="fill:#aa9e95;fill-opacity:1;stroke-width:0">
            <path
               id="path7318"
               d="M 3.203125,2.296875 C 3.25,2.265625 3.265625,2.03125 3.21875,2.03125 2.765625,2.03125 2.75,1.859375 2.75,1.71875 2.75,1.59375 3.1875,-0.875 3.234375,-1.0625 l 0.625,-3.1875 C 3.671875,-4.328125 3.40625,-4.390625 3.0625,-4.390625 c -1.3125,0 -2.875,1.640625 -2.875,3.21875 0,0.59375 0.25,1.21875 0.875,1.21875 0.59375,0 1.296875,-1 1.5,-1.359375 L 2,1.71875 c -0.0625,0.265625 -0.390625,0.34375 -0.6875,0.375 -0.0625,0 -0.046875,0.25 -0.03125,0.265625 0.375,-0.03125 0.9375,-0.0625 1.515625,-0.0625 0.140625,0 0.265625,0 0.40625,0 z m -0.21875,-5.734375 -0.125,0.65625 c -0.1875,0.984375 -0.890625,2.25 -1.40625,2.25 -0.359375,0 -0.515625,-0.421875 -0.515625,-0.984375 0,-1.15625 0.875,-2.46875 1.6875,-2.46875 C 2.875,-3.984375 3,-3.75 3,-3.53125 3,-3.5 2.984375,-3.46875 2.984375,-3.4375 Z m 0,0"
               style="fill:#aa9e95;fill-opacity:1;stroke:none;stroke-width:0" />
          </symbol>
        </g>
      </defs>
      <g
         transform="translate(-149.009,-129.718)"
         id="g1624"
         style="fill:#aa9e95;fill-opacity:1;stroke-width:0">
        <g
           id="g1616"
           style="fill:#aa9e95;fill-opacity:1;stroke-width:0">
          <g
             transform="translate(148.712,134.765)"
             style="fill:#aa9e95;fill-opacity:1;stroke-width:0"
             id="g1614">
            <path
               id="path1612"
               d="m 2.484375,-2.84375 h -2.1875 v 0.65625 h 2.1875 V 0 h 0.65625 v -2.1875 h 2.1875 v -0.65625 h -2.1875 v -2.203125 h -0.65625 z m 0,0"
               style="fill:#aa9e95;fill-opacity:1;stroke:none;stroke-width:0" />
          </g>
        </g>
        <g
           id="g1622"
           style="fill:#aa9e95;fill-opacity:1;stroke-width:0">
          <g
             transform="translate(154.331,134.765)"
             style="fill:#aa9e95;fill-opacity:1;stroke-width:0"
             id="g1620">
            <path
               id="path1618"
               d="M 3.203125,2.296875 C 3.25,2.265625 3.265625,2.03125 3.21875,2.03125 2.765625,2.03125 2.75,1.859375 2.75,1.71875 2.75,1.59375 3.1875,-0.875 3.234375,-1.0625 l 0.625,-3.1875 C 3.671875,-4.328125 3.40625,-4.390625 3.0625,-4.390625 c -1.3125,0 -2.875,1.640625 -2.875,3.21875 0,0.59375 0.25,1.21875 0.875,1.21875 0.59375,0 1.296875,-1 1.5,-1.359375 L 2,1.71875 c -0.0625,0.265625 -0.390625,0.34375 -0.6875,0.375 -0.0625,0 -0.046875,0.25 -0.03125,0.265625 0.375,-0.03125 0.9375,-0.0625 1.515625,-0.0625 0.140625,0 0.265625,0 0.40625,0 z m -0.21875,-5.734375 -0.125,0.65625 c -0.1875,0.984375 -0.890625,2.25 -1.40625,2.25 -0.359375,0 -0.515625,-0.421875 -0.515625,-0.984375 0,-1.15625 0.875,-2.46875 1.6875,-2.46875 C 2.875,-3.984375 3,-3.75 3,-3.53125 3,-3.5 2.984375,-3.46875 2.984375,-3.4375 Z m 0,0"
               style="fill:#aa9e95;fill-opacity:1;stroke:none;stroke-width:0" />
          </g>
        </g>
      </g>
    </g>
    <g
       transform="matrix(0.42333399,0,0,0.42333399,247.82171,42.433426)"
       ns2:version="1.1.0"
       ns2:texconverter="pdflatex"
       ns2:pdfconverter="inkscape"
       ns2:text="$L$\n\n\n\n\n\n\n\n"
       ns2:preamble="C:\\Users\\flvisa\\Desktop\\lna\\latexify_books\\textext_preamble.tex"
       ns2:scale="1.1999997165359095"
       ns2:alignment="middle center"
       ns2:inkscapeversion="1.0.1"
       ns2:jacobian_sqrt="0.423334"
       style="fill:#c08751;fill-opacity:1;stroke-width:0"
       id="g29606">
      <defs
         id="id-bebee7df-051d-453a-87bd-eba4bc9efa1a">
        <g
           id="g7409"
           style="fill:#c28f47;fill-opacity:1;stroke-width:0">
          <symbol
             overflow="visible"
             id="symbol7403"
             style="fill:#c28f47;fill-opacity:1;stroke-width:0">
            <path
               style="fill:#c28f47;fill-opacity:1;stroke:none;stroke-width:0"
               d=""
               id="path7401" />
          </symbol>
          <symbol
             overflow="visible"
             id="symbol7407"
             style="fill:#c28f47;fill-opacity:1;stroke-width:0">
            <path
               style="fill:#c28f47;fill-opacity:1;stroke:none;stroke-width:0"
               d="M 1.578125,-0.484375 C 1.578125,-0.640625 1.65625,-1 1.671875,-1.125 L 2.53125,-5.484375 C 2.59375,-5.78125 2.640625,-6.0625 2.71875,-6.21875 2.765625,-6.328125 3.296875,-6.390625 3.40625,-6.390625 3.453125,-6.4375 3.5,-6.625 3.453125,-6.671875 3.078125,-6.65625 2.71875,-6.625 2.359375,-6.625 2,-6.625 1.625,-6.65625 1.25,-6.671875 1.1875,-6.625 1.171875,-6.4375 1.203125,-6.390625 c 0.109375,0 0.59375,0.0625 0.609375,0.171875 v 0.0625 c 0,0.171875 -0.046875,0.421875 -0.09375,0.671875 l -0.84375,4.3125 c -0.0625,0.296875 -0.109375,0.578125 -0.1875,0.75 -0.046875,0.109375 -0.5625,0.15625 -0.671875,0.15625 -0.0625,0.0625 -0.109375,0.25 -0.0625,0.296875 C 0.3125,0.03125 0.625,0 1.0625,0 2.3125,0 3.234375,0.046875 4.25,0.046875 4.40625,-0.40625 4.8125,-1.09375 5.09375,-1.640625 5.078125,-1.671875 4.96875,-1.6875 4.875,-1.6875 c -0.0625,0 -0.125,0.015625 -0.15625,0.046875 -0.25,0.546875 -0.546875,0.890625 -0.84375,1.0625 -0.3125,0.171875 -0.75,0.28125 -1.109375,0.28125 H 2.25 c -0.390625,0 -0.671875,0.03125 -0.671875,-0.1875 z m 0,0"
               id="path7405" />
          </symbol>
        </g>
      </defs>
      <g
         id="id-a4edd3c1-be0f-4702-b4e2-019f03914d57"
         transform="translate(-149.045,-128.093)"
         style="fill:#c08751;fill-opacity:1;stroke-width:0">
        <g
           style="fill:#c08751;fill-opacity:1;stroke-width:0"
           id="id-73fdc302-7623-43fd-9c24-7fbdf4c1088f">
          <g
             transform="translate(149.111,134.765)"
             style="fill:#c08751;fill-opacity:1;stroke-width:0"
             id="g29602">
            <path
               style="fill:#c08751;fill-opacity:1;stroke:none;stroke-width:0"
               d="M 1.578125,-0.484375 C 1.578125,-0.640625 1.65625,-1 1.671875,-1.125 L 2.53125,-5.484375 C 2.59375,-5.78125 2.640625,-6.0625 2.71875,-6.21875 2.765625,-6.328125 3.296875,-6.390625 3.40625,-6.390625 3.453125,-6.4375 3.5,-6.625 3.453125,-6.671875 3.078125,-6.65625 2.71875,-6.625 2.359375,-6.625 2,-6.625 1.625,-6.65625 1.25,-6.671875 1.1875,-6.625 1.171875,-6.4375 1.203125,-6.390625 c 0.109375,0 0.59375,0.0625 0.609375,0.171875 v 0.0625 c 0,0.171875 -0.046875,0.421875 -0.09375,0.671875 l -0.84375,4.3125 c -0.0625,0.296875 -0.109375,0.578125 -0.1875,0.75 -0.046875,0.109375 -0.5625,0.15625 -0.671875,0.15625 -0.0625,0.0625 -0.109375,0.25 -0.0625,0.296875 C 0.3125,0.03125 0.625,0 1.0625,0 2.3125,0 3.234375,0.046875 4.25,0.046875 4.40625,-0.40625 4.8125,-1.09375 5.09375,-1.640625 5.078125,-1.671875 4.96875,-1.6875 4.875,-1.6875 c -0.0625,0 -0.125,0.015625 -0.15625,0.046875 -0.25,0.546875 -0.546875,0.890625 -0.84375,1.0625 -0.3125,0.171875 -0.75,0.28125 -1.109375,0.28125 H 2.25 c -0.390625,0 -0.671875,0.03125 -0.671875,-0.1875 z m 0,0"
               id="id-294c0ce1-32ad-4689-8225-a3e89ee09b24" />
          </g>
        </g>
      </g>
    </g>
    <g
       id="g47557"
       style="stroke:#c08751"
       transform="matrix(0.56927677,0,0,-0.56927677,-133.94702,74.674593)">
      <path
         style="fill:none;stroke:#c08751;stroke-width:0.264583px;stroke-linecap:round;stroke-linejoin:round;stroke-opacity:1"
         d="m 660.48726,67.245548 c -1.82132,0 -1.99126,-5.156186 0,-7.239919"
         id="path47551"
         sodipodi:nodetypes="cc" />
      <path
         style="fill:none;stroke:#c08751;stroke-width:0.264583px;stroke-linecap:round;stroke-linejoin:round;stroke-opacity:1"
         d="m 660.48726,67.245548 c 1.82132,0 1.99126,-5.156186 0,-7.239919"
         id="path47553"
         sodipodi:nodetypes="cc" />
    </g>
    <g
       id="g47563"
       style="stroke:#c08751"
       transform="matrix(0.56927677,0,0,-0.56927677,-130.63336,74.674593)">
      <path
         style="fill:none;stroke:#c08751;stroke-width:0.264583px;stroke-linecap:round;stroke-linejoin:round;stroke-opacity:1"
         d="m 660.48726,67.245548 c -1.82132,0 -1.99126,-5.156186 0,-7.239919"
         id="path47559"
         sodipodi:nodetypes="cc" />
      <path
         style="fill:none;stroke:#c08751;stroke-width:0.264583px;stroke-linecap:round;stroke-linejoin:round;stroke-opacity:1"
         d="m 660.48726,67.245548 c 1.82132,0 1.99126,-5.156186 0,-7.239919"
         id="path47561"
         sodipodi:nodetypes="cc" />
    </g>
    <g
       id="g47575"
       style="stroke:#c08751"
       transform="matrix(0.56927677,0,0,-0.56927677,-127.31968,74.674593)">
      <path
         style="fill:none;stroke:#c08751;stroke-width:0.264583px;stroke-linecap:round;stroke-linejoin:round;stroke-opacity:1"
         d="m 660.48726,67.245548 c -1.82132,0 -1.99126,-5.156186 0,-7.239919"
         id="path47571"
         sodipodi:nodetypes="cc" />
      <path
         style="fill:none;stroke:#c08751;stroke-width:0.264583px;stroke-linecap:round;stroke-linejoin:round;stroke-opacity:1"
         d="m 660.48726,67.245548 c 1.82132,0 1.99126,-5.156186 0,-7.239919"
         id="path47573"
         sodipodi:nodetypes="cc" />
    </g>
    <g
       id="g47581"
       style="stroke:#c08751"
       transform="matrix(0.56927677,0,0,-0.56927677,-124.00601,74.674593)">
      <path
         style="fill:none;stroke:#c08751;stroke-width:0.264583px;stroke-linecap:round;stroke-linejoin:round;stroke-opacity:1"
         d="m 660.48726,67.245548 c -1.82132,0 -1.99126,-5.156186 0,-7.239919"
         id="path47577"
         sodipodi:nodetypes="cc" />
      <path
         style="fill:none;stroke:#c08751;stroke-width:0.264583px;stroke-linecap:round;stroke-linejoin:round;stroke-opacity:1"
         d="m 660.48726,67.245548 c 1.82132,0 1.99126,-5.156186 0,-7.239919"
         id="path47579"
         sodipodi:nodetypes="cc" />
    </g>
    <g
       id="g47587"
       style="stroke:#c08751"
       transform="matrix(0.56927677,0,0,-0.56927677,-120.69234,74.674593)">
      <path
         style="fill:none;stroke:#c08751;stroke-width:0.264583px;stroke-linecap:round;stroke-linejoin:round;stroke-opacity:1"
         d="m 660.48726,67.245548 c -1.82132,0 -1.99126,-5.156186 0,-7.239919"
         id="path47583"
         sodipodi:nodetypes="cc" />
      <path
         style="fill:none;stroke:#c08751;stroke-width:0.264583px;stroke-linecap:round;stroke-linejoin:round;stroke-opacity:1"
         d="m 660.48726,67.245548 c 1.82132,0 1.99126,-5.156186 0,-7.239919"
         id="path47585"
         sodipodi:nodetypes="cc" />
    </g>
    <path
       style="fill:none;stroke:#c08751;stroke-width:0.150621px;stroke-linecap:round;stroke-linejoin:round;stroke-opacity:1"
       d="m 242.05303,40.514781 c 0.81729,0.817294 2.47915,0.834504 3.31367,0"
       id="path47589"
       sodipodi:nodetypes="cc" />
    <path
       style="fill:none;stroke:#c08751;stroke-width:0.150621px;stroke-linecap:round;stroke-linejoin:round;stroke-opacity:1"
       d="m 245.3667,40.514781 c 0.81728,0.817294 2.47915,0.834504 3.31365,0"
       id="path47591"
       sodipodi:nodetypes="cc" />
    <path
       style="fill:none;stroke:#c08751;stroke-width:0.150621px;stroke-linecap:round;stroke-linejoin:round;stroke-opacity:1"
       d="m 248.68036,40.514781 c 0.81729,0.817294 2.47915,0.834504 3.31367,0"
       id="path47593"
       sodipodi:nodetypes="cc" />
    <path
       style="fill:none;stroke:#c08751;stroke-width:0.150621px;stroke-linecap:round;stroke-linejoin:round;stroke-opacity:1"
       d="m 251.99403,40.514781 c 0.81729,0.817294 2.47915,0.834504 3.31367,0"
       id="path47595"
       sodipodi:nodetypes="cc" />
    <path
       style="fill:none;stroke:#c08751;stroke-width:0.150621px;stroke-linecap:round;stroke-linejoin:round;stroke-opacity:1"
       d="m 255.3077,40.514781 c 0.81728,0.817294 2.47915,0.834504 3.31364,0"
       id="path47597"
       sodipodi:nodetypes="cc" />
    <path
       style="fill:none;stroke:#c08751;stroke-width:0.150621px;stroke-linecap:round;stroke-linejoin:round;stroke-opacity:1"
       d="m 238.73937,40.514781 c 0.81729,0.817294 2.47915,0.834504 3.31366,0"
       id="path47599"
       sodipodi:nodetypes="cc" />
    <path
       style="fill:none;stroke:#c08751;stroke-width:0.150621px;stroke-linecap:round;stroke-linejoin:round;stroke-opacity:1"
       d="m 259.10427,38.78468 c 0.008,0.637708 -0.0417,1.288897 -0.48291,1.730101"
       id="path53793"
       sodipodi:nodetypes="cc" />
    <path
       style="fill:none;stroke:#c08751;stroke-width:0.150621px;stroke-linecap:round;stroke-linejoin:round;stroke-opacity:1"
       d="m 238.25646,38.78468 c -0.008,0.637708 0.0417,1.288897 0.48291,1.730101"
       id="path53795"
       sodipodi:nodetypes="cc" />
    <g
       transform="matrix(0.42333399,0,0,0.42333399,251.02249,18.913695)"
       ns2:version="1.1.0"
       ns2:texconverter="pdflatex"
       ns2:pdfconverter="inkscape"
       ns2:text="$1$"
       ns2:preamble="C:\\Users\\flvisa\\Desktop\\lna\\latexify_books\\textext_preamble.tex"
       ns2:scale="1.199999773228722"
       ns2:alignment="middle center"
       ns2:inkscapeversion="1.0"
       ns2:jacobian_sqrt="0.423334"
       id="g6582">
      <defs
         id="id-99136f65-f779-4cb7-b19c-c10459896000">
        <g
           id="g7542">
          <symbol
             id="symbol7536"
             overflow="visible">
            <path
               id="path7534"
               d="M 0.5,0 H 4.484375 V -4.8125 H 0.5 Z M 1,-0.5 V -4.3125 H 3.984375 V -0.5 Z m 0,0"
               style="stroke:none" />
          </symbol>
          <symbol
             id="symbol7540"
             overflow="visible">
            <path
               id="path7538"
               d="m 2.171875,-1.125 c 0,0.28125 -0.015625,0.5625 -0.0625,0.71875 C 2.078125,-0.296875 1.609375,-0.25 1.5,-0.25 c -0.046875,0.046875 -0.046875,0.234375 0,0.28125 0.390625,-0.015625 0.65625,-0.046875 1.03125,-0.046875 0.375,0 0.6875,0.03125 1.09375,0.046875 0.046875,-0.046875 0.03125,-0.234375 0,-0.28125 C 3.5,-0.25 3.015625,-0.296875 2.984375,-0.40625 2.9375,-0.5625 2.9375,-0.84375 2.9375,-1.125 v -4.03125 c 0,-0.59375 0.078125,-0.9375 0.078125,-0.9375 0,-0.046875 -0.03125,-0.15625 -0.09375,-0.15625 H 2.90625 C 2.875,-6.25 2,-5.828125 1.203125,-5.46875 c -0.03125,0.015625 0,0.046875 0,0.0625 0,0.078125 0.03125,0.125 0.078125,0.171875 0.171875,-0.0625 0.546875,-0.203125 0.6875,-0.203125 0.140625,0 0.203125,0.09375 0.203125,0.375 z m 0,0"
               style="stroke:none" />
          </symbol>
        </g>
      </defs>
      <g
         transform="translate(-149.901,-128.515)"
         id="id-bd3de61b-ee2e-47ef-96ff-2b0b05c6120a">
        <g
           id="id-094dc464-c691-462e-9002-f9b026782012"
           style="fill:#000000;fill-opacity:1">
          <g
             transform="translate(148.712,134.765)"
             id="g6578">
            <path
               id="id-74bf3bd2-a8b6-49d6-a543-6822b0530089"
               d="m 2.171875,-1.125 c 0,0.28125 -0.015625,0.5625 -0.0625,0.71875 C 2.078125,-0.296875 1.609375,-0.25 1.5,-0.25 c -0.046875,0.046875 -0.046875,0.234375 0,0.28125 0.390625,-0.015625 0.65625,-0.046875 1.03125,-0.046875 0.375,0 0.6875,0.03125 1.09375,0.046875 0.046875,-0.046875 0.03125,-0.234375 0,-0.28125 C 3.5,-0.25 3.015625,-0.296875 2.984375,-0.40625 2.9375,-0.5625 2.9375,-0.84375 2.9375,-1.125 v -4.03125 c 0,-0.59375 0.078125,-0.9375 0.078125,-0.9375 0,-0.046875 -0.03125,-0.15625 -0.09375,-0.15625 H 2.90625 C 2.875,-6.25 2,-5.828125 1.203125,-5.46875 c -0.03125,0.015625 0,0.046875 0,0.0625 0,0.078125 0.03125,0.125 0.078125,0.171875 0.171875,-0.0625 0.546875,-0.203125 0.6875,-0.203125 0.140625,0 0.203125,0.09375 0.203125,0.375 z m 0,0"
               style="stroke:none" />
          </g>
        </g>
      </g>
    </g>
    <g
       transform="matrix(0.42333399,0,0,0.42333399,244.76447,19.00825)"
       ns2:version="1.1.0"
       ns2:texconverter="pdflatex"
       ns2:pdfconverter="inkscape"
       ns2:text="$2$"
       ns2:preamble="C:\\Users\\flvisa\\Desktop\\lna\\latexify_books\\textext_preamble.tex"
       ns2:scale="1.1999997448823154"
       ns2:alignment="middle center"
       ns2:inkscapeversion="1.0"
       ns2:jacobian_sqrt="0.423334"
       id="g6925">
      <defs
         id="id-10d01f89-49fc-436f-a187-d029386b3763">
        <g
           id="g7558">
          <symbol
             id="symbol7552"
             overflow="visible">
            <path
               id="path7550"
               d="M 0.5,0 H 4.484375 V -4.8125 H 0.5 Z M 1,-0.5 V -4.3125 H 3.984375 V -0.5 Z m 0,0"
               style="stroke:none" />
          </symbol>
          <symbol
             id="symbol7556"
             overflow="visible">
            <path
               id="path7554"
               d="M 4.421875,-1.453125 C 4.375,-1.484375 4.25,-1.515625 4.21875,-1.515625 c -0.0625,0 -0.09375,0.015625 -0.109375,0.0625 -0.21875,0.5 -0.4375,0.75 -0.8125,0.75 h -1.9375 c 0.4375,-0.5 1.4375,-1.59375 2.125,-2.453125 C 3.8125,-3.5625 4.03125,-4.0625 4.03125,-4.625 c 0,-0.828125 -0.734375,-1.625 -1.671875,-1.625 -1.03125,0 -1.734375,1.078125 -1.796875,1.3125 0,0.046875 0.109375,0.15625 0.1875,0.15625 0.125,-0.1875 0.609375,-0.828125 1.390625,-0.828125 0.609375,0 1.0625,0.5 1.0625,1.171875 0,0.484375 -0.0625,0.875 -0.46875,1.453125 -0.5625,0.828125 -1.5,1.9375 -2.3125,2.84375 0,0.046875 0.0625,0.125 0.09375,0.140625 h 3.375 c 0.0625,-0.171875 0.328125,-0.984375 0.53125,-1.453125 z m 0,0"
               style="stroke:none" />
          </symbol>
        </g>
      </defs>
      <g
         transform="translate(-149.134,-128.515)"
         id="id-2b50523c-e81a-4f87-ba36-3d7fa8f68420">
        <g
           id="id-9b635aa6-b372-4423-8fa0-6e45d443fb17"
           style="fill:#000000;fill-opacity:1">
          <g
             transform="translate(148.712,134.765)"
             id="g6921">
            <path
               id="id-392eb9f9-4e03-4d03-ba62-75c1d1e34a13"
               d="M 4.421875,-1.453125 C 4.375,-1.484375 4.25,-1.515625 4.21875,-1.515625 c -0.0625,0 -0.09375,0.015625 -0.109375,0.0625 -0.21875,0.5 -0.4375,0.75 -0.8125,0.75 h -1.9375 c 0.4375,-0.5 1.4375,-1.59375 2.125,-2.453125 C 3.8125,-3.5625 4.03125,-4.0625 4.03125,-4.625 c 0,-0.828125 -0.734375,-1.625 -1.671875,-1.625 -1.03125,0 -1.734375,1.078125 -1.796875,1.3125 0,0.046875 0.109375,0.15625 0.1875,0.15625 0.125,-0.1875 0.609375,-0.828125 1.390625,-0.828125 0.609375,0 1.0625,0.5 1.0625,1.171875 0,0.484375 -0.0625,0.875 -0.46875,1.453125 -0.5625,0.828125 -1.5,1.9375 -2.3125,2.84375 0,0.046875 0.0625,0.125 0.09375,0.140625 h 3.375 c 0.0625,-0.171875 0.328125,-0.984375 0.53125,-1.453125 z m 0,0"
               style="stroke:none" />
          </g>
        </g>
      </g>
    </g>
    <g
       id="g6434"
       style="fill:#000000;fill-opacity:1;stroke-width:0"
       ns2:jacobian_sqrt="0.423334"
       ns2:inkscapeversion="1.0"
       ns2:alignment="middle center"
       ns2:scale="1.1999998866143555"
       ns2:preamble="C:\\Users\\flvisa\\Desktop\\lna\\latexify_books\\textext_preamble.tex"
       ns2:text="$3$"
       ns2:pdfconverter="inkscape"
       ns2:texconverter="pdflatex"
       ns2:version="1.1.0"
       transform="matrix(0.42333399,0,0,0.42333399,247.97733,32.645295)">
      <defs
         id="id-b9751adc-d4af-488e-8068-c57a471d098c">
        <g
           style="fill:#9e7867;fill-opacity:1;stroke-width:0"
           id="g7574">
          <symbol
             style="fill:#9e7867;fill-opacity:1;stroke-width:0"
             overflow="visible"
             id="symbol7568">
            <path
               style="fill:#9e7867;fill-opacity:1;stroke:none;stroke-width:0"
               d="M 0.5,0 H 4.484375 V -4.8125 H 0.5 Z M 1,-0.5 V -4.3125 H 3.984375 V -0.5 Z m 0,0"
               id="path7566" />
          </symbol>
          <symbol
             style="fill:#9e7867;fill-opacity:1;stroke-width:0"
             overflow="visible"
             id="symbol7572">
            <path
               style="fill:#9e7867;fill-opacity:1;stroke:none;stroke-width:0"
               d="m 2.515625,-6.25 c -0.765625,0 -1.3125,0.5 -1.625,0.953125 0,0.078125 0.0625,0.203125 0.125,0.203125 0.09375,-0.0625 0.46875,-0.640625 1.09375,-0.640625 0.546875,0 0.953125,0.390625 0.953125,0.90625 0,0.84375 -0.734375,1.265625 -1.515625,1.4375 -0.015625,0.03125 -0.015625,0.0625 -0.015625,0.09375 0,0.09375 0.015625,0.140625 0.046875,0.203125 0.125,-0.03125 0.375,-0.125 0.578125,-0.125 0.640625,0 1.25,0.578125 1.25,1.359375 0,1.125 -0.625,1.515625 -1.140625,1.515625 -0.265625,0 -0.53125,-0.0625 -0.71875,-0.25 C 1.390625,-0.75 1.265625,-1.015625 1,-1.015625 c -0.21875,0 -0.40625,0.1875 -0.40625,0.46875 0,0.15625 0.140625,0.328125 0.1875,0.375 0.3125,0.15625 0.734375,0.21875 1,0.21875 C 2.984375,0.046875 4.25,-0.78125 4.25,-2.125 4.25,-3.078125 3.453125,-3.609375 2.890625,-3.6875 3.234375,-3.890625 3.78125,-4.375 3.78125,-5 c 0,-0.796875 -0.765625,-1.25 -1.265625,-1.25 z m 0,0"
               id="path7570" />
          </symbol>
        </g>
      </defs>
      <g
         style="fill:#000000;fill-opacity:1;stroke-width:0"
         id="id-fa85de6a-5775-428e-ad32-adcc5d1d87e8"
         transform="translate(-149.306,-128.515)">
        <g
           style="fill:#000000;fill-opacity:1;stroke-width:0"
           id="id-165f79ec-7bba-4134-b058-87f93dcba377">
          <g
             id="g6430"
             style="fill:#000000;fill-opacity:1;stroke-width:0"
             transform="translate(148.712,134.765)">
            <path
               style="fill:#000000;fill-opacity:1;stroke:none;stroke-width:0"
               d="m 2.515625,-6.25 c -0.765625,0 -1.3125,0.5 -1.625,0.953125 0,0.078125 0.0625,0.203125 0.125,0.203125 0.09375,-0.0625 0.46875,-0.640625 1.09375,-0.640625 0.546875,0 0.953125,0.390625 0.953125,0.90625 0,0.84375 -0.734375,1.265625 -1.515625,1.4375 -0.015625,0.03125 -0.015625,0.0625 -0.015625,0.09375 0,0.09375 0.015625,0.140625 0.046875,0.203125 0.125,-0.03125 0.375,-0.125 0.578125,-0.125 0.640625,0 1.25,0.578125 1.25,1.359375 0,1.125 -0.625,1.515625 -1.140625,1.515625 -0.265625,0 -0.53125,-0.0625 -0.71875,-0.25 C 1.390625,-0.75 1.265625,-1.015625 1,-1.015625 c -0.21875,0 -0.40625,0.1875 -0.40625,0.46875 0,0.15625 0.140625,0.328125 0.1875,0.375 0.3125,0.15625 0.734375,0.21875 1,0.21875 C 2.984375,0.046875 4.25,-0.78125 4.25,-2.125 4.25,-3.078125 3.453125,-3.609375 2.890625,-3.6875 3.234375,-3.890625 3.78125,-4.375 3.78125,-5 c 0,-0.796875 -0.765625,-1.25 -1.265625,-1.25 z m 0,0"
               id="id-44dde96e-5338-4cbe-a7bb-14cfbf3a4581" />
          </g>
        </g>
      </g>
    </g>
    <g
       transform="matrix(0.423334,0,0,0.423334,247.522,8.44098)"
       ns2:version="1.1.0"
       ns2:texconverter="pdflatex"
       ns2:pdfconverter="inkscape"
       ns2:text="$C$\n"
       ns2:preamble="C:\\Users\\flvisa\\Desktop\\lna\\latexify_books\\textext_preamble.tex"
       ns2:scale="1.2"
       ns2:alignment="middle center"
       ns2:inkscapeversion="1.0.1"
       ns2:jacobian_sqrt="0.423334"
       style="fill:#aa9e95;fill-opacity:1;stroke-width:0"
       id="g8707">
      <defs
         id="id-3333629e-3cdc-49d6-b131-db1e765a4333">
        <g
           id="id-0b85c8c0-907c-425e-a4e4-fcc56f9e5ca0"
           style="fill:#aa9e95;fill-opacity:1;stroke-width:0">
          <symbol
             overflow="visible"
             id="id-699e8d52-f6a4-4b78-8275-5d639be972a1"
             style="fill:#aa9e95;fill-opacity:1;stroke-width:0">
            <path
               style="fill:#aa9e95;fill-opacity:1;stroke:none;stroke-width:0"
               d=""
               id="id-fdb5f232-07fe-4271-9197-a8b6cf99a531" />
          </symbol>
          <symbol
             overflow="visible"
             id="id-67916278-ec09-465a-8c1e-31fbe238f979"
             style="fill:#aa9e95;fill-opacity:1;stroke-width:0">
            <path
               style="fill:#aa9e95;fill-opacity:1;stroke:none;stroke-width:0"
               d="m 5.734375,-1.75 c -0.4375,0.828125 -1.09375,1.53125 -2.125,1.53125 -1.53125,0 -2.046875,-1.453125 -2.046875,-2.65625 0,-2.171875 1.265625,-3.53125 2.828125,-3.53125 0.828125,0 1.515625,0.578125 1.515625,1.34375 v 0.078125 C 5.984375,-4.9375 6.078125,-4.9375 6.125,-4.9375 c 0.046875,0 0.078125,-0.015625 0.078125,-0.046875 0.03125,-0.28125 0.09375,-1.109375 0.109375,-1.46875 -0.484375,-0.125 -1.03125,-0.25 -1.625,-0.265625 H 4.609375 c -2.046875,0 -4.015625,1.53125 -4.015625,4.046875 0,1.5 1.09375,2.75 2.734375,2.75 0.875,0 1.421875,-0.078125 1.96875,-0.359375 0.140625,-0.125 0.6875,-1.1875 0.71875,-1.390625 0,0 -0.140625,-0.078125 -0.28125,-0.078125 z m 0,0"
               id="id-d79b645a-42b4-479c-b563-794955f28e6e" />
          </symbol>
        </g>
      </defs>
      <g
         id="id-4ba99ac7-773f-4c82-8647-af3686d984b8"
         transform="translate(-149.107,-128.046)"
         style="fill:#aa9e95;fill-opacity:1;stroke-width:0">
        <g
           style="fill:#aa9e95;fill-opacity:1;stroke-width:0"
           id="id-8aa4a013-08fe-477c-9cdc-6da3b0eca370">
          <g
             transform="translate(148.513,134.765)"
             style="fill:#aa9e95;fill-opacity:1;stroke-width:0"
             id="g8703">
            <path
               style="fill:#aa9e95;fill-opacity:1;stroke:none;stroke-width:0"
               d="m 5.734375,-1.75 c -0.4375,0.828125 -1.09375,1.53125 -2.125,1.53125 -1.53125,0 -2.046875,-1.453125 -2.046875,-2.65625 0,-2.171875 1.265625,-3.53125 2.828125,-3.53125 0.828125,0 1.515625,0.578125 1.515625,1.34375 v 0.078125 C 5.984375,-4.9375 6.078125,-4.9375 6.125,-4.9375 c 0.046875,0 0.078125,-0.015625 0.078125,-0.046875 0.03125,-0.28125 0.09375,-1.109375 0.109375,-1.46875 -0.484375,-0.125 -1.03125,-0.25 -1.625,-0.265625 H 4.609375 c -2.046875,0 -4.015625,1.53125 -4.015625,4.046875 0,1.5 1.09375,2.75 2.734375,2.75 0.875,0 1.421875,-0.078125 1.96875,-0.359375 0.140625,-0.125 0.6875,-1.1875 0.71875,-1.390625 0,0 -0.140625,-0.078125 -0.28125,-0.078125 z m 0,0"
               id="id-4e661311-7190-495b-8180-b76dff9d3250" />
          </g>
        </g>
      </g>
    </g>
  </g>
</svg>
