<?xml version="1.0" encoding="UTF-8" standalone="no"?>
<svg
   xmlns:dc="http://purl.org/dc/elements/1.1/"
   xmlns:cc="http://creativecommons.org/ns#"
   xmlns:rdf="http://www.w3.org/1999/02/22-rdf-syntax-ns#"
   xmlns:svg="http://www.w3.org/2000/svg"
   xmlns="http://www.w3.org/2000/svg"
   xmlns:sodipodi="http://sodipodi.sourceforge.net/DTD/sodipodi-0.dtd"
   xmlns:inkscape="http://www.inkscape.org/namespaces/inkscape"
   width="205.172897pt"
   height="155.98056pt"
   viewBox="0 0 205.172897 155.98056"
   version="1.2"
   id="svg83764"
   sodipodi:docname="fig_5_12.svg"
   inkscape:version="1.0 (4035a4fb49, 2020-05-01)">
  <metadata
     id="metadata83768">
    <rdf:RDF>
      <cc:Work
         rdf:about="">
        <dc:format>image/svg+xml</dc:format>
        <dc:type
           rdf:resource="http://purl.org/dc/dcmitype/StillImage" />
        <dc:title />
      </cc:Work>
    </rdf:RDF>
  </metadata>
  <sodipodi:namedview
     inkscape:document-rotation="0"
     pagecolor="#ffffff"
     bordercolor="#666666"
     borderopacity="1"
     objecttolerance="10"
     gridtolerance="10"
     guidetolerance="10"
     inkscape:pageopacity="0"
     inkscape:pageshadow="2"
     inkscape:window-width="1600"
     inkscape:window-height="837"
     id="namedview83766"
     showgrid="false"
     inkscape:zoom="2.2779835"
     inkscape:cx="136.81969"
     inkscape:cy="113.33034"
     inkscape:window-x="-8"
     inkscape:window-y="-8"
     inkscape:window-maximized="1"
     inkscape:current-layer="svg83764" />
  <defs
     id="defs83717">
    <clipPath
       id="clip1">
      <path
         d="M 56 0 L 205.171875 0 L 205.171875 155.980469 L 56 155.980469 Z M 56 0 "
         id="path83714" />
    </clipPath>
  </defs>
  <path
     style="clip-rule:nonzero;fill:none;stroke:#a6a7a3;stroke-width:1.5;stroke-linecap:butt;stroke-linejoin:miter;stroke-miterlimit:4;stroke-opacity:1"
     d="M 101.42578,6.390625 C 91.945313,11.324219 87.265625,21.53125 80.613281,29.34375 75.914063,37.359375 65.824219,42.714844 65.664063,52.957031 c -2.878907,9.523438 3.003906,18.207032 6.613281,26.476563 2.085937,8.378906 -0.472656,19.039062 7.246094,25.093746 8.765625,7.30469 20.203125,12.51172 24.765622,23.72266 2.6836,6.23828 6.86328,11.89844 7.35157,18.71875 2.05078,7.68359 12.41796,11.45703 17.88281,4.91797 15.89843,-9.97266 34.88281,-11.86328 52.62109,-16.61719 7.67578,-1.41406 15.17578,-5.57031 18.40234,-13 3.8711,-7.40234 4.96875,-16.04687 2.71875,-24.124999 -2.00781,-7.550781 -2.36328,-15.414062 -0.625,-23.050781 1.29297,-7.617187 1.25,-15.730469 -2.35937,-22.746094 C 198.07031,42.871094 191.98047,35.3125 183.95312,30.210938 179.375,22.984375 175.20312,14.90625 166.59375,11.765625 156.92187,6.984375 146.31641,4.46875 135.95312,1.726563 127.90234,1.34375 119.82813,1.492188 111.80859,0.75 c -4.05078,0.195313 -8.4375,1.816406 -10.38281,5.640625 z m 0,0"
     id="path83719" />
  <path
     id="path83723"
     d="m 12.3125,99.894531 103.98828,0.953129"
     style="fill:none;stroke:#c28f47;stroke-width:2;stroke-linecap:butt;stroke-linejoin:miter;stroke-miterlimit:4;stroke-opacity:1" />
  <path
     id="path83725"
     d="m 113.90235,100.82422 -2.01954,1.98047 7.01954,-1.9336 -6.98438,-2.066403 z m 0,0"
     style="fill:#c28f47;fill-opacity:1;fill-rule:evenodd;stroke:#c28f47;stroke-width:0.533333;stroke-linecap:butt;stroke-linejoin:miter;stroke-miterlimit:4;stroke-opacity:1" />
  <path
     id="path83727"
     d="M 12.3125,99.894531 146.26953,41.890625"
     style="fill:none;stroke:#3a667a;stroke-width:1.9758;stroke-linecap:butt;stroke-linejoin:miter;stroke-miterlimit:4;stroke-opacity:1" />
  <path
     id="path83729"
     d="m 144.09375,42.832033 -1.02735,2.597656 5.5586,-4.5625 -7.12891,0.9375 z m 0,0"
     style="fill:#3a667a;fill-opacity:1;fill-rule:evenodd;stroke:#3a667a;stroke-width:0.52688;stroke-linecap:butt;stroke-linejoin:miter;stroke-miterlimit:4;stroke-opacity:1" />
  <path
     id="path83731"
     d="M 123.34375,101.33203 149.80469,45.25"
     style="fill:none;stroke:#994730;stroke-width:2;stroke-linecap:butt;stroke-linejoin:miter;stroke-miterlimit:4;stroke-opacity:1" />
  <path
     id="path83733"
     d="m 148.77734,47.421875 0.95703,2.664063 1.17969,-7.183594 -4.79688,5.476561 z m 0,0"
     style="fill:#994730;fill-opacity:1;fill-rule:evenodd;stroke:#994730;stroke-width:0.533334;stroke-linecap:butt;stroke-linejoin:miter;stroke-miterlimit:4;stroke-opacity:1" />
  <path
     id="path83735"
     d="m 15.128906,99.964844 c 0,1.472656 -1.199218,2.667966 -2.679687,2.667966 -1.476563,0 -2.675781,-1.19531 -2.675781,-2.667966 0,-1.472656 1.199218,-2.664063 2.675781,-2.664063 1.480469,0 2.679687,1.191407 2.679687,2.664063"
     style="fill:#ffffff;fill-opacity:1;fill-rule:nonzero;stroke:#a6a7a3;stroke-width:1.33015;stroke-linecap:butt;stroke-linejoin:miter;stroke-miterlimit:4;stroke-opacity:1" />
  <path
     id="path83737"
     d="m 155.08203,39.003906 c 0,1.472657 -1.19922,2.667969 -2.67578,2.667969 -1.48047,0 -2.67969,-1.195312 -2.67969,-2.667969 0,-1.472656 1.19922,-2.664062 2.67969,-2.664062 1.47656,0 2.67578,1.191406 2.67578,2.664062"
     style="fill:#ffffff;fill-opacity:1;fill-rule:nonzero;stroke:#a6a7a3;stroke-width:1.33015;stroke-linecap:butt;stroke-linejoin:miter;stroke-miterlimit:4;stroke-opacity:1" />
  <path
     id="path83739"
     d="m 125.84766,100.78906 c 0,1.47266 -1.19922,2.66407 -2.67578,2.66407 -1.48047,0 -2.67969,-1.19141 -2.67969,-2.66407 0,-1.472654 1.19922,-2.667966 2.67969,-2.667966 1.47656,0 2.67578,1.195312 2.67578,2.667966"
     style="fill:#ffffff;fill-opacity:1;fill-rule:nonzero;stroke:#a6a7a3;stroke-width:1.33015;stroke-linecap:butt;stroke-linejoin:miter;stroke-miterlimit:4;stroke-opacity:1" />
  <path
     id="path83741"
     d="m 2.625,99.15625 c 0.863281,0 1.445313,1.42578 1.445313,3.26172 0,1.82031 -0.527344,3.39453 -1.578125,3.39453 -0.84375,0 -1.460938,-1.5 -1.460938,-3.33984 0,-1.83594 0.617188,-3.31641 1.59375,-3.31641 z M 2.550781,98.722656 C 0.9375,98.722656 0,100.42969 0,102.47266 c 0,2.02734 0.957031,3.76953 2.550781,3.76953 1.613282,0 2.550782,-1.74219 2.550782,-3.76953 0,-2.04297 -0.921875,-3.750004 -2.550782,-3.750004 z m 0,0"
     style="fill:#a6a7a3;fill-opacity:1;fill-rule:nonzero;stroke:none" />
  <path
     id="path83743"
     d="m 134.34766,98.929688 c -2.3086,0 -3.95704,1.839842 -3.95704,4.031252 0,2.0625 1.59375,3.82422 3.89844,3.82422 1.07031,0 1.875,-0.16797 2.51563,-0.52344 0.16797,-0.14844 0.41015,-1.44531 0.41015,-1.6875 -0.11328,-0.0742 -0.26172,-0.11328 -0.375,-0.0937 -0.0937,0.375 -0.26172,0.95703 -0.71093,1.35156 -0.33985,0.29688 -0.82422,0.5625 -1.5586,0.5625 -2.02344,0 -3.01562,-1.875 -3.01562,-3.69531 0,-1.63281 1.10547,-3.394532 2.84765,-3.394532 1.94922,0 2.21485,1.351562 2.28907,1.707032 0.0195,0.0195 0.0547,0.0391 0.1289,0.0391 0.13281,0 0.26563,-0.0781 0.26563,-0.15234 0,-0.11328 -0.26563,-1.74219 -0.26563,-1.74219 -0.85937,-0.1875 -1.72265,-0.226562 -2.47265,-0.226562 z m 0,0"
     style="fill:#a6a7a3;fill-opacity:1;fill-rule:nonzero;stroke:none" />
  <g
     id="g855">
    <path
       style="fill:#a6a7a3;fill-opacity:1;fill-rule:nonzero;stroke:none"
       d="m 153.92187,31.300781 h -4.57421 c 0,0 3.33593,-5.625 3.41406,-5.625 0.33594,1.96875 0.82422,4.199219 1.16015,5.625 z m -0.73046,-7.160156 -0.0195,-0.01953 c -0.0547,0 -0.3164,0.335937 -0.375,0.46875 -0.1289,0.300781 -0.20703,0.523437 -0.39453,0.84375 -1.55468,2.566406 -4.01172,6.523437 -4.01172,6.523437 v 0.01953 c 0,0.03906 0.0195,0.09375 0.0586,0.09375 0,0 2.28515,-0.03906 5.11719,-0.03906 0.26171,0 0.61718,0.05859 0.67578,0.09375 0.1289,-0.03516 0.52343,-0.148437 0.65625,-0.449219 -0.69532,-3.074218 -1.08985,-4.519531 -1.70703,-7.535156 z m 0,0"
       id="path83745" />
    <path
       style="fill:#a6a7a3;fill-opacity:1;fill-rule:nonzero;stroke:none"
       d="m 161.76172,30.871094 c -0.0547,0.261719 -0.0937,0.542969 -0.0937,0.636719 0,0.355468 0.17187,0.636718 0.43359,0.636718 0.5625,0 1.44531,-0.917968 1.57422,-1.144531 0,-0.07422 -0.0937,-0.203125 -0.12891,-0.203125 -0.0391,0.03516 -0.58203,0.671875 -0.84375,0.671875 -0.11328,0 -0.11328,-0.1875 -0.11328,-0.296875 0,-0.05859 0.0195,-0.265625 0.0352,-0.375 l 0.39453,-1.875 c 0.0937,-0.375 0.1875,-0.902344 0.1875,-1.3125 0,-0.488281 -0.1875,-0.808594 -0.75,-0.808594 -0.63672,0 -1.80078,1.464844 -2.23047,2.230469 0.0742,-0.203125 0.16797,-0.785156 0.16797,-1.066406 0,-0.542969 -0.11328,-1.164063 -0.80469,-1.164063 -0.64062,0 -1.72656,1.632813 -2.15625,2.402344 0.0937,-0.433594 0.14844,-0.695312 0.22266,-1.125 0.0586,-0.265625 0.11328,-0.546875 0.11328,-0.65625 0,-0.359375 -0.20703,-0.621094 -0.46875,-0.621094 -0.58203,0 -1.40625,0.917969 -1.53906,1.144532 0,0.07422 0.0937,0.226562 0.11328,0.226562 0.0391,-0.03906 0.60156,-0.714844 0.86328,-0.714844 0.11328,0 0.11328,0.207032 0.11328,0.320313 0,0.05469 -0.0391,0.316406 -0.0391,0.375 l -0.80469,3.917969 c 0.14844,0.01953 0.26172,0.05469 0.42969,0.05469 0.16797,0 0.30078,-0.01563 0.43359,-0.05469 l 0.29688,-1.460938 c 0.24609,-1.164062 1.51953,-2.90625 2.08203,-2.90625 0.15234,0 0.22656,0.148438 0.22656,0.46875 0,0.109375 0,0.28125 -0.0391,0.46875 l -0.67578,3.429688 c 0.15234,0.01953 0.26562,0.03906 0.43359,0.03906 0.14844,0 0.26172,-0.01953 0.42969,-0.03906 l 0.30078,-1.59375 c 0.22656,-1.238282 1.63281,-2.773438 2.10156,-2.773438 0.22266,0 0.24219,0.203125 0.24219,0.523438 0,0.132812 -0.0547,0.542968 -0.0742,0.65625 z m 0,0"
       id="path83747" />
    <path
       style="fill:#a6a7a3;fill-opacity:1;fill-rule:nonzero;stroke:none"
       d="M 165.39062,31.011719 164.94141,33 c -0.0195,0.1875 -0.0586,0.375 -0.0586,0.449219 0,0.265625 0.11328,0.46875 0.30078,0.46875 0.41407,0 1.07032,-0.671875 1.16407,-0.824219 0,-0.05469 -0.0781,-0.167969 -0.0937,-0.167969 -0.0391,0.03906 -0.4336,0.507813 -0.6211,0.507813 -0.0937,0 -0.0937,-0.152344 -0.0937,-0.226563 0,-0.03906 0.0195,-0.1875 0.0391,-0.28125 l 0.44922,-1.96875 c 0.0391,-0.207031 0.0547,-0.414062 0.0547,-0.46875 0,-0.261718 -0.14844,-0.46875 -0.33594,-0.46875 -0.41406,0 -1.01172,0.675782 -1.10547,0.84375 0,0.03906 0.0547,0.148438 0.0742,0.148438 0.0391,-0.01563 0.42969,-0.503906 0.61719,-0.503906 0.0937,0 0.0937,0.148437 0.0937,0.222656 0,0.03906 -0.0156,0.226562 -0.0352,0.28125 z m 0.50391,-2.847656 c -0.26172,0 -0.46875,0.242187 -0.46875,0.503906 0,0.1875 0.11328,0.375 0.32031,0.375 0.26172,0 0.46875,-0.261719 0.46875,-0.523438 0,-0.1875 -0.13281,-0.355468 -0.32031,-0.355468 z m 0,0"
       id="path83749" />
  </g>
  <g
     id="g864">
    <path
       style="fill:#994730;fill-opacity:1;fill-rule:nonzero;stroke:none"
       d="m 148.66406,63.601563 c -0.46875,0 -1.10547,0 -1.59375,-0.03516 -0.0547,0.07422 -0.1289,0.355469 -0.0937,0.449219 0.13281,0.01953 0.65625,0.03906 0.67578,0.1875 0.0547,0.242188 -0.0391,0.617188 -0.13281,1.144531 l -0.85937,4.425782 c -0.0937,0.503906 -0.17188,0.898437 -0.30079,1.125 -0.0937,0.167968 -0.62109,0.203125 -0.76953,0.222656 -0.0547,0.07422 -0.13281,0.375 -0.0937,0.433594 0.44922,-0.03906 1.14453,-0.07813 1.61328,-0.07813 0.46875,0 1.16016,0.03906 1.59375,0.07813 0.0547,-0.05859 0.11329,-0.359375 0.0742,-0.433594 -0.14843,-0.01953 -0.65625,-0.05469 -0.67578,-0.222656 -0.0547,-0.226563 0.0391,-0.621094 0.13281,-1.125 l 0.35547,-1.859375 h 0.16797 c 0.0742,0 0.16797,0.171875 0.16797,0.171875 l 1.125,2.230468 c 0.20703,0.410157 0.64063,1.292969 2.47656,1.292969 0.44922,0 0.39453,-0.01953 0.71094,-0.05469 0.0195,-0.01953 0.0586,-0.28125 0.0195,-0.375 -0.16797,0 -1.03125,-0.1875 -1.6875,-1.238282 -0.54297,-0.824218 -0.61719,-1.050781 -1.19922,-2.230468 0.46875,-0.113282 1.78125,-0.65625 1.98828,-1.707032 0.28125,-1.5 -0.58203,-2.4375 -1.96875,-2.4375 -0.67578,0 -1.25781,0.03516 -1.72656,0.03516 z m 0.0195,3.84375 0.48828,-2.511719 c 0.0742,-0.335938 0.11329,-0.597656 0.1875,-0.75 0.0937,-0.128906 0.33594,-0.128906 0.59766,-0.128906 0.90234,0 0.95703,1.199218 0.73438,2.0625 -0.28125,0.917968 -0.86329,1.328125 -1.5,1.328125 z m 0,0"
       id="path83751" />
    <path
       style="fill:#994730;fill-opacity:1;fill-rule:nonzero;stroke:none"
       d="m 154.73437,70.421875 -0.45312,1.988281 c -0.0156,0.1875 -0.0547,0.375 -0.0547,0.449219 0,0.261719 0.11328,0.46875 0.30078,0.46875 0.41016,0 1.06641,-0.675781 1.16016,-0.824219 0,-0.05859 -0.0742,-0.171875 -0.0937,-0.171875 -0.0352,0.03906 -0.42969,0.507813 -0.61719,0.507813 -0.0937,0 -0.0937,-0.148438 -0.0937,-0.226563 0,-0.03516 0.0195,-0.1875 0.0391,-0.28125 l 0.44922,-1.96875 c 0.0352,-0.203125 0.0547,-0.410156 0.0547,-0.46875 0,-0.261718 -0.14844,-0.46875 -0.33594,-0.46875 -0.41406,0 -1.01172,0.675782 -1.10547,0.84375 0,0.03906 0.0547,0.152344 0.0742,0.152344 0.0352,-0.01953 0.42969,-0.507812 0.61719,-0.507812 0.0937,0 0.0937,0.152343 0.0937,0.226562 0,0.03516 -0.0195,0.222656 -0.0352,0.28125 z m 0.50391,-2.851562 c -0.26172,0 -0.46875,0.246093 -0.46875,0.507812 0,0.1875 0.11328,0.375 0.32031,0.375 0.26172,0 0.46875,-0.261719 0.46875,-0.527344 0,-0.1875 -0.13281,-0.355468 -0.32031,-0.355468 z m 0,0"
       id="path83753" />
  </g>
  <path
     id="path83755"
     d="m 94.574219,92.761719 c 0.28125,0 0.339844,0.414062 0.339844,0.710937 0,1.164063 -0.75,3.171875 -1.519532,3.171875 -0.429687,0 -0.429687,-0.863281 -0.300781,-1.539062 0.207031,-1.070313 0.9375,-2.34375 1.480469,-2.34375 z M 93.488281,93.0625 94.125,89.855469 c 0.07422,-0.28125 0.167969,-0.789063 0.167969,-0.882813 0,-0.07422 0,-0.203125 -0.07422,-0.242187 -0.261719,0.113281 -1.519531,0.355469 -2.175781,0.414062 -0.03516,0.05469 -0.07422,0.316407 -0.03516,0.355469 0.1875,0 0.730468,0 0.730468,0.222656 0,0.132813 -0.05469,0.433594 -0.09375,0.65625 l -0.957031,4.78125 c -0.03516,0.171875 -0.07422,0.507813 -0.07422,0.675782 0,0.824218 0.65625,1.351562 1.40625,1.351562 1.367188,0 3.449219,-1.875 3.449219,-4.125 0,-0.882812 -0.429687,-1.351562 -1.105469,-1.351562 -0.582031,0 -1.539062,0.84375 -1.875,1.351562 z m 0,0"
     style="fill:#c28f47;fill-opacity:1;fill-rule:nonzero;stroke:none" />
  <g
     id="g860">
    <path
       style="fill:#3a667a;fill-opacity:1;fill-rule:nonzero;stroke:none"
       d="m 111.77734,38.964844 c -0.46875,0 -1.10937,0 -1.59375,-0.03906 -0.0586,0.07813 -0.13281,0.359375 -0.0937,0.453125 0.12891,0.01563 0.65625,0.03516 0.67188,0.1875 0.0586,0.242188 -0.0352,0.617188 -0.12891,1.140625 l -0.86328,4.425782 c -0.0937,0.507812 -0.16797,0.902343 -0.30078,1.125 -0.0937,0.167968 -0.61719,0.207031 -0.76953,0.226562 -0.0547,0.07422 -0.12891,0.375 -0.0937,0.429688 0.45312,-0.03516 1.14453,-0.07422 1.61328,-0.07422 0.46875,0 1.16406,0.03906 1.59375,0.07422 0.0586,-0.05469 0.11328,-0.355469 0.0742,-0.429688 -0.14844,-0.01953 -0.65625,-0.05859 -0.67188,-0.226562 -0.0586,-0.222657 0.0352,-0.617188 0.12891,-1.125 l 0.35547,-1.855469 h 0.17187 c 0.0742,0 0.16797,0.167969 0.16797,0.167969 l 1.125,2.230468 c 0.20703,0.414063 0.63672,1.296875 2.47266,1.296875 0.45312,0 0.39453,-0.01953 0.71484,-0.05859 0.0195,-0.01953 0.0547,-0.28125 0.0195,-0.375 -0.17187,0 -1.03125,-0.1875 -1.6875,-1.238282 -0.54687,-0.824218 -0.62109,-1.046875 -1.20312,-2.230468 0.46875,-0.113282 1.78125,-0.65625 1.98828,-1.707032 0.28125,-1.5 -0.58203,-2.4375 -1.96875,-2.4375 -0.67578,0 -1.25391,0.03906 -1.72266,0.03906 z m 0.0156,3.84375 0.48828,-2.511719 c 0.0742,-0.339844 0.11328,-0.601562 0.1875,-0.75 0.0937,-0.132812 0.33984,-0.132812 0.60156,-0.132812 0.89844,0 0.95703,1.199218 0.73047,2.0625 -0.28125,0.917968 -0.86328,1.332031 -1.5,1.332031 z m 0,0"
       id="path83757" />
    <path
       style="fill:#3a667a;fill-opacity:1;fill-rule:nonzero;stroke:none"
       d="m 119.62891,38.621094 c 0,-0.296875 -0.31641,-0.523438 -0.59766,-0.523438 -0.32031,0 -0.46875,0.320313 -0.5625,0.582032 l -0.90234,2.644531 c -0.0156,0.07422 -0.0937,0.222656 -0.0937,0.296875 0,0.07813 0.0586,0.1875 0.15234,0.1875 0.12891,0 0.28125,-0.1875 0.33594,-0.28125 l 1.42578,-2.25 c 0.13281,-0.1875 0.24219,-0.429688 0.24219,-0.65625 z m 0,0"
       id="path83759" />
    <path
       style="fill:#3a667a;fill-opacity:1;fill-rule:nonzero;stroke:none"
       d="m 117.84375,47.71875 -0.44922,1.988281 c -0.0195,0.1875 -0.0586,0.375 -0.0586,0.449219 0,0.261719 0.11328,0.46875 0.30078,0.46875 0.41406,0 1.07031,-0.675781 1.16406,-0.824219 0,-0.05859 -0.0742,-0.171875 -0.0937,-0.171875 -0.0391,0.03906 -0.43359,0.507813 -0.62109,0.507813 -0.0937,0 -0.0937,-0.148438 -0.0937,-0.226563 0,-0.03516 0.0195,-0.1875 0.0391,-0.28125 l 0.44922,-1.96875 c 0.0391,-0.203125 0.0586,-0.410156 0.0586,-0.46875 0,-0.261718 -0.15234,-0.46875 -0.33984,-0.46875 -0.41016,0 -1.01172,0.675782 -1.10547,0.84375 0,0.03906 0.0547,0.152344 0.0742,0.152344 0.0391,-0.01953 0.43359,-0.507812 0.62109,-0.507812 0.0937,0 0.0937,0.152343 0.0937,0.226562 0,0.03516 -0.0195,0.222656 -0.0391,0.28125 z m 0.50781,-2.851562 c -0.26562,0 -0.46875,0.246093 -0.46875,0.507812 0,0.1875 0.10938,0.375 0.31641,0.375 0.26172,0 0.46875,-0.261719 0.46875,-0.527344 0,-0.1875 -0.12891,-0.355468 -0.31641,-0.355468 z m 0,0"
       id="path83761" />
  </g>
</svg>
