<?xml version="1.0" encoding="UTF-8" standalone="no"?>
<svg
   xmlns:ns2="http://www.iki.fi/pav/software/textext/"
   xmlns:dc="http://purl.org/dc/elements/1.1/"
   xmlns:cc="http://creativecommons.org/ns#"
   xmlns:rdf="http://www.w3.org/1999/02/22-rdf-syntax-ns#"
   xmlns:svg="http://www.w3.org/2000/svg"
   xmlns="http://www.w3.org/2000/svg"
   xmlns:sodipodi="http://sodipodi.sourceforge.net/DTD/sodipodi-0.dtd"
   xmlns:inkscape="http://www.inkscape.org/namespaces/inkscape"
   width="82.93103mm"
   height="31.806849mm"
   viewBox="0 0 82.93103 31.806848"
   version="1.1"
   id="svg11493"
   inkscape:version="1.0.1 (3bc2e813f5, 2020-09-07)"
   sodipodi:docname="fig_12_3.svg">
  <defs
     id="defs11487">
    <inkscape:path-effect
       is_visible="true"
       id="path-effect15072"
       effect="spiro"
       lpeversion="0" />
    <marker
       style="overflow:visible"
       id="marker14956"
       refX="0"
       refY="0"
       orient="auto"
       inkscape:stockid="Arrow1Send"
       inkscape:isstock="true">
      <path
         transform="matrix(-0.2,0,0,-0.2,-1.2,0)"
         style="fill:#000000;fill-opacity:1;fill-rule:evenodd;stroke:#000000;stroke-width:1pt;stroke-opacity:1"
         d="M 0,0 5,-5 -12.5,0 5,5 Z"
         id="path14954" />
    </marker>
    <marker
       style="overflow:visible"
       id="marker14856"
       refX="0"
       refY="0"
       orient="auto"
       inkscape:stockid="Arrow1Send"
       inkscape:isstock="true"
       inkscape:collect="always">
      <path
         transform="matrix(-0.2,0,0,-0.2,-1.2,0)"
         style="fill:#000000;fill-opacity:1;fill-rule:evenodd;stroke:#000000;stroke-width:1pt;stroke-opacity:1"
         d="M 0,0 5,-5 -12.5,0 5,5 Z"
         id="path14854" />
    </marker>
    <marker
       style="overflow:visible"
       id="marker14047"
       refX="0"
       refY="0"
       orient="auto"
       inkscape:stockid="Arrow1Send"
       inkscape:isstock="true">
      <path
         transform="matrix(-0.2,0,0,-0.2,-1.2,0)"
         style="fill:#000000;fill-opacity:1;fill-rule:evenodd;stroke:#000000;stroke-width:1pt;stroke-opacity:1"
         d="M 0,0 5,-5 -12.5,0 5,5 Z"
         id="path14045" />
    </marker>
    <marker
       style="overflow:visible"
       id="Arrow1Send"
       refX="0"
       refY="0"
       orient="auto"
       inkscape:stockid="Arrow1Send"
       inkscape:isstock="true"
       inkscape:collect="always">
      <path
         transform="matrix(-0.2,0,0,-0.2,-1.2,0)"
         style="fill:#000000;fill-opacity:1;fill-rule:evenodd;stroke:#000000;stroke-width:1pt;stroke-opacity:1"
         d="M 0,0 5,-5 -12.5,0 5,5 Z"
         id="path12104" />
    </marker>
    <marker
       style="overflow:visible"
       id="marker13957"
       refX="0"
       refY="0"
       orient="auto"
       inkscape:stockid="Arrow1Mend"
       inkscape:isstock="true">
      <path
         transform="matrix(-0.4,0,0,-0.4,-4,0)"
         style="fill:#000000;fill-opacity:1;fill-rule:evenodd;stroke:#000000;stroke-width:1pt;stroke-opacity:1"
         d="M 0,0 5,-5 -12.5,0 5,5 Z"
         id="path13955" />
    </marker>
    <marker
       style="overflow:visible"
       id="marker13263"
       refX="0"
       refY="0"
       orient="auto"
       inkscape:stockid="Arrow1Mstart"
       inkscape:isstock="true">
      <path
         transform="matrix(0.4,0,0,0.4,4,0)"
         style="fill:#000000;fill-opacity:1;fill-rule:evenodd;stroke:#000000;stroke-width:1pt;stroke-opacity:1"
         d="M 0,0 5,-5 -12.5,0 5,5 Z"
         id="path13261" />
    </marker>
    <pattern
       id="EMFhbasepattern"
       patternUnits="userSpaceOnUse"
       width="6"
       height="6"
       x="0"
       y="0" />
    <g
       id="g3458"
       style="fill:#000000;stroke-width:0">
      <symbol
         id="symbol3452"
         overflow="visible"
         style="fill:#000000;stroke-width:0">
        <path
           id="path3450"
           d=""
           style="fill:#000000;stroke:none;stroke-width:0" />
      </symbol>
      <symbol
         id="symbol3456"
         overflow="visible"
         style="fill:#000000;stroke-width:0">
        <path
           id="path3454"
           d="M 1.359375,-5.640625 0.453125,-1 C 0.40625,-0.78125 0.375,-0.546875 0.375,-0.46875 c 0,0.296875 0.125,0.53125 0.34375,0.53125 0.484375,0 1.203125,-0.765625 1.3125,-0.953125 0,-0.0625 -0.0625,-0.171875 -0.09375,-0.171875 C 1.90625,-1.03125 1.453125,-0.5 1.21875,-0.5 1.125,-0.5 1.125,-0.65625 1.125,-0.75 c 0,-0.046875 0.03125,-0.28125 0.046875,-0.3125 l 0.96875,-4.90625 c 0.046875,-0.234375 0.125,-0.671875 0.125,-0.75 0,-0.0625 -0.015625,-0.15625 -0.0625,-0.1875 C 1.984375,-6.828125 1.421875,-6.625 0.875,-6.578125 0.828125,-6.546875 0.796875,-6.40625 0.828125,-6.375 c 0.15625,0 0.625,0.015625 0.625,0.203125 0,0.109375 -0.0625,0.34375 -0.09375,0.53125 z m 0,0"
           style="fill:#000000;stroke:none;stroke-width:0" />
      </symbol>
    </g>
    <g
       id="g13585">
      <symbol
         overflow="visible"
         id="symbol13579">
        <path
           style="stroke:none"
           d="M 0.5,0 H 4.484375 V -4.8125 H 0.5 Z M 1,-0.5 V -4.3125 H 3.984375 V -0.5 Z m 0,0"
           id="path13577" />
      </symbol>
      <symbol
         overflow="visible"
         id="symbol13583">
        <path
           style="stroke:none"
           d="m 1.578125,-6.40625 c -0.375,0 -0.734375,-0.015625 -1.140625,-0.03125 -0.046875,0.046875 -0.03125,0.25 0,0.3125 0.125,0 0.640625,0.03125 0.671875,0.140625 0.046875,0.15625 0.046875,0.4375 0.046875,0.734375 v 4.09375 c 0,0.28125 0,0.5625 -0.046875,0.71875 -0.03125,0.109375 -0.546875,0.15625 -0.671875,0.15625 -0.03125,0.046875 -0.046875,0.265625 0,0.3125 0.40625,-0.015625 0.765625,-0.046875 1.140625,-0.046875 0.390625,0 0.75,0.03125 1.140625,0.046875 0.046875,-0.046875 0.046875,-0.265625 0,-0.3125 -0.109375,0 -0.640625,-0.046875 -0.671875,-0.15625 C 2,-0.59375 2,-0.875 2,-1.15625 v -1.9375 c 0,0 0,0 0.015625,-0.015625 C 2.046875,-3.125 2.1875,-3.15625 3.546875,-3.15625 c 0.5,0 1.03125,0.03125 1.5,0.03125 0,0 0.015625,0.015625 0.015625,0.03125 v 1.9375 c 0,0.28125 0,0.5625 -0.046875,0.71875 -0.03125,0.109375 -0.546875,0.15625 -0.671875,0.15625 -0.03125,0.046875 -0.046875,0.265625 0,0.3125 C 4.75,0.015625 5.109375,-0.015625 5.5,-0.015625 c 0.375,0 0.734375,0.03125 1.125,0.046875 0.046875,-0.046875 0.046875,-0.265625 0,-0.3125 -0.109375,0 -0.640625,-0.046875 -0.65625,-0.15625 -0.0625,-0.15625 -0.0625,-0.4375 -0.0625,-0.71875 V -5.25 c 0,-0.296875 0,-0.578125 0.0625,-0.734375 C 5.984375,-6.09375 6.515625,-6.125 6.625,-6.125 c 0.046875,-0.0625 0.046875,-0.265625 0,-0.3125 -0.390625,0.015625 -0.75,0.03125 -1.125,0.03125 -0.390625,0 -0.75,-0.015625 -1.15625,-0.03125 -0.046875,0.046875 -0.03125,0.25 0,0.3125 0.125,0 0.640625,0.03125 0.671875,0.140625 C 5.0625,-5.828125 5.0625,-5.546875 5.0625,-5.25 v 1.6875 c 0,0.03125 -0.015625,0.03125 -0.015625,0.03125 C 4.609375,-3.515625 4,-3.5 3.546875,-3.5 3,-3.5 2.5,-3.515625 2.03125,-3.53125 c 0,0 -0.03125,0 -0.03125,-0.015625 V -5.25 C 2,-5.546875 2,-5.828125 2.046875,-5.984375 2.078125,-6.09375 2.609375,-6.125 2.71875,-6.125 c 0.046875,-0.0625 0.046875,-0.265625 0,-0.3125 -0.390625,0.015625 -0.75,0.03125 -1.140625,0.03125 z m 0,0"
           id="path13581" />
      </symbol>
    </g>
    <pattern
       id="EMFhbasepattern-5"
       patternUnits="userSpaceOnUse"
       width="6"
       height="6"
       x="0"
       y="0" />
    <g
       id="g16160"
       style="fill:#506a68;fill-opacity:1;stroke-width:0">
      <symbol
         overflow="visible"
         id="symbol16154"
         style="fill:#506a68;fill-opacity:1;stroke-width:0">
        <path
           style="fill:#506a68;fill-opacity:1;stroke:none;stroke-width:0"
           d=""
           id="path16152" />
      </symbol>
      <symbol
         overflow="visible"
         id="symbol16158"
         style="fill:#506a68;fill-opacity:1;stroke-width:0">
        <path
           style="fill:#506a68;fill-opacity:1;stroke:none;stroke-width:0"
           d="m 1.578125,-0.484375 c 0,-0.15625 0.0625,-0.5 0.09375,-0.609375 l 0.375,-2 C 2.078125,-3.1875 2.5,-3.1875 2.75,-3.1875 c 0.34375,0 0.890625,0 0.984375,0.078125 0.0625,0.0625 0.109375,0.125 0.140625,0.703125 0,0.046875 0.046875,0.078125 0.125,0.078125 0.0625,0 0.140625,-0.015625 0.15625,-0.03125 l 0.375,-1.90625 C 4.5,-4.296875 4.453125,-4.3125 4.375,-4.3125 c -0.0625,0 -0.140625,0.015625 -0.15625,0.0625 -0.296875,0.671875 -0.265625,0.734375 -1.171875,0.734375 h -0.5 c -0.1875,0 -0.390625,-0.015625 -0.390625,-0.0625 l 0.375,-1.9375 c 0.046875,-0.28125 0.125,-0.5625 0.203125,-0.71875 0.046875,-0.09375 0.5625,-0.125 0.671875,-0.125 h 0.796875 c 0.5,0 0.84375,0.203125 0.890625,1.015625 0,0.046875 0.046875,0.0625 0.109375,0.0625 0.078125,0 0.15625,-0.015625 0.1875,-0.046875 C 5.390625,-5.625 5.375,-5.90625 5.375,-6.21875 c 0,-0.15625 0,-0.3125 0.015625,-0.484375 -1.03125,0 -2.15625,0.078125 -3.03125,0.078125 C 2,-6.625 1.625,-6.65625 1.25,-6.671875 c -0.046875,0.03125 -0.078125,0.140625 -0.078125,0.21875 0,0.03125 0,0.046875 0.015625,0.0625 0.109375,0 0.609375,0.0625 0.609375,0.171875 v 0.078125 c 0,0.15625 -0.03125,0.40625 -0.078125,0.65625 L 0.875,-1.171875 C 0.8125,-0.875 0.765625,-0.59375 0.6875,-0.421875 0.640625,-0.3125 0.109375,-0.265625 0,-0.265625 c -0.046875,0.046875 -0.0625,0.140625 -0.0625,0.21875 0,0.03125 0,0.0625 0.015625,0.078125 C 0.3125,0.03125 0.625,0 1.0625,0 2.3125,0 3.234375,0.046875 4.25,0.046875 4.40625,-0.40625 4.8125,-1.09375 5.09375,-1.640625 5.078125,-1.671875 4.96875,-1.6875 4.875,-1.6875 c -0.0625,0 -0.125,0.015625 -0.15625,0.046875 -0.25,0.546875 -0.515625,0.84375 -0.78125,1.015625 -0.3125,0.21875 -0.734375,0.328125 -1.25,0.328125 H 2.25 c -0.390625,0 -0.671875,0.03125 -0.671875,-0.1875 z m 0,0"
           id="path16156" />
      </symbol>
    </g>
    <g
       id="g19731">
      <symbol
         overflow="visible"
         id="symbol19725">
        <path
           style="stroke:none"
           d=""
           id="path19723" />
      </symbol>
      <symbol
         overflow="visible"
         id="symbol19729">
        <path
           style="stroke:none"
           d="M 1.171875,-3.09375 0.75,-1 c -0.28125,1.5 -0.578125,2.15625 -1.640625,2.96875 0,0.078125 0.046875,0.21875 0.109375,0.21875 C -0.515625,2.109375 0.671875,1.3125 1.09375,0.75 1.5,0.203125 1.796875,-0.359375 1.96875,-1.203125 2.109375,-1.953125 2.34375,-3.1875 2.34375,-3.1875 2.359375,-3.296875 2.4375,-3.65625 2.4375,-3.78125 2.4375,-4.25 2.15625,-4.5 1.765625,-4.5 c -0.546875,0 -1.375,0.875 -1.546875,1.203125 0,0.0625 0.0625,0.265625 0.125,0.265625 0.03125,-0.0625 0.5,-0.59375 0.71875,-0.59375 0.109375,0 0.15625,0.109375 0.15625,0.203125 0,0.046875 -0.046875,0.28125 -0.046875,0.328125 z m 1.1875,-3.8125 c -0.421875,0 -0.78125,0.40625 -0.78125,0.84375 0,0.34375 0.25,0.640625 0.578125,0.640625 0.421875,0 0.796875,-0.421875 0.796875,-0.859375 0,-0.34375 -0.25,-0.625 -0.59375,-0.625 z m 0,0"
           id="path19727" />
      </symbol>
    </g>
    <pattern
       id="EMFhbasepattern-4"
       patternUnits="userSpaceOnUse"
       width="6"
       height="6"
       x="0"
       y="0" />
    <g
       id="g7014">
      <symbol
         id="symbol7008"
         overflow="visible">
        <path
           id="path7006"
           d="M 0.5,0 H 4.484375 V -4.8125 H 0.5 Z M 1,-0.5 V -4.3125 H 3.984375 V -0.5 Z m 0,0"
           style="stroke:none" />
      </symbol>
      <symbol
         id="symbol7012"
         overflow="visible">
        <path
           id="path7010"
           d="m 2.171875,-1.125 c 0,0.28125 -0.015625,0.5625 -0.0625,0.71875 C 2.078125,-0.296875 1.609375,-0.25 1.5,-0.25 c -0.046875,0.046875 -0.046875,0.234375 0,0.28125 0.390625,-0.015625 0.65625,-0.046875 1.03125,-0.046875 0.375,0 0.6875,0.03125 1.09375,0.046875 0.046875,-0.046875 0.03125,-0.234375 0,-0.28125 C 3.5,-0.25 3.015625,-0.296875 2.984375,-0.40625 2.9375,-0.5625 2.9375,-0.84375 2.9375,-1.125 v -4.03125 c 0,-0.59375 0.078125,-0.9375 0.078125,-0.9375 0,-0.046875 -0.03125,-0.15625 -0.09375,-0.15625 H 2.90625 C 2.875,-6.25 2,-5.828125 1.203125,-5.46875 c -0.03125,0.015625 0,0.046875 0,0.0625 0,0.078125 0.03125,0.125 0.078125,0.171875 0.171875,-0.0625 0.546875,-0.203125 0.6875,-0.203125 0.140625,0 0.203125,0.09375 0.203125,0.375 z m 0,0"
           style="stroke:none" />
      </symbol>
    </g>
    <g
       id="g7030">
      <symbol
         id="symbol7024"
         overflow="visible">
        <path
           id="path7022"
           d="M 0.5,0 H 4.484375 V -4.8125 H 0.5 Z M 1,-0.5 V -4.3125 H 3.984375 V -0.5 Z m 0,0"
           style="stroke:none" />
      </symbol>
      <symbol
         id="symbol7028"
         overflow="visible">
        <path
           id="path7026"
           d="M 4.421875,-1.453125 C 4.375,-1.484375 4.25,-1.515625 4.21875,-1.515625 c -0.0625,0 -0.09375,0.015625 -0.109375,0.0625 -0.21875,0.5 -0.4375,0.75 -0.8125,0.75 h -1.9375 c 0.4375,-0.5 1.4375,-1.59375 2.125,-2.453125 C 3.8125,-3.5625 4.03125,-4.0625 4.03125,-4.625 c 0,-0.828125 -0.734375,-1.625 -1.671875,-1.625 -1.03125,0 -1.734375,1.078125 -1.796875,1.3125 0,0.046875 0.109375,0.15625 0.1875,0.15625 0.125,-0.1875 0.609375,-0.828125 1.390625,-0.828125 0.609375,0 1.0625,0.5 1.0625,1.171875 0,0.484375 -0.0625,0.875 -0.46875,1.453125 -0.5625,0.828125 -1.5,1.9375 -2.3125,2.84375 0,0.046875 0.0625,0.125 0.09375,0.140625 h 3.375 c 0.0625,-0.171875 0.328125,-0.984375 0.53125,-1.453125 z m 0,0"
           style="stroke:none" />
      </symbol>
    </g>
    <g
       id="g10393"
       style="fill:#000000;fill-opacity:1;stroke-width:0">
      <symbol
         overflow="visible"
         id="symbol10387"
         style="fill:#000000;fill-opacity:1;stroke-width:0">
        <path
           style="fill:#000000;fill-opacity:1;stroke:none;stroke-width:0"
           d=""
           id="path10385" />
      </symbol>
      <symbol
         overflow="visible"
         id="symbol10391"
         style="fill:#000000;fill-opacity:1;stroke-width:0">
        <path
           style="fill:#000000;fill-opacity:1;stroke:none;stroke-width:0"
           d="m 5.578125,0.03125 c 0.015625,-0.015625 0.109375,-0.234375 0.0625,-0.296875 -0.5,-0.03125 -0.703125,-0.1875 -0.9375,-0.609375 -0.25,-0.4375 -0.75,-1.4375 -1.078125,-2.34375 0.78125,-0.28125 1.65625,-1.03125 1.65625,-2 0,-0.9375 -0.71875,-1.4375 -1.578125,-1.4375 -0.546875,0 -0.96875,0.03125 -1.328125,0.03125 -0.34375,0 -0.75,-0.03125 -1.125,-0.046875 -0.0625,0.046875 -0.09375,0.234375 -0.0625,0.28125 0.109375,0 0.609375,0.0625 0.609375,0.171875 v 0.078125 c 0,0.15625 -0.03125,0.40625 -0.078125,0.65625 L 0.875,-1.171875 C 0.8125,-0.875 0.765625,-0.59375 0.6875,-0.421875 0.640625,-0.3125 0.109375,-0.265625 0,-0.265625 c -0.046875,0.0625 -0.09375,0.25 -0.046875,0.296875 0.390625,-0.015625 0.75,-0.046875 1.109375,-0.046875 0.359375,0 0.71875,0.03125 1.09375,0.046875 0.0625,-0.046875 0.09375,-0.234375 0.0625,-0.296875 -0.109375,0 -0.609375,-0.046875 -0.625,-0.15625 V -0.5 c 0,-0.15625 0.046875,-0.40625 0.09375,-0.671875 L 2.046875,-3.0625 h 0.5 c 0.140625,0 0.234375,0.046875 0.265625,0.125 0.3125,0.890625 0.765625,1.859375 1.0625,2.453125 0.234375,0.46875 0.875,0.515625 1.703125,0.515625 z M 2.125,-3.359375 2.53125,-5.5 c 0.0625,-0.296875 0.125,-0.625 0.1875,-0.75 0.046875,-0.09375 0.390625,-0.109375 0.5,-0.109375 1.03125,0 1.171875,0.78125 1.171875,1.203125 0,1.21875 -0.96875,1.796875 -1.765625,1.796875 z m 0,0"
           id="path10389" />
      </symbol>
    </g>
    <g
       id="g14324">
      <symbol
         id="symbol14318"
         overflow="visible">
        <path
           id="path14316"
           d="M 0.5,0 H 4.484375 V -4.8125 H 0.5 Z M 1,-0.5 V -4.3125 H 3.984375 V -0.5 Z m 0,0"
           style="stroke:none" />
      </symbol>
      <symbol
         id="symbol14322"
         overflow="visible">
        <path
           id="path14320"
           d="M 4.421875,-1.453125 C 4.375,-1.484375 4.25,-1.515625 4.21875,-1.515625 c -0.0625,0 -0.09375,0.015625 -0.109375,0.0625 -0.21875,0.5 -0.4375,0.75 -0.8125,0.75 h -1.9375 c 0.4375,-0.5 1.4375,-1.59375 2.125,-2.453125 C 3.8125,-3.5625 4.03125,-4.0625 4.03125,-4.625 c 0,-0.828125 -0.734375,-1.625 -1.671875,-1.625 -1.03125,0 -1.734375,1.078125 -1.796875,1.3125 0,0.046875 0.109375,0.15625 0.1875,0.15625 0.125,-0.1875 0.609375,-0.828125 1.390625,-0.828125 0.609375,0 1.0625,0.5 1.0625,1.171875 0,0.484375 -0.0625,0.875 -0.46875,1.453125 -0.5625,0.828125 -1.5,1.9375 -2.3125,2.84375 0,0.046875 0.0625,0.125 0.09375,0.140625 h 3.375 c 0.0625,-0.171875 0.328125,-0.984375 0.53125,-1.453125 z m 0,0"
           style="stroke:none" />
      </symbol>
    </g>
    <inkscape:path-effect
       is_visible="true"
       id="path-effect2988"
       effect="spiro"
       lpeversion="0" />
    <g
       style="fill:#000000;stroke-width:0"
       id="g3509">
      <symbol
         style="fill:#000000;stroke-width:0"
         overflow="visible"
         id="symbol3495">
        <path
           style="fill:#000000;stroke:none;stroke-width:0"
           d="M 0.5,0 H 4.484375 V -4.8125 H 0.5 Z M 1,-0.5 V -4.3125 H 3.984375 V -0.5 Z m 0,0"
           id="path3493" />
      </symbol>
      <symbol
         style="fill:#000000;stroke-width:0"
         overflow="visible"
         id="symbol3499">
        <path
           style="fill:#000000;stroke:none;stroke-width:0"
           d="M 1.0625,-2.765625 C 1.0625,-4.3125 1.578125,-6 2.5,-6.8125 c 0,0 -0.125,-0.140625 -0.203125,-0.1875 -1.125,0.90625 -1.9375,2.328125 -1.9375,4.234375 0,1.875 0.8125,3.328125 1.9375,4.21875 C 2.375,1.421875 2.5,1.265625 2.5,1.265625 1.578125,0.453125 1.0625,-1.25 1.0625,-2.765625 Z m 0,0"
           id="path3497" />
      </symbol>
      <symbol
         style="fill:#000000;stroke-width:0"
         overflow="visible"
         id="symbol3503">
        <path
           style="fill:#000000;stroke:none;stroke-width:0"
           d="m 1.84375,-0.453125 c -0.375,0 -0.671875,-0.328125 -0.671875,-0.6875 0,-0.390625 0.25,-0.640625 0.609375,-0.78125 C 1.96875,-2 2.453125,-2.140625 2.71875,-2.21875 v 1.359375 c 0,0.109375 -0.53125,0.40625 -0.875,0.40625 z M 2.375,-4.34375 c -0.71875,0 -1.484375,0.53125 -1.78125,0.8125 -0.046875,0.046875 -0.078125,0.203125 -0.078125,0.234375 0,0.21875 0.125,0.421875 0.328125,0.421875 0.25,0 0.40625,-0.140625 0.46875,-0.46875 0.0625,-0.390625 0.1875,-0.640625 0.546875,-0.640625 0.484375,0 0.859375,0.515625 0.859375,0.96875 V -2.75 c 0,0.171875 -0.03125,0.21875 -0.125,0.25 -0.28125,0.140625 -1.171875,0.421875 -1.71875,0.625 -0.234375,0.078125 -0.5,0.40625 -0.5,0.8125 0,0.640625 0.5,1.140625 1.140625,1.140625 0.34375,0 1.109375,-0.53125 1.21875,-0.65625 C 2.796875,-0.28125 3.0625,0.0625 3.34375,0.0625 c 0.203125,0 0.609375,-0.265625 0.734375,-0.375 C 4.109375,-0.359375 4.125,-0.4375 4.125,-0.5 c 0,-0.03125 -0.015625,-0.078125 -0.03125,-0.078125 -0.03125,0.015625 -0.15625,0.125 -0.328125,0.125 -0.234375,0 -0.3125,-0.203125 -0.3125,-0.46875 V -2.96875 c 0,-0.765625 -0.515625,-1.375 -1.078125,-1.375 z m 0,0"
           id="path3501" />
      </symbol>
      <symbol
         style="fill:#000000;stroke-width:0"
         overflow="visible"
         id="symbol3507">
        <path
           style="fill:#000000;stroke:none;stroke-width:0"
           d="M 2.1875,-2.765625 C 2.1875,-4.671875 1.375,-6.09375 0.234375,-7 c -0.0625,0.046875 -0.1875,0.1875 -0.171875,0.1875 0.921875,0.8125 1.40625,2.5 1.40625,4.046875 0,1.515625 -0.484375,3.21875 -1.40625,4.03125 -0.015625,0 0.109375,0.15625 0.171875,0.1875 C 1.375,0.5625 2.1875,-0.890625 2.1875,-2.765625 Z m 0,0"
           id="path3505" />
      </symbol>
    </g>
    <g
       style="fill:#000000;stroke-width:0"
       id="g3539">
      <symbol
         style="fill:#000000;stroke-width:0"
         overflow="visible"
         id="symbol3525">
        <path
           style="fill:#000000;stroke:none;stroke-width:0"
           d="M 0.5,0 H 4.484375 V -4.8125 H 0.5 Z M 1,-0.5 V -4.3125 H 3.984375 V -0.5 Z m 0,0"
           id="path3523" />
      </symbol>
      <symbol
         style="fill:#000000;stroke-width:0"
         overflow="visible"
         id="symbol3529">
        <path
           style="fill:#000000;stroke:none;stroke-width:0"
           d="M 1.0625,-2.765625 C 1.0625,-4.3125 1.578125,-6 2.5,-6.8125 c 0,0 -0.125,-0.140625 -0.203125,-0.1875 -1.125,0.90625 -1.9375,2.328125 -1.9375,4.234375 0,1.875 0.8125,3.328125 1.9375,4.21875 C 2.375,1.421875 2.5,1.265625 2.5,1.265625 1.578125,0.453125 1.0625,-1.25 1.0625,-2.765625 Z m 0,0"
           id="path3527" />
      </symbol>
      <symbol
         style="fill:#000000;stroke-width:0"
         overflow="visible"
         id="symbol3533">
        <path
           style="fill:#000000;stroke:none;stroke-width:0"
           d="m 2.09375,0.0625 c 1.40625,0 2.4375,-1.0625 2.4375,-2.328125 0,-0.890625 -0.625,-2 -1.8125,-2 -0.375,0 -1.046875,0.421875 -1.203125,0.53125 C 1.453125,-3.6875 1.46875,-3.78125 1.46875,-3.84375 V -5.75 c 0,-0.546875 0.09375,-0.84375 0.09375,-0.84375 0,-0.078125 -0.046875,-0.171875 -0.09375,-0.171875 C 1.046875,-6.5625 0.5625,-6.421875 0.0625,-6.375 c -0.046875,0.015625 -0.015625,0.265625 -0.015625,0.265625 0.28125,0 0.546875,0.03125 0.609375,0.171875 0.046875,0.109375 0.046875,0.375 0.046875,0.5 v 4.375 c 0,0.1875 -0.015625,0.515625 -0.109375,0.71875 0,0.046875 0.078125,0.203125 0.125,0.203125 0.21875,-0.078125 0.421875,0 0.640625,0.0625 C 1.578125,-0.015625 1.9375,0.0625 2.09375,0.0625 Z M 2.25,-3.6875 c 0.890625,0 1.453125,0.671875 1.453125,1.796875 0,0.796875 -0.609375,1.625 -1.328125,1.625 -0.4375,0 -0.90625,-0.265625 -0.90625,-0.6875 V -3.3125 c 0,-0.0625 0,-0.09375 0.03125,-0.109375 C 1.59375,-3.515625 2,-3.6875 2.25,-3.6875 Z m 0,0"
           id="path3531" />
      </symbol>
      <symbol
         style="fill:#000000;stroke-width:0"
         overflow="visible"
         id="symbol3537">
        <path
           style="fill:#000000;stroke:none;stroke-width:0"
           d="M 2.1875,-2.765625 C 2.1875,-4.671875 1.375,-6.09375 0.234375,-7 c -0.0625,0.046875 -0.1875,0.1875 -0.171875,0.1875 0.921875,0.8125 1.40625,2.5 1.40625,4.046875 0,1.515625 -0.484375,3.21875 -1.40625,4.03125 -0.015625,0 0.109375,0.15625 0.171875,0.1875 C 1.375,0.5625 2.1875,-0.890625 2.1875,-2.765625 Z m 0,0"
           id="path3535" />
      </symbol>
    </g>
  </defs>
  <sodipodi:namedview
     id="base"
     pagecolor="#ffffff"
     bordercolor="#666666"
     borderopacity="1.0"
     inkscape:pageopacity="0.0"
     inkscape:pageshadow="2"
     inkscape:zoom="1.979899"
     inkscape:cx="202.65489"
     inkscape:cy="12.822633"
     inkscape:document-units="mm"
     inkscape:current-layer="layer1"
     inkscape:document-rotation="0"
     showgrid="false"
     inkscape:window-width="1600"
     inkscape:window-height="837"
     inkscape:window-x="-8"
     inkscape:window-y="-8"
     inkscape:window-maximized="1" />
  <metadata
     id="metadata11490">
    <rdf:RDF>
      <cc:Work
         rdf:about="">
        <dc:format>image/svg+xml</dc:format>
        <dc:type
           rdf:resource="http://purl.org/dc/dcmitype/StillImage" />
        <dc:title />
      </cc:Work>
    </rdf:RDF>
  </metadata>
  <g
     inkscape:label="Layer 1"
     inkscape:groupmode="layer"
     id="layer1"
     transform="translate(-113.96291,-69.190837)">
    <path
       style="fill:none;stroke:#000000;stroke-width:0.264583px;stroke-linecap:round;stroke-linejoin:miter;stroke-opacity:1"
       d="M 168.48257,83.252897 V 93.740632"
       id="path15030"
       sodipodi:nodetypes="cc" />
    <rect
       style="opacity:1;fill:none;stroke:#aa9e95;stroke-width:0.258591;stroke-linecap:round;stroke-linejoin:round;stroke-miterlimit:4;stroke-dasharray:none;stroke-dashoffset:0"
       id="rect13892"
       width="11.258729"
       height="5.2017403"
       x="114.0922"
       y="77.934227" />
    <rect
       style="opacity:1;fill:none;stroke:#aa9e95;stroke-width:0.258591;stroke-linecap:round;stroke-linejoin:round;stroke-miterlimit:4;stroke-dasharray:none;stroke-dashoffset:0"
       id="rect13894"
       width="11.258729"
       height="5.2017403"
       x="119.38385"
       y="74.230057" />
    <path
       style="fill:none;stroke:#aa9e95;stroke-width:0.264583px;stroke-linecap:butt;stroke-linejoin:miter;stroke-opacity:1"
       d="m 114.0922,77.934226 5.29165,-3.70417"
       id="path13896" />
    <path
       style="fill:none;stroke:#aa9e95;stroke-width:0.264583px;stroke-linecap:butt;stroke-linejoin:miter;stroke-opacity:1"
       d="m 125.35093,77.934227 5.29165,-3.70417"
       id="path13898" />
    <path
       style="fill:none;stroke:#aa9e95;stroke-width:0.264583px;stroke-linecap:butt;stroke-linejoin:miter;stroke-opacity:1"
       d="m 125.35093,83.135963 5.29165,-3.70417"
       id="path13900" />
    <path
       style="fill:none;stroke:#b0947a;stroke-width:0.264583px;stroke-linecap:round;stroke-linejoin:round;stroke-opacity:1"
       d="m 116.05229,81.858004 h 8.7407"
       id="path13904" />
    <path
       style="fill:none;stroke:#b0947a;stroke-width:0.264583px;stroke-linecap:round;stroke-linejoin:round;stroke-opacity:1"
       d="m 120.28565,79.012136 h 8.7407"
       id="path13906" />
    <path
       style="fill:none;stroke:#b0947a;stroke-width:0.264583px;stroke-linecap:round;stroke-linejoin:round;stroke-opacity:1"
       d="m 124.79299,81.858004 4.23336,-2.845868"
       id="path13908"
       sodipodi:nodetypes="cc" />
    <path
       style="fill:none;stroke:#b0947a;stroke-width:0.264583px;stroke-linecap:round;stroke-linejoin:round;stroke-opacity:1"
       d="m 116.05229,81.858004 4.23336,-2.845868"
       id="path13910"
       sodipodi:nodetypes="cc" />
    <path
       style="fill:none;stroke:#b0947a;stroke-width:0.264583px;stroke-linecap:round;stroke-linejoin:round;stroke-opacity:1"
       d="m 116.05229,78.583004 h 8.7407"
       id="path13912" />
    <path
       style="fill:none;stroke:#b0947a;stroke-width:0.264583px;stroke-linecap:round;stroke-linejoin:round;stroke-opacity:1"
       d="m 120.28565,75.737136 h 8.7407"
       id="path13914" />
    <path
       style="fill:none;stroke:#b0947a;stroke-width:0.264583px;stroke-linecap:round;stroke-linejoin:round;stroke-opacity:1"
       d="m 124.79299,78.583004 4.23336,-2.845868"
       id="path13916"
       sodipodi:nodetypes="cc" />
    <path
       style="fill:none;stroke:#b0947a;stroke-width:0.264583px;stroke-linecap:round;stroke-linejoin:round;stroke-opacity:1"
       d="m 116.05229,78.583004 4.23336,-2.845868"
       id="path13918"
       sodipodi:nodetypes="cc" />
    <path
       style="fill:none;stroke:#000000;stroke-width:0.264583px;stroke-linecap:round;stroke-linejoin:miter;stroke-opacity:1"
       d="m 122.44437,80.580202 v 13.16043"
       id="path13920" />
    <path
       style="fill:none;stroke:#000000;stroke-width:0.264583px;stroke-linecap:round;stroke-linejoin:miter;stroke-opacity:1"
       d="m 120.53485,93.740632 h 3.76795"
       id="path13922" />
    <path
       style="fill:none;stroke:#000000;stroke-width:0.228209px;stroke-linecap:round;stroke-linejoin:miter;stroke-opacity:1"
       d="m 121.03015,94.235926 h 2.80316"
       id="path13924" />
    <path
       style="fill:none;stroke:#000000;stroke-width:0.186332px;stroke-linecap:round;stroke-linejoin:miter;stroke-opacity:1"
       d="m 121.52651,94.732287 h 1.86878"
       id="path13926" />
    <path
       style="fill:none;stroke:#000000;stroke-width:0.131757px;stroke-linecap:round;stroke-linejoin:miter;stroke-opacity:1"
       d="m 122.02287,95.228648 h 0.93439"
       id="path13928" />
    <path
       style="fill:none;stroke:#000000;stroke-width:0.0931661px;stroke-linecap:round;stroke-linejoin:miter;stroke-opacity:1"
       d="m 122.3065,95.741412 h 0.4672"
       id="path13930" />
    <circle
       r="0.41736582"
       cy="80.42067"
       cx="122.44023"
       id="path3435-3-3"
       style="opacity:1;fill:#000000;stroke:#000000;stroke-width:0.165268;stroke-linejoin:round;stroke-miterlimit:4;stroke-dasharray:none" />
    <circle
       r="0.41736582"
       cy="91.962845"
       cx="122.44023"
       id="circle13951"
       style="opacity:1;fill:#000000;stroke:#000000;stroke-width:0.165268;stroke-linejoin:round;stroke-miterlimit:4;stroke-dasharray:none" />
    <path
       style="fill:none;stroke:#000000;stroke-width:0.264583px;stroke-linecap:butt;stroke-linejoin:miter;stroke-opacity:1;marker-end:url(#Arrow1Send)"
       d="m 122.46016,91.962963 h 19.9125"
       id="path13953" />
    <circle
       r="0.41736582"
       cy="91.962845"
       cx="140.53192"
       id="circle14027"
       style="opacity:1;fill:#000000;stroke:#000000;stroke-width:0.165268;stroke-linejoin:round;stroke-miterlimit:4;stroke-dasharray:none" />
    <path
       style="fill:none;stroke:#000000;stroke-width:0.264583px;stroke-linecap:round;stroke-linejoin:round;stroke-opacity:1;marker-end:url(#marker14047)"
       d="m 122.46016,72.61297 h 19.9125"
       id="path14041" />
    <circle
       r="0.41736582"
       cy="72.612846"
       cx="140.53192"
       id="circle14043"
       style="opacity:1;fill:#000000;stroke:#000000;stroke-width:0.165268;stroke-linejoin:round;stroke-miterlimit:4;stroke-dasharray:none" />
    <circle
       r="0.41736582"
       cy="77.145844"
       cx="122.44023"
       id="circle14107"
       style="opacity:1;fill:#000000;stroke:#000000;stroke-width:0.165268;stroke-linejoin:round;stroke-miterlimit:4;stroke-dasharray:none" />
    <path
       style="fill:none;stroke:#000000;stroke-width:0.264583px;stroke-linecap:round;stroke-linejoin:round;stroke-opacity:1"
       d="m 122.46016,72.612971 v 4.44946"
       id="path14109" />
    <path
       style="fill:none;stroke:#000000;stroke-width:0.264583;stroke-linecap:round;stroke-linejoin:miter;stroke-miterlimit:4;stroke-dasharray:1.05833, 0.529166;stroke-dashoffset:0;stroke-opacity:1"
       d="M 136.36745,72.620583 V 91.87234"
       id="path14129" />
    <rect
       style="opacity:1;fill:#ffffff;stroke:none;stroke-width:0.632376;stroke-linecap:round;stroke-linejoin:round;stroke-miterlimit:4;stroke-dasharray:2.52949, 1.26475;stroke-dashoffset:0"
       id="rect14165"
       width="0.49609375"
       height="4.0484796"
       x="122.1944"
       y="84.905441" />
    <rect
       style="opacity:1;fill:#ffffff;stroke:none;stroke-width:0.264583;stroke-linecap:round;stroke-linejoin:round;stroke-miterlimit:4;stroke-dasharray:1.05833, 0.529167;stroke-dashoffset:0"
       id="rect14169-5"
       width="0.49609375"
       height="0.70870537"
       x="136.16116"
       y="81.979805" />
    <path
       style="fill:none;stroke:#000000;stroke-width:0.264583;stroke-linecap:round;stroke-linejoin:miter;stroke-miterlimit:4;stroke-dasharray:1.05833, 0.529166;stroke-dashoffset:0;stroke-opacity:1"
       d="m 138.36361,81.933254 h -4.42665"
       id="path14186" />
    <path
       style="fill:none;stroke:#000000;stroke-width:0.264583;stroke-linecap:round;stroke-linejoin:miter;stroke-miterlimit:4;stroke-dasharray:1.05833, 0.529166;stroke-dashoffset:0;stroke-opacity:1"
       d="m 138.36361,82.662136 h -4.42665"
       id="path14188" />
    <path
       style="fill:none;stroke:#000000;stroke-width:0.264583px;stroke-linecap:butt;stroke-linejoin:miter;stroke-opacity:1"
       d="M 140.53215,72.627118 V 91.87234"
       id="path14190" />
    <rect
       style="opacity:1;fill:#ffffff;stroke:#000000;stroke-width:0.219321;stroke-linecap:round;stroke-linejoin:round;stroke-miterlimit:4;stroke-dasharray:none"
       id="rect10046"
       width="8.0978985"
       height="1.5659795"
       x="78.33532"
       y="-141.3804"
       transform="rotate(90)" />
    <g
       transform="matrix(0.42333399,0,0,0.42333399,140.03433,69.190837)"
       ns2:version="1.1.0"
       ns2:texconverter="pdflatex"
       ns2:pdfconverter="inkscape"
       ns2:text="$1$"
       ns2:preamble="C:\\Users\\flvisa\\Desktop\\lna\\latexify_books\\textext_preamble.tex"
       ns2:scale="1.199999773228722"
       ns2:alignment="middle center"
       ns2:inkscapeversion="1.0"
       ns2:jacobian_sqrt="0.423334"
       id="g6582">
      <defs
         id="id-99136f65-f779-4cb7-b19c-c10459896000">
        <g
           id="g14308">
          <symbol
             id="symbol14302"
             overflow="visible">
            <path
               id="path14300"
               d="M 0.5,0 H 4.484375 V -4.8125 H 0.5 Z M 1,-0.5 V -4.3125 H 3.984375 V -0.5 Z m 0,0"
               style="stroke:none" />
          </symbol>
          <symbol
             id="symbol14306"
             overflow="visible">
            <path
               id="path14304"
               d="m 2.171875,-1.125 c 0,0.28125 -0.015625,0.5625 -0.0625,0.71875 C 2.078125,-0.296875 1.609375,-0.25 1.5,-0.25 c -0.046875,0.046875 -0.046875,0.234375 0,0.28125 0.390625,-0.015625 0.65625,-0.046875 1.03125,-0.046875 0.375,0 0.6875,0.03125 1.09375,0.046875 0.046875,-0.046875 0.03125,-0.234375 0,-0.28125 C 3.5,-0.25 3.015625,-0.296875 2.984375,-0.40625 2.9375,-0.5625 2.9375,-0.84375 2.9375,-1.125 v -4.03125 c 0,-0.59375 0.078125,-0.9375 0.078125,-0.9375 0,-0.046875 -0.03125,-0.15625 -0.09375,-0.15625 H 2.90625 C 2.875,-6.25 2,-5.828125 1.203125,-5.46875 c -0.03125,0.015625 0,0.046875 0,0.0625 0,0.078125 0.03125,0.125 0.078125,0.171875 0.171875,-0.0625 0.546875,-0.203125 0.6875,-0.203125 0.140625,0 0.203125,0.09375 0.203125,0.375 z m 0,0"
               style="stroke:none" />
          </symbol>
        </g>
      </defs>
      <g
         transform="translate(-149.901,-128.515)"
         id="id-bd3de61b-ee2e-47ef-96ff-2b0b05c6120a">
        <g
           id="id-094dc464-c691-462e-9002-f9b026782012"
           style="fill:#000000;fill-opacity:1">
          <g
             transform="translate(148.712,134.765)"
             id="g6578">
            <path
               id="id-74bf3bd2-a8b6-49d6-a543-6822b0530089"
               d="m 2.171875,-1.125 c 0,0.28125 -0.015625,0.5625 -0.0625,0.71875 C 2.078125,-0.296875 1.609375,-0.25 1.5,-0.25 c -0.046875,0.046875 -0.046875,0.234375 0,0.28125 0.390625,-0.015625 0.65625,-0.046875 1.03125,-0.046875 0.375,0 0.6875,0.03125 1.09375,0.046875 0.046875,-0.046875 0.03125,-0.234375 0,-0.28125 C 3.5,-0.25 3.015625,-0.296875 2.984375,-0.40625 2.9375,-0.5625 2.9375,-0.84375 2.9375,-1.125 v -4.03125 c 0,-0.59375 0.078125,-0.9375 0.078125,-0.9375 0,-0.046875 -0.03125,-0.15625 -0.09375,-0.15625 H 2.90625 C 2.875,-6.25 2,-5.828125 1.203125,-5.46875 c -0.03125,0.015625 0,0.046875 0,0.0625 0,0.078125 0.03125,0.125 0.078125,0.171875 0.171875,-0.0625 0.546875,-0.203125 0.6875,-0.203125 0.140625,0 0.203125,0.09375 0.203125,0.375 z m 0,0"
               style="stroke:none" />
          </g>
        </g>
      </g>
    </g>
    <g
       transform="matrix(0.42333399,0,0,0.42333399,141.66051,80.511462)"
       ns2:version="1.1.0"
       ns2:texconverter="pdflatex"
       ns2:pdfconverter="inkscape"
       ns2:text="$R$\n\n\n"
       ns2:preamble="C:\\Users\\flvisa\\Desktop\\lna\\latexify_books\\textext_preamble.tex"
       ns2:scale="1.199999858267946"
       ns2:alignment="middle center"
       ns2:inkscapeversion="1.0.1"
       ns2:jacobian_sqrt="0.423334"
       style="fill:#000000;fill-opacity:1;stroke-width:0"
       id="g21393">
      <defs
         id="id-7d641879-1c9c-440b-87e2-5cb3817e4990">
        <g
           id="g14340"
           style="fill:#000000;fill-opacity:1;stroke-width:0">
          <symbol
             overflow="visible"
             id="symbol14334"
             style="fill:#000000;fill-opacity:1;stroke-width:0">
            <path
               style="fill:#000000;fill-opacity:1;stroke:none;stroke-width:0"
               d=""
               id="path14332" />
          </symbol>
          <symbol
             overflow="visible"
             id="symbol14338"
             style="fill:#000000;fill-opacity:1;stroke-width:0">
            <path
               style="fill:#000000;fill-opacity:1;stroke:none;stroke-width:0"
               d="m 5.578125,0.03125 c 0.015625,-0.015625 0.109375,-0.234375 0.0625,-0.296875 -0.5,-0.03125 -0.703125,-0.1875 -0.9375,-0.609375 -0.25,-0.4375 -0.75,-1.4375 -1.078125,-2.34375 0.78125,-0.28125 1.65625,-1.03125 1.65625,-2 0,-0.9375 -0.71875,-1.4375 -1.578125,-1.4375 -0.546875,0 -0.96875,0.03125 -1.328125,0.03125 -0.34375,0 -0.75,-0.03125 -1.125,-0.046875 -0.0625,0.046875 -0.09375,0.234375 -0.0625,0.28125 0.109375,0 0.609375,0.0625 0.609375,0.171875 v 0.078125 c 0,0.15625 -0.03125,0.40625 -0.078125,0.65625 L 0.875,-1.171875 C 0.8125,-0.875 0.765625,-0.59375 0.6875,-0.421875 0.640625,-0.3125 0.109375,-0.265625 0,-0.265625 c -0.046875,0.0625 -0.09375,0.25 -0.046875,0.296875 0.390625,-0.015625 0.75,-0.046875 1.109375,-0.046875 0.359375,0 0.71875,0.03125 1.09375,0.046875 0.0625,-0.046875 0.09375,-0.234375 0.0625,-0.296875 -0.109375,0 -0.609375,-0.046875 -0.625,-0.15625 V -0.5 c 0,-0.15625 0.046875,-0.40625 0.09375,-0.671875 L 2.046875,-3.0625 h 0.5 c 0.140625,0 0.234375,0.046875 0.265625,0.125 0.3125,0.890625 0.765625,1.859375 1.0625,2.453125 0.234375,0.46875 0.875,0.515625 1.703125,0.515625 z M 2.125,-3.359375 2.53125,-5.5 c 0.0625,-0.296875 0.125,-0.625 0.1875,-0.75 0.046875,-0.09375 0.390625,-0.109375 0.5,-0.109375 1.03125,0 1.171875,0.78125 1.171875,1.203125 0,1.21875 -0.96875,1.796875 -1.765625,1.796875 z m 0,0"
               id="path14336" />
          </symbol>
        </g>
      </defs>
      <g
         id="id-d0cea743-98d2-41a0-b80e-c8413f6939ac"
         transform="translate(-148.945,-128.093)"
         style="fill:#000000;fill-opacity:1;stroke-width:0">
        <g
           style="fill:#000000;fill-opacity:1;stroke-width:0"
           id="id-431ea057-af38-4da7-a491-8152f44f776a">
          <g
             transform="translate(149.011,134.765)"
             style="fill:#000000;fill-opacity:1;stroke-width:0"
             id="g21389">
            <path
               style="fill:#000000;fill-opacity:1;stroke:none;stroke-width:0"
               d="m 5.578125,0.03125 c 0.015625,-0.015625 0.109375,-0.234375 0.0625,-0.296875 -0.5,-0.03125 -0.703125,-0.1875 -0.9375,-0.609375 -0.25,-0.4375 -0.75,-1.4375 -1.078125,-2.34375 0.78125,-0.28125 1.65625,-1.03125 1.65625,-2 0,-0.9375 -0.71875,-1.4375 -1.578125,-1.4375 -0.546875,0 -0.96875,0.03125 -1.328125,0.03125 -0.34375,0 -0.75,-0.03125 -1.125,-0.046875 -0.0625,0.046875 -0.09375,0.234375 -0.0625,0.28125 0.109375,0 0.609375,0.0625 0.609375,0.171875 v 0.078125 c 0,0.15625 -0.03125,0.40625 -0.078125,0.65625 L 0.875,-1.171875 C 0.8125,-0.875 0.765625,-0.59375 0.6875,-0.421875 0.640625,-0.3125 0.109375,-0.265625 0,-0.265625 c -0.046875,0.0625 -0.09375,0.25 -0.046875,0.296875 0.390625,-0.015625 0.75,-0.046875 1.109375,-0.046875 0.359375,0 0.71875,0.03125 1.09375,0.046875 0.0625,-0.046875 0.09375,-0.234375 0.0625,-0.296875 -0.109375,0 -0.609375,-0.046875 -0.625,-0.15625 V -0.5 c 0,-0.15625 0.046875,-0.40625 0.09375,-0.671875 L 2.046875,-3.0625 h 0.5 c 0.140625,0 0.234375,0.046875 0.265625,0.125 0.3125,0.890625 0.765625,1.859375 1.0625,2.453125 0.234375,0.46875 0.875,0.515625 1.703125,0.515625 z M 2.125,-3.359375 2.53125,-5.5 c 0.0625,-0.296875 0.125,-0.625 0.1875,-0.75 0.046875,-0.09375 0.390625,-0.109375 0.5,-0.109375 1.03125,0 1.171875,0.78125 1.171875,1.203125 0,1.21875 -0.96875,1.796875 -1.765625,1.796875 z m 0,0"
               id="id-70c3c83c-e1d8-4257-9c07-74e9d1de313d" />
          </g>
        </g>
      </g>
    </g>
    <g
       transform="matrix(0.42333399,0,0,0.42333399,139.72513,92.977076)"
       ns2:version="1.1.0"
       ns2:texconverter="pdflatex"
       ns2:pdfconverter="inkscape"
       ns2:text="$2$"
       ns2:preamble="C:\\Users\\flvisa\\Desktop\\lna\\latexify_books\\textext_preamble.tex"
       ns2:scale="1.1999997448823154"
       ns2:alignment="middle center"
       ns2:inkscapeversion="1.0"
       ns2:jacobian_sqrt="0.423334"
       id="g6925">
      <defs
         id="id-10d01f89-49fc-436f-a187-d029386b3763">
        <g
           id="g14395">
          <symbol
             id="symbol14389"
             overflow="visible">
            <path
               id="path14387"
               d="M 0.5,0 H 4.484375 V -4.8125 H 0.5 Z M 1,-0.5 V -4.3125 H 3.984375 V -0.5 Z m 0,0"
               style="stroke:none" />
          </symbol>
          <symbol
             id="symbol14393"
             overflow="visible">
            <path
               id="path14391"
               d="M 4.421875,-1.453125 C 4.375,-1.484375 4.25,-1.515625 4.21875,-1.515625 c -0.0625,0 -0.09375,0.015625 -0.109375,0.0625 -0.21875,0.5 -0.4375,0.75 -0.8125,0.75 h -1.9375 c 0.4375,-0.5 1.4375,-1.59375 2.125,-2.453125 C 3.8125,-3.5625 4.03125,-4.0625 4.03125,-4.625 c 0,-0.828125 -0.734375,-1.625 -1.671875,-1.625 -1.03125,0 -1.734375,1.078125 -1.796875,1.3125 0,0.046875 0.109375,0.15625 0.1875,0.15625 0.125,-0.1875 0.609375,-0.828125 1.390625,-0.828125 0.609375,0 1.0625,0.5 1.0625,1.171875 0,0.484375 -0.0625,0.875 -0.46875,1.453125 -0.5625,0.828125 -1.5,1.9375 -2.3125,2.84375 0,0.046875 0.0625,0.125 0.09375,0.140625 h 3.375 c 0.0625,-0.171875 0.328125,-0.984375 0.53125,-1.453125 z m 0,0"
               style="stroke:none" />
          </symbol>
        </g>
      </defs>
      <g
         transform="translate(-149.134,-128.515)"
         id="id-2b50523c-e81a-4f87-ba36-3d7fa8f68420">
        <g
           id="id-9b635aa6-b372-4423-8fa0-6e45d443fb17"
           style="fill:#000000;fill-opacity:1">
          <g
             transform="translate(148.712,134.765)"
             id="g6921">
            <path
               id="id-392eb9f9-4e03-4d03-ba62-75c1d1e34a13"
               d="M 4.421875,-1.453125 C 4.375,-1.484375 4.25,-1.515625 4.21875,-1.515625 c -0.0625,0 -0.09375,0.015625 -0.109375,0.0625 -0.21875,0.5 -0.4375,0.75 -0.8125,0.75 h -1.9375 c 0.4375,-0.5 1.4375,-1.59375 2.125,-2.453125 C 3.8125,-3.5625 4.03125,-4.0625 4.03125,-4.625 c 0,-0.828125 -0.734375,-1.625 -1.671875,-1.625 -1.03125,0 -1.734375,1.078125 -1.796875,1.3125 0,0.046875 0.109375,0.15625 0.1875,0.15625 0.125,-0.1875 0.609375,-0.828125 1.390625,-0.828125 0.609375,0 1.0625,0.5 1.0625,1.171875 0,0.484375 -0.0625,0.875 -0.46875,1.453125 -0.5625,0.828125 -1.5,1.9375 -2.3125,2.84375 0,0.046875 0.0625,0.125 0.09375,0.140625 h 3.375 c 0.0625,-0.171875 0.328125,-0.984375 0.53125,-1.453125 z m 0,0"
               style="stroke:none" />
          </g>
        </g>
      </g>
    </g>
    <g
       transform="matrix(0,0.2168581,-0.09638392,0,145.12376,72.61297)"
       id="g11195"
       style="display:inline">
      <path
         style="fill:#000000;fill-opacity:1;stroke:none"
         d="m 50.0087,3.0227061 c 2.425745,0.746744 5.012823,0.7122008 7.550759,0.6849483 7.475267,-0.08027 14.951223,-0.039342 22.426897,-0.020646 2.065866,0.00517 4.210218,0.025554 6.075969,0.9125736 C 88.159639,5.5966914 89.691972,7.6982458 90,10 89.307261,9.262159 88.482465,8.6486667 87.576557,8.1974158 85.297754,7.0622986 82.653275,6.9988553 80.107536,6.9734277 73.344129,6.9058728 66.580182,6.9450812 59.816442,6.9528892 56.529683,6.9566834 53.126722,6.929119 50.134192,5.5698678 48.016335,4.607906 46.200968,2.9920752 45,1 43.815115,2.9213533 42.068558,4.4916771 40.032465,5.4662944 36.941889,6.9456618 33.388933,7.0165354 29.962552,7.0265398 23.327154,7.0459139 16.691754,6.9420887 10.056424,6.9779241 7.4704959,6.9918899 4.7850487,7.0497254 2.4647757,8.1914576 1.5457144,8.6436983 0.70717095,9.258984 0,10 0.34151794,7.6910633 1.8791292,5.5924547 3.9777757,4.5709333 5.8118098,3.6782126 7.9223541,3.6028644 9.9615558,3.5550337 17.49377,3.3783611 25.029743,3.3485189 32.562597,3.4954066 35.047171,3.5438548 37.577655,3.6058885 39.964882,2.9155242 41.846492,2.3713797 43.59139,1.3610173 45,0 c 1.390009,1.3953906 3.126297,2.443225 5.0087,3.0227061 z"
         id="path3774"
         inkscape:path-effect="#path-effect2988"
         inkscape:original-d="m 50.0087,3.0227061 c 1.292036,0.5024419 4.985995,0.399272 7.550759,0.6849483 1.282382,0.1428382 18.039431,-0.09915 22.426897,-0.020646 4.387466,0.078504 5.444938,0.5434835 6.075969,0.9125736 C 86.693356,4.9686721 90,10 90,10 90,10 88.182447,8.402454 87.576557,8.1974158 86.970666,7.9923776 84.200716,7.0362075 80.107536,6.9734277 76.014356,6.9106479 60.964516,7.0154518 59.816442,6.9528892 57.520294,6.8277642 51.410387,6.1064871 50.134192,5.5698678 48.857997,5.0332484 45,1 45,1 45,1 38.478896,4.5713892 40.032465,5.4662944 40.895198,5.9632565 37.997093,6.5135007 29.962552,7.0265398 21.92801,7.5395789 11.000434,6.893712 10.056424,6.9779241 9.1124136,7.0621362 3.8409013,7.4088488 2.4647757,8.1914576 1.0886501,8.9740664 0,10 0,10 0,10 5.3337905,6.777155 3.9777757,4.5709333 2.6217609,2.3647115 9.6174962,4.4378151 9.9615558,3.5550337 10.305615,2.6722522 24.999056,3.8199992 32.562597,3.4954066 40.126138,3.1708139 39.372095,2.0337056 39.964882,2.9155242 40.55767,3.7973429 42.243915,0.48797044 45,0 c 2.635001,0.50646149 3.716664,2.5202643 5.0087,3.0227061 z"
         inkscape:connector-curvature="0"
         sodipodi:nodetypes="zsszczsszcsszzczzszcz" />
    </g>
    <text
       xml:space="preserve"
       style="font-style:normal;font-variant:normal;font-weight:normal;font-stretch:normal;font-size:2.82222px;line-height:1.25;font-family:Cochineal;-inkscape-font-specification:Cochineal;font-variant-ligatures:normal;font-variant-caps:normal;font-variant-numeric:normal;font-feature-settings:normal;text-align:start;letter-spacing:0px;word-spacing:0px;writing-mode:lr-tb;text-anchor:start;fill:#000000;fill-opacity:1;stroke:none;stroke-width:0.264583"
       x="-88.929443"
       y="147.60686"
       id="text14762"
       transform="rotate(-90)"><tspan
         sodipodi:role="line"
         id="tspan14760"
         x="-88.929443"
         y="147.60686"
         style="font-style:normal;font-variant:normal;font-weight:normal;font-stretch:normal;font-size:2.82222px;font-family:Cochineal;-inkscape-font-specification:Cochineal;stroke-width:0.264583">To amplifier</tspan><tspan
         sodipodi:role="line"
         x="-88.929443"
         y="151.13463"
         style="font-style:normal;font-variant:normal;font-weight:normal;font-stretch:normal;font-size:2.82222px;font-family:Cochineal;-inkscape-font-specification:Cochineal;stroke-width:0.264583"
         id="tspan14764">and counter</tspan></text>
    <path
       style="fill:none;stroke:#000000;stroke-width:0.264583px;stroke-linecap:round;stroke-linejoin:miter;stroke-opacity:1"
       d="m 166.57264,93.740632 h 3.76795"
       id="path14810" />
    <path
       style="fill:none;stroke:#000000;stroke-width:0.228209px;stroke-linecap:round;stroke-linejoin:miter;stroke-opacity:1"
       d="m 167.06794,94.235926 h 2.80316"
       id="path14812" />
    <path
       style="fill:none;stroke:#000000;stroke-width:0.186332px;stroke-linecap:round;stroke-linejoin:miter;stroke-opacity:1"
       d="m 167.5643,94.732287 h 1.86878"
       id="path14814" />
    <path
       style="fill:none;stroke:#000000;stroke-width:0.131757px;stroke-linecap:round;stroke-linejoin:miter;stroke-opacity:1"
       d="m 168.06066,95.228648 h 0.93439"
       id="path14816" />
    <path
       style="fill:none;stroke:#000000;stroke-width:0.0931661px;stroke-linecap:round;stroke-linejoin:miter;stroke-opacity:1"
       d="m 168.3445,95.741412 h 0.4672"
       id="path14818" />
    <circle
       r="0.41736582"
       cy="91.962845"
       cx="168.47717"
       id="circle14820"
       style="opacity:1;fill:#000000;stroke:#000000;stroke-width:0.165268;stroke-linejoin:round;stroke-miterlimit:4;stroke-dasharray:none" />
    <rect
       style="opacity:1;fill:#ffffff;stroke:none;stroke-width:0.632605;stroke-linecap:round;stroke-linejoin:round;stroke-miterlimit:4;stroke-dasharray:2.53041, 1.26522;stroke-dashoffset:0"
       id="rect14840"
       width="0.49609375"
       height="4.0514321"
       x="168.23134"
       y="85.963776" />
    <path
       style="fill:none;stroke:#000000;stroke-width:0.264583px;stroke-linecap:butt;stroke-linejoin:miter;stroke-opacity:1;marker-end:url(#marker14856)"
       d="m 168.35857,91.962963 h 19.52271"
       id="path14852"
       sodipodi:nodetypes="cc" />
    <circle
       r="0.41736582"
       cy="91.962845"
       cx="186.03964"
       id="circle14916"
       style="opacity:1;fill:#000000;stroke:#000000;stroke-width:0.165268;stroke-linejoin:round;stroke-miterlimit:4;stroke-dasharray:none" />
    <path
       style="fill:none;stroke:#000000;stroke-width:0.264583px;stroke-linecap:butt;stroke-linejoin:miter;stroke-opacity:1"
       d="M 186.04077,79.943621 V 91.87234"
       id="path14918"
       sodipodi:nodetypes="cc" />
    <rect
       style="opacity:1;fill:#ffffff;stroke:#000000;stroke-width:0.219321;stroke-linecap:round;stroke-linejoin:round;stroke-miterlimit:4;stroke-dasharray:none"
       id="rect14920"
       width="8.0978985"
       height="1.5659795"
       x="81.839508"
       y="-186.88812"
       transform="rotate(90)" />
    <g
       transform="matrix(0.42333399,0,0,0.42333399,187.16913,84.215631)"
       ns2:version="1.1.0"
       ns2:texconverter="pdflatex"
       ns2:pdfconverter="inkscape"
       ns2:text="$R$\n\n\n"
       ns2:preamble="C:\\Users\\flvisa\\Desktop\\lna\\latexify_books\\textext_preamble.tex"
       ns2:scale="1.199999858267946"
       ns2:alignment="middle center"
       ns2:inkscapeversion="1.0.1"
       ns2:jacobian_sqrt="0.423334"
       style="fill:#000000;fill-opacity:1;stroke-width:0"
       id="g14942">
      <defs
         id="defs14932">
        <g
           id="g14930"
           style="fill:#000000;fill-opacity:1;stroke-width:0">
          <symbol
             overflow="visible"
             id="symbol14924"
             style="fill:#000000;fill-opacity:1;stroke-width:0">
            <path
               style="fill:#000000;fill-opacity:1;stroke:none;stroke-width:0"
               d=""
               id="path14922" />
          </symbol>
          <symbol
             overflow="visible"
             id="symbol14928"
             style="fill:#000000;fill-opacity:1;stroke-width:0">
            <path
               style="fill:#000000;fill-opacity:1;stroke:none;stroke-width:0"
               d="m 5.578125,0.03125 c 0.015625,-0.015625 0.109375,-0.234375 0.0625,-0.296875 -0.5,-0.03125 -0.703125,-0.1875 -0.9375,-0.609375 -0.25,-0.4375 -0.75,-1.4375 -1.078125,-2.34375 0.78125,-0.28125 1.65625,-1.03125 1.65625,-2 0,-0.9375 -0.71875,-1.4375 -1.578125,-1.4375 -0.546875,0 -0.96875,0.03125 -1.328125,0.03125 -0.34375,0 -0.75,-0.03125 -1.125,-0.046875 -0.0625,0.046875 -0.09375,0.234375 -0.0625,0.28125 0.109375,0 0.609375,0.0625 0.609375,0.171875 v 0.078125 c 0,0.15625 -0.03125,0.40625 -0.078125,0.65625 L 0.875,-1.171875 C 0.8125,-0.875 0.765625,-0.59375 0.6875,-0.421875 0.640625,-0.3125 0.109375,-0.265625 0,-0.265625 c -0.046875,0.0625 -0.09375,0.25 -0.046875,0.296875 0.390625,-0.015625 0.75,-0.046875 1.109375,-0.046875 0.359375,0 0.71875,0.03125 1.09375,0.046875 0.0625,-0.046875 0.09375,-0.234375 0.0625,-0.296875 -0.109375,0 -0.609375,-0.046875 -0.625,-0.15625 V -0.5 c 0,-0.15625 0.046875,-0.40625 0.09375,-0.671875 L 2.046875,-3.0625 h 0.5 c 0.140625,0 0.234375,0.046875 0.265625,0.125 0.3125,0.890625 0.765625,1.859375 1.0625,2.453125 0.234375,0.46875 0.875,0.515625 1.703125,0.515625 z M 2.125,-3.359375 2.53125,-5.5 c 0.0625,-0.296875 0.125,-0.625 0.1875,-0.75 0.046875,-0.09375 0.390625,-0.109375 0.5,-0.109375 1.03125,0 1.171875,0.78125 1.171875,1.203125 0,1.21875 -0.96875,1.796875 -1.765625,1.796875 z m 0,0"
               id="path14926" />
          </symbol>
        </g>
      </defs>
      <g
         id="g14940"
         transform="translate(-148.945,-128.093)"
         style="fill:#000000;fill-opacity:1;stroke-width:0">
        <g
           style="fill:#000000;fill-opacity:1;stroke-width:0"
           id="g14938">
          <g
             transform="translate(149.011,134.765)"
             style="fill:#000000;fill-opacity:1;stroke-width:0"
             id="g14936">
            <path
               style="fill:#000000;fill-opacity:1;stroke:none;stroke-width:0"
               d="m 5.578125,0.03125 c 0.015625,-0.015625 0.109375,-0.234375 0.0625,-0.296875 -0.5,-0.03125 -0.703125,-0.1875 -0.9375,-0.609375 -0.25,-0.4375 -0.75,-1.4375 -1.078125,-2.34375 0.78125,-0.28125 1.65625,-1.03125 1.65625,-2 0,-0.9375 -0.71875,-1.4375 -1.578125,-1.4375 -0.546875,0 -0.96875,0.03125 -1.328125,0.03125 -0.34375,0 -0.75,-0.03125 -1.125,-0.046875 -0.0625,0.046875 -0.09375,0.234375 -0.0625,0.28125 0.109375,0 0.609375,0.0625 0.609375,0.171875 v 0.078125 c 0,0.15625 -0.03125,0.40625 -0.078125,0.65625 L 0.875,-1.171875 C 0.8125,-0.875 0.765625,-0.59375 0.6875,-0.421875 0.640625,-0.3125 0.109375,-0.265625 0,-0.265625 c -0.046875,0.0625 -0.09375,0.25 -0.046875,0.296875 0.390625,-0.015625 0.75,-0.046875 1.109375,-0.046875 0.359375,0 0.71875,0.03125 1.09375,0.046875 0.0625,-0.046875 0.09375,-0.234375 0.0625,-0.296875 -0.109375,0 -0.609375,-0.046875 -0.625,-0.15625 V -0.5 c 0,-0.15625 0.046875,-0.40625 0.09375,-0.671875 L 2.046875,-3.0625 h 0.5 c 0.140625,0 0.234375,0.046875 0.265625,0.125 0.3125,0.890625 0.765625,1.859375 1.0625,2.453125 0.234375,0.46875 0.875,0.515625 1.703125,0.515625 z M 2.125,-3.359375 2.53125,-5.5 c 0.0625,-0.296875 0.125,-0.625 0.1875,-0.75 0.046875,-0.09375 0.390625,-0.109375 0.5,-0.109375 1.03125,0 1.171875,0.78125 1.171875,1.203125 0,1.21875 -0.96875,1.796875 -1.765625,1.796875 z m 0,0"
               id="path14934" />
          </g>
        </g>
      </g>
    </g>
    <circle
       r="0.41736582"
       cy="79.792"
       cx="186.03964"
       id="circle14944"
       style="opacity:1;fill:#000000;stroke:#000000;stroke-width:0.165268;stroke-linejoin:round;stroke-miterlimit:4;stroke-dasharray:none" />
    <path
       style="fill:none;stroke:#000000;stroke-width:0.264583px;stroke-linecap:butt;stroke-linejoin:miter;stroke-opacity:1;marker-end:url(#marker14956)"
       d="M 157.90669,79.696937 H 187.7765"
       id="path14952"
       sodipodi:nodetypes="cc" />
    <path
       style="fill:#aa9e95;stroke:none;stroke-width:0.264583px;stroke-linecap:butt;stroke-linejoin:miter;stroke-opacity:1"
       d="m 178.4836,78.536385 h -0.32872 l -0.2131,0.02318 -0.1949,0.183081 -0.15059,0.242141 -0.0738,0.265764 -0.0531,0.4016 0.0413,0.496094 0.0886,0.253952 0.11516,0.268719 0.2451,0.209659 0.19538,0.04126 h 0.32872 l -0.28787,-0.106225 -0.17422,-0.156507 -0.11517,-0.253952 -0.0856,-0.398645 v -0.472472 l 0.0591,-0.398645 0.12107,-0.31006 0.19194,-0.221469 z"
       id="path15050" />
    <path
       style="fill:none;stroke:#aa9e95;stroke-width:0.264583px;stroke-linecap:round;stroke-linejoin:miter;stroke-opacity:1"
       d="m 157.79978,76.046622 c -2.0958,0 -1.97666,7.110677 0,7.110677"
       id="path15032"
       sodipodi:nodetypes="cc" />
    <path
       style="fill:none;stroke:#aa9e95;stroke-width:0.264583;stroke-linecap:round;stroke-linejoin:miter;stroke-miterlimit:4;stroke-dasharray:1.05833, 0.529166;stroke-dashoffset:0;stroke-opacity:1"
       d="m 157.79978,76.046622 c 2.0958,0 1.97666,7.110677 0,7.110677"
       id="path15034"
       sodipodi:nodetypes="cc" />
    <path
       style="fill:none;stroke:#aa9e95;stroke-width:0.264583px;stroke-linecap:round;stroke-linejoin:miter;stroke-opacity:1"
       d="m 178.43741,76.046622 c -2.0958,0 -1.97666,7.110677 0,7.110677"
       id="path15036"
       sodipodi:nodetypes="cc" />
    <path
       style="fill:none;stroke:#aa9e95;stroke-width:0.264583;stroke-linecap:round;stroke-linejoin:miter;stroke-miterlimit:4;stroke-dasharray:none;stroke-dashoffset:0;stroke-opacity:1"
       d="m 178.43741,76.046622 c 2.0958,0 1.97666,7.110677 0,7.110677"
       id="path15038"
       sodipodi:nodetypes="cc" />
    <path
       style="fill:none;stroke:#aa9e95;stroke-width:0.102284px;stroke-linecap:round;stroke-linejoin:miter;stroke-opacity:1"
       d="m 178.4836,78.536387 c -0.93362,0 -0.88055,2.385455 0,2.385455"
       id="path15040"
       sodipodi:nodetypes="cc" />
    <path
       style="fill:none;stroke:#aa9e95;stroke-width:0.102284;stroke-linecap:round;stroke-linejoin:miter;stroke-miterlimit:4;stroke-dasharray:none;stroke-dashoffset:0;stroke-opacity:1"
       d="m 178.4836,78.536387 c 0.93362,0 0.88055,2.385455 0,2.385455"
       id="path15042"
       sodipodi:nodetypes="cc" />
    <path
       style="fill:none;stroke:#aa9e95;stroke-width:0.102284px;stroke-linecap:round;stroke-linejoin:miter;stroke-opacity:1"
       d="m 178.15488,78.536387 c -0.93362,0 -0.88055,2.385455 0,2.385455"
       id="path15044"
       sodipodi:nodetypes="cc" />
    <path
       style="fill:none;stroke:#aa9e95;stroke-width:0.102284px;stroke-linecap:round;stroke-linejoin:miter;stroke-opacity:1"
       d="m 157.84597,78.536387 c -0.93362,0 -0.88055,2.385455 0,2.385455"
       id="path15054"
       sodipodi:nodetypes="cc" />
    <path
       style="fill:none;stroke:#aa9e95;stroke-width:0.102284;stroke-linecap:round;stroke-linejoin:miter;stroke-miterlimit:4;stroke-dasharray:0.409136, 0.204568;stroke-dashoffset:0;stroke-opacity:1"
       d="m 157.84597,78.536387 c 0.93362,0 0.88055,2.385455 0,2.385455"
       id="path15056"
       sodipodi:nodetypes="cc" />
    <path
       style="fill:none;stroke:#aa9e95;stroke-width:0.102284;stroke-linecap:round;stroke-linejoin:miter;stroke-miterlimit:4;stroke-dasharray:0.409136, 0.204568;stroke-dashoffset:0;stroke-opacity:1"
       d="m 157.51725,78.536387 c -0.93362,0 -0.88055,2.385455 0,2.385455"
       id="path15058"
       sodipodi:nodetypes="cc" />
    <path
       style="fill:none;stroke:#000000;stroke-width:0.264583;stroke-linecap:round;stroke-linejoin:miter;stroke-miterlimit:4;stroke-dasharray:1.05833, 0.529166;stroke-dashoffset:0;stroke-opacity:1"
       d="M 182.20477,79.849979 V 91.918867"
       id="path15060"
       sodipodi:nodetypes="cc" />
    <rect
       style="opacity:1;fill:#ffffff;stroke:none;stroke-width:0.264583;stroke-linecap:round;stroke-linejoin:round;stroke-miterlimit:4;stroke-dasharray:1.05833, 0.529167;stroke-dashoffset:0"
       id="rect15062"
       width="0.49609375"
       height="0.70870537"
       x="181.99757"
       y="85.584358" />
    <path
       style="fill:none;stroke:#000000;stroke-width:0.264583;stroke-linecap:round;stroke-linejoin:miter;stroke-miterlimit:4;stroke-dasharray:1.05833, 0.529166;stroke-dashoffset:0;stroke-opacity:1"
       d="m 184.20093,85.537807 h -4.42665"
       id="path15064" />
    <path
       style="fill:none;stroke:#000000;stroke-width:0.264583;stroke-linecap:round;stroke-linejoin:miter;stroke-miterlimit:4;stroke-dasharray:1.05833, 0.529166;stroke-dashoffset:0;stroke-opacity:1"
       d="m 184.20093,86.266689 h -4.42665"
       id="path15066" />
    <g
       transform="matrix(0,0.13752624,-0.09638392,0,190.83276,79.752837)"
       id="g15070"
       style="display:inline">
      <path
         style="fill:#000000;fill-opacity:1;stroke:none"
         d="m 50.0087,3.0227061 c 2.425745,0.746744 5.012823,0.7122008 7.550759,0.6849483 7.475267,-0.08027 14.951223,-0.039342 22.426897,-0.020646 2.065866,0.00517 4.210218,0.025554 6.075969,0.9125736 C 88.159639,5.5966914 89.691972,7.6982458 90,10 89.307261,9.262159 88.482465,8.6486667 87.576557,8.1974158 85.297754,7.0622986 82.653275,6.9988553 80.107536,6.9734277 73.344129,6.9058728 66.580182,6.9450812 59.816442,6.9528892 56.529683,6.9566834 53.126722,6.929119 50.134192,5.5698678 48.016335,4.607906 46.200968,2.9920752 45,1 43.815115,2.9213533 42.068558,4.4916771 40.032465,5.4662944 36.941889,6.9456618 33.388933,7.0165354 29.962552,7.0265398 23.327154,7.0459139 16.691754,6.9420887 10.056424,6.9779241 7.4704959,6.9918899 4.7850487,7.0497254 2.4647757,8.1914576 1.5457144,8.6436983 0.70717095,9.258984 0,10 0.34151794,7.6910633 1.8791292,5.5924547 3.9777757,4.5709333 5.8118098,3.6782126 7.9223541,3.6028644 9.9615558,3.5550337 17.49377,3.3783611 25.029743,3.3485189 32.562597,3.4954066 35.047171,3.5438548 37.577655,3.6058885 39.964882,2.9155242 41.846492,2.3713797 43.59139,1.3610173 45,0 c 1.390009,1.3953906 3.126297,2.443225 5.0087,3.0227061 z"
         id="path15068"
         inkscape:path-effect="#path-effect15072"
         inkscape:original-d="m 50.0087,3.0227061 c 1.292036,0.5024419 4.985995,0.399272 7.550759,0.6849483 1.282382,0.1428382 18.039431,-0.09915 22.426897,-0.020646 4.387466,0.078504 5.444938,0.5434835 6.075969,0.9125736 C 86.693356,4.9686721 90,10 90,10 90,10 88.182447,8.402454 87.576557,8.1974158 86.970666,7.9923776 84.200716,7.0362075 80.107536,6.9734277 76.014356,6.9106479 60.964516,7.0154518 59.816442,6.9528892 57.520294,6.8277642 51.410387,6.1064871 50.134192,5.5698678 48.857997,5.0332484 45,1 45,1 45,1 38.478896,4.5713892 40.032465,5.4662944 40.895198,5.9632565 37.997093,6.5135007 29.962552,7.0265398 21.92801,7.5395789 11.000434,6.893712 10.056424,6.9779241 9.1124136,7.0621362 3.8409013,7.4088488 2.4647757,8.1914576 1.0886501,8.9740664 0,10 0,10 0,10 5.3337905,6.777155 3.9777757,4.5709333 2.6217609,2.3647115 9.6174962,4.4378151 9.9615558,3.5550337 10.305615,2.6722522 24.999056,3.8199992 32.562597,3.4954066 40.126138,3.1708139 39.372095,2.0337056 39.964882,2.9155242 40.55767,3.7973429 42.243915,0.48797044 45,0 c 2.635001,0.50646149 3.716664,2.5202643 5.0087,3.0227061 z"
         inkscape:connector-curvature="0"
         sodipodi:nodetypes="zsszczsszcsszzczzszcz" />
    </g>
    <text
       xml:space="preserve"
       style="font-style:normal;font-variant:normal;font-weight:normal;font-stretch:normal;font-size:2.82222px;line-height:1.25;font-family:Cochineal;-inkscape-font-specification:Cochineal;font-variant-ligatures:normal;font-variant-caps:normal;font-variant-numeric:normal;font-feature-settings:normal;text-align:start;letter-spacing:0px;word-spacing:0px;writing-mode:lr-tb;text-anchor:start;fill:#000000;fill-opacity:1;stroke:none;stroke-width:0.264583"
       x="-92.633614"
       y="193.34358"
       id="text15078"
       transform="rotate(-90)"><tspan
         sodipodi:role="line"
         id="tspan15074"
         x="-92.633614"
         y="193.34358"
         style="font-style:normal;font-variant:normal;font-weight:normal;font-stretch:normal;font-size:2.82222px;font-family:Cochineal;-inkscape-font-specification:Cochineal;stroke-width:0.264583">To amplifier</tspan><tspan
         sodipodi:role="line"
         x="-92.633614"
         y="196.87135"
         style="font-style:normal;font-variant:normal;font-weight:normal;font-stretch:normal;font-size:2.82222px;font-family:Cochineal;-inkscape-font-specification:Cochineal;stroke-width:0.264583"
         id="tspan15076">and counter</tspan></text>
    <g
       id="g6439"
       style="fill:#000000;stroke-width:0"
       ns2:jacobian_sqrt="0.423334"
       ns2:inkscapeversion="1.0"
       ns2:alignment="middle center"
       ns2:scale="1.199999773228722"
       ns2:preamble="C:\\Users\\flvisa\\Desktop\\lna\\latexify_books\\textext_preamble.tex"
       ns2:text="(a)"
       ns2:pdfconverter="inkscape"
       ns2:texconverter="pdflatex"
       ns2:version="1.1.0"
       transform="matrix(0.42333399,0,0,0.42333399,130.33575,97.41919)">
      <defs
         id="id-bfc48e17-d46c-42ce-8412-2ed8706fcb1d">
        <g
           style="fill:#000000;stroke-width:0"
           id="g15208">
          <symbol
             style="fill:#000000;stroke-width:0"
             overflow="visible"
             id="symbol15194">
            <path
               style="fill:#000000;stroke:none;stroke-width:0"
               d="M 0.5,0 H 4.484375 V -4.8125 H 0.5 Z M 1,-0.5 V -4.3125 H 3.984375 V -0.5 Z m 0,0"
               id="path15192" />
          </symbol>
          <symbol
             style="fill:#000000;stroke-width:0"
             overflow="visible"
             id="symbol15198">
            <path
               style="fill:#000000;stroke:none;stroke-width:0"
               d="M 1.0625,-2.765625 C 1.0625,-4.3125 1.578125,-6 2.5,-6.8125 c 0,0 -0.125,-0.140625 -0.203125,-0.1875 -1.125,0.90625 -1.9375,2.328125 -1.9375,4.234375 0,1.875 0.8125,3.328125 1.9375,4.21875 C 2.375,1.421875 2.5,1.265625 2.5,1.265625 1.578125,0.453125 1.0625,-1.25 1.0625,-2.765625 Z m 0,0"
               id="path15196" />
          </symbol>
          <symbol
             style="fill:#000000;stroke-width:0"
             overflow="visible"
             id="symbol15202">
            <path
               style="fill:#000000;stroke:none;stroke-width:0"
               d="m 1.84375,-0.453125 c -0.375,0 -0.671875,-0.328125 -0.671875,-0.6875 0,-0.390625 0.25,-0.640625 0.609375,-0.78125 C 1.96875,-2 2.453125,-2.140625 2.71875,-2.21875 v 1.359375 c 0,0.109375 -0.53125,0.40625 -0.875,0.40625 z M 2.375,-4.34375 c -0.71875,0 -1.484375,0.53125 -1.78125,0.8125 -0.046875,0.046875 -0.078125,0.203125 -0.078125,0.234375 0,0.21875 0.125,0.421875 0.328125,0.421875 0.25,0 0.40625,-0.140625 0.46875,-0.46875 0.0625,-0.390625 0.1875,-0.640625 0.546875,-0.640625 0.484375,0 0.859375,0.515625 0.859375,0.96875 V -2.75 c 0,0.171875 -0.03125,0.21875 -0.125,0.25 -0.28125,0.140625 -1.171875,0.421875 -1.71875,0.625 -0.234375,0.078125 -0.5,0.40625 -0.5,0.8125 0,0.640625 0.5,1.140625 1.140625,1.140625 0.34375,0 1.109375,-0.53125 1.21875,-0.65625 C 2.796875,-0.28125 3.0625,0.0625 3.34375,0.0625 c 0.203125,0 0.609375,-0.265625 0.734375,-0.375 C 4.109375,-0.359375 4.125,-0.4375 4.125,-0.5 c 0,-0.03125 -0.015625,-0.078125 -0.03125,-0.078125 -0.03125,0.015625 -0.15625,0.125 -0.328125,0.125 -0.234375,0 -0.3125,-0.203125 -0.3125,-0.46875 V -2.96875 c 0,-0.765625 -0.515625,-1.375 -1.078125,-1.375 z m 0,0"
               id="path15200" />
          </symbol>
          <symbol
             style="fill:#000000;stroke-width:0"
             overflow="visible"
             id="symbol15206">
            <path
               style="fill:#000000;stroke:none;stroke-width:0"
               d="M 2.1875,-2.765625 C 2.1875,-4.671875 1.375,-6.09375 0.234375,-7 c -0.0625,0.046875 -0.1875,0.1875 -0.171875,0.1875 0.921875,0.8125 1.40625,2.5 1.40625,4.046875 0,1.515625 -0.484375,3.21875 -1.40625,4.03125 -0.015625,0 0.109375,0.15625 0.171875,0.1875 C 1.375,0.5625 2.1875,-0.890625 2.1875,-2.765625 Z m 0,0"
               id="path15204" />
          </symbol>
        </g>
      </defs>
      <g
         style="fill:#000000;stroke-width:0"
         id="id-412cdaa6-c35c-428f-88e3-afe4b0676dd6"
         transform="translate(-149.071,-127.765)">
        <g
           style="fill:#000000;fill-opacity:1;stroke-width:0"
           id="id-807f0546-f8a6-4195-944c-97dad4429a1b">
          <g
             id="g6427"
             style="fill:#000000;stroke-width:0"
             transform="translate(148.712,134.765)">
            <path
               style="fill:#000000;stroke:none;stroke-width:0"
               d="M 1.0625,-2.765625 C 1.0625,-4.3125 1.578125,-6 2.5,-6.8125 c 0,0 -0.125,-0.140625 -0.203125,-0.1875 -1.125,0.90625 -1.9375,2.328125 -1.9375,4.234375 0,1.875 0.8125,3.328125 1.9375,4.21875 C 2.375,1.421875 2.5,1.265625 2.5,1.265625 1.578125,0.453125 1.0625,-1.25 1.0625,-2.765625 Z m 0,0"
               id="id-075e525f-edc0-4aaf-9d9d-5e922c3b3664" />
          </g>
        </g>
        <g
           style="fill:#000000;fill-opacity:1;stroke-width:0"
           id="id-f15d244d-a9c9-4b5f-8302-9f1984458999">
          <g
             id="g6431"
             style="fill:#000000;stroke-width:0"
             transform="translate(151.013,134.765)">
            <path
               style="fill:#000000;stroke:none;stroke-width:0"
               d="m 1.84375,-0.453125 c -0.375,0 -0.671875,-0.328125 -0.671875,-0.6875 0,-0.390625 0.25,-0.640625 0.609375,-0.78125 C 1.96875,-2 2.453125,-2.140625 2.71875,-2.21875 v 1.359375 c 0,0.109375 -0.53125,0.40625 -0.875,0.40625 z M 2.375,-4.34375 c -0.71875,0 -1.484375,0.53125 -1.78125,0.8125 -0.046875,0.046875 -0.078125,0.203125 -0.078125,0.234375 0,0.21875 0.125,0.421875 0.328125,0.421875 0.25,0 0.40625,-0.140625 0.46875,-0.46875 0.0625,-0.390625 0.1875,-0.640625 0.546875,-0.640625 0.484375,0 0.859375,0.515625 0.859375,0.96875 V -2.75 c 0,0.171875 -0.03125,0.21875 -0.125,0.25 -0.28125,0.140625 -1.171875,0.421875 -1.71875,0.625 -0.234375,0.078125 -0.5,0.40625 -0.5,0.8125 0,0.640625 0.5,1.140625 1.140625,1.140625 0.34375,0 1.109375,-0.53125 1.21875,-0.65625 C 2.796875,-0.28125 3.0625,0.0625 3.34375,0.0625 c 0.203125,0 0.609375,-0.265625 0.734375,-0.375 C 4.109375,-0.359375 4.125,-0.4375 4.125,-0.5 c 0,-0.03125 -0.015625,-0.078125 -0.03125,-0.078125 -0.03125,0.015625 -0.15625,0.125 -0.328125,0.125 -0.234375,0 -0.3125,-0.203125 -0.3125,-0.46875 V -2.96875 c 0,-0.765625 -0.515625,-1.375 -1.078125,-1.375 z m 0,0"
               id="id-21f545d2-8f9a-4a0f-8d04-06c6cc127786" />
          </g>
        </g>
        <g
           style="fill:#000000;fill-opacity:1;stroke-width:0"
           id="id-6c9c1a3d-30d4-4470-8fbe-a6830b19de24">
          <g
             id="g6435"
             style="fill:#000000;stroke-width:0"
             transform="translate(155.108,134.765)">
            <path
               style="fill:#000000;stroke:none;stroke-width:0"
               d="M 2.1875,-2.765625 C 2.1875,-4.671875 1.375,-6.09375 0.234375,-7 c -0.0625,0.046875 -0.1875,0.1875 -0.171875,0.1875 0.921875,0.8125 1.40625,2.5 1.40625,4.046875 0,1.515625 -0.484375,3.21875 -1.40625,4.03125 -0.015625,0 0.109375,0.15625 0.171875,0.1875 C 1.375,0.5625 2.1875,-0.890625 2.1875,-2.765625 Z m 0,0"
               id="id-1a2c5bf8-b996-4587-8d65-19b19ebd0515" />
          </g>
        </g>
      </g>
    </g>
    <g
       id="g7059"
       style="fill:#000000;stroke-width:0"
       ns2:jacobian_sqrt="0.423334"
       ns2:inkscapeversion="1.0"
       ns2:alignment="middle center"
       ns2:scale="1.1999997448823154"
       ns2:preamble="C:\\Users\\flvisa\\Desktop\\lna\\latexify_books\\textext_preamble.tex"
       ns2:text="(b)"
       ns2:pdfconverter="inkscape"
       ns2:texconverter="pdflatex"
       ns2:version="1.1.0"
       transform="matrix(0.42333399,0,0,0.42333399,172.02112,97.418845)">
      <defs
         id="id-3fb34fbc-c86b-4450-9731-65ba8a734e8b">
        <g
           style="fill:#000000;stroke-width:0"
           id="g15238">
          <symbol
             style="fill:#000000;stroke-width:0"
             overflow="visible"
             id="symbol15224">
            <path
               style="fill:#000000;stroke:none;stroke-width:0"
               d="M 0.5,0 H 4.484375 V -4.8125 H 0.5 Z M 1,-0.5 V -4.3125 H 3.984375 V -0.5 Z m 0,0"
               id="path15222" />
          </symbol>
          <symbol
             style="fill:#000000;stroke-width:0"
             overflow="visible"
             id="symbol15228">
            <path
               style="fill:#000000;stroke:none;stroke-width:0"
               d="M 1.0625,-2.765625 C 1.0625,-4.3125 1.578125,-6 2.5,-6.8125 c 0,0 -0.125,-0.140625 -0.203125,-0.1875 -1.125,0.90625 -1.9375,2.328125 -1.9375,4.234375 0,1.875 0.8125,3.328125 1.9375,4.21875 C 2.375,1.421875 2.5,1.265625 2.5,1.265625 1.578125,0.453125 1.0625,-1.25 1.0625,-2.765625 Z m 0,0"
               id="path15226" />
          </symbol>
          <symbol
             style="fill:#000000;stroke-width:0"
             overflow="visible"
             id="symbol15232">
            <path
               style="fill:#000000;stroke:none;stroke-width:0"
               d="m 2.09375,0.0625 c 1.40625,0 2.4375,-1.0625 2.4375,-2.328125 0,-0.890625 -0.625,-2 -1.8125,-2 -0.375,0 -1.046875,0.421875 -1.203125,0.53125 C 1.453125,-3.6875 1.46875,-3.78125 1.46875,-3.84375 V -5.75 c 0,-0.546875 0.09375,-0.84375 0.09375,-0.84375 0,-0.078125 -0.046875,-0.171875 -0.09375,-0.171875 C 1.046875,-6.5625 0.5625,-6.421875 0.0625,-6.375 c -0.046875,0.015625 -0.015625,0.265625 -0.015625,0.265625 0.28125,0 0.546875,0.03125 0.609375,0.171875 0.046875,0.109375 0.046875,0.375 0.046875,0.5 v 4.375 c 0,0.1875 -0.015625,0.515625 -0.109375,0.71875 0,0.046875 0.078125,0.203125 0.125,0.203125 0.21875,-0.078125 0.421875,0 0.640625,0.0625 C 1.578125,-0.015625 1.9375,0.0625 2.09375,0.0625 Z M 2.25,-3.6875 c 0.890625,0 1.453125,0.671875 1.453125,1.796875 0,0.796875 -0.609375,1.625 -1.328125,1.625 -0.4375,0 -0.90625,-0.265625 -0.90625,-0.6875 V -3.3125 c 0,-0.0625 0,-0.09375 0.03125,-0.109375 C 1.59375,-3.515625 2,-3.6875 2.25,-3.6875 Z m 0,0"
               id="path15230" />
          </symbol>
          <symbol
             style="fill:#000000;stroke-width:0"
             overflow="visible"
             id="symbol15236">
            <path
               style="fill:#000000;stroke:none;stroke-width:0"
               d="M 2.1875,-2.765625 C 2.1875,-4.671875 1.375,-6.09375 0.234375,-7 c -0.0625,0.046875 -0.1875,0.1875 -0.171875,0.1875 0.921875,0.8125 1.40625,2.5 1.40625,4.046875 0,1.515625 -0.484375,3.21875 -1.40625,4.03125 -0.015625,0 0.109375,0.15625 0.171875,0.1875 C 1.375,0.5625 2.1875,-0.890625 2.1875,-2.765625 Z m 0,0"
               id="path15234" />
          </symbol>
        </g>
      </defs>
      <g
         style="fill:#000000;stroke-width:0"
         id="id-18ff5d7c-4f88-4ce5-8586-4362d264fb7f"
         transform="translate(-149.071,-127.765)">
        <g
           style="fill:#000000;fill-opacity:1;stroke-width:0"
           id="id-cd9c4bd4-af9c-4951-8c1c-5a396856dbfe">
          <g
             id="g7048"
             style="fill:#000000;stroke-width:0"
             transform="translate(148.712,134.765)">
            <path
               style="fill:#000000;stroke:none;stroke-width:0"
               d="M 1.0625,-2.765625 C 1.0625,-4.3125 1.578125,-6 2.5,-6.8125 c 0,0 -0.125,-0.140625 -0.203125,-0.1875 -1.125,0.90625 -1.9375,2.328125 -1.9375,4.234375 0,1.875 0.8125,3.328125 1.9375,4.21875 C 2.375,1.421875 2.5,1.265625 2.5,1.265625 1.578125,0.453125 1.0625,-1.25 1.0625,-2.765625 Z m 0,0"
               id="id-3ae1ebc5-b1f1-48fd-9c87-de5a36943d13" />
          </g>
          <g
             id="g7051"
             style="fill:#000000;stroke-width:0"
             transform="translate(151.252,134.765)">
            <path
               style="fill:#000000;stroke:none;stroke-width:0"
               d="m 2.09375,0.0625 c 1.40625,0 2.4375,-1.0625 2.4375,-2.328125 0,-0.890625 -0.625,-2 -1.8125,-2 -0.375,0 -1.046875,0.421875 -1.203125,0.53125 C 1.453125,-3.6875 1.46875,-3.78125 1.46875,-3.84375 V -5.75 c 0,-0.546875 0.09375,-0.84375 0.09375,-0.84375 0,-0.078125 -0.046875,-0.171875 -0.09375,-0.171875 C 1.046875,-6.5625 0.5625,-6.421875 0.0625,-6.375 c -0.046875,0.015625 -0.015625,0.265625 -0.015625,0.265625 0.28125,0 0.546875,0.03125 0.609375,0.171875 0.046875,0.109375 0.046875,0.375 0.046875,0.5 v 4.375 c 0,0.1875 -0.015625,0.515625 -0.109375,0.71875 0,0.046875 0.078125,0.203125 0.125,0.203125 0.21875,-0.078125 0.421875,0 0.640625,0.0625 C 1.578125,-0.015625 1.9375,0.0625 2.09375,0.0625 Z M 2.25,-3.6875 c 0.890625,0 1.453125,0.671875 1.453125,1.796875 0,0.796875 -0.609375,1.625 -1.328125,1.625 -0.4375,0 -0.90625,-0.265625 -0.90625,-0.6875 V -3.3125 c 0,-0.0625 0,-0.09375 0.03125,-0.109375 C 1.59375,-3.515625 2,-3.6875 2.25,-3.6875 Z m 0,0"
               id="id-c1de3dc2-d773-4199-99cf-f9016a55a396" />
          </g>
        </g>
        <g
           style="fill:#000000;fill-opacity:1;stroke-width:0"
           id="id-dfec57ec-917e-464b-8d1a-829e4630c9d1">
          <g
             id="g7055"
             style="fill:#000000;stroke-width:0"
             transform="translate(155.865,134.765)">
            <path
               style="fill:#000000;stroke:none;stroke-width:0"
               d="M 2.1875,-2.765625 C 2.1875,-4.671875 1.375,-6.09375 0.234375,-7 c -0.0625,0.046875 -0.1875,0.1875 -0.171875,0.1875 0.921875,0.8125 1.40625,2.5 1.40625,4.046875 0,1.515625 -0.484375,3.21875 -1.40625,4.03125 -0.015625,0 0.109375,0.15625 0.171875,0.1875 C 1.375,0.5625 2.1875,-0.890625 2.1875,-2.765625 Z m 0,0"
               id="id-710f1c23-24ca-4d68-a8b1-802b45b876d4" />
          </g>
        </g>
      </g>
    </g>
    <path
       style="fill:none;stroke:#aa9e95;stroke-width:0.264583px;stroke-linecap:round;stroke-linejoin:round;stroke-opacity:1"
       d="m 157.79978,76.046622 h 20.63763"
       id="path15275" />
    <path
       style="fill:none;stroke:#aa9e95;stroke-width:0.264583px;stroke-linecap:round;stroke-linejoin:round;stroke-opacity:1"
       d="m 157.79978,83.157299 h 20.63763"
       id="path15277" />
    <g
       id="g14826"
       transform="matrix(0,-0.52105733,0.52105733,0,123.7777,150.36961)">
      <path
         style="fill:none;stroke:#000000;stroke-width:0.264583px;stroke-linecap:round;stroke-linejoin:miter;stroke-opacity:1"
         d="m 121.90855,81.161111 v 9.33129"
         id="path14822" />
      <path
         style="fill:none;stroke:#000000;stroke-width:0.79375;stroke-linecap:butt;stroke-linejoin:miter;stroke-miterlimit:4;stroke-dasharray:none;stroke-opacity:1"
         d="m 123.63308,83.703005 v 4.181361"
         id="path14824" />
    </g>
    <g
       id="g14832"
       transform="matrix(0,-0.52105733,0.52105733,0,123.7777,151.95712)">
      <path
         style="fill:none;stroke:#000000;stroke-width:0.264583px;stroke-linecap:round;stroke-linejoin:miter;stroke-opacity:1"
         d="m 121.90855,81.161111 v 9.33129"
         id="path14828" />
      <path
         style="fill:none;stroke:#000000;stroke-width:0.79375;stroke-linecap:butt;stroke-linejoin:miter;stroke-miterlimit:4;stroke-dasharray:none;stroke-opacity:1"
         d="m 123.63308,83.703005 v 4.181361"
         id="path14830" />
    </g>
    <g
       id="g14838"
       transform="matrix(0,-0.52105733,0.52105733,0,123.7777,153.54463)">
      <path
         style="fill:none;stroke:#000000;stroke-width:0.264583px;stroke-linecap:round;stroke-linejoin:miter;stroke-opacity:1"
         d="m 121.90855,81.161111 v 9.33129"
         id="path14834" />
      <path
         style="fill:none;stroke:#000000;stroke-width:0.79375;stroke-linecap:butt;stroke-linejoin:miter;stroke-miterlimit:4;stroke-dasharray:none;stroke-opacity:1"
         d="m 123.63308,83.703005 v 4.181361"
         id="path14836" />
    </g>
    <g
       id="g14151"
       transform="matrix(0,-0.52105733,0.52105733,0,77.740039,149.31127)">
      <path
         style="fill:none;stroke:#000000;stroke-width:0.264583px;stroke-linecap:round;stroke-linejoin:miter;stroke-opacity:1"
         d="m 121.90855,81.161111 v 9.33129"
         id="path34292" />
      <path
         style="fill:none;stroke:#000000;stroke-width:0.79375;stroke-linecap:butt;stroke-linejoin:miter;stroke-miterlimit:4;stroke-dasharray:none;stroke-opacity:1"
         d="m 123.63308,83.703005 v 4.181361"
         id="path34294" />
    </g>
    <g
       id="g14157"
       transform="matrix(0,-0.52105733,0.52105733,0,77.740039,150.89878)">
      <path
         style="fill:none;stroke:#000000;stroke-width:0.264583px;stroke-linecap:round;stroke-linejoin:miter;stroke-opacity:1"
         d="m 121.90855,81.161111 v 9.33129"
         id="path14153" />
      <path
         style="fill:none;stroke:#000000;stroke-width:0.79375;stroke-linecap:butt;stroke-linejoin:miter;stroke-miterlimit:4;stroke-dasharray:none;stroke-opacity:1"
         d="m 123.63308,83.703005 v 4.181361"
         id="path14155" />
    </g>
    <g
       id="g14163"
       transform="matrix(0,-0.52105733,0.52105733,0,77.740039,152.48629)">
      <path
         style="fill:none;stroke:#000000;stroke-width:0.264583px;stroke-linecap:round;stroke-linejoin:miter;stroke-opacity:1"
         d="m 121.90855,81.161111 v 9.33129"
         id="path14159" />
      <path
         style="fill:none;stroke:#000000;stroke-width:0.79375;stroke-linecap:butt;stroke-linejoin:miter;stroke-miterlimit:4;stroke-dasharray:none;stroke-opacity:1"
         d="m 123.63308,83.703005 v 4.181361"
         id="path14161" />
    </g>
  </g>
</svg>
