<?xml version="1.0" encoding="UTF-8" standalone="no"?>
<svg
   xmlns:ns2="http://www.iki.fi/pav/software/textext/"
   xmlns:dc="http://purl.org/dc/elements/1.1/"
   xmlns:cc="http://creativecommons.org/ns#"
   xmlns:rdf="http://www.w3.org/1999/02/22-rdf-syntax-ns#"
   xmlns:svg="http://www.w3.org/2000/svg"
   xmlns="http://www.w3.org/2000/svg"
   xmlns:sodipodi="http://sodipodi.sourceforge.net/DTD/sodipodi-0.dtd"
   xmlns:inkscape="http://www.inkscape.org/namespaces/inkscape"
   width="48.329067mm"
   height="33.901943mm"
   viewBox="0 0 48.329067 33.901943"
   version="1.1"
   id="svg11493"
   inkscape:version="1.0.1 (3bc2e813f5, 2020-09-07)"
   sodipodi:docname="fig_12_2.svg">
  <defs
     id="defs11487">
    <marker
       style="overflow:visible"
       id="marker13263"
       refX="0"
       refY="0"
       orient="auto"
       inkscape:stockid="Arrow1Mstart"
       inkscape:isstock="true">
      <path
         transform="matrix(0.4,0,0,0.4,4,0)"
         style="fill:#000000;fill-opacity:1;fill-rule:evenodd;stroke:#000000;stroke-width:1pt;stroke-opacity:1"
         d="M 0,0 5,-5 -12.5,0 5,5 Z"
         id="path13261" />
    </marker>
    <marker
       style="overflow:visible"
       id="marker13199"
       refX="0"
       refY="0"
       orient="auto"
       inkscape:stockid="Arrow1Mend"
       inkscape:isstock="true">
      <path
         transform="matrix(-0.4,0,0,-0.4,-4,0)"
         style="fill:#000000;fill-opacity:1;fill-rule:evenodd;stroke:#000000;stroke-width:1pt;stroke-opacity:1"
         d="M 0,0 5,-5 -12.5,0 5,5 Z"
         id="path13197" />
    </marker>
    <pattern
       id="EMFhbasepattern"
       patternUnits="userSpaceOnUse"
       width="6"
       height="6"
       x="0"
       y="0" />
    <g
       id="g3458"
       style="fill:#000000;stroke-width:0">
      <symbol
         id="symbol3452"
         overflow="visible"
         style="fill:#000000;stroke-width:0">
        <path
           id="path3450"
           d=""
           style="fill:#000000;stroke:none;stroke-width:0" />
      </symbol>
      <symbol
         id="symbol3456"
         overflow="visible"
         style="fill:#000000;stroke-width:0">
        <path
           id="path3454"
           d="M 1.359375,-5.640625 0.453125,-1 C 0.40625,-0.78125 0.375,-0.546875 0.375,-0.46875 c 0,0.296875 0.125,0.53125 0.34375,0.53125 0.484375,0 1.203125,-0.765625 1.3125,-0.953125 0,-0.0625 -0.0625,-0.171875 -0.09375,-0.171875 C 1.90625,-1.03125 1.453125,-0.5 1.21875,-0.5 1.125,-0.5 1.125,-0.65625 1.125,-0.75 c 0,-0.046875 0.03125,-0.28125 0.046875,-0.3125 l 0.96875,-4.90625 c 0.046875,-0.234375 0.125,-0.671875 0.125,-0.75 0,-0.0625 -0.015625,-0.15625 -0.0625,-0.1875 C 1.984375,-6.828125 1.421875,-6.625 0.875,-6.578125 0.828125,-6.546875 0.796875,-6.40625 0.828125,-6.375 c 0.15625,0 0.625,0.015625 0.625,0.203125 0,0.109375 -0.0625,0.34375 -0.09375,0.53125 z m 0,0"
           style="fill:#000000;stroke:none;stroke-width:0" />
      </symbol>
    </g>
    <g
       id="g13585">
      <symbol
         overflow="visible"
         id="symbol13579">
        <path
           style="stroke:none"
           d="M 0.5,0 H 4.484375 V -4.8125 H 0.5 Z M 1,-0.5 V -4.3125 H 3.984375 V -0.5 Z m 0,0"
           id="path13577" />
      </symbol>
      <symbol
         overflow="visible"
         id="symbol13583">
        <path
           style="stroke:none"
           d="m 1.578125,-6.40625 c -0.375,0 -0.734375,-0.015625 -1.140625,-0.03125 -0.046875,0.046875 -0.03125,0.25 0,0.3125 0.125,0 0.640625,0.03125 0.671875,0.140625 0.046875,0.15625 0.046875,0.4375 0.046875,0.734375 v 4.09375 c 0,0.28125 0,0.5625 -0.046875,0.71875 -0.03125,0.109375 -0.546875,0.15625 -0.671875,0.15625 -0.03125,0.046875 -0.046875,0.265625 0,0.3125 0.40625,-0.015625 0.765625,-0.046875 1.140625,-0.046875 0.390625,0 0.75,0.03125 1.140625,0.046875 0.046875,-0.046875 0.046875,-0.265625 0,-0.3125 -0.109375,0 -0.640625,-0.046875 -0.671875,-0.15625 C 2,-0.59375 2,-0.875 2,-1.15625 v -1.9375 c 0,0 0,0 0.015625,-0.015625 C 2.046875,-3.125 2.1875,-3.15625 3.546875,-3.15625 c 0.5,0 1.03125,0.03125 1.5,0.03125 0,0 0.015625,0.015625 0.015625,0.03125 v 1.9375 c 0,0.28125 0,0.5625 -0.046875,0.71875 -0.03125,0.109375 -0.546875,0.15625 -0.671875,0.15625 -0.03125,0.046875 -0.046875,0.265625 0,0.3125 C 4.75,0.015625 5.109375,-0.015625 5.5,-0.015625 c 0.375,0 0.734375,0.03125 1.125,0.046875 0.046875,-0.046875 0.046875,-0.265625 0,-0.3125 -0.109375,0 -0.640625,-0.046875 -0.65625,-0.15625 -0.0625,-0.15625 -0.0625,-0.4375 -0.0625,-0.71875 V -5.25 c 0,-0.296875 0,-0.578125 0.0625,-0.734375 C 5.984375,-6.09375 6.515625,-6.125 6.625,-6.125 c 0.046875,-0.0625 0.046875,-0.265625 0,-0.3125 -0.390625,0.015625 -0.75,0.03125 -1.125,0.03125 -0.390625,0 -0.75,-0.015625 -1.15625,-0.03125 -0.046875,0.046875 -0.03125,0.25 0,0.3125 0.125,0 0.640625,0.03125 0.671875,0.140625 C 5.0625,-5.828125 5.0625,-5.546875 5.0625,-5.25 v 1.6875 c 0,0.03125 -0.015625,0.03125 -0.015625,0.03125 C 4.609375,-3.515625 4,-3.5 3.546875,-3.5 3,-3.5 2.5,-3.515625 2.03125,-3.53125 c 0,0 -0.03125,0 -0.03125,-0.015625 V -5.25 C 2,-5.546875 2,-5.828125 2.046875,-5.984375 2.078125,-6.09375 2.609375,-6.125 2.71875,-6.125 c 0.046875,-0.0625 0.046875,-0.265625 0,-0.3125 -0.390625,0.015625 -0.75,0.03125 -1.140625,0.03125 z m 0,0"
           id="path13581" />
      </symbol>
    </g>
    <pattern
       id="EMFhbasepattern-5"
       patternUnits="userSpaceOnUse"
       width="6"
       height="6"
       x="0"
       y="0" />
    <g
       id="g16160"
       style="fill:#506a68;fill-opacity:1;stroke-width:0">
      <symbol
         overflow="visible"
         id="symbol16154"
         style="fill:#506a68;fill-opacity:1;stroke-width:0">
        <path
           style="fill:#506a68;fill-opacity:1;stroke:none;stroke-width:0"
           d=""
           id="path16152" />
      </symbol>
      <symbol
         overflow="visible"
         id="symbol16158"
         style="fill:#506a68;fill-opacity:1;stroke-width:0">
        <path
           style="fill:#506a68;fill-opacity:1;stroke:none;stroke-width:0"
           d="m 1.578125,-0.484375 c 0,-0.15625 0.0625,-0.5 0.09375,-0.609375 l 0.375,-2 C 2.078125,-3.1875 2.5,-3.1875 2.75,-3.1875 c 0.34375,0 0.890625,0 0.984375,0.078125 0.0625,0.0625 0.109375,0.125 0.140625,0.703125 0,0.046875 0.046875,0.078125 0.125,0.078125 0.0625,0 0.140625,-0.015625 0.15625,-0.03125 l 0.375,-1.90625 C 4.5,-4.296875 4.453125,-4.3125 4.375,-4.3125 c -0.0625,0 -0.140625,0.015625 -0.15625,0.0625 -0.296875,0.671875 -0.265625,0.734375 -1.171875,0.734375 h -0.5 c -0.1875,0 -0.390625,-0.015625 -0.390625,-0.0625 l 0.375,-1.9375 c 0.046875,-0.28125 0.125,-0.5625 0.203125,-0.71875 0.046875,-0.09375 0.5625,-0.125 0.671875,-0.125 h 0.796875 c 0.5,0 0.84375,0.203125 0.890625,1.015625 0,0.046875 0.046875,0.0625 0.109375,0.0625 0.078125,0 0.15625,-0.015625 0.1875,-0.046875 C 5.390625,-5.625 5.375,-5.90625 5.375,-6.21875 c 0,-0.15625 0,-0.3125 0.015625,-0.484375 -1.03125,0 -2.15625,0.078125 -3.03125,0.078125 C 2,-6.625 1.625,-6.65625 1.25,-6.671875 c -0.046875,0.03125 -0.078125,0.140625 -0.078125,0.21875 0,0.03125 0,0.046875 0.015625,0.0625 0.109375,0 0.609375,0.0625 0.609375,0.171875 v 0.078125 c 0,0.15625 -0.03125,0.40625 -0.078125,0.65625 L 0.875,-1.171875 C 0.8125,-0.875 0.765625,-0.59375 0.6875,-0.421875 0.640625,-0.3125 0.109375,-0.265625 0,-0.265625 c -0.046875,0.046875 -0.0625,0.140625 -0.0625,0.21875 0,0.03125 0,0.0625 0.015625,0.078125 C 0.3125,0.03125 0.625,0 1.0625,0 2.3125,0 3.234375,0.046875 4.25,0.046875 4.40625,-0.40625 4.8125,-1.09375 5.09375,-1.640625 5.078125,-1.671875 4.96875,-1.6875 4.875,-1.6875 c -0.0625,0 -0.125,0.015625 -0.15625,0.046875 -0.25,0.546875 -0.515625,0.84375 -0.78125,1.015625 -0.3125,0.21875 -0.734375,0.328125 -1.25,0.328125 H 2.25 c -0.390625,0 -0.671875,0.03125 -0.671875,-0.1875 z m 0,0"
           id="path16156" />
      </symbol>
    </g>
    <g
       id="g19731">
      <symbol
         overflow="visible"
         id="symbol19725">
        <path
           style="stroke:none"
           d=""
           id="path19723" />
      </symbol>
      <symbol
         overflow="visible"
         id="symbol19729">
        <path
           style="stroke:none"
           d="M 1.171875,-3.09375 0.75,-1 c -0.28125,1.5 -0.578125,2.15625 -1.640625,2.96875 0,0.078125 0.046875,0.21875 0.109375,0.21875 C -0.515625,2.109375 0.671875,1.3125 1.09375,0.75 1.5,0.203125 1.796875,-0.359375 1.96875,-1.203125 2.109375,-1.953125 2.34375,-3.1875 2.34375,-3.1875 2.359375,-3.296875 2.4375,-3.65625 2.4375,-3.78125 2.4375,-4.25 2.15625,-4.5 1.765625,-4.5 c -0.546875,0 -1.375,0.875 -1.546875,1.203125 0,0.0625 0.0625,0.265625 0.125,0.265625 0.03125,-0.0625 0.5,-0.59375 0.71875,-0.59375 0.109375,0 0.15625,0.109375 0.15625,0.203125 0,0.046875 -0.046875,0.28125 -0.046875,0.328125 z m 1.1875,-3.8125 c -0.421875,0 -0.78125,0.40625 -0.78125,0.84375 0,0.34375 0.25,0.640625 0.578125,0.640625 0.421875,0 0.796875,-0.421875 0.796875,-0.859375 0,-0.34375 -0.25,-0.625 -0.59375,-0.625 z m 0,0"
           id="path19727" />
      </symbol>
    </g>
  </defs>
  <sodipodi:namedview
     id="base"
     pagecolor="#ffffff"
     bordercolor="#666666"
     borderopacity="1.0"
     inkscape:pageopacity="0.0"
     inkscape:pageshadow="2"
     inkscape:zoom="0.7"
     inkscape:cx="83.844242"
     inkscape:cy="173.79174"
     inkscape:document-units="mm"
     inkscape:current-layer="layer1"
     inkscape:document-rotation="0"
     showgrid="false"
     inkscape:window-width="1600"
     inkscape:window-height="837"
     inkscape:window-x="-8"
     inkscape:window-y="-8"
     inkscape:window-maximized="1" />
  <metadata
     id="metadata11490">
    <rdf:RDF>
      <cc:Work
         rdf:about="">
        <dc:format>image/svg+xml</dc:format>
        <dc:type
           rdf:resource="http://purl.org/dc/dcmitype/StillImage" />
        <dc:title />
      </cc:Work>
    </rdf:RDF>
  </metadata>
  <g
     inkscape:label="Layer 1"
     inkscape:groupmode="layer"
     id="layer1"
     transform="translate(-133.76992,-28.846845)">
    <path
       style="fill:none;stroke:#000000;stroke-width:0.264583px;stroke-linecap:butt;stroke-linejoin:round;stroke-opacity:1;marker-start:url(#marker13263);marker-end:url(#marker13199)"
       d="m 139.78331,29.368254 v 28.988445 h 41.79427"
       id="path13195" />
    <path
       style="fill:none;stroke:#9e7867;stroke-width:0.396875;stroke-linecap:round;stroke-linejoin:miter;stroke-miterlimit:4;stroke-dasharray:1.5875, 0.79375;stroke-dashoffset:0;stroke-opacity:1"
       d="m 139.81671,42.965591 h 31.72377 c 5.32146,0 6.9635,-11.96031 6.9635,-11.96031"
       id="path13355"
       sodipodi:nodetypes="ccc" />
    <path
       style="fill:none;stroke:#506a65;stroke-width:0.529167;stroke-linecap:round;stroke-linejoin:round;stroke-miterlimit:4;stroke-dasharray:none;stroke-opacity:1"
       d="m 139.78331,58.356699 c 3.42691,-3.940002 9.72135,-12.686987 15.24387,-14.554147 3.0594,-1.034382 3.39724,-0.887074 16.36075,-0.887074"
       id="path13357"
       sodipodi:nodetypes="csc" />
    <g
       transform="matrix(0.42333399,0,0,0.42333399,179.26888,59.891336)"
       ns2:version="1.1.0"
       ns2:texconverter="pdflatex"
       ns2:pdfconverter="inkscape"
       ns2:text="$E$\n"
       ns2:preamble="C:\\Users\\flvisa\\Desktop\\lna\\latexify_books\\textext_preamble.tex"
       ns2:scale="1.1999998866143555"
       ns2:alignment="middle center"
       ns2:inkscapeversion="1.0.1"
       ns2:jacobian_sqrt="0.423334"
       style="fill:#000000;fill-opacity:1;stroke-width:0"
       id="g11760">
      <defs
         id="id-9a0b3fc2-1e99-423f-8f80-a530d18aa3ce">
        <g
           id="g13406"
           style="fill:#506a68;fill-opacity:1;stroke-width:0">
          <symbol
             overflow="visible"
             id="symbol13400"
             style="fill:#506a68;fill-opacity:1;stroke-width:0">
            <path
               style="fill:#506a68;fill-opacity:1;stroke:none;stroke-width:0"
               d=""
               id="path13398" />
          </symbol>
          <symbol
             overflow="visible"
             id="symbol13404"
             style="fill:#506a68;fill-opacity:1;stroke-width:0">
            <path
               style="fill:#506a68;fill-opacity:1;stroke:none;stroke-width:0"
               d="m 1.578125,-0.484375 c 0,-0.15625 0.0625,-0.5 0.09375,-0.609375 l 0.375,-2 C 2.078125,-3.1875 2.5,-3.1875 2.75,-3.1875 c 0.34375,0 0.890625,0 0.984375,0.078125 0.0625,0.0625 0.109375,0.125 0.140625,0.703125 0,0.046875 0.046875,0.078125 0.125,0.078125 0.0625,0 0.140625,-0.015625 0.15625,-0.03125 l 0.375,-1.90625 C 4.5,-4.296875 4.453125,-4.3125 4.375,-4.3125 c -0.0625,0 -0.140625,0.015625 -0.15625,0.0625 -0.296875,0.671875 -0.265625,0.734375 -1.171875,0.734375 h -0.5 c -0.1875,0 -0.390625,-0.015625 -0.390625,-0.0625 l 0.375,-1.9375 c 0.046875,-0.28125 0.125,-0.5625 0.203125,-0.71875 0.046875,-0.09375 0.5625,-0.125 0.671875,-0.125 h 0.796875 c 0.5,0 0.84375,0.203125 0.890625,1.015625 0,0.046875 0.046875,0.0625 0.109375,0.0625 0.078125,0 0.15625,-0.015625 0.1875,-0.046875 C 5.390625,-5.625 5.375,-5.90625 5.375,-6.21875 c 0,-0.15625 0,-0.3125 0.015625,-0.484375 -1.03125,0 -2.15625,0.078125 -3.03125,0.078125 C 2,-6.625 1.625,-6.65625 1.25,-6.671875 c -0.046875,0.03125 -0.078125,0.140625 -0.078125,0.21875 0,0.03125 0,0.046875 0.015625,0.0625 0.109375,0 0.609375,0.0625 0.609375,0.171875 v 0.078125 c 0,0.15625 -0.03125,0.40625 -0.078125,0.65625 L 0.875,-1.171875 C 0.8125,-0.875 0.765625,-0.59375 0.6875,-0.421875 0.640625,-0.3125 0.109375,-0.265625 0,-0.265625 c -0.046875,0.046875 -0.0625,0.140625 -0.0625,0.21875 0,0.03125 0,0.0625 0.015625,0.078125 C 0.3125,0.03125 0.625,0 1.0625,0 2.3125,0 3.234375,0.046875 4.25,0.046875 4.40625,-0.40625 4.8125,-1.09375 5.09375,-1.640625 5.078125,-1.671875 4.96875,-1.6875 4.875,-1.6875 c -0.0625,0 -0.125,0.015625 -0.15625,0.046875 -0.25,0.546875 -0.515625,0.84375 -0.78125,1.015625 -0.3125,0.21875 -0.734375,0.328125 -1.25,0.328125 H 2.25 c -0.390625,0 -0.671875,0.03125 -0.671875,-0.1875 z m 0,0"
               id="path13402" />
          </symbol>
        </g>
      </defs>
      <g
         id="id-3b85c438-0085-40f7-ba43-2f74de3c274f"
         transform="translate(-149.048,-128.062)"
         style="fill:#000000;fill-opacity:1;stroke-width:0">
        <g
           style="fill:#000000;fill-opacity:1;stroke-width:0"
           id="id-1a21f26a-1593-40e1-82c8-3be83014c1d1">
          <g
             transform="translate(149.111,134.765)"
             style="fill:#000000;fill-opacity:1;stroke-width:0"
             id="g11756">
            <path
               style="fill:#000000;fill-opacity:1;stroke:none;stroke-width:0"
               d="m 1.578125,-0.484375 c 0,-0.15625 0.0625,-0.5 0.09375,-0.609375 l 0.375,-2 C 2.078125,-3.1875 2.5,-3.1875 2.75,-3.1875 c 0.34375,0 0.890625,0 0.984375,0.078125 0.0625,0.0625 0.109375,0.125 0.140625,0.703125 0,0.046875 0.046875,0.078125 0.125,0.078125 0.0625,0 0.140625,-0.015625 0.15625,-0.03125 l 0.375,-1.90625 C 4.5,-4.296875 4.453125,-4.3125 4.375,-4.3125 c -0.0625,0 -0.140625,0.015625 -0.15625,0.0625 -0.296875,0.671875 -0.265625,0.734375 -1.171875,0.734375 h -0.5 c -0.1875,0 -0.390625,-0.015625 -0.390625,-0.0625 l 0.375,-1.9375 c 0.046875,-0.28125 0.125,-0.5625 0.203125,-0.71875 0.046875,-0.09375 0.5625,-0.125 0.671875,-0.125 h 0.796875 c 0.5,0 0.84375,0.203125 0.890625,1.015625 0,0.046875 0.046875,0.0625 0.109375,0.0625 0.078125,0 0.15625,-0.015625 0.1875,-0.046875 C 5.390625,-5.625 5.375,-5.90625 5.375,-6.21875 c 0,-0.15625 0,-0.3125 0.015625,-0.484375 -1.03125,0 -2.15625,0.078125 -3.03125,0.078125 C 2,-6.625 1.625,-6.65625 1.25,-6.671875 c -0.046875,0.03125 -0.078125,0.140625 -0.078125,0.21875 0,0.03125 0,0.046875 0.015625,0.0625 0.109375,0 0.609375,0.0625 0.609375,0.171875 v 0.078125 c 0,0.15625 -0.03125,0.40625 -0.078125,0.65625 L 0.875,-1.171875 C 0.8125,-0.875 0.765625,-0.59375 0.6875,-0.421875 0.640625,-0.3125 0.109375,-0.265625 0,-0.265625 c -0.046875,0.046875 -0.0625,0.140625 -0.0625,0.21875 0,0.03125 0,0.0625 0.015625,0.078125 C 0.3125,0.03125 0.625,0 1.0625,0 2.3125,0 3.234375,0.046875 4.25,0.046875 4.40625,-0.40625 4.8125,-1.09375 5.09375,-1.640625 5.078125,-1.671875 4.96875,-1.6875 4.875,-1.6875 c -0.0625,0 -0.125,0.015625 -0.15625,0.046875 -0.25,0.546875 -0.515625,0.84375 -0.78125,1.015625 -0.3125,0.21875 -0.734375,0.328125 -1.25,0.328125 H 2.25 c -0.390625,0 -0.671875,0.03125 -0.671875,-0.1875 z m 0,0"
               id="id-a9f1758b-e9b2-43af-9e3e-cb0c423b8ab2" />
          </g>
        </g>
      </g>
    </g>
    <g
       transform="matrix(0.423334,0,0,0.423334,136.584,29.9251)"
       ns2:version="1.1.0"
       ns2:texconverter="pdflatex"
       ns2:pdfconverter="inkscape"
       ns2:text="$j$\n\n\n\n\n\n"
       ns2:preamble="C:\\Users\\flvisa\\Desktop\\lna\\latexify_books\\textext_preamble.tex"
       ns2:scale="1.1999996314966959"
       ns2:alignment="middle center"
       ns2:inkscapeversion="1.0.1"
       ns2:jacobian_sqrt="0.423334"
       id="g13591">
      <defs
         id="id-9f181939-e4bd-4250-85b5-5946095fc41e">
        <g
           id="id-ffe992d9-7625-4d49-948e-d470eb1b346a">
          <symbol
             overflow="visible"
             id="id-39a4392d-162f-471c-9fab-5bc1c993ad50">
            <path
               style="stroke:none"
               d=""
               id="id-c379e225-36b8-48d1-8d65-8ff508864b60" />
          </symbol>
          <symbol
             overflow="visible"
             id="id-42efa3ae-d237-45ed-a836-7670b2127175">
            <path
               style="stroke:none"
               d="m 1.171875,-3.265625 -0.59375,3.046875 c -0.21875,1.109375 -0.75,2.015625 -1.4375,2.390625 0,0.078125 0.046875,0.15625 0.09375,0.1875 0.34375,-0.140625 0.96875,-0.5625 1.40625,-1.109375 0.4375,-0.578125 0.640625,-1.34375 0.71875,-1.703125 l 0.546875,-2.875 c 0.03125,-0.21875 0.0625,-0.453125 0.0625,-0.546875 0,-0.296875 -0.171875,-0.515625 -0.390625,-0.515625 -0.46875,0 -1.15625,0.765625 -1.265625,0.953125 0,0.0625 0.0625,0.1875 0.09375,0.1875 0.03125,-0.03125 0.484375,-0.59375 0.703125,-0.59375 0.109375,0 0.109375,0.171875 0.109375,0.265625 0,0.046875 -0.03125,0.265625 -0.046875,0.3125 z m 0.6875,-3.25 c -0.296875,0 -0.515625,0.28125 -0.515625,0.578125 0,0.21875 0.125,0.421875 0.34375,0.421875 0.3125,0 0.546875,-0.28125 0.546875,-0.59375 0,-0.21875 -0.15625,-0.40625 -0.375,-0.40625 z m 0,0"
               id="id-2733e671-c2cf-42ed-8198-2db36cb8e6f8" />
          </symbol>
        </g>
      </defs>
      <g
         id="id-3183b90e-4ee1-4cac-97b0-08c19c731f39"
         transform="translate(-148.551,-128.249)">
        <g
           style="fill:#000000;fill-opacity:1"
           id="id-1d7e0532-5181-48b4-9904-f00cbc369872">
          <g
             transform="translate(149.41,134.765)"
             id="g13587">
            <path
               style="stroke:none"
               d="m 1.171875,-3.265625 -0.59375,3.046875 c -0.21875,1.109375 -0.75,2.015625 -1.4375,2.390625 0,0.078125 0.046875,0.15625 0.09375,0.1875 0.34375,-0.140625 0.96875,-0.5625 1.40625,-1.109375 0.4375,-0.578125 0.640625,-1.34375 0.71875,-1.703125 l 0.546875,-2.875 c 0.03125,-0.21875 0.0625,-0.453125 0.0625,-0.546875 0,-0.296875 -0.171875,-0.515625 -0.390625,-0.515625 -0.46875,0 -1.15625,0.765625 -1.265625,0.953125 0,0.0625 0.0625,0.1875 0.09375,0.1875 0.03125,-0.03125 0.484375,-0.59375 0.703125,-0.59375 0.109375,0 0.109375,0.171875 0.109375,0.265625 0,0.046875 -0.03125,0.265625 -0.046875,0.3125 z m 0.6875,-3.25 c -0.296875,0 -0.515625,0.28125 -0.515625,0.578125 0,0.21875 0.125,0.421875 0.34375,0.421875 0.3125,0 0.546875,-0.28125 0.546875,-0.59375 0,-0.21875 -0.15625,-0.40625 -0.375,-0.40625 z m 0,0"
               id="id-af192b89-4b85-43f2-b72c-484c9447f8ca" />
          </g>
        </g>
      </g>
    </g>
    <g
       transform="matrix(0.423334,0,0,0.423334,133.77008,41.0378)"
       ns2:version="1.1.0"
       ns2:texconverter="pdflatex"
       ns2:pdfconverter="inkscape"
       ns2:text="$\\ab{j}{sat}$\n\n\n\n\n\n\n"
       ns2:preamble="C:\\Users\\flvisa\\Desktop\\lna\\latexify_books\\textext_preamble.tex"
       ns2:scale="1.1999996314966959"
       ns2:alignment="middle center"
       ns2:inkscapeversion="1.0.1"
       ns2:jacobian_sqrt="0.423334"
       id="g13779">
      <defs
         id="id-824e6661-7974-494d-88c2-e5b2e61dfdcf">
        <g
           id="id-e361396e-3955-499f-8a77-43f5f1b97ad3">
          <symbol
             overflow="visible"
             id="id-c99290fc-0236-4e2e-9a18-40e58c3cf804">
            <path
               style="stroke:none"
               d=""
               id="id-9866fafe-6557-41cf-9b51-8d79b0d09d82" />
          </symbol>
          <symbol
             overflow="visible"
             id="id-61bb05db-3fbe-4b29-8012-70aa5b4c1852">
            <path
               style="stroke:none"
               d="m 1.171875,-3.265625 -0.59375,3.046875 c -0.21875,1.109375 -0.75,2.015625 -1.4375,2.390625 0,0.078125 0.046875,0.15625 0.09375,0.1875 0.34375,-0.140625 0.96875,-0.5625 1.40625,-1.109375 0.4375,-0.578125 0.640625,-1.34375 0.71875,-1.703125 l 0.546875,-2.875 c 0.03125,-0.21875 0.0625,-0.453125 0.0625,-0.546875 0,-0.296875 -0.171875,-0.515625 -0.390625,-0.515625 -0.46875,0 -1.15625,0.765625 -1.265625,0.953125 0,0.0625 0.0625,0.1875 0.09375,0.1875 0.03125,-0.03125 0.484375,-0.59375 0.703125,-0.59375 0.109375,0 0.109375,0.171875 0.109375,0.265625 0,0.046875 -0.03125,0.265625 -0.046875,0.3125 z m 0.6875,-3.25 c -0.296875,0 -0.515625,0.28125 -0.515625,0.578125 0,0.21875 0.125,0.421875 0.34375,0.421875 0.3125,0 0.546875,-0.28125 0.546875,-0.59375 0,-0.21875 -0.15625,-0.40625 -0.375,-0.40625 z m 0,0"
               id="id-27d1d80a-571d-418c-8bcd-9aaaa5e46d78" />
          </symbol>
          <symbol
             overflow="visible"
             id="id-c819f81a-78c9-4259-8081-548c187a9915">
            <path
               style="stroke:none"
               d="m 0.359375,0 h 2.90625 V -3.515625 H 0.359375 Z M 0.71875,-0.359375 v -2.78125 h 2.1875 v 2.78125 z m 0,0"
               id="id-cab1fe1a-bdeb-4002-bd9c-de6fbdee68e9" />
          </symbol>
          <symbol
             overflow="visible"
             id="id-ab140f3d-5387-4ca7-9e27-4b795539df64">
            <path
               style="stroke:none"
               d="m 1.40625,-3.171875 c -0.53125,0 -1.046875,0.34375 -1.046875,0.890625 0,0.375 0.265625,0.609375 0.546875,0.78125 0.421875,0.234375 0.875,0.375 0.875,0.828125 0,0.328125 -0.21875,0.515625 -0.515625,0.515625 -0.375,0 -0.6875,-0.375 -0.78125,-0.671875 -0.015625,-0.03125 -0.03125,-0.03125 -0.0625,-0.03125 -0.03125,0 -0.09375,0.03125 -0.125,0.046875 0,0.1875 0.0625,0.609375 0.125,0.75 C 0.734375,0 0.9375,0.078125 1.25,0.078125 c 0.59375,0 1.109375,-0.40625 1.109375,-1 0,-0.46875 -0.5,-0.703125 -0.828125,-0.890625 C 1.21875,-2 0.90625,-2.109375 0.90625,-2.5 c 0,-0.25 0.15625,-0.453125 0.515625,-0.453125 0.3125,0 0.53125,0.390625 0.609375,0.671875 0.03125,0.015625 0.078125,0.03125 0.125,0.03125 0.03125,0 0.0625,-0.015625 0.0625,-0.03125 0,-0.265625 -0.03125,-0.578125 -0.078125,-0.796875 -0.328125,-0.03125 -0.46875,-0.09375 -0.734375,-0.09375 z m 0,0"
               id="id-4421ffa3-4ff6-4efb-bcc6-c009615bcb7c" />
          </symbol>
          <symbol
             overflow="visible"
             id="id-3ed3bfea-1e7a-48a6-9f0c-566e8ab76ea9">
            <path
               style="stroke:none"
               d="m 1.34375,-0.328125 c -0.265625,0 -0.484375,-0.234375 -0.484375,-0.5 0,-0.28125 0.171875,-0.46875 0.4375,-0.578125 C 1.4375,-1.453125 1.78125,-1.5625 1.96875,-1.625 v 1 c 0,0.078125 -0.375,0.296875 -0.625,0.296875 z m 0.390625,-2.84375 c -0.53125,0 -1.09375,0.390625 -1.3125,0.59375 -0.015625,0.03125 -0.046875,0.15625 -0.046875,0.1875 0,0.140625 0.09375,0.296875 0.25,0.296875 0.171875,0 0.28125,-0.09375 0.328125,-0.34375 C 1,-2.71875 1.09375,-2.90625 1.34375,-2.90625 c 0.359375,0 0.625,0.375 0.625,0.703125 V -2 c 0,0.125 0,0.15625 -0.078125,0.1875 C 1.6875,-1.71875 1.03125,-1.515625 0.625,-1.359375 0.46875,-1.3125 0.265625,-1.078125 0.265625,-0.78125 c 0,0.46875 0.375,0.84375 0.84375,0.84375 0.25,0 0.796875,-0.390625 0.890625,-0.484375 0.046875,0.21875 0.234375,0.46875 0.4375,0.46875 0.15625,0 0.453125,-0.1875 0.53125,-0.265625 C 3,-0.265625 3.015625,-0.3125 3.015625,-0.359375 c 0,-0.03125 -0.015625,-0.0625 -0.03125,-0.0625 -0.03125,0.015625 -0.109375,0.09375 -0.25,0.09375 -0.15625,0 -0.21875,-0.15625 -0.21875,-0.34375 v -1.5 c 0,-0.546875 -0.375,-1 -0.78125,-1 z m 0,0"
               id="id-000d023d-3cbf-4696-998f-98ee3304f854" />
          </symbol>
          <symbol
             overflow="visible"
             id="id-d905484f-b57f-4c22-9693-0b84b1b91a3d">
            <path
               style="stroke:none"
               d="M 1.140625,-3.140625 V -4 c 0,-0.03125 -0.0625,-0.03125 -0.109375,0.015625 0,0.015625 -0.296875,0.296875 -0.421875,0.4375 v 0.40625 h -0.28125 c 0,0.015625 -0.1875,0.203125 -0.1875,0.234375 0,0.015625 0.015625,0.0625 0.046875,0.0625 h 0.421875 v 2.109375 c 0,0.625 0.375,0.78125 0.75,0.78125 0.34375,0 0.625,-0.265625 0.734375,-0.390625 0,0 0.03125,-0.078125 0.03125,-0.109375 C 2.125,-0.484375 2.109375,-0.5 2.09375,-0.5 c -0.046875,0.03125 -0.25,0.171875 -0.453125,0.171875 -0.328125,0 -0.5,-0.21875 -0.5,-0.609375 v -1.90625 h 0.875 C 2.078125,-2.90625 2.125,-3 2.125,-3.0625 c 0,-0.046875 0,-0.078125 -0.046875,-0.078125 z m 0,0"
               id="id-599b659e-762c-49ca-a650-57191508e7d8" />
          </symbol>
        </g>
      </defs>
      <g
         id="id-4131fad4-8a19-4ae0-bd3b-d686968c23f5"
         transform="translate(-148.551,-128.249)">
        <g
           style="fill:#000000;fill-opacity:1"
           id="id-63c9e668-12dc-441b-ba36-ed11ff734c93">
          <g
             transform="translate(149.41,134.765)"
             id="g13765">
            <path
               style="stroke:none"
               d="m 1.171875,-3.265625 -0.59375,3.046875 c -0.21875,1.109375 -0.75,2.015625 -1.4375,2.390625 0,0.078125 0.046875,0.15625 0.09375,0.1875 0.34375,-0.140625 0.96875,-0.5625 1.40625,-1.109375 0.4375,-0.578125 0.640625,-1.34375 0.71875,-1.703125 l 0.546875,-2.875 c 0.03125,-0.21875 0.0625,-0.453125 0.0625,-0.546875 0,-0.296875 -0.171875,-0.515625 -0.390625,-0.515625 -0.46875,0 -1.15625,0.765625 -1.265625,0.953125 0,0.0625 0.0625,0.1875 0.09375,0.1875 0.03125,-0.03125 0.484375,-0.59375 0.703125,-0.59375 0.109375,0 0.109375,0.171875 0.109375,0.265625 0,0.046875 -0.03125,0.265625 -0.046875,0.3125 z m 0.6875,-3.25 c -0.296875,0 -0.515625,0.28125 -0.515625,0.578125 0,0.21875 0.125,0.421875 0.34375,0.421875 0.3125,0 0.546875,-0.28125 0.546875,-0.59375 0,-0.21875 -0.15625,-0.40625 -0.375,-0.40625 z m 0,0"
               id="id-5f3eed29-c332-4fc1-9018-cca331b02adc" />
          </g>
        </g>
        <g
           style="fill:#000000;fill-opacity:1"
           id="id-acc3e011-be0c-45d9-8666-78dbec86ceb8">
          <g
             transform="translate(151.9,136.259)"
             id="g13769">
            <path
               style="stroke:none"
               d="m 1.40625,-3.171875 c -0.53125,0 -1.046875,0.34375 -1.046875,0.890625 0,0.375 0.265625,0.609375 0.546875,0.78125 0.421875,0.234375 0.875,0.375 0.875,0.828125 0,0.328125 -0.21875,0.515625 -0.515625,0.515625 -0.375,0 -0.6875,-0.375 -0.78125,-0.671875 -0.015625,-0.03125 -0.03125,-0.03125 -0.0625,-0.03125 -0.03125,0 -0.09375,0.03125 -0.125,0.046875 0,0.1875 0.0625,0.609375 0.125,0.75 C 0.734375,0 0.9375,0.078125 1.25,0.078125 c 0.59375,0 1.109375,-0.40625 1.109375,-1 0,-0.46875 -0.5,-0.703125 -0.828125,-0.890625 C 1.21875,-2 0.90625,-2.109375 0.90625,-2.5 c 0,-0.25 0.15625,-0.453125 0.515625,-0.453125 0.3125,0 0.53125,0.390625 0.609375,0.671875 0.03125,0.015625 0.078125,0.03125 0.125,0.03125 0.03125,0 0.0625,-0.015625 0.0625,-0.03125 0,-0.265625 -0.03125,-0.578125 -0.078125,-0.796875 -0.328125,-0.03125 -0.46875,-0.09375 -0.734375,-0.09375 z m 0,0"
               id="id-f52c7f1a-1de8-43fd-8144-303e88db0a54" />
          </g>
          <g
             transform="translate(154.533,136.259)"
             id="g13772">
            <path
               style="stroke:none"
               d="m 1.34375,-0.328125 c -0.265625,0 -0.484375,-0.234375 -0.484375,-0.5 0,-0.28125 0.171875,-0.46875 0.4375,-0.578125 C 1.4375,-1.453125 1.78125,-1.5625 1.96875,-1.625 v 1 c 0,0.078125 -0.375,0.296875 -0.625,0.296875 z m 0.390625,-2.84375 c -0.53125,0 -1.09375,0.390625 -1.3125,0.59375 -0.015625,0.03125 -0.046875,0.15625 -0.046875,0.1875 0,0.140625 0.09375,0.296875 0.25,0.296875 0.171875,0 0.28125,-0.09375 0.328125,-0.34375 C 1,-2.71875 1.09375,-2.90625 1.34375,-2.90625 c 0.359375,0 0.625,0.375 0.625,0.703125 V -2 c 0,0.125 0,0.15625 -0.078125,0.1875 C 1.6875,-1.71875 1.03125,-1.515625 0.625,-1.359375 0.46875,-1.3125 0.265625,-1.078125 0.265625,-0.78125 c 0,0.46875 0.375,0.84375 0.84375,0.84375 0.25,0 0.796875,-0.390625 0.890625,-0.484375 0.046875,0.21875 0.234375,0.46875 0.4375,0.46875 0.15625,0 0.453125,-0.1875 0.53125,-0.265625 C 3,-0.265625 3.015625,-0.3125 3.015625,-0.359375 c 0,-0.03125 -0.015625,-0.0625 -0.03125,-0.0625 -0.03125,0.015625 -0.109375,0.09375 -0.25,0.09375 -0.15625,0 -0.21875,-0.15625 -0.21875,-0.34375 v -1.5 c 0,-0.546875 -0.375,-1 -0.78125,-1 z m 0,0"
               id="id-93843ffa-3fa0-4096-aecf-b4c0cd1dc0b9" />
          </g>
          <g
             transform="translate(157.616,136.259)"
             id="g13775">
            <path
               style="stroke:none"
               d="M 1.140625,-3.140625 V -4 c 0,-0.03125 -0.0625,-0.03125 -0.109375,0.015625 0,0.015625 -0.296875,0.296875 -0.421875,0.4375 v 0.40625 h -0.28125 c 0,0.015625 -0.1875,0.203125 -0.1875,0.234375 0,0.015625 0.015625,0.0625 0.046875,0.0625 h 0.421875 v 2.109375 c 0,0.625 0.375,0.78125 0.75,0.78125 0.34375,0 0.625,-0.265625 0.734375,-0.390625 0,0 0.03125,-0.078125 0.03125,-0.109375 C 2.125,-0.484375 2.109375,-0.5 2.09375,-0.5 c -0.046875,0.03125 -0.25,0.171875 -0.453125,0.171875 -0.328125,0 -0.5,-0.21875 -0.5,-0.609375 v -1.90625 h 0.875 C 2.078125,-2.90625 2.125,-3 2.125,-3.0625 c 0,-0.046875 0,-0.078125 -0.046875,-0.078125 z m 0,0"
               id="id-147aa656-b002-4c56-a42d-c854684296a0" />
          </g>
        </g>
      </g>
    </g>
  </g>
</svg>
