<?xml version="1.0" encoding="UTF-8" standalone="no"?>
<svg
   xmlns:ns1="http://www.iki.fi/pav/software/textext/"
   xmlns:dc="http://purl.org/dc/elements/1.1/"
   xmlns:cc="http://creativecommons.org/ns#"
   xmlns:rdf="http://www.w3.org/1999/02/22-rdf-syntax-ns#"
   xmlns:svg="http://www.w3.org/2000/svg"
   xmlns="http://www.w3.org/2000/svg"
   xmlns:sodipodi="http://sodipodi.sourceforge.net/DTD/sodipodi-0.dtd"
   xmlns:inkscape="http://www.inkscape.org/namespaces/inkscape"
   width="172.91339pt"
   height="139.97014pt"
   viewBox="0 0 172.9134 139.97014"
   version="1.2"
   id="svg10520"
   sodipodi:docname="fig_7_15.svg"
   inkscape:version="1.0 (4035a4fb49, 2020-05-01)">
  <metadata
     id="metadata10526">
    <rdf:RDF>
      <cc:Work
         rdf:about="">
        <dc:format>image/svg+xml</dc:format>
        <dc:type
           rdf:resource="http://purl.org/dc/dcmitype/StillImage" />
        <dc:title></dc:title>
      </cc:Work>
    </rdf:RDF>
  </metadata>
  <defs
     id="defs10524">
    <marker
       inkscape:stockid="Arrow1Mend"
       orient="auto"
       refY="0"
       refX="0"
       id="marker11950"
       style="overflow:visible"
       inkscape:isstock="true">
      <path
         id="path11948"
         d="M 0,0 5,-5 -12.5,0 5,5 Z"
         style="fill:#a6a7a3;fill-opacity:1;fill-rule:evenodd;stroke:#a6a7a3;stroke-width:1pt;stroke-opacity:1"
         transform="matrix(-0.4,0,0,-0.4,-4,0)" />
    </marker>
    <marker
       inkscape:isstock="true"
       style="overflow:visible"
       id="marker11114"
       refX="0"
       refY="0"
       orient="auto"
       inkscape:stockid="Arrow1Mend"
       inkscape:collect="always">
      <path
         transform="matrix(-0.4,0,0,-0.4,-4,0)"
         style="fill:#000000;fill-opacity:1;fill-rule:evenodd;stroke:#000000;stroke-width:1pt;stroke-opacity:1"
         d="M 0,0 5,-5 -12.5,0 5,5 Z"
         id="path11112" />
    </marker>
    <marker
       inkscape:isstock="true"
       style="overflow:visible"
       id="marker11104"
       refX="0"
       refY="0"
       orient="auto"
       inkscape:stockid="Arrow1Mend">
      <path
         transform="matrix(-0.4,0,0,-0.4,-4,0)"
         style="fill:#000000;fill-opacity:1;fill-rule:evenodd;stroke:#000000;stroke-width:1pt;stroke-opacity:1"
         d="M 0,0 5,-5 -12.5,0 5,5 Z"
         id="path11102" />
    </marker>
    <g
       id="id-29133148-d815-4a29-b24b-553794fadc42-2">
      <symbol
         id="id-a118ae13-ba78-4e16-a069-642ee6dfbf21-9"
         overflow="visible">
        <path
           id="id-60087a64-c00a-483e-8331-082cd9a13b5a-5"
           d=""
           style="stroke:none" />
      </symbol>
      <symbol
         id="id-2b6fc8c0-4918-42f3-baf6-c3ffc04d3189-5"
         overflow="visible">
        <path
           id="id-6f97116d-2f8f-4339-9533-8ba7c745a227-2"
           d="m 1.328125,-4.390625 c -0.46875,0 -1.15625,0.765625 -1.265625,0.953125 0,0.0625 0.0625,0.1875 0.09375,0.1875 0.03125,-0.03125 0.484375,-0.59375 0.71875,-0.59375 0.484375,0 0.59375,2.0625 0.59375,3.21875 v 0.453125 c 0,0.375 -0.015625,0.78125 -0.171875,1.015625 -0.328125,0.484375 -0.75,0.84375 -1.375,0.84375 -0.21875,0 -0.65625,-0.109375 -0.8125,-0.1875 -0.140625,0.078125 -0.21875,0.28125 -0.21875,0.4375 0,0.21875 0.234375,0.421875 0.59375,0.421875 1.359375,0 4.609375,-3.578125 4.609375,-5.953125 0,-0.21875 -0.03125,-0.796875 -0.453125,-0.796875 -0.234375,0 -0.421875,0.171875 -0.5,0.4375 0.109375,0.21875 0.25,0.46875 0.25,1.078125 0,1.09375 -0.796875,2.28125 -1.15625,2.71875 0,-0.609375 -0.03125,-4.234375 -0.90625,-4.234375 z m 0,0"
           style="stroke:none" />
      </symbol>
    </g>
    <g
       id="id-14d8c399-d641-4b18-99d3-aabc58fad83f-2">
      <symbol
         id="id-be38c42f-f184-4103-86ed-e1fed803d400-7"
         overflow="visible">
        <path
           id="id-5a72d8a6-9968-4dda-947b-c62e2c2b084d-4"
           d=""
           style="stroke:none" />
      </symbol>
      <symbol
         id="id-f505f73f-a027-4ed3-8680-db536d3a5852-8"
         overflow="visible">
        <path
           id="id-60e48405-93e4-4faa-8e1f-456b14425173-0"
           d="M 2.984375,-0.890625 2.65625,-2.46875 c 0.1875,-0.375 0.375,-0.671875 0.609375,-1.0625 0.0625,-0.125 0.140625,-0.234375 0.265625,-0.234375 H 3.5625 c 0.21875,0.015625 0.265625,0.28125 0.46875,0.28125 0.21875,0 0.359375,-0.203125 0.359375,-0.4375 0,-0.15625 -0.046875,-0.265625 -0.109375,-0.34375 -0.15625,-0.09375 -0.328125,-0.125 -0.46875,-0.125 -0.515625,0 -0.78125,0.671875 -1.234375,1.5625 L 2.4375,-3.515625 c -0.109375,-0.546875 -0.390625,-0.875 -0.6875,-0.875 -0.453125,0 -1.15625,0.796875 -1.234375,0.9375 0,0.046875 0.078125,0.1875 0.109375,0.1875 0.109375,-0.140625 0.5625,-0.578125 0.765625,-0.578125 0.171875,0 0.28125,0.171875 0.3125,0.390625 l 0.28125,1.40625 c -0.25,0.484375 -0.421875,0.78125 -0.6875,1.25 C 1.21875,-0.671875 1.140625,-0.5625 1,-0.5625 H 0.984375 c -0.21875,-0.03125 -0.25,-0.296875 -0.453125,-0.296875 -0.234375,0 -0.375,0.21875 -0.375,0.453125 0,0.140625 0.046875,0.25 0.109375,0.34375 0.15625,0.09375 0.328125,0.109375 0.46875,0.109375 0.5625,0 0.828125,-0.765625 1.328125,-1.734375 L 2.25,-0.828125 c 0.109375,0.53125 0.375,0.875 0.6875,0.875 0.4375,0 1.15625,-0.796875 1.234375,-0.9375 C 4.171875,-0.9375 4.09375,-1.0625 4.0625,-1.0625 3.953125,-0.921875 3.5,-0.53125 3.328125,-0.53125 c -0.21875,0 -0.3125,-0.140625 -0.34375,-0.359375 z m 0,0"
           style="stroke:none" />
      </symbol>
    </g>
    <g
       id="id-14d8c399-d641-4b18-99d3-aabc58fad83f-8">
      <symbol
         id="id-be38c42f-f184-4103-86ed-e1fed803d400-1"
         overflow="visible">
        <path
           id="id-5a72d8a6-9968-4dda-947b-c62e2c2b084d-8"
           d=""
           style="stroke:none" />
      </symbol>
      <symbol
         id="id-f505f73f-a027-4ed3-8680-db536d3a5852-82"
         overflow="visible">
        <path
           id="id-60e48405-93e4-4faa-8e1f-456b14425173-5"
           d="M 2.984375,-0.890625 2.65625,-2.46875 c 0.1875,-0.375 0.375,-0.671875 0.609375,-1.0625 0.0625,-0.125 0.140625,-0.234375 0.265625,-0.234375 H 3.5625 c 0.21875,0.015625 0.265625,0.28125 0.46875,0.28125 0.21875,0 0.359375,-0.203125 0.359375,-0.4375 0,-0.15625 -0.046875,-0.265625 -0.109375,-0.34375 -0.15625,-0.09375 -0.328125,-0.125 -0.46875,-0.125 -0.515625,0 -0.78125,0.671875 -1.234375,1.5625 L 2.4375,-3.515625 c -0.109375,-0.546875 -0.390625,-0.875 -0.6875,-0.875 -0.453125,0 -1.15625,0.796875 -1.234375,0.9375 0,0.046875 0.078125,0.1875 0.109375,0.1875 0.109375,-0.140625 0.5625,-0.578125 0.765625,-0.578125 0.171875,0 0.28125,0.171875 0.3125,0.390625 l 0.28125,1.40625 c -0.25,0.484375 -0.421875,0.78125 -0.6875,1.25 C 1.21875,-0.671875 1.140625,-0.5625 1,-0.5625 H 0.984375 c -0.21875,-0.03125 -0.25,-0.296875 -0.453125,-0.296875 -0.234375,0 -0.375,0.21875 -0.375,0.453125 0,0.140625 0.046875,0.25 0.109375,0.34375 0.15625,0.09375 0.328125,0.109375 0.46875,0.109375 0.5625,0 0.828125,-0.765625 1.328125,-1.734375 L 2.25,-0.828125 c 0.109375,0.53125 0.375,0.875 0.6875,0.875 0.4375,0 1.15625,-0.796875 1.234375,-0.9375 C 4.171875,-0.9375 4.09375,-1.0625 4.0625,-1.0625 3.953125,-0.921875 3.5,-0.53125 3.328125,-0.53125 c -0.21875,0 -0.3125,-0.140625 -0.34375,-0.359375 z m 0,0"
           style="stroke:none" />
      </symbol>
    </g>
    <g
       id="id-142c9ebd-1e10-49a5-adf9-fca0efb2ba64-4">
      <symbol
         id="id-950e9359-4ba1-4ea7-a860-8fd8caac3e5f-5"
         overflow="visible">
        <path
           id="id-e26fa672-6f9d-42c2-b676-7a0926a4e227-6"
           d=""
           style="stroke:none" />
      </symbol>
      <symbol
         id="id-df2478a9-9a39-45ce-a859-5684082465ca-1"
         overflow="visible">
        <path
           id="id-bb48271e-cbc3-4ee9-b785-8c1d369dcf1b-7"
           d="m 3.4375,-0.265625 c -0.0625,0.0625 -0.09375,0.25 -0.0625,0.296875 0.4375,-0.015625 0.609375,-0.046875 1.046875,-0.046875 0.40625,0 0.734375,0.03125 1.109375,0.046875 C 5.546875,0 5.59375,-0.1875 5.5625,-0.265625 c -0.0625,0 -0.578125,-0.03125 -0.640625,-0.328125 0,-0.03125 -0.046875,-0.3125 -0.109375,-0.6875 l -0.859375,-5.375 C 3.9375,-6.671875 3.921875,-6.6875 3.890625,-6.6875 c -0.078125,0 -0.3125,0.125 -0.40625,0.28125 l -2.78125,5 c -0.1875,0.359375 -0.390625,0.6875 -0.625,0.953125 -0.125,0.125 -0.46875,0.1875 -0.578125,0.1875 C -0.53125,-0.1875 -0.578125,0 -0.5625,0.03125 -0.125,0.015625 0,-0.015625 0.4375,-0.015625 c 0.40625,0 0.53125,0.03125 0.890625,0.046875 0.03125,-0.0625 0.0625,-0.265625 0.046875,-0.296875 -0.0625,0 -0.625,-0.03125 -0.625,-0.25 C 0.75,-0.65625 0.859375,-0.90625 1.03125,-1.25 1.125,-1.421875 1.421875,-1.953125 1.75,-2.578125 h 2.015625 l 0.21875,1.515625 c 0.03125,0.1875 0.03125,0.390625 0.03125,0.484375 0,0.203125 -0.234375,0.3125 -0.578125,0.3125 z m -1.5,-2.640625 1.375,-2.484375 0.390625,2.484375 z m 0,0"
           style="stroke:none" />
      </symbol>
    </g>
    <g
       id="id-577fe027-c45e-4818-ad8c-376dda2ef1fd-2"
       style="fill:#c28f47;stroke-width:0">
      <symbol
         id="id-bc1f46c8-8d8c-4cca-83a7-ac2edd142505-8"
         overflow="visible"
         style="fill:#c28f47;stroke-width:0">
        <path
           id="id-39def505-4cee-406f-ae0b-194fbad5e063-9"
           d="M 0.5,0 H 4.484375 V -4.8125 H 0.5 Z M 1,-0.5 V -4.3125 H 3.984375 V -0.5 Z m 0,0"
           style="fill:#c28f47;stroke:none;stroke-width:0" />
      </symbol>
      <symbol
         id="id-fef8ab12-2d3a-47e7-b887-ce1247711a80-1"
         overflow="visible"
         style="fill:#c28f47;stroke-width:0">
        <path
           id="id-b70241de-359e-49bb-a189-ec6d353c55a8-2"
           d="m 2.171875,-1.125 c 0,0.28125 -0.015625,0.5625 -0.0625,0.71875 C 2.078125,-0.296875 1.609375,-0.25 1.5,-0.25 c -0.046875,0.046875 -0.046875,0.234375 0,0.28125 0.390625,-0.015625 0.65625,-0.046875 1.03125,-0.046875 0.375,0 0.6875,0.03125 1.09375,0.046875 0.046875,-0.046875 0.03125,-0.234375 0,-0.28125 C 3.5,-0.25 3.015625,-0.296875 2.984375,-0.40625 2.9375,-0.5625 2.9375,-0.84375 2.9375,-1.125 v -4.03125 c 0,-0.59375 0.078125,-0.9375 0.078125,-0.9375 0,-0.046875 -0.03125,-0.15625 -0.09375,-0.15625 H 2.90625 C 2.875,-6.25 2,-5.828125 1.203125,-5.46875 c -0.03125,0.015625 0,0.046875 0,0.0625 0,0.078125 0.03125,0.125 0.078125,0.171875 0.171875,-0.0625 0.546875,-0.203125 0.6875,-0.203125 0.140625,0 0.203125,0.09375 0.203125,0.375 z m 0,0"
           style="fill:#c28f47;stroke:none;stroke-width:0" />
      </symbol>
    </g>
    <marker
       inkscape:isstock="true"
       style="overflow:visible"
       id="marker11950-0"
       refX="0"
       refY="0"
       orient="auto"
       inkscape:stockid="Arrow1Mend">
      <path
         transform="matrix(-0.4,0,0,-0.4,-4,0)"
         style="fill:#a6a7a3;fill-opacity:1;fill-rule:evenodd;stroke:#a6a7a3;stroke-width:1pt;stroke-opacity:1"
         d="M 0,0 5,-5 -12.5,0 5,5 Z"
         id="path11948-8" />
    </marker>
    <g
       id="id-14d8c399-d641-4b18-99d3-aabc58fad83f-7">
      <symbol
         id="id-be38c42f-f184-4103-86ed-e1fed803d400-5"
         overflow="visible">
        <path
           id="id-5a72d8a6-9968-4dda-947b-c62e2c2b084d-9"
           d=""
           style="stroke:none" />
      </symbol>
      <symbol
         id="id-f505f73f-a027-4ed3-8680-db536d3a5852-820"
         overflow="visible">
        <path
           id="id-60e48405-93e4-4faa-8e1f-456b14425173-57"
           d="M 2.984375,-0.890625 2.65625,-2.46875 c 0.1875,-0.375 0.375,-0.671875 0.609375,-1.0625 0.0625,-0.125 0.140625,-0.234375 0.265625,-0.234375 H 3.5625 c 0.21875,0.015625 0.265625,0.28125 0.46875,0.28125 0.21875,0 0.359375,-0.203125 0.359375,-0.4375 0,-0.15625 -0.046875,-0.265625 -0.109375,-0.34375 -0.15625,-0.09375 -0.328125,-0.125 -0.46875,-0.125 -0.515625,0 -0.78125,0.671875 -1.234375,1.5625 L 2.4375,-3.515625 c -0.109375,-0.546875 -0.390625,-0.875 -0.6875,-0.875 -0.453125,0 -1.15625,0.796875 -1.234375,0.9375 0,0.046875 0.078125,0.1875 0.109375,0.1875 0.109375,-0.140625 0.5625,-0.578125 0.765625,-0.578125 0.171875,0 0.28125,0.171875 0.3125,0.390625 l 0.28125,1.40625 c -0.25,0.484375 -0.421875,0.78125 -0.6875,1.25 C 1.21875,-0.671875 1.140625,-0.5625 1,-0.5625 H 0.984375 c -0.21875,-0.03125 -0.25,-0.296875 -0.453125,-0.296875 -0.234375,0 -0.375,0.21875 -0.375,0.453125 0,0.140625 0.046875,0.25 0.109375,0.34375 0.15625,0.09375 0.328125,0.109375 0.46875,0.109375 0.5625,0 0.828125,-0.765625 1.328125,-1.734375 L 2.25,-0.828125 c 0.109375,0.53125 0.375,0.875 0.6875,0.875 0.4375,0 1.15625,-0.796875 1.234375,-0.9375 C 4.171875,-0.9375 4.09375,-1.0625 4.0625,-1.0625 3.953125,-0.921875 3.5,-0.53125 3.328125,-0.53125 c -0.21875,0 -0.3125,-0.140625 -0.34375,-0.359375 z m 0,0"
           style="stroke:none" />
      </symbol>
    </g>
    <g
       id="id-903b9604-cafa-47ee-be67-bdc2950617a7-6">
      <symbol
         id="id-774ef2a6-5122-431d-9fba-636cca495522-6"
         overflow="visible">
        <path
           id="id-fbffcbd4-d1e3-4596-a9a9-2d196bd0e0b9-9"
           d=""
           style="stroke:none" />
      </symbol>
      <symbol
         id="id-a597b3bb-26b4-4a3c-ad49-83c5f5da1438-6"
         overflow="visible">
        <path
           id="id-13a3aa15-233e-471e-9242-84f2e2afb92c-4"
           d="m 2.34375,-4.40625 c -1.0625,0 -2.171875,2.1875 -2.171875,3.390625 0,0.75 0.34375,1.078125 0.890625,1.078125 0.546875,0 1.15625,-0.59375 1.6875,-1.265625 -0.03125,0.1875 -0.046875,0.375 -0.046875,0.53125 0,0.40625 0.140625,0.71875 0.453125,0.71875 0.4375,0 0.78125,-0.546875 0.84375,-0.75 0.015625,-0.03125 -0.015625,-0.1875 -0.046875,-0.21875 -0.140625,0.140625 -0.296875,0.25 -0.515625,0.25 -0.15625,0 -0.359375,-0.078125 -0.359375,-0.53125 0,-0.15625 0.015625,-0.390625 0.109375,-0.6875 l 0.484375,-0.78125 c 0.25,-0.3125 0.5625,-0.921875 0.5625,-1.21875 0,-0.28125 -0.203125,-0.5 -0.328125,-0.5 -0.15625,0 -0.53125,0.9375 -0.78125,1.65625 l -0.25,0.4375 c 0.015625,-0.171875 0.03125,-0.515625 0.03125,-0.71875 0,-0.765625 -0.1875,-1.390625 -0.5625,-1.390625 z m -1.703125,3.625 c 0,-1.03125 1.03125,-2.921875 1.625,-2.921875 0.234375,0 0.3125,0.34375 0.3125,0.796875 v 0.0625 c 0,0.46875 -0.09375,0.984375 -0.25,1.328125 -0.5,0.71875 -1.015625,1.21875 -1.375,1.21875 -0.1875,0 -0.3125,-0.125 -0.3125,-0.484375 z m 0,0"
           style="stroke:none" />
      </symbol>
      <symbol
         id="id-fb95c316-ec06-489f-bbbe-1c27a41b15d6-4"
         overflow="visible">
        <path
           id="id-1f8424f5-0b14-456e-a16e-d4279b63de47-0"
           d=""
           style="stroke:none" />
      </symbol>
      <symbol
         id="id-5f043b70-bddd-490b-9b42-6cdb7785642b-6"
         overflow="visible">
        <path
           id="id-f46c816b-b2b4-4ba7-a101-33fda98b6c7e-2"
           d="M 5.5,-3.296875 V -3.84375 H 0.40625 v 0.546875 z m 0,2.03125 v -0.5625 H 0.40625 v 0.5625 z m 0,0"
           style="stroke:none" />
      </symbol>
      <symbol
         id="id-e1fad1fd-4528-45b0-90ea-c5dcc97a4a55-2"
         overflow="visible">
        <path
           id="id-faab44b2-4f17-422a-92d3-5e97a9d3a6ed-6"
           d=""
           style="stroke:none" />
      </symbol>
      <symbol
         id="id-9b660c71-dd93-482f-bf53-91d21efa9521-3"
         overflow="visible">
        <path
           id="id-b588e9d9-29bb-48cc-982b-cafef3ed1a68-0"
           d="m 5.71875,-2.28125 v -0.5625 H 0.625 v 0.5625 z m 0,0"
           style="stroke:none" />
      </symbol>
      <symbol
         id="id-170498c2-71af-4934-8552-af53342eb242-6"
         overflow="visible">
        <path
           id="id-71f7150a-bf8e-4508-9ea6-dfa22b2e85f4-2"
           d=""
           style="stroke:none" />
      </symbol>
      <symbol
         id="id-d4a47f8c-7796-40a0-91a7-769378da93b4-1"
         overflow="visible">
        <path
           id="id-8e4a3211-630a-40f2-9c42-be32b6087c4c-0"
           d="m 1.375,-2.65625 c -0.34375,1.234375 -0.65625,1.734375 -1.09375,2.390625 0,0.078125 0.125,0.28125 0.28125,0.28125 0.03125,0 0.09375,0 0.140625,-0.015625 0.171875,-0.234375 0.75,-2.125 0.875,-2.640625 0.203125,0.015625 0.4375,0.03125 0.625,0.046875 -0.09375,0.46875 -0.25,1.3125 -0.328125,1.953125 0,0.046875 0,0.09375 0,0.125 0,0.3125 0.109375,0.53125 0.359375,0.53125 0.234375,0 0.515625,-0.34375 0.53125,-0.40625 v -0.03125 C 2.765625,-0.453125 2.75,-0.5 2.734375,-0.515625 2.703125,-0.484375 2.59375,-0.4375 2.53125,-0.4375 c -0.140625,0 -0.3125,-0.09375 -0.3125,-0.453125 0,-0.453125 0.109375,-1.1875 0.171875,-1.6875 C 2.5625,-2.5625 2.625,-2.5625 2.703125,-2.5625 c 0.515625,0 0.75,-0.578125 0.75,-0.640625 0,-0.03125 -0.0625,-0.0625 -0.09375,-0.0625 -0.09375,0.078125 -0.3125,0.171875 -0.671875,0.171875 -0.625,0 -0.78125,-0.09375 -1.328125,-0.09375 -0.28125,0 -0.8125,0.09375 -0.9375,0.71875 0,0.0625 -0.015625,0.140625 -0.015625,0.1875 V -2.25 c 0.015625,0.015625 0.03125,0.015625 0.046875,0.015625 0.015625,0 0.03125,0 0.046875,-0.015625 0.15625,-0.265625 0.34375,-0.40625 0.875,-0.40625 z m 0,0"
           style="stroke:none" />
      </symbol>
      <symbol
         id="id-e3f79871-79c0-479d-bfca-c5b949a46ead-4"
         overflow="visible">
        <path
           id="id-794e4251-2b1e-4f1a-8c60-e416bf4337c4-7"
           d="m 0.359375,0 h 2.90625 V -3.515625 H 0.359375 Z M 0.71875,-0.359375 v -2.78125 h 2.1875 v 2.78125 z m 0,0"
           style="stroke:none" />
      </symbol>
      <symbol
         id="id-4967de27-2538-45c1-9a65-bc85b9be37ea-4"
         overflow="visible">
        <path
           id="id-2e5e31c3-70d3-4550-a945-d9ce75acdb88-7"
           d="M 3.21875,-1.0625 C 3.1875,-1.078125 3.109375,-1.109375 3.078125,-1.109375 3.03125,-1.109375 3.015625,-1.09375 3,-1.0625 2.84375,-0.6875 2.6875,-0.515625 2.390625,-0.515625 H 0.984375 C 1.3125,-0.875 2.03125,-1.671875 2.53125,-2.296875 2.78125,-2.59375 2.9375,-2.96875 2.9375,-3.375 c 0,-0.59375 -0.546875,-1.1875 -1.21875,-1.1875 -0.75,0 -1.265625,0.796875 -1.3125,0.96875 0,0.03125 0.078125,0.109375 0.140625,0.109375 C 0.625,-3.625 0.984375,-4.09375 1.5625,-4.09375 c 0.4375,0 0.78125,0.375 0.78125,0.859375 0,0.34375 -0.0625,0.640625 -0.34375,1.0625 -0.421875,0.609375 -1.09375,1.40625 -1.6875,2.0625 0,0.03125 0.03125,0.09375 0.0625,0.109375 h 2.453125 c 0.046875,-0.125 0.25,-0.71875 0.390625,-1.0625 z m 0,0"
           style="stroke:none" />
      </symbol>
    </g>
  </defs>
  <sodipodi:namedview
     pagecolor="#ffffff"
     bordercolor="#666666"
     borderopacity="1"
     objecttolerance="10"
     gridtolerance="10"
     guidetolerance="10"
     inkscape:pageopacity="0"
     inkscape:pageshadow="2"
     inkscape:window-width="1600"
     inkscape:window-height="837"
     id="namedview10522"
     showgrid="false"
     inkscape:zoom="1.5297471"
     inkscape:cx="165.74338"
     inkscape:cy="43.966637"
     inkscape:window-x="-8"
     inkscape:window-y="-8"
     inkscape:window-maximized="1"
     inkscape:current-layer="svg10520"
     inkscape:document-rotation="0" />
  <path
     id="path10513"
     d="m 158.7361,70.163084 -0.0993,2.86924 -0.29446,2.865817 -0.48962,2.848696 -0.68478,2.828154 -0.87653,2.793914 -1.06826,2.759679 -1.28054,2.76994 -1.47228,2.715169 -1.6606,2.653531 -1.87974,2.636418 -2.06461,2.557658 -2.24267,2.47549 -2.46179,2.42414 -2.63641,2.32141 -2.85212,2.25294 -3.01648,2.13309 -3.22532,2.04066 -3.37599,1.90369 -3.51293,1.75647 -3.70467,1.64006 -3.82452,1.47571 -4.00255,1.33532 -4.09843,1.15729 -4.1806,0.98266 -4.24908,0.79777 -4.382609,0.61973 -4.420275,0.43141 -4.447658,0.23284 -4.457938,0.0377 -4.454514,-0.16094 -4.433971,-0.35268 -4.399731,-0.54783 -4.344945,-0.73956 -4.211417,-0.91419 -4.12924,-1.09223 -4.040222,-1.27027 -3.930653,-1.44147 -3.752611,-1.58185 -3.622498,-1.73592 -3.482123,-1.88658 -3.276688,-1.99613 -3.122609,-2.12968 -2.906903,-2.21528 -2.739132,-2.33168 -2.516578,-2.39332 -2.338532,-2.49261 -2.157055,-2.581617 -1.931088,-2.612448 -1.742773,-2.687777 -1.52022,-2.701465 -1.331901,-2.756252 -1.136743,-2.800762 -0.9244565,-2.790491 -0.7327149,-2.821305 -0.5375562,-2.84185 -0.3458213,-2.862392 -0.1438185,-2.86924 0.047927,-2.872664 0.2465355,-2.865817 0.4416869,-2.852121 0.6368493,-2.835001 0.8285841,-2.804186 1.0203306,-2.769947 1.236032,-2.780215 1.424346,-2.728868 1.616089,-2.67065 1.835219,-2.653528 2.020109,-2.574784 2.201575,-2.496039 2.424134,-2.448099 2.595328,-2.345379 2.814458,-2.280326 2.978805,-2.160493 3.191087,-2.06804 3.345166,-1.934511 3.482122,-1.794136 3.677285,-1.670871 3.797121,-1.513368 3.91011,-1.349021 4.077881,-1.2018 4.160055,-1.023743 4.238808,-0.838867 4.293587,-0.657389 4.413427,-0.475918 4.440818,-0.284169 4.457931,-0.08563 4.457938,0.109579 4.437394,0.308151 4.410003,0.499897 4.362063,0.691628 4.22512,0.866251 4.15321,1.051141 4.06076,1.222337 3.96147,1.400386 3.78,1.540759 3.65674,1.694835 3.52321,1.852335 3.31435,1.958486 3.16369,2.095431 2.94799,2.18446 2.78364,2.297441 2.60903,2.413866 2.38646,2.465214 2.20158,2.561085 1.97902,2.595329 1.79414,2.670657 1.56815,2.68435 1.38326,2.742549 1.18811,2.790494 0.99293,2.835001 0.77723,2.811034 0.58891,2.838425 0.39032,2.858969 0.19518,2.86924 v 2.86924 l -0.19857,2.869241 -0.39375,2.858968 -0.58892,2.838425 -0.78408,2.811038 -0.97238,2.780219 -1.1881,2.79049 -1.37984,2.742549 -1.56815,2.68435 -1.79071,2.670657 -1.9756,2.595332 -2.16049,2.51657 -2.37962,2.46864 -2.55766,2.36935 -0.59234,0.51359"
     style="fill:none;stroke:#3a667a;stroke-width:1.46009;stroke-linecap:square;stroke-linejoin:round;stroke-miterlimit:10;stroke-dasharray:none;stroke-opacity:1" />
  <path
     id="path10515"
     d="M 83.146338,139.97014 V 1.5207235"
     style="fill:none;stroke:#000000;stroke-width:0.771674;stroke-linecap:butt;stroke-linejoin:miter;stroke-miterlimit:10;stroke-dasharray:none;stroke-opacity:1;marker-end:url(#marker11104)" />
  <path
     id="path10517"
     d="M 0,70.163084 H 171.45257"
     style="fill:none;stroke:#000000;stroke-width:0.741275;stroke-linecap:butt;stroke-linejoin:miter;stroke-miterlimit:10;stroke-dasharray:none;stroke-opacity:1;marker-end:url(#marker11114)" />
  <g
     id="g11209"
     ns1:jacobian_sqrt="0.258774"
     transform="matrix(0.94458065,0,0,0.94458065,73.051673,0.78192808)"
     ns1:inkscapeversion="1.0"
     ns1:alignment="middle center"
     ns1:scale="0.25877379"
     ns1:preamble="C:\\Users\\flvisa\\Desktop\\lna\\latexify_books\\textext_preamble.tex"
     ns1:text="$y$"
     ns1:pdfconverter="inkscape"
     ns1:texconverter="pdflatex"
     ns1:version="1.1.0">
    <defs
       id="id-e73633f9-8dc4-46b7-a0bb-53132198b78b">
      <g
         id="id-29133148-d815-4a29-b24b-553794fadc42">
        <symbol
           overflow="visible"
           id="id-a118ae13-ba78-4e16-a069-642ee6dfbf21">
          <path
             style="stroke:none"
             d=""
             id="id-60087a64-c00a-483e-8331-082cd9a13b5a" />
        </symbol>
        <symbol
           overflow="visible"
           id="id-2b6fc8c0-4918-42f3-baf6-c3ffc04d3189">
          <path
             style="stroke:none"
             d="m 1.328125,-4.390625 c -0.46875,0 -1.15625,0.765625 -1.265625,0.953125 0,0.0625 0.0625,0.1875 0.09375,0.1875 0.03125,-0.03125 0.484375,-0.59375 0.71875,-0.59375 0.484375,0 0.59375,2.0625 0.59375,3.21875 v 0.453125 c 0,0.375 -0.015625,0.78125 -0.171875,1.015625 -0.328125,0.484375 -0.75,0.84375 -1.375,0.84375 -0.21875,0 -0.65625,-0.109375 -0.8125,-0.1875 -0.140625,0.078125 -0.21875,0.28125 -0.21875,0.4375 0,0.21875 0.234375,0.421875 0.59375,0.421875 1.359375,0 4.609375,-3.578125 4.609375,-5.953125 0,-0.21875 -0.03125,-0.796875 -0.453125,-0.796875 -0.234375,0 -0.421875,0.171875 -0.5,0.4375 0.109375,0.21875 0.25,0.46875 0.25,1.078125 0,1.09375 -0.796875,2.28125 -1.15625,2.71875 0,-0.609375 -0.03125,-4.234375 -0.90625,-4.234375 z m 0,0"
             id="id-6f97116d-2f8f-4339-9533-8ba7c745a227" />
        </symbol>
      </g>
    </defs>
    <g
       id="id-105fa2e0-9149-4bd8-b8bd-3bd92f52b646"
       transform="translate(-148.6,-130.374)">
      <g
         style="fill:#000000;fill-opacity:1"
         id="id-8ccf2df6-ff51-4947-b580-19d649738fb9">
        <g
           id="g11205"
           transform="translate(149.709,134.765)">
          <path
             style="stroke:none"
             d="m 1.328125,-4.390625 c -0.46875,0 -1.15625,0.765625 -1.265625,0.953125 0,0.0625 0.0625,0.1875 0.09375,0.1875 0.03125,-0.03125 0.484375,-0.59375 0.71875,-0.59375 0.484375,0 0.59375,2.0625 0.59375,3.21875 v 0.453125 c 0,0.375 -0.015625,0.78125 -0.171875,1.015625 -0.328125,0.484375 -0.75,0.84375 -1.375,0.84375 -0.21875,0 -0.65625,-0.109375 -0.8125,-0.1875 -0.140625,0.078125 -0.21875,0.28125 -0.21875,0.4375 0,0.21875 0.234375,0.421875 0.59375,0.421875 1.359375,0 4.609375,-3.578125 4.609375,-5.953125 0,-0.21875 -0.03125,-0.796875 -0.453125,-0.796875 -0.234375,0 -0.421875,0.171875 -0.5,0.4375 0.109375,0.21875 0.25,0.46875 0.25,1.078125 0,1.09375 -0.796875,2.28125 -1.15625,2.71875 0,-0.609375 -0.03125,-4.234375 -0.90625,-4.234375 z m 0,0"
             id="id-32f53ce0-f987-42a7-bdc4-b0af4dc015f3" />
        </g>
      </g>
    </g>
  </g>
  <g
     id="g11345"
     ns1:jacobian_sqrt="0.258774"
     transform="matrix(0.94458065,0,0,0.94458065,166.4761,74.980874)"
     ns1:inkscapeversion="1.0"
     ns1:alignment="middle center"
     ns1:scale="0.25877379"
     ns1:preamble="C:\\Users\\flvisa\\Desktop\\lna\\latexify_books\\textext_preamble.tex"
     ns1:text="$x$"
     ns1:pdfconverter="inkscape"
     ns1:texconverter="pdflatex"
     ns1:version="1.1.0">
    <defs
       id="id-e6de1665-da72-41bc-adbb-fe576ec73f39">
      <g
         id="id-14d8c399-d641-4b18-99d3-aabc58fad83f">
        <symbol
           overflow="visible"
           id="id-be38c42f-f184-4103-86ed-e1fed803d400">
          <path
             style="stroke:none"
             d=""
             id="id-5a72d8a6-9968-4dda-947b-c62e2c2b084d" />
        </symbol>
        <symbol
           overflow="visible"
           id="id-f505f73f-a027-4ed3-8680-db536d3a5852">
          <path
             style="stroke:none"
             d="M 2.984375,-0.890625 2.65625,-2.46875 c 0.1875,-0.375 0.375,-0.671875 0.609375,-1.0625 0.0625,-0.125 0.140625,-0.234375 0.265625,-0.234375 H 3.5625 c 0.21875,0.015625 0.265625,0.28125 0.46875,0.28125 0.21875,0 0.359375,-0.203125 0.359375,-0.4375 0,-0.15625 -0.046875,-0.265625 -0.109375,-0.34375 -0.15625,-0.09375 -0.328125,-0.125 -0.46875,-0.125 -0.515625,0 -0.78125,0.671875 -1.234375,1.5625 L 2.4375,-3.515625 c -0.109375,-0.546875 -0.390625,-0.875 -0.6875,-0.875 -0.453125,0 -1.15625,0.796875 -1.234375,0.9375 0,0.046875 0.078125,0.1875 0.109375,0.1875 0.109375,-0.140625 0.5625,-0.578125 0.765625,-0.578125 0.171875,0 0.28125,0.171875 0.3125,0.390625 l 0.28125,1.40625 c -0.25,0.484375 -0.421875,0.78125 -0.6875,1.25 C 1.21875,-0.671875 1.140625,-0.5625 1,-0.5625 H 0.984375 c -0.21875,-0.03125 -0.25,-0.296875 -0.453125,-0.296875 -0.234375,0 -0.375,0.21875 -0.375,0.453125 0,0.140625 0.046875,0.25 0.109375,0.34375 0.15625,0.09375 0.328125,0.109375 0.46875,0.109375 0.5625,0 0.828125,-0.765625 1.328125,-1.734375 L 2.25,-0.828125 c 0.109375,0.53125 0.375,0.875 0.6875,0.875 0.4375,0 1.15625,-0.796875 1.234375,-0.9375 C 4.171875,-0.9375 4.09375,-1.0625 4.0625,-1.0625 3.953125,-0.921875 3.5,-0.53125 3.328125,-0.53125 c -0.21875,0 -0.3125,-0.140625 -0.34375,-0.359375 z m 0,0"
             id="id-60e48405-93e4-4faa-8e1f-456b14425173" />
        </symbol>
      </g>
    </defs>
    <g
       id="id-38f8b964-18cd-4bb1-adfb-279f6fa11df5"
       transform="translate(-149.167,-130.374)">
      <g
         style="fill:#000000;fill-opacity:1"
         id="id-ba5e7e66-c554-413e-a57a-107afc7530b8">
        <g
           id="g11341"
           transform="translate(149.011,134.765)">
          <path
             style="stroke:none"
             d="M 2.984375,-0.890625 2.65625,-2.46875 c 0.1875,-0.375 0.375,-0.671875 0.609375,-1.0625 0.0625,-0.125 0.140625,-0.234375 0.265625,-0.234375 H 3.5625 c 0.21875,0.015625 0.265625,0.28125 0.46875,0.28125 0.21875,0 0.359375,-0.203125 0.359375,-0.4375 0,-0.15625 -0.046875,-0.265625 -0.109375,-0.34375 -0.15625,-0.09375 -0.328125,-0.125 -0.46875,-0.125 -0.515625,0 -0.78125,0.671875 -1.234375,1.5625 L 2.4375,-3.515625 c -0.109375,-0.546875 -0.390625,-0.875 -0.6875,-0.875 -0.453125,0 -1.15625,0.796875 -1.234375,0.9375 0,0.046875 0.078125,0.1875 0.109375,0.1875 0.109375,-0.140625 0.5625,-0.578125 0.765625,-0.578125 0.171875,0 0.28125,0.171875 0.3125,0.390625 l 0.28125,1.40625 c -0.25,0.484375 -0.421875,0.78125 -0.6875,1.25 C 1.21875,-0.671875 1.140625,-0.5625 1,-0.5625 H 0.984375 c -0.21875,-0.03125 -0.25,-0.296875 -0.453125,-0.296875 -0.234375,0 -0.375,0.21875 -0.375,0.453125 0,0.140625 0.046875,0.25 0.109375,0.34375 0.15625,0.09375 0.328125,0.109375 0.46875,0.109375 0.5625,0 0.828125,-0.765625 1.328125,-1.734375 L 2.25,-0.828125 c 0.109375,0.53125 0.375,0.875 0.6875,0.875 0.4375,0 1.15625,-0.796875 1.234375,-0.9375 C 4.171875,-0.9375 4.09375,-1.0625 4.0625,-1.0625 3.953125,-0.921875 3.5,-0.53125 3.328125,-0.53125 c -0.21875,0 -0.3125,-0.140625 -0.34375,-0.359375 z m 0,0"
             id="id-810f1986-2e7b-47b4-861a-860555dbca15" />
        </g>
      </g>
    </g>
  </g>
  <circle
     style="fill:#d3c7b1;stroke:#d3c7b1;stroke-width:1.46009;stroke-linecap:butt;stroke-linejoin:round;stroke-miterlimit:10;stroke-dasharray:none;paint-order:stroke fill markers"
     id="path11450"
     cx="158.59526"
     cy="70.189972"
     r="1.9377205" />
  <g
     id="g11522"
     ns1:jacobian_sqrt="0.258774"
     transform="matrix(0.94458065,0,0,0.94458065,85.932905,36.865724)"
     ns1:inkscapeversion="1.0"
     ns1:alignment="middle center"
     ns1:scale="0.25877379"
     ns1:preamble="C:\\Users\\flvisa\\Desktop\\lna\\latexify_books\\textext_preamble.tex"
     ns1:text="$B$"
     ns1:pdfconverter="inkscape"
     ns1:texconverter="pdflatex"
     ns1:version="1.1.0"
     style="fill:#c28f47">
    <defs
       id="id-ec151530-a985-4f15-b0b3-c778f81adade">
      <g
         id="id-405ebdc3-8e6b-42c8-b862-266d0df44057">
        <symbol
           overflow="visible"
           id="id-3c4d1d86-7f73-4f04-9bb0-8b73459e6d17">
          <path
             style="stroke:none"
             d=""
             id="id-3b3624b6-e6d2-4f09-b8c9-88e8be28bd2f" />
        </symbol>
        <symbol
           overflow="visible"
           id="id-89d2fdb4-390d-46cb-948d-d4c64479d776">
          <path
             style="stroke:none"
             d="M 2.203125,-3.734375 2.53125,-5.5 c 0.0625,-0.296875 0.125,-0.625 0.1875,-0.75 0.046875,-0.09375 0.390625,-0.109375 0.5,-0.109375 0.875,0 1.140625,0.53125 1.140625,1.09375 0,0.859375 -0.53125,1.53125 -1.203125,1.53125 z m -0.59375,3.15625 c 0,-0.171875 0.0625,-0.484375 0.078125,-0.59375 l 0.453125,-2.25 h 0.5625 c 1.40625,0 1.421875,0.84375 1.421875,1.171875 v 0.03125 c 0,1.234375 -0.75,1.921875 -1.796875,1.921875 -0.34375,0 -0.71875,0 -0.71875,-0.28125 z m 0.75,-6.046875 C 2,-6.625 1.625,-6.65625 1.25,-6.671875 c -0.046875,0.015625 -0.0625,0.125 -0.0625,0.203125 0,0.03125 0,0.0625 0.015625,0.078125 0.15625,0 0.609375,0.046875 0.609375,0.203125 0,0.171875 -0.046875,0.4375 -0.09375,0.703125 L 0.875,-1.203125 c -0.0625,0.3125 -0.109375,0.578125 -0.1875,0.75 C 0.640625,-0.34375 0.125,-0.296875 0.015625,-0.296875 -0.03125,-0.25 -0.0625,-0.140625 -0.0625,-0.0625 c 0,0.03125 0,0.046875 0.015625,0.0625 h 2.15625 C 3.8125,0 5.078125,-0.90625 5.078125,-2.28125 5.078125,-3.109375 4.5,-3.65625 4.046875,-3.6875 4.453125,-3.90625 5.25,-4.40625 5.25,-5.40625 c 0,-0.875 -0.71875,-1.25 -1.578125,-1.25 -0.546875,0 -0.953125,0.03125 -1.3125,0.03125 z m 0,0"
             id="id-113d5ad0-bda2-4300-947e-0bfc2c0e374e" />
        </symbol>
      </g>
    </defs>
    <g
       id="id-e58cc748-90b2-410d-9b18-9fd6e6915ad3"
       transform="translate(-149.148,-128.093)"
       style="fill:#c28f47">
      <g
         style="fill:#c28f47;fill-opacity:1"
         id="id-834ea9c9-c1be-42fb-a12a-759798e145be">
        <g
           id="g11518"
           transform="translate(149.21,134.765)"
           style="fill:#c28f47">
          <path
             style="fill:#c28f47;stroke:none"
             d="M 2.203125,-3.734375 2.53125,-5.5 c 0.0625,-0.296875 0.125,-0.625 0.1875,-0.75 0.046875,-0.09375 0.390625,-0.109375 0.5,-0.109375 0.875,0 1.140625,0.53125 1.140625,1.09375 0,0.859375 -0.53125,1.53125 -1.203125,1.53125 z m -0.59375,3.15625 c 0,-0.171875 0.0625,-0.484375 0.078125,-0.59375 l 0.453125,-2.25 h 0.5625 c 1.40625,0 1.421875,0.84375 1.421875,1.171875 v 0.03125 c 0,1.234375 -0.75,1.921875 -1.796875,1.921875 -0.34375,0 -0.71875,0 -0.71875,-0.28125 z m 0.75,-6.046875 C 2,-6.625 1.625,-6.65625 1.25,-6.671875 c -0.046875,0.015625 -0.0625,0.125 -0.0625,0.203125 0,0.03125 0,0.0625 0.015625,0.078125 0.15625,0 0.609375,0.046875 0.609375,0.203125 0,0.171875 -0.046875,0.4375 -0.09375,0.703125 L 0.875,-1.203125 c -0.0625,0.3125 -0.109375,0.578125 -0.1875,0.75 C 0.640625,-0.34375 0.125,-0.296875 0.015625,-0.296875 -0.03125,-0.25 -0.0625,-0.140625 -0.0625,-0.0625 c 0,0.03125 0,0.046875 0.015625,0.0625 h 2.15625 C 3.8125,0 5.078125,-0.90625 5.078125,-2.28125 5.078125,-3.109375 4.5,-3.65625 4.046875,-3.6875 4.453125,-3.90625 5.25,-4.40625 5.25,-5.40625 c 0,-0.875 -0.71875,-1.25 -1.578125,-1.25 -0.546875,0 -0.953125,0.03125 -1.3125,0.03125 z m 0,0"
             id="id-1175d4a2-9d2e-4518-a741-07051670c9d2" />
        </g>
      </g>
    </g>
  </g>
  <g
     id="g11606"
     ns1:jacobian_sqrt="0.258774"
     transform="matrix(0.94458065,0,0,0.94458065,120.02619,61.04522)"
     ns1:inkscapeversion="1.0"
     ns1:alignment="middle center"
     ns1:scale="0.25877379"
     ns1:preamble="C:\\Users\\flvisa\\Desktop\\lna\\latexify_books\\textext_preamble.tex"
     ns1:text="$A$"
     ns1:pdfconverter="inkscape"
     ns1:texconverter="pdflatex"
     ns1:version="1.1.0"
     style="fill:#c28f47">
    <defs
       id="id-e0252a0d-223d-48b0-9256-3bbe8d9c824b">
      <g
         id="id-142c9ebd-1e10-49a5-adf9-fca0efb2ba64">
        <symbol
           overflow="visible"
           id="id-950e9359-4ba1-4ea7-a860-8fd8caac3e5f">
          <path
             style="stroke:none"
             d=""
             id="id-e26fa672-6f9d-42c2-b676-7a0926a4e227" />
        </symbol>
        <symbol
           overflow="visible"
           id="id-df2478a9-9a39-45ce-a859-5684082465ca">
          <path
             style="stroke:none"
             d="m 3.4375,-0.265625 c -0.0625,0.0625 -0.09375,0.25 -0.0625,0.296875 0.4375,-0.015625 0.609375,-0.046875 1.046875,-0.046875 0.40625,0 0.734375,0.03125 1.109375,0.046875 C 5.546875,0 5.59375,-0.1875 5.5625,-0.265625 c -0.0625,0 -0.578125,-0.03125 -0.640625,-0.328125 0,-0.03125 -0.046875,-0.3125 -0.109375,-0.6875 l -0.859375,-5.375 C 3.9375,-6.671875 3.921875,-6.6875 3.890625,-6.6875 c -0.078125,0 -0.3125,0.125 -0.40625,0.28125 l -2.78125,5 c -0.1875,0.359375 -0.390625,0.6875 -0.625,0.953125 -0.125,0.125 -0.46875,0.1875 -0.578125,0.1875 C -0.53125,-0.1875 -0.578125,0 -0.5625,0.03125 -0.125,0.015625 0,-0.015625 0.4375,-0.015625 c 0.40625,0 0.53125,0.03125 0.890625,0.046875 0.03125,-0.0625 0.0625,-0.265625 0.046875,-0.296875 -0.0625,0 -0.625,-0.03125 -0.625,-0.25 C 0.75,-0.65625 0.859375,-0.90625 1.03125,-1.25 1.125,-1.421875 1.421875,-1.953125 1.75,-2.578125 h 2.015625 l 0.21875,1.515625 c 0.03125,0.1875 0.03125,0.390625 0.03125,0.484375 0,0.203125 -0.234375,0.3125 -0.578125,0.3125 z m -1.5,-2.640625 1.375,-2.484375 0.390625,2.484375 z m 0,0"
             id="id-bb48271e-cbc3-4ee9-b785-8c1d369dcf1b" />
        </symbol>
      </g>
    </defs>
    <g
       id="id-07154ceb-8b33-4cbe-a783-af3870afb5c3"
       transform="translate(-148.844,-128.077)"
       style="fill:#c28f47">
      <g
         style="fill:#c28f47;fill-opacity:1"
         id="id-efa70b12-3e12-45ac-b45d-5725fc9f2b84">
        <g
           id="g11602"
           transform="translate(149.41,134.765)"
           style="fill:#c28f47">
          <path
             style="fill:#c28f47;stroke:none"
             d="m 3.4375,-0.265625 c -0.0625,0.0625 -0.09375,0.25 -0.0625,0.296875 0.4375,-0.015625 0.609375,-0.046875 1.046875,-0.046875 0.40625,0 0.734375,0.03125 1.109375,0.046875 C 5.546875,0 5.59375,-0.1875 5.5625,-0.265625 c -0.0625,0 -0.578125,-0.03125 -0.640625,-0.328125 0,-0.03125 -0.046875,-0.3125 -0.109375,-0.6875 l -0.859375,-5.375 C 3.9375,-6.671875 3.921875,-6.6875 3.890625,-6.6875 c -0.078125,0 -0.3125,0.125 -0.40625,0.28125 l -2.78125,5 c -0.1875,0.359375 -0.390625,0.6875 -0.625,0.953125 -0.125,0.125 -0.46875,0.1875 -0.578125,0.1875 C -0.53125,-0.1875 -0.578125,0 -0.5625,0.03125 -0.125,0.015625 0,-0.015625 0.4375,-0.015625 c 0.40625,0 0.53125,0.03125 0.890625,0.046875 0.03125,-0.0625 0.0625,-0.265625 0.046875,-0.296875 -0.0625,0 -0.625,-0.03125 -0.625,-0.25 C 0.75,-0.65625 0.859375,-0.90625 1.03125,-1.25 1.125,-1.421875 1.421875,-1.953125 1.75,-2.578125 h 2.015625 l 0.21875,1.515625 c 0.03125,0.1875 0.03125,0.390625 0.03125,0.484375 0,0.203125 -0.234375,0.3125 -0.578125,0.3125 z m -1.5,-2.640625 1.375,-2.484375 0.390625,2.484375 z m 0,0"
             id="id-ad7a1611-fe8c-473a-a3da-18e70b8a7296" />
        </g>
      </g>
    </g>
  </g>
  <g
     id="g11761"
     style="fill:#c28f47;stroke-width:0"
     ns1:jacobian_sqrt="0.258774"
     transform="matrix(0.94458065,0,0,0.94458065,161.32558,60.346602)"
     ns1:inkscapeversion="1.0"
     ns1:alignment="middle center"
     ns1:scale="0.25877379"
     ns1:preamble="C:\\Users\\flvisa\\Desktop\\lna\\latexify_books\\textext_preamble.tex"
     ns1:text="$1$"
     ns1:pdfconverter="inkscape"
     ns1:texconverter="pdflatex"
     ns1:version="1.1.0">
    <defs
       id="id-89dafef1-5e28-4e62-8b86-4b1dd2fccc79">
      <g
         style="fill:#c28f47;stroke-width:0"
         id="id-577fe027-c45e-4818-ad8c-376dda2ef1fd">
        <symbol
           style="fill:#c28f47;stroke-width:0"
           overflow="visible"
           id="id-bc1f46c8-8d8c-4cca-83a7-ac2edd142505">
          <path
             style="fill:#c28f47;stroke:none;stroke-width:0"
             d="M 0.5,0 H 4.484375 V -4.8125 H 0.5 Z M 1,-0.5 V -4.3125 H 3.984375 V -0.5 Z m 0,0"
             id="id-39def505-4cee-406f-ae0b-194fbad5e063" />
        </symbol>
        <symbol
           style="fill:#c28f47;stroke-width:0"
           overflow="visible"
           id="id-fef8ab12-2d3a-47e7-b887-ce1247711a80">
          <path
             style="fill:#c28f47;stroke:none;stroke-width:0"
             d="m 2.171875,-1.125 c 0,0.28125 -0.015625,0.5625 -0.0625,0.71875 C 2.078125,-0.296875 1.609375,-0.25 1.5,-0.25 c -0.046875,0.046875 -0.046875,0.234375 0,0.28125 0.390625,-0.015625 0.65625,-0.046875 1.03125,-0.046875 0.375,0 0.6875,0.03125 1.09375,0.046875 0.046875,-0.046875 0.03125,-0.234375 0,-0.28125 C 3.5,-0.25 3.015625,-0.296875 2.984375,-0.40625 2.9375,-0.5625 2.9375,-0.84375 2.9375,-1.125 v -4.03125 c 0,-0.59375 0.078125,-0.9375 0.078125,-0.9375 0,-0.046875 -0.03125,-0.15625 -0.09375,-0.15625 H 2.90625 C 2.875,-6.25 2,-5.828125 1.203125,-5.46875 c -0.03125,0.015625 0,0.046875 0,0.0625 0,0.078125 0.03125,0.125 0.078125,0.171875 0.171875,-0.0625 0.546875,-0.203125 0.6875,-0.203125 0.140625,0 0.203125,0.09375 0.203125,0.375 z m 0,0"
             id="id-b70241de-359e-49bb-a189-ec6d353c55a8" />
        </symbol>
      </g>
    </defs>
    <g
       style="fill:#c28f47;stroke-width:0"
       id="id-cb633bda-2566-423e-9da2-f88a21f2db7d"
       transform="translate(-149.901,-128.515)">
      <g
         style="fill:#c28f47;fill-opacity:1;stroke-width:0"
         id="id-c6a1442a-f088-49f4-ae17-1c244a1d62b5">
        <g
           id="g11757"
           style="fill:#c28f47;stroke-width:0"
           transform="translate(148.712,134.765)">
          <path
             style="fill:#c28f47;stroke:none;stroke-width:0"
             d="m 2.171875,-1.125 c 0,0.28125 -0.015625,0.5625 -0.0625,0.71875 C 2.078125,-0.296875 1.609375,-0.25 1.5,-0.25 c -0.046875,0.046875 -0.046875,0.234375 0,0.28125 0.390625,-0.015625 0.65625,-0.046875 1.03125,-0.046875 0.375,0 0.6875,0.03125 1.09375,0.046875 0.046875,-0.046875 0.03125,-0.234375 0,-0.28125 C 3.5,-0.25 3.015625,-0.296875 2.984375,-0.40625 2.9375,-0.5625 2.9375,-0.84375 2.9375,-1.125 v -4.03125 c 0,-0.59375 0.078125,-0.9375 0.078125,-0.9375 0,-0.046875 -0.03125,-0.15625 -0.09375,-0.15625 H 2.90625 C 2.875,-6.25 2,-5.828125 1.203125,-5.46875 c -0.03125,0.015625 0,0.046875 0,0.0625 0,0.078125 0.03125,0.125 0.078125,0.171875 0.171875,-0.0625 0.546875,-0.203125 0.6875,-0.203125 0.140625,0 0.203125,0.09375 0.203125,0.375 z m 0,0"
             id="id-217ae6df-8182-4f41-974a-8c9f0b341cf6" />
        </g>
      </g>
    </g>
  </g>
  <g
     id="g11932"
     style="fill:#c28f47;stroke-width:0"
     ns1:jacobian_sqrt="0.258774"
     transform="matrix(0.94458065,0,0,0.94458065,77.184504,71.766057)"
     ns1:inkscapeversion="1.0"
     ns1:alignment="middle center"
     ns1:scale="0.25877379"
     ns1:preamble="C:\\Users\\flvisa\\Desktop\\lna\\latexify_books\\textext_preamble.tex"
     ns1:text="$0$"
     ns1:pdfconverter="inkscape"
     ns1:texconverter="pdflatex"
     ns1:version="1.1.0">
    <defs
       id="id-653c8857-5bac-4612-9e24-e5cb1d089f9f">
      <g
         style="fill:#c28f47;stroke-width:0"
         id="id-5686ff1a-578b-46d6-ac15-7384e75a834f">
        <symbol
           style="fill:#c28f47;stroke-width:0"
           overflow="visible"
           id="id-2de13a81-ba87-4026-8960-c18f2ea77f1f">
          <path
             style="fill:#c28f47;stroke:none;stroke-width:0"
             d="M 0.5,0 H 4.484375 V -4.8125 H 0.5 Z M 1,-0.5 V -4.3125 H 3.984375 V -0.5 Z m 0,0"
             id="id-5c6b7f8e-4fb6-403c-a4df-a84bd9348169" />
        </symbol>
        <symbol
           style="fill:#c28f47;stroke-width:0"
           overflow="visible"
           id="id-01d5d73f-2052-4c98-afbd-39dc31a6d6df">
          <path
             style="fill:#c28f47;stroke:none;stroke-width:0"
             d="m 2.484375,-5.875 c 0.71875,0 1.203125,1.1875 1.203125,2.71875 0,1.515625 -0.4375,2.828125 -1.3125,2.828125 -0.703125,0 -1.21875,-1.25 -1.21875,-2.78125 0,-1.53125 0.515625,-2.765625 1.328125,-2.765625 z m -0.0625,-0.359375 c -1.34375,0 -2.125,1.421875 -2.125,3.125 0,1.6875 0.796875,3.140625 2.125,3.140625 1.34375,0 2.125,-1.453125 2.125,-3.140625 0,-1.703125 -0.765625,-3.125 -2.125,-3.125 z m 0,0"
             id="id-9d58b850-05d9-4fab-a143-f9d2389de25f" />
        </symbol>
      </g>
    </defs>
    <g
       style="fill:#c28f47;stroke-width:0"
       id="id-1010fb4e-6224-4985-aa06-47e55132b849"
       transform="translate(-149.009,-128.531)">
      <g
         style="fill:#c28f47;fill-opacity:1;stroke-width:0"
         id="id-f5d5eb76-0b31-41dd-b70d-16e4077241b4">
        <g
           id="g11928"
           style="fill:#c28f47;stroke-width:0"
           transform="translate(148.712,134.765)">
          <path
             style="fill:#c28f47;stroke:none;stroke-width:0"
             d="m 2.484375,-5.875 c 0.71875,0 1.203125,1.1875 1.203125,2.71875 0,1.515625 -0.4375,2.828125 -1.3125,2.828125 -0.703125,0 -1.21875,-1.25 -1.21875,-2.78125 0,-1.53125 0.515625,-2.765625 1.328125,-2.765625 z m -0.0625,-0.359375 c -1.34375,0 -2.125,1.421875 -2.125,3.125 0,1.6875 0.796875,3.140625 2.125,3.140625 1.34375,0 2.125,-1.453125 2.125,-3.140625 0,-1.703125 -0.765625,-3.125 -2.125,-3.125 z m 0,0"
             id="id-7f0662d9-96c7-4210-8f00-28cd1ca04c02" />
        </g>
      </g>
    </g>
  </g>
  <path
     style="fill:none;stroke:#a6a7a3;stroke-width:1.09506;stroke-linecap:butt;stroke-linejoin:miter;stroke-miterlimit:4;stroke-dasharray:none;stroke-opacity:1;marker-end:url(#marker11950)"
     d="m 128.22374,25.12189 -3.91478,-2.12517"
     id="path11946" />
  <path
     id="path11946-3"
     d="m 128.22489,115.29259 -3.91478,2.12517"
     style="fill:none;stroke:#a6a7a3;stroke-width:1.09506;stroke-linecap:butt;stroke-linejoin:miter;stroke-miterlimit:4;stroke-dasharray:none;stroke-opacity:1;marker-end:url(#marker11950-0)" />
  <g
     id="g12331"
     ns1:jacobian_sqrt="0.258774"
     transform="matrix(0.94458065,0,0,0.94458065,134.4151,16.243827)"
     ns1:inkscapeversion="1.0"
     ns1:alignment="middle center"
     ns1:scale="0.25877379"
     ns1:preamble="C:\\Users\\flvisa\\Desktop\\lna\\latexify_books\\textext_preamble.tex"
     ns1:text="$\\alpha=-\\frac{\\pi}{2}$"
     ns1:pdfconverter="inkscape"
     ns1:texconverter="pdflatex"
     ns1:version="1.1.0">
    <defs
       id="id-1274f271-6cfa-4f34-97cd-9bf917c3e823">
      <g
         id="id-903b9604-cafa-47ee-be67-bdc2950617a7">
        <symbol
           overflow="visible"
           id="id-774ef2a6-5122-431d-9fba-636cca495522">
          <path
             style="stroke:none"
             d=""
             id="id-fbffcbd4-d1e3-4596-a9a9-2d196bd0e0b9" />
        </symbol>
        <symbol
           overflow="visible"
           id="id-a597b3bb-26b4-4a3c-ad49-83c5f5da1438">
          <path
             style="stroke:none"
             d="m 2.34375,-4.40625 c -1.0625,0 -2.171875,2.1875 -2.171875,3.390625 0,0.75 0.34375,1.078125 0.890625,1.078125 0.546875,0 1.15625,-0.59375 1.6875,-1.265625 -0.03125,0.1875 -0.046875,0.375 -0.046875,0.53125 0,0.40625 0.140625,0.71875 0.453125,0.71875 0.4375,0 0.78125,-0.546875 0.84375,-0.75 0.015625,-0.03125 -0.015625,-0.1875 -0.046875,-0.21875 -0.140625,0.140625 -0.296875,0.25 -0.515625,0.25 -0.15625,0 -0.359375,-0.078125 -0.359375,-0.53125 0,-0.15625 0.015625,-0.390625 0.109375,-0.6875 l 0.484375,-0.78125 c 0.25,-0.3125 0.5625,-0.921875 0.5625,-1.21875 0,-0.28125 -0.203125,-0.5 -0.328125,-0.5 -0.15625,0 -0.53125,0.9375 -0.78125,1.65625 l -0.25,0.4375 c 0.015625,-0.171875 0.03125,-0.515625 0.03125,-0.71875 0,-0.765625 -0.1875,-1.390625 -0.5625,-1.390625 z m -1.703125,3.625 c 0,-1.03125 1.03125,-2.921875 1.625,-2.921875 0.234375,0 0.3125,0.34375 0.3125,0.796875 v 0.0625 c 0,0.46875 -0.09375,0.984375 -0.25,1.328125 -0.5,0.71875 -1.015625,1.21875 -1.375,1.21875 -0.1875,0 -0.3125,-0.125 -0.3125,-0.484375 z m 0,0"
             id="id-13a3aa15-233e-471e-9242-84f2e2afb92c" />
        </symbol>
        <symbol
           overflow="visible"
           id="id-fb95c316-ec06-489f-bbbe-1c27a41b15d6">
          <path
             style="stroke:none"
             d=""
             id="id-1f8424f5-0b14-456e-a16e-d4279b63de47" />
        </symbol>
        <symbol
           overflow="visible"
           id="id-5f043b70-bddd-490b-9b42-6cdb7785642b">
          <path
             style="stroke:none"
             d="M 5.5,-3.296875 V -3.84375 H 0.40625 v 0.546875 z m 0,2.03125 v -0.5625 H 0.40625 v 0.5625 z m 0,0"
             id="id-f46c816b-b2b4-4ba7-a101-33fda98b6c7e" />
        </symbol>
        <symbol
           overflow="visible"
           id="id-e1fad1fd-4528-45b0-90ea-c5dcc97a4a55">
          <path
             style="stroke:none"
             d=""
             id="id-faab44b2-4f17-422a-92d3-5e97a9d3a6ed" />
        </symbol>
        <symbol
           overflow="visible"
           id="id-9b660c71-dd93-482f-bf53-91d21efa9521">
          <path
             style="stroke:none"
             d="m 5.71875,-2.28125 v -0.5625 H 0.625 v 0.5625 z m 0,0"
             id="id-b588e9d9-29bb-48cc-982b-cafef3ed1a68" />
        </symbol>
        <symbol
           overflow="visible"
           id="id-170498c2-71af-4934-8552-af53342eb242">
          <path
             style="stroke:none"
             d=""
             id="id-71f7150a-bf8e-4508-9ea6-dfa22b2e85f4" />
        </symbol>
        <symbol
           overflow="visible"
           id="id-d4a47f8c-7796-40a0-91a7-769378da93b4">
          <path
             style="stroke:none"
             d="m 1.375,-2.65625 c -0.34375,1.234375 -0.65625,1.734375 -1.09375,2.390625 0,0.078125 0.125,0.28125 0.28125,0.28125 0.03125,0 0.09375,0 0.140625,-0.015625 0.171875,-0.234375 0.75,-2.125 0.875,-2.640625 0.203125,0.015625 0.4375,0.03125 0.625,0.046875 -0.09375,0.46875 -0.25,1.3125 -0.328125,1.953125 0,0.046875 0,0.09375 0,0.125 0,0.3125 0.109375,0.53125 0.359375,0.53125 0.234375,0 0.515625,-0.34375 0.53125,-0.40625 v -0.03125 C 2.765625,-0.453125 2.75,-0.5 2.734375,-0.515625 2.703125,-0.484375 2.59375,-0.4375 2.53125,-0.4375 c -0.140625,0 -0.3125,-0.09375 -0.3125,-0.453125 0,-0.453125 0.109375,-1.1875 0.171875,-1.6875 C 2.5625,-2.5625 2.625,-2.5625 2.703125,-2.5625 c 0.515625,0 0.75,-0.578125 0.75,-0.640625 0,-0.03125 -0.0625,-0.0625 -0.09375,-0.0625 -0.09375,0.078125 -0.3125,0.171875 -0.671875,0.171875 -0.625,0 -0.78125,-0.09375 -1.328125,-0.09375 -0.28125,0 -0.8125,0.09375 -0.9375,0.71875 0,0.0625 -0.015625,0.140625 -0.015625,0.1875 V -2.25 c 0.015625,0.015625 0.03125,0.015625 0.046875,0.015625 0.015625,0 0.03125,0 0.046875,-0.015625 0.15625,-0.265625 0.34375,-0.40625 0.875,-0.40625 z m 0,0"
             id="id-8e4a3211-630a-40f2-9c42-be32b6087c4c" />
        </symbol>
        <symbol
           overflow="visible"
           id="id-e3f79871-79c0-479d-bfca-c5b949a46ead">
          <path
             style="stroke:none"
             d="m 0.359375,0 h 2.90625 V -3.515625 H 0.359375 Z M 0.71875,-0.359375 v -2.78125 h 2.1875 v 2.78125 z m 0,0"
             id="id-794e4251-2b1e-4f1a-8c60-e416bf4337c4" />
        </symbol>
        <symbol
           overflow="visible"
           id="id-4967de27-2538-45c1-9a65-bc85b9be37ea">
          <path
             style="stroke:none"
             d="M 3.21875,-1.0625 C 3.1875,-1.078125 3.109375,-1.109375 3.078125,-1.109375 3.03125,-1.109375 3.015625,-1.09375 3,-1.0625 2.84375,-0.6875 2.6875,-0.515625 2.390625,-0.515625 H 0.984375 C 1.3125,-0.875 2.03125,-1.671875 2.53125,-2.296875 2.78125,-2.59375 2.9375,-2.96875 2.9375,-3.375 c 0,-0.59375 -0.546875,-1.1875 -1.21875,-1.1875 -0.75,0 -1.265625,0.796875 -1.3125,0.96875 0,0.03125 0.078125,0.109375 0.140625,0.109375 C 0.625,-3.625 0.984375,-4.09375 1.5625,-4.09375 c 0.4375,0 0.78125,0.375 0.78125,0.859375 0,0.34375 -0.0625,0.640625 -0.34375,1.0625 -0.421875,0.609375 -1.09375,1.40625 -1.6875,2.0625 0,0.03125 0.03125,0.09375 0.0625,0.109375 h 2.453125 c 0.046875,-0.125 0.25,-0.71875 0.390625,-1.0625 z m 0,0"
             id="id-2e5e31c3-70d3-4550-a945-d9ce75acdb88" />
        </symbol>
      </g>
    </defs>
    <g
       id="id-984791c2-7a3e-485c-8569-e693406c6d58"
       transform="translate(-149.153,-127.574)">
      <g
         style="fill:#000000;fill-opacity:1"
         id="id-f9e47284-d8be-4be4-b134-fcf201071030">
        <g
           id="g12310"
           transform="translate(148.981,134.765)">
          <path
             style="stroke:none"
             d="m 2.34375,-4.40625 c -1.0625,0 -2.171875,2.1875 -2.171875,3.390625 0,0.75 0.34375,1.078125 0.890625,1.078125 0.546875,0 1.15625,-0.59375 1.6875,-1.265625 -0.03125,0.1875 -0.046875,0.375 -0.046875,0.53125 0,0.40625 0.140625,0.71875 0.453125,0.71875 0.4375,0 0.78125,-0.546875 0.84375,-0.75 0.015625,-0.03125 -0.015625,-0.1875 -0.046875,-0.21875 -0.140625,0.140625 -0.296875,0.25 -0.515625,0.25 -0.15625,0 -0.359375,-0.078125 -0.359375,-0.53125 0,-0.15625 0.015625,-0.390625 0.109375,-0.6875 l 0.484375,-0.78125 c 0.25,-0.3125 0.5625,-0.921875 0.5625,-1.21875 0,-0.28125 -0.203125,-0.5 -0.328125,-0.5 -0.15625,0 -0.53125,0.9375 -0.78125,1.65625 l -0.25,0.4375 c 0.015625,-0.171875 0.03125,-0.515625 0.03125,-0.71875 0,-0.765625 -0.1875,-1.390625 -0.5625,-1.390625 z m -1.703125,3.625 c 0,-1.03125 1.03125,-2.921875 1.625,-2.921875 0.234375,0 0.3125,0.34375 0.3125,0.796875 v 0.0625 c 0,0.46875 -0.09375,0.984375 -0.25,1.328125 -0.5,0.71875 -1.015625,1.21875 -1.375,1.21875 -0.1875,0 -0.3125,-0.125 -0.3125,-0.484375 z m 0,0"
             id="id-db2bcf61-6658-494e-9706-c9b787d47cd3" />
        </g>
      </g>
      <g
         style="fill:#000000;fill-opacity:1"
         id="id-c88fa9a3-6e17-42ae-b908-2c5d23ec55f4">
        <g
           id="g12314"
           transform="translate(156.71,134.765)">
          <path
             style="stroke:none"
             d="M 5.5,-3.296875 V -3.84375 H 0.40625 v 0.546875 z m 0,2.03125 v -0.5625 H 0.40625 v 0.5625 z m 0,0"
             id="id-fb34dcb5-1cd4-46c5-b4b0-6cfa018da2af" />
        </g>
      </g>
      <g
         style="fill:#000000;fill-opacity:1"
         id="id-fc02f5cb-4360-4e26-9c39-53913615afc2">
        <g
           id="g12318"
           transform="translate(165.375,134.765)">
          <path
             style="stroke:none"
             d="m 5.71875,-2.28125 v -0.5625 H 0.625 v 0.5625 z m 0,0"
             id="id-637d34b7-2043-4b9f-b66a-def543b3fe9e" />
        </g>
      </g>
      <g
         style="fill:#000000;fill-opacity:1"
         id="id-fe858b57-dcbc-4ca9-8586-774dcce04f19">
        <g
           id="g12322"
           transform="translate(173.074,130.84)">
          <path
             style="stroke:none"
             d="m 1.375,-2.65625 c -0.34375,1.234375 -0.65625,1.734375 -1.09375,2.390625 0,0.078125 0.125,0.28125 0.28125,0.28125 0.03125,0 0.09375,0 0.140625,-0.015625 0.171875,-0.234375 0.75,-2.125 0.875,-2.640625 0.203125,0.015625 0.4375,0.03125 0.625,0.046875 -0.09375,0.46875 -0.25,1.3125 -0.328125,1.953125 0,0.046875 0,0.09375 0,0.125 0,0.3125 0.109375,0.53125 0.359375,0.53125 0.234375,0 0.515625,-0.34375 0.53125,-0.40625 v -0.03125 C 2.765625,-0.453125 2.75,-0.5 2.734375,-0.515625 2.703125,-0.484375 2.59375,-0.4375 2.53125,-0.4375 c -0.140625,0 -0.3125,-0.09375 -0.3125,-0.453125 0,-0.453125 0.109375,-1.1875 0.171875,-1.6875 C 2.5625,-2.5625 2.625,-2.5625 2.703125,-2.5625 c 0.515625,0 0.75,-0.578125 0.75,-0.640625 0,-0.03125 -0.0625,-0.0625 -0.09375,-0.0625 -0.09375,0.078125 -0.3125,0.171875 -0.671875,0.171875 -0.625,0 -0.78125,-0.09375 -1.328125,-0.09375 -0.28125,0 -0.8125,0.09375 -0.9375,0.71875 0,0.0625 -0.015625,0.140625 -0.015625,0.1875 V -2.25 c 0.015625,0.015625 0.03125,0.015625 0.046875,0.015625 0.015625,0 0.03125,0 0.046875,-0.015625 0.15625,-0.265625 0.34375,-0.40625 0.875,-0.40625 z m 0,0"
             id="id-b80ad752-be2e-4f17-bf71-b415bdcb427a" />
        </g>
      </g>
      <path
         style="fill:none;stroke:#000000;stroke-width:0.558;stroke-linecap:butt;stroke-linejoin:miter;stroke-miterlimit:10;stroke-opacity:1"
         d="M -7.5e-4,8.75e-4 H 3.960187"
         transform="matrix(1,0,0,-1,172.907,132.204)"
         id="id-2d1f723a-7da2-4f68-83bc-6936a9b34b1c" />
      <g
         style="fill:#000000;fill-opacity:1"
         id="id-fef35fa7-2ff4-4eae-be30-a9d3f040171c">
        <g
           id="g12327"
           transform="translate(173.123,138.202)">
          <path
             style="stroke:none"
             d="M 3.21875,-1.0625 C 3.1875,-1.078125 3.109375,-1.109375 3.078125,-1.109375 3.03125,-1.109375 3.015625,-1.09375 3,-1.0625 2.84375,-0.6875 2.6875,-0.515625 2.390625,-0.515625 H 0.984375 C 1.3125,-0.875 2.03125,-1.671875 2.53125,-2.296875 2.78125,-2.59375 2.9375,-2.96875 2.9375,-3.375 c 0,-0.59375 -0.546875,-1.1875 -1.21875,-1.1875 -0.75,0 -1.265625,0.796875 -1.3125,0.96875 0,0.03125 0.078125,0.109375 0.140625,0.109375 C 0.625,-3.625 0.984375,-4.09375 1.5625,-4.09375 c 0.4375,0 0.78125,0.375 0.78125,0.859375 0,0.34375 -0.0625,0.640625 -0.34375,1.0625 -0.421875,0.609375 -1.09375,1.40625 -1.6875,2.0625 0,0.03125 0.03125,0.09375 0.0625,0.109375 h 2.453125 c 0.046875,-0.125 0.25,-0.71875 0.390625,-1.0625 z m 0,0"
             id="id-8f3a7701-f74d-4b31-95dc-5f766c70115d" />
        </g>
      </g>
    </g>
  </g>
  <g
     id="g12766"
     ns1:jacobian_sqrt="0.258774"
     transform="matrix(0.94458065,0,0,0.94458065,134.75508,115.53567)"
     ns1:inkscapeversion="1.0"
     ns1:alignment="middle center"
     ns1:scale="0.25877379"
     ns1:preamble="C:\\Users\\flvisa\\Desktop\\lna\\latexify_books\\textext_preamble.tex"
     ns1:text="$\\alpha=+\\frac{\\pi}{2}$"
     ns1:pdfconverter="inkscape"
     ns1:texconverter="pdflatex"
     ns1:version="1.1.0">
    <defs
       id="id-16a409ae-7f40-4a9a-86fb-524bf7f6f035">
      <g
         id="id-c595f11e-3bd3-4dcd-a194-de2b8e1671b5">
        <symbol
           overflow="visible"
           id="id-f5141b30-066e-4de0-9207-1d4e87b3bd87">
          <path
             style="stroke:none"
             d=""
             id="id-f279d42d-9b21-4723-ba36-fda76f6891d1" />
        </symbol>
        <symbol
           overflow="visible"
           id="id-3d28d01b-c549-42f4-8b2b-3fc7007f4e06">
          <path
             style="stroke:none"
             d="m 2.34375,-4.40625 c -1.0625,0 -2.171875,2.1875 -2.171875,3.390625 0,0.75 0.34375,1.078125 0.890625,1.078125 0.546875,0 1.15625,-0.59375 1.6875,-1.265625 -0.03125,0.1875 -0.046875,0.375 -0.046875,0.53125 0,0.40625 0.140625,0.71875 0.453125,0.71875 0.4375,0 0.78125,-0.546875 0.84375,-0.75 0.015625,-0.03125 -0.015625,-0.1875 -0.046875,-0.21875 -0.140625,0.140625 -0.296875,0.25 -0.515625,0.25 -0.15625,0 -0.359375,-0.078125 -0.359375,-0.53125 0,-0.15625 0.015625,-0.390625 0.109375,-0.6875 l 0.484375,-0.78125 c 0.25,-0.3125 0.5625,-0.921875 0.5625,-1.21875 0,-0.28125 -0.203125,-0.5 -0.328125,-0.5 -0.15625,0 -0.53125,0.9375 -0.78125,1.65625 l -0.25,0.4375 c 0.015625,-0.171875 0.03125,-0.515625 0.03125,-0.71875 0,-0.765625 -0.1875,-1.390625 -0.5625,-1.390625 z m -1.703125,3.625 c 0,-1.03125 1.03125,-2.921875 1.625,-2.921875 0.234375,0 0.3125,0.34375 0.3125,0.796875 v 0.0625 c 0,0.46875 -0.09375,0.984375 -0.25,1.328125 -0.5,0.71875 -1.015625,1.21875 -1.375,1.21875 -0.1875,0 -0.3125,-0.125 -0.3125,-0.484375 z m 0,0"
             id="id-4dc2ebf8-3d33-4446-aff4-00afa76dbc51" />
        </symbol>
        <symbol
           overflow="visible"
           id="id-79b62c58-b921-4ac1-9de9-e71e25df3d8b">
          <path
             style="stroke:none"
             d=""
             id="id-e8b3e34c-8c89-44fb-be05-f6761c8c29e6" />
        </symbol>
        <symbol
           overflow="visible"
           id="id-608e21f5-175e-4395-be88-0c378893b927">
          <path
             style="stroke:none"
             d="M 5.5,-3.296875 V -3.84375 H 0.40625 v 0.546875 z m 0,2.03125 v -0.5625 H 0.40625 v 0.5625 z m 0,0"
             id="id-1770bfdf-59ae-4d1a-b923-5186a81e98dc" />
        </symbol>
        <symbol
           overflow="visible"
           id="id-27ab3710-48fe-4bae-9ae1-15d570c60598">
          <path
             style="stroke:none"
             d=""
             id="id-cc294341-c1f8-411c-864e-13a9e26772ff" />
        </symbol>
        <symbol
           overflow="visible"
           id="id-4fc496e3-4883-44cf-91ee-027ce0e59114">
          <path
             style="stroke:none"
             d="m 2.484375,-2.84375 h -2.1875 v 0.65625 h 2.1875 V 0 h 0.65625 v -2.1875 h 2.1875 v -0.65625 h -2.1875 v -2.203125 h -0.65625 z m 0,0"
             id="id-c1985166-ef28-4c5d-ab9b-019d0584d28f" />
        </symbol>
        <symbol
           overflow="visible"
           id="id-9e553153-ef06-4ae1-9e33-8a15ded0e8d1">
          <path
             style="stroke:none"
             d=""
             id="id-c5ba3bff-2033-4b71-8ac7-f5695f2c8db0" />
        </symbol>
        <symbol
           overflow="visible"
           id="id-8a67c38d-66f9-4c4e-ad9f-55436ec9990b">
          <path
             style="stroke:none"
             d="m 1.375,-2.65625 c -0.34375,1.234375 -0.65625,1.734375 -1.09375,2.390625 0,0.078125 0.125,0.28125 0.28125,0.28125 0.03125,0 0.09375,0 0.140625,-0.015625 0.171875,-0.234375 0.75,-2.125 0.875,-2.640625 0.203125,0.015625 0.4375,0.03125 0.625,0.046875 -0.09375,0.46875 -0.25,1.3125 -0.328125,1.953125 0,0.046875 0,0.09375 0,0.125 0,0.3125 0.109375,0.53125 0.359375,0.53125 0.234375,0 0.515625,-0.34375 0.53125,-0.40625 v -0.03125 C 2.765625,-0.453125 2.75,-0.5 2.734375,-0.515625 2.703125,-0.484375 2.59375,-0.4375 2.53125,-0.4375 c -0.140625,0 -0.3125,-0.09375 -0.3125,-0.453125 0,-0.453125 0.109375,-1.1875 0.171875,-1.6875 C 2.5625,-2.5625 2.625,-2.5625 2.703125,-2.5625 c 0.515625,0 0.75,-0.578125 0.75,-0.640625 0,-0.03125 -0.0625,-0.0625 -0.09375,-0.0625 -0.09375,0.078125 -0.3125,0.171875 -0.671875,0.171875 -0.625,0 -0.78125,-0.09375 -1.328125,-0.09375 -0.28125,0 -0.8125,0.09375 -0.9375,0.71875 0,0.0625 -0.015625,0.140625 -0.015625,0.1875 V -2.25 c 0.015625,0.015625 0.03125,0.015625 0.046875,0.015625 0.015625,0 0.03125,0 0.046875,-0.015625 0.15625,-0.265625 0.34375,-0.40625 0.875,-0.40625 z m 0,0"
             id="id-545f0c75-c44f-4866-b165-ff94c9d4019d" />
        </symbol>
        <symbol
           overflow="visible"
           id="id-397fb6a6-3fcd-49ec-85d4-8b975b26951b">
          <path
             style="stroke:none"
             d="m 0.359375,0 h 2.90625 V -3.515625 H 0.359375 Z M 0.71875,-0.359375 v -2.78125 h 2.1875 v 2.78125 z m 0,0"
             id="id-3d7a9c38-13c1-42b3-af93-5d97717c3ae8" />
        </symbol>
        <symbol
           overflow="visible"
           id="id-6ebd8e12-b97f-40f4-bb72-4ed1948a7f59">
          <path
             style="stroke:none"
             d="M 3.21875,-1.0625 C 3.1875,-1.078125 3.109375,-1.109375 3.078125,-1.109375 3.03125,-1.109375 3.015625,-1.09375 3,-1.0625 2.84375,-0.6875 2.6875,-0.515625 2.390625,-0.515625 H 0.984375 C 1.3125,-0.875 2.03125,-1.671875 2.53125,-2.296875 2.78125,-2.59375 2.9375,-2.96875 2.9375,-3.375 c 0,-0.59375 -0.546875,-1.1875 -1.21875,-1.1875 -0.75,0 -1.265625,0.796875 -1.3125,0.96875 0,0.03125 0.078125,0.109375 0.140625,0.109375 C 0.625,-3.625 0.984375,-4.09375 1.5625,-4.09375 c 0.4375,0 0.78125,0.375 0.78125,0.859375 0,0.34375 -0.0625,0.640625 -0.34375,1.0625 -0.421875,0.609375 -1.09375,1.40625 -1.6875,2.0625 0,0.03125 0.03125,0.09375 0.0625,0.109375 h 2.453125 c 0.046875,-0.125 0.25,-0.71875 0.390625,-1.0625 z m 0,0"
             id="id-04d656c8-cdd7-418b-a755-c0aa505bdca0" />
        </symbol>
      </g>
    </defs>
    <g
       id="id-376aac24-9036-4a22-8b6c-ca52bb669f6e"
       transform="translate(-149.153,-127.574)">
      <g
         style="fill:#000000;fill-opacity:1"
         id="id-5c4a628e-4b9a-4bcc-acf0-29433724c43d">
        <g
           id="g12745"
           transform="translate(148.981,134.765)">
          <path
             style="stroke:none"
             d="m 2.34375,-4.40625 c -1.0625,0 -2.171875,2.1875 -2.171875,3.390625 0,0.75 0.34375,1.078125 0.890625,1.078125 0.546875,0 1.15625,-0.59375 1.6875,-1.265625 -0.03125,0.1875 -0.046875,0.375 -0.046875,0.53125 0,0.40625 0.140625,0.71875 0.453125,0.71875 0.4375,0 0.78125,-0.546875 0.84375,-0.75 0.015625,-0.03125 -0.015625,-0.1875 -0.046875,-0.21875 -0.140625,0.140625 -0.296875,0.25 -0.515625,0.25 -0.15625,0 -0.359375,-0.078125 -0.359375,-0.53125 0,-0.15625 0.015625,-0.390625 0.109375,-0.6875 l 0.484375,-0.78125 c 0.25,-0.3125 0.5625,-0.921875 0.5625,-1.21875 0,-0.28125 -0.203125,-0.5 -0.328125,-0.5 -0.15625,0 -0.53125,0.9375 -0.78125,1.65625 l -0.25,0.4375 c 0.015625,-0.171875 0.03125,-0.515625 0.03125,-0.71875 0,-0.765625 -0.1875,-1.390625 -0.5625,-1.390625 z m -1.703125,3.625 c 0,-1.03125 1.03125,-2.921875 1.625,-2.921875 0.234375,0 0.3125,0.34375 0.3125,0.796875 v 0.0625 c 0,0.46875 -0.09375,0.984375 -0.25,1.328125 -0.5,0.71875 -1.015625,1.21875 -1.375,1.21875 -0.1875,0 -0.3125,-0.125 -0.3125,-0.484375 z m 0,0"
             id="id-294cf59b-841a-46dc-b27c-aa8785cb1ccf" />
        </g>
      </g>
      <g
         style="fill:#000000;fill-opacity:1"
         id="id-574b3a0f-d1a7-4f38-b96a-0927929715eb">
        <g
           id="g12749"
           transform="translate(156.71,134.765)">
          <path
             style="stroke:none"
             d="M 5.5,-3.296875 V -3.84375 H 0.40625 v 0.546875 z m 0,2.03125 v -0.5625 H 0.40625 v 0.5625 z m 0,0"
             id="id-f31aab8f-6e23-4826-a68c-f113f01bb48c" />
        </g>
      </g>
      <g
         style="fill:#000000;fill-opacity:1"
         id="id-3f8e74a2-e453-4f12-9f7e-cc70ed982059">
        <g
           id="g12753"
           transform="translate(165.375,134.765)">
          <path
             style="stroke:none"
             d="m 2.484375,-2.84375 h -2.1875 v 0.65625 h 2.1875 V 0 h 0.65625 v -2.1875 h 2.1875 v -0.65625 h -2.1875 v -2.203125 h -0.65625 z m 0,0"
             id="id-fa7da4e9-e5ef-4ee1-ac29-db4fe45bfd1e" />
        </g>
      </g>
      <g
         style="fill:#000000;fill-opacity:1"
         id="id-c872e42c-5e05-4468-a36e-7e8166164ac4">
        <g
           id="g12757"
           transform="translate(172.357,130.84)">
          <path
             style="stroke:none"
             d="m 1.375,-2.65625 c -0.34375,1.234375 -0.65625,1.734375 -1.09375,2.390625 0,0.078125 0.125,0.28125 0.28125,0.28125 0.03125,0 0.09375,0 0.140625,-0.015625 0.171875,-0.234375 0.75,-2.125 0.875,-2.640625 0.203125,0.015625 0.4375,0.03125 0.625,0.046875 -0.09375,0.46875 -0.25,1.3125 -0.328125,1.953125 0,0.046875 0,0.09375 0,0.125 0,0.3125 0.109375,0.53125 0.359375,0.53125 0.234375,0 0.515625,-0.34375 0.53125,-0.40625 v -0.03125 C 2.765625,-0.453125 2.75,-0.5 2.734375,-0.515625 2.703125,-0.484375 2.59375,-0.4375 2.53125,-0.4375 c -0.140625,0 -0.3125,-0.09375 -0.3125,-0.453125 0,-0.453125 0.109375,-1.1875 0.171875,-1.6875 C 2.5625,-2.5625 2.625,-2.5625 2.703125,-2.5625 c 0.515625,0 0.75,-0.578125 0.75,-0.640625 0,-0.03125 -0.0625,-0.0625 -0.09375,-0.0625 -0.09375,0.078125 -0.3125,0.171875 -0.671875,0.171875 -0.625,0 -0.78125,-0.09375 -1.328125,-0.09375 -0.28125,0 -0.8125,0.09375 -0.9375,0.71875 0,0.0625 -0.015625,0.140625 -0.015625,0.1875 V -2.25 c 0.015625,0.015625 0.03125,0.015625 0.046875,0.015625 0.015625,0 0.03125,0 0.046875,-0.015625 0.15625,-0.265625 0.34375,-0.40625 0.875,-0.40625 z m 0,0"
             id="id-616744d0-33a3-4056-aff3-ba87b0d5d522" />
        </g>
      </g>
      <path
         style="fill:none;stroke:#000000;stroke-width:0.558;stroke-linecap:butt;stroke-linejoin:miter;stroke-miterlimit:10;stroke-opacity:1"
         d="M 0.00140625,8.75e-4 H 3.958438"
         transform="matrix(1,0,0,-1,172.19,132.204)"
         id="id-95074dd8-621f-4c1c-8ceb-154a8c3e7ffa" />
      <g
         style="fill:#000000;fill-opacity:1"
         id="id-d8db3eb4-f731-4946-8def-53fd279ecfb9">
        <g
           id="g12762"
           transform="translate(172.406,138.202)">
          <path
             style="stroke:none"
             d="M 3.21875,-1.0625 C 3.1875,-1.078125 3.109375,-1.109375 3.078125,-1.109375 3.03125,-1.109375 3.015625,-1.09375 3,-1.0625 2.84375,-0.6875 2.6875,-0.515625 2.390625,-0.515625 H 0.984375 C 1.3125,-0.875 2.03125,-1.671875 2.53125,-2.296875 2.78125,-2.59375 2.9375,-2.96875 2.9375,-3.375 c 0,-0.59375 -0.546875,-1.1875 -1.21875,-1.1875 -0.75,0 -1.265625,0.796875 -1.3125,0.96875 0,0.03125 0.078125,0.109375 0.140625,0.109375 C 0.625,-3.625 0.984375,-4.09375 1.5625,-4.09375 c 0.4375,0 0.78125,0.375 0.78125,0.859375 0,0.34375 -0.0625,0.640625 -0.34375,1.0625 -0.421875,0.609375 -1.09375,1.40625 -1.6875,2.0625 0,0.03125 0.03125,0.09375 0.0625,0.109375 h 2.453125 c 0.046875,-0.125 0.25,-0.71875 0.390625,-1.0625 z m 0,0"
             id="id-42e3740a-a708-4846-9c71-d5cb26726be1" />
        </g>
      </g>
    </g>
  </g>
</svg>
