<?xml version="1.0" encoding="UTF-8" standalone="no"?>
<svg
   xmlns:ns1="http://www.iki.fi/pav/software/textext/"
   xmlns:dc="http://purl.org/dc/elements/1.1/"
   xmlns:cc="http://creativecommons.org/ns#"
   xmlns:rdf="http://www.w3.org/1999/02/22-rdf-syntax-ns#"
   xmlns:svg="http://www.w3.org/2000/svg"
   xmlns="http://www.w3.org/2000/svg"
   xmlns:sodipodi="http://sodipodi.sourceforge.net/DTD/sodipodi-0.dtd"
   xmlns:inkscape="http://www.inkscape.org/namespaces/inkscape"
   inkscape:version="1.0 (4035a4fb49, 2020-05-01)"
   sodipodi:docname="fig_7_17.svg"
   id="svg14338"
   version="1.2"
   viewBox="0 0 172.91339 130.92619"
   height="130.92619pt"
   width="172.91339pt">
  <metadata
     id="metadata14344">
    <rdf:RDF>
      <cc:Work
         rdf:about="">
        <dc:format>image/svg+xml</dc:format>
        <dc:type
           rdf:resource="http://purl.org/dc/dcmitype/StillImage" />
        <dc:title></dc:title>
      </cc:Work>
    </rdf:RDF>
  </metadata>
  <defs
     id="defs14342">
    <marker
       inkscape:isstock="true"
       style="overflow:visible"
       id="marker16391"
       refX="0"
       refY="0"
       orient="auto"
       inkscape:stockid="Arrow1Mend">
      <path
         transform="matrix(-0.4,0,0,-0.4,-4,0)"
         style="fill:#000000;fill-opacity:1;fill-rule:evenodd;stroke:#000000;stroke-width:1pt;stroke-opacity:1"
         d="M 0,0 5,-5 -12.5,0 5,5 Z"
         id="path16389" />
    </marker>
    <marker
       inkscape:collect="always"
       inkscape:stockid="Arrow1Mend"
       orient="auto"
       refY="0"
       refX="0"
       id="marker14932"
       style="overflow:visible"
       inkscape:isstock="true">
      <path
         id="path14930"
         d="M 0,0 5,-5 -12.5,0 5,5 Z"
         style="fill:#000000;fill-opacity:1;fill-rule:evenodd;stroke:#000000;stroke-width:1pt;stroke-opacity:1"
         transform="matrix(-0.4,0,0,-0.4,-4,0)" />
    </marker>
    <marker
       inkscape:stockid="Arrow1Mend"
       orient="auto"
       refY="0"
       refX="0"
       id="marker14922"
       style="overflow:visible"
       inkscape:isstock="true">
      <path
         id="path14920"
         d="M 0,0 5,-5 -12.5,0 5,5 Z"
         style="fill:#000000;fill-opacity:1;fill-rule:evenodd;stroke:#000000;stroke-width:1pt;stroke-opacity:1"
         transform="matrix(-0.4,0,0,-0.4,-4,0)" />
    </marker>
    <marker
       inkscape:stockid="Arrow1Mstart"
       orient="auto"
       refY="0"
       refX="0"
       id="Arrow1Mstart"
       style="overflow:visible"
       inkscape:isstock="true">
      <path
         id="path8477"
         d="M 0,0 5,-5 -12.5,0 5,5 Z"
         style="fill:#a6a7a3;fill-opacity:1;fill-rule:evenodd;stroke:#a6a7a3;stroke-width:1pt;stroke-opacity:1"
         transform="matrix(0.4,0,0,0.4,4,0)" />
    </marker>
    <marker
       inkscape:isstock="true"
       style="overflow:visible"
       id="Arrow1Mstart-3"
       refX="0"
       refY="0"
       orient="auto"
       inkscape:stockid="Arrow1Mstart">
      <path
         transform="matrix(0.4,0,0,0.4,4,0)"
         style="fill:#a6a7a3;fill-opacity:1;fill-rule:evenodd;stroke:#a6a7a3;stroke-width:1pt;stroke-opacity:1"
         d="M 0,0 5,-5 -12.5,0 5,5 Z"
         id="path8477-4" />
    </marker>
    <marker
       inkscape:isstock="true"
       style="overflow:visible"
       id="Arrow1Mstart-30"
       refX="0"
       refY="0"
       orient="auto"
       inkscape:stockid="Arrow1Mstart">
      <path
         transform="matrix(0.4,0,0,0.4,4,0)"
         style="fill:#a6a7a3;fill-opacity:1;fill-rule:evenodd;stroke:#a6a7a3;stroke-width:1pt;stroke-opacity:1"
         d="M 0,0 5,-5 -12.5,0 5,5 Z"
         id="path8477-9" />
    </marker>
    <marker
       inkscape:stockid="Arrow1Mstart"
       orient="auto"
       refY="0"
       refX="0"
       id="Arrow1Mstart-3-4"
       style="overflow:visible"
       inkscape:isstock="true">
      <path
         id="path8477-4-3"
         d="M 0,0 5,-5 -12.5,0 5,5 Z"
         style="fill:#a6a7a3;fill-opacity:1;fill-rule:evenodd;stroke:#a6a7a3;stroke-width:1pt;stroke-opacity:1"
         transform="matrix(0.4,0,0,0.4,4,0)" />
    </marker>
    <g
       id="g13815">
      <symbol
         id="symbol13809"
         overflow="visible">
        <path
           id="path13807"
           d=""
           style="stroke:none" />
      </symbol>
      <symbol
         id="symbol13813"
         overflow="visible">
        <path
           id="path13811"
           d="m 1.328125,-4.390625 c -0.46875,0 -1.15625,0.765625 -1.265625,0.953125 0,0.0625 0.0625,0.1875 0.09375,0.1875 0.03125,-0.03125 0.484375,-0.59375 0.71875,-0.59375 0.484375,0 0.59375,2.0625 0.59375,3.21875 v 0.453125 c 0,0.375 -0.015625,0.78125 -0.171875,1.015625 -0.328125,0.484375 -0.75,0.84375 -1.375,0.84375 -0.21875,0 -0.65625,-0.109375 -0.8125,-0.1875 -0.140625,0.078125 -0.21875,0.28125 -0.21875,0.4375 0,0.21875 0.234375,0.421875 0.59375,0.421875 1.359375,0 4.609375,-3.578125 4.609375,-5.953125 0,-0.21875 -0.03125,-0.796875 -0.453125,-0.796875 -0.234375,0 -0.421875,0.171875 -0.5,0.4375 0.109375,0.21875 0.25,0.46875 0.25,1.078125 0,1.09375 -0.796875,2.28125 -1.15625,2.71875 0,-0.609375 -0.03125,-4.234375 -0.90625,-4.234375 z m 0,0"
           style="stroke:none" />
      </symbol>
    </g>
    <g
       id="g13831">
      <symbol
         id="symbol13825"
         overflow="visible">
        <path
           id="path13823"
           d=""
           style="stroke:none" />
      </symbol>
      <symbol
         id="symbol13829"
         overflow="visible">
        <path
           id="path13827"
           d="M 2.984375,-0.890625 2.65625,-2.46875 c 0.1875,-0.375 0.375,-0.671875 0.609375,-1.0625 0.0625,-0.125 0.140625,-0.234375 0.265625,-0.234375 H 3.5625 c 0.21875,0.015625 0.265625,0.28125 0.46875,0.28125 0.21875,0 0.359375,-0.203125 0.359375,-0.4375 0,-0.15625 -0.046875,-0.265625 -0.109375,-0.34375 -0.15625,-0.09375 -0.328125,-0.125 -0.46875,-0.125 -0.515625,0 -0.78125,0.671875 -1.234375,1.5625 L 2.4375,-3.515625 c -0.109375,-0.546875 -0.390625,-0.875 -0.6875,-0.875 -0.453125,0 -1.15625,0.796875 -1.234375,0.9375 0,0.046875 0.078125,0.1875 0.109375,0.1875 0.109375,-0.140625 0.5625,-0.578125 0.765625,-0.578125 0.171875,0 0.28125,0.171875 0.3125,0.390625 l 0.28125,1.40625 c -0.25,0.484375 -0.421875,0.78125 -0.6875,1.25 C 1.21875,-0.671875 1.140625,-0.5625 1,-0.5625 H 0.984375 c -0.21875,-0.03125 -0.25,-0.296875 -0.453125,-0.296875 -0.234375,0 -0.375,0.21875 -0.375,0.453125 0,0.140625 0.046875,0.25 0.109375,0.34375 0.15625,0.09375 0.328125,0.109375 0.46875,0.109375 0.5625,0 0.828125,-0.765625 1.328125,-1.734375 L 2.25,-0.828125 c 0.109375,0.53125 0.375,0.875 0.6875,0.875 0.4375,0 1.15625,-0.796875 1.234375,-0.9375 C 4.171875,-0.9375 4.09375,-1.0625 4.0625,-1.0625 3.953125,-0.921875 3.5,-0.53125 3.328125,-0.53125 c -0.21875,0 -0.3125,-0.140625 -0.34375,-0.359375 z m 0,0"
           style="stroke:none" />
      </symbol>
    </g>
    <g
       id="g13847">
      <symbol
         id="symbol13841"
         overflow="visible">
        <path
           id="path13839"
           d=""
           style="stroke:none" />
      </symbol>
      <symbol
         id="symbol13845"
         overflow="visible">
        <path
           id="path13843"
           d="M 2.203125,-3.734375 2.53125,-5.5 c 0.0625,-0.296875 0.125,-0.625 0.1875,-0.75 0.046875,-0.09375 0.390625,-0.109375 0.5,-0.109375 0.875,0 1.140625,0.53125 1.140625,1.09375 0,0.859375 -0.53125,1.53125 -1.203125,1.53125 z m -0.59375,3.15625 c 0,-0.171875 0.0625,-0.484375 0.078125,-0.59375 l 0.453125,-2.25 h 0.5625 c 1.40625,0 1.421875,0.84375 1.421875,1.171875 v 0.03125 c 0,1.234375 -0.75,1.921875 -1.796875,1.921875 -0.34375,0 -0.71875,0 -0.71875,-0.28125 z m 0.75,-6.046875 C 2,-6.625 1.625,-6.65625 1.25,-6.671875 c -0.046875,0.015625 -0.0625,0.125 -0.0625,0.203125 0,0.03125 0,0.0625 0.015625,0.078125 0.15625,0 0.609375,0.046875 0.609375,0.203125 0,0.171875 -0.046875,0.4375 -0.09375,0.703125 L 0.875,-1.203125 c -0.0625,0.3125 -0.109375,0.578125 -0.1875,0.75 C 0.640625,-0.34375 0.125,-0.296875 0.015625,-0.296875 -0.03125,-0.25 -0.0625,-0.140625 -0.0625,-0.0625 c 0,0.03125 0,0.046875 0.015625,0.0625 h 2.15625 C 3.8125,0 5.078125,-0.90625 5.078125,-2.28125 5.078125,-3.109375 4.5,-3.65625 4.046875,-3.6875 4.453125,-3.90625 5.25,-4.40625 5.25,-5.40625 c 0,-0.875 -0.71875,-1.25 -1.578125,-1.25 -0.546875,0 -0.953125,0.03125 -1.3125,0.03125 z m 0,0"
           style="stroke:none" />
      </symbol>
    </g>
    <g
       id="g13863">
      <symbol
         id="symbol13857"
         overflow="visible">
        <path
           id="path13855"
           d=""
           style="stroke:none" />
      </symbol>
      <symbol
         id="symbol13861"
         overflow="visible">
        <path
           id="path13859"
           d="m 3.4375,-0.265625 c -0.0625,0.0625 -0.09375,0.25 -0.0625,0.296875 0.4375,-0.015625 0.609375,-0.046875 1.046875,-0.046875 0.40625,0 0.734375,0.03125 1.109375,0.046875 C 5.546875,0 5.59375,-0.1875 5.5625,-0.265625 c -0.0625,0 -0.578125,-0.03125 -0.640625,-0.328125 0,-0.03125 -0.046875,-0.3125 -0.109375,-0.6875 l -0.859375,-5.375 C 3.9375,-6.671875 3.921875,-6.6875 3.890625,-6.6875 c -0.078125,0 -0.3125,0.125 -0.40625,0.28125 l -2.78125,5 c -0.1875,0.359375 -0.390625,0.6875 -0.625,0.953125 -0.125,0.125 -0.46875,0.1875 -0.578125,0.1875 C -0.53125,-0.1875 -0.578125,0 -0.5625,0.03125 -0.125,0.015625 0,-0.015625 0.4375,-0.015625 c 0.40625,0 0.53125,0.03125 0.890625,0.046875 0.03125,-0.0625 0.0625,-0.265625 0.046875,-0.296875 -0.0625,0 -0.625,-0.03125 -0.625,-0.25 C 0.75,-0.65625 0.859375,-0.90625 1.03125,-1.25 1.125,-1.421875 1.421875,-1.953125 1.75,-2.578125 h 2.015625 l 0.21875,1.515625 c 0.03125,0.1875 0.03125,0.390625 0.03125,0.484375 0,0.203125 -0.234375,0.3125 -0.578125,0.3125 z m -1.5,-2.640625 1.375,-2.484375 0.390625,2.484375 z m 0,0"
           style="stroke:none" />
      </symbol>
    </g>
    <g
       id="g13879"
       style="fill:#c28f47;stroke-width:0">
      <symbol
         id="symbol13873"
         overflow="visible"
         style="fill:#c28f47;stroke-width:0">
        <path
           id="path13871"
           d="M 0.5,0 H 4.484375 V -4.8125 H 0.5 Z M 1,-0.5 V -4.3125 H 3.984375 V -0.5 Z m 0,0"
           style="fill:#c28f47;stroke:none;stroke-width:0" />
      </symbol>
      <symbol
         id="symbol13877"
         overflow="visible"
         style="fill:#c28f47;stroke-width:0">
        <path
           id="path13875"
           d="m 2.484375,-5.875 c 0.71875,0 1.203125,1.1875 1.203125,2.71875 0,1.515625 -0.4375,2.828125 -1.3125,2.828125 -0.703125,0 -1.21875,-1.25 -1.21875,-2.78125 0,-1.53125 0.515625,-2.765625 1.328125,-2.765625 z m -0.0625,-0.359375 c -1.34375,0 -2.125,1.421875 -2.125,3.125 0,1.6875 0.796875,3.140625 2.125,3.140625 1.34375,0 2.125,-1.453125 2.125,-3.140625 0,-1.703125 -0.765625,-3.125 -2.125,-3.125 z m 0,0"
           style="fill:#c28f47;stroke:none;stroke-width:0" />
      </symbol>
    </g>
    <marker
       inkscape:stockid="Arrow1Mend"
       orient="auto"
       refY="0"
       refX="0"
       id="marker11950-0"
       style="overflow:visible"
       inkscape:isstock="true">
      <path
         id="path11948-8"
         d="M 0,0 5,-5 -12.5,0 5,5 Z"
         style="fill:#a6a7a3;fill-opacity:1;fill-rule:evenodd;stroke:#a6a7a3;stroke-width:1pt;stroke-opacity:1"
         transform="matrix(-0.4,0,0,-0.4,-4,0)" />
    </marker>
    <marker
       inkscape:isstock="true"
       style="overflow:visible"
       id="marker11950-0-1"
       refX="0"
       refY="0"
       orient="auto"
       inkscape:stockid="Arrow1Mend">
      <path
         transform="matrix(-0.4,0,0,-0.4,-4,0)"
         style="fill:#a6a7a3;fill-opacity:1;fill-rule:evenodd;stroke:#a6a7a3;stroke-width:1pt;stroke-opacity:1"
         d="M 0,0 5,-5 -12.5,0 5,5 Z"
         id="path11948-8-9" />
    </marker>
  </defs>
  <sodipodi:namedview
     inkscape:current-layer="svg14338"
     inkscape:window-maximized="1"
     inkscape:window-y="-8"
     inkscape:window-x="-8"
     inkscape:cy="96.702971"
     inkscape:cx="179.26998"
     inkscape:zoom="1.5297471"
     showgrid="false"
     id="namedview14340"
     inkscape:window-height="837"
     inkscape:window-width="1600"
     inkscape:pageshadow="2"
     inkscape:pageopacity="0"
     guidetolerance="10"
     gridtolerance="10"
     objecttolerance="10"
     borderopacity="1"
     bordercolor="#666666"
     pagecolor="#ffffff"
     inkscape:document-rotation="0" />
  <rect
     style="fill:none;stroke:#d3c7b1;stroke-width:0.795995;stroke-linecap:butt;stroke-linejoin:round;stroke-miterlimit:10;stroke-dasharray:2.38799, 0.795995;stroke-dashoffset:0;paint-order:stroke fill markers"
     id="rect13658"
     width="149.02585"
     height="112.62245"
     x="7.1838093"
     y="13.564321" />
  <path
     style="fill:none;stroke:#3a667a;stroke-width:1.43105;stroke-linecap:square;stroke-linejoin:round;stroke-miterlimit:10;stroke-dasharray:none;stroke-opacity:1"
     d="m 155.57986,14.995525 -3.85586,11.191703 -3.77866,10.393024 -3.68135,9.570838 -3.56725,8.752021 -3.5035,8.09763 -3.3961,7.379483 -3.29543,6.715022 -3.2451,6.184804 -3.15112,5.600889 -3.08402,5.094157 -2.98669,4.570651 -2.93636,4.144463 -2.80211,3.63101 -2.71823,3.2216 -2.69474,2.89608 -2.5907,2.51352 -2.55379,2.20814 -2.503453,1.91618 -2.386004,1.58731 -2.325593,1.32891 -2.339009,1.11414 -2.278617,0.87587 -2.211496,0.65103 -2.218209,0.45304 -2.218201,0.25841 -2.151091,0.057 -2.147732,-0.12416 -2.218216,-0.32555 -2.214845,-0.52347 -2.2115,-0.71816 -2.271896,-0.94299 -2.265188,-1.14434 -2.32224,-1.38931 -2.375929,-1.64771 -2.429624,-1.91954 -2.473251,-2.19808 -2.587351,-2.5605 -2.617549,-2.86587 -2.711513,-3.26188 -2.792054,-3.66457 -2.862531,-4.084052 -2.916223,-4.496814 -3.013538,-5.006906 -3.084012,-5.506923 -3.18133,-6.080772 -3.238379,-6.607639 -3.34577,-7.265382 L 22.406914,55.178295 18.906773,46.607486 15.329458,37.338671 11.641391,27.24768 7.8694338,16.364708 7.4096882,14.995529 l 4.2988238,12.446789 3.748463,10.235294 3.681355,9.510444 3.577319,8.715099 3.493421,8.020445 3.426312,7.382835 3.322272,6.708317 3.208181,6.060635 3.167909,5.574044 3.033672,4.963279 3.000117,4.540449 2.879308,4.016931 2.808832,3.60081 2.724937,3.18804 2.630975,2.79206 2.59742,2.48332 2.553785,2.18129 2.436336,1.83564 2.386005,1.56382 2.328948,1.30542 2.339014,1.094 2.278613,0.85238 2.214848,0.62755 2.214849,0.4329 2.221568,0.23489 2.147728,0.0367 2.147739,-0.14766 2.221565,-0.349 2.214845,-0.54365 2.208147,-0.74163 2.271901,-0.96313 2.261828,-1.16783 2.322244,-1.41281 2.375932,-1.6712 2.42626,-1.93967 2.47325,-2.22156 2.58064,-2.58065 2.61419,-2.88601 2.70816,-3.28201 2.7887,-3.68471 2.85582,-4.100828 2.9095,-4.513595 3.00683,-5.020328 3.07395,-5.516991 3.17461,-6.087489 3.22832,-6.610991 3.3357,-7.265386 3.40282,-7.876146 3.52362,-8.647982 3.58069,-9.305734 3.6914,-10.124549 3.77533,-10.92324 0.27518,-0.818827 -4.11425,11.923284 -3.7451,10.262139 -3.68807,9.547351 -3.59745,8.792285 -3.04039,7.023764"
     id="path14331" />
  <path
     style="fill:none;stroke:#000000;stroke-width:0.738769;stroke-linecap:butt;stroke-linejoin:miter;stroke-miterlimit:10;stroke-dasharray:none;stroke-opacity:1;marker-end:url(#marker14922)"
     d="M 81.493093,130.92619 V 1.4558783"
     id="path14333" />
  <path
     style="fill:none;stroke:#000000;stroke-width:0.733897;stroke-linecap:butt;stroke-linejoin:miter;stroke-miterlimit:10;stroke-dasharray:none;stroke-opacity:1;marker-end:url(#marker14932)"
     d="M 0,70.202359 H 171.46711"
     id="path14335" />
  <g
     ns1:version="1.1.0"
     ns1:texconverter="pdflatex"
     ns1:pdfconverter="inkscape"
     ns1:text="$y$"
     ns1:preamble="C:\\Users\\flvisa\\Desktop\\lna\\latexify_books\\textext_preamble.tex"
     ns1:scale="0.25877379"
     ns1:alignment="middle center"
     ns1:inkscapeversion="1.0"
     transform="matrix(0.92579902,0,0,0.92579902,71.421873,0.08065147)"
     ns1:jacobian_sqrt="0.258774"
     id="g11209">
    <defs
       id="id-e73633f9-8dc4-46b7-a0bb-53132198b78b">
      <g
         id="g15799">
        <symbol
           id="symbol15793"
           overflow="visible">
          <path
             id="path15791"
             d=""
             style="stroke:none" />
        </symbol>
        <symbol
           id="symbol15797"
           overflow="visible">
          <path
             id="path15795"
             d="m 1.328125,-4.390625 c -0.46875,0 -1.15625,0.765625 -1.265625,0.953125 0,0.0625 0.0625,0.1875 0.09375,0.1875 0.03125,-0.03125 0.484375,-0.59375 0.71875,-0.59375 0.484375,0 0.59375,2.0625 0.59375,3.21875 v 0.453125 c 0,0.375 -0.015625,0.78125 -0.171875,1.015625 -0.328125,0.484375 -0.75,0.84375 -1.375,0.84375 -0.21875,0 -0.65625,-0.109375 -0.8125,-0.1875 -0.140625,0.078125 -0.21875,0.28125 -0.21875,0.4375 0,0.21875 0.234375,0.421875 0.59375,0.421875 1.359375,0 4.609375,-3.578125 4.609375,-5.953125 0,-0.21875 -0.03125,-0.796875 -0.453125,-0.796875 -0.234375,0 -0.421875,0.171875 -0.5,0.4375 0.109375,0.21875 0.25,0.46875 0.25,1.078125 0,1.09375 -0.796875,2.28125 -1.15625,2.71875 0,-0.609375 -0.03125,-4.234375 -0.90625,-4.234375 z m 0,0"
             style="stroke:none" />
        </symbol>
      </g>
    </defs>
    <g
       transform="translate(-148.6,-130.374)"
       id="id-105fa2e0-9149-4bd8-b8bd-3bd92f52b646">
      <g
         id="id-8ccf2df6-ff51-4947-b580-19d649738fb9"
         style="fill:#000000;fill-opacity:1">
        <g
           transform="translate(149.709,134.765)"
           id="g11205">
          <path
             id="id-32f53ce0-f987-42a7-bdc4-b0af4dc015f3"
             d="m 1.328125,-4.390625 c -0.46875,0 -1.15625,0.765625 -1.265625,0.953125 0,0.0625 0.0625,0.1875 0.09375,0.1875 0.03125,-0.03125 0.484375,-0.59375 0.71875,-0.59375 0.484375,0 0.59375,2.0625 0.59375,3.21875 v 0.453125 c 0,0.375 -0.015625,0.78125 -0.171875,1.015625 -0.328125,0.484375 -0.75,0.84375 -1.375,0.84375 -0.21875,0 -0.65625,-0.109375 -0.8125,-0.1875 -0.140625,0.078125 -0.21875,0.28125 -0.21875,0.4375 0,0.21875 0.234375,0.421875 0.59375,0.421875 1.359375,0 4.609375,-3.578125 4.609375,-5.953125 0,-0.21875 -0.03125,-0.796875 -0.453125,-0.796875 -0.234375,0 -0.421875,0.171875 -0.5,0.4375 0.109375,0.21875 0.25,0.46875 0.25,1.078125 0,1.09375 -0.796875,2.28125 -1.15625,2.71875 0,-0.609375 -0.03125,-4.234375 -0.90625,-4.234375 z m 0,0"
             style="stroke:none" />
        </g>
      </g>
    </g>
  </g>
  <g
     ns1:version="1.1.0"
     ns1:texconverter="pdflatex"
     ns1:pdfconverter="inkscape"
     ns1:text="$x$"
     ns1:preamble="C:\\Users\\flvisa\\Desktop\\lna\\latexify_books\\textext_preamble.tex"
     ns1:scale="0.25877379"
     ns1:alignment="middle center"
     ns1:inkscapeversion="1.0"
     transform="matrix(0.92579902,0,0,0.92579902,165.61974,73.654209)"
     ns1:jacobian_sqrt="0.258774"
     id="g11345">
    <defs
       id="id-e6de1665-da72-41bc-adbb-fe576ec73f39">
      <g
         id="g15815">
        <symbol
           id="symbol15809"
           overflow="visible">
          <path
             id="path15807"
             d=""
             style="stroke:none" />
        </symbol>
        <symbol
           id="symbol15813"
           overflow="visible">
          <path
             id="path15811"
             d="M 2.984375,-0.890625 2.65625,-2.46875 c 0.1875,-0.375 0.375,-0.671875 0.609375,-1.0625 0.0625,-0.125 0.140625,-0.234375 0.265625,-0.234375 H 3.5625 c 0.21875,0.015625 0.265625,0.28125 0.46875,0.28125 0.21875,0 0.359375,-0.203125 0.359375,-0.4375 0,-0.15625 -0.046875,-0.265625 -0.109375,-0.34375 -0.15625,-0.09375 -0.328125,-0.125 -0.46875,-0.125 -0.515625,0 -0.78125,0.671875 -1.234375,1.5625 L 2.4375,-3.515625 c -0.109375,-0.546875 -0.390625,-0.875 -0.6875,-0.875 -0.453125,0 -1.15625,0.796875 -1.234375,0.9375 0,0.046875 0.078125,0.1875 0.109375,0.1875 0.109375,-0.140625 0.5625,-0.578125 0.765625,-0.578125 0.171875,0 0.28125,0.171875 0.3125,0.390625 l 0.28125,1.40625 c -0.25,0.484375 -0.421875,0.78125 -0.6875,1.25 C 1.21875,-0.671875 1.140625,-0.5625 1,-0.5625 H 0.984375 c -0.21875,-0.03125 -0.25,-0.296875 -0.453125,-0.296875 -0.234375,0 -0.375,0.21875 -0.375,0.453125 0,0.140625 0.046875,0.25 0.109375,0.34375 0.15625,0.09375 0.328125,0.109375 0.46875,0.109375 0.5625,0 0.828125,-0.765625 1.328125,-1.734375 L 2.25,-0.828125 c 0.109375,0.53125 0.375,0.875 0.6875,0.875 0.4375,0 1.15625,-0.796875 1.234375,-0.9375 C 4.171875,-0.9375 4.09375,-1.0625 4.0625,-1.0625 3.953125,-0.921875 3.5,-0.53125 3.328125,-0.53125 c -0.21875,0 -0.3125,-0.140625 -0.34375,-0.359375 z m 0,0"
             style="stroke:none" />
        </symbol>
      </g>
    </defs>
    <g
       transform="translate(-149.167,-130.374)"
       id="id-38f8b964-18cd-4bb1-adfb-279f6fa11df5">
      <g
         id="id-ba5e7e66-c554-413e-a57a-107afc7530b8"
         style="fill:#000000;fill-opacity:1">
        <g
           transform="translate(149.011,134.765)"
           id="g11341">
          <path
             id="id-810f1986-2e7b-47b4-861a-860555dbca15"
             d="M 2.984375,-0.890625 2.65625,-2.46875 c 0.1875,-0.375 0.375,-0.671875 0.609375,-1.0625 0.0625,-0.125 0.140625,-0.234375 0.265625,-0.234375 H 3.5625 c 0.21875,0.015625 0.265625,0.28125 0.46875,0.28125 0.21875,0 0.359375,-0.203125 0.359375,-0.4375 0,-0.15625 -0.046875,-0.265625 -0.109375,-0.34375 -0.15625,-0.09375 -0.328125,-0.125 -0.46875,-0.125 -0.515625,0 -0.78125,0.671875 -1.234375,1.5625 L 2.4375,-3.515625 c -0.109375,-0.546875 -0.390625,-0.875 -0.6875,-0.875 -0.453125,0 -1.15625,0.796875 -1.234375,0.9375 0,0.046875 0.078125,0.1875 0.109375,0.1875 0.109375,-0.140625 0.5625,-0.578125 0.765625,-0.578125 0.171875,0 0.28125,0.171875 0.3125,0.390625 l 0.28125,1.40625 c -0.25,0.484375 -0.421875,0.78125 -0.6875,1.25 C 1.21875,-0.671875 1.140625,-0.5625 1,-0.5625 H 0.984375 c -0.21875,-0.03125 -0.25,-0.296875 -0.453125,-0.296875 -0.234375,0 -0.375,0.21875 -0.375,0.453125 0,0.140625 0.046875,0.25 0.109375,0.34375 0.15625,0.09375 0.328125,0.109375 0.46875,0.109375 0.5625,0 0.828125,-0.765625 1.328125,-1.734375 L 2.25,-0.828125 c 0.109375,0.53125 0.375,0.875 0.6875,0.875 0.4375,0 1.15625,-0.796875 1.234375,-0.9375 C 4.171875,-0.9375 4.09375,-1.0625 4.0625,-1.0625 3.953125,-0.921875 3.5,-0.53125 3.328125,-0.53125 c -0.21875,0 -0.3125,-0.140625 -0.34375,-0.359375 z m 0,0"
             style="stroke:none" />
        </g>
      </g>
    </g>
  </g>
  <g
     style="fill:#c28f47"
     ns1:version="1.1.0"
     ns1:texconverter="pdflatex"
     ns1:pdfconverter="inkscape"
     ns1:text="$B$"
     ns1:preamble="C:\\Users\\flvisa\\Desktop\\lna\\latexify_books\\textext_preamble.tex"
     ns1:scale="0.25877379"
     ns1:alignment="middle center"
     ns1:inkscapeversion="1.0"
     transform="matrix(0.92579902,0,0,0.92579902,161.14338,37.63197)"
     ns1:jacobian_sqrt="0.258774"
     id="g11522">
    <defs
       id="id-ec151530-a985-4f15-b0b3-c778f81adade">
      <g
         id="g15831">
        <symbol
           id="symbol15825"
           overflow="visible">
          <path
             id="path15823"
             d=""
             style="stroke:none" />
        </symbol>
        <symbol
           id="symbol15829"
           overflow="visible">
          <path
             id="path15827"
             d="M 2.203125,-3.734375 2.53125,-5.5 c 0.0625,-0.296875 0.125,-0.625 0.1875,-0.75 0.046875,-0.09375 0.390625,-0.109375 0.5,-0.109375 0.875,0 1.140625,0.53125 1.140625,1.09375 0,0.859375 -0.53125,1.53125 -1.203125,1.53125 z m -0.59375,3.15625 c 0,-0.171875 0.0625,-0.484375 0.078125,-0.59375 l 0.453125,-2.25 h 0.5625 c 1.40625,0 1.421875,0.84375 1.421875,1.171875 v 0.03125 c 0,1.234375 -0.75,1.921875 -1.796875,1.921875 -0.34375,0 -0.71875,0 -0.71875,-0.28125 z m 0.75,-6.046875 C 2,-6.625 1.625,-6.65625 1.25,-6.671875 c -0.046875,0.015625 -0.0625,0.125 -0.0625,0.203125 0,0.03125 0,0.0625 0.015625,0.078125 0.15625,0 0.609375,0.046875 0.609375,0.203125 0,0.171875 -0.046875,0.4375 -0.09375,0.703125 L 0.875,-1.203125 c -0.0625,0.3125 -0.109375,0.578125 -0.1875,0.75 C 0.640625,-0.34375 0.125,-0.296875 0.015625,-0.296875 -0.03125,-0.25 -0.0625,-0.140625 -0.0625,-0.0625 c 0,0.03125 0,0.046875 0.015625,0.0625 h 2.15625 C 3.8125,0 5.078125,-0.90625 5.078125,-2.28125 5.078125,-3.109375 4.5,-3.65625 4.046875,-3.6875 4.453125,-3.90625 5.25,-4.40625 5.25,-5.40625 c 0,-0.875 -0.71875,-1.25 -1.578125,-1.25 -0.546875,0 -0.953125,0.03125 -1.3125,0.03125 z m 0,0"
             style="stroke:none" />
        </symbol>
      </g>
    </defs>
    <g
       style="fill:#c28f47"
       transform="translate(-149.148,-128.093)"
       id="id-e58cc748-90b2-410d-9b18-9fd6e6915ad3">
      <g
         id="id-834ea9c9-c1be-42fb-a12a-759798e145be"
         style="fill:#c28f47;fill-opacity:1">
        <g
           style="fill:#c28f47"
           transform="translate(149.21,134.765)"
           id="g11518">
          <path
             id="id-1175d4a2-9d2e-4518-a741-07051670c9d2"
             d="M 2.203125,-3.734375 2.53125,-5.5 c 0.0625,-0.296875 0.125,-0.625 0.1875,-0.75 0.046875,-0.09375 0.390625,-0.109375 0.5,-0.109375 0.875,0 1.140625,0.53125 1.140625,1.09375 0,0.859375 -0.53125,1.53125 -1.203125,1.53125 z m -0.59375,3.15625 c 0,-0.171875 0.0625,-0.484375 0.078125,-0.59375 l 0.453125,-2.25 h 0.5625 c 1.40625,0 1.421875,0.84375 1.421875,1.171875 v 0.03125 c 0,1.234375 -0.75,1.921875 -1.796875,1.921875 -0.34375,0 -0.71875,0 -0.71875,-0.28125 z m 0.75,-6.046875 C 2,-6.625 1.625,-6.65625 1.25,-6.671875 c -0.046875,0.015625 -0.0625,0.125 -0.0625,0.203125 0,0.03125 0,0.0625 0.015625,0.078125 0.15625,0 0.609375,0.046875 0.609375,0.203125 0,0.171875 -0.046875,0.4375 -0.09375,0.703125 L 0.875,-1.203125 c -0.0625,0.3125 -0.109375,0.578125 -0.1875,0.75 C 0.640625,-0.34375 0.125,-0.296875 0.015625,-0.296875 -0.03125,-0.25 -0.0625,-0.140625 -0.0625,-0.0625 c 0,0.03125 0,0.046875 0.015625,0.0625 h 2.15625 C 3.8125,0 5.078125,-0.90625 5.078125,-2.28125 5.078125,-3.109375 4.5,-3.65625 4.046875,-3.6875 4.453125,-3.90625 5.25,-4.40625 5.25,-5.40625 c 0,-0.875 -0.71875,-1.25 -1.578125,-1.25 -0.546875,0 -0.953125,0.03125 -1.3125,0.03125 z m 0,0"
             style="fill:#c28f47;stroke:none" />
        </g>
      </g>
    </g>
  </g>
  <g
     style="fill:#c28f47"
     ns1:version="1.1.0"
     ns1:texconverter="pdflatex"
     ns1:pdfconverter="inkscape"
     ns1:text="$A$"
     ns1:preamble="C:\\Users\\flvisa\\Desktop\\lna\\latexify_books\\textext_preamble.tex"
     ns1:scale="0.25877379"
     ns1:alignment="middle center"
     ns1:inkscapeversion="1.0"
     transform="matrix(0.92579902,0,0,0.92579902,116.14822,5.0364191)"
     ns1:jacobian_sqrt="0.258774"
     id="g11606">
    <defs
       id="id-e0252a0d-223d-48b0-9256-3bbe8d9c824b">
      <g
         id="g15847">
        <symbol
           id="symbol15841"
           overflow="visible">
          <path
             id="path15839"
             d=""
             style="stroke:none" />
        </symbol>
        <symbol
           id="symbol15845"
           overflow="visible">
          <path
             id="path15843"
             d="m 3.4375,-0.265625 c -0.0625,0.0625 -0.09375,0.25 -0.0625,0.296875 0.4375,-0.015625 0.609375,-0.046875 1.046875,-0.046875 0.40625,0 0.734375,0.03125 1.109375,0.046875 C 5.546875,0 5.59375,-0.1875 5.5625,-0.265625 c -0.0625,0 -0.578125,-0.03125 -0.640625,-0.328125 0,-0.03125 -0.046875,-0.3125 -0.109375,-0.6875 l -0.859375,-5.375 C 3.9375,-6.671875 3.921875,-6.6875 3.890625,-6.6875 c -0.078125,0 -0.3125,0.125 -0.40625,0.28125 l -2.78125,5 c -0.1875,0.359375 -0.390625,0.6875 -0.625,0.953125 -0.125,0.125 -0.46875,0.1875 -0.578125,0.1875 C -0.53125,-0.1875 -0.578125,0 -0.5625,0.03125 -0.125,0.015625 0,-0.015625 0.4375,-0.015625 c 0.40625,0 0.53125,0.03125 0.890625,0.046875 0.03125,-0.0625 0.0625,-0.265625 0.046875,-0.296875 -0.0625,0 -0.625,-0.03125 -0.625,-0.25 C 0.75,-0.65625 0.859375,-0.90625 1.03125,-1.25 1.125,-1.421875 1.421875,-1.953125 1.75,-2.578125 h 2.015625 l 0.21875,1.515625 c 0.03125,0.1875 0.03125,0.390625 0.03125,0.484375 0,0.203125 -0.234375,0.3125 -0.578125,0.3125 z m -1.5,-2.640625 1.375,-2.484375 0.390625,2.484375 z m 0,0"
             style="stroke:none" />
        </symbol>
      </g>
    </defs>
    <g
       style="fill:#c28f47"
       transform="translate(-148.844,-128.077)"
       id="id-07154ceb-8b33-4cbe-a783-af3870afb5c3">
      <g
         id="id-efa70b12-3e12-45ac-b45d-5725fc9f2b84"
         style="fill:#c28f47;fill-opacity:1">
        <g
           style="fill:#c28f47"
           transform="translate(149.41,134.765)"
           id="g11602">
          <path
             id="id-ad7a1611-fe8c-473a-a3da-18e70b8a7296"
             d="m 3.4375,-0.265625 c -0.0625,0.0625 -0.09375,0.25 -0.0625,0.296875 0.4375,-0.015625 0.609375,-0.046875 1.046875,-0.046875 0.40625,0 0.734375,0.03125 1.109375,0.046875 C 5.546875,0 5.59375,-0.1875 5.5625,-0.265625 c -0.0625,0 -0.578125,-0.03125 -0.640625,-0.328125 0,-0.03125 -0.046875,-0.3125 -0.109375,-0.6875 l -0.859375,-5.375 C 3.9375,-6.671875 3.921875,-6.6875 3.890625,-6.6875 c -0.078125,0 -0.3125,0.125 -0.40625,0.28125 l -2.78125,5 c -0.1875,0.359375 -0.390625,0.6875 -0.625,0.953125 -0.125,0.125 -0.46875,0.1875 -0.578125,0.1875 C -0.53125,-0.1875 -0.578125,0 -0.5625,0.03125 -0.125,0.015625 0,-0.015625 0.4375,-0.015625 c 0.40625,0 0.53125,0.03125 0.890625,0.046875 0.03125,-0.0625 0.0625,-0.265625 0.046875,-0.296875 -0.0625,0 -0.625,-0.03125 -0.625,-0.25 C 0.75,-0.65625 0.859375,-0.90625 1.03125,-1.25 1.125,-1.421875 1.421875,-1.953125 1.75,-2.578125 h 2.015625 l 0.21875,1.515625 c 0.03125,0.1875 0.03125,0.390625 0.03125,0.484375 0,0.203125 -0.234375,0.3125 -0.578125,0.3125 z m -1.5,-2.640625 1.375,-2.484375 0.390625,2.484375 z m 0,0"
             style="fill:#c28f47;stroke:none" />
        </g>
      </g>
    </g>
  </g>
  <g
     ns1:version="1.1.0"
     ns1:texconverter="pdflatex"
     ns1:pdfconverter="inkscape"
     ns1:text="$0$"
     ns1:preamble="C:\\Users\\flvisa\\Desktop\\lna\\latexify_books\\textext_preamble.tex"
     ns1:scale="0.25877379"
     ns1:alignment="middle center"
     ns1:inkscapeversion="1.0"
     transform="matrix(0.92579902,0,0,0.92579902,75.583257,72.198913)"
     ns1:jacobian_sqrt="0.258774"
     style="fill:#c28f47;stroke-width:0"
     id="g11932">
    <defs
       id="id-653c8857-5bac-4612-9e24-e5cb1d089f9f">
      <g
         id="g15863"
         style="fill:#c28f47;stroke-width:0">
        <symbol
           id="symbol15857"
           overflow="visible"
           style="fill:#c28f47;stroke-width:0">
          <path
             id="path15855"
             d="M 0.5,0 H 4.484375 V -4.8125 H 0.5 Z M 1,-0.5 V -4.3125 H 3.984375 V -0.5 Z m 0,0"
             style="fill:#c28f47;stroke:none;stroke-width:0" />
        </symbol>
        <symbol
           id="symbol15861"
           overflow="visible"
           style="fill:#c28f47;stroke-width:0">
          <path
             id="path15859"
             d="m 2.484375,-5.875 c 0.71875,0 1.203125,1.1875 1.203125,2.71875 0,1.515625 -0.4375,2.828125 -1.3125,2.828125 -0.703125,0 -1.21875,-1.25 -1.21875,-2.78125 0,-1.53125 0.515625,-2.765625 1.328125,-2.765625 z m -0.0625,-0.359375 c -1.34375,0 -2.125,1.421875 -2.125,3.125 0,1.6875 0.796875,3.140625 2.125,3.140625 1.34375,0 2.125,-1.453125 2.125,-3.140625 0,-1.703125 -0.765625,-3.125 -2.125,-3.125 z m 0,0"
             style="fill:#c28f47;stroke:none;stroke-width:0" />
        </symbol>
      </g>
    </defs>
    <g
       transform="translate(-149.009,-128.531)"
       id="id-1010fb4e-6224-4985-aa06-47e55132b849"
       style="fill:#c28f47;stroke-width:0">
      <g
         id="id-f5d5eb76-0b31-41dd-b70d-16e4077241b4"
         style="fill:#c28f47;fill-opacity:1;stroke-width:0">
        <g
           transform="translate(148.712,134.765)"
           style="fill:#c28f47;stroke-width:0"
           id="g11928">
          <path
             id="id-7f0662d9-96c7-4210-8f00-28cd1ca04c02"
             d="m 2.484375,-5.875 c 0.71875,0 1.203125,1.1875 1.203125,2.71875 0,1.515625 -0.4375,2.828125 -1.3125,2.828125 -0.703125,0 -1.21875,-1.25 -1.21875,-2.78125 0,-1.53125 0.515625,-2.765625 1.328125,-2.765625 z m -0.0625,-0.359375 c -1.34375,0 -2.125,1.421875 -2.125,3.125 0,1.6875 0.796875,3.140625 2.125,3.140625 1.34375,0 2.125,-1.453125 2.125,-3.140625 0,-1.703125 -0.765625,-3.125 -2.125,-3.125 z m 0,0"
             style="fill:#c28f47;stroke:none;stroke-width:0" />
        </g>
      </g>
    </g>
  </g>
  <path
     style="fill:none;stroke:#a6a7a3;stroke-width:0.757485;stroke-linecap:butt;stroke-linejoin:miter;stroke-miterlimit:4;stroke-dasharray:none;stroke-opacity:1;marker-start:url(#Arrow1Mstart)"
     d="m 83.22443,9.2199041 h 28.75601"
     id="path13928" />
  <path
     id="path13928-8"
     d="M 154.38273,9.2199041 H 125.62672"
     style="fill:none;stroke:#a6a7a3;stroke-width:0.757485;stroke-linecap:butt;stroke-linejoin:miter;stroke-miterlimit:4;stroke-dasharray:none;stroke-opacity:1;marker-start:url(#Arrow1Mstart-3)" />
  <path
     id="path13928-0"
     d="M 163.67658,15.61299 V 33.537181"
     style="fill:none;stroke:#a6a7a3;stroke-width:0.693335;stroke-linecap:butt;stroke-linejoin:miter;stroke-miterlimit:4;stroke-dasharray:none;stroke-opacity:1;marker-start:url(#Arrow1Mstart-30)" />
  <path
     style="fill:none;stroke:#a6a7a3;stroke-width:0.718753;stroke-linecap:butt;stroke-linejoin:miter;stroke-miterlimit:4;stroke-dasharray:none;stroke-opacity:1;marker-start:url(#Arrow1Mstart-3-4)"
     d="M 163.67658,68.347242 V 49.084899"
     id="path13928-8-0" />
  <path
     style="fill:none;stroke:#d3c7b1;stroke-width:0.755906;stroke-linecap:butt;stroke-linejoin:miter;stroke-miterlimit:4;stroke-dasharray:none;stroke-opacity:1"
     d="m 156.20966,13.56432 h 11.70576"
     id="path13887" />
  <path
     id="path13887-7"
     d="M 156.20966,3.2483242 V 13.56432"
     style="fill:none;stroke:#d3c7b1;stroke-width:0.755906;stroke-linecap:butt;stroke-linejoin:miter;stroke-miterlimit:4;stroke-dasharray:none;stroke-opacity:1" />
  <path
     style="fill:none;stroke:#a6a7a3;stroke-width:1.13386;stroke-linecap:butt;stroke-linejoin:miter;stroke-miterlimit:4;stroke-dasharray:none;stroke-opacity:1;marker-end:url(#marker11950-0)"
     d="m 126.94833,83.530016 -2.15877,4.075832"
     id="path11946-3" />
  <path
     id="path11946-3-9"
     d="m 114.56153,103.52541 2.566,-3.832535"
     style="fill:none;stroke:#a6a7a3;stroke-width:1.13386;stroke-linecap:butt;stroke-linejoin:miter;stroke-miterlimit:4;stroke-dasharray:none;stroke-opacity:1;marker-end:url(#marker11950-0-1)" />
</svg>
