<?xml version="1.0" encoding="UTF-8" standalone="no"?>
<svg
   xmlns:ns1="http://www.iki.fi/pav/software/textext/"
   xmlns:dc="http://purl.org/dc/elements/1.1/"
   xmlns:cc="http://creativecommons.org/ns#"
   xmlns:rdf="http://www.w3.org/1999/02/22-rdf-syntax-ns#"
   xmlns:svg="http://www.w3.org/2000/svg"
   xmlns="http://www.w3.org/2000/svg"
   xmlns:sodipodi="http://sodipodi.sourceforge.net/DTD/sodipodi-0.dtd"
   xmlns:inkscape="http://www.inkscape.org/namespaces/inkscape"
   width="181.61816pt"
   height="139.97014pt"
   viewBox="0 0 181.61817 139.97014"
   version="1.2"
   id="svg12820"
   sodipodi:docname="fig_7_16.svg"
   inkscape:version="1.0 (4035a4fb49, 2020-05-01)">
  <metadata
     id="metadata12826">
    <rdf:RDF>
      <cc:Work
         rdf:about="">
        <dc:format>image/svg+xml</dc:format>
        <dc:type
           rdf:resource="http://purl.org/dc/dcmitype/StillImage" />
        <dc:title></dc:title>
      </cc:Work>
    </rdf:RDF>
  </metadata>
  <defs
     id="defs12824">
    <marker
       inkscape:stockid="Arrow1Mstart"
       orient="auto"
       refY="0"
       refX="0"
       id="Arrow1Mstart"
       style="overflow:visible"
       inkscape:isstock="true">
      <path
         id="path8477"
         d="M 0,0 5,-5 -12.5,0 5,5 Z"
         style="fill:#a6a7a3;fill-opacity:1;fill-rule:evenodd;stroke:#a6a7a3;stroke-width:1pt;stroke-opacity:1"
         transform="matrix(0.4,0,0,0.4,4,0)" />
    </marker>
    <marker
       inkscape:isstock="true"
       style="overflow:visible"
       id="marker13414"
       refX="0"
       refY="0"
       orient="auto"
       inkscape:stockid="Arrow1Mend">
      <path
         transform="matrix(-0.4,0,0,-0.4,-4,0)"
         style="fill:#000000;fill-opacity:1;fill-rule:evenodd;stroke:#000000;stroke-width:1pt;stroke-opacity:1"
         d="M 0,0 5,-5 -12.5,0 5,5 Z"
         id="path13412" />
    </marker>
    <marker
       inkscape:isstock="true"
       style="overflow:visible"
       id="marker13404"
       refX="0"
       refY="0"
       orient="auto"
       inkscape:stockid="Arrow1Mend">
      <path
         transform="matrix(-0.4,0,0,-0.4,-4,0)"
         style="fill:#000000;fill-opacity:1;fill-rule:evenodd;stroke:#000000;stroke-width:1pt;stroke-opacity:1"
         d="M 0,0 5,-5 -12.5,0 5,5 Z"
         id="path13402" />
    </marker>
    <g
       id="id-29133148-d815-4a29-b24b-553794fadc42">
      <symbol
         id="id-a118ae13-ba78-4e16-a069-642ee6dfbf21"
         overflow="visible">
        <path
           id="id-60087a64-c00a-483e-8331-082cd9a13b5a"
           d=""
           style="stroke:none" />
      </symbol>
      <symbol
         id="id-2b6fc8c0-4918-42f3-baf6-c3ffc04d3189"
         overflow="visible">
        <path
           id="id-6f97116d-2f8f-4339-9533-8ba7c745a227"
           d="m 1.328125,-4.390625 c -0.46875,0 -1.15625,0.765625 -1.265625,0.953125 0,0.0625 0.0625,0.1875 0.09375,0.1875 0.03125,-0.03125 0.484375,-0.59375 0.71875,-0.59375 0.484375,0 0.59375,2.0625 0.59375,3.21875 v 0.453125 c 0,0.375 -0.015625,0.78125 -0.171875,1.015625 -0.328125,0.484375 -0.75,0.84375 -1.375,0.84375 -0.21875,0 -0.65625,-0.109375 -0.8125,-0.1875 -0.140625,0.078125 -0.21875,0.28125 -0.21875,0.4375 0,0.21875 0.234375,0.421875 0.59375,0.421875 1.359375,0 4.609375,-3.578125 4.609375,-5.953125 0,-0.21875 -0.03125,-0.796875 -0.453125,-0.796875 -0.234375,0 -0.421875,0.171875 -0.5,0.4375 0.109375,0.21875 0.25,0.46875 0.25,1.078125 0,1.09375 -0.796875,2.28125 -1.15625,2.71875 0,-0.609375 -0.03125,-4.234375 -0.90625,-4.234375 z m 0,0"
           style="stroke:none" />
      </symbol>
    </g>
    <g
       id="id-14d8c399-d641-4b18-99d3-aabc58fad83f">
      <symbol
         id="id-be38c42f-f184-4103-86ed-e1fed803d400"
         overflow="visible">
        <path
           id="id-5a72d8a6-9968-4dda-947b-c62e2c2b084d"
           d=""
           style="stroke:none" />
      </symbol>
      <symbol
         id="id-f505f73f-a027-4ed3-8680-db536d3a5852"
         overflow="visible">
        <path
           id="id-60e48405-93e4-4faa-8e1f-456b14425173"
           d="M 2.984375,-0.890625 2.65625,-2.46875 c 0.1875,-0.375 0.375,-0.671875 0.609375,-1.0625 0.0625,-0.125 0.140625,-0.234375 0.265625,-0.234375 H 3.5625 c 0.21875,0.015625 0.265625,0.28125 0.46875,0.28125 0.21875,0 0.359375,-0.203125 0.359375,-0.4375 0,-0.15625 -0.046875,-0.265625 -0.109375,-0.34375 -0.15625,-0.09375 -0.328125,-0.125 -0.46875,-0.125 -0.515625,0 -0.78125,0.671875 -1.234375,1.5625 L 2.4375,-3.515625 c -0.109375,-0.546875 -0.390625,-0.875 -0.6875,-0.875 -0.453125,0 -1.15625,0.796875 -1.234375,0.9375 0,0.046875 0.078125,0.1875 0.109375,0.1875 0.109375,-0.140625 0.5625,-0.578125 0.765625,-0.578125 0.171875,0 0.28125,0.171875 0.3125,0.390625 l 0.28125,1.40625 c -0.25,0.484375 -0.421875,0.78125 -0.6875,1.25 C 1.21875,-0.671875 1.140625,-0.5625 1,-0.5625 H 0.984375 c -0.21875,-0.03125 -0.25,-0.296875 -0.453125,-0.296875 -0.234375,0 -0.375,0.21875 -0.375,0.453125 0,0.140625 0.046875,0.25 0.109375,0.34375 0.15625,0.09375 0.328125,0.109375 0.46875,0.109375 0.5625,0 0.828125,-0.765625 1.328125,-1.734375 L 2.25,-0.828125 c 0.109375,0.53125 0.375,0.875 0.6875,0.875 0.4375,0 1.15625,-0.796875 1.234375,-0.9375 C 4.171875,-0.9375 4.09375,-1.0625 4.0625,-1.0625 3.953125,-0.921875 3.5,-0.53125 3.328125,-0.53125 c -0.21875,0 -0.3125,-0.140625 -0.34375,-0.359375 z m 0,0"
           style="stroke:none" />
      </symbol>
    </g>
    <g
       id="id-405ebdc3-8e6b-42c8-b862-266d0df44057">
      <symbol
         id="id-3c4d1d86-7f73-4f04-9bb0-8b73459e6d17"
         overflow="visible">
        <path
           id="id-3b3624b6-e6d2-4f09-b8c9-88e8be28bd2f"
           d=""
           style="stroke:none" />
      </symbol>
      <symbol
         id="id-89d2fdb4-390d-46cb-948d-d4c64479d776"
         overflow="visible">
        <path
           id="id-113d5ad0-bda2-4300-947e-0bfc2c0e374e"
           d="M 2.203125,-3.734375 2.53125,-5.5 c 0.0625,-0.296875 0.125,-0.625 0.1875,-0.75 0.046875,-0.09375 0.390625,-0.109375 0.5,-0.109375 0.875,0 1.140625,0.53125 1.140625,1.09375 0,0.859375 -0.53125,1.53125 -1.203125,1.53125 z m -0.59375,3.15625 c 0,-0.171875 0.0625,-0.484375 0.078125,-0.59375 l 0.453125,-2.25 h 0.5625 c 1.40625,0 1.421875,0.84375 1.421875,1.171875 v 0.03125 c 0,1.234375 -0.75,1.921875 -1.796875,1.921875 -0.34375,0 -0.71875,0 -0.71875,-0.28125 z m 0.75,-6.046875 C 2,-6.625 1.625,-6.65625 1.25,-6.671875 c -0.046875,0.015625 -0.0625,0.125 -0.0625,0.203125 0,0.03125 0,0.0625 0.015625,0.078125 0.15625,0 0.609375,0.046875 0.609375,0.203125 0,0.171875 -0.046875,0.4375 -0.09375,0.703125 L 0.875,-1.203125 c -0.0625,0.3125 -0.109375,0.578125 -0.1875,0.75 C 0.640625,-0.34375 0.125,-0.296875 0.015625,-0.296875 -0.03125,-0.25 -0.0625,-0.140625 -0.0625,-0.0625 c 0,0.03125 0,0.046875 0.015625,0.0625 h 2.15625 C 3.8125,0 5.078125,-0.90625 5.078125,-2.28125 5.078125,-3.109375 4.5,-3.65625 4.046875,-3.6875 4.453125,-3.90625 5.25,-4.40625 5.25,-5.40625 c 0,-0.875 -0.71875,-1.25 -1.578125,-1.25 -0.546875,0 -0.953125,0.03125 -1.3125,0.03125 z m 0,0"
           style="stroke:none" />
      </symbol>
    </g>
    <g
       id="id-142c9ebd-1e10-49a5-adf9-fca0efb2ba64">
      <symbol
         id="id-950e9359-4ba1-4ea7-a860-8fd8caac3e5f"
         overflow="visible">
        <path
           id="id-e26fa672-6f9d-42c2-b676-7a0926a4e227"
           d=""
           style="stroke:none" />
      </symbol>
      <symbol
         id="id-df2478a9-9a39-45ce-a859-5684082465ca"
         overflow="visible">
        <path
           id="id-bb48271e-cbc3-4ee9-b785-8c1d369dcf1b"
           d="m 3.4375,-0.265625 c -0.0625,0.0625 -0.09375,0.25 -0.0625,0.296875 0.4375,-0.015625 0.609375,-0.046875 1.046875,-0.046875 0.40625,0 0.734375,0.03125 1.109375,0.046875 C 5.546875,0 5.59375,-0.1875 5.5625,-0.265625 c -0.0625,0 -0.578125,-0.03125 -0.640625,-0.328125 0,-0.03125 -0.046875,-0.3125 -0.109375,-0.6875 l -0.859375,-5.375 C 3.9375,-6.671875 3.921875,-6.6875 3.890625,-6.6875 c -0.078125,0 -0.3125,0.125 -0.40625,0.28125 l -2.78125,5 c -0.1875,0.359375 -0.390625,0.6875 -0.625,0.953125 -0.125,0.125 -0.46875,0.1875 -0.578125,0.1875 C -0.53125,-0.1875 -0.578125,0 -0.5625,0.03125 -0.125,0.015625 0,-0.015625 0.4375,-0.015625 c 0.40625,0 0.53125,0.03125 0.890625,0.046875 0.03125,-0.0625 0.0625,-0.265625 0.046875,-0.296875 -0.0625,0 -0.625,-0.03125 -0.625,-0.25 C 0.75,-0.65625 0.859375,-0.90625 1.03125,-1.25 1.125,-1.421875 1.421875,-1.953125 1.75,-2.578125 h 2.015625 l 0.21875,1.515625 c 0.03125,0.1875 0.03125,0.390625 0.03125,0.484375 0,0.203125 -0.234375,0.3125 -0.578125,0.3125 z m -1.5,-2.640625 1.375,-2.484375 0.390625,2.484375 z m 0,0"
           style="stroke:none" />
      </symbol>
    </g>
    <g
       id="id-5686ff1a-578b-46d6-ac15-7384e75a834f"
       style="fill:#c28f47;stroke-width:0">
      <symbol
         id="id-2de13a81-ba87-4026-8960-c18f2ea77f1f"
         overflow="visible"
         style="fill:#c28f47;stroke-width:0">
        <path
           id="id-5c6b7f8e-4fb6-403c-a4df-a84bd9348169"
           d="M 0.5,0 H 4.484375 V -4.8125 H 0.5 Z M 1,-0.5 V -4.3125 H 3.984375 V -0.5 Z m 0,0"
           style="fill:#c28f47;stroke:none;stroke-width:0" />
      </symbol>
      <symbol
         id="id-01d5d73f-2052-4c98-afbd-39dc31a6d6df"
         overflow="visible"
         style="fill:#c28f47;stroke-width:0">
        <path
           id="id-9d58b850-05d9-4fab-a143-f9d2389de25f"
           d="m 2.484375,-5.875 c 0.71875,0 1.203125,1.1875 1.203125,2.71875 0,1.515625 -0.4375,2.828125 -1.3125,2.828125 -0.703125,0 -1.21875,-1.25 -1.21875,-2.78125 0,-1.53125 0.515625,-2.765625 1.328125,-2.765625 z m -0.0625,-0.359375 c -1.34375,0 -2.125,1.421875 -2.125,3.125 0,1.6875 0.796875,3.140625 2.125,3.140625 1.34375,0 2.125,-1.453125 2.125,-3.140625 0,-1.703125 -0.765625,-3.125 -2.125,-3.125 z m 0,0"
           style="fill:#c28f47;stroke:none;stroke-width:0" />
      </symbol>
    </g>
    <marker
       inkscape:isstock="true"
       style="overflow:visible"
       id="Arrow1Mstart-3"
       refX="0"
       refY="0"
       orient="auto"
       inkscape:stockid="Arrow1Mstart">
      <path
         transform="matrix(0.4,0,0,0.4,4,0)"
         style="fill:#a6a7a3;fill-opacity:1;fill-rule:evenodd;stroke:#a6a7a3;stroke-width:1pt;stroke-opacity:1"
         d="M 0,0 5,-5 -12.5,0 5,5 Z"
         id="path8477-4" />
    </marker>
    <marker
       inkscape:stockid="Arrow1Mstart"
       orient="auto"
       refY="0"
       refX="0"
       id="Arrow1Mstart-3-4"
       style="overflow:visible"
       inkscape:isstock="true">
      <path
         id="path8477-4-3"
         d="M 0,0 5,-5 -12.5,0 5,5 Z"
         style="fill:#a6a7a3;fill-opacity:1;fill-rule:evenodd;stroke:#a6a7a3;stroke-width:1pt;stroke-opacity:1"
         transform="matrix(0.4,0,0,0.4,4,0)" />
    </marker>
    <marker
       inkscape:isstock="true"
       style="overflow:visible"
       id="Arrow1Mstart-30"
       refX="0"
       refY="0"
       orient="auto"
       inkscape:stockid="Arrow1Mstart">
      <path
         transform="matrix(0.4,0,0,0.4,4,0)"
         style="fill:#a6a7a3;fill-opacity:1;fill-rule:evenodd;stroke:#a6a7a3;stroke-width:1pt;stroke-opacity:1"
         d="M 0,0 5,-5 -12.5,0 5,5 Z"
         id="path8477-9" />
    </marker>
    <marker
       inkscape:stockid="Arrow1Mend"
       orient="auto"
       refY="0"
       refX="0"
       id="marker11104"
       style="overflow:visible"
       inkscape:isstock="true">
      <path
         id="path11102"
         d="M 0,0 5,-5 -12.5,0 5,5 Z"
         style="fill:#000000;fill-opacity:1;fill-rule:evenodd;stroke:#000000;stroke-width:1pt;stroke-opacity:1"
         transform="matrix(-0.4,0,0,-0.4,-4,0)" />
    </marker>
    <marker
       inkscape:isstock="true"
       style="overflow:visible"
       id="marker11950"
       refX="0"
       refY="0"
       orient="auto"
       inkscape:stockid="Arrow1Mend">
      <path
         transform="matrix(-0.4,0,0,-0.4,-4,0)"
         style="fill:#a6a7a3;fill-opacity:1;fill-rule:evenodd;stroke:#a6a7a3;stroke-width:1pt;stroke-opacity:1"
         d="M 0,0 5,-5 -12.5,0 5,5 Z"
         id="path11948" />
    </marker>
    <marker
       inkscape:stockid="Arrow1Mend"
       orient="auto"
       refY="0"
       refX="0"
       id="marker11950-0"
       style="overflow:visible"
       inkscape:isstock="true">
      <path
         id="path11948-8"
         d="M 0,0 5,-5 -12.5,0 5,5 Z"
         style="fill:#a6a7a3;fill-opacity:1;fill-rule:evenodd;stroke:#a6a7a3;stroke-width:1pt;stroke-opacity:1"
         transform="matrix(-0.4,0,0,-0.4,-4,0)" />
    </marker>
    <g
       id="id-29133148-d815-4a29-b24b-553794fadc42-5">
      <symbol
         id="id-a118ae13-ba78-4e16-a069-642ee6dfbf21-5"
         overflow="visible">
        <path
           id="id-60087a64-c00a-483e-8331-082cd9a13b5a-5"
           d=""
           style="stroke:none" />
      </symbol>
      <symbol
         id="id-2b6fc8c0-4918-42f3-baf6-c3ffc04d3189-7"
         overflow="visible">
        <path
           id="id-6f97116d-2f8f-4339-9533-8ba7c745a227-3"
           d="m 1.328125,-4.390625 c -0.46875,0 -1.15625,0.765625 -1.265625,0.953125 0,0.0625 0.0625,0.1875 0.09375,0.1875 0.03125,-0.03125 0.484375,-0.59375 0.71875,-0.59375 0.484375,0 0.59375,2.0625 0.59375,3.21875 v 0.453125 c 0,0.375 -0.015625,0.78125 -0.171875,1.015625 -0.328125,0.484375 -0.75,0.84375 -1.375,0.84375 -0.21875,0 -0.65625,-0.109375 -0.8125,-0.1875 -0.140625,0.078125 -0.21875,0.28125 -0.21875,0.4375 0,0.21875 0.234375,0.421875 0.59375,0.421875 1.359375,0 4.609375,-3.578125 4.609375,-5.953125 0,-0.21875 -0.03125,-0.796875 -0.453125,-0.796875 -0.234375,0 -0.421875,0.171875 -0.5,0.4375 0.109375,0.21875 0.25,0.46875 0.25,1.078125 0,1.09375 -0.796875,2.28125 -1.15625,2.71875 0,-0.609375 -0.03125,-4.234375 -0.90625,-4.234375 z m 0,0"
           style="stroke:none" />
      </symbol>
    </g>
    <g
       id="id-14d8c399-d641-4b18-99d3-aabc58fad83f-5">
      <symbol
         id="id-be38c42f-f184-4103-86ed-e1fed803d400-1"
         overflow="visible">
        <path
           id="id-5a72d8a6-9968-4dda-947b-c62e2c2b084d-1"
           d=""
           style="stroke:none" />
      </symbol>
      <symbol
         id="id-f505f73f-a027-4ed3-8680-db536d3a5852-4"
         overflow="visible">
        <path
           id="id-60e48405-93e4-4faa-8e1f-456b14425173-7"
           d="M 2.984375,-0.890625 2.65625,-2.46875 c 0.1875,-0.375 0.375,-0.671875 0.609375,-1.0625 0.0625,-0.125 0.140625,-0.234375 0.265625,-0.234375 H 3.5625 c 0.21875,0.015625 0.265625,0.28125 0.46875,0.28125 0.21875,0 0.359375,-0.203125 0.359375,-0.4375 0,-0.15625 -0.046875,-0.265625 -0.109375,-0.34375 -0.15625,-0.09375 -0.328125,-0.125 -0.46875,-0.125 -0.515625,0 -0.78125,0.671875 -1.234375,1.5625 L 2.4375,-3.515625 c -0.109375,-0.546875 -0.390625,-0.875 -0.6875,-0.875 -0.453125,0 -1.15625,0.796875 -1.234375,0.9375 0,0.046875 0.078125,0.1875 0.109375,0.1875 0.109375,-0.140625 0.5625,-0.578125 0.765625,-0.578125 0.171875,0 0.28125,0.171875 0.3125,0.390625 l 0.28125,1.40625 c -0.25,0.484375 -0.421875,0.78125 -0.6875,1.25 C 1.21875,-0.671875 1.140625,-0.5625 1,-0.5625 H 0.984375 c -0.21875,-0.03125 -0.25,-0.296875 -0.453125,-0.296875 -0.234375,0 -0.375,0.21875 -0.375,0.453125 0,0.140625 0.046875,0.25 0.109375,0.34375 0.15625,0.09375 0.328125,0.109375 0.46875,0.109375 0.5625,0 0.828125,-0.765625 1.328125,-1.734375 L 2.25,-0.828125 c 0.109375,0.53125 0.375,0.875 0.6875,0.875 0.4375,0 1.15625,-0.796875 1.234375,-0.9375 C 4.171875,-0.9375 4.09375,-1.0625 4.0625,-1.0625 3.953125,-0.921875 3.5,-0.53125 3.328125,-0.53125 c -0.21875,0 -0.3125,-0.140625 -0.34375,-0.359375 z m 0,0"
           style="stroke:none" />
      </symbol>
    </g>
    <g
       id="id-405ebdc3-8e6b-42c8-b862-266d0df44057-7">
      <symbol
         id="id-3c4d1d86-7f73-4f04-9bb0-8b73459e6d17-5"
         overflow="visible">
        <path
           id="id-3b3624b6-e6d2-4f09-b8c9-88e8be28bd2f-5"
           d=""
           style="stroke:none" />
      </symbol>
      <symbol
         id="id-89d2fdb4-390d-46cb-948d-d4c64479d776-7"
         overflow="visible">
        <path
           id="id-113d5ad0-bda2-4300-947e-0bfc2c0e374e-1"
           d="M 2.203125,-3.734375 2.53125,-5.5 c 0.0625,-0.296875 0.125,-0.625 0.1875,-0.75 0.046875,-0.09375 0.390625,-0.109375 0.5,-0.109375 0.875,0 1.140625,0.53125 1.140625,1.09375 0,0.859375 -0.53125,1.53125 -1.203125,1.53125 z m -0.59375,3.15625 c 0,-0.171875 0.0625,-0.484375 0.078125,-0.59375 l 0.453125,-2.25 h 0.5625 c 1.40625,0 1.421875,0.84375 1.421875,1.171875 v 0.03125 c 0,1.234375 -0.75,1.921875 -1.796875,1.921875 -0.34375,0 -0.71875,0 -0.71875,-0.28125 z m 0.75,-6.046875 C 2,-6.625 1.625,-6.65625 1.25,-6.671875 c -0.046875,0.015625 -0.0625,0.125 -0.0625,0.203125 0,0.03125 0,0.0625 0.015625,0.078125 0.15625,0 0.609375,0.046875 0.609375,0.203125 0,0.171875 -0.046875,0.4375 -0.09375,0.703125 L 0.875,-1.203125 c -0.0625,0.3125 -0.109375,0.578125 -0.1875,0.75 C 0.640625,-0.34375 0.125,-0.296875 0.015625,-0.296875 -0.03125,-0.25 -0.0625,-0.140625 -0.0625,-0.0625 c 0,0.03125 0,0.046875 0.015625,0.0625 h 2.15625 C 3.8125,0 5.078125,-0.90625 5.078125,-2.28125 5.078125,-3.109375 4.5,-3.65625 4.046875,-3.6875 4.453125,-3.90625 5.25,-4.40625 5.25,-5.40625 c 0,-0.875 -0.71875,-1.25 -1.578125,-1.25 -0.546875,0 -0.953125,0.03125 -1.3125,0.03125 z m 0,0"
           style="stroke:none" />
      </symbol>
    </g>
    <g
       id="id-142c9ebd-1e10-49a5-adf9-fca0efb2ba64-6">
      <symbol
         id="id-950e9359-4ba1-4ea7-a860-8fd8caac3e5f-3"
         overflow="visible">
        <path
           id="id-e26fa672-6f9d-42c2-b676-7a0926a4e227-6"
           d=""
           style="stroke:none" />
      </symbol>
      <symbol
         id="id-df2478a9-9a39-45ce-a859-5684082465ca-3"
         overflow="visible">
        <path
           id="id-bb48271e-cbc3-4ee9-b785-8c1d369dcf1b-9"
           d="m 3.4375,-0.265625 c -0.0625,0.0625 -0.09375,0.25 -0.0625,0.296875 0.4375,-0.015625 0.609375,-0.046875 1.046875,-0.046875 0.40625,0 0.734375,0.03125 1.109375,0.046875 C 5.546875,0 5.59375,-0.1875 5.5625,-0.265625 c -0.0625,0 -0.578125,-0.03125 -0.640625,-0.328125 0,-0.03125 -0.046875,-0.3125 -0.109375,-0.6875 l -0.859375,-5.375 C 3.9375,-6.671875 3.921875,-6.6875 3.890625,-6.6875 c -0.078125,0 -0.3125,0.125 -0.40625,0.28125 l -2.78125,5 c -0.1875,0.359375 -0.390625,0.6875 -0.625,0.953125 -0.125,0.125 -0.46875,0.1875 -0.578125,0.1875 C -0.53125,-0.1875 -0.578125,0 -0.5625,0.03125 -0.125,0.015625 0,-0.015625 0.4375,-0.015625 c 0.40625,0 0.53125,0.03125 0.890625,0.046875 0.03125,-0.0625 0.0625,-0.265625 0.046875,-0.296875 -0.0625,0 -0.625,-0.03125 -0.625,-0.25 C 0.75,-0.65625 0.859375,-0.90625 1.03125,-1.25 1.125,-1.421875 1.421875,-1.953125 1.75,-2.578125 h 2.015625 l 0.21875,1.515625 c 0.03125,0.1875 0.03125,0.390625 0.03125,0.484375 0,0.203125 -0.234375,0.3125 -0.578125,0.3125 z m -1.5,-2.640625 1.375,-2.484375 0.390625,2.484375 z m 0,0"
           style="stroke:none" />
      </symbol>
    </g>
    <g
       id="id-577fe027-c45e-4818-ad8c-376dda2ef1fd"
       style="fill:#c28f47;stroke-width:0">
      <symbol
         id="id-bc1f46c8-8d8c-4cca-83a7-ac2edd142505"
         overflow="visible"
         style="fill:#c28f47;stroke-width:0">
        <path
           id="id-39def505-4cee-406f-ae0b-194fbad5e063"
           d="M 0.5,0 H 4.484375 V -4.8125 H 0.5 Z M 1,-0.5 V -4.3125 H 3.984375 V -0.5 Z m 0,0"
           style="fill:#c28f47;stroke:none;stroke-width:0" />
      </symbol>
      <symbol
         id="id-fef8ab12-2d3a-47e7-b887-ce1247711a80"
         overflow="visible"
         style="fill:#c28f47;stroke-width:0">
        <path
           id="id-b70241de-359e-49bb-a189-ec6d353c55a8"
           d="m 2.171875,-1.125 c 0,0.28125 -0.015625,0.5625 -0.0625,0.71875 C 2.078125,-0.296875 1.609375,-0.25 1.5,-0.25 c -0.046875,0.046875 -0.046875,0.234375 0,0.28125 0.390625,-0.015625 0.65625,-0.046875 1.03125,-0.046875 0.375,0 0.6875,0.03125 1.09375,0.046875 0.046875,-0.046875 0.03125,-0.234375 0,-0.28125 C 3.5,-0.25 3.015625,-0.296875 2.984375,-0.40625 2.9375,-0.5625 2.9375,-0.84375 2.9375,-1.125 v -4.03125 c 0,-0.59375 0.078125,-0.9375 0.078125,-0.9375 0,-0.046875 -0.03125,-0.15625 -0.09375,-0.15625 H 2.90625 C 2.875,-6.25 2,-5.828125 1.203125,-5.46875 c -0.03125,0.015625 0,0.046875 0,0.0625 0,0.078125 0.03125,0.125 0.078125,0.171875 0.171875,-0.0625 0.546875,-0.203125 0.6875,-0.203125 0.140625,0 0.203125,0.09375 0.203125,0.375 z m 0,0"
           style="fill:#c28f47;stroke:none;stroke-width:0" />
      </symbol>
    </g>
    <g
       id="id-5686ff1a-578b-46d6-ac15-7384e75a834f-6"
       style="fill:#c28f47;stroke-width:0">
      <symbol
         id="id-2de13a81-ba87-4026-8960-c18f2ea77f1f-6"
         overflow="visible"
         style="fill:#c28f47;stroke-width:0">
        <path
           id="id-5c6b7f8e-4fb6-403c-a4df-a84bd9348169-2"
           d="M 0.5,0 H 4.484375 V -4.8125 H 0.5 Z M 1,-0.5 V -4.3125 H 3.984375 V -0.5 Z m 0,0"
           style="fill:#c28f47;stroke:none;stroke-width:0" />
      </symbol>
      <symbol
         id="id-01d5d73f-2052-4c98-afbd-39dc31a6d6df-7"
         overflow="visible"
         style="fill:#c28f47;stroke-width:0">
        <path
           id="id-9d58b850-05d9-4fab-a143-f9d2389de25f-1"
           d="m 2.484375,-5.875 c 0.71875,0 1.203125,1.1875 1.203125,2.71875 0,1.515625 -0.4375,2.828125 -1.3125,2.828125 -0.703125,0 -1.21875,-1.25 -1.21875,-2.78125 0,-1.53125 0.515625,-2.765625 1.328125,-2.765625 z m -0.0625,-0.359375 c -1.34375,0 -2.125,1.421875 -2.125,3.125 0,1.6875 0.796875,3.140625 2.125,3.140625 1.34375,0 2.125,-1.453125 2.125,-3.140625 0,-1.703125 -0.765625,-3.125 -2.125,-3.125 z m 0,0"
           style="fill:#c28f47;stroke:none;stroke-width:0" />
      </symbol>
    </g>
    <g
       id="id-903b9604-cafa-47ee-be67-bdc2950617a7">
      <symbol
         id="id-774ef2a6-5122-431d-9fba-636cca495522"
         overflow="visible">
        <path
           id="id-fbffcbd4-d1e3-4596-a9a9-2d196bd0e0b9"
           d=""
           style="stroke:none" />
      </symbol>
      <symbol
         id="id-a597b3bb-26b4-4a3c-ad49-83c5f5da1438"
         overflow="visible">
        <path
           id="id-13a3aa15-233e-471e-9242-84f2e2afb92c"
           d="m 2.34375,-4.40625 c -1.0625,0 -2.171875,2.1875 -2.171875,3.390625 0,0.75 0.34375,1.078125 0.890625,1.078125 0.546875,0 1.15625,-0.59375 1.6875,-1.265625 -0.03125,0.1875 -0.046875,0.375 -0.046875,0.53125 0,0.40625 0.140625,0.71875 0.453125,0.71875 0.4375,0 0.78125,-0.546875 0.84375,-0.75 0.015625,-0.03125 -0.015625,-0.1875 -0.046875,-0.21875 -0.140625,0.140625 -0.296875,0.25 -0.515625,0.25 -0.15625,0 -0.359375,-0.078125 -0.359375,-0.53125 0,-0.15625 0.015625,-0.390625 0.109375,-0.6875 l 0.484375,-0.78125 c 0.25,-0.3125 0.5625,-0.921875 0.5625,-1.21875 0,-0.28125 -0.203125,-0.5 -0.328125,-0.5 -0.15625,0 -0.53125,0.9375 -0.78125,1.65625 l -0.25,0.4375 c 0.015625,-0.171875 0.03125,-0.515625 0.03125,-0.71875 0,-0.765625 -0.1875,-1.390625 -0.5625,-1.390625 z m -1.703125,3.625 c 0,-1.03125 1.03125,-2.921875 1.625,-2.921875 0.234375,0 0.3125,0.34375 0.3125,0.796875 v 0.0625 c 0,0.46875 -0.09375,0.984375 -0.25,1.328125 -0.5,0.71875 -1.015625,1.21875 -1.375,1.21875 -0.1875,0 -0.3125,-0.125 -0.3125,-0.484375 z m 0,0"
           style="stroke:none" />
      </symbol>
      <symbol
         id="id-fb95c316-ec06-489f-bbbe-1c27a41b15d6"
         overflow="visible">
        <path
           id="id-1f8424f5-0b14-456e-a16e-d4279b63de47"
           d=""
           style="stroke:none" />
      </symbol>
      <symbol
         id="id-5f043b70-bddd-490b-9b42-6cdb7785642b"
         overflow="visible">
        <path
           id="id-f46c816b-b2b4-4ba7-a101-33fda98b6c7e"
           d="M 5.5,-3.296875 V -3.84375 H 0.40625 v 0.546875 z m 0,2.03125 v -0.5625 H 0.40625 v 0.5625 z m 0,0"
           style="stroke:none" />
      </symbol>
      <symbol
         id="id-e1fad1fd-4528-45b0-90ea-c5dcc97a4a55"
         overflow="visible">
        <path
           id="id-faab44b2-4f17-422a-92d3-5e97a9d3a6ed"
           d=""
           style="stroke:none" />
      </symbol>
      <symbol
         id="id-9b660c71-dd93-482f-bf53-91d21efa9521"
         overflow="visible">
        <path
           id="id-b588e9d9-29bb-48cc-982b-cafef3ed1a68"
           d="m 5.71875,-2.28125 v -0.5625 H 0.625 v 0.5625 z m 0,0"
           style="stroke:none" />
      </symbol>
      <symbol
         id="id-170498c2-71af-4934-8552-af53342eb242"
         overflow="visible">
        <path
           id="id-71f7150a-bf8e-4508-9ea6-dfa22b2e85f4"
           d=""
           style="stroke:none" />
      </symbol>
      <symbol
         id="id-d4a47f8c-7796-40a0-91a7-769378da93b4"
         overflow="visible">
        <path
           id="id-8e4a3211-630a-40f2-9c42-be32b6087c4c"
           d="m 1.375,-2.65625 c -0.34375,1.234375 -0.65625,1.734375 -1.09375,2.390625 0,0.078125 0.125,0.28125 0.28125,0.28125 0.03125,0 0.09375,0 0.140625,-0.015625 0.171875,-0.234375 0.75,-2.125 0.875,-2.640625 0.203125,0.015625 0.4375,0.03125 0.625,0.046875 -0.09375,0.46875 -0.25,1.3125 -0.328125,1.953125 0,0.046875 0,0.09375 0,0.125 0,0.3125 0.109375,0.53125 0.359375,0.53125 0.234375,0 0.515625,-0.34375 0.53125,-0.40625 v -0.03125 C 2.765625,-0.453125 2.75,-0.5 2.734375,-0.515625 2.703125,-0.484375 2.59375,-0.4375 2.53125,-0.4375 c -0.140625,0 -0.3125,-0.09375 -0.3125,-0.453125 0,-0.453125 0.109375,-1.1875 0.171875,-1.6875 C 2.5625,-2.5625 2.625,-2.5625 2.703125,-2.5625 c 0.515625,0 0.75,-0.578125 0.75,-0.640625 0,-0.03125 -0.0625,-0.0625 -0.09375,-0.0625 -0.09375,0.078125 -0.3125,0.171875 -0.671875,0.171875 -0.625,0 -0.78125,-0.09375 -1.328125,-0.09375 -0.28125,0 -0.8125,0.09375 -0.9375,0.71875 0,0.0625 -0.015625,0.140625 -0.015625,0.1875 V -2.25 c 0.015625,0.015625 0.03125,0.015625 0.046875,0.015625 0.015625,0 0.03125,0 0.046875,-0.015625 0.15625,-0.265625 0.34375,-0.40625 0.875,-0.40625 z m 0,0"
           style="stroke:none" />
      </symbol>
      <symbol
         id="id-e3f79871-79c0-479d-bfca-c5b949a46ead"
         overflow="visible">
        <path
           id="id-794e4251-2b1e-4f1a-8c60-e416bf4337c4"
           d="m 0.359375,0 h 2.90625 V -3.515625 H 0.359375 Z M 0.71875,-0.359375 v -2.78125 h 2.1875 v 2.78125 z m 0,0"
           style="stroke:none" />
      </symbol>
      <symbol
         id="id-4967de27-2538-45c1-9a65-bc85b9be37ea"
         overflow="visible">
        <path
           id="id-2e5e31c3-70d3-4550-a945-d9ce75acdb88"
           d="M 3.21875,-1.0625 C 3.1875,-1.078125 3.109375,-1.109375 3.078125,-1.109375 3.03125,-1.109375 3.015625,-1.09375 3,-1.0625 2.84375,-0.6875 2.6875,-0.515625 2.390625,-0.515625 H 0.984375 C 1.3125,-0.875 2.03125,-1.671875 2.53125,-2.296875 2.78125,-2.59375 2.9375,-2.96875 2.9375,-3.375 c 0,-0.59375 -0.546875,-1.1875 -1.21875,-1.1875 -0.75,0 -1.265625,0.796875 -1.3125,0.96875 0,0.03125 0.078125,0.109375 0.140625,0.109375 C 0.625,-3.625 0.984375,-4.09375 1.5625,-4.09375 c 0.4375,0 0.78125,0.375 0.78125,0.859375 0,0.34375 -0.0625,0.640625 -0.34375,1.0625 -0.421875,0.609375 -1.09375,1.40625 -1.6875,2.0625 0,0.03125 0.03125,0.09375 0.0625,0.109375 h 2.453125 c 0.046875,-0.125 0.25,-0.71875 0.390625,-1.0625 z m 0,0"
           style="stroke:none" />
      </symbol>
    </g>
    <g
       id="id-c595f11e-3bd3-4dcd-a194-de2b8e1671b5">
      <symbol
         id="id-f5141b30-066e-4de0-9207-1d4e87b3bd87"
         overflow="visible">
        <path
           id="id-f279d42d-9b21-4723-ba36-fda76f6891d1"
           d=""
           style="stroke:none" />
      </symbol>
      <symbol
         id="id-3d28d01b-c549-42f4-8b2b-3fc7007f4e06"
         overflow="visible">
        <path
           id="id-4dc2ebf8-3d33-4446-aff4-00afa76dbc51"
           d="m 2.34375,-4.40625 c -1.0625,0 -2.171875,2.1875 -2.171875,3.390625 0,0.75 0.34375,1.078125 0.890625,1.078125 0.546875,0 1.15625,-0.59375 1.6875,-1.265625 -0.03125,0.1875 -0.046875,0.375 -0.046875,0.53125 0,0.40625 0.140625,0.71875 0.453125,0.71875 0.4375,0 0.78125,-0.546875 0.84375,-0.75 0.015625,-0.03125 -0.015625,-0.1875 -0.046875,-0.21875 -0.140625,0.140625 -0.296875,0.25 -0.515625,0.25 -0.15625,0 -0.359375,-0.078125 -0.359375,-0.53125 0,-0.15625 0.015625,-0.390625 0.109375,-0.6875 l 0.484375,-0.78125 c 0.25,-0.3125 0.5625,-0.921875 0.5625,-1.21875 0,-0.28125 -0.203125,-0.5 -0.328125,-0.5 -0.15625,0 -0.53125,0.9375 -0.78125,1.65625 l -0.25,0.4375 c 0.015625,-0.171875 0.03125,-0.515625 0.03125,-0.71875 0,-0.765625 -0.1875,-1.390625 -0.5625,-1.390625 z m -1.703125,3.625 c 0,-1.03125 1.03125,-2.921875 1.625,-2.921875 0.234375,0 0.3125,0.34375 0.3125,0.796875 v 0.0625 c 0,0.46875 -0.09375,0.984375 -0.25,1.328125 -0.5,0.71875 -1.015625,1.21875 -1.375,1.21875 -0.1875,0 -0.3125,-0.125 -0.3125,-0.484375 z m 0,0"
           style="stroke:none" />
      </symbol>
      <symbol
         id="id-79b62c58-b921-4ac1-9de9-e71e25df3d8b"
         overflow="visible">
        <path
           id="id-e8b3e34c-8c89-44fb-be05-f6761c8c29e6"
           d=""
           style="stroke:none" />
      </symbol>
      <symbol
         id="id-608e21f5-175e-4395-be88-0c378893b927"
         overflow="visible">
        <path
           id="id-1770bfdf-59ae-4d1a-b923-5186a81e98dc"
           d="M 5.5,-3.296875 V -3.84375 H 0.40625 v 0.546875 z m 0,2.03125 v -0.5625 H 0.40625 v 0.5625 z m 0,0"
           style="stroke:none" />
      </symbol>
      <symbol
         id="id-27ab3710-48fe-4bae-9ae1-15d570c60598"
         overflow="visible">
        <path
           id="id-cc294341-c1f8-411c-864e-13a9e26772ff"
           d=""
           style="stroke:none" />
      </symbol>
      <symbol
         id="id-4fc496e3-4883-44cf-91ee-027ce0e59114"
         overflow="visible">
        <path
           id="id-c1985166-ef28-4c5d-ab9b-019d0584d28f"
           d="m 2.484375,-2.84375 h -2.1875 v 0.65625 h 2.1875 V 0 h 0.65625 v -2.1875 h 2.1875 v -0.65625 h -2.1875 v -2.203125 h -0.65625 z m 0,0"
           style="stroke:none" />
      </symbol>
      <symbol
         id="id-9e553153-ef06-4ae1-9e33-8a15ded0e8d1"
         overflow="visible">
        <path
           id="id-c5ba3bff-2033-4b71-8ac7-f5695f2c8db0"
           d=""
           style="stroke:none" />
      </symbol>
      <symbol
         id="id-8a67c38d-66f9-4c4e-ad9f-55436ec9990b"
         overflow="visible">
        <path
           id="id-545f0c75-c44f-4866-b165-ff94c9d4019d"
           d="m 1.375,-2.65625 c -0.34375,1.234375 -0.65625,1.734375 -1.09375,2.390625 0,0.078125 0.125,0.28125 0.28125,0.28125 0.03125,0 0.09375,0 0.140625,-0.015625 0.171875,-0.234375 0.75,-2.125 0.875,-2.640625 0.203125,0.015625 0.4375,0.03125 0.625,0.046875 -0.09375,0.46875 -0.25,1.3125 -0.328125,1.953125 0,0.046875 0,0.09375 0,0.125 0,0.3125 0.109375,0.53125 0.359375,0.53125 0.234375,0 0.515625,-0.34375 0.53125,-0.40625 v -0.03125 C 2.765625,-0.453125 2.75,-0.5 2.734375,-0.515625 2.703125,-0.484375 2.59375,-0.4375 2.53125,-0.4375 c -0.140625,0 -0.3125,-0.09375 -0.3125,-0.453125 0,-0.453125 0.109375,-1.1875 0.171875,-1.6875 C 2.5625,-2.5625 2.625,-2.5625 2.703125,-2.5625 c 0.515625,0 0.75,-0.578125 0.75,-0.640625 0,-0.03125 -0.0625,-0.0625 -0.09375,-0.0625 -0.09375,0.078125 -0.3125,0.171875 -0.671875,0.171875 -0.625,0 -0.78125,-0.09375 -1.328125,-0.09375 -0.28125,0 -0.8125,0.09375 -0.9375,0.71875 0,0.0625 -0.015625,0.140625 -0.015625,0.1875 V -2.25 c 0.015625,0.015625 0.03125,0.015625 0.046875,0.015625 0.015625,0 0.03125,0 0.046875,-0.015625 0.15625,-0.265625 0.34375,-0.40625 0.875,-0.40625 z m 0,0"
           style="stroke:none" />
      </symbol>
      <symbol
         id="id-397fb6a6-3fcd-49ec-85d4-8b975b26951b"
         overflow="visible">
        <path
           id="id-3d7a9c38-13c1-42b3-af93-5d97717c3ae8"
           d="m 0.359375,0 h 2.90625 V -3.515625 H 0.359375 Z M 0.71875,-0.359375 v -2.78125 h 2.1875 v 2.78125 z m 0,0"
           style="stroke:none" />
      </symbol>
      <symbol
         id="id-6ebd8e12-b97f-40f4-bb72-4ed1948a7f59"
         overflow="visible">
        <path
           id="id-04d656c8-cdd7-418b-a755-c0aa505bdca0"
           d="M 3.21875,-1.0625 C 3.1875,-1.078125 3.109375,-1.109375 3.078125,-1.109375 3.03125,-1.109375 3.015625,-1.09375 3,-1.0625 2.84375,-0.6875 2.6875,-0.515625 2.390625,-0.515625 H 0.984375 C 1.3125,-0.875 2.03125,-1.671875 2.53125,-2.296875 2.78125,-2.59375 2.9375,-2.96875 2.9375,-3.375 c 0,-0.59375 -0.546875,-1.1875 -1.21875,-1.1875 -0.75,0 -1.265625,0.796875 -1.3125,0.96875 0,0.03125 0.078125,0.109375 0.140625,0.109375 C 0.625,-3.625 0.984375,-4.09375 1.5625,-4.09375 c 0.4375,0 0.78125,0.375 0.78125,0.859375 0,0.34375 -0.0625,0.640625 -0.34375,1.0625 -0.421875,0.609375 -1.09375,1.40625 -1.6875,2.0625 0,0.03125 0.03125,0.09375 0.0625,0.109375 h 2.453125 c 0.046875,-0.125 0.25,-0.71875 0.390625,-1.0625 z m 0,0"
           style="stroke:none" />
      </symbol>
    </g>
    <marker
       inkscape:isstock="true"
       style="overflow:visible"
       id="marker11104-9"
       refX="0"
       refY="0"
       orient="auto"
       inkscape:stockid="Arrow1Mend">
      <path
         transform="matrix(-0.4,0,0,-0.4,-4,0)"
         style="fill:#000000;fill-opacity:1;fill-rule:evenodd;stroke:#000000;stroke-width:1pt;stroke-opacity:1"
         d="M 0,0 5,-5 -12.5,0 5,5 Z"
         id="path11102-2" />
    </marker>
  </defs>
  <sodipodi:namedview
     inkscape:document-rotation="0"
     pagecolor="#ffffff"
     bordercolor="#666666"
     borderopacity="1"
     objecttolerance="10"
     gridtolerance="10"
     guidetolerance="10"
     inkscape:pageopacity="0"
     inkscape:pageshadow="2"
     inkscape:window-width="1600"
     inkscape:window-height="837"
     id="namedview12822"
     showgrid="false"
     inkscape:zoom="1.5297471"
     inkscape:cx="182.42022"
     inkscape:cy="140.31003"
     inkscape:window-x="-8"
     inkscape:window-y="-8"
     inkscape:window-maximized="1"
     inkscape:current-layer="svg12820" />
  <path
     id="path12813"
     d="m 158.49832,70.163326 -0.0965,5.575975 -0.27962,5.40953 -0.45939,5.303001 -0.62918,5.036692 -0.76565,4.640536 -0.90215,4.32097 -1.00201,3.89153 -1.0819,3.46876 -1.17179,3.13253 -1.21839,2.72307 -1.24835,2.34025 -1.30162,2.0373 -1.30494,1.69445 -1.3349,1.42478 -1.35488,1.17179 -1.37154,0.9321 -1.3815,0.70574 -1.38484,0.49933 -1.43145,0.31625 -1.47472,0.13317 -1.51799,-0.05 -1.61788,-0.24966 -1.7144,-0.45941 -1.82092,-0.69242 -1.92413,-0.94541 -2.03399,-1.21174 -2.20708,-1.53796 -2.38352,-1.90417 -2.56662,-2.3003 -2.75637,-2.72972 -3.01267,-3.25571 -3.27902,-3.82495 -3.68847,-4.60392 -4.10458,-5.432836 -4.816976,-6.70116 L 91.88954,80.376498 80.145039,62.93285 72.701524,52.087157 67.451786,44.75683 63.064245,38.951158 59.242621,34.200758 55.83378,30.255963 52.697919,26.91371 49.888296,24.187304 47.271744,21.903651 44.84162,20.03612 42.591256,18.541423 40.517325,17.38961 l -1.904153,-0.848884 -1.800959,-0.602538 -1.69443,-0.3695 -1.59789,-0.159793 -1.547959,0.03651 -1.454748,0.226336 -1.408142,0.406137 -1.358209,0.589221 -1.358206,0.798943 -1.301614,0.9887 -1.29163,1.218393 -1.268326,1.458069 -1.245022,1.714405 -1.241696,2.043972 -1.19509,2.336919 -1.168459,2.703099 -1.12185,3.099239 -1.041964,3.418824 -0.962063,3.831608 -0.868852,4.247737 -0.742354,4.553971 -0.609196,4.940143 -0.449409,5.196475 -0.276292,5.412858 -0.09321,5.575977 0.09654,5.575979 0.279626,5.409526 0.462721,5.303001 0.632501,5.033362 0.765654,4.640541 0.902147,4.31763 1.005338,3.88821 1.081906,3.46875 1.171785,3.1292 1.221722,2.71975 1.248354,2.33693 1.304947,2.03397 1.301614,1.69443 1.334905,1.42146 1.358205,1.16846 1.374856,0.92877 1.381514,0.70574 1.384835,0.49601 1.428117,0.31291 1.478047,0.1298 1.517997,-0.0533 1.617864,-0.24967 1.717736,-0.46273 1.82093,-0.69574 1.924131,-0.94876 2.03731,-1.21173 2.203756,-1.54464 2.386853,-1.90414 2.566614,-2.30696 2.756365,-2.72973 3.01269,-3.25904 3.279008,-3.82827 3.688465,-4.60725 4.107912,-5.436166 4.813649,-6.701157 6.04536,-8.758445 12.769811,-18.958316 6.920873,-10.046746 5.09993,-7.080652 4.31099,-5.669193 3.81497,-4.71045 3.39884,-3.90484 3.06263,-3.23574 2.80296,-2.689782 2.60989,-2.250361 2.36355,-1.790964 2.18378,-1.431447 2.07061,-1.135172 1.90083,-0.832238 1.79762,-0.585897 1.69111,-0.352835 1.59455,-0.143126 1.54464,0.0533 1.44808,0.239668 1.40481,0.422779 1.35488,0.602538 1.35156,0.815589 1.30161,1.002012 1.28496,1.231706 1.26501,1.474722 1.27498,1.787643 1.23504,2.067273 1.18511,2.35356 1.15846,2.726406 1.11519,3.119212 1.05529,3.528678 0.94874,3.854912 0.85554,4.267707 0.73902,4.673825 0.59255,4.960125 0.42944,5.213122 0.25634,5.419517 0.0732,5.579305 -0.11655,5.572647 -0.29962,5.399542 -0.48271,5.286362 -0.64914,5.016714 -0.78562,4.613903 -0.9188,4.28768 -1.02198,3.86157 -1.09855,3.43214 -1.15514,3.02268 -1.2317,2.6931 -1.26168,2.30696 -1.27498,1.95077 -1.31161,1.67112 -1.34156,1.40149 -1.32159,1.11186 -1.33158,0.8855 -1.38484,0.69575 -1.0486,0.38616"
     style="fill:none;stroke:#3a667a;stroke-width:1.5872;stroke-linecap:square;stroke-linejoin:round;stroke-miterlimit:10;stroke-dasharray:none;stroke-opacity:1" />
  <path
     id="path12817"
     d="M 0,70.163326 H 180.05423"
     style="fill:none;stroke:#000000;stroke-width:0.793602;stroke-linecap:butt;stroke-linejoin:miter;stroke-miterlimit:10;stroke-dasharray:none;stroke-opacity:1;marker-end:url(#marker13414)" />
  <rect
     style="fill:none;stroke:#d3c7b1;stroke-width:0.795534;stroke-linecap:butt;stroke-linejoin:round;stroke-miterlimit:10;stroke-dasharray:2.38661, 0.795534;stroke-dashoffset:0;paint-order:stroke fill markers"
     id="rect13658"
     width="149.67239"
     height="112.00597"
     x="10.090259"
     y="14.237531" />
  <g
     ns1:version="1.1.0"
     ns1:texconverter="pdflatex"
     ns1:pdfconverter="inkscape"
     ns1:text="$y$"
     ns1:preamble="C:\\Users\\flvisa\\Desktop\\lna\\latexify_books\\textext_preamble.tex"
     ns1:scale="0.25877379"
     ns1:alignment="middle center"
     ns1:inkscapeversion="1.0"
     transform="matrix(1.0268173,0,0,1.0268173,74.520228,2.2121151)"
     ns1:jacobian_sqrt="0.258774"
     id="g11209">
    <defs
       id="id-e73633f9-8dc4-46b7-a0bb-53132198b78b">
      <g
         id="g13815">
        <symbol
           id="symbol13809"
           overflow="visible">
          <path
             id="path13807"
             d=""
             style="stroke:none" />
        </symbol>
        <symbol
           id="symbol13813"
           overflow="visible">
          <path
             id="path13811"
             d="m 1.328125,-4.390625 c -0.46875,0 -1.15625,0.765625 -1.265625,0.953125 0,0.0625 0.0625,0.1875 0.09375,0.1875 0.03125,-0.03125 0.484375,-0.59375 0.71875,-0.59375 0.484375,0 0.59375,2.0625 0.59375,3.21875 v 0.453125 c 0,0.375 -0.015625,0.78125 -0.171875,1.015625 -0.328125,0.484375 -0.75,0.84375 -1.375,0.84375 -0.21875,0 -0.65625,-0.109375 -0.8125,-0.1875 -0.140625,0.078125 -0.21875,0.28125 -0.21875,0.4375 0,0.21875 0.234375,0.421875 0.59375,0.421875 1.359375,0 4.609375,-3.578125 4.609375,-5.953125 0,-0.21875 -0.03125,-0.796875 -0.453125,-0.796875 -0.234375,0 -0.421875,0.171875 -0.5,0.4375 0.109375,0.21875 0.25,0.46875 0.25,1.078125 0,1.09375 -0.796875,2.28125 -1.15625,2.71875 0,-0.609375 -0.03125,-4.234375 -0.90625,-4.234375 z m 0,0"
             style="stroke:none" />
        </symbol>
      </g>
    </defs>
    <g
       transform="translate(-148.6,-130.374)"
       id="id-105fa2e0-9149-4bd8-b8bd-3bd92f52b646">
      <g
         id="id-8ccf2df6-ff51-4947-b580-19d649738fb9"
         style="fill:#000000;fill-opacity:1">
        <g
           transform="translate(149.709,134.765)"
           id="g11205">
          <path
             id="id-32f53ce0-f987-42a7-bdc4-b0af4dc015f3"
             d="m 1.328125,-4.390625 c -0.46875,0 -1.15625,0.765625 -1.265625,0.953125 0,0.0625 0.0625,0.1875 0.09375,0.1875 0.03125,-0.03125 0.484375,-0.59375 0.71875,-0.59375 0.484375,0 0.59375,2.0625 0.59375,3.21875 v 0.453125 c 0,0.375 -0.015625,0.78125 -0.171875,1.015625 -0.328125,0.484375 -0.75,0.84375 -1.375,0.84375 -0.21875,0 -0.65625,-0.109375 -0.8125,-0.1875 -0.140625,0.078125 -0.21875,0.28125 -0.21875,0.4375 0,0.21875 0.234375,0.421875 0.59375,0.421875 1.359375,0 4.609375,-3.578125 4.609375,-5.953125 0,-0.21875 -0.03125,-0.796875 -0.453125,-0.796875 -0.234375,0 -0.421875,0.171875 -0.5,0.4375 0.109375,0.21875 0.25,0.46875 0.25,1.078125 0,1.09375 -0.796875,2.28125 -1.15625,2.71875 0,-0.609375 -0.03125,-4.234375 -0.90625,-4.234375 z m 0,0"
             style="stroke:none" />
        </g>
      </g>
    </g>
  </g>
  <g
     ns1:version="1.1.0"
     ns1:texconverter="pdflatex"
     ns1:pdfconverter="inkscape"
     ns1:text="$x$"
     ns1:preamble="C:\\Users\\flvisa\\Desktop\\lna\\latexify_books\\textext_preamble.tex"
     ns1:scale="0.25877379"
     ns1:alignment="middle center"
     ns1:inkscapeversion="1.0"
     transform="matrix(1.0268173,0,0,1.0268173,176.07833,74.364184)"
     ns1:jacobian_sqrt="0.258774"
     id="g11345">
    <defs
       id="id-e6de1665-da72-41bc-adbb-fe576ec73f39">
      <g
         id="g13831">
        <symbol
           id="symbol13825"
           overflow="visible">
          <path
             id="path13823"
             d=""
             style="stroke:none" />
        </symbol>
        <symbol
           id="symbol13829"
           overflow="visible">
          <path
             id="path13827"
             d="M 2.984375,-0.890625 2.65625,-2.46875 c 0.1875,-0.375 0.375,-0.671875 0.609375,-1.0625 0.0625,-0.125 0.140625,-0.234375 0.265625,-0.234375 H 3.5625 c 0.21875,0.015625 0.265625,0.28125 0.46875,0.28125 0.21875,0 0.359375,-0.203125 0.359375,-0.4375 0,-0.15625 -0.046875,-0.265625 -0.109375,-0.34375 -0.15625,-0.09375 -0.328125,-0.125 -0.46875,-0.125 -0.515625,0 -0.78125,0.671875 -1.234375,1.5625 L 2.4375,-3.515625 c -0.109375,-0.546875 -0.390625,-0.875 -0.6875,-0.875 -0.453125,0 -1.15625,0.796875 -1.234375,0.9375 0,0.046875 0.078125,0.1875 0.109375,0.1875 0.109375,-0.140625 0.5625,-0.578125 0.765625,-0.578125 0.171875,0 0.28125,0.171875 0.3125,0.390625 l 0.28125,1.40625 c -0.25,0.484375 -0.421875,0.78125 -0.6875,1.25 C 1.21875,-0.671875 1.140625,-0.5625 1,-0.5625 H 0.984375 c -0.21875,-0.03125 -0.25,-0.296875 -0.453125,-0.296875 -0.234375,0 -0.375,0.21875 -0.375,0.453125 0,0.140625 0.046875,0.25 0.109375,0.34375 0.15625,0.09375 0.328125,0.109375 0.46875,0.109375 0.5625,0 0.828125,-0.765625 1.328125,-1.734375 L 2.25,-0.828125 c 0.109375,0.53125 0.375,0.875 0.6875,0.875 0.4375,0 1.15625,-0.796875 1.234375,-0.9375 C 4.171875,-0.9375 4.09375,-1.0625 4.0625,-1.0625 3.953125,-0.921875 3.5,-0.53125 3.328125,-0.53125 c -0.21875,0 -0.3125,-0.140625 -0.34375,-0.359375 z m 0,0"
             style="stroke:none" />
        </symbol>
      </g>
    </defs>
    <g
       transform="translate(-149.167,-130.374)"
       id="id-38f8b964-18cd-4bb1-adfb-279f6fa11df5">
      <g
         id="id-ba5e7e66-c554-413e-a57a-107afc7530b8"
         style="fill:#000000;fill-opacity:1">
        <g
           transform="translate(149.011,134.765)"
           id="g11341">
          <path
             id="id-810f1986-2e7b-47b4-861a-860555dbca15"
             d="M 2.984375,-0.890625 2.65625,-2.46875 c 0.1875,-0.375 0.375,-0.671875 0.609375,-1.0625 0.0625,-0.125 0.140625,-0.234375 0.265625,-0.234375 H 3.5625 c 0.21875,0.015625 0.265625,0.28125 0.46875,0.28125 0.21875,0 0.359375,-0.203125 0.359375,-0.4375 0,-0.15625 -0.046875,-0.265625 -0.109375,-0.34375 -0.15625,-0.09375 -0.328125,-0.125 -0.46875,-0.125 -0.515625,0 -0.78125,0.671875 -1.234375,1.5625 L 2.4375,-3.515625 c -0.109375,-0.546875 -0.390625,-0.875 -0.6875,-0.875 -0.453125,0 -1.15625,0.796875 -1.234375,0.9375 0,0.046875 0.078125,0.1875 0.109375,0.1875 0.109375,-0.140625 0.5625,-0.578125 0.765625,-0.578125 0.171875,0 0.28125,0.171875 0.3125,0.390625 l 0.28125,1.40625 c -0.25,0.484375 -0.421875,0.78125 -0.6875,1.25 C 1.21875,-0.671875 1.140625,-0.5625 1,-0.5625 H 0.984375 c -0.21875,-0.03125 -0.25,-0.296875 -0.453125,-0.296875 -0.234375,0 -0.375,0.21875 -0.375,0.453125 0,0.140625 0.046875,0.25 0.109375,0.34375 0.15625,0.09375 0.328125,0.109375 0.46875,0.109375 0.5625,0 0.828125,-0.765625 1.328125,-1.734375 L 2.25,-0.828125 c 0.109375,0.53125 0.375,0.875 0.6875,0.875 0.4375,0 1.15625,-0.796875 1.234375,-0.9375 C 4.171875,-0.9375 4.09375,-1.0625 4.0625,-1.0625 3.953125,-0.921875 3.5,-0.53125 3.328125,-0.53125 c -0.21875,0 -0.3125,-0.140625 -0.34375,-0.359375 z m 0,0"
             style="stroke:none" />
        </g>
      </g>
    </g>
  </g>
  <g
     style="fill:#c28f47"
     ns1:version="1.1.0"
     ns1:texconverter="pdflatex"
     ns1:pdfconverter="inkscape"
     ns1:text="$B$"
     ns1:preamble="C:\\Users\\flvisa\\Desktop\\lna\\latexify_books\\textext_preamble.tex"
     ns1:scale="0.25877379"
     ns1:alignment="middle center"
     ns1:inkscapeversion="1.0"
     transform="matrix(1.0268173,0,0,1.0268173,166.1926,38.715046)"
     ns1:jacobian_sqrt="0.258774"
     id="g11522">
    <defs
       id="id-ec151530-a985-4f15-b0b3-c778f81adade">
      <g
         id="g13847">
        <symbol
           id="symbol13841"
           overflow="visible">
          <path
             id="path13839"
             d=""
             style="stroke:none" />
        </symbol>
        <symbol
           id="symbol13845"
           overflow="visible">
          <path
             id="path13843"
             d="M 2.203125,-3.734375 2.53125,-5.5 c 0.0625,-0.296875 0.125,-0.625 0.1875,-0.75 0.046875,-0.09375 0.390625,-0.109375 0.5,-0.109375 0.875,0 1.140625,0.53125 1.140625,1.09375 0,0.859375 -0.53125,1.53125 -1.203125,1.53125 z m -0.59375,3.15625 c 0,-0.171875 0.0625,-0.484375 0.078125,-0.59375 l 0.453125,-2.25 h 0.5625 c 1.40625,0 1.421875,0.84375 1.421875,1.171875 v 0.03125 c 0,1.234375 -0.75,1.921875 -1.796875,1.921875 -0.34375,0 -0.71875,0 -0.71875,-0.28125 z m 0.75,-6.046875 C 2,-6.625 1.625,-6.65625 1.25,-6.671875 c -0.046875,0.015625 -0.0625,0.125 -0.0625,0.203125 0,0.03125 0,0.0625 0.015625,0.078125 0.15625,0 0.609375,0.046875 0.609375,0.203125 0,0.171875 -0.046875,0.4375 -0.09375,0.703125 L 0.875,-1.203125 c -0.0625,0.3125 -0.109375,0.578125 -0.1875,0.75 C 0.640625,-0.34375 0.125,-0.296875 0.015625,-0.296875 -0.03125,-0.25 -0.0625,-0.140625 -0.0625,-0.0625 c 0,0.03125 0,0.046875 0.015625,0.0625 h 2.15625 C 3.8125,0 5.078125,-0.90625 5.078125,-2.28125 5.078125,-3.109375 4.5,-3.65625 4.046875,-3.6875 4.453125,-3.90625 5.25,-4.40625 5.25,-5.40625 c 0,-0.875 -0.71875,-1.25 -1.578125,-1.25 -0.546875,0 -0.953125,0.03125 -1.3125,0.03125 z m 0,0"
             style="stroke:none" />
        </symbol>
      </g>
    </defs>
    <g
       style="fill:#c28f47"
       transform="translate(-149.148,-128.093)"
       id="id-e58cc748-90b2-410d-9b18-9fd6e6915ad3">
      <g
         id="id-834ea9c9-c1be-42fb-a12a-759798e145be"
         style="fill:#c28f47;fill-opacity:1">
        <g
           style="fill:#c28f47"
           transform="translate(149.21,134.765)"
           id="g11518">
          <path
             id="id-1175d4a2-9d2e-4518-a741-07051670c9d2"
             d="M 2.203125,-3.734375 2.53125,-5.5 c 0.0625,-0.296875 0.125,-0.625 0.1875,-0.75 0.046875,-0.09375 0.390625,-0.109375 0.5,-0.109375 0.875,0 1.140625,0.53125 1.140625,1.09375 0,0.859375 -0.53125,1.53125 -1.203125,1.53125 z m -0.59375,3.15625 c 0,-0.171875 0.0625,-0.484375 0.078125,-0.59375 l 0.453125,-2.25 h 0.5625 c 1.40625,0 1.421875,0.84375 1.421875,1.171875 v 0.03125 c 0,1.234375 -0.75,1.921875 -1.796875,1.921875 -0.34375,0 -0.71875,0 -0.71875,-0.28125 z m 0.75,-6.046875 C 2,-6.625 1.625,-6.65625 1.25,-6.671875 c -0.046875,0.015625 -0.0625,0.125 -0.0625,0.203125 0,0.03125 0,0.0625 0.015625,0.078125 0.15625,0 0.609375,0.046875 0.609375,0.203125 0,0.171875 -0.046875,0.4375 -0.09375,0.703125 L 0.875,-1.203125 c -0.0625,0.3125 -0.109375,0.578125 -0.1875,0.75 C 0.640625,-0.34375 0.125,-0.296875 0.015625,-0.296875 -0.03125,-0.25 -0.0625,-0.140625 -0.0625,-0.0625 c 0,0.03125 0,0.046875 0.015625,0.0625 h 2.15625 C 3.8125,0 5.078125,-0.90625 5.078125,-2.28125 5.078125,-3.109375 4.5,-3.65625 4.046875,-3.6875 4.453125,-3.90625 5.25,-4.40625 5.25,-5.40625 c 0,-0.875 -0.71875,-1.25 -1.578125,-1.25 -0.546875,0 -0.953125,0.03125 -1.3125,0.03125 z m 0,0"
             style="fill:#c28f47;stroke:none" />
        </g>
      </g>
    </g>
  </g>
  <g
     style="fill:#c28f47"
     ns1:version="1.1.0"
     ns1:texconverter="pdflatex"
     ns1:pdfconverter="inkscape"
     ns1:text="$A$"
     ns1:preamble="C:\\Users\\flvisa\\Desktop\\lna\\latexify_books\\textext_preamble.tex"
     ns1:scale="0.25877379"
     ns1:alignment="middle center"
     ns1:inkscapeversion="1.0"
     transform="matrix(1.0268173,0,0,1.0268173,119.12019,2.2117478)"
     ns1:jacobian_sqrt="0.258774"
     id="g11606">
    <defs
       id="id-e0252a0d-223d-48b0-9256-3bbe8d9c824b">
      <g
         id="g13863">
        <symbol
           id="symbol13857"
           overflow="visible">
          <path
             id="path13855"
             d=""
             style="stroke:none" />
        </symbol>
        <symbol
           id="symbol13861"
           overflow="visible">
          <path
             id="path13859"
             d="m 3.4375,-0.265625 c -0.0625,0.0625 -0.09375,0.25 -0.0625,0.296875 0.4375,-0.015625 0.609375,-0.046875 1.046875,-0.046875 0.40625,0 0.734375,0.03125 1.109375,0.046875 C 5.546875,0 5.59375,-0.1875 5.5625,-0.265625 c -0.0625,0 -0.578125,-0.03125 -0.640625,-0.328125 0,-0.03125 -0.046875,-0.3125 -0.109375,-0.6875 l -0.859375,-5.375 C 3.9375,-6.671875 3.921875,-6.6875 3.890625,-6.6875 c -0.078125,0 -0.3125,0.125 -0.40625,0.28125 l -2.78125,5 c -0.1875,0.359375 -0.390625,0.6875 -0.625,0.953125 -0.125,0.125 -0.46875,0.1875 -0.578125,0.1875 C -0.53125,-0.1875 -0.578125,0 -0.5625,0.03125 -0.125,0.015625 0,-0.015625 0.4375,-0.015625 c 0.40625,0 0.53125,0.03125 0.890625,0.046875 0.03125,-0.0625 0.0625,-0.265625 0.046875,-0.296875 -0.0625,0 -0.625,-0.03125 -0.625,-0.25 C 0.75,-0.65625 0.859375,-0.90625 1.03125,-1.25 1.125,-1.421875 1.421875,-1.953125 1.75,-2.578125 h 2.015625 l 0.21875,1.515625 c 0.03125,0.1875 0.03125,0.390625 0.03125,0.484375 0,0.203125 -0.234375,0.3125 -0.578125,0.3125 z m -1.5,-2.640625 1.375,-2.484375 0.390625,2.484375 z m 0,0"
             style="stroke:none" />
        </symbol>
      </g>
    </defs>
    <g
       style="fill:#c28f47"
       transform="translate(-148.844,-128.077)"
       id="id-07154ceb-8b33-4cbe-a783-af3870afb5c3">
      <g
         id="id-efa70b12-3e12-45ac-b45d-5725fc9f2b84"
         style="fill:#c28f47;fill-opacity:1">
        <g
           style="fill:#c28f47"
           transform="translate(149.41,134.765)"
           id="g11602">
          <path
             id="id-ad7a1611-fe8c-473a-a3da-18e70b8a7296"
             d="m 3.4375,-0.265625 c -0.0625,0.0625 -0.09375,0.25 -0.0625,0.296875 0.4375,-0.015625 0.609375,-0.046875 1.046875,-0.046875 0.40625,0 0.734375,0.03125 1.109375,0.046875 C 5.546875,0 5.59375,-0.1875 5.5625,-0.265625 c -0.0625,0 -0.578125,-0.03125 -0.640625,-0.328125 0,-0.03125 -0.046875,-0.3125 -0.109375,-0.6875 l -0.859375,-5.375 C 3.9375,-6.671875 3.921875,-6.6875 3.890625,-6.6875 c -0.078125,0 -0.3125,0.125 -0.40625,0.28125 l -2.78125,5 c -0.1875,0.359375 -0.390625,0.6875 -0.625,0.953125 -0.125,0.125 -0.46875,0.1875 -0.578125,0.1875 C -0.53125,-0.1875 -0.578125,0 -0.5625,0.03125 -0.125,0.015625 0,-0.015625 0.4375,-0.015625 c 0.40625,0 0.53125,0.03125 0.890625,0.046875 0.03125,-0.0625 0.0625,-0.265625 0.046875,-0.296875 -0.0625,0 -0.625,-0.03125 -0.625,-0.25 C 0.75,-0.65625 0.859375,-0.90625 1.03125,-1.25 1.125,-1.421875 1.421875,-1.953125 1.75,-2.578125 h 2.015625 l 0.21875,1.515625 c 0.03125,0.1875 0.03125,0.390625 0.03125,0.484375 0,0.203125 -0.234375,0.3125 -0.578125,0.3125 z m -1.5,-2.640625 1.375,-2.484375 0.390625,2.484375 z m 0,0"
             style="fill:#c28f47;stroke:none" />
        </g>
      </g>
    </g>
  </g>
  <g
     ns1:version="1.1.0"
     ns1:texconverter="pdflatex"
     ns1:pdfconverter="inkscape"
     ns1:text="$0$"
     ns1:preamble="C:\\Users\\flvisa\\Desktop\\lna\\latexify_books\\textext_preamble.tex"
     ns1:scale="0.25877379"
     ns1:alignment="middle center"
     ns1:inkscapeversion="1.0"
     transform="matrix(1.0268173,0,0,1.0268173,72.822568,71.557299)"
     ns1:jacobian_sqrt="0.258774"
     style="fill:#c28f47;stroke-width:0"
     id="g11932">
    <defs
       id="id-653c8857-5bac-4612-9e24-e5cb1d089f9f">
      <g
         id="g13879"
         style="fill:#c28f47;stroke-width:0">
        <symbol
           id="symbol13873"
           overflow="visible"
           style="fill:#c28f47;stroke-width:0">
          <path
             id="path13871"
             d="M 0.5,0 H 4.484375 V -4.8125 H 0.5 Z M 1,-0.5 V -4.3125 H 3.984375 V -0.5 Z m 0,0"
             style="fill:#c28f47;stroke:none;stroke-width:0" />
        </symbol>
        <symbol
           id="symbol13877"
           overflow="visible"
           style="fill:#c28f47;stroke-width:0">
          <path
             id="path13875"
             d="m 2.484375,-5.875 c 0.71875,0 1.203125,1.1875 1.203125,2.71875 0,1.515625 -0.4375,2.828125 -1.3125,2.828125 -0.703125,0 -1.21875,-1.25 -1.21875,-2.78125 0,-1.53125 0.515625,-2.765625 1.328125,-2.765625 z m -0.0625,-0.359375 c -1.34375,0 -2.125,1.421875 -2.125,3.125 0,1.6875 0.796875,3.140625 2.125,3.140625 1.34375,0 2.125,-1.453125 2.125,-3.140625 0,-1.703125 -0.765625,-3.125 -2.125,-3.125 z m 0,0"
             style="fill:#c28f47;stroke:none;stroke-width:0" />
        </symbol>
      </g>
    </defs>
    <g
       transform="translate(-149.009,-128.531)"
       id="id-1010fb4e-6224-4985-aa06-47e55132b849"
       style="fill:#c28f47;stroke-width:0">
      <g
         id="id-f5d5eb76-0b31-41dd-b70d-16e4077241b4"
         style="fill:#c28f47;fill-opacity:1;stroke-width:0">
        <g
           transform="translate(148.712,134.765)"
           style="fill:#c28f47;stroke-width:0"
           id="g11928">
          <path
             id="id-7f0662d9-96c7-4210-8f00-28cd1ca04c02"
             d="m 2.484375,-5.875 c 0.71875,0 1.203125,1.1875 1.203125,2.71875 0,1.515625 -0.4375,2.828125 -1.3125,2.828125 -0.703125,0 -1.21875,-1.25 -1.21875,-2.78125 0,-1.53125 0.515625,-2.765625 1.328125,-2.765625 z m -0.0625,-0.359375 c -1.34375,0 -2.125,1.421875 -2.125,3.125 0,1.6875 0.796875,3.140625 2.125,3.140625 1.34375,0 2.125,-1.453125 2.125,-3.140625 0,-1.703125 -0.765625,-3.125 -2.125,-3.125 z m 0,0"
             style="fill:#c28f47;stroke:none;stroke-width:0" />
        </g>
      </g>
    </g>
  </g>
  <path
     style="fill:none;stroke:#d3c7b1;stroke-width:0.793602;stroke-linecap:butt;stroke-linejoin:miter;stroke-miterlimit:4;stroke-dasharray:none;stroke-opacity:1"
     d="m 159.76265,14.237551 h 12.2895"
     id="path13887" />
  <path
     id="path13887-7"
     d="M 159.76265,3.4071094 V 14.237551"
     style="fill:none;stroke:#d3c7b1;stroke-width:0.793602;stroke-linecap:butt;stroke-linejoin:miter;stroke-miterlimit:4;stroke-dasharray:none;stroke-opacity:1" />
  <path
     style="fill:none;stroke:#a6a7a3;stroke-width:0.793602;stroke-linecap:butt;stroke-linejoin:miter;stroke-miterlimit:4;stroke-dasharray:none;stroke-opacity:1;marker-start:url(#Arrow1Mstart)"
     d="m 87.00507,7.4968029 h 28.45819"
     id="path13928" />
  <path
     id="path13928-8"
     d="M 157.42638,7.4968029 H 128.9682"
     style="fill:none;stroke:#a6a7a3;stroke-width:0.793602;stroke-linecap:butt;stroke-linejoin:miter;stroke-miterlimit:4;stroke-dasharray:none;stroke-opacity:1;marker-start:url(#Arrow1Mstart-3)" />
  <path
     id="path13928-0"
     d="M 169.10491,16.140171 V 33.868906"
     style="fill:none;stroke:#a6a7a3;stroke-width:0.726193;stroke-linecap:butt;stroke-linejoin:miter;stroke-miterlimit:4;stroke-dasharray:none;stroke-opacity:1;marker-start:url(#Arrow1Mstart-30)" />
  <path
     style="fill:none;stroke:#a6a7a3;stroke-width:0.75281;stroke-linecap:butt;stroke-linejoin:miter;stroke-miterlimit:4;stroke-dasharray:none;stroke-opacity:1;marker-start:url(#Arrow1Mstart-3-4)"
     d="M 169.10491,68.299377 V 49.247083"
     id="path13928-8-0" />
  <path
     id="path10515-0"
     d="M 85.308222,139.97015 V 1.5207255"
     style="fill:none;stroke:#000000;stroke-width:0.771675;stroke-linecap:butt;stroke-linejoin:miter;stroke-miterlimit:10;stroke-dasharray:none;stroke-opacity:1;marker-end:url(#marker11104-9)" />
</svg>
