<?xml version="1.0" encoding="UTF-8" standalone="no"?>
<svg
   xmlns:ns1="http://www.iki.fi/pav/software/textext/"
   xmlns:dc="http://purl.org/dc/elements/1.1/"
   xmlns:cc="http://creativecommons.org/ns#"
   xmlns:rdf="http://www.w3.org/1999/02/22-rdf-syntax-ns#"
   xmlns:svg="http://www.w3.org/2000/svg"
   xmlns="http://www.w3.org/2000/svg"
   xmlns:sodipodi="http://sodipodi.sourceforge.net/DTD/sodipodi-0.dtd"
   xmlns:inkscape="http://www.inkscape.org/namespaces/inkscape"
   width="172.91339pt"
   height="131.26579pt"
   viewBox="0 0 172.91339 131.26579"
   version="1.2"
   id="svg17508"
   sodipodi:docname="fig_7_18.svg"
   inkscape:version="1.0 (4035a4fb49, 2020-05-01)">
  <metadata
     id="metadata17514">
    <rdf:RDF>
      <cc:Work
         rdf:about="">
        <dc:format>image/svg+xml</dc:format>
        <dc:type
           rdf:resource="http://purl.org/dc/dcmitype/StillImage" />
        <dc:title></dc:title>
      </cc:Work>
    </rdf:RDF>
  </metadata>
  <defs
     id="defs17512">
    <marker
       inkscape:isstock="true"
       style="overflow:visible"
       id="marker18102"
       refX="0"
       refY="0"
       orient="auto"
       inkscape:stockid="Arrow1Mend">
      <path
         transform="matrix(-0.4,0,0,-0.4,-4,0)"
         style="fill:#000000;fill-opacity:1;fill-rule:evenodd;stroke:#000000;stroke-width:1pt;stroke-opacity:1"
         d="M 0,0 5,-5 -12.5,0 5,5 Z"
         id="path18100" />
    </marker>
    <marker
       inkscape:isstock="true"
       style="overflow:visible"
       id="marker18092"
       refX="0"
       refY="0"
       orient="auto"
       inkscape:stockid="Arrow1Mend">
      <path
         transform="matrix(-0.4,0,0,-0.4,-4,0)"
         style="fill:#000000;fill-opacity:1;fill-rule:evenodd;stroke:#000000;stroke-width:1pt;stroke-opacity:1"
         d="M 0,0 5,-5 -12.5,0 5,5 Z"
         id="path18090" />
    </marker>
    <marker
       inkscape:stockid="Arrow1Mstart"
       orient="auto"
       refY="0"
       refX="0"
       id="Arrow1Mstart"
       style="overflow:visible"
       inkscape:isstock="true">
      <path
         id="path8477"
         d="M 0,0 5,-5 -12.5,0 5,5 Z"
         style="fill:#a6a7a3;fill-opacity:1;fill-rule:evenodd;stroke:#a6a7a3;stroke-width:1pt;stroke-opacity:1"
         transform="matrix(0.4,0,0,0.4,4,0)" />
    </marker>
    <marker
       inkscape:isstock="true"
       style="overflow:visible"
       id="Arrow1Mstart-3"
       refX="0"
       refY="0"
       orient="auto"
       inkscape:stockid="Arrow1Mstart">
      <path
         transform="matrix(0.4,0,0,0.4,4,0)"
         style="fill:#a6a7a3;fill-opacity:1;fill-rule:evenodd;stroke:#a6a7a3;stroke-width:1pt;stroke-opacity:1"
         d="M 0,0 5,-5 -12.5,0 5,5 Z"
         id="path8477-4" />
    </marker>
    <marker
       inkscape:isstock="true"
       style="overflow:visible"
       id="Arrow1Mstart-30"
       refX="0"
       refY="0"
       orient="auto"
       inkscape:stockid="Arrow1Mstart">
      <path
         transform="matrix(0.4,0,0,0.4,4,0)"
         style="fill:#a6a7a3;fill-opacity:1;fill-rule:evenodd;stroke:#a6a7a3;stroke-width:1pt;stroke-opacity:1"
         d="M 0,0 5,-5 -12.5,0 5,5 Z"
         id="path8477-9" />
    </marker>
    <marker
       inkscape:stockid="Arrow1Mstart"
       orient="auto"
       refY="0"
       refX="0"
       id="Arrow1Mstart-3-4"
       style="overflow:visible"
       inkscape:isstock="true">
      <path
         id="path8477-4-3"
         d="M 0,0 5,-5 -12.5,0 5,5 Z"
         style="fill:#a6a7a3;fill-opacity:1;fill-rule:evenodd;stroke:#a6a7a3;stroke-width:1pt;stroke-opacity:1"
         transform="matrix(0.4,0,0,0.4,4,0)" />
    </marker>
    <g
       id="g15799">
      <symbol
         id="symbol15793"
         overflow="visible">
        <path
           id="path15791"
           d=""
           style="stroke:none" />
      </symbol>
      <symbol
         id="symbol15797"
         overflow="visible">
        <path
           id="path15795"
           d="m 1.328125,-4.390625 c -0.46875,0 -1.15625,0.765625 -1.265625,0.953125 0,0.0625 0.0625,0.1875 0.09375,0.1875 0.03125,-0.03125 0.484375,-0.59375 0.71875,-0.59375 0.484375,0 0.59375,2.0625 0.59375,3.21875 v 0.453125 c 0,0.375 -0.015625,0.78125 -0.171875,1.015625 -0.328125,0.484375 -0.75,0.84375 -1.375,0.84375 -0.21875,0 -0.65625,-0.109375 -0.8125,-0.1875 -0.140625,0.078125 -0.21875,0.28125 -0.21875,0.4375 0,0.21875 0.234375,0.421875 0.59375,0.421875 1.359375,0 4.609375,-3.578125 4.609375,-5.953125 0,-0.21875 -0.03125,-0.796875 -0.453125,-0.796875 -0.234375,0 -0.421875,0.171875 -0.5,0.4375 0.109375,0.21875 0.25,0.46875 0.25,1.078125 0,1.09375 -0.796875,2.28125 -1.15625,2.71875 0,-0.609375 -0.03125,-4.234375 -0.90625,-4.234375 z m 0,0"
           style="stroke:none" />
      </symbol>
    </g>
    <g
       id="g15815">
      <symbol
         id="symbol15809"
         overflow="visible">
        <path
           id="path15807"
           d=""
           style="stroke:none" />
      </symbol>
      <symbol
         id="symbol15813"
         overflow="visible">
        <path
           id="path15811"
           d="M 2.984375,-0.890625 2.65625,-2.46875 c 0.1875,-0.375 0.375,-0.671875 0.609375,-1.0625 0.0625,-0.125 0.140625,-0.234375 0.265625,-0.234375 H 3.5625 c 0.21875,0.015625 0.265625,0.28125 0.46875,0.28125 0.21875,0 0.359375,-0.203125 0.359375,-0.4375 0,-0.15625 -0.046875,-0.265625 -0.109375,-0.34375 -0.15625,-0.09375 -0.328125,-0.125 -0.46875,-0.125 -0.515625,0 -0.78125,0.671875 -1.234375,1.5625 L 2.4375,-3.515625 c -0.109375,-0.546875 -0.390625,-0.875 -0.6875,-0.875 -0.453125,0 -1.15625,0.796875 -1.234375,0.9375 0,0.046875 0.078125,0.1875 0.109375,0.1875 0.109375,-0.140625 0.5625,-0.578125 0.765625,-0.578125 0.171875,0 0.28125,0.171875 0.3125,0.390625 l 0.28125,1.40625 c -0.25,0.484375 -0.421875,0.78125 -0.6875,1.25 C 1.21875,-0.671875 1.140625,-0.5625 1,-0.5625 H 0.984375 c -0.21875,-0.03125 -0.25,-0.296875 -0.453125,-0.296875 -0.234375,0 -0.375,0.21875 -0.375,0.453125 0,0.140625 0.046875,0.25 0.109375,0.34375 0.15625,0.09375 0.328125,0.109375 0.46875,0.109375 0.5625,0 0.828125,-0.765625 1.328125,-1.734375 L 2.25,-0.828125 c 0.109375,0.53125 0.375,0.875 0.6875,0.875 0.4375,0 1.15625,-0.796875 1.234375,-0.9375 C 4.171875,-0.9375 4.09375,-1.0625 4.0625,-1.0625 3.953125,-0.921875 3.5,-0.53125 3.328125,-0.53125 c -0.21875,0 -0.3125,-0.140625 -0.34375,-0.359375 z m 0,0"
           style="stroke:none" />
      </symbol>
    </g>
    <g
       id="g15831">
      <symbol
         id="symbol15825"
         overflow="visible">
        <path
           id="path15823"
           d=""
           style="stroke:none" />
      </symbol>
      <symbol
         id="symbol15829"
         overflow="visible">
        <path
           id="path15827"
           d="M 2.203125,-3.734375 2.53125,-5.5 c 0.0625,-0.296875 0.125,-0.625 0.1875,-0.75 0.046875,-0.09375 0.390625,-0.109375 0.5,-0.109375 0.875,0 1.140625,0.53125 1.140625,1.09375 0,0.859375 -0.53125,1.53125 -1.203125,1.53125 z m -0.59375,3.15625 c 0,-0.171875 0.0625,-0.484375 0.078125,-0.59375 l 0.453125,-2.25 h 0.5625 c 1.40625,0 1.421875,0.84375 1.421875,1.171875 v 0.03125 c 0,1.234375 -0.75,1.921875 -1.796875,1.921875 -0.34375,0 -0.71875,0 -0.71875,-0.28125 z m 0.75,-6.046875 C 2,-6.625 1.625,-6.65625 1.25,-6.671875 c -0.046875,0.015625 -0.0625,0.125 -0.0625,0.203125 0,0.03125 0,0.0625 0.015625,0.078125 0.15625,0 0.609375,0.046875 0.609375,0.203125 0,0.171875 -0.046875,0.4375 -0.09375,0.703125 L 0.875,-1.203125 c -0.0625,0.3125 -0.109375,0.578125 -0.1875,0.75 C 0.640625,-0.34375 0.125,-0.296875 0.015625,-0.296875 -0.03125,-0.25 -0.0625,-0.140625 -0.0625,-0.0625 c 0,0.03125 0,0.046875 0.015625,0.0625 h 2.15625 C 3.8125,0 5.078125,-0.90625 5.078125,-2.28125 5.078125,-3.109375 4.5,-3.65625 4.046875,-3.6875 4.453125,-3.90625 5.25,-4.40625 5.25,-5.40625 c 0,-0.875 -0.71875,-1.25 -1.578125,-1.25 -0.546875,0 -0.953125,0.03125 -1.3125,0.03125 z m 0,0"
           style="stroke:none" />
      </symbol>
    </g>
    <g
       id="g15847">
      <symbol
         id="symbol15841"
         overflow="visible">
        <path
           id="path15839"
           d=""
           style="stroke:none" />
      </symbol>
      <symbol
         id="symbol15845"
         overflow="visible">
        <path
           id="path15843"
           d="m 3.4375,-0.265625 c -0.0625,0.0625 -0.09375,0.25 -0.0625,0.296875 0.4375,-0.015625 0.609375,-0.046875 1.046875,-0.046875 0.40625,0 0.734375,0.03125 1.109375,0.046875 C 5.546875,0 5.59375,-0.1875 5.5625,-0.265625 c -0.0625,0 -0.578125,-0.03125 -0.640625,-0.328125 0,-0.03125 -0.046875,-0.3125 -0.109375,-0.6875 l -0.859375,-5.375 C 3.9375,-6.671875 3.921875,-6.6875 3.890625,-6.6875 c -0.078125,0 -0.3125,0.125 -0.40625,0.28125 l -2.78125,5 c -0.1875,0.359375 -0.390625,0.6875 -0.625,0.953125 -0.125,0.125 -0.46875,0.1875 -0.578125,0.1875 C -0.53125,-0.1875 -0.578125,0 -0.5625,0.03125 -0.125,0.015625 0,-0.015625 0.4375,-0.015625 c 0.40625,0 0.53125,0.03125 0.890625,0.046875 0.03125,-0.0625 0.0625,-0.265625 0.046875,-0.296875 -0.0625,0 -0.625,-0.03125 -0.625,-0.25 C 0.75,-0.65625 0.859375,-0.90625 1.03125,-1.25 1.125,-1.421875 1.421875,-1.953125 1.75,-2.578125 h 2.015625 l 0.21875,1.515625 c 0.03125,0.1875 0.03125,0.390625 0.03125,0.484375 0,0.203125 -0.234375,0.3125 -0.578125,0.3125 z m -1.5,-2.640625 1.375,-2.484375 0.390625,2.484375 z m 0,0"
           style="stroke:none" />
      </symbol>
    </g>
    <g
       id="g15863"
       style="fill:#c28f47;stroke-width:0">
      <symbol
         id="symbol15857"
         overflow="visible"
         style="fill:#c28f47;stroke-width:0">
        <path
           id="path15855"
           d="M 0.5,0 H 4.484375 V -4.8125 H 0.5 Z M 1,-0.5 V -4.3125 H 3.984375 V -0.5 Z m 0,0"
           style="fill:#c28f47;stroke:none;stroke-width:0" />
      </symbol>
      <symbol
         id="symbol15861"
         overflow="visible"
         style="fill:#c28f47;stroke-width:0">
        <path
           id="path15859"
           d="m 2.484375,-5.875 c 0.71875,0 1.203125,1.1875 1.203125,2.71875 0,1.515625 -0.4375,2.828125 -1.3125,2.828125 -0.703125,0 -1.21875,-1.25 -1.21875,-2.78125 0,-1.53125 0.515625,-2.765625 1.328125,-2.765625 z m -0.0625,-0.359375 c -1.34375,0 -2.125,1.421875 -2.125,3.125 0,1.6875 0.796875,3.140625 2.125,3.140625 1.34375,0 2.125,-1.453125 2.125,-3.140625 0,-1.703125 -0.765625,-3.125 -2.125,-3.125 z m 0,0"
           style="fill:#c28f47;stroke:none;stroke-width:0" />
      </symbol>
    </g>
  </defs>
  <sodipodi:namedview
     inkscape:document-rotation="0"
     pagecolor="#ffffff"
     bordercolor="#666666"
     borderopacity="1"
     objecttolerance="10"
     gridtolerance="10"
     guidetolerance="10"
     inkscape:pageopacity="0"
     inkscape:pageshadow="2"
     inkscape:window-width="1600"
     inkscape:window-height="837"
     id="namedview17510"
     showgrid="false"
     inkscape:zoom="2.1633891"
     inkscape:cx="114.88299"
     inkscape:cy="71.730166"
     inkscape:window-x="-8"
     inkscape:window-y="-8"
     inkscape:window-maximized="1"
     inkscape:current-layer="svg17508" />
  <path
     id="path17501"
     d="m 134.89449,69.893062 3.50396,-5.099111 3.23753,-5.051901 2.95425,-4.967587 2.65747,-4.839439 2.34721,-4.670817 2.0302,-4.46509 1.62889,-4.036797 1.32199,-3.783865 0.96788,-3.345447 0.65089,-2.920531 0.37433,-2.519198 0.13152,-2.144871 -0.0775,-1.797501 -0.24956,-1.483871 -0.38783,-1.200587 -0.49575,-0.947649 -0.62727,-0.782404 -0.69472,-0.576687 -0.806,-0.428293 -0.91394,-0.279896 -1.10278,-0.131517 -1.31862,0.05059 -1.45352,0.249552 -1.6997,0.485628 -1.9695,0.762169 -2.25953,1.075808 -2.72155,1.52096 -3.07565,1.945895 -3.46011,2.414664 -4.02331,3.045299 -4.63709,3.756882 -5.27785,4.525804 -6.15132,5.534149 -7.26084,6.795451 -9.055001,8.74808 -13.526815,13.364939 -19.033992,18.774308 -9.149397,8.748087 -7.125944,6.556002 -5.99955,5.27447 -5.119349,4.26275 -4.471844,3.48372 -3.858058,2.77213 -3.439879,2.24267 -2.903661,1.66599 -2.542812,1.24779 -2.09765,0.82624 -1.807623,0.51936 -1.54457,0.25631 -1.308504,0.0338 -1.092667,-0.14838 -0.967887,-0.32037 -0.785776,-0.45191 -0.6778595,-0.60029 -0.5665659,-0.74531 -0.4856315,-0.96451 -0.3574833,-1.12977 -0.2360692,-1.38606 -0.08431,-1.67611 0.097793,-1.99647 0.3102767,-2.34384 0.5665695,-2.72155 0.8532212,-3.11949 1.173608,-3.53431 1.460259,-3.77712 1.827857,-4.188556 2.124633,-4.390897 2.525947,-4.775359 2.829471,-4.917008 3.119496,-5.021545 3.392661,-5.085625 3.487093,-4.879904 3.7063,-4.85967 3.912022,-4.798966 3.908645,-4.495449 4.063775,-4.374045 4.003073,-4.030051 4.110993,-3.864804 3.996327,-3.500582 4.070521,-3.31172 3.915393,-2.947509 3.959231,-2.745151 3.989582,-2.529322 3.787245,-2.181961 3.797348,-1.962757 3.793993,-1.743543 3.561282,-1.426542 3.541052,-1.217443 3.517444,-1.001614 3.267877,-0.738563 3.22741,-0.542955 3.18695,-0.347381 3.13299,-0.144999 3.07902,0.05396 3.01833,0.252932 2.94751,0.448531 2.68444,0.600301 2.61701,0.768907 2.53944,0.934163 2.46187,1.102791 2.38094,1.26128 2.45176,1.524343 2.34383,1.699705 2.2393,1.868322 2.12125,2.030201 2.00323,2.185333 1.88181,2.330351 1.75366,2.468622 1.72669,2.775506 1.57492,2.913778 1.41979,3.035182 1.26129,3.146486 1.09942,3.24764 0.93416,3.331965 0.80939,3.618617 0.62052,3.67932 0.4283,3.729907 0.23607,3.760258 0.0439,3.770376 -0.15176,3.767003 -0.34734,3.743396 -0.53623,3.7063 -0.72844,3.645596 -0.9173,3.574775 -1.03196,3.281372 -1.19722,3.190316 -1.35571,3.079031 -1.51423,2.964365 -1.66597,2.83284 -1.81774,2.68783 -1.8346,2.3843 -1.95938,2.23593 -2.08079,2.08753 -2.19545,1.92566 -2.31012,1.76377 -2.41466,1.58842 -2.34384,1.32199 -2.43152,1.16012 -2.51246,1.00161 -2.58665,0.83299 -2.65747,0.66437 -2.72493,0.49237 -2.78562,0.32038 -3.05205,0.15176 -3.10601,-0.0472 -3.16334,-0.24621 -3.20718,-0.44516 -3.251019,-0.64413 -3.281375,-0.83973 -3.53093,-1.10279 -3.551165,-1.31862 -3.568027,-1.52771 -3.793994,-1.84135 -3.793982,-2.06055 -3.780493,-2.27302 -3.979465,-2.62375 -3.938997,-2.83284 -3.895155,-3.02507 L 57.659216,101.1421 53.693189,97.574015 49.622665,93.641771 45.666807,89.557757 41.656989,85.136501 37.809048,80.607328 33.96785,75.781379 30.332371,70.911593 26.926217,66.031689 23.624607,60.962926 20.599539,55.971732 17.867871,51.098573 15.443097,46.380541 13.335326,41.864858 11.62888,37.763982 10.225948,33.912676 9.180495,30.496404 8.4554219,27.501687 8.0136354,24.908289 7.8146701,22.689232 7.8283321,20.81753 8.0171946,19.262843 8.347677,17.994811 l 0.4822591,-1.082553 0.583428,-0.839732 0.6576249,-0.627276 0.768914,-0.47888 0.87346,-0.330518 1.065687,-0.192242 1.183722,-0.0133 1.402932,0.17538 1.645746,0.40469 1.91554,0.677852 2.205567,0.991497 2.522578,1.345594 3.008206,1.834602 3.385916,2.303371 3.95249,2.927275 4.387533,3.490465 5.200284,4.397645 5.874774,5.223894 6.977554,6.468312 8.545734,8.195004 11.685469,11.489868 25.222405,24.875038 8.66039,8.228728 7.06186,6.448085 5.93211,5.15981 5.0519,4.14472 4.39764,3.36568 3.78725,2.65748 3.22403,2.03694 2.84296,1.57493 2.36407,1.10279 2.05382,0.75879 1.76378,0.45528 1.50073,0.19221 1.26466,-0.0237 1.05557,-0.20235 0.92742,-0.37434 0.75205,-0.50587 0.64076,-0.64751 0.56319,-0.86334 0.43505,-1.02858 0.32376,-1.28153 0.17872,-1.56481 0.003,-1.77052 -0.17873,-2.08754 -0.40469,-2.44163 -0.65762,-2.8126 -0.94766,-3.21393 -1.27815,-3.62199 -1.639,-4.046908 -1.94252,-4.269504 -2.23255,-4.461718 -2.64061,-4.829321 -2.93739,-4.964214 -3.22067,-5.048529 -3.33195,-4.873159 -3.56129,-4.876532 -3.77712,-4.84618 -3.79399,-4.556152 -3.95586,-4.461724 -4.11099,-4.333569 -4.0368,-3.979473 -4.14471,-3.807465 -4.0233,-3.439882 -4.094135,-3.244275 -3.932251,-2.876682 -3.969345,-2.670964 -3.999707,-2.448385 -3.790606,-2.101019 -3.797359,-1.881819 -3.568027,-1.564808 -3.557913,-1.355711 -3.534307,-1.146633 -3.507327,-0.927418 -3.25102,-0.667734 -3.213927,-0.472146 -3.170081,-0.273173 -3.116127,-0.07417 -3.05542,0.124793 -2.994716,0.32376 -2.728296,0.482255 -2.664219,0.65088 -2.593399,0.822869 -2.51583,0.988122 -2.434897,1.150005 -2.353957,1.311873 -2.421402,1.578294 -2.313488,1.750295 -2.202195,1.91554 -2.090909,2.074039 -1.966122,2.229178 -1.844719,2.374188 -1.716566,2.509088 -1.686216,2.812603 -1.531084,2.947502 -1.375949,3.068913 -1.21745,3.17683 -1.052197,3.271255 -0.8903216,3.352192 -0.7622631,3.635432 -0.5699419,3.696122 -0.3777106,3.736651 -0.1854829,3.763631 0.00683,3.773748 0.202345,3.763631 0.3945726,3.733278 0.586804,3.69281 0.7756593,3.628735 0.9678872,3.554544 1.079177,3.254392 1.241053,3.163337 1.399559,3.048675 1.554688,2.927257 1.709822,2.79575 1.736801,2.48548 1.864954,2.35059 1.98636,2.20557 2.107767,2.05043 2.222433,1.88856 2.330347,1.72331 2.438268,1.54795 2.367446,1.28489 2.451756,1.12302 2.529323,0.95777 2.603516,0.79252 2.677709,0.6239 2.738413,0.45191 2.802485,0.2799 3.062168,0.10455 3.122868,-0.0911 3.173458,-0.29338 3.217295,-0.49237 3.257769,-0.68798 3.288116,-0.88021 3.534307,-1.15 3.557913,-1.36246 3.568038,-1.57155 3.797347,-1.88519 3.790614,-2.10777 3.777121,-2.31011 3.97272,-2.66422 3.932255,-2.86994 4.094119,-3.23753 4.02669,-3.43651 3.94236,-3.608483 4.04692,-3.965979 3.92888,-4.114366 3.97609,-4.444862 3.81422,-4.549404 3.80073,-4.836066 3.58827,-4.876532 3.50733,-5.095738 3.23753,-5.055274 2.95762,-4.967586 2.66084,-4.842808 2.35058,-4.670818 2.03021,-4.465093 1.63563,-4.043548 1.32199,-3.783862 0.97126,-3.345451 0.65425,-2.923896 0.37433,-2.522574 0.13152,-2.148236 -0.0742,-1.800878 -0.24617,-1.48387 -0.38446,-1.203956 -0.49575,-0.951022 -0.62389,-0.78578 -0.69473,-0.576686 -0.80263,-0.428297 -0.91393,-0.283276 -1.10279,-0.134897 -1.31524,0.05059 -1.45015,0.246172 -1.6997,0.482262 -1.96613,0.75879 -2.25953,1.075812 -2.71817,1.514215 -3.07566,1.942519 -3.45674,2.411288 -4.02331,3.041933 -4.63034,3.75351 -5.27785,4.525801 -6.15131,5.530784 -7.26084,6.792074 -8.397352,8.103949"
     style="fill:none;stroke:#3a667a;stroke-width:1.43813;stroke-linecap:square;stroke-linejoin:round;stroke-miterlimit:10;stroke-dasharray:none;stroke-opacity:1" />
  <path
     id="path17503"
     d="M 82.247497,130.89554 V 1.4592915"
     style="fill:none;stroke:#000000;stroke-width:0.740501;stroke-linecap:square;stroke-linejoin:miter;stroke-miterlimit:10;stroke-dasharray:none;stroke-opacity:1;marker-end:url(#marker18102)" />
  <path
     id="path17505"
     d="M 0.36745849,69.893062 H 171.4651"
     style="fill:none;stroke:#000000;stroke-width:0.734917;stroke-linecap:square;stroke-linejoin:miter;stroke-miterlimit:10;stroke-dasharray:none;stroke-opacity:1;marker-end:url(#marker18092)" />
  <rect
     style="fill:none;stroke:#d3c7b1;stroke-width:0.555129;stroke-linecap:butt;stroke-linejoin:round;stroke-miterlimit:10;stroke-dasharray:1.6654, 0.555129;stroke-dashoffset:0;paint-order:stroke fill markers"
     id="rect13658"
     width="150.94214"
     height="113.08909"
     x="6.8248644"
     y="13.414766" />
  <g
     ns1:version="1.1.0"
     ns1:texconverter="pdflatex"
     ns1:pdfconverter="inkscape"
     ns1:text="$y$"
     ns1:preamble="C:\\Users\\flvisa\\Desktop\\lna\\latexify_books\\textext_preamble.tex"
     ns1:scale="0.25877379"
     ns1:alignment="middle center"
     ns1:inkscapeversion="1.0"
     transform="matrix(0.88067874,0,0,0.88067874,73.36108,1.4589611)"
     ns1:jacobian_sqrt="0.258774"
     id="g11209">
    <defs
       id="id-e73633f9-8dc4-46b7-a0bb-53132198b78b">
      <g
         id="g18486">
        <symbol
           id="symbol18480"
           overflow="visible">
          <path
             id="path18478"
             d=""
             style="stroke:none" />
        </symbol>
        <symbol
           id="symbol18484"
           overflow="visible">
          <path
             id="path18482"
             d="m 1.328125,-4.390625 c -0.46875,0 -1.15625,0.765625 -1.265625,0.953125 0,0.0625 0.0625,0.1875 0.09375,0.1875 0.03125,-0.03125 0.484375,-0.59375 0.71875,-0.59375 0.484375,0 0.59375,2.0625 0.59375,3.21875 v 0.453125 c 0,0.375 -0.015625,0.78125 -0.171875,1.015625 -0.328125,0.484375 -0.75,0.84375 -1.375,0.84375 -0.21875,0 -0.65625,-0.109375 -0.8125,-0.1875 -0.140625,0.078125 -0.21875,0.28125 -0.21875,0.4375 0,0.21875 0.234375,0.421875 0.59375,0.421875 1.359375,0 4.609375,-3.578125 4.609375,-5.953125 0,-0.21875 -0.03125,-0.796875 -0.453125,-0.796875 -0.234375,0 -0.421875,0.171875 -0.5,0.4375 0.109375,0.21875 0.25,0.46875 0.25,1.078125 0,1.09375 -0.796875,2.28125 -1.15625,2.71875 0,-0.609375 -0.03125,-4.234375 -0.90625,-4.234375 z m 0,0"
             style="stroke:none" />
        </symbol>
      </g>
    </defs>
    <g
       transform="translate(-148.6,-130.374)"
       id="id-105fa2e0-9149-4bd8-b8bd-3bd92f52b646">
      <g
         id="id-8ccf2df6-ff51-4947-b580-19d649738fb9"
         style="fill:#000000;fill-opacity:1">
        <g
           transform="translate(149.709,134.765)"
           id="g11205">
          <path
             id="id-32f53ce0-f987-42a7-bdc4-b0af4dc015f3"
             d="m 1.328125,-4.390625 c -0.46875,0 -1.15625,0.765625 -1.265625,0.953125 0,0.0625 0.0625,0.1875 0.09375,0.1875 0.03125,-0.03125 0.484375,-0.59375 0.71875,-0.59375 0.484375,0 0.59375,2.0625 0.59375,3.21875 v 0.453125 c 0,0.375 -0.015625,0.78125 -0.171875,1.015625 -0.328125,0.484375 -0.75,0.84375 -1.375,0.84375 -0.21875,0 -0.65625,-0.109375 -0.8125,-0.1875 -0.140625,0.078125 -0.21875,0.28125 -0.21875,0.4375 0,0.21875 0.234375,0.421875 0.59375,0.421875 1.359375,0 4.609375,-3.578125 4.609375,-5.953125 0,-0.21875 -0.03125,-0.796875 -0.453125,-0.796875 -0.234375,0 -0.421875,0.171875 -0.5,0.4375 0.109375,0.21875 0.25,0.46875 0.25,1.078125 0,1.09375 -0.796875,2.28125 -1.15625,2.71875 0,-0.609375 -0.03125,-4.234375 -0.90625,-4.234375 z m 0,0"
             style="stroke:none" />
        </g>
      </g>
    </g>
  </g>
  <g
     ns1:version="1.1.0"
     ns1:texconverter="pdflatex"
     ns1:pdfconverter="inkscape"
     ns1:text="$x$"
     ns1:preamble="C:\\Users\\flvisa\\Desktop\\lna\\latexify_books\\textext_preamble.tex"
     ns1:scale="0.25877379"
     ns1:alignment="middle center"
     ns1:inkscapeversion="1.0"
     transform="matrix(0.88067874,0,0,0.88067874,167.12817,74.408644)"
     ns1:jacobian_sqrt="0.258774"
     id="g11345">
    <defs
       id="id-e6de1665-da72-41bc-adbb-fe576ec73f39">
      <g
         id="g18502">
        <symbol
           id="symbol18496"
           overflow="visible">
          <path
             id="path18494"
             d=""
             style="stroke:none" />
        </symbol>
        <symbol
           id="symbol18500"
           overflow="visible">
          <path
             id="path18498"
             d="M 2.984375,-0.890625 2.65625,-2.46875 c 0.1875,-0.375 0.375,-0.671875 0.609375,-1.0625 0.0625,-0.125 0.140625,-0.234375 0.265625,-0.234375 H 3.5625 c 0.21875,0.015625 0.265625,0.28125 0.46875,0.28125 0.21875,0 0.359375,-0.203125 0.359375,-0.4375 0,-0.15625 -0.046875,-0.265625 -0.109375,-0.34375 -0.15625,-0.09375 -0.328125,-0.125 -0.46875,-0.125 -0.515625,0 -0.78125,0.671875 -1.234375,1.5625 L 2.4375,-3.515625 c -0.109375,-0.546875 -0.390625,-0.875 -0.6875,-0.875 -0.453125,0 -1.15625,0.796875 -1.234375,0.9375 0,0.046875 0.078125,0.1875 0.109375,0.1875 0.109375,-0.140625 0.5625,-0.578125 0.765625,-0.578125 0.171875,0 0.28125,0.171875 0.3125,0.390625 l 0.28125,1.40625 c -0.25,0.484375 -0.421875,0.78125 -0.6875,1.25 C 1.21875,-0.671875 1.140625,-0.5625 1,-0.5625 H 0.984375 c -0.21875,-0.03125 -0.25,-0.296875 -0.453125,-0.296875 -0.234375,0 -0.375,0.21875 -0.375,0.453125 0,0.140625 0.046875,0.25 0.109375,0.34375 0.15625,0.09375 0.328125,0.109375 0.46875,0.109375 0.5625,0 0.828125,-0.765625 1.328125,-1.734375 L 2.25,-0.828125 c 0.109375,0.53125 0.375,0.875 0.6875,0.875 0.4375,0 1.15625,-0.796875 1.234375,-0.9375 C 4.171875,-0.9375 4.09375,-1.0625 4.0625,-1.0625 3.953125,-0.921875 3.5,-0.53125 3.328125,-0.53125 c -0.21875,0 -0.3125,-0.140625 -0.34375,-0.359375 z m 0,0"
             style="stroke:none" />
        </symbol>
      </g>
    </defs>
    <g
       transform="translate(-149.167,-130.374)"
       id="id-38f8b964-18cd-4bb1-adfb-279f6fa11df5">
      <g
         id="id-ba5e7e66-c554-413e-a57a-107afc7530b8"
         style="fill:#000000;fill-opacity:1">
        <g
           transform="translate(149.011,134.765)"
           id="g11341">
          <path
             id="id-810f1986-2e7b-47b4-861a-860555dbca15"
             d="M 2.984375,-0.890625 2.65625,-2.46875 c 0.1875,-0.375 0.375,-0.671875 0.609375,-1.0625 0.0625,-0.125 0.140625,-0.234375 0.265625,-0.234375 H 3.5625 c 0.21875,0.015625 0.265625,0.28125 0.46875,0.28125 0.21875,0 0.359375,-0.203125 0.359375,-0.4375 0,-0.15625 -0.046875,-0.265625 -0.109375,-0.34375 -0.15625,-0.09375 -0.328125,-0.125 -0.46875,-0.125 -0.515625,0 -0.78125,0.671875 -1.234375,1.5625 L 2.4375,-3.515625 c -0.109375,-0.546875 -0.390625,-0.875 -0.6875,-0.875 -0.453125,0 -1.15625,0.796875 -1.234375,0.9375 0,0.046875 0.078125,0.1875 0.109375,0.1875 0.109375,-0.140625 0.5625,-0.578125 0.765625,-0.578125 0.171875,0 0.28125,0.171875 0.3125,0.390625 l 0.28125,1.40625 c -0.25,0.484375 -0.421875,0.78125 -0.6875,1.25 C 1.21875,-0.671875 1.140625,-0.5625 1,-0.5625 H 0.984375 c -0.21875,-0.03125 -0.25,-0.296875 -0.453125,-0.296875 -0.234375,0 -0.375,0.21875 -0.375,0.453125 0,0.140625 0.046875,0.25 0.109375,0.34375 0.15625,0.09375 0.328125,0.109375 0.46875,0.109375 0.5625,0 0.828125,-0.765625 1.328125,-1.734375 L 2.25,-0.828125 c 0.109375,0.53125 0.375,0.875 0.6875,0.875 0.4375,0 1.15625,-0.796875 1.234375,-0.9375 C 4.171875,-0.9375 4.09375,-1.0625 4.0625,-1.0625 3.953125,-0.921875 3.5,-0.53125 3.328125,-0.53125 c -0.21875,0 -0.3125,-0.140625 -0.34375,-0.359375 z m 0,0"
             style="stroke:none" />
        </g>
      </g>
    </g>
  </g>
  <g
     style="fill:#c28f47"
     ns1:version="1.1.0"
     ns1:texconverter="pdflatex"
     ns1:pdfconverter="inkscape"
     ns1:text="$B$"
     ns1:preamble="C:\\Users\\flvisa\\Desktop\\lna\\latexify_books\\textext_preamble.tex"
     ns1:scale="0.25877379"
     ns1:alignment="middle center"
     ns1:inkscapeversion="1.0"
     transform="matrix(0.88067874,0,0,0.88067874,162.28947,38.111179)"
     ns1:jacobian_sqrt="0.258774"
     id="g11522">
    <defs
       id="id-ec151530-a985-4f15-b0b3-c778f81adade">
      <g
         id="g18518">
        <symbol
           id="symbol18512"
           overflow="visible">
          <path
             id="path18510"
             d=""
             style="stroke:none" />
        </symbol>
        <symbol
           id="symbol18516"
           overflow="visible">
          <path
             id="path18514"
             d="M 2.203125,-3.734375 2.53125,-5.5 c 0.0625,-0.296875 0.125,-0.625 0.1875,-0.75 0.046875,-0.09375 0.390625,-0.109375 0.5,-0.109375 0.875,0 1.140625,0.53125 1.140625,1.09375 0,0.859375 -0.53125,1.53125 -1.203125,1.53125 z m -0.59375,3.15625 c 0,-0.171875 0.0625,-0.484375 0.078125,-0.59375 l 0.453125,-2.25 h 0.5625 c 1.40625,0 1.421875,0.84375 1.421875,1.171875 v 0.03125 c 0,1.234375 -0.75,1.921875 -1.796875,1.921875 -0.34375,0 -0.71875,0 -0.71875,-0.28125 z m 0.75,-6.046875 C 2,-6.625 1.625,-6.65625 1.25,-6.671875 c -0.046875,0.015625 -0.0625,0.125 -0.0625,0.203125 0,0.03125 0,0.0625 0.015625,0.078125 0.15625,0 0.609375,0.046875 0.609375,0.203125 0,0.171875 -0.046875,0.4375 -0.09375,0.703125 L 0.875,-1.203125 c -0.0625,0.3125 -0.109375,0.578125 -0.1875,0.75 C 0.640625,-0.34375 0.125,-0.296875 0.015625,-0.296875 -0.03125,-0.25 -0.0625,-0.140625 -0.0625,-0.0625 c 0,0.03125 0,0.046875 0.015625,0.0625 h 2.15625 C 3.8125,0 5.078125,-0.90625 5.078125,-2.28125 5.078125,-3.109375 4.5,-3.65625 4.046875,-3.6875 4.453125,-3.90625 5.25,-4.40625 5.25,-5.40625 c 0,-0.875 -0.71875,-1.25 -1.578125,-1.25 -0.546875,0 -0.953125,0.03125 -1.3125,0.03125 z m 0,0"
             style="stroke:none" />
        </symbol>
      </g>
    </defs>
    <g
       style="fill:#c28f47"
       transform="translate(-149.148,-128.093)"
       id="id-e58cc748-90b2-410d-9b18-9fd6e6915ad3">
      <g
         id="id-834ea9c9-c1be-42fb-a12a-759798e145be"
         style="fill:#c28f47;fill-opacity:1">
        <g
           style="fill:#c28f47"
           transform="translate(149.21,134.765)"
           id="g11518">
          <path
             id="id-1175d4a2-9d2e-4518-a741-07051670c9d2"
             d="M 2.203125,-3.734375 2.53125,-5.5 c 0.0625,-0.296875 0.125,-0.625 0.1875,-0.75 0.046875,-0.09375 0.390625,-0.109375 0.5,-0.109375 0.875,0 1.140625,0.53125 1.140625,1.09375 0,0.859375 -0.53125,1.53125 -1.203125,1.53125 z m -0.59375,3.15625 c 0,-0.171875 0.0625,-0.484375 0.078125,-0.59375 l 0.453125,-2.25 h 0.5625 c 1.40625,0 1.421875,0.84375 1.421875,1.171875 v 0.03125 c 0,1.234375 -0.75,1.921875 -1.796875,1.921875 -0.34375,0 -0.71875,0 -0.71875,-0.28125 z m 0.75,-6.046875 C 2,-6.625 1.625,-6.65625 1.25,-6.671875 c -0.046875,0.015625 -0.0625,0.125 -0.0625,0.203125 0,0.03125 0,0.0625 0.015625,0.078125 0.15625,0 0.609375,0.046875 0.609375,0.203125 0,0.171875 -0.046875,0.4375 -0.09375,0.703125 L 0.875,-1.203125 c -0.0625,0.3125 -0.109375,0.578125 -0.1875,0.75 C 0.640625,-0.34375 0.125,-0.296875 0.015625,-0.296875 -0.03125,-0.25 -0.0625,-0.140625 -0.0625,-0.0625 c 0,0.03125 0,0.046875 0.015625,0.0625 h 2.15625 C 3.8125,0 5.078125,-0.90625 5.078125,-2.28125 5.078125,-3.109375 4.5,-3.65625 4.046875,-3.6875 4.453125,-3.90625 5.25,-4.40625 5.25,-5.40625 c 0,-0.875 -0.71875,-1.25 -1.578125,-1.25 -0.546875,0 -0.953125,0.03125 -1.3125,0.03125 z m 0,0"
             style="fill:#c28f47;stroke:none" />
        </g>
      </g>
    </g>
  </g>
  <g
     style="fill:#c28f47"
     ns1:version="1.1.0"
     ns1:texconverter="pdflatex"
     ns1:pdfconverter="inkscape"
     ns1:text="$A$"
     ns1:preamble="C:\\Users\\flvisa\\Desktop\\lna\\latexify_books\\textext_preamble.tex"
     ns1:scale="0.25877379"
     ns1:alignment="middle center"
     ns1:inkscapeversion="1.0"
     transform="matrix(0.88067874,0,0,0.88067874,117.59909,4.2627771)"
     ns1:jacobian_sqrt="0.258774"
     id="g11606">
    <defs
       id="id-e0252a0d-223d-48b0-9256-3bbe8d9c824b">
      <g
         id="g18534">
        <symbol
           id="symbol18528"
           overflow="visible">
          <path
             id="path18526"
             d=""
             style="stroke:none" />
        </symbol>
        <symbol
           id="symbol18532"
           overflow="visible">
          <path
             id="path18530"
             d="m 3.4375,-0.265625 c -0.0625,0.0625 -0.09375,0.25 -0.0625,0.296875 0.4375,-0.015625 0.609375,-0.046875 1.046875,-0.046875 0.40625,0 0.734375,0.03125 1.109375,0.046875 C 5.546875,0 5.59375,-0.1875 5.5625,-0.265625 c -0.0625,0 -0.578125,-0.03125 -0.640625,-0.328125 0,-0.03125 -0.046875,-0.3125 -0.109375,-0.6875 l -0.859375,-5.375 C 3.9375,-6.671875 3.921875,-6.6875 3.890625,-6.6875 c -0.078125,0 -0.3125,0.125 -0.40625,0.28125 l -2.78125,5 c -0.1875,0.359375 -0.390625,0.6875 -0.625,0.953125 -0.125,0.125 -0.46875,0.1875 -0.578125,0.1875 C -0.53125,-0.1875 -0.578125,0 -0.5625,0.03125 -0.125,0.015625 0,-0.015625 0.4375,-0.015625 c 0.40625,0 0.53125,0.03125 0.890625,0.046875 0.03125,-0.0625 0.0625,-0.265625 0.046875,-0.296875 -0.0625,0 -0.625,-0.03125 -0.625,-0.25 C 0.75,-0.65625 0.859375,-0.90625 1.03125,-1.25 1.125,-1.421875 1.421875,-1.953125 1.75,-2.578125 h 2.015625 l 0.21875,1.515625 c 0.03125,0.1875 0.03125,0.390625 0.03125,0.484375 0,0.203125 -0.234375,0.3125 -0.578125,0.3125 z m -1.5,-2.640625 1.375,-2.484375 0.390625,2.484375 z m 0,0"
             style="stroke:none" />
        </symbol>
      </g>
    </defs>
    <g
       style="fill:#c28f47"
       transform="translate(-148.844,-128.077)"
       id="id-07154ceb-8b33-4cbe-a783-af3870afb5c3">
      <g
         id="id-efa70b12-3e12-45ac-b45d-5725fc9f2b84"
         style="fill:#c28f47;fill-opacity:1">
        <g
           style="fill:#c28f47"
           transform="translate(149.41,134.765)"
           id="g11602">
          <path
             id="id-ad7a1611-fe8c-473a-a3da-18e70b8a7296"
             d="m 3.4375,-0.265625 c -0.0625,0.0625 -0.09375,0.25 -0.0625,0.296875 0.4375,-0.015625 0.609375,-0.046875 1.046875,-0.046875 0.40625,0 0.734375,0.03125 1.109375,0.046875 C 5.546875,0 5.59375,-0.1875 5.5625,-0.265625 c -0.0625,0 -0.578125,-0.03125 -0.640625,-0.328125 0,-0.03125 -0.046875,-0.3125 -0.109375,-0.6875 l -0.859375,-5.375 C 3.9375,-6.671875 3.921875,-6.6875 3.890625,-6.6875 c -0.078125,0 -0.3125,0.125 -0.40625,0.28125 l -2.78125,5 c -0.1875,0.359375 -0.390625,0.6875 -0.625,0.953125 -0.125,0.125 -0.46875,0.1875 -0.578125,0.1875 C -0.53125,-0.1875 -0.578125,0 -0.5625,0.03125 -0.125,0.015625 0,-0.015625 0.4375,-0.015625 c 0.40625,0 0.53125,0.03125 0.890625,0.046875 0.03125,-0.0625 0.0625,-0.265625 0.046875,-0.296875 -0.0625,0 -0.625,-0.03125 -0.625,-0.25 C 0.75,-0.65625 0.859375,-0.90625 1.03125,-1.25 1.125,-1.421875 1.421875,-1.953125 1.75,-2.578125 h 2.015625 l 0.21875,1.515625 c 0.03125,0.1875 0.03125,0.390625 0.03125,0.484375 0,0.203125 -0.234375,0.3125 -0.578125,0.3125 z m -1.5,-2.640625 1.375,-2.484375 0.390625,2.484375 z m 0,0"
             style="fill:#c28f47;stroke:none" />
        </g>
      </g>
    </g>
  </g>
  <g
     ns1:version="1.1.0"
     ns1:texconverter="pdflatex"
     ns1:pdfconverter="inkscape"
     ns1:text="$0$"
     ns1:preamble="C:\\Users\\flvisa\\Desktop\\lna\\latexify_books\\textext_preamble.tex"
     ns1:scale="0.25877379"
     ns1:alignment="middle center"
     ns1:inkscapeversion="1.0"
     transform="matrix(0.88067874,0,0,0.88067874,76.917293,76.492427)"
     ns1:jacobian_sqrt="0.258774"
     style="fill:#c28f47;stroke-width:0"
     id="g11932">
    <defs
       id="id-653c8857-5bac-4612-9e24-e5cb1d089f9f">
      <g
         id="g18550"
         style="fill:#c28f47;stroke-width:0">
        <symbol
           id="symbol18544"
           overflow="visible"
           style="fill:#c28f47;stroke-width:0">
          <path
             id="path18542"
             d="M 0.5,0 H 4.484375 V -4.8125 H 0.5 Z M 1,-0.5 V -4.3125 H 3.984375 V -0.5 Z m 0,0"
             style="fill:#c28f47;stroke:none;stroke-width:0" />
        </symbol>
        <symbol
           id="symbol18548"
           overflow="visible"
           style="fill:#c28f47;stroke-width:0">
          <path
             id="path18546"
             d="m 2.484375,-5.875 c 0.71875,0 1.203125,1.1875 1.203125,2.71875 0,1.515625 -0.4375,2.828125 -1.3125,2.828125 -0.703125,0 -1.21875,-1.25 -1.21875,-2.78125 0,-1.53125 0.515625,-2.765625 1.328125,-2.765625 z m -0.0625,-0.359375 c -1.34375,0 -2.125,1.421875 -2.125,3.125 0,1.6875 0.796875,3.140625 2.125,3.140625 1.34375,0 2.125,-1.453125 2.125,-3.140625 0,-1.703125 -0.765625,-3.125 -2.125,-3.125 z m 0,0"
             style="fill:#c28f47;stroke:none;stroke-width:0" />
        </symbol>
      </g>
    </defs>
    <g
       transform="translate(-149.009,-128.531)"
       id="id-1010fb4e-6224-4985-aa06-47e55132b849"
       style="fill:#c28f47;stroke-width:0">
      <g
         id="id-f5d5eb76-0b31-41dd-b70d-16e4077241b4"
         style="fill:#c28f47;fill-opacity:1;stroke-width:0">
        <g
           transform="translate(148.712,134.765)"
           style="fill:#c28f47;stroke-width:0"
           id="g11928">
          <path
             id="id-7f0662d9-96c7-4210-8f00-28cd1ca04c02"
             d="m 2.484375,-5.875 c 0.71875,0 1.203125,1.1875 1.203125,2.71875 0,1.515625 -0.4375,2.828125 -1.3125,2.828125 -0.703125,0 -1.21875,-1.25 -1.21875,-2.78125 0,-1.53125 0.515625,-2.765625 1.328125,-2.765625 z m -0.0625,-0.359375 c -1.34375,0 -2.125,1.421875 -2.125,3.125 0,1.6875 0.796875,3.140625 2.125,3.140625 1.34375,0 2.125,-1.453125 2.125,-3.140625 0,-1.703125 -0.765625,-3.125 -2.125,-3.125 z m 0,0"
             style="fill:#c28f47;stroke:none;stroke-width:0" />
        </g>
      </g>
    </g>
  </g>
  <path
     style="fill:none;stroke:#a6a7a3;stroke-width:0.741065;stroke-linecap:butt;stroke-linejoin:miter;stroke-miterlimit:4;stroke-dasharray:none;stroke-opacity:1;marker-start:url(#Arrow1Mstart)"
     d="M 84.261937,8.2423762 H 113.19497"
     id="path13928" />
  <path
     id="path13928-8"
     d="M 155.85829,8.2423762 H 126.92526"
     style="fill:none;stroke:#a6a7a3;stroke-width:0.741065;stroke-linecap:butt;stroke-linejoin:miter;stroke-miterlimit:4;stroke-dasharray:none;stroke-opacity:1;marker-start:url(#Arrow1Mstart-3)" />
  <path
     id="path13928-0"
     d="M 164.6992,15.225446 V 33.253174"
     style="fill:none;stroke:#a6a7a3;stroke-width:0.719065;stroke-linecap:butt;stroke-linejoin:miter;stroke-miterlimit:4;stroke-dasharray:none;stroke-opacity:1;marker-start:url(#Arrow1Mstart-30)" />
  <path
     style="fill:none;stroke:#a6a7a3;stroke-width:0.719065;stroke-linecap:butt;stroke-linejoin:miter;stroke-miterlimit:4;stroke-dasharray:none;stroke-opacity:1;marker-start:url(#Arrow1Mstart-3-4)"
     d="M 164.6992,68.264311 V 48.890701"
     id="path13928-8-0" />
  <path
     style="fill:none;stroke:#d3c7b1;stroke-width:0.719065;stroke-linecap:butt;stroke-linejoin:miter;stroke-miterlimit:4;stroke-dasharray:none;stroke-opacity:1"
     d="m 157.76701,13.414767 h 11.13525"
     id="path13887" />
  <path
     id="path13887-7"
     d="M 157.76701,3.6015387 V 13.414767"
     style="fill:none;stroke:#d3c7b1;stroke-width:0.719065;stroke-linecap:butt;stroke-linejoin:miter;stroke-miterlimit:4;stroke-dasharray:none;stroke-opacity:1" />
</svg>
