<?xml version="1.0" encoding="UTF-8" standalone="no"?>
<svg
   xmlns:ns10="http://www.iki.fi/pav/software/textext/"
   xmlns:dc="http://purl.org/dc/elements/1.1/"
   xmlns:cc="http://creativecommons.org/ns#"
   xmlns:rdf="http://www.w3.org/1999/02/22-rdf-syntax-ns#"
   xmlns:svg="http://www.w3.org/2000/svg"
   xmlns="http://www.w3.org/2000/svg"
   xmlns:sodipodi="http://sodipodi.sourceforge.net/DTD/sodipodi-0.dtd"
   xmlns:inkscape="http://www.inkscape.org/namespaces/inkscape"
   inkscape:version="1.0 (4035a4fb49, 2020-05-01)"
   sodipodi:docname="411270_icolorpalette.svg"
   xml:space="preserve"
   enable-background="new 0 0 1024 768"
   viewBox="0 0 1024 768"
   height="768px"
   width="1024px"
   y="0px"
   x="0px"
   id="Level_1"
   version="1.1"><metadata
     id="metadata33"><rdf:RDF><cc:Work
         rdf:about=""><dc:format>image/svg+xml</dc:format><dc:type
           rdf:resource="http://purl.org/dc/dcmitype/StillImage" /><dc:title></dc:title></cc:Work></rdf:RDF></metadata><defs
     id="defs31"><marker
       inkscape:stockid="Arrow1Mend"
       orient="auto"
       refY="0"
       refX="0"
       id="Arrow1Mend"
       style="overflow:visible"
       inkscape:isstock="true"><path
         id="path5846"
         d="M 0,0 5,-5 -12.5,0 5,5 Z"
         style="fill:#191719;fill-opacity:1;fill-rule:evenodd;stroke:#191719;stroke-width:1pt;stroke-opacity:1"
         transform="matrix(-0.4,0,0,-0.4,-4,0)" /></marker><marker
       inkscape:isstock="true"
       style="overflow:visible"
       id="Arrow1Mend-1"
       refX="0"
       refY="0"
       orient="auto"
       inkscape:stockid="Arrow1Mend"><path
         transform="matrix(-0.4,0,0,-0.4,-4,0)"
         style="fill:#191719;fill-opacity:1;fill-rule:evenodd;stroke:#191719;stroke-width:1pt;stroke-opacity:1"
         d="M 0,0 5,-5 -12.5,0 5,5 Z"
         id="path5846-4" /></marker><marker
       inkscape:stockid="Arrow1Mstart"
       orient="auto"
       refY="0"
       refX="0"
       id="Arrow1Mstart-8"
       style="overflow:visible"
       inkscape:isstock="true"><path
         id="path5843-9"
         d="M 0,0 5,-5 -12.5,0 5,5 Z"
         style="fill:#000000;fill-opacity:1;fill-rule:evenodd;stroke:#000000;stroke-width:1pt;stroke-opacity:1"
         transform="matrix(0.4,0,0,0.4,4,0)" /></marker><marker
       inkscape:isstock="true"
       style="overflow:visible"
       id="marker7034"
       refX="0"
       refY="0"
       orient="auto"
       inkscape:stockid="Arrow1Mend"
       inkscape:collect="always"><path
         transform="matrix(-0.4,0,0,-0.4,-4,0)"
         style="fill:#000000;fill-opacity:1;fill-rule:evenodd;stroke:#000000;stroke-width:1pt;stroke-opacity:1"
         d="M 0,0 5,-5 -12.5,0 5,5 Z"
         id="path7032" /></marker><g
       id="g1018"><symbol
         id="symbol1004"
         overflow="visible"><path
           id="path1002"
           d="M 0.5,0 H 4.484375 V -4.8125 H 0.5 Z M 1,-0.5 V -4.3125 H 3.984375 V -0.5 Z m 0,0"
           style="stroke:none" /></symbol><symbol
         id="symbol1008"
         overflow="visible"><path
           id="path1006"
           d="M 1.0625,-2.765625 C 1.0625,-4.3125 1.578125,-6 2.5,-6.8125 c 0,0 -0.125,-0.140625 -0.203125,-0.1875 -1.125,0.90625 -1.9375,2.328125 -1.9375,4.234375 0,1.875 0.8125,3.328125 1.9375,4.21875 C 2.375,1.421875 2.5,1.265625 2.5,1.265625 1.578125,0.453125 1.0625,-1.25 1.0625,-2.765625 Z m 0,0"
           style="stroke:none" /></symbol><symbol
         id="symbol1012"
         overflow="visible"><path
           id="path1010"
           d="m 1.84375,-0.453125 c -0.375,0 -0.671875,-0.328125 -0.671875,-0.6875 0,-0.390625 0.25,-0.640625 0.609375,-0.78125 C 1.96875,-2 2.453125,-2.140625 2.71875,-2.21875 v 1.359375 c 0,0.109375 -0.53125,0.40625 -0.875,0.40625 z M 2.375,-4.34375 c -0.71875,0 -1.484375,0.53125 -1.78125,0.8125 -0.046875,0.046875 -0.078125,0.203125 -0.078125,0.234375 0,0.21875 0.125,0.421875 0.328125,0.421875 0.25,0 0.40625,-0.140625 0.46875,-0.46875 0.0625,-0.390625 0.1875,-0.640625 0.546875,-0.640625 0.484375,0 0.859375,0.515625 0.859375,0.96875 V -2.75 c 0,0.171875 -0.03125,0.21875 -0.125,0.25 -0.28125,0.140625 -1.171875,0.421875 -1.71875,0.625 -0.234375,0.078125 -0.5,0.40625 -0.5,0.8125 0,0.640625 0.5,1.140625 1.140625,1.140625 0.34375,0 1.109375,-0.53125 1.21875,-0.65625 C 2.796875,-0.28125 3.0625,0.0625 3.34375,0.0625 c 0.203125,0 0.609375,-0.265625 0.734375,-0.375 C 4.109375,-0.359375 4.125,-0.4375 4.125,-0.5 c 0,-0.03125 -0.015625,-0.078125 -0.03125,-0.078125 -0.03125,0.015625 -0.15625,0.125 -0.328125,0.125 -0.234375,0 -0.3125,-0.203125 -0.3125,-0.46875 V -2.96875 c 0,-0.765625 -0.515625,-1.375 -1.078125,-1.375 z m 0,0"
           style="stroke:none" /></symbol><symbol
         id="symbol1016"
         overflow="visible"><path
           id="path1014"
           d="M 2.1875,-2.765625 C 2.1875,-4.671875 1.375,-6.09375 0.234375,-7 c -0.0625,0.046875 -0.1875,0.1875 -0.171875,0.1875 0.921875,0.8125 1.40625,2.5 1.40625,4.046875 0,1.515625 -0.484375,3.21875 -1.40625,4.03125 -0.015625,0 0.109375,0.15625 0.171875,0.1875 C 1.375,0.5625 2.1875,-0.890625 2.1875,-2.765625 Z m 0,0"
           style="stroke:none" /></symbol></g><g
       id="g1048"><symbol
         id="symbol1034"
         overflow="visible"><path
           id="path1032"
           d="M 0.5,0 H 4.484375 V -4.8125 H 0.5 Z M 1,-0.5 V -4.3125 H 3.984375 V -0.5 Z m 0,0"
           style="stroke:none" /></symbol><symbol
         id="symbol1038"
         overflow="visible"><path
           id="path1036"
           d="M 1.0625,-2.765625 C 1.0625,-4.3125 1.578125,-6 2.5,-6.8125 c 0,0 -0.125,-0.140625 -0.203125,-0.1875 -1.125,0.90625 -1.9375,2.328125 -1.9375,4.234375 0,1.875 0.8125,3.328125 1.9375,4.21875 C 2.375,1.421875 2.5,1.265625 2.5,1.265625 1.578125,0.453125 1.0625,-1.25 1.0625,-2.765625 Z m 0,0"
           style="stroke:none" /></symbol><symbol
         id="symbol1042"
         overflow="visible"><path
           id="path1040"
           d="m 2.09375,0.0625 c 1.40625,0 2.4375,-1.0625 2.4375,-2.328125 0,-0.890625 -0.625,-2 -1.8125,-2 -0.375,0 -1.046875,0.421875 -1.203125,0.53125 C 1.453125,-3.6875 1.46875,-3.78125 1.46875,-3.84375 V -5.75 c 0,-0.546875 0.09375,-0.84375 0.09375,-0.84375 0,-0.078125 -0.046875,-0.171875 -0.09375,-0.171875 C 1.046875,-6.5625 0.5625,-6.421875 0.0625,-6.375 c -0.046875,0.015625 -0.015625,0.265625 -0.015625,0.265625 0.28125,0 0.546875,0.03125 0.609375,0.171875 0.046875,0.109375 0.046875,0.375 0.046875,0.5 v 4.375 c 0,0.1875 -0.015625,0.515625 -0.109375,0.71875 0,0.046875 0.078125,0.203125 0.125,0.203125 0.21875,-0.078125 0.421875,0 0.640625,0.0625 C 1.578125,-0.015625 1.9375,0.0625 2.09375,0.0625 Z M 2.25,-3.6875 c 0.890625,0 1.453125,0.671875 1.453125,1.796875 0,0.796875 -0.609375,1.625 -1.328125,1.625 -0.4375,0 -0.90625,-0.265625 -0.90625,-0.6875 V -3.3125 c 0,-0.0625 0,-0.09375 0.03125,-0.109375 C 1.59375,-3.515625 2,-3.6875 2.25,-3.6875 Z m 0,0"
           style="stroke:none" /></symbol><symbol
         id="symbol1046"
         overflow="visible"><path
           id="path1044"
           d="M 2.1875,-2.765625 C 2.1875,-4.671875 1.375,-6.09375 0.234375,-7 c -0.0625,0.046875 -0.1875,0.1875 -0.171875,0.1875 0.921875,0.8125 1.40625,2.5 1.40625,4.046875 0,1.515625 -0.484375,3.21875 -1.40625,4.03125 -0.015625,0 0.109375,0.15625 0.171875,0.1875 C 1.375,0.5625 2.1875,-0.890625 2.1875,-2.765625 Z m 0,0"
           style="stroke:none" /></symbol></g><g
       id="g1069"><symbol
         overflow="visible"
         id="symbol1063"><path
           style="stroke:none"
           d=""
           id="path1061" /></symbol><symbol
         overflow="visible"
         id="symbol1067"><path
           style="stroke:none"
           d="m 2.84375,0.046875 c 1.46875,0 2.4375,-0.8125 2.828125,-2.828125 l 0.53125,-2.734375 C 6.265625,-5.890625 6.3125,-6.046875 6.4375,-6.1875 6.515625,-6.3125 7.09375,-6.40625 7.203125,-6.40625 7.28125,-6.515625 7.28125,-6.640625 7.25,-6.6875 c -0.4375,0.015625 -0.59375,0.046875 -1.03125,0.046875 -0.40625,0 -0.640625,-0.03125 -1,-0.046875 -0.03125,0.0625 -0.078125,0.21875 -0.046875,0.28125 0.15625,0 0.59375,0.109375 0.625,0.21875 0.03125,0.0625 0.046875,0.125 0.046875,0.203125 0,0.125 -0.03125,0.265625 -0.078125,0.484375 l -0.53125,2.734375 c -0.359375,1.734375 -1.09375,2.21875 -2.0625,2.21875 -0.921875,0 -1.375,-0.515625 -1.375,-1.484375 0,-0.28125 0.03125,-0.59375 0.09375,-0.953125 l 0.484375,-2.5 C 2.4375,-5.78125 2.5,-6.0625 2.578125,-6.21875 2.625,-6.328125 3.140625,-6.390625 3.25,-6.390625 3.296875,-6.4375 3.34375,-6.625 3.3125,-6.671875 2.921875,-6.65625 2.5625,-6.625 2.203125,-6.625 c -0.359375,0 -0.71875,-0.03125 -1.09375,-0.046875 -0.0625,0.046875 -0.09375,0.234375 -0.0625,0.28125 0.109375,0 0.609375,0.0625 0.625,0.171875 v 0.0625 c 0,0.171875 -0.0625,0.421875 -0.109375,0.671875 L 0.984375,-2.53125 c -0.03125,0.234375 -0.0625,0.453125 -0.0625,0.65625 0,1.203125 0.765625,1.921875 1.921875,1.921875 z m 0,0"
           id="path1065" /></symbol></g><g
       id="g1093"><symbol
         overflow="visible"
         id="symbol1079"><path
           style="stroke:none"
           d=""
           id="path1077" /></symbol><symbol
         overflow="visible"
         id="symbol1083"><path
           style="stroke:none"
           d="m 2.84375,0.046875 c 1.46875,0 2.4375,-0.8125 2.828125,-2.828125 l 0.53125,-2.734375 C 6.265625,-5.890625 6.3125,-6.046875 6.4375,-6.1875 6.515625,-6.3125 7.09375,-6.40625 7.203125,-6.40625 7.28125,-6.515625 7.28125,-6.640625 7.25,-6.6875 c -0.4375,0.015625 -0.59375,0.046875 -1.03125,0.046875 -0.40625,0 -0.640625,-0.03125 -1,-0.046875 -0.03125,0.0625 -0.078125,0.21875 -0.046875,0.28125 0.15625,0 0.59375,0.109375 0.625,0.21875 0.03125,0.0625 0.046875,0.125 0.046875,0.203125 0,0.125 -0.03125,0.265625 -0.078125,0.484375 l -0.53125,2.734375 c -0.359375,1.734375 -1.09375,2.21875 -2.0625,2.21875 -0.921875,0 -1.375,-0.515625 -1.375,-1.484375 0,-0.28125 0.03125,-0.59375 0.09375,-0.953125 l 0.484375,-2.5 C 2.4375,-5.78125 2.5,-6.0625 2.578125,-6.21875 2.625,-6.328125 3.140625,-6.390625 3.25,-6.390625 3.296875,-6.4375 3.34375,-6.625 3.3125,-6.671875 2.921875,-6.65625 2.5625,-6.625 2.203125,-6.625 c -0.359375,0 -0.71875,-0.03125 -1.09375,-0.046875 -0.0625,0.046875 -0.09375,0.234375 -0.0625,0.28125 0.109375,0 0.609375,0.0625 0.625,0.171875 v 0.0625 c 0,0.171875 -0.0625,0.421875 -0.109375,0.671875 L 0.984375,-2.53125 c -0.03125,0.234375 -0.0625,0.453125 -0.0625,0.65625 0,1.203125 0.765625,1.921875 1.921875,1.921875 z m 0,0"
           id="path1081" /></symbol><symbol
         overflow="visible"
         id="symbol1087"><path
           style="stroke:none"
           d="m 0.359375,0 h 2.90625 V -3.515625 H 0.359375 Z M 0.71875,-0.359375 v -2.78125 h 2.1875 v 2.78125 z m 0,0"
           id="path1085" /></symbol><symbol
         overflow="visible"
         id="symbol1091"><path
           style="stroke:none"
           d="m 1.53125,0.046875 c 1.015625,0 1.765625,-0.765625 1.765625,-1.703125 0,-0.640625 -0.453125,-1.453125 -1.3125,-1.453125 -0.28125,0 -0.765625,0.3125 -0.875,0.390625 C 1.0625,-2.6875 1.0625,-2.765625 1.0625,-2.796875 V -4.1875 c 0,-0.390625 0.078125,-0.625 0.078125,-0.625 0,-0.046875 -0.03125,-0.109375 -0.078125,-0.109375 -0.296875,0.140625 -0.65625,0.25 -1.015625,0.28125 -0.03125,0 -0.015625,0.1875 -0.015625,0.1875 0.203125,0 0.390625,0.015625 0.453125,0.125 0.03125,0.078125 0.03125,0.28125 0.03125,0.375 v 3.171875 c 0,0.15625 -0.015625,0.375 -0.09375,0.53125 0,0.03125 0.0625,0.140625 0.09375,0.140625 0.171875,-0.046875 0.3125,0 0.484375,0.046875 0.140625,0.046875 0.40625,0.109375 0.53125,0.109375 z M 1.640625,-2.6875 c 0.640625,0 1.0625,0.5 1.0625,1.3125 0,0.578125 -0.4375,1.1875 -0.96875,1.1875 -0.3125,0 -0.671875,-0.203125 -0.671875,-0.515625 v -1.71875 c 0,-0.03125 0.015625,-0.0625 0.03125,-0.078125 0.0625,-0.0625 0.359375,-0.1875 0.546875,-0.1875 z m 0,0"
           id="path1089" /></symbol></g><g
       id="g1112"><symbol
         overflow="visible"
         id="symbol1106"><path
           style="stroke:none"
           d=""
           id="path1104" /></symbol><symbol
         overflow="visible"
         id="symbol1110"><path
           style="stroke:none"
           d="m 3.09375,-4.390625 c -0.46875,0 -1.1875,1.234375 -1.46875,1.90625 C 1.6875,-2.8125 1.734375,-3 1.796875,-3.328125 1.828125,-3.546875 1.875,-3.78125 1.875,-3.875 1.875,-4.171875 1.703125,-4.390625 1.484375,-4.390625 1,-4.390625 0.328125,-3.625 0.21875,-3.4375 c 0,0.0625 0.0625,0.1875 0.09375,0.1875 0.03125,-0.03125 0.484375,-0.59375 0.703125,-0.59375 0.09375,0 0.09375,0.171875 0.09375,0.265625 0,0.046875 -0.03125,0.265625 -0.046875,0.3125 L 0.484375,0 C 0.59375,0.015625 0.71875,0.03125 0.84375,0.03125 0.953125,0.03125 1.078125,0.015625 1.1875,0 l 0.234375,-1.21875 c 0.1875,-1.046875 1.03125,-2.453125 1.390625,-2.453125 0.078125,0 0.171875,0.015625 0.203125,0.078125 0.078125,0.078125 0.21875,0.140625 0.296875,0.140625 0.234375,0 0.359375,-0.1875 0.359375,-0.4375 C 3.671875,-4 3.625,-4.125 3.59375,-4.171875 3.5,-4.28125 3.3125,-4.390625 3.09375,-4.390625 Z m 0,0"
           id="path1108" /></symbol></g></defs><sodipodi:namedview
     inkscape:current-layer="Level_1"
     inkscape:window-maximized="1"
     inkscape:window-y="-8"
     inkscape:window-x="-8"
     inkscape:cy="534.51783"
     inkscape:cx="735.14929"
     inkscape:zoom="0.43229167"
     showgrid="false"
     id="namedview29"
     inkscape:window-height="837"
     inkscape:window-width="1600"
     inkscape:pageshadow="2"
     inkscape:pageopacity="0"
     guidetolerance="10"
     gridtolerance="10"
     objecttolerance="10"
     borderopacity="1"
     bordercolor="#666666"
     pagecolor="#ffffff" /><text
     id="text2"
     font-size="22"
     font-weight="bold"
     font-family="Arial"
     fill="#00265a"
     y="50"
     x="84">iColorpalette</text><text
     id="text4"
     fill="#868e76"
     y="55"
     x="564">https://icolorpalette.com/p/411270</text><line
     id="line6"
     stroke="#E5E6E4"
     y2="70"
     x2="995"
     y1="70"
     x1="46" /><text
     id="text8"
     font-size="20"
     fill="#868e96"
     y="670"
     x="76">#d8b175</text><text
     id="text10"
     font-size="20"
     fill="#868e96"
     y="670"
     x="278">#435460</text><text
     id="text12"
     font-size="20"
     fill="#868e96"
     y="670"
     x="470">#a1724e</text><text
     id="text14"
     font-size="20"
     fill="#868e96"
     y="670"
     x="662">#d49459</text><text
     id="text16"
     font-size="20"
     fill="#868e96"
     y="670"
     x="854">#c8b585</text><rect
     id="rect18"
     y="84"
     x="46"
     fill="#d8b175"
     height="550"
     width="180" /><rect
     id="rect20"
     y="84"
     x="238"
     fill="#435460"
     height="550"
     width="180" /><rect
     id="rect22"
     y="84"
     x="430"
     fill="#a1724e"
     height="550"
     width="180" /><rect
     id="rect24"
     y="84"
     x="622"
     fill="#d49459"
     height="550"
     width="180" /><rect
     id="rect26"
     y="84"
     x="814"
     fill="#c8b585"
     height="550"
     width="180" /><text
     x="1150.3915"
     y="44.844883"
     fill="#00265a"
     font-family="Arial"
     font-weight="bold"
     font-size="22px"
     id="text2-4">iColorpalette</text><text
     x="1570.3915"
     y="49.844883"
     fill="#868e76"
     id="text4-4">https://icolorpalette.com/c1c9b7_e95a22_215993_9c594c_e35962</text><line
     x1="1112.3915"
     y1="64.844887"
     x2="2061.3916"
     y2="64.844887"
     stroke="#e5e6e4"
     id="line6-0" /><text
     x="1142.3915"
     y="664.84491"
     fill="#868e96"
     font-size="20px"
     id="text8-7">#c1c9b7</text><text
     x="1344.3915"
     y="664.84491"
     fill="#868e96"
     font-size="20px"
     id="text10-1">#e95a22</text><text
     x="1536.3915"
     y="664.84491"
     fill="#868e96"
     font-size="20px"
     id="text12-4">#215993</text><text
     x="1728.3915"
     y="664.84491"
     fill="#868e96"
     font-size="20px"
     id="text14-3">#9c594c</text><text
     x="1920.3915"
     y="664.84491"
     fill="#868e96"
     font-size="20px"
     id="text16-4">#e35962</text><rect
     width="180"
     height="550"
     fill="#c1c9b7"
     x="1112.3915"
     y="78.844887"
     id="rect18-9" /><rect
     width="180"
     height="550"
     fill="#e95a22"
     x="1304.3915"
     y="78.844887"
     id="rect20-1" /><rect
     width="180"
     height="550"
     fill="#215993"
     x="1496.3915"
     y="78.844887"
     id="rect22-4" /><rect
     width="180"
     height="550"
     fill="#9c594c"
     x="1688.3915"
     y="78.844887"
     id="rect24-3" /><rect
     width="180"
     height="550"
     fill="#e35962"
     x="1880.3915"
     y="78.844887"
     id="rect26-9" /><path
     style="fill:none;stroke:#191719;stroke-width:0.999999;stroke-linecap:round;stroke-linejoin:miter;stroke-miterlimit:4;stroke-dasharray:none;stroke-opacity:1;marker-end:url(#Arrow1Mend)"
     d="m 119.10444,948.52304 h 195.212"
     id="path6717" /><path
     id="path6717-8"
     d="M 144.6904,1091.279 V 853.07388"
     style="fill:none;stroke:#191719;stroke-width:0.999999;stroke-linecap:round;stroke-linejoin:miter;stroke-miterlimit:4;stroke-dasharray:none;stroke-opacity:1;marker-end:url(#Arrow1Mend-1)" /><path
     id="path7015-2"
     d="m 307.66264,986.72314 v 80.47206"
     style="fill:none;stroke:#000000;stroke-width:0.749998;stroke-linecap:round;stroke-linejoin:miter;stroke-miterlimit:4;stroke-dasharray:none;stroke-opacity:1;marker-start:url(#Arrow1Mstart-8);marker-end:url(#marker7034)" /><g
     transform="matrix(1.2,0,0,1.2,165.39468,1105.3107)"
     ns10:version="1.1.0"
     ns10:texconverter="pdflatex"
     ns10:pdfconverter="inkscape"
     ns10:text="(a)"
     ns10:preamble="C:\\Users\\flvisa\\Desktop\\lna\\latexify_books\\textext_preamble.tex"
     ns10:scale="0.9"
     ns10:alignment="middle center"
     ns10:inkscapeversion="1.0"
     ns10:jacobian_sqrt="0.3175"
     id="g4799"><defs
       id="id-faf43870-1a49-4ab3-8801-eee00f68731e"><g
         id="g1049"><symbol
           id="symbol1035"
           overflow="visible"><path
             id="path1033"
             d="M 0.5,0 H 4.484375 V -4.8125 H 0.5 Z M 1,-0.5 V -4.3125 H 3.984375 V -0.5 Z m 0,0"
             style="stroke:none" /></symbol><symbol
           id="symbol1039"
           overflow="visible"><path
             id="path1037"
             d="M 1.0625,-2.765625 C 1.0625,-4.3125 1.578125,-6 2.5,-6.8125 c 0,0 -0.125,-0.140625 -0.203125,-0.1875 -1.125,0.90625 -1.9375,2.328125 -1.9375,4.234375 0,1.875 0.8125,3.328125 1.9375,4.21875 C 2.375,1.421875 2.5,1.265625 2.5,1.265625 1.578125,0.453125 1.0625,-1.25 1.0625,-2.765625 Z m 0,0"
             style="stroke:none" /></symbol><symbol
           id="symbol1043"
           overflow="visible"><path
             id="path1041"
             d="m 1.84375,-0.453125 c -0.375,0 -0.671875,-0.328125 -0.671875,-0.6875 0,-0.390625 0.25,-0.640625 0.609375,-0.78125 C 1.96875,-2 2.453125,-2.140625 2.71875,-2.21875 v 1.359375 c 0,0.109375 -0.53125,0.40625 -0.875,0.40625 z M 2.375,-4.34375 c -0.71875,0 -1.484375,0.53125 -1.78125,0.8125 -0.046875,0.046875 -0.078125,0.203125 -0.078125,0.234375 0,0.21875 0.125,0.421875 0.328125,0.421875 0.25,0 0.40625,-0.140625 0.46875,-0.46875 0.0625,-0.390625 0.1875,-0.640625 0.546875,-0.640625 0.484375,0 0.859375,0.515625 0.859375,0.96875 V -2.75 c 0,0.171875 -0.03125,0.21875 -0.125,0.25 -0.28125,0.140625 -1.171875,0.421875 -1.71875,0.625 -0.234375,0.078125 -0.5,0.40625 -0.5,0.8125 0,0.640625 0.5,1.140625 1.140625,1.140625 0.34375,0 1.109375,-0.53125 1.21875,-0.65625 C 2.796875,-0.28125 3.0625,0.0625 3.34375,0.0625 c 0.203125,0 0.609375,-0.265625 0.734375,-0.375 C 4.109375,-0.359375 4.125,-0.4375 4.125,-0.5 c 0,-0.03125 -0.015625,-0.078125 -0.03125,-0.078125 -0.03125,0.015625 -0.15625,0.125 -0.328125,0.125 -0.234375,0 -0.3125,-0.203125 -0.3125,-0.46875 V -2.96875 c 0,-0.765625 -0.515625,-1.375 -1.078125,-1.375 z m 0,0"
             style="stroke:none" /></symbol><symbol
           id="symbol1047"
           overflow="visible"><path
             id="path1045"
             d="M 2.1875,-2.765625 C 2.1875,-4.671875 1.375,-6.09375 0.234375,-7 c -0.0625,0.046875 -0.1875,0.1875 -0.171875,0.1875 0.921875,0.8125 1.40625,2.5 1.40625,4.046875 0,1.515625 -0.484375,3.21875 -1.40625,4.03125 -0.015625,0 0.109375,0.15625 0.171875,0.1875 C 1.375,0.5625 2.1875,-0.890625 2.1875,-2.765625 Z m 0,0"
             style="stroke:none" /></symbol></g></defs><g
       transform="translate(-149.071,-127.765)"
       id="id-c8c26711-a2d7-4ece-ad7a-a514e2d17e01"><g
         id="id-c9bb0390-ef43-4594-a5fa-5d71f82d95ac"
         style="fill:#000000;fill-opacity:1"><g
           transform="translate(148.712,134.765)"
           id="g4787"><path
             id="id-d63f5d95-79cf-4727-bb62-c01426f194a5"
             d="M 1.0625,-2.765625 C 1.0625,-4.3125 1.578125,-6 2.5,-6.8125 c 0,0 -0.125,-0.140625 -0.203125,-0.1875 -1.125,0.90625 -1.9375,2.328125 -1.9375,4.234375 0,1.875 0.8125,3.328125 1.9375,4.21875 C 2.375,1.421875 2.5,1.265625 2.5,1.265625 1.578125,0.453125 1.0625,-1.25 1.0625,-2.765625 Z m 0,0"
             style="stroke:none" /></g></g><g
         id="id-a9468e3b-4417-43e0-bd9a-37c69bd15dc2"
         style="fill:#000000;fill-opacity:1"><g
           transform="translate(151.013,134.765)"
           id="g4791"><path
             id="id-785e8ea4-07d8-4820-8458-b6a814a7c855"
             d="m 1.84375,-0.453125 c -0.375,0 -0.671875,-0.328125 -0.671875,-0.6875 0,-0.390625 0.25,-0.640625 0.609375,-0.78125 C 1.96875,-2 2.453125,-2.140625 2.71875,-2.21875 v 1.359375 c 0,0.109375 -0.53125,0.40625 -0.875,0.40625 z M 2.375,-4.34375 c -0.71875,0 -1.484375,0.53125 -1.78125,0.8125 -0.046875,0.046875 -0.078125,0.203125 -0.078125,0.234375 0,0.21875 0.125,0.421875 0.328125,0.421875 0.25,0 0.40625,-0.140625 0.46875,-0.46875 0.0625,-0.390625 0.1875,-0.640625 0.546875,-0.640625 0.484375,0 0.859375,0.515625 0.859375,0.96875 V -2.75 c 0,0.171875 -0.03125,0.21875 -0.125,0.25 -0.28125,0.140625 -1.171875,0.421875 -1.71875,0.625 -0.234375,0.078125 -0.5,0.40625 -0.5,0.8125 0,0.640625 0.5,1.140625 1.140625,1.140625 0.34375,0 1.109375,-0.53125 1.21875,-0.65625 C 2.796875,-0.28125 3.0625,0.0625 3.34375,0.0625 c 0.203125,0 0.609375,-0.265625 0.734375,-0.375 C 4.109375,-0.359375 4.125,-0.4375 4.125,-0.5 c 0,-0.03125 -0.015625,-0.078125 -0.03125,-0.078125 -0.03125,0.015625 -0.15625,0.125 -0.328125,0.125 -0.234375,0 -0.3125,-0.203125 -0.3125,-0.46875 V -2.96875 c 0,-0.765625 -0.515625,-1.375 -1.078125,-1.375 z m 0,0"
             style="stroke:none" /></g></g><g
         id="id-9ee12d67-b8f1-4ed2-8e03-8dc82bd17090"
         style="fill:#000000;fill-opacity:1"><g
           transform="translate(155.108,134.765)"
           id="g4795"><path
             id="id-ace669c5-454b-4fbb-83c6-7c0947f364e9"
             d="M 2.1875,-2.765625 C 2.1875,-4.671875 1.375,-6.09375 0.234375,-7 c -0.0625,0.046875 -0.1875,0.1875 -0.171875,0.1875 0.921875,0.8125 1.40625,2.5 1.40625,4.046875 0,1.515625 -0.484375,3.21875 -1.40625,4.03125 -0.015625,0 0.109375,0.15625 0.171875,0.1875 C 1.375,0.5625 2.1875,-0.890625 2.1875,-2.765625 Z m 0,0"
             style="stroke:none" /></g></g></g></g><g
     transform="matrix(1.2,0,0,1.2,192.79091,1109.6446)"
     ns10:version="1.1.0"
     ns10:texconverter="pdflatex"
     ns10:pdfconverter="inkscape"
     ns10:text="(b)"
     ns10:preamble="C:\\Users\\flvisa\\Desktop\\lna\\latexify_books\\textext_preamble.tex"
     ns10:scale="0.9"
     ns10:alignment="middle center"
     ns10:inkscapeversion="1.0"
     ns10:jacobian_sqrt="0.3175"
     id="g5497"><defs
       id="id-a60936d2-eebf-464e-98a2-5fe3c74bc1a0"><g
         id="g1079"><symbol
           id="symbol1065"
           overflow="visible"><path
             id="path1063"
             d="M 0.5,0 H 4.484375 V -4.8125 H 0.5 Z M 1,-0.5 V -4.3125 H 3.984375 V -0.5 Z m 0,0"
             style="stroke:none" /></symbol><symbol
           id="symbol1069"
           overflow="visible"><path
             id="path1067"
             d="M 1.0625,-2.765625 C 1.0625,-4.3125 1.578125,-6 2.5,-6.8125 c 0,0 -0.125,-0.140625 -0.203125,-0.1875 -1.125,0.90625 -1.9375,2.328125 -1.9375,4.234375 0,1.875 0.8125,3.328125 1.9375,4.21875 C 2.375,1.421875 2.5,1.265625 2.5,1.265625 1.578125,0.453125 1.0625,-1.25 1.0625,-2.765625 Z m 0,0"
             style="stroke:none" /></symbol><symbol
           id="symbol1073"
           overflow="visible"><path
             id="path1071"
             d="m 2.09375,0.0625 c 1.40625,0 2.4375,-1.0625 2.4375,-2.328125 0,-0.890625 -0.625,-2 -1.8125,-2 -0.375,0 -1.046875,0.421875 -1.203125,0.53125 C 1.453125,-3.6875 1.46875,-3.78125 1.46875,-3.84375 V -5.75 c 0,-0.546875 0.09375,-0.84375 0.09375,-0.84375 0,-0.078125 -0.046875,-0.171875 -0.09375,-0.171875 C 1.046875,-6.5625 0.5625,-6.421875 0.0625,-6.375 c -0.046875,0.015625 -0.015625,0.265625 -0.015625,0.265625 0.28125,0 0.546875,0.03125 0.609375,0.171875 0.046875,0.109375 0.046875,0.375 0.046875,0.5 v 4.375 c 0,0.1875 -0.015625,0.515625 -0.109375,0.71875 0,0.046875 0.078125,0.203125 0.125,0.203125 0.21875,-0.078125 0.421875,0 0.640625,0.0625 C 1.578125,-0.015625 1.9375,0.0625 2.09375,0.0625 Z M 2.25,-3.6875 c 0.890625,0 1.453125,0.671875 1.453125,1.796875 0,0.796875 -0.609375,1.625 -1.328125,1.625 -0.4375,0 -0.90625,-0.265625 -0.90625,-0.6875 V -3.3125 c 0,-0.0625 0,-0.09375 0.03125,-0.109375 C 1.59375,-3.515625 2,-3.6875 2.25,-3.6875 Z m 0,0"
             style="stroke:none" /></symbol><symbol
           id="symbol1077"
           overflow="visible"><path
             id="path1075"
             d="M 2.1875,-2.765625 C 2.1875,-4.671875 1.375,-6.09375 0.234375,-7 c -0.0625,0.046875 -0.1875,0.1875 -0.171875,0.1875 0.921875,0.8125 1.40625,2.5 1.40625,4.046875 0,1.515625 -0.484375,3.21875 -1.40625,4.03125 -0.015625,0 0.109375,0.15625 0.171875,0.1875 C 1.375,0.5625 2.1875,-0.890625 2.1875,-2.765625 Z m 0,0"
             style="stroke:none" /></symbol></g></defs><g
       transform="translate(-149.071,-127.765)"
       id="id-a8050e8c-b21b-4aba-8ce1-e8a06c16b849"><g
         id="id-a12f1108-a139-4bf1-ab0e-571090b93b8c"
         style="fill:#000000;fill-opacity:1"><g
           transform="translate(148.712,134.765)"
           id="g5486"><path
             id="id-2cadfabc-5e8c-4ce4-8301-44d647f0630d"
             d="M 1.0625,-2.765625 C 1.0625,-4.3125 1.578125,-6 2.5,-6.8125 c 0,0 -0.125,-0.140625 -0.203125,-0.1875 -1.125,0.90625 -1.9375,2.328125 -1.9375,4.234375 0,1.875 0.8125,3.328125 1.9375,4.21875 C 2.375,1.421875 2.5,1.265625 2.5,1.265625 1.578125,0.453125 1.0625,-1.25 1.0625,-2.765625 Z m 0,0"
             style="stroke:none" /></g><g
           transform="translate(151.252,134.765)"
           id="g5489"><path
             id="id-6b09b203-062c-4c04-9645-948977a76ed0"
             d="m 2.09375,0.0625 c 1.40625,0 2.4375,-1.0625 2.4375,-2.328125 0,-0.890625 -0.625,-2 -1.8125,-2 -0.375,0 -1.046875,0.421875 -1.203125,0.53125 C 1.453125,-3.6875 1.46875,-3.78125 1.46875,-3.84375 V -5.75 c 0,-0.546875 0.09375,-0.84375 0.09375,-0.84375 0,-0.078125 -0.046875,-0.171875 -0.09375,-0.171875 C 1.046875,-6.5625 0.5625,-6.421875 0.0625,-6.375 c -0.046875,0.015625 -0.015625,0.265625 -0.015625,0.265625 0.28125,0 0.546875,0.03125 0.609375,0.171875 0.046875,0.109375 0.046875,0.375 0.046875,0.5 v 4.375 c 0,0.1875 -0.015625,0.515625 -0.109375,0.71875 0,0.046875 0.078125,0.203125 0.125,0.203125 0.21875,-0.078125 0.421875,0 0.640625,0.0625 C 1.578125,-0.015625 1.9375,0.0625 2.09375,0.0625 Z M 2.25,-3.6875 c 0.890625,0 1.453125,0.671875 1.453125,1.796875 0,0.796875 -0.609375,1.625 -1.328125,1.625 -0.4375,0 -0.90625,-0.265625 -0.90625,-0.6875 V -3.3125 c 0,-0.0625 0,-0.09375 0.03125,-0.109375 C 1.59375,-3.515625 2,-3.6875 2.25,-3.6875 Z m 0,0"
             style="stroke:none" /></g></g><g
         id="id-c9a2e0af-7ade-4056-8122-cb6852fdfd94"
         style="fill:#000000;fill-opacity:1"><g
           transform="translate(155.865,134.765)"
           id="g5493"><path
             id="id-f170b708-d81d-4d98-9dab-b6deaebe0726"
             d="M 2.1875,-2.765625 C 2.1875,-4.671875 1.375,-6.09375 0.234375,-7 c -0.0625,0.046875 -0.1875,0.1875 -0.171875,0.1875 0.921875,0.8125 1.40625,2.5 1.40625,4.046875 0,1.515625 -0.484375,3.21875 -1.40625,4.03125 -0.015625,0 0.109375,0.15625 0.171875,0.1875 C 1.375,0.5625 2.1875,-0.890625 2.1875,-2.765625 Z m 0,0"
             style="stroke:none" /></g></g></g></g><g
     id="g10171"
     ns10:jacobian_sqrt="0.423334"
     ns10:inkscapeversion="1.0"
     ns10:alignment="middle center"
     ns10:scale="1.2"
     ns10:preamble="C:\\Users\\flvisa\\Desktop\\lna\\latexify_books\\textext_preamble.tex"
     ns10:text="$U$"
     ns10:pdfconverter="inkscape"
     ns10:texconverter="pdflatex"
     ns10:version="1.1.0"
     transform="matrix(1.6000025,0,0,1.6000025,237.99895,1022.5106)"><defs
       id="id-8af9d8a7-6fd8-451c-a48f-668054cf8b9c"><g
         id="g1100"><symbol
           overflow="visible"
           id="symbol1094"><path
             style="stroke:none"
             d=""
             id="path1092" /></symbol><symbol
           overflow="visible"
           id="symbol1098"><path
             style="stroke:none"
             d="m 2.84375,0.046875 c 1.46875,0 2.4375,-0.8125 2.828125,-2.828125 l 0.53125,-2.734375 C 6.265625,-5.890625 6.3125,-6.046875 6.4375,-6.1875 6.515625,-6.3125 7.09375,-6.40625 7.203125,-6.40625 7.28125,-6.515625 7.28125,-6.640625 7.25,-6.6875 c -0.4375,0.015625 -0.59375,0.046875 -1.03125,0.046875 -0.40625,0 -0.640625,-0.03125 -1,-0.046875 -0.03125,0.0625 -0.078125,0.21875 -0.046875,0.28125 0.15625,0 0.59375,0.109375 0.625,0.21875 0.03125,0.0625 0.046875,0.125 0.046875,0.203125 0,0.125 -0.03125,0.265625 -0.078125,0.484375 l -0.53125,2.734375 c -0.359375,1.734375 -1.09375,2.21875 -2.0625,2.21875 -0.921875,0 -1.375,-0.515625 -1.375,-1.484375 0,-0.28125 0.03125,-0.59375 0.09375,-0.953125 l 0.484375,-2.5 C 2.4375,-5.78125 2.5,-6.0625 2.578125,-6.21875 2.625,-6.328125 3.140625,-6.390625 3.25,-6.390625 3.296875,-6.4375 3.34375,-6.625 3.3125,-6.671875 2.921875,-6.65625 2.5625,-6.625 2.203125,-6.625 c -0.359375,0 -0.71875,-0.03125 -1.09375,-0.046875 -0.0625,0.046875 -0.09375,0.234375 -0.0625,0.28125 0.109375,0 0.609375,0.0625 0.625,0.171875 v 0.0625 c 0,0.171875 -0.0625,0.421875 -0.109375,0.671875 L 0.984375,-2.53125 c -0.03125,0.234375 -0.0625,0.453125 -0.0625,0.65625 0,1.203125 0.765625,1.921875 1.921875,1.921875 z m 0,0"
             id="path1096" /></symbol></g></defs><g
       id="id-f7db151d-118e-4dce-b363-c91e27dddfce"
       transform="translate(-149.335,-128.077)"><g
         style="fill:#000000;fill-opacity:1"
         id="id-1a6cb097-c9cb-4994-9187-9312ea9c841f"><g
           id="g10167"
           transform="translate(148.413,134.765)"><path
             style="stroke:none"
             d="m 2.84375,0.046875 c 1.46875,0 2.4375,-0.8125 2.828125,-2.828125 l 0.53125,-2.734375 C 6.265625,-5.890625 6.3125,-6.046875 6.4375,-6.1875 6.515625,-6.3125 7.09375,-6.40625 7.203125,-6.40625 7.28125,-6.515625 7.28125,-6.640625 7.25,-6.6875 c -0.4375,0.015625 -0.59375,0.046875 -1.03125,0.046875 -0.40625,0 -0.640625,-0.03125 -1,-0.046875 -0.03125,0.0625 -0.078125,0.21875 -0.046875,0.28125 0.15625,0 0.59375,0.109375 0.625,0.21875 0.03125,0.0625 0.046875,0.125 0.046875,0.203125 0,0.125 -0.03125,0.265625 -0.078125,0.484375 l -0.53125,2.734375 c -0.359375,1.734375 -1.09375,2.21875 -2.0625,2.21875 -0.921875,0 -1.375,-0.515625 -1.375,-1.484375 0,-0.28125 0.03125,-0.59375 0.09375,-0.953125 l 0.484375,-2.5 C 2.4375,-5.78125 2.5,-6.0625 2.578125,-6.21875 2.625,-6.328125 3.140625,-6.390625 3.25,-6.390625 3.296875,-6.4375 3.34375,-6.625 3.3125,-6.671875 2.921875,-6.65625 2.5625,-6.625 2.203125,-6.625 c -0.359375,0 -0.71875,-0.03125 -1.09375,-0.046875 -0.0625,0.046875 -0.09375,0.234375 -0.0625,0.28125 0.109375,0 0.609375,0.0625 0.625,0.171875 v 0.0625 c 0,0.171875 -0.0625,0.421875 -0.109375,0.671875 L 0.984375,-2.53125 c -0.03125,0.234375 -0.0625,0.453125 -0.0625,0.65625 0,1.203125 0.765625,1.921875 1.921875,1.921875 z m 0,0"
             id="id-cbd45ffd-d921-46bd-b226-4cf64b6baea9" /></g></g></g></g><g
     id="g10392"
     ns10:jacobian_sqrt="0.423334"
     ns10:inkscapeversion="1.0"
     ns10:alignment="middle center"
     ns10:scale="1.2"
     ns10:preamble="C:\\Users\\flvisa\\Desktop\\lna\\latexify_books\\textext_preamble.tex"
     ns10:text="$\\ab{U}{b}$"
     ns10:pdfconverter="inkscape"
     ns10:texconverter="pdflatex"
     ns10:version="1.1.0"
     transform="matrix(1.6000025,0,0,1.6000025,233.55155,992.75664)"><defs
       id="id-35914901-2ca0-41d8-b74d-8b473ee4b753"><g
         id="g1125"><symbol
           overflow="visible"
           id="symbol1111"><path
             style="stroke:none"
             d=""
             id="path1109" /></symbol><symbol
           overflow="visible"
           id="symbol1115"><path
             style="stroke:none"
             d="m 2.84375,0.046875 c 1.46875,0 2.4375,-0.8125 2.828125,-2.828125 l 0.53125,-2.734375 C 6.265625,-5.890625 6.3125,-6.046875 6.4375,-6.1875 6.515625,-6.3125 7.09375,-6.40625 7.203125,-6.40625 7.28125,-6.515625 7.28125,-6.640625 7.25,-6.6875 c -0.4375,0.015625 -0.59375,0.046875 -1.03125,0.046875 -0.40625,0 -0.640625,-0.03125 -1,-0.046875 -0.03125,0.0625 -0.078125,0.21875 -0.046875,0.28125 0.15625,0 0.59375,0.109375 0.625,0.21875 0.03125,0.0625 0.046875,0.125 0.046875,0.203125 0,0.125 -0.03125,0.265625 -0.078125,0.484375 l -0.53125,2.734375 c -0.359375,1.734375 -1.09375,2.21875 -2.0625,2.21875 -0.921875,0 -1.375,-0.515625 -1.375,-1.484375 0,-0.28125 0.03125,-0.59375 0.09375,-0.953125 l 0.484375,-2.5 C 2.4375,-5.78125 2.5,-6.0625 2.578125,-6.21875 2.625,-6.328125 3.140625,-6.390625 3.25,-6.390625 3.296875,-6.4375 3.34375,-6.625 3.3125,-6.671875 2.921875,-6.65625 2.5625,-6.625 2.203125,-6.625 c -0.359375,0 -0.71875,-0.03125 -1.09375,-0.046875 -0.0625,0.046875 -0.09375,0.234375 -0.0625,0.28125 0.109375,0 0.609375,0.0625 0.625,0.171875 v 0.0625 c 0,0.171875 -0.0625,0.421875 -0.109375,0.671875 L 0.984375,-2.53125 c -0.03125,0.234375 -0.0625,0.453125 -0.0625,0.65625 0,1.203125 0.765625,1.921875 1.921875,1.921875 z m 0,0"
             id="path1113" /></symbol><symbol
           overflow="visible"
           id="symbol1119"><path
             style="stroke:none"
             d="m 0.359375,0 h 2.90625 V -3.515625 H 0.359375 Z M 0.71875,-0.359375 v -2.78125 h 2.1875 v 2.78125 z m 0,0"
             id="path1117" /></symbol><symbol
           overflow="visible"
           id="symbol1123"><path
             style="stroke:none"
             d="m 1.53125,0.046875 c 1.015625,0 1.765625,-0.765625 1.765625,-1.703125 0,-0.640625 -0.453125,-1.453125 -1.3125,-1.453125 -0.28125,0 -0.765625,0.3125 -0.875,0.390625 C 1.0625,-2.6875 1.0625,-2.765625 1.0625,-2.796875 V -4.1875 c 0,-0.390625 0.078125,-0.625 0.078125,-0.625 0,-0.046875 -0.03125,-0.109375 -0.078125,-0.109375 -0.296875,0.140625 -0.65625,0.25 -1.015625,0.28125 -0.03125,0 -0.015625,0.1875 -0.015625,0.1875 0.203125,0 0.390625,0.015625 0.453125,0.125 0.03125,0.078125 0.03125,0.28125 0.03125,0.375 v 3.171875 c 0,0.15625 -0.015625,0.375 -0.09375,0.53125 0,0.03125 0.0625,0.140625 0.09375,0.140625 0.171875,-0.046875 0.3125,0 0.484375,0.046875 0.140625,0.046875 0.40625,0.109375 0.53125,0.109375 z M 1.640625,-2.6875 c 0.640625,0 1.0625,0.5 1.0625,1.3125 0,0.578125 -0.4375,1.1875 -0.96875,1.1875 -0.3125,0 -0.671875,-0.203125 -0.671875,-0.515625 v -1.71875 c 0,-0.03125 0.015625,-0.0625 0.03125,-0.078125 0.0625,-0.0625 0.359375,-0.1875 0.546875,-0.1875 z m 0,0"
             id="path1121" /></symbol></g></defs><g
       id="id-22bceb94-cb71-4f38-9233-28ed2d90fb70"
       transform="translate(-149.335,-128.077)"><g
         style="fill:#000000;fill-opacity:1"
         id="id-89757ef5-c34d-4265-8f31-cfefbb833faf"><g
           id="g10384"
           transform="translate(148.413,134.765)"><path
             style="stroke:none"
             d="m 2.84375,0.046875 c 1.46875,0 2.4375,-0.8125 2.828125,-2.828125 l 0.53125,-2.734375 C 6.265625,-5.890625 6.3125,-6.046875 6.4375,-6.1875 6.515625,-6.3125 7.09375,-6.40625 7.203125,-6.40625 7.28125,-6.515625 7.28125,-6.640625 7.25,-6.6875 c -0.4375,0.015625 -0.59375,0.046875 -1.03125,0.046875 -0.40625,0 -0.640625,-0.03125 -1,-0.046875 -0.03125,0.0625 -0.078125,0.21875 -0.046875,0.28125 0.15625,0 0.59375,0.109375 0.625,0.21875 0.03125,0.0625 0.046875,0.125 0.046875,0.203125 0,0.125 -0.03125,0.265625 -0.078125,0.484375 l -0.53125,2.734375 c -0.359375,1.734375 -1.09375,2.21875 -2.0625,2.21875 -0.921875,0 -1.375,-0.515625 -1.375,-1.484375 0,-0.28125 0.03125,-0.59375 0.09375,-0.953125 l 0.484375,-2.5 C 2.4375,-5.78125 2.5,-6.0625 2.578125,-6.21875 2.625,-6.328125 3.140625,-6.390625 3.25,-6.390625 3.296875,-6.4375 3.34375,-6.625 3.3125,-6.671875 2.921875,-6.65625 2.5625,-6.625 2.203125,-6.625 c -0.359375,0 -0.71875,-0.03125 -1.09375,-0.046875 -0.0625,0.046875 -0.09375,0.234375 -0.0625,0.28125 0.109375,0 0.609375,0.0625 0.625,0.171875 v 0.0625 c 0,0.171875 -0.0625,0.421875 -0.109375,0.671875 L 0.984375,-2.53125 c -0.03125,0.234375 -0.0625,0.453125 -0.0625,0.65625 0,1.203125 0.765625,1.921875 1.921875,1.921875 z m 0,0"
             id="id-ce6b1a08-d4b5-4caf-9ea2-9da5433d1f63" /></g></g><g
         style="fill:#000000;fill-opacity:1"
         id="id-a42849e1-2da1-4efb-9b8c-6f8b5481e552"><g
           id="g10388"
           transform="translate(155.158,136.283)"><path
             style="stroke:none"
             d="m 1.53125,0.046875 c 1.015625,0 1.765625,-0.765625 1.765625,-1.703125 0,-0.640625 -0.453125,-1.453125 -1.3125,-1.453125 -0.28125,0 -0.765625,0.3125 -0.875,0.390625 C 1.0625,-2.6875 1.0625,-2.765625 1.0625,-2.796875 V -4.1875 c 0,-0.390625 0.078125,-0.625 0.078125,-0.625 0,-0.046875 -0.03125,-0.109375 -0.078125,-0.109375 -0.296875,0.140625 -0.65625,0.25 -1.015625,0.28125 -0.03125,0 -0.015625,0.1875 -0.015625,0.1875 0.203125,0 0.390625,0.015625 0.453125,0.125 0.03125,0.078125 0.03125,0.28125 0.03125,0.375 v 3.171875 c 0,0.15625 -0.015625,0.375 -0.09375,0.53125 0,0.03125 0.0625,0.140625 0.09375,0.140625 0.171875,-0.046875 0.3125,0 0.484375,0.046875 0.140625,0.046875 0.40625,0.109375 0.53125,0.109375 z M 1.640625,-2.6875 c 0.640625,0 1.0625,0.5 1.0625,1.3125 0,0.578125 -0.4375,1.1875 -0.96875,1.1875 -0.3125,0 -0.671875,-0.203125 -0.671875,-0.515625 v -1.71875 c 0,-0.03125 0.015625,-0.0625 0.03125,-0.078125 0.0625,-0.0625 0.359375,-0.1875 0.546875,-0.1875 z m 0,0"
             id="id-74b99f4c-1bc6-4f83-9d93-d57074f0ed0e" /></g></g></g></g><g
     id="g11089"
     ns10:jacobian_sqrt="0.423334"
     ns10:inkscapeversion="1.0"
     ns10:alignment="middle center"
     ns10:scale="1.1999999433071764"
     ns10:preamble="C:\\Users\\flvisa\\Desktop\\lna\\latexify_books\\textext_preamble.tex"
     ns10:text="$r$"
     ns10:pdfconverter="inkscape"
     ns10:texconverter="pdflatex"
     ns10:version="1.1.0"
     transform="matrix(1.6000025,0,0,1.6000025,219.52644,1010.1536)"><defs
       id="id-097e3b50-a553-4ed2-9f3e-eff1f6a3255f"><g
         id="g1144"><symbol
           overflow="visible"
           id="symbol1138"><path
             style="stroke:none"
             d=""
             id="path1136" /></symbol><symbol
           overflow="visible"
           id="symbol1142"><path
             style="stroke:none"
             d="m 3.09375,-4.390625 c -0.46875,0 -1.1875,1.234375 -1.46875,1.90625 C 1.6875,-2.8125 1.734375,-3 1.796875,-3.328125 1.828125,-3.546875 1.875,-3.78125 1.875,-3.875 1.875,-4.171875 1.703125,-4.390625 1.484375,-4.390625 1,-4.390625 0.328125,-3.625 0.21875,-3.4375 c 0,0.0625 0.0625,0.1875 0.09375,0.1875 0.03125,-0.03125 0.484375,-0.59375 0.703125,-0.59375 0.09375,0 0.09375,0.171875 0.09375,0.265625 0,0.046875 -0.03125,0.265625 -0.046875,0.3125 L 0.484375,0 C 0.59375,0.015625 0.71875,0.03125 0.84375,0.03125 0.953125,0.03125 1.078125,0.015625 1.1875,0 l 0.234375,-1.21875 c 0.1875,-1.046875 1.03125,-2.453125 1.390625,-2.453125 0.078125,0 0.171875,0.015625 0.203125,0.078125 0.078125,0.078125 0.21875,0.140625 0.296875,0.140625 0.234375,0 0.359375,-0.1875 0.359375,-0.4375 C 3.671875,-4 3.625,-4.125 3.59375,-4.171875 3.5,-4.28125 3.3125,-4.390625 3.09375,-4.390625 Z m 0,0"
             id="path1140" /></symbol></g></defs><g
       id="id-0ffc0d93-a88b-42a6-91a6-9c8da00e7ddf"
       transform="translate(-148.931,-130.374)"><g
         style="fill:#000000;fill-opacity:1"
         id="id-c969dcea-1865-4b4c-b56e-9ab9294e9013"><g
           id="g11085"
           transform="translate(148.712,134.765)"><path
             style="stroke:none"
             d="m 3.09375,-4.390625 c -0.46875,0 -1.1875,1.234375 -1.46875,1.90625 C 1.6875,-2.8125 1.734375,-3 1.796875,-3.328125 1.828125,-3.546875 1.875,-3.78125 1.875,-3.875 1.875,-4.171875 1.703125,-4.390625 1.484375,-4.390625 1,-4.390625 0.328125,-3.625 0.21875,-3.4375 c 0,0.0625 0.0625,0.1875 0.09375,0.1875 0.03125,-0.03125 0.484375,-0.59375 0.703125,-0.59375 0.09375,0 0.09375,0.171875 0.09375,0.265625 0,0.046875 -0.03125,0.265625 -0.046875,0.3125 L 0.484375,0 C 0.59375,0.015625 0.71875,0.03125 0.84375,0.03125 0.953125,0.03125 1.078125,0.015625 1.1875,0 l 0.234375,-1.21875 c 0.1875,-1.046875 1.03125,-2.453125 1.390625,-2.453125 0.078125,0 0.171875,0.015625 0.203125,0.078125 0.078125,0.078125 0.21875,0.140625 0.296875,0.140625 0.234375,0 0.359375,-0.1875 0.359375,-0.4375 C 3.671875,-4 3.625,-4.125 3.59375,-4.171875 3.5,-4.28125 3.3125,-4.390625 3.09375,-4.390625 Z m 0,0"
             id="id-6b94775d-0dc2-42f6-bbd4-89356dd0fe80" /></g></g></g></g></svg>
