<?xml version="1.0" encoding="UTF-8" standalone="no"?>
<svg
   xmlns:ns2="http://www.iki.fi/pav/software/textext/"
   xmlns:dc="http://purl.org/dc/elements/1.1/"
   xmlns:cc="http://creativecommons.org/ns#"
   xmlns:rdf="http://www.w3.org/1999/02/22-rdf-syntax-ns#"
   xmlns:svg="http://www.w3.org/2000/svg"
   xmlns="http://www.w3.org/2000/svg"
   xmlns:sodipodi="http://sodipodi.sourceforge.net/DTD/sodipodi-0.dtd"
   xmlns:inkscape="http://www.inkscape.org/namespaces/inkscape"
   width="48.039818mm"
   height="18.783789mm"
   viewBox="0 0 48.039818 18.783789"
   version="1.1"
   id="svg10093"
   inkscape:version="1.0.1 (3bc2e813f5, 2020-09-07)"
   sodipodi:docname="fig_7_1.svg">
  <defs
     id="defs10087">
    <marker
       style="overflow:visible"
       id="marker11959"
       refX="0"
       refY="0"
       orient="auto"
       inkscape:stockid="Arrow1Mend"
       inkscape:isstock="true">
      <path
         transform="matrix(-0.4,0,0,-0.4,-4,0)"
         style="fill:#506a65;fill-opacity:1;fill-rule:evenodd;stroke:#506a65;stroke-width:1pt;stroke-opacity:1"
         d="M 0,0 5,-5 -12.5,0 5,5 Z"
         id="path11957" />
    </marker>
    <marker
       style="overflow:visible"
       id="marker11154"
       refX="0"
       refY="0"
       orient="auto"
       inkscape:stockid="Arrow1Mend"
       inkscape:isstock="true"
       inkscape:collect="always">
      <path
         transform="matrix(-0.4,0,0,-0.4,-4,0)"
         style="fill:#506a65;fill-opacity:1;fill-rule:evenodd;stroke:#506a65;stroke-width:1pt;stroke-opacity:1"
         d="M 0,0 5,-5 -12.5,0 5,5 Z"
         id="path11152" />
    </marker>
    <marker
       style="overflow:visible"
       id="marker11144"
       refX="0"
       refY="0"
       orient="auto"
       inkscape:stockid="Arrow1Mend"
       inkscape:isstock="true">
      <path
         transform="matrix(-0.4,0,0,-0.4,-4,0)"
         style="fill:#506a65;fill-opacity:1;fill-rule:evenodd;stroke:#506a65;stroke-width:1pt;stroke-opacity:1"
         d="M 0,0 5,-5 -12.5,0 5,5 Z"
         id="path11142" />
    </marker>
    <marker
       style="overflow:visible"
       id="marker11015"
       refX="0"
       refY="0"
       orient="auto"
       inkscape:stockid="Arrow1Mend"
       inkscape:isstock="true"
       inkscape:collect="always">
      <path
         transform="matrix(-0.4,0,0,-0.4,-4,0)"
         style="fill:#506a65;fill-opacity:1;fill-rule:evenodd;stroke:#506a65;stroke-width:1pt;stroke-opacity:1"
         d="M 0,0 5,-5 -12.5,0 5,5 Z"
         id="path11013" />
    </marker>
    <marker
       style="overflow:visible"
       id="Arrow1Mend"
       refX="0"
       refY="0"
       orient="auto"
       inkscape:stockid="Arrow1Mend"
       inkscape:isstock="true"
       inkscape:collect="always">
      <path
         transform="matrix(-0.4,0,0,-0.4,-4,0)"
         style="fill:#506a65;fill-opacity:1;fill-rule:evenodd;stroke:#506a65;stroke-width:1pt;stroke-opacity:1"
         d="M 0,0 5,-5 -12.5,0 5,5 Z"
         id="path10696" />
    </marker>
    <pattern
       id="EMFhbasepattern"
       patternUnits="userSpaceOnUse"
       width="6"
       height="6"
       x="0"
       y="0" />
    <g
       id="id-b2ff1fdc-f72a-489a-9c0f-baedaa3015c7-7">
      <symbol
         overflow="visible"
         id="id-6802e867-ebd4-489c-90f4-21aff85ec3ca-8">
        <path
           style="stroke:none"
           d="M 0.5,0 H 4.484375 V -4.8125 H 0.5 Z M 1,-0.5 V -4.3125 H 3.984375 V -0.5 Z m 0,0"
           id="id-df85db8a-d7dd-4bdd-84dc-f1dfcb46c8c2-7" />
      </symbol>
      <symbol
         overflow="visible"
         id="id-2e4fcfef-162a-47da-861e-55050cd96820-4">
        <path
           style="stroke:none"
           d="M 2,-1.125 V -5.28125 C 2,-5.578125 2,-5.859375 2.046875,-6.015625 2.078125,-6.125 2.609375,-6.15625 2.71875,-6.15625 c 0.046875,-0.046875 0.046875,-0.234375 0,-0.28125 -0.390625,0.015625 -0.75,0.03125 -1.140625,0.03125 -0.375,0 -0.734375,-0.015625 -1.140625,-0.03125 -0.046875,0.046875 -0.03125,0.234375 0,0.28125 0.125,0 0.640625,0.03125 0.671875,0.140625 0.046875,0.15625 0.046875,0.4375 0.046875,0.734375 V -1.125 c 0,0.28125 0,0.5625 -0.046875,0.71875 C 1.078125,-0.296875 0.5625,-0.25 0.4375,-0.25 c -0.03125,0.046875 -0.046875,0.234375 0,0.28125 C 0.8125,0.03125 1.140625,0 1.59375,0 c 1.296875,0 2.265625,0.046875 3.328125,0.046875 0.0625,-0.4375 0.328125,-1.09375 0.515625,-1.625 -0.03125,-0.03125 -0.140625,-0.0625 -0.25,-0.0625 -0.0625,0 -0.109375,0.03125 -0.125,0.0625 -0.15625,0.515625 -0.375,0.8125 -0.609375,0.984375 -0.28125,0.1875 -0.78125,0.265625 -1.140625,0.265625 H 2.75 c -0.40625,0 -0.5625,0 -0.6875,-0.09375 C 2,-0.484375 2,-0.984375 2,-1.125 Z m 0,0"
           id="id-c3b5b219-d719-47c3-8707-3c6e3b848730-3" />
      </symbol>
      <symbol
         overflow="visible"
         id="id-29e16bc6-418b-4c0d-b052-39c3379b0390-9">
        <path
           style="stroke:none"
           d="m 2.40625,-4.046875 c 0.890625,0 1.375,1.109375 1.375,2.078125 0,0.859375 -0.296875,1.71875 -1.15625,1.71875 -0.890625,0 -1.375,-1.109375 -1.375,-2.078125 0,-0.859375 0.3125,-1.71875 1.15625,-1.71875 z M 2.515625,-4.375 c -1.203125,0 -2.109375,0.96875 -2.109375,2.25 0,1.25 0.8125,2.1875 2.125,2.1875 1.203125,0 2.09375,-0.984375 2.09375,-2.265625 0,-1.25 -0.8125,-2.171875 -2.109375,-2.171875 z m 0,0"
           id="id-f13499dd-00e8-4fa8-878e-99f1ab3420b3-9" />
      </symbol>
      <symbol
         overflow="visible"
         id="id-00e0d378-8b42-469d-b1da-16ced96f4a1e-4">
        <path
           style="stroke:none"
           d="m 2.859375,-4.359375 c -0.390625,0 -0.953125,0.34375 -1.203125,0.546875 -0.015625,0.015625 -0.015625,0.03125 -0.03125,0.03125 -0.015625,0 -0.015625,-0.03125 -0.015625,-0.046875 0,-0.078125 0.0625,-0.328125 0.0625,-0.40625 0,-0.015625 -0.0625,-0.046875 -0.109375,-0.046875 -0.390625,0.15625 -0.890625,0.25 -1.40625,0.296875 v 0.265625 c 0.078125,0 0.578125,0 0.65625,0.171875 0.046875,0.125 0.046875,0.390625 0.046875,0.515625 v 4.046875 c 0,0.296875 0,0.578125 -0.046875,0.75 C 0.78125,1.875 0.3125,1.90625 0.171875,1.90625 V 2.203125 C 0.59375,2.1875 0.84375,2.15625 1.21875,2.15625 c 0.390625,0 0.671875,0.03125 1.078125,0.046875 V 1.90625 C 2.15625,1.90625 1.6875,1.875 1.65625,1.765625 1.609375,1.609375 1.609375,1.328125 1.609375,1.03125 v -0.9375 c 0,-0.078125 0.03125,-0.125 0.03125,-0.125 0.15625,0.046875 0.4375,0.109375 0.6875,0.109375 1.125,0 2.328125,-1.109375 2.328125,-2.390625 0,-0.859375 -0.5625,-2.046875 -1.796875,-2.046875 z M 2.4375,-3.78125 c 0.765625,0 1.40625,0.65625 1.40625,1.84375 0,0.8125 -0.484375,1.671875 -1.3125,1.671875 -0.34375,0 -0.921875,-0.21875 -0.921875,-0.734375 v -2.40625 c 0,-0.125 0.421875,-0.375 0.828125,-0.375 z m 0,0"
           id="id-7e8ba272-f381-414a-a5da-136e30a9cff5-5" />
      </symbol>
    </g>
    <g
       id="id-5bdc5f6a-19f4-4292-995c-d5ab56faa273-6">
      <symbol
         overflow="visible"
         id="id-3f9c4f46-6679-4395-9389-c0e1df1c5bae-0">
        <path
           style="stroke:none"
           d=""
           id="id-3793220c-ab8b-4256-8a21-93e7d3f317ce-2" />
      </symbol>
      <symbol
         overflow="visible"
         id="id-d0c4cbe7-da4d-4365-b2ea-56f13388022f-2">
        <path
           style="stroke:none"
           d="M 2.359375,-6.625 C 2,-6.625 1.625,-6.65625 1.25,-6.671875 1.1875,-6.625 1.15625,-6.4375 1.1875,-6.390625 c 0.109375,0 0.609375,0.0625 0.609375,0.171875 v 0.078125 c 0,0.15625 -0.03125,0.40625 -0.078125,0.65625 L 0.875,-1.171875 C 0.8125,-0.875 0.765625,-0.59375 0.6875,-0.421875 0.640625,-0.3125 0.109375,-0.265625 0,-0.265625 c -0.046875,0.0625 -0.09375,0.25 -0.046875,0.296875 0.390625,-0.015625 0.75,-0.046875 1.109375,-0.046875 0.359375,0 0.71875,0.03125 1.09375,0.046875 0.0625,-0.046875 0.09375,-0.234375 0.0625,-0.296875 -0.109375,0 -0.609375,-0.046875 -0.625,-0.15625 V -0.5 c 0,-0.15625 0.046875,-0.40625 0.09375,-0.671875 l 0.84375,-4.3125 C 2.59375,-5.78125 2.640625,-6.0625 2.71875,-6.21875 2.765625,-6.328125 3.296875,-6.390625 3.40625,-6.390625 3.453125,-6.4375 3.5,-6.625 3.453125,-6.671875 3.078125,-6.65625 2.71875,-6.625 2.359375,-6.625 Z m 0,0"
           id="id-e52c62ab-0cfd-473c-ba15-79b8d03a1f24-4" />
      </symbol>
      <symbol
         overflow="visible"
         id="id-968b8e69-cdf3-4b11-8f2d-077cff9a4ddf-4">
        <path
           style="stroke:none"
           d=""
           id="id-b49c7671-b51a-47a9-b5f0-8aaa581a9789-0" />
      </symbol>
      <symbol
         overflow="visible"
         id="id-0fd48548-a035-4d73-aa09-805edbe68c5a-9">
        <path
           style="stroke:none"
           d="m 2.15625,-2.984375 c 0,-0.25 -0.265625,-0.4375 -0.5,-0.4375 -0.265625,0 -0.390625,0.265625 -0.46875,0.484375 l -0.75,2.203125 c -0.015625,0.0625 -0.078125,0.1875 -0.078125,0.25 0,0.0625 0.046875,0.15625 0.125,0.15625 0.109375,0 0.234375,-0.15625 0.28125,-0.234375 l 1.1875,-1.875 C 2.0625,-2.59375 2.15625,-2.796875 2.15625,-2.984375 Z m 0,0"
           id="id-312773f7-5bd3-490c-a615-aaf8a6447e69-5" />
      </symbol>
      <symbol
         overflow="visible"
         id="id-67e03e68-1c20-45b8-9951-b4e923adebc9-3">
        <path
           style="stroke:none"
           d="m 0.359375,0 h 2.90625 V -3.515625 H 0.359375 Z M 0.71875,-0.359375 v -2.78125 h 2.1875 v 2.78125 z m 0,0"
           id="id-eb18c07d-bdb3-468e-8c33-102d7c231418-4" />
      </symbol>
      <symbol
         overflow="visible"
         id="id-4bd509eb-6323-4361-bb01-8fe3490e9548-4">
        <path
           style="stroke:none"
           d="m 2.296875,-3.1875 c -0.390625,0 -0.765625,0.34375 -0.953125,0.484375 0,0.015625 0,0.015625 -0.015625,0.015625 -0.015625,0 -0.015625,-0.015625 -0.015625,-0.015625 0,-0.0625 0.03125,-0.328125 0.046875,-0.375 C 1.359375,-3.09375 1.3125,-3.125 1.265625,-3.125 0.984375,-3.015625 0.609375,-2.9375 0.25,-2.90625 v 0.203125 c 0.046875,0 0.421875,0 0.46875,0.125 0.03125,0.09375 0.03125,0.3125 0.03125,0.40625 v 1.328125 c 0,0.21875 0,0.421875 -0.03125,0.546875 C 0.703125,-0.21875 0.34375,-0.1875 0.265625,-0.1875 V 0.015625 C 0.546875,0 0.75,-0.015625 1.03125,-0.015625 1.3125,-0.015625 1.5,0 1.796875,0.015625 V -0.1875 c -0.09375,0 -0.4375,-0.03125 -0.453125,-0.109375 C 1.296875,-0.421875 1.296875,-0.625 1.296875,-0.84375 v -1.515625 c 0,-0.109375 0.359375,-0.40625 0.6875,-0.40625 0.515625,0 0.671875,0.28125 0.671875,1.1875 v 0.734375 c 0,0.21875 0,0.421875 -0.03125,0.546875 C 2.59375,-0.21875 2.265625,-0.1875 2.171875,-0.1875 v 0.203125 c 0.296875,-0.015625 0.46875,-0.03125 0.75,-0.03125 0.28125,0 0.484375,0.015625 0.78125,0.03125 V -0.1875 c -0.09375,0 -0.4375,-0.03125 -0.46875,-0.109375 C 3.203125,-0.421875 3.21875,-0.625 3.21875,-0.84375 v -0.890625 c 0,-0.140625 -0.015625,-0.375 -0.03125,-0.53125 0,-0.015625 -0.015625,-0.078125 -0.015625,-0.078125 0,-0.0625 0.359375,-0.421875 0.703125,-0.421875 0.59375,0 0.6875,0.421875 0.6875,1.140625 v 0.78125 c 0,0.21875 0,0.421875 -0.03125,0.546875 C 4.5,-0.21875 4.15625,-0.1875 4.078125,-0.1875 V 0.015625 C 4.359375,0 4.5625,-0.015625 4.828125,-0.015625 5.109375,-0.015625 5.3125,0 5.609375,0.015625 V -0.1875 c -0.09375,0 -0.4375,-0.03125 -0.46875,-0.109375 -0.03125,-0.125 -0.03125,-0.328125 -0.03125,-0.53125 v -0.8125 c 0,-1.0625 -0.15625,-1.546875 -0.9375,-1.546875 C 3.828125,-3.1875 3.4375,-2.875 3.125,-2.59375 3.015625,-3.015625 2.734375,-3.1875 2.296875,-3.1875 Z m 0,0"
           id="id-1eab4c17-769c-45e9-befd-23fc32e6e6bf-2" />
      </symbol>
      <symbol
         overflow="visible"
         id="id-b0422d0d-f508-411b-9ad6-74b8fc0b6f08-7">
        <path
           style="stroke:none"
           d="m 1.75,-2.953125 c 0.640625,0 1.015625,0.8125 1.015625,1.515625 0,0.625 -0.234375,1.25 -0.84375,1.25 -0.65625,0 -1.015625,-0.796875 -1.015625,-1.5 0,-0.640625 0.234375,-1.265625 0.84375,-1.265625 z M 1.828125,-3.1875 c -0.875,0 -1.53125,0.703125 -1.53125,1.640625 0,0.90625 0.59375,1.59375 1.546875,1.59375 0.875,0 1.53125,-0.71875 1.53125,-1.65625 0,-0.90625 -0.59375,-1.578125 -1.546875,-1.578125 z m 0,0"
           id="id-1a1b366f-6efb-4dcf-8ffb-b0eb5ef1fefd-8" />
      </symbol>
      <symbol
         overflow="visible"
         id="id-f08f7fb0-4d53-4d38-8ea9-ad6e04210ca9-4">
        <path
           style="stroke:none"
           d="m 0.640625,-3.953125 v 3.125 c 0,0.21875 0,0.40625 -0.03125,0.53125 C 0.59375,-0.21875 0.25,-0.1875 0.15625,-0.1875 V 0.015625 C 0.453125,0 0.640625,-0.015625 0.921875,-0.015625 1.203125,-0.015625 1.390625,0 1.6875,0.015625 V -0.1875 C 1.59375,-0.1875 1.25,-0.21875 1.234375,-0.296875 1.1875,-0.421875 1.1875,-0.609375 1.1875,-0.828125 V -4.1875 c 0,-0.390625 0.078125,-0.625 0.078125,-0.625 0,-0.046875 -0.03125,-0.109375 -0.078125,-0.109375 -0.296875,0.140625 -0.65625,0.25 -1.015625,0.28125 -0.03125,0 -0.015625,0.1875 0,0.1875 0.1875,0 0.390625,0.015625 0.4375,0.125 0.03125,0.078125 0.03125,0.265625 0.03125,0.375 z m 0,0"
           id="id-601cc911-bbd7-47b1-bb60-a2eca5c0311b-5" />
      </symbol>
    </g>
  </defs>
  <sodipodi:namedview
     id="base"
     pagecolor="#ffffff"
     bordercolor="#666666"
     borderopacity="1.0"
     inkscape:pageopacity="0.0"
     inkscape:pageshadow="2"
     inkscape:zoom="1.979899"
     inkscape:cx="187.45344"
     inkscape:cy="5.3158345"
     inkscape:document-units="mm"
     inkscape:current-layer="layer1"
     inkscape:document-rotation="0"
     showgrid="false"
     inkscape:window-width="1600"
     inkscape:window-height="837"
     inkscape:window-x="-8"
     inkscape:window-y="-8"
     inkscape:window-maximized="1" />
  <metadata
     id="metadata10090">
    <rdf:RDF>
      <cc:Work
         rdf:about="">
        <dc:format>image/svg+xml</dc:format>
        <dc:type
           rdf:resource="http://purl.org/dc/dcmitype/StillImage" />
        <dc:title />
      </cc:Work>
    </rdf:RDF>
  </metadata>
  <g
     inkscape:label="Layer 1"
     inkscape:groupmode="layer"
     id="layer1"
     transform="translate(-28.533709,-18.989253)">
    <ellipse
       style="opacity:0.5;fill:#aa9e95;fill-opacity:1;stroke:none;stroke-width:0.396875;stroke-linecap:round;stroke-linejoin:round;stroke-miterlimit:4;stroke-dasharray:1.5875, 0.79375;stroke-dashoffset:0;stroke-opacity:1"
       id="ellipse12021"
       cx="70.591789"
       cy="28.856119"
       rx="3.6380208"
       ry="2.9647508" />
    <ellipse
       style="opacity:0.5;fill:#aa9e95;fill-opacity:1;stroke:none;stroke-width:0.396875;stroke-linecap:round;stroke-linejoin:round;stroke-miterlimit:4;stroke-dasharray:1.5875, 0.79375;stroke-dashoffset:0;stroke-opacity:1"
       id="path12019"
       cx="58.420944"
       cy="28.856119"
       rx="3.6380208"
       ry="2.9647508" />
    <path
       style="fill:none;stroke:#506a65;stroke-width:0.264583;stroke-linecap:round;stroke-linejoin:round;stroke-miterlimit:4;stroke-dasharray:1.05833, 0.529167;stroke-dashoffset:0"
       id="path10673"
       sodipodi:type="arc"
       sodipodi:cx="11.566333"
       sodipodi:cy="-48.339432"
       sodipodi:rx="6.283854"
       sodipodi:ry="6.283854"
       sodipodi:start="4.5834663"
       sodipodi:end="4.5807289"
       sodipodi:arc-type="arc"
       d="m 10.758444,-54.571136 a 6.283854,6.283854 0 0 1 7.039039,5.419551 6.283854,6.283854 0 0 1 -5.414733,7.042746 6.283854,6.283854 0 0 1 -7.0464496,-5.409912 6.283854,6.283854 0 0 1 5.4050876,-7.05015"
       transform="rotate(107.937)"
       sodipodi:open="true" />
    <path
       style="opacity:0.5;fill:#aa9e95;stroke:none;stroke-width:0.264583px;stroke-linecap:butt;stroke-linejoin:miter;stroke-opacity:1"
       d="m 31.395646,32.080729 1.110305,0.968563 8.457219,-3.094678 c 2.736503,-0.274177 7.020768,2.496118 9.520274,0.425222 1.578769,-1.40079 1.425108,-1.933763 0.165365,-5.858631 L 56.058593,21.26116 54.055261,19.510675 C 45.24393,23.700693 37.500926,27.890711 31.395646,32.080729 Z"
       id="path10681"
       sodipodi:nodetypes="cccccccc" />
    <ellipse
       style="opacity:1;fill:#ffffff;stroke:#506a65;stroke-width:0.264583;stroke-linecap:round;stroke-linejoin:round;stroke-miterlimit:4;stroke-dasharray:none"
       id="path10683"
       cx="48.283913"
       cy="28.054949"
       rx="1.0440216"
       ry="0.65982163" />
    <path
       style="fill:none;stroke:#506a65;stroke-width:0.529167;stroke-linecap:round;stroke-linejoin:round;stroke-miterlimit:4;stroke-dasharray:none"
       id="path10671"
       sodipodi:type="arc"
       sodipodi:cx="11.566333"
       sodipodi:cy="-48.339432"
       sodipodi:rx="6.283854"
       sodipodi:ry="6.283854"
       sodipodi:start="0.8441123"
       sodipodi:end="4.7135911"
       sodipodi:arc-type="arc"
       d="m 15.741294,-43.642995 a 6.283854,6.283854 0 0 1 -7.5295706,0.617076 6.283854,6.283854 0 0 1 -2.6807362,-7.063205 6.283854,6.283854 0 0 1 6.0428998,-4.534157"
       transform="rotate(107.937)"
       sodipodi:open="true" />
    <path
       style="fill:none;stroke:#506a65;stroke-width:0.396875;stroke-linecap:round;stroke-linejoin:round;stroke-miterlimit:4;stroke-dasharray:1.5875, 0.79375;stroke-dashoffset:0"
       id="path11134"
       sodipodi:type="arc"
       sodipodi:cx="7.6443038"
       sodipodi:cy="-70.182053"
       sodipodi:rx="6.283854"
       sodipodi:ry="6.283854"
       sodipodi:start="4.5834663"
       sodipodi:end="4.5807289"
       sodipodi:arc-type="arc"
       d="m 6.8364148,-76.413757 a 6.283854,6.283854 0 0 1 7.0390392,5.419551 6.283854,6.283854 0 0 1 -5.4147327,7.042746 6.283854,6.283854 0 0 1 -7.0464499,-5.409911 6.283854,6.283854 0 0 1 5.4050878,-7.050151"
       transform="rotate(107.937)"
       sodipodi:open="true" />
    <ellipse
       style="opacity:1;fill:#ffffff;stroke:#506a65;stroke-width:0.264583;stroke-linecap:round;stroke-linejoin:round;stroke-miterlimit:4;stroke-dasharray:none"
       id="path10683-8"
       cx="58.208332"
       cy="28.820684"
       rx="1.0440216"
       ry="0.65982163" />
    <path
       style="fill:none;stroke:#506a65;stroke-width:0.343958;stroke-linecap:butt;stroke-linejoin:miter;stroke-miterlimit:4;stroke-dasharray:none;stroke-opacity:1;marker-end:url(#Arrow1Mend)"
       d="M 36.253103,25.146672 36.402025,24.07073"
       id="path10685" />
    <path
       style="fill:none;stroke:#506a65;stroke-width:0.343958;stroke-linecap:butt;stroke-linejoin:miter;stroke-miterlimit:4;stroke-dasharray:none;stroke-opacity:1;marker-end:url(#marker11015)"
       d="m 48.540874,24.699306 0.148922,1.075942"
       id="path11011" />
    <path
       style="fill:none;stroke:#506a65;stroke-width:0.343958;stroke-linecap:butt;stroke-linejoin:miter;stroke-miterlimit:4;stroke-dasharray:none;stroke-opacity:1;marker-end:url(#marker11154)"
       d="m 59.473498,25.082986 0.704535,-0.826715"
       id="path11136" />
    <ellipse
       style="opacity:1;fill:#ffffff;stroke:#506a65;stroke-width:0.264583;stroke-linecap:round;stroke-linejoin:round;stroke-miterlimit:4;stroke-dasharray:none"
       id="ellipse11941"
       cx="70.708313"
       cy="28.820684"
       rx="1.0440216"
       ry="0.65982163" />
    <path
       style="fill:none;stroke:#506a65;stroke-width:0.343958;stroke-linecap:butt;stroke-linejoin:miter;stroke-miterlimit:4;stroke-dasharray:none;stroke-opacity:1;marker-end:url(#marker11959)"
       d="m 69.375565,25.085049 0.638416,0.878779"
       id="path11955" />
    <path
       style="fill:none;stroke:#506a65;stroke-width:0.529167;stroke-linecap:round;stroke-linejoin:round;stroke-miterlimit:4;stroke-dasharray:none"
       id="path11140"
       sodipodi:type="arc"
       sodipodi:cx="7.6443038"
       sodipodi:cy="-70.182053"
       sodipodi:rx="6.283854"
       sodipodi:ry="6.283854"
       sodipodi:start="1.2599117"
       sodipodi:end="4.4055034"
       sodipodi:arc-type="arc"
       d="m 9.5665409,-64.199426 a 6.283854,6.283854 0 0 1 -6.1484283,-1.332236 6.283854,6.283854 0 0 1 -1.9124757,-5.993369 6.283854,6.283854 0 0 1 4.2403699,-4.647288"
       transform="rotate(107.937)"
       sodipodi:open="true" />
    <path
       style="fill:none;stroke:#000000;stroke-width:0.132292;stroke-linecap:round;stroke-linejoin:miter;stroke-miterlimit:4;stroke-dasharray:none;stroke-opacity:1"
       d="m 29.576635,33.545385 4.181364,1.724517"
       id="path12023" />
    <g
       transform="matrix(0.423334,0,0,0.423334,33.962667,34.114959)"
       ns2:version="1.1.0"
       ns2:texconverter="pdflatex"
       ns2:pdfconverter="inkscape"
       ns2:text="Loop\n"
       ns2:preamble="C:\\Users\\flvisa\\Desktop\\lna\\latexify_books\\textext_preamble.tex"
       ns2:scale="1.1999998866143555"
       ns2:alignment="middle center"
       ns2:inkscapeversion="1.0.1"
       ns2:jacobian_sqrt="0.423334"
       id="g12084">
      <defs
         id="id-9eab2447-04f2-4f02-898c-7528b5af0143">
        <g
           id="id-b2ff1fdc-f72a-489a-9c0f-baedaa3015c7">
          <symbol
             overflow="visible"
             id="id-6802e867-ebd4-489c-90f4-21aff85ec3ca">
            <path
               style="stroke:none"
               d="M 0.5,0 H 4.484375 V -4.8125 H 0.5 Z M 1,-0.5 V -4.3125 H 3.984375 V -0.5 Z m 0,0"
               id="id-df85db8a-d7dd-4bdd-84dc-f1dfcb46c8c2" />
          </symbol>
          <symbol
             overflow="visible"
             id="id-2e4fcfef-162a-47da-861e-55050cd96820">
            <path
               style="stroke:none"
               d="M 2,-1.125 V -5.28125 C 2,-5.578125 2,-5.859375 2.046875,-6.015625 2.078125,-6.125 2.609375,-6.15625 2.71875,-6.15625 c 0.046875,-0.046875 0.046875,-0.234375 0,-0.28125 -0.390625,0.015625 -0.75,0.03125 -1.140625,0.03125 -0.375,0 -0.734375,-0.015625 -1.140625,-0.03125 -0.046875,0.046875 -0.03125,0.234375 0,0.28125 0.125,0 0.640625,0.03125 0.671875,0.140625 0.046875,0.15625 0.046875,0.4375 0.046875,0.734375 V -1.125 c 0,0.28125 0,0.5625 -0.046875,0.71875 C 1.078125,-0.296875 0.5625,-0.25 0.4375,-0.25 c -0.03125,0.046875 -0.046875,0.234375 0,0.28125 C 0.8125,0.03125 1.140625,0 1.59375,0 c 1.296875,0 2.265625,0.046875 3.328125,0.046875 0.0625,-0.4375 0.328125,-1.09375 0.515625,-1.625 -0.03125,-0.03125 -0.140625,-0.0625 -0.25,-0.0625 -0.0625,0 -0.109375,0.03125 -0.125,0.0625 -0.15625,0.515625 -0.375,0.8125 -0.609375,0.984375 -0.28125,0.1875 -0.78125,0.265625 -1.140625,0.265625 H 2.75 c -0.40625,0 -0.5625,0 -0.6875,-0.09375 C 2,-0.484375 2,-0.984375 2,-1.125 Z m 0,0"
               id="id-c3b5b219-d719-47c3-8707-3c6e3b848730" />
          </symbol>
          <symbol
             overflow="visible"
             id="id-29e16bc6-418b-4c0d-b052-39c3379b0390">
            <path
               style="stroke:none"
               d="m 2.40625,-4.046875 c 0.890625,0 1.375,1.109375 1.375,2.078125 0,0.859375 -0.296875,1.71875 -1.15625,1.71875 -0.890625,0 -1.375,-1.109375 -1.375,-2.078125 0,-0.859375 0.3125,-1.71875 1.15625,-1.71875 z M 2.515625,-4.375 c -1.203125,0 -2.109375,0.96875 -2.109375,2.25 0,1.25 0.8125,2.1875 2.125,2.1875 1.203125,0 2.09375,-0.984375 2.09375,-2.265625 0,-1.25 -0.8125,-2.171875 -2.109375,-2.171875 z m 0,0"
               id="id-f13499dd-00e8-4fa8-878e-99f1ab3420b3" />
          </symbol>
          <symbol
             overflow="visible"
             id="id-00e0d378-8b42-469d-b1da-16ced96f4a1e">
            <path
               style="stroke:none"
               d="m 2.859375,-4.359375 c -0.390625,0 -0.953125,0.34375 -1.203125,0.546875 -0.015625,0.015625 -0.015625,0.03125 -0.03125,0.03125 -0.015625,0 -0.015625,-0.03125 -0.015625,-0.046875 0,-0.078125 0.0625,-0.328125 0.0625,-0.40625 0,-0.015625 -0.0625,-0.046875 -0.109375,-0.046875 -0.390625,0.15625 -0.890625,0.25 -1.40625,0.296875 v 0.265625 c 0.078125,0 0.578125,0 0.65625,0.171875 0.046875,0.125 0.046875,0.390625 0.046875,0.515625 v 4.046875 c 0,0.296875 0,0.578125 -0.046875,0.75 C 0.78125,1.875 0.3125,1.90625 0.171875,1.90625 V 2.203125 C 0.59375,2.1875 0.84375,2.15625 1.21875,2.15625 c 0.390625,0 0.671875,0.03125 1.078125,0.046875 V 1.90625 C 2.15625,1.90625 1.6875,1.875 1.65625,1.765625 1.609375,1.609375 1.609375,1.328125 1.609375,1.03125 v -0.9375 c 0,-0.078125 0.03125,-0.125 0.03125,-0.125 0.15625,0.046875 0.4375,0.109375 0.6875,0.109375 1.125,0 2.328125,-1.109375 2.328125,-2.390625 0,-0.859375 -0.5625,-2.046875 -1.796875,-2.046875 z M 2.4375,-3.78125 c 0.765625,0 1.40625,0.65625 1.40625,1.84375 0,0.8125 -0.484375,1.671875 -1.3125,1.671875 -0.34375,0 -0.921875,-0.21875 -0.921875,-0.734375 v -2.40625 c 0,-0.125 0.421875,-0.375 0.828125,-0.375 z m 0,0"
               id="id-7e8ba272-f381-414a-a5da-136e30a9cff5" />
          </symbol>
        </g>
      </defs>
      <g
         id="id-a09b1157-7038-4b5a-834a-9162ba8389f5"
         transform="translate(-149.12,-128.327)">
        <g
           style="fill:#000000;fill-opacity:1"
           id="id-a25aa20c-ede5-4eb9-a08f-ee417d9b96ba">
          <g
             transform="translate(148.712,134.765)"
             id="g12071">
            <path
               style="stroke:none"
               d="M 2,-1.125 V -5.28125 C 2,-5.578125 2,-5.859375 2.046875,-6.015625 2.078125,-6.125 2.609375,-6.15625 2.71875,-6.15625 c 0.046875,-0.046875 0.046875,-0.234375 0,-0.28125 -0.390625,0.015625 -0.75,0.03125 -1.140625,0.03125 -0.375,0 -0.734375,-0.015625 -1.140625,-0.03125 -0.046875,0.046875 -0.03125,0.234375 0,0.28125 0.125,0 0.640625,0.03125 0.671875,0.140625 0.046875,0.15625 0.046875,0.4375 0.046875,0.734375 V -1.125 c 0,0.28125 0,0.5625 -0.046875,0.71875 C 1.078125,-0.296875 0.5625,-0.25 0.4375,-0.25 c -0.03125,0.046875 -0.046875,0.234375 0,0.28125 C 0.8125,0.03125 1.140625,0 1.59375,0 c 1.296875,0 2.265625,0.046875 3.328125,0.046875 0.0625,-0.4375 0.328125,-1.09375 0.515625,-1.625 -0.03125,-0.03125 -0.140625,-0.0625 -0.25,-0.0625 -0.0625,0 -0.109375,0.03125 -0.125,0.0625 -0.15625,0.515625 -0.375,0.8125 -0.609375,0.984375 -0.28125,0.1875 -0.78125,0.265625 -1.140625,0.265625 H 2.75 c -0.40625,0 -0.5625,0 -0.6875,-0.09375 C 2,-0.484375 2,-0.984375 2,-1.125 Z m 0,0"
               id="id-09fe3bac-aec2-4849-9237-7ca5a62c569b" />
          </g>
          <g
             transform="translate(154.191,134.765)"
             id="g12074">
            <path
               style="stroke:none"
               d="m 2.40625,-4.046875 c 0.890625,0 1.375,1.109375 1.375,2.078125 0,0.859375 -0.296875,1.71875 -1.15625,1.71875 -0.890625,0 -1.375,-1.109375 -1.375,-2.078125 0,-0.859375 0.3125,-1.71875 1.15625,-1.71875 z M 2.515625,-4.375 c -1.203125,0 -2.109375,0.96875 -2.109375,2.25 0,1.25 0.8125,2.1875 2.125,2.1875 1.203125,0 2.09375,-0.984375 2.09375,-2.265625 0,-1.25 -0.8125,-2.171875 -2.109375,-2.171875 z m 0,0"
               id="id-5c4f7b00-6137-44bf-9791-ea243291f55e" />
          </g>
          <g
             transform="translate(159.203,134.765)"
             id="g12077">
            <path
               style="stroke:none"
               d="m 2.40625,-4.046875 c 0.890625,0 1.375,1.109375 1.375,2.078125 0,0.859375 -0.296875,1.71875 -1.15625,1.71875 -0.890625,0 -1.375,-1.109375 -1.375,-2.078125 0,-0.859375 0.3125,-1.71875 1.15625,-1.71875 z M 2.515625,-4.375 c -1.203125,0 -2.109375,0.96875 -2.109375,2.25 0,1.25 0.8125,2.1875 2.125,2.1875 1.203125,0 2.09375,-0.984375 2.09375,-2.265625 0,-1.25 -0.8125,-2.171875 -2.109375,-2.171875 z m 0,0"
               id="id-11e13583-5bbc-4c74-8d6a-8035abb72160" />
          </g>
          <g
             transform="translate(164.214,134.765)"
             id="g12080">
            <path
               style="stroke:none"
               d="m 2.859375,-4.359375 c -0.390625,0 -0.953125,0.34375 -1.203125,0.546875 -0.015625,0.015625 -0.015625,0.03125 -0.03125,0.03125 -0.015625,0 -0.015625,-0.03125 -0.015625,-0.046875 0,-0.078125 0.0625,-0.328125 0.0625,-0.40625 0,-0.015625 -0.0625,-0.046875 -0.109375,-0.046875 -0.390625,0.15625 -0.890625,0.25 -1.40625,0.296875 v 0.265625 c 0.078125,0 0.578125,0 0.65625,0.171875 0.046875,0.125 0.046875,0.390625 0.046875,0.515625 v 4.046875 c 0,0.296875 0,0.578125 -0.046875,0.75 C 0.78125,1.875 0.3125,1.90625 0.171875,1.90625 V 2.203125 C 0.59375,2.1875 0.84375,2.15625 1.21875,2.15625 c 0.390625,0 0.671875,0.03125 1.078125,0.046875 V 1.90625 C 2.15625,1.90625 1.6875,1.875 1.65625,1.765625 1.609375,1.609375 1.609375,1.328125 1.609375,1.03125 v -0.9375 c 0,-0.078125 0.03125,-0.125 0.03125,-0.125 0.15625,0.046875 0.4375,0.109375 0.6875,0.109375 1.125,0 2.328125,-1.109375 2.328125,-2.390625 0,-0.859375 -0.5625,-2.046875 -1.796875,-2.046875 z M 2.4375,-3.78125 c 0.765625,0 1.40625,0.65625 1.40625,1.84375 0,0.8125 -0.484375,1.671875 -1.3125,1.671875 -0.34375,0 -0.921875,-0.21875 -0.921875,-0.734375 v -2.40625 c 0,-0.125 0.421875,-0.375 0.828125,-0.375 z m 0,0"
               id="id-6c30b70f-3b90-4103-a04a-56dafd5c0830" />
          </g>
        </g>
      </g>
    </g>
    <path
       style="fill:none;stroke:#000000;stroke-width:0.529167;stroke-linecap:round;stroke-linejoin:miter;stroke-miterlimit:4;stroke-dasharray:none;stroke-opacity:1"
       d="M 28.798292,34.010047 C 38.026275,26.936633 45.932741,23.522806 54.055261,19.510675"
       id="path10669"
       sodipodi:nodetypes="cc" />
    <g
       transform="matrix(0.423334,0,0,0.423334,29.0707,18.9892)"
       ns2:version="1.1.0"
       ns2:texconverter="pdflatex"
       ns2:pdfconverter="inkscape"
       ns2:text="$\\ab{I}{mol}'$\n"
       ns2:preamble="C:\\Users\\flvisa\\Desktop\\lna\\latexify_books\\textext_preamble.tex"
       ns2:scale="1.199999858267946"
       ns2:alignment="middle center"
       ns2:inkscapeversion="1.0.1"
       ns2:jacobian_sqrt="0.423334"
       id="g12300">
      <defs
         id="id-a7c1a23e-53d8-4b5c-aae2-4a52a5308901">
        <g
           id="id-5bdc5f6a-19f4-4292-995c-d5ab56faa273">
          <symbol
             overflow="visible"
             id="id-3f9c4f46-6679-4395-9389-c0e1df1c5bae">
            <path
               style="stroke:none"
               d=""
               id="id-3793220c-ab8b-4256-8a21-93e7d3f317ce" />
          </symbol>
          <symbol
             overflow="visible"
             id="id-d0c4cbe7-da4d-4365-b2ea-56f13388022f">
            <path
               style="stroke:none"
               d="M 2.359375,-6.625 C 2,-6.625 1.625,-6.65625 1.25,-6.671875 1.1875,-6.625 1.15625,-6.4375 1.1875,-6.390625 c 0.109375,0 0.609375,0.0625 0.609375,0.171875 v 0.078125 c 0,0.15625 -0.03125,0.40625 -0.078125,0.65625 L 0.875,-1.171875 C 0.8125,-0.875 0.765625,-0.59375 0.6875,-0.421875 0.640625,-0.3125 0.109375,-0.265625 0,-0.265625 c -0.046875,0.0625 -0.09375,0.25 -0.046875,0.296875 0.390625,-0.015625 0.75,-0.046875 1.109375,-0.046875 0.359375,0 0.71875,0.03125 1.09375,0.046875 0.0625,-0.046875 0.09375,-0.234375 0.0625,-0.296875 -0.109375,0 -0.609375,-0.046875 -0.625,-0.15625 V -0.5 c 0,-0.15625 0.046875,-0.40625 0.09375,-0.671875 l 0.84375,-4.3125 C 2.59375,-5.78125 2.640625,-6.0625 2.71875,-6.21875 2.765625,-6.328125 3.296875,-6.390625 3.40625,-6.390625 3.453125,-6.4375 3.5,-6.625 3.453125,-6.671875 3.078125,-6.65625 2.71875,-6.625 2.359375,-6.625 Z m 0,0"
               id="id-e52c62ab-0cfd-473c-ba15-79b8d03a1f24" />
          </symbol>
          <symbol
             overflow="visible"
             id="id-968b8e69-cdf3-4b11-8f2d-077cff9a4ddf">
            <path
               style="stroke:none"
               d=""
               id="id-b49c7671-b51a-47a9-b5f0-8aaa581a9789" />
          </symbol>
          <symbol
             overflow="visible"
             id="id-0fd48548-a035-4d73-aa09-805edbe68c5a">
            <path
               style="stroke:none"
               d="m 2.15625,-2.984375 c 0,-0.25 -0.265625,-0.4375 -0.5,-0.4375 -0.265625,0 -0.390625,0.265625 -0.46875,0.484375 l -0.75,2.203125 c -0.015625,0.0625 -0.078125,0.1875 -0.078125,0.25 0,0.0625 0.046875,0.15625 0.125,0.15625 0.109375,0 0.234375,-0.15625 0.28125,-0.234375 l 1.1875,-1.875 C 2.0625,-2.59375 2.15625,-2.796875 2.15625,-2.984375 Z m 0,0"
               id="id-312773f7-5bd3-490c-a615-aaf8a6447e69" />
          </symbol>
          <symbol
             overflow="visible"
             id="id-67e03e68-1c20-45b8-9951-b4e923adebc9">
            <path
               style="stroke:none"
               d="m 0.359375,0 h 2.90625 V -3.515625 H 0.359375 Z M 0.71875,-0.359375 v -2.78125 h 2.1875 v 2.78125 z m 0,0"
               id="id-eb18c07d-bdb3-468e-8c33-102d7c231418" />
          </symbol>
          <symbol
             overflow="visible"
             id="id-4bd509eb-6323-4361-bb01-8fe3490e9548">
            <path
               style="stroke:none"
               d="m 2.296875,-3.1875 c -0.390625,0 -0.765625,0.34375 -0.953125,0.484375 0,0.015625 0,0.015625 -0.015625,0.015625 -0.015625,0 -0.015625,-0.015625 -0.015625,-0.015625 0,-0.0625 0.03125,-0.328125 0.046875,-0.375 C 1.359375,-3.09375 1.3125,-3.125 1.265625,-3.125 0.984375,-3.015625 0.609375,-2.9375 0.25,-2.90625 v 0.203125 c 0.046875,0 0.421875,0 0.46875,0.125 0.03125,0.09375 0.03125,0.3125 0.03125,0.40625 v 1.328125 c 0,0.21875 0,0.421875 -0.03125,0.546875 C 0.703125,-0.21875 0.34375,-0.1875 0.265625,-0.1875 V 0.015625 C 0.546875,0 0.75,-0.015625 1.03125,-0.015625 1.3125,-0.015625 1.5,0 1.796875,0.015625 V -0.1875 c -0.09375,0 -0.4375,-0.03125 -0.453125,-0.109375 C 1.296875,-0.421875 1.296875,-0.625 1.296875,-0.84375 v -1.515625 c 0,-0.109375 0.359375,-0.40625 0.6875,-0.40625 0.515625,0 0.671875,0.28125 0.671875,1.1875 v 0.734375 c 0,0.21875 0,0.421875 -0.03125,0.546875 C 2.59375,-0.21875 2.265625,-0.1875 2.171875,-0.1875 v 0.203125 c 0.296875,-0.015625 0.46875,-0.03125 0.75,-0.03125 0.28125,0 0.484375,0.015625 0.78125,0.03125 V -0.1875 c -0.09375,0 -0.4375,-0.03125 -0.46875,-0.109375 C 3.203125,-0.421875 3.21875,-0.625 3.21875,-0.84375 v -0.890625 c 0,-0.140625 -0.015625,-0.375 -0.03125,-0.53125 0,-0.015625 -0.015625,-0.078125 -0.015625,-0.078125 0,-0.0625 0.359375,-0.421875 0.703125,-0.421875 0.59375,0 0.6875,0.421875 0.6875,1.140625 v 0.78125 c 0,0.21875 0,0.421875 -0.03125,0.546875 C 4.5,-0.21875 4.15625,-0.1875 4.078125,-0.1875 V 0.015625 C 4.359375,0 4.5625,-0.015625 4.828125,-0.015625 5.109375,-0.015625 5.3125,0 5.609375,0.015625 V -0.1875 c -0.09375,0 -0.4375,-0.03125 -0.46875,-0.109375 -0.03125,-0.125 -0.03125,-0.328125 -0.03125,-0.53125 v -0.8125 c 0,-1.0625 -0.15625,-1.546875 -0.9375,-1.546875 C 3.828125,-3.1875 3.4375,-2.875 3.125,-2.59375 3.015625,-3.015625 2.734375,-3.1875 2.296875,-3.1875 Z m 0,0"
               id="id-1eab4c17-769c-45e9-befd-23fc32e6e6bf" />
          </symbol>
          <symbol
             overflow="visible"
             id="id-b0422d0d-f508-411b-9ad6-74b8fc0b6f08">
            <path
               style="stroke:none"
               d="m 1.75,-2.953125 c 0.640625,0 1.015625,0.8125 1.015625,1.515625 0,0.625 -0.234375,1.25 -0.84375,1.25 -0.65625,0 -1.015625,-0.796875 -1.015625,-1.5 0,-0.640625 0.234375,-1.265625 0.84375,-1.265625 z M 1.828125,-3.1875 c -0.875,0 -1.53125,0.703125 -1.53125,1.640625 0,0.90625 0.59375,1.59375 1.546875,1.59375 0.875,0 1.53125,-0.71875 1.53125,-1.65625 0,-0.90625 -0.59375,-1.578125 -1.546875,-1.578125 z m 0,0"
               id="id-1a1b366f-6efb-4dcf-8ffb-b0eb5ef1fefd" />
          </symbol>
          <symbol
             overflow="visible"
             id="id-f08f7fb0-4d53-4d38-8ea9-ad6e04210ca9">
            <path
               style="stroke:none"
               d="m 0.640625,-3.953125 v 3.125 c 0,0.21875 0,0.40625 -0.03125,0.53125 C 0.59375,-0.21875 0.25,-0.1875 0.15625,-0.1875 V 0.015625 C 0.453125,0 0.640625,-0.015625 0.921875,-0.015625 1.203125,-0.015625 1.390625,0 1.6875,0.015625 V -0.1875 C 1.59375,-0.1875 1.25,-0.21875 1.234375,-0.296875 1.1875,-0.421875 1.1875,-0.609375 1.1875,-0.828125 V -4.1875 c 0,-0.390625 0.078125,-0.625 0.078125,-0.625 0,-0.046875 -0.03125,-0.109375 -0.078125,-0.109375 -0.296875,0.140625 -0.65625,0.25 -1.015625,0.28125 -0.03125,0 -0.015625,0.1875 0,0.1875 0.1875,0 0.390625,0.015625 0.4375,0.125 0.03125,0.078125 0.03125,0.265625 0.03125,0.375 z m 0,0"
               id="id-601cc911-bbd7-47b1-bb60-a2eca5c0311b" />
          </symbol>
        </g>
      </defs>
      <g
         id="id-a66b6ac9-c6d0-4acc-abd6-e08e3966e115"
         transform="translate(-149.045,-127.726)">
        <g
           style="fill:#000000;fill-opacity:1"
           id="id-2be0f7a8-adb8-4f0c-98c9-94b99db53b05">
          <g
             transform="translate(149.111,134.765)"
             id="g12282">
            <path
               style="stroke:none"
               d="M 2.359375,-6.625 C 2,-6.625 1.625,-6.65625 1.25,-6.671875 1.1875,-6.625 1.15625,-6.4375 1.1875,-6.390625 c 0.109375,0 0.609375,0.0625 0.609375,0.171875 v 0.078125 c 0,0.15625 -0.03125,0.40625 -0.078125,0.65625 L 0.875,-1.171875 C 0.8125,-0.875 0.765625,-0.59375 0.6875,-0.421875 0.640625,-0.3125 0.109375,-0.265625 0,-0.265625 c -0.046875,0.0625 -0.09375,0.25 -0.046875,0.296875 0.390625,-0.015625 0.75,-0.046875 1.109375,-0.046875 0.359375,0 0.71875,0.03125 1.09375,0.046875 0.0625,-0.046875 0.09375,-0.234375 0.0625,-0.296875 -0.109375,0 -0.609375,-0.046875 -0.625,-0.15625 V -0.5 c 0,-0.15625 0.046875,-0.40625 0.09375,-0.671875 l 0.84375,-4.3125 C 2.59375,-5.78125 2.640625,-6.0625 2.71875,-6.21875 2.765625,-6.328125 3.296875,-6.390625 3.40625,-6.390625 3.453125,-6.4375 3.5,-6.625 3.453125,-6.671875 3.078125,-6.65625 2.71875,-6.625 2.359375,-6.625 Z m 0,0"
               id="id-e79996be-8725-49aa-abb3-f2585601d8a1" />
          </g>
        </g>
        <g
           style="fill:#000000;fill-opacity:1"
           id="id-854e954e-7579-49f2-baf6-b5154804f9be">
          <g
             transform="translate(153.277,131.148)"
             id="g12286">
            <path
               style="stroke:none"
               d="m 2.15625,-2.984375 c 0,-0.25 -0.265625,-0.4375 -0.5,-0.4375 -0.265625,0 -0.390625,0.265625 -0.46875,0.484375 l -0.75,2.203125 c -0.015625,0.0625 -0.078125,0.1875 -0.078125,0.25 0,0.0625 0.046875,0.15625 0.125,0.15625 0.109375,0 0.234375,-0.15625 0.28125,-0.234375 l 1.1875,-1.875 C 2.0625,-2.59375 2.15625,-2.796875 2.15625,-2.984375 Z m 0,0"
               id="id-f4b1b19c-c065-400d-b550-f72bb7dfa359" />
          </g>
        </g>
        <g
           style="fill:#000000;fill-opacity:1"
           id="id-6f0cb1aa-3aa3-4297-96e9-78da4eb419b0">
          <g
             transform="translate(152.448,138.413)"
             id="g12290">
            <path
               style="stroke:none"
               d="m 2.296875,-3.1875 c -0.390625,0 -0.765625,0.34375 -0.953125,0.484375 0,0.015625 0,0.015625 -0.015625,0.015625 -0.015625,0 -0.015625,-0.015625 -0.015625,-0.015625 0,-0.0625 0.03125,-0.328125 0.046875,-0.375 C 1.359375,-3.09375 1.3125,-3.125 1.265625,-3.125 0.984375,-3.015625 0.609375,-2.9375 0.25,-2.90625 v 0.203125 c 0.046875,0 0.421875,0 0.46875,0.125 0.03125,0.09375 0.03125,0.3125 0.03125,0.40625 v 1.328125 c 0,0.21875 0,0.421875 -0.03125,0.546875 C 0.703125,-0.21875 0.34375,-0.1875 0.265625,-0.1875 V 0.015625 C 0.546875,0 0.75,-0.015625 1.03125,-0.015625 1.3125,-0.015625 1.5,0 1.796875,0.015625 V -0.1875 c -0.09375,0 -0.4375,-0.03125 -0.453125,-0.109375 C 1.296875,-0.421875 1.296875,-0.625 1.296875,-0.84375 v -1.515625 c 0,-0.109375 0.359375,-0.40625 0.6875,-0.40625 0.515625,0 0.671875,0.28125 0.671875,1.1875 v 0.734375 c 0,0.21875 0,0.421875 -0.03125,0.546875 C 2.59375,-0.21875 2.265625,-0.1875 2.171875,-0.1875 v 0.203125 c 0.296875,-0.015625 0.46875,-0.03125 0.75,-0.03125 0.28125,0 0.484375,0.015625 0.78125,0.03125 V -0.1875 c -0.09375,0 -0.4375,-0.03125 -0.46875,-0.109375 C 3.203125,-0.421875 3.21875,-0.625 3.21875,-0.84375 v -0.890625 c 0,-0.140625 -0.015625,-0.375 -0.03125,-0.53125 0,-0.015625 -0.015625,-0.078125 -0.015625,-0.078125 0,-0.0625 0.359375,-0.421875 0.703125,-0.421875 0.59375,0 0.6875,0.421875 0.6875,1.140625 v 0.78125 c 0,0.21875 0,0.421875 -0.03125,0.546875 C 4.5,-0.21875 4.15625,-0.1875 4.078125,-0.1875 V 0.015625 C 4.359375,0 4.5625,-0.015625 4.828125,-0.015625 5.109375,-0.015625 5.3125,0 5.609375,0.015625 V -0.1875 c -0.09375,0 -0.4375,-0.03125 -0.46875,-0.109375 -0.03125,-0.125 -0.03125,-0.328125 -0.03125,-0.53125 v -0.8125 c 0,-1.0625 -0.15625,-1.546875 -0.9375,-1.546875 C 3.828125,-3.1875 3.4375,-2.875 3.125,-2.59375 3.015625,-3.015625 2.734375,-3.1875 2.296875,-3.1875 Z m 0,0"
               id="id-bdeeb894-afe4-4c73-86c2-ef3a83482a32" />
          </g>
          <g
             transform="translate(158.143,138.413)"
             id="g12293">
            <path
               style="stroke:none"
               d="m 1.75,-2.953125 c 0.640625,0 1.015625,0.8125 1.015625,1.515625 0,0.625 -0.234375,1.25 -0.84375,1.25 -0.65625,0 -1.015625,-0.796875 -1.015625,-1.5 0,-0.640625 0.234375,-1.265625 0.84375,-1.265625 z M 1.828125,-3.1875 c -0.875,0 -1.53125,0.703125 -1.53125,1.640625 0,0.90625 0.59375,1.59375 1.546875,1.59375 0.875,0 1.53125,-0.71875 1.53125,-1.65625 0,-0.90625 -0.59375,-1.578125 -1.546875,-1.578125 z m 0,0"
               id="id-8154ce5a-ab2e-4e07-a4b1-b16ebd67ed35" />
          </g>
          <g
             transform="translate(161.801,138.413)"
             id="g12296">
            <path
               style="stroke:none"
               d="m 0.640625,-3.953125 v 3.125 c 0,0.21875 0,0.40625 -0.03125,0.53125 C 0.59375,-0.21875 0.25,-0.1875 0.15625,-0.1875 V 0.015625 C 0.453125,0 0.640625,-0.015625 0.921875,-0.015625 1.203125,-0.015625 1.390625,0 1.6875,0.015625 V -0.1875 C 1.59375,-0.1875 1.25,-0.21875 1.234375,-0.296875 1.1875,-0.421875 1.1875,-0.609375 1.1875,-0.828125 V -4.1875 c 0,-0.390625 0.078125,-0.625 0.078125,-0.625 0,-0.046875 -0.03125,-0.109375 -0.078125,-0.109375 -0.296875,0.140625 -0.65625,0.25 -1.015625,0.28125 -0.03125,0 -0.015625,0.1875 0,0.1875 0.1875,0 0.390625,0.015625 0.4375,0.125 0.03125,0.078125 0.03125,0.265625 0.03125,0.375 z m 0,0"
               id="id-2d052bce-af15-49d5-a931-f89d8c9ea75c" />
          </g>
        </g>
      </g>
    </g>
    <g
       transform="matrix(0.423334,0,0,0.423334,70.4591,20.0287)"
       ns2:version="1.1.0"
       ns2:texconverter="pdflatex"
       ns2:pdfconverter="inkscape"
       ns2:text="$\\ab{I}{mol}''$\n\n"
       ns2:preamble="C:\\Users\\flvisa\\Desktop\\lna\\latexify_books\\textext_preamble.tex"
       ns2:scale="1.1999998299215373"
       ns2:alignment="middle center"
       ns2:inkscapeversion="1.0.1"
       ns2:jacobian_sqrt="0.423334"
       id="g12634">
      <defs
         id="id-aceca381-0988-4393-8023-51c42a892c1e">
        <g
           id="id-2a291d90-d7c4-462c-a8a0-949af6932494">
          <symbol
             overflow="visible"
             id="id-e8616acd-a666-460e-91ff-79b98f83994a">
            <path
               style="stroke:none"
               d=""
               id="id-f80eeed1-6109-4123-9bb7-41ac8d6e834a" />
          </symbol>
          <symbol
             overflow="visible"
             id="id-98c5b967-bf34-4dc8-9c74-e5a5289bf2c2">
            <path
               style="stroke:none"
               d="M 2.359375,-6.625 C 2,-6.625 1.625,-6.65625 1.25,-6.671875 1.1875,-6.625 1.15625,-6.4375 1.1875,-6.390625 c 0.109375,0 0.609375,0.0625 0.609375,0.171875 v 0.078125 c 0,0.15625 -0.03125,0.40625 -0.078125,0.65625 L 0.875,-1.171875 C 0.8125,-0.875 0.765625,-0.59375 0.6875,-0.421875 0.640625,-0.3125 0.109375,-0.265625 0,-0.265625 c -0.046875,0.0625 -0.09375,0.25 -0.046875,0.296875 0.390625,-0.015625 0.75,-0.046875 1.109375,-0.046875 0.359375,0 0.71875,0.03125 1.09375,0.046875 0.0625,-0.046875 0.09375,-0.234375 0.0625,-0.296875 -0.109375,0 -0.609375,-0.046875 -0.625,-0.15625 V -0.5 c 0,-0.15625 0.046875,-0.40625 0.09375,-0.671875 l 0.84375,-4.3125 C 2.59375,-5.78125 2.640625,-6.0625 2.71875,-6.21875 2.765625,-6.328125 3.296875,-6.390625 3.40625,-6.390625 3.453125,-6.4375 3.5,-6.625 3.453125,-6.671875 3.078125,-6.65625 2.71875,-6.625 2.359375,-6.625 Z m 0,0"
               id="id-4fd1ae22-5423-4c1f-a211-9a8ea0aa280f" />
          </symbol>
          <symbol
             overflow="visible"
             id="id-b3c06b96-6b5d-42b4-b0cb-79eecf9ad121">
            <path
               style="stroke:none"
               d=""
               id="id-6a47cbd5-ad0d-4f3e-b8ca-6e8d504b100b" />
          </symbol>
          <symbol
             overflow="visible"
             id="id-73db99d0-1d24-43a6-8235-bbff2295b98c">
            <path
               style="stroke:none"
               d="m 2.15625,-2.984375 c 0,-0.25 -0.265625,-0.4375 -0.5,-0.4375 -0.265625,0 -0.390625,0.265625 -0.46875,0.484375 l -0.75,2.203125 c -0.015625,0.0625 -0.078125,0.1875 -0.078125,0.25 0,0.0625 0.046875,0.15625 0.125,0.15625 0.109375,0 0.234375,-0.15625 0.28125,-0.234375 l 1.1875,-1.875 C 2.0625,-2.59375 2.15625,-2.796875 2.15625,-2.984375 Z m 0,0"
               id="id-7827ebb9-e36d-415b-bd8e-48fe444b4077" />
          </symbol>
          <symbol
             overflow="visible"
             id="id-0faaff6a-7397-486d-b586-6da730efff2d">
            <path
               style="stroke:none"
               d="m 0.359375,0 h 2.90625 V -3.515625 H 0.359375 Z M 0.71875,-0.359375 v -2.78125 h 2.1875 v 2.78125 z m 0,0"
               id="id-f109d3a9-9fe9-42f5-ab31-336af2e6eb25" />
          </symbol>
          <symbol
             overflow="visible"
             id="id-1eaf1115-467c-425c-a6c8-89e8fabd467e">
            <path
               style="stroke:none"
               d="m 2.296875,-3.1875 c -0.390625,0 -0.765625,0.34375 -0.953125,0.484375 0,0.015625 0,0.015625 -0.015625,0.015625 -0.015625,0 -0.015625,-0.015625 -0.015625,-0.015625 0,-0.0625 0.03125,-0.328125 0.046875,-0.375 C 1.359375,-3.09375 1.3125,-3.125 1.265625,-3.125 0.984375,-3.015625 0.609375,-2.9375 0.25,-2.90625 v 0.203125 c 0.046875,0 0.421875,0 0.46875,0.125 0.03125,0.09375 0.03125,0.3125 0.03125,0.40625 v 1.328125 c 0,0.21875 0,0.421875 -0.03125,0.546875 C 0.703125,-0.21875 0.34375,-0.1875 0.265625,-0.1875 V 0.015625 C 0.546875,0 0.75,-0.015625 1.03125,-0.015625 1.3125,-0.015625 1.5,0 1.796875,0.015625 V -0.1875 c -0.09375,0 -0.4375,-0.03125 -0.453125,-0.109375 C 1.296875,-0.421875 1.296875,-0.625 1.296875,-0.84375 v -1.515625 c 0,-0.109375 0.359375,-0.40625 0.6875,-0.40625 0.515625,0 0.671875,0.28125 0.671875,1.1875 v 0.734375 c 0,0.21875 0,0.421875 -0.03125,0.546875 C 2.59375,-0.21875 2.265625,-0.1875 2.171875,-0.1875 v 0.203125 c 0.296875,-0.015625 0.46875,-0.03125 0.75,-0.03125 0.28125,0 0.484375,0.015625 0.78125,0.03125 V -0.1875 c -0.09375,0 -0.4375,-0.03125 -0.46875,-0.109375 C 3.203125,-0.421875 3.21875,-0.625 3.21875,-0.84375 v -0.890625 c 0,-0.140625 -0.015625,-0.375 -0.03125,-0.53125 0,-0.015625 -0.015625,-0.078125 -0.015625,-0.078125 0,-0.0625 0.359375,-0.421875 0.703125,-0.421875 0.59375,0 0.6875,0.421875 0.6875,1.140625 v 0.78125 c 0,0.21875 0,0.421875 -0.03125,0.546875 C 4.5,-0.21875 4.15625,-0.1875 4.078125,-0.1875 V 0.015625 C 4.359375,0 4.5625,-0.015625 4.828125,-0.015625 5.109375,-0.015625 5.3125,0 5.609375,0.015625 V -0.1875 c -0.09375,0 -0.4375,-0.03125 -0.46875,-0.109375 -0.03125,-0.125 -0.03125,-0.328125 -0.03125,-0.53125 v -0.8125 c 0,-1.0625 -0.15625,-1.546875 -0.9375,-1.546875 C 3.828125,-3.1875 3.4375,-2.875 3.125,-2.59375 3.015625,-3.015625 2.734375,-3.1875 2.296875,-3.1875 Z m 0,0"
               id="id-ced83a65-d628-4918-bde9-e7ec1bbe4b4f" />
          </symbol>
          <symbol
             overflow="visible"
             id="id-dcbcf72e-d98f-41aa-b181-eb3463abf4ee">
            <path
               style="stroke:none"
               d="m 1.75,-2.953125 c 0.640625,0 1.015625,0.8125 1.015625,1.515625 0,0.625 -0.234375,1.25 -0.84375,1.25 -0.65625,0 -1.015625,-0.796875 -1.015625,-1.5 0,-0.640625 0.234375,-1.265625 0.84375,-1.265625 z M 1.828125,-3.1875 c -0.875,0 -1.53125,0.703125 -1.53125,1.640625 0,0.90625 0.59375,1.59375 1.546875,1.59375 0.875,0 1.53125,-0.71875 1.53125,-1.65625 0,-0.90625 -0.59375,-1.578125 -1.546875,-1.578125 z m 0,0"
               id="id-33be6ba9-33a0-4e03-ab7e-4680319b6ef3" />
          </symbol>
          <symbol
             overflow="visible"
             id="id-fd321376-e32a-4f58-a4c8-6889a25f97eb">
            <path
               style="stroke:none"
               d="m 0.640625,-3.953125 v 3.125 c 0,0.21875 0,0.40625 -0.03125,0.53125 C 0.59375,-0.21875 0.25,-0.1875 0.15625,-0.1875 V 0.015625 C 0.453125,0 0.640625,-0.015625 0.921875,-0.015625 1.203125,-0.015625 1.390625,0 1.6875,0.015625 V -0.1875 C 1.59375,-0.1875 1.25,-0.21875 1.234375,-0.296875 1.1875,-0.421875 1.1875,-0.609375 1.1875,-0.828125 V -4.1875 c 0,-0.390625 0.078125,-0.625 0.078125,-0.625 0,-0.046875 -0.03125,-0.109375 -0.078125,-0.109375 -0.296875,0.140625 -0.65625,0.25 -1.015625,0.28125 -0.03125,0 -0.015625,0.1875 0,0.1875 0.1875,0 0.390625,0.015625 0.4375,0.125 0.03125,0.078125 0.03125,0.265625 0.03125,0.375 z m 0,0"
               id="id-736259f9-e3bc-48c4-a251-7336ddab41e6" />
          </symbol>
        </g>
      </defs>
      <g
         id="id-f51a3190-7efa-4566-bb13-d00cdb00377b"
         transform="translate(-149.045,-127.726)">
        <g
           style="fill:#000000;fill-opacity:1"
           id="id-4c4c6a87-bc6e-4b56-a2b2-3c8761d9e556">
          <g
             transform="translate(149.111,134.765)"
             id="g12612">
            <path
               style="stroke:none"
               d="M 2.359375,-6.625 C 2,-6.625 1.625,-6.65625 1.25,-6.671875 1.1875,-6.625 1.15625,-6.4375 1.1875,-6.390625 c 0.109375,0 0.609375,0.0625 0.609375,0.171875 v 0.078125 c 0,0.15625 -0.03125,0.40625 -0.078125,0.65625 L 0.875,-1.171875 C 0.8125,-0.875 0.765625,-0.59375 0.6875,-0.421875 0.640625,-0.3125 0.109375,-0.265625 0,-0.265625 c -0.046875,0.0625 -0.09375,0.25 -0.046875,0.296875 0.390625,-0.015625 0.75,-0.046875 1.109375,-0.046875 0.359375,0 0.71875,0.03125 1.09375,0.046875 0.0625,-0.046875 0.09375,-0.234375 0.0625,-0.296875 -0.109375,0 -0.609375,-0.046875 -0.625,-0.15625 V -0.5 c 0,-0.15625 0.046875,-0.40625 0.09375,-0.671875 l 0.84375,-4.3125 C 2.59375,-5.78125 2.640625,-6.0625 2.71875,-6.21875 2.765625,-6.328125 3.296875,-6.390625 3.40625,-6.390625 3.453125,-6.4375 3.5,-6.625 3.453125,-6.671875 3.078125,-6.65625 2.71875,-6.625 2.359375,-6.625 Z m 0,0"
               id="id-f67d97fe-3981-4f5a-b203-fcd80dc2d6d9" />
          </g>
        </g>
        <g
           style="fill:#000000;fill-opacity:1"
           id="id-0eb21ae6-adf0-4801-904d-245539a7e2b3">
          <g
             transform="translate(153.277,131.148)"
             id="g12616">
            <path
               style="stroke:none"
               d="m 2.15625,-2.984375 c 0,-0.25 -0.265625,-0.4375 -0.5,-0.4375 -0.265625,0 -0.390625,0.265625 -0.46875,0.484375 l -0.75,2.203125 c -0.015625,0.0625 -0.078125,0.1875 -0.078125,0.25 0,0.0625 0.046875,0.15625 0.125,0.15625 0.109375,0 0.234375,-0.15625 0.28125,-0.234375 l 1.1875,-1.875 C 2.0625,-2.59375 2.15625,-2.796875 2.15625,-2.984375 Z m 0,0"
               id="id-88421f75-fe3a-4dc5-92ac-a8af51bf4bc9" />
          </g>
        </g>
        <g
           style="fill:#000000;fill-opacity:1"
           id="id-86a9e206-fdb2-4248-a9cb-3c97bc7711ca">
          <g
             transform="translate(155.873,131.148)"
             id="g12620">
            <path
               style="stroke:none"
               d="m 2.15625,-2.984375 c 0,-0.25 -0.265625,-0.4375 -0.5,-0.4375 -0.265625,0 -0.390625,0.265625 -0.46875,0.484375 l -0.75,2.203125 c -0.015625,0.0625 -0.078125,0.1875 -0.078125,0.25 0,0.0625 0.046875,0.15625 0.125,0.15625 0.109375,0 0.234375,-0.15625 0.28125,-0.234375 l 1.1875,-1.875 C 2.0625,-2.59375 2.15625,-2.796875 2.15625,-2.984375 Z m 0,0"
               id="id-5c73d367-a8be-472d-a0cd-f9d5390a94d0" />
          </g>
        </g>
        <g
           style="fill:#000000;fill-opacity:1"
           id="id-4749edd0-e48c-423f-bfe2-0b6b6b0e4c1c">
          <g
             transform="translate(152.448,138.413)"
             id="g12624">
            <path
               style="stroke:none"
               d="m 2.296875,-3.1875 c -0.390625,0 -0.765625,0.34375 -0.953125,0.484375 0,0.015625 0,0.015625 -0.015625,0.015625 -0.015625,0 -0.015625,-0.015625 -0.015625,-0.015625 0,-0.0625 0.03125,-0.328125 0.046875,-0.375 C 1.359375,-3.09375 1.3125,-3.125 1.265625,-3.125 0.984375,-3.015625 0.609375,-2.9375 0.25,-2.90625 v 0.203125 c 0.046875,0 0.421875,0 0.46875,0.125 0.03125,0.09375 0.03125,0.3125 0.03125,0.40625 v 1.328125 c 0,0.21875 0,0.421875 -0.03125,0.546875 C 0.703125,-0.21875 0.34375,-0.1875 0.265625,-0.1875 V 0.015625 C 0.546875,0 0.75,-0.015625 1.03125,-0.015625 1.3125,-0.015625 1.5,0 1.796875,0.015625 V -0.1875 c -0.09375,0 -0.4375,-0.03125 -0.453125,-0.109375 C 1.296875,-0.421875 1.296875,-0.625 1.296875,-0.84375 v -1.515625 c 0,-0.109375 0.359375,-0.40625 0.6875,-0.40625 0.515625,0 0.671875,0.28125 0.671875,1.1875 v 0.734375 c 0,0.21875 0,0.421875 -0.03125,0.546875 C 2.59375,-0.21875 2.265625,-0.1875 2.171875,-0.1875 v 0.203125 c 0.296875,-0.015625 0.46875,-0.03125 0.75,-0.03125 0.28125,0 0.484375,0.015625 0.78125,0.03125 V -0.1875 c -0.09375,0 -0.4375,-0.03125 -0.46875,-0.109375 C 3.203125,-0.421875 3.21875,-0.625 3.21875,-0.84375 v -0.890625 c 0,-0.140625 -0.015625,-0.375 -0.03125,-0.53125 0,-0.015625 -0.015625,-0.078125 -0.015625,-0.078125 0,-0.0625 0.359375,-0.421875 0.703125,-0.421875 0.59375,0 0.6875,0.421875 0.6875,1.140625 v 0.78125 c 0,0.21875 0,0.421875 -0.03125,0.546875 C 4.5,-0.21875 4.15625,-0.1875 4.078125,-0.1875 V 0.015625 C 4.359375,0 4.5625,-0.015625 4.828125,-0.015625 5.109375,-0.015625 5.3125,0 5.609375,0.015625 V -0.1875 c -0.09375,0 -0.4375,-0.03125 -0.46875,-0.109375 -0.03125,-0.125 -0.03125,-0.328125 -0.03125,-0.53125 v -0.8125 c 0,-1.0625 -0.15625,-1.546875 -0.9375,-1.546875 C 3.828125,-3.1875 3.4375,-2.875 3.125,-2.59375 3.015625,-3.015625 2.734375,-3.1875 2.296875,-3.1875 Z m 0,0"
               id="id-bffa22a5-1979-47b3-9f64-4a14c6df6925" />
          </g>
          <g
             transform="translate(158.143,138.413)"
             id="g12627">
            <path
               style="stroke:none"
               d="m 1.75,-2.953125 c 0.640625,0 1.015625,0.8125 1.015625,1.515625 0,0.625 -0.234375,1.25 -0.84375,1.25 -0.65625,0 -1.015625,-0.796875 -1.015625,-1.5 0,-0.640625 0.234375,-1.265625 0.84375,-1.265625 z M 1.828125,-3.1875 c -0.875,0 -1.53125,0.703125 -1.53125,1.640625 0,0.90625 0.59375,1.59375 1.546875,1.59375 0.875,0 1.53125,-0.71875 1.53125,-1.65625 0,-0.90625 -0.59375,-1.578125 -1.546875,-1.578125 z m 0,0"
               id="id-38d94dfc-0c93-4ad4-ac28-666eb015afaf" />
          </g>
          <g
             transform="translate(161.801,138.413)"
             id="g12630">
            <path
               style="stroke:none"
               d="m 0.640625,-3.953125 v 3.125 c 0,0.21875 0,0.40625 -0.03125,0.53125 C 0.59375,-0.21875 0.25,-0.1875 0.15625,-0.1875 V 0.015625 C 0.453125,0 0.640625,-0.015625 0.921875,-0.015625 1.203125,-0.015625 1.390625,0 1.6875,0.015625 V -0.1875 C 1.59375,-0.1875 1.25,-0.21875 1.234375,-0.296875 1.1875,-0.421875 1.1875,-0.609375 1.1875,-0.828125 V -4.1875 c 0,-0.390625 0.078125,-0.625 0.078125,-0.625 0,-0.046875 -0.03125,-0.109375 -0.078125,-0.109375 -0.296875,0.140625 -0.65625,0.25 -1.015625,0.28125 -0.03125,0 -0.015625,0.1875 0,0.1875 0.1875,0 0.390625,0.015625 0.4375,0.125 0.03125,0.078125 0.03125,0.265625 0.03125,0.375 z m 0,0"
               id="id-c6777587-96a9-4199-85cd-09f098835d60" />
          </g>
        </g>
      </g>
    </g>
  </g>
</svg>
