<?xml version="1.0" encoding="UTF-8" standalone="no"?>
<svg
   xmlns:ns2="http://www.iki.fi/pav/software/textext/"
   xmlns:dc="http://purl.org/dc/elements/1.1/"
   xmlns:cc="http://creativecommons.org/ns#"
   xmlns:rdf="http://www.w3.org/1999/02/22-rdf-syntax-ns#"
   xmlns:svg="http://www.w3.org/2000/svg"
   xmlns="http://www.w3.org/2000/svg"
   xmlns:sodipodi="http://sodipodi.sourceforge.net/DTD/sodipodi-0.dtd"
   xmlns:inkscape="http://www.inkscape.org/namespaces/inkscape"
   width="55.978558mm"
   height="38.157536mm"
   viewBox="0 0 55.978558 38.157536"
   version="1.1"
   id="svg10093"
   inkscape:version="1.0.1 (3bc2e813f5, 2020-09-07)"
   sodipodi:docname="fig_7_2.svg">
  <defs
     id="defs10087">
    <marker
       style="overflow:visible"
       id="Arrow1Mstart"
       refX="0"
       refY="0"
       orient="auto"
       inkscape:stockid="Arrow1Mstart"
       inkscape:isstock="true">
      <path
         transform="matrix(0.4,0,0,0.4,4,0)"
         style="fill:#000000;fill-opacity:1;fill-rule:evenodd;stroke:#000000;stroke-width:1pt;stroke-opacity:1"
         d="M 0,0 5,-5 -12.5,0 5,5 Z"
         id="path10693" />
    </marker>
    <marker
       style="overflow:visible"
       id="marker13129"
       refX="0"
       refY="0"
       orient="auto"
       inkscape:stockid="Arrow1Mend"
       inkscape:isstock="true">
      <path
         transform="matrix(-0.4,0,0,-0.4,-4,0)"
         style="fill:#000000;fill-opacity:1;fill-rule:evenodd;stroke:#000000;stroke-width:1pt;stroke-opacity:1"
         d="M 0,0 5,-5 -12.5,0 5,5 Z"
         id="path13127" />
    </marker>
    <marker
       style="overflow:visible"
       id="Arrow1Send"
       refX="0"
       refY="0"
       orient="auto"
       inkscape:stockid="Arrow1Send"
       inkscape:isstock="true">
      <path
         transform="matrix(-0.2,0,0,-0.2,-1.2,0)"
         style="fill:#9e7867;fill-opacity:1;fill-rule:evenodd;stroke:#9e7867;stroke-width:1pt;stroke-opacity:1"
         d="M 0,0 5,-5 -12.5,0 5,5 Z"
         id="path10702" />
    </marker>
    <marker
       style="overflow:visible"
       id="marker11144"
       refX="0"
       refY="0"
       orient="auto"
       inkscape:stockid="Arrow1Mend"
       inkscape:isstock="true">
      <path
         transform="matrix(-0.4,0,0,-0.4,-4,0)"
         style="fill:#506a65;fill-opacity:1;fill-rule:evenodd;stroke:#506a65;stroke-width:1pt;stroke-opacity:1"
         d="M 0,0 5,-5 -12.5,0 5,5 Z"
         id="path11142" />
    </marker>
    <pattern
       id="EMFhbasepattern"
       patternUnits="userSpaceOnUse"
       width="6"
       height="6"
       x="0"
       y="0" />
    <g
       id="id-b2ff1fdc-f72a-489a-9c0f-baedaa3015c7-7">
      <symbol
         overflow="visible"
         id="id-6802e867-ebd4-489c-90f4-21aff85ec3ca-8">
        <path
           style="stroke:none"
           d="M 0.5,0 H 4.484375 V -4.8125 H 0.5 Z M 1,-0.5 V -4.3125 H 3.984375 V -0.5 Z m 0,0"
           id="id-df85db8a-d7dd-4bdd-84dc-f1dfcb46c8c2-7" />
      </symbol>
      <symbol
         overflow="visible"
         id="id-2e4fcfef-162a-47da-861e-55050cd96820-4">
        <path
           style="stroke:none"
           d="M 2,-1.125 V -5.28125 C 2,-5.578125 2,-5.859375 2.046875,-6.015625 2.078125,-6.125 2.609375,-6.15625 2.71875,-6.15625 c 0.046875,-0.046875 0.046875,-0.234375 0,-0.28125 -0.390625,0.015625 -0.75,0.03125 -1.140625,0.03125 -0.375,0 -0.734375,-0.015625 -1.140625,-0.03125 -0.046875,0.046875 -0.03125,0.234375 0,0.28125 0.125,0 0.640625,0.03125 0.671875,0.140625 0.046875,0.15625 0.046875,0.4375 0.046875,0.734375 V -1.125 c 0,0.28125 0,0.5625 -0.046875,0.71875 C 1.078125,-0.296875 0.5625,-0.25 0.4375,-0.25 c -0.03125,0.046875 -0.046875,0.234375 0,0.28125 C 0.8125,0.03125 1.140625,0 1.59375,0 c 1.296875,0 2.265625,0.046875 3.328125,0.046875 0.0625,-0.4375 0.328125,-1.09375 0.515625,-1.625 -0.03125,-0.03125 -0.140625,-0.0625 -0.25,-0.0625 -0.0625,0 -0.109375,0.03125 -0.125,0.0625 -0.15625,0.515625 -0.375,0.8125 -0.609375,0.984375 -0.28125,0.1875 -0.78125,0.265625 -1.140625,0.265625 H 2.75 c -0.40625,0 -0.5625,0 -0.6875,-0.09375 C 2,-0.484375 2,-0.984375 2,-1.125 Z m 0,0"
           id="id-c3b5b219-d719-47c3-8707-3c6e3b848730-3" />
      </symbol>
      <symbol
         overflow="visible"
         id="id-29e16bc6-418b-4c0d-b052-39c3379b0390-9">
        <path
           style="stroke:none"
           d="m 2.40625,-4.046875 c 0.890625,0 1.375,1.109375 1.375,2.078125 0,0.859375 -0.296875,1.71875 -1.15625,1.71875 -0.890625,0 -1.375,-1.109375 -1.375,-2.078125 0,-0.859375 0.3125,-1.71875 1.15625,-1.71875 z M 2.515625,-4.375 c -1.203125,0 -2.109375,0.96875 -2.109375,2.25 0,1.25 0.8125,2.1875 2.125,2.1875 1.203125,0 2.09375,-0.984375 2.09375,-2.265625 0,-1.25 -0.8125,-2.171875 -2.109375,-2.171875 z m 0,0"
           id="id-f13499dd-00e8-4fa8-878e-99f1ab3420b3-9" />
      </symbol>
      <symbol
         overflow="visible"
         id="id-00e0d378-8b42-469d-b1da-16ced96f4a1e-4">
        <path
           style="stroke:none"
           d="m 2.859375,-4.359375 c -0.390625,0 -0.953125,0.34375 -1.203125,0.546875 -0.015625,0.015625 -0.015625,0.03125 -0.03125,0.03125 -0.015625,0 -0.015625,-0.03125 -0.015625,-0.046875 0,-0.078125 0.0625,-0.328125 0.0625,-0.40625 0,-0.015625 -0.0625,-0.046875 -0.109375,-0.046875 -0.390625,0.15625 -0.890625,0.25 -1.40625,0.296875 v 0.265625 c 0.078125,0 0.578125,0 0.65625,0.171875 0.046875,0.125 0.046875,0.390625 0.046875,0.515625 v 4.046875 c 0,0.296875 0,0.578125 -0.046875,0.75 C 0.78125,1.875 0.3125,1.90625 0.171875,1.90625 V 2.203125 C 0.59375,2.1875 0.84375,2.15625 1.21875,2.15625 c 0.390625,0 0.671875,0.03125 1.078125,0.046875 V 1.90625 C 2.15625,1.90625 1.6875,1.875 1.65625,1.765625 1.609375,1.609375 1.609375,1.328125 1.609375,1.03125 v -0.9375 c 0,-0.078125 0.03125,-0.125 0.03125,-0.125 0.15625,0.046875 0.4375,0.109375 0.6875,0.109375 1.125,0 2.328125,-1.109375 2.328125,-2.390625 0,-0.859375 -0.5625,-2.046875 -1.796875,-2.046875 z M 2.4375,-3.78125 c 0.765625,0 1.40625,0.65625 1.40625,1.84375 0,0.8125 -0.484375,1.671875 -1.3125,1.671875 -0.34375,0 -0.921875,-0.21875 -0.921875,-0.734375 v -2.40625 c 0,-0.125 0.421875,-0.375 0.828125,-0.375 z m 0,0"
           id="id-7e8ba272-f381-414a-a5da-136e30a9cff5-5" />
      </symbol>
    </g>
    <g
       id="id-5bdc5f6a-19f4-4292-995c-d5ab56faa273-6">
      <symbol
         overflow="visible"
         id="id-3f9c4f46-6679-4395-9389-c0e1df1c5bae-0">
        <path
           style="stroke:none"
           d=""
           id="id-3793220c-ab8b-4256-8a21-93e7d3f317ce-2" />
      </symbol>
      <symbol
         overflow="visible"
         id="id-d0c4cbe7-da4d-4365-b2ea-56f13388022f-2">
        <path
           style="stroke:none"
           d="M 2.359375,-6.625 C 2,-6.625 1.625,-6.65625 1.25,-6.671875 1.1875,-6.625 1.15625,-6.4375 1.1875,-6.390625 c 0.109375,0 0.609375,0.0625 0.609375,0.171875 v 0.078125 c 0,0.15625 -0.03125,0.40625 -0.078125,0.65625 L 0.875,-1.171875 C 0.8125,-0.875 0.765625,-0.59375 0.6875,-0.421875 0.640625,-0.3125 0.109375,-0.265625 0,-0.265625 c -0.046875,0.0625 -0.09375,0.25 -0.046875,0.296875 0.390625,-0.015625 0.75,-0.046875 1.109375,-0.046875 0.359375,0 0.71875,0.03125 1.09375,0.046875 0.0625,-0.046875 0.09375,-0.234375 0.0625,-0.296875 -0.109375,0 -0.609375,-0.046875 -0.625,-0.15625 V -0.5 c 0,-0.15625 0.046875,-0.40625 0.09375,-0.671875 l 0.84375,-4.3125 C 2.59375,-5.78125 2.640625,-6.0625 2.71875,-6.21875 2.765625,-6.328125 3.296875,-6.390625 3.40625,-6.390625 3.453125,-6.4375 3.5,-6.625 3.453125,-6.671875 3.078125,-6.65625 2.71875,-6.625 2.359375,-6.625 Z m 0,0"
           id="id-e52c62ab-0cfd-473c-ba15-79b8d03a1f24-4" />
      </symbol>
      <symbol
         overflow="visible"
         id="id-968b8e69-cdf3-4b11-8f2d-077cff9a4ddf-4">
        <path
           style="stroke:none"
           d=""
           id="id-b49c7671-b51a-47a9-b5f0-8aaa581a9789-0" />
      </symbol>
      <symbol
         overflow="visible"
         id="id-0fd48548-a035-4d73-aa09-805edbe68c5a-9">
        <path
           style="stroke:none"
           d="m 2.15625,-2.984375 c 0,-0.25 -0.265625,-0.4375 -0.5,-0.4375 -0.265625,0 -0.390625,0.265625 -0.46875,0.484375 l -0.75,2.203125 c -0.015625,0.0625 -0.078125,0.1875 -0.078125,0.25 0,0.0625 0.046875,0.15625 0.125,0.15625 0.109375,0 0.234375,-0.15625 0.28125,-0.234375 l 1.1875,-1.875 C 2.0625,-2.59375 2.15625,-2.796875 2.15625,-2.984375 Z m 0,0"
           id="id-312773f7-5bd3-490c-a615-aaf8a6447e69-5" />
      </symbol>
      <symbol
         overflow="visible"
         id="id-67e03e68-1c20-45b8-9951-b4e923adebc9-3">
        <path
           style="stroke:none"
           d="m 0.359375,0 h 2.90625 V -3.515625 H 0.359375 Z M 0.71875,-0.359375 v -2.78125 h 2.1875 v 2.78125 z m 0,0"
           id="id-eb18c07d-bdb3-468e-8c33-102d7c231418-4" />
      </symbol>
      <symbol
         overflow="visible"
         id="id-4bd509eb-6323-4361-bb01-8fe3490e9548-4">
        <path
           style="stroke:none"
           d="m 2.296875,-3.1875 c -0.390625,0 -0.765625,0.34375 -0.953125,0.484375 0,0.015625 0,0.015625 -0.015625,0.015625 -0.015625,0 -0.015625,-0.015625 -0.015625,-0.015625 0,-0.0625 0.03125,-0.328125 0.046875,-0.375 C 1.359375,-3.09375 1.3125,-3.125 1.265625,-3.125 0.984375,-3.015625 0.609375,-2.9375 0.25,-2.90625 v 0.203125 c 0.046875,0 0.421875,0 0.46875,0.125 0.03125,0.09375 0.03125,0.3125 0.03125,0.40625 v 1.328125 c 0,0.21875 0,0.421875 -0.03125,0.546875 C 0.703125,-0.21875 0.34375,-0.1875 0.265625,-0.1875 V 0.015625 C 0.546875,0 0.75,-0.015625 1.03125,-0.015625 1.3125,-0.015625 1.5,0 1.796875,0.015625 V -0.1875 c -0.09375,0 -0.4375,-0.03125 -0.453125,-0.109375 C 1.296875,-0.421875 1.296875,-0.625 1.296875,-0.84375 v -1.515625 c 0,-0.109375 0.359375,-0.40625 0.6875,-0.40625 0.515625,0 0.671875,0.28125 0.671875,1.1875 v 0.734375 c 0,0.21875 0,0.421875 -0.03125,0.546875 C 2.59375,-0.21875 2.265625,-0.1875 2.171875,-0.1875 v 0.203125 c 0.296875,-0.015625 0.46875,-0.03125 0.75,-0.03125 0.28125,0 0.484375,0.015625 0.78125,0.03125 V -0.1875 c -0.09375,0 -0.4375,-0.03125 -0.46875,-0.109375 C 3.203125,-0.421875 3.21875,-0.625 3.21875,-0.84375 v -0.890625 c 0,-0.140625 -0.015625,-0.375 -0.03125,-0.53125 0,-0.015625 -0.015625,-0.078125 -0.015625,-0.078125 0,-0.0625 0.359375,-0.421875 0.703125,-0.421875 0.59375,0 0.6875,0.421875 0.6875,1.140625 v 0.78125 c 0,0.21875 0,0.421875 -0.03125,0.546875 C 4.5,-0.21875 4.15625,-0.1875 4.078125,-0.1875 V 0.015625 C 4.359375,0 4.5625,-0.015625 4.828125,-0.015625 5.109375,-0.015625 5.3125,0 5.609375,0.015625 V -0.1875 c -0.09375,0 -0.4375,-0.03125 -0.46875,-0.109375 -0.03125,-0.125 -0.03125,-0.328125 -0.03125,-0.53125 v -0.8125 c 0,-1.0625 -0.15625,-1.546875 -0.9375,-1.546875 C 3.828125,-3.1875 3.4375,-2.875 3.125,-2.59375 3.015625,-3.015625 2.734375,-3.1875 2.296875,-3.1875 Z m 0,0"
           id="id-1eab4c17-769c-45e9-befd-23fc32e6e6bf-2" />
      </symbol>
      <symbol
         overflow="visible"
         id="id-b0422d0d-f508-411b-9ad6-74b8fc0b6f08-7">
        <path
           style="stroke:none"
           d="m 1.75,-2.953125 c 0.640625,0 1.015625,0.8125 1.015625,1.515625 0,0.625 -0.234375,1.25 -0.84375,1.25 -0.65625,0 -1.015625,-0.796875 -1.015625,-1.5 0,-0.640625 0.234375,-1.265625 0.84375,-1.265625 z M 1.828125,-3.1875 c -0.875,0 -1.53125,0.703125 -1.53125,1.640625 0,0.90625 0.59375,1.59375 1.546875,1.59375 0.875,0 1.53125,-0.71875 1.53125,-1.65625 0,-0.90625 -0.59375,-1.578125 -1.546875,-1.578125 z m 0,0"
           id="id-1a1b366f-6efb-4dcf-8ffb-b0eb5ef1fefd-8" />
      </symbol>
      <symbol
         overflow="visible"
         id="id-f08f7fb0-4d53-4d38-8ea9-ad6e04210ca9-4">
        <path
           style="stroke:none"
           d="m 0.640625,-3.953125 v 3.125 c 0,0.21875 0,0.40625 -0.03125,0.53125 C 0.59375,-0.21875 0.25,-0.1875 0.15625,-0.1875 V 0.015625 C 0.453125,0 0.640625,-0.015625 0.921875,-0.015625 1.203125,-0.015625 1.390625,0 1.6875,0.015625 V -0.1875 C 1.59375,-0.1875 1.25,-0.21875 1.234375,-0.296875 1.1875,-0.421875 1.1875,-0.609375 1.1875,-0.828125 V -4.1875 c 0,-0.390625 0.078125,-0.625 0.078125,-0.625 0,-0.046875 -0.03125,-0.109375 -0.078125,-0.109375 -0.296875,0.140625 -0.65625,0.25 -1.015625,0.28125 -0.03125,0 -0.015625,0.1875 0,0.1875 0.1875,0 0.390625,0.015625 0.4375,0.125 0.03125,0.078125 0.03125,0.265625 0.03125,0.375 z m 0,0"
           id="id-601cc911-bbd7-47b1-bb60-a2eca5c0311b-5" />
      </symbol>
    </g>
    <pattern
       id="EMFhbasepattern-2"
       patternUnits="userSpaceOnUse"
       width="6"
       height="6"
       x="0"
       y="0" />
    <g
       id="g10144"
       style="fill:#9e7867;fill-opacity:1;stroke-width:0">
      <symbol
         overflow="visible"
         id="symbol10130"
         style="fill:#9e7867;fill-opacity:1;stroke-width:0">
        <path
           style="fill:#9e7867;fill-opacity:1;stroke:none;stroke-width:0"
           d="M 0.5,0 H 4.484375 V -4.8125 H 0.5 Z M 1,-0.5 V -4.3125 H 3.984375 V -0.5 Z m 0,0"
           id="path10128" />
      </symbol>
      <symbol
         overflow="visible"
         id="symbol10134"
         style="fill:#9e7867;fill-opacity:1;stroke-width:0">
        <path
           style="fill:#9e7867;fill-opacity:1;stroke:none;stroke-width:0"
           d="m 2.75,-4.359375 c -0.890625,0 -2.359375,1 -2.359375,2.3125 0,1.203125 0.828125,2.125 1.75,2.125 0.46875,0 1.15625,-0.421875 1.3125,-0.59375 0.015625,-0.015625 0.03125,0.015625 0.03125,0.0625 v 0.34375 c 0,0.0625 0.015625,0.1875 0.078125,0.1875 0,0 0.765625,-0.25 1.28125,-0.28125 0.046875,0 0.078125,-0.109375 0.078125,-0.140625 0,-0.03125 -0.015625,-0.109375 -0.03125,-0.109375 -0.03125,-0.015625 -0.5,0 -0.59375,-0.171875 -0.0625,-0.140625 -0.0625,-0.578125 -0.0625,-0.953125 v -4.1875 c 0,-0.53125 0.109375,-0.84375 0.109375,-0.84375 0,-0.0625 -0.0625,-0.15625 -0.109375,-0.15625 -0.421875,0.1875 -0.921875,0.328125 -1.40625,0.375 -0.03125,0.015625 -0.015625,0.265625 0,0.265625 0.265625,0 0.546875,0.03125 0.59375,0.15625 0.0625,0.109375 0.0625,0.359375 0.0625,0.484375 v 1.03125 c 0,0.109375 -0.015625,0.1875 -0.0625,0.1875 C 3.328125,-4.3125 2.953125,-4.359375 2.75,-4.359375 Z m -0.328125,0.40625 c 0.5625,0 1.0625,0.265625 1.0625,0.484375 v 2.546875 c 0,0.15625 -0.421875,0.390625 -0.875,0.390625 -0.90625,0 -1.40625,-0.8125 -1.40625,-1.765625 0,-0.84375 0.46875,-1.65625 1.21875,-1.65625 z m 0,0"
           id="path10132" />
      </symbol>
      <symbol
         overflow="visible"
         id="symbol10138"
         style="fill:#9e7867;fill-opacity:1;stroke-width:0">
        <path
           style="fill:#9e7867;fill-opacity:1;stroke:none;stroke-width:0"
           d=""
           id="path10136" />
      </symbol>
      <symbol
         overflow="visible"
         id="symbol10142"
         style="fill:#9e7867;fill-opacity:1;stroke-width:0">
        <path
           style="fill:#9e7867;fill-opacity:1;stroke:none;stroke-width:0"
           d="m 2.546875,-6.5625 c -0.390625,0 -0.921875,0 -1.328125,-0.03125 C 1.171875,-6.546875 1.109375,-6.296875 1.140625,-6.234375 1.25,-6.21875 1.6875,-6.203125 1.703125,-6.078125 1.75,-5.875 1.671875,-5.546875 1.59375,-5.125 L 0.875,-1.4375 C 0.796875,-1 0.734375,-0.6875 0.625,-0.484375 0.546875,-0.359375 0.109375,-0.3125 -0.015625,-0.3125 -0.0625,-0.234375 -0.125,0 -0.09375,0.0625 0.28125,0.015625 0.859375,-0.015625 1.25,-0.015625 c 0.390625,0 1.046875,0.03125 1.40625,0.078125 C 2.703125,0 2.75,-0.234375 2.71875,-0.3125 c -0.109375,0 -0.625,-0.046875 -0.640625,-0.171875 C 2.03125,-0.6875 2.109375,-1 2.1875,-1.4375 l 0.28125,-1.46875 c 0.015625,-0.125 0.4375,-0.140625 0.703125,-0.140625 0.34375,0 0.59375,0.015625 0.6875,0.0625 0.078125,0.046875 0.1875,0.140625 0.203125,0.625 0,0.046875 0.046875,0.078125 0.125,0.078125 0.0625,0 0.15625,-0.015625 0.171875,-0.046875 L 4.734375,-4.25 C 4.71875,-4.28125 4.640625,-4.3125 4.5625,-4.3125 4.5,-4.3125 4.46875,-4.28125 4.453125,-4.234375 4.1875,-3.65625 4.03125,-3.515625 3.484375,-3.515625 h -0.5 c -0.1875,0 -0.375,-0.046875 -0.375,-0.109375 L 2.96875,-5.46875 C 3.03125,-5.75 3.0625,-5.96875 3.125,-6.078125 3.203125,-6.1875 3.40625,-6.1875 3.625,-6.1875 h 0.765625 c 0.578125,0 0.71875,0.453125 0.8125,1 0.015625,0.046875 0.0625,0.078125 0.125,0.078125 0.078125,0 0.203125,-0.015625 0.234375,-0.046875 0,-0.453125 -0.015625,-0.984375 0.015625,-1.484375 C 5.03125,-6.625 2.9375,-6.5625 2.546875,-6.5625 Z m 0,0"
           id="path10140" />
      </symbol>
    </g>
    <g
       id="g7316"
       style="fill:#6a4239;fill-opacity:1;stroke-width:0">
      <symbol
         id="symbol7310"
         overflow="visible"
         style="fill:#6a4239;fill-opacity:1;stroke-width:0">
        <path
           id="path7308"
           d=""
           style="fill:#6a4239;fill-opacity:1;stroke:none;stroke-width:0" />
      </symbol>
      <symbol
         id="symbol7314"
         overflow="visible"
         style="fill:#6a4239;fill-opacity:1;stroke-width:0">
        <path
           id="path7312"
           d="m 2.34375,-4.40625 c -1.0625,0 -2.171875,2.1875 -2.171875,3.390625 0,0.75 0.34375,1.078125 0.890625,1.078125 0.546875,0 1.15625,-0.59375 1.6875,-1.265625 -0.03125,0.1875 -0.046875,0.375 -0.046875,0.53125 0,0.40625 0.140625,0.71875 0.453125,0.71875 0.4375,0 0.78125,-0.546875 0.84375,-0.75 0.015625,-0.03125 -0.015625,-0.1875 -0.046875,-0.21875 -0.140625,0.140625 -0.296875,0.25 -0.515625,0.25 -0.15625,0 -0.359375,-0.078125 -0.359375,-0.53125 0,-0.15625 0.015625,-0.390625 0.109375,-0.6875 l 0.484375,-0.78125 c 0.25,-0.3125 0.5625,-0.921875 0.5625,-1.21875 0,-0.28125 -0.203125,-0.5 -0.328125,-0.5 -0.15625,0 -0.53125,0.9375 -0.78125,1.65625 l -0.25,0.4375 c 0.015625,-0.171875 0.03125,-0.515625 0.03125,-0.71875 0,-0.765625 -0.1875,-1.390625 -0.5625,-1.390625 z m -1.703125,3.625 c 0,-1.03125 1.03125,-2.921875 1.625,-2.921875 0.234375,0 0.3125,0.34375 0.3125,0.796875 v 0.0625 c 0,0.46875 -0.09375,0.984375 -0.25,1.328125 -0.5,0.71875 -1.015625,1.21875 -1.375,1.21875 -0.1875,0 -0.3125,-0.125 -0.3125,-0.484375 z m 0,0"
           style="fill:#6a4239;fill-opacity:1;stroke:none;stroke-width:0" />
      </symbol>
    </g>
    <g
       id="g10172"
       style="fill:#506a68;fill-opacity:1;stroke-width:0">
      <symbol
         overflow="visible"
         id="symbol10157"
         style="fill:#506a68;fill-opacity:1;stroke-width:0">
        <path
           style="fill:#506a68;fill-opacity:1;stroke:none;stroke-width:0"
           d="M 0.5,0 H 4.484375 V -4.8125 H 0.5 Z M 1,-0.5 V -4.3125 H 3.984375 V -0.5 Z m 0,0"
           id="path10155" />
      </symbol>
      <symbol
         overflow="visible"
         id="symbol10161"
         style="fill:#506a68;fill-opacity:1;stroke-width:0">
        <path
           style="fill:#506a68;fill-opacity:1;stroke:none;stroke-width:0"
           d="m 2.75,-4.359375 c -0.890625,0 -2.359375,1 -2.359375,2.3125 0,1.203125 0.828125,2.125 1.75,2.125 0.46875,0 1.15625,-0.421875 1.3125,-0.59375 0.015625,-0.015625 0.03125,0.015625 0.03125,0.0625 v 0.34375 c 0,0.0625 0.015625,0.1875 0.078125,0.1875 0,0 0.765625,-0.25 1.28125,-0.28125 0.046875,0 0.078125,-0.109375 0.078125,-0.140625 0,-0.03125 -0.015625,-0.109375 -0.03125,-0.109375 -0.03125,-0.015625 -0.5,0 -0.59375,-0.171875 -0.0625,-0.140625 -0.0625,-0.578125 -0.0625,-0.953125 v -4.1875 c 0,-0.53125 0.109375,-0.84375 0.109375,-0.84375 0,-0.0625 -0.0625,-0.15625 -0.109375,-0.15625 -0.421875,0.1875 -0.921875,0.328125 -1.40625,0.375 -0.03125,0.015625 -0.015625,0.265625 0,0.265625 0.265625,0 0.546875,0.03125 0.59375,0.15625 0.0625,0.109375 0.0625,0.359375 0.0625,0.484375 v 1.03125 c 0,0.109375 -0.015625,0.1875 -0.0625,0.1875 C 3.328125,-4.3125 2.953125,-4.359375 2.75,-4.359375 Z m -0.328125,0.40625 c 0.5625,0 1.0625,0.265625 1.0625,0.484375 v 2.546875 c 0,0.15625 -0.421875,0.390625 -0.875,0.390625 -0.90625,0 -1.40625,-0.8125 -1.40625,-1.765625 0,-0.84375 0.46875,-1.65625 1.21875,-1.65625 z m 0,0"
           id="path10159" />
      </symbol>
      <symbol
         overflow="visible"
         id="symbol10165"
         style="fill:#506a68;fill-opacity:1;stroke-width:0">
        <path
           style="fill:#506a68;fill-opacity:1;stroke:none;stroke-width:0"
           d=""
           id="path10163" />
      </symbol>
      <symbol
         overflow="visible"
         id="symbol10169"
         style="fill:#506a68;fill-opacity:1;stroke-width:0">
        <path
           style="fill:#506a68;fill-opacity:1;stroke:none;stroke-width:0"
           d="m 1.25,-5.609375 -0.84375,4.375 C 0.375,-1.15625 0.3125,-0.765625 0.3125,-0.625 c 0,0.5 0.3125,0.703125 0.640625,0.703125 0.53125,0 1.421875,-0.890625 1.59375,-1.203125 0,-0.0625 -0.078125,-0.265625 -0.15625,-0.265625 -0.03125,0.0625 -0.484375,0.609375 -0.703125,0.609375 -0.109375,0 -0.140625,-0.125 -0.140625,-0.21875 0,-0.046875 0.03125,-0.265625 0.03125,-0.328125 l 0.9375,-4.71875 c 0.046875,-0.234375 0.125,-0.65625 0.125,-0.734375 0,-0.0625 -0.015625,-0.171875 -0.0625,-0.203125 -0.21875,0.09375 -1.265625,0.296875 -1.8125,0.34375 -0.03125,0.046875 -0.0625,0.265625 -0.03125,0.296875 0.15625,0 0.609375,0 0.609375,0.1875 0,0.109375 -0.0625,0.359375 -0.09375,0.546875 z m 0,0"
           id="path10167" />
      </symbol>
    </g>
  </defs>
  <sodipodi:namedview
     id="base"
     pagecolor="#ffffff"
     bordercolor="#666666"
     borderopacity="1.0"
     inkscape:pageopacity="0.0"
     inkscape:pageshadow="2"
     inkscape:zoom="1.979899"
     inkscape:cx="0.69703468"
     inkscape:cy="128.29786"
     inkscape:document-units="mm"
     inkscape:current-layer="layer1"
     inkscape:document-rotation="0"
     showgrid="false"
     inkscape:window-width="1600"
     inkscape:window-height="837"
     inkscape:window-x="-8"
     inkscape:window-y="-8"
     inkscape:window-maximized="1" />
  <metadata
     id="metadata10090">
    <rdf:RDF>
      <cc:Work
         rdf:about="">
        <dc:format>image/svg+xml</dc:format>
        <dc:type
           rdf:resource="http://purl.org/dc/dcmitype/StillImage" />
        <dc:title />
      </cc:Work>
    </rdf:RDF>
  </metadata>
  <g
     inkscape:label="Layer 1"
     inkscape:groupmode="layer"
     id="layer1"
     transform="translate(-88.343943,-8.0365546)">
    <ellipse
       style="opacity:1;fill:none;fill-opacity:1;stroke:#aa9e95;stroke-width:0.264711;stroke-linecap:round;stroke-linejoin:round;stroke-miterlimit:4;stroke-dasharray:1.05884, 0.529421;stroke-dashoffset:0;stroke-opacity:1"
       id="path12687"
       cx="71.766434"
       cy="61.594658"
       rx="2.1769521"
       ry="10.115038"
       transform="matrix(0.90484934,-0.42573193,0.46500299,0.88530911,0,0)" />
    <ellipse
       style="opacity:1;fill:none;fill-opacity:1;stroke:#aa9e95;stroke-width:0.264711;stroke-linecap:round;stroke-linejoin:round;stroke-miterlimit:4;stroke-dasharray:1.05884, 0.529421;stroke-dashoffset:0;stroke-opacity:1"
       id="ellipse12689"
       cx="112.09399"
       cy="80.987793"
       rx="2.1769521"
       ry="10.115038"
       transform="matrix(0.90484934,-0.42573193,0.46500299,0.88530911,0,0)" />
    <path
       style="fill:none;stroke:#aa9e95;stroke-width:0.264583;stroke-linecap:round;stroke-linejoin:miter;stroke-miterlimit:4;stroke-dasharray:1.05833, 0.529166;stroke-dashoffset:0;stroke-opacity:1"
       d="M 89.137074,14.996914 H 134.46153"
       id="path12691" />
    <path
       style="fill:none;stroke:#aa9e95;stroke-width:0.264583;stroke-linecap:round;stroke-linejoin:miter;stroke-miterlimit:4;stroke-dasharray:1.05833, 0.529166;stroke-dashoffset:0;stroke-opacity:1"
       d="M 98.132913,32.988592 H 143.45742"
       id="path12693" />
    <ellipse
       style="opacity:1;fill:none;fill-opacity:1;stroke:#aa9e95;stroke-width:0.264711;stroke-linecap:round;stroke-linejoin:round;stroke-miterlimit:4;stroke-dasharray:none;stroke-dashoffset:0;stroke-opacity:1"
       id="ellipse12695"
       cx="76.948288"
       cy="62.891087"
       rx="2.1769521"
       ry="10.115038"
       transform="matrix(0.90484934,-0.42573193,0.46500299,0.88530911,0,0)" />
    <ellipse
       style="opacity:1;fill:none;fill-opacity:1;stroke:#aa9e95;stroke-width:0.264711;stroke-linecap:round;stroke-linejoin:round;stroke-miterlimit:4;stroke-dasharray:none;stroke-dashoffset:0;stroke-opacity:1"
       id="ellipse12697"
       cx="83.077553"
       cy="75.999855"
       rx="2.1769521"
       ry="10.115038"
       transform="matrix(0.90484934,-0.42573193,0.46500299,0.88530911,0,0)" />
    <ellipse
       style="opacity:1;fill:none;fill-opacity:1;stroke:#aa9e95;stroke-width:0.264711;stroke-linecap:round;stroke-linejoin:round;stroke-miterlimit:4;stroke-dasharray:none;stroke-dashoffset:0;stroke-opacity:1"
       id="ellipse12699"
       cx="89.457672"
       cy="64.722672"
       rx="2.1769521"
       ry="10.115038"
       transform="matrix(0.90484934,-0.42573193,0.46500299,0.88530911,0,0)" />
    <ellipse
       style="opacity:1;fill:none;fill-opacity:1;stroke:#aa9e95;stroke-width:0.264711;stroke-linecap:round;stroke-linejoin:round;stroke-miterlimit:4;stroke-dasharray:none;stroke-dashoffset:0;stroke-opacity:1"
       id="ellipse12701"
       cx="96.10321"
       cy="75.688835"
       rx="2.1769521"
       ry="10.115038"
       transform="matrix(0.90484934,-0.42573193,0.46500299,0.88530911,0,0)" />
    <ellipse
       style="opacity:1;fill:none;fill-opacity:1;stroke:#aa9e95;stroke-width:0.264711;stroke-linecap:round;stroke-linejoin:round;stroke-miterlimit:4;stroke-dasharray:none;stroke-dashoffset:0;stroke-opacity:1"
       id="ellipse12703"
       cx="104.19332"
       cy="73.602074"
       rx="2.1769521"
       ry="10.115038"
       transform="matrix(0.90484934,-0.42573193,0.46500299,0.88530911,0,0)" />
    <circle
       r="0.66817379"
       cy="22.741016"
       cx="99.086639"
       id="path3435-3-3"
       style="opacity:1;fill:#aa9e95;stroke:#aa9e95;stroke-width:0.264583;stroke-linejoin:round;stroke-miterlimit:4;stroke-dasharray:none" />
    <path
       style="fill:none;stroke:#9e7867;stroke-width:0.661458;stroke-linecap:butt;stroke-linejoin:miter;stroke-miterlimit:4;stroke-dasharray:none;stroke-opacity:1;marker-end:url(#Arrow1Send)"
       d="M 93.687354,23.713955 119.67322,11.902199"
       id="path12705"
       sodipodi:nodetypes="cc" />
    <path
       style="fill:none;stroke:#000000;stroke-width:0.264583px;stroke-linecap:round;stroke-linejoin:miter;stroke-opacity:1"
       d="M 93.687354,23.713955 V 46.061798"
       id="path12763" />
    <path
       style="fill:none;stroke:#000000;stroke-width:0.264583px;stroke-linecap:round;stroke-linejoin:miter;stroke-opacity:1"
       d="M 139.19594,23.713955 V 46.061798"
       id="path12765" />
    <path
       style="fill:none;stroke:#000000;stroke-width:0.264583px;stroke-linecap:round;stroke-linejoin:round;stroke-opacity:1"
       d="M 139.19594,23.713955 H 93.687354"
       id="path12767"
       sodipodi:nodetypes="cc" />
    <circle
       r="0.66817379"
       cy="31.838314"
       cx="110.60159"
       id="path3435-3-3-2"
       style="opacity:1;fill:#aa9e95;stroke:#aa9e95;stroke-width:0.264583;stroke-linejoin:round;stroke-miterlimit:4;stroke-dasharray:none" />
    <circle
       r="0.66817379"
       cy="18.942005"
       cx="110.97977"
       id="path3435-3-3-2-9"
       style="opacity:1;fill:#aa9e95;stroke:#aa9e95;stroke-width:0.264583;stroke-linejoin:round;stroke-miterlimit:4;stroke-dasharray:none" />
    <circle
       r="0.66817379"
       cy="26.091127"
       cx="122.03517"
       id="path3435-3-3-2-1"
       style="opacity:1;fill:#aa9e95;stroke:#aa9e95;stroke-width:0.264583;stroke-linejoin:round;stroke-miterlimit:4;stroke-dasharray:none" />
    <circle
       r="0.66817379"
       cy="21.327862"
       cx="128.75978"
       id="path3435-3-3-2-2"
       style="opacity:1;fill:#aa9e95;stroke:#aa9e95;stroke-width:0.264583;stroke-linejoin:round;stroke-miterlimit:4;stroke-dasharray:none" />
    <g
       transform="matrix(0.423334,0,0,0.423334,116.24549,8.0364488)"
       ns2:version="1.1.0"
       ns2:texconverter="pdflatex"
       ns2:pdfconverter="inkscape"
       ns2:text="$\\vec{M}$\n\n\n"
       ns2:preamble="C:\\Users\\flvisa\\Desktop\\lna\\latexify_books\\textext_preamble.tex"
       ns2:scale="1.1999999149607656"
       ns2:alignment="middle center"
       ns2:inkscapeversion="1.0.1"
       ns2:jacobian_sqrt="0.423334"
       style="fill:#9e7867;fill-opacity:1;stroke-width:0"
       id="g13110">
      <defs
         id="id-a8be39cf-0248-4fdb-b221-f16ae6617731">
        <g
           id="id-1a18a0a2-0bd1-4e6e-bc11-0251ba751c4c"
           style="fill:#9e7867;fill-opacity:1;stroke-width:0">
          <symbol
             overflow="visible"
             id="id-a6b699b6-969b-492e-950d-eaada3abfa26"
             style="fill:#9e7867;fill-opacity:1;stroke-width:0">
            <path
               style="fill:#9e7867;fill-opacity:1;stroke:none;stroke-width:0"
               d=""
               id="id-a427e925-e59c-4ea0-b9c2-d6b6207edfb5" />
          </symbol>
          <symbol
             overflow="visible"
             id="id-41f18419-c59b-45ad-8648-b520b3133820"
             style="fill:#9e7867;fill-opacity:1;stroke-width:0">
            <path
               style="fill:#9e7867;fill-opacity:1;stroke:none;stroke-width:0"
               d="m 2.421875,-6.546875 c -0.421875,0 -0.578125,-0.03125 -1,-0.046875 -0.015625,0.015625 -0.109375,0.28125 -0.0625,0.359375 0.15625,0 0.5,0.109375 0.546875,0.21875 0.03125,0.0625 0.03125,0.15625 0.03125,0.21875 -0.109375,0.46875 -0.71875,3.078125 -1,4.265625 C 0.890625,-1.375 0.703125,-0.75 0.640625,-0.640625 c -0.140625,0.25 -0.75,0.34375 -0.859375,0.34375 C -0.265625,-0.1875 -0.296875,0 -0.265625,0.0625 c 0.421875,-0.015625 0.75,-0.078125 1.1875,-0.078125 0.40625,0 0.75,0.0625 1.125,0.078125 0.046875,-0.09375 0.0625,-0.296875 0.0625,-0.359375 -0.078125,0 -0.75,-0.09375 -0.75,-0.3125 0,-0.0625 0.046875,-0.484375 0.09375,-0.703125 0.359375,-1.578125 0.40625,-1.8125 0.875,-3.90625 l 1.0625,5.25 c 0.03125,0.015625 0.046875,0.015625 0.078125,0.015625 0.171875,0 0.421875,-0.328125 0.484375,-0.421875 L 6.53125,-5.140625 C 6.5625,-5.1875 6.5625,-5.21875 6.59375,-5.21875 c 0.0625,0 0.015625,0.234375 0,0.265625 l -0.578125,3.5 C 5.984375,-1.28125 5.9375,-0.953125 5.90625,-0.84375 5.890625,-0.75 5.8125,-0.5625 5.75,-0.484375 5.640625,-0.34375 5.1875,-0.296875 5.078125,-0.296875 5.03125,-0.21875 4.984375,0.03125 5.015625,0.0625 5.4375,0.046875 6.078125,-0.015625 6.5,-0.015625 c 0.40625,0 0.890625,0.0625 1.25,0.078125 0.0625,-0.09375 0.078125,-0.265625 0.0625,-0.359375 -0.078125,0 -0.53125,-0.046875 -0.5625,-0.1875 -0.046875,-0.25 0,-0.609375 0.0625,-1 C 7.5,-2.765625 7.890625,-5 8,-5.703125 8.046875,-5.96875 8.109375,-6.046875 8.21875,-6.125 c 0.109375,-0.0625 0.4375,-0.109375 0.5,-0.109375 C 8.78125,-6.3125 8.78125,-6.5625 8.75,-6.59375 c -0.375,0.015625 -0.78125,0.046875 -1.09375,0.046875 -0.171875,0 -0.921875,-0.015625 -1,-0.015625 0,0 -0.296875,0.6875 -0.53125,1.125 -0.625,1.203125 -1.6875,3.046875 -1.6875,3.046875 0,0.015625 -0.046875,0.0625 -0.046875,0.0625 -0.015625,0 -0.03125,-0.015625 -0.03125,-0.015625 -0.375,-1.703125 -0.796875,-3.625 -0.953125,-4.25 -0.375,0.015625 -0.671875,0.046875 -0.984375,0.046875 z m 0,0"
               id="id-50732aaf-d26c-4acd-ba9a-bb7f89d8e9f0" />
          </symbol>
        </g>
      </defs>
      <g
         id="id-05b6f8ae-6e82-4fd5-9699-a00faa4778ae"
         transform="translate(-148.833,-128.171)"
         style="fill:#9e7867;fill-opacity:1;stroke-width:0">
        <g
           style="fill:#9e7867;fill-opacity:1;stroke-width:0"
           id="id-34ca91be-76d4-4506-9706-bc79da4b1124">
          <g
             transform="translate(149.111,134.765)"
             style="fill:#9e7867;fill-opacity:1;stroke-width:0"
             id="g13106">
            <path
               style="fill:#9e7867;fill-opacity:1;stroke:none;stroke-width:0"
               d="m 2.421875,-6.546875 c -0.421875,0 -0.578125,-0.03125 -1,-0.046875 -0.015625,0.015625 -0.109375,0.28125 -0.0625,0.359375 0.15625,0 0.5,0.109375 0.546875,0.21875 0.03125,0.0625 0.03125,0.15625 0.03125,0.21875 -0.109375,0.46875 -0.71875,3.078125 -1,4.265625 C 0.890625,-1.375 0.703125,-0.75 0.640625,-0.640625 c -0.140625,0.25 -0.75,0.34375 -0.859375,0.34375 C -0.265625,-0.1875 -0.296875,0 -0.265625,0.0625 c 0.421875,-0.015625 0.75,-0.078125 1.1875,-0.078125 0.40625,0 0.75,0.0625 1.125,0.078125 0.046875,-0.09375 0.0625,-0.296875 0.0625,-0.359375 -0.078125,0 -0.75,-0.09375 -0.75,-0.3125 0,-0.0625 0.046875,-0.484375 0.09375,-0.703125 0.359375,-1.578125 0.40625,-1.8125 0.875,-3.90625 l 1.0625,5.25 c 0.03125,0.015625 0.046875,0.015625 0.078125,0.015625 0.171875,0 0.421875,-0.328125 0.484375,-0.421875 L 6.53125,-5.140625 C 6.5625,-5.1875 6.5625,-5.21875 6.59375,-5.21875 c 0.0625,0 0.015625,0.234375 0,0.265625 l -0.578125,3.5 C 5.984375,-1.28125 5.9375,-0.953125 5.90625,-0.84375 5.890625,-0.75 5.8125,-0.5625 5.75,-0.484375 5.640625,-0.34375 5.1875,-0.296875 5.078125,-0.296875 5.03125,-0.21875 4.984375,0.03125 5.015625,0.0625 5.4375,0.046875 6.078125,-0.015625 6.5,-0.015625 c 0.40625,0 0.890625,0.0625 1.25,0.078125 0.0625,-0.09375 0.078125,-0.265625 0.0625,-0.359375 -0.078125,0 -0.53125,-0.046875 -0.5625,-0.1875 -0.046875,-0.25 0,-0.609375 0.0625,-1 C 7.5,-2.765625 7.890625,-5 8,-5.703125 8.046875,-5.96875 8.109375,-6.046875 8.21875,-6.125 c 0.109375,-0.0625 0.4375,-0.109375 0.5,-0.109375 C 8.78125,-6.3125 8.78125,-6.5625 8.75,-6.59375 c -0.375,0.015625 -0.78125,0.046875 -1.09375,0.046875 -0.171875,0 -0.921875,-0.015625 -1,-0.015625 0,0 -0.296875,0.6875 -0.53125,1.125 -0.625,1.203125 -1.6875,3.046875 -1.6875,3.046875 0,0.015625 -0.046875,0.0625 -0.046875,0.0625 -0.015625,0 -0.03125,-0.015625 -0.03125,-0.015625 -0.375,-1.703125 -0.796875,-3.625 -0.953125,-4.25 -0.375,0.015625 -0.671875,0.046875 -0.984375,0.046875 z m 0,0"
               id="id-c143227b-50db-4ef3-b145-cd6ff46ebaa9" />
          </g>
        </g>
      </g>
    </g>
    <path
       style="fill:none;stroke:#000000;stroke-width:0.264583px;stroke-linecap:butt;stroke-linejoin:miter;stroke-opacity:1;marker-start:url(#Arrow1Mstart);marker-end:url(#marker13129)"
       d="M 94.339564,45.321849 H 138.50115"
       id="path13125"
       sodipodi:nodetypes="cc" />
    <g
       transform="matrix(0.39384615,0,0,0.39384615,102.86187,20.90871)"
       ns2:version="1.1.0"
       ns2:texconverter="pdflatex"
       ns2:pdfconverter="inkscape"
       ns2:text="$\\alpha$"
       ns2:preamble="C:\\Users\\flvisa\\Desktop\\lna\\latexify_books\\textext_preamble.tex"
       ns2:scale="1.026538144676477"
       ns2:alignment="middle center"
       ns2:inkscapeversion="1.0"
       ns2:jacobian_sqrt="0.36214"
       style="fill:#000000;fill-opacity:1;stroke-width:0"
       id="g5775">
      <defs
         id="id-f4057888-391c-4b68-aaff-05e940496e32">
        <g
           id="g13306"
           style="fill:#6a4239;fill-opacity:1;stroke-width:0">
          <symbol
             id="symbol13300"
             overflow="visible"
             style="fill:#6a4239;fill-opacity:1;stroke-width:0">
            <path
               id="path13298"
               d=""
               style="fill:#6a4239;fill-opacity:1;stroke:none;stroke-width:0" />
          </symbol>
          <symbol
             id="symbol13304"
             overflow="visible"
             style="fill:#6a4239;fill-opacity:1;stroke-width:0">
            <path
               id="path13302"
               d="m 2.34375,-4.40625 c -1.0625,0 -2.171875,2.1875 -2.171875,3.390625 0,0.75 0.34375,1.078125 0.890625,1.078125 0.546875,0 1.15625,-0.59375 1.6875,-1.265625 -0.03125,0.1875 -0.046875,0.375 -0.046875,0.53125 0,0.40625 0.140625,0.71875 0.453125,0.71875 0.4375,0 0.78125,-0.546875 0.84375,-0.75 0.015625,-0.03125 -0.015625,-0.1875 -0.046875,-0.21875 -0.140625,0.140625 -0.296875,0.25 -0.515625,0.25 -0.15625,0 -0.359375,-0.078125 -0.359375,-0.53125 0,-0.15625 0.015625,-0.390625 0.109375,-0.6875 l 0.484375,-0.78125 c 0.25,-0.3125 0.5625,-0.921875 0.5625,-1.21875 0,-0.28125 -0.203125,-0.5 -0.328125,-0.5 -0.15625,0 -0.53125,0.9375 -0.78125,1.65625 l -0.25,0.4375 c 0.015625,-0.171875 0.03125,-0.515625 0.03125,-0.71875 0,-0.765625 -0.1875,-1.390625 -0.5625,-1.390625 z m -1.703125,3.625 c 0,-1.03125 1.03125,-2.921875 1.625,-2.921875 0.234375,0 0.3125,0.34375 0.3125,0.796875 v 0.0625 c 0,0.46875 -0.09375,0.984375 -0.25,1.328125 -0.5,0.71875 -1.015625,1.21875 -1.375,1.21875 -0.1875,0 -0.3125,-0.125 -0.3125,-0.484375 z m 0,0"
               style="fill:#6a4239;fill-opacity:1;stroke:none;stroke-width:0" />
          </symbol>
        </g>
      </defs>
      <g
         transform="translate(-149.153,-130.359)"
         id="id-32bb7a3a-6a2a-496b-a417-be036b798b8b"
         style="fill:#000000;fill-opacity:1;stroke-width:0">
        <g
           id="id-7b6c9c41-c0a1-462d-a9f3-70961a3be0e2"
           style="fill:#000000;fill-opacity:1;stroke-width:0">
          <g
             transform="translate(148.981,134.765)"
             style="fill:#000000;fill-opacity:1;stroke-width:0"
             id="g5771">
            <path
               id="id-a3717552-7fbb-4464-94ec-7c222924fd6f"
               d="m 2.34375,-4.40625 c -1.0625,0 -2.171875,2.1875 -2.171875,3.390625 0,0.75 0.34375,1.078125 0.890625,1.078125 0.546875,0 1.15625,-0.59375 1.6875,-1.265625 -0.03125,0.1875 -0.046875,0.375 -0.046875,0.53125 0,0.40625 0.140625,0.71875 0.453125,0.71875 0.4375,0 0.78125,-0.546875 0.84375,-0.75 0.015625,-0.03125 -0.015625,-0.1875 -0.046875,-0.21875 -0.140625,0.140625 -0.296875,0.25 -0.515625,0.25 -0.15625,0 -0.359375,-0.078125 -0.359375,-0.53125 0,-0.15625 0.015625,-0.390625 0.109375,-0.6875 l 0.484375,-0.78125 c 0.25,-0.3125 0.5625,-0.921875 0.5625,-1.21875 0,-0.28125 -0.203125,-0.5 -0.328125,-0.5 -0.15625,0 -0.53125,0.9375 -0.78125,1.65625 l -0.25,0.4375 c 0.015625,-0.171875 0.03125,-0.515625 0.03125,-0.71875 0,-0.765625 -0.1875,-1.390625 -0.5625,-1.390625 z m -1.703125,3.625 c 0,-1.03125 1.03125,-2.921875 1.625,-2.921875 0.234375,0 0.3125,0.34375 0.3125,0.796875 v 0.0625 c 0,0.46875 -0.09375,0.984375 -0.25,1.328125 -0.5,0.71875 -1.015625,1.21875 -1.375,1.21875 -0.1875,0 -0.3125,-0.125 -0.3125,-0.484375 z m 0,0"
               style="fill:#000000;fill-opacity:1;stroke:none;stroke-width:0" />
          </g>
        </g>
      </g>
    </g>
    <g
       transform="matrix(0.423334,0,0,0.423334,115.222,41.6988)"
       ns2:version="1.1.0"
       ns2:texconverter="pdflatex"
       ns2:pdfconverter="inkscape"
       ns2:text="$\\deriv{l}$\n\n\n\n"
       ns2:preamble="C:\\Users\\flvisa\\Desktop\\lna\\latexify_books\\textext_preamble.tex"
       ns2:scale="1.1999998866143555"
       ns2:alignment="middle center"
       ns2:inkscapeversion="1.0.1"
       ns2:jacobian_sqrt="0.423334"
       style="fill:#000000;fill-opacity:1;stroke-width:0"
       id="g13635">
      <defs
         id="id-82f2420a-564a-4643-8810-4f16ef8c7242">
        <g
           id="id-a8ed3fbd-1d54-42f4-8014-002c4525ce7d"
           style="fill:#506a68;fill-opacity:1;stroke-width:0">
          <symbol
             overflow="visible"
             id="id-1e978e0c-4eb1-43c4-b7ff-f631a14f985e"
             style="fill:#506a68;fill-opacity:1;stroke-width:0">
            <path
               style="fill:#506a68;fill-opacity:1;stroke:none;stroke-width:0"
               d="M 0.5,0 H 4.484375 V -4.8125 H 0.5 Z M 1,-0.5 V -4.3125 H 3.984375 V -0.5 Z m 0,0"
               id="id-2f9c9f61-d95d-42f7-8661-15400c3798f5" />
          </symbol>
          <symbol
             overflow="visible"
             id="id-73fce150-f790-40fe-9fc8-b1e7752dd1b7"
             style="fill:#506a68;fill-opacity:1;stroke-width:0">
            <path
               style="fill:#506a68;fill-opacity:1;stroke:none;stroke-width:0"
               d="m 2.75,-4.359375 c -0.890625,0 -2.359375,1 -2.359375,2.3125 0,1.203125 0.828125,2.125 1.75,2.125 0.46875,0 1.15625,-0.421875 1.3125,-0.59375 0.015625,-0.015625 0.03125,0.015625 0.03125,0.0625 v 0.34375 c 0,0.0625 0.015625,0.1875 0.078125,0.1875 0,0 0.765625,-0.25 1.28125,-0.28125 0.046875,0 0.078125,-0.109375 0.078125,-0.140625 0,-0.03125 -0.015625,-0.109375 -0.03125,-0.109375 -0.03125,-0.015625 -0.5,0 -0.59375,-0.171875 -0.0625,-0.140625 -0.0625,-0.578125 -0.0625,-0.953125 v -4.1875 c 0,-0.53125 0.109375,-0.84375 0.109375,-0.84375 0,-0.0625 -0.0625,-0.15625 -0.109375,-0.15625 -0.421875,0.1875 -0.921875,0.328125 -1.40625,0.375 -0.03125,0.015625 -0.015625,0.265625 0,0.265625 0.265625,0 0.546875,0.03125 0.59375,0.15625 0.0625,0.109375 0.0625,0.359375 0.0625,0.484375 v 1.03125 c 0,0.109375 -0.015625,0.1875 -0.0625,0.1875 C 3.328125,-4.3125 2.953125,-4.359375 2.75,-4.359375 Z m -0.328125,0.40625 c 0.5625,0 1.0625,0.265625 1.0625,0.484375 v 2.546875 c 0,0.15625 -0.421875,0.390625 -0.875,0.390625 -0.90625,0 -1.40625,-0.8125 -1.40625,-1.765625 0,-0.84375 0.46875,-1.65625 1.21875,-1.65625 z m 0,0"
               id="id-ed339b19-dbe0-4662-9d9a-58c794f62258" />
          </symbol>
          <symbol
             overflow="visible"
             id="id-46d762cd-de57-425e-9dd9-0303d0d31f6c"
             style="fill:#506a68;fill-opacity:1;stroke-width:0">
            <path
               style="fill:#506a68;fill-opacity:1;stroke:none;stroke-width:0"
               d=""
               id="id-82770326-18ed-4c57-8c7f-8a2344741db9" />
          </symbol>
          <symbol
             overflow="visible"
             id="id-83f9792f-3140-4b52-9b6a-1b0357c013a4"
             style="fill:#506a68;fill-opacity:1;stroke-width:0">
            <path
               style="fill:#506a68;fill-opacity:1;stroke:none;stroke-width:0"
               d="M 1.359375,-5.640625 0.453125,-1 C 0.40625,-0.78125 0.375,-0.546875 0.375,-0.46875 c 0,0.296875 0.125,0.53125 0.34375,0.53125 0.484375,0 1.203125,-0.765625 1.3125,-0.953125 0,-0.0625 -0.0625,-0.171875 -0.09375,-0.171875 C 1.90625,-1.03125 1.453125,-0.5 1.21875,-0.5 1.125,-0.5 1.125,-0.65625 1.125,-0.75 c 0,-0.046875 0.03125,-0.28125 0.046875,-0.3125 l 0.96875,-4.90625 c 0.046875,-0.234375 0.125,-0.671875 0.125,-0.75 0,-0.0625 -0.015625,-0.15625 -0.0625,-0.1875 C 1.984375,-6.828125 1.421875,-6.625 0.875,-6.578125 0.828125,-6.546875 0.796875,-6.40625 0.828125,-6.375 c 0.15625,0 0.625,0.015625 0.625,0.203125 0,0.109375 -0.0625,0.34375 -0.09375,0.53125 z m 0,0"
               id="id-adcd47cb-ae5f-4856-a87f-72b872f8b048" />
          </symbol>
        </g>
      </defs>
      <g
         id="id-fe1931bc-8110-4ff7-8624-6e0c64e8d16f"
         transform="translate(-149.103,-127.859)"
         style="fill:#000000;fill-opacity:1;stroke-width:0">
        <g
           style="fill:#000000;fill-opacity:1;stroke-width:0"
           id="id-055ebd3a-18d1-47bd-b537-a1dc7276b3e7">
          <g
             transform="translate(148.712,134.765)"
             style="fill:#000000;fill-opacity:1;stroke-width:0"
             id="g13627">
            <path
               style="fill:#000000;fill-opacity:1;stroke:none;stroke-width:0"
               d="m 2.75,-4.359375 c -0.890625,0 -2.359375,1 -2.359375,2.3125 0,1.203125 0.828125,2.125 1.75,2.125 0.46875,0 1.15625,-0.421875 1.3125,-0.59375 0.015625,-0.015625 0.03125,0.015625 0.03125,0.0625 v 0.34375 c 0,0.0625 0.015625,0.1875 0.078125,0.1875 0,0 0.765625,-0.25 1.28125,-0.28125 0.046875,0 0.078125,-0.109375 0.078125,-0.140625 0,-0.03125 -0.015625,-0.109375 -0.03125,-0.109375 -0.03125,-0.015625 -0.5,0 -0.59375,-0.171875 -0.0625,-0.140625 -0.0625,-0.578125 -0.0625,-0.953125 v -4.1875 c 0,-0.53125 0.109375,-0.84375 0.109375,-0.84375 0,-0.0625 -0.0625,-0.15625 -0.109375,-0.15625 -0.421875,0.1875 -0.921875,0.328125 -1.40625,0.375 -0.03125,0.015625 -0.015625,0.265625 0,0.265625 0.265625,0 0.546875,0.03125 0.59375,0.15625 0.0625,0.109375 0.0625,0.359375 0.0625,0.484375 v 1.03125 c 0,0.109375 -0.015625,0.1875 -0.0625,0.1875 C 3.328125,-4.3125 2.953125,-4.359375 2.75,-4.359375 Z m -0.328125,0.40625 c 0.5625,0 1.0625,0.265625 1.0625,0.484375 v 2.546875 c 0,0.15625 -0.421875,0.390625 -0.875,0.390625 -0.90625,0 -1.40625,-0.8125 -1.40625,-1.765625 0,-0.84375 0.46875,-1.65625 1.21875,-1.65625 z m 0,0"
               id="id-aca6f19e-e3cc-4139-8a4e-9ee607d0fa54" />
          </g>
        </g>
        <g
           style="fill:#000000;fill-opacity:1;stroke-width:0"
           id="id-868f2337-8974-4910-acd4-9e8ae1eb63c0">
          <g
             transform="translate(153.973,134.765)"
             style="fill:#000000;fill-opacity:1;stroke-width:0"
             id="g13631">
            <path
               style="fill:#000000;fill-opacity:1;stroke:none;stroke-width:0"
               d="M 1.359375,-5.640625 0.453125,-1 C 0.40625,-0.78125 0.375,-0.546875 0.375,-0.46875 c 0,0.296875 0.125,0.53125 0.34375,0.53125 0.484375,0 1.203125,-0.765625 1.3125,-0.953125 0,-0.0625 -0.0625,-0.171875 -0.09375,-0.171875 C 1.90625,-1.03125 1.453125,-0.5 1.21875,-0.5 1.125,-0.5 1.125,-0.65625 1.125,-0.75 c 0,-0.046875 0.03125,-0.28125 0.046875,-0.3125 l 0.96875,-4.90625 c 0.046875,-0.234375 0.125,-0.671875 0.125,-0.75 0,-0.0625 -0.015625,-0.15625 -0.0625,-0.1875 C 1.984375,-6.828125 1.421875,-6.625 0.875,-6.578125 0.828125,-6.546875 0.796875,-6.40625 0.828125,-6.375 c 0.15625,0 0.625,0.015625 0.625,0.203125 0,0.109375 -0.0625,0.34375 -0.09375,0.53125 z m 0,0"
               id="id-5b707e25-5f4b-4e71-9b8f-964d26a8a3ab" />
          </g>
        </g>
      </g>
    </g>
  </g>
</svg>
