<?xml version="1.0" encoding="UTF-8" standalone="no"?>
<svg
   xmlns:dc="http://purl.org/dc/elements/1.1/"
   xmlns:cc="http://creativecommons.org/ns#"
   xmlns:rdf="http://www.w3.org/1999/02/22-rdf-syntax-ns#"
   xmlns:svg="http://www.w3.org/2000/svg"
   xmlns="http://www.w3.org/2000/svg"
   xmlns:xlink="http://www.w3.org/1999/xlink"
   xmlns:sodipodi="http://sodipodi.sourceforge.net/DTD/sodipodi-0.dtd"
   xmlns:inkscape="http://www.inkscape.org/namespaces/inkscape"
   width="111.571983pt"
   height="97.442436pt"
   viewBox="0 0 111.571983 97.442436"
   version="1.2"
   id="svg25482"
   sodipodi:docname="fig_5_1.svg"
   inkscape:version="1.0.1 (3bc2e813f5, 2020-09-07)">
  <metadata
     id="metadata25486">
    <rdf:RDF>
      <cc:Work
         rdf:about="">
        <dc:format>image/svg+xml</dc:format>
        <dc:type
           rdf:resource="http://purl.org/dc/dcmitype/StillImage" />
        <dc:title></dc:title>
      </cc:Work>
    </rdf:RDF>
  </metadata>
  <sodipodi:namedview
     pagecolor="#ffffff"
     bordercolor="#666666"
     borderopacity="1"
     objecttolerance="10"
     gridtolerance="10"
     guidetolerance="10"
     inkscape:pageopacity="0"
     inkscape:pageshadow="2"
     inkscape:window-width="1600"
     inkscape:window-height="837"
     id="namedview25484"
     showgrid="false"
     inkscape:zoom="2.5553548"
     inkscape:cx="49.387631"
     inkscape:cy="94.505856"
     inkscape:window-x="-8"
     inkscape:window-y="-8"
     inkscape:window-maximized="1"
     inkscape:current-layer="svg25482" />
  <defs
     id="defs25413">
    <clipPath
       id="clip1">
      <path
         d="M 0 0 L 111.570313 0 L 111.570313 97.441406 L 0 97.441406 Z M 0 0 "
         id="path25378" />
    </clipPath>
    <filter
       id="alpha"
       filterUnits="objectBoundingBox"
       x="0%"
       y="0%"
       width="100%"
       height="100%">
      <feColorMatrix
         type="matrix"
         in="SourceGraphic"
         values="0 0 0 0 1 0 0 0 0 1 0 0 0 0 1 0 0 0 1 0"
         id="feColorMatrix25381" />
    </filter>
    <mask
       id="mask0">
      <g
         filter="url(#alpha)"
         id="g25386">
        <rect
           x="0"
           y="0"
           width="111.571983"
           height="97.442436"
           style="fill:rgb(0%,0%,0%);fill-opacity:0.3;stroke:none;"
           id="rect25384" />
      </g>
    </mask>
    <clipPath
       id="clip2">
      <rect
         x="0"
         y="0"
         width="112"
         height="98"
         id="rect25389" />
    </clipPath>
    <g
       id="surface3602173"
       clip-path="url(#clip2)">
      <path
         style=" stroke:none;fill-rule:nonzero;fill:rgb(61.959839%,47.058105%,40.391541%);fill-opacity:1;"
         d="M 41.433594 11.800781 C 30.554688 16.699219 19.839844 24.507813 15.898438 36.257813 C 14.484375 41.535156 16.527344 46.953125 15.542969 52.289063 C 14.878906 57.957031 15.105469 63.734375 16.929688 69.175781 C 19.695313 79.484375 26.179688 90.035156 36.929688 93.28125 C 45.632813 96.082031 54.597656 92.652344 62.863281 90.011719 C 71.140625 87.152344 78.628906 82.035156 83.886719 74.996094 C 87.441406 70.757813 91.386719 66.1875 92.785156 61 C 94.414063 55.960938 98.183594 51.160156 96.898438 45.597656 C 96.140625 41.078125 94.988281 36.59375 93.851563 32.183594 C 91.695313 27.273438 90.382813 20.796875 87.804688 17.265625 C 83.933594 12.046875 77.121094 10.597656 71.160156 9.179688 C 63.679688 8.992188 47.128906 9.34375 41.433594 11.800781 Z M 41.433594 11.800781 "
         id="path25392" />
    </g>
    <clipPath
       id="clip3">
      <path
         d="M 6 0 L 106 0 L 106 97.441406 L 6 97.441406 Z M 6 0 "
         id="path25395" />
    </clipPath>
    <clipPath
       id="clip4">
      <path
         d="M 79 43 L 111.570313 43 L 111.570313 58 L 79 58 Z M 79 43 "
         id="path25398" />
    </clipPath>
    <clipPath
       id="clip5">
      <path
         d="M 99 45 L 111.570313 45 L 111.570313 57 L 99 57 Z M 99 45 "
         id="path25401" />
    </clipPath>
    <clipPath
       id="clip6">
      <path
         d="M 63 71 L 87 71 L 87 97.441406 L 63 97.441406 Z M 63 71 "
         id="path25404" />
    </clipPath>
    <clipPath
       id="clip7">
      <path
         d="M 71 85 L 85 85 L 85 97.441406 L 71 97.441406 Z M 71 85 "
         id="path25407" />
    </clipPath>
    <clipPath
       id="clip8">
      <path
         d="M 7 73 L 38 73 L 38 97.441406 L 7 97.441406 Z M 7 73 "
         id="path25410" />
    </clipPath>
  </defs>
  <g
     id="surface3602169">
    <g
       clip-path="url(#clip1)"
       clip-rule="nonzero"
       id="g25417">
      <use
         xlink:href="#surface3602173"
         mask="url(#mask0)"
         id="use25415" />
    </g>
    <g
       clip-path="url(#clip3)"
       clip-rule="nonzero"
       id="g25421">
      <path
         style="fill:none;stroke-width:1.500001;stroke-linecap:butt;stroke-linejoin:miter;stroke:rgb(61.959839%,47.058105%,40.391541%);stroke-opacity:1;stroke-miterlimit:4;"
         d="M 41.433594 11.800781 C 30.554688 16.699219 19.839844 24.507813 15.898438 36.257813 C 14.484375 41.535156 16.527344 46.953125 15.542969 52.289063 C 14.878906 57.957031 15.105469 63.734375 16.929688 69.175781 C 19.695313 79.484375 26.179688 90.035156 36.929688 93.28125 C 45.632813 96.082031 54.597656 92.652344 62.863281 90.011719 C 71.140625 87.152344 78.628906 82.035156 83.886719 74.996094 C 87.546875 70.867188 90.449219 65.515625 92.785156 61 C 95.277344 55.832031 98.183594 51.160156 96.898438 45.597656 C 96.140625 41.078125 94.988281 36.59375 93.851563 32.183594 C 91.695313 27.273438 90.382813 20.796875 87.804688 17.265625 C 83.933594 12.046875 77.121094 10.597656 71.160156 9.179688 C 63.679688 8.992188 47.128906 9.34375 41.433594 11.800781 Z M 41.433594 11.800781 "
         id="path25419" />
    </g>
    <path
       style="fill:none;stroke-width:1.125;stroke-linecap:round;stroke-linejoin:miter;stroke:rgb(31.37207%,41.567993%,40.783691%);stroke-opacity:1;stroke-miterlimit:4;"
       d="M 78.617188 20.175781 L 96.523438 4.519531 "
       id="path25423" />
    <path
       style="fill-rule:evenodd;fill:rgb(31.37207%,41.567993%,40.783691%);fill-opacity:1;stroke-width:0.451693;stroke-linecap:butt;stroke-linejoin:miter;stroke:rgb(31.37207%,41.567993%,40.783691%);stroke-opacity:1;stroke-miterlimit:4;"
       d="M -49.073393 -50.391402 L -47.3821 -52.084505 L -53.308176 -50.390934 L -47.382225 -48.697895 Z M -49.073393 -50.391402 "
       transform="matrix(-1,0.874344,-0.874344,-1,0,0)"
       id="path25425" />
    <g
       clip-path="url(#clip4)"
       clip-rule="nonzero"
       id="g25429">
      <path
         style="fill:none;stroke-width:1.125;stroke-linecap:round;stroke-linejoin:miter;stroke:rgb(31.37207%,41.567993%,40.783691%);stroke-opacity:1;stroke-miterlimit:4;"
         d="M 86.117188 50.175781 L 109.359375 51.457031 "
         id="path25427" />
    </g>
    <path
       style=" stroke:none;fill-rule:evenodd;fill:rgb(31.37207%,41.567993%,40.783691%);fill-opacity:1;"
       d="M 104.863281 51.210938 L 102.496094 53.332031 L 110.480469 51.519531 L 102.742188 48.839844 Z M 104.863281 51.210938 "
       id="path25431" />
    <g
       clip-path="url(#clip5)"
       clip-rule="nonzero"
       id="g25435">
      <path
         style="fill:none;stroke-width:0.599091;stroke-linecap:butt;stroke-linejoin:miter;stroke:rgb(31.37207%,41.567993%,40.783691%);stroke-opacity:1;stroke-miterlimit:4;"
         d="M -107.359909 -45.293088 L -105.116456 -47.537844 L -112.977039 -45.292056 L -105.114938 -43.04574 Z M -107.359909 -45.293088 "
         transform="matrix(-1,-0.0551216,0.0551216,-1,0,0)"
         id="path25433" />
    </g>
    <g
       clip-path="url(#clip6)"
       clip-rule="nonzero"
       id="g25439">
      <path
         style="fill:none;stroke-width:1.125;stroke-linecap:round;stroke-linejoin:miter;stroke:rgb(31.37207%,41.567993%,40.783691%);stroke-opacity:1;stroke-miterlimit:4;"
         d="M 69.394531 77.871094 L 80.078125 95.546875 "
         id="path25437" />
    </g>
    <path
       style=" stroke:none;fill-rule:evenodd;fill:rgb(31.37207%,41.567993%,40.783691%);fill-opacity:1;"
       d="M 77.75 91.695313 L 74.660156 90.933594 L 80.660156 96.507813 L 78.511719 88.605469 Z M 77.75 91.695313 "
       id="path25441" />
    <g
       clip-path="url(#clip7)"
       clip-rule="nonzero"
       id="g25445">
      <path
         style="fill:none;stroke-width:0.513469;stroke-linecap:butt;stroke-linejoin:miter;stroke:rgb(31.37207%,41.567993%,40.783691%);stroke-opacity:1;stroke-miterlimit:4;"
         d="M -101.576296 16.345199 L -99.650483 14.419546 L -106.389198 16.345865 L -99.650643 18.271012 Z M -101.576296 16.345199 "
         transform="matrix(-0.604519,-1,1,-0.604519,0,0)"
         id="path25443" />
    </g>
    <g
       clip-path="url(#clip8)"
       clip-rule="nonzero"
       id="g25449">
      <path
         style="fill:none;stroke-width:1.125;stroke-linecap:round;stroke-linejoin:miter;stroke:rgb(31.37207%,41.567993%,40.783691%);stroke-opacity:1;stroke-miterlimit:4;"
         d="M 31.160156 79.371094 L 13.773438 92.265625 "
         id="path25447" />
    </g>
    <path
       style="fill-rule:evenodd;fill:rgb(31.37207%,41.567993%,40.783691%);fill-opacity:1;stroke-width:0.481958;stroke-linecap:butt;stroke-linejoin:miter;stroke:rgb(31.37207%,41.567993%,40.783691%);stroke-opacity:1;stroke-miterlimit:4;"
       d="M -31.638951 66.121528 L -29.834539 64.31498 L -36.158625 66.12172 L -29.834272 67.92846 Z M -31.638951 66.121528 "
       transform="matrix(1,-0.741507,0.741507,1,0,0)"
       id="path25451" />
    <path
       style="fill:none;stroke-width:1.125;stroke-linecap:round;stroke-linejoin:miter;stroke:rgb(31.37207%,41.567993%,40.783691%);stroke-opacity:1;stroke-miterlimit:4;"
       d="M 25.921875 53.65625 L 2.21875 53.945313 "
       id="path25453" />
    <path
       style="fill-rule:evenodd;fill:rgb(31.37207%,41.567993%,40.783691%);fill-opacity:1;stroke-width:0.599956;stroke-linecap:butt;stroke-linejoin:miter;stroke:rgb(31.37207%,41.567993%,40.783691%);stroke-opacity:1;stroke-miterlimit:4;"
       d="M 6.061977 53.963964 L 8.311856 51.71384 L 0.440903 53.962365 L 8.312101 56.213843 Z M 6.061977 53.963964 "
       transform="matrix(1,-0.0120982,0.0120982,1,0,0)"
       id="path25455" />
    <path
       style="fill:none;stroke-width:1.125;stroke-linecap:round;stroke-linejoin:miter;stroke:rgb(31.37207%,41.567993%,40.783691%);stroke-opacity:1;stroke-miterlimit:4;"
       d="M 36.738281 22.941406 L 26.425781 4.894531 "
       id="path25457" />
    <path
       style="fill-rule:evenodd;fill:rgb(31.37207%,41.567993%,40.783691%);fill-opacity:1;stroke-width:0.520945;stroke-linecap:butt;stroke-linejoin:miter;stroke:rgb(31.37207%,41.567993%,40.783691%);stroke-opacity:1;stroke-miterlimit:4;"
       d="M 18.981623 -17.809562 L 20.934389 -19.764003 L 14.096352 -17.812095 L 20.93312 -15.858479 Z M 18.981623 -17.809562 "
       transform="matrix(0.571431,1,-1,0.571431,0,0)"
       id="path25459" />
    <path
       style=" stroke:none;fill-rule:nonzero;fill:rgb(0%,0%,0%);fill-opacity:1;"
       d="M 40.421875 76.261719 C 39.894531 76.261719 39.632813 76.226563 39.125 76.207031 C 39.109375 76.226563 39.03125 76.542969 39.050781 76.542969 C 39.183594 76.542969 39.632813 76.636719 39.726563 76.824219 C 39.859375 77.144531 39.953125 77.519531 40.027344 77.988281 C 40.402344 80.332031 40.625 81.886719 40.984375 84.042969 C 41 84.101563 41 84.230469 41.058594 84.230469 C 41.1875 84.230469 41.375 84.15625 41.5625 83.839844 L 44.863281 78.082031 C 45.125 77.632813 45.484375 77.03125 45.652344 76.863281 C 45.894531 76.636719 46.363281 76.542969 46.4375 76.542969 C 46.476563 76.542969 46.550781 76.261719 46.53125 76.207031 C 46.082031 76.226563 45.953125 76.261719 45.425781 76.261719 C 45.015625 76.261719 44.640625 76.226563 44.226563 76.207031 C 44.171875 76.261719 44.132813 76.527344 44.171875 76.542969 C 44.300781 76.542969 44.828125 76.636719 44.828125 76.957031 C 44.828125 76.996094 44.808594 76.996094 44.808594 77.03125 C 44.769531 77.238281 44.65625 77.59375 44.488281 77.875 C 44.488281 77.875 41.808594 82.601563 41.75 82.65625 C 41.75 82.621094 41.1875 78.886719 41.039063 77.820313 C 41 77.519531 40.984375 77.277344 40.984375 77.125 C 40.984375 77.050781 40.984375 76.996094 41 76.957031 C 41.058594 76.621094 41.65625 76.542969 41.734375 76.542969 C 41.789063 76.527344 41.828125 76.261719 41.828125 76.207031 C 41.359375 76.226563 40.90625 76.261719 40.421875 76.261719 Z M 40.421875 76.261719 "
       id="path25461" />
    <path
       style=" stroke:none;fill-rule:nonzero;fill:rgb(0%,0%,0%);fill-opacity:1;"
       d="M 86.921875 79.640625 C 85.796875 79.640625 84.375 80.542969 84.375 81.929688 C 84.375 83.183594 85.273438 83.558594 86.003906 84.140625 C 86.625 84.609375 87.148438 85.042969 87.148438 85.921875 C 87.148438 86.878906 86.417969 87.441406 85.609375 87.441406 C 84.410156 87.441406 83.980469 86.148438 83.980469 85.472656 C 83.941406 85.433594 83.90625 85.417969 83.847656 85.417969 C 83.773438 85.417969 83.585938 85.433594 83.546875 85.472656 C 83.546875 85.511719 83.53125 85.566406 83.53125 85.679688 C 83.53125 86.035156 83.585938 86.785156 83.699219 87.292969 C 84.148438 87.554688 84.765625 87.796875 85.460938 87.796875 C 86.773438 87.796875 88.234375 86.859375 88.234375 85.378906 C 88.234375 84.253906 87.355469 83.824219 86.71875 83.296875 C 86.0625 82.792969 85.3125 82.398438 85.3125 81.402344 C 85.3125 80.785156 85.835938 80.015625 86.828125 80.015625 C 87.617188 80.015625 87.953125 80.617188 87.953125 81.460938 C 87.953125 81.535156 87.9375 81.609375 87.9375 81.667969 C 88.011719 81.742188 88.140625 81.777344 88.199219 81.777344 C 88.234375 81.777344 88.3125 81.761719 88.3125 81.667969 C 88.386719 81.308594 88.535156 80.335938 88.574219 79.921875 C 87.972656 79.792969 87.617188 79.640625 86.921875 79.640625 Z M 86.921875 79.640625 "
       id="path25463" />
    <path
       style=" stroke:none;fill-rule:nonzero;fill:rgb(0%,0%,0%);fill-opacity:1;"
       d="M 104.847656 4.574219 L 104.34375 7.085938 C 104.003906 8.886719 103.648438 9.675781 102.375 10.648438 C 102.375 10.742188 102.429688 10.914063 102.503906 10.914063 C 102.824219 10.820313 104.25 9.863281 104.753906 9.1875 C 105.242188 8.53125 105.597656 7.855469 105.804688 6.84375 C 105.972656 5.945313 106.253906 4.460938 106.253906 4.460938 C 106.273438 4.332031 106.367188 3.898438 106.367188 3.75 C 106.367188 3.1875 106.03125 2.886719 105.5625 2.886719 C 104.90625 2.886719 103.910156 3.9375 103.703125 4.332031 C 103.703125 4.40625 103.78125 4.648438 103.855469 4.648438 C 103.890625 4.574219 104.453125 3.9375 104.71875 3.9375 C 104.847656 3.9375 104.90625 4.070313 104.90625 4.179688 C 104.90625 4.238281 104.847656 4.519531 104.847656 4.574219 Z M 106.273438 0 C 105.765625 0 105.335938 0.488281 105.335938 1.011719 C 105.335938 1.425781 105.636719 1.78125 106.03125 1.78125 C 106.535156 1.78125 106.984375 1.273438 106.984375 0.75 C 106.984375 0.335938 106.6875 0 106.273438 0 Z M 106.273438 0 "
       id="path25465" />
    <path
       style=" stroke:none;fill-rule:nonzero;fill:rgb(0%,0%,0%);fill-opacity:1;"
       d="M 43.566406 39.183594 C 42.5 39.183594 40.738281 40.382813 40.738281 41.957031 C 40.738281 43.402344 41.730469 44.507813 42.835938 44.507813 C 43.398438 44.507813 44.222656 44 44.410156 43.796875 C 44.429688 43.777344 44.449219 43.8125 44.449219 43.871094 L 44.449219 44.28125 C 44.449219 44.359375 44.46875 44.507813 44.542969 44.507813 C 44.542969 44.507813 45.460938 44.207031 46.082031 44.171875 C 46.136719 44.171875 46.175781 44.039063 46.175781 44 C 46.175781 43.964844 46.15625 43.871094 46.136719 43.871094 C 46.097656 43.851563 45.535156 43.871094 45.425781 43.664063 C 45.347656 43.496094 45.347656 42.96875 45.347656 42.519531 L 45.347656 37.496094 C 45.347656 36.859375 45.480469 36.484375 45.480469 36.484375 C 45.480469 36.40625 45.40625 36.296875 45.347656 36.296875 C 44.84375 36.519531 44.242188 36.6875 43.660156 36.746094 C 43.625 36.765625 43.644531 37.0625 43.660156 37.0625 C 43.980469 37.0625 44.316406 37.101563 44.375 37.25 C 44.449219 37.382813 44.449219 37.683594 44.449219 37.832031 L 44.449219 39.070313 C 44.449219 39.203125 44.429688 39.296875 44.375 39.296875 C 44.261719 39.238281 43.8125 39.183594 43.566406 39.183594 Z M 43.175781 39.671875 C 43.847656 39.671875 44.449219 39.988281 44.449219 40.25 L 44.449219 43.308594 C 44.449219 43.496094 43.941406 43.777344 43.398438 43.777344 C 42.3125 43.777344 41.710938 42.800781 41.710938 41.65625 C 41.710938 40.644531 42.273438 39.671875 43.175781 39.671875 Z M 43.175781 39.671875 "
       id="path25467" />
    <path
       style=" stroke:none;fill-rule:nonzero;fill:rgb(0%,0%,0%);fill-opacity:1;"
       d="M 50.183594 47.171875 C 50.242188 47.132813 50.261719 46.851563 50.203125 46.851563 C 49.660156 46.851563 49.640625 46.644531 49.640625 46.476563 C 49.640625 46.328125 50.167969 43.363281 50.222656 43.140625 L 50.972656 39.3125 C 50.746094 39.21875 50.429688 39.144531 50.015625 39.144531 C 48.441406 39.144531 46.566406 41.113281 46.566406 43.007813 C 46.566406 43.71875 46.867188 44.46875 47.617188 44.46875 C 48.328125 44.46875 49.171875 43.269531 49.417969 42.839844 L 48.742188 46.476563 C 48.667969 46.796875 48.273438 46.890625 47.917969 46.925781 C 47.839844 46.925781 47.859375 47.226563 47.878906 47.246094 C 48.328125 47.207031 49.003906 47.171875 49.699219 47.171875 C 49.867188 47.171875 50.015625 47.171875 50.183594 47.171875 Z M 49.921875 40.289063 L 49.773438 41.078125 C 49.546875 42.257813 48.703125 43.777344 48.085938 43.777344 C 47.652344 43.777344 47.464844 43.269531 47.464844 42.59375 C 47.464844 41.207031 48.515625 39.632813 49.492188 39.632813 C 49.792969 39.632813 49.941406 39.914063 49.941406 40.175781 C 49.941406 40.214844 49.921875 40.25 49.921875 40.289063 Z M 49.921875 40.289063 "
       id="path25469" />
    <path
       style="fill:none;stroke-width:0.669601;stroke-linecap:butt;stroke-linejoin:miter;stroke:rgb(0%,0%,0%);stroke-opacity:1;stroke-miterlimit:10;"
       d="M 40.265625 -49.550781 L 51.484375 -49.550781 "
       transform="matrix(1,0,0,-1,0,0)"
       id="path25471" />
    <path
       style=" stroke:none;fill-rule:nonzero;fill:rgb(0%,0%,0%);fill-opacity:1;"
       d="M 44.289063 55.59375 C 43.21875 55.59375 41.457031 56.792969 41.457031 58.367188 C 41.457031 59.8125 42.449219 60.917969 43.558594 60.917969 C 44.121094 60.917969 44.945313 60.410156 45.132813 60.203125 C 45.152344 60.1875 45.167969 60.222656 45.167969 60.28125 L 45.167969 60.691406 C 45.167969 60.765625 45.1875 60.917969 45.261719 60.917969 C 45.261719 60.917969 46.183594 60.617188 46.800781 60.578125 C 46.855469 60.578125 46.894531 60.449219 46.894531 60.410156 C 46.894531 60.375 46.875 60.28125 46.855469 60.28125 C 46.820313 60.261719 46.257813 60.28125 46.144531 60.074219 C 46.070313 59.90625 46.070313 59.378906 46.070313 58.929688 L 46.070313 53.90625 C 46.070313 53.265625 46.199219 52.890625 46.199219 52.890625 C 46.199219 52.816406 46.125 52.703125 46.070313 52.703125 C 45.5625 52.929688 44.964844 53.097656 44.382813 53.15625 C 44.34375 53.171875 44.363281 53.472656 44.382813 53.472656 C 44.699219 53.472656 45.039063 53.511719 45.09375 53.660156 C 45.167969 53.792969 45.167969 54.09375 45.167969 54.242188 L 45.167969 55.480469 C 45.167969 55.609375 45.152344 55.703125 45.09375 55.703125 C 44.980469 55.648438 44.53125 55.59375 44.289063 55.59375 Z M 43.894531 56.078125 C 44.570313 56.078125 45.167969 56.398438 45.167969 56.660156 L 45.167969 59.71875 C 45.167969 59.90625 44.664063 60.1875 44.121094 60.1875 C 43.03125 60.1875 42.433594 59.210938 42.433594 58.066406 C 42.433594 57.054688 42.996094 56.078125 43.894531 56.078125 Z M 43.894531 56.078125 "
       id="path25473" />
    <path
       style=" stroke:none;fill-rule:nonzero;fill:rgb(0%,0%,0%);fill-opacity:1;"
       d="M 48.46875 55.816406 L 48.109375 55.816406 C 47.828125 55.816406 47.546875 56.117188 47.546875 56.230469 C 47.546875 56.25 47.566406 56.265625 47.585938 56.265625 L 48.390625 56.265625 L 47.734375 59.625 C 47.699219 59.886719 47.660156 60.167969 47.660156 60.261719 C 47.660156 60.617188 47.8125 60.898438 48.074219 60.898438 C 48.636719 60.898438 49.515625 59.980469 49.648438 59.753906 C 49.648438 59.679688 49.554688 59.546875 49.515625 59.546875 C 49.5 59.585938 48.953125 60.222656 48.691406 60.222656 C 48.5625 60.222656 48.5625 60.035156 48.5625 59.921875 C 48.5625 59.867188 48.597656 59.660156 48.617188 59.546875 L 49.253906 56.265625 L 50.191406 56.265625 C 50.25 56.171875 50.304688 56.078125 50.304688 55.96875 C 50.304688 55.910156 50.285156 55.816406 50.25 55.816406 L 49.328125 55.816406 L 49.609375 54.390625 C 49.554688 54.355469 49.460938 54.316406 49.386719 54.316406 C 49.292969 54.316406 48.75 54.9375 48.617188 55.105469 Z M 48.46875 55.816406 "
       id="path25475" />
    <path
       style=" stroke:none;fill-rule:nonzero;fill:rgb(0%,0%,0%);fill-opacity:1;"
       d="M 63.101563 52.546875 L 63.101563 51.871094 L 58.132813 49.546875 L 63.101563 47.222656 L 63.101563 46.546875 L 56.988281 49.433594 L 56.988281 49.660156 Z M 63.101563 52.546875 "
       id="path25477" />
    <path
       style=" stroke:none;fill-rule:nonzero;fill:rgb(0%,0%,0%);fill-opacity:1;"
       d="M 70.140625 45.570313 C 71.003906 45.570313 71.585938 46.996094 71.585938 48.832031 C 71.585938 50.652344 71.0625 52.226563 70.011719 52.226563 C 69.167969 52.226563 68.546875 50.726563 68.546875 48.890625 C 68.546875 47.050781 69.167969 45.570313 70.140625 45.570313 Z M 70.066406 45.140625 C 68.453125 45.140625 67.515625 46.847656 67.515625 48.890625 C 67.515625 50.914063 68.472656 52.660156 70.066406 52.660156 C 71.679688 52.660156 72.617188 50.914063 72.617188 48.890625 C 72.617188 46.847656 71.699219 45.140625 70.066406 45.140625 Z M 70.066406 45.140625 "
       id="path25479" />
  </g>
</svg>
