<?xml version="1.0" encoding="UTF-8" standalone="no"?>
<svg
   xmlns:ns2="http://www.iki.fi/pav/software/textext/"
   xmlns:dc="http://purl.org/dc/elements/1.1/"
   xmlns:cc="http://creativecommons.org/ns#"
   xmlns:rdf="http://www.w3.org/1999/02/22-rdf-syntax-ns#"
   xmlns:svg="http://www.w3.org/2000/svg"
   xmlns="http://www.w3.org/2000/svg"
   xmlns:sodipodi="http://sodipodi.sourceforge.net/DTD/sodipodi-0.dtd"
   xmlns:inkscape="http://www.inkscape.org/namespaces/inkscape"
   width="59.565014mm"
   height="28.551043mm"
   viewBox="0 0 59.565015 28.551043"
   version="1.1"
   id="svg8"
   inkscape:version="1.0.1 (3bc2e813f5, 2020-09-07)"
   sodipodi:docname="fig_6_3.svg">
  <defs
     id="defs2">
    <marker
       style="overflow:visible"
       id="Arrow1Mstart"
       refX="0"
       refY="0"
       orient="auto"
       inkscape:stockid="Arrow1Mstart"
       inkscape:isstock="true">
      <path
         transform="matrix(0.4,0,0,0.4,4,0)"
         style="fill:#000000;fill-opacity:1;fill-rule:evenodd;stroke:#000000;stroke-width:1pt;stroke-opacity:1"
         d="M 0,0 5,-5 -12.5,0 5,5 Z"
         id="path7941" />
    </marker>
    <marker
       style="overflow:visible"
       id="marker14966"
       refX="0"
       refY="0"
       orient="auto"
       inkscape:stockid="Arrow1Send"
       inkscape:isstock="true">
      <path
         transform="matrix(-0.2,0,0,-0.2,-1.2,0)"
         style="fill:#506a68;fill-opacity:1;fill-rule:evenodd;stroke:#506a68;stroke-width:1pt;stroke-opacity:1"
         d="M 0,0 5,-5 -12.5,0 5,5 Z"
         id="path14964" />
    </marker>
    <marker
       style="overflow:visible"
       id="marker14786"
       refX="0"
       refY="0"
       orient="auto"
       inkscape:stockid="Arrow1Send"
       inkscape:isstock="true">
      <path
         transform="matrix(-0.2,0,0,-0.2,-1.2,0)"
         style="fill:#b0947a;fill-opacity:1;fill-rule:evenodd;stroke:#b0947a;stroke-width:1pt;stroke-opacity:1"
         d="M 0,0 5,-5 -12.5,0 5,5 Z"
         id="path14784" />
    </marker>
    <marker
       style="overflow:visible"
       id="marker13100"
       refX="0"
       refY="0"
       orient="auto"
       inkscape:stockid="Arrow1Mend"
       inkscape:isstock="true">
      <path
         transform="matrix(-0.4,0,0,-0.4,-4,0)"
         style="fill:#000000;fill-opacity:1;fill-rule:evenodd;stroke:#000000;stroke-width:1pt;stroke-opacity:1"
         d="M 0,0 5,-5 -12.5,0 5,5 Z"
         id="path13098" />
    </marker>
    <marker
       style="overflow:visible"
       id="marker13090"
       refX="0"
       refY="0"
       orient="auto"
       inkscape:stockid="Arrow1Mend"
       inkscape:isstock="true">
      <path
         transform="matrix(-0.4,0,0,-0.4,-4,0)"
         style="fill:#000000;fill-opacity:1;fill-rule:evenodd;stroke:#000000;stroke-width:1pt;stroke-opacity:1"
         d="M 0,0 5,-5 -12.5,0 5,5 Z"
         id="path13088" />
    </marker>
    <marker
       style="overflow:visible"
       id="marker13080"
       refX="0"
       refY="0"
       orient="auto"
       inkscape:stockid="Arrow1Mend"
       inkscape:isstock="true">
      <path
         transform="matrix(-0.4,0,0,-0.4,-4,0)"
         style="fill:#000000;fill-opacity:1;fill-rule:evenodd;stroke:#000000;stroke-width:1pt;stroke-opacity:1"
         d="M 0,0 5,-5 -12.5,0 5,5 Z"
         id="path13078" />
    </marker>
    <marker
       style="overflow:visible"
       id="marker13070"
       refX="0"
       refY="0"
       orient="auto"
       inkscape:stockid="Arrow1Mend"
       inkscape:isstock="true">
      <path
         transform="matrix(-0.4,0,0,-0.4,-4,0)"
         style="fill:#000000;fill-opacity:1;fill-rule:evenodd;stroke:#000000;stroke-width:1pt;stroke-opacity:1"
         d="M 0,0 5,-5 -12.5,0 5,5 Z"
         id="path13068" />
    </marker>
    <marker
       style="overflow:visible"
       id="marker13060"
       refX="0"
       refY="0"
       orient="auto"
       inkscape:stockid="Arrow1Send"
       inkscape:isstock="true">
      <path
         transform="matrix(-0.2,0,0,-0.2,-1.2,0)"
         style="fill:#000000;fill-opacity:1;fill-rule:evenodd;stroke:#000000;stroke-width:1pt;stroke-opacity:1"
         d="M 0,0 5,-5 -12.5,0 5,5 Z"
         id="path13058" />
    </marker>
    <marker
       style="overflow:visible"
       id="marker13050"
       refX="0"
       refY="0"
       orient="auto"
       inkscape:stockid="Arrow1Send"
       inkscape:isstock="true"
       inkscape:collect="always">
      <path
         transform="matrix(-0.2,0,0,-0.2,-1.2,0)"
         style="fill:#000000;fill-opacity:1;fill-rule:evenodd;stroke:#000000;stroke-width:1pt;stroke-opacity:1"
         d="M 0,0 5,-5 -12.5,0 5,5 Z"
         id="path13048" />
    </marker>
    <marker
       style="overflow:visible"
       id="marker13040"
       refX="0"
       refY="0"
       orient="auto"
       inkscape:stockid="Arrow1Sstart"
       inkscape:isstock="true">
      <path
         transform="matrix(0.2,0,0,0.2,1.2,0)"
         style="fill:#000000;fill-opacity:1;fill-rule:evenodd;stroke:#000000;stroke-width:1pt;stroke-opacity:1"
         d="M 0,0 5,-5 -12.5,0 5,5 Z"
         id="path13038" />
    </marker>
    <marker
       style="overflow:visible"
       id="Arrow2Mstart"
       refX="0"
       refY="0"
       orient="auto"
       inkscape:stockid="Arrow2Mstart"
       inkscape:isstock="true">
      <path
         transform="scale(0.6)"
         d="M 8.7185878,4.0337352 -2.2072895,0.01601326 8.7185884,-4.0017078 c -1.7454984,2.3720609 -1.7354408,5.6174519 -6e-7,8.035443 z"
         style="fill:#000000;fill-opacity:1;fill-rule:evenodd;stroke:#000000;stroke-width:0.625;stroke-linejoin:round;stroke-opacity:1"
         id="path7959" />
    </marker>
    <marker
       style="overflow:visible"
       id="Arrow1Lstart"
       refX="0"
       refY="0"
       orient="auto"
       inkscape:stockid="Arrow1Lstart"
       inkscape:isstock="true">
      <path
         transform="matrix(0.8,0,0,0.8,10,0)"
         style="fill:#000000;fill-opacity:1;fill-rule:evenodd;stroke:#000000;stroke-width:1pt;stroke-opacity:1"
         d="M 0,0 5,-5 -12.5,0 5,5 Z"
         id="path7935" />
    </marker>
    <pattern
       id="EMFhbasepattern"
       patternUnits="userSpaceOnUse"
       width="6"
       height="6"
       x="0"
       y="0" />
    <g
       id="g1366">
      <symbol
         overflow="visible"
         id="symbol1352">
        <path
           style="stroke:none"
           d="M 0.5,0 H 4.484375 V -4.8125 H 0.5 Z M 1,-0.5 V -4.3125 H 3.984375 V -0.5 Z m 0,0"
           id="path1350" />
      </symbol>
      <symbol
         overflow="visible"
         id="symbol1356">
        <path
           style="stroke:none"
           d="M 1.0625,-2.765625 C 1.0625,-4.3125 1.578125,-6 2.5,-6.8125 c 0,0 -0.125,-0.140625 -0.203125,-0.1875 -1.125,0.90625 -1.9375,2.328125 -1.9375,4.234375 0,1.875 0.8125,3.328125 1.9375,4.21875 C 2.375,1.421875 2.5,1.265625 2.5,1.265625 1.578125,0.453125 1.0625,-1.25 1.0625,-2.765625 Z m 0,0"
           id="path1354" />
      </symbol>
      <symbol
         overflow="visible"
         id="symbol1360">
        <path
           style="stroke:none"
           d="m 1.84375,-0.453125 c -0.375,0 -0.671875,-0.328125 -0.671875,-0.6875 0,-0.390625 0.25,-0.640625 0.609375,-0.78125 C 1.96875,-2 2.453125,-2.140625 2.71875,-2.21875 v 1.359375 c 0,0.109375 -0.53125,0.40625 -0.875,0.40625 z M 2.375,-4.34375 c -0.71875,0 -1.484375,0.53125 -1.78125,0.8125 -0.046875,0.046875 -0.078125,0.203125 -0.078125,0.234375 0,0.21875 0.125,0.421875 0.328125,0.421875 0.25,0 0.40625,-0.140625 0.46875,-0.46875 0.0625,-0.390625 0.1875,-0.640625 0.546875,-0.640625 0.484375,0 0.859375,0.515625 0.859375,0.96875 V -2.75 c 0,0.171875 -0.03125,0.21875 -0.125,0.25 -0.28125,0.140625 -1.171875,0.421875 -1.71875,0.625 -0.234375,0.078125 -0.5,0.40625 -0.5,0.8125 0,0.640625 0.5,1.140625 1.140625,1.140625 0.34375,0 1.109375,-0.53125 1.21875,-0.65625 C 2.796875,-0.28125 3.0625,0.0625 3.34375,0.0625 c 0.203125,0 0.609375,-0.265625 0.734375,-0.375 C 4.109375,-0.359375 4.125,-0.4375 4.125,-0.5 c 0,-0.03125 -0.015625,-0.078125 -0.03125,-0.078125 -0.03125,0.015625 -0.15625,0.125 -0.328125,0.125 -0.234375,0 -0.3125,-0.203125 -0.3125,-0.46875 V -2.96875 c 0,-0.765625 -0.515625,-1.375 -1.078125,-1.375 z m 0,0"
           id="path1358" />
      </symbol>
      <symbol
         overflow="visible"
         id="symbol1364">
        <path
           style="stroke:none"
           d="M 2.1875,-2.765625 C 2.1875,-4.671875 1.375,-6.09375 0.234375,-7 c -0.0625,0.046875 -0.1875,0.1875 -0.171875,0.1875 0.921875,0.8125 1.40625,2.5 1.40625,4.046875 0,1.515625 -0.484375,3.21875 -1.40625,4.03125 -0.015625,0 0.109375,0.15625 0.171875,0.1875 C 1.375,0.5625 2.1875,-0.890625 2.1875,-2.765625 Z m 0,0"
           id="path1362" />
      </symbol>
    </g>
    <g
       id="g1396">
      <symbol
         overflow="visible"
         id="symbol1382">
        <path
           style="stroke:none"
           d="M 0.5,0 H 4.484375 V -4.8125 H 0.5 Z M 1,-0.5 V -4.3125 H 3.984375 V -0.5 Z m 0,0"
           id="path1380" />
      </symbol>
      <symbol
         overflow="visible"
         id="symbol1386">
        <path
           style="stroke:none"
           d="M 1.0625,-2.765625 C 1.0625,-4.3125 1.578125,-6 2.5,-6.8125 c 0,0 -0.125,-0.140625 -0.203125,-0.1875 -1.125,0.90625 -1.9375,2.328125 -1.9375,4.234375 0,1.875 0.8125,3.328125 1.9375,4.21875 C 2.375,1.421875 2.5,1.265625 2.5,1.265625 1.578125,0.453125 1.0625,-1.25 1.0625,-2.765625 Z m 0,0"
           id="path1384" />
      </symbol>
      <symbol
         overflow="visible"
         id="symbol1390">
        <path
           style="stroke:none"
           d="m 2.09375,0.0625 c 1.40625,0 2.4375,-1.0625 2.4375,-2.328125 0,-0.890625 -0.625,-2 -1.8125,-2 -0.375,0 -1.046875,0.421875 -1.203125,0.53125 C 1.453125,-3.6875 1.46875,-3.78125 1.46875,-3.84375 V -5.75 c 0,-0.546875 0.09375,-0.84375 0.09375,-0.84375 0,-0.078125 -0.046875,-0.171875 -0.09375,-0.171875 C 1.046875,-6.5625 0.5625,-6.421875 0.0625,-6.375 c -0.046875,0.015625 -0.015625,0.265625 -0.015625,0.265625 0.28125,0 0.546875,0.03125 0.609375,0.171875 0.046875,0.109375 0.046875,0.375 0.046875,0.5 v 4.375 c 0,0.1875 -0.015625,0.515625 -0.109375,0.71875 0,0.046875 0.078125,0.203125 0.125,0.203125 0.21875,-0.078125 0.421875,0 0.640625,0.0625 C 1.578125,-0.015625 1.9375,0.0625 2.09375,0.0625 Z M 2.25,-3.6875 c 0.890625,0 1.453125,0.671875 1.453125,1.796875 0,0.796875 -0.609375,1.625 -1.328125,1.625 -0.4375,0 -0.90625,-0.265625 -0.90625,-0.6875 V -3.3125 c 0,-0.0625 0,-0.09375 0.03125,-0.109375 C 1.59375,-3.515625 2,-3.6875 2.25,-3.6875 Z m 0,0"
           id="path1388" />
      </symbol>
      <symbol
         overflow="visible"
         id="symbol1394">
        <path
           style="stroke:none"
           d="M 2.1875,-2.765625 C 2.1875,-4.671875 1.375,-6.09375 0.234375,-7 c -0.0625,0.046875 -0.1875,0.1875 -0.171875,0.1875 0.921875,0.8125 1.40625,2.5 1.40625,4.046875 0,1.515625 -0.484375,3.21875 -1.40625,4.03125 -0.015625,0 0.109375,0.15625 0.171875,0.1875 C 1.375,0.5625 2.1875,-0.890625 2.1875,-2.765625 Z m 0,0"
           id="path1392" />
      </symbol>
    </g>
    <g
       id="g7014">
      <symbol
         id="symbol7008"
         overflow="visible">
        <path
           id="path7006"
           d="M 0.5,0 H 4.484375 V -4.8125 H 0.5 Z M 1,-0.5 V -4.3125 H 3.984375 V -0.5 Z m 0,0"
           style="stroke:none" />
      </symbol>
      <symbol
         id="symbol7012"
         overflow="visible">
        <path
           id="path7010"
           d="m 2.171875,-1.125 c 0,0.28125 -0.015625,0.5625 -0.0625,0.71875 C 2.078125,-0.296875 1.609375,-0.25 1.5,-0.25 c -0.046875,0.046875 -0.046875,0.234375 0,0.28125 0.390625,-0.015625 0.65625,-0.046875 1.03125,-0.046875 0.375,0 0.6875,0.03125 1.09375,0.046875 0.046875,-0.046875 0.03125,-0.234375 0,-0.28125 C 3.5,-0.25 3.015625,-0.296875 2.984375,-0.40625 2.9375,-0.5625 2.9375,-0.84375 2.9375,-1.125 v -4.03125 c 0,-0.59375 0.078125,-0.9375 0.078125,-0.9375 0,-0.046875 -0.03125,-0.15625 -0.09375,-0.15625 H 2.90625 C 2.875,-6.25 2,-5.828125 1.203125,-5.46875 c -0.03125,0.015625 0,0.046875 0,0.0625 0,0.078125 0.03125,0.125 0.078125,0.171875 0.171875,-0.0625 0.546875,-0.203125 0.6875,-0.203125 0.140625,0 0.203125,0.09375 0.203125,0.375 z m 0,0"
           style="stroke:none" />
      </symbol>
    </g>
    <g
       id="g7030">
      <symbol
         id="symbol7024"
         overflow="visible">
        <path
           id="path7022"
           d="M 0.5,0 H 4.484375 V -4.8125 H 0.5 Z M 1,-0.5 V -4.3125 H 3.984375 V -0.5 Z m 0,0"
           style="stroke:none" />
      </symbol>
      <symbol
         id="symbol7028"
         overflow="visible">
        <path
           id="path7026"
           d="M 4.421875,-1.453125 C 4.375,-1.484375 4.25,-1.515625 4.21875,-1.515625 c -0.0625,0 -0.09375,0.015625 -0.109375,0.0625 -0.21875,0.5 -0.4375,0.75 -0.8125,0.75 h -1.9375 c 0.4375,-0.5 1.4375,-1.59375 2.125,-2.453125 C 3.8125,-3.5625 4.03125,-4.0625 4.03125,-4.625 c 0,-0.828125 -0.734375,-1.625 -1.671875,-1.625 -1.03125,0 -1.734375,1.078125 -1.796875,1.3125 0,0.046875 0.109375,0.15625 0.1875,0.15625 0.125,-0.1875 0.609375,-0.828125 1.390625,-0.828125 0.609375,0 1.0625,0.5 1.0625,1.171875 0,0.484375 -0.0625,0.875 -0.46875,1.453125 -0.5625,0.828125 -1.5,1.9375 -2.3125,2.84375 0,0.046875 0.0625,0.125 0.09375,0.140625 h 3.375 c 0.0625,-0.171875 0.328125,-0.984375 0.53125,-1.453125 z m 0,0"
           style="stroke:none" />
      </symbol>
    </g>
    <g
       style="fill:#3a493f;stroke-width:0"
       id="g3367">
      <symbol
         style="fill:#3a493f;stroke-width:0"
         overflow="visible"
         id="symbol3361">
        <path
           style="fill:#3a493f;stroke:none;stroke-width:0"
           d="M 0.5,0 H 4.484375 V -4.8125 H 0.5 Z M 1,-0.5 V -4.3125 H 3.984375 V -0.5 Z m 0,0"
           id="path3359" />
      </symbol>
      <symbol
         style="fill:#3a493f;stroke-width:0"
         overflow="visible"
         id="symbol3365">
        <path
           style="fill:#3a493f;stroke:none;stroke-width:0"
           d="m 2.484375,-5.875 c 0.71875,0 1.203125,1.1875 1.203125,2.71875 0,1.515625 -0.4375,2.828125 -1.3125,2.828125 -0.703125,0 -1.21875,-1.25 -1.21875,-2.78125 0,-1.53125 0.515625,-2.765625 1.328125,-2.765625 z m -0.0625,-0.359375 c -1.34375,0 -2.125,1.421875 -2.125,3.125 0,1.6875 0.796875,3.140625 2.125,3.140625 1.34375,0 2.125,-1.453125 2.125,-3.140625 0,-1.703125 -0.765625,-3.125 -2.125,-3.125 z m 0,0"
           id="path3363" />
      </symbol>
    </g>
    <g
       id="g29372"
       style="fill:#000000;fill-opacity:1;stroke-width:0">
      <symbol
         overflow="visible"
         id="symbol29358"
         style="fill:#000000;fill-opacity:1;stroke-width:0">
        <path
           style="fill:#000000;fill-opacity:1;stroke:none;stroke-width:0"
           d=""
           id="path29356" />
      </symbol>
      <symbol
         overflow="visible"
         id="symbol29362"
         style="fill:#000000;fill-opacity:1;stroke-width:0">
        <path
           style="fill:#000000;fill-opacity:1;stroke:none;stroke-width:0"
           d="m 3.625,-6.09375 c 0.1875,0 0.296875,-0.25 0.3125,-0.46875 v -0.09375 c -0.0625,-0.125 -0.265625,-0.25 -0.546875,-0.25 -0.8125,0 -1.765625,1.078125 -2.078125,2.734375 H 0.828125 c -0.234375,0 -0.46875,0.25 -0.46875,0.34375 0,0.015625 0.015625,0.03125 0.015625,0.03125 h 0.859375 c -0.328125,1.96875 -0.671875,4.03125 -1,6.0625 l 0.046875,0.09375 c 0,0 0.234375,-0.03125 0.359375,-0.109375 0.125,-0.09375 0.203125,-0.21875 0.203125,-0.21875 0.265625,-1.296875 0.984375,-5.078125 1.125,-5.828125 h 1.046875 c 0.0625,-0.078125 0.09375,-0.15625 0.09375,-0.25 0,-0.046875 -0.015625,-0.125 -0.046875,-0.125 H 2.046875 c 0.3125,-1.59375 0.53125,-2.3125 0.90625,-2.3125 0.328125,0 0.375,0.390625 0.671875,0.390625 z m 0,0"
           id="path29360" />
      </symbol>
      <symbol
         overflow="visible"
         id="symbol29366"
         style="fill:#000000;fill-opacity:1;stroke-width:0">
        <path
           style="fill:#000000;fill-opacity:1;stroke:none;stroke-width:0"
           d="m 0.359375,0 h 2.90625 V -3.515625 H 0.359375 Z M 0.71875,-0.359375 v -2.78125 h 2.1875 v 2.78125 z m 0,0"
           id="path29364" />
      </symbol>
      <symbol
         overflow="visible"
         id="symbol29370"
         style="fill:#000000;fill-opacity:1;stroke-width:0">
        <path
           style="fill:#000000;fill-opacity:1;stroke:none;stroke-width:0"
           d="m 1.15625,-4.671875 c -0.28125,0 -0.546875,0 -0.84375,-0.015625 -0.03125,0.03125 -0.015625,0.15625 0,0.203125 0.09375,0 0.46875,0.015625 0.5,0.109375 0.03125,0.109375 0.03125,0.3125 0.03125,0.53125 v 3.015625 c 0,0.21875 0,0.40625 -0.03125,0.53125 -0.03125,0.078125 -0.40625,0.109375 -0.5,0.109375 -0.015625,0.046875 -0.03125,0.171875 0,0.203125 0.28125,0 0.515625,-0.03125 0.84375,-0.03125 0.28125,0 0.609375,0.015625 0.90625,0.03125 0.03125,-0.03125 0.015625,-0.15625 0,-0.203125 -0.09375,0 -0.546875,-0.03125 -0.5625,-0.109375 -0.046875,-0.125 -0.046875,-0.3125 -0.046875,-0.53125 V -2.15625 c 0,-0.0625 0.3125,-0.0625 0.515625,-0.0625 0.265625,0 0.671875,0.015625 0.75,0.0625 0.078125,0.046875 0.09375,0.0625 0.203125,0.46875 0.015625,0.03125 0.0625,0.046875 0.109375,0.046875 0.0625,0 0.109375,-0.015625 0.125,-0.015625 V -3 C 3.125,-3.015625 3.078125,-3.03125 3.03125,-3.03125 c -0.046875,0 -0.109375,0.015625 -0.109375,0.046875 -0.125,0.46875 -0.09375,0.5 -0.78125,0.5 h -0.375 c -0.15625,0 -0.3125,0 -0.3125,-0.03125 V -3.84375 c 0,-0.1875 0,-0.390625 0.046875,-0.515625 0.015625,-0.0625 0.390625,-0.0625 0.484375,-0.0625 H 2.59375 c 0.375,0 0.671875,0.09375 0.828125,0.65625 0,0.03125 0.046875,0.046875 0.09375,0.046875 0.046875,0 0.109375,-0.015625 0.125,-0.03125 C 3.578125,-4.0625 3.5,-4.359375 3.4375,-4.703125 c -0.765625,0 -1.609375,0.03125 -2.28125,0.03125 z m 0,0"
           id="path29368" />
      </symbol>
    </g>
    <defs
       id="id-0225919a-d02a-48ae-ba48-c004d98249e1">
      <g
         id="id-c5c01a56-4c69-4c6a-97e6-bc9348853b78"
         style="fill:#000000;stroke-width:0">
        <symbol
           overflow="visible"
           id="id-7bdb2515-1970-43ed-acdb-25cb660e7191"
           style="fill:#000000;stroke-width:0">
          <path
             style="fill:#000000;stroke:none;stroke-width:0"
             d=""
             id="id-a9a369f8-20af-415d-a164-9442e1cfbc35" />
        </symbol>
        <symbol
           overflow="visible"
           id="id-8a263045-4d7e-48c6-9aef-8e7fba5bf171"
           style="fill:#000000;stroke-width:0">
          <path
             style="fill:#000000;stroke:none;stroke-width:0"
             d="m 6.234375,-6.09375 0.046875,-0.0625 c 0.015625,0 0.015625,-0.03125 0.015625,-0.046875 0,-0.03125 -0.03125,-0.078125 -0.09375,-0.078125 -0.15625,0 -0.359375,0.078125 -0.546875,0.1875 -0.203125,0.125 -0.375,0.296875 -0.5,0.46875 -0.15625,0.21875 -0.25,0.453125 -0.25,0.65625 0,0.046875 0.015625,0.109375 0.03125,0.171875 0.078125,0.25 0.328125,0.375 0.640625,0.375 0.1875,0 0.40625,-0.09375 0.625,-0.234375 C 6.4375,-4.796875 6.625,-5 6.765625,-5.1875 6.984375,-5.5 7.09375,-5.796875 7.09375,-6.078125 c 0,-0.15625 -0.046875,-0.296875 -0.125,-0.4375 C 6.734375,-6.890625 6.25,-7.0625 5.65625,-7.0625 c -0.40625,0 -0.875,0.15625 -1.359375,0.421875 -0.453125,0.265625 -0.875,0.625 -1.15625,1.015625 -0.296875,0.40625 -0.421875,0.796875 -0.421875,1.140625 0,0.140625 0.015625,0.265625 0.0625,0.390625 0.015625,0.046875 0.046875,0.109375 0.09375,0.15625 -0.21875,0.0625 -0.4375,0.15625 -0.65625,0.25 -0.5,0.234375 -0.96875,0.59375 -1.265625,0.984375 -0.34375,0.484375 -0.5,0.96875 -0.5,1.375 0,0.21875 0.03125,0.40625 0.125,0.59375 0.296875,0.5625 0.96875,0.8125 1.796875,0.8125 0.421875,0 0.921875,-0.125 1.421875,-0.375 0.4375,-0.21875 0.859375,-0.546875 1.125,-0.90625 0.15625,-0.25 0.234375,-0.46875 0.234375,-0.65625 C 5.15625,-2.03125 5.109375,-2.1875 5,-2.3125 4.75,-2.640625 4.265625,-2.765625 3.734375,-2.765625 3.0625,-2.765625 2.3125,-1.84375 2.21875,-1.0625 c 0,0.015625 0,0.03125 0,0.046875 0.015625,0.03125 0.03125,0.046875 0.0625,0.046875 H 2.328125 L 2.390625,-1 c 0.03125,0 0.046875,-0.03125 0.046875,-0.0625 0.109375,-0.71875 0.734375,-1.484375 1.25,-1.484375 0.453125,0 0.78125,0.109375 0.921875,0.359375 0.03125,0.046875 0.046875,0.140625 0.046875,0.21875 0,0.171875 -0.078125,0.40625 -0.265625,0.65625 C 4.171875,-1 3.875,-0.6875 3.515625,-0.46875 3.125,-0.234375 2.734375,-0.140625 2.421875,-0.140625 1.71875,-0.140625 1.21875,-0.375 1.078125,-0.84375 1.046875,-0.921875 1.03125,-1.015625 1.03125,-1.109375 c 0,-0.421875 0.234375,-0.9375 0.625,-1.5 0.234375,-0.328125 0.546875,-0.65625 0.9375,-0.90625 0.15625,-0.078125 0.3125,-0.15625 0.46875,-0.21875 0.25,0.203125 0.59375,0.28125 1,0.28125 0.078125,0 0.203125,-0.015625 0.296875,-0.046875 0.0625,-0.015625 0.15625,-0.0625 0.203125,-0.15625 C 4.609375,-3.703125 4.609375,-3.75 4.609375,-3.78125 4.609375,-3.890625 4.5,-3.953125 4.4375,-3.984375 4.265625,-4.0625 4.046875,-4.09375 3.84375,-4.09375 c -0.171875,0 -0.328125,0.015625 -0.515625,0.046875 C 3.3125,-4.09375 3.296875,-4.125 3.296875,-4.171875 3.28125,-4.21875 3.28125,-4.25 3.28125,-4.28125 c 0,-0.34375 0.234375,-0.78125 0.5625,-1.25 0.21875,-0.328125 0.453125,-0.625 0.796875,-0.875 0.328125,-0.21875 0.65625,-0.328125 0.90625,-0.328125 0.546875,0 0.96875,0.109375 1.15625,0.40625 C 6.765625,-6.234375 6.78125,-6.125 6.78125,-6 c 0,0.203125 -0.078125,0.453125 -0.265625,0.71875 C 6.40625,-5.109375 6.25,-4.953125 6.0625,-4.828125 c -0.15625,0.125 -0.328125,0.1875 -0.453125,0.1875 -0.296875,0 -0.453125,-0.125 -0.453125,-0.328125 0,-0.140625 0.09375,-0.34375 0.25,-0.5625 C 5.5,-5.671875 5.625,-5.8125 5.78125,-5.90625 5.921875,-6.015625 6.078125,-6.0625 6.171875,-6.0625 c 0.03125,0 0.0625,-0.015625 0.0625,-0.03125 z m -2.4375,2.21875 c 0.1875,0 0.359375,0.015625 0.484375,0.0625 0.046875,0.03125 0.0625,0.03125 0.0625,0.046875 0,0 -0.015625,0.015625 -0.015625,0.015625 0,0 -0.046875,0.046875 -0.078125,0.0625 -0.046875,0.015625 -0.109375,0.015625 -0.15625,0.015625 -0.265625,0 -0.46875,-0.0625 -0.609375,-0.171875 0.109375,-0.015625 0.21875,-0.03125 0.3125,-0.03125 z m 0,0"
             id="id-ee6e78c1-61c2-4f7b-8584-90cf70d38a78" />
        </symbol>
      </g>
    </defs>
    <pattern
       id="EMFhbasepattern-5"
       patternUnits="userSpaceOnUse"
       width="6"
       height="6"
       x="0"
       y="0" />
    <g
       id="g8991"
       style="fill:#aa9e95;fill-opacity:1;stroke-width:0">
      <symbol
         id="symbol8977"
         overflow="visible"
         style="fill:#aa9e95;fill-opacity:1;stroke-width:0">
        <path
           id="path8975"
           d=""
           style="fill:#aa9e95;fill-opacity:1;stroke:none;stroke-width:0" />
      </symbol>
      <symbol
         id="symbol8981"
         overflow="visible"
         style="fill:#aa9e95;fill-opacity:1;stroke-width:0">
        <path
           id="path8979"
           d="m 2.484375,-2.84375 h -2.1875 v 0.65625 h 2.1875 V 0 h 0.65625 v -2.1875 h 2.1875 v -0.65625 h -2.1875 v -2.203125 h -0.65625 z m 0,0"
           style="fill:#aa9e95;fill-opacity:1;stroke:none;stroke-width:0" />
      </symbol>
      <symbol
         id="symbol8985"
         overflow="visible"
         style="fill:#aa9e95;fill-opacity:1;stroke-width:0">
        <path
           id="path8983"
           d=""
           style="fill:#aa9e95;fill-opacity:1;stroke:none;stroke-width:0" />
      </symbol>
      <symbol
         id="symbol8989"
         overflow="visible"
         style="fill:#aa9e95;fill-opacity:1;stroke-width:0">
        <path
           id="path8987"
           d="M 3.203125,2.296875 C 3.25,2.265625 3.265625,2.03125 3.21875,2.03125 2.765625,2.03125 2.75,1.859375 2.75,1.71875 2.75,1.59375 3.1875,-0.875 3.234375,-1.0625 l 0.625,-3.1875 C 3.671875,-4.328125 3.40625,-4.390625 3.0625,-4.390625 c -1.3125,0 -2.875,1.640625 -2.875,3.21875 0,0.59375 0.25,1.21875 0.875,1.21875 0.59375,0 1.296875,-1 1.5,-1.359375 L 2,1.71875 c -0.0625,0.265625 -0.390625,0.34375 -0.6875,0.375 -0.0625,0 -0.046875,0.25 -0.03125,0.265625 0.375,-0.03125 0.9375,-0.0625 1.515625,-0.0625 0.140625,0 0.265625,0 0.40625,0 z m -0.21875,-5.734375 -0.125,0.65625 c -0.1875,0.984375 -0.890625,2.25 -1.40625,2.25 -0.359375,0 -0.515625,-0.421875 -0.515625,-0.984375 0,-1.15625 0.875,-2.46875 1.6875,-2.46875 C 2.875,-3.984375 3,-3.75 3,-3.53125 3,-3.5 2.984375,-3.46875 2.984375,-3.4375 Z m 0,0"
           style="fill:#aa9e95;fill-opacity:1;stroke:none;stroke-width:0" />
      </symbol>
    </g>
    <pattern
       id="EMFhbasepattern-6"
       patternUnits="userSpaceOnUse"
       width="6"
       height="6"
       x="0"
       y="0" />
    <marker
       style="overflow:visible"
       id="marker14966-3"
       refX="0"
       refY="0"
       orient="auto"
       inkscape:stockid="Arrow1Send"
       inkscape:isstock="true">
      <path
         transform="matrix(-0.2,0,0,-0.2,-1.2,0)"
         style="fill:#506a68;fill-opacity:1;fill-rule:evenodd;stroke:#506a68;stroke-width:1pt;stroke-opacity:1"
         d="M 0,0 5,-5 -12.5,0 5,5 Z"
         id="path14964-6" />
    </marker>
    <g
       id="id-559de825-d1db-4488-95c0-86747ed394d6"
       style="fill:#9e7867;stroke-width:0">
      <symbol
         overflow="visible"
         id="id-ee114b6a-0490-4378-9b66-883709fa47f8"
         style="fill:#9e7867;stroke-width:0">
        <path
           style="fill:#9e7867;stroke:none;stroke-width:0"
           d=""
           id="id-72857089-eccd-4348-8f2c-f0540a1ccc5d" />
      </symbol>
      <symbol
         overflow="visible"
         id="id-33fdcd1b-d0c3-4bf3-94c7-ab540db664d3"
         style="fill:#9e7867;stroke-width:0">
        <path
           style="fill:#9e7867;stroke:none;stroke-width:0"
           d="m 1.453125,0.0625 c 1.796875,0 3.3125,-2.140625 3.3125,-3.734375 C 4.765625,-4.0625 4.546875,-4.5 4.09375,-4.5 c -0.296875,0 -0.703125,0.34375 -0.78125,0.578125 0.15625,0.15625 0.25,0.390625 0.25,0.59375 0,0.21875 -0.015625,0.546875 -0.109375,0.890625 -0.140625,0.546875 -0.34375,1.703125 -1.171875,1.703125 -0.3125,0 -0.53125,-0.109375 -0.53125,-0.3125 0,-0.5625 0.515625,-2.484375 0.515625,-2.921875 0,-0.28125 -0.234375,-0.53125 -0.5,-0.53125 -0.609375,0 -1.5,0.875 -1.640625,1.09375 0,0.0625 0.078125,0.171875 0.109375,0.171875 0.03125,-0.03125 0.421875,-0.53125 0.6875,-0.53125 0.140625,0 0.140625,0.171875 0.140625,0.25 l -0.421875,2.0625 C 0.5625,-1.09375 0.46875,-0.71875 0.46875,-0.53125 c 0,0.484375 0.515625,0.59375 0.984375,0.59375 z m 0,0"
           id="id-ef8cd739-ede5-4616-953e-7534bbf68983" />
      </symbol>
      <symbol
         overflow="visible"
         id="id-72c962e9-b71b-4d1b-ab83-42950484b34a"
         style="fill:#9e7867;stroke-width:0">
        <path
           style="fill:#9e7867;stroke:none;stroke-width:0"
           d="m 0.359375,0 h 2.90625 V -3.515625 H 0.359375 Z M 0.71875,-0.359375 v -2.78125 h 2.1875 v 2.78125 z m 0,0"
           id="id-d5bdcbca-d81b-4b71-a21e-9252c181698f" />
      </symbol>
      <symbol
         overflow="visible"
         id="id-14deb992-cb68-47c2-be49-fb4f5b8682d0"
         style="fill:#9e7867;stroke-width:0">
        <path
           style="fill:#9e7867;stroke:none;stroke-width:0"
           d="m 2,-3.1875 c -0.65625,0 -1.71875,0.734375 -1.71875,1.6875 0,0.890625 0.609375,1.5625 1.28125,1.5625 0.34375,0 0.84375,-0.3125 0.953125,-0.4375 0.015625,-0.015625 0.015625,0.015625 0.015625,0.046875 v 0.25 c 0,0.046875 0.015625,0.140625 0.0625,0.140625 0,0 0.5625,-0.1875 0.9375,-0.203125 0.03125,0 0.046875,-0.09375 0.046875,-0.109375 0,-0.015625 0,-0.078125 -0.015625,-0.078125 -0.03125,-0.015625 -0.359375,0 -0.4375,-0.125 C 3.09375,-0.5625 3.078125,-0.875 3.078125,-1.15625 v -3.046875 c 0,-0.390625 0.09375,-0.609375 0.09375,-0.609375 0,-0.046875 -0.0625,-0.109375 -0.09375,-0.109375 -0.296875,0.125 -0.65625,0.234375 -1.015625,0.265625 -0.03125,0 -0.015625,0.1875 0,0.1875 0.1875,0 0.390625,0.015625 0.4375,0.125 0.03125,0.078125 0.03125,0.25 0.03125,0.34375 v 0.75 c 0,0.078125 0,0.140625 -0.03125,0.140625 C 2.421875,-3.140625 2.15625,-3.1875 2,-3.1875 Z m -0.234375,0.296875 c 0.40625,0 0.765625,0.203125 0.765625,0.359375 v 1.859375 c 0,0.109375 -0.296875,0.28125 -0.625,0.28125 -0.65625,0 -1.03125,-0.59375 -1.03125,-1.28125 0,-0.609375 0.34375,-1.21875 0.890625,-1.21875 z m 0,0"
           id="id-5182140d-65f6-498d-bcb7-75d4cc52cfc5" />
      </symbol>
    </g>
    <marker
       inkscape:stockid="Arrow1Lend"
       orient="auto"
       refY="0"
       refX="0"
       id="Arrow1Lend"
       style="overflow:visible"
       inkscape:isstock="true">
      <path
         id="path1103"
         d="M 0,0 5,-5 -12.5,0 5,5 Z"
         style="fill:#000000;fill-opacity:1;fill-rule:evenodd;stroke:#000000;stroke-width:1.00000003pt;stroke-opacity:1"
         transform="matrix(-0.8,0,0,-0.8,-10,0)"
         inkscape:connector-curvature="0" />
    </marker>
    <marker
       inkscape:stockid="Arrow1Lend"
       orient="auto"
       refY="0"
       refX="0"
       id="Arrow1Lend-6-7-8-6-9-0-2-8"
       style="overflow:visible"
       inkscape:isstock="true">
      <path
         id="path1103-3-0-6-9-1-4-9-8"
         d="M 0,0 5,-5 -12.5,0 5,5 Z"
         style="fill:#000000;fill-opacity:1;fill-rule:evenodd;stroke:#000000;stroke-width:1.00000003pt;stroke-opacity:1"
         transform="matrix(-0.8,0,0,-0.8,-10,0)"
         inkscape:connector-curvature="0" />
    </marker>
    <marker
       inkscape:stockid="Arrow1Lend"
       orient="auto"
       refY="0"
       refX="0"
       id="Arrow1Lend-6-7-8-6-9-0-9-3"
       style="overflow:visible"
       inkscape:isstock="true">
      <path
         id="path1103-3-0-6-9-1-4-1-9"
         d="M 0,0 5,-5 -12.5,0 5,5 Z"
         style="fill:#000000;fill-opacity:1;fill-rule:evenodd;stroke:#000000;stroke-width:1.00000003pt;stroke-opacity:1"
         transform="matrix(-0.8,0,0,-0.8,-10,0)"
         inkscape:connector-curvature="0" />
    </marker>
  </defs>
  <sodipodi:namedview
     id="base"
     pagecolor="#ffffff"
     bordercolor="#666666"
     borderopacity="1.0"
     inkscape:pageopacity="0.0"
     inkscape:pageshadow="2"
     inkscape:zoom="2.8"
     inkscape:cx="127.31522"
     inkscape:cy="71.856067"
     inkscape:document-units="mm"
     inkscape:current-layer="layer1"
     inkscape:document-rotation="0"
     showgrid="false"
     inkscape:window-width="1600"
     inkscape:window-height="837"
     inkscape:window-x="1432"
     inkscape:window-y="-8"
     inkscape:window-maximized="1" />
  <metadata
     id="metadata5">
    <rdf:RDF>
      <cc:Work
         rdf:about="">
        <dc:format>image/svg+xml</dc:format>
        <dc:type
           rdf:resource="http://purl.org/dc/dcmitype/StillImage" />
        <dc:title></dc:title>
      </cc:Work>
    </rdf:RDF>
  </metadata>
  <g
     inkscape:label="Layer 1"
     inkscape:groupmode="layer"
     id="layer1"
     transform="translate(-213.16745,-23.090959)">
    <path
       style="fill:none;stroke:#000000;stroke-width:0.264583px;stroke-linecap:round;stroke-linejoin:miter;stroke-opacity:1"
       d="M 220.67014,49.447843 V 24.957453"
       id="path18634"
       sodipodi:nodetypes="cc" />
    <circle
       r="0.83473128"
       cy="38.52747"
       cx="220.67033"
       id="circle18616"
       style="opacity:1;fill:#000000;stroke:#000000;stroke-width:0.330537;stroke-linejoin:round;stroke-miterlimit:4;stroke-dasharray:none" />
    <path
       style="fill:none;stroke:#aa9e95;stroke-width:0.264583px;stroke-linecap:round;stroke-linejoin:miter;stroke-opacity:1"
       d="M 260.23649,45.668081 H 220.67014"
       id="path18620" />
    <path
       style="fill:none;stroke:#aa9e95;stroke-width:0.264583px;stroke-linecap:round;stroke-linejoin:miter;stroke-opacity:1"
       d="M 260.16798,31.11829 H 220.60163"
       id="path18622" />
    <path
       style="fill:none;stroke:#aa9e95;stroke-width:0.264583;stroke-linecap:round;stroke-linejoin:round;stroke-miterlimit:4;stroke-dasharray:1.05833, 0.529166;stroke-dashoffset:0;stroke-opacity:1"
       d="m 220.60163,31.11829 c 2.20477,0 3.72401,3.704427 3.78384,7.374903 0.0587,3.603808 -1.8041,7.174888 -3.85234,7.174888"
       id="path18628"
       sodipodi:nodetypes="csc" />
    <path
       style="fill:none;stroke:#000000;stroke-width:0.264583px;stroke-linecap:round;stroke-linejoin:miter;stroke-opacity:1"
       d="m 213.29974,38.477324 h 59.30043"
       id="path18632" />
    <path
       style="fill:#aa9e95;stroke:none;stroke-width:0.264583px;stroke-linecap:butt;stroke-linejoin:miter;stroke-opacity:1;opacity:0.75"
       d="m 260.23648,45.668081 h -39.56635 c -2.10692,0 -3.94038,-3.736861 -3.84798,-7.205959 0.0964,-3.619055 1.49743,-7.277032 3.77948,-7.343832 h 39.56635 l 0.0685,14.549791"
       id="path1608"
       sodipodi:nodetypes="ccscc" />
    <ellipse
       style="opacity:1;fill:#ffffff;fill-opacity:1;stroke:none;stroke-width:0.264583;stroke-linecap:butt;stroke-linejoin:round;stroke-miterlimit:4;stroke-dasharray:none;stroke-dashoffset:0"
       id="ellipse1610"
       cx="260.27896"
       cy="38.392616"
       rx="3.8811848"
       ry="7.2746854" />
    <path
       style="fill:none;stroke:#aa9e95;stroke-width:0.264583px;stroke-linecap:round;stroke-linejoin:round;stroke-opacity:1"
       d="m 220.60163,31.11829 c -2.20477,0 -3.72401,3.704427 -3.78384,7.374903 -0.0587,3.603808 1.8041,7.174888 3.85234,7.174888"
       id="path18626"
       sodipodi:nodetypes="csc" />
    <path
       style="fill:none;stroke:#000000;stroke-width:0.529167;stroke-linecap:butt;stroke-linejoin:miter;stroke-miterlimit:4;stroke-dasharray:none;stroke-opacity:1;marker-end:url(#marker13050)"
       d="m 244.11371,50.970192 h -5.34502"
       id="path13014"
       sodipodi:nodetypes="cc" />
    <g
       transform="matrix(0.423334,0,0,0.423334,239.85412,46.761849)"
       ns2:version="1.1.0"
       ns2:texconverter="pdflatex"
       ns2:pdfconverter="inkscape"
       ns2:text="$\\vec{\\mathcal{E}}$\n\n\n\n"
       ns2:preamble="C:\\Users\\flvisa\\Desktop\\lna\\latexify_books\\textext_preamble.tex"
       ns2:scale="1.199999858267946"
       ns2:alignment="middle center"
       ns2:inkscapeversion="1.0.1"
       ns2:jacobian_sqrt="0.423334"
       id="g13036">
      <defs
         id="defs13026">
        <g
           id="g13024">
          <symbol
             overflow="visible"
             id="symbol13018">
            <path
               style="stroke:none"
               d=""
               id="path13016" />
          </symbol>
          <symbol
             overflow="visible"
             id="symbol13022">
            <path
               style="stroke:none"
               d="M 2.078125,-6.8125 C 1.71875,-6.953125 1.390625,-6.96875 1,-6.96875 c -1.3125,0 -1.9375,0.671875 -1.703125,1.46875 0.265625,0.890625 1.390625,1.453125 2.875,1.53125 C 2.1875,-3.921875 2.25,-3.859375 2.28125,-3.8125 l 0.015625,0.03125 C 0.875,-3.40625 0.28125,-2.5625 0.578125,-1.5625 0.921875,-0.390625 2.25,0.203125 3.53125,0.203125 c 0.78125,0 1.65625,-0.25 2.078125,-0.828125 C 5.828125,-0.90625 5.953125,-1.28125 5.8125,-1.71875 5.59375,-2.453125 5,-2.875 4.015625,-2.875 2.875,-2.875 2.375,-2.296875 2.484375,-1.15625 L 3,-1.0625 c -0.015625,-0.90625 0.328125,-1.265625 0.90625,-1.265625 0.25,0 0.65625,0.203125 0.78125,0.640625 0.25,0.828125 -0.390625,1.34375 -1.265625,1.34375 -0.703125,0 -1.265625,-0.40625 -1.453125,-1 -0.25,-0.84375 0.125,-1.625 0.984375,-1.953125 C 3.125,-3.234375 3.375,-3.15625 3.625,-3.15625 c 0.484375,0 0.65625,-0.1875 0.609375,-0.40625 C 4.15625,-3.78125 3.828125,-3.875 3.3125,-3.9375 V -3.96875 C 5.21875,-4.171875 6.3125,-5.25 6.078125,-6.046875 5.90625,-6.59375 5.40625,-6.84375 4.53125,-6.84375 c -1.328125,0 -2.734375,1.046875 -2.5625,2.328125 -0.828125,-0.0625 -1.5625,-0.296875 -1.765625,-0.953125 -0.15625,-0.578125 0.265625,-0.953125 1.09375,-0.953125 0.3125,0 0.5,0.015625 0.78125,0.09375 z M 3.1875,-4.53125 c -0.015625,-0.875 0.6875,-1.765625 1.453125,-1.765625 0.296875,0 0.46875,0.078125 0.546875,0.3125 0.171875,0.59375 -0.671875,1.28125 -1.984375,1.46875 z m 0,0"
               id="path13020" />
          </symbol>
        </g>
      </defs>
      <g
         id="g13034"
         transform="translate(-149.006,-127.796)">
        <g
           style="fill:#000000;fill-opacity:1"
           id="g13032">
          <g
             transform="translate(149.758,134.765)"
             id="g13030">
            <path
               style="stroke:none"
               d="M 2.078125,-6.8125 C 1.71875,-6.953125 1.390625,-6.96875 1,-6.96875 c -1.3125,0 -1.9375,0.671875 -1.703125,1.46875 0.265625,0.890625 1.390625,1.453125 2.875,1.53125 C 2.1875,-3.921875 2.25,-3.859375 2.28125,-3.8125 l 0.015625,0.03125 C 0.875,-3.40625 0.28125,-2.5625 0.578125,-1.5625 0.921875,-0.390625 2.25,0.203125 3.53125,0.203125 c 0.78125,0 1.65625,-0.25 2.078125,-0.828125 C 5.828125,-0.90625 5.953125,-1.28125 5.8125,-1.71875 5.59375,-2.453125 5,-2.875 4.015625,-2.875 2.875,-2.875 2.375,-2.296875 2.484375,-1.15625 L 3,-1.0625 c -0.015625,-0.90625 0.328125,-1.265625 0.90625,-1.265625 0.25,0 0.65625,0.203125 0.78125,0.640625 0.25,0.828125 -0.390625,1.34375 -1.265625,1.34375 -0.703125,0 -1.265625,-0.40625 -1.453125,-1 -0.25,-0.84375 0.125,-1.625 0.984375,-1.953125 C 3.125,-3.234375 3.375,-3.15625 3.625,-3.15625 c 0.484375,0 0.65625,-0.1875 0.609375,-0.40625 C 4.15625,-3.78125 3.828125,-3.875 3.3125,-3.9375 V -3.96875 C 5.21875,-4.171875 6.3125,-5.25 6.078125,-6.046875 5.90625,-6.59375 5.40625,-6.84375 4.53125,-6.84375 c -1.328125,0 -2.734375,1.046875 -2.5625,2.328125 -0.828125,-0.0625 -1.5625,-0.296875 -1.765625,-0.953125 -0.15625,-0.578125 0.265625,-0.953125 1.09375,-0.953125 0.3125,0 0.5,0.015625 0.78125,0.09375 z M 3.1875,-4.53125 c -0.015625,-0.875 0.6875,-1.765625 1.453125,-1.765625 0.296875,0 0.46875,0.078125 0.546875,0.3125 0.171875,0.59375 -0.671875,1.28125 -1.984375,1.46875 z m 0,0"
               id="path13028" />
          </g>
        </g>
      </g>
    </g>
    <ellipse
       style="opacity:0.5;fill:#aa9e95;fill-opacity:1;stroke:none;stroke-width:0.264583;stroke-linecap:butt;stroke-linejoin:round;stroke-miterlimit:4;stroke-dasharray:none;stroke-dashoffset:0"
       id="ellipse18624"
       cx="260.27896"
       cy="38.392616"
       rx="3.8811848"
       ry="7.2746854" />
    <g
       transform="matrix(0.42333399,0,0,0.42333399,266.51084,34.63939)"
       ns2:version="1.1.0"
       ns2:texconverter="pdflatex"
       ns2:pdfconverter="inkscape"
       ns2:text="$\\ab{\\vec{v}}{d}$\n\n\n\n\n"
       ns2:preamble="C:\\Users\\flvisa\\Desktop\\lna\\latexify_books\\textext_preamble.tex"
       ns2:scale="1.199999858267946"
       ns2:alignment="middle center"
       ns2:inkscapeversion="1.0.1"
       ns2:jacobian_sqrt="0.423334"
       style="fill:#506a68;stroke-width:0"
       id="g16913">
      <defs
         id="id-66db36a2-5dd9-4479-9b3c-30ea73acdf8c">
        <g
           id="g18744"
           style="fill:#9e7867;stroke-width:0">
          <symbol
             overflow="visible"
             id="symbol18730"
             style="fill:#9e7867;stroke-width:0">
            <path
               style="fill:#9e7867;stroke:none;stroke-width:0"
               d=""
               id="path18728" />
          </symbol>
          <symbol
             overflow="visible"
             id="symbol18734"
             style="fill:#9e7867;stroke-width:0">
            <path
               style="fill:#9e7867;stroke:none;stroke-width:0"
               d="m 1.453125,0.0625 c 1.796875,0 3.3125,-2.140625 3.3125,-3.734375 C 4.765625,-4.0625 4.546875,-4.5 4.09375,-4.5 c -0.296875,0 -0.703125,0.34375 -0.78125,0.578125 0.15625,0.15625 0.25,0.390625 0.25,0.59375 0,0.21875 -0.015625,0.546875 -0.109375,0.890625 -0.140625,0.546875 -0.34375,1.703125 -1.171875,1.703125 -0.3125,0 -0.53125,-0.109375 -0.53125,-0.3125 0,-0.5625 0.515625,-2.484375 0.515625,-2.921875 0,-0.28125 -0.234375,-0.53125 -0.5,-0.53125 -0.609375,0 -1.5,0.875 -1.640625,1.09375 0,0.0625 0.078125,0.171875 0.109375,0.171875 0.03125,-0.03125 0.421875,-0.53125 0.6875,-0.53125 0.140625,0 0.140625,0.171875 0.140625,0.25 l -0.421875,2.0625 C 0.5625,-1.09375 0.46875,-0.71875 0.46875,-0.53125 c 0,0.484375 0.515625,0.59375 0.984375,0.59375 z m 0,0"
               id="path18732" />
          </symbol>
          <symbol
             overflow="visible"
             id="symbol18738"
             style="fill:#9e7867;stroke-width:0">
            <path
               style="fill:#9e7867;stroke:none;stroke-width:0"
               d="m 0.359375,0 h 2.90625 V -3.515625 H 0.359375 Z M 0.71875,-0.359375 v -2.78125 h 2.1875 v 2.78125 z m 0,0"
               id="path18736" />
          </symbol>
          <symbol
             overflow="visible"
             id="symbol18742"
             style="fill:#9e7867;stroke-width:0">
            <path
               style="fill:#9e7867;stroke:none;stroke-width:0"
               d="m 2,-3.1875 c -0.65625,0 -1.71875,0.734375 -1.71875,1.6875 0,0.890625 0.609375,1.5625 1.28125,1.5625 0.34375,0 0.84375,-0.3125 0.953125,-0.4375 0.015625,-0.015625 0.015625,0.015625 0.015625,0.046875 v 0.25 c 0,0.046875 0.015625,0.140625 0.0625,0.140625 0,0 0.5625,-0.1875 0.9375,-0.203125 0.03125,0 0.046875,-0.09375 0.046875,-0.109375 0,-0.015625 0,-0.078125 -0.015625,-0.078125 -0.03125,-0.015625 -0.359375,0 -0.4375,-0.125 C 3.09375,-0.5625 3.078125,-0.875 3.078125,-1.15625 v -3.046875 c 0,-0.390625 0.09375,-0.609375 0.09375,-0.609375 0,-0.046875 -0.0625,-0.109375 -0.09375,-0.109375 -0.296875,0.125 -0.65625,0.234375 -1.015625,0.265625 -0.03125,0 -0.015625,0.1875 0,0.1875 0.1875,0 0.390625,0.015625 0.4375,0.125 0.03125,0.078125 0.03125,0.25 0.03125,0.34375 v 0.75 c 0,0.078125 0,0.140625 -0.03125,0.140625 C 2.421875,-3.140625 2.15625,-3.1875 2,-3.1875 Z m -0.234375,0.296875 c 0.40625,0 0.765625,0.203125 0.765625,0.359375 v 1.859375 c 0,0.109375 -0.296875,0.28125 -0.625,0.28125 -0.65625,0 -1.03125,-0.59375 -1.03125,-1.28125 0,-0.609375 0.34375,-1.21875 0.890625,-1.21875 z m 0,0"
               id="path18740" />
          </symbol>
        </g>
      </defs>
      <g
         id="id-fb31cc55-b3fd-453d-baab-0d39c7088f33"
         transform="translate(-148.638,-130.265)"
         style="fill:#506a68;stroke-width:0">
        <g
           style="fill:#506a68;fill-opacity:1;stroke-width:0"
           id="id-64188d70-4728-4ca6-9cc1-332dea56ba50">
          <g
             transform="translate(148.513,134.765)"
             style="fill:#506a68;stroke-width:0"
             id="g16905">
            <path
               style="fill:#506a68;stroke:none;stroke-width:0"
               d="m 1.453125,0.0625 c 1.796875,0 3.3125,-2.140625 3.3125,-3.734375 C 4.765625,-4.0625 4.546875,-4.5 4.09375,-4.5 c -0.296875,0 -0.703125,0.34375 -0.78125,0.578125 0.15625,0.15625 0.25,0.390625 0.25,0.59375 0,0.21875 -0.015625,0.546875 -0.109375,0.890625 -0.140625,0.546875 -0.34375,1.703125 -1.171875,1.703125 -0.3125,0 -0.53125,-0.109375 -0.53125,-0.3125 0,-0.5625 0.515625,-2.484375 0.515625,-2.921875 0,-0.28125 -0.234375,-0.53125 -0.5,-0.53125 -0.609375,0 -1.5,0.875 -1.640625,1.09375 0,0.0625 0.078125,0.171875 0.109375,0.171875 0.03125,-0.03125 0.421875,-0.53125 0.6875,-0.53125 0.140625,0 0.140625,0.171875 0.140625,0.25 l -0.421875,2.0625 C 0.5625,-1.09375 0.46875,-0.71875 0.46875,-0.53125 c 0,0.484375 0.515625,0.59375 0.984375,0.59375 z m 0,0"
               id="id-946fd24b-0746-4518-bab7-c777afcb0a86" />
          </g>
        </g>
        <g
           style="fill:#506a68;fill-opacity:1;stroke-width:0"
           id="id-843e05e4-1b2d-4c14-be89-94b2f63e065a">
          <g
             transform="translate(153.579,136.283)"
             style="fill:#506a68;stroke-width:0"
             id="g16909">
            <path
               style="fill:#506a68;stroke:none;stroke-width:0"
               d="m 2,-3.1875 c -0.65625,0 -1.71875,0.734375 -1.71875,1.6875 0,0.890625 0.609375,1.5625 1.28125,1.5625 0.34375,0 0.84375,-0.3125 0.953125,-0.4375 0.015625,-0.015625 0.015625,0.015625 0.015625,0.046875 v 0.25 c 0,0.046875 0.015625,0.140625 0.0625,0.140625 0,0 0.5625,-0.1875 0.9375,-0.203125 0.03125,0 0.046875,-0.09375 0.046875,-0.109375 0,-0.015625 0,-0.078125 -0.015625,-0.078125 -0.03125,-0.015625 -0.359375,0 -0.4375,-0.125 C 3.09375,-0.5625 3.078125,-0.875 3.078125,-1.15625 v -3.046875 c 0,-0.390625 0.09375,-0.609375 0.09375,-0.609375 0,-0.046875 -0.0625,-0.109375 -0.09375,-0.109375 -0.296875,0.125 -0.65625,0.234375 -1.015625,0.265625 -0.03125,0 -0.015625,0.1875 0,0.1875 0.1875,0 0.390625,0.015625 0.4375,0.125 0.03125,0.078125 0.03125,0.25 0.03125,0.34375 v 0.75 c 0,0.078125 0,0.140625 -0.03125,0.140625 C 2.421875,-3.140625 2.15625,-3.1875 2,-3.1875 Z m -0.234375,0.296875 c 0.40625,0 0.765625,0.203125 0.765625,0.359375 v 1.859375 c 0,0.109375 -0.296875,0.28125 -0.625,0.28125 -0.65625,0 -1.03125,-0.59375 -1.03125,-1.28125 0,-0.609375 0.34375,-1.21875 0.890625,-1.21875 z m 0,0"
               id="id-93462450-130c-4b06-add7-4ca4332d9b10" />
          </g>
        </g>
      </g>
    </g>
    <path
       style="fill:none;stroke:#000000;stroke-width:0.264583px;stroke-linecap:butt;stroke-linejoin:miter;stroke-opacity:1;marker-start:url(#Arrow1Mstart);marker-end:url(#marker13100)"
       d="m 221.4179,26.941829 h 38.12964"
       id="path18973"
       sodipodi:nodetypes="cc" />
    <g
       transform="matrix(0.423334,0,0,0.423334,240.24483,23.0908)"
       ns2:version="1.1.0"
       ns2:texconverter="pdflatex"
       ns2:pdfconverter="inkscape"
       ns2:text="$\\ab{v}{d}$\n\n\n\n\n\n"
       ns2:preamble="C:\\Users\\flvisa\\Desktop\\lna\\latexify_books\\textext_preamble.tex"
       ns2:scale="1.1999998299215373"
       ns2:alignment="middle center"
       ns2:inkscapeversion="1.0.1"
       ns2:jacobian_sqrt="0.423334"
       style="fill:#000000;stroke-width:0"
       id="g19293">
      <defs
         id="id-385e7fd8-21bc-4680-9913-f4a5b676c4c4">
        <g
           id="id-8001ce24-af1e-480e-bbc5-1072842d3db7"
           style="fill:#506a68;stroke-width:0">
          <symbol
             overflow="visible"
             id="id-ee482d8a-5d19-4b15-a356-afaee22ae701"
             style="fill:#506a68;stroke-width:0">
            <path
               style="fill:#506a68;stroke:none;stroke-width:0"
               d=""
               id="id-70dcd76a-9ac6-4ff4-ad4d-d09817c316d2" />
          </symbol>
          <symbol
             overflow="visible"
             id="id-c5aaccc9-8e75-4f66-932a-b3443b073f7b"
             style="fill:#506a68;stroke-width:0">
            <path
               style="fill:#506a68;stroke:none;stroke-width:0"
               d="m 1.375,0.0625 c 1.234375,0 2.8125,-2.09375 2.8125,-3.640625 0,-0.375 -0.1875,-0.8125 -0.5625,-0.8125 -0.234375,0 -0.40625,0.21875 -0.46875,0.390625 0.171875,0.171875 0.28125,0.421875 0.28125,0.640625 0,0.234375 -0.015625,0.578125 -0.09375,0.953125 -0.140625,0.578125 -0.65625,1.859375 -1.484375,1.859375 -0.21875,0 -0.546875,-0.015625 -0.546875,-0.234375 0,-0.59375 0.515625,-2.609375 0.515625,-3.0625 0,-0.296875 -0.15625,-0.546875 -0.375,-0.546875 -0.484375,0 -1.171875,0.765625 -1.28125,0.953125 0,0.0625 0.0625,0.1875 0.09375,0.1875 0.03125,-0.03125 0.484375,-0.59375 0.71875,-0.59375 0.09375,0 0.078125,0.171875 0.078125,0.265625 L 0.65625,-1.5 c -0.09375,0.375 -0.140625,0.765625 -0.140625,0.9375 0,0.5 0.453125,0.625 0.859375,0.625 z m 0,0"
               id="id-feffb6b2-1f71-4bdd-8812-b7934ab42071" />
          </symbol>
          <symbol
             overflow="visible"
             id="id-dafe6b08-ed03-4159-903b-7d129726bf4a"
             style="fill:#506a68;stroke-width:0">
            <path
               style="fill:#506a68;stroke:none;stroke-width:0"
               d="m 0.359375,0 h 2.90625 V -3.515625 H 0.359375 Z M 0.71875,-0.359375 v -2.78125 h 2.1875 v 2.78125 z m 0,0"
               id="id-362b6232-0700-4262-9f58-d671ffcea767" />
          </symbol>
          <symbol
             overflow="visible"
             id="id-b4356750-c22b-473a-bfae-7f88fc139117"
             style="fill:#506a68;stroke-width:0">
            <path
               style="fill:#506a68;stroke:none;stroke-width:0"
               d="m 2,-3.1875 c -0.65625,0 -1.71875,0.734375 -1.71875,1.6875 0,0.890625 0.609375,1.5625 1.28125,1.5625 0.34375,0 0.84375,-0.3125 0.953125,-0.4375 0.015625,-0.015625 0.015625,0.015625 0.015625,0.046875 v 0.25 c 0,0.046875 0.015625,0.140625 0.0625,0.140625 0,0 0.5625,-0.1875 0.9375,-0.203125 0.03125,0 0.046875,-0.09375 0.046875,-0.109375 0,-0.015625 0,-0.078125 -0.015625,-0.078125 -0.03125,-0.015625 -0.359375,0 -0.4375,-0.125 C 3.09375,-0.5625 3.078125,-0.875 3.078125,-1.15625 v -3.046875 c 0,-0.390625 0.09375,-0.609375 0.09375,-0.609375 0,-0.046875 -0.0625,-0.109375 -0.09375,-0.109375 -0.296875,0.125 -0.65625,0.234375 -1.015625,0.265625 -0.03125,0 -0.015625,0.1875 0,0.1875 0.1875,0 0.390625,0.015625 0.4375,0.125 0.03125,0.078125 0.03125,0.25 0.03125,0.34375 v 0.75 c 0,0.078125 0,0.140625 -0.03125,0.140625 C 2.421875,-3.140625 2.15625,-3.1875 2,-3.1875 Z m -0.234375,0.296875 c 0.40625,0 0.765625,0.203125 0.765625,0.359375 v 1.859375 c 0,0.109375 -0.296875,0.28125 -0.625,0.28125 -0.65625,0 -1.03125,-0.59375 -1.03125,-1.28125 0,-0.609375 0.34375,-1.21875 0.890625,-1.21875 z m 0,0"
               id="id-aaac66eb-b67d-46dd-8ef3-dfea8f5535cf" />
          </symbol>
        </g>
      </defs>
      <g
         id="id-cbb4ee7b-954e-49f9-afd5-ff5523c010dd"
         transform="translate(-149.084,-130.374)"
         style="fill:#000000;stroke-width:0">
        <g
           style="fill:#000000;fill-opacity:1;stroke-width:0"
           id="id-0648d234-88d0-42e2-8db5-c3d76a961fa8">
          <g
             transform="translate(148.912,134.765)"
             style="fill:#000000;stroke-width:0"
             id="g19285">
            <path
               style="fill:#000000;stroke:none;stroke-width:0"
               d="m 1.375,0.0625 c 1.234375,0 2.8125,-2.09375 2.8125,-3.640625 0,-0.375 -0.1875,-0.8125 -0.5625,-0.8125 -0.234375,0 -0.40625,0.21875 -0.46875,0.390625 0.171875,0.171875 0.28125,0.421875 0.28125,0.640625 0,0.234375 -0.015625,0.578125 -0.09375,0.953125 -0.140625,0.578125 -0.65625,1.859375 -1.484375,1.859375 -0.21875,0 -0.546875,-0.015625 -0.546875,-0.234375 0,-0.59375 0.515625,-2.609375 0.515625,-3.0625 0,-0.296875 -0.15625,-0.546875 -0.375,-0.546875 -0.484375,0 -1.171875,0.765625 -1.28125,0.953125 0,0.0625 0.0625,0.1875 0.09375,0.1875 0.03125,-0.03125 0.484375,-0.59375 0.71875,-0.59375 0.09375,0 0.078125,0.171875 0.078125,0.265625 L 0.65625,-1.5 c -0.09375,0.375 -0.140625,0.765625 -0.140625,0.9375 0,0.5 0.453125,0.625 0.859375,0.625 z m 0,0"
               id="id-373b704f-3608-453a-b528-b7a1207d8afd" />
          </g>
        </g>
        <g
           style="fill:#000000;fill-opacity:1;stroke-width:0"
           id="id-a5287c2e-6ee5-48d4-8d65-ab9864bdf077">
          <g
             transform="translate(152.927,136.283)"
             style="fill:#000000;stroke-width:0"
             id="g19289">
            <path
               style="fill:#000000;stroke:none;stroke-width:0"
               d="m 2,-3.1875 c -0.65625,0 -1.71875,0.734375 -1.71875,1.6875 0,0.890625 0.609375,1.5625 1.28125,1.5625 0.34375,0 0.84375,-0.3125 0.953125,-0.4375 0.015625,-0.015625 0.015625,0.015625 0.015625,0.046875 v 0.25 c 0,0.046875 0.015625,0.140625 0.0625,0.140625 0,0 0.5625,-0.1875 0.9375,-0.203125 0.03125,0 0.046875,-0.09375 0.046875,-0.109375 0,-0.015625 0,-0.078125 -0.015625,-0.078125 -0.03125,-0.015625 -0.359375,0 -0.4375,-0.125 C 3.09375,-0.5625 3.078125,-0.875 3.078125,-1.15625 v -3.046875 c 0,-0.390625 0.09375,-0.609375 0.09375,-0.609375 0,-0.046875 -0.0625,-0.109375 -0.09375,-0.109375 -0.296875,0.125 -0.65625,0.234375 -1.015625,0.265625 -0.03125,0 -0.015625,0.1875 0,0.1875 0.1875,0 0.390625,0.015625 0.4375,0.125 0.03125,0.078125 0.03125,0.25 0.03125,0.34375 v 0.75 c 0,0.078125 0,0.140625 -0.03125,0.140625 C 2.421875,-3.140625 2.15625,-3.1875 2,-3.1875 Z m -0.234375,0.296875 c 0.40625,0 0.765625,0.203125 0.765625,0.359375 v 1.859375 c 0,0.109375 -0.296875,0.28125 -0.625,0.28125 -0.65625,0 -1.03125,-0.59375 -1.03125,-1.28125 0,-0.609375 0.34375,-1.21875 0.890625,-1.21875 z m 0,0"
               id="id-3852c93e-fa26-4b1f-81be-034ea2707efe" />
          </g>
        </g>
      </g>
    </g>
    <ellipse
       style="fill:none;fill-opacity:1;stroke:#aa9e95;stroke-width:0.264583;stroke-linecap:butt;stroke-linejoin:round;stroke-miterlimit:4;stroke-dasharray:none;stroke-dashoffset:0"
       id="path18618"
       cx="260.27896"
       cy="38.392616"
       rx="3.8811848"
       ry="7.2746854" />
    <path
       style="fill:none;stroke:#506a68;stroke-width:0.529167;stroke-linecap:butt;stroke-linejoin:miter;stroke-miterlimit:4;stroke-dasharray:none;stroke-opacity:1;marker-end:url(#marker14966-3)"
       d="m 260.41449,38.474579 h 11.36607"
       id="path14962"
       sodipodi:nodetypes="cc" />
    <circle
       r="0.83473128"
       cy="38.52747"
       cx="260.35733"
       id="circle18630"
       style="opacity:1;fill:#000000;stroke:#000000;stroke-width:0.330537;stroke-linejoin:round;stroke-miterlimit:4;stroke-dasharray:none" />
    <path
       style="fill:none;stroke:#000000;stroke-width:0.264583px;stroke-linecap:round;stroke-linejoin:miter;stroke-opacity:1"
       d="M 260.35789,49.447843 V 24.957453"
       id="path18636"
       sodipodi:nodetypes="cc" />
  </g>
</svg>
