<?xml version="1.0" encoding="UTF-8" standalone="no"?>
<svg
   xmlns:ns2="http://www.iki.fi/pav/software/textext/"
   xmlns:dc="http://purl.org/dc/elements/1.1/"
   xmlns:cc="http://creativecommons.org/ns#"
   xmlns:rdf="http://www.w3.org/1999/02/22-rdf-syntax-ns#"
   xmlns:svg="http://www.w3.org/2000/svg"
   xmlns="http://www.w3.org/2000/svg"
   xmlns:sodipodi="http://sodipodi.sourceforge.net/DTD/sodipodi-0.dtd"
   xmlns:inkscape="http://www.inkscape.org/namespaces/inkscape"
   width="42.05405mm"
   height="21.325914mm"
   viewBox="0 0 42.054051 21.325915"
   version="1.1"
   id="svg8"
   inkscape:version="1.0.1 (3bc2e813f5, 2020-09-07)"
   sodipodi:docname="fig_6_2.svg">
  <defs
     id="defs2">
    <marker
       style="overflow:visible"
       id="marker14966"
       refX="0"
       refY="0"
       orient="auto"
       inkscape:stockid="Arrow1Send"
       inkscape:isstock="true">
      <path
         transform="matrix(-0.2,0,0,-0.2,-1.2,0)"
         style="fill:#506a68;fill-opacity:1;fill-rule:evenodd;stroke:#506a68;stroke-width:1pt;stroke-opacity:1"
         d="M 0,0 5,-5 -12.5,0 5,5 Z"
         id="path14964" />
    </marker>
    <marker
       style="overflow:visible"
       id="marker14786"
       refX="0"
       refY="0"
       orient="auto"
       inkscape:stockid="Arrow1Send"
       inkscape:isstock="true">
      <path
         transform="matrix(-0.2,0,0,-0.2,-1.2,0)"
         style="fill:#b0947a;fill-opacity:1;fill-rule:evenodd;stroke:#b0947a;stroke-width:1pt;stroke-opacity:1"
         d="M 0,0 5,-5 -12.5,0 5,5 Z"
         id="path14784" />
    </marker>
    <marker
       style="overflow:visible"
       id="marker14674"
       refX="0"
       refY="0"
       orient="auto"
       inkscape:stockid="Arrow1Send"
       inkscape:isstock="true"
       inkscape:collect="always">
      <path
         transform="matrix(-0.2,0,0,-0.2,-1.2,0)"
         style="fill:#806149;fill-opacity:1;fill-rule:evenodd;stroke:#806149;stroke-width:1pt;stroke-opacity:1"
         d="M 0,0 5,-5 -12.5,0 5,5 Z"
         id="path14672" />
    </marker>
    <marker
       style="overflow:visible"
       id="marker13100"
       refX="0"
       refY="0"
       orient="auto"
       inkscape:stockid="Arrow1Mend"
       inkscape:isstock="true">
      <path
         transform="matrix(-0.4,0,0,-0.4,-4,0)"
         style="fill:#000000;fill-opacity:1;fill-rule:evenodd;stroke:#000000;stroke-width:1pt;stroke-opacity:1"
         d="M 0,0 5,-5 -12.5,0 5,5 Z"
         id="path13098" />
    </marker>
    <marker
       style="overflow:visible"
       id="marker13090"
       refX="0"
       refY="0"
       orient="auto"
       inkscape:stockid="Arrow1Mend"
       inkscape:isstock="true">
      <path
         transform="matrix(-0.4,0,0,-0.4,-4,0)"
         style="fill:#000000;fill-opacity:1;fill-rule:evenodd;stroke:#000000;stroke-width:1pt;stroke-opacity:1"
         d="M 0,0 5,-5 -12.5,0 5,5 Z"
         id="path13088" />
    </marker>
    <marker
       style="overflow:visible"
       id="marker13080"
       refX="0"
       refY="0"
       orient="auto"
       inkscape:stockid="Arrow1Mend"
       inkscape:isstock="true">
      <path
         transform="matrix(-0.4,0,0,-0.4,-4,0)"
         style="fill:#000000;fill-opacity:1;fill-rule:evenodd;stroke:#000000;stroke-width:1pt;stroke-opacity:1"
         d="M 0,0 5,-5 -12.5,0 5,5 Z"
         id="path13078" />
    </marker>
    <marker
       style="overflow:visible"
       id="marker13070"
       refX="0"
       refY="0"
       orient="auto"
       inkscape:stockid="Arrow1Mend"
       inkscape:isstock="true">
      <path
         transform="matrix(-0.4,0,0,-0.4,-4,0)"
         style="fill:#000000;fill-opacity:1;fill-rule:evenodd;stroke:#000000;stroke-width:1pt;stroke-opacity:1"
         d="M 0,0 5,-5 -12.5,0 5,5 Z"
         id="path13068" />
    </marker>
    <marker
       style="overflow:visible"
       id="marker13060"
       refX="0"
       refY="0"
       orient="auto"
       inkscape:stockid="Arrow1Send"
       inkscape:isstock="true">
      <path
         transform="matrix(-0.2,0,0,-0.2,-1.2,0)"
         style="fill:#000000;fill-opacity:1;fill-rule:evenodd;stroke:#000000;stroke-width:1pt;stroke-opacity:1"
         d="M 0,0 5,-5 -12.5,0 5,5 Z"
         id="path13058" />
    </marker>
    <marker
       style="overflow:visible"
       id="marker13050"
       refX="0"
       refY="0"
       orient="auto"
       inkscape:stockid="Arrow1Send"
       inkscape:isstock="true"
       inkscape:collect="always">
      <path
         transform="matrix(-0.2,0,0,-0.2,-1.2,0)"
         style="fill:#000000;fill-opacity:1;fill-rule:evenodd;stroke:#000000;stroke-width:1pt;stroke-opacity:1"
         d="M 0,0 5,-5 -12.5,0 5,5 Z"
         id="path13048" />
    </marker>
    <marker
       style="overflow:visible"
       id="marker13040"
       refX="0"
       refY="0"
       orient="auto"
       inkscape:stockid="Arrow1Sstart"
       inkscape:isstock="true">
      <path
         transform="matrix(0.2,0,0,0.2,1.2,0)"
         style="fill:#000000;fill-opacity:1;fill-rule:evenodd;stroke:#000000;stroke-width:1pt;stroke-opacity:1"
         d="M 0,0 5,-5 -12.5,0 5,5 Z"
         id="path13038" />
    </marker>
    <marker
       style="overflow:visible"
       id="Arrow2Mstart"
       refX="0"
       refY="0"
       orient="auto"
       inkscape:stockid="Arrow2Mstart"
       inkscape:isstock="true">
      <path
         transform="scale(0.6)"
         d="M 8.7185878,4.0337352 -2.2072895,0.01601326 8.7185884,-4.0017078 c -1.7454984,2.3720609 -1.7354408,5.6174519 -6e-7,8.035443 z"
         style="fill:#000000;fill-opacity:1;fill-rule:evenodd;stroke:#000000;stroke-width:0.625;stroke-linejoin:round;stroke-opacity:1"
         id="path7959" />
    </marker>
    <marker
       style="overflow:visible"
       id="Arrow1Lstart"
       refX="0"
       refY="0"
       orient="auto"
       inkscape:stockid="Arrow1Lstart"
       inkscape:isstock="true">
      <path
         transform="matrix(0.8,0,0,0.8,10,0)"
         style="fill:#000000;fill-opacity:1;fill-rule:evenodd;stroke:#000000;stroke-width:1pt;stroke-opacity:1"
         d="M 0,0 5,-5 -12.5,0 5,5 Z"
         id="path7935" />
    </marker>
    <pattern
       id="EMFhbasepattern"
       patternUnits="userSpaceOnUse"
       width="6"
       height="6"
       x="0"
       y="0" />
    <g
       id="g1366">
      <symbol
         overflow="visible"
         id="symbol1352">
        <path
           style="stroke:none"
           d="M 0.5,0 H 4.484375 V -4.8125 H 0.5 Z M 1,-0.5 V -4.3125 H 3.984375 V -0.5 Z m 0,0"
           id="path1350" />
      </symbol>
      <symbol
         overflow="visible"
         id="symbol1356">
        <path
           style="stroke:none"
           d="M 1.0625,-2.765625 C 1.0625,-4.3125 1.578125,-6 2.5,-6.8125 c 0,0 -0.125,-0.140625 -0.203125,-0.1875 -1.125,0.90625 -1.9375,2.328125 -1.9375,4.234375 0,1.875 0.8125,3.328125 1.9375,4.21875 C 2.375,1.421875 2.5,1.265625 2.5,1.265625 1.578125,0.453125 1.0625,-1.25 1.0625,-2.765625 Z m 0,0"
           id="path1354" />
      </symbol>
      <symbol
         overflow="visible"
         id="symbol1360">
        <path
           style="stroke:none"
           d="m 1.84375,-0.453125 c -0.375,0 -0.671875,-0.328125 -0.671875,-0.6875 0,-0.390625 0.25,-0.640625 0.609375,-0.78125 C 1.96875,-2 2.453125,-2.140625 2.71875,-2.21875 v 1.359375 c 0,0.109375 -0.53125,0.40625 -0.875,0.40625 z M 2.375,-4.34375 c -0.71875,0 -1.484375,0.53125 -1.78125,0.8125 -0.046875,0.046875 -0.078125,0.203125 -0.078125,0.234375 0,0.21875 0.125,0.421875 0.328125,0.421875 0.25,0 0.40625,-0.140625 0.46875,-0.46875 0.0625,-0.390625 0.1875,-0.640625 0.546875,-0.640625 0.484375,0 0.859375,0.515625 0.859375,0.96875 V -2.75 c 0,0.171875 -0.03125,0.21875 -0.125,0.25 -0.28125,0.140625 -1.171875,0.421875 -1.71875,0.625 -0.234375,0.078125 -0.5,0.40625 -0.5,0.8125 0,0.640625 0.5,1.140625 1.140625,1.140625 0.34375,0 1.109375,-0.53125 1.21875,-0.65625 C 2.796875,-0.28125 3.0625,0.0625 3.34375,0.0625 c 0.203125,0 0.609375,-0.265625 0.734375,-0.375 C 4.109375,-0.359375 4.125,-0.4375 4.125,-0.5 c 0,-0.03125 -0.015625,-0.078125 -0.03125,-0.078125 -0.03125,0.015625 -0.15625,0.125 -0.328125,0.125 -0.234375,0 -0.3125,-0.203125 -0.3125,-0.46875 V -2.96875 c 0,-0.765625 -0.515625,-1.375 -1.078125,-1.375 z m 0,0"
           id="path1358" />
      </symbol>
      <symbol
         overflow="visible"
         id="symbol1364">
        <path
           style="stroke:none"
           d="M 2.1875,-2.765625 C 2.1875,-4.671875 1.375,-6.09375 0.234375,-7 c -0.0625,0.046875 -0.1875,0.1875 -0.171875,0.1875 0.921875,0.8125 1.40625,2.5 1.40625,4.046875 0,1.515625 -0.484375,3.21875 -1.40625,4.03125 -0.015625,0 0.109375,0.15625 0.171875,0.1875 C 1.375,0.5625 2.1875,-0.890625 2.1875,-2.765625 Z m 0,0"
           id="path1362" />
      </symbol>
    </g>
    <g
       id="g1396">
      <symbol
         overflow="visible"
         id="symbol1382">
        <path
           style="stroke:none"
           d="M 0.5,0 H 4.484375 V -4.8125 H 0.5 Z M 1,-0.5 V -4.3125 H 3.984375 V -0.5 Z m 0,0"
           id="path1380" />
      </symbol>
      <symbol
         overflow="visible"
         id="symbol1386">
        <path
           style="stroke:none"
           d="M 1.0625,-2.765625 C 1.0625,-4.3125 1.578125,-6 2.5,-6.8125 c 0,0 -0.125,-0.140625 -0.203125,-0.1875 -1.125,0.90625 -1.9375,2.328125 -1.9375,4.234375 0,1.875 0.8125,3.328125 1.9375,4.21875 C 2.375,1.421875 2.5,1.265625 2.5,1.265625 1.578125,0.453125 1.0625,-1.25 1.0625,-2.765625 Z m 0,0"
           id="path1384" />
      </symbol>
      <symbol
         overflow="visible"
         id="symbol1390">
        <path
           style="stroke:none"
           d="m 2.09375,0.0625 c 1.40625,0 2.4375,-1.0625 2.4375,-2.328125 0,-0.890625 -0.625,-2 -1.8125,-2 -0.375,0 -1.046875,0.421875 -1.203125,0.53125 C 1.453125,-3.6875 1.46875,-3.78125 1.46875,-3.84375 V -5.75 c 0,-0.546875 0.09375,-0.84375 0.09375,-0.84375 0,-0.078125 -0.046875,-0.171875 -0.09375,-0.171875 C 1.046875,-6.5625 0.5625,-6.421875 0.0625,-6.375 c -0.046875,0.015625 -0.015625,0.265625 -0.015625,0.265625 0.28125,0 0.546875,0.03125 0.609375,0.171875 0.046875,0.109375 0.046875,0.375 0.046875,0.5 v 4.375 c 0,0.1875 -0.015625,0.515625 -0.109375,0.71875 0,0.046875 0.078125,0.203125 0.125,0.203125 0.21875,-0.078125 0.421875,0 0.640625,0.0625 C 1.578125,-0.015625 1.9375,0.0625 2.09375,0.0625 Z M 2.25,-3.6875 c 0.890625,0 1.453125,0.671875 1.453125,1.796875 0,0.796875 -0.609375,1.625 -1.328125,1.625 -0.4375,0 -0.90625,-0.265625 -0.90625,-0.6875 V -3.3125 c 0,-0.0625 0,-0.09375 0.03125,-0.109375 C 1.59375,-3.515625 2,-3.6875 2.25,-3.6875 Z m 0,0"
           id="path1388" />
      </symbol>
      <symbol
         overflow="visible"
         id="symbol1394">
        <path
           style="stroke:none"
           d="M 2.1875,-2.765625 C 2.1875,-4.671875 1.375,-6.09375 0.234375,-7 c -0.0625,0.046875 -0.1875,0.1875 -0.171875,0.1875 0.921875,0.8125 1.40625,2.5 1.40625,4.046875 0,1.515625 -0.484375,3.21875 -1.40625,4.03125 -0.015625,0 0.109375,0.15625 0.171875,0.1875 C 1.375,0.5625 2.1875,-0.890625 2.1875,-2.765625 Z m 0,0"
           id="path1392" />
      </symbol>
    </g>
    <g
       id="g7014">
      <symbol
         id="symbol7008"
         overflow="visible">
        <path
           id="path7006"
           d="M 0.5,0 H 4.484375 V -4.8125 H 0.5 Z M 1,-0.5 V -4.3125 H 3.984375 V -0.5 Z m 0,0"
           style="stroke:none" />
      </symbol>
      <symbol
         id="symbol7012"
         overflow="visible">
        <path
           id="path7010"
           d="m 2.171875,-1.125 c 0,0.28125 -0.015625,0.5625 -0.0625,0.71875 C 2.078125,-0.296875 1.609375,-0.25 1.5,-0.25 c -0.046875,0.046875 -0.046875,0.234375 0,0.28125 0.390625,-0.015625 0.65625,-0.046875 1.03125,-0.046875 0.375,0 0.6875,0.03125 1.09375,0.046875 0.046875,-0.046875 0.03125,-0.234375 0,-0.28125 C 3.5,-0.25 3.015625,-0.296875 2.984375,-0.40625 2.9375,-0.5625 2.9375,-0.84375 2.9375,-1.125 v -4.03125 c 0,-0.59375 0.078125,-0.9375 0.078125,-0.9375 0,-0.046875 -0.03125,-0.15625 -0.09375,-0.15625 H 2.90625 C 2.875,-6.25 2,-5.828125 1.203125,-5.46875 c -0.03125,0.015625 0,0.046875 0,0.0625 0,0.078125 0.03125,0.125 0.078125,0.171875 0.171875,-0.0625 0.546875,-0.203125 0.6875,-0.203125 0.140625,0 0.203125,0.09375 0.203125,0.375 z m 0,0"
           style="stroke:none" />
      </symbol>
    </g>
    <g
       id="g7030">
      <symbol
         id="symbol7024"
         overflow="visible">
        <path
           id="path7022"
           d="M 0.5,0 H 4.484375 V -4.8125 H 0.5 Z M 1,-0.5 V -4.3125 H 3.984375 V -0.5 Z m 0,0"
           style="stroke:none" />
      </symbol>
      <symbol
         id="symbol7028"
         overflow="visible">
        <path
           id="path7026"
           d="M 4.421875,-1.453125 C 4.375,-1.484375 4.25,-1.515625 4.21875,-1.515625 c -0.0625,0 -0.09375,0.015625 -0.109375,0.0625 -0.21875,0.5 -0.4375,0.75 -0.8125,0.75 h -1.9375 c 0.4375,-0.5 1.4375,-1.59375 2.125,-2.453125 C 3.8125,-3.5625 4.03125,-4.0625 4.03125,-4.625 c 0,-0.828125 -0.734375,-1.625 -1.671875,-1.625 -1.03125,0 -1.734375,1.078125 -1.796875,1.3125 0,0.046875 0.109375,0.15625 0.1875,0.15625 0.125,-0.1875 0.609375,-0.828125 1.390625,-0.828125 0.609375,0 1.0625,0.5 1.0625,1.171875 0,0.484375 -0.0625,0.875 -0.46875,1.453125 -0.5625,0.828125 -1.5,1.9375 -2.3125,2.84375 0,0.046875 0.0625,0.125 0.09375,0.140625 h 3.375 c 0.0625,-0.171875 0.328125,-0.984375 0.53125,-1.453125 z m 0,0"
           style="stroke:none" />
      </symbol>
    </g>
    <g
       style="fill:#3a493f;stroke-width:0"
       id="g3367">
      <symbol
         style="fill:#3a493f;stroke-width:0"
         overflow="visible"
         id="symbol3361">
        <path
           style="fill:#3a493f;stroke:none;stroke-width:0"
           d="M 0.5,0 H 4.484375 V -4.8125 H 0.5 Z M 1,-0.5 V -4.3125 H 3.984375 V -0.5 Z m 0,0"
           id="path3359" />
      </symbol>
      <symbol
         style="fill:#3a493f;stroke-width:0"
         overflow="visible"
         id="symbol3365">
        <path
           style="fill:#3a493f;stroke:none;stroke-width:0"
           d="m 2.484375,-5.875 c 0.71875,0 1.203125,1.1875 1.203125,2.71875 0,1.515625 -0.4375,2.828125 -1.3125,2.828125 -0.703125,0 -1.21875,-1.25 -1.21875,-2.78125 0,-1.53125 0.515625,-2.765625 1.328125,-2.765625 z m -0.0625,-0.359375 c -1.34375,0 -2.125,1.421875 -2.125,3.125 0,1.6875 0.796875,3.140625 2.125,3.140625 1.34375,0 2.125,-1.453125 2.125,-3.140625 0,-1.703125 -0.765625,-3.125 -2.125,-3.125 z m 0,0"
           id="path3363" />
      </symbol>
    </g>
    <g
       id="g29372"
       style="fill:#000000;fill-opacity:1;stroke-width:0">
      <symbol
         overflow="visible"
         id="symbol29358"
         style="fill:#000000;fill-opacity:1;stroke-width:0">
        <path
           style="fill:#000000;fill-opacity:1;stroke:none;stroke-width:0"
           d=""
           id="path29356" />
      </symbol>
      <symbol
         overflow="visible"
         id="symbol29362"
         style="fill:#000000;fill-opacity:1;stroke-width:0">
        <path
           style="fill:#000000;fill-opacity:1;stroke:none;stroke-width:0"
           d="m 3.625,-6.09375 c 0.1875,0 0.296875,-0.25 0.3125,-0.46875 v -0.09375 c -0.0625,-0.125 -0.265625,-0.25 -0.546875,-0.25 -0.8125,0 -1.765625,1.078125 -2.078125,2.734375 H 0.828125 c -0.234375,0 -0.46875,0.25 -0.46875,0.34375 0,0.015625 0.015625,0.03125 0.015625,0.03125 h 0.859375 c -0.328125,1.96875 -0.671875,4.03125 -1,6.0625 l 0.046875,0.09375 c 0,0 0.234375,-0.03125 0.359375,-0.109375 0.125,-0.09375 0.203125,-0.21875 0.203125,-0.21875 0.265625,-1.296875 0.984375,-5.078125 1.125,-5.828125 h 1.046875 c 0.0625,-0.078125 0.09375,-0.15625 0.09375,-0.25 0,-0.046875 -0.015625,-0.125 -0.046875,-0.125 H 2.046875 c 0.3125,-1.59375 0.53125,-2.3125 0.90625,-2.3125 0.328125,0 0.375,0.390625 0.671875,0.390625 z m 0,0"
           id="path29360" />
      </symbol>
      <symbol
         overflow="visible"
         id="symbol29366"
         style="fill:#000000;fill-opacity:1;stroke-width:0">
        <path
           style="fill:#000000;fill-opacity:1;stroke:none;stroke-width:0"
           d="m 0.359375,0 h 2.90625 V -3.515625 H 0.359375 Z M 0.71875,-0.359375 v -2.78125 h 2.1875 v 2.78125 z m 0,0"
           id="path29364" />
      </symbol>
      <symbol
         overflow="visible"
         id="symbol29370"
         style="fill:#000000;fill-opacity:1;stroke-width:0">
        <path
           style="fill:#000000;fill-opacity:1;stroke:none;stroke-width:0"
           d="m 1.15625,-4.671875 c -0.28125,0 -0.546875,0 -0.84375,-0.015625 -0.03125,0.03125 -0.015625,0.15625 0,0.203125 0.09375,0 0.46875,0.015625 0.5,0.109375 0.03125,0.109375 0.03125,0.3125 0.03125,0.53125 v 3.015625 c 0,0.21875 0,0.40625 -0.03125,0.53125 -0.03125,0.078125 -0.40625,0.109375 -0.5,0.109375 -0.015625,0.046875 -0.03125,0.171875 0,0.203125 0.28125,0 0.515625,-0.03125 0.84375,-0.03125 0.28125,0 0.609375,0.015625 0.90625,0.03125 0.03125,-0.03125 0.015625,-0.15625 0,-0.203125 -0.09375,0 -0.546875,-0.03125 -0.5625,-0.109375 -0.046875,-0.125 -0.046875,-0.3125 -0.046875,-0.53125 V -2.15625 c 0,-0.0625 0.3125,-0.0625 0.515625,-0.0625 0.265625,0 0.671875,0.015625 0.75,0.0625 0.078125,0.046875 0.09375,0.0625 0.203125,0.46875 0.015625,0.03125 0.0625,0.046875 0.109375,0.046875 0.0625,0 0.109375,-0.015625 0.125,-0.015625 V -3 C 3.125,-3.015625 3.078125,-3.03125 3.03125,-3.03125 c -0.046875,0 -0.109375,0.015625 -0.109375,0.046875 -0.125,0.46875 -0.09375,0.5 -0.78125,0.5 h -0.375 c -0.15625,0 -0.3125,0 -0.3125,-0.03125 V -3.84375 c 0,-0.1875 0,-0.390625 0.046875,-0.515625 0.015625,-0.0625 0.390625,-0.0625 0.484375,-0.0625 H 2.59375 c 0.375,0 0.671875,0.09375 0.828125,0.65625 0,0.03125 0.046875,0.046875 0.09375,0.046875 0.046875,0 0.109375,-0.015625 0.125,-0.03125 C 3.578125,-4.0625 3.5,-4.359375 3.4375,-4.703125 c -0.765625,0 -1.609375,0.03125 -2.28125,0.03125 z m 0,0"
           id="path29368" />
      </symbol>
    </g>
    <defs
       id="id-0225919a-d02a-48ae-ba48-c004d98249e1">
      <g
         id="id-c5c01a56-4c69-4c6a-97e6-bc9348853b78"
         style="fill:#000000;stroke-width:0">
        <symbol
           overflow="visible"
           id="id-7bdb2515-1970-43ed-acdb-25cb660e7191"
           style="fill:#000000;stroke-width:0">
          <path
             style="fill:#000000;stroke:none;stroke-width:0"
             d=""
             id="id-a9a369f8-20af-415d-a164-9442e1cfbc35" />
        </symbol>
        <symbol
           overflow="visible"
           id="id-8a263045-4d7e-48c6-9aef-8e7fba5bf171"
           style="fill:#000000;stroke-width:0">
          <path
             style="fill:#000000;stroke:none;stroke-width:0"
             d="m 6.234375,-6.09375 0.046875,-0.0625 c 0.015625,0 0.015625,-0.03125 0.015625,-0.046875 0,-0.03125 -0.03125,-0.078125 -0.09375,-0.078125 -0.15625,0 -0.359375,0.078125 -0.546875,0.1875 -0.203125,0.125 -0.375,0.296875 -0.5,0.46875 -0.15625,0.21875 -0.25,0.453125 -0.25,0.65625 0,0.046875 0.015625,0.109375 0.03125,0.171875 0.078125,0.25 0.328125,0.375 0.640625,0.375 0.1875,0 0.40625,-0.09375 0.625,-0.234375 C 6.4375,-4.796875 6.625,-5 6.765625,-5.1875 6.984375,-5.5 7.09375,-5.796875 7.09375,-6.078125 c 0,-0.15625 -0.046875,-0.296875 -0.125,-0.4375 C 6.734375,-6.890625 6.25,-7.0625 5.65625,-7.0625 c -0.40625,0 -0.875,0.15625 -1.359375,0.421875 -0.453125,0.265625 -0.875,0.625 -1.15625,1.015625 -0.296875,0.40625 -0.421875,0.796875 -0.421875,1.140625 0,0.140625 0.015625,0.265625 0.0625,0.390625 0.015625,0.046875 0.046875,0.109375 0.09375,0.15625 -0.21875,0.0625 -0.4375,0.15625 -0.65625,0.25 -0.5,0.234375 -0.96875,0.59375 -1.265625,0.984375 -0.34375,0.484375 -0.5,0.96875 -0.5,1.375 0,0.21875 0.03125,0.40625 0.125,0.59375 0.296875,0.5625 0.96875,0.8125 1.796875,0.8125 0.421875,0 0.921875,-0.125 1.421875,-0.375 0.4375,-0.21875 0.859375,-0.546875 1.125,-0.90625 0.15625,-0.25 0.234375,-0.46875 0.234375,-0.65625 C 5.15625,-2.03125 5.109375,-2.1875 5,-2.3125 4.75,-2.640625 4.265625,-2.765625 3.734375,-2.765625 3.0625,-2.765625 2.3125,-1.84375 2.21875,-1.0625 c 0,0.015625 0,0.03125 0,0.046875 0.015625,0.03125 0.03125,0.046875 0.0625,0.046875 H 2.328125 L 2.390625,-1 c 0.03125,0 0.046875,-0.03125 0.046875,-0.0625 0.109375,-0.71875 0.734375,-1.484375 1.25,-1.484375 0.453125,0 0.78125,0.109375 0.921875,0.359375 0.03125,0.046875 0.046875,0.140625 0.046875,0.21875 0,0.171875 -0.078125,0.40625 -0.265625,0.65625 C 4.171875,-1 3.875,-0.6875 3.515625,-0.46875 3.125,-0.234375 2.734375,-0.140625 2.421875,-0.140625 1.71875,-0.140625 1.21875,-0.375 1.078125,-0.84375 1.046875,-0.921875 1.03125,-1.015625 1.03125,-1.109375 c 0,-0.421875 0.234375,-0.9375 0.625,-1.5 0.234375,-0.328125 0.546875,-0.65625 0.9375,-0.90625 0.15625,-0.078125 0.3125,-0.15625 0.46875,-0.21875 0.25,0.203125 0.59375,0.28125 1,0.28125 0.078125,0 0.203125,-0.015625 0.296875,-0.046875 0.0625,-0.015625 0.15625,-0.0625 0.203125,-0.15625 C 4.609375,-3.703125 4.609375,-3.75 4.609375,-3.78125 4.609375,-3.890625 4.5,-3.953125 4.4375,-3.984375 4.265625,-4.0625 4.046875,-4.09375 3.84375,-4.09375 c -0.171875,0 -0.328125,0.015625 -0.515625,0.046875 C 3.3125,-4.09375 3.296875,-4.125 3.296875,-4.171875 3.28125,-4.21875 3.28125,-4.25 3.28125,-4.28125 c 0,-0.34375 0.234375,-0.78125 0.5625,-1.25 0.21875,-0.328125 0.453125,-0.625 0.796875,-0.875 0.328125,-0.21875 0.65625,-0.328125 0.90625,-0.328125 0.546875,0 0.96875,0.109375 1.15625,0.40625 C 6.765625,-6.234375 6.78125,-6.125 6.78125,-6 c 0,0.203125 -0.078125,0.453125 -0.265625,0.71875 C 6.40625,-5.109375 6.25,-4.953125 6.0625,-4.828125 c -0.15625,0.125 -0.328125,0.1875 -0.453125,0.1875 -0.296875,0 -0.453125,-0.125 -0.453125,-0.328125 0,-0.140625 0.09375,-0.34375 0.25,-0.5625 C 5.5,-5.671875 5.625,-5.8125 5.78125,-5.90625 5.921875,-6.015625 6.078125,-6.0625 6.171875,-6.0625 c 0.03125,0 0.0625,-0.015625 0.0625,-0.03125 z m -2.4375,2.21875 c 0.1875,0 0.359375,0.015625 0.484375,0.0625 0.046875,0.03125 0.0625,0.03125 0.0625,0.046875 0,0 -0.015625,0.015625 -0.015625,0.015625 0,0 -0.046875,0.046875 -0.078125,0.0625 -0.046875,0.015625 -0.109375,0.015625 -0.15625,0.015625 -0.265625,0 -0.46875,-0.0625 -0.609375,-0.171875 0.109375,-0.015625 0.21875,-0.03125 0.3125,-0.03125 z m 0,0"
             id="id-ee6e78c1-61c2-4f7b-8584-90cf70d38a78" />
        </symbol>
      </g>
    </defs>
    <pattern
       id="EMFhbasepattern-5"
       patternUnits="userSpaceOnUse"
       width="6"
       height="6"
       x="0"
       y="0" />
    <g
       id="g8991"
       style="fill:#aa9e95;fill-opacity:1;stroke-width:0">
      <symbol
         id="symbol8977"
         overflow="visible"
         style="fill:#aa9e95;fill-opacity:1;stroke-width:0">
        <path
           id="path8975"
           d=""
           style="fill:#aa9e95;fill-opacity:1;stroke:none;stroke-width:0" />
      </symbol>
      <symbol
         id="symbol8981"
         overflow="visible"
         style="fill:#aa9e95;fill-opacity:1;stroke-width:0">
        <path
           id="path8979"
           d="m 2.484375,-2.84375 h -2.1875 v 0.65625 h 2.1875 V 0 h 0.65625 v -2.1875 h 2.1875 v -0.65625 h -2.1875 v -2.203125 h -0.65625 z m 0,0"
           style="fill:#aa9e95;fill-opacity:1;stroke:none;stroke-width:0" />
      </symbol>
      <symbol
         id="symbol8985"
         overflow="visible"
         style="fill:#aa9e95;fill-opacity:1;stroke-width:0">
        <path
           id="path8983"
           d=""
           style="fill:#aa9e95;fill-opacity:1;stroke:none;stroke-width:0" />
      </symbol>
      <symbol
         id="symbol8989"
         overflow="visible"
         style="fill:#aa9e95;fill-opacity:1;stroke-width:0">
        <path
           id="path8987"
           d="M 3.203125,2.296875 C 3.25,2.265625 3.265625,2.03125 3.21875,2.03125 2.765625,2.03125 2.75,1.859375 2.75,1.71875 2.75,1.59375 3.1875,-0.875 3.234375,-1.0625 l 0.625,-3.1875 C 3.671875,-4.328125 3.40625,-4.390625 3.0625,-4.390625 c -1.3125,0 -2.875,1.640625 -2.875,3.21875 0,0.59375 0.25,1.21875 0.875,1.21875 0.59375,0 1.296875,-1 1.5,-1.359375 L 2,1.71875 c -0.0625,0.265625 -0.390625,0.34375 -0.6875,0.375 -0.0625,0 -0.046875,0.25 -0.03125,0.265625 0.375,-0.03125 0.9375,-0.0625 1.515625,-0.0625 0.140625,0 0.265625,0 0.40625,0 z m -0.21875,-5.734375 -0.125,0.65625 c -0.1875,0.984375 -0.890625,2.25 -1.40625,2.25 -0.359375,0 -0.515625,-0.421875 -0.515625,-0.984375 0,-1.15625 0.875,-2.46875 1.6875,-2.46875 C 2.875,-3.984375 3,-3.75 3,-3.53125 3,-3.5 2.984375,-3.46875 2.984375,-3.4375 Z m 0,0"
           style="fill:#aa9e95;fill-opacity:1;stroke:none;stroke-width:0" />
      </symbol>
    </g>
  </defs>
  <sodipodi:namedview
     id="base"
     pagecolor="#ffffff"
     bordercolor="#666666"
     borderopacity="1.0"
     inkscape:pageopacity="0.0"
     inkscape:pageshadow="2"
     inkscape:zoom="2.8"
     inkscape:cx="27.476685"
     inkscape:cy="53.70387"
     inkscape:document-units="mm"
     inkscape:current-layer="layer1"
     inkscape:document-rotation="0"
     showgrid="false"
     inkscape:window-width="1600"
     inkscape:window-height="837"
     inkscape:window-x="-8"
     inkscape:window-y="-8"
     inkscape:window-maximized="1" />
  <metadata
     id="metadata5">
    <rdf:RDF>
      <cc:Work
         rdf:about="">
        <dc:format>image/svg+xml</dc:format>
        <dc:type
           rdf:resource="http://purl.org/dc/dcmitype/StillImage" />
        <dc:title />
      </cc:Work>
    </rdf:RDF>
  </metadata>
  <g
     inkscape:label="Layer 1"
     inkscape:groupmode="layer"
     id="layer1"
     transform="translate(-159.47834,-27.886769)">
    <path
       style="fill:none;stroke:#000000;stroke-width:0.529167;stroke-linecap:butt;stroke-linejoin:miter;stroke-miterlimit:4;stroke-dasharray:none;stroke-opacity:1;marker-end:url(#marker13050)"
       d="M 184.7242,32.095006 H 171.65429"
       id="path13014"
       sodipodi:nodetypes="cc" />
    <g
       transform="matrix(0.423334,0,0,0.423334,176.75572,27.886663)"
       ns2:version="1.1.0"
       ns2:texconverter="pdflatex"
       ns2:pdfconverter="inkscape"
       ns2:text="$\\vec{\\mathcal{E}}$\n\n\n\n"
       ns2:preamble="C:\\Users\\flvisa\\Desktop\\lna\\latexify_books\\textext_preamble.tex"
       ns2:scale="1.199999858267946"
       ns2:alignment="middle center"
       ns2:inkscapeversion="1.0.1"
       ns2:jacobian_sqrt="0.423334"
       id="g13036">
      <defs
         id="defs13026">
        <g
           id="g13024">
          <symbol
             overflow="visible"
             id="symbol13018">
            <path
               style="stroke:none"
               d=""
               id="path13016" />
          </symbol>
          <symbol
             overflow="visible"
             id="symbol13022">
            <path
               style="stroke:none"
               d="M 2.078125,-6.8125 C 1.71875,-6.953125 1.390625,-6.96875 1,-6.96875 c -1.3125,0 -1.9375,0.671875 -1.703125,1.46875 0.265625,0.890625 1.390625,1.453125 2.875,1.53125 C 2.1875,-3.921875 2.25,-3.859375 2.28125,-3.8125 l 0.015625,0.03125 C 0.875,-3.40625 0.28125,-2.5625 0.578125,-1.5625 0.921875,-0.390625 2.25,0.203125 3.53125,0.203125 c 0.78125,0 1.65625,-0.25 2.078125,-0.828125 C 5.828125,-0.90625 5.953125,-1.28125 5.8125,-1.71875 5.59375,-2.453125 5,-2.875 4.015625,-2.875 2.875,-2.875 2.375,-2.296875 2.484375,-1.15625 L 3,-1.0625 c -0.015625,-0.90625 0.328125,-1.265625 0.90625,-1.265625 0.25,0 0.65625,0.203125 0.78125,0.640625 0.25,0.828125 -0.390625,1.34375 -1.265625,1.34375 -0.703125,0 -1.265625,-0.40625 -1.453125,-1 -0.25,-0.84375 0.125,-1.625 0.984375,-1.953125 C 3.125,-3.234375 3.375,-3.15625 3.625,-3.15625 c 0.484375,0 0.65625,-0.1875 0.609375,-0.40625 C 4.15625,-3.78125 3.828125,-3.875 3.3125,-3.9375 V -3.96875 C 5.21875,-4.171875 6.3125,-5.25 6.078125,-6.046875 5.90625,-6.59375 5.40625,-6.84375 4.53125,-6.84375 c -1.328125,0 -2.734375,1.046875 -2.5625,2.328125 -0.828125,-0.0625 -1.5625,-0.296875 -1.765625,-0.953125 -0.15625,-0.578125 0.265625,-0.953125 1.09375,-0.953125 0.3125,0 0.5,0.015625 0.78125,0.09375 z M 3.1875,-4.53125 c -0.015625,-0.875 0.6875,-1.765625 1.453125,-1.765625 0.296875,0 0.46875,0.078125 0.546875,0.3125 0.171875,0.59375 -0.671875,1.28125 -1.984375,1.46875 z m 0,0"
               id="path13020" />
          </symbol>
        </g>
      </defs>
      <g
         id="g13034"
         transform="translate(-149.006,-127.796)">
        <g
           style="fill:#000000;fill-opacity:1"
           id="g13032">
          <g
             transform="translate(149.758,134.765)"
             id="g13030">
            <path
               style="stroke:none"
               d="M 2.078125,-6.8125 C 1.71875,-6.953125 1.390625,-6.96875 1,-6.96875 c -1.3125,0 -1.9375,0.671875 -1.703125,1.46875 0.265625,0.890625 1.390625,1.453125 2.875,1.53125 C 2.1875,-3.921875 2.25,-3.859375 2.28125,-3.8125 l 0.015625,0.03125 C 0.875,-3.40625 0.28125,-2.5625 0.578125,-1.5625 0.921875,-0.390625 2.25,0.203125 3.53125,0.203125 c 0.78125,0 1.65625,-0.25 2.078125,-0.828125 C 5.828125,-0.90625 5.953125,-1.28125 5.8125,-1.71875 5.59375,-2.453125 5,-2.875 4.015625,-2.875 2.875,-2.875 2.375,-2.296875 2.484375,-1.15625 L 3,-1.0625 c -0.015625,-0.90625 0.328125,-1.265625 0.90625,-1.265625 0.25,0 0.65625,0.203125 0.78125,0.640625 0.25,0.828125 -0.390625,1.34375 -1.265625,1.34375 -0.703125,0 -1.265625,-0.40625 -1.453125,-1 -0.25,-0.84375 0.125,-1.625 0.984375,-1.953125 C 3.125,-3.234375 3.375,-3.15625 3.625,-3.15625 c 0.484375,0 0.65625,-0.1875 0.609375,-0.40625 C 4.15625,-3.78125 3.828125,-3.875 3.3125,-3.9375 V -3.96875 C 5.21875,-4.171875 6.3125,-5.25 6.078125,-6.046875 5.90625,-6.59375 5.40625,-6.84375 4.53125,-6.84375 c -1.328125,0 -2.734375,1.046875 -2.5625,2.328125 -0.828125,-0.0625 -1.5625,-0.296875 -1.765625,-0.953125 -0.15625,-0.578125 0.265625,-0.953125 1.09375,-0.953125 0.3125,0 0.5,0.015625 0.78125,0.09375 z M 3.1875,-4.53125 c -0.015625,-0.875 0.6875,-1.765625 1.453125,-1.765625 0.296875,0 0.46875,0.078125 0.546875,0.3125 0.171875,0.59375 -0.671875,1.28125 -1.984375,1.46875 z m 0,0"
               id="path13028" />
          </g>
        </g>
      </g>
    </g>
    <path
       style="fill:none;stroke:#806149;stroke-width:0.529167;stroke-linecap:butt;stroke-linejoin:miter;stroke-miterlimit:4;stroke-dasharray:none;stroke-opacity:1;marker-end:url(#marker14674)"
       d="M 178.22032,38.690019 H 160.42308"
       id="path14512"
       sodipodi:nodetypes="cc" />
    <path
       style="fill:none;stroke:#b0947a;stroke-width:0.529167;stroke-linecap:butt;stroke-linejoin:miter;stroke-miterlimit:4;stroke-dasharray:none;stroke-opacity:1;marker-end:url(#marker14786)"
       d="m 178.22032,38.690019 h 17.79724"
       id="path14782"
       sodipodi:nodetypes="cc" />
    <circle
       r="0.66778517"
       cy="38.658195"
       cx="178.13078"
       id="path3435-3-3"
       style="opacity:1;fill:#aa9e95;stroke:#aa9e95;stroke-width:0.26443;stroke-linejoin:round;stroke-miterlimit:4;stroke-dasharray:none" />
    <path
       style="fill:none;stroke:#506a68;stroke-width:0.529167;stroke-linecap:butt;stroke-linejoin:miter;stroke-miterlimit:4;stroke-dasharray:none;stroke-opacity:1;marker-end:url(#marker14966)"
       d="m 170.70955,44.795014 h 13.06991"
       id="path14962"
       sodipodi:nodetypes="cc" />
    <g
       transform="matrix(0.423334,0,0,0.423334,160.46543,34.053324)"
       ns2:version="1.1.0"
       ns2:texconverter="pdflatex"
       ns2:pdfconverter="inkscape"
       ns2:text="$\\ab{\\vec{F}}{r}$\n\n\n\n\n"
       ns2:preamble="C:\\Users\\flvisa\\Desktop\\lna\\latexify_books\\textext_preamble.tex"
       ns2:scale="1.199999858267946"
       ns2:alignment="middle center"
       ns2:inkscapeversion="1.0.1"
       ns2:jacobian_sqrt="0.423334"
       id="g15748"
       style="fill:#806149;fill-opacity:1">
      <defs
         id="id-16f4c680-ee52-421c-9a79-155ef535a2f4">
        <g
           id="id-cecd122d-2f13-461d-9699-6aa8c2c193c0">
          <symbol
             overflow="visible"
             id="id-98fbac86-6d8a-4a77-b015-ede6e967ac5d">
            <path
               style="stroke:none"
               d=""
               id="id-fab53085-b500-465c-b11b-4be83b0f1684" />
          </symbol>
          <symbol
             overflow="visible"
             id="id-b4ccde3a-3964-4c78-a4e3-59c9403c48de">
            <path
               style="stroke:none"
               d="m 2.546875,-6.5625 c -0.390625,0 -0.921875,0 -1.328125,-0.03125 C 1.171875,-6.546875 1.109375,-6.296875 1.140625,-6.234375 1.25,-6.21875 1.6875,-6.203125 1.703125,-6.078125 1.75,-5.875 1.671875,-5.546875 1.59375,-5.125 L 0.875,-1.4375 C 0.796875,-1 0.734375,-0.6875 0.625,-0.484375 0.546875,-0.359375 0.109375,-0.3125 -0.015625,-0.3125 -0.0625,-0.234375 -0.125,0 -0.09375,0.0625 0.28125,0.015625 0.859375,-0.015625 1.25,-0.015625 c 0.390625,0 1.046875,0.03125 1.40625,0.078125 C 2.703125,0 2.75,-0.234375 2.71875,-0.3125 c -0.109375,0 -0.625,-0.046875 -0.640625,-0.171875 C 2.03125,-0.6875 2.109375,-1 2.1875,-1.4375 l 0.28125,-1.46875 c 0.015625,-0.125 0.4375,-0.140625 0.703125,-0.140625 0.34375,0 0.59375,0.015625 0.6875,0.0625 0.078125,0.046875 0.1875,0.140625 0.203125,0.625 0,0.046875 0.046875,0.078125 0.125,0.078125 0.0625,0 0.15625,-0.015625 0.171875,-0.046875 L 4.734375,-4.25 C 4.71875,-4.28125 4.640625,-4.3125 4.5625,-4.3125 4.5,-4.3125 4.46875,-4.28125 4.453125,-4.234375 4.1875,-3.65625 4.03125,-3.515625 3.484375,-3.515625 h -0.5 c -0.1875,0 -0.375,-0.046875 -0.375,-0.109375 L 2.96875,-5.46875 C 3.03125,-5.75 3.0625,-5.96875 3.125,-6.078125 3.203125,-6.1875 3.40625,-6.1875 3.625,-6.1875 h 0.765625 c 0.578125,0 0.71875,0.453125 0.8125,1 0.015625,0.046875 0.0625,0.078125 0.125,0.078125 0.078125,0 0.203125,-0.015625 0.234375,-0.046875 0,-0.453125 -0.015625,-0.984375 0.015625,-1.484375 C 5.03125,-6.625 2.9375,-6.5625 2.546875,-6.5625 Z m 0,0"
               id="id-10762a77-d834-49da-b125-b20f2f5d7895" />
          </symbol>
          <symbol
             overflow="visible"
             id="id-b85df44a-d354-4339-962d-e9857d9edda1">
            <path
               style="stroke:none"
               d="m 0.359375,0 h 2.90625 V -3.515625 H 0.359375 Z M 0.71875,-0.359375 v -2.78125 h 2.1875 v 2.78125 z m 0,0"
               id="id-5a919900-9094-4137-bda3-396f709530a2" />
          </symbol>
          <symbol
             overflow="visible"
             id="id-d7b06b6d-5c11-40be-a5de-ec9b88f9b313">
            <path
               style="stroke:none"
               d="m 2.1875,-3.171875 c -0.328125,0 -0.703125,0.46875 -0.84375,0.765625 -0.015625,0.015625 -0.046875,0.015625 -0.046875,-0.015625 0,-0.078125 0.046875,-0.609375 0.0625,-0.65625 C 1.359375,-3.09375 1.3125,-3.125 1.265625,-3.125 0.984375,-3.015625 0.609375,-2.9375 0.25,-2.90625 v 0.203125 c 0.046875,0 0.421875,0 0.46875,0.125 0.03125,0.09375 0.03125,0.28125 0.03125,0.375 v 1.359375 c 0,0.21875 0,0.421875 -0.03125,0.546875 C 0.703125,-0.21875 0.34375,-0.1875 0.265625,-0.1875 V 0.015625 C 0.546875,0 0.796875,-0.015625 1.078125,-0.015625 1.34375,-0.015625 1.671875,0 1.96875,0.015625 V -0.1875 c -0.09375,0 -0.609375,-0.03125 -0.625,-0.109375 C 1.296875,-0.421875 1.296875,-0.625 1.296875,-0.84375 v -1.125 c 0,-0.171875 0.265625,-0.65625 0.578125,-0.65625 0.140625,0 0.203125,0.03125 0.28125,0.078125 0.078125,0.0625 0.15625,0.15625 0.265625,0.15625 0.0625,0 0.234375,-0.109375 0.234375,-0.390625 0,-0.078125 -0.015625,-0.140625 -0.03125,-0.1875 -0.0625,-0.109375 -0.25,-0.203125 -0.4375,-0.203125 z m 0,0"
               id="id-5b2b5cbf-4530-4ab0-8ed1-7df478099b3e" />
          </symbol>
        </g>
      </defs>
      <g
         id="id-c9d8f8b0-f5ce-4f19-bb64-06715824e79a"
         transform="translate(-148.909,-128.124)"
         style="fill:#806149;fill-opacity:1">
        <g
           style="fill:#806149;fill-opacity:1"
           id="id-0507da58-1656-47bb-9233-e88b54ceb44b">
          <g
             transform="translate(149.011,134.765)"
             id="g15740"
             style="fill:#806149;fill-opacity:1">
            <path
               style="fill:#806149;fill-opacity:1;stroke:none"
               d="m 2.546875,-6.5625 c -0.390625,0 -0.921875,0 -1.328125,-0.03125 C 1.171875,-6.546875 1.109375,-6.296875 1.140625,-6.234375 1.25,-6.21875 1.6875,-6.203125 1.703125,-6.078125 1.75,-5.875 1.671875,-5.546875 1.59375,-5.125 L 0.875,-1.4375 C 0.796875,-1 0.734375,-0.6875 0.625,-0.484375 0.546875,-0.359375 0.109375,-0.3125 -0.015625,-0.3125 -0.0625,-0.234375 -0.125,0 -0.09375,0.0625 0.28125,0.015625 0.859375,-0.015625 1.25,-0.015625 c 0.390625,0 1.046875,0.03125 1.40625,0.078125 C 2.703125,0 2.75,-0.234375 2.71875,-0.3125 c -0.109375,0 -0.625,-0.046875 -0.640625,-0.171875 C 2.03125,-0.6875 2.109375,-1 2.1875,-1.4375 l 0.28125,-1.46875 c 0.015625,-0.125 0.4375,-0.140625 0.703125,-0.140625 0.34375,0 0.59375,0.015625 0.6875,0.0625 0.078125,0.046875 0.1875,0.140625 0.203125,0.625 0,0.046875 0.046875,0.078125 0.125,0.078125 0.0625,0 0.15625,-0.015625 0.171875,-0.046875 L 4.734375,-4.25 C 4.71875,-4.28125 4.640625,-4.3125 4.5625,-4.3125 4.5,-4.3125 4.46875,-4.28125 4.453125,-4.234375 4.1875,-3.65625 4.03125,-3.515625 3.484375,-3.515625 h -0.5 c -0.1875,0 -0.375,-0.046875 -0.375,-0.109375 L 2.96875,-5.46875 C 3.03125,-5.75 3.0625,-5.96875 3.125,-6.078125 3.203125,-6.1875 3.40625,-6.1875 3.625,-6.1875 h 0.765625 c 0.578125,0 0.71875,0.453125 0.8125,1 0.015625,0.046875 0.0625,0.078125 0.125,0.078125 0.078125,0 0.203125,-0.015625 0.234375,-0.046875 0,-0.453125 -0.015625,-0.984375 0.015625,-1.484375 C 5.03125,-6.625 2.9375,-6.5625 2.546875,-6.5625 Z m 0,0"
               id="id-6a40a028-d1ad-4d90-b9ad-b38078748d48" />
          </g>
        </g>
        <g
           style="fill:#806149;fill-opacity:1"
           id="id-0af17627-977a-44d9-a1ba-01a2f96a5e43">
          <g
             transform="translate(154.984,136.259)"
             id="g15744"
             style="fill:#806149;fill-opacity:1">
            <path
               style="fill:#806149;fill-opacity:1;stroke:none"
               d="m 2.1875,-3.171875 c -0.328125,0 -0.703125,0.46875 -0.84375,0.765625 -0.015625,0.015625 -0.046875,0.015625 -0.046875,-0.015625 0,-0.078125 0.046875,-0.609375 0.0625,-0.65625 C 1.359375,-3.09375 1.3125,-3.125 1.265625,-3.125 0.984375,-3.015625 0.609375,-2.9375 0.25,-2.90625 v 0.203125 c 0.046875,0 0.421875,0 0.46875,0.125 0.03125,0.09375 0.03125,0.28125 0.03125,0.375 v 1.359375 c 0,0.21875 0,0.421875 -0.03125,0.546875 C 0.703125,-0.21875 0.34375,-0.1875 0.265625,-0.1875 V 0.015625 C 0.546875,0 0.796875,-0.015625 1.078125,-0.015625 1.34375,-0.015625 1.671875,0 1.96875,0.015625 V -0.1875 c -0.09375,0 -0.609375,-0.03125 -0.625,-0.109375 C 1.296875,-0.421875 1.296875,-0.625 1.296875,-0.84375 v -1.125 c 0,-0.171875 0.265625,-0.65625 0.578125,-0.65625 0.140625,0 0.203125,0.03125 0.28125,0.078125 0.078125,0.0625 0.15625,0.15625 0.265625,0.15625 0.0625,0 0.234375,-0.109375 0.234375,-0.390625 0,-0.078125 -0.015625,-0.140625 -0.03125,-0.1875 -0.0625,-0.109375 -0.25,-0.203125 -0.4375,-0.203125 z m 0,0"
               id="id-83b9d292-8121-4d26-bc49-ef57674df8a3" />
          </g>
        </g>
      </g>
    </g>
    <g
       transform="matrix(0.423334,0,0,0.423334,186.59568,33.8041)"
       ns2:version="1.1.0"
       ns2:texconverter="pdflatex"
       ns2:pdfconverter="inkscape"
       ns2:text="$\\vec{F}=-q\\vec{\\mathcal{E}}$\n\n\n\n\n\n"
       ns2:preamble="C:\\Users\\flvisa\\Desktop\\lna\\latexify_books\\textext_preamble.tex"
       ns2:scale="1.199999858267946"
       ns2:alignment="middle center"
       ns2:inkscapeversion="1.0.1"
       ns2:jacobian_sqrt="0.423334"
       style="fill:#b0947a;fill-opacity:1;stroke-width:0"
       id="g16330">
      <defs
         id="id-0cc328f7-fbcb-4a86-a4be-0b5d47583316">
        <g
           id="id-14402c5a-cefd-4ef0-9d25-69dd943b4f93"
           style="fill:#506a68;fill-opacity:1;stroke-width:0">
          <symbol
             overflow="visible"
             id="id-1f2ea54a-9ca9-4057-805b-05c0144bc95b"
             style="fill:#506a68;fill-opacity:1;stroke-width:0">
            <path
               style="fill:#506a68;fill-opacity:1;stroke:none;stroke-width:0"
               d=""
               id="id-d42c2e4c-39f7-434a-b1d6-d1ef0503b8db" />
          </symbol>
          <symbol
             overflow="visible"
             id="id-eba5ba91-beb0-45be-ba31-9918f5e34281"
             style="fill:#506a68;fill-opacity:1;stroke-width:0">
            <path
               style="fill:#506a68;fill-opacity:1;stroke:none;stroke-width:0"
               d="m 2.546875,-6.5625 c -0.390625,0 -0.921875,0 -1.328125,-0.03125 C 1.171875,-6.546875 1.109375,-6.296875 1.140625,-6.234375 1.25,-6.21875 1.6875,-6.203125 1.703125,-6.078125 1.75,-5.875 1.671875,-5.546875 1.59375,-5.125 L 0.875,-1.4375 C 0.796875,-1 0.734375,-0.6875 0.625,-0.484375 0.546875,-0.359375 0.109375,-0.3125 -0.015625,-0.3125 -0.0625,-0.234375 -0.125,0 -0.09375,0.0625 0.28125,0.015625 0.859375,-0.015625 1.25,-0.015625 c 0.390625,0 1.046875,0.03125 1.40625,0.078125 C 2.703125,0 2.75,-0.234375 2.71875,-0.3125 c -0.109375,0 -0.625,-0.046875 -0.640625,-0.171875 C 2.03125,-0.6875 2.109375,-1 2.1875,-1.4375 l 0.28125,-1.46875 c 0.015625,-0.125 0.4375,-0.140625 0.703125,-0.140625 0.34375,0 0.59375,0.015625 0.6875,0.0625 0.078125,0.046875 0.1875,0.140625 0.203125,0.625 0,0.046875 0.046875,0.078125 0.125,0.078125 0.0625,0 0.15625,-0.015625 0.171875,-0.046875 L 4.734375,-4.25 C 4.71875,-4.28125 4.640625,-4.3125 4.5625,-4.3125 4.5,-4.3125 4.46875,-4.28125 4.453125,-4.234375 4.1875,-3.65625 4.03125,-3.515625 3.484375,-3.515625 h -0.5 c -0.1875,0 -0.375,-0.046875 -0.375,-0.109375 L 2.96875,-5.46875 C 3.03125,-5.75 3.0625,-5.96875 3.125,-6.078125 3.203125,-6.1875 3.40625,-6.1875 3.625,-6.1875 h 0.765625 c 0.578125,0 0.71875,0.453125 0.8125,1 0.015625,0.046875 0.0625,0.078125 0.125,0.078125 0.078125,0 0.203125,-0.015625 0.234375,-0.046875 0,-0.453125 -0.015625,-0.984375 0.015625,-1.484375 C 5.03125,-6.625 2.9375,-6.5625 2.546875,-6.5625 Z m 0,0"
               id="id-c45bd6c1-0279-419f-af2a-5076b37366e0" />
          </symbol>
          <symbol
             overflow="visible"
             id="id-98ea545a-cdc5-429a-8374-5929fc01a69e"
             style="fill:#506a68;fill-opacity:1;stroke-width:0">
            <path
               style="fill:#506a68;fill-opacity:1;stroke:none;stroke-width:0"
               d=""
               id="id-3027c2e4-aee9-4eb8-9051-2223aba25728" />
          </symbol>
          <symbol
             overflow="visible"
             id="id-7a971373-486f-4bf3-880c-02c963f7926b"
             style="fill:#506a68;fill-opacity:1;stroke-width:0">
            <path
               style="fill:#506a68;fill-opacity:1;stroke:none;stroke-width:0"
               d="M 5.5,-3.296875 V -3.84375 H 0.40625 v 0.546875 z m 0,2.03125 v -0.5625 H 0.40625 v 0.5625 z m 0,0"
               id="id-b3a357e7-f696-4b6d-98b8-3a419b5f95d4" />
          </symbol>
          <symbol
             overflow="visible"
             id="id-4faffedf-aa9e-4af0-b03c-d9c5ceec164d"
             style="fill:#506a68;fill-opacity:1;stroke-width:0">
            <path
               style="fill:#506a68;fill-opacity:1;stroke:none;stroke-width:0"
               d=""
               id="id-98d07f39-e094-4f66-bf57-a99b2a5c4571" />
          </symbol>
          <symbol
             overflow="visible"
             id="id-448df205-1c64-4a17-8a64-06df81019990"
             style="fill:#506a68;fill-opacity:1;stroke-width:0">
            <path
               style="fill:#506a68;fill-opacity:1;stroke:none;stroke-width:0"
               d="m 5.71875,-2.28125 v -0.5625 H 0.625 v 0.5625 z m 0,0"
               id="id-9fc2a40e-4c6d-48f2-bb3f-8d82c2f514cd" />
          </symbol>
          <symbol
             overflow="visible"
             id="id-03aa3e6c-9082-48e0-9ee5-9b74bbf00efa"
             style="fill:#506a68;fill-opacity:1;stroke-width:0">
            <path
               style="fill:#506a68;fill-opacity:1;stroke:none;stroke-width:0"
               d=""
               id="id-f7e8b7d5-6f33-488d-85b1-5b56a2fa107f" />
          </symbol>
          <symbol
             overflow="visible"
             id="id-c86bf222-5df6-42b7-a60d-24d8f69c40c1"
             style="fill:#506a68;fill-opacity:1;stroke-width:0">
            <path
               style="fill:#506a68;fill-opacity:1;stroke:none;stroke-width:0"
               d="M 3.203125,2.296875 C 3.25,2.265625 3.265625,2.03125 3.21875,2.03125 2.765625,2.03125 2.75,1.859375 2.75,1.71875 2.75,1.59375 3.1875,-0.875 3.234375,-1.0625 l 0.625,-3.1875 C 3.671875,-4.328125 3.40625,-4.390625 3.0625,-4.390625 c -1.3125,0 -2.875,1.640625 -2.875,3.21875 0,0.59375 0.25,1.21875 0.875,1.21875 0.59375,0 1.296875,-1 1.5,-1.359375 L 2,1.71875 c -0.0625,0.265625 -0.390625,0.34375 -0.6875,0.375 -0.0625,0 -0.046875,0.25 -0.03125,0.265625 0.375,-0.03125 0.9375,-0.0625 1.515625,-0.0625 0.140625,0 0.265625,0 0.40625,0 z m -0.21875,-5.734375 -0.125,0.65625 c -0.1875,0.984375 -0.890625,2.25 -1.40625,2.25 -0.359375,0 -0.515625,-0.421875 -0.515625,-0.984375 0,-1.15625 0.875,-2.46875 1.6875,-2.46875 C 2.875,-3.984375 3,-3.75 3,-3.53125 3,-3.5 2.984375,-3.46875 2.984375,-3.4375 Z m 0,0"
               id="id-264a7253-bf01-4568-b85b-79178f59b85e" />
          </symbol>
          <symbol
             overflow="visible"
             id="id-b732b8bb-4b2f-4cab-99fe-da078b476757"
             style="fill:#506a68;fill-opacity:1;stroke-width:0">
            <path
               style="fill:#506a68;fill-opacity:1;stroke:none;stroke-width:0"
               d=""
               id="id-13467a09-5db4-4125-929b-a3775617f1c8" />
          </symbol>
          <symbol
             overflow="visible"
             id="id-253746f0-8eb7-4f76-96f7-b0e1550ace19"
             style="fill:#506a68;fill-opacity:1;stroke-width:0">
            <path
               style="fill:#506a68;fill-opacity:1;stroke:none;stroke-width:0"
               d="M 2.078125,-6.8125 C 1.71875,-6.953125 1.390625,-6.96875 1,-6.96875 c -1.3125,0 -1.9375,0.671875 -1.703125,1.46875 0.265625,0.890625 1.390625,1.453125 2.875,1.53125 C 2.1875,-3.921875 2.25,-3.859375 2.28125,-3.8125 l 0.015625,0.03125 C 0.875,-3.40625 0.28125,-2.5625 0.578125,-1.5625 0.921875,-0.390625 2.25,0.203125 3.53125,0.203125 c 0.78125,0 1.65625,-0.25 2.078125,-0.828125 C 5.828125,-0.90625 5.953125,-1.28125 5.8125,-1.71875 5.59375,-2.453125 5,-2.875 4.015625,-2.875 2.875,-2.875 2.375,-2.296875 2.484375,-1.15625 L 3,-1.0625 c -0.015625,-0.90625 0.328125,-1.265625 0.90625,-1.265625 0.25,0 0.65625,0.203125 0.78125,0.640625 0.25,0.828125 -0.390625,1.34375 -1.265625,1.34375 -0.703125,0 -1.265625,-0.40625 -1.453125,-1 -0.25,-0.84375 0.125,-1.625 0.984375,-1.953125 C 3.125,-3.234375 3.375,-3.15625 3.625,-3.15625 c 0.484375,0 0.65625,-0.1875 0.609375,-0.40625 C 4.15625,-3.78125 3.828125,-3.875 3.3125,-3.9375 V -3.96875 C 5.21875,-4.171875 6.3125,-5.25 6.078125,-6.046875 5.90625,-6.59375 5.40625,-6.84375 4.53125,-6.84375 c -1.328125,0 -2.734375,1.046875 -2.5625,2.328125 -0.828125,-0.0625 -1.5625,-0.296875 -1.765625,-0.953125 -0.15625,-0.578125 0.265625,-0.953125 1.09375,-0.953125 0.3125,0 0.5,0.015625 0.78125,0.09375 z M 3.1875,-4.53125 c -0.015625,-0.875 0.6875,-1.765625 1.453125,-1.765625 0.296875,0 0.46875,0.078125 0.546875,0.3125 0.171875,0.59375 -0.671875,1.28125 -1.984375,1.46875 z m 0,0"
               id="id-1692d3e8-fd86-45ec-81cc-3de2e5e42d9c" />
          </symbol>
        </g>
      </defs>
      <g
         id="id-5b79f387-a59a-42cd-a907-00d39e367097"
         transform="translate(-148.909,-127.796)"
         style="fill:#b0947a;fill-opacity:1;stroke-width:0">
        <g
           style="fill:#b0947a;fill-opacity:1;stroke-width:0"
           id="id-6bb079ff-ae74-4e91-bf0f-c7f0f83ce76f">
          <g
             transform="translate(149.011,134.765)"
             style="fill:#b0947a;fill-opacity:1;stroke-width:0"
             id="g16310">
            <path
               style="fill:#b0947a;fill-opacity:1;stroke:none;stroke-width:0"
               d="m 2.546875,-6.5625 c -0.390625,0 -0.921875,0 -1.328125,-0.03125 C 1.171875,-6.546875 1.109375,-6.296875 1.140625,-6.234375 1.25,-6.21875 1.6875,-6.203125 1.703125,-6.078125 1.75,-5.875 1.671875,-5.546875 1.59375,-5.125 L 0.875,-1.4375 C 0.796875,-1 0.734375,-0.6875 0.625,-0.484375 0.546875,-0.359375 0.109375,-0.3125 -0.015625,-0.3125 -0.0625,-0.234375 -0.125,0 -0.09375,0.0625 0.28125,0.015625 0.859375,-0.015625 1.25,-0.015625 c 0.390625,0 1.046875,0.03125 1.40625,0.078125 C 2.703125,0 2.75,-0.234375 2.71875,-0.3125 c -0.109375,0 -0.625,-0.046875 -0.640625,-0.171875 C 2.03125,-0.6875 2.109375,-1 2.1875,-1.4375 l 0.28125,-1.46875 c 0.015625,-0.125 0.4375,-0.140625 0.703125,-0.140625 0.34375,0 0.59375,0.015625 0.6875,0.0625 0.078125,0.046875 0.1875,0.140625 0.203125,0.625 0,0.046875 0.046875,0.078125 0.125,0.078125 0.0625,0 0.15625,-0.015625 0.171875,-0.046875 L 4.734375,-4.25 C 4.71875,-4.28125 4.640625,-4.3125 4.5625,-4.3125 4.5,-4.3125 4.46875,-4.28125 4.453125,-4.234375 4.1875,-3.65625 4.03125,-3.515625 3.484375,-3.515625 h -0.5 c -0.1875,0 -0.375,-0.046875 -0.375,-0.109375 L 2.96875,-5.46875 C 3.03125,-5.75 3.0625,-5.96875 3.125,-6.078125 3.203125,-6.1875 3.40625,-6.1875 3.625,-6.1875 h 0.765625 c 0.578125,0 0.71875,0.453125 0.8125,1 0.015625,0.046875 0.0625,0.078125 0.125,0.078125 0.078125,0 0.203125,-0.015625 0.234375,-0.046875 0,-0.453125 -0.015625,-0.984375 0.015625,-1.484375 C 5.03125,-6.625 2.9375,-6.5625 2.546875,-6.5625 Z m 0,0"
               id="id-e7448705-2e46-49dc-9b28-798f37143353" />
          </g>
        </g>
        <g
           style="fill:#b0947a;fill-opacity:1;stroke-width:0"
           id="id-1b115fd3-12d9-45fa-b2fa-173301ae74e5">
          <g
             transform="translate(157.751,134.765)"
             style="fill:#b0947a;fill-opacity:1;stroke-width:0"
             id="g16314">
            <path
               style="fill:#b0947a;fill-opacity:1;stroke:none;stroke-width:0"
               d="M 5.5,-3.296875 V -3.84375 H 0.40625 v 0.546875 z m 0,2.03125 v -0.5625 H 0.40625 v 0.5625 z m 0,0"
               id="id-d903709a-11c6-4611-aa82-44959180f160" />
          </g>
        </g>
        <g
           style="fill:#b0947a;fill-opacity:1;stroke-width:0"
           id="id-b69ca1c9-f107-479b-b4ef-7af919b0e7e8">
          <g
             transform="translate(166.416,134.765)"
             style="fill:#b0947a;fill-opacity:1;stroke-width:0"
             id="g16318">
            <path
               style="fill:#b0947a;fill-opacity:1;stroke:none;stroke-width:0"
               d="m 5.71875,-2.28125 v -0.5625 H 0.625 v 0.5625 z m 0,0"
               id="id-0bf394d1-7c5e-47b2-96a9-5f1c05b2a415" />
          </g>
        </g>
        <g
           style="fill:#b0947a;fill-opacity:1;stroke-width:0"
           id="id-453f4a76-3cb3-46d9-9664-dd1c4888d6b5">
          <g
             transform="translate(172.753,134.765)"
             style="fill:#b0947a;fill-opacity:1;stroke-width:0"
             id="g16322">
            <path
               style="fill:#b0947a;fill-opacity:1;stroke:none;stroke-width:0"
               d="M 3.203125,2.296875 C 3.25,2.265625 3.265625,2.03125 3.21875,2.03125 2.765625,2.03125 2.75,1.859375 2.75,1.71875 2.75,1.59375 3.1875,-0.875 3.234375,-1.0625 l 0.625,-3.1875 C 3.671875,-4.328125 3.40625,-4.390625 3.0625,-4.390625 c -1.3125,0 -2.875,1.640625 -2.875,3.21875 0,0.59375 0.25,1.21875 0.875,1.21875 0.59375,0 1.296875,-1 1.5,-1.359375 L 2,1.71875 c -0.0625,0.265625 -0.390625,0.34375 -0.6875,0.375 -0.0625,0 -0.046875,0.25 -0.03125,0.265625 0.375,-0.03125 0.9375,-0.0625 1.515625,-0.0625 0.140625,0 0.265625,0 0.40625,0 z m -0.21875,-5.734375 -0.125,0.65625 c -0.1875,0.984375 -0.890625,2.25 -1.40625,2.25 -0.359375,0 -0.515625,-0.421875 -0.515625,-0.984375 0,-1.15625 0.875,-2.46875 1.6875,-2.46875 C 2.875,-3.984375 3,-3.75 3,-3.53125 3,-3.5 2.984375,-3.46875 2.984375,-3.4375 Z m 0,0"
               id="id-4c854963-6aeb-4b78-b6a0-6d401175e356" />
          </g>
        </g>
        <g
           style="fill:#b0947a;fill-opacity:1;stroke-width:0"
           id="id-238ac37b-bba8-42a3-906f-0677fdd466af">
          <g
             transform="translate(178.083,134.765)"
             style="fill:#b0947a;fill-opacity:1;stroke-width:0"
             id="g16326">
            <path
               style="fill:#b0947a;fill-opacity:1;stroke:none;stroke-width:0"
               d="M 2.078125,-6.8125 C 1.71875,-6.953125 1.390625,-6.96875 1,-6.96875 c -1.3125,0 -1.9375,0.671875 -1.703125,1.46875 0.265625,0.890625 1.390625,1.453125 2.875,1.53125 C 2.1875,-3.921875 2.25,-3.859375 2.28125,-3.8125 l 0.015625,0.03125 C 0.875,-3.40625 0.28125,-2.5625 0.578125,-1.5625 0.921875,-0.390625 2.25,0.203125 3.53125,0.203125 c 0.78125,0 1.65625,-0.25 2.078125,-0.828125 C 5.828125,-0.90625 5.953125,-1.28125 5.8125,-1.71875 5.59375,-2.453125 5,-2.875 4.015625,-2.875 2.875,-2.875 2.375,-2.296875 2.484375,-1.15625 L 3,-1.0625 c -0.015625,-0.90625 0.328125,-1.265625 0.90625,-1.265625 0.25,0 0.65625,0.203125 0.78125,0.640625 0.25,0.828125 -0.390625,1.34375 -1.265625,1.34375 -0.703125,0 -1.265625,-0.40625 -1.453125,-1 -0.25,-0.84375 0.125,-1.625 0.984375,-1.953125 C 3.125,-3.234375 3.375,-3.15625 3.625,-3.15625 c 0.484375,0 0.65625,-0.1875 0.609375,-0.40625 C 4.15625,-3.78125 3.828125,-3.875 3.3125,-3.9375 V -3.96875 C 5.21875,-4.171875 6.3125,-5.25 6.078125,-6.046875 5.90625,-6.59375 5.40625,-6.84375 4.53125,-6.84375 c -1.328125,0 -2.734375,1.046875 -2.5625,2.328125 -0.828125,-0.0625 -1.5625,-0.296875 -1.765625,-0.953125 -0.15625,-0.578125 0.265625,-0.953125 1.09375,-0.953125 0.3125,0 0.5,0.015625 0.78125,0.09375 z M 3.1875,-4.53125 c -0.015625,-0.875 0.6875,-1.765625 1.453125,-1.765625 0.296875,0 0.46875,0.078125 0.546875,0.3125 0.171875,0.59375 -0.671875,1.28125 -1.984375,1.46875 z m 0,0"
               id="id-ca3ed6bf-b8fa-4f8c-b990-d7acbdeb3306" />
          </g>
        </g>
      </g>
    </g>
    <g
       transform="matrix(0.423334,0,0,0.423334,176.405,46.6386)"
       ns2:version="1.1.0"
       ns2:texconverter="pdflatex"
       ns2:pdfconverter="inkscape"
       ns2:text="$\\ab{\\vec{v}}{d}$\n\n\n\n\n"
       ns2:preamble="C:\\Users\\flvisa\\Desktop\\lna\\latexify_books\\textext_preamble.tex"
       ns2:scale="1.199999858267946"
       ns2:alignment="middle center"
       ns2:inkscapeversion="1.0.1"
       ns2:jacobian_sqrt="0.423334"
       style="fill:#506a68;stroke-width:0"
       id="g16913">
      <defs
         id="id-66db36a2-5dd9-4479-9b3c-30ea73acdf8c">
        <g
           id="id-559de825-d1db-4488-95c0-86747ed394d6"
           style="fill:#9e7867;stroke-width:0">
          <symbol
             overflow="visible"
             id="id-ee114b6a-0490-4378-9b66-883709fa47f8"
             style="fill:#9e7867;stroke-width:0">
            <path
               style="fill:#9e7867;stroke:none;stroke-width:0"
               d=""
               id="id-72857089-eccd-4348-8f2c-f0540a1ccc5d" />
          </symbol>
          <symbol
             overflow="visible"
             id="id-33fdcd1b-d0c3-4bf3-94c7-ab540db664d3"
             style="fill:#9e7867;stroke-width:0">
            <path
               style="fill:#9e7867;stroke:none;stroke-width:0"
               d="m 1.453125,0.0625 c 1.796875,0 3.3125,-2.140625 3.3125,-3.734375 C 4.765625,-4.0625 4.546875,-4.5 4.09375,-4.5 c -0.296875,0 -0.703125,0.34375 -0.78125,0.578125 0.15625,0.15625 0.25,0.390625 0.25,0.59375 0,0.21875 -0.015625,0.546875 -0.109375,0.890625 -0.140625,0.546875 -0.34375,1.703125 -1.171875,1.703125 -0.3125,0 -0.53125,-0.109375 -0.53125,-0.3125 0,-0.5625 0.515625,-2.484375 0.515625,-2.921875 0,-0.28125 -0.234375,-0.53125 -0.5,-0.53125 -0.609375,0 -1.5,0.875 -1.640625,1.09375 0,0.0625 0.078125,0.171875 0.109375,0.171875 0.03125,-0.03125 0.421875,-0.53125 0.6875,-0.53125 0.140625,0 0.140625,0.171875 0.140625,0.25 l -0.421875,2.0625 C 0.5625,-1.09375 0.46875,-0.71875 0.46875,-0.53125 c 0,0.484375 0.515625,0.59375 0.984375,0.59375 z m 0,0"
               id="id-ef8cd739-ede5-4616-953e-7534bbf68983" />
          </symbol>
          <symbol
             overflow="visible"
             id="id-72c962e9-b71b-4d1b-ab83-42950484b34a"
             style="fill:#9e7867;stroke-width:0">
            <path
               style="fill:#9e7867;stroke:none;stroke-width:0"
               d="m 0.359375,0 h 2.90625 V -3.515625 H 0.359375 Z M 0.71875,-0.359375 v -2.78125 h 2.1875 v 2.78125 z m 0,0"
               id="id-d5bdcbca-d81b-4b71-a21e-9252c181698f" />
          </symbol>
          <symbol
             overflow="visible"
             id="id-14deb992-cb68-47c2-be49-fb4f5b8682d0"
             style="fill:#9e7867;stroke-width:0">
            <path
               style="fill:#9e7867;stroke:none;stroke-width:0"
               d="m 2,-3.1875 c -0.65625,0 -1.71875,0.734375 -1.71875,1.6875 0,0.890625 0.609375,1.5625 1.28125,1.5625 0.34375,0 0.84375,-0.3125 0.953125,-0.4375 0.015625,-0.015625 0.015625,0.015625 0.015625,0.046875 v 0.25 c 0,0.046875 0.015625,0.140625 0.0625,0.140625 0,0 0.5625,-0.1875 0.9375,-0.203125 0.03125,0 0.046875,-0.09375 0.046875,-0.109375 0,-0.015625 0,-0.078125 -0.015625,-0.078125 -0.03125,-0.015625 -0.359375,0 -0.4375,-0.125 C 3.09375,-0.5625 3.078125,-0.875 3.078125,-1.15625 v -3.046875 c 0,-0.390625 0.09375,-0.609375 0.09375,-0.609375 0,-0.046875 -0.0625,-0.109375 -0.09375,-0.109375 -0.296875,0.125 -0.65625,0.234375 -1.015625,0.265625 -0.03125,0 -0.015625,0.1875 0,0.1875 0.1875,0 0.390625,0.015625 0.4375,0.125 0.03125,0.078125 0.03125,0.25 0.03125,0.34375 v 0.75 c 0,0.078125 0,0.140625 -0.03125,0.140625 C 2.421875,-3.140625 2.15625,-3.1875 2,-3.1875 Z m -0.234375,0.296875 c 0.40625,0 0.765625,0.203125 0.765625,0.359375 v 1.859375 c 0,0.109375 -0.296875,0.28125 -0.625,0.28125 -0.65625,0 -1.03125,-0.59375 -1.03125,-1.28125 0,-0.609375 0.34375,-1.21875 0.890625,-1.21875 z m 0,0"
               id="id-5182140d-65f6-498d-bcb7-75d4cc52cfc5" />
          </symbol>
        </g>
      </defs>
      <g
         id="id-fb31cc55-b3fd-453d-baab-0d39c7088f33"
         transform="translate(-148.638,-130.265)"
         style="fill:#506a68;stroke-width:0">
        <g
           style="fill:#506a68;fill-opacity:1;stroke-width:0"
           id="id-64188d70-4728-4ca6-9cc1-332dea56ba50">
          <g
             transform="translate(148.513,134.765)"
             style="fill:#506a68;stroke-width:0"
             id="g16905">
            <path
               style="fill:#506a68;stroke:none;stroke-width:0"
               d="m 1.453125,0.0625 c 1.796875,0 3.3125,-2.140625 3.3125,-3.734375 C 4.765625,-4.0625 4.546875,-4.5 4.09375,-4.5 c -0.296875,0 -0.703125,0.34375 -0.78125,0.578125 0.15625,0.15625 0.25,0.390625 0.25,0.59375 0,0.21875 -0.015625,0.546875 -0.109375,0.890625 -0.140625,0.546875 -0.34375,1.703125 -1.171875,1.703125 -0.3125,0 -0.53125,-0.109375 -0.53125,-0.3125 0,-0.5625 0.515625,-2.484375 0.515625,-2.921875 0,-0.28125 -0.234375,-0.53125 -0.5,-0.53125 -0.609375,0 -1.5,0.875 -1.640625,1.09375 0,0.0625 0.078125,0.171875 0.109375,0.171875 0.03125,-0.03125 0.421875,-0.53125 0.6875,-0.53125 0.140625,0 0.140625,0.171875 0.140625,0.25 l -0.421875,2.0625 C 0.5625,-1.09375 0.46875,-0.71875 0.46875,-0.53125 c 0,0.484375 0.515625,0.59375 0.984375,0.59375 z m 0,0"
               id="id-946fd24b-0746-4518-bab7-c777afcb0a86" />
          </g>
        </g>
        <g
           style="fill:#506a68;fill-opacity:1;stroke-width:0"
           id="id-843e05e4-1b2d-4c14-be89-94b2f63e065a">
          <g
             transform="translate(153.579,136.283)"
             style="fill:#506a68;stroke-width:0"
             id="g16909">
            <path
               style="fill:#506a68;stroke:none;stroke-width:0"
               d="m 2,-3.1875 c -0.65625,0 -1.71875,0.734375 -1.71875,1.6875 0,0.890625 0.609375,1.5625 1.28125,1.5625 0.34375,0 0.84375,-0.3125 0.953125,-0.4375 0.015625,-0.015625 0.015625,0.015625 0.015625,0.046875 v 0.25 c 0,0.046875 0.015625,0.140625 0.0625,0.140625 0,0 0.5625,-0.1875 0.9375,-0.203125 0.03125,0 0.046875,-0.09375 0.046875,-0.109375 0,-0.015625 0,-0.078125 -0.015625,-0.078125 -0.03125,-0.015625 -0.359375,0 -0.4375,-0.125 C 3.09375,-0.5625 3.078125,-0.875 3.078125,-1.15625 v -3.046875 c 0,-0.390625 0.09375,-0.609375 0.09375,-0.609375 0,-0.046875 -0.0625,-0.109375 -0.09375,-0.109375 -0.296875,0.125 -0.65625,0.234375 -1.015625,0.265625 -0.03125,0 -0.015625,0.1875 0,0.1875 0.1875,0 0.390625,0.015625 0.4375,0.125 0.03125,0.078125 0.03125,0.25 0.03125,0.34375 v 0.75 c 0,0.078125 0,0.140625 -0.03125,0.140625 C 2.421875,-3.140625 2.15625,-3.1875 2,-3.1875 Z m -0.234375,0.296875 c 0.40625,0 0.765625,0.203125 0.765625,0.359375 v 1.859375 c 0,0.109375 -0.296875,0.28125 -0.625,0.28125 -0.65625,0 -1.03125,-0.59375 -1.03125,-1.28125 0,-0.609375 0.34375,-1.21875 0.890625,-1.21875 z m 0,0"
               id="id-93462450-130c-4b06-add7-4ca4332d9b10" />
          </g>
        </g>
      </g>
    </g>
    <g
       transform="matrix(0.423334,0,0,0.423334,177.72934,34.684)"
       ns2:version="1.1.0"
       ns2:texconverter="pdflatex"
       ns2:pdfconverter="inkscape"
       ns2:text="$q$\n"
       ns2:preamble="C:\\Users\\flvisa\\Desktop\\lna\\latexify_books\\textext_preamble.tex"
       ns2:scale="1.2"
       ns2:alignment="middle center"
       ns2:inkscapeversion="1.0.1"
       ns2:jacobian_sqrt="0.423334"
       style="fill:#aa9e95;fill-opacity:1;stroke-width:0"
       id="g17527">
      <defs
         id="id-a79dad65-7148-45e3-a641-8af8000fa80d">
        <g
           id="id-f7e45acf-9e64-476f-a6ae-b3444c33741d"
           style="fill:#aa9e95;fill-opacity:1;stroke-width:0">
          <symbol
             overflow="visible"
             id="id-918d1041-45ae-472a-bb96-b428ff5cedac"
             style="fill:#aa9e95;fill-opacity:1;stroke-width:0">
            <path
               style="fill:#aa9e95;fill-opacity:1;stroke:none;stroke-width:0"
               d=""
               id="id-7831639b-76df-45f6-9c82-3aac7462800c" />
          </symbol>
          <symbol
             overflow="visible"
             id="id-adc070c8-99f1-46bc-a099-26db9939d62e"
             style="fill:#aa9e95;fill-opacity:1;stroke-width:0">
            <path
               style="fill:#aa9e95;fill-opacity:1;stroke:none;stroke-width:0"
               d="M 3.203125,2.296875 C 3.25,2.265625 3.265625,2.03125 3.21875,2.03125 2.765625,2.03125 2.75,1.859375 2.75,1.71875 2.75,1.59375 3.1875,-0.875 3.234375,-1.0625 l 0.625,-3.1875 C 3.671875,-4.328125 3.40625,-4.390625 3.0625,-4.390625 c -1.3125,0 -2.875,1.640625 -2.875,3.21875 0,0.59375 0.25,1.21875 0.875,1.21875 0.59375,0 1.296875,-1 1.5,-1.359375 L 2,1.71875 c -0.0625,0.265625 -0.390625,0.34375 -0.6875,0.375 -0.0625,0 -0.046875,0.25 -0.03125,0.265625 0.375,-0.03125 0.9375,-0.0625 1.515625,-0.0625 0.140625,0 0.265625,0 0.40625,0 z m -0.21875,-5.734375 -0.125,0.65625 c -0.1875,0.984375 -0.890625,2.25 -1.40625,2.25 -0.359375,0 -0.515625,-0.421875 -0.515625,-0.984375 0,-1.15625 0.875,-2.46875 1.6875,-2.46875 C 2.875,-3.984375 3,-3.75 3,-3.53125 3,-3.5 2.984375,-3.46875 2.984375,-3.4375 Z m 0,0"
               id="id-1b724b18-fc2d-468d-92e2-98c6ba0f9361" />
          </symbol>
        </g>
      </defs>
      <g
         id="id-beb4709f-7a82-4c3d-bd7d-0061efcf19da"
         transform="translate(-148.9,-130.374)"
         style="fill:#aa9e95;fill-opacity:1;stroke-width:0">
        <g
           style="fill:#aa9e95;fill-opacity:1;stroke-width:0"
           id="id-a9474667-0885-42b4-8c7e-62d3d4dc44f1">
          <g
             transform="translate(148.712,134.765)"
             style="fill:#aa9e95;fill-opacity:1;stroke-width:0"
             id="g17523">
            <path
               style="fill:#aa9e95;fill-opacity:1;stroke:none;stroke-width:0"
               d="M 3.203125,2.296875 C 3.25,2.265625 3.265625,2.03125 3.21875,2.03125 2.765625,2.03125 2.75,1.859375 2.75,1.71875 2.75,1.59375 3.1875,-0.875 3.234375,-1.0625 l 0.625,-3.1875 C 3.671875,-4.328125 3.40625,-4.390625 3.0625,-4.390625 c -1.3125,0 -2.875,1.640625 -2.875,3.21875 0,0.59375 0.25,1.21875 0.875,1.21875 0.59375,0 1.296875,-1 1.5,-1.359375 L 2,1.71875 c -0.0625,0.265625 -0.390625,0.34375 -0.6875,0.375 -0.0625,0 -0.046875,0.25 -0.03125,0.265625 0.375,-0.03125 0.9375,-0.0625 1.515625,-0.0625 0.140625,0 0.265625,0 0.40625,0 z m -0.21875,-5.734375 -0.125,0.65625 c -0.1875,0.984375 -0.890625,2.25 -1.40625,2.25 -0.359375,0 -0.515625,-0.421875 -0.515625,-0.984375 0,-1.15625 0.875,-2.46875 1.6875,-2.46875 C 2.875,-3.984375 3,-3.75 3,-3.53125 3,-3.5 2.984375,-3.46875 2.984375,-3.4375 Z m 0,0"
               id="id-8416ebb9-d7ba-4d21-9d60-994e97ae02ef" />
          </g>
        </g>
      </g>
    </g>
    <g
       transform="matrix(0.3175,0,0,0.3175,172.61931,40.379578)"
       ns2:version="1.1.0"
       ns2:texconverter="pdflatex"
       ns2:pdfconverter="inkscape"
       ns2:text="Electron\n\n"
       ns2:preamble="C:\\Users\\flvisa\\Desktop\\lna\\latexify_books\\textext_preamble.tex"
       ns2:scale="0.9"
       ns2:alignment="middle center"
       ns2:inkscapeversion="1.0.1"
       ns2:jacobian_sqrt="0.3175"
       style="fill:#000000;fill-opacity:1;stroke-width:0"
       id="g18421">
      <defs
         id="id-c2fe9553-a525-401e-9cda-6847097e4891">
        <g
           id="id-ee9ada32-3a75-45ff-abcb-2dd5e5722c16"
           style="fill:#aa9e95;fill-opacity:1;stroke-width:0">
          <symbol
             overflow="visible"
             id="id-1afc40ea-e683-43b3-9355-c0f0cab597c2"
             style="fill:#aa9e95;fill-opacity:1;stroke-width:0">
            <path
               style="fill:#aa9e95;fill-opacity:1;stroke:none;stroke-width:0"
               d="M 0.5,0 H 4.484375 V -4.8125 H 0.5 Z M 1,-0.5 V -4.3125 H 3.984375 V -0.5 Z m 0,0"
               id="id-bf50f28b-0d32-4fa4-a8fc-4972fde06835" />
          </symbol>
          <symbol
             overflow="visible"
             id="id-5595dbbe-f3a3-4495-99f3-14c6117f972a"
             style="fill:#aa9e95;fill-opacity:1;stroke-width:0">
            <path
               style="fill:#aa9e95;fill-opacity:1;stroke:none;stroke-width:0"
               d="m 1.578125,-6.40625 c -0.375,0 -0.734375,-0.015625 -1.140625,-0.03125 -0.046875,0.046875 -0.03125,0.234375 0,0.28125 0.125,0 0.640625,0.03125 0.671875,0.140625 0.046875,0.15625 0.046875,0.4375 0.046875,0.734375 V -1.125 c 0,0.28125 0,0.5625 -0.046875,0.71875 C 1.078125,-0.296875 0.5625,-0.25 0.4375,-0.25 c -0.03125,0.046875 -0.046875,0.234375 0,0.28125 C 0.8125,0.03125 1.140625,0 1.59375,0 c 1.296875,0 2.265625,0.046875 3.328125,0.046875 0.0625,-0.4375 0.328125,-1.09375 0.515625,-1.625 -0.03125,-0.03125 -0.140625,-0.0625 -0.25,-0.0625 -0.0625,0 -0.109375,0.03125 -0.125,0.0625 C 4.90625,-1.15625 4.75,-0.78125 4.453125,-0.59375 4.171875,-0.421875 3.671875,-0.328125 3.21875,-0.328125 H 2.75 c -0.40625,0 -0.5625,0 -0.6875,-0.09375 C 2,-0.484375 2,-0.953125 2,-1.09375 v -1.859375 c 0,-0.09375 0.4375,-0.09375 0.703125,-0.09375 0.375,0 0.921875,0.015625 1.03125,0.09375 C 3.828125,-2.90625 3.859375,-2.875 4,-2.3125 4.03125,-2.265625 4.09375,-2.25 4.171875,-2.25 c 0.0625,0 0.140625,-0.015625 0.15625,-0.03125 v -1.828125 c -0.03125,-0.03125 -0.09375,-0.0625 -0.171875,-0.0625 -0.0625,0 -0.140625,0.03125 -0.15625,0.078125 -0.15625,0.640625 -0.125,0.6875 -1.0625,0.6875 H 2.421875 C 2.21875,-3.40625 2,-3.40625 2,-3.453125 V -5.28125 c 0,-0.25 0,-0.53125 0.046875,-0.6875 0.03125,-0.109375 0.5625,-0.109375 0.671875,-0.109375 H 3.5625 c 0.515625,0 0.921875,0.140625 1.125,0.921875 0.015625,0.046875 0.0625,0.0625 0.140625,0.0625 0.0625,0 0.140625,-0.015625 0.171875,-0.046875 -0.078125,-0.4375 -0.203125,-0.828125 -0.28125,-1.3125 -1.046875,0 -2.21875,0.046875 -3.140625,0.046875 z m 0,0"
               id="id-4e82d8e3-00cc-4c74-9a54-3d485d156902" />
          </symbol>
          <symbol
             overflow="visible"
             id="id-d0acaa14-8afc-451f-bbd3-965d8f11e920"
             style="fill:#aa9e95;fill-opacity:1;stroke-width:0">
            <path
               style="fill:#aa9e95;fill-opacity:1;stroke:none;stroke-width:0"
               d="m 0.890625,-5.4375 v 4.3125 c 0,0.28125 0,0.5625 -0.046875,0.71875 -0.03125,0.109375 -0.5,0.15625 -0.625,0.15625 V 0.03125 C 0.625,0.015625 0.875,-0.015625 1.25,-0.015625 c 0.390625,0 0.65625,0.03125 1.078125,0.046875 V -0.25 C 2.1875,-0.25 1.71875,-0.296875 1.6875,-0.40625 1.640625,-0.5625 1.640625,-0.84375 1.640625,-1.125 V -5.75 C 1.640625,-6.296875 1.75,-6.59375 1.75,-6.59375 1.75,-6.671875 1.6875,-6.765625 1.640625,-6.765625 1.21875,-6.5625 0.734375,-6.421875 0.234375,-6.375 c -0.046875,0.015625 -0.015625,0.265625 0,0.265625 0.265625,0 0.546875,0.03125 0.609375,0.171875 0.046875,0.109375 0.046875,0.359375 0.046875,0.5 z m 0,0"
               id="id-8698a938-ec95-4c72-96d2-4b38a9eaeed6" />
          </symbol>
          <symbol
             overflow="visible"
             id="id-48f0a702-9a6d-46ad-a5d8-ec7c92fcfa07"
             style="fill:#aa9e95;fill-opacity:1;stroke-width:0">
            <path
               style="fill:#aa9e95;fill-opacity:1;stroke:none;stroke-width:0"
               d="m 1.140625,-2.828125 c -0.03125,0 0.203125,-1.1875 1.046875,-1.1875 0.609375,0 0.796875,0.65625 0.796875,0.9375 0,0.203125 -0.109375,0.25 -0.21875,0.25 z M 1.09375,-2.46875 c 0.109375,0 2.1875,-0.046875 2.484375,-0.078125 0.1875,0 0.234375,-0.1875 0.234375,-0.46875 0,-0.390625 -0.296875,-1.34375 -1.484375,-1.34375 -0.859375,0 -1.921875,1.03125 -1.921875,2.359375 0,1.1875 0.796875,2.078125 1.96875,2.078125 0.765625,0 1.25,-0.5625 1.4375,-0.828125 0.03125,-0.0625 0.0625,-0.140625 0.0625,-0.1875 0,-0.09375 -0.078125,-0.140625 -0.09375,-0.140625 -0.125,0.15625 -0.515625,0.53125 -1.0625,0.53125 -0.859375,0 -1.625,-0.625 -1.625,-1.859375 z m 0,0"
               id="id-1876dbe1-0887-4eaf-b48c-6fd9e7416dd1" />
          </symbol>
          <symbol
             overflow="visible"
             id="id-063882f5-e4d9-4adb-8ca5-6fe2662ed80b"
             style="fill:#aa9e95;fill-opacity:1;stroke-width:0">
            <path
               style="fill:#aa9e95;fill-opacity:1;stroke:none;stroke-width:0"
               d="m 3.78125,-3.84375 c 0,-0.109375 -0.046875,-0.25 -0.09375,-0.28125 -0.234375,-0.15625 -0.546875,-0.234375 -0.890625,-0.234375 -1.046875,0 -2.40625,0.96875 -2.40625,2.421875 0,1.046875 0.796875,2.015625 2,2.015625 0.765625,0 1.265625,-0.5625 1.453125,-0.828125 0.03125,-0.0625 0.046875,-0.140625 0.046875,-0.1875 0,-0.078125 -0.0625,-0.125 -0.078125,-0.125 -0.125,0.140625 -0.5,0.5 -1.046875,0.5 -0.90625,0 -1.625,-0.53125 -1.625,-1.703125 0,-1.046875 0.59375,-1.671875 1.125,-1.671875 0.25,0 0.34375,0.046875 0.5625,0.203125 C 3,-3.625 3.203125,-3.375 3.40625,-3.375 c 0.1875,0 0.375,-0.125 0.375,-0.46875 z m 0,0"
               id="id-a12c1086-c8aa-4b1e-b236-2f079dd73b36" />
          </symbol>
          <symbol
             overflow="visible"
             id="id-21fd3c00-09ca-4182-80db-f17bdea3285b"
             style="fill:#aa9e95;fill-opacity:1;stroke-width:0">
            <path
               style="fill:#aa9e95;fill-opacity:1;stroke:none;stroke-width:0"
               d="m 1.578125,-4.3125 v -1.171875 c 0,-0.03125 -0.109375,-0.03125 -0.15625,0.015625 -0.015625,0.015625 -0.40625,0.40625 -0.59375,0.609375 V -4.3125 h -0.375 c 0,0.015625 -0.25,0.28125 -0.25,0.3125 0,0.03125 0.015625,0.09375 0.046875,0.09375 h 0.578125 v 2.890625 c 0,0.859375 0.53125,1.078125 1.03125,1.078125 0.484375,0 0.875,-0.375 1.015625,-0.53125 0,-0.015625 0.03125,-0.09375 0.03125,-0.15625 0,-0.03125 0,-0.046875 -0.03125,-0.0625 -0.0625,0.046875 -0.34375,0.234375 -0.625,0.234375 -0.453125,0 -0.671875,-0.296875 -0.671875,-0.828125 v -2.625 h 1.1875 C 2.859375,-4 2.90625,-4.109375 2.90625,-4.203125 c 0,-0.046875 0,-0.109375 -0.046875,-0.109375 z m 0,0"
               id="id-44c1690e-6578-4f7e-8256-6feebce2e3a9" />
          </symbol>
          <symbol
             overflow="visible"
             id="id-cd632fce-d076-49e6-a563-3aab66aaf042"
             style="fill:#aa9e95;fill-opacity:1;stroke-width:0">
            <path
               style="fill:#aa9e95;fill-opacity:1;stroke:none;stroke-width:0"
               d="m 3,-4.359375 c -0.453125,0 -0.96875,0.640625 -1.171875,1.0625 0,0 -0.046875,0.015625 -0.046875,-0.015625 0,-0.109375 0.078125,-0.84375 0.078125,-0.921875 0,-0.015625 -0.0625,-0.046875 -0.109375,-0.046875 -0.390625,0.15625 -0.90625,0.25 -1.40625,0.296875 v 0.265625 c 0.0625,0 0.578125,0 0.640625,0.1875 0.046875,0.109375 0.046875,0.375 0.046875,0.515625 v 1.859375 c 0,0.296875 0,0.578125 -0.046875,0.75 -0.03125,0.109375 -0.5,0.15625 -0.625,0.15625 V 0.03125 C 0.75,0.015625 1.09375,-0.015625 1.46875,-0.015625 c 0.390625,0 0.828125,0.03125 1.234375,0.046875 V -0.25 c -0.125,0 -0.828125,-0.046875 -0.859375,-0.15625 -0.0625,-0.171875 -0.0625,-0.453125 -0.0625,-0.75 v -1.546875 c 0,-0.234375 0.375,-0.90625 0.796875,-0.90625 0.1875,0 0.28125,0.0625 0.375,0.125 0.109375,0.078125 0.234375,0.1875 0.359375,0.1875 0.109375,0 0.34375,-0.140625 0.34375,-0.515625 C 3.65625,-3.921875 3.625,-4 3.609375,-4.0625 3.515625,-4.234375 3.265625,-4.359375 3,-4.359375 Z m 0,0"
               id="id-c596879b-18c4-427c-9a8d-1c401346f40d" />
          </symbol>
          <symbol
             overflow="visible"
             id="id-f43ee7db-025f-4674-9f3b-2c98fa796cfc"
             style="fill:#aa9e95;fill-opacity:1;stroke-width:0">
            <path
               style="fill:#aa9e95;fill-opacity:1;stroke:none;stroke-width:0"
               d="m 2.40625,-4.046875 c 0.890625,0 1.375,1.109375 1.375,2.078125 0,0.859375 -0.296875,1.71875 -1.15625,1.71875 -0.890625,0 -1.375,-1.109375 -1.375,-2.078125 0,-0.859375 0.3125,-1.71875 1.15625,-1.71875 z M 2.515625,-4.375 c -1.203125,0 -2.109375,0.96875 -2.109375,2.25 0,1.25 0.8125,2.1875 2.125,2.1875 1.203125,0 2.09375,-0.984375 2.09375,-2.265625 0,-1.25 -0.8125,-2.171875 -2.109375,-2.171875 z m 0,0"
               id="id-92099f29-4002-46cb-9125-99adb68629de" />
          </symbol>
          <symbol
             overflow="visible"
             id="id-7037da61-dc61-4813-ae3c-30b40a3a249a"
             style="fill:#aa9e95;fill-opacity:1;stroke-width:0">
            <path
               style="fill:#aa9e95;fill-opacity:1;stroke:none;stroke-width:0"
               d="m 3.1875,-4.359375 c -0.484375,0 -1.140625,0.5 -1.328125,0.703125 -0.015625,0.015625 -0.03125,0.03125 -0.03125,0.03125 -0.03125,0 -0.03125,-0.03125 -0.03125,-0.046875 0,-0.078125 0.0625,-0.484375 0.0625,-0.5625 0,-0.015625 -0.0625,-0.046875 -0.109375,-0.046875 -0.390625,0.15625 -0.90625,0.25 -1.40625,0.296875 v 0.265625 c 0.0625,0 0.578125,0 0.640625,0.1875 0.046875,0.109375 0.046875,0.421875 0.046875,0.546875 v 1.828125 c 0,0.296875 0,0.578125 -0.046875,0.75 -0.03125,0.109375 -0.5,0.15625 -0.625,0.15625 V 0.03125 C 0.75,0.015625 1.03125,-0.015625 1.40625,-0.015625 c 0.390625,0 0.640625,0.03125 1.0625,0.046875 V -0.25 c -0.125,0 -0.59375,-0.046875 -0.625,-0.15625 -0.0625,-0.171875 -0.0625,-0.453125 -0.0625,-0.75 v -2.078125 c 0,-0.109375 0.59375,-0.5625 0.953125,-0.5625 0.78125,0 0.96875,0.390625 0.96875,1.640625 v 1 c 0,0.296875 0,0.578125 -0.046875,0.75 C 3.625,-0.296875 3.15625,-0.25 3.03125,-0.25 V 0.03125 C 3.4375,0.015625 3.6875,-0.015625 4.078125,-0.015625 c 0.390625,0 0.65625,0.03125 1.0625,0.046875 V -0.25 C 5.015625,-0.25 4.53125,-0.296875 4.5,-0.40625 4.453125,-0.578125 4.453125,-0.84375 4.453125,-1.140625 V -2.25 C 4.453125,-3.703125 4.25,-4.359375 3.1875,-4.359375 Z m 0,0"
               id="id-0f978013-6a53-4b91-96c6-70723ab34635" />
          </symbol>
        </g>
      </defs>
      <g
         id="id-e8ed8076-615a-4c2a-9994-53b8476a2882"
         transform="translate(-149.12,-127.999)"
         style="fill:#000000;fill-opacity:1;stroke-width:0">
        <g
           style="fill:#000000;fill-opacity:1;stroke-width:0"
           id="id-0cfd05a3-6d90-490f-8c44-5917f64caf08">
          <g
             transform="translate(148.712,134.765)"
             style="fill:#000000;fill-opacity:1;stroke-width:0"
             id="g18395">
            <path
               style="fill:#000000;fill-opacity:1;stroke:none;stroke-width:0"
               d="m 1.578125,-6.40625 c -0.375,0 -0.734375,-0.015625 -1.140625,-0.03125 -0.046875,0.046875 -0.03125,0.234375 0,0.28125 0.125,0 0.640625,0.03125 0.671875,0.140625 0.046875,0.15625 0.046875,0.4375 0.046875,0.734375 V -1.125 c 0,0.28125 0,0.5625 -0.046875,0.71875 C 1.078125,-0.296875 0.5625,-0.25 0.4375,-0.25 c -0.03125,0.046875 -0.046875,0.234375 0,0.28125 C 0.8125,0.03125 1.140625,0 1.59375,0 c 1.296875,0 2.265625,0.046875 3.328125,0.046875 0.0625,-0.4375 0.328125,-1.09375 0.515625,-1.625 -0.03125,-0.03125 -0.140625,-0.0625 -0.25,-0.0625 -0.0625,0 -0.109375,0.03125 -0.125,0.0625 C 4.90625,-1.15625 4.75,-0.78125 4.453125,-0.59375 4.171875,-0.421875 3.671875,-0.328125 3.21875,-0.328125 H 2.75 c -0.40625,0 -0.5625,0 -0.6875,-0.09375 C 2,-0.484375 2,-0.953125 2,-1.09375 v -1.859375 c 0,-0.09375 0.4375,-0.09375 0.703125,-0.09375 0.375,0 0.921875,0.015625 1.03125,0.09375 C 3.828125,-2.90625 3.859375,-2.875 4,-2.3125 4.03125,-2.265625 4.09375,-2.25 4.171875,-2.25 c 0.0625,0 0.140625,-0.015625 0.15625,-0.03125 v -1.828125 c -0.03125,-0.03125 -0.09375,-0.0625 -0.171875,-0.0625 -0.0625,0 -0.140625,0.03125 -0.15625,0.078125 -0.15625,0.640625 -0.125,0.6875 -1.0625,0.6875 H 2.421875 C 2.21875,-3.40625 2,-3.40625 2,-3.453125 V -5.28125 c 0,-0.25 0,-0.53125 0.046875,-0.6875 0.03125,-0.109375 0.5625,-0.109375 0.671875,-0.109375 H 3.5625 c 0.515625,0 0.921875,0.140625 1.125,0.921875 0.015625,0.046875 0.0625,0.0625 0.140625,0.0625 0.0625,0 0.140625,-0.015625 0.171875,-0.046875 -0.078125,-0.4375 -0.203125,-0.828125 -0.28125,-1.3125 -1.046875,0 -2.21875,0.046875 -3.140625,0.046875 z m 0,0"
               id="id-fc35d586-2d21-417f-859d-ce464be18a5a" />
          </g>
          <g
             transform="translate(154.421,134.765)"
             style="fill:#000000;fill-opacity:1;stroke-width:0"
             id="g18398">
            <path
               style="fill:#000000;fill-opacity:1;stroke:none;stroke-width:0"
               d="m 0.890625,-5.4375 v 4.3125 c 0,0.28125 0,0.5625 -0.046875,0.71875 -0.03125,0.109375 -0.5,0.15625 -0.625,0.15625 V 0.03125 C 0.625,0.015625 0.875,-0.015625 1.25,-0.015625 c 0.390625,0 0.65625,0.03125 1.078125,0.046875 V -0.25 C 2.1875,-0.25 1.71875,-0.296875 1.6875,-0.40625 1.640625,-0.5625 1.640625,-0.84375 1.640625,-1.125 V -5.75 C 1.640625,-6.296875 1.75,-6.59375 1.75,-6.59375 1.75,-6.671875 1.6875,-6.765625 1.640625,-6.765625 1.21875,-6.5625 0.734375,-6.421875 0.234375,-6.375 c -0.046875,0.015625 -0.015625,0.265625 0,0.265625 0.265625,0 0.546875,0.03125 0.609375,0.171875 0.046875,0.109375 0.046875,0.359375 0.046875,0.5 z m 0,0"
               id="id-27cdf85a-3fd8-4596-8009-fe7980beb0b9" />
          </g>
          <g
             transform="translate(156.931,134.765)"
             style="fill:#000000;fill-opacity:1;stroke-width:0"
             id="g18401">
            <path
               style="fill:#000000;fill-opacity:1;stroke:none;stroke-width:0"
               d="m 1.140625,-2.828125 c -0.03125,0 0.203125,-1.1875 1.046875,-1.1875 0.609375,0 0.796875,0.65625 0.796875,0.9375 0,0.203125 -0.109375,0.25 -0.21875,0.25 z M 1.09375,-2.46875 c 0.109375,0 2.1875,-0.046875 2.484375,-0.078125 0.1875,0 0.234375,-0.1875 0.234375,-0.46875 0,-0.390625 -0.296875,-1.34375 -1.484375,-1.34375 -0.859375,0 -1.921875,1.03125 -1.921875,2.359375 0,1.1875 0.796875,2.078125 1.96875,2.078125 0.765625,0 1.25,-0.5625 1.4375,-0.828125 0.03125,-0.0625 0.0625,-0.140625 0.0625,-0.1875 0,-0.09375 -0.078125,-0.140625 -0.09375,-0.140625 -0.125,0.15625 -0.515625,0.53125 -1.0625,0.53125 -0.859375,0 -1.625,-0.625 -1.625,-1.859375 z m 0,0"
               id="id-d29e7a4c-75db-4bbc-a4f0-040079101379" />
          </g>
          <g
             transform="translate(161.145,134.765)"
             style="fill:#000000;fill-opacity:1;stroke-width:0"
             id="g18404">
            <path
               style="fill:#000000;fill-opacity:1;stroke:none;stroke-width:0"
               d="m 3.78125,-3.84375 c 0,-0.109375 -0.046875,-0.25 -0.09375,-0.28125 -0.234375,-0.15625 -0.546875,-0.234375 -0.890625,-0.234375 -1.046875,0 -2.40625,0.96875 -2.40625,2.421875 0,1.046875 0.796875,2.015625 2,2.015625 0.765625,0 1.265625,-0.5625 1.453125,-0.828125 0.03125,-0.0625 0.046875,-0.140625 0.046875,-0.1875 0,-0.078125 -0.0625,-0.125 -0.078125,-0.125 -0.125,0.140625 -0.5,0.5 -1.046875,0.5 -0.90625,0 -1.625,-0.53125 -1.625,-1.703125 0,-1.046875 0.59375,-1.671875 1.125,-1.671875 0.25,0 0.34375,0.046875 0.5625,0.203125 C 3,-3.625 3.203125,-3.375 3.40625,-3.375 c 0.1875,0 0.375,-0.125 0.375,-0.46875 z m 0,0"
               id="id-1981b004-3c2b-4818-a029-82bdfcfbcc3f" />
          </g>
          <g
             transform="translate(165.32,134.765)"
             style="fill:#000000;fill-opacity:1;stroke-width:0"
             id="g18407">
            <path
               style="fill:#000000;fill-opacity:1;stroke:none;stroke-width:0"
               d="m 1.578125,-4.3125 v -1.171875 c 0,-0.03125 -0.109375,-0.03125 -0.15625,0.015625 -0.015625,0.015625 -0.40625,0.40625 -0.59375,0.609375 V -4.3125 h -0.375 c 0,0.015625 -0.25,0.28125 -0.25,0.3125 0,0.03125 0.015625,0.09375 0.046875,0.09375 h 0.578125 v 2.890625 c 0,0.859375 0.53125,1.078125 1.03125,1.078125 0.484375,0 0.875,-0.375 1.015625,-0.53125 0,-0.015625 0.03125,-0.09375 0.03125,-0.15625 0,-0.03125 0,-0.046875 -0.03125,-0.0625 -0.0625,0.046875 -0.34375,0.234375 -0.625,0.234375 -0.453125,0 -0.671875,-0.296875 -0.671875,-0.828125 v -2.625 h 1.1875 C 2.859375,-4 2.90625,-4.109375 2.90625,-4.203125 c 0,-0.046875 0,-0.109375 -0.046875,-0.109375 z m 0,0"
               id="id-2f9adfc7-9a6c-4a7a-bf3b-bf442d41ab08" />
          </g>
          <g
             transform="translate(168.378,134.765)"
             style="fill:#000000;fill-opacity:1;stroke-width:0"
             id="g18410">
            <path
               style="fill:#000000;fill-opacity:1;stroke:none;stroke-width:0"
               d="m 3,-4.359375 c -0.453125,0 -0.96875,0.640625 -1.171875,1.0625 0,0 -0.046875,0.015625 -0.046875,-0.015625 0,-0.109375 0.078125,-0.84375 0.078125,-0.921875 0,-0.015625 -0.0625,-0.046875 -0.109375,-0.046875 -0.390625,0.15625 -0.90625,0.25 -1.40625,0.296875 v 0.265625 c 0.0625,0 0.578125,0 0.640625,0.1875 0.046875,0.109375 0.046875,0.375 0.046875,0.515625 v 1.859375 c 0,0.296875 0,0.578125 -0.046875,0.75 -0.03125,0.109375 -0.5,0.15625 -0.625,0.15625 V 0.03125 C 0.75,0.015625 1.09375,-0.015625 1.46875,-0.015625 c 0.390625,0 0.828125,0.03125 1.234375,0.046875 V -0.25 c -0.125,0 -0.828125,-0.046875 -0.859375,-0.15625 -0.0625,-0.171875 -0.0625,-0.453125 -0.0625,-0.75 v -1.546875 c 0,-0.234375 0.375,-0.90625 0.796875,-0.90625 0.1875,0 0.28125,0.0625 0.375,0.125 0.109375,0.078125 0.234375,0.1875 0.359375,0.1875 0.109375,0 0.34375,-0.140625 0.34375,-0.515625 C 3.65625,-3.921875 3.625,-4 3.609375,-4.0625 3.515625,-4.234375 3.265625,-4.359375 3,-4.359375 Z m 0,0"
               id="id-df033198-0b64-4205-8f55-e0e9b5ccd271" />
          </g>
        </g>
        <g
           style="fill:#000000;fill-opacity:1;stroke-width:0"
           id="id-b2a233a3-98a5-4be6-a3e1-3f16d5f7a53a">
          <g
             transform="translate(172.124,134.765)"
             style="fill:#000000;fill-opacity:1;stroke-width:0"
             id="g18414">
            <path
               style="fill:#000000;fill-opacity:1;stroke:none;stroke-width:0"
               d="m 2.40625,-4.046875 c 0.890625,0 1.375,1.109375 1.375,2.078125 0,0.859375 -0.296875,1.71875 -1.15625,1.71875 -0.890625,0 -1.375,-1.109375 -1.375,-2.078125 0,-0.859375 0.3125,-1.71875 1.15625,-1.71875 z M 2.515625,-4.375 c -1.203125,0 -2.109375,0.96875 -2.109375,2.25 0,1.25 0.8125,2.1875 2.125,2.1875 1.203125,0 2.09375,-0.984375 2.09375,-2.265625 0,-1.25 -0.8125,-2.171875 -2.109375,-2.171875 z m 0,0"
               id="id-6db4c7a3-06f8-4769-95bc-2b6a20a2cb1c" />
          </g>
          <g
             transform="translate(177.135,134.765)"
             style="fill:#000000;fill-opacity:1;stroke-width:0"
             id="g18417">
            <path
               style="fill:#000000;fill-opacity:1;stroke:none;stroke-width:0"
               d="m 3.1875,-4.359375 c -0.484375,0 -1.140625,0.5 -1.328125,0.703125 -0.015625,0.015625 -0.03125,0.03125 -0.03125,0.03125 -0.03125,0 -0.03125,-0.03125 -0.03125,-0.046875 0,-0.078125 0.0625,-0.484375 0.0625,-0.5625 0,-0.015625 -0.0625,-0.046875 -0.109375,-0.046875 -0.390625,0.15625 -0.90625,0.25 -1.40625,0.296875 v 0.265625 c 0.0625,0 0.578125,0 0.640625,0.1875 0.046875,0.109375 0.046875,0.421875 0.046875,0.546875 v 1.828125 c 0,0.296875 0,0.578125 -0.046875,0.75 -0.03125,0.109375 -0.5,0.15625 -0.625,0.15625 V 0.03125 C 0.75,0.015625 1.03125,-0.015625 1.40625,-0.015625 c 0.390625,0 0.640625,0.03125 1.0625,0.046875 V -0.25 c -0.125,0 -0.59375,-0.046875 -0.625,-0.15625 -0.0625,-0.171875 -0.0625,-0.453125 -0.0625,-0.75 v -2.078125 c 0,-0.109375 0.59375,-0.5625 0.953125,-0.5625 0.78125,0 0.96875,0.390625 0.96875,1.640625 v 1 c 0,0.296875 0,0.578125 -0.046875,0.75 C 3.625,-0.296875 3.15625,-0.25 3.03125,-0.25 V 0.03125 C 3.4375,0.015625 3.6875,-0.015625 4.078125,-0.015625 c 0.390625,0 0.65625,0.03125 1.0625,0.046875 V -0.25 C 5.015625,-0.25 4.53125,-0.296875 4.5,-0.40625 4.453125,-0.578125 4.453125,-0.84375 4.453125,-1.140625 V -2.25 C 4.453125,-3.703125 4.25,-4.359375 3.1875,-4.359375 Z m 0,0"
               id="id-bc60b77c-fdf2-4cb5-9492-dce6f06ba4d0" />
          </g>
        </g>
      </g>
    </g>
  </g>
</svg>
