<?xml version="1.0" encoding="UTF-8" standalone="no"?>
<svg
   xmlns:ns2="http://www.iki.fi/pav/software/textext/"
   xmlns:dc="http://purl.org/dc/elements/1.1/"
   xmlns:cc="http://creativecommons.org/ns#"
   xmlns:rdf="http://www.w3.org/1999/02/22-rdf-syntax-ns#"
   xmlns:svg="http://www.w3.org/2000/svg"
   xmlns="http://www.w3.org/2000/svg"
   xmlns:sodipodi="http://sodipodi.sourceforge.net/DTD/sodipodi-0.dtd"
   xmlns:inkscape="http://www.inkscape.org/namespaces/inkscape"
   width="37.840675mm"
   height="35.533161mm"
   viewBox="0 0 37.840675 35.533161"
   version="1.1"
   id="svg12968"
   inkscape:version="1.0.1 (3bc2e813f5, 2020-09-07)"
   sodipodi:docname="fig_20_1.svg">
  <defs
     id="defs12962">
    <marker
       style="overflow:visible"
       id="Arrow1Mstart"
       refX="0"
       refY="0"
       orient="auto"
       inkscape:stockid="Arrow1Mstart"
       inkscape:isstock="true">
      <path
         transform="matrix(0.4,0,0,0.4,4,0)"
         style="fill:#000000;fill-opacity:1;fill-rule:evenodd;stroke:#000000;stroke-width:1pt;stroke-opacity:1"
         d="M 0,0 5,-5 -12.5,0 5,5 Z"
         id="path13552" />
    </marker>
    <marker
       style="overflow:visible"
       id="Arrow1Mend"
       refX="0"
       refY="0"
       orient="auto"
       inkscape:stockid="Arrow1Mend"
       inkscape:isstock="true">
      <path
         transform="matrix(-0.4,0,0,-0.4,-4,0)"
         style="fill:#000000;fill-opacity:1;fill-rule:evenodd;stroke:#000000;stroke-width:1pt;stroke-opacity:1"
         d="M 0,0 5,-5 -12.5,0 5,5 Z"
         id="path13555" />
    </marker>
    <pattern
       id="EMFhbasepattern"
       patternUnits="userSpaceOnUse"
       width="6"
       height="6"
       x="0"
       y="0" />
    <g
       style="fill:#3a493f;stroke-width:0"
       id="g3367">
      <symbol
         style="fill:#3a493f;stroke-width:0"
         overflow="visible"
         id="symbol3361">
        <path
           style="fill:#3a493f;stroke:none;stroke-width:0"
           d="M 0.5,0 H 4.484375 V -4.8125 H 0.5 Z M 1,-0.5 V -4.3125 H 3.984375 V -0.5 Z m 0,0"
           id="path3359" />
      </symbol>
      <symbol
         style="fill:#3a493f;stroke-width:0"
         overflow="visible"
         id="symbol3365">
        <path
           style="fill:#3a493f;stroke:none;stroke-width:0"
           d="m 2.484375,-5.875 c 0.71875,0 1.203125,1.1875 1.203125,2.71875 0,1.515625 -0.4375,2.828125 -1.3125,2.828125 -0.703125,0 -1.21875,-1.25 -1.21875,-2.78125 0,-1.53125 0.515625,-2.765625 1.328125,-2.765625 z m -0.0625,-0.359375 c -1.34375,0 -2.125,1.421875 -2.125,3.125 0,1.6875 0.796875,3.140625 2.125,3.140625 1.34375,0 2.125,-1.453125 2.125,-3.140625 0,-1.703125 -0.765625,-3.125 -2.125,-3.125 z m 0,0"
           id="path3363" />
      </symbol>
    </g>
    <g
       id="g65727">
      <symbol
         overflow="visible"
         id="symbol65713">
        <path
           style="stroke:none"
           d=""
           id="path65711" />
      </symbol>
      <symbol
         overflow="visible"
         id="symbol65717">
        <path
           style="stroke:none"
           d="M 2.953125,-4.921875 C 2.953125,-6.015625 2.796875,-7 2.1875,-7 1.859375,-7 1.390625,-6.625 1.203125,-6.1875 1.1875,-6.125 1.234375,-6 1.28125,-6 c 0.078125,-0.09375 0.40625,-0.328125 0.625,-0.328125 0.578125,0 0.71875,0.640625 0.71875,1.5 0,0.171875 0,0.359375 -0.015625,0.546875 -0.078125,0.4375 -2.1875,3.46875 -3,3.921875 0,0.109375 0.265625,0.4375 0.421875,0.4375 0.03125,0 0.109375,-0.015625 0.171875,-0.046875 0.25,-0.328125 1.875,-2.265625 2.34375,-3.078125 C 2.53125,-2.734375 2.5,-2.328125 2.5,-1.890625 c 0,0.9375 0.125,1.9375 0.703125,1.9375 0.359375,0 0.71875,-0.421875 0.84375,-0.734375 0.015625,-0.03125 -0.015625,-0.1875 -0.0625,-0.234375 -0.109375,0.125 -0.296875,0.25 -0.5,0.25 -0.171875,0 -0.46875,-0.109375 -0.578125,-0.65625 C 2.875,-1.53125 2.84375,-1.875 2.84375,-2.375 c 0,-0.75 0.109375,-1.734375 0.109375,-2.546875 z m 0,0"
           id="path65715" />
      </symbol>
      <symbol
         overflow="visible"
         id="symbol65721">
        <path
           style="stroke:none"
           d="m 0.359375,0 h 2.90625 V -3.515625 H 0.359375 Z M 0.71875,-0.359375 v -2.78125 h 2.1875 v 2.78125 z m 0,0"
           id="path65719" />
      </symbol>
      <symbol
         overflow="visible"
         id="symbol65725">
        <path
           style="stroke:none"
           d="m 1.8125,-4.28125 c 0.515625,0 0.875,0.859375 0.875,1.984375 0,1.109375 -0.3125,2.0625 -0.953125,2.0625 -0.515625,0 -0.890625,-0.921875 -0.890625,-2.03125 0,-1.109375 0.375,-2.015625 0.96875,-2.015625 z M 1.765625,-4.546875 c -0.984375,0 -1.546875,1.046875 -1.546875,2.28125 0,1.234375 0.578125,2.28125 1.546875,2.28125 0.984375,0 1.546875,-1.046875 1.546875,-2.28125 0,-1.234375 -0.546875,-2.28125 -1.546875,-2.28125 z m 0,0"
           id="path65723" />
      </symbol>
    </g>
  </defs>
  <sodipodi:namedview
     id="base"
     pagecolor="#ffffff"
     bordercolor="#666666"
     borderopacity="1.0"
     inkscape:pageopacity="0.0"
     inkscape:pageshadow="2"
     inkscape:zoom="5.6"
     inkscape:cx="63.842831"
     inkscape:cy="109.88931"
     inkscape:document-units="mm"
     inkscape:current-layer="layer1"
     inkscape:document-rotation="0"
     showgrid="false"
     inkscape:window-width="1600"
     inkscape:window-height="837"
     inkscape:window-x="-8"
     inkscape:window-y="-8"
     inkscape:window-maximized="1" />
  <metadata
     id="metadata12965">
    <rdf:RDF>
      <cc:Work
         rdf:about="">
        <dc:format>image/svg+xml</dc:format>
        <dc:type
           rdf:resource="http://purl.org/dc/dcmitype/StillImage" />
        <dc:title />
      </cc:Work>
    </rdf:RDF>
  </metadata>
  <g
     inkscape:label="Layer 1"
     inkscape:groupmode="layer"
     id="layer1"
     transform="translate(-56.682894,-14.918608)">
    <path
       style="fill:none;stroke:#000000;stroke-width:0.264583;stroke-linecap:round;stroke-linejoin:round;stroke-miterlimit:4;stroke-dasharray:none;stroke-opacity:1;marker-start:url(#Arrow1Mstart);marker-end:url(#Arrow1Mend)"
       d="M 60.056253,15.440017 V 45.732022 H 94.00216"
       id="path13544" />
    <path
       style="fill:none;stroke:#506a65;stroke-width:0.529167;stroke-linecap:round;stroke-linejoin:miter;stroke-miterlimit:4;stroke-dasharray:none;stroke-opacity:1"
       d="m 63.82802,22.718349 c 7.310024,8.393135 19.753343,7.543535 28.43559,7.543535"
       id="path13872"
       sodipodi:nodetypes="cc" />
    <g
       id="g3286"
       style="fill:#000000;stroke-width:0"
       ns2:jacobian_sqrt="0.423334"
       ns2:inkscapeversion="1.0"
       ns2:alignment="middle center"
       ns2:scale="1.1999998866143555"
       ns2:preamble="C:\\Users\\flvisa\\Desktop\\lna\\latexify_books\\textext_preamble.tex"
       ns2:text="$0$"
       ns2:pdfconverter="inkscape"
       ns2:texconverter="pdflatex"
       ns2:version="1.1.0"
       transform="matrix(0.42333399,0,0,0.42333399,57.241926,45.665064)">
      <defs
         id="id-c9b5e3a1-af6b-45d7-8f9c-7fa4577b7189">
        <g
           style="fill:#3a493f;stroke-width:0"
           id="g13966">
          <symbol
             style="fill:#3a493f;stroke-width:0"
             overflow="visible"
             id="symbol13960">
            <path
               style="fill:#3a493f;stroke:none;stroke-width:0"
               d="M 0.5,0 H 4.484375 V -4.8125 H 0.5 Z M 1,-0.5 V -4.3125 H 3.984375 V -0.5 Z m 0,0"
               id="path13958" />
          </symbol>
          <symbol
             style="fill:#3a493f;stroke-width:0"
             overflow="visible"
             id="symbol13964">
            <path
               style="fill:#3a493f;stroke:none;stroke-width:0"
               d="m 2.484375,-5.875 c 0.71875,0 1.203125,1.1875 1.203125,2.71875 0,1.515625 -0.4375,2.828125 -1.3125,2.828125 -0.703125,0 -1.21875,-1.25 -1.21875,-2.78125 0,-1.53125 0.515625,-2.765625 1.328125,-2.765625 z m -0.0625,-0.359375 c -1.34375,0 -2.125,1.421875 -2.125,3.125 0,1.6875 0.796875,3.140625 2.125,3.140625 1.34375,0 2.125,-1.453125 2.125,-3.140625 0,-1.703125 -0.765625,-3.125 -2.125,-3.125 z m 0,0"
               id="path13962" />
          </symbol>
        </g>
      </defs>
      <g
         style="fill:#000000;stroke-width:0"
         id="id-75a4d36a-b09c-4574-85f5-edd07e979b84"
         transform="translate(-149.009,-128.531)">
        <g
           style="fill:#000000;fill-opacity:1;stroke-width:0"
           id="id-e73582e4-c014-49ba-9e2b-505396076844">
          <g
             id="g3282"
             style="fill:#000000;stroke-width:0"
             transform="translate(148.712,134.765)">
            <path
               style="fill:#000000;stroke:none;stroke-width:0"
               d="m 2.484375,-5.875 c 0.71875,0 1.203125,1.1875 1.203125,2.71875 0,1.515625 -0.4375,2.828125 -1.3125,2.828125 -0.703125,0 -1.21875,-1.25 -1.21875,-2.78125 0,-1.53125 0.515625,-2.765625 1.328125,-2.765625 z m -0.0625,-0.359375 c -1.34375,0 -2.125,1.421875 -2.125,3.125 0,1.6875 0.796875,3.140625 2.125,3.140625 1.34375,0 2.125,-1.453125 2.125,-3.140625 0,-1.703125 -0.765625,-3.125 -2.125,-3.125 z m 0,0"
               id="id-9ce7ca54-69fd-4d5e-ab37-f20ad0949d24" />
          </g>
        </g>
      </g>
    </g>
    <g
       transform="matrix(0.42333399,0,0,0.42333399,90.327602,46.849357)"
       ns2:version="1.1.0"
       ns2:texconverter="pdflatex"
       ns2:pdfconverter="inkscape"
       ns2:text="$\\lambda_0$\n\n\n\n"
       ns2:preamble="C:\\Users\\flvisa\\Desktop\\lna\\latexify_books\\textext_preamble.tex"
       ns2:scale="1.1999996881895043"
       ns2:alignment="middle center"
       ns2:inkscapeversion="1.0.1"
       ns2:jacobian_sqrt="0.423334"
       id="g62399">
      <defs
         id="id-1f983638-5af2-41ec-b0dd-58a3dd08d13c">
        <g
           id="g13990">
          <symbol
             overflow="visible"
             id="symbol13976">
            <path
               style="stroke:none"
               d=""
               id="path13974" />
          </symbol>
          <symbol
             overflow="visible"
             id="symbol13980">
            <path
               style="stroke:none"
               d="M 2.953125,-4.921875 C 2.953125,-6.015625 2.796875,-7 2.1875,-7 1.859375,-7 1.390625,-6.625 1.203125,-6.1875 1.1875,-6.125 1.234375,-6 1.28125,-6 c 0.078125,-0.09375 0.40625,-0.328125 0.625,-0.328125 0.578125,0 0.71875,0.640625 0.71875,1.5 0,0.171875 0,0.359375 -0.015625,0.546875 -0.078125,0.4375 -2.1875,3.46875 -3,3.921875 0,0.109375 0.265625,0.4375 0.421875,0.4375 0.03125,0 0.109375,-0.015625 0.171875,-0.046875 0.25,-0.328125 1.875,-2.265625 2.34375,-3.078125 C 2.53125,-2.734375 2.5,-2.328125 2.5,-1.890625 c 0,0.9375 0.125,1.9375 0.703125,1.9375 0.359375,0 0.71875,-0.421875 0.84375,-0.734375 0.015625,-0.03125 -0.015625,-0.1875 -0.0625,-0.234375 -0.109375,0.125 -0.296875,0.25 -0.5,0.25 -0.171875,0 -0.46875,-0.109375 -0.578125,-0.65625 C 2.875,-1.53125 2.84375,-1.875 2.84375,-2.375 c 0,-0.75 0.109375,-1.734375 0.109375,-2.546875 z m 0,0"
               id="path13978" />
          </symbol>
          <symbol
             overflow="visible"
             id="symbol13984">
            <path
               style="stroke:none"
               d="m 0.359375,0 h 2.90625 V -3.515625 H 0.359375 Z M 0.71875,-0.359375 v -2.78125 h 2.1875 v 2.78125 z m 0,0"
               id="path13982" />
          </symbol>
          <symbol
             overflow="visible"
             id="symbol13988">
            <path
               style="stroke:none"
               d="m 1.8125,-4.28125 c 0.515625,0 0.875,0.859375 0.875,1.984375 0,1.109375 -0.3125,2.0625 -0.953125,2.0625 -0.515625,0 -0.890625,-0.921875 -0.890625,-2.03125 0,-1.109375 0.375,-2.015625 0.96875,-2.015625 z M 1.765625,-4.546875 c -0.984375,0 -1.546875,1.046875 -1.546875,2.28125 0,1.234375 0.578125,2.28125 1.546875,2.28125 0.984375,0 1.546875,-1.046875 1.546875,-2.28125 0,-1.234375 -0.546875,-2.28125 -1.546875,-2.28125 z m 0,0"
               id="path13986" />
          </symbol>
        </g>
      </defs>
      <g
         id="id-e39fea08-efae-41d5-9139-2275e9efdb8a"
         transform="translate(-148.69,-127.765)">
        <g
           style="fill:#000000;fill-opacity:1"
           id="id-545670aa-722b-4cfe-8dce-e3f99f9b2599">
          <g
             transform="translate(149.081,134.765)"
             id="g62391">
            <path
               style="stroke:none"
               d="M 2.953125,-4.921875 C 2.953125,-6.015625 2.796875,-7 2.1875,-7 1.859375,-7 1.390625,-6.625 1.203125,-6.1875 1.1875,-6.125 1.234375,-6 1.28125,-6 c 0.078125,-0.09375 0.40625,-0.328125 0.625,-0.328125 0.578125,0 0.71875,0.640625 0.71875,1.5 0,0.171875 0,0.359375 -0.015625,0.546875 -0.078125,0.4375 -2.1875,3.46875 -3,3.921875 0,0.109375 0.265625,0.4375 0.421875,0.4375 0.03125,0 0.109375,-0.015625 0.171875,-0.046875 0.25,-0.328125 1.875,-2.265625 2.34375,-3.078125 C 2.53125,-2.734375 2.5,-2.328125 2.5,-1.890625 c 0,0.9375 0.125,1.9375 0.703125,1.9375 0.359375,0 0.71875,-0.421875 0.84375,-0.734375 0.015625,-0.03125 -0.015625,-0.1875 -0.0625,-0.234375 -0.109375,0.125 -0.296875,0.25 -0.5,0.25 -0.171875,0 -0.46875,-0.109375 -0.578125,-0.65625 C 2.875,-1.53125 2.84375,-1.875 2.84375,-2.375 c 0,-0.75 0.109375,-1.734375 0.109375,-2.546875 z m 0,0"
               id="id-5143566d-5c98-4274-bf7e-cb650d9a42de" />
          </g>
        </g>
        <g
           style="fill:#000000;fill-opacity:1"
           id="id-ed99696c-cc0b-4f4d-9fa1-04b8c967ba8a">
          <g
             transform="translate(153.823,136.259)"
             id="g62395">
            <path
               style="stroke:none"
               d="m 1.8125,-4.28125 c 0.515625,0 0.875,0.859375 0.875,1.984375 0,1.109375 -0.3125,2.0625 -0.953125,2.0625 -0.515625,0 -0.890625,-0.921875 -0.890625,-2.03125 0,-1.109375 0.375,-2.015625 0.96875,-2.015625 z M 1.765625,-4.546875 c -0.984375,0 -1.546875,1.046875 -1.546875,2.28125 0,1.234375 0.578125,2.28125 1.546875,2.28125 0.984375,0 1.546875,-1.046875 1.546875,-2.28125 0,-1.234375 -0.546875,-2.28125 -1.546875,-2.28125 z m 0,0"
               id="id-0af5913a-648c-448e-8e26-ea399d0c01fe" />
          </g>
        </g>
      </g>
    </g>
    <g
       transform="matrix(0.423334,0,0,0.423334,56.683,16.4152)"
       ns2:version="1.1.0"
       ns2:texconverter="pdflatex"
       ns2:pdfconverter="inkscape"
       ns2:text="$n$\n"
       ns2:preamble="C:\\Users\\flvisa\\Desktop\\lna\\latexify_books\\textext_preamble.tex"
       ns2:scale="1.199999858267946"
       ns2:alignment="middle center"
       ns2:inkscapeversion="1.0.1"
       ns2:jacobian_sqrt="0.423334"
       style="fill:#000000;stroke-width:0"
       id="g14088">
      <defs
         id="id-44500a64-7435-41af-ab09-2c911571a46c">
        <g
           id="id-c7697e29-63f6-42e6-8487-bb1acb6b6cbb"
           style="fill:#000000;stroke-width:0">
          <symbol
             overflow="visible"
             id="id-ed92e910-7109-4f30-98bd-9f094361c6d1"
             style="fill:#000000;stroke-width:0">
            <path
               style="fill:#000000;stroke:none;stroke-width:0"
               d=""
               id="id-bfa3fd79-c095-4690-a3ad-5ad4552ee1bc" />
          </symbol>
          <symbol
             overflow="visible"
             id="id-326aafa0-05b4-4cd7-a00c-90e077e0d46b"
             style="fill:#000000;stroke-width:0">
            <path
               style="fill:#000000;stroke:none;stroke-width:0"
               d="m 1.796875,-3.328125 c 0.0625,-0.21875 0.09375,-0.453125 0.09375,-0.546875 0,-0.296875 -0.171875,-0.515625 -0.390625,-0.515625 -0.484375,0 -1.171875,0.765625 -1.28125,0.953125 0,0.0625 0.078125,0.1875 0.09375,0.1875 0.03125,-0.03125 0.5,-0.59375 0.71875,-0.59375 0.09375,0 0.09375,0.171875 0.09375,0.265625 0,0.046875 -0.03125,0.265625 -0.03125,0.3125 L 0.421875,0 c 0.125,0.03125 0.21875,0.046875 0.359375,0.046875 0.140625,0 0.234375,-0.015625 0.359375,-0.046875 0.09375,-0.484375 0.171875,-0.734375 0.25,-1.21875 0.25,-1.265625 1.5,-2.421875 1.875,-2.421875 0.171875,0 0.1875,0.171875 0.1875,0.4375 C 3.453125,-3.09375 3.40625,-2.75 3.375,-2.65625 L 3.03125,-1 c -0.046875,0.21875 -0.078125,0.453125 -0.078125,0.53125 0,0.296875 0.125,0.53125 0.34375,0.53125 0.484375,0 1.203125,-0.765625 1.3125,-0.953125 C 4.609375,-0.953125 4.5625,-1.0625 4.53125,-1.0625 4.5,-1.03125 4.03125,-0.5 3.8125,-0.5 c -0.09375,0 -0.109375,-0.15625 -0.109375,-0.25 0,-0.046875 0.03125,-0.21875 0.046875,-0.3125 L 4.09375,-2.625 c 0.078125,-0.328125 0.140625,-0.78125 0.140625,-1.09375 0,-0.40625 -0.171875,-0.671875 -0.640625,-0.671875 -0.671875,0 -1.84375,1.65625 -1.96875,1.90625 z m 0,0"
               id="id-98bd101e-dcd6-4e92-8cb8-024a53d3275a" />
          </symbol>
        </g>
      </defs>
      <g
         id="id-e2eb8b83-09e1-4f28-b54b-145920a7e07b"
         transform="translate(-149.131,-130.374)"
         style="fill:#000000;stroke-width:0">
        <g
           style="fill:#000000;fill-opacity:1;stroke-width:0"
           id="id-9067e3a5-096a-4ec2-b96d-17ab3df203c5">
          <g
             transform="translate(148.912,134.765)"
             style="fill:#000000;stroke-width:0"
             id="g14084">
            <path
               style="fill:#000000;stroke:none;stroke-width:0"
               d="m 1.796875,-3.328125 c 0.0625,-0.21875 0.09375,-0.453125 0.09375,-0.546875 0,-0.296875 -0.171875,-0.515625 -0.390625,-0.515625 -0.484375,0 -1.171875,0.765625 -1.28125,0.953125 0,0.0625 0.078125,0.1875 0.09375,0.1875 0.03125,-0.03125 0.5,-0.59375 0.71875,-0.59375 0.09375,0 0.09375,0.171875 0.09375,0.265625 0,0.046875 -0.03125,0.265625 -0.03125,0.3125 L 0.421875,0 c 0.125,0.03125 0.21875,0.046875 0.359375,0.046875 0.140625,0 0.234375,-0.015625 0.359375,-0.046875 0.09375,-0.484375 0.171875,-0.734375 0.25,-1.21875 0.25,-1.265625 1.5,-2.421875 1.875,-2.421875 0.171875,0 0.1875,0.171875 0.1875,0.4375 C 3.453125,-3.09375 3.40625,-2.75 3.375,-2.65625 L 3.03125,-1 c -0.046875,0.21875 -0.078125,0.453125 -0.078125,0.53125 0,0.296875 0.125,0.53125 0.34375,0.53125 0.484375,0 1.203125,-0.765625 1.3125,-0.953125 C 4.609375,-0.953125 4.5625,-1.0625 4.53125,-1.0625 4.5,-1.03125 4.03125,-0.5 3.8125,-0.5 c -0.09375,0 -0.109375,-0.15625 -0.109375,-0.25 0,-0.046875 0.03125,-0.21875 0.046875,-0.3125 L 4.09375,-2.625 c 0.078125,-0.328125 0.140625,-0.78125 0.140625,-1.09375 0,-0.40625 -0.171875,-0.671875 -0.640625,-0.671875 -0.671875,0 -1.84375,1.65625 -1.96875,1.90625 z m 0,0"
               id="id-ae961f85-703a-4520-844b-aec05f633162" />
          </g>
        </g>
      </g>
    </g>
  </g>
</svg>
