<?xml version="1.0" encoding="UTF-8" standalone="no"?>
<svg
   xmlns:ns2="http://www.iki.fi/pav/software/textext/"
   xmlns:dc="http://purl.org/dc/elements/1.1/"
   xmlns:cc="http://creativecommons.org/ns#"
   xmlns:rdf="http://www.w3.org/1999/02/22-rdf-syntax-ns#"
   xmlns:svg="http://www.w3.org/2000/svg"
   xmlns="http://www.w3.org/2000/svg"
   xmlns:sodipodi="http://sodipodi.sourceforge.net/DTD/sodipodi-0.dtd"
   xmlns:inkscape="http://www.inkscape.org/namespaces/inkscape"
   width="86.067612mm"
   height="15.265975mm"
   viewBox="0 0 86.067612 15.265975"
   version="1.1"
   id="svg12984"
   inkscape:version="1.0.1 (3bc2e813f5, 2020-09-07)"
   sodipodi:docname="fig_20_4.svg">
  <defs
     id="defs12978">
    <pattern
       id="EMFhbasepattern"
       patternUnits="userSpaceOnUse"
       width="6"
       height="6"
       x="0"
       y="0" />
    <g
       id="g6214">
      <symbol
         id="symbol6208"
         overflow="visible">
        <path
           id="path6206"
           d="M 0.5,0 H 4.484375 V -4.8125 H 0.5 Z M 1,-0.5 V -4.3125 H 3.984375 V -0.5 Z m 0,0"
           style="stroke:none" />
      </symbol>
      <symbol
         id="symbol6212"
         overflow="visible">
        <path
           id="path6210"
           d="M 0.921875,-1.359375 C 0.78125,-1 0.671875,-0.6875 0.46875,-0.4375 0.375,-0.3125 0,-0.25 -0.125,-0.25 c -0.03125,0.078125 -0.03125,0.25 0,0.28125 0.453125,-0.015625 0.609375,-0.046875 1.046875,-0.046875 0.4375,0 0.5625,0.03125 0.953125,0.046875 0.015625,-0.0625 0.015625,-0.25 -0.015625,-0.28125 -0.078125,0 -0.6875,-0.046875 -0.6875,-0.28125 0,-0.125 0.03125,-0.34375 0.140625,-0.6875 0.171875,-0.46875 0.4375,-1.1875 0.4375,-1.1875 0,0 0.03125,-0.03125 0.046875,-0.03125 0.453125,-0.03125 0.65625,-0.03125 1.046875,-0.03125 0.25,0 0.71875,0 0.96875,0.015625 0.03125,0 0.0625,0.046875 0.0625,0.046875 0,0 0.65625,1.59375 0.65625,1.890625 0,0.0625 0,0.109375 -0.03125,0.140625 -0.09375,0.078125 -0.4375,0.125 -0.546875,0.125 -0.0625,0.046875 -0.0625,0.234375 0,0.28125 0.4375,-0.015625 0.671875,-0.046875 1.125,-0.046875 0.421875,0 0.671875,0.03125 1.0625,0.046875 C 6.15625,0 6.171875,-0.171875 6.125,-0.25 6.046875,-0.25 5.5625,-0.359375 5.46875,-0.59375 5.4375,-0.625 5.359375,-0.875 5.21875,-1.21875 L 3.234375,-6.4375 c -0.03125,0 -0.03125,-0.015625 -0.0625,-0.015625 -0.09375,0 -0.328125,0.1875 -0.375,0.28125 -0.59375,1.515625 -1.875,4.8125 -1.875,4.8125 z M 2.828125,-5.28125 3.6875,-2.921875 c 0,0 -0.015625,0.046875 -0.03125,0.046875 -0.296875,0.03125 -0.515625,0.03125 -0.8125,0.03125 -0.21875,0 -0.640625,0 -0.890625,-0.015625 C 1.9375,-2.859375 1.9375,-2.90625 1.9375,-2.90625 Z m 0,0"
           style="stroke:none" />
      </symbol>
    </g>
    <g
       id="g6230">
      <symbol
         id="symbol6224"
         overflow="visible">
        <path
           id="path6222"
           d="M 0.5,0 H 4.484375 V -4.8125 H 0.5 Z M 1,-0.5 V -4.3125 H 3.984375 V -0.5 Z m 0,0"
           style="stroke:none" />
      </symbol>
      <symbol
         id="symbol6228"
         overflow="visible">
        <path
           id="path6226"
           d="m 2,-3.234375 h 0.609375 c 1.484375,0 1.796875,0.796875 1.796875,1.515625 0,1.1875 -0.8125,1.40625 -1.546875,1.40625 C 2.5,-0.3125 2.25,-0.328125 2.09375,-0.484375 2.03125,-0.5625 2,-1 2,-1.140625 Z M 2,-3.59375 v -1.6875 c 0,-0.28125 0,-0.609375 0.046875,-0.734375 0.046875,-0.078125 0.375,-0.078125 0.5,-0.078125 0.90625,0 1.484375,0.484375 1.484375,1.34375 0,0.5625 -0.328125,1.15625 -1.203125,1.15625 z m 0.96875,-2.828125 c -0.578125,0 -1,0.015625 -1.390625,0.015625 -0.375,0 -0.734375,-0.015625 -1.140625,-0.03125 -0.046875,0.046875 -0.03125,0.234375 0,0.28125 0.125,0 0.640625,0.03125 0.671875,0.140625 0.046875,0.15625 0.046875,0.4375 0.046875,0.734375 v 4.125 c 0,0.28125 0,0.5625 -0.046875,0.71875 C 1.078125,-0.328125 0.5625,-0.28125 0.4375,-0.28125 0.40625,-0.234375 0.390625,-0.046875 0.4375,0 h 2.25 C 3.421875,-0.015625 4.25,-0.140625 4.71875,-0.53125 5.203125,-0.921875 5.375,-1.375 5.375,-1.9375 c 0,-0.96875 -0.953125,-1.546875 -1.421875,-1.578125 -0.03125,-0.015625 -0.03125,-0.015625 0,-0.03125 0.328125,-0.125 0.96875,-0.671875 0.96875,-1.421875 0,-1.109375 -1.0625,-1.453125 -1.953125,-1.453125 z m 0,0"
           style="stroke:none" />
      </symbol>
    </g>
    <g
       id="g13617">
      <symbol
         overflow="visible"
         id="symbol13611">
        <path
           style="stroke:none"
           d="M 0.5,0 H 4.484375 V -4.8125 H 0.5 Z M 1,-0.5 V -4.3125 H 3.984375 V -0.5 Z m 0,0"
           id="path13609" />
      </symbol>
      <symbol
         overflow="visible"
         id="symbol13615">
        <path
           style="stroke:none"
           d="m 3.765625,-6.484375 c -1.921875,0 -3.296875,1.53125 -3.296875,3.359375 0,1.71875 1.328125,3.1875 3.25,3.1875 0.890625,0 1.5625,-0.140625 2.09375,-0.4375 C 5.953125,-0.5 6.15625,-1.578125 6.15625,-1.78125 6.0625,-1.84375 5.9375,-1.875 5.84375,-1.859375 5.765625,-1.546875 5.625,-1.0625 5.25,-0.734375 c -0.28125,0.25 -0.6875,0.46875 -1.296875,0.46875 -1.6875,0 -2.515625,-1.5625 -2.515625,-3.078125 0,-1.359375 0.921875,-2.828125 2.375,-2.828125 1.625,0 1.84375,1.125 1.90625,1.421875 0.015625,0.015625 0.046875,0.03125 0.109375,0.03125 0.109375,0 0.21875,-0.0625 0.21875,-0.125 0,-0.09375 -0.21875,-1.453125 -0.21875,-1.453125 -0.71875,-0.15625 -1.4375,-0.1875 -2.0625,-0.1875 z m 0,0"
           id="path13613" />
      </symbol>
    </g>
  </defs>
  <sodipodi:namedview
     id="base"
     pagecolor="#ffffff"
     bordercolor="#666666"
     borderopacity="1.0"
     inkscape:pageopacity="0.0"
     inkscape:pageshadow="2"
     inkscape:zoom="1.4"
     inkscape:cx="198.19341"
     inkscape:cy="19.307256"
     inkscape:document-units="mm"
     inkscape:current-layer="layer1"
     inkscape:document-rotation="0"
     showgrid="false"
     inkscape:window-width="1600"
     inkscape:window-height="837"
     inkscape:window-x="-8"
     inkscape:window-y="-8"
     inkscape:window-maximized="1" />
  <metadata
     id="metadata12981">
    <rdf:RDF>
      <cc:Work
         rdf:about="">
        <dc:format>image/svg+xml</dc:format>
        <dc:type
           rdf:resource="http://purl.org/dc/dcmitype/StillImage" />
        <dc:title></dc:title>
      </cc:Work>
    </rdf:RDF>
  </metadata>
  <g
     inkscape:label="Layer 1"
     inkscape:groupmode="layer"
     id="layer1"
     transform="translate(-47.043,-8.936)">
    <path
       style="fill:none;stroke:#506a65;stroke-width:0.396875;stroke-linecap:round;stroke-linejoin:round;stroke-miterlimit:4;stroke-dasharray:none;stroke-opacity:1"
       d="m 48.141924,13.062798 c 1.324951,0 3.454313,10.857824 4.877668,10.857824"
       id="path13560"
       sodipodi:nodetypes="cc" />
    <path
       style="fill:none;stroke:#506a65;stroke-width:0.396875;stroke-linecap:round;stroke-linejoin:round;stroke-miterlimit:4;stroke-dasharray:none;stroke-opacity:1"
       d="m 56.961638,13.043507 c -1.076042,0 -2.805377,10.896406 -3.961337,10.896406"
       id="path13568"
       sodipodi:nodetypes="cc" />
    <path
       style="fill:none;stroke:#506a65;stroke-width:0.396875;stroke-linecap:round;stroke-linejoin:round;stroke-miterlimit:4;stroke-dasharray:none;stroke-opacity:1"
       d="m 56.961638,13.043507 c 1.076043,0 2.805377,10.896406 3.961337,10.896406"
       id="path13570"
       sodipodi:nodetypes="cc" />
    <path
       style="fill:none;stroke:#506a65;stroke-width:0.413529;stroke-linecap:round;stroke-linejoin:round;stroke-miterlimit:4;stroke-dasharray:none;stroke-opacity:1"
       d="m 65.238665,13.051834 c -1.170035,0 -3.050429,10.879752 -4.307363,10.879752"
       id="path13572"
       sodipodi:nodetypes="cc" />
    <path
       style="fill:none;stroke:#506a65;stroke-width:0.413529;stroke-linecap:round;stroke-linejoin:round;stroke-miterlimit:4;stroke-dasharray:none;stroke-opacity:1"
       d="m 69.546027,23.931586 c -1.170035,0 -3.050428,-10.879752 -4.307362,-10.879752"
       id="path13586"
       sodipodi:nodetypes="cc" />
    <path
       style="fill:none;stroke:#506a65;stroke-width:0.413529;stroke-linecap:round;stroke-linejoin:round;stroke-miterlimit:4;stroke-dasharray:none;stroke-opacity:1"
       d="m 73.85339,13.051834 c -1.170035,0 -3.050429,10.879752 -4.307363,10.879752"
       id="path13588"
       sodipodi:nodetypes="cc" />
    <path
       style="fill:none;stroke:#506a65;stroke-width:0.413529;stroke-linecap:round;stroke-linejoin:round;stroke-miterlimit:4;stroke-dasharray:none;stroke-opacity:1"
       d="m 78.160752,23.931586 c -1.170035,0 -3.050428,-10.879752 -4.307362,-10.879752"
       id="path13590"
       sodipodi:nodetypes="cc" />
    <path
       style="fill:none;stroke:#506a65;stroke-width:0.398007;stroke-linecap:round;stroke-linejoin:round;stroke-miterlimit:4;stroke-dasharray:none;stroke-opacity:1"
       d="m 82.137386,13.044073 c -1.082305,0 -2.821706,10.895274 -3.984395,10.895274"
       id="path13592"
       sodipodi:nodetypes="cc" />
    <path
       style="fill:none;stroke:#506a65;stroke-width:0.398007;stroke-linecap:round;stroke-linejoin:round;stroke-miterlimit:4;stroke-dasharray:none;stroke-opacity:1"
       d="m 86.12178,23.939347 c -1.082306,0 -2.821706,-10.895274 -3.984394,-10.895274"
       id="path13594"
       sodipodi:nodetypes="cc" />
    <path
       style="fill:none;stroke:#506a65;stroke-width:0.411348;stroke-linecap:round;stroke-linejoin:round;stroke-miterlimit:4;stroke-dasharray:none;stroke-opacity:1"
       d="m 90.389657,13.050744 c -1.157497,0 -3.017741,10.881932 -4.261206,10.881932"
       id="path13596"
       sodipodi:nodetypes="cc" />
    <path
       style="fill:none;stroke:#506a65;stroke-width:0.411348;stroke-linecap:round;stroke-linejoin:round;stroke-miterlimit:4;stroke-dasharray:none;stroke-opacity:1"
       d="m 94.650863,23.932676 c -1.157498,0 -3.017741,-10.881932 -4.261206,-10.881932"
       id="path13598"
       sodipodi:nodetypes="cc" />
    <g
       id="g13627"
       transform="matrix(-1,0,0,1,180.77264,-0.006671)">
      <path
         style="fill:none;stroke:#506a65;stroke-width:0.396875;stroke-linecap:round;stroke-linejoin:round;stroke-miterlimit:4;stroke-dasharray:none;stroke-opacity:1"
         d="m 48.141924,13.062798 c 1.324951,0 3.454313,10.857824 4.877668,10.857824"
         id="path13600"
         sodipodi:nodetypes="cc" />
      <path
         style="fill:none;stroke:#506a65;stroke-width:0.396875;stroke-linecap:round;stroke-linejoin:round;stroke-miterlimit:4;stroke-dasharray:none;stroke-opacity:1"
         d="m 56.961638,13.043507 c -1.076042,0 -2.805377,10.896406 -3.961337,10.896406"
         id="path13602"
         sodipodi:nodetypes="cc" />
      <path
         style="fill:none;stroke:#506a65;stroke-width:0.396875;stroke-linecap:round;stroke-linejoin:round;stroke-miterlimit:4;stroke-dasharray:none;stroke-opacity:1"
         d="m 56.961638,13.043507 c 1.076043,0 2.805377,10.896406 3.961337,10.896406"
         id="path13604"
         sodipodi:nodetypes="cc" />
      <path
         style="fill:none;stroke:#506a65;stroke-width:0.413529;stroke-linecap:round;stroke-linejoin:round;stroke-miterlimit:4;stroke-dasharray:none;stroke-opacity:1"
         d="m 65.238665,13.051834 c -1.170035,0 -3.050429,10.879752 -4.307363,10.879752"
         id="path13606"
         sodipodi:nodetypes="cc" />
      <path
         style="fill:none;stroke:#506a65;stroke-width:0.413529;stroke-linecap:round;stroke-linejoin:round;stroke-miterlimit:4;stroke-dasharray:none;stroke-opacity:1"
         d="m 69.546027,23.931586 c -1.170035,0 -3.050428,-10.879752 -4.307362,-10.879752"
         id="path13608"
         sodipodi:nodetypes="cc" />
      <path
         style="fill:none;stroke:#506a65;stroke-width:0.413529;stroke-linecap:round;stroke-linejoin:round;stroke-miterlimit:4;stroke-dasharray:none;stroke-opacity:1"
         d="m 73.85339,13.051834 c -1.170035,0 -3.050429,10.879752 -4.307363,10.879752"
         id="path13610"
         sodipodi:nodetypes="cc" />
      <path
         style="fill:none;stroke:#506a65;stroke-width:0.413529;stroke-linecap:round;stroke-linejoin:round;stroke-miterlimit:4;stroke-dasharray:none;stroke-opacity:1"
         d="m 78.160752,23.931586 c -1.170035,0 -3.050428,-10.879752 -4.307362,-10.879752"
         id="path13612"
         sodipodi:nodetypes="cc" />
      <path
         style="fill:none;stroke:#506a65;stroke-width:0.398007;stroke-linecap:round;stroke-linejoin:round;stroke-miterlimit:4;stroke-dasharray:none;stroke-opacity:1"
         d="m 82.137386,13.044073 c -1.082305,0 -2.821706,10.895274 -3.984395,10.895274"
         id="path13614"
         sodipodi:nodetypes="cc" />
      <path
         style="fill:none;stroke:#506a65;stroke-width:0.398007;stroke-linecap:round;stroke-linejoin:round;stroke-miterlimit:4;stroke-dasharray:none;stroke-opacity:1"
         d="m 86.12178,23.939347 c -1.082306,0 -2.821706,-10.895274 -3.984394,-10.895274"
         id="path13616"
         sodipodi:nodetypes="cc" />
    </g>
    <path
       style="fill:none;stroke:#9e7867;stroke-width:0.396875;stroke-linecap:round;stroke-linejoin:round;stroke-miterlimit:4;stroke-dasharray:1.5875, 0.79375;stroke-dashoffset:0;stroke-opacity:1"
       d="m 47.241437,23.920622 c 1.324951,0 3.454313,-10.857824 4.877668,-10.857824"
       id="path13629"
       sodipodi:nodetypes="cc" />
    <path
       style="fill:none;stroke:#9e7867;stroke-width:0.396875;stroke-linecap:round;stroke-linejoin:round;stroke-miterlimit:4;stroke-dasharray:1.5875, 0.79375;stroke-dashoffset:0;stroke-opacity:1"
       d="m 56.649037,23.939913 c -1.235733,0 -3.221712,-10.896406 -4.549223,-10.896406"
       id="path13631"
       sodipodi:nodetypes="cc" />
    <path
       style="fill:none;stroke:#9e7867;stroke-width:0.368866;stroke-linecap:round;stroke-linejoin:round;stroke-miterlimit:4;stroke-dasharray:1.47546, 0.737732;stroke-dashoffset:0;stroke-opacity:1"
       d="m 56.635033,23.953917 c 1.311012,0 3.417972,-10.885832 4.826353,-10.885832"
       id="path13633"
       sodipodi:nodetypes="cc" />
    <path
       style="fill:none;stroke:#9e7867;stroke-width:0.396875;stroke-linecap:round;stroke-linejoin:round;stroke-miterlimit:4;stroke-dasharray:1.5875, 0.79375;stroke-dashoffset:0;stroke-opacity:1"
       d="m 66.010609,23.964491 c -1.235733,0 -3.221712,-10.896406 -4.549223,-10.896406"
       id="path13635"
       sodipodi:nodetypes="cc" />
    <path
       style="fill:none;stroke:#9e7867;stroke-width:0.381189;stroke-linecap:round;stroke-linejoin:round;stroke-miterlimit:4;stroke-dasharray:1.52476, 0.762379;stroke-dashoffset:0;stroke-opacity:1"
       d="m 66.010609,23.964491 c 1.401749,0 3.654535,-10.872846 5.160392,-10.872846"
       id="path13637"
       sodipodi:nodetypes="cc" />
    <path
       style="fill:none;stroke:#9e7867;stroke-width:0.410134;stroke-linecap:round;stroke-linejoin:round;stroke-miterlimit:4;stroke-dasharray:1.64054, 0.820269;stroke-dashoffset:0;stroke-opacity:1"
       d="m 76.035082,23.975052 c -1.32126,0 -3.444692,-10.883407 -4.864081,-10.883407"
       id="path13639"
       sodipodi:nodetypes="cc" />
    <path
       style="fill:none;stroke:#9e7867;stroke-width:0.404831;stroke-linecap:round;stroke-linejoin:round;stroke-miterlimit:4;stroke-dasharray:1.61933, 0.809663;stroke-dashoffset:0;stroke-opacity:1"
       d="m 85.795033,23.988168 c -1.286708,0 -3.354609,-10.888523 -4.736879,-10.888523"
       id="path13641"
       sodipodi:nodetypes="cc" />
    <path
       style="fill:none;stroke:#9e7867;stroke-width:0.37626;stroke-linecap:round;stroke-linejoin:round;stroke-miterlimit:4;stroke-dasharray:1.50504, 0.752521;stroke-dashoffset:0;stroke-opacity:1"
       d="m 76.032713,23.977602 c 1.365092,0 3.558964,-10.877957 5.025441,-10.877957"
       id="path13643"
       sodipodi:nodetypes="cc" />
    <path
       style="fill:none;stroke:#9e7867;stroke-width:0.39638;stroke-linecap:round;stroke-linejoin:round;stroke-miterlimit:4;stroke-dasharray:1.58553, 0.792762;stroke-dashoffset:0;stroke-opacity:1"
       d="m 95.135954,24.003785 c -1.231784,0 -3.211413,-10.904131 -4.534679,-10.904131"
       id="path13645"
       sodipodi:nodetypes="cc" />
    <path
       style="fill:none;stroke:#9e7867;stroke-width:0.368405;stroke-linecap:round;stroke-linejoin:round;stroke-miterlimit:4;stroke-dasharray:1.47362, 0.736812;stroke-dashoffset:0;stroke-opacity:1"
       d="m 85.790351,23.993204 c 1.306821,0 3.407045,-10.89355 4.810924,-10.89355"
       id="path13647"
       sodipodi:nodetypes="cc" />
    <path
       style="fill:none;stroke:#9e7867;stroke-width:0.412454;stroke-linecap:round;stroke-linejoin:round;stroke-miterlimit:4;stroke-dasharray:1.64983, 0.82491;stroke-dashoffset:0;stroke-opacity:1"
       d="m 104.7915,23.935368 c -1.33565,0 -3.48221,-10.888353 -4.917059,-10.888353"
       id="path13649"
       sodipodi:nodetypes="cc" />
    <path
       style="fill:none;stroke:#9e7867;stroke-width:0.383345;stroke-linecap:round;stroke-linejoin:round;stroke-miterlimit:4;stroke-dasharray:1.53338, 0.766691;stroke-dashoffset:0;stroke-opacity:1"
       d="m 94.657875,23.924803 c 1.417008,0 3.694317,-10.877788 5.216566,-10.877788"
       id="path13651"
       sodipodi:nodetypes="cc" />
    <path
       style="fill:none;stroke:#9e7867;stroke-width:0.425718;stroke-linecap:round;stroke-linejoin:round;stroke-miterlimit:4;stroke-dasharray:1.70289, 0.851439;stroke-dashoffset:0;stroke-opacity:1"
       d="m 114.13331,23.923151 c -1.42344,0 -3.71108,-10.884543 -5.24024,-10.884543"
       id="path13653"
       sodipodi:nodetypes="cc" />
    <path
       style="fill:none;stroke:#9e7867;stroke-width:0.341519;stroke-linecap:round;stroke-linejoin:round;stroke-miterlimit:4;stroke-dasharray:1.36608, 0.683038;stroke-dashoffset:0;stroke-opacity:1"
       d="m 104.77059,23.956281 c 1.12035,0 2.9209,-10.919614 4.12446,-10.919614"
       id="path13655"
       sodipodi:nodetypes="cc" />
    <path
       style="fill:none;stroke:#9e7867;stroke-width:0.400735;stroke-linecap:round;stroke-linejoin:round;stroke-miterlimit:4;stroke-dasharray:1.60296, 0.801473;stroke-dashoffset:0;stroke-opacity:1"
       d="m 118.77731,13.031941 c -1.25971,0 -3.28422,10.898094 -4.63748,10.898094"
       id="path13657"
       sodipodi:nodetypes="cc" />
    <path
       style="fill:none;stroke:#9e7867;stroke-width:0.400735;stroke-linecap:round;stroke-linejoin:round;stroke-miterlimit:4;stroke-dasharray:1.60296, 0.801473;stroke-dashoffset:0;stroke-opacity:1"
       d="m 118.77731,13.031941 c 1.25971,0 3.28422,10.898094 4.63748,10.898094"
       id="path13659"
       sodipodi:nodetypes="cc" />
    <path
       style="fill:none;stroke:#9e7867;stroke-width:0.409469;stroke-linecap:round;stroke-linejoin:round;stroke-miterlimit:4;stroke-dasharray:1.6379, 0.818942;stroke-dashoffset:0;stroke-opacity:1"
       d="m 128.26488,13.036308 c -1.31628,0 -3.4317,10.88936 -4.84572,10.88936"
       id="path13661"
       sodipodi:nodetypes="cc" />
    <path
       style="fill:none;stroke:#9e7867;stroke-width:0.409469;stroke-linecap:round;stroke-linejoin:round;stroke-miterlimit:4;stroke-dasharray:1.6379, 0.818942;stroke-dashoffset:0;stroke-opacity:1"
       d="m 128.26488,13.036308 c 1.31628,0 3.4317,10.88936 4.84573,10.88936"
       id="path13663"
       sodipodi:nodetypes="cc" />
    <g
       transform="matrix(0.42333399,0,0,0.42333399,89.099185,8.9360529)"
       ns2:version="1.1.0"
       ns2:texconverter="pdflatex"
       ns2:pdfconverter="inkscape"
       ns2:text="A"
       ns2:preamble="C:\\Users\\flvisa\\Desktop\\lna\\latexify_books\\textext_preamble.tex"
       ns2:scale="1.1999998866143555"
       ns2:alignment="middle center"
       ns2:inkscapeversion="1.0"
       ns2:jacobian_sqrt="0.423334"
       id="g5186">
      <defs
         id="id-0fb9b272-5367-470f-b94c-f0713fc1f8b0">
        <g
           id="g13766">
          <symbol
             id="symbol13760"
             overflow="visible">
            <path
               id="path13758"
               d="M 0.5,0 H 4.484375 V -4.8125 H 0.5 Z M 1,-0.5 V -4.3125 H 3.984375 V -0.5 Z m 0,0"
               style="stroke:none" />
          </symbol>
          <symbol
             id="symbol13764"
             overflow="visible">
            <path
               id="path13762"
               d="M 0.921875,-1.359375 C 0.78125,-1 0.671875,-0.6875 0.46875,-0.4375 0.375,-0.3125 0,-0.25 -0.125,-0.25 c -0.03125,0.078125 -0.03125,0.25 0,0.28125 0.453125,-0.015625 0.609375,-0.046875 1.046875,-0.046875 0.4375,0 0.5625,0.03125 0.953125,0.046875 0.015625,-0.0625 0.015625,-0.25 -0.015625,-0.28125 -0.078125,0 -0.6875,-0.046875 -0.6875,-0.28125 0,-0.125 0.03125,-0.34375 0.140625,-0.6875 0.171875,-0.46875 0.4375,-1.1875 0.4375,-1.1875 0,0 0.03125,-0.03125 0.046875,-0.03125 0.453125,-0.03125 0.65625,-0.03125 1.046875,-0.03125 0.25,0 0.71875,0 0.96875,0.015625 0.03125,0 0.0625,0.046875 0.0625,0.046875 0,0 0.65625,1.59375 0.65625,1.890625 0,0.0625 0,0.109375 -0.03125,0.140625 -0.09375,0.078125 -0.4375,0.125 -0.546875,0.125 -0.0625,0.046875 -0.0625,0.234375 0,0.28125 0.4375,-0.015625 0.671875,-0.046875 1.125,-0.046875 0.421875,0 0.671875,0.03125 1.0625,0.046875 C 6.15625,0 6.171875,-0.171875 6.125,-0.25 6.046875,-0.25 5.5625,-0.359375 5.46875,-0.59375 5.4375,-0.625 5.359375,-0.875 5.21875,-1.21875 L 3.234375,-6.4375 c -0.03125,0 -0.03125,-0.015625 -0.0625,-0.015625 -0.09375,0 -0.328125,0.1875 -0.375,0.28125 -0.59375,1.515625 -1.875,4.8125 -1.875,4.8125 z M 2.828125,-5.28125 3.6875,-2.921875 c 0,0 -0.015625,0.046875 -0.03125,0.046875 -0.296875,0.03125 -0.515625,0.03125 -0.8125,0.03125 -0.21875,0 -0.640625,0 -0.890625,-0.015625 C 1.9375,-2.859375 1.9375,-2.90625 1.9375,-2.90625 Z m 0,0"
               style="stroke:none" />
          </symbol>
        </g>
      </defs>
      <g
         transform="translate(-148.564,-128.312)"
         id="id-bd3c2e30-a8ed-4d75-8242-2d218892c90d">
        <g
           id="id-52d46daa-b03f-4a75-8354-f44718900598"
           style="fill:#000000;fill-opacity:1">
          <g
             transform="translate(148.712,134.765)"
             id="g5182">
            <path
               id="id-4c91be8b-7478-456a-a13a-9c4cdec433c9"
               d="M 0.921875,-1.359375 C 0.78125,-1 0.671875,-0.6875 0.46875,-0.4375 0.375,-0.3125 0,-0.25 -0.125,-0.25 c -0.03125,0.078125 -0.03125,0.25 0,0.28125 0.453125,-0.015625 0.609375,-0.046875 1.046875,-0.046875 0.4375,0 0.5625,0.03125 0.953125,0.046875 0.015625,-0.0625 0.015625,-0.25 -0.015625,-0.28125 -0.078125,0 -0.6875,-0.046875 -0.6875,-0.28125 0,-0.125 0.03125,-0.34375 0.140625,-0.6875 0.171875,-0.46875 0.4375,-1.1875 0.4375,-1.1875 0,0 0.03125,-0.03125 0.046875,-0.03125 0.453125,-0.03125 0.65625,-0.03125 1.046875,-0.03125 0.25,0 0.71875,0 0.96875,0.015625 0.03125,0 0.0625,0.046875 0.0625,0.046875 0,0 0.65625,1.59375 0.65625,1.890625 0,0.0625 0,0.109375 -0.03125,0.140625 -0.09375,0.078125 -0.4375,0.125 -0.546875,0.125 -0.0625,0.046875 -0.0625,0.234375 0,0.28125 0.4375,-0.015625 0.671875,-0.046875 1.125,-0.046875 0.421875,0 0.671875,0.03125 1.0625,0.046875 C 6.15625,0 6.171875,-0.171875 6.125,-0.25 6.046875,-0.25 5.5625,-0.359375 5.46875,-0.59375 5.4375,-0.625 5.359375,-0.875 5.21875,-1.21875 L 3.234375,-6.4375 c -0.03125,0 -0.03125,-0.015625 -0.0625,-0.015625 -0.09375,0 -0.328125,0.1875 -0.375,0.28125 -0.59375,1.515625 -1.875,4.8125 -1.875,4.8125 z M 2.828125,-5.28125 3.6875,-2.921875 c 0,0 -0.015625,0.046875 -0.03125,0.046875 -0.296875,0.03125 -0.515625,0.03125 -0.8125,0.03125 -0.21875,0 -0.640625,0 -0.890625,-0.015625 C 1.9375,-2.859375 1.9375,-2.90625 1.9375,-2.90625 Z m 0,0"
               style="stroke:none" />
          </g>
        </g>
      </g>
    </g>
    <g
       transform="matrix(0.42333399,0,0,0.42333399,56.019036,8.9357883)"
       ns2:version="1.1.0"
       ns2:texconverter="pdflatex"
       ns2:pdfconverter="inkscape"
       ns2:text="B"
       ns2:preamble="C:\\Users\\flvisa\\Desktop\\lna\\latexify_books\\textext_preamble.tex"
       ns2:scale="1.199999858267946"
       ns2:alignment="middle center"
       ns2:inkscapeversion="1.0"
       ns2:jacobian_sqrt="0.423334"
       id="g5465">
      <defs
         id="id-55757423-e0ac-467d-94dd-53366f9b4d91">
        <g
           id="g13782">
          <symbol
             id="symbol13776"
             overflow="visible">
            <path
               id="path13774"
               d="M 0.5,0 H 4.484375 V -4.8125 H 0.5 Z M 1,-0.5 V -4.3125 H 3.984375 V -0.5 Z m 0,0"
               style="stroke:none" />
          </symbol>
          <symbol
             id="symbol13780"
             overflow="visible">
            <path
               id="path13778"
               d="m 2,-3.234375 h 0.609375 c 1.484375,0 1.796875,0.796875 1.796875,1.515625 0,1.1875 -0.8125,1.40625 -1.546875,1.40625 C 2.5,-0.3125 2.25,-0.328125 2.09375,-0.484375 2.03125,-0.5625 2,-1 2,-1.140625 Z M 2,-3.59375 v -1.6875 c 0,-0.28125 0,-0.609375 0.046875,-0.734375 0.046875,-0.078125 0.375,-0.078125 0.5,-0.078125 0.90625,0 1.484375,0.484375 1.484375,1.34375 0,0.5625 -0.328125,1.15625 -1.203125,1.15625 z m 0.96875,-2.828125 c -0.578125,0 -1,0.015625 -1.390625,0.015625 -0.375,0 -0.734375,-0.015625 -1.140625,-0.03125 -0.046875,0.046875 -0.03125,0.234375 0,0.28125 0.125,0 0.640625,0.03125 0.671875,0.140625 0.046875,0.15625 0.046875,0.4375 0.046875,0.734375 v 4.125 c 0,0.28125 0,0.5625 -0.046875,0.71875 C 1.078125,-0.328125 0.5625,-0.28125 0.4375,-0.28125 0.40625,-0.234375 0.390625,-0.046875 0.4375,0 h 2.25 C 3.421875,-0.015625 4.25,-0.140625 4.71875,-0.53125 5.203125,-0.921875 5.375,-1.375 5.375,-1.9375 c 0,-0.96875 -0.953125,-1.546875 -1.421875,-1.578125 -0.03125,-0.015625 -0.03125,-0.015625 0,-0.03125 0.328125,-0.125 0.96875,-0.671875 0.96875,-1.421875 0,-1.109375 -1.0625,-1.453125 -1.953125,-1.453125 z m 0,0"
               style="stroke:none" />
          </symbol>
        </g>
      </defs>
      <g
         transform="translate(-149.12,-128.327)"
         id="id-0e249727-ae7a-4c5c-912f-23666a41aff8">
        <g
           id="id-ce14de43-51b9-4bbe-be1a-16d826d2cdcf"
           style="fill:#000000;fill-opacity:1">
          <g
             transform="translate(148.712,134.765)"
             id="g5461">
            <path
               id="id-f62314d4-5018-4d4a-9777-36bef46963f9"
               d="m 2,-3.234375 h 0.609375 c 1.484375,0 1.796875,0.796875 1.796875,1.515625 0,1.1875 -0.8125,1.40625 -1.546875,1.40625 C 2.5,-0.3125 2.25,-0.328125 2.09375,-0.484375 2.03125,-0.5625 2,-1 2,-1.140625 Z M 2,-3.59375 v -1.6875 c 0,-0.28125 0,-0.609375 0.046875,-0.734375 0.046875,-0.078125 0.375,-0.078125 0.5,-0.078125 0.90625,0 1.484375,0.484375 1.484375,1.34375 0,0.5625 -0.328125,1.15625 -1.203125,1.15625 z m 0.96875,-2.828125 c -0.578125,0 -1,0.015625 -1.390625,0.015625 -0.375,0 -0.734375,-0.015625 -1.140625,-0.03125 -0.046875,0.046875 -0.03125,0.234375 0,0.28125 0.125,0 0.640625,0.03125 0.671875,0.140625 0.046875,0.15625 0.046875,0.4375 0.046875,0.734375 v 4.125 c 0,0.28125 0,0.5625 -0.046875,0.71875 C 1.078125,-0.328125 0.5625,-0.28125 0.4375,-0.28125 0.40625,-0.234375 0.390625,-0.046875 0.4375,0 h 2.25 C 3.421875,-0.015625 4.25,-0.140625 4.71875,-0.53125 5.203125,-0.921875 5.375,-1.375 5.375,-1.9375 c 0,-0.96875 -0.953125,-1.546875 -1.421875,-1.578125 -0.03125,-0.015625 -0.03125,-0.015625 0,-0.03125 0.328125,-0.125 0.96875,-0.671875 0.96875,-1.421875 0,-1.109375 -1.0625,-1.453125 -1.953125,-1.453125 z m 0,0"
               style="stroke:none" />
          </g>
        </g>
      </g>
    </g>
    <g
       id="g12657"
       ns2:jacobian_sqrt="0.423334"
       ns2:inkscapeversion="1.0"
       ns2:alignment="middle center"
       ns2:scale="1.1999998299215373"
       ns2:preamble="C:\\Users\\flvisa\\Desktop\\lna\\latexify_books\\textext_preamble.tex"
       ns2:text="C"
       ns2:pdfconverter="inkscape"
       ns2:texconverter="pdflatex"
       ns2:version="1.1.0"
       transform="matrix(0.42333399,0,0,0.42333399,122.51611,8.9361588)">
      <defs
         id="id-fe274fe3-c964-4e1e-9bfc-db0a15f96e05">
        <g
           id="g13798">
          <symbol
             overflow="visible"
             id="symbol13792">
            <path
               style="stroke:none"
               d="M 0.5,0 H 4.484375 V -4.8125 H 0.5 Z M 1,-0.5 V -4.3125 H 3.984375 V -0.5 Z m 0,0"
               id="path13790" />
          </symbol>
          <symbol
             overflow="visible"
             id="symbol13796">
            <path
               style="stroke:none"
               d="m 3.765625,-6.484375 c -1.921875,0 -3.296875,1.53125 -3.296875,3.359375 0,1.71875 1.328125,3.1875 3.25,3.1875 0.890625,0 1.5625,-0.140625 2.09375,-0.4375 C 5.953125,-0.5 6.15625,-1.578125 6.15625,-1.78125 6.0625,-1.84375 5.9375,-1.875 5.84375,-1.859375 5.765625,-1.546875 5.625,-1.0625 5.25,-0.734375 c -0.28125,0.25 -0.6875,0.46875 -1.296875,0.46875 -1.6875,0 -2.515625,-1.5625 -2.515625,-3.078125 0,-1.359375 0.921875,-2.828125 2.375,-2.828125 1.625,0 1.84375,1.125 1.90625,1.421875 0.015625,0.015625 0.046875,0.03125 0.109375,0.03125 0.109375,0 0.21875,-0.0625 0.21875,-0.125 0,-0.09375 -0.21875,-1.453125 -0.21875,-1.453125 -0.71875,-0.15625 -1.4375,-0.1875 -2.0625,-0.1875 z m 0,0"
               id="path13794" />
          </symbol>
        </g>
      </defs>
      <g
         id="id-5c1c4ae8-f18b-4582-b095-5adb0b213f9c"
         transform="translate(-149.181,-128.281)">
        <g
           style="fill:#000000;fill-opacity:1"
           id="id-00559197-870c-46df-bc63-7a61878d961b">
          <g
             id="g12653"
             transform="translate(148.712,134.765)">
            <path
               style="stroke:none"
               d="m 3.765625,-6.484375 c -1.921875,0 -3.296875,1.53125 -3.296875,3.359375 0,1.71875 1.328125,3.1875 3.25,3.1875 0.890625,0 1.5625,-0.140625 2.09375,-0.4375 C 5.953125,-0.5 6.15625,-1.578125 6.15625,-1.78125 6.0625,-1.84375 5.9375,-1.875 5.84375,-1.859375 5.765625,-1.546875 5.625,-1.0625 5.25,-0.734375 c -0.28125,0.25 -0.6875,0.46875 -1.296875,0.46875 -1.6875,0 -2.515625,-1.5625 -2.515625,-3.078125 0,-1.359375 0.921875,-2.828125 2.375,-2.828125 1.625,0 1.84375,1.125 1.90625,1.421875 0.015625,0.015625 0.046875,0.03125 0.109375,0.03125 0.109375,0 0.21875,-0.0625 0.21875,-0.125 0,-0.09375 -0.21875,-1.453125 -0.21875,-1.453125 -0.71875,-0.15625 -1.4375,-0.1875 -2.0625,-0.1875 z m 0,0"
               id="id-268bad3b-5084-409e-819c-d13cd609c05f" />
          </g>
        </g>
      </g>
    </g>
  </g>
</svg>
