<?xml version="1.0" encoding="UTF-8" standalone="no"?>
<svg
   xmlns:ns2="http://www.iki.fi/pav/software/textext/"
   xmlns:dc="http://purl.org/dc/elements/1.1/"
   xmlns:cc="http://creativecommons.org/ns#"
   xmlns:rdf="http://www.w3.org/1999/02/22-rdf-syntax-ns#"
   xmlns:svg="http://www.w3.org/2000/svg"
   xmlns="http://www.w3.org/2000/svg"
   xmlns:sodipodi="http://sodipodi.sourceforge.net/DTD/sodipodi-0.dtd"
   xmlns:inkscape="http://www.inkscape.org/namespaces/inkscape"
   width="57.78331mm"
   height="33.328728mm"
   viewBox="0 0 57.78331 33.328728"
   version="1.1"
   id="svg12984"
   inkscape:version="1.0.1 (3bc2e813f5, 2020-09-07)"
   sodipodi:docname="fig_20_5.svg">
  <defs
     id="defs12978">
    <marker
       style="overflow:visible"
       id="Arrow1Mstart"
       refX="0"
       refY="0"
       orient="auto"
       inkscape:stockid="Arrow1Mstart"
       inkscape:isstock="true">
      <path
         transform="matrix(0.4,0,0,0.4,4,0)"
         style="fill:#000000;fill-opacity:1;fill-rule:evenodd;stroke:#000000;stroke-width:1pt;stroke-opacity:1"
         d="M 0,0 5,-5 -12.5,0 5,5 Z"
         id="path13827" />
    </marker>
    <marker
       style="overflow:visible"
       id="Arrow1Mend"
       refX="0"
       refY="0"
       orient="auto"
       inkscape:stockid="Arrow1Mend"
       inkscape:isstock="true">
      <path
         transform="matrix(-0.4,0,0,-0.4,-4,0)"
         style="fill:#000000;fill-opacity:1;fill-rule:evenodd;stroke:#000000;stroke-width:1pt;stroke-opacity:1"
         d="M 0,0 5,-5 -12.5,0 5,5 Z"
         id="path13830" />
    </marker>
    <pattern
       id="EMFhbasepattern"
       patternUnits="userSpaceOnUse"
       width="6"
       height="6"
       x="0"
       y="0" />
    <g
       id="g6214">
      <symbol
         id="symbol6208"
         overflow="visible">
        <path
           id="path6206"
           d="M 0.5,0 H 4.484375 V -4.8125 H 0.5 Z M 1,-0.5 V -4.3125 H 3.984375 V -0.5 Z m 0,0"
           style="stroke:none" />
      </symbol>
      <symbol
         id="symbol6212"
         overflow="visible">
        <path
           id="path6210"
           d="M 0.921875,-1.359375 C 0.78125,-1 0.671875,-0.6875 0.46875,-0.4375 0.375,-0.3125 0,-0.25 -0.125,-0.25 c -0.03125,0.078125 -0.03125,0.25 0,0.28125 0.453125,-0.015625 0.609375,-0.046875 1.046875,-0.046875 0.4375,0 0.5625,0.03125 0.953125,0.046875 0.015625,-0.0625 0.015625,-0.25 -0.015625,-0.28125 -0.078125,0 -0.6875,-0.046875 -0.6875,-0.28125 0,-0.125 0.03125,-0.34375 0.140625,-0.6875 0.171875,-0.46875 0.4375,-1.1875 0.4375,-1.1875 0,0 0.03125,-0.03125 0.046875,-0.03125 0.453125,-0.03125 0.65625,-0.03125 1.046875,-0.03125 0.25,0 0.71875,0 0.96875,0.015625 0.03125,0 0.0625,0.046875 0.0625,0.046875 0,0 0.65625,1.59375 0.65625,1.890625 0,0.0625 0,0.109375 -0.03125,0.140625 -0.09375,0.078125 -0.4375,0.125 -0.546875,0.125 -0.0625,0.046875 -0.0625,0.234375 0,0.28125 0.4375,-0.015625 0.671875,-0.046875 1.125,-0.046875 0.421875,0 0.671875,0.03125 1.0625,0.046875 C 6.15625,0 6.171875,-0.171875 6.125,-0.25 6.046875,-0.25 5.5625,-0.359375 5.46875,-0.59375 5.4375,-0.625 5.359375,-0.875 5.21875,-1.21875 L 3.234375,-6.4375 c -0.03125,0 -0.03125,-0.015625 -0.0625,-0.015625 -0.09375,0 -0.328125,0.1875 -0.375,0.28125 -0.59375,1.515625 -1.875,4.8125 -1.875,4.8125 z M 2.828125,-5.28125 3.6875,-2.921875 c 0,0 -0.015625,0.046875 -0.03125,0.046875 -0.296875,0.03125 -0.515625,0.03125 -0.8125,0.03125 -0.21875,0 -0.640625,0 -0.890625,-0.015625 C 1.9375,-2.859375 1.9375,-2.90625 1.9375,-2.90625 Z m 0,0"
           style="stroke:none" />
      </symbol>
    </g>
    <g
       id="g6230">
      <symbol
         id="symbol6224"
         overflow="visible">
        <path
           id="path6222"
           d="M 0.5,0 H 4.484375 V -4.8125 H 0.5 Z M 1,-0.5 V -4.3125 H 3.984375 V -0.5 Z m 0,0"
           style="stroke:none" />
      </symbol>
      <symbol
         id="symbol6228"
         overflow="visible">
        <path
           id="path6226"
           d="m 2,-3.234375 h 0.609375 c 1.484375,0 1.796875,0.796875 1.796875,1.515625 0,1.1875 -0.8125,1.40625 -1.546875,1.40625 C 2.5,-0.3125 2.25,-0.328125 2.09375,-0.484375 2.03125,-0.5625 2,-1 2,-1.140625 Z M 2,-3.59375 v -1.6875 c 0,-0.28125 0,-0.609375 0.046875,-0.734375 0.046875,-0.078125 0.375,-0.078125 0.5,-0.078125 0.90625,0 1.484375,0.484375 1.484375,1.34375 0,0.5625 -0.328125,1.15625 -1.203125,1.15625 z m 0.96875,-2.828125 c -0.578125,0 -1,0.015625 -1.390625,0.015625 -0.375,0 -0.734375,-0.015625 -1.140625,-0.03125 -0.046875,0.046875 -0.03125,0.234375 0,0.28125 0.125,0 0.640625,0.03125 0.671875,0.140625 0.046875,0.15625 0.046875,0.4375 0.046875,0.734375 v 4.125 c 0,0.28125 0,0.5625 -0.046875,0.71875 C 1.078125,-0.328125 0.5625,-0.28125 0.4375,-0.28125 0.40625,-0.234375 0.390625,-0.046875 0.4375,0 h 2.25 C 3.421875,-0.015625 4.25,-0.140625 4.71875,-0.53125 5.203125,-0.921875 5.375,-1.375 5.375,-1.9375 c 0,-0.96875 -0.953125,-1.546875 -1.421875,-1.578125 -0.03125,-0.015625 -0.03125,-0.015625 0,-0.03125 0.328125,-0.125 0.96875,-0.671875 0.96875,-1.421875 0,-1.109375 -1.0625,-1.453125 -1.953125,-1.453125 z m 0,0"
           style="stroke:none" />
      </symbol>
    </g>
    <g
       id="g13617">
      <symbol
         overflow="visible"
         id="symbol13611">
        <path
           style="stroke:none"
           d="M 0.5,0 H 4.484375 V -4.8125 H 0.5 Z M 1,-0.5 V -4.3125 H 3.984375 V -0.5 Z m 0,0"
           id="path13609" />
      </symbol>
      <symbol
         overflow="visible"
         id="symbol13615">
        <path
           style="stroke:none"
           d="m 3.765625,-6.484375 c -1.921875,0 -3.296875,1.53125 -3.296875,3.359375 0,1.71875 1.328125,3.1875 3.25,3.1875 0.890625,0 1.5625,-0.140625 2.09375,-0.4375 C 5.953125,-0.5 6.15625,-1.578125 6.15625,-1.78125 6.0625,-1.84375 5.9375,-1.875 5.84375,-1.859375 5.765625,-1.546875 5.625,-1.0625 5.25,-0.734375 c -0.28125,0.25 -0.6875,0.46875 -1.296875,0.46875 -1.6875,0 -2.515625,-1.5625 -2.515625,-3.078125 0,-1.359375 0.921875,-2.828125 2.375,-2.828125 1.625,0 1.84375,1.125 1.90625,1.421875 0.015625,0.015625 0.046875,0.03125 0.109375,0.03125 0.109375,0 0.21875,-0.0625 0.21875,-0.125 0,-0.09375 -0.21875,-1.453125 -0.21875,-1.453125 -0.71875,-0.15625 -1.4375,-0.1875 -2.0625,-0.1875 z m 0,0"
           id="path13613" />
      </symbol>
    </g>
    <pattern
       id="EMFhbasepattern-6"
       patternUnits="userSpaceOnUse"
       width="6"
       height="6"
       x="0"
       y="0" />
    <g
       id="g7014">
      <symbol
         id="symbol7008"
         overflow="visible">
        <path
           id="path7006"
           d="M 0.5,0 H 4.484375 V -4.8125 H 0.5 Z M 1,-0.5 V -4.3125 H 3.984375 V -0.5 Z m 0,0"
           style="stroke:none" />
      </symbol>
      <symbol
         id="symbol7012"
         overflow="visible">
        <path
           id="path7010"
           d="m 2.171875,-1.125 c 0,0.28125 -0.015625,0.5625 -0.0625,0.71875 C 2.078125,-0.296875 1.609375,-0.25 1.5,-0.25 c -0.046875,0.046875 -0.046875,0.234375 0,0.28125 0.390625,-0.015625 0.65625,-0.046875 1.03125,-0.046875 0.375,0 0.6875,0.03125 1.09375,0.046875 0.046875,-0.046875 0.03125,-0.234375 0,-0.28125 C 3.5,-0.25 3.015625,-0.296875 2.984375,-0.40625 2.9375,-0.5625 2.9375,-0.84375 2.9375,-1.125 v -4.03125 c 0,-0.59375 0.078125,-0.9375 0.078125,-0.9375 0,-0.046875 -0.03125,-0.15625 -0.09375,-0.15625 H 2.90625 C 2.875,-6.25 2,-5.828125 1.203125,-5.46875 c -0.03125,0.015625 0,0.046875 0,0.0625 0,0.078125 0.03125,0.125 0.078125,0.171875 0.171875,-0.0625 0.546875,-0.203125 0.6875,-0.203125 0.140625,0 0.203125,0.09375 0.203125,0.375 z m 0,0"
           style="stroke:none" />
      </symbol>
    </g>
    <g
       style="fill:#3a493f;stroke-width:0"
       id="g3367">
      <symbol
         style="fill:#3a493f;stroke-width:0"
         overflow="visible"
         id="symbol3361">
        <path
           style="fill:#3a493f;stroke:none;stroke-width:0"
           d="M 0.5,0 H 4.484375 V -4.8125 H 0.5 Z M 1,-0.5 V -4.3125 H 3.984375 V -0.5 Z m 0,0"
           id="path3359" />
      </symbol>
      <symbol
         style="fill:#3a493f;stroke-width:0"
         overflow="visible"
         id="symbol3365">
        <path
           style="fill:#3a493f;stroke:none;stroke-width:0"
           d="m 2.484375,-5.875 c 0.71875,0 1.203125,1.1875 1.203125,2.71875 0,1.515625 -0.4375,2.828125 -1.3125,2.828125 -0.703125,0 -1.21875,-1.25 -1.21875,-2.78125 0,-1.53125 0.515625,-2.765625 1.328125,-2.765625 z m -0.0625,-0.359375 c -1.34375,0 -2.125,1.421875 -2.125,3.125 0,1.6875 0.796875,3.140625 2.125,3.140625 1.34375,0 2.125,-1.453125 2.125,-3.140625 0,-1.703125 -0.765625,-3.125 -2.125,-3.125 z m 0,0"
           id="path3363" />
      </symbol>
    </g>
  </defs>
  <sodipodi:namedview
     id="base"
     pagecolor="#ffffff"
     bordercolor="#666666"
     borderopacity="1.0"
     inkscape:pageopacity="0.0"
     inkscape:pageshadow="2"
     inkscape:zoom="1.4"
     inkscape:cx="93.884483"
     inkscape:cy="55.374783"
     inkscape:document-units="mm"
     inkscape:current-layer="layer1"
     inkscape:document-rotation="0"
     showgrid="false"
     inkscape:window-width="1600"
     inkscape:window-height="837"
     inkscape:window-x="-8"
     inkscape:window-y="-8"
     inkscape:window-maximized="1" />
  <metadata
     id="metadata12981">
    <rdf:RDF>
      <cc:Work
         rdf:about="">
        <dc:format>image/svg+xml</dc:format>
        <dc:type
           rdf:resource="http://purl.org/dc/dcmitype/StillImage" />
        <dc:title />
      </cc:Work>
    </rdf:RDF>
  </metadata>
  <g
     inkscape:label="Layer 1"
     inkscape:groupmode="layer"
     id="layer1"
     transform="translate(20.873107,4.0802592)">
    <path
       style="fill:none;stroke:#000000;stroke-width:0.264583;stroke-linecap:round;stroke-linejoin:miter;stroke-miterlimit:4;stroke-dasharray:1.05833, 0.529166;stroke-dashoffset:0;stroke-opacity:1"
       d="M -15.49724,12.160763 H 35.597409"
       id="path14165"
       sodipodi:nodetypes="cc" />
    <path
       style="fill:none;stroke:#000000;stroke-width:0.264583px;stroke-linecap:round;stroke-linejoin:round;stroke-opacity:1;marker-start:url(#Arrow1Mstart);marker-end:url(#Arrow1Mend)"
       d="M -15.73193,-3.5588504 V 24.871946 h 52.120726"
       id="path13819" />
    <path
       style="fill:none;stroke:#9e7867;stroke-width:0.264583;stroke-linecap:round;stroke-linejoin:miter;stroke-miterlimit:4;stroke-dasharray:1.05833, 0.529167;stroke-dashoffset:0;stroke-opacity:1"
       d="M 25.983437,7.5658363 C 28.16446,4.0022264 28.251296,-2.7340148 28.251296,-2.7340148"
       id="path14161"
       sodipodi:nodetypes="cc" />
    <path
       style="fill:none;stroke:#9e7867;stroke-width:0.264583;stroke-linecap:round;stroke-linejoin:miter;stroke-miterlimit:4;stroke-dasharray:1.05833, 0.529167;stroke-dashoffset:0;stroke-opacity:1"
       d="m 30.067427,16.65083 c -1.613075,3.697245 -2.08799,8.074887 -2.08799,8.074887"
       id="path14163"
       sodipodi:nodetypes="cc" />
    <g
       id="g14151"
       transform="matrix(0.72960463,0,0,1.0059489,28.931356,-0.34605437)"
       style="stroke-width:0.463257;stroke-miterlimit:4;stroke-dasharray:none;stroke-dashoffset:0">
      <path
         style="fill:none;stroke:#506a65;stroke-width:0.463257;stroke-linecap:round;stroke-linejoin:round;stroke-miterlimit:4;stroke-dasharray:none;stroke-dashoffset:0;stroke-opacity:1"
         d="m -10.884441,12.290755 c 5.13706,-1.115481 6.5314524,-4.4943275 7.4545229,-4.4943275 2.60649694,0 2.47338791,9.6593015 4.20370826,9.6593015"
         id="path14147"
         sodipodi:nodetypes="csc" />
      <path
         style="fill:none;stroke:#506a65;stroke-width:0.463257;stroke-linecap:round;stroke-linejoin:round;stroke-miterlimit:4;stroke-dasharray:none;stroke-dashoffset:0;stroke-opacity:1"
         d="m 0.77379016,17.455729 c 1.29767424,0 2.21774064,-5.022873 8.36273764,-5.022873"
         id="path14149"
         sodipodi:nodetypes="cc" />
    </g>
    <path
       style="fill:none;stroke:#9e7867;stroke-width:0.264583;stroke-linecap:round;stroke-linejoin:miter;stroke-miterlimit:4;stroke-dasharray:1.05833, 0.529167;stroke-dashoffset:0;stroke-opacity:1"
       d="M -2.9915968,7.5658363 C -0.81057523,4.0022264 -0.72373934,-2.7340148 -0.72373934,-2.7340148"
       id="path14153"
       sodipodi:nodetypes="cc" />
    <path
       style="fill:none;stroke:#9e7867;stroke-width:0.264583;stroke-linecap:round;stroke-linejoin:miter;stroke-miterlimit:4;stroke-dasharray:1.05833, 0.529167;stroke-dashoffset:0;stroke-opacity:1"
       d="m 1.4925673,16.65083 c -1.61307382,3.697245 -2.08798897,8.074887 -2.08798897,8.074887"
       id="path14155"
       sodipodi:nodetypes="cc" />
    <g
       id="g14127"
       style="stroke-width:0.396875;stroke-miterlimit:4;stroke-dasharray:none;stroke-dashoffset:0">
      <path
         style="fill:none;stroke:#506a65;stroke-width:0.396875;stroke-linecap:round;stroke-linejoin:round;stroke-miterlimit:4;stroke-dasharray:none;stroke-dashoffset:0;stroke-opacity:1"
         d="m -8.9535289,12.160763 c 4.3923543,0 5.5722327,-4.5968133 6.4953032,-4.5968133 2.25033324,0 1.58182824,9.5596683 3.31214859,9.5596683"
         id="path13560"
         sodipodi:nodetypes="csc" />
      <path
         style="fill:none;stroke:#506a65;stroke-width:0.396875;stroke-linecap:round;stroke-linejoin:round;stroke-miterlimit:4;stroke-dasharray:none;stroke-dashoffset:0;stroke-opacity:1"
         d="m 0.85392289,17.123618 c 1.29767421,0 1.22735501,-5.099166 5.88294041,-5.099166"
         id="path14123"
         sodipodi:nodetypes="cc" />
    </g>
    <path
       style="fill:none;stroke:#9e7867;stroke-width:0.264583;stroke-linecap:round;stroke-linejoin:miter;stroke-miterlimit:4;stroke-dasharray:1.05833, 0.529167;stroke-dashoffset:0;stroke-opacity:1"
       d="M 12.454437,7.5658363 C 14.63546,4.0022264 14.722296,-2.7340148 14.722296,-2.7340148"
       id="path14157"
       sodipodi:nodetypes="cc" />
    <path
       style="fill:none;stroke:#9e7867;stroke-width:0.264583;stroke-linecap:round;stroke-linejoin:miter;stroke-miterlimit:4;stroke-dasharray:1.05833, 0.529167;stroke-dashoffset:0;stroke-opacity:1"
       d="m 16.709427,16.65083 c -1.613075,3.697245 -2.08799,8.074887 -2.08799,8.074887"
       id="path14159"
       sodipodi:nodetypes="cc" />
    <g
       id="g14145"
       transform="matrix(0.96133824,0,0,1.0007943,15.340436,-0.14611543)"
       style="stroke-width:0.396875;stroke-miterlimit:4;stroke-dasharray:none;stroke-dashoffset:0">
      <path
         style="fill:none;stroke:#506a65;stroke-width:0.396875;stroke-linecap:round;stroke-linejoin:round;stroke-miterlimit:4;stroke-dasharray:none;stroke-dashoffset:0;stroke-opacity:1"
         d="m -8.9535289,12.160763 c 4.3923543,0 5.5722327,-4.5968133 6.4953032,-4.5968133 2.25033324,0 1.58182824,9.5596683 3.31214859,9.5596683"
         id="path14141"
         sodipodi:nodetypes="csc" />
      <path
         style="fill:none;stroke:#506a65;stroke-width:0.396875;stroke-linecap:round;stroke-linejoin:round;stroke-miterlimit:4;stroke-dasharray:none;stroke-dashoffset:0;stroke-opacity:1"
         d="m 0.85392289,17.123618 c 1.29767421,0 0.68673651,-3.942533 5.02286551,-4.96934"
         id="path14143"
         sodipodi:nodetypes="cc" />
    </g>
    <g
       transform="matrix(0.42333399,0,0,0.42333399,-18.115983,10.679093)"
       ns2:version="1.1.0"
       ns2:texconverter="pdflatex"
       ns2:pdfconverter="inkscape"
       ns2:text="$1$"
       ns2:preamble="C:\\Users\\flvisa\\Desktop\\lna\\latexify_books\\textext_preamble.tex"
       ns2:scale="1.199999773228722"
       ns2:alignment="middle center"
       ns2:inkscapeversion="1.0"
       ns2:jacobian_sqrt="0.423334"
       id="g6582">
      <defs
         id="id-99136f65-f779-4cb7-b19c-c10459896000">
        <g
           id="g14241">
          <symbol
             id="symbol14235"
             overflow="visible">
            <path
               id="path14233"
               d="M 0.5,0 H 4.484375 V -4.8125 H 0.5 Z M 1,-0.5 V -4.3125 H 3.984375 V -0.5 Z m 0,0"
               style="stroke:none" />
          </symbol>
          <symbol
             id="symbol14239"
             overflow="visible">
            <path
               id="path14237"
               d="m 2.171875,-1.125 c 0,0.28125 -0.015625,0.5625 -0.0625,0.71875 C 2.078125,-0.296875 1.609375,-0.25 1.5,-0.25 c -0.046875,0.046875 -0.046875,0.234375 0,0.28125 0.390625,-0.015625 0.65625,-0.046875 1.03125,-0.046875 0.375,0 0.6875,0.03125 1.09375,0.046875 0.046875,-0.046875 0.03125,-0.234375 0,-0.28125 C 3.5,-0.25 3.015625,-0.296875 2.984375,-0.40625 2.9375,-0.5625 2.9375,-0.84375 2.9375,-1.125 v -4.03125 c 0,-0.59375 0.078125,-0.9375 0.078125,-0.9375 0,-0.046875 -0.03125,-0.15625 -0.09375,-0.15625 H 2.90625 C 2.875,-6.25 2,-5.828125 1.203125,-5.46875 c -0.03125,0.015625 0,0.046875 0,0.0625 0,0.078125 0.03125,0.125 0.078125,0.171875 0.171875,-0.0625 0.546875,-0.203125 0.6875,-0.203125 0.140625,0 0.203125,0.09375 0.203125,0.375 z m 0,0"
               style="stroke:none" />
          </symbol>
        </g>
      </defs>
      <g
         transform="translate(-149.901,-128.515)"
         id="id-bd3de61b-ee2e-47ef-96ff-2b0b05c6120a">
        <g
           id="id-094dc464-c691-462e-9002-f9b026782012"
           style="fill:#000000;fill-opacity:1">
          <g
             transform="translate(148.712,134.765)"
             id="g6578">
            <path
               id="id-74bf3bd2-a8b6-49d6-a543-6822b0530089"
               d="m 2.171875,-1.125 c 0,0.28125 -0.015625,0.5625 -0.0625,0.71875 C 2.078125,-0.296875 1.609375,-0.25 1.5,-0.25 c -0.046875,0.046875 -0.046875,0.234375 0,0.28125 0.390625,-0.015625 0.65625,-0.046875 1.03125,-0.046875 0.375,0 0.6875,0.03125 1.09375,0.046875 0.046875,-0.046875 0.03125,-0.234375 0,-0.28125 C 3.5,-0.25 3.015625,-0.296875 2.984375,-0.40625 2.9375,-0.5625 2.9375,-0.84375 2.9375,-1.125 v -4.03125 c 0,-0.59375 0.078125,-0.9375 0.078125,-0.9375 0,-0.046875 -0.03125,-0.15625 -0.09375,-0.15625 H 2.90625 C 2.875,-6.25 2,-5.828125 1.203125,-5.46875 c -0.03125,0.015625 0,0.046875 0,0.0625 0,0.078125 0.03125,0.125 0.078125,0.171875 0.171875,-0.0625 0.546875,-0.203125 0.6875,-0.203125 0.140625,0 0.203125,0.09375 0.203125,0.375 z m 0,0"
               style="stroke:none" />
          </g>
        </g>
      </g>
    </g>
    <g
       id="g3286"
       style="fill:#000000;stroke-width:0"
       ns2:jacobian_sqrt="0.423334"
       ns2:inkscapeversion="1.0"
       ns2:alignment="middle center"
       ns2:scale="1.1999998866143555"
       ns2:preamble="C:\\Users\\flvisa\\Desktop\\lna\\latexify_books\\textext_preamble.tex"
       ns2:text="$0$"
       ns2:pdfconverter="inkscape"
       ns2:texconverter="pdflatex"
       ns2:version="1.1.0"
       transform="matrix(0.42333399,0,0,0.42333399,-17.187087,26.30747)">
      <defs
         id="id-c9b5e3a1-af6b-45d7-8f9c-7fa4577b7189">
        <g
           style="fill:#3a493f;stroke-width:0"
           id="g14257">
          <symbol
             style="fill:#3a493f;stroke-width:0"
             overflow="visible"
             id="symbol14251">
            <path
               style="fill:#3a493f;stroke:none;stroke-width:0"
               d="M 0.5,0 H 4.484375 V -4.8125 H 0.5 Z M 1,-0.5 V -4.3125 H 3.984375 V -0.5 Z m 0,0"
               id="path14249" />
          </symbol>
          <symbol
             style="fill:#3a493f;stroke-width:0"
             overflow="visible"
             id="symbol14255">
            <path
               style="fill:#3a493f;stroke:none;stroke-width:0"
               d="m 2.484375,-5.875 c 0.71875,0 1.203125,1.1875 1.203125,2.71875 0,1.515625 -0.4375,2.828125 -1.3125,2.828125 -0.703125,0 -1.21875,-1.25 -1.21875,-2.78125 0,-1.53125 0.515625,-2.765625 1.328125,-2.765625 z m -0.0625,-0.359375 c -1.34375,0 -2.125,1.421875 -2.125,3.125 0,1.6875 0.796875,3.140625 2.125,3.140625 1.34375,0 2.125,-1.453125 2.125,-3.140625 0,-1.703125 -0.765625,-3.125 -2.125,-3.125 z m 0,0"
               id="path14253" />
          </symbol>
        </g>
      </defs>
      <g
         style="fill:#000000;stroke-width:0"
         id="id-75a4d36a-b09c-4574-85f5-edd07e979b84"
         transform="translate(-149.009,-128.531)">
        <g
           style="fill:#000000;fill-opacity:1;stroke-width:0"
           id="id-e73582e4-c014-49ba-9e2b-505396076844">
          <g
             id="g3282"
             style="fill:#000000;stroke-width:0"
             transform="translate(148.712,134.765)">
            <path
               style="fill:#000000;stroke:none;stroke-width:0"
               d="m 2.484375,-5.875 c 0.71875,0 1.203125,1.1875 1.203125,2.71875 0,1.515625 -0.4375,2.828125 -1.3125,2.828125 -0.703125,0 -1.21875,-1.25 -1.21875,-2.78125 0,-1.53125 0.515625,-2.765625 1.328125,-2.765625 z m -0.0625,-0.359375 c -1.34375,0 -2.125,1.421875 -2.125,3.125 0,1.6875 0.796875,3.140625 2.125,3.140625 1.34375,0 2.125,-1.453125 2.125,-3.140625 0,-1.703125 -0.765625,-3.125 -2.125,-3.125 z m 0,0"
               id="id-9ce7ca54-69fd-4d5e-ab37-f20ad0949d24" />
          </g>
        </g>
      </g>
    </g>
    <g
       transform="matrix(0.423334,0,0,0.423334,-20.873001,-3.49427)"
       ns2:version="1.1.0"
       ns2:texconverter="pdflatex"
       ns2:pdfconverter="inkscape"
       ns2:text="$n^2$\n"
       ns2:preamble="C:\\Users\\flvisa\\Desktop\\lna\\latexify_books\\textext_preamble.tex"
       ns2:scale="1.1999997448823154"
       ns2:alignment="middle center"
       ns2:inkscapeversion="1.0.1"
       ns2:jacobian_sqrt="0.423334"
       id="g14380">
      <defs
         id="id-7cc2bab8-7b72-48ef-b6ab-490dc6b4480c">
        <g
           id="id-1fe771fc-e99d-4f0e-be67-65ae5a962db7">
          <symbol
             overflow="visible"
             id="id-d865febf-f2ad-4a72-a946-495c022ac398">
            <path
               style="stroke:none"
               d=""
               id="id-396acff8-993c-49d4-bfa4-1979b1403391" />
          </symbol>
          <symbol
             overflow="visible"
             id="id-9b9ffe00-4f14-44e5-83a8-740f28c65b9a">
            <path
               style="stroke:none"
               d="m 1.796875,-3.328125 c 0.0625,-0.21875 0.09375,-0.453125 0.09375,-0.546875 0,-0.296875 -0.171875,-0.515625 -0.390625,-0.515625 -0.484375,0 -1.171875,0.765625 -1.28125,0.953125 0,0.0625 0.078125,0.1875 0.09375,0.1875 0.03125,-0.03125 0.5,-0.59375 0.71875,-0.59375 0.09375,0 0.09375,0.171875 0.09375,0.265625 0,0.046875 -0.03125,0.265625 -0.03125,0.3125 L 0.421875,0 c 0.125,0.03125 0.21875,0.046875 0.359375,0.046875 0.140625,0 0.234375,-0.015625 0.359375,-0.046875 0.09375,-0.484375 0.171875,-0.734375 0.25,-1.21875 0.25,-1.265625 1.5,-2.421875 1.875,-2.421875 0.171875,0 0.1875,0.171875 0.1875,0.4375 C 3.453125,-3.09375 3.40625,-2.75 3.375,-2.65625 L 3.03125,-1 c -0.046875,0.21875 -0.078125,0.453125 -0.078125,0.53125 0,0.296875 0.125,0.53125 0.34375,0.53125 0.484375,0 1.203125,-0.765625 1.3125,-0.953125 C 4.609375,-0.953125 4.5625,-1.0625 4.53125,-1.0625 4.5,-1.03125 4.03125,-0.5 3.8125,-0.5 c -0.09375,0 -0.109375,-0.15625 -0.109375,-0.25 0,-0.046875 0.03125,-0.21875 0.046875,-0.3125 L 4.09375,-2.625 c 0.078125,-0.328125 0.140625,-0.78125 0.140625,-1.09375 0,-0.40625 -0.171875,-0.671875 -0.640625,-0.671875 -0.671875,0 -1.84375,1.65625 -1.96875,1.90625 z m 0,0"
               id="id-2470cb8c-0e4d-43b7-9ee6-891cf5e1d53d" />
          </symbol>
          <symbol
             overflow="visible"
             id="id-a01a0163-78f2-4012-b41c-85f4b6774c10">
            <path
               style="stroke:none"
               d="m 0.359375,0 h 2.90625 V -3.515625 H 0.359375 Z M 0.71875,-0.359375 v -2.78125 h 2.1875 v 2.78125 z m 0,0"
               id="id-eef2038a-ddb1-4b2e-be07-e2bd13c66d65" />
          </symbol>
          <symbol
             overflow="visible"
             id="id-254b3a51-7c10-4661-88d9-3c8590fa96e7">
            <path
               style="stroke:none"
               d="M 3.21875,-1.0625 C 3.1875,-1.078125 3.109375,-1.109375 3.078125,-1.109375 3.03125,-1.109375 3.015625,-1.09375 3,-1.0625 2.84375,-0.6875 2.6875,-0.515625 2.390625,-0.515625 H 0.984375 C 1.3125,-0.875 2.03125,-1.671875 2.53125,-2.296875 2.78125,-2.59375 2.9375,-2.96875 2.9375,-3.375 c 0,-0.59375 -0.546875,-1.1875 -1.21875,-1.1875 -0.75,0 -1.265625,0.796875 -1.3125,0.96875 0,0.03125 0.078125,0.109375 0.140625,0.109375 C 0.625,-3.625 0.984375,-4.09375 1.5625,-4.09375 c 0.4375,0 0.78125,0.375 0.78125,0.859375 0,0.34375 -0.0625,0.640625 -0.34375,1.0625 -0.421875,0.609375 -1.09375,1.40625 -1.6875,2.0625 0,0.03125 0.03125,0.09375 0.0625,0.109375 h 2.453125 c 0.046875,-0.125 0.25,-0.71875 0.390625,-1.0625 z m 0,0"
               id="id-2265cc5a-01bf-4406-b4fd-32be260913df" />
          </symbol>
        </g>
      </defs>
      <g
         id="id-73a5edd1-d3a7-4cf1-91b7-849132214024"
         transform="translate(-149.131,-126.585)">
        <g
           style="fill:#000000;fill-opacity:1"
           id="id-4833159c-f68e-47d1-8088-c59de024751b">
          <g
             transform="translate(148.912,134.765)"
             id="g14372">
            <path
               style="stroke:none"
               d="m 1.796875,-3.328125 c 0.0625,-0.21875 0.09375,-0.453125 0.09375,-0.546875 0,-0.296875 -0.171875,-0.515625 -0.390625,-0.515625 -0.484375,0 -1.171875,0.765625 -1.28125,0.953125 0,0.0625 0.078125,0.1875 0.09375,0.1875 0.03125,-0.03125 0.5,-0.59375 0.71875,-0.59375 0.09375,0 0.09375,0.171875 0.09375,0.265625 0,0.046875 -0.03125,0.265625 -0.03125,0.3125 L 0.421875,0 c 0.125,0.03125 0.21875,0.046875 0.359375,0.046875 0.140625,0 0.234375,-0.015625 0.359375,-0.046875 0.09375,-0.484375 0.171875,-0.734375 0.25,-1.21875 0.25,-1.265625 1.5,-2.421875 1.875,-2.421875 0.171875,0 0.1875,0.171875 0.1875,0.4375 C 3.453125,-3.09375 3.40625,-2.75 3.375,-2.65625 L 3.03125,-1 c -0.046875,0.21875 -0.078125,0.453125 -0.078125,0.53125 0,0.296875 0.125,0.53125 0.34375,0.53125 0.484375,0 1.203125,-0.765625 1.3125,-0.953125 C 4.609375,-0.953125 4.5625,-1.0625 4.53125,-1.0625 4.5,-1.03125 4.03125,-0.5 3.8125,-0.5 c -0.09375,0 -0.109375,-0.15625 -0.109375,-0.25 0,-0.046875 0.03125,-0.21875 0.046875,-0.3125 L 4.09375,-2.625 c 0.078125,-0.328125 0.140625,-0.78125 0.140625,-1.09375 0,-0.40625 -0.171875,-0.671875 -0.640625,-0.671875 -0.671875,0 -1.84375,1.65625 -1.96875,1.90625 z m 0,0"
               id="id-8b556d60-bb16-4076-8061-2451c214f455" />
          </g>
        </g>
        <g
           style="fill:#000000;fill-opacity:1"
           id="id-81e768c2-08a5-49de-b493-7a31eb9c9f23">
          <g
             transform="translate(153.903,131.148)"
             id="g14376">
            <path
               style="stroke:none"
               d="M 3.21875,-1.0625 C 3.1875,-1.078125 3.109375,-1.109375 3.078125,-1.109375 3.03125,-1.109375 3.015625,-1.09375 3,-1.0625 2.84375,-0.6875 2.6875,-0.515625 2.390625,-0.515625 H 0.984375 C 1.3125,-0.875 2.03125,-1.671875 2.53125,-2.296875 2.78125,-2.59375 2.9375,-2.96875 2.9375,-3.375 c 0,-0.59375 -0.546875,-1.1875 -1.21875,-1.1875 -0.75,0 -1.265625,0.796875 -1.3125,0.96875 0,0.03125 0.078125,0.109375 0.140625,0.109375 C 0.625,-3.625 0.984375,-4.09375 1.5625,-4.09375 c 0.4375,0 0.78125,0.375 0.78125,0.859375 0,0.34375 -0.0625,0.640625 -0.34375,1.0625 -0.421875,0.609375 -1.09375,1.40625 -1.6875,2.0625 0,0.03125 0.03125,0.09375 0.0625,0.109375 h 2.453125 c 0.046875,-0.125 0.25,-0.71875 0.390625,-1.0625 z m 0,0"
               id="id-601a3efd-9875-406f-a7e6-e9d40691305f" />
          </g>
        </g>
      </g>
    </g>
    <g
       transform="matrix(0.423334,0,0,0.423334,34.066,26.691)"
       ns2:version="1.1.0"
       ns2:texconverter="pdflatex"
       ns2:pdfconverter="inkscape"
       ns2:text="$\\omega$\n"
       ns2:preamble="C:\\Users\\flvisa\\Desktop\\lna\\latexify_books\\textext_preamble.tex"
       ns2:scale="1.199999858267946"
       ns2:alignment="middle center"
       ns2:inkscapeversion="1.0.1"
       ns2:jacobian_sqrt="0.423334"
       style="fill:#000000;stroke-width:0"
       id="g14626">
      <defs
         id="id-fbfecccd-7645-498e-b929-19777332aeca">
        <g
           id="id-4257e3a3-3129-473f-8b81-a0eda6c4af5a"
           style="fill:#000000;stroke-width:0">
          <symbol
             overflow="visible"
             id="id-83dce696-4bfd-4dfa-a958-ec5ce20737d8"
             style="fill:#000000;stroke-width:0">
            <path
               style="fill:#000000;stroke:none;stroke-width:0"
               d=""
               id="id-ccccd17a-3d63-4f3d-8f82-d161a4adb64b" />
          </symbol>
          <symbol
             overflow="visible"
             id="id-de93f68a-14e1-4e68-84fe-10a5972a0800"
             style="fill:#000000;stroke-width:0">
            <path
               style="fill:#000000;stroke:none;stroke-width:0"
               d="m 1.75,-4.390625 c -0.859375,0.71875 -1.484375,2.171875 -1.484375,3.1875 0,0.71875 0.3125,1.265625 0.9375,1.265625 0.5,0 0.90625,-0.34375 1.234375,-0.96875 0.03125,0.359375 0.28125,0.953125 0.828125,0.953125 C 4.28125,0.046875 4.875,-1.25 4.875,-2.265625 4.875,-3.1875 4.46875,-4 4.21875,-4.25 4.140625,-4.3125 4,-4.359375 3.859375,-4.375 c -0.046875,0 -0.046875,0.03125 -0.0625,0.09375 0.1875,0.15625 0.625,0.796875 0.625,1.6875 0,0.453125 -0.265625,1.96875 -1.15625,1.96875 -0.421875,0 -0.578125,-0.421875 -0.578125,-0.6875 0,-0.234375 0.265625,-1.046875 0.296875,-1.25 0,-0.09375 -0.28125,-0.34375 -0.40625,-0.34375 -0.0625,0 -0.125,0.0625 -0.171875,0.15625 0,0.109375 -0.03125,0.34375 -0.109375,0.703125 C 2.15625,-1.328125 1.78125,-0.53125 1.109375,-0.53125 0.78125,-0.53125 0.625,-0.8125 0.625,-1.203125 c 0,-1.203125 1.265625,-2.5625 1.46875,-2.6875 v -0.03125 c 0,-0.203125 -0.140625,-0.46875 -0.34375,-0.46875 z m 0,0"
               id="id-26b6b8ec-62f1-42da-b206-eebeeb7b87cc" />
          </symbol>
        </g>
      </defs>
      <g
         id="id-bb252c15-7e74-4a17-9965-e94ffb3c4abd"
         transform="translate(-149.078,-130.374)"
         style="fill:#000000;stroke-width:0">
        <g
           style="fill:#000000;fill-opacity:1;stroke-width:0"
           id="id-7adecfee-94b8-414f-8756-fe5a9c752253">
          <g
             transform="translate(148.812,134.765)"
             style="fill:#000000;stroke-width:0"
             id="g14622">
            <path
               style="fill:#000000;stroke:none;stroke-width:0"
               d="m 1.75,-4.390625 c -0.859375,0.71875 -1.484375,2.171875 -1.484375,3.1875 0,0.71875 0.3125,1.265625 0.9375,1.265625 0.5,0 0.90625,-0.34375 1.234375,-0.96875 0.03125,0.359375 0.28125,0.953125 0.828125,0.953125 C 4.28125,0.046875 4.875,-1.25 4.875,-2.265625 4.875,-3.1875 4.46875,-4 4.21875,-4.25 4.140625,-4.3125 4,-4.359375 3.859375,-4.375 c -0.046875,0 -0.046875,0.03125 -0.0625,0.09375 0.1875,0.15625 0.625,0.796875 0.625,1.6875 0,0.453125 -0.265625,1.96875 -1.15625,1.96875 -0.421875,0 -0.578125,-0.421875 -0.578125,-0.6875 0,-0.234375 0.265625,-1.046875 0.296875,-1.25 0,-0.09375 -0.28125,-0.34375 -0.40625,-0.34375 -0.0625,0 -0.125,0.0625 -0.171875,0.15625 0,0.109375 -0.03125,0.34375 -0.109375,0.703125 C 2.15625,-1.328125 1.78125,-0.53125 1.109375,-0.53125 0.78125,-0.53125 0.625,-0.8125 0.625,-1.203125 c 0,-1.203125 1.265625,-2.5625 1.46875,-2.6875 v -0.03125 c 0,-0.203125 -0.140625,-0.46875 -0.34375,-0.46875 z m 0,0"
               id="id-29f927ae-57c4-4065-9440-9b832efee799" />
          </g>
        </g>
      </g>
    </g>
    <g
       transform="matrix(0.423334,0,0,0.423334,25.222297,26.743917)"
       ns2:version="1.1.0"
       ns2:texconverter="pdflatex"
       ns2:pdfconverter="inkscape"
       ns2:text="$\\omega_{03}$\n"
       ns2:preamble="C:\\Users\\flvisa\\Desktop\\lna\\latexify_books\\textext_preamble.tex"
       ns2:scale="1.199999858267946"
       ns2:alignment="middle center"
       ns2:inkscapeversion="1.0.1"
       ns2:jacobian_sqrt="0.423334"
       style="fill:#000000;stroke-width:0"
       id="g14845">
      <defs
         id="id-034b44c2-25db-4dc8-9327-f6c3460e71d2">
        <g
           id="id-152780e7-6ec0-43f8-8e8e-d636f8676081"
           style="fill:#000000;stroke-width:0">
          <symbol
             overflow="visible"
             id="id-67f09e89-02c2-4eb5-99a7-867177f988ef"
             style="fill:#000000;stroke-width:0">
            <path
               style="fill:#000000;stroke:none;stroke-width:0"
               d=""
               id="id-6bca7285-4d48-4008-9df0-a85724f1d5c8" />
          </symbol>
          <symbol
             overflow="visible"
             id="id-6c58c37c-68ce-45bf-ac38-a623641f4ea3"
             style="fill:#000000;stroke-width:0">
            <path
               style="fill:#000000;stroke:none;stroke-width:0"
               d="m 1.75,-4.390625 c -0.859375,0.71875 -1.484375,2.171875 -1.484375,3.1875 0,0.71875 0.3125,1.265625 0.9375,1.265625 0.5,0 0.90625,-0.34375 1.234375,-0.96875 0.03125,0.359375 0.28125,0.953125 0.828125,0.953125 C 4.28125,0.046875 4.875,-1.25 4.875,-2.265625 4.875,-3.1875 4.46875,-4 4.21875,-4.25 4.140625,-4.3125 4,-4.359375 3.859375,-4.375 c -0.046875,0 -0.046875,0.03125 -0.0625,0.09375 0.1875,0.15625 0.625,0.796875 0.625,1.6875 0,0.453125 -0.265625,1.96875 -1.15625,1.96875 -0.421875,0 -0.578125,-0.421875 -0.578125,-0.6875 0,-0.234375 0.265625,-1.046875 0.296875,-1.25 0,-0.09375 -0.28125,-0.34375 -0.40625,-0.34375 -0.0625,0 -0.125,0.0625 -0.171875,0.15625 0,0.109375 -0.03125,0.34375 -0.109375,0.703125 C 2.15625,-1.328125 1.78125,-0.53125 1.109375,-0.53125 0.78125,-0.53125 0.625,-0.8125 0.625,-1.203125 c 0,-1.203125 1.265625,-2.5625 1.46875,-2.6875 v -0.03125 c 0,-0.203125 -0.140625,-0.46875 -0.34375,-0.46875 z m 0,0"
               id="id-86f05e43-a2e8-4ded-9b62-97dba549983c" />
          </symbol>
          <symbol
             overflow="visible"
             id="id-a8ca18e1-74d5-46f0-ba90-f7c352fca2f4"
             style="fill:#000000;stroke-width:0">
            <path
               style="fill:#000000;stroke:none;stroke-width:0"
               d="m 0.359375,0 h 2.90625 V -3.515625 H 0.359375 Z M 0.71875,-0.359375 v -2.78125 h 2.1875 v 2.78125 z m 0,0"
               id="id-84d420dd-3dd1-4a9d-9db1-9cb227ff3506" />
          </symbol>
          <symbol
             overflow="visible"
             id="id-8a2bf9ba-7803-44e2-9099-ae6bff5819a7"
             style="fill:#000000;stroke-width:0">
            <path
               style="fill:#000000;stroke:none;stroke-width:0"
               d="m 1.8125,-4.28125 c 0.515625,0 0.875,0.859375 0.875,1.984375 0,1.109375 -0.3125,2.0625 -0.953125,2.0625 -0.515625,0 -0.890625,-0.921875 -0.890625,-2.03125 0,-1.109375 0.375,-2.015625 0.96875,-2.015625 z M 1.765625,-4.546875 c -0.984375,0 -1.546875,1.046875 -1.546875,2.28125 0,1.234375 0.578125,2.28125 1.546875,2.28125 0.984375,0 1.546875,-1.046875 1.546875,-2.28125 0,-1.234375 -0.546875,-2.28125 -1.546875,-2.28125 z m 0,0"
               id="id-d5d8d75c-bffe-4cc8-9d27-658c2086449b" />
          </symbol>
          <symbol
             overflow="visible"
             id="id-78b4ff91-b541-4ae9-83b1-7fde06c5950c"
             style="fill:#000000;stroke-width:0">
            <path
               style="fill:#000000;stroke:none;stroke-width:0"
               d="m 1.828125,-4.5625 c -0.546875,0 -0.953125,0.375 -1.171875,0.703125 0,0.0625 0.046875,0.140625 0.078125,0.140625 0.078125,-0.046875 0.34375,-0.453125 0.796875,-0.453125 0.40625,0 0.703125,0.28125 0.703125,0.65625 0,0.609375 -0.546875,0.921875 -1.109375,1.046875 -0.015625,0.015625 -0.015625,0.046875 -0.015625,0.078125 0,0.046875 0.015625,0.09375 0.046875,0.125 C 1.25,-2.28125 1.421875,-2.34375 1.578125,-2.34375 c 0.46875,0 0.90625,0.421875 0.90625,1 0,0.8125 -0.453125,1.09375 -0.828125,1.09375 -0.203125,0 -0.390625,-0.046875 -0.53125,-0.171875 -0.109375,-0.125 -0.203125,-0.3125 -0.40625,-0.3125 -0.140625,0 -0.296875,0.125 -0.296875,0.328125 0,0.125 0.109375,0.25 0.15625,0.28125 0.21875,0.109375 0.53125,0.15625 0.71875,0.15625 0.875,0 1.796875,-0.609375 1.796875,-1.578125 C 3.09375,-2.25 2.515625,-2.625 2.109375,-2.6875 c 0.25,-0.15625 0.65625,-0.5 0.65625,-0.953125 0,-0.59375 -0.578125,-0.921875 -0.9375,-0.921875 z m 0,0"
               id="id-d008a10e-1bf5-44f4-8fe5-8bb04f1b276d" />
          </symbol>
        </g>
      </defs>
      <g
         id="id-0bf9e914-8761-4858-8e94-e9669c786855"
         transform="translate(-149.078,-130.374)"
         style="fill:#000000;stroke-width:0">
        <g
           style="fill:#000000;fill-opacity:1;stroke-width:0"
           id="id-c35e236f-3bfa-4f0d-a22b-8f1fa9b61ea5">
          <g
             transform="translate(148.812,134.765)"
             style="fill:#000000;stroke-width:0"
             id="g14834">
            <path
               style="fill:#000000;stroke:none;stroke-width:0"
               d="m 1.75,-4.390625 c -0.859375,0.71875 -1.484375,2.171875 -1.484375,3.1875 0,0.71875 0.3125,1.265625 0.9375,1.265625 0.5,0 0.90625,-0.34375 1.234375,-0.96875 0.03125,0.359375 0.28125,0.953125 0.828125,0.953125 C 4.28125,0.046875 4.875,-1.25 4.875,-2.265625 4.875,-3.1875 4.46875,-4 4.21875,-4.25 4.140625,-4.3125 4,-4.359375 3.859375,-4.375 c -0.046875,0 -0.046875,0.03125 -0.0625,0.09375 0.1875,0.15625 0.625,0.796875 0.625,1.6875 0,0.453125 -0.265625,1.96875 -1.15625,1.96875 -0.421875,0 -0.578125,-0.421875 -0.578125,-0.6875 0,-0.234375 0.265625,-1.046875 0.296875,-1.25 0,-0.09375 -0.28125,-0.34375 -0.40625,-0.34375 -0.0625,0 -0.125,0.0625 -0.171875,0.15625 0,0.109375 -0.03125,0.34375 -0.109375,0.703125 C 2.15625,-1.328125 1.78125,-0.53125 1.109375,-0.53125 0.78125,-0.53125 0.625,-0.8125 0.625,-1.203125 c 0,-1.203125 1.265625,-2.5625 1.46875,-2.6875 v -0.03125 c 0,-0.203125 -0.140625,-0.46875 -0.34375,-0.46875 z m 0,0"
               id="id-ecac6e33-cfa2-4637-806f-1aa9d3fd51b4" />
          </g>
        </g>
        <g
           style="fill:#000000;fill-opacity:1;stroke-width:0"
           id="id-86b006ca-22c9-4845-ac99-1d62ebc6c886">
          <g
             transform="translate(154.331,136.259)"
             style="fill:#000000;stroke-width:0"
             id="g14838">
            <path
               style="fill:#000000;stroke:none;stroke-width:0"
               d="m 1.8125,-4.28125 c 0.515625,0 0.875,0.859375 0.875,1.984375 0,1.109375 -0.3125,2.0625 -0.953125,2.0625 -0.515625,0 -0.890625,-0.921875 -0.890625,-2.03125 0,-1.109375 0.375,-2.015625 0.96875,-2.015625 z M 1.765625,-4.546875 c -0.984375,0 -1.546875,1.046875 -1.546875,2.28125 0,1.234375 0.578125,2.28125 1.546875,2.28125 0.984375,0 1.546875,-1.046875 1.546875,-2.28125 0,-1.234375 -0.546875,-2.28125 -1.546875,-2.28125 z m 0,0"
               id="id-6f8fca32-9983-482b-ad69-ef944c23d129" />
          </g>
          <g
             transform="translate(157.858,136.259)"
             style="fill:#000000;stroke-width:0"
             id="g14841">
            <path
               style="fill:#000000;stroke:none;stroke-width:0"
               d="m 1.828125,-4.5625 c -0.546875,0 -0.953125,0.375 -1.171875,0.703125 0,0.0625 0.046875,0.140625 0.078125,0.140625 0.078125,-0.046875 0.34375,-0.453125 0.796875,-0.453125 0.40625,0 0.703125,0.28125 0.703125,0.65625 0,0.609375 -0.546875,0.921875 -1.109375,1.046875 -0.015625,0.015625 -0.015625,0.046875 -0.015625,0.078125 0,0.046875 0.015625,0.09375 0.046875,0.125 C 1.25,-2.28125 1.421875,-2.34375 1.578125,-2.34375 c 0.46875,0 0.90625,0.421875 0.90625,1 0,0.8125 -0.453125,1.09375 -0.828125,1.09375 -0.203125,0 -0.390625,-0.046875 -0.53125,-0.171875 -0.109375,-0.125 -0.203125,-0.3125 -0.40625,-0.3125 -0.140625,0 -0.296875,0.125 -0.296875,0.328125 0,0.125 0.109375,0.25 0.15625,0.28125 0.21875,0.109375 0.53125,0.15625 0.71875,0.15625 0.875,0 1.796875,-0.609375 1.796875,-1.578125 C 3.09375,-2.25 2.515625,-2.625 2.109375,-2.6875 c 0.25,-0.15625 0.65625,-0.5 0.65625,-0.953125 0,-0.59375 -0.578125,-0.921875 -0.9375,-0.921875 z m 0,0"
               id="id-a561b06a-67b1-4308-ad69-d2feafdef3cb" />
          </g>
        </g>
      </g>
    </g>
    <g
       transform="matrix(0.423334,0,0,0.423334,11.9665,26.7474)"
       ns2:version="1.1.0"
       ns2:texconverter="pdflatex"
       ns2:pdfconverter="inkscape"
       ns2:text="$\\omega_{02}$\n\n"
       ns2:preamble="C:\\Users\\flvisa\\Desktop\\lna\\latexify_books\\textext_preamble.tex"
       ns2:scale="1.199999858267946"
       ns2:alignment="middle center"
       ns2:inkscapeversion="1.0.1"
       ns2:jacobian_sqrt="0.423334"
       style="fill:#000000;stroke-width:0"
       id="g15075">
      <defs
         id="id-77639a7d-ff18-437d-875a-0d39e0e62253">
        <g
           id="id-42dce0df-f669-4f76-9eae-be2fc6af4220"
           style="fill:#000000;stroke-width:0">
          <symbol
             overflow="visible"
             id="id-3244e566-2a25-4fb6-a800-015d5f9a200b"
             style="fill:#000000;stroke-width:0">
            <path
               style="fill:#000000;stroke:none;stroke-width:0"
               d=""
               id="id-6611ba6b-cc88-4191-8d76-b32122f66456" />
          </symbol>
          <symbol
             overflow="visible"
             id="id-86eab030-86a2-406d-93f9-bbe7fda9d0c8"
             style="fill:#000000;stroke-width:0">
            <path
               style="fill:#000000;stroke:none;stroke-width:0"
               d="m 1.75,-4.390625 c -0.859375,0.71875 -1.484375,2.171875 -1.484375,3.1875 0,0.71875 0.3125,1.265625 0.9375,1.265625 0.5,0 0.90625,-0.34375 1.234375,-0.96875 0.03125,0.359375 0.28125,0.953125 0.828125,0.953125 C 4.28125,0.046875 4.875,-1.25 4.875,-2.265625 4.875,-3.1875 4.46875,-4 4.21875,-4.25 4.140625,-4.3125 4,-4.359375 3.859375,-4.375 c -0.046875,0 -0.046875,0.03125 -0.0625,0.09375 0.1875,0.15625 0.625,0.796875 0.625,1.6875 0,0.453125 -0.265625,1.96875 -1.15625,1.96875 -0.421875,0 -0.578125,-0.421875 -0.578125,-0.6875 0,-0.234375 0.265625,-1.046875 0.296875,-1.25 0,-0.09375 -0.28125,-0.34375 -0.40625,-0.34375 -0.0625,0 -0.125,0.0625 -0.171875,0.15625 0,0.109375 -0.03125,0.34375 -0.109375,0.703125 C 2.15625,-1.328125 1.78125,-0.53125 1.109375,-0.53125 0.78125,-0.53125 0.625,-0.8125 0.625,-1.203125 c 0,-1.203125 1.265625,-2.5625 1.46875,-2.6875 v -0.03125 c 0,-0.203125 -0.140625,-0.46875 -0.34375,-0.46875 z m 0,0"
               id="id-3a855d90-ec93-4608-9d6c-daea2e3b938f" />
          </symbol>
          <symbol
             overflow="visible"
             id="id-7dc67b64-dabd-410e-a0a7-e4deae0e3feb"
             style="fill:#000000;stroke-width:0">
            <path
               style="fill:#000000;stroke:none;stroke-width:0"
               d="m 0.359375,0 h 2.90625 V -3.515625 H 0.359375 Z M 0.71875,-0.359375 v -2.78125 h 2.1875 v 2.78125 z m 0,0"
               id="id-2ceab64d-744b-416d-aa28-cf67096449d4" />
          </symbol>
          <symbol
             overflow="visible"
             id="id-c813ee06-0eb8-4f35-8faf-37ffd26ff15f"
             style="fill:#000000;stroke-width:0">
            <path
               style="fill:#000000;stroke:none;stroke-width:0"
               d="m 1.8125,-4.28125 c 0.515625,0 0.875,0.859375 0.875,1.984375 0,1.109375 -0.3125,2.0625 -0.953125,2.0625 -0.515625,0 -0.890625,-0.921875 -0.890625,-2.03125 0,-1.109375 0.375,-2.015625 0.96875,-2.015625 z M 1.765625,-4.546875 c -0.984375,0 -1.546875,1.046875 -1.546875,2.28125 0,1.234375 0.578125,2.28125 1.546875,2.28125 0.984375,0 1.546875,-1.046875 1.546875,-2.28125 0,-1.234375 -0.546875,-2.28125 -1.546875,-2.28125 z m 0,0"
               id="id-5ccf621a-c30f-4f81-b43d-f540708ae429" />
          </symbol>
          <symbol
             overflow="visible"
             id="id-2f0641d5-eb0a-40ab-bdea-dbd2372bb023"
             style="fill:#000000;stroke-width:0">
            <path
               style="fill:#000000;stroke:none;stroke-width:0"
               d="M 3.21875,-1.0625 C 3.1875,-1.078125 3.109375,-1.109375 3.078125,-1.109375 3.03125,-1.109375 3.015625,-1.09375 3,-1.0625 2.84375,-0.6875 2.6875,-0.515625 2.390625,-0.515625 H 0.984375 C 1.3125,-0.875 2.03125,-1.671875 2.53125,-2.296875 2.78125,-2.59375 2.9375,-2.96875 2.9375,-3.375 c 0,-0.59375 -0.546875,-1.1875 -1.21875,-1.1875 -0.75,0 -1.265625,0.796875 -1.3125,0.96875 0,0.03125 0.078125,0.109375 0.140625,0.109375 C 0.625,-3.625 0.984375,-4.09375 1.5625,-4.09375 c 0.4375,0 0.78125,0.375 0.78125,0.859375 0,0.34375 -0.0625,0.640625 -0.34375,1.0625 -0.421875,0.609375 -1.09375,1.40625 -1.6875,2.0625 0,0.03125 0.03125,0.09375 0.0625,0.109375 h 2.453125 c 0.046875,-0.125 0.25,-0.71875 0.390625,-1.0625 z m 0,0"
               id="id-d63c06e2-43f9-4b3f-b532-93ef0b2d549b" />
          </symbol>
        </g>
      </defs>
      <g
         id="id-ecc2d2f5-4bed-42cd-ae06-ea4ac9b8dc3d"
         transform="translate(-149.078,-130.374)"
         style="fill:#000000;stroke-width:0">
        <g
           style="fill:#000000;fill-opacity:1;stroke-width:0"
           id="id-7b87c6a9-123b-4eef-8a99-7fa6af7022f6">
          <g
             transform="translate(148.812,134.765)"
             style="fill:#000000;stroke-width:0"
             id="g15064">
            <path
               style="fill:#000000;stroke:none;stroke-width:0"
               d="m 1.75,-4.390625 c -0.859375,0.71875 -1.484375,2.171875 -1.484375,3.1875 0,0.71875 0.3125,1.265625 0.9375,1.265625 0.5,0 0.90625,-0.34375 1.234375,-0.96875 0.03125,0.359375 0.28125,0.953125 0.828125,0.953125 C 4.28125,0.046875 4.875,-1.25 4.875,-2.265625 4.875,-3.1875 4.46875,-4 4.21875,-4.25 4.140625,-4.3125 4,-4.359375 3.859375,-4.375 c -0.046875,0 -0.046875,0.03125 -0.0625,0.09375 0.1875,0.15625 0.625,0.796875 0.625,1.6875 0,0.453125 -0.265625,1.96875 -1.15625,1.96875 -0.421875,0 -0.578125,-0.421875 -0.578125,-0.6875 0,-0.234375 0.265625,-1.046875 0.296875,-1.25 0,-0.09375 -0.28125,-0.34375 -0.40625,-0.34375 -0.0625,0 -0.125,0.0625 -0.171875,0.15625 0,0.109375 -0.03125,0.34375 -0.109375,0.703125 C 2.15625,-1.328125 1.78125,-0.53125 1.109375,-0.53125 0.78125,-0.53125 0.625,-0.8125 0.625,-1.203125 c 0,-1.203125 1.265625,-2.5625 1.46875,-2.6875 v -0.03125 c 0,-0.203125 -0.140625,-0.46875 -0.34375,-0.46875 z m 0,0"
               id="id-6be89b22-6876-4995-b52b-7104f0ed53ad" />
          </g>
        </g>
        <g
           style="fill:#000000;fill-opacity:1;stroke-width:0"
           id="id-80a3de0f-c1c8-4a6b-be1f-33a7778b2bc8">
          <g
             transform="translate(154.331,136.259)"
             style="fill:#000000;stroke-width:0"
             id="g15068">
            <path
               style="fill:#000000;stroke:none;stroke-width:0"
               d="m 1.8125,-4.28125 c 0.515625,0 0.875,0.859375 0.875,1.984375 0,1.109375 -0.3125,2.0625 -0.953125,2.0625 -0.515625,0 -0.890625,-0.921875 -0.890625,-2.03125 0,-1.109375 0.375,-2.015625 0.96875,-2.015625 z M 1.765625,-4.546875 c -0.984375,0 -1.546875,1.046875 -1.546875,2.28125 0,1.234375 0.578125,2.28125 1.546875,2.28125 0.984375,0 1.546875,-1.046875 1.546875,-2.28125 0,-1.234375 -0.546875,-2.28125 -1.546875,-2.28125 z m 0,0"
               id="id-a2106bde-dfd6-4930-bedc-ed4941c1a447" />
          </g>
          <g
             transform="translate(157.858,136.259)"
             style="fill:#000000;stroke-width:0"
             id="g15071">
            <path
               style="fill:#000000;stroke:none;stroke-width:0"
               d="M 3.21875,-1.0625 C 3.1875,-1.078125 3.109375,-1.109375 3.078125,-1.109375 3.03125,-1.109375 3.015625,-1.09375 3,-1.0625 2.84375,-0.6875 2.6875,-0.515625 2.390625,-0.515625 H 0.984375 C 1.3125,-0.875 2.03125,-1.671875 2.53125,-2.296875 2.78125,-2.59375 2.9375,-2.96875 2.9375,-3.375 c 0,-0.59375 -0.546875,-1.1875 -1.21875,-1.1875 -0.75,0 -1.265625,0.796875 -1.3125,0.96875 0,0.03125 0.078125,0.109375 0.140625,0.109375 C 0.625,-3.625 0.984375,-4.09375 1.5625,-4.09375 c 0.4375,0 0.78125,0.375 0.78125,0.859375 0,0.34375 -0.0625,0.640625 -0.34375,1.0625 -0.421875,0.609375 -1.09375,1.40625 -1.6875,2.0625 0,0.03125 0.03125,0.09375 0.0625,0.109375 h 2.453125 c 0.046875,-0.125 0.25,-0.71875 0.390625,-1.0625 z m 0,0"
               id="id-48a606bd-3506-464c-ab19-387811c17f91" />
          </g>
        </g>
      </g>
    </g>
    <g
       transform="matrix(0.423334,0,0,0.423334,-3.26209,26.7476)"
       ns2:version="1.1.0"
       ns2:texconverter="pdflatex"
       ns2:pdfconverter="inkscape"
       ns2:text="$\\omega_{01}$\n\n\n"
       ns2:preamble="C:\\Users\\flvisa\\Desktop\\lna\\latexify_books\\textext_preamble.tex"
       ns2:scale="1.199999858267946"
       ns2:alignment="middle center"
       ns2:inkscapeversion="1.0.1"
       ns2:jacobian_sqrt="0.423334"
       style="fill:#000000;stroke-width:0"
       id="g15316">
      <defs
         id="id-eb4b684e-7d5b-4e07-a22c-056c30d77f4a">
        <g
           id="id-b7cb99fe-bcdf-42ca-808e-bf317a2f795b"
           style="fill:#000000;stroke-width:0">
          <symbol
             overflow="visible"
             id="id-9a7e0f32-90af-4a68-b7b4-7614a1f44142"
             style="fill:#000000;stroke-width:0">
            <path
               style="fill:#000000;stroke:none;stroke-width:0"
               d=""
               id="id-15b70a6e-3259-484f-a3c1-10a50bfd64d3" />
          </symbol>
          <symbol
             overflow="visible"
             id="id-5acd27ae-aba4-4b06-962f-12b4b30f3d89"
             style="fill:#000000;stroke-width:0">
            <path
               style="fill:#000000;stroke:none;stroke-width:0"
               d="m 1.75,-4.390625 c -0.859375,0.71875 -1.484375,2.171875 -1.484375,3.1875 0,0.71875 0.3125,1.265625 0.9375,1.265625 0.5,0 0.90625,-0.34375 1.234375,-0.96875 0.03125,0.359375 0.28125,0.953125 0.828125,0.953125 C 4.28125,0.046875 4.875,-1.25 4.875,-2.265625 4.875,-3.1875 4.46875,-4 4.21875,-4.25 4.140625,-4.3125 4,-4.359375 3.859375,-4.375 c -0.046875,0 -0.046875,0.03125 -0.0625,0.09375 0.1875,0.15625 0.625,0.796875 0.625,1.6875 0,0.453125 -0.265625,1.96875 -1.15625,1.96875 -0.421875,0 -0.578125,-0.421875 -0.578125,-0.6875 0,-0.234375 0.265625,-1.046875 0.296875,-1.25 0,-0.09375 -0.28125,-0.34375 -0.40625,-0.34375 -0.0625,0 -0.125,0.0625 -0.171875,0.15625 0,0.109375 -0.03125,0.34375 -0.109375,0.703125 C 2.15625,-1.328125 1.78125,-0.53125 1.109375,-0.53125 0.78125,-0.53125 0.625,-0.8125 0.625,-1.203125 c 0,-1.203125 1.265625,-2.5625 1.46875,-2.6875 v -0.03125 c 0,-0.203125 -0.140625,-0.46875 -0.34375,-0.46875 z m 0,0"
               id="id-93661104-97ab-47fb-983c-c7b4918b5ee8" />
          </symbol>
          <symbol
             overflow="visible"
             id="id-fbd69654-67aa-45bc-916d-3dc94c80c633"
             style="fill:#000000;stroke-width:0">
            <path
               style="fill:#000000;stroke:none;stroke-width:0"
               d="m 0.359375,0 h 2.90625 V -3.515625 H 0.359375 Z M 0.71875,-0.359375 v -2.78125 h 2.1875 v 2.78125 z m 0,0"
               id="id-f3f8a132-342f-42ac-a215-c1f9c8afaa5a" />
          </symbol>
          <symbol
             overflow="visible"
             id="id-cdbdca9a-764e-4f72-b725-648649ac388a"
             style="fill:#000000;stroke-width:0">
            <path
               style="fill:#000000;stroke:none;stroke-width:0"
               d="m 1.8125,-4.28125 c 0.515625,0 0.875,0.859375 0.875,1.984375 0,1.109375 -0.3125,2.0625 -0.953125,2.0625 -0.515625,0 -0.890625,-0.921875 -0.890625,-2.03125 0,-1.109375 0.375,-2.015625 0.96875,-2.015625 z M 1.765625,-4.546875 c -0.984375,0 -1.546875,1.046875 -1.546875,2.28125 0,1.234375 0.578125,2.28125 1.546875,2.28125 0.984375,0 1.546875,-1.046875 1.546875,-2.28125 0,-1.234375 -0.546875,-2.28125 -1.546875,-2.28125 z m 0,0"
               id="id-b7868663-d82f-485d-a83b-c25267d20cd6" />
          </symbol>
          <symbol
             overflow="visible"
             id="id-2391d248-42ca-4ab5-8196-6e6e1043f2bd"
             style="fill:#000000;stroke-width:0">
            <path
               style="fill:#000000;stroke:none;stroke-width:0"
               d="m 1.578125,-0.828125 c 0,0.21875 0,0.40625 -0.03125,0.53125 -0.03125,0.078125 -0.375,0.109375 -0.453125,0.109375 -0.03125,0.046875 -0.046875,0.171875 0,0.203125 C 1.375,0 1.5625,-0.015625 1.84375,-0.015625 c 0.28125,0 0.5,0.015625 0.796875,0.03125 0.03125,-0.03125 0.03125,-0.15625 0,-0.203125 -0.09375,0 -0.4375,-0.03125 -0.46875,-0.109375 -0.03125,-0.125 -0.03125,-0.3125 -0.03125,-0.53125 V -3.75 c 0,-0.4375 0.0625,-0.6875 0.0625,-0.6875 C 2.1875,-4.46875 2.171875,-4.5625 2.125,-4.5625 H 2.109375 c -0.015625,0 -0.65625,0.3125 -1.234375,0.578125 -0.015625,0.015625 0,0.03125 0,0.046875 0,0.046875 0.03125,0.09375 0.0625,0.125 0.109375,-0.046875 0.390625,-0.140625 0.5,-0.140625 0.109375,0 0.140625,0.0625 0.140625,0.265625 z m 0,0"
               id="id-8f887343-154d-4b83-83eb-08512279375e" />
          </symbol>
        </g>
      </defs>
      <g
         id="id-856881df-945b-493b-8f6f-4b502b8b2721"
         transform="translate(-149.078,-130.374)"
         style="fill:#000000;stroke-width:0">
        <g
           style="fill:#000000;fill-opacity:1;stroke-width:0"
           id="id-41990547-112e-4dfe-8a16-05836ab6deeb">
          <g
             transform="translate(148.812,134.765)"
             style="fill:#000000;stroke-width:0"
             id="g15305">
            <path
               style="fill:#000000;stroke:none;stroke-width:0"
               d="m 1.75,-4.390625 c -0.859375,0.71875 -1.484375,2.171875 -1.484375,3.1875 0,0.71875 0.3125,1.265625 0.9375,1.265625 0.5,0 0.90625,-0.34375 1.234375,-0.96875 0.03125,0.359375 0.28125,0.953125 0.828125,0.953125 C 4.28125,0.046875 4.875,-1.25 4.875,-2.265625 4.875,-3.1875 4.46875,-4 4.21875,-4.25 4.140625,-4.3125 4,-4.359375 3.859375,-4.375 c -0.046875,0 -0.046875,0.03125 -0.0625,0.09375 0.1875,0.15625 0.625,0.796875 0.625,1.6875 0,0.453125 -0.265625,1.96875 -1.15625,1.96875 -0.421875,0 -0.578125,-0.421875 -0.578125,-0.6875 0,-0.234375 0.265625,-1.046875 0.296875,-1.25 0,-0.09375 -0.28125,-0.34375 -0.40625,-0.34375 -0.0625,0 -0.125,0.0625 -0.171875,0.15625 0,0.109375 -0.03125,0.34375 -0.109375,0.703125 C 2.15625,-1.328125 1.78125,-0.53125 1.109375,-0.53125 0.78125,-0.53125 0.625,-0.8125 0.625,-1.203125 c 0,-1.203125 1.265625,-2.5625 1.46875,-2.6875 v -0.03125 c 0,-0.203125 -0.140625,-0.46875 -0.34375,-0.46875 z m 0,0"
               id="id-fcd7e7fc-cf77-4d3a-9860-f142f5c49d43" />
          </g>
        </g>
        <g
           style="fill:#000000;fill-opacity:1;stroke-width:0"
           id="id-c8307c91-c9a4-4a86-97d7-05d6131024b2">
          <g
             transform="translate(154.331,136.259)"
             style="fill:#000000;stroke-width:0"
             id="g15309">
            <path
               style="fill:#000000;stroke:none;stroke-width:0"
               d="m 1.8125,-4.28125 c 0.515625,0 0.875,0.859375 0.875,1.984375 0,1.109375 -0.3125,2.0625 -0.953125,2.0625 -0.515625,0 -0.890625,-0.921875 -0.890625,-2.03125 0,-1.109375 0.375,-2.015625 0.96875,-2.015625 z M 1.765625,-4.546875 c -0.984375,0 -1.546875,1.046875 -1.546875,2.28125 0,1.234375 0.578125,2.28125 1.546875,2.28125 0.984375,0 1.546875,-1.046875 1.546875,-2.28125 0,-1.234375 -0.546875,-2.28125 -1.546875,-2.28125 z m 0,0"
               id="id-e5d16fd2-2066-4633-9990-6aa42f4fb627" />
          </g>
          <g
             transform="translate(157.858,136.259)"
             style="fill:#000000;stroke-width:0"
             id="g15312">
            <path
               style="fill:#000000;stroke:none;stroke-width:0"
               d="m 1.578125,-0.828125 c 0,0.21875 0,0.40625 -0.03125,0.53125 -0.03125,0.078125 -0.375,0.109375 -0.453125,0.109375 -0.03125,0.046875 -0.046875,0.171875 0,0.203125 C 1.375,0 1.5625,-0.015625 1.84375,-0.015625 c 0.28125,0 0.5,0.015625 0.796875,0.03125 0.03125,-0.03125 0.03125,-0.15625 0,-0.203125 -0.09375,0 -0.4375,-0.03125 -0.46875,-0.109375 -0.03125,-0.125 -0.03125,-0.3125 -0.03125,-0.53125 V -3.75 c 0,-0.4375 0.0625,-0.6875 0.0625,-0.6875 C 2.1875,-4.46875 2.171875,-4.5625 2.125,-4.5625 H 2.109375 c -0.015625,0 -0.65625,0.3125 -1.234375,0.578125 -0.015625,0.015625 0,0.03125 0,0.046875 0,0.046875 0.03125,0.09375 0.0625,0.125 0.109375,-0.046875 0.390625,-0.140625 0.5,-0.140625 0.109375,0 0.140625,0.0625 0.140625,0.265625 z m 0,0"
               id="id-1c642b66-a01e-491c-864b-cd116bff579a" />
          </g>
        </g>
      </g>
    </g>
    <path
       style="fill:none;stroke:#000000;stroke-width:0.264583px;stroke-linecap:round;stroke-linejoin:miter;stroke-opacity:1"
       d="M -0.5954218,25.48395 V 24.190032"
       id="path15342" />
    <path
       style="fill:none;stroke:#000000;stroke-width:0.264583px;stroke-linecap:round;stroke-linejoin:miter;stroke-opacity:1"
       d="M 14.550184,25.48395 V 24.190032"
       id="path15344" />
    <path
       style="fill:none;stroke:#000000;stroke-width:0.264583px;stroke-linecap:round;stroke-linejoin:miter;stroke-opacity:1"
       d="M 27.979184,25.48395 V 24.190032"
       id="path15346" />
  </g>
</svg>
