<?xml version="1.0" encoding="UTF-8" standalone="no"?>
<svg
   xmlns:ns2="http://www.iki.fi/pav/software/textext/"
   xmlns:dc="http://purl.org/dc/elements/1.1/"
   xmlns:cc="http://creativecommons.org/ns#"
   xmlns:rdf="http://www.w3.org/1999/02/22-rdf-syntax-ns#"
   xmlns:svg="http://www.w3.org/2000/svg"
   xmlns="http://www.w3.org/2000/svg"
   xmlns:sodipodi="http://sodipodi.sourceforge.net/DTD/sodipodi-0.dtd"
   xmlns:inkscape="http://www.inkscape.org/namespaces/inkscape"
   width="33.284702mm"
   height="24.167974mm"
   viewBox="0 0 33.284702 24.167974"
   version="1.1"
   id="svg12984"
   inkscape:version="1.0.1 (3bc2e813f5, 2020-09-07)"
   sodipodi:docname="fig_20_8.svg">
  <defs
     id="defs12978">
    <marker
       style="overflow:visible"
       id="Arrow1Mstart"
       refX="0"
       refY="0"
       orient="auto"
       inkscape:stockid="Arrow1Mstart"
       inkscape:isstock="true">
      <path
         transform="matrix(0.4,0,0,0.4,4,0)"
         style="fill:#000000;fill-opacity:1;fill-rule:evenodd;stroke:#000000;stroke-width:1pt;stroke-opacity:1"
         d="M 0,0 5,-5 -12.5,0 5,5 Z"
         id="path13827" />
    </marker>
    <marker
       style="overflow:visible"
       id="Arrow1Mend"
       refX="0"
       refY="0"
       orient="auto"
       inkscape:stockid="Arrow1Mend"
       inkscape:isstock="true">
      <path
         transform="matrix(-0.4,0,0,-0.4,-4,0)"
         style="fill:#000000;fill-opacity:1;fill-rule:evenodd;stroke:#000000;stroke-width:1pt;stroke-opacity:1"
         d="M 0,0 5,-5 -12.5,0 5,5 Z"
         id="path13830" />
    </marker>
    <pattern
       id="EMFhbasepattern"
       patternUnits="userSpaceOnUse"
       width="6"
       height="6"
       x="0"
       y="0" />
    <g
       id="g6214">
      <symbol
         id="symbol6208"
         overflow="visible">
        <path
           id="path6206"
           d="M 0.5,0 H 4.484375 V -4.8125 H 0.5 Z M 1,-0.5 V -4.3125 H 3.984375 V -0.5 Z m 0,0"
           style="stroke:none" />
      </symbol>
      <symbol
         id="symbol6212"
         overflow="visible">
        <path
           id="path6210"
           d="M 0.921875,-1.359375 C 0.78125,-1 0.671875,-0.6875 0.46875,-0.4375 0.375,-0.3125 0,-0.25 -0.125,-0.25 c -0.03125,0.078125 -0.03125,0.25 0,0.28125 0.453125,-0.015625 0.609375,-0.046875 1.046875,-0.046875 0.4375,0 0.5625,0.03125 0.953125,0.046875 0.015625,-0.0625 0.015625,-0.25 -0.015625,-0.28125 -0.078125,0 -0.6875,-0.046875 -0.6875,-0.28125 0,-0.125 0.03125,-0.34375 0.140625,-0.6875 0.171875,-0.46875 0.4375,-1.1875 0.4375,-1.1875 0,0 0.03125,-0.03125 0.046875,-0.03125 0.453125,-0.03125 0.65625,-0.03125 1.046875,-0.03125 0.25,0 0.71875,0 0.96875,0.015625 0.03125,0 0.0625,0.046875 0.0625,0.046875 0,0 0.65625,1.59375 0.65625,1.890625 0,0.0625 0,0.109375 -0.03125,0.140625 -0.09375,0.078125 -0.4375,0.125 -0.546875,0.125 -0.0625,0.046875 -0.0625,0.234375 0,0.28125 0.4375,-0.015625 0.671875,-0.046875 1.125,-0.046875 0.421875,0 0.671875,0.03125 1.0625,0.046875 C 6.15625,0 6.171875,-0.171875 6.125,-0.25 6.046875,-0.25 5.5625,-0.359375 5.46875,-0.59375 5.4375,-0.625 5.359375,-0.875 5.21875,-1.21875 L 3.234375,-6.4375 c -0.03125,0 -0.03125,-0.015625 -0.0625,-0.015625 -0.09375,0 -0.328125,0.1875 -0.375,0.28125 -0.59375,1.515625 -1.875,4.8125 -1.875,4.8125 z M 2.828125,-5.28125 3.6875,-2.921875 c 0,0 -0.015625,0.046875 -0.03125,0.046875 -0.296875,0.03125 -0.515625,0.03125 -0.8125,0.03125 -0.21875,0 -0.640625,0 -0.890625,-0.015625 C 1.9375,-2.859375 1.9375,-2.90625 1.9375,-2.90625 Z m 0,0"
           style="stroke:none" />
      </symbol>
    </g>
    <g
       id="g6230">
      <symbol
         id="symbol6224"
         overflow="visible">
        <path
           id="path6222"
           d="M 0.5,0 H 4.484375 V -4.8125 H 0.5 Z M 1,-0.5 V -4.3125 H 3.984375 V -0.5 Z m 0,0"
           style="stroke:none" />
      </symbol>
      <symbol
         id="symbol6228"
         overflow="visible">
        <path
           id="path6226"
           d="m 2,-3.234375 h 0.609375 c 1.484375,0 1.796875,0.796875 1.796875,1.515625 0,1.1875 -0.8125,1.40625 -1.546875,1.40625 C 2.5,-0.3125 2.25,-0.328125 2.09375,-0.484375 2.03125,-0.5625 2,-1 2,-1.140625 Z M 2,-3.59375 v -1.6875 c 0,-0.28125 0,-0.609375 0.046875,-0.734375 0.046875,-0.078125 0.375,-0.078125 0.5,-0.078125 0.90625,0 1.484375,0.484375 1.484375,1.34375 0,0.5625 -0.328125,1.15625 -1.203125,1.15625 z m 0.96875,-2.828125 c -0.578125,0 -1,0.015625 -1.390625,0.015625 -0.375,0 -0.734375,-0.015625 -1.140625,-0.03125 -0.046875,0.046875 -0.03125,0.234375 0,0.28125 0.125,0 0.640625,0.03125 0.671875,0.140625 0.046875,0.15625 0.046875,0.4375 0.046875,0.734375 v 4.125 c 0,0.28125 0,0.5625 -0.046875,0.71875 C 1.078125,-0.328125 0.5625,-0.28125 0.4375,-0.28125 0.40625,-0.234375 0.390625,-0.046875 0.4375,0 h 2.25 C 3.421875,-0.015625 4.25,-0.140625 4.71875,-0.53125 5.203125,-0.921875 5.375,-1.375 5.375,-1.9375 c 0,-0.96875 -0.953125,-1.546875 -1.421875,-1.578125 -0.03125,-0.015625 -0.03125,-0.015625 0,-0.03125 0.328125,-0.125 0.96875,-0.671875 0.96875,-1.421875 0,-1.109375 -1.0625,-1.453125 -1.953125,-1.453125 z m 0,0"
           style="stroke:none" />
      </symbol>
    </g>
    <g
       id="g13617">
      <symbol
         overflow="visible"
         id="symbol13611">
        <path
           style="stroke:none"
           d="M 0.5,0 H 4.484375 V -4.8125 H 0.5 Z M 1,-0.5 V -4.3125 H 3.984375 V -0.5 Z m 0,0"
           id="path13609" />
      </symbol>
      <symbol
         overflow="visible"
         id="symbol13615">
        <path
           style="stroke:none"
           d="m 3.765625,-6.484375 c -1.921875,0 -3.296875,1.53125 -3.296875,3.359375 0,1.71875 1.328125,3.1875 3.25,3.1875 0.890625,0 1.5625,-0.140625 2.09375,-0.4375 C 5.953125,-0.5 6.15625,-1.578125 6.15625,-1.78125 6.0625,-1.84375 5.9375,-1.875 5.84375,-1.859375 5.765625,-1.546875 5.625,-1.0625 5.25,-0.734375 c -0.28125,0.25 -0.6875,0.46875 -1.296875,0.46875 -1.6875,0 -2.515625,-1.5625 -2.515625,-3.078125 0,-1.359375 0.921875,-2.828125 2.375,-2.828125 1.625,0 1.84375,1.125 1.90625,1.421875 0.015625,0.015625 0.046875,0.03125 0.109375,0.03125 0.109375,0 0.21875,-0.0625 0.21875,-0.125 0,-0.09375 -0.21875,-1.453125 -0.21875,-1.453125 -0.71875,-0.15625 -1.4375,-0.1875 -2.0625,-0.1875 z m 0,0"
           id="path13613" />
      </symbol>
    </g>
    <pattern
       id="EMFhbasepattern-6"
       patternUnits="userSpaceOnUse"
       width="6"
       height="6"
       x="0"
       y="0" />
    <g
       id="g7014">
      <symbol
         id="symbol7008"
         overflow="visible">
        <path
           id="path7006"
           d="M 0.5,0 H 4.484375 V -4.8125 H 0.5 Z M 1,-0.5 V -4.3125 H 3.984375 V -0.5 Z m 0,0"
           style="stroke:none" />
      </symbol>
      <symbol
         id="symbol7012"
         overflow="visible">
        <path
           id="path7010"
           d="m 2.171875,-1.125 c 0,0.28125 -0.015625,0.5625 -0.0625,0.71875 C 2.078125,-0.296875 1.609375,-0.25 1.5,-0.25 c -0.046875,0.046875 -0.046875,0.234375 0,0.28125 0.390625,-0.015625 0.65625,-0.046875 1.03125,-0.046875 0.375,0 0.6875,0.03125 1.09375,0.046875 0.046875,-0.046875 0.03125,-0.234375 0,-0.28125 C 3.5,-0.25 3.015625,-0.296875 2.984375,-0.40625 2.9375,-0.5625 2.9375,-0.84375 2.9375,-1.125 v -4.03125 c 0,-0.59375 0.078125,-0.9375 0.078125,-0.9375 0,-0.046875 -0.03125,-0.15625 -0.09375,-0.15625 H 2.90625 C 2.875,-6.25 2,-5.828125 1.203125,-5.46875 c -0.03125,0.015625 0,0.046875 0,0.0625 0,0.078125 0.03125,0.125 0.078125,0.171875 0.171875,-0.0625 0.546875,-0.203125 0.6875,-0.203125 0.140625,0 0.203125,0.09375 0.203125,0.375 z m 0,0"
           style="stroke:none" />
      </symbol>
    </g>
    <g
       style="fill:#3a493f;stroke-width:0"
       id="g3367">
      <symbol
         style="fill:#3a493f;stroke-width:0"
         overflow="visible"
         id="symbol3361">
        <path
           style="fill:#3a493f;stroke:none;stroke-width:0"
           d="M 0.5,0 H 4.484375 V -4.8125 H 0.5 Z M 1,-0.5 V -4.3125 H 3.984375 V -0.5 Z m 0,0"
           id="path3359" />
      </symbol>
      <symbol
         style="fill:#3a493f;stroke-width:0"
         overflow="visible"
         id="symbol3365">
        <path
           style="fill:#3a493f;stroke:none;stroke-width:0"
           d="m 2.484375,-5.875 c 0.71875,0 1.203125,1.1875 1.203125,2.71875 0,1.515625 -0.4375,2.828125 -1.3125,2.828125 -0.703125,0 -1.21875,-1.25 -1.21875,-2.78125 0,-1.53125 0.515625,-2.765625 1.328125,-2.765625 z m -0.0625,-0.359375 c -1.34375,0 -2.125,1.421875 -2.125,3.125 0,1.6875 0.796875,3.140625 2.125,3.140625 1.34375,0 2.125,-1.453125 2.125,-3.140625 0,-1.703125 -0.765625,-3.125 -2.125,-3.125 z m 0,0"
           id="path3363" />
      </symbol>
    </g>
    <pattern
       id="EMFhbasepattern-8"
       patternUnits="userSpaceOnUse"
       width="6"
       height="6"
       x="0"
       y="0" />
    <g
       id="g28967">
      <symbol
         id="symbol28961"
         overflow="visible">
        <path
           id="path28959"
           d="M 0.5,0 H 4.484375 V -4.8125 H 0.5 Z M 1,-0.5 V -4.3125 H 3.984375 V -0.5 Z m 0,0"
           style="stroke:none" />
      </symbol>
      <symbol
         id="symbol28965"
         overflow="visible">
        <path
           id="path28963"
           d="m 2.171875,-1.125 c 0,0.28125 -0.015625,0.5625 -0.0625,0.71875 C 2.078125,-0.296875 1.609375,-0.25 1.5,-0.25 c -0.046875,0.046875 -0.046875,0.234375 0,0.28125 0.390625,-0.015625 0.65625,-0.046875 1.03125,-0.046875 0.375,0 0.6875,0.03125 1.09375,0.046875 0.046875,-0.046875 0.03125,-0.234375 0,-0.28125 C 3.5,-0.25 3.015625,-0.296875 2.984375,-0.40625 2.9375,-0.5625 2.9375,-0.84375 2.9375,-1.125 v -4.03125 c 0,-0.59375 0.078125,-0.9375 0.078125,-0.9375 0,-0.046875 -0.03125,-0.15625 -0.09375,-0.15625 H 2.90625 C 2.875,-6.25 2,-5.828125 1.203125,-5.46875 c -0.03125,0.015625 0,0.046875 0,0.0625 0,0.078125 0.03125,0.125 0.078125,0.171875 0.171875,-0.0625 0.546875,-0.203125 0.6875,-0.203125 0.140625,0 0.203125,0.09375 0.203125,0.375 z m 0,0"
           style="stroke:none" />
      </symbol>
    </g>
    <g
       id="g28983">
      <symbol
         id="symbol28977"
         overflow="visible">
        <path
           id="path28975"
           d="M 0.5,0 H 4.484375 V -4.8125 H 0.5 Z M 1,-0.5 V -4.3125 H 3.984375 V -0.5 Z m 0,0"
           style="stroke:none" />
      </symbol>
      <symbol
         id="symbol28981"
         overflow="visible">
        <path
           id="path28979"
           d="M 4.421875,-1.453125 C 4.375,-1.484375 4.25,-1.515625 4.21875,-1.515625 c -0.0625,0 -0.09375,0.015625 -0.109375,0.0625 -0.21875,0.5 -0.4375,0.75 -0.8125,0.75 h -1.9375 c 0.4375,-0.5 1.4375,-1.59375 2.125,-2.453125 C 3.8125,-3.5625 4.03125,-4.0625 4.03125,-4.625 c 0,-0.828125 -0.734375,-1.625 -1.671875,-1.625 -1.03125,0 -1.734375,1.078125 -1.796875,1.3125 0,0.046875 0.109375,0.15625 0.1875,0.15625 0.125,-0.1875 0.609375,-0.828125 1.390625,-0.828125 0.609375,0 1.0625,0.5 1.0625,1.171875 0,0.484375 -0.0625,0.875 -0.46875,1.453125 -0.5625,0.828125 -1.5,1.9375 -2.3125,2.84375 0,0.046875 0.0625,0.125 0.09375,0.140625 h 3.375 c 0.0625,-0.171875 0.328125,-0.984375 0.53125,-1.453125 z m 0,0"
           style="stroke:none" />
      </symbol>
    </g>
    <g
       style="fill:#9e7867;fill-opacity:1;stroke-width:0"
       id="g28999">
      <symbol
         style="fill:#9e7867;fill-opacity:1;stroke-width:0"
         overflow="visible"
         id="symbol28993">
        <path
           style="fill:#9e7867;fill-opacity:1;stroke:none;stroke-width:0"
           d="M 0.5,0 H 4.484375 V -4.8125 H 0.5 Z M 1,-0.5 V -4.3125 H 3.984375 V -0.5 Z m 0,0"
           id="path28991" />
      </symbol>
      <symbol
         style="fill:#9e7867;fill-opacity:1;stroke-width:0"
         overflow="visible"
         id="symbol28997">
        <path
           style="fill:#9e7867;fill-opacity:1;stroke:none;stroke-width:0"
           d="m 2.515625,-6.25 c -0.765625,0 -1.3125,0.5 -1.625,0.953125 0,0.078125 0.0625,0.203125 0.125,0.203125 0.09375,-0.0625 0.46875,-0.640625 1.09375,-0.640625 0.546875,0 0.953125,0.390625 0.953125,0.90625 0,0.84375 -0.734375,1.265625 -1.515625,1.4375 -0.015625,0.03125 -0.015625,0.0625 -0.015625,0.09375 0,0.09375 0.015625,0.140625 0.046875,0.203125 0.125,-0.03125 0.375,-0.125 0.578125,-0.125 0.640625,0 1.25,0.578125 1.25,1.359375 0,1.125 -0.625,1.515625 -1.140625,1.515625 -0.265625,0 -0.53125,-0.0625 -0.71875,-0.25 C 1.390625,-0.75 1.265625,-1.015625 1,-1.015625 c -0.21875,0 -0.40625,0.1875 -0.40625,0.46875 0,0.15625 0.140625,0.328125 0.1875,0.375 0.3125,0.15625 0.734375,0.21875 1,0.21875 C 2.984375,0.046875 4.25,-0.78125 4.25,-2.125 4.25,-3.078125 3.453125,-3.609375 2.890625,-3.6875 3.234375,-3.890625 3.78125,-4.375 3.78125,-5 c 0,-0.796875 -0.765625,-1.25 -1.265625,-1.25 z m 0,0"
           id="path28995" />
      </symbol>
    </g>
    <g
       id="g29015"
       style="fill:#000000;fill-opacity:1;stroke-width:0">
      <symbol
         id="symbol29009"
         overflow="visible"
         style="fill:#000000;fill-opacity:1;stroke-width:0">
        <path
           id="path29007"
           d="M 0.5,0 H 4.484375 V -4.8125 H 0.5 Z M 1,-0.5 V -4.3125 H 3.984375 V -0.5 Z m 0,0"
           style="fill:#000000;fill-opacity:1;stroke:none;stroke-width:0" />
      </symbol>
      <symbol
         id="symbol29013"
         overflow="visible"
         style="fill:#000000;fill-opacity:1;stroke-width:0">
        <path
           id="path29011"
           d="m 3.734375,-6.265625 c -0.078125,0 -0.25,0.171875 -0.3125,0.25 L 0.265625,-1.875 c 0,0.0625 0.03125,0.140625 0.09375,0.1875 H 3.09375 v 1.671875 c 0,0.0625 0.125,0.078125 0.359375,0.078125 0.375,0 0.421875,-0.046875 0.421875,-0.046875 V -1.6875 H 4.546875 C 4.5625,-1.71875 4.578125,-1.765625 4.578125,-1.859375 4.578125,-2.0625 4.5,-2.25 4.453125,-2.25 H 3.875 v -3.84375 c 0,-0.078125 -0.046875,-0.171875 -0.140625,-0.171875 z M 3.09375,-5.109375 V -2.25 H 0.921875 Z m 0,0"
           style="fill:#000000;fill-opacity:1;stroke:none;stroke-width:0" />
      </symbol>
    </g>
    <g
       id="g65727">
      <symbol
         overflow="visible"
         id="symbol65713">
        <path
           style="stroke:none"
           d=""
           id="path65711" />
      </symbol>
      <symbol
         overflow="visible"
         id="symbol65717">
        <path
           style="stroke:none"
           d="M 2.953125,-4.921875 C 2.953125,-6.015625 2.796875,-7 2.1875,-7 1.859375,-7 1.390625,-6.625 1.203125,-6.1875 1.1875,-6.125 1.234375,-6 1.28125,-6 c 0.078125,-0.09375 0.40625,-0.328125 0.625,-0.328125 0.578125,0 0.71875,0.640625 0.71875,1.5 0,0.171875 0,0.359375 -0.015625,0.546875 -0.078125,0.4375 -2.1875,3.46875 -3,3.921875 0,0.109375 0.265625,0.4375 0.421875,0.4375 0.03125,0 0.109375,-0.015625 0.171875,-0.046875 0.25,-0.328125 1.875,-2.265625 2.34375,-3.078125 C 2.53125,-2.734375 2.5,-2.328125 2.5,-1.890625 c 0,0.9375 0.125,1.9375 0.703125,1.9375 0.359375,0 0.71875,-0.421875 0.84375,-0.734375 0.015625,-0.03125 -0.015625,-0.1875 -0.0625,-0.234375 -0.109375,0.125 -0.296875,0.25 -0.5,0.25 -0.171875,0 -0.46875,-0.109375 -0.578125,-0.65625 C 2.875,-1.53125 2.84375,-1.875 2.84375,-2.375 c 0,-0.75 0.109375,-1.734375 0.109375,-2.546875 z m 0,0"
           id="path65715" />
      </symbol>
      <symbol
         overflow="visible"
         id="symbol65721">
        <path
           style="stroke:none"
           d="m 0.359375,0 h 2.90625 V -3.515625 H 0.359375 Z M 0.71875,-0.359375 v -2.78125 h 2.1875 v 2.78125 z m 0,0"
           id="path65719" />
      </symbol>
      <symbol
         overflow="visible"
         id="symbol65725">
        <path
           style="stroke:none"
           d="m 1.8125,-4.28125 c 0.515625,0 0.875,0.859375 0.875,1.984375 0,1.109375 -0.3125,2.0625 -0.953125,2.0625 -0.515625,0 -0.890625,-0.921875 -0.890625,-2.03125 0,-1.109375 0.375,-2.015625 0.96875,-2.015625 z M 1.765625,-4.546875 c -0.984375,0 -1.546875,1.046875 -1.546875,2.28125 0,1.234375 0.578125,2.28125 1.546875,2.28125 0.984375,0 1.546875,-1.046875 1.546875,-2.28125 0,-1.234375 -0.546875,-2.28125 -1.546875,-2.28125 z m 0,0"
           id="path65723" />
      </symbol>
    </g>
    <pattern
       id="EMFhbasepattern-4"
       patternUnits="userSpaceOnUse"
       width="6"
       height="6"
       x="0"
       y="0" />
    <g
       id="id-2f46e502-f401-406c-8cc9-b88abd962028">
      <symbol
         overflow="visible"
         id="id-31a51938-85e9-45d7-81e3-5701fc773114">
        <path
           style="stroke:none"
           d=""
           id="id-d96f1b2f-02dd-4d6f-86f7-1adefc74b587" />
      </symbol>
      <symbol
         overflow="visible"
         id="id-0d2e4454-b12d-4f78-a43c-239b54ae77cb">
        <path
           style="stroke:none"
           d="M 2.953125,-4.921875 C 2.953125,-6.015625 2.796875,-7 2.1875,-7 1.859375,-7 1.390625,-6.625 1.203125,-6.1875 1.1875,-6.125 1.234375,-6 1.28125,-6 c 0.078125,-0.09375 0.40625,-0.328125 0.625,-0.328125 0.578125,0 0.71875,0.640625 0.71875,1.5 0,0.171875 0,0.359375 -0.015625,0.546875 -0.078125,0.4375 -2.1875,3.46875 -3,3.921875 0,0.109375 0.265625,0.4375 0.421875,0.4375 0.03125,0 0.109375,-0.015625 0.171875,-0.046875 0.25,-0.328125 1.875,-2.265625 2.34375,-3.078125 C 2.53125,-2.734375 2.5,-2.328125 2.5,-1.890625 c 0,0.9375 0.125,1.9375 0.703125,1.9375 0.359375,0 0.71875,-0.421875 0.84375,-0.734375 0.015625,-0.03125 -0.015625,-0.1875 -0.0625,-0.234375 -0.109375,0.125 -0.296875,0.25 -0.5,0.25 -0.171875,0 -0.46875,-0.109375 -0.578125,-0.65625 C 2.875,-1.53125 2.84375,-1.875 2.84375,-2.375 c 0,-0.75 0.109375,-1.734375 0.109375,-2.546875 z m 0,0"
           id="id-18b170c2-7bf6-4a3a-9ce4-11b88e9376f2" />
      </symbol>
    </g>
    <g
       id="id-2c10467e-20e2-44ec-8fc2-9a280cd42915">
      <symbol
         overflow="visible"
         id="id-55c23893-2e2f-4371-8473-9561fb63f9fc">
        <path
           style="stroke:none"
           d=""
           id="id-92067cec-e345-4500-a638-53f092aa24cb" />
      </symbol>
      <symbol
         overflow="visible"
         id="id-f192478d-6a37-42b8-978c-44f680e17bb4">
        <path
           style="stroke:none"
           d="m 1.796875,-3.328125 c 0.0625,-0.21875 0.09375,-0.453125 0.09375,-0.546875 0,-0.296875 -0.171875,-0.515625 -0.390625,-0.515625 -0.484375,0 -1.171875,0.765625 -1.28125,0.953125 0,0.0625 0.078125,0.1875 0.09375,0.1875 0.03125,-0.03125 0.5,-0.59375 0.71875,-0.59375 0.09375,0 0.09375,0.171875 0.09375,0.265625 0,0.046875 -0.03125,0.265625 -0.03125,0.3125 L 0.421875,0 c 0.125,0.03125 0.21875,0.046875 0.359375,0.046875 0.140625,0 0.234375,-0.015625 0.359375,-0.046875 0.09375,-0.484375 0.171875,-0.734375 0.25,-1.21875 0.25,-1.265625 1.5,-2.421875 1.875,-2.421875 0.171875,0 0.1875,0.171875 0.1875,0.4375 C 3.453125,-3.09375 3.40625,-2.75 3.375,-2.65625 L 3.03125,-1 c -0.046875,0.21875 -0.078125,0.453125 -0.078125,0.53125 0,0.296875 0.125,0.53125 0.34375,0.53125 0.484375,0 1.203125,-0.765625 1.3125,-0.953125 C 4.609375,-0.953125 4.5625,-1.0625 4.53125,-1.0625 4.5,-1.03125 4.03125,-0.5 3.8125,-0.5 c -0.09375,0 -0.109375,-0.15625 -0.109375,-0.25 0,-0.046875 0.03125,-0.21875 0.046875,-0.3125 L 4.09375,-2.625 c 0.078125,-0.328125 0.140625,-0.78125 0.140625,-1.09375 0,-0.40625 -0.171875,-0.671875 -0.640625,-0.671875 -0.671875,0 -1.84375,1.65625 -1.96875,1.90625 z m 0,0"
           id="id-ca155768-a320-421f-be59-d03f49bbb13e" />
      </symbol>
    </g>
    <pattern
       id="EMFhbasepattern-9"
       patternUnits="userSpaceOnUse"
       width="6"
       height="6"
       x="0"
       y="0" />
  </defs>
  <sodipodi:namedview
     id="base"
     pagecolor="#ffffff"
     bordercolor="#666666"
     borderopacity="1.0"
     inkscape:pageopacity="0.0"
     inkscape:pageshadow="2"
     inkscape:zoom="3.959798"
     inkscape:cx="38.592986"
     inkscape:cy="31.357061"
     inkscape:document-units="mm"
     inkscape:current-layer="layer1"
     inkscape:document-rotation="0"
     showgrid="false"
     inkscape:window-width="1600"
     inkscape:window-height="837"
     inkscape:window-x="-8"
     inkscape:window-y="-8"
     inkscape:window-maximized="1" />
  <metadata
     id="metadata12981">
    <rdf:RDF>
      <cc:Work
         rdf:about="">
        <dc:format>image/svg+xml</dc:format>
        <dc:type
           rdf:resource="http://purl.org/dc/dcmitype/StillImage" />
        <dc:title></dc:title>
      </cc:Work>
    </rdf:RDF>
  </metadata>
  <g
     inkscape:label="Layer 1"
     inkscape:groupmode="layer"
     id="layer1"
     transform="translate(40.986253,1.1691015)">
    <path
       style="fill:none;stroke:#000000;stroke-width:0.264583px;stroke-linecap:round;stroke-linejoin:round;stroke-opacity:1;marker-start:url(#Arrow1Mstart);marker-end:url(#Arrow1Mend)"
       d="M -37.19269,-0.64769273 V 18.758923 h 28.9697288"
       id="path13819"
       sodipodi:nodetypes="ccc" />
    <path
       style="fill:none;stroke:#506a65;stroke-width:0.362874;stroke-linecap:round;stroke-linejoin:miter;stroke-miterlimit:4;stroke-dasharray:none;stroke-dashoffset:0;stroke-opacity:1"
       d="m -34.845613,17.007091 c 6.252927,-5.403717 4.328649,-11.2616929 7.343982,-11.2616929 1.452984,0 1.048243,0.4558247 2.507599,0.4558247 2.670039,0 2.200861,-1.6691344 4.39956,-1.6691344 2.211933,0 2.68723,2.6701372 3.34968,5.5617116 0.675733,2.949554 1.542141,6.131544 4.227866,7.153604"
       id="path14161"
       sodipodi:nodetypes="cssssc" />
    <g
       id="g3286"
       style="fill:#000000;stroke-width:0"
       ns2:jacobian_sqrt="0.423334"
       ns2:inkscapeversion="1.0"
       ns2:alignment="middle center"
       ns2:scale="1.1999998866143555"
       ns2:preamble="C:\\Users\\flvisa\\Desktop\\lna\\latexify_books\\textext_preamble.tex"
       ns2:text="$0$"
       ns2:pdfconverter="inkscape"
       ns2:texconverter="pdflatex"
       ns2:version="1.1.0"
       transform="matrix(0.42333399,0,0,0.42333399,-39.706181,20.194447)">
      <defs
         id="id-c9b5e3a1-af6b-45d7-8f9c-7fa4577b7189">
        <g
           style="fill:#3a493f;stroke-width:0"
           id="g14257">
          <symbol
             style="fill:#3a493f;stroke-width:0"
             overflow="visible"
             id="symbol14251">
            <path
               style="fill:#3a493f;stroke:none;stroke-width:0"
               d="M 0.5,0 H 4.484375 V -4.8125 H 0.5 Z M 1,-0.5 V -4.3125 H 3.984375 V -0.5 Z m 0,0"
               id="path14249" />
          </symbol>
          <symbol
             style="fill:#3a493f;stroke-width:0"
             overflow="visible"
             id="symbol14255">
            <path
               style="fill:#3a493f;stroke:none;stroke-width:0"
               d="m 2.484375,-5.875 c 0.71875,0 1.203125,1.1875 1.203125,2.71875 0,1.515625 -0.4375,2.828125 -1.3125,2.828125 -0.703125,0 -1.21875,-1.25 -1.21875,-2.78125 0,-1.53125 0.515625,-2.765625 1.328125,-2.765625 z m -0.0625,-0.359375 c -1.34375,0 -2.125,1.421875 -2.125,3.125 0,1.6875 0.796875,3.140625 2.125,3.140625 1.34375,0 2.125,-1.453125 2.125,-3.140625 0,-1.703125 -0.765625,-3.125 -2.125,-3.125 z m 0,0"
               id="path14253" />
          </symbol>
        </g>
      </defs>
      <g
         style="fill:#000000;stroke-width:0"
         id="id-75a4d36a-b09c-4574-85f5-edd07e979b84"
         transform="translate(-149.009,-128.531)">
        <g
           style="fill:#000000;fill-opacity:1;stroke-width:0"
           id="id-e73582e4-c014-49ba-9e2b-505396076844">
          <g
             id="g3282"
             style="fill:#000000;stroke-width:0"
             transform="translate(148.712,134.765)">
            <path
               style="fill:#000000;stroke:none;stroke-width:0"
               d="m 2.484375,-5.875 c 0.71875,0 1.203125,1.1875 1.203125,2.71875 0,1.515625 -0.4375,2.828125 -1.3125,2.828125 -0.703125,0 -1.21875,-1.25 -1.21875,-2.78125 0,-1.53125 0.515625,-2.765625 1.328125,-2.765625 z m -0.0625,-0.359375 c -1.34375,0 -2.125,1.421875 -2.125,3.125 0,1.6875 0.796875,3.140625 2.125,3.140625 1.34375,0 2.125,-1.453125 2.125,-3.140625 0,-1.703125 -0.765625,-3.125 -2.125,-3.125 z m 0,0"
               id="id-9ce7ca54-69fd-4d5e-ab37-f20ad0949d24" />
          </g>
        </g>
      </g>
    </g>
    <g
       transform="matrix(0.42333333,0,0,0.42333333,-11.033376,20.002466)"
       ns2:version="1.1.0"
       ns2:texconverter="pdflatex"
       ns2:pdfconverter="inkscape"
       ns2:text="$\\lambda$\n\n\n\n\n"
       ns2:preamble="C:\\Users\\flvisa\\Desktop\\lna\\latexify_books\\textext_preamble.tex"
       ns2:scale="4.535431836569771"
       ns2:alignment="middle center"
       ns2:inkscapeversion="1.0.1"
       ns2:jacobian_sqrt="1.6"
       id="g74568">
      <defs
         id="id-22d7ed8e-57a5-4389-86a2-24285ceb4669">
        <g
           id="g16209">
          <symbol
             overflow="visible"
             id="symbol16203">
            <path
               style="stroke:none"
               d=""
               id="path16201" />
          </symbol>
          <symbol
             overflow="visible"
             id="symbol16207">
            <path
               style="stroke:none"
               d="M 2.953125,-4.921875 C 2.953125,-6.015625 2.796875,-7 2.1875,-7 1.859375,-7 1.390625,-6.625 1.203125,-6.1875 1.1875,-6.125 1.234375,-6 1.28125,-6 c 0.078125,-0.09375 0.40625,-0.328125 0.625,-0.328125 0.578125,0 0.71875,0.640625 0.71875,1.5 0,0.171875 0,0.359375 -0.015625,0.546875 -0.078125,0.4375 -2.1875,3.46875 -3,3.921875 0,0.109375 0.265625,0.4375 0.421875,0.4375 0.03125,0 0.109375,-0.015625 0.171875,-0.046875 0.25,-0.328125 1.875,-2.265625 2.34375,-3.078125 C 2.53125,-2.734375 2.5,-2.328125 2.5,-1.890625 c 0,0.9375 0.125,1.9375 0.703125,1.9375 0.359375,0 0.71875,-0.421875 0.84375,-0.734375 0.015625,-0.03125 -0.015625,-0.1875 -0.0625,-0.234375 -0.109375,0.125 -0.296875,0.25 -0.5,0.25 -0.171875,0 -0.46875,-0.109375 -0.578125,-0.65625 C 2.875,-1.53125 2.84375,-1.875 2.84375,-2.375 c 0,-0.75 0.109375,-1.734375 0.109375,-2.546875 z m 0,0"
               id="path16205" />
          </symbol>
        </g>
      </defs>
      <g
         id="id-e89ac181-79f2-4884-9431-038b173e21d5"
         transform="translate(-148.69,-127.765)">
        <g
           style="fill:#000000;fill-opacity:1"
           id="id-289ee088-c67c-4fbb-bbac-88d97542d5a9">
          <g
             transform="translate(149.081,134.765)"
             id="g74564">
            <path
               style="stroke:none"
               d="M 2.953125,-4.921875 C 2.953125,-6.015625 2.796875,-7 2.1875,-7 1.859375,-7 1.390625,-6.625 1.203125,-6.1875 1.1875,-6.125 1.234375,-6 1.28125,-6 c 0.078125,-0.09375 0.40625,-0.328125 0.625,-0.328125 0.578125,0 0.71875,0.640625 0.71875,1.5 0,0.171875 0,0.359375 -0.015625,0.546875 -0.078125,0.4375 -2.1875,3.46875 -3,3.921875 0,0.109375 0.265625,0.4375 0.421875,0.4375 0.03125,0 0.109375,-0.015625 0.171875,-0.046875 0.25,-0.328125 1.875,-2.265625 2.34375,-3.078125 C 2.53125,-2.734375 2.5,-2.328125 2.5,-1.890625 c 0,0.9375 0.125,1.9375 0.703125,1.9375 0.359375,0 0.71875,-0.421875 0.84375,-0.734375 0.015625,-0.03125 -0.015625,-0.1875 -0.0625,-0.234375 -0.109375,0.125 -0.296875,0.25 -0.5,0.25 -0.171875,0 -0.46875,-0.109375 -0.578125,-0.65625 C 2.875,-1.53125 2.84375,-1.875 2.84375,-2.375 c 0,-0.75 0.109375,-1.734375 0.109375,-2.546875 z m 0,0"
               id="id-c59c9d45-6985-41c9-9753-181f99f03009" />
          </g>
        </g>
      </g>
    </g>
    <g
       transform="matrix(0.423334,0,0,0.423334,-40.9862,-0.0391517)"
       ns2:version="1.1.0"
       ns2:texconverter="pdflatex"
       ns2:pdfconverter="inkscape"
       ns2:text="$\\varkappa$\n\n\n"
       ns2:preamble="C:\\Users\\flvisa\\Desktop\\lna\\latexify_books\\textext_preamble.tex"
       ns2:scale="1.1999997165359095"
       ns2:alignment="middle center"
       ns2:inkscapeversion="1.0.1"
       ns2:jacobian_sqrt="0.423334"
       id="g16498">
      <defs
         id="id-60ccede9-4857-4843-8a10-7490d564ced5">
        <g
           id="id-2ec04d7f-4050-4f3f-860a-2d64a6b34cab">
          <symbol
             overflow="visible"
             id="id-26418e1d-ea76-4f20-89b5-07367d9d1286">
            <path
               style="stroke:none"
               d=""
               id="id-993588f8-1bad-4d02-a400-1dcc4c95405b" />
          </symbol>
          <symbol
             overflow="visible"
             id="id-6bc29df8-ddf6-4992-809e-e63b8d826c37">
            <path
               style="stroke:none"
               d="m 1.75,-2.234375 c 0.0625,-0.328125 0.140625,-0.75 0.140625,-1.171875 0,-0.4375 -0.109375,-0.984375 -0.5,-0.984375 -0.328125,0 -0.6875,0.328125 -0.859375,0.734375 -0.015625,0.03125 0,0.171875 0.0625,0.234375 0.09375,-0.109375 0.296875,-0.25 0.46875,-0.25 0.40625,0 0.484375,0.515625 0.484375,0.84375 0,0.4375 -0.046875,0.53125 -0.140625,0.859375 C 0.984375,-1.59375 0.390625,-1 0.109375,-0.734375 0.0625,-0.65625 0.046875,-0.5625 0.046875,-0.46875 c 0,0.234375 0.109375,0.515625 0.21875,0.515625 0.078125,0 0.1875,-0.046875 0.234375,-0.09375 0.46875,-0.359375 0.875,-1 1.09375,-1.46875 0.296875,-0.375 0.578125,-0.59375 0.796875,-0.828125 C 2.25,-1.90625 2.21875,-1.359375 2.21875,-0.953125 c 0,0.453125 0.109375,1 0.5,1 0.328125,0 0.6875,-0.34375 0.859375,-0.75 0.015625,-0.03125 -0.015625,-0.15625 -0.0625,-0.21875 -0.09375,0.109375 -0.296875,0.25 -0.46875,0.25 -0.40625,0 -0.484375,-0.515625 -0.484375,-0.84375 0,-0.4375 0.203125,-0.96875 0.3125,-1.15625 0.359375,-0.359375 1.015625,-0.890625 1.265625,-1.0625 0.03125,-0.03125 0.0625,-0.109375 0.0625,-0.1875 C 4.203125,-4.0625 3.875,-4.40625 3.75,-4.40625 c -0.21875,0 -0.90625,0.84375 -1.265625,1.453125 z m 0,0"
               id="id-73c4c6dc-fe98-4f5b-a31f-44c3629d962e" />
          </symbol>
        </g>
      </defs>
      <g
         id="id-7258f98f-5041-4485-a88a-4863259bd20f"
         transform="translate(-148.759,-130.359)">
        <g
           style="fill:#000000;fill-opacity:1"
           id="id-d99a109a-5452-4e36-9908-9925beb7d945">
          <g
             transform="translate(148.712,134.765)"
             id="g16494">
            <path
               style="stroke:none"
               d="m 1.75,-2.234375 c 0.0625,-0.328125 0.140625,-0.75 0.140625,-1.171875 0,-0.4375 -0.109375,-0.984375 -0.5,-0.984375 -0.328125,0 -0.6875,0.328125 -0.859375,0.734375 -0.015625,0.03125 0,0.171875 0.0625,0.234375 0.09375,-0.109375 0.296875,-0.25 0.46875,-0.25 0.40625,0 0.484375,0.515625 0.484375,0.84375 0,0.4375 -0.046875,0.53125 -0.140625,0.859375 C 0.984375,-1.59375 0.390625,-1 0.109375,-0.734375 0.0625,-0.65625 0.046875,-0.5625 0.046875,-0.46875 c 0,0.234375 0.109375,0.515625 0.21875,0.515625 0.078125,0 0.1875,-0.046875 0.234375,-0.09375 0.46875,-0.359375 0.875,-1 1.09375,-1.46875 0.296875,-0.375 0.578125,-0.59375 0.796875,-0.828125 C 2.25,-1.90625 2.21875,-1.359375 2.21875,-0.953125 c 0,0.453125 0.109375,1 0.5,1 0.328125,0 0.6875,-0.34375 0.859375,-0.75 0.015625,-0.03125 -0.015625,-0.15625 -0.0625,-0.21875 -0.09375,0.109375 -0.296875,0.25 -0.46875,0.25 -0.40625,0 -0.484375,-0.515625 -0.484375,-0.84375 0,-0.4375 0.203125,-0.96875 0.3125,-1.15625 0.359375,-0.359375 1.015625,-0.890625 1.265625,-1.0625 0.03125,-0.03125 0.0625,-0.109375 0.0625,-0.1875 C 4.203125,-4.0625 3.875,-4.40625 3.75,-4.40625 c -0.21875,0 -0.90625,0.84375 -1.265625,1.453125 z m 0,0"
               id="id-9b786200-a4ac-4af9-ab93-e7abd3334374" />
          </g>
        </g>
      </g>
    </g>
  </g>
</svg>
